<?xml version="1.0" standalone="no"?>
<!DOCTYPE svg PUBLIC "-//W3C//DTD SVG 1.1//EN" "http://www.w3.org/Graphics/SVG/1.1/DTD/svg11.dtd" >
<svg xmlns="http://www.w3.org/2000/svg" xmlns:xlink="http://www.w3.org/1999/xlink" version="1.1">
<metadata>
Created by FontForge 20170731 at Fri Mar 26 00:58:38 2004
 By Aleksey,,,
Copyright (c) Luke Owens, 2004. All rights reserved.
</metadata>
<defs>
<font id="OregonLDOExtended-Bold" horiz-adv-x="215" >
  <font-face 
    font-family="Oregon LDO Extended"
    font-weight="700"
    font-stretch="normal"
    units-per-em="1000"
    panose-1="2 1 6 3 0 0 0 2 0 4"
    ascent="800"
    descent="-200"
    x-height="487"
    cap-height="689"
    bbox="-41 -264 1278 907"
    underline-thickness="50"
    underline-position="-150"
    unicode-range="U+0020-FB02"
  />
<missing-glyph horiz-adv-x="278" 
 />
    <glyph glyph-name=".notdef" horiz-adv-x="278" 
 />
    <glyph glyph-name=".null" horiz-adv-x="0" 
 />
    <glyph glyph-name="nonmarkingreturn" horiz-adv-x="278" 
 />
    <glyph glyph-name="space" unicode=" " horiz-adv-x="278" 
 />
    <glyph glyph-name="space" unicode="&#xa0;" horiz-adv-x="278" 
 />
    <glyph glyph-name="exclam" unicode="!" horiz-adv-x="202" 
d="M71 162q-5 47 -10.5 98.5t-11 102t-10 97t-8.5 83t-6 60.5t-2 30q0 36 24 50.5t53 14.5t53 -14.5t24 -50.5q0 -7 -3 -37l-7.5 -75t-10.5 -100l-12 -110q-3 -34 -7.5 -76.5t-8.5 -72.5h-57zM14 61q0 30 25.5 51.5t60.5 21.5t60.5 -21.5t25.5 -51.5q0 -29 -25.5 -50.5
t-60.5 -21.5t-60.5 21.5t-25.5 50.5z" />
    <glyph glyph-name="quotedbl" unicode="&#x22;" horiz-adv-x="338" 
d="M31 698h99v-310h-99v310zM207 698h99v-310h-99v310z" />
    <glyph glyph-name="numbersign" unicode="#" horiz-adv-x="545" 
d="M164 409h-98q8 12 15 28t12 32t8 30.5t3 24.5h90q14 49 19.5 74t8.5 38q1 2 3.5 11t5.5 18q14 -4 23 -5.5t14 -1.5q4 0 20 3.5t43 9.5q-8 -14 -14.5 -26t-13 -28t-13.5 -38t-15 -55h97q12 47 18 72t10 38l-1 -2q1 5 4 17.5t4 15.5q29 -7 38 -7q5 0 21.5 3.5t45.5 10.5
q-10 -15 -17 -26.5t-13.5 -26.5t-13 -37t-15.5 -58h94q-6 -12 -12 -27.5t-11 -31.5t-8 -31t-3 -25h-91q-11 -43 -20.5 -78.5t-20.5 -80.5h95q-6 -12 -12 -27.5t-11 -31.5t-8 -31.5t-3 -25.5h-92q-3 -17 -8 -36q-4 -15 -6.5 -23.5t-5 -17.5t-5.5 -22.5t-7 -37.5
q-2 0 -13.5 0.5t-13.5 0.5q-5 1 -8 1.5t-5 0.5t-6.5 -0.5t-9.5 -1.5h-6.5t-12.5 -0.5t-12.5 -0.5h-6.5q5 11 9 21t9.5 25t12 36.5t15.5 54.5h-96q-8 -32 -13.5 -52.5t-9 -35t-5.5 -25.5t-4 -24h-5t-8.5 0.5t-9 0.5h-5.5q-5 1 -8.5 1.5t-5.5 0.5q-3 0 -13 -2h-7.5t-14 -0.5
t-14 -0.5h-7.5q6 12 11 22.5t10.5 25t12 35.5t15.5 54h-98q8 12 15 28t12 32t8 30.5t3 25.5h90zM342 409h-97q-6 -22 -11 -41t-9.5 -37.5t-9.5 -38t-11 -42.5h97z" />
    <glyph glyph-name="dollar" unicode="$" horiz-adv-x="579" 
d="M255 292q-53 17 -92 35t-64.5 40t-38 49.5t-12.5 65.5q0 74 55.5 124t150.5 64q-2 16 -6.5 36.5t-13.5 47.5q22 -7 37.5 -10t23.5 -3q6 0 21.5 3t37.5 9q-10 -30 -13.5 -48t-4.5 -31q36 -2 64.5 -8t51.5 -14t40.5 -17.5t32.5 -17.5q-16 -25 -26.5 -48t-18.5 -53h-41
q-5 12 -13.5 25t-21 24.5t-29.5 20.5t-39 13v-207q51 -17 91 -33.5t67.5 -37.5t41.5 -48.5t14 -64.5t-14.5 -71t-42 -62.5t-67 -50t-90.5 -31.5q1 -22 4 -48.5t11 -66.5q-42 11 -56 11q-7 0 -22 -3t-35 -9q8 33 12 60.5t5 47.5h-13q-59 0 -112.5 15t-107.5 49q14 28 19 51
t10 55h41q19 -28 39 -46t41 -29t41.5 -16t41.5 -6v234zM336 69q41 13 62.5 41.5t21.5 63.5q0 11 -2.5 22t-11.5 22.5t-25.5 23t-44.5 23.5v-196zM255 595q-33 -10 -55.5 -33.5t-22.5 -53.5q0 -32 20 -54.5t58 -37.5v179z" />
    <glyph glyph-name="percent" unicode="%" horiz-adv-x="1052" 
d="M603 161q0 37 15 69.5t42.5 56t66 37t85.5 13.5t86 -13.5t66.5 -37t42.5 -56t15 -69.5q0 -38 -15 -70t-42.5 -55.5t-66.5 -37t-86 -13.5t-85.5 13.5t-66 37t-42.5 55.5t-15 70zM31 498q0 37 15 69.5t42.5 56t66.5 37t86 13.5t85.5 -13.5t66 -37t42.5 -56t15 -69.5
q0 -38 -15 -70t-42.5 -55.5t-66 -37t-85.5 -13.5t-86 13.5t-66.5 37t-42.5 55.5t-15 70zM709 699q27 -8 36 -8q5 0 24.5 5t46.5 13l-475 -750q-13 4 -22.5 6.5t-13.5 2.5q-5 0 -24.5 -5.5t-47.5 -13.5zM157 498q0 -23 5 -44t15.5 -37t26.5 -25.5t37 -9.5q22 0 37.5 9.5
t26 25.5t15.5 37t5 44q0 22 -5 43t-15.5 37t-26 25.5t-37.5 9.5q-21 0 -37 -9.5t-26.5 -25.5t-15.5 -37t-5 -43zM728 161q0 -23 5 -44t15.5 -37t26 -25.5t37.5 -9.5q21 0 37 9.5t26.5 25.5t15.5 37t5 44q0 22 -5 43t-15.5 37t-26.5 25.5t-37 9.5q-22 0 -37.5 -9.5t-26 -25.5
t-15.5 -37t-5 -43z" />
    <glyph glyph-name="ampersand" unicode="&#x26;" horiz-adv-x="791" 
d="M163 513q0 34 15 63t41.5 51t63.5 34.5t81 12.5q39 0 71.5 -8t56 -24t36.5 -39.5t13 -53.5q0 -27 -14 -52.5t-35.5 -47t-48.5 -40t-53 -32.5l2 -1q47 -50 87 -90.5t86 -82.5q39 45 74 92t69 106q16 -26 35.5 -42t39.5 -27q-41 -52 -78.5 -94t-83.5 -88q19 -17 42 -37.5
t46.5 -41.5t45.5 -40.5t39 -35.5h-44t-25 1h1q-15 2 -29.5 3t-27.5 1q-12 0 -25.5 -1t-27.5 -3q-3 0 -11.5 -0.5t-10.5 -0.5q-11 11 -28 31t-40 43q-26 -20 -53 -36t-57.5 -27t-66 -17t-77.5 -6q-50 0 -94.5 11.5t-78 34t-53 56t-19.5 77.5q0 31 15.5 61.5t42.5 58t64 51
t80 41.5q-29 35 -47.5 69.5t-18.5 69.5zM162 179q0 -22 11.5 -42.5t32 -36.5t48.5 -25.5t62 -9.5q51 0 87.5 13.5t70.5 37.5q-54 52 -100 100t-96 103q-55 -27 -85.5 -58.5t-30.5 -81.5zM441 550q0 26 -20 42.5t-55 16.5q-38 0 -60.5 -20t-22.5 -50q0 -23 16.5 -53t43.5 -59
q49 27 73.5 60t24.5 63z" />
    <glyph glyph-name="quotesingle" unicode="'" horiz-adv-x="156" 
d="M26 698h99v-310h-99v310z" />
    <glyph glyph-name="parenleft" unicode="(" horiz-adv-x="261" 
d="M262 664q-47 -48 -76.5 -94t-46 -91.5t-22.5 -93.5t-6 -100q0 -53 6 -100.5t22.5 -93.5t46 -92t76.5 -94l-52 -39q-104 88 -157 196.5t-53 222.5q0 54 13.5 109.5t40 109.5t65.5 104.5t91 94.5z" />
    <glyph glyph-name="parenright" unicode=")" horiz-adv-x="261" 
d="M-2 -95q47 48 76.5 94t46 92t22.5 93.5t6 100.5q0 52 -6 100t-22.5 93.5t-46 91.5t-76.5 94l52 40q104 -89 157 -197.5t53 -221.5q0 -54 -13.5 -109.5t-40 -109.5t-65.5 -104.5t-91 -94.5z" />
    <glyph glyph-name="asterisk" unicode="*" horiz-adv-x="449" 
d="M169 691q21 -5 33.5 -7.5t22.5 -2.5q17 0 57 10l-19 -138q34 20 73 43.5t68 40.5q4 -24 21.5 -46t45.5 -38l-160 -57q38 -15 81 -31t73 -27q-20 -13 -38.5 -34.5t-22.5 -46.5l-141 78q5 -32 8.5 -68.5t7.5 -63.5q-17 2 -31.5 5t-22.5 3q-9 0 -24 -2.5t-32 -4.5l15 132
q-32 -19 -69.5 -41.5t-65.5 -37.5q-5 25 -23 46.5t-41 35.5l153 57q-38 14 -80 29t-74 26q18 14 37 37.5t19 50.5l144 -85z" />
    <glyph glyph-name="plus" unicode="+" horiz-adv-x="638" 
d="M1 302h268v214h99v-214h269v-87h-269v-215h-99v215h-268v87z" />
    <glyph glyph-name="comma" unicode="," 
d="M90 96q6 17 22 33t48 16q10 0 21 -3t20.5 -9t15.5 -16t6 -23q0 -15 -5.5 -26t-13.5 -22q-1 -1 -1 -1.5t-1 -1.5q-38 -51 -78 -106t-78 -105l-54 16z" />
    <glyph glyph-name="hyphen" unicode="-" horiz-adv-x="398" 
d="M32 286h332v-97h-332v97z" />
    <glyph glyph-name="period" unicode="." horiz-adv-x="204" 
d="M15 61q0 30 25.5 51.5t60.5 21.5t60.5 -21.5t25.5 -51.5q0 -29 -25.5 -50.5t-60.5 -21.5t-60.5 21.5t-25.5 50.5z" />
    <glyph glyph-name="slash" unicode="/" horiz-adv-x="416" 
d="M330 706q27 -8 41 -8q8 0 25 4t41 10l-351 -737q-13 4 -23 6t-19 2q-8 0 -24.5 -4t-40.5 -10z" />
    <glyph glyph-name="zero" unicode="0" horiz-adv-x="651" 
d="M30 329q0 70 15.5 133t50 110t91 74.5t139.5 27.5q91 0 148.5 -27.5t90 -74.5t44.5 -110t12 -133q0 -68 -17.5 -130.5t-53.5 -110t-92 -75.5t-132 -28q-91 0 -148.5 27.5t-90.5 74t-45 109t-12 133.5zM165 329q0 -59 8 -109.5t27 -87.5t50 -58t76 -21t76 21t49.5 58
t27 87.5t8.5 109.5t-8.5 109.5t-27 87.5t-49.5 58t-76 21t-76 -19.5t-50 -55.5t-27 -87t-8 -114z" />
    <glyph glyph-name="one" unicode="1" horiz-adv-x="336" 
d="M165 565q-32 -14 -67 -29t-63 -28q-8 13 -20.5 24t-25.5 19v31q34 11 71.5 24t76 27.5t74.5 28.5t67 26l27 -14q-5 -63 -7.5 -129.5t-2.5 -129.5v-158q0 -61 3 -133t8 -133q-26 4 -45.5 6.5t-30.5 2.5t-30.5 -2.5t-45.5 -6.5q5 74 8 139.5t3 126.5v308z" />
    <glyph glyph-name="two" unicode="2" horiz-adv-x="588" 
d="M66 560q47 59 105 86.5t136 27.5q51 0 95.5 -11t77.5 -33.5t52 -58t19 -84.5q0 -35 -10 -65t-29.5 -58t-49 -56.5t-68.5 -60.5q-9 -8 -18.5 -16t-20.5 -17q-38 -31 -76.5 -60t-64.5 -58h66q42 0 84 1t80 2t71.5 2.5t57.5 3.5q-6 -19 -10 -33.5t-4 -22.5q0 -7 4 -21.5
t10 -33.5q-32 1 -67.5 2t-72.5 2t-73 1.5t-67 0.5q-64 0 -136.5 -2t-136.5 -4v44q83 65 143.5 115t103.5 89t70 70.5t42 59t20.5 54t5.5 56.5t-9 52.5t-25 37.5t-36.5 22t-43.5 7q-33 0 -57 -11t-40.5 -26.5t-25.5 -33.5t-12 -32l-32 -2z" />
    <glyph glyph-name="three" unicode="3" horiz-adv-x="561" 
d="M58 604q15 12 34.5 24t44 22.5t54 17t64.5 6.5q50 0 94.5 -9.5t78 -29t53 -50t19.5 -71.5q0 -28 -9 -51.5t-24 -42.5t-34.5 -34t-40.5 -26q27 -6 53.5 -18t47 -30.5t33 -45t12.5 -62.5q0 -47 -23 -87t-65.5 -69.5t-101.5 -46t-131 -16.5q-65 0 -115.5 13.5t-90.5 27.5
q8 14 15.5 38.5t8.5 41.5l29 14q11 -11 27 -22.5t36 -21.5t43 -16.5t49 -6.5q80 0 126 39t46 100q0 34 -11 57t-30.5 37.5t-46.5 21t-60 6.5q-11 0 -32 -3.5t-40 -6.5v6t0.5 11t0.5 11v6l2 9l-2 10q0 2 -0.5 15.5t-0.5 15.5q19 -2 37.5 -4t34.5 -2q36 0 58 12t35 30.5
t17.5 41t4.5 42.5q0 25 -9.5 43.5t-24.5 30.5t-34.5 17.5t-39.5 5.5q-21 0 -40 -6t-35 -16.5t-27.5 -24t-17.5 -28.5l-32 -2z" />
    <glyph glyph-name="four" unicode="4" horiz-adv-x="629" 
d="M1 212q52 58 110.5 124t112.5 128t100 116t75 90q14 -3 26.5 -5t21.5 -2q10 0 25.5 2.5t33.5 7.5q-3 -41 -5 -91.5t-3.5 -104.5t-2 -109t-0.5 -105q31 1 63.5 4.5t58.5 6.5q-5 -17 -8.5 -32t-3.5 -22q0 -6 3.5 -21.5t8.5 -32.5q-32 5 -64.5 7t-57.5 3v-21
q0 -29 1.5 -57.5t3.5 -53.5q1 -7 1.5 -17.5t0.5 -35.5q-23 4 -41.5 6.5t-29.5 2.5t-30.5 -2.5t-43.5 -6.5q2 18 4 39.5t4 44t3.5 43.5t1.5 37v21q-33 0 -86 -1t-108.5 -2.5t-103.5 -2.5t-71 -2v44zM368 514q-26 -29 -56.5 -63.5t-60 -68t-55.5 -65t-44 -54.5h218z" />
    <glyph glyph-name="five" unicode="5" horiz-adv-x="564" 
d="M186 401q20 8 45 11.5t66 3.5q56 0 101.5 -16t77.5 -43t49.5 -62.5t17.5 -75.5q0 -48 -23 -91t-64 -74.5t-99 -50t-127 -18.5q-55 0 -108.5 10t-99.5 35v24q6 12 12 32t9 37h34q23 -35 68 -52.5t90 -17.5q31 0 60.5 9.5t51.5 29t35.5 48.5t13.5 69q0 35 -12 60
t-32.5 40.5t-47 22.5t-54.5 7q-23 0 -42.5 -4t-35.5 -10t-27 -11.5l-17 -8.5l-34 18q10 46 12 88.5t2 81.5q0 38 -2 82t-9 82l26 17q9 -1 28 -2.5t44 -3.5q51 -3 144 -3q55 0 102 0.5t68 1.5l25 -13q-14 -39 -14 -63q0 -3 1.5 -9t12.5 -31q-34 5 -79.5 8.5t-92.5 5.5t-90 3
t-73 1z" />
    <glyph glyph-name="six" unicode="6" horiz-adv-x="600" 
d="M488 614l-29 -16q-25 7 -64 7q-55 0 -96 -23.5t-69 -59.5t-44 -80t-21 -85q27 24 67.5 40.5t100.5 16.5q34 0 77.5 -8.5t82.5 -30t65.5 -59.5t26.5 -98q0 -52 -20 -95t-56.5 -73.5t-88.5 -47.5t-116 -17q-55 0 -105.5 15.5t-89 50t-61.5 90t-23 135.5q0 83 24 156
t71 127.5t116 85t159 29.5q23 0 35 -1t26 -3zM443 198q0 63 -32 103t-98 40q-31 0 -58 -10.5t-46.5 -29.5t-30.5 -45.5t-11 -57.5q0 -32 10.5 -58.5t28.5 -46t43.5 -30t55.5 -10.5q66 0 102 40.5t36 104.5z" />
    <glyph glyph-name="seven" unicode="7" horiz-adv-x="572" 
d="M573 619q-53 -72 -109 -150.5t-112 -158.5t-110 -161t-103 -157q-17 4 -30 6t-24 2q-8 0 -31 -4t-58 -11q37 47 77.5 100t81.5 106.5t80.5 106t75 100t64.5 88t50 69.5q-63 0 -167.5 -2t-232.5 -8q4 20 6.5 37t2.5 25q0 10 -2.5 26t-6.5 37q24 -2 49.5 -3.5t50 -3
t46 -2.5t37.5 -1q20 0 49 -0.5t60.5 -1t61.5 -0.5h53q19 0 35 0.5t31 0.5h75v-40z" />
    <glyph glyph-name="eight" unicode="8" horiz-adv-x="617" 
d="M25 188q0 57 32.5 104.5t107.5 77.5q-39 18 -68.5 51t-29.5 83q0 34 17 64.5t48.5 54t76 37.5t99.5 14q63 0 109.5 -13.5t76.5 -35.5t44.5 -50.5t14.5 -58.5q0 -41 -24.5 -78.5t-72.5 -61.5q23 -8 47 -21t43.5 -33t32 -48t12.5 -64q0 -51 -22.5 -92.5t-60.5 -71
t-90 -45.5t-110 -16q-60 0 -111.5 13.5t-90 39.5t-60 64t-21.5 86zM449 193q0 61 -37.5 100.5t-103.5 39.5t-103.5 -39.5t-37.5 -100.5t37.5 -100.5t103.5 -39.5t103.5 39.5t37.5 100.5zM418 503q0 21 -6 39.5t-19.5 32.5t-34 22t-49.5 8t-49 -8t-33.5 -22t-19.5 -32.5
t-6 -39.5t6 -39.5t19.5 -32.5t33.5 -22t49 -8t49.5 8t34 22t19.5 32.5t6 39.5z" />
    <glyph glyph-name="nine" unicode="9" horiz-adv-x="610" 
d="M107 95q27 -20 57 -31t59 -11q52 0 90 21t64.5 56t41 80t19.5 92q-30 -26 -71 -41.5t-99 -15.5q-57 0 -103 14t-78.5 40.5t-50 65t-17.5 87.5q0 47 20 87.5t57 70.5t89 47t116 17q56 0 107.5 -15.5t90.5 -50.5t62.5 -90.5t23.5 -135.5q0 -83 -25 -155t-72 -126
t-115.5 -85t-155.5 -31q-32 0 -61.5 5.5t-47.5 11.5q-5 14 -14.5 36t-22.5 40zM438 477q0 57 -38 92.5t-101 35.5q-30 0 -55.5 -10.5t-43.5 -30.5t-28.5 -48.5t-10.5 -63.5q0 -71 33.5 -102.5t93.5 -31.5q36 0 64 13.5t47 35.5t29 50.5t10 59.5z" />
    <glyph glyph-name="colon" unicode=":" horiz-adv-x="213" 
d="M20 408q0 15 7 28t18.5 23t27 16t33.5 6t33.5 -6t27 -16t18.5 -23t7 -28q0 -30 -25.5 -51.5t-60.5 -21.5t-60.5 21.5t-25.5 51.5zM20 61q0 30 25.5 51.5t60.5 21.5t60.5 -21.5t25.5 -51.5q0 -29 -25.5 -50.5t-60.5 -21.5t-60.5 21.5t-25.5 50.5z" />
    <glyph glyph-name="semicolon" unicode=";" horiz-adv-x="234" 
d="M93 96q7 17 22.5 33t47.5 16q21 0 42.5 -12t21.5 -39q0 -15 -6 -26t-13 -22l-3 -3q-37 -51 -77.5 -106t-77.5 -105l-55 16zM63 408q0 15 7 28t19 23t27.5 16t32.5 6q18 0 33.5 -6t27.5 -16t19 -23t7 -28t-7 -28.5t-19 -23t-27.5 -15.5t-33.5 -6q-17 0 -32.5 6t-27.5 15.5
t-19 23t-7 28.5z" />
    <glyph glyph-name="less" unicode="&#x3c;" horiz-adv-x="674" 
d="M0 297l636 237v-89l-505 -187q125 -45 253 -93t252 -93v-90l-636 239v76z" />
    <glyph glyph-name="equal" unicode="=" horiz-adv-x="685" 
d="M677 306h-636v88h636v-88zM677 123h-636v87h636v-87z" />
    <glyph glyph-name="greater" unicode="&#x3e;" horiz-adv-x="674" 
d="M38 72l504 186q-125 46 -252.5 94t-251.5 93v89l636 -239v-76l-636 -237v90z" />
    <glyph glyph-name="question" unicode="?" horiz-adv-x="348" 
d="M8 659q28 14 62 26.5t79 12.5q47 0 83.5 -11.5t61 -31t37 -46t12.5 -55.5q0 -31 -11 -56.5t-29 -47.5t-40 -41t-44 -37q-33 -27 -59.5 -53t-26.5 -53q0 -12 11 -24.5t32 -12.5q12 0 23.5 4t16.5 6l39 -19q-9 -9 -18 -23t-10 -23q-27 -9 -60 -9q-17 0 -41.5 6.5t-47.5 21
t-39.5 38t-16.5 58.5q0 27 10.5 50t27.5 44t37.5 39t40.5 35q33 26 60 53.5t27 56.5q0 28 -26 43t-56 15q-29 0 -60.5 -17.5t-61.5 -46.5zM62 61q0 30 25.5 51.5t61.5 21.5q35 0 60.5 -21.5t25.5 -51.5q0 -29 -25.5 -50.5t-60.5 -21.5q-36 0 -61.5 21.5t-25.5 50.5z" />
    <glyph glyph-name="at" unicode="@" horiz-adv-x="841" 
d="M531 532h101q-25 -96 -39 -151t-21 -84t-8.5 -39t-1.5 -16q0 -14 20 -14q21 0 44.5 12.5t43.5 34.5t33 52t13 65q0 42 -12.5 78t-42.5 61.5t-81 40t-127 14.5q-68 0 -124.5 -21.5t-98 -59t-64.5 -88.5t-23 -110q0 -52 21 -91t58 -65t87.5 -39t110.5 -13q42 0 82.5 8.5
t77.5 22t70 30t60 33.5l-7 -76q-17 -12 -46 -27.5t-68.5 -30t-89 -24t-107.5 -9.5q-61 0 -125 19t-116 57.5t-85.5 97.5t-33.5 139q0 60 30 116.5t85.5 101t134 71.5t176.5 27q102 0 169.5 -21t108 -55.5t57.5 -78.5t17 -89q0 -56 -23 -101.5t-58.5 -77.5t-79 -50t-85.5 -18
q-45 0 -64.5 12.5t-27.5 33.5q-23 -21 -51 -33.5t-66 -12.5q-72 0 -109.5 36.5t-37.5 108.5q0 51 18 94t49.5 73.5t73.5 47.5t90 17q26 0 49 -6t39 -20zM492 421q0 23 -10.5 37.5t-42.5 14.5q-29 0 -51.5 -16.5t-37.5 -41t-23 -54t-8 -55.5q0 -35 11 -52.5t43 -17.5
q30 0 52 20.5t37 49.5t22.5 60.5t7.5 54.5z" />
    <glyph glyph-name="A" unicode="A" horiz-adv-x="820" 
d="M439 698q17 -32 39 -73t42 -79q40 -77 85 -162t86.5 -162.5t75.5 -139.5t53 -92q-34 5 -60 7.5t-39 2.5q-17 0 -35.5 -2t-40.5 -5q-17 51 -44 105.5t-52 102.5l-12 24t-13 24q-37 1 -70.5 1.5t-71.5 0.5q-37 0 -67 -0.5t-66 -1.5q-36 -72 -66.5 -139t-47.5 -118
q-38 8 -56 8q-9 0 -30.5 -3.5t-50.5 -8.5q48 83 99 173t102 181.5t100.5 181.5t94.5 174h45zM389 511q-26 -47 -48 -88.5t-50 -92.5q8 0 17 -0.5t17 -0.5q12 0 31.5 -0.5t30.5 -0.5h28.5h22t22 0.5t28.5 0.5z" />
    <glyph glyph-name="B" unicode="B" horiz-adv-x="632" 
d="M48 423q0 61 -3.5 132.5t-7.5 132.5q32 -2 73 -4.5t73 -2.5q15 0 30 0.5t30 1.5q16 1 32.5 2t32.5 1q54 0 103 -7t85.5 -24.5t58 -47.5t21.5 -76q0 -57 -33 -96.5t-90 -63.5q34 -9 62 -23t48 -35t31 -48t11 -61q0 -58 -29 -98t-75 -64.5t-102.5 -35.5t-111.5 -11
q-14 0 -29.5 0.5t-29.5 1.5l-28 2t-28 1q-29 0 -67.5 -2.5t-67.5 -4.5q4 63 7.5 134.5t3.5 132.5v163zM183 245q0 -30 1 -59.5t3 -59.5q1 -14 1 -26.5t1 -28.5q20 -2 46 -2.5t52 -0.5q34 0 65 9t54.5 27t37.5 44t14 60q0 35 -17 57.5t-48.5 35t-76 17.5t-99.5 5h-34v-78z
M227 395q39 0 76 5.5t66.5 19t47.5 36.5t18 57q0 32 -16 52t-41 30.5t-56 14t-62 3.5q-43 0 -70 -3q-1 -14 -1.5 -25.5t-1.5 -25.5q-2 -29 -3 -56.5t-1 -55.5v-52h44z" />
    <glyph glyph-name="C" unicode="C" horiz-adv-x="803" 
d="M744 44q-13 -8 -38.5 -18.5t-60.5 -20t-77 -16t-88 -6.5q-98 0 -180.5 24t-142.5 70t-94 112.5t-34 151.5t34 151.5t95 112t146.5 69.5t187.5 24q79 0 153 -15.5t134 -37.5q-18 -23 -24 -43t-10 -34q0 -6 -10 -25l-25 -2q-13 11 -34 25.5t-48.5 27.5t-62 22t-73.5 9
q-66 0 -122.5 -17t-98 -51.5t-65 -88.5t-23.5 -127q0 -74 23.5 -127.5t65 -88.5t98 -52t122.5 -17q40 0 76.5 9t67 21.5t55.5 27t43 25.5l23 -22z" />
    <glyph glyph-name="D" unicode="D" horiz-adv-x="863" 
d="M54 422q0 61 -3.5 132t-7.5 133q22 -1 47.5 -2t51.5 -2t51.5 -1.5t48.5 -0.5q22 0 43.5 0.5t44.5 1.5q20 1 44.5 2t45.5 1q109 0 186.5 -23t127 -66t73 -104.5t23.5 -138.5q0 -67 -20 -119.5t-53.5 -92.5t-78.5 -68t-95 -45.5t-102 -25.5t-101 -8q-20 0 -39.5 0.5
t-39.5 1.5t-39.5 2t-40.5 1q-40 0 -89 -2t-89 -4q4 62 7.5 133t3.5 132v163zM188 259q0 -51 1.5 -93t5.5 -91q26 -4 62.5 -5.5t74.5 -1.5q61 0 122.5 11.5t110.5 43t79.5 87.5t30.5 144q0 76 -24 125.5t-66 78t-100 39.5t-127 11q-45 0 -87 -2.5t-76 -4.5q-3 -43 -5 -87
t-2 -92v-163z" />
    <glyph glyph-name="E" unicode="E" horiz-adv-x="506" 
d="M45 423q0 61 -3.5 132t-7.5 132q54 -2 115.5 -4t115.5 -2q27 0 57.5 0.5t61.5 1.5t61.5 2t56.5 2q-6 -20 -8.5 -31.5t-2.5 -16.5q0 -6 2.5 -17.5t8.5 -31.5q-8 0 -20 1t-25 1.5t-24.5 1.5t-18.5 1q-26 2 -48 3.5t-47.5 3t-57.5 2t-77 0.5q0 -8 -0.5 -15.5t-1.5 -15.5
q-1 -16 -2 -34t-1 -37q0 -22 0.5 -43t0.5 -40v-23q99 1 170 4.5t122 7.5q-3 -17 -5.5 -31t-2.5 -19t2.5 -19.5t5.5 -30.5q-30 3 -72 5t-84 3.5t-79 2t-58 0.5v-118v-80t2 -43q38 0 81 0.5t85.5 2t83.5 4.5t75 9q-3 -17 -6 -32t-3 -20q0 -3 3 -17.5t6 -30.5q-26 1 -56.5 2
t-61.5 2t-61.5 1.5t-57.5 0.5q-54 0 -117.5 -2t-117.5 -4q4 63 7.5 134t3.5 132v163z" />
    <glyph glyph-name="F" unicode="F" horiz-adv-x="505" 
d="M45 422q0 61 -3.5 132t-6.5 133q54 -2 115.5 -4t115.5 -2q53 0 119 2t130 4q-3 -17 -5.5 -30.5t-2.5 -17.5q0 -5 2.5 -19.5t5.5 -30.5q-30 2 -74 4.5t-91 5t-92.5 4t-77.5 1.5q-1 -29 -1 -54v-51v-63v-38q37 0 78 0.5t81.5 2t79.5 4t74 5.5q-5 -17 -8.5 -30t-3.5 -20
q0 -5 3.5 -18.5t9.5 -31.5q-78 8 -160 9.5t-154 1.5v-62q0 -61 3.5 -133t7.5 -134q-24 4 -44 6t-34 2t-33.5 -2t-43.5 -6q3 62 6.5 134t3.5 133v163z" />
    <glyph glyph-name="G" unicode="G" horiz-adv-x="875" 
d="M766 533q-18 17 -43.5 33.5t-58 29.5t-70.5 21t-80 8q-70 0 -130 -17t-104 -51.5t-69 -88.5t-25 -127q0 -66 22.5 -118t65 -88t104.5 -55t141 -19q22 0 46 1.5t46.5 4t43 7t35.5 10.5q0 7 0.5 13t0.5 13q1 19 1 38v38q0 29 -1.5 58t-3.5 56q0 4 -0.5 19.5t-0.5 19.5
q22 -4 42 -6.5t34 -2.5q13 0 29.5 2t41.5 9q-1 -22 -3.5 -81t-2.5 -136v-38q0 -10 0.5 -26.5t0.5 -26.5q-28 -8 -68.5 -16.5t-85 -16t-88 -12.5t-78.5 -5q-110 0 -198 23t-150 68t-95 112t-33 155q0 85 34 151.5t97 112t152 69.5t199 24q61 0 111 -6.5t90.5 -16t72.5 -21.5
t57 -22q-15 -20 -26 -48.5t-15 -50.5h-38z" />
    <glyph glyph-name="H" unicode="H" horiz-adv-x="833" 
d="M644 422q0 61 -3.5 133t-6.5 134q24 -4 43.5 -6t33.5 -2t34 2t45 6q-4 -62 -7.5 -134t-3.5 -133v-163q0 -61 3.5 -133t7.5 -134q-25 4 -45 6t-34 2t-33.5 -2t-43.5 -6q3 62 6.5 134t3.5 133v66q-58 1 -114 1.5t-114 0.5q-62 0 -114.5 -0.5t-113.5 -1.5v-66
q0 -61 3.5 -133t6.5 -134q-25 4 -44.5 6t-33.5 2t-33.5 -2t-44.5 -6q4 62 7.5 134t3.5 133v163q0 61 -3.5 133t-7.5 134q25 -4 44.5 -6t33.5 -2t33.5 2t44.5 6q-3 -62 -6.5 -134t-3.5 -133v-14q16 0 32 -0.5t31 -0.5q42 -1 82.5 -1.5t82.5 -0.5t82.5 0.5t82.5 1.5
q20 0 31.5 0.5t31.5 0.5v14z" />
    <glyph glyph-name="I" unicode="I" horiz-adv-x="204" 
d="M35 422q0 61 -3.5 133t-7.5 134q25 -4 44.5 -6t33.5 -2t33.5 2t44.5 6q-4 -62 -7.5 -134t-3.5 -133v-163q0 -61 3.5 -133t7.5 -134q-25 4 -44.5 6t-33.5 2t-33.5 -2t-44.5 -6q4 62 7.5 134t3.5 133v163z" />
    <glyph glyph-name="J" unicode="J" horiz-adv-x="309" 
d="M-17 -72q54 0 85.5 17t48 48t21 74t4.5 95v260q0 61 -3.5 133t-7.5 134q24 -4 44 -6t34 -2t33.5 2t43.5 6q-3 -62 -6.5 -134t-3.5 -133q0 -45 0.5 -92.5t1.5 -93.5q1 -38 1.5 -80t0.5 -71q0 -46 -20 -86.5t-56 -70.5t-87 -47t-112 -17z" />
    <glyph glyph-name="K" unicode="K" horiz-adv-x="710" 
d="M42 15q4 61 7 122t3 122v163q0 61 -3.5 133t-7.5 134q25 -4 44.5 -6t33.5 -2t33.5 2t45.5 6q-4 -62 -7.5 -134t-3.5 -133v-32q39 27 83 62.5t90 75t92 80.5t90 80q16 -3 30 -5t24 -2q29 0 62 6l13 -31q-39 -27 -88.5 -63.5t-100.5 -75.5t-98 -77t-81 -68q48 -44 97 -89
l98 -90q22 -21 51.5 -47.5t60.5 -54.5t60.5 -54.5t52.5 -47.5q-43 5 -76 8t-52 3q-33 0 -72 -6q-41 40 -89.5 87.5t-95.5 93t-87.5 83.5t-63.5 58v-57q0 -61 3.5 -133t7.5 -134q-26 4 -45.5 6t-33.5 2q-13 0 -26.5 -1.5t-28.5 -3.5z" />
    <glyph glyph-name="L" unicode="L" horiz-adv-x="503" 
d="M45 422q0 61 -3 133t-7 134q24 -4 43.5 -6t33.5 -2t34 2t44 6q-4 -62 -7 -134t-3 -133q0 -83 0.5 -149t1.5 -122q1 -19 1 -36.5v-36.5q40 0 78 0.5t78 2t84.5 4.5t96.5 8q-8 -21 -12 -33t-4 -17q0 -10 15 -49q-27 1 -58.5 2t-64.5 2t-64.5 1.5t-58.5 0.5q-55 0 -119 -2
t-119 -4q4 62 7 133t3 132v163z" />
    <glyph glyph-name="M" unicode="M" horiz-adv-x="1055" 
d="M203 698q40 -67 80 -129t80 -123.5t82 -124t87 -128.5q20 31 52.5 78.5l71.5 104.5q26 38 55 80.5t57.5 85t55.5 82.5t49 74h44q8 -61 17 -127t17 -123q15 -112 32 -230t37 -227q-26 4 -46.5 6.5t-33.5 2.5t-31 -2t-41 -6q-6 64 -11.5 121t-11.5 111.5t-13.5 110
t-17.5 116.5q-3 -4 -7 -8l1 1q-71 -104 -141 -210.5t-140 -233.5h-33q-48 81 -101.5 166.5t-107.5 169.5q-12 19 -20.5 32.5t-16 25t-16.5 24.5t-22 33v-1q-8 -56 -16.5 -117.5t-15.5 -122.5t-12 -117.5t-6 -101.5q-21 4 -36.5 6.5t-23.5 2.5t-25.5 -2.5t-40.5 -7.5
q16 78 33.5 170.5t34 187t31 185t23.5 165.5h47z" />
    <glyph glyph-name="N" unicode="N" horiz-adv-x="827" 
d="M726 -17q-118 112 -253.5 230t-270.5 233l-47 39q-1 -26 -1.5 -62.5t-0.5 -89.5q0 -20 0.5 -50t1.5 -63.5t2 -69t2.5 -66.5t3.5 -56t4 -38q-22 5 -39 7.5t-25 2.5t-25.5 -2.5t-42.5 -7.5q3 13 6 42t6.5 67.5t6.5 82.5t5.5 88t4 84.5t1.5 71.5v87t-0.5 78t-1.5 63.5
t-2 43.5h45q72 -63 150.5 -131t154 -133t145 -124t123.5 -102q0 60 -0.5 124.5t-2 127.5t-4 122t-5.5 109q23 -5 38.5 -7.5t23.5 -2.5q7 0 22.5 2.5t37.5 7.5q-3 -25 -7 -71.5t-7.5 -97.5t-5.5 -98t-2 -74v-57.5t0.5 -70.5t0.5 -75t0.5 -71t1 -57.5t0.5 -35.5h-44z" />
    <glyph glyph-name="O" unicode="O" horiz-adv-x="999" 
d="M37 341q0 85 34 151.5t95.5 112t146 69.5t186.5 24t187 -24t146.5 -69.5t95.5 -112t34 -151.5t-34 -151.5t-95.5 -112.5t-146.5 -70t-187 -24t-186.5 24t-146 70t-95.5 112.5t-34 151.5zM807 341q0 73 -23.5 127t-65 88.5t-97.5 51.5t-122 17q-65 0 -121.5 -17
t-97.5 -51.5t-64.5 -88.5t-23.5 -127q0 -74 23.5 -127.5t64.5 -88.5t97.5 -52t121.5 -17q66 0 122 17t97.5 52t65 88.5t23.5 127.5z" />
    <glyph glyph-name="P" unicode="P" horiz-adv-x="599" 
d="M47 422q0 61 -3 132.5t-7 133.5q29 -2 67 -4.5t67 -2.5q15 0 35.5 1t41.5 2q18 1 38.5 1.5t31.5 0.5q19 0 47 -1t59 -6t61.5 -16t55 -31t40 -50.5t15.5 -74.5q0 -46 -16.5 -80t-44 -58t-63 -39.5t-73 -24.5t-74 -12.5t-66.5 -3.5h-23h-17.5t-16.5 0.5t-20 0.5v-31
q0 -61 3 -133t7 -134q-24 4 -43.5 6t-33.5 2t-34 -2t-44 -6q4 62 7 134t3 133v163zM182 367q15 -2 33 -3.5t32 -1.5q33 0 69 6t65.5 21.5t48.5 42.5t19 69q0 34 -12.5 56t-36 34.5t-56.5 17t-74 4.5h-88v-246z" />
    <glyph glyph-name="Q" unicode="Q" horiz-adv-x="984" 
d="M22 341q0 85 34 151.5t95.5 112t146 69.5t186.5 24t187 -24t146.5 -69.5t95.5 -112t34 -151.5q0 -65 -20 -119t-56.5 -96.5t-89 -72.5t-116.5 -48q31 -20 68 -42.5t75 -45.5t74.5 -44.5t66.5 -38.5q-30 -1 -55.5 -6t-46 -12t-34 -15.5t-19.5 -15.5q-66 48 -136 99
t-145 99h-29q-102 0 -186.5 24t-146 70t-95.5 112.5t-34 151.5zM792 341q0 73 -23.5 127t-65 88.5t-97.5 51.5t-122 17q-65 0 -121.5 -17t-97.5 -51.5t-64.5 -88.5t-23.5 -127q0 -74 23.5 -127.5t64.5 -88.5t97.5 -52t121.5 -17q66 0 122 17t97.5 52t65 88.5t23.5 127.5z
" />
    <glyph glyph-name="R" unicode="R" horiz-adv-x="697" 
d="M51 422q0 61 -3.5 132t-7.5 133q34 -2 77.5 -4t76.5 -2q17 0 33.5 0.5t33.5 1.5t34.5 2t34.5 1q54 0 102 -8.5t84 -28.5t57.5 -52t21.5 -80q0 -46 -21 -79.5t-53 -56.5t-71.5 -37t-75.5 -20q11 -11 20.5 -21t19.5 -20q21 -21 47.5 -48t56 -56l59 -58t56 -55t48 -46.5
t34.5 -31.5q-46 5 -80 8.5t-49 3.5q-36 0 -76 -6q-18 22 -53.5 61.5t-78.5 85.5t-89 91t-85 77h-19v-50q0 -61 3.5 -133t6.5 -134q-24 4 -43.5 6t-33.5 2t-34 -2t-44 -6q4 62 7.5 134t3.5 133v163zM185 384q14 -2 29 -2h32q33 0 69.5 6t67 20.5t50.5 39t20 60.5
q0 31 -15.5 51.5t-40 32.5t-53.5 16.5t-56 4.5q-63 0 -96 -3q-3 -47 -5 -94t-2 -94v-38z" />
    <glyph glyph-name="S" unicode="S" horiz-adv-x="578" 
d="M93 159q10 -17 26 -34.5t37.5 -31.5t50 -23t63.5 -9q71 0 110.5 34.5t39.5 83.5q0 25 -13 43t-34.5 31.5t-50 24t-58.5 20.5q-39 13 -78 27.5t-69.5 37t-49.5 55.5t-19 82q0 44 19.5 80.5t55 62.5t86.5 40.5t114 14.5q59 0 107 -14t94 -44q-15 -24 -25.5 -47.5
t-18.5 -56.5h-40q-6 13 -16 28.5t-25 29t-36.5 22.5t-50.5 9q-59 0 -97 -27t-38 -71q0 -27 14 -45.5t36.5 -32.5t51.5 -24t60 -20q39 -12 76.5 -26t67.5 -35t48.5 -52t18.5 -77q0 -47 -21 -89.5t-60.5 -74t-97 -50t-129.5 -18.5q-78 0 -130.5 21t-89.5 45q7 15 12 28t8 25.5
t5 26t4 30.5h42z" />
    <glyph glyph-name="T" unicode="T" horiz-adv-x="665" 
d="M266 422q0 49 -0.5 88.5t-2.5 88.5q-30 0 -64.5 -1.5l-69 -3t-68.5 -3.5t-63 -5q7 17 12 31.5t5 20.5q0 5 -4.5 18t-10.5 31q38 -1 80.5 -2t86 -2t86 -1.5t80.5 -0.5q76 0 161.5 2t161.5 4q0 -1 -0.5 -13t-0.5 -13q-2 -7 -3 -13t-1 -11t4 -20t9 -31q-60 6 -131 9.5
t-130 3.5q-3 -90 -3 -177v-163q0 -61 3.5 -133t6.5 -134q-24 4 -43.5 6t-33.5 2t-34 -2t-44 -6q4 62 7.5 134t3.5 133v163z" />
    <glyph glyph-name="U" unicode="U" horiz-adv-x="812" 
d="M661 359v118t-1.5 90.5t-4 69.5t-6.5 54q23 -5 42 -7.5t30 -2.5q9 0 24 2.5t34 7.5q-4 -39 -8 -89.5t-7.5 -106t-6 -113t-3.5 -108.5q-1 -67 -25 -120.5t-69 -91.5t-111 -58.5t-150 -20.5q-186 0 -272 71t-86 218q0 24 1 44.5t3 40.5q3 33 3 65q0 39 -1 78t-2.5 74.5
t-3 65t-2.5 50.5q26 -4 48 -6.5t33 -2.5q13 0 32.5 2.5t41.5 7.5q-3 -26 -6.5 -64.5t-6 -84.5t-4 -97t-1.5 -103q0 -30 1 -62t8 -63t21.5 -58.5t42 -48.5t69.5 -33t103 -12q60 0 101 14t68 37.5t41 54t21 63t8 65t1 60.5z" />
    <glyph glyph-name="V" unicode="V" horiz-adv-x="822" 
d="M351 7q-27 58 -68.5 142t-89 177t-97.5 188.5t-93 176.5q33 -5 58.5 -7.5t37.5 -2.5q14 0 33 2t40 5q51 -124 119 -263t140 -277q31 58 68 133t72 150t65.5 143.5t49.5 114.5q37 -8 56 -8q8 0 29.5 4t51.5 9q-46 -81 -94.5 -170.5t-96 -180t-92.5 -180t-84 -171.5
q-17 4 -29 6t-21 2t-18 -1t-16 -3z" />
    <glyph glyph-name="W" unicode="W" horiz-adv-x="1272" 
d="M298 8q-10 26 -30 79.5t-46 121t-55 142t-55.5 141.5t-48.5 120.5t-33 78.5q30 -5 53.5 -7.5t37.5 -2.5t32.5 2t39.5 5q22 -72 41.5 -130.5t41.5 -118t48.5 -126.5t62.5 -157q7 15 13.5 31t14.5 35q23 55 50.5 121.5t53.5 131.5t47.5 122t32.5 92q32 -8 52 -8q7 0 20 2.5
t31 6.5q9 -26 25.5 -68.5t37 -94t43 -107t43.5 -106.5t38.5 -93t28.5 -67q13 33 31.5 80t38.5 100t40.5 107.5t38.5 103t31 87t19 58.5q19 -4 33 -6.5t22 -2.5q9 0 28.5 3.5t47.5 8.5q-15 -29 -40.5 -85t-56 -125t-63 -144.5t-61.5 -144t-52 -122.5t-33 -80q-35 8 -52 8
q-7 0 -20.5 -2.5t-31.5 -6.5q-26 66 -50.5 129.5t-49.5 126.5t-51.5 128t-56.5 135q-19 -43 -46.5 -107t-57.5 -135.5t-60.5 -144t-54.5 -131.5q-37 8 -53 8q-15 0 -38 -5z" />
    <glyph glyph-name="X" unicode="X" horiz-adv-x="734" 
d="M209 688q42 -66 83.5 -125t90.5 -125q48 58 92.5 117t95.5 134q37 -8 52 -8q8 0 33.5 4.5t62.5 11.5q-8 -9 -21 -24t-28 -31t-28.5 -31t-20.5 -24q-51 -57 -96 -107t-92 -109q33 -44 70.5 -93t75.5 -99t76 -98t72 -91q-38 5 -66 7.5t-44 2.5q-34 0 -74 -6q-7 10 -16.5 24
t-15.5 24q-39 59 -77 116t-83 113q-55 -66 -105.5 -135t-101.5 -144q-35 8 -52 8q-8 0 -33 -4.5t-61 -11.5q35 40 74 85.5t78 92t77.5 92t71.5 86.5q-7 8 -13 16t-13 17q-27 34 -58.5 75.5t-64 84.5t-64.5 84t-59 75q37 -5 65.5 -8t42.5 -3q13 0 32 2t42 5z" />
    <glyph glyph-name="Y" unicode="Y" horiz-adv-x="737" 
d="M289 -9q9 69 11 140.5t2 144.5q-13 19 -38.5 52.5t-56 75t-64 86.5t-64 85t-55 71t-36.5 46q40 -5 68.5 -8t42.5 -3q13 0 32 2t42 5q51 -81 102.5 -157t112.5 -160q27 34 55 73.5t56 81t54 82.5t49 80q17 -3 31 -5t25 -2t36.5 4t58.5 10q-65 -79 -116 -142.5t-89.5 -113
t-66 -87t-45.5 -64.5q0 -36 1 -77t2.5 -81t3.5 -76.5t5 -62.5q-27 4 -47.5 6.5t-31.5 2.5q-12 0 -32.5 -2.5t-47.5 -6.5z" />
    <glyph glyph-name="Z" unicode="Z" horiz-adv-x="750" 
d="M20 39q47 51 97.5 107.5t100.5 113t96.5 110.5t85.5 99.5t68.5 80.5t44.5 54h-44q-44 0 -98.5 -1.5t-110.5 -3.5t-108 -5.5t-90 -6.5q5 17 9 32t4 19q0 6 -3.5 20t-8.5 30q29 -2 79 -3.5t117 -2t148.5 -1t173.5 -0.5q25 0 50 1t49 3h-1q7 1 19.5 1h28.5v-45
q-22 -19 -60 -59t-85 -92t-98.5 -110.5t-99.5 -114.5t-89 -105t-67 -81q17 -1 31 -1h30q45 0 107 1.5t125 4t120.5 6t94.5 7.5q-7 -19 -11.5 -33.5t-4.5 -19.5t4.5 -18.5t11.5 -31.5q-86 2 -162 4t-144 2q-46 0 -107.5 -0.5t-121 -1.5t-109.5 -2t-72 -2v45z" />
    <glyph glyph-name="bracketleft" unicode="[" horiz-adv-x="248" 
d="M35 404q0 33 -0.5 69t-1.5 73t-2.5 73t-2.5 68q51 -6 79 -6h37h44.5h42.5h32q-3 -10 -4.5 -18.5t-1.5 -10.5q0 -1 1.5 -11.5t4.5 -22.5q-25 1 -55.5 2t-57.5 1q-4 -53 -6 -109t-2 -108v-238q0 -59 1.5 -109t6.5 -108q28 0 59 1t54 2q-3 -13 -4.5 -23t-1.5 -11q0 2 1.5 -9
t3.5 -24q-12 0 -32 0.5t-42.5 1t-44 1t-36.5 0.5q-14 0 -33.5 -1.5l-45.5 -3.5q1 32 2.5 68t2.5 72.5t1.5 73t0.5 69.5v238z" />
    <glyph glyph-name="backslash" unicode="\" horiz-adv-x="416" 
d="M-21 712q24 -6 40.5 -10t24.5 -4q9 0 19 2t23 6l351 -737q-24 6 -41 10t-25 4q-14 0 -41 -8z" />
    <glyph glyph-name="bracketright" unicode="]" horiz-adv-x="249" 
d="M106 404q0 59 -1.5 108.5t-6.5 108.5q-28 0 -59 -1t-54 -2q2 12 4 22.5t2 11.5q0 -2 -1.5 9t-3.5 24q12 0 32 -1t42.5 -1.5t44 -1t36.5 -0.5q28 0 79 6q-2 -32 -3 -68t-2 -73t-1.5 -73t-0.5 -69v-238q0 -33 0.5 -69.5t1.5 -73t2 -72.5t3 -68l-45.5 3.5t-33.5 1.5h-37
h-44.5h-42.5h-32q2 11 4 19.5t2 10.5q0 1 -2 11t-4 23q25 -1 55.5 -2t57.5 -1q4 52 6 108t2 109v238z" />
    <glyph glyph-name="asciicircum" unicode="^" horiz-adv-x="685" 
d="M302 658h83l300 -466h-107l-236 369q-59 -91 -118.5 -184.5t-117.5 -184.5h-107z" />
    <glyph glyph-name="underscore" unicode="_" horiz-adv-x="712" 
d="M41 -123v85h629v-85h-629z" />
    <glyph glyph-name="grave" unicode="`" horiz-adv-x="298" 
d="M54 620q-17 8 -35 23t-18 38q0 12 6 21t14.5 15.5t18.5 9.5t18 3q17 0 34.5 -7.5t31.5 -19.5v1q21 -18 49.5 -41t58.5 -47t58.5 -47t49.5 -40h-109z" />
    <glyph glyph-name="a" unicode="a" horiz-adv-x="582" 
d="M76 431q62 37 111 50.5t98 13.5q47 0 86 -11.5t66.5 -32.5t43 -50t15.5 -65q0 -26 -0.5 -52.5t-1.5 -52.5q0 -26 -1 -56.5t-1 -59.5q0 -17 3.5 -34t23.5 -17q5 0 13 1.5t31 12.5v-63q-19 -6 -45 -12.5t-50 -6.5q-33 0 -56.5 14t-34.5 33q-39 -29 -79 -43t-98 -14
q-33 0 -64.5 9.5t-56.5 27t-40 42.5t-15 56q0 66 49 102t134 47q59 7 91.5 12t48.5 10t19 10.5t3 14.5q0 20 -6 38t-19.5 32t-35 22t-51.5 8q-42 0 -80 -16.5t-58 -47.5h-43v78zM369 229q-12 -2 -23.5 -4t-22.5 -4q-28 -4 -57 -9.5t-52.5 -14.5t-38.5 -24t-15 -39
q0 -35 25.5 -53t57.5 -18q38 0 69.5 16.5t51.5 37.5z" />
    <glyph glyph-name="b" unicode="b" horiz-adv-x="621" 
d="M615 254q0 -59 -22 -108t-60.5 -84.5t-91 -55.5t-113.5 -20q-54 0 -100 19t-74 45q-16 -11 -34 -23.5t-36 -26.5h-48q3 26 5 62t3.5 75t2 78t0.5 72v171q0 32 -1 70.5t-2.5 78t-3.5 77.5t-5 69q24 -4 43 -6.5t31 -2.5q14 0 34.5 2t46.5 6q-4 -27 -7 -66t-4.5 -83.5
t-3 -90.5t-2.5 -88q38 35 83 53t100 18q66 0 115 -20t81 -53t47.5 -76.5t15.5 -91.5zM474 256q0 39 -12 69.5t-31.5 50.5t-45 30.5t-52.5 10.5q-34 0 -63.5 -10t-52 -32.5t-35.5 -59.5t-13 -90q0 -85 39 -128t114 -43q33 0 60.5 14.5t48 41t32 63.5t11.5 83z" />
    <glyph glyph-name="c" unicode="c" horiz-adv-x="583" 
d="M24 240q0 66 27.5 114.5t72.5 79.5t103 46t118 15q33 0 65.5 -4.5t60.5 -12.5t51 -18t38 -21q-11 -20 -21 -41.5t-16 -44.5h-34q-8 12 -22 25t-32 24t-40 18t-47 7q-49 0 -83.5 -14t-56.5 -39t-32 -59t-10 -74q0 -88 47.5 -133t138.5 -45q21 0 45 5.5t47 15.5t44.5 22.5
t38.5 27.5l30 -15q-5 -17 -7 -33.5t-4 -34.5q-20 -13 -45.5 -24.5t-53.5 -20.5t-58 -14.5t-58 -5.5q-55 0 -110 14t-98.5 44.5t-71 79t-27.5 116.5z" />
    <glyph glyph-name="d" unicode="d" horiz-adv-x="620" 
d="M445 52q-27 -26 -71.5 -46t-108.5 -20q-49 0 -95.5 14.5t-83 45t-58.5 78t-22 113.5q0 65 24 113.5t63 80.5t87.5 48t98.5 16q56 0 95.5 -13.5t70.5 -45.5q0 42 -0.5 87t-1 87.5t-2 79.5t-2.5 63q5 -1 19.5 -3t19.5 -3q18 -3 34 -3q14 0 32 3q3 0 9.5 1l13 2t12.5 2t8 1
q-5 -38 -8.5 -100t-5.5 -134t-3 -145t-1 -133q0 -39 0.5 -73t1.5 -68v1q0 -11 0.5 -25t1 -29t0.5 -30v-26q-5 1 -19.5 3t-19.5 3h1q-3 0 -9.5 0.5t-12 1t-9.5 1t-2 0.5q-5 0 -10.5 -1t-10.5 -2q-3 0 -8.5 -1t-11.5 -2t-11 -2t-6 -1zM147 232q0 -51 13 -84.5t33.5 -53
t46 -27.5t51.5 -8q41 0 71 16.5t49.5 43.5t28.5 61.5t9 69.5q0 81 -39.5 124t-114.5 43q-38 0 -65.5 -14.5t-46 -39t-27.5 -58.5t-9 -73z" />
    <glyph glyph-name="e" unicode="e" horiz-adv-x="619" 
d="M33 227q0 124 75 196t215 72q67 0 116.5 -17t82 -46t48.5 -67.5t16 -81.5q0 -9 -1 -28t-2 -28q-21 0 -51.5 0.5t-52.5 0.5q-42 1 -83.5 1.5t-83.5 0.5q-26 0 -51 -0.5t-51 -1.5q-13 0 -17 -0.5t-18 -0.5v-8q0 -33 12.5 -61.5t36 -49.5t58 -33t79.5 -12q22 0 45.5 5.5
t46.5 15.5t44 22.5t38 27.5l29 -14l-9 -69q-41 -26 -99 -45.5t-117 -19.5q-68 0 -124 18.5t-96.5 51t-63 76.5t-22.5 95zM325 427q-34 0 -59 -11.5t-42.5 -30t-28 -41t-14.5 -44.5h24q27 -1 55 -1.5t54 -0.5q27 0 54 0.5t54 1.5q12 0 14.5 0.5t14.5 0.5q-2 21 -8.5 43.5
t-21 41t-37.5 30t-59 11.5z" />
    <glyph glyph-name="f" unicode="f" horiz-adv-x="372" 
d="M340 630q-36 17 -65 17q-43 0 -61 -23t-18 -53q0 -14 3.5 -39.5t8.5 -51.5q11 0 22 0.5t23 0.5h82q-2 -13 -3 -24t-1 -14t1.5 -14t3.5 -24q-10 0 -31 0.5t-31 0.5q-21 1 -32 1.5t-32 0.5v-102t1 -107t2 -106.5t3 -101.5q-22 4 -40.5 6.5t-29.5 2.5q-12 0 -31 -2.5
t-42 -6.5q8 106 10.5 209.5t2.5 207.5q-10 0 -19.5 -0.5t-18.5 -1.5q-8 0 -26 -0.5t-25 -0.5q2 13 3.5 24t1.5 14t-1.5 14t-2.5 24q11 0 32.5 -0.5t32.5 -0.5h24q2 28 10.5 60t23 62.5t33.5 57.5t42 45t59 32.5t73 14.5q6 0 17 -1.5t25 -6.5q0 -18 -0.5 -29.5t-1.5 -19.5
q-1 -11 -1.5 -26.5t-0.5 -26.5z" />
    <glyph glyph-name="g" unicode="g" horiz-adv-x="619" 
d="M47 322q0 44 19.5 76.5t53 54t78 32t94.5 10.5q15 0 30 -0.5t32 -1.5q8 -1 16 -1t19 -1q4 0 10.5 -0.5t9.5 -0.5q40 -3 62 -3q34 0 65 2.5t53 7.5q-2 -15 -4 -28t-2 -16q0 -1 2 -13.5t4 -27.5q-4 0 -12 0.5t-17 1.5t-17.5 1.5t-12.5 0.5q-10 1 -13 1.5t-4.5 1t-5 0.5
h-15.5q18 -20 29.5 -46.5t11.5 -52.5q0 -81 -64.5 -126t-173.5 -45q-8 0 -17 0.5t-17 0.5q-8 1 -15.5 1h-15.5q-14 0 -26.5 -6.5t-12.5 -17.5q0 -15 10.5 -22t39.5 -8q22 -1 44.5 -1h43.5q8 0 21 -0.5t21 -0.5q59 -2 101 -13t69 -29.5t39.5 -43.5t12.5 -54q0 -36 -17 -73.5
t-53.5 -68t-93.5 -50t-136 -19.5q-61 0 -110.5 10.5t-84 31t-53 49t-18.5 64.5q0 44 28.5 76.5t65.5 50.5q-42 28 -42 75q0 26 16 47t37 35q-41 23 -63 56.5t-22 82.5zM467 -86q0 45 -37.5 65.5t-122.5 20.5q-78 0 -122 -20.5t-44 -70.5q0 -27 12 -46t32.5 -31t49 -17.5
t61.5 -5.5q32 0 63 6.5t55 19t38.5 32.5t14.5 47zM404 326q0 50 -30.5 76.5t-80.5 26.5q-55 0 -85 -29t-30 -78q0 -51 27.5 -80.5t86.5 -29.5q29 0 50 9.5t35 25t20.5 36t6.5 43.5z" />
    <glyph glyph-name="h" unicode="h" horiz-adv-x="560" 
d="M46 458q0 33 -0.5 71.5t-2 78t-4 77t-5.5 68.5q24 -4 43.5 -6.5t31.5 -2.5t31.5 2.5t43.5 6.5q-3 -31 -5.5 -68.5t-4 -76.5t-2 -76.5t-0.5 -68.5l1 -27q32 29 74.5 44t96.5 15q36 0 73 -8t67 -29t49 -56.5t19 -90.5q0 -19 -0.5 -39.5t-1.5 -40.5q-1 -22 -2 -47t-1 -48
q0 -31 1.5 -72.5t3.5 -72.5q-24 4 -42 6.5t-29 2.5t-28 -2.5t-40 -6.5q0 9 1 21t1.5 25t1.5 25t1 20q2 36 3.5 71t1.5 72v58q0 60 -30 92.5t-80 32.5q-74 0 -107.5 -35.5t-33.5 -101.5q0 -27 0.5 -62t2 -73.5t4 -76t5.5 -68.5q-24 4 -43.5 6.5t-31.5 2.5t-31.5 -2.5
t-43.5 -6.5q3 31 5.5 69t4 77.5t2 78t0.5 71.5v171z" />
    <glyph glyph-name="i" unicode="i" horiz-adv-x="196" 
d="M35 289q0 42 -3 94t-10 106q23 -4 42.5 -6t32.5 -2q12 0 31.5 2t43.5 6q-7 -54 -10 -106t-3 -94v-98q0 -42 3 -94t10 -106q-24 4 -43.5 6.5t-31.5 2.5q-13 0 -32.5 -2.5t-42.5 -6.5q7 54 10 106t3 94v98zM18 631q0 28 23 47.5t56 19.5t56 -19.5t23 -47.5t-23 -47.5
t-56 -19.5t-56 19.5t-23 47.5z" />
    <glyph glyph-name="j" unicode="j" horiz-adv-x="270" 
d="M113 252q0 54 -2.5 117t-10.5 120q24 -4 44 -6t32 -2q13 0 32.5 2t43.5 6q-8 -57 -10.5 -108t-2.5 -92v-98q0 -28 0.5 -54.5t1.5 -53.5t2 -55t1 -54q0 -43 -6 -79.5t-37 -72.5q-28 -32 -80 -54t-122 -24l-13 75q14 -2 26 -4.5t14 -2.5q28 0 45 14.5t26.5 37.5t12.5 51
t3 56v281zM97 631q0 28 23 47.5t56 19.5q32 0 55.5 -19.5t23.5 -47.5t-23.5 -47.5t-55.5 -19.5q-33 0 -56 19.5t-23 47.5z" />
    <glyph glyph-name="k" unicode="k" horiz-adv-x="565" 
d="M48 458q0 32 -1 70.5t-2.5 78t-4 77.5t-5.5 69q24 -4 43.5 -6.5t31.5 -2.5q13 0 32.5 2.5t42.5 6.5q-3 -31 -5.5 -69t-4 -77.5t-2.5 -78t-1 -70.5v-170q5 1 11.5 4.5t12.5 8.5q1 1 3.5 2.5t4.5 2.5q10 6 35.5 25.5t57.5 45t66 55t63 55.5q28 -6 51 -6q15 0 45 3h13
t26 0.5t25.5 0.5h13.5q-95 -61 -172.5 -113.5t-134.5 -97.5q33 -32 73 -69t81.5 -74.5t82 -73.5t75.5 -67q-46 5 -76.5 7.5t-46.5 2.5q-33 0 -67 -6q-26 27 -59 58.5t-66.5 63t-64.5 60t-53 47.5v-42q0 -42 3 -88.5t10 -101.5q-23 4 -42.5 6.5t-32.5 2.5q-12 0 -31.5 -2.5
t-43.5 -6.5q3 31 5.5 69t4 78t2.5 78.5t1 70.5v171z" />
    <glyph glyph-name="l" unicode="l" horiz-adv-x="191" 
d="M32 458q0 32 -1 70.5t-2.5 78t-4 77.5t-5.5 69q23 -4 42.5 -6.5t32.5 -2.5q12 0 31.5 2.5t43.5 6.5q-3 -31 -5.5 -69t-4 -77.5t-2.5 -78t-1 -70.5v-171q0 -32 1 -70.5t2.5 -78.5t4 -78t5.5 -69q-24 4 -43.5 6.5t-31.5 2.5q-13 0 -32.5 -2.5t-42.5 -6.5q3 31 5.5 69t4 78
t2.5 78.5t1 70.5v171z" />
    <glyph glyph-name="m" unicode="m" horiz-adv-x="951" 
d="M56 289q0 41 -2.5 92t-10.5 108q24 -4 43.5 -6t31.5 -2q9 0 27.5 2t41.5 6q-2 -17 -3 -30.5t-1 -18.5q31 29 69.5 42t88.5 13q56 0 103.5 -21t73.5 -56q32 38 79.5 57.5t107.5 19.5q42 0 78.5 -9.5t63.5 -30t42.5 -52.5t15.5 -77q0 -13 -1 -27t-1 -31q-2 -27 -3.5 -63
t-1.5 -88v-22.5t0.5 -25.5t2 -33t3.5 -45q-23 4 -41 6.5t-31 2.5q-14 0 -33 -2.5t-42 -6.5q5 35 10.5 116.5t5.5 205.5q0 40 -23.5 67.5t-82.5 27.5q-38 0 -64 -11.5t-40 -27.5v1q-8 -9 -12.5 -18t-7 -29t-3.5 -56.5t-1 -101.5q0 -38 2 -67.5t4 -65.5v-8t0.5 -12.5t0.5 -12
v-8.5q-24 4 -43 6.5t-28 2.5q-12 0 -31 -2.5t-42 -6.5q6 63 9 123.5t3 114.5q0 41 -0.5 65t-2.5 38t-5.5 22t-10.5 18q-10 15 -33.5 25.5t-47.5 10.5q-68 0 -100 -35.5t-32 -101.5v-80q0 -41 2.5 -92t10.5 -108q-24 4 -44 6.5t-33 2.5q-12 0 -31.5 -2.5t-43.5 -6.5
q8 57 10.5 108t2.5 92v98z" />
    <glyph glyph-name="n" unicode="n" horiz-adv-x="585" 
d="M421 283q0 60 -30 92.5t-80 32.5q-74 0 -107.5 -35.5t-33.5 -101.5v-80q0 -41 2.5 -92t10.5 -108q-24 4 -43.5 6.5t-32.5 2.5t-32.5 -2.5t-43.5 -6.5q8 57 10.5 108t2.5 92v98q0 41 -2.5 92t-10.5 108q24 -4 43.5 -6t32.5 -2q8 0 26.5 2t42.5 6q-1 -9 -2 -15t-2 -11
t-1.5 -11t0.5 -16q32 29 74.5 44t96.5 15q36 0 73 -8t67 -29t49 -56.5t19 -90.5q0 -19 -0.5 -39.5t-1.5 -40.5q-1 -22 -2 -47t-1 -48q0 -31 1.5 -72.5t3.5 -72.5q-24 4 -42 6.5t-29 2.5t-28 -2.5t-40 -6.5q0 9 1 21t1.5 25t1.5 25t1 20q2 36 3.5 71t1.5 72v58v0z" />
    <glyph glyph-name="o" unicode="o" horiz-adv-x="679" 
d="M33 240q0 70 27 118.5t70.5 79t98.5 44t110 13.5t110 -13.5t98.5 -44t70.5 -79t27 -118.5t-27 -118.5t-70.5 -78.5t-98.5 -43.5t-110 -13.5t-110 13.5t-98.5 43.5t-70.5 78.5t-27 118.5zM174 240q0 -36 8 -69.5t27 -59.5t51 -41.5t79 -15.5t78.5 15.5t51 41.5t27.5 59.5
t8 69.5t-8 70t-27.5 60t-51 41.5t-78.5 15.5t-79 -15.5t-51 -41.5t-27 -60t-8 -70z" />
    <glyph glyph-name="p" unicode="p" horiz-adv-x="622" 
d="M47 191q0 31 -1 69.5t-2.5 78.5t-3.5 79t-5 71q24 -4 43 -6t31 -2q11 0 31.5 2t46.5 7q-5 -22 -8 -37t-3 -24q26 26 69.5 46t109.5 20q49 0 96 -14.5t83.5 -45.5t58.5 -78.5t22 -113.5q0 -65 -24 -113t-63 -80t-88 -48t-99 -16q-54 0 -96 15.5t-73 43.5v-7
q0 -32 0.5 -70.5t2 -78t4 -77.5t5.5 -69q-23 3 -42.5 5.5t-32.5 2.5q-12 0 -31 -2.5t-43 -5.5q3 31 5 69t3.5 77.5t2.5 78t1 70.5v153zM474 244q0 51 -13 84.5t-33.5 53t-46.5 27.5t-51 8q-43 0 -73 -14.5t-49 -39t-27.5 -57.5t-8.5 -70q0 -88 39.5 -132.5t114.5 -44.5
q37 0 65 14.5t46.5 39t27.5 58.5t9 73z" />
    <glyph glyph-name="q" unicode="q" horiz-adv-x="621" 
d="M574 38q0 -32 0.5 -70.5t2 -78t4 -77.5t5.5 -69q-24 3 -43 5.5t-31 2.5q-13 0 -32.5 -2.5t-42.5 -5.5q3 31 5 68.5t3.5 77t2.5 78t1 70.5l-1 19q-35 -35 -80 -52.5t-96 -17.5q-47 0 -94.5 13t-85.5 42.5t-62 77.5t-24 118q0 67 24 116t62.5 80.5t85.5 46.5t94 15
q64 0 104 -14.5t68 -43.5q-2 12 -4 25t-5 28q26 -5 46 -7t31 -2q12 0 31 2t43 6q-3 -32 -5.5 -71t-4 -79t-2 -78.5t-0.5 -69.5v-153zM449 250q0 33 -8.5 63t-26.5 53t-47 37t-69 14q-26 0 -53 -8t-48.5 -29t-35.5 -57.5t-14 -92.5q0 -37 9 -68t26.5 -54t43.5 -36t61 -13
q40 0 70.5 16.5t50.5 43.5t30.5 61t10.5 70z" />
    <glyph glyph-name="r" unicode="r" horiz-adv-x="351" 
d="M315 367q-8 7 -23.5 12.5t-29.5 5.5q-48 0 -75 -32.5t-27 -80.5v-102.5t1 -72.5t2.5 -55.5t4.5 -50.5q-23 4 -41 6.5t-28 2.5q-12 0 -30 -2.5t-41 -6.5q5 55 6 113.5t1 135.5v31q0 37 -1 97t-5 121q23 -4 41 -6t29 -2t29 2t41 7q-2 -17 -4 -25t-3 -13t-1.5 -9.5
t0.5 -13.5q32 36 66 51t71 15q11 0 24 -2.5t40 -11.5q-11 -23 -13 -50t-2 -48z" />
    <glyph glyph-name="s" unicode="s" horiz-adv-x="445" 
d="M89 124q6 -10 18 -21.5t27.5 -21t35 -16t41.5 -6.5q19 0 36.5 4t31 12.5t21.5 20.5t8 29q0 15 -9 25.5t-24 18t-35 12.5t-41 10q-30 7 -60.5 16t-55 24.5t-39.5 39.5t-15 62q0 35 14 65t41.5 51.5t67.5 33.5t92 12q34 0 61 -7t48 -13q2 -1 2.5 -1.5t5 -1.5t15.5 -3t32 -6
q-8 -11 -15.5 -25.5t-13.5 -28.5t-10 -26.5t-5 -19.5h-45q-9 23 -33 41t-57 18q-14 0 -28.5 -3.5t-26.5 -11t-19.5 -19t-7.5 -27.5t9.5 -27t25 -18.5t35.5 -13t42 -10.5h-1q30 -7 60 -15.5t54 -23t39 -38.5t15 -61q0 -30 -16.5 -60t-46.5 -54t-73 -39t-96 -15
q-57 0 -101.5 13.5t-77.5 27.5q4 8 9.5 20t10 25.5t7.5 27t3 24.5h44z" />
    <glyph glyph-name="t" unicode="t" horiz-adv-x="350" 
d="M192 612h29q-3 -35 -5.5 -70t-4.5 -70q22 1 58 1.5t69 2.5q-3 -20 -3.5 -27.5t-0.5 -12.5t0.5 -12.5t3.5 -27.5q-15 1 -33.5 1.5t-36.5 1t-34.5 0.5h-26.5q-1 -15 -2 -42t-2 -58t-1.5 -63.5t-0.5 -57.5q0 -23 1.5 -45.5t9 -40t23 -28t43.5 -10.5q9 0 30.5 3t42.5 8v-60
q-28 -8 -58 -13.5t-53 -5.5q-83 0 -123 36.5t-40 100.5q0 23 0.5 48.5t1.5 55.5q2 36 3 75.5t2 96.5q-19 -1 -42.5 -1.5t-43.5 -2.5q9 34 9 43q0 10 -9 39q27 -2 48.5 -3t34.5 -1q-1 20 -2 48.5t-2 51.5z" />
    <glyph glyph-name="u" unicode="u" horiz-adv-x="585" 
d="M34 160q0 27 0.5 50t1.5 43q1 17 1.5 32t0.5 31v38t-0.5 45t-1 46.5t-0.5 43.5q46 -8 68 -8q11 0 28.5 2t40.5 6q-6 -65 -9.5 -140t-3.5 -146q0 -44 8.5 -66.5t21.5 -33.5q14 -13 35.5 -21.5t53.5 -8.5q43 0 72.5 15t42.5 36q7 13 11.5 24t7 29.5t3 49.5t0.5 84v43
t-0.5 48.5t-1 47t-1.5 39.5q46 -8 69 -8q25 0 69 9q-5 -74 -7 -155t-2 -156q0 -21 0.5 -45.5t1.5 -49.5t2 -49t2 -44q-22 4 -39 6.5t-28 2.5q-9 0 -27 -2.5t-40 -6.5q2 15 3 29.5t1 25.5q-68 -60 -168 -60q-101 0 -158.5 45t-57.5 129z" />
    <glyph glyph-name="v" unicode="v" horiz-adv-x="604" 
d="M243 6q-3 7 -6 13.5t-7 13.5q-25 53 -53.5 111t-58.5 117.5t-60.5 118t-60.5 111.5q32 -5 56.5 -7.5t36.5 -2.5q10 0 26.5 1.5t37.5 5.5q37 -94 78 -180t87 -173q18 31 36.5 67t36.5 73.5t35.5 75t32.5 72.5q6 13 15 33t14 32q14 -4 26.5 -5.5t20.5 -1.5q20 0 73 14
l-49 -89q-56 -102 -111 -203.5t-103 -210.5q-32 8 -48 8q-8 0 -16 -1.5t-18 -3.5z" />
    <glyph glyph-name="w" unicode="w" horiz-adv-x="999" 
d="M249 8q-14 37 -38.5 94t-54.5 122.5t-63.5 134.5t-66.5 132q32 -5 55 -7.5t35 -2.5q11 0 29 1.5t38 5.5q31 -90 65 -174.5t73 -165.5q15 31 33.5 72.5t38 87t38.5 92t34 88.5q28 -7 48 -7q18 0 46 7q29 -91 64.5 -172.5t72.5 -165.5l1 -2q16 33 36 75.5t41 88.5t42 91.5
t38 84.5q31 -7 48 -7q22 0 75 14q-78 -132 -143.5 -257t-118.5 -243q-2 0 -9.5 0.5t-9.5 0.5q-6 2 -12 3t-13 1q-4 0 -10.5 -1t-12.5 -3q-1 0 -10 -0.5t-10 -0.5q-29 84 -62.5 163.5t-75.5 164.5q-15 -32 -34 -72.5t-38 -84t-37.5 -87.5t-33.5 -84q-2 0 -11.5 0.5t-11.5 0.5
q-6 2 -12.5 3t-11.5 1q-4 0 -10.5 -1t-12.5 -3q-2 0 -5 -0.5t-5 -0.5z" />
    <glyph glyph-name="x" unicode="x" horiz-adv-x="629" 
d="M183 487q35 -46 70.5 -87.5t72.5 -82.5q39 42 79.5 85t76.5 85q30 -6 48 -6q8 0 35.5 5t68.5 13q-29 -26 -62.5 -57t-68 -62.5t-67 -62.5t-58.5 -56q27 -30 59.5 -66t66.5 -72t67 -71t62 -64q-39 5 -68.5 8.5t-44.5 3.5q-12 0 -30 -2t-38 -5q-39 49 -76 93.5t-80 93.5
q-39 -45 -82 -94.5t-79 -92.5q-13 3 -24.5 5t-21.5 2q-11 0 -38 -5t-62 -13q28 28 61.5 60.5t67 66.5t65.5 66.5t59 60.5q-26 28 -57.5 61.5t-64 68t-64 67.5t-58.5 60q40 -6 70 -9t44 -3q29 0 71 6z" />
    <glyph glyph-name="y" unicode="y" horiz-adv-x="601" 
d="M72 -264q61 80 106 149t77 129q-14 30 -36 72.5t-47 91t-51 97.5t-49 92.5t-40.5 76t-25.5 47.5q29 -5 52.5 -7.5t35.5 -2.5q30 0 68 6q37 -94 78 -176.5t86 -168.5q45 78 87 168.5t77 178.5q38 -8 51 -8q6 0 27 3.5t51 10.5q-8 -14 -28 -48t-47 -81.5t-59.5 -104.5
t-66 -117.5t-66.5 -121t-61 -114t-49 -96t-31 -68.5q-15 3 -28.5 5t-23.5 2q-9 0 -32 -3.5t-55 -11.5z" />
    <glyph glyph-name="z" unicode="z" horiz-adv-x="594" 
d="M20 35q42 41 87 87t89.5 92.5t85.5 91t74 80.5v-1q7 7 8.5 9.5t2.5 3t2 2t6 7.5q-30 -1 -71 -3t-84 -4t-81.5 -4.5t-63.5 -3.5q4 20 6 31t2 16q0 4 -2 16t-5 32q18 -2 50 -3t73 -1.5t91 -1t104 -0.5q99 0 174 6v-42q-47 -50 -99.5 -105t-101.5 -106t-89 -93.5t-62 -67.5
q42 0 81.5 1t82 2.5t89 4.5t101.5 7q-5 -17 -8.5 -29.5t-3.5 -17.5t3.5 -17t8.5 -29h-22t-27.5 0.5t-28 1t-22.5 0.5q-54 2 -111.5 2.5t-110.5 0.5q-77 0 -155 -3q-7 0 -17 -0.5t-20.5 -1t-20 -1t-15.5 -0.5v41z" />
    <glyph glyph-name="braceleft" unicode="{" horiz-adv-x="296" 
d="M-4 324q43 0 65 19t22 51v160q0 75 31.5 102.5t90.5 27.5h88v-73h-57q-22 0 -32.5 -10.5t-10.5 -46.5v-155q0 -42 -19 -70t-52 -45q33 -17 52 -44.5t19 -69.5v-155q0 -35 10.5 -46t32.5 -11h57v-72h-88q-59 0 -90.5 27.5t-31.5 101.5v161q0 32 -22 51t-65 19v78z" />
    <glyph glyph-name="bar" unicode="|" horiz-adv-x="156" 
d="M26 747h99v-983h-99v983z" />
    <glyph glyph-name="braceright" unicode="}" horiz-adv-x="297" 
d="M300 246q-43 0 -65 -19t-22 -51v-161q0 -74 -32 -101.5t-91 -27.5h-87v72h57q22 0 32.5 11t10.5 46v155q0 42 19 69.5t52 45.5q-33 17 -52 44.5t-19 69.5v155q0 36 -10.5 46.5t-32.5 10.5h-57v73h87q60 0 91.5 -27.5t31.5 -102.5v-160q0 -32 22 -51t65 -19v-78z" />
    <glyph glyph-name="asciitilde" unicode="~" horiz-adv-x="634" 
d="M23 236q34 45 71.5 71.5t96.5 26.5q37 0 65 -7.5t53 -17.5q21 -6 38 -15v1q26 -10 49.5 -17.5t47.5 -7.5q15 0 30 8t29 20t27 26.5t22 27.5l59 -70q-15 -17 -32.5 -35t-38.5 -32t-45.5 -23t-52.5 -9q-36 0 -69.5 9.5t-72.5 26.5q-30 12 -55.5 20t-45.5 8q-23 0 -40.5 -8
t-31.5 -21t-24.5 -28t-18.5 -28z" />
    <glyph glyph-name="exclamdown" unicode="&#xa1;" horiz-adv-x="201" 
d="M128 322q4 -32 8.5 -73.5t7.5 -76.5q6 -55 12 -109.5t10.5 -99.5l7.5 -75t3 -37q0 -37 -24 -51.5t-53 -14.5t-53 14.5t-24 51.5q0 8 4.5 56t12 117t15.5 148t16 150h57zM14 422q0 30 25.5 51.5t60.5 21.5t60.5 -21.5t25.5 -51.5t-25.5 -51.5t-60.5 -21.5t-60.5 21.5
t-25.5 51.5z" />
    <glyph glyph-name="cent" unicode="&#xa2;" horiz-adv-x="546" 
d="M9 240q0 57 20.5 100.5t55.5 74.5t81.5 49t98.5 25q-1 19 -3 45.5t-8 62.5q41 -11 54 -11q19 0 55 10q-5 -32 -7.5 -58t-3.5 -44q61 -3 113 -19t80 -36q-11 -20 -21 -41.5t-16 -44.5h-34q-14 23 -45 45.5t-77 27.5v-363q42 4 85.5 23.5t74.5 47.5l30 -15q-5 -17 -7 -33.5
t-4 -34.5q-35 -22 -82 -40t-97 -22q1 -20 3 -50t7 -61q-18 5 -32 7.5t-22 2.5q-11 0 -52 -11q2 26 5 58t4 55q-50 6 -96 23t-81.5 47.5t-57 75t-21.5 104.5zM265 418q-60 -18 -87 -66t-27 -111q0 -138 114 -168v345z" />
    <glyph glyph-name="sterling" unicode="&#xa3;" horiz-adv-x="623" 
d="M48 94q44 0 72 10t43.5 28t21.5 43.5t6 57.5q0 18 -2.5 39t-5.5 40q-30 -1 -65.5 -1h-61.5q9 23 10.5 29.5t1.5 11.5q0 4 -2 11t-13 33q28 -5 62 -7.5t56 -2.5q-2 11 -2.5 22.5t-0.5 22.5q0 71 24.5 118t62 74.5t83 39t88.5 11.5q24 0 49 -4.5t49 -13t45 -22t36 -31.5
q-19 -17 -36 -37t-34 -41l-23 21q-9 27 -32 41t-54 14q-56 0 -89.5 -31.5t-33.5 -77.5q0 -27 1.5 -49.5t3.5 -42.5q1 -8 0.5 -7.5t0.5 -6.5q33 0 60 0.5t53 2.5q13 1 36 1.5t35 1.5q-2 -13 -3 -24t-1 -16q0 -8 1 -18t2 -23h-30q-21 0 -38.5 0.5t-34 1t-34.5 0.5h-39v-24
q0 -61 -23 -109.5t-58 -83.5q67 0 133 2.5t129 4.5q22 1 54 2t51 2q-5 -22 -6.5 -36t-1.5 -22q0 -16 9 -55q-9 0 -21.5 0.5t-26 1t-26 1t-21.5 0.5q-50 2 -103.5 2.5t-104.5 0.5q-101 0 -201 -3q-18 -1 -44.5 -1.5t-42.5 -0.5v5t0.5 9t0.5 9.5v5.5q1 5 1.5 10t0.5 10
q0 3 -0.5 7.5t-1.5 9.5q0 3 -0.5 16.5t-0.5 16.5h36z" />
    <glyph glyph-name="currency" unicode="&#xa4;" horiz-adv-x="698" 
d="M597 588l73 -58l-67 -54q27 -30 42.5 -68t15.5 -79q0 -81 -56 -145q16 -13 34 -27.5t31 -24.5l-73 -59l-66 51q-38 -23 -84 -35.5t-98 -12.5t-99 13t-85 36q-15 -12 -34 -26.5t-33 -25.5l-73 59l67 54q-26 31 -40.5 67t-14.5 76t15 77.5t41 68.5q-16 14 -35.5 29
t-32.5 26l73 57l67 -53q80 49 184 49q51 0 97 -12.5t85 -35.5zM562 329q0 36 -16.5 67t-45 54t-67.5 36.5t-84 13.5t-84 -13.5t-67.5 -36.5t-45 -54t-16.5 -67q0 -35 16.5 -66.5t45 -54.5t67.5 -36.5t84 -13.5t84 13.5t67.5 36.5t45 54.5t16.5 66.5z" />
    <glyph glyph-name="yen" unicode="&#xa5;" horiz-adv-x="680" 
d="M266 313q-29 0 -58.5 -0.5t-58.5 -1.5h-19.5t-23.5 -0.5t-23 -0.5h-20q0 2 0.5 15t0.5 15l2 9l-2 10v4.5t-0.5 9.5t-0.5 9.5v5.5q24 0 45 -0.5t41.5 -1t41 -0.5h44.5q-16 20 -32.5 40.5t-32.5 40.5q-18 24 -41.5 53.5t-48.5 60.5t-48.5 60t-41.5 51q40 -5 67.5 -8
t39.5 -3q14 0 33 2t42 5q10 -21 31 -52.5t46.5 -68t54 -74.5t53.5 -72q56 69 107.5 136.5t94.5 130.5q13 -3 25 -5t23 -2q8 0 33.5 5t64.5 13q-23 -24 -55.5 -60t-69 -77t-73 -83.5t-66.5 -79.5q-4 -4 -6.5 -6t-5.5 -7q43 0 88 0.5t84 1.5v-29l-2 -10l2 -9v-30h-19.5
t-24 0.5t-24 0.5h-20.5q-17 0 -31 0.5t-27.5 1t-27.5 0.5h-32v-44h104.5t101.5 1v-30l-2 -9l2 -10v-30q-52 2 -103 3.5t-103 1.5q1 -51 3.5 -101.5t7.5 -103.5q-25 4 -44.5 6.5t-30.5 2.5q-12 0 -32 -2.5t-44 -6.5q5 51 8 102.5t3 102.5q-49 0 -102.5 -1.5t-100.5 -3.5
q0 2 0.5 15t0.5 15l2 10l-2 9q0 2 -0.5 15t-0.5 15q51 -1 101.5 -1h101.5v44z" />
    <glyph glyph-name="brokenbar" unicode="&#xa6;" horiz-adv-x="150" 
d="M23 203h99v-369h-99v369zM23 676h99v-369h-99v369z" />
    <glyph glyph-name="section" unicode="&#xa7;" horiz-adv-x="533" 
d="M397 547q-11 30 -39.5 54t-72.5 24q-21 0 -41.5 -5t-36.5 -15t-26 -23.5t-10 -31.5q0 -20 12 -34.5t32.5 -25.5t46.5 -20.5t54 -18.5q36 -11 71 -23.5t63 -30.5t45 -44t17 -64t-19 -69.5t-40 -53.5q33 -29 33 -85q0 -38 -17 -74.5t-51 -65t-83.5 -45.5t-114.5 -17
q-24 0 -49.5 4t-51 11t-48 16.5t-40.5 19.5q3 10 6 24t5 29t3.5 29.5t1.5 25.5h45q5 -11 17 -25.5t31.5 -28t47.5 -23t65 -9.5q28 0 52.5 8t42.5 21t28.5 29.5t10.5 33.5q0 18 -12.5 32t-33 24.5t-47.5 19.5t-55 18q-39 12 -78 25.5t-69.5 33.5t-50 49t-19.5 72q0 20 7 38.5
t17.5 34t23 28.5t24.5 22q-11 14 -16.5 31.5t-5.5 51.5q0 33 14.5 64.5t43.5 55.5t71.5 39t99.5 15q31 0 58.5 -7t50.5 -18t42.5 -24.5t34.5 -27.5q-16 -13 -29.5 -35t-17.5 -39h-43zM418 247q0 13 -4.5 23.5t-15 19t-28 16.5t-43.5 18q-48 17 -80 28.5t-53 20t-33 14
t-19 9.5q-11 -9 -18.5 -21t-7.5 -26q0 -28 28 -47t86 -39q131 -46 170 -63q8 9 13 20t5 27z" />
    <glyph glyph-name="dieresis" unicode="&#xa8;" horiz-adv-x="450" 
d="M262 621q0 28 23.5 48t55.5 20q33 0 56 -20t23 -48q0 -27 -23 -47t-56 -20q-32 0 -55.5 20t-23.5 47zM29 621q0 28 23 48t56 20q32 0 55.5 -20t23.5 -48q0 -27 -23.5 -47t-55.5 -20q-33 0 -56 20t-23 47z" />
    <glyph glyph-name="copyright" unicode="&#xa9;" horiz-adv-x="962" 
d="M38 341q0 74 35 139t95 113.5t140.5 76.5t172.5 28q91 0 171.5 -28t140.5 -76.5t95 -113.5t35 -139t-35 -139.5t-95 -114t-140.5 -76.5t-171.5 -28q-92 0 -172.5 28t-140.5 76.5t-95 114t-35 139.5zM836 341q0 59 -27.5 110.5t-75.5 90t-112.5 61t-139.5 22.5
t-139.5 -22.5t-112.5 -61t-75.5 -90t-27.5 -110.5t27.5 -111t75.5 -90.5t112.5 -61t139.5 -22.5t139.5 22.5t112.5 61t75.5 90.5t27.5 111zM201 339q0 60 24 106t66 76.5t98 46t121 15.5q60 0 108.5 -10t84.5 -27q-8 -15 -15 -34.5t-8 -40.5l-31 -2q-8 6 -20 14.5t-28.5 16
t-38 13t-48.5 5.5q-38 0 -73.5 -8t-63 -28.5t-44.5 -55t-17 -88.5q0 -37 13 -68t37.5 -53.5t60.5 -35.5t83 -13q24 0 46.5 5t43 13t37 17t28.5 17l42 -1q-11 -24 -14.5 -41.5t-3.5 -28.5q-14 -7 -34 -15t-45.5 -14.5t-54 -11t-58.5 -4.5q-65 0 -119.5 16.5t-93.5 47.5
t-61 74t-22 97z" />
    <glyph glyph-name="ordfeminine" unicode="&#xaa;" horiz-adv-x="412" 
d="M60 638q29 12 64.5 24t83.5 12q22 0 47.5 -4t47 -16t35.5 -33.5t14 -55.5q0 -20 -1 -43t-3 -43q-1 -14 -1.5 -29t-0.5 -23q0 -14 8 -14q2 0 16.5 6t23.5 10v-58q-13 -6 -33 -12t-40 -6q-46 0 -62 29q-47 -29 -109 -29q-22 0 -45 4.5t-41.5 14.5t-30.5 27t-12 43
q0 42 30 64t103 33q55 8 74 11t19 5q0 34 -19.5 44t-46.5 10q-30 0 -50 -13t-27 -25h-44v67zM247 498q-8 -2 -16 -3.5t-16 -2.5q-15 -2 -30 -4.5t-26.5 -7.5t-19 -12.5t-7.5 -20.5q0 -14 13.5 -22t33.5 -8q21 0 38.5 8.5t29.5 19.5v53z" />
    <glyph glyph-name="guillemotleft" unicode="&#xab;" horiz-adv-x="438" 
d="M350 446q11 -14 32 -26t50 -15l-145 -166q16 -20 34 -42t36 -45t35 -45t32 -40q-24 -2 -46.5 -15t-30.5 -29l-171 215zM179 446q10 -14 31 -26t50 -15l-145 -166q16 -20 34 -42t36 -45t35.5 -45t32.5 -40q-25 -2 -48.5 -15t-31.5 -27l-169 213z" />
    <glyph glyph-name="logicalnot" unicode="&#xac;" horiz-adv-x="678" 
d="M537 306h-537v88h636v-292h-99v204z" />
    <glyph glyph-name="registered" unicode="&#xae;" horiz-adv-x="962" 
d="M38 341q0 74 35 139t95 113.5t140.5 76.5t172.5 28q91 0 171.5 -28t140.5 -76.5t95 -113.5t35 -139t-35 -139.5t-95 -114t-140.5 -76.5t-171.5 -28q-92 0 -172.5 28t-140.5 76.5t-95 114t-35 139.5zM126 341q0 -59 27.5 -111t75.5 -90.5t112.5 -61t139.5 -22.5
q63 0 118 15.5t100 43.5q-14 3 -24 4.5t-15 1.5q-11 0 -24 -2t-29 -5q-44 51 -92 102.5t-99 102.5h-12v-48q0 -32 2.5 -71.5t7.5 -88.5q-23 5 -38 7.5t-22 2.5q-8 0 -23.5 -2.5t-37.5 -7.5q0 3 1 10t1.5 15t1.5 15t1 10q2 26 4.5 53t2.5 54v161q0 32 -3 73t-8 76
q33 -3 62.5 -5t55.5 -2q12 0 23.5 0.5t23.5 1.5t24.5 2t24.5 1q35 0 65.5 -7t53.5 -21t36 -35t13 -50t-13 -51t-33.5 -38t-45.5 -26.5t-49 -15.5q8 -8 16.5 -17.5t17.5 -18.5q40 -42 81 -83.5t73 -62.5v-19q52 40 82.5 93.5t30.5 116.5q0 59 -27.5 110.5t-75.5 90t-112.5 61
t-139.5 22.5t-139.5 -22.5t-112.5 -61t-75.5 -90t-27.5 -110.5zM404 380q7 -1 13.5 -1h17.5q26 0 49.5 4t41.5 13.5t28.5 24t10.5 35.5q0 28 -26 44t-66 16q-15 0 -32.5 -0.5t-31.5 -2.5q-2 -18 -3.5 -36.5t-1.5 -35.5v-61z" />
    <glyph glyph-name="macron" unicode="&#xaf;" horiz-adv-x="428" 
d="M33 658h361v-87h-361v87z" />
    <glyph glyph-name="degree" unicode="&#xb0;" horiz-adv-x="422" 
d="M21 517q0 33 15 61.5t40.5 49.5t60.5 33.5t74 12.5t74 -12.5t60.5 -33.5t40.5 -49.5t15 -61.5q0 -32 -15 -60.5t-40.5 -49.5t-60.5 -33.5t-74 -12.5t-74 12.5t-60.5 33.5t-40.5 49.5t-15 60.5zM102 517q0 -35 31.5 -59t77.5 -24t77.5 24t31.5 59q0 18 -8.5 33t-23 26.5
t-34.5 18t-43 6.5t-43 -6.5t-34.5 -18t-23 -26.5t-8.5 -33z" />
    <glyph glyph-name="plusminus" unicode="&#xb1;" horiz-adv-x="648" 
d="M6 87h268v170h-268v87h268v172h99v-172h269v-87h-269v-170h269v-87h-636v87z" />
    <glyph glyph-name="twosuperior" unicode="&#xb2;" horiz-adv-x="407" 
d="M44 599q34 39 73.5 57t92.5 18q36 0 67.5 -7t55 -21.5t36.5 -37.5t13 -54q0 -24 -7 -44.5t-29 -45t-62 -57t-106 -79.5q26 0 55 0.5t57.5 1.5t54.5 2t47 3q-5 -17 -8.5 -29t-3.5 -17t3.5 -16t8.5 -28q-21 1 -46 2t-50.5 2t-50 1.5t-45.5 0.5q-42 0 -91.5 -2t-91.5 -4v44
q12 9 27.5 20.5t27.5 19.5q45 33 81 61t61 54.5t38.5 52t13.5 54.5q0 32 -20.5 47t-46.5 15q-20 0 -34.5 -6t-24 -15t-15 -19.5t-7.5 -19.5l-29 -2z" />
    <glyph glyph-name="threesuperior" unicode="&#xb3;" horiz-adv-x="393" 
d="M35 339h26q13 -11 38 -22t57 -11q47 0 74 20t27 51q0 18 -6.5 30.5t-17 20t-24.5 10.5t-28 3t-35.5 -4t-41.5 -9q7 18 9.5 28t2.5 14q0 5 -3 17.5t-11 33.5q29 -11 45.5 -15.5t23.5 -4.5q19 0 32 6t20.5 16t10.5 21.5t3 22.5q0 23 -18.5 34.5t-42.5 11.5q-26 0 -46 -12.5
t-28 -28.5l-27 -1l-32 55q22 16 57.5 32t91.5 16q32 0 60.5 -6.5t49.5 -19t33 -32t12 -45.5q0 -31 -15.5 -53t-39.5 -37q33 -11 57.5 -33t24.5 -64q0 -31 -15.5 -56.5t-44 -44t-68 -28.5t-88.5 -10q-45 0 -81 8t-65 19z" />
    <glyph glyph-name="acute" unicode="&#xb4;" horiz-adv-x="298" 
d="M174 704v-1q14 12 31.5 19.5t34.5 7.5q8 0 18 -3t18.5 -9.5t14.5 -15.5t6 -21q0 -24 -18 -38.5t-35 -22.5q-42 -23 -88.5 -46t-88.5 -45h-108z" />
    <glyph glyph-name="mu" unicode="&#xb5;" horiz-adv-x="562" 
d="M253 -14q-26 0 -47.5 3t-41.5 11q0 -59 2 -120t13 -138q-25 4 -44 6.5t-28 2.5q-11 0 -29 -2.5t-41 -5.5q1 25 1.5 59.5t1.5 56.5q2 51 2 101.5v113.5v126t-1 108q0 20 -0.5 44.5t-0.5 49v47.5v40q46 -8 68 -8q11 0 28.5 2t40.5 6q-6 -65 -9.5 -140t-3.5 -146
q0 -44 8.5 -66.5t21.5 -33.5q14 -13 35.5 -21.5t53.5 -8.5q43 0 72.5 15t42.5 36q7 13 11.5 24t7 29.5t3 49.5t0.5 84v43t-0.5 48.5t-1 47t-1.5 39.5q46 -8 69 -8q25 0 69 9q-5 -74 -7 -155t-2 -156q0 -21 0.5 -45.5t1.5 -49.5t2 -49t2 -44q-22 4 -39 6.5t-28 2.5
q-9 0 -27 -2.5t-40 -6.5q2 15 3 29.5t1 25.5q-68 -60 -169 -60z" />
    <glyph glyph-name="paragraph" unicode="&#xb6;" horiz-adv-x="612" 
d="M422 603q-9 -2 -17 -3t-21 -3v-706h-80v384q-152 4 -223.5 62.5t-71.5 150.5q0 97 68 145t186 48h327v-59l-88 -11v-720h-80v712z" />
    <glyph glyph-name="periodcentered" unicode="&#xb7;" horiz-adv-x="212" 
d="M15 308q0 32 26.5 54t63.5 22t63.5 -22t26.5 -54q0 -31 -26.5 -53t-63.5 -22t-63.5 22t-26.5 53z" />
    <glyph glyph-name="cedilla" unicode="&#xb8;" horiz-adv-x="298" 
d="M30 -124q18 -5 43.5 -10t51.5 -5q22 0 37 5.5t15 15.5t-12 14.5t-29 4.5q-35 0 -52 -10l-32 22l61 125h81l-26 -64h3q55 0 86.5 -24t31.5 -63q0 -24 -13 -42.5t-35 -31t-51 -19t-61 -6.5q-37 0 -72 8t-61 16z" />
    <glyph glyph-name="onesuperior" unicode="&#xb9;" horiz-adv-x="243" 
d="M101 577q-19 -8 -40 -16.5t-38 -15.5q-5 8 -15 16t-20 12v37q49 12 100.5 29t89.5 35h38q-5 -45 -7.5 -87t-2.5 -80v-95q0 -33 2.5 -76.5t7.5 -95.5q-46 11 -62 11q-15 0 -61 -11q5 58 6.5 98t1.5 74v165z" />
    <glyph glyph-name="ordmasculine" unicode="&#xba;" horiz-adv-x="464" 
d="M24 513q0 44 18 75t47.5 50t67 27.5t76.5 8.5q37 0 74 -8.5t66.5 -27.5t48 -50t18.5 -75t-18.5 -74.5t-48 -49.5t-66.5 -27.5t-74 -8.5q-39 0 -76.5 8.5t-67 27.5t-47.5 49.5t-18 74.5zM139 513q0 -18 5 -36t16 -32.5t29 -23t44 -8.5q25 0 42.5 8.5t28 23t15.5 32.5t5 36
q0 19 -5 37t-15.5 32t-28 22.5t-42.5 8.5q-26 0 -44 -8.5t-29 -22.5t-16 -32t-5 -37z" />
    <glyph glyph-name="guillemotright" unicode="&#xbb;" horiz-adv-x="437" 
d="M14 409q24 2 46.5 15t30.5 29l171 -216l-174 -207q-11 14 -32 26t-50 15l145 165zM185 409q24 2 47 15t31 29l170 -216l-174 -207q-11 14 -32 26t-50 15l145 165z" />
    <glyph glyph-name="onequarter" unicode="&#xbc;" horiz-adv-x="941" 
d="M503 147q63 66 131.5 136t132.5 136q9 -2 18.5 -4t17.5 -2q7 0 21.5 3t30.5 7q-5 -61 -6.5 -124t-1.5 -123q16 2 36.5 4.5t43.5 7.5q-7 -20 -11.5 -32.5t-4.5 -15.5t4 -15t11 -30q-29 3 -46 4.5t-33 2.5q0 -29 3 -59v1q0 -4 0.5 -11.5t1.5 -15.5t1.5 -15.5t0.5 -10.5
q-17 4 -33 6.5t-27 2.5q-8 0 -23 -2.5t-38 -7.5q3 27 6 56t3 56q-33 0 -68.5 -0.5t-68.5 -1.5t-60 -1.5t-42 -1.5v50zM559 689q13 -4 22.5 -6.5t14.5 -2.5q6 0 22.5 4.5t41.5 11.5l-353 -726q-13 3 -23 5.5t-15 2.5q-6 0 -22.5 -4t-40.5 -12zM140 577q-19 -8 -39.5 -16.5
t-37.5 -15.5q-6 8 -16 16t-20 12v37q49 13 100.5 30t89.5 34h38q-5 -45 -7.5 -87t-2.5 -80v-95q0 -33 3 -76.5t8 -95.5q-47 11 -63 11q-11 0 -27.5 -2.5t-33.5 -7.5q5 58 6.5 98t1.5 73v165zM742 296l-7.5 -7.5t-6.5 -7.5q-25 -26 -50.5 -53t-48.5 -53h113v121z" />
    <glyph glyph-name="onehalf" unicode="&#xbd;" horiz-adv-x="926" 
d="M562 348q33 39 72.5 57t91.5 18q37 0 68.5 -7t55 -21.5t36.5 -37t13 -53.5q0 -24 -7 -44.5t-29 -45.5t-62 -57t-106 -79q26 0 55 0.5t57.5 1t55 1.5t46.5 3q-2 -5 -4 -11.5t-4 -12.5t-3 -9.5l-1 -3.5q-1 -3 -1 -8t2 -13l-1 3q0 1 1 -2l3 -9t4 -13t4 -12q-21 1 -45.5 2.5
t-50 2.5t-50.5 1.5t-46 0.5q-41 0 -91.5 -2t-91.5 -4v44q12 8 27 20t26 20q44 33 80.5 61t62 54.5t39.5 52.5t14 55q0 32 -20 46.5t-47 14.5q-20 0 -34.5 -6t-24 -15t-15 -19.5t-7.5 -18.5l-31 -2zM555 689q13 -4 22.5 -6.5t15.5 -2.5q5 0 22 4.5t41 11.5l-353 -726
q-13 3 -22.5 5.5t-14.5 2.5q-6 0 -23 -4t-41 -12zM140 577q-20 -8 -40.5 -16.5t-37.5 -15.5q-5 8 -15.5 16t-20.5 12v37q49 12 100.5 29t89.5 35h38q-5 -48 -6.5 -89t-1.5 -78v-95q0 -33 2 -75.5t7 -96.5q-46 11 -61 11q-16 0 -63 -11q5 58 7 98t2 74v165zM898 51l-1 -3v-1
q0 3 1 4z" />
    <glyph glyph-name="threequarters" unicode="&#xbe;" horiz-adv-x="994" 
d="M554 146q63 66 131 136.5t133 136.5q9 -2 18.5 -4t17.5 -2q6 0 20.5 3t31.5 7q-5 -61 -6.5 -124t-1.5 -123q19 2 46 6.5t62 12.5l-25 -25t-13 -13.5t-4.5 -5.5l-0.5 -1q-2 -6 -2 -10q0 -6 1 -9l3 -5.5t6 -12.5t6 -12.5t3 -6.5q-31 4 -48.5 5.5t-33.5 2.5q1 -26 3 -58
t4 -54q-23 5 -38 7.5t-22 2.5t-23 -2.5t-38 -7.5q2 27 5.5 56t3.5 56q-33 0 -69 -0.5t-68.5 -1.5t-59.5 -1.5t-42 -1.5v49zM43 339h25q13 -11 38 -22t58 -11q46 0 73.5 20t27.5 51q0 18 -6.5 30.5t-17.5 20t-24.5 10.5t-27.5 3t-35.5 -4t-41.5 -9q12 36 12 42q0 5 -3.5 17.5
t-10.5 33.5q29 -11 45.5 -15.5t23.5 -4.5q19 0 31.5 6t20 16t10.5 21.5t3 22.5q0 23 -18 34.5t-42 11.5q-26 0 -46 -12.5t-28 -28.5l-27 -1l-33 55q23 16 58.5 32t91.5 16q32 0 60.5 -6.5t49.5 -19t33 -32t12 -45.5q0 -31 -15.5 -53t-39.5 -37q33 -11 57.5 -33t24.5 -64
q0 -31 -15.5 -56.5t-44 -44t-68.5 -28.5t-88 -10q-45 0 -81 8t-65 19zM624 689q13 -4 22.5 -6.5t15.5 -2.5q5 0 22 4.5t41 11.5l-354 -726q-13 3 -22 5.5t-15 2.5q-5 0 -22 -4t-41 -12zM793 297q-5 -5 -8 -8.5t-7 -7.5q-26 -26 -51 -53t-48 -53h114v122zM963 129l-1 2z" />
    <glyph glyph-name="questiondown" unicode="&#xbf;" horiz-adv-x="348" 
d="M92 263q9 9 18 23t10 23q14 5 29 7.5t31 2.5t41 -6.5t48 -21t39.5 -38.5t16.5 -58q0 -27 -10.5 -50.5t-27.5 -44.5t-37.5 -39.5t-40.5 -34.5q-33 -26 -60 -53t-27 -56q0 -28 26 -43.5t56 -15.5q29 0 60.5 18t61.5 46l13 -98q-28 -14 -62.5 -26.5t-79.5 -12.5
q-47 0 -83 11.5t-60.5 31t-37 46t-12.5 55.5q0 31 11 56.5t28.5 47.5t39.5 41.5t44 37.5q34 27 60.5 53t26.5 53q0 12 -11 24t-32 12q-11 0 -22.5 -4t-17.5 -7zM112 422q0 30 25.5 51.5t60.5 21.5q36 0 61.5 -21.5t25.5 -51.5t-25.5 -51.5t-61.5 -21.5q-35 0 -60.5 21.5
t-25.5 51.5z" />
    <glyph glyph-name="Agrave" unicode="&#xc0;" horiz-adv-x="820" 
d="M428 698l-164 84q-17 9 -35 24t-18 38q0 12 6 21t14.5 15.5t18.5 9.5t18 3q17 0 34.5 -7.5t31.5 -19.5q21 -17 49.5 -40t58.5 -47t58.5 -47t49.5 -41h-103q17 -32 37.5 -71t40.5 -74q40 -77 85 -162t86.5 -162.5t75.5 -139.5t53 -92q-34 5 -60 7.5t-39 2.5
q-17 0 -35.5 -2t-40.5 -5q-17 51 -44 105.5t-52 102.5l-12 24t-13 24q-37 1 -70.5 1.5t-71.5 0.5q-37 0 -67 -0.5t-66 -1.5q-36 -72 -66.5 -139t-47.5 -118q-38 8 -56 8q-9 0 -30.5 -3.5t-50.5 -8.5q48 83 99 173t102 181.5t100.5 181.5t94.5 174h29zM394 511
q-26 -47 -48 -88.5t-50 -92.5q8 0 17 -0.5t17 -0.5q12 0 31.5 -0.5t30.5 -0.5h28.5h22t22 0.5t28.5 0.5z" />
    <glyph glyph-name="Aacute" unicode="&#xc1;" horiz-adv-x="821" 
d="M486 866q14 12 31.5 19.5t34.5 7.5q8 0 18 -3t18.5 -9.5t14.5 -15.5t6 -21q0 -24 -18 -38.5t-35 -23.5q-40 -20 -82 -41.5t-83 -42.5h44q17 -32 39 -73t42 -79q40 -77 85 -162t86.5 -162.5t75.5 -139.5t53 -92q-34 5 -60 7.5t-39 2.5q-17 0 -35.5 -2t-40.5 -5
q-17 51 -44 105.5t-52 102.5l-12 24t-13 24q-37 1 -70.5 1.5t-71.5 0.5q-37 0 -67 -0.5t-66 -1.5q-36 -72 -66.5 -139t-47.5 -118q-38 8 -56 8q-9 0 -30.5 -3.5t-50.5 -8.5q48 82 98.5 172t101.5 181.5t100.5 181.5t94.5 174q-4 -2 -10 -6h-108zM385 511q-26 -47 -48 -88.5
t-50 -92.5q8 0 17 -0.5t17 -0.5q12 0 31.5 -0.5t30.5 -0.5h28.5h22t22 0.5t28.5 0.5z" />
    <glyph glyph-name="Acircumflex" unicode="&#xc2;" horiz-adv-x="826" 
d="M442 698q17 -32 39 -73t42 -79q40 -77 85 -162t86.5 -162.5t75.5 -139.5t53 -92q-34 5 -60 7.5t-39 2.5q-17 0 -35.5 -2t-40.5 -5q-17 51 -44 105.5t-52 102.5l-12 24t-13 24q-37 1 -70.5 1.5t-71.5 0.5q-37 0 -67 -0.5t-66 -1.5q-36 -72 -66.5 -139t-47.5 -118
q-38 8 -56 8q-9 0 -30.5 -3.5t-50.5 -8.5q48 83 99 173t102 181.5t100.5 181.5t94.5 174h45zM413 787q-33 -23 -68.5 -48t-67.5 -48h-94l182 196h95l182 -196h-93zM392 511q-26 -47 -48 -88.5t-50 -92.5q8 0 17 -0.5t17 -0.5q12 0 31.5 -0.5t30.5 -0.5h28.5h22t22 0.5
t28.5 0.5z" />
    <glyph glyph-name="Atilde" unicode="&#xc3;" horiz-adv-x="820" 
d="M439 698q17 -32 39 -73t42 -79q40 -77 85 -162t86.5 -162.5t75.5 -139.5t53 -92q-34 5 -60 7.5t-39 2.5q-17 0 -35.5 -2t-40.5 -5q-17 51 -44 105.5t-52 102.5l-12 24t-13 24q-37 1 -70.5 1.5t-71.5 0.5q-37 0 -67 -0.5t-66 -1.5q-36 -72 -66.5 -139t-47.5 -118
q-38 8 -56 8q-9 0 -30.5 -3.5t-50.5 -8.5q48 83 99 173t102 181.5t100.5 181.5t94.5 174h45zM191 715q5 23 16.5 47t29.5 43.5t43 32t58 12.5q12 0 21.5 -1t19.5 -3.5t22.5 -6.5t29.5 -11q31 -12 45 -16.5t27 -4.5q20 0 33 14.5t21 32.5h70q-3 -15 -12 -39t-27 -46
t-45.5 -38t-67.5 -16q-19 0 -41 5.5t-51 18.5q-29 12 -43 16t-27 4q-20 0 -30 -9.5t-21 -34.5h-71zM389 511q-26 -47 -48 -88.5t-50 -92.5q8 0 17 -0.5t17 -0.5q12 0 31.5 -0.5t30.5 -0.5h28.5h22t22 0.5t28.5 0.5z" />
    <glyph glyph-name="Adieresis" unicode="&#xc4;" horiz-adv-x="819" 
d="M439 698q17 -32 39 -73t42 -79q40 -77 85 -162t86.5 -162.5t75.5 -139.5t53 -92q-34 5 -60 7.5t-39 2.5q-17 0 -35.5 -2t-40.5 -5q-17 51 -44 105.5t-52 102.5l-12 24t-13 24q-37 1 -70.5 1.5t-71.5 0.5q-37 0 -67 -0.5t-66 -1.5q-36 -72 -66.5 -139t-47.5 -118
q-38 8 -56 8q-9 0 -30.5 -3.5t-50.5 -8.5q48 83 99 173t102 181.5t100.5 181.5t94.5 174h45zM389 511q-26 -47 -48 -88.5t-50 -92.5q8 0 17 -0.5t17 -0.5q12 0 31.5 -0.5t30.5 -0.5h28.5h22t22 0.5t28.5 0.5zM447 784q0 28 23.5 47.5t55.5 19.5q33 0 56 -19.5t23 -47.5
t-23 -47.5t-56 -19.5q-32 0 -55.5 19.5t-23.5 47.5zM214 784q0 28 23 47.5t56 19.5q32 0 55.5 -19.5t23.5 -47.5t-23.5 -47.5t-55.5 -19.5q-33 0 -56 19.5t-23 47.5z" />
    <glyph glyph-name="Aring" unicode="&#xc5;" horiz-adv-x="826" 
d="M272 792q0 24 11 44.5t30 36.5t45 25t55 9t54.5 -9t44.5 -25t30 -36.5t11 -44.5q0 -40 -29 -70t-73 -41q17 -32 35.5 -67.5t36.5 -67.5q40 -77 85 -162t86.5 -162.5t75.5 -139.5t53 -92q-34 5 -60 7.5t-39 2.5q-17 0 -35.5 -2t-40.5 -5q-17 51 -44 105.5t-52 102.5
l-12 24t-13 24q-37 1 -70.5 1.5t-71.5 0.5q-37 0 -67 -0.5t-66 -1.5q-36 -72 -66.5 -139t-47.5 -118q-38 8 -56 8q-9 0 -30.5 -3.5t-50.5 -8.5q46 80 95.5 167t99 176t98 177t92.5 170q-49 8 -81.5 39.5t-32.5 74.5zM392 511q-26 -47 -48 -88.5t-50 -92.5q8 0 17 -0.5
t17 -0.5q12 0 31.5 -0.5t30.5 -0.5h28.5h22t22 0.5t28.5 0.5zM360 792q0 -16 15.5 -27t36.5 -11q22 0 37.5 11t15.5 27t-15.5 27t-36.5 11q-22 0 -37.5 -11t-15.5 -27z" />
    <glyph glyph-name="AE" unicode="&#xc6;" horiz-adv-x="1027" 
d="M313 238q-91 -118 -164 -245q-18 3 -33 5t-26 2q-10 0 -37 -4t-65 -9q36 41 80.5 93.5t94 112t101.5 124t103.5 128.5t100 125.5t91.5 115.5q51 -2 104.5 -3.5t104.5 -1.5q25 0 54.5 0.5t59.5 1.5t58.5 2t52.5 2q-16 -38 -16 -49t17 -54q-24 4 -47.5 7.5t-56 6.5
t-78.5 4.5t-114 1.5v-19t-1 -18q-1 -26 -2 -55t-1 -55v-59q58 0 96.5 0.5t64 1.5t41.5 2t30 2h8t13.5 0.5t13.5 0.5h8q-15 -33 -15 -46q0 -12 15 -45h-8.5t-13.5 0.5t-13.5 0.5h-8.5l-28 2t-38 2t-62.5 1.5t-102.5 0.5v-77q0 -31 1 -61t2 -62v-19.5t1 -23.5q122 1 194 5
t110 9q-8 -21 -12 -33t-4 -17q0 -9 15 -48q-26 1 -56 2t-60.5 2t-60 1.5t-54.5 0.5t-53.5 -0.5t-58 -1.5t-58.5 -2t-54 -2q8 71 10 128t2 111zM558 553q-49 -61 -93.5 -117t-95.5 -121q46 -2 93 -2.5t96 -2.5v243z" />
    <glyph glyph-name="Ccedilla" unicode="&#xc7;" horiz-adv-x="777" 
d="M385 -14q-80 10 -147 39t-116 74t-76 106t-27 136q0 85 34 151.5t95 112t146.5 69.5t187.5 24q79 0 153 -15.5t134 -37.5q-18 -23 -24 -43t-10 -34q0 -6 -10 -25l-25 -2q-13 11 -34 25.5t-48.5 27.5t-62 22t-73.5 9q-66 0 -122.5 -17t-98 -51.5t-65 -88.5t-23.5 -127
q0 -74 23.5 -127.5t65 -88.5t98 -52t122.5 -17q40 0 76.5 9t67 21.5t55.5 27t43 25.5l23 -22l-13 -73q-13 -8 -38.5 -18.5t-60.5 -20t-77 -16t-88 -6.5h-2q-2 -2 -2.5 -4.5t-4.5 -10.5h4q55 0 86 -23.5t31 -62.5q0 -25 -13 -43.5t-35 -31t-51 -19t-61 -6.5q-37 0 -71.5 8.5
t-60.5 15.5l34 64q18 -5 43.5 -10t51.5 -5q22 0 37 5.5t15 15.5t-12 14.5t-29 4.5q-18 0 -31.5 -2.5t-20.5 -6.5l-32 21z" />
    <glyph glyph-name="Egrave" unicode="&#xc8;" horiz-adv-x="491" 
d="M39 423q0 61 -3.5 132t-7.5 132q54 -2 115.5 -4t115.5 -2q27 0 57.5 0.5t61.5 1.5t61.5 2t56.5 2q-6 -20 -8.5 -31.5t-2.5 -16.5q0 -6 2.5 -17.5t8.5 -31.5q-8 0 -20 1t-25 1.5t-24.5 1.5t-18.5 1q-26 2 -48 3.5t-47.5 3t-57.5 2t-77 0.5q0 -8 -0.5 -15.5t-1.5 -15.5
q-1 -16 -2 -34t-1 -37q0 -22 0.5 -43t0.5 -40v-23q99 1 170 4.5t122 7.5q-3 -17 -5.5 -31t-2.5 -19t2.5 -19.5t5.5 -30.5q-30 3 -72 5t-84 3.5t-79 2t-58 0.5v-118v-80t2 -43q38 0 81 0.5t85.5 2t83.5 4.5t75 9q-3 -17 -6 -32t-3 -20q0 -3 3 -17.5t6 -30.5q-26 1 -56.5 2
t-61.5 2t-61.5 1.5t-57.5 0.5q-54 0 -117.5 -2t-117.5 -4q4 63 7.5 134t3.5 132v163zM106 782q-17 9 -35 24t-18 38q0 12 6 21t14.5 15.5t18.5 9.5t19 3q17 0 34 -7.5t31 -19.5q22 -17 50.5 -40t58 -47t58 -47t50.5 -41h-110z" />
    <glyph glyph-name="Eacute" unicode="&#xc9;" horiz-adv-x="491" 
d="M29 423q0 61 -3.5 132t-7.5 132q54 -2 115.5 -4t115.5 -2q27 0 57.5 0.5t61.5 1.5t61.5 2t56.5 2q-6 -20 -8.5 -31.5t-2.5 -16.5q0 -6 2.5 -17.5t8.5 -31.5q-8 0 -20 1t-25 1.5t-24.5 1.5t-18.5 1q-26 2 -48 3.5t-47.5 3t-57.5 2t-77 0.5q0 -8 -0.5 -15.5t-1.5 -15.5
q-1 -16 -2 -34t-1 -37q0 -22 0.5 -43t0.5 -40v-23q99 1 170 4.5t122 7.5q-3 -17 -5.5 -31t-2.5 -19t2.5 -19.5t5.5 -30.5q-30 3 -72 5t-84 3.5t-79 2t-58 0.5v-118v-80t2 -43q38 0 81 0.5t85.5 2t83.5 4.5t75 9q-3 -17 -6 -32t-3 -20q0 -3 3 -17.5t6 -30.5q-26 1 -56.5 2
t-61.5 2t-61.5 1.5t-57.5 0.5q-54 0 -117.5 -2t-117.5 -4q4 63 7.5 134t3.5 132v163zM327 866q15 12 31.5 19.5t34.5 7.5q9 0 19 -3t18.5 -9.5t14.5 -15.5t6 -21q0 -24 -18 -38.5t-35 -23.5q-43 -22 -89 -45t-89 -46h-108z" />
    <glyph glyph-name="Ecircumflex" unicode="&#xca;" horiz-adv-x="498" 
d="M38 423q0 61 -3.5 132t-7.5 132q54 -2 115.5 -4t115.5 -2q27 0 57.5 0.5t61.5 1.5t61.5 2t56.5 2q-6 -20 -8.5 -31.5t-2.5 -16.5q0 -6 2.5 -17.5t8.5 -31.5q-8 0 -20 1t-25 1.5t-24.5 1.5t-18.5 1q-26 2 -48 3.5t-47.5 3t-57.5 2t-77 0.5q0 -8 -0.5 -15.5t-1.5 -15.5
q-1 -16 -2 -34t-1 -37q0 -22 0.5 -43t0.5 -40v-23q99 1 170 4.5t122 7.5q-3 -17 -5.5 -31t-2.5 -19t2.5 -19.5t5.5 -30.5q-30 3 -72 5t-84 3.5t-79 2t-58 0.5v-118v-80t2 -43q38 0 81 0.5t85.5 2t83.5 4.5t75 9q-3 -17 -6 -32t-3 -20q0 -3 3 -17.5t6 -30.5q-26 1 -56.5 2
t-61.5 2t-61.5 1.5t-57.5 0.5q-54 0 -117.5 -2t-117.5 -4q4 63 7.5 134t3.5 132v163zM256 787q-32 -23 -68 -48t-68 -48h-93l180 196h97l181 -196h-92z" />
    <glyph glyph-name="Edieresis" unicode="&#xcb;" horiz-adv-x="497" 
d="M38 423q0 61 -3.5 132t-7.5 132q54 -2 115.5 -4t115.5 -2q27 0 57.5 0.5t61.5 1.5t61.5 2t56.5 2q-6 -20 -8.5 -31.5t-2.5 -16.5q0 -6 2.5 -17.5t8.5 -31.5q-8 0 -20 1t-25 1.5t-24.5 1.5t-18.5 1q-26 2 -48 3.5t-47.5 3t-57.5 2t-77 0.5q0 -8 -0.5 -15.5t-1.5 -15.5
q-1 -16 -2 -34t-1 -37q0 -22 0.5 -43t0.5 -40v-23q99 1 170 4.5t122 7.5q-3 -17 -5.5 -31t-2.5 -19t2.5 -19.5t5.5 -30.5q-30 3 -72 5t-84 3.5t-79 2t-58 0.5v-118v-80t2 -43q38 0 81 0.5t85.5 2t83.5 4.5t75 9q-3 -17 -6 -32t-3 -20q0 -3 3 -17.5t6 -30.5q-26 1 -56.5 2
t-61.5 2t-61.5 1.5t-57.5 0.5q-54 0 -117.5 -2t-117.5 -4q4 63 7.5 134t3.5 132v163zM60 784q0 28 23.5 47.5t55.5 19.5q33 0 56.5 -19.5t23.5 -47.5t-23.5 -47.5t-56.5 -19.5q-32 0 -55.5 19.5t-23.5 47.5zM293 784q0 28 23 47.5t56 19.5q32 0 55.5 -19.5t23.5 -47.5
t-23.5 -47.5t-55.5 -19.5q-33 0 -56 19.5t-23 47.5z" />
    <glyph glyph-name="Igrave" unicode="&#xcc;" horiz-adv-x="310" 
d="M133 422q0 61 -3.5 133t-7.5 134q25 -4 44.5 -6t33.5 -2t33.5 2t44.5 6q-4 -62 -7.5 -134t-3.5 -133v-163q0 -61 3.5 -133t7.5 -134q-25 4 -44.5 6t-33.5 2t-33.5 -2t-44.5 -6q4 62 7.5 134t3.5 133v163zM50 782q-17 9 -35 24t-18 38q0 12 6 21t14.5 15.5t18.5 9.5t18 3
q17 0 34.5 -7.5t31.5 -19.5q21 -17 49.5 -40t58.5 -47t58.5 -47t49.5 -41h-109z" />
    <glyph glyph-name="Iacute" unicode="&#xcd;" horiz-adv-x="310" 
d="M42 422q0 61 -3.5 133t-7.5 134q25 -4 44.5 -6t33.5 -2t33.5 2t44.5 6q-4 -62 -7.5 -134t-3.5 -133v-163q0 -61 3.5 -133t7.5 -134q-25 4 -44.5 6t-33.5 2t-33.5 -2t-44.5 -6q4 62 7.5 134t3.5 133v163zM190 866q14 12 31.5 19.5t34.5 7.5q8 0 18 -3t18.5 -9.5
t14.5 -15.5t6 -21q0 -24 -18 -38.5t-35 -23.5q-42 -22 -88.5 -45t-88.5 -46h-108z" />
    <glyph glyph-name="Icircumflex" unicode="&#xce;" horiz-adv-x="413" 
d="M139 422q0 61 -3.5 133t-7.5 134q25 -4 44.5 -6t33.5 -2t33.5 2t44.5 6q-4 -62 -7.5 -134t-3.5 -133v-163q0 -61 3.5 -133t7.5 -134q-25 4 -44.5 6t-33.5 2t-33.5 -2t-44.5 -6q4 62 7.5 134t3.5 133v163zM207 787q-33 -23 -68.5 -48t-67.5 -48h-94l182 196h95l182 -196
h-93z" />
    <glyph glyph-name="Idieresis" unicode="&#xcf;" horiz-adv-x="392" 
d="M128 422q0 61 -3.5 133t-7.5 134q25 -4 44.5 -6t33.5 -2t33.5 2t44.5 6q-4 -62 -7.5 -134t-3.5 -133v-163q0 -61 3.5 -133t7.5 -134q-25 4 -44.5 6t-33.5 2t-33.5 -2t-44.5 -6q4 62 7.5 134t3.5 133v163zM0 784q0 28 23 47.5t56 19.5q32 0 55.5 -19.5t23.5 -47.5
t-23.5 -47.5t-55.5 -19.5q-33 0 -56 19.5t-23 47.5zM233 784q0 28 23.5 47.5t55.5 19.5q33 0 56 -19.5t23 -47.5t-23 -47.5t-56 -19.5q-32 0 -55.5 19.5t-23.5 47.5z" />
    <glyph glyph-name="Eth" unicode="&#xd0;" horiz-adv-x="960" 
d="M147 422q0 61 -3.5 132t-7.5 133q45 -2 99.5 -4t99.5 -2q22 0 44 0.5t44 1.5q23 1 45.5 2t45.5 1q108 0 185.5 -23t127 -66t72.5 -104.5t23 -138.5q0 -67 -19.5 -119.5t-53 -92.5t-78.5 -68t-94.5 -45.5t-102 -25.5t-101.5 -8q-20 0 -40 0.5t-40 1.5t-39 2t-39 1
q-41 0 -90 -2t-89 -4q4 62 7.5 133t3.5 132v86q-26 0 -59 -0.5t-59 -2.5q1 13 2.5 24t1.5 16t-1.5 15.5t-2.5 23.5q64 -3 118 -3v4zM282 259q0 -51 1 -93t5 -91q26 -4 62.5 -5.5t74.5 -1.5q61 0 122.5 11.5t111 43t80 87.5t30.5 144q0 76 -24 125.5t-66 78t-100 39.5
t-127 11q-45 0 -87.5 -2.5l-76.5 -4.5q-6 -86 -6 -179v-4q27 0 58.5 0.5l63 1t61.5 1t54 1.5q-8 -19 -11 -27.5t-3 -12.5q0 -6 14 -41q-55 2 -117.5 3t-119.5 1v-86z" />
    <glyph glyph-name="Ntilde" unicode="&#xd1;" horiz-adv-x="810" 
d="M717 -17q-118 112 -253.5 230t-270.5 233l-47 39q-1 -26 -1.5 -62.5t-0.5 -89.5q0 -20 0.5 -50t1.5 -63.5t2 -69t2.5 -66.5t3.5 -56t4 -38q-22 5 -39 7.5t-25 2.5t-25.5 -2.5t-42.5 -7.5q3 13 6 42t6.5 67.5t6.5 82.5t5.5 88t4 84.5t1.5 71.5v87t-0.5 78t-1.5 63.5
t-2 43.5h45q72 -63 150.5 -131t154 -133t145 -124t123.5 -102q0 60 -0.5 124.5t-2 127.5t-4 122t-5.5 109q23 -5 38.5 -7.5t23.5 -2.5q7 0 22.5 2.5t37.5 7.5q-3 -25 -7 -71.5t-7.5 -97.5t-5.5 -98t-2 -74v-57.5t0.5 -70.5t0.5 -75t0.5 -71t1 -57.5t0.5 -35.5h-44zM205 715
q5 23 16.5 47t29.5 43.5t43 32t58 12.5q12 0 21.5 -1t19.5 -3.5t22.5 -6.5t29.5 -11q31 -12 44.5 -16.5t27.5 -4.5q20 0 33 14.5t20 32.5h70q-3 -15 -11.5 -39t-26.5 -46t-45.5 -38t-67.5 -16q-19 0 -41 5.5t-52 18.5q-29 12 -43 16t-26 4q-20 0 -30 -9.5t-21 -34.5h-71z
" />
    <glyph glyph-name="Ograve" unicode="&#xd2;" horiz-adv-x="981" 
d="M30 341q0 85 34 151.5t95.5 112t146 69.5t186.5 24q4 0 7 -0.5t8 -0.5l-165 85q-17 9 -35 24t-18 38q0 12 6 21t14.5 15.5t18.5 9.5t18 3q17 0 34.5 -7.5t31.5 -19.5q21 -17 49.5 -40t58.5 -47t58.5 -47t49.5 -41h-35q81 -11 148 -39.5t114.5 -72.5t73.5 -104t26 -134
q0 -85 -34 -151.5t-95.5 -112.5t-146.5 -70t-187 -24t-186.5 24t-146 70t-95.5 112.5t-34 151.5zM800 341q0 73 -23.5 127t-65 88.5t-97.5 51.5t-122 17q-65 0 -121.5 -17t-97.5 -51.5t-64.5 -88.5t-23.5 -127q0 -74 23.5 -127.5t64.5 -88.5t97.5 -52t121.5 -17q66 0 122 17
t97.5 52t65 88.5t23.5 127.5z" />
    <glyph glyph-name="Oacute" unicode="&#xd3;" horiz-adv-x="981" 
d="M569 866q14 12 31.5 19.5t34.5 7.5q8 0 18 -3t18.5 -9.5t14.5 -15.5t6 -21q0 -24 -18 -38.5t-35 -23.5q-40 -20 -82.5 -42t-83.5 -43q4 0 7.5 0.5t7.5 0.5q102 0 187 -24t146.5 -69.5t95.5 -112t34 -151.5t-34 -151.5t-95.5 -112.5t-146.5 -70t-187 -24t-186.5 24
t-146 70t-95.5 112.5t-34 151.5q0 74 26 134t73 104t113.5 72.5t147.5 39.5h-32zM796 341q0 73 -23.5 127t-65 88.5t-97.5 51.5t-122 17q-65 0 -121.5 -17t-97.5 -51.5t-64.5 -88.5t-23.5 -127q0 -74 23.5 -127.5t64.5 -88.5t97.5 -52t121.5 -17q66 0 122 17t97.5 52
t65 88.5t23.5 127.5z" />
    <glyph glyph-name="Ocircumflex" unicode="&#xd4;" horiz-adv-x="985" 
d="M30 341q0 85 34 151.5t95.5 112t146 69.5t186.5 24t187 -24t146.5 -69.5t95.5 -112t34 -151.5t-34 -151.5t-95.5 -112.5t-146.5 -70t-187 -24t-186.5 24t-146 70t-95.5 112.5t-34 151.5zM800 341q0 73 -23.5 127t-65 88.5t-97.5 51.5t-122 17q-65 0 -121.5 -17
t-97.5 -51.5t-64.5 -88.5t-23.5 -127q0 -74 23.5 -127.5t64.5 -88.5t97.5 -52t121.5 -17q66 0 122 17t97.5 52t65 88.5t23.5 127.5zM493 787q-33 -23 -68.5 -48t-67.5 -48h-94l182 196h95l182 -196h-93z" />
    <glyph glyph-name="Otilde" unicode="&#xd5;" horiz-adv-x="985" 
d="M30 341q0 85 34 151.5t95.5 112t146 69.5t186.5 24t187 -24t146.5 -69.5t95.5 -112t34 -151.5t-34 -151.5t-95.5 -112.5t-146.5 -70t-187 -24t-186.5 24t-146 70t-95.5 112.5t-34 151.5zM800 341q0 73 -23.5 127t-65 88.5t-97.5 51.5t-122 17q-65 0 -121.5 -17
t-97.5 -51.5t-64.5 -88.5t-23.5 -127q0 -74 23.5 -127.5t64.5 -88.5t97.5 -52t121.5 -17q66 0 122 17t97.5 52t65 88.5t23.5 127.5zM274 715q5 23 16.5 47t29.5 43.5t43 32t58 12.5q12 0 21.5 -1t19.5 -3.5t22.5 -6.5t29.5 -11q31 -12 45 -16.5t27 -4.5q20 0 33 14.5
t21 32.5h70q-3 -15 -12 -39t-27 -46t-45.5 -38t-67.5 -16q-19 0 -41 5.5t-51 18.5q-29 12 -43 16t-27 4q-20 0 -30 -9.5t-21 -34.5h-71z" />
    <glyph glyph-name="Odieresis" unicode="&#xd6;" horiz-adv-x="985" 
d="M30 341q0 85 34 151.5t95.5 112t146 69.5t186.5 24t187 -24t146.5 -69.5t95.5 -112t34 -151.5t-34 -151.5t-95.5 -112.5t-146.5 -70t-187 -24t-186.5 24t-146 70t-95.5 112.5t-34 151.5zM800 341q0 73 -23.5 127t-65 88.5t-97.5 51.5t-122 17q-65 0 -121.5 -17
t-97.5 -51.5t-64.5 -88.5t-23.5 -127q0 -74 23.5 -127.5t64.5 -88.5t97.5 -52t121.5 -17q66 0 122 17t97.5 52t65 88.5t23.5 127.5zM530 784q0 28 23.5 47.5t55.5 19.5q33 0 56 -19.5t23 -47.5t-23 -47.5t-56 -19.5q-32 0 -55.5 19.5t-23.5 47.5zM297 784q0 28 23 47.5
t56 19.5q32 0 55.5 -19.5t23.5 -47.5t-23.5 -47.5t-55.5 -19.5q-33 0 -56 19.5t-23 47.5z" />
    <glyph glyph-name="multiply" unicode="&#xd7;" horiz-adv-x="628" 
d="M239 257q-26 21 -53.5 43.5t-55.5 45.5t-55.5 45t-51.5 42l74 59l218 -174q51 41 109 87.5t109 86.5l73 -59l-217 -175q52 -42 109 -88t107 -86l-72 -59l-218 174q-52 -42 -109.5 -87.5t-108.5 -86.5l-74 59z" />
    <glyph glyph-name="Oslash" unicode="&#xd8;" horiz-adv-x="997" 
d="M36 341q0 85 34 151.5t95.5 112t146 69.5t186.5 24q84 0 154.5 -15t127.5 -47q12 10 27 24.5t30 30t27.5 29t18.5 22.5q10 -12 32 -26t45 -25q-33 -19 -66 -45.5t-57 -47.5q59 -47 91.5 -111.5t32.5 -145.5q0 -85 -34 -151.5t-95.5 -112.5t-146.5 -70t-187 -24
q-83 0 -152 14.5t-126 46.5q-12 -11 -27 -25.5l-30 -29t-28.5 -29t-22.5 -25.5q-12 16 -31 28t-41 21q10 6 25 17.5t31.5 25t33.5 28t30 26.5q-60 46 -92 110.5t-32 149.5zM704 569q-80 56 -206 56q-65 0 -121.5 -17t-97.5 -51.5t-64.5 -88.5t-23.5 -127q0 -57 14.5 -104
t40.5 -79zM296 111q39 -27 90.5 -41t111.5 -14q66 0 122 17t97.5 52t65 88.5t23.5 127.5q0 113 -54 181z" />
    <glyph glyph-name="Ugrave" unicode="&#xd9;" horiz-adv-x="791" 
d="M653 359v118t-1.5 90.5t-4 69.5t-6.5 54q23 -5 42 -7.5t30 -2.5q9 0 24 2.5t34 7.5q-4 -39 -8 -89.5t-7.5 -106t-6 -113t-3.5 -108.5q-1 -67 -25 -120.5t-69 -91.5t-111 -58.5t-150 -20.5q-186 0 -272 71t-86 218q0 24 1 44.5t3 40.5q3 33 3 65q0 39 -1 78t-2.5 74.5
t-3 65t-2.5 50.5q26 -4 48 -6.5t33 -2.5q13 0 32.5 2.5t41.5 7.5q-3 -26 -6.5 -64.5t-6 -84.5t-4 -97t-1.5 -103q0 -30 1 -62t8 -63t21.5 -58.5t42 -48.5t69.5 -33t103 -12q60 0 101 14t68 37.5t41 54t21 63t8 65t1 60.5zM250 782q-17 9 -35 24t-18 38q0 12 6 21t14.5 15.5
t18.5 9.5t18 3q17 0 34.5 -7.5t31.5 -19.5q21 -17 49.5 -40t58.5 -47t58.5 -47t49.5 -41h-109z" />
    <glyph glyph-name="Uacute" unicode="&#xda;" horiz-adv-x="790" 
d="M646 359v118t-1.5 90.5t-4 69.5t-6.5 54q23 -5 42 -7.5t30 -2.5q9 0 24 2.5t34 7.5q-4 -39 -8 -89.5t-7.5 -106t-6 -113t-3.5 -108.5q-1 -67 -25 -120.5t-69 -91.5t-111 -58.5t-150 -20.5q-186 0 -272 71t-86 218q0 24 1 44.5t3 40.5q3 33 3 65q0 39 -1 78t-2.5 74.5
t-3 65t-2.5 50.5q26 -4 48 -6.5t33 -2.5q13 0 32.5 2.5t41.5 7.5q-3 -26 -6.5 -64.5t-6 -84.5t-4 -97t-1.5 -103q0 -30 1 -62t8 -63t21.5 -58.5t42 -48.5t69.5 -33t103 -12q60 0 101 14t68 37.5t41 54t21 63t8 65t1 60.5zM474 866q14 12 31.5 19.5t34.5 7.5q8 0 18 -3
t18.5 -9.5t14.5 -15.5t6 -21q0 -24 -18 -38.5t-35 -23.5q-42 -22 -88.5 -45t-88.5 -46h-108z" />
    <glyph glyph-name="Ucircumflex" unicode="&#xdb;" horiz-adv-x="795" 
d="M652 359v118t-1.5 90.5t-4 69.5t-6.5 54q23 -5 42 -7.5t30 -2.5q9 0 24 2.5t34 7.5q-4 -39 -8 -89.5t-7.5 -106t-6 -113t-3.5 -108.5q-1 -67 -25 -120.5t-69 -91.5t-111 -58.5t-150 -20.5q-186 0 -272 71t-86 218q0 24 1 44.5t3 40.5q3 33 3 65q0 39 -1 78t-2.5 74.5
t-3 65t-2.5 50.5q26 -4 48 -6.5t33 -2.5q13 0 32.5 2.5t41.5 7.5q-3 -26 -6.5 -64.5t-6 -84.5t-4 -97t-1.5 -103q0 -30 1 -62t8 -63t21.5 -58.5t42 -48.5t69.5 -33t103 -12q60 0 101 14t68 37.5t41 54t21 63t8 65t1 60.5zM400 787q-33 -23 -68.5 -48t-67.5 -48h-94l182 196
h95l182 -196h-93z" />
    <glyph glyph-name="Udieresis" unicode="&#xdc;" horiz-adv-x="796" 
d="M652 359v118t-1.5 90.5t-4 69.5t-6.5 54q23 -5 42 -7.5t30 -2.5q9 0 24 2.5t34 7.5q-4 -39 -8 -89.5t-7.5 -106t-6 -113t-3.5 -108.5q-1 -67 -25 -120.5t-69 -91.5t-111 -58.5t-150 -20.5q-186 0 -272 71t-86 218q0 24 1 44.5t3 40.5q3 33 3 65q0 39 -1 78t-2.5 74.5
t-3 65t-2.5 50.5q26 -4 48 -6.5t33 -2.5q13 0 32.5 2.5t41.5 7.5q-3 -26 -6.5 -64.5t-6 -84.5t-4 -97t-1.5 -103q0 -30 1 -62t8 -63t21.5 -58.5t42 -48.5t69.5 -33t103 -12q60 0 101 14t68 37.5t41 54t21 63t8 65t1 60.5zM204 784q0 28 23 47.5t56 19.5q32 0 55.5 -19.5
t23.5 -47.5t-23.5 -47.5t-55.5 -19.5q-33 0 -56 19.5t-23 47.5zM437 784q0 28 23.5 47.5t55.5 19.5q33 0 56 -19.5t23 -47.5t-23 -47.5t-56 -19.5q-32 0 -55.5 19.5t-23.5 47.5z" />
    <glyph glyph-name="Yacute" unicode="&#xdd;" horiz-adv-x="724" 
d="M281 -9q9 69 11 140.5t2 144.5q-13 19 -38.5 52.5t-56 75t-64 86.5t-64 85t-55 71t-36.5 46q40 -5 68.5 -8t42.5 -3q13 0 32 2t42 5q51 -81 102.5 -157t112.5 -160q27 34 55 73.5t56 81t54 82.5t49 80q17 -3 31 -5t25 -2t36 4t58 10q-63 -78 -113.5 -140.5t-89 -112
t-66.5 -88t-47 -66.5q0 -36 1 -77t2.5 -81t3.5 -76.5t5 -62.5q-27 4 -47.5 6.5t-31.5 2.5q-12 0 -32.5 -2.5t-47.5 -6.5zM441 857v-1q14 12 31.5 20t34.5 8q8 0 18 -3.5t18.5 -9.5t14.5 -15.5t6 -21.5q0 -24 -18 -38.5t-35 -22.5q-42 -22 -88.5 -45.5t-88.5 -45.5h-108z" />
    <glyph glyph-name="Thorn" unicode="&#xde;" horiz-adv-x="582" 
d="M47 422q0 61 -3.5 133t-6.5 134q25 -4 44.5 -6t33.5 -2q11 0 32 2.5t48 6.5q-4 -32 -8.5 -64t-4.5 -64h127q63 0 114 -11t86.5 -33.5t54.5 -57t19 -82.5q0 -58 -27.5 -96t-71.5 -60.5t-99.5 -31.5t-111.5 -9h-27.5h-21.5t-20 0.5t-22 1.5v-33q0 -41 3.5 -84t14.5 -75
q-29 4 -51.5 6.5t-33.5 2.5q-14 0 -33.5 -2t-44.5 -6q3 62 6.5 134t3.5 133v163zM182 255q15 -1 34 -1h39q35 0 67.5 7.5t58 22.5t41 38t15.5 55q0 20 -8.5 40t-28.5 36t-52.5 26t-79.5 10h-86v-234z" />
    <glyph glyph-name="germandbls" unicode="&#xdf;" horiz-adv-x="620" 
d="M44 403q0 30 -1 52t-2 38q-1 6 -1 13.5v10.5q0 64 24.5 108.5t62.5 72.5t84 41t88 13q30 0 63.5 -9t62 -25.5t47 -40t18.5 -51.5q0 -23 -8.5 -43t-21.5 -38t-29 -33.5t-31 -29.5q-19 -17 -34 -32.5t-15 -28.5q0 -20 28.5 -38t66.5 -37q27 -14 54.5 -29.5t50 -35t37 -43.5
t14.5 -56q0 -34 -20.5 -69t-55.5 -63t-80.5 -46t-94.5 -18q-42 0 -80 9.5t-67 23.5q13 17 22 41t11 41h33q12 -17 42.5 -29.5t62.5 -12.5q21 0 40.5 5.5t34.5 16t24 25.5t9 34t-10.5 34.5t-27 29.5t-38.5 26l-44 24q-25 13 -48.5 26.5t-41.5 29.5t-29 35t-11 43
q0 32 23.5 58t52.5 52q15 13 29.5 26.5t26.5 27.5t19 30t7 33q0 30 -26 49.5t-72 19.5q-35 0 -59 -11.5t-38.5 -33.5t-21 -55t-6.5 -75v-222q0 -32 1 -70.5t2.5 -78.5t4 -78t5.5 -69q-23 4 -42.5 6.5t-32.5 2.5q-12 0 -31.5 -2.5t-43.5 -6.5q3 31 5.5 69t4 78t2.5 78.5
t1 70.5v116z" />
    <glyph glyph-name="agrave" unicode="&#xe0;" horiz-adv-x="569" 
d="M75 431q62 37 111 50.5t98 13.5q47 0 86 -11.5t66.5 -32.5t43 -50t15.5 -65q0 -26 -0.5 -52.5t-1.5 -52.5q0 -26 -1 -56.5t-1 -59.5q0 -17 3.5 -34t23.5 -17q5 0 13 1.5t31 12.5v-63q-19 -6 -45 -12.5t-50 -6.5q-33 0 -56.5 14t-34.5 33q-39 -29 -79 -43t-98 -14
q-33 0 -64.5 9.5t-56.5 27t-40 42.5t-15 56q0 66 49 102t134 47q59 7 91.5 12t48.5 10t19 10.5t3 14.5q0 20 -6 38t-19.5 32t-35 22t-51.5 8q-42 0 -80 -16.5t-58 -47.5h-43v78zM138 620q-17 8 -35 23t-18 38q0 12 6 21t14.5 15.5t18.5 9.5t19 3q17 0 33.5 -7.5t31.5 -18.5
l216 -175h-108zM368 229q-12 -2 -23.5 -4t-22.5 -4q-28 -4 -57 -9.5t-52.5 -14.5t-38.5 -24t-15 -39q0 -35 25.5 -53t57.5 -18q38 0 69.5 16.5t51.5 37.5z" />
    <glyph glyph-name="aacute" unicode="&#xe1;" horiz-adv-x="565" 
d="M60 431q62 37 111 50.5t98 13.5q47 0 86 -11.5t66.5 -32.5t43 -50t15.5 -65q0 -26 -0.5 -52.5t-1.5 -52.5q0 -26 -1 -56.5t-1 -59.5q0 -17 3.5 -34t23.5 -17q5 0 13 1.5t31 12.5v-63q-19 -6 -45 -12.5t-50 -6.5q-33 0 -56.5 14t-34.5 33q-39 -29 -79 -43t-98 -14
q-33 0 -64.5 9.5t-56.5 27t-40 42.5t-15 56q0 66 49 102t134 47q59 7 91.5 12t48.5 10t19 10.5t3 14.5q0 20 -6 38t-19.5 32t-35 22t-51.5 8q-42 0 -80 -16.5t-58 -47.5h-43v78zM355 704v-1q14 12 31 19.5t34 7.5q9 0 19 -3t18.5 -9.5t14.5 -15.5t6 -21q0 -24 -18 -38.5
t-35 -22.5q-43 -23 -89 -46t-88 -45h-109zM353 229q-12 -2 -23.5 -4t-22.5 -4q-28 -4 -57 -9.5t-52.5 -14.5t-38.5 -24t-15 -39q0 -35 25.5 -53t57.5 -18q38 0 69.5 16.5t51.5 37.5z" />
    <glyph glyph-name="acircumflex" unicode="&#xe2;" horiz-adv-x="571" 
d="M70 431q62 37 111 50.5t98 13.5q47 0 86 -11.5t66.5 -32.5t43 -50t15.5 -65q0 -26 -0.5 -52.5t-1.5 -52.5q0 -26 -1 -56.5t-1 -59.5q0 -17 3.5 -34t23.5 -17q5 0 13 1.5t31 12.5v-63q-19 -6 -45 -12.5t-50 -6.5q-33 0 -56.5 14t-34.5 33q-39 -29 -79 -43t-98 -14
q-33 0 -64.5 9.5t-56.5 27t-40 42.5t-15 56q0 66 49 102t134 47q59 7 91.5 12t48.5 10t19 10.5t3 14.5q0 20 -6 38t-19.5 32t-35 22t-51.5 8q-42 0 -80 -16.5t-58 -47.5h-43v78zM284 624q-32 -23 -68 -47.5t-68 -47.5h-94l182 196h96l181 -196h-93zM363 229q-12 -2 -23.5 -4
t-22.5 -4q-28 -4 -57 -9.5t-52.5 -14.5t-38.5 -24t-15 -39q0 -35 25.5 -53t57.5 -18q38 0 69.5 16.5t51.5 37.5z" />
    <glyph glyph-name="atilde" unicode="&#xe3;" horiz-adv-x="578" 
d="M73 431q62 37 111 50.5t98 13.5q47 0 86 -11.5t66.5 -32.5t43 -50t15.5 -65q0 -26 -0.5 -52.5t-1.5 -52.5q0 -26 -1 -56.5t-1 -59.5q0 -17 3.5 -34t23.5 -17q5 0 13 1.5t31 12.5v-63q-19 -6 -45 -12.5t-50 -6.5q-33 0 -56.5 14t-34.5 33q-39 -29 -79 -43t-98 -14
q-33 0 -64.5 9.5t-56.5 27t-40 42.5t-15 56q0 66 49 102t134 47q59 7 91.5 12t48.5 10t19 10.5t3 14.5q0 20 -6 38t-19.5 32t-35 22t-51.5 8q-42 0 -80 -16.5t-58 -47.5h-43v78zM69 552q5 23 16 47.5t29 44t43 32t58 12.5q23 0 42 -5t51 -18q29 -11 45 -16t27 -5
q20 0 33 14.5t21 32.5h70q-3 -15 -12 -39t-27 -46t-45.5 -38t-67.5 -16q-19 0 -41 5.5t-51 18.5q-29 12 -43 16t-26 4q-20 0 -29.5 -9t-20.5 -35h-72zM366 229q-12 -2 -23.5 -4t-22.5 -4q-28 -4 -57 -9.5t-52.5 -14.5t-38.5 -24t-15 -39q0 -35 25.5 -53t57.5 -18
q38 0 69.5 16.5t51.5 37.5z" />
    <glyph glyph-name="adieresis" unicode="&#xe4;" horiz-adv-x="577" 
d="M73 431q62 37 111 50.5t98 13.5q47 0 86 -11.5t66.5 -32.5t43 -50t15.5 -65q0 -26 -0.5 -52.5t-1.5 -52.5q0 -26 -1 -56.5t-1 -59.5q0 -17 3.5 -34t23.5 -17q5 0 13 1.5t31 12.5v-63q-19 -6 -45 -12.5t-50 -6.5q-33 0 -56.5 14t-34.5 33q-39 -29 -79 -43t-98 -14
q-33 0 -64.5 9.5t-56.5 27t-40 42.5t-15 56q0 66 49 102t134 47q59 7 91.5 12t48.5 10t19 10.5t3 14.5q0 20 -6 38t-19.5 32t-35 22t-51.5 8q-42 0 -80 -16.5t-58 -47.5h-43v78zM366 229q-12 -2 -23.5 -4t-22.5 -4q-28 -4 -57 -9.5t-52.5 -14.5t-38.5 -24t-15 -39
q0 -35 25.5 -53t57.5 -18q38 0 69.5 16.5t51.5 37.5zM324 621q0 28 23.5 48t56.5 20q32 0 55.5 -20t23.5 -48q0 -27 -23.5 -47t-55.5 -20q-33 0 -56.5 20t-23.5 47zM91 621q0 28 23.5 48t56.5 20q32 0 55 -20t23 -48q0 -27 -23 -47t-55 -20q-33 0 -56.5 20t-23.5 47z" />
    <glyph glyph-name="aring" unicode="&#xe5;" horiz-adv-x="571" 
d="M70 431q62 37 111 50.5t98 13.5q47 0 86 -11.5t66.5 -32.5t43 -50t15.5 -65q0 -26 -0.5 -52.5t-1.5 -52.5q0 -26 -1 -56.5t-1 -59.5q0 -17 3.5 -34t23.5 -17q5 0 13 1.5t31 12.5v-63q-19 -6 -45 -12.5t-50 -6.5q-33 0 -56.5 14t-34.5 33q-39 -29 -79 -43t-98 -14
q-33 0 -64.5 9.5t-56.5 27t-40 42.5t-15 56q0 66 49 102t134 47q59 7 91.5 12t48.5 10t19 10.5t3 14.5q0 20 -6 38t-19.5 32t-35 22t-51.5 8q-42 0 -80 -16.5t-58 -47.5h-43v78zM144 629q0 24 11 44.5t30 36.5t44.5 25t54.5 9t54.5 -9t44.5 -25t30 -36.5t11 -44.5t-11 -44.5
t-30 -36.5t-45 -25t-55 -9t-54 9t-44 25t-30 36.5t-11 44.5zM363 229q-12 -2 -23.5 -4t-22.5 -4q-28 -4 -57 -9.5t-52.5 -14.5t-38.5 -24t-15 -39q0 -35 25.5 -53t57.5 -18q38 0 69.5 16.5t51.5 37.5zM231 629q0 -16 15.5 -27t36.5 -11q23 0 38 11t15 27t-15 27t-37 11
t-37.5 -11t-15.5 -27z" />
    <glyph glyph-name="ae" unicode="&#xe6;" horiz-adv-x="962" 
d="M92 431q62 37 111 50.5t98 13.5q19 0 42 -2.5t46 -9.5t46 -19.5t44 -32.5q34 31 78.5 47.5t100.5 16.5q67 0 116.5 -17t82.5 -46t49 -67.5t16 -81.5q0 -9 -1 -28t-2 -28q-21 0 -52 0.5t-52 0.5q-42 1 -84 1.5t-84 0.5q-26 0 -51.5 -0.5t-51.5 -1.5q-13 0 -17 -0.5
t-17 -0.5v-8q0 -33 12.5 -61.5t36 -49.5t58 -33t79.5 -12q22 0 45.5 5.5t47 15.5t44.5 22.5t38 27.5l29 -14l-9 -69q-20 -13 -45.5 -24.5t-54 -20.5t-58 -14.5t-58.5 -5.5q-78 0 -140.5 24.5t-99.5 69.5q-13 -18 -32.5 -35t-46.5 -30t-61.5 -21t-78.5 -8q-33 0 -65 9.5
t-56.5 27t-39.5 42.5t-15 56q0 66 49 102t134 47q58 7 90.5 12t48.5 10t19 10.5t3 14.5q0 20 -6 38t-19.5 32t-34.5 22t-51 8q-43 0 -81 -16.5t-58 -47.5h-42v78zM661 427q-34 0 -59.5 -11.5t-42.5 -29.5t-27.5 -40.5t-14.5 -44.5q6 0 12 -0.5t13 -0.5q26 -1 53 -1.5
t53 -0.5q27 0 54.5 0.5t54.5 1.5q12 0 15 0.5t15 0.5q-2 21 -8.5 43.5t-21 41t-38 30t-58.5 11.5zM175 134q0 -32 24.5 -51.5t67.5 -19.5q20 0 39.5 5.5t36 16t27 26t12.5 35.5q1 14 1 31v32v20q-23 -5 -45 -8q-28 -4 -57 -9.5t-52.5 -14.5t-38.5 -24t-15 -39z" />
    <glyph glyph-name="ccedilla" unicode="&#xe7;" horiz-adv-x="564" 
d="M202 -124q18 -5 43 -10t51 -5q21 0 36.5 5.5t15.5 15.5t-12.5 14.5t-29.5 4.5t-31 -3t-23 -8l-27 26l36 75q-48 6 -92.5 23t-79.5 47.5t-56 74.5t-21 104q0 66 27.5 114.5t72.5 79.5t103 46t118 15q33 0 65.5 -4.5t60.5 -12.5t51 -18t38 -21q-11 -20 -21 -41.5t-16 -44.5
h-34q-8 12 -22 25t-32 24t-40 18t-47 7q-49 0 -83.5 -14t-56.5 -39t-32 -59t-10 -74q0 -88 47.5 -133t138.5 -45q21 0 45 5.5t47 15.5t44.5 22.5t38.5 27.5l30 -15q-5 -17 -7 -33.5t-4 -34.5q-35 -23 -87 -41t-102 -22l-2 -4t-4 -10h3q56 0 86.5 -24t30.5 -63
q0 -24 -13 -42.5t-34.5 -31t-50.5 -19t-61 -6.5q-38 0 -73 8t-61 16z" />
    <glyph glyph-name="egrave" unicode="&#xe8;" horiz-adv-x="607" 
d="M27 227q0 124 75 196t215 72q67 0 116.5 -17t82 -46t48.5 -67.5t16 -81.5q0 -9 -1 -28t-2 -28q-21 0 -51.5 0.5t-52.5 0.5q-42 1 -83.5 1.5t-83.5 0.5q-26 0 -51 -0.5t-51 -1.5q-13 0 -17 -0.5t-18 -0.5v-8q0 -33 12.5 -61.5t36 -49.5t58 -33t79.5 -12q22 0 45.5 5.5
t46.5 15.5t44 22.5t38 27.5l29 -14l-9 -69q-41 -26 -99 -45.5t-117 -19.5q-68 0 -124 18.5t-96.5 51t-63 76.5t-22.5 95zM169 620q-17 8 -35 23t-18 38q0 12 6 21t14.5 15.5t18.5 9.5t18 3q17 0 34 -7.5t32 -18.5l216 -175h-108zM319 427q-34 0 -59 -11.5t-42.5 -30t-28 -41
t-14.5 -44.5h24q27 -1 55 -1.5t54 -0.5q27 0 54 0.5t54 1.5q12 0 14.5 0.5t14.5 0.5q-2 21 -8.5 43.5t-21 41t-37.5 30t-59 11.5z" />
    <glyph glyph-name="eacute" unicode="&#xe9;" horiz-adv-x="607" 
d="M27 227q0 124 75 196t215 72q67 0 116.5 -17t82 -46t48.5 -67.5t16 -81.5q0 -9 -1 -28t-2 -28q-21 0 -51.5 0.5t-52.5 0.5q-42 1 -83.5 1.5t-83.5 0.5q-26 0 -51 -0.5t-51 -1.5q-13 0 -17 -0.5t-18 -0.5v-8q0 -33 12.5 -61.5t36 -49.5t58 -33t79.5 -12q22 0 45.5 5.5
t46.5 15.5t44 22.5t38 27.5l29 -14l-9 -69q-41 -26 -99 -45.5t-117 -19.5q-68 0 -124 18.5t-96.5 51t-63 76.5t-22.5 95zM400 704v-1q14 12 31.5 19.5t34.5 7.5q8 0 18 -3t18.5 -9.5t14.5 -15.5t6 -21q0 -24 -18 -38.5t-35 -22.5q-42 -23 -88 -46t-88 -45h-109zM319 427
q-34 0 -59 -11.5t-42.5 -30t-28 -41t-14.5 -44.5h24q27 -1 55 -1.5t54 -0.5q27 0 54 0.5t54 1.5q12 0 14.5 0.5t14.5 0.5q-2 21 -8.5 43.5t-21 41t-37.5 30t-59 11.5z" />
    <glyph glyph-name="ecircumflex" unicode="&#xea;" horiz-adv-x="613" 
d="M30 227q0 124 75 196t215 72q67 0 116.5 -17t82 -46t48.5 -67.5t16 -81.5q0 -9 -1 -28t-2 -28q-21 0 -51.5 0.5t-52.5 0.5q-42 1 -83.5 1.5t-83.5 0.5q-26 0 -51 -0.5t-51 -1.5q-13 0 -17 -0.5t-18 -0.5v-8q0 -33 12.5 -61.5t36 -49.5t58 -33t79.5 -12q22 0 45.5 5.5
t46.5 15.5t44 22.5t38 27.5l29 -14l-9 -69q-41 -26 -99 -45.5t-117 -19.5q-68 0 -124 18.5t-96.5 51t-63 76.5t-22.5 95zM323 624q-32 -23 -68 -47.5t-68 -47.5h-94l182 196h96l181 -196h-93zM322 427q-34 0 -59 -11.5t-42.5 -30t-28 -41t-14.5 -44.5h24q27 -1 55 -1.5
t54 -0.5q27 0 54 0.5t54 1.5q12 0 14.5 0.5t14.5 0.5q-2 21 -8.5 43.5t-21 41t-37.5 30t-59 11.5z" />
    <glyph glyph-name="edieresis" unicode="&#xeb;" horiz-adv-x="605" 
d="M26 227q0 124 75 196t215 72q67 0 116.5 -17t82 -46t48.5 -67.5t16 -81.5q0 -9 -1 -28t-2 -28q-21 0 -51.5 0.5t-52.5 0.5q-42 1 -83.5 1.5t-83.5 0.5q-26 0 -51 -0.5t-51 -1.5q-13 0 -17 -0.5t-18 -0.5v-8q0 -33 12.5 -61.5t36 -49.5t58 -33t79.5 -12q22 0 45.5 5.5
t46.5 15.5t44 22.5t38 27.5l29 -14l-9 -69q-41 -26 -99 -45.5t-117 -19.5q-68 0 -124 18.5t-96.5 51t-63 76.5t-22.5 95zM318 427q-34 0 -59 -11.5t-42.5 -30t-28 -41t-14.5 -44.5h24q27 -1 55 -1.5t54 -0.5q27 0 54 0.5t54 1.5q12 0 14.5 0.5t14.5 0.5q-2 21 -8.5 43.5
t-21 41t-37.5 30t-59 11.5zM356 621q0 28 23.5 48t55.5 20q33 0 56.5 -20t23.5 -48q0 -27 -23.5 -47t-56.5 -20q-32 0 -55.5 20t-23.5 47zM123 621q0 28 23.5 48t56.5 20q32 0 55 -20t23 -48q0 -27 -23 -47t-55 -20q-33 0 -56.5 20t-23.5 47z" />
    <glyph glyph-name="igrave" unicode="&#xec;" horiz-adv-x="306" 
d="M139 289q0 42 -3 94t-10 106q23 -4 42.5 -6t32.5 -2q12 0 31.5 2t43.5 6q-7 -54 -10 -106t-3 -94v-98q0 -42 3 -94t10 -106q-24 4 -43.5 6.5t-31.5 2.5q-13 0 -32.5 -2.5t-42.5 -6.5q7 54 10 106t3 94v98zM51 620q-17 8 -35 23t-18 38q0 12 6 21t14.5 15.5t18.5 9.5t18 3
q17 0 34.5 -7.5t31.5 -19.5v1q21 -18 49.5 -41t58.5 -47t58.5 -47t49.5 -40h-109z" />
    <glyph glyph-name="iacute" unicode="&#xed;" horiz-adv-x="306" 
d="M42 289q0 42 -3 94t-10 106q23 -4 42.5 -6t32.5 -2q12 0 31.5 2t43.5 6q-7 -54 -10 -106t-3 -94v-98q0 -42 3 -94t10 -106q-24 4 -43.5 6.5t-31.5 2.5q-13 0 -32.5 -2.5t-42.5 -6.5q7 54 10 106t3 94v98zM185 704v-1q14 12 31.5 19.5t34.5 7.5q8 0 18 -3t18.5 -9.5
t14.5 -15.5t6 -21q0 -24 -18 -38.5t-35 -22.5q-42 -23 -88.5 -46t-88.5 -45h-108z" />
    <glyph glyph-name="icircumflex" unicode="&#xee;" horiz-adv-x="411" 
d="M143 289q0 42 -3 94t-10 106q23 -4 42.5 -6t32.5 -2q12 0 31.5 2t43.5 6q-7 -54 -10 -106t-3 -94v-98q0 -42 3 -94t10 -106q-24 4 -43.5 6.5t-31.5 2.5q-13 0 -32.5 -2.5t-42.5 -6.5q7 54 10 106t3 94v98zM206 624q-33 -23 -68.5 -47.5t-67.5 -47.5h-94l182 196h95
l182 -196h-93z" />
    <glyph glyph-name="idieresis" unicode="&#xef;" horiz-adv-x="403" 
d="M139 289q0 42 -3 94t-10 106q23 -4 42.5 -6t32.5 -2q12 0 31.5 2t43.5 6q-7 -54 -10 -106t-3 -94v-98q0 -42 3 -94t10 -106q-24 4 -43.5 6.5t-31.5 2.5q-13 0 -32.5 -2.5t-42.5 -6.5q7 54 10 106t3 94v98zM6 621q0 28 23 48t56 20q32 0 55.5 -20t23.5 -48
q0 -27 -23.5 -47t-55.5 -20q-33 0 -56 20t-23 47zM239 621q0 28 23.5 48t55.5 20q33 0 56 -20t23 -48q0 -27 -23 -47t-56 -20q-32 0 -55.5 20t-23.5 47z" />
    <glyph glyph-name="eth" unicode="&#xf0;" horiz-adv-x="678" 
d="M32 240q0 70 27.5 118.5t71 79t98.5 44t110 13.5h4q-23 20 -47 40t-52 40q-37 -10 -79.5 -21.5t-79.5 -22.5q-8 14 -21 31.5t-30 37.5q35 7 68 13t71 15q-31 22 -67 45.5t-84 52.5l135 27q43 -24 82.5 -47t71.5 -45q39 10 81.5 22t72.5 23q16 -30 54 -68
q-38 -8 -69 -13.5t-65 -13.5q69 -49 118 -95t80.5 -91.5t46.5 -91t15 -93.5q0 -70 -27.5 -118.5t-71 -78.5t-98 -43.5t-109.5 -13.5t-110 13.5t-98.5 43.5t-71 78.5t-27.5 118.5zM503 240q0 36 -8 70t-27 60t-50.5 41.5t-78.5 15.5t-79 -15.5t-51 -41.5t-27 -60t-8 -70
t8 -69.5t27 -59.5t51 -41.5t79 -15.5t78.5 15.5t50.5 41.5t27 59.5t8 69.5z" />
    <glyph glyph-name="ntilde" unicode="&#xf1;" horiz-adv-x="573" 
d="M415 283q0 60 -30 92.5t-80 32.5q-74 0 -107.5 -35.5t-33.5 -101.5v-80q0 -41 2.5 -92t10.5 -108q-24 4 -43.5 6.5t-32.5 2.5t-32.5 -2.5t-43.5 -6.5q8 57 10.5 108t2.5 92v98q0 41 -2.5 92t-10.5 108q24 -4 43.5 -6t32.5 -2q8 0 26.5 2t42.5 6q-1 -9 -2 -15t-2 -11
t-1.5 -11t0.5 -16q32 29 74.5 44t96.5 15q36 0 73 -8t67 -29t49 -56.5t19 -90.5q0 -19 -0.5 -39.5t-1.5 -40.5q-1 -22 -2 -47t-1 -48q0 -31 1.5 -72.5t3.5 -72.5q-24 4 -42 6.5t-29 2.5t-28 -2.5t-40 -6.5q0 9 1 21t1.5 25t1.5 25t1 20q2 36 3.5 71t1.5 72v58v0zM69 552
q5 23 16.5 47.5t29.5 44t43 32t58 12.5q12 0 21.5 -1t19.5 -3.5t22.5 -7t29.5 -11.5q31 -12 44.5 -16.5t26.5 -4.5q20 0 33.5 14.5t20.5 32.5h70q-3 -15 -11.5 -39t-26.5 -46t-45.5 -38t-67.5 -16q-19 0 -41 5.5t-52 18.5q-29 12 -43 16t-26 4q-20 0 -30 -9t-21 -35h-71z
" />
    <glyph glyph-name="ograve" unicode="&#xf2;" horiz-adv-x="669" 
d="M28 240q0 70 27 118.5t70.5 79t98.5 44t110 13.5t110 -13.5t98.5 -44t70.5 -79t27 -118.5t-27 -118.5t-70.5 -78.5t-98.5 -43.5t-110 -13.5t-110 13.5t-98.5 43.5t-70.5 78.5t-27 118.5zM169 240q0 -36 8 -69.5t27 -59.5t51 -41.5t79 -15.5t78.5 15.5t51 41.5t27.5 59.5
t8 69.5t-8 70t-27.5 60t-51 41.5t-78.5 15.5t-79 -15.5t-51 -41.5t-27 -60t-8 -70zM184 620q-17 8 -35 23t-18 38q0 12 6 21t14.5 15.5t18.5 9.5t18 3q17 0 34.5 -7.5t31.5 -19.5v1q21 -18 49.5 -41t58.5 -47t58.5 -47t49.5 -40h-109z" />
    <glyph glyph-name="oacute" unicode="&#xf3;" horiz-adv-x="670" 
d="M29 240q0 70 27 118.5t70.5 79t98.5 44t110 13.5t110 -13.5t98.5 -44t70.5 -79t27 -118.5t-27 -118.5t-70.5 -78.5t-98.5 -43.5t-110 -13.5t-110 13.5t-98.5 43.5t-70.5 78.5t-27 118.5zM170 240q0 -36 8 -69.5t27 -59.5t51 -41.5t79 -15.5t78.5 15.5t51 41.5t27.5 59.5
t8 69.5t-8 70t-27.5 60t-51 41.5t-78.5 15.5t-79 -15.5t-51 -41.5t-27 -60t-8 -70zM416 704v-1q14 12 31.5 19.5t34.5 7.5q8 0 18 -3t18.5 -9.5t14.5 -15.5t6 -21q0 -24 -18 -38.5t-35 -22.5q-42 -23 -88.5 -46t-88.5 -45h-108z" />
    <glyph glyph-name="ocircumflex" unicode="&#xf4;" horiz-adv-x="677" 
d="M32 240q0 70 27 118.5t70.5 79t98.5 44t110 13.5t110 -13.5t98.5 -44t70.5 -79t27 -118.5t-27 -118.5t-70.5 -78.5t-98.5 -43.5t-110 -13.5t-110 13.5t-98.5 43.5t-70.5 78.5t-27 118.5zM173 240q0 -36 8 -69.5t27 -59.5t51 -41.5t79 -15.5t78.5 15.5t51 41.5t27.5 59.5
t8 69.5t-8 70t-27.5 60t-51 41.5t-78.5 15.5t-79 -15.5t-51 -41.5t-27 -60t-8 -70zM339 624q-33 -23 -68.5 -47.5t-67.5 -47.5h-94l182 196h95l182 -196h-93z" />
    <glyph glyph-name="otilde" unicode="&#xf5;" horiz-adv-x="670" 
d="M29 240q0 70 27 118.5t70.5 79t98.5 44t110 13.5t110 -13.5t98.5 -44t70.5 -79t27 -118.5t-27 -118.5t-70.5 -78.5t-98.5 -43.5t-110 -13.5t-110 13.5t-98.5 43.5t-70.5 78.5t-27 118.5zM170 240q0 -36 8 -69.5t27 -59.5t51 -41.5t79 -15.5t78.5 15.5t51 41.5t27.5 59.5
t8 69.5t-8 70t-27.5 60t-51 41.5t-78.5 15.5t-79 -15.5t-51 -41.5t-27 -60t-8 -70zM117 552q5 23 16.5 47.5t29.5 44t43 32t58 12.5q12 0 21.5 -1t19.5 -3.5t22.5 -7t29.5 -11.5q31 -12 45 -16.5t27 -4.5q20 0 33 14.5t21 32.5h70q-3 -15 -12 -39t-27 -46t-45.5 -38
t-67.5 -16q-19 0 -41 5.5t-51 18.5q-29 12 -43 16t-27 4q-20 0 -30 -9t-21 -35h-71z" />
    <glyph glyph-name="odieresis" unicode="&#xf6;" horiz-adv-x="668" 
d="M27 240q0 70 27 118.5t70.5 79t98.5 44t110 13.5t110 -13.5t98.5 -44t70.5 -79t27 -118.5t-27 -118.5t-70.5 -78.5t-98.5 -43.5t-110 -13.5t-110 13.5t-98.5 43.5t-70.5 78.5t-27 118.5zM168 240q0 -36 8 -69.5t27 -59.5t51 -41.5t79 -15.5t78.5 15.5t51 41.5t27.5 59.5
t8 69.5t-8 70t-27.5 60t-51 41.5t-78.5 15.5t-79 -15.5t-51 -41.5t-27 -60t-8 -70zM371 621q0 28 23.5 48t55.5 20q33 0 56 -20t23 -48q0 -27 -23 -47t-56 -20q-32 0 -55.5 20t-23.5 47zM138 621q0 28 23 48t56 20q32 0 55.5 -20t23.5 -48q0 -27 -23.5 -47t-55.5 -20
q-33 0 -56 20t-23 47z" />
    <glyph glyph-name="divide" unicode="&#xf7;" horiz-adv-x="643" 
d="M3 302h636v-87h-636v87zM235 73q0 30 25.5 51.5t60.5 21.5t60.5 -21.5t25.5 -51.5t-25.5 -51.5t-60.5 -21.5t-60.5 21.5t-25.5 51.5zM235 444q0 29 25.5 50.5t60.5 21.5t60.5 -21.5t25.5 -50.5q0 -30 -25.5 -51.5t-60.5 -21.5t-60.5 21.5t-25.5 51.5z" />
    <glyph glyph-name="oslash" unicode="&#xf8;" horiz-adv-x="707" 
d="M55 240q0 70 27 118.5t70.5 79t98.5 44t110 13.5q45 0 92 -10t89 -32q25 21 48.5 44.5t36.5 41.5q11 -14 29 -26t44 -22q-24 -14 -52.5 -34.5t-51.5 -41.5q35 -32 53 -73.5t18 -101.5q0 -70 -27.5 -118.5t-71 -78.5t-98 -43.5t-109.5 -13.5q-49 0 -98 11t-91 34
q-13 -12 -27 -24.5t-26.5 -24t-22.5 -21t-16 -15.5q-21 26 -67 41q5 4 17 13.5t27 21.5t31 25.5t30 26.5q-30 30 -46.5 70t-16.5 96zM243 96q20 -21 48 -31.5t70 -10.5q47 0 78.5 15.5t50.5 41.5t27 59.5t8 69.5q0 23 -4 50.5t-12 47.5zM472 390q-18 16 -47 26.5t-64 10.5
q-47 0 -78.5 -15.5t-50.5 -41.5t-27 -60t-8 -70q0 -47 12 -86z" />
    <glyph glyph-name="ugrave" unicode="&#xf9;" horiz-adv-x="559" 
d="M28 160q0 27 0.5 50t1.5 43q1 17 1.5 32t0.5 31v38t-0.5 45t-1 46.5t-0.5 43.5q46 -8 68 -8q11 0 28.5 2t40.5 6q-6 -65 -9.5 -140t-3.5 -146q0 -44 8.5 -66.5t21.5 -33.5q14 -13 35.5 -21.5t53.5 -8.5q43 0 72.5 15t42.5 36q7 13 11.5 24t7 29.5t3 49.5t0.5 84v43
t-0.5 48.5t-1 47t-1.5 39.5q46 -8 69 -8q25 0 69 9q-5 -74 -7 -155t-2 -156q0 -21 0.5 -45.5t1.5 -49.5t2 -49t2 -44q-22 4 -39 6.5t-28 2.5q-9 0 -27 -2.5t-40 -6.5q2 15 3 29.5t1 25.5q-68 -60 -168 -60q-101 0 -158.5 45t-57.5 129zM136 620q-17 8 -35 23t-18 38
q0 12 6 21t14.5 15.5t18.5 9.5t18 3q17 0 34.5 -7.5t31.5 -19.5v1q21 -18 49.5 -41t58.5 -47t58.5 -47t49.5 -40h-109z" />
    <glyph glyph-name="uacute" unicode="&#xfa;" horiz-adv-x="559" 
d="M14 160q0 27 0.5 50t1.5 43q1 17 1.5 32t0.5 31v38t-0.5 45t-1 46.5t-0.5 43.5q46 -8 68 -8q11 0 28.5 2t40.5 6q-6 -65 -9.5 -140t-3.5 -146q0 -44 8.5 -66.5t21.5 -33.5q14 -13 35.5 -21.5t53.5 -8.5q43 0 72.5 15t42.5 36q7 13 11.5 24t7 29.5t3 49.5t0.5 84v43
t-0.5 48.5t-1 47t-1.5 39.5q46 -8 69 -8q25 0 69 9q-5 -74 -7 -155t-2 -156q0 -21 0.5 -45.5t1.5 -49.5t2 -49t2 -44q-22 4 -39 6.5t-28 2.5q-9 0 -27 -2.5t-40 -6.5q2 15 3 29.5t1 25.5q-68 -60 -168 -60q-101 0 -158.5 45t-57.5 129zM353 704v-1q14 12 31.5 19.5t34.5 7.5
q8 0 18 -3t18.5 -9.5t14.5 -15.5t6 -21q0 -24 -18 -38.5t-35 -22.5q-42 -23 -88.5 -46t-88.5 -45h-108z" />
    <glyph glyph-name="ucircumflex" unicode="&#xfb;" horiz-adv-x="565" 
d="M24 160q0 27 0.5 50t1.5 43q1 17 1.5 32t0.5 31v38t-0.5 45t-1 46.5t-0.5 43.5q46 -8 68 -8q11 0 28.5 2t40.5 6q-6 -65 -9.5 -140t-3.5 -146q0 -44 8.5 -66.5t21.5 -33.5q14 -13 35.5 -21.5t53.5 -8.5q43 0 72.5 15t42.5 36q7 13 11.5 24t7 29.5t3 49.5t0.5 84v43
t-0.5 48.5t-1 47t-1.5 39.5q46 -8 69 -8q25 0 69 9q-5 -74 -7 -155t-2 -156q0 -21 0.5 -45.5t1.5 -49.5t2 -49t2 -44q-22 4 -39 6.5t-28 2.5q-9 0 -27 -2.5t-40 -6.5q2 15 3 29.5t1 25.5q-68 -60 -168 -60q-101 0 -158.5 45t-57.5 129zM283 624q-33 -23 -68.5 -47.5
t-67.5 -47.5h-94l182 196h95l182 -196h-93z" />
    <glyph glyph-name="udieresis" unicode="&#xfc;" horiz-adv-x="572" 
d="M28 160q0 27 0.5 50t1.5 43q1 17 1.5 32t0.5 31v38t-0.5 45t-1 46.5t-0.5 43.5q46 -8 68 -8q11 0 28.5 2t40.5 6q-6 -65 -9.5 -140t-3.5 -146q0 -44 8.5 -66.5t21.5 -33.5q14 -13 35.5 -21.5t53.5 -8.5q43 0 72.5 15t42.5 36q7 13 11.5 24t7 29.5t3 49.5t0.5 84v43
t-0.5 48.5t-1 47t-1.5 39.5q46 -8 69 -8q25 0 69 9q-5 -74 -7 -155t-2 -156q0 -21 0.5 -45.5t1.5 -49.5t2 -49t2 -44q-22 4 -39 6.5t-28 2.5q-9 0 -27 -2.5t-40 -6.5q2 15 3 29.5t1 25.5q-68 -60 -168 -60q-101 0 -158.5 45t-57.5 129zM91 621q0 28 23 48t56 20
q32 0 55.5 -20t23.5 -48q0 -27 -23.5 -47t-55.5 -20q-33 0 -56 20t-23 47zM324 621q0 28 23.5 48t55.5 20q33 0 56 -20t23 -48q0 -27 -23 -47t-56 -20q-32 0 -55.5 20t-23.5 47z" />
    <glyph glyph-name="yacute" unicode="&#xfd;" horiz-adv-x="585" 
d="M56 -264q61 80 106 149t77 129q-14 30 -36 72.5t-47 91t-51 97.5t-49 92.5t-40.5 76t-25.5 47.5q29 -5 52.5 -7.5t35.5 -2.5q30 0 68 6q37 -94 78 -176.5t86 -168.5q45 78 87 168.5t77 178.5q38 -8 51 -8q6 0 27 3.5t51 10.5q-8 -14 -28 -48t-47 -81.5t-59.5 -104.5
t-66 -117.5t-66.5 -121t-61 -114t-49 -96t-31 -68.5q-15 3 -28.5 5t-23.5 2q-9 0 -32 -3.5t-55 -11.5zM375 704v-1q14 12 31.5 19.5t34.5 7.5q8 0 18 -3t18.5 -9.5t14.5 -15.5t6 -21q0 -24 -18 -38.5t-35 -22.5q-42 -23 -88.5 -46t-88.5 -45h-108z" />
    <glyph glyph-name="thorn" unicode="&#xfe;" horiz-adv-x="614" 
d="M48 458q0 32 -1 70.5t-2.5 78t-3.5 77.5t-5 69q24 -4 43 -6.5t31 -2.5q13 0 32.5 2.5t42.5 6.5q-3 -31 -5.5 -69t-4 -77.5t-2 -78t-0.5 -70.5l1 -32q13 14 30 26.5t39 22t50 15t63 5.5q49 0 96 -14.5t83.5 -45.5t58.5 -78.5t22 -113.5q0 -65 -24 -113t-63 -80t-88 -48
t-99 -16q-54 0 -96 15.5t-73 43.5v-7q0 -32 0.5 -70.5t2 -78t4 -77.5t5.5 -69q-23 3 -42.5 5.5t-32.5 2.5q-12 0 -31 -2.5t-43 -5.5q3 31 5 69t3.5 77.5t2.5 78t1 70.5v420zM475 244q0 51 -13 84.5t-33.5 53t-46.5 27.5t-51 8q-43 0 -73 -14.5t-49 -39t-27.5 -57.5t-8.5 -70
q0 -88 39.5 -132.5t114.5 -44.5q37 0 65 14.5t46.5 39t27.5 58.5t9 73z" />
    <glyph glyph-name="ydieresis" unicode="&#xff;" horiz-adv-x="588" 
d="M60 -264q61 80 106 149t77 129q-14 30 -36 72.5t-47 91t-51 97.5t-49 92.5t-40.5 76t-25.5 47.5q29 -5 52.5 -7.5t35.5 -2.5q30 0 68 6q37 -94 78 -176.5t86 -168.5q45 78 87 168.5t77 178.5q38 -8 51 -8q6 0 27 3.5t51 10.5q-8 -14 -28 -48t-47 -81.5t-59.5 -104.5
t-66 -117.5t-66.5 -121t-61 -114t-49 -96t-31 -68.5q-15 3 -28.5 5t-23.5 2q-9 0 -32 -3.5t-55 -11.5zM103 621q0 28 23 48t56 20q32 0 55.5 -20t23.5 -48q0 -27 -23.5 -47t-55.5 -20q-33 0 -56 20t-23 47zM336 621q0 28 23.5 48t55.5 20q33 0 56 -20t23 -48q0 -27 -23 -47
t-56 -20q-32 0 -55.5 20t-23.5 47z" />
    <glyph glyph-name="dotlessi" unicode="&#x131;" horiz-adv-x="192" 
d="M32 289q0 42 -3 94t-10 106q23 -4 42.5 -6t32.5 -2q12 0 31.5 2t43.5 6q-7 -54 -10 -106t-3 -94v-98q0 -42 3 -94t10 -106q-24 4 -43.5 6.5t-31.5 2.5q-13 0 -32.5 -2.5t-42.5 -6.5q7 54 10 106t3 94v98z" />
    <glyph glyph-name="Lslash" unicode="&#x141;" horiz-adv-x="602" 
d="M137 422q0 61 -3.5 133t-7.5 134q24 -4 44 -6t34 -2t33.5 2t43.5 6q-3 -62 -6.5 -134t-3.5 -133v-7q27 14 56.5 29t56.5 29q8 -17 19.5 -34t25.5 -34q-11 -5 -29.5 -12.5t-39.5 -16.5t-43.5 -19t-42.5 -19q-4 -2 -1 -0.5t-2 -0.5v-74q0 -47 1 -83t2 -66q1 -11 1 -18v-18
q39 0 77 0.5t78.5 2t85.5 4.5t96 8q-17 -43 -17 -50q0 -11 16 -49q-27 1 -58.5 2t-64.5 2t-64.5 1.5t-58.5 0.5q-56 0 -120 -2t-119 -4q4 62 7.5 133t3.5 132v12q-27 -14 -49 -27t-36 -24q-19 36 -51 70q33 14 69.5 29.5t66.5 29.5v73z" />
    <glyph glyph-name="lslash" unicode="&#x142;" horiz-adv-x="334" 
d="M105 296l-72 -36q-8 12 -19.5 26t-31.5 31q12 6 27.5 13t32 15l33 16t30.5 15v82q0 32 -1 70.5t-2.5 78t-4 77.5t-5.5 69q23 -4 42.5 -6.5t32.5 -2.5q12 0 31.5 2.5t43.5 6.5q-3 -31 -5.5 -69t-4 -77.5t-2.5 -78t-1 -70.5v-18q25 13 48.5 26t37.5 21q0 -17 11.5 -34.5
t26.5 -27.5q-40 -23 -52 -30t-11 -6t6.5 5t1.5 2h1q-14 -7 -29 -13.5t-41 -19.5v-76q0 -32 1 -70.5t2.5 -78.5t4 -78t5.5 -69q-24 4 -43.5 6.5t-31.5 2.5q-13 0 -32.5 -2.5t-42.5 -6.5q3 31 5.5 69t4 78t2.5 78.5t1 70.5v9z" />
    <glyph glyph-name="OE" unicode="&#x152;" horiz-adv-x="1242" 
d="M904 244q0 -31 1 -61t3 -62v-19.5t1 -23.5q122 1 194 5t110 9q-16 -41 -16 -50q0 -5 3.5 -16.5t11.5 -31.5q-25 1 -54 2t-59.5 2t-59.5 1.5t-54 0.5q-51 0 -111.5 -2t-112.5 -4q2 21 4 40t3 36q-21 -16 -49 -31.5t-64 -28t-81 -20t-101 -7.5q-89 0 -166.5 24t-135 68.5
t-91 108.5t-33.5 145q0 90 33.5 158.5t93.5 115.5t141.5 71t177.5 24q58 0 103.5 -7.5t79.5 -19.5t58 -26.5t41 -27.5q-1 6 -1 12.5t-1 12.5q-1 5 -1.5 15t-0.5 30q50 -2 107 -4t106 -2q48 0 108 2t108 4q-5 -16 -8.5 -30t-3.5 -19q0 -6 4 -21.5t9 -31.5q-23 4 -45.5 7.5
t-54 6t-77.5 4t-115 1.5v-19t-1 -18q-2 -26 -3 -55t-1 -55v-59q58 0 97 0.5t64.5 1.5t41.5 2t30 2h8t12.5 0.5t12.5 0.5h8l-9.5 -28.5t-4.5 -17.5q0 -3 4.5 -16.5l9.5 -28.5h-8t-13 0.5t-13 0.5h-8l-28 2t-38 2t-63 1.5t-103 0.5v-77zM201 341q0 -74 23 -127.5t63 -88.5
t92.5 -52t111.5 -17q67 0 120 20.5t90.5 58t57.5 90t20 116.5q0 78 -21 132t-58 87.5t-87.5 49t-109.5 15.5q-63 0 -118.5 -17t-96 -51.5t-64 -88.5t-23.5 -127z" />
    <glyph glyph-name="oe" unicode="&#x153;" horiz-adv-x="1103" 
d="M794 495q67 0 116.5 -17t82.5 -46t49 -67.5t16 -81.5q0 -9 -1 -28t-2 -28q-21 0 -51.5 0.5t-52.5 0.5q-42 1 -83.5 1.5t-83.5 0.5q-26 0 -51.5 -0.5t-51.5 -1.5q-13 0 -17 -0.5t-17 -0.5v-8q0 -33 12.5 -61.5t36 -49.5t58 -33t78.5 -12q22 0 46 5.5t47 15.5t44 22.5
t38 27.5l29 -14l-9 -69q-20 -13 -45.5 -24.5t-54 -20.5t-58 -14.5t-58.5 -5.5q-71 0 -129 20.5t-100 55.5q-44 -38 -106 -57t-125 -19q-55 0 -109.5 13.5t-98 43.5t-71 78.5t-27.5 118.5t27.5 118.5t71 79t98 44t109.5 13.5q63 0 124 -18.5t104 -55.5q38 34 92.5 54
t122.5 20zM517 240q0 36 -8 70t-27.5 60t-51.5 41.5t-79 15.5t-78.5 -15.5t-50.5 -41.5t-27 -60t-8 -70t8 -69.5t27 -59.5t50.5 -41.5t78.5 -15.5t79 15.5t51.5 41.5t27.5 59.5t8 69.5zM797 427q-34 0 -59 -11.5t-42.5 -29.5t-28 -40.5t-14.5 -44.5q6 0 12 -0.5t13 -0.5
q27 -1 54 -1.5t53 -0.5q27 0 54 0.5t54 1.5q13 0 16 0.5t14 0.5q-2 21 -8.5 43.5t-21 41t-37.5 30t-59 11.5z" />
    <glyph glyph-name="Scaron" unicode="&#x160;" horiz-adv-x="574" 
d="M434 887h95l-177 -190q48 -4 89 -17.5t81 -39.5q-15 -24 -25.5 -47.5t-18.5 -56.5h-40q-6 13 -16 28.5t-25 29t-36.5 22.5t-50.5 9q-59 0 -97 -27t-38 -71q0 -27 14 -45.5t36.5 -32.5t51.5 -24t60 -20q39 -12 76.5 -26t67.5 -35t48.5 -52t18.5 -77q0 -47 -21 -89.5
t-60.5 -74t-97 -50t-129.5 -18.5q-78 0 -130.5 21t-89.5 45q7 15 12 28t8 25.5t5 26t4 30.5h42q10 -17 26 -34.5t37.5 -31.5t50 -23t63.5 -9q71 0 110.5 34.5t39.5 83.5q0 25 -13 43t-34.5 31.5t-50 24t-58.5 20.5q-39 13 -78 27.5t-69.5 37t-49.5 55.5t-19 82
q0 75 53.5 126.5t149.5 65.5l-180 195h94l136 -95z" />
    <glyph glyph-name="scaron" unicode="&#x161;" horiz-adv-x="447" 
d="M88 124q6 -10 18 -21.5t28 -21t35.5 -16t41.5 -6.5q19 0 36 4t30.5 12.5t21.5 20.5t8 29q0 15 -9 25.5t-24 18t-35 12.5t-41 10q-30 7 -60.5 16t-55 24.5t-39.5 39.5t-15 62q0 35 14.5 65t42 51.5t67.5 33.5t91 12q34 0 61 -7t49 -13q1 -1 2 -1.5t5.5 -1.5t15 -3l31.5 -6
q-8 -11 -15 -25.5t-13 -28.5t-10.5 -26.5t-5.5 -19.5h-44q-10 23 -34 41t-57 18q-14 0 -28.5 -3.5t-26.5 -11t-19.5 -19t-7.5 -27.5t9.5 -27t25 -18.5t35.5 -13t42 -10.5h-1q30 -7 60 -15.5t54 -23t39 -38.5t15 -61q0 -30 -16 -60t-46 -54t-73 -39t-96 -15q-57 0 -102 13.5
t-78 27.5q4 8 9.5 20t10 25.5t7.5 27t3 24.5h44zM359 725h94l-182 -196h-95l-182 196h93l136 -96z" />
    <glyph glyph-name="Ydieresis" unicode="&#x178;" horiz-adv-x="725" 
d="M283 -9q9 69 11 140.5t2 144.5q-13 19 -38.5 52.5t-56 75t-64 86.5t-64 85t-55 71t-36.5 46q40 -5 68.5 -8t42.5 -3q13 0 32 2t42 5q51 -81 102.5 -157t112.5 -160q27 34 55 73.5t56 81t54 82.5t49 80q17 -3 31 -5t25 -2t36.5 4t58.5 10q-65 -79 -116 -142.5t-89.5 -113
t-66 -87t-45.5 -64.5q0 -36 1 -77t2.5 -81t3.5 -76.5t5 -62.5q-27 4 -47.5 6.5t-31.5 2.5q-12 0 -32.5 -2.5t-47.5 -6.5zM179 784q0 28 23.5 47.5t55.5 19.5q33 0 56.5 -19.5t23.5 -47.5t-23.5 -47.5t-56.5 -19.5q-32 0 -55.5 19.5t-23.5 47.5zM411 784q0 28 23.5 47.5
t56.5 19.5q32 0 55.5 -19.5t23.5 -47.5t-23.5 -47.5t-55.5 -19.5q-33 0 -56.5 19.5t-23.5 47.5z" />
    <glyph glyph-name="Zcaron" unicode="&#x17d;" horiz-adv-x="739" 
d="M20 39q47 51 97.5 107.5t100.5 113t96.5 110.5t85.5 99.5t68.5 80.5t44.5 54h-44q-44 0 -98.5 -1.5t-110.5 -3.5t-108 -5.5t-90 -6.5q5 17 9 32t4 19q0 5 -3.5 19t-8.5 30q15 -1 37.5 -2t50.5 -1.5t59 -1t63 -0.5q62 -1 139 -1h169q25 0 50 1t49 3h-1q7 1 19.5 1h28.5
v-45q-22 -19 -60 -59t-85 -92t-98.5 -110.5t-99.5 -114.5t-89 -105t-67 -81q17 -1 31 -1h30q45 0 107 1.5t125 4t120.5 6t94.5 7.5q-7 -19 -11.5 -33.5t-4.5 -19.5t4.5 -18.5t11.5 -31.5q-86 2 -162 4t-144 2q-46 0 -107.5 -0.5t-121 -1.5t-109.5 -2t-72 -2v45zM509 887h94
l-181 -196h-96l-182 196h93l136 -95z" />
    <glyph glyph-name="zcaron" unicode="&#x17e;" horiz-adv-x="578" 
d="M19 35q42 41 87 87t89.5 92.5t85.5 91t74 80.5v-1q7 7 8.5 9.5t2.5 3t2 2t6 7.5q-30 -1 -71 -3t-84 -4t-81.5 -4.5t-63.5 -3.5q4 20 6 31t2 16q0 4 -2 16t-5 32q18 -2 50 -3t73 -1.5t91 -1t104 -0.5q99 0 174 6v-42q-47 -50 -99.5 -105t-101.5 -106t-89 -93.5t-62 -67.5
q42 0 81.5 1t82 2.5t89 4.5t101.5 7q-5 -17 -8.5 -29.5t-3.5 -17.5t3.5 -17t8.5 -29h-22t-27.5 0.5t-28 1t-22.5 0.5q-54 2 -111.5 2.5t-110.5 0.5q-77 0 -155 -3q-7 0 -17 -0.5t-20.5 -1t-20 -1t-15.5 -0.5v41zM429 725h94l-182 -196h-95l-182 196h93l136 -96z" />
    <glyph glyph-name="florin" unicode="&#x192;" horiz-adv-x="570" 
d="M49 -69q2 -1 4 -3q4 -4 6 -5q8 -3 18 -6.5t21 -3.5q36 0 50 26.5t24 71.5q17 79 35 163.5t35 165.5q-35 0 -72 -1t-59 -3q7 17 13.5 39.5t6.5 43.5q10 -1 25 -2t32.5 -2t36 -2t35.5 -1q3 9 5.5 18t5.5 17q11 37 31.5 77t50.5 73.5t69.5 55t89.5 21.5q8 0 27 -3.5t36 -8.5
q-7 -20 -13 -49.5t-6 -56.5l-39 -8q-11 11 -25 20t-30 9q-18 0 -32 -11t-21 -41q-8 -33 -11.5 -56.5t-11.5 -56.5q18 1 34 1.5t31 1.5q7 0 17.5 0.5l21 1t20 0.5h13.5q-8 -17 -15.5 -39t-7.5 -41q-25 2 -61 2.5t-71 0.5q-11 -48 -20.5 -96t-20.5 -96q-25 -111 -62.5 -177.5
t-81.5 -101.5t-93 -45.5t-97 -10.5q24 64 24 107z" />
    <glyph glyph-name="circumflex" unicode="&#x2c6;" horiz-adv-x="431" 
d="M216 624q-33 -23 -68.5 -47.5t-67.5 -47.5h-94l182 196h95l182 -196h-93z" />
    <glyph glyph-name="caron" unicode="&#x2c7;" horiz-adv-x="428" 
d="M349 725h94l-182 -196h-95l-182 196h93l136 -96z" />
    <glyph glyph-name="breve" unicode="&#x2d8;" horiz-adv-x="417" 
d="M94 716q11 -44 37 -67.5t77 -23.5q52 0 76 23.5t38 67.5h71q0 -38 -11.5 -72t-34.5 -59.5t-57.5 -40.5t-80.5 -15t-80.5 15t-58 40.5t-35 59.5t-11.5 72h70z" />
    <glyph glyph-name="dotaccent" unicode="&#x2d9;" horiz-adv-x="213" 
d="M26 619q0 28 23 47.5t56 19.5t56 -19.5t23 -47.5t-23 -48t-56 -20t-56 20t-23 48z" />
    <glyph glyph-name="ring" unicode="&#x2da;" horiz-adv-x="336" 
d="M27 629q0 24 11 44.5t30 36.5t45 25t55 9t54.5 -9t44.5 -25t30 -36.5t11 -44.5t-11 -44.5t-30 -36.5t-45 -25t-55 -9t-54.5 9t-44.5 25t-30 36.5t-11 44.5zM115 629q0 -16 15.5 -27t36.5 -11q22 0 37.5 11t15.5 27t-15.5 27t-36.5 11q-22 0 -37.5 -11t-15.5 -27z" />
    <glyph glyph-name="ogonek" unicode="&#x2db;" horiz-adv-x="263" 
d="M264 38q-46 -34 -74.5 -57t-44 -39t-21 -26t-5.5 -18q0 -21 19.5 -29t41.5 -8q11 0 24 2.5t26 5.5l24 -64q-23 -8 -45 -12.5t-48 -4.5q-30 0 -57.5 6.5t-49 19t-34.5 31t-13 42.5q0 33 37 70t110 81h110z" />
    <glyph glyph-name="tilde" unicode="&#x2dc;" horiz-adv-x="475" 
d="M18 552q5 23 16.5 47.5t29.5 44t43 32t58 12.5q12 0 21.5 -1t19.5 -3.5t22.5 -7t29.5 -11.5q31 -12 45 -16.5t27 -4.5q20 0 33 14.5t21 32.5h70q-3 -15 -12 -39t-27 -46t-45.5 -38t-67.5 -16q-19 0 -41 5.5t-51 18.5q-29 12 -43 16t-27 4q-20 0 -30 -9t-21 -35h-71z" />
    <glyph glyph-name="hungarumlaut" unicode="&#x2dd;" horiz-adv-x="574" 
d="M194 704v-1q14 12 31 19.5t34 7.5q9 0 19 -3t18.5 -9.5t14.5 -15.5t6 -21q0 -24 -18 -38.5t-35 -22.5q-43 -23 -89 -46t-89 -45h-108zM431 704v-1q14 12 31 19.5t34 7.5q9 0 19 -3t18.5 -9.5t14.5 -15.5t6 -21q0 -24 -18 -38.5t-35 -22.5q-43 -23 -89 -46t-89 -45h-108z
" />
    <glyph glyph-name="endash" unicode="&#x2013;" horiz-adv-x="712" 
d="M41 278h629v-82h-629v82z" />
    <glyph glyph-name="emdash" unicode="&#x2014;" horiz-adv-x="1336" 
d="M58 278h1220v-82h-1220v82z" />
    <glyph glyph-name="quoteleft" unicode="&#x2018;" 
d="M125 436q-6 -17 -22 -32.5t-48 -15.5q-10 0 -21 3t-20 9t-15 15.5t-6 23.5q0 15 5.5 26t13.5 21l2 4q38 50 78 105.5t77 105.5l55 -16z" />
    <glyph glyph-name="quoteright" unicode="&#x2019;" 
d="M90 650q6 17 22 32.5t48 15.5q10 0 21 -3t20.5 -9t15.5 -16t6 -23q0 -15 -5.5 -26t-13.5 -21q-1 -1 -1 -2t-1 -2q-38 -50 -78 -105.5t-78 -105.5l-54 16z" />
    <glyph glyph-name="quotesinglbase" unicode="&#x201a;" 
d="M90 96q6 17 22 33t48 16q10 0 21 -3t20.5 -9t15.5 -16t6 -23q0 -15 -5.5 -26t-13.5 -22q-1 -1 -1 -1.5t-1 -1.5q-38 -51 -78 -106t-78 -105l-54 16z" />
    <glyph glyph-name="quotedblleft" unicode="&#x201c;" horiz-adv-x="459" 
d="M349 436q-5 -17 -21.5 -32.5t-48.5 -15.5q-10 0 -21 3t-20 9t-15 15.5t-6 23.5q0 13 5 24t11 20q1 2 1.5 2.5t1.5 2.5l158 213l54 -16zM146 436q-6 -17 -22 -32.5t-48 -15.5q-21 0 -42 12t-21 39q0 13 5.5 24t10.5 20q1 2 1.5 2.5t1.5 2.5l158 213l54 -16z" />
    <glyph glyph-name="quotedblright" unicode="&#x201d;" horiz-adv-x="459" 
d="M313 650q6 17 22 32.5t48 15.5q21 0 42 -12t21 -39q0 -15 -6 -26t-13 -21q-1 -1 -1.5 -2t-1.5 -2q-37 -50 -77.5 -105.5t-77.5 -105.5l-54 16zM110 650q5 17 21.5 32.5t48.5 15.5q10 0 21 -3t20 -9t15 -16t6 -23q0 -15 -5.5 -26t-13.5 -21q-1 -1 -1.5 -2t-1.5 -2
q-37 -50 -77.5 -105.5t-77.5 -105.5l-54 16z" />
    <glyph glyph-name="quotedblbase" unicode="&#x201e;" horiz-adv-x="459" 
d="M313 96q6 17 22 33t48 16q21 0 42 -12t21 -39q0 -15 -6 -26t-13 -22l-3 -3q-37 -51 -77.5 -106t-77.5 -105l-54 16zM110 96q5 17 21.5 33t48.5 16q10 0 21 -3t20 -9t15 -16t6 -23q0 -15 -5.5 -26t-13.5 -22l-3 -3q-37 -51 -77.5 -106t-77.5 -105l-54 16z" />
    <glyph glyph-name="dagger" unicode="&#x2020;" horiz-adv-x="530" 
d="M-8 473q64 -7 114.5 -8.5t98.5 -1.5q0 27 -0.5 57.5t-2 61t-4.5 59t-8 50.5q26 -5 45 -7.5t30 -2.5t30 2.5t44 7.5q-5 -23 -8 -51t-4.5 -58.5t-2 -61t-0.5 -57.5q45 0 98.5 1.5t115.5 8.5q-14 -44 -14 -57q0 -11 14 -56q-62 8 -115.5 9.5t-98.5 1.5q0 -56 1.5 -110
t3.5 -110q1 -17 1.5 -38t1.5 -42.5t1.5 -42.5t0.5 -37q-22 4 -40 6.5t-29 2.5t-29 -2.5t-41 -6.5q0 12 0.5 27.5t1.5 31.5t1.5 31t0.5 27q1 35 2 67.5t2 64t1.5 64t0.5 67.5q-45 0 -98.5 -1.5t-114.5 -9.5q14 45 14 56q0 13 -14 57z" />
    <glyph glyph-name="daggerdbl" unicode="&#x2021;" horiz-adv-x="536" 
d="M212 341q0 12 -0.5 23.5t-0.5 23.5q-1 11 -1 14v15q-46 0 -100 -1.5t-115 -8.5q14 44 14 56t-14 56q60 -7 114 -8.5t99 -1.5q0 13 -0.5 27.5t-1.5 35t-3.5 49t-6.5 69.5q23 -4 41.5 -6.5t30.5 -2.5q9 0 27.5 2.5t43.5 7.5q-8 -74 -10 -116t-2 -66q45 0 98.5 1.5
t115.5 8.5q-14 -44 -14 -56q0 -13 14 -57q-37 4 -66.5 6.5t-54.5 3.5t-47.5 1h-46.5q0 -7 -0.5 -15t-0.5 -15q-1 -12 -1 -23v-23v-25t1 -24q0 -12 0.5 -14t0.5 -14q46 0 99.5 1.5t115.5 8.5q-14 -44 -14 -56t14 -56q-62 7 -115.5 8.5t-98.5 1.5q0 -13 0.5 -28t1.5 -35.5
t3.5 -49t6.5 -68.5q-25 4 -43.5 6.5t-27.5 2.5q-12 0 -30.5 -2.5t-41.5 -6.5q7 74 9.5 115.5t2.5 65.5q-45 0 -98.5 -1.5t-114.5 -8.5q14 44 14 56q0 13 -14 57q36 -4 65.5 -6.5t55 -3.5t48 -1h46.5q0 5 0.5 14.5t0.5 14.5q0 10 0.5 24t0.5 24z" />
    <glyph glyph-name="bullet" unicode="&#x2022;" horiz-adv-x="485" 
d="M23 341q0 37 17 69.5t47 57t70 38.5t86 14q45 0 85 -14t70 -38.5t47 -57t17 -69.5q0 -38 -17 -70.5t-47 -57t-70 -38.5t-85 -14q-46 0 -86 14t-70 38.5t-47 57t-17 70.5z" />
    <glyph glyph-name="ellipsis" unicode="&#x2026;" horiz-adv-x="1057" 
d="M48 61q0 15 7 28.5t19 23t27.5 15.5t33.5 6t33.5 -6t27.5 -15.5t19 -23t7 -28.5t-7 -28t-19 -22.5t-27.5 -15.5t-33.5 -6t-33.5 6t-27.5 15.5t-19 22.5t-7 28zM836 61q0 30 25.5 51.5t60.5 21.5q36 0 61.5 -21.5t25.5 -51.5q0 -29 -25.5 -50.5t-61.5 -21.5
q-35 0 -60.5 21.5t-25.5 50.5zM443 61q0 30 25.5 51.5t60.5 21.5t60.5 -21.5t25.5 -51.5q0 -29 -25.5 -50.5t-60.5 -21.5t-60.5 21.5t-25.5 50.5z" />
    <glyph glyph-name="perthousand" unicode="&#x2030;" horiz-adv-x="1214" 
d="M434 155q0 49 17 82t44 52.5t60 27.5t64 8q30 0 62.5 -8t59.5 -27.5t44.5 -52.5t17.5 -82t-17.5 -81.5t-44.5 -52t-59.5 -28t-62.5 -8.5q-31 0 -64 8.5t-60 28t-44 52t-17 81.5zM817 155q0 49 17.5 82t44.5 52.5t59.5 27.5t63.5 8q30 0 62.5 -8t59.5 -27.5t44.5 -52.5
t17.5 -82t-17.5 -81.5t-44.5 -52t-59.5 -28t-62.5 -8.5q-31 0 -63.5 8.5t-59.5 28t-44.5 52t-17.5 81.5zM44 503q0 49 17.5 82t44.5 52.5t59.5 28t62.5 8.5q31 0 63.5 -8.5t59.5 -28t44.5 -52.5t17.5 -82t-17.5 -81.5t-44.5 -52t-59.5 -28t-63.5 -8.5q-30 0 -62.5 8.5
t-59.5 28t-44.5 52t-17.5 81.5zM617 698q21 -7 37 -7q5 0 24.5 5t47.5 13l-495 -749q-24 8 -36 8q-6 0 -25.5 -5.5t-47.5 -13.5zM936 155q0 -48 14 -79t52 -31t52 31t14 79t-14 79t-52 31t-52 -31t-14 -79zM553 155q0 -48 14 -79t52 -31t52 31t14 79t-14 79t-52 31t-52 -31
t-14 -79zM162 503q0 -48 14 -78.5t52 -30.5t52 30.5t14 78.5t-14 79t-52 31t-52 -31t-14 -79z" />
    <glyph glyph-name="guilsinglleft" unicode="&#x2039;" horiz-adv-x="237" 
d="M160 446q11 -14 32 -26t50 -15l-145 -166q16 -20 34 -42t36 -45t35 -45t32 -40q-24 -2 -46.5 -15t-30.5 -29l-171 215z" />
    <glyph glyph-name="guilsinglright" unicode="&#x203a;" horiz-adv-x="235" 
d="M1 410q24 2 46.5 15t30.5 29l171 -216l-174 -207q-11 14 -32 26t-50 15l145 165z" />
    <glyph glyph-name="fraction" unicode="&#x2044;" horiz-adv-x="409" 
d="M331 689q13 -4 22.5 -6.5t15.5 -2.5q5 0 21.5 4.5t40.5 11.5l-353 -726q-13 3 -22.5 5.5t-15.5 2.5q-5 0 -21.5 -4t-40.5 -12z" />
    <glyph glyph-name="Euro" unicode="&#x20ac;" horiz-adv-x="709" 
d="M674 599q-10 -20 -17 -41t-14 -44l-41 -1q-28 39 -72 60.5t-84 21.5q-65 0 -116 -43t-72 -131h173q30 0 67 1.5t96 10.5q-8 -12 -14.5 -26.5t-12 -28.5t-9 -26.5t-4.5 -19.5q-38 5 -71.5 7t-59.5 2h-177v-21h149q32 0 69 1.5t92 9.5q-17 -32 -26.5 -59t-13.5 -40
q-34 5 -66.5 6t-61.5 1h-134q16 -85 68.5 -128.5t122.5 -43.5q44 0 91.5 20.5t94.5 61.5l28 -35q-9 -30 -15 -70q-17 -12 -42.5 -22.5t-55 -18t-60.5 -11.5t-59 -4q-62 0 -115 16.5t-95 49t-70.5 79t-40.5 106.5q-26 -2 -51.5 -4t-54.5 -7q15 31 23.5 56t13.5 45
q13 -3 29 -4.5t33 -2.5q0 8 -0.5 8t0.5 10q-23 -2 -48.5 -4t-50.5 -7q15 31 23.5 56t13.5 45q14 -3 36 -5t40 -3q15 54 46.5 100.5t75.5 80t98.5 52.5t116.5 19q27 0 55.5 -4t57 -10.5t55 -16t47.5 -19.5z" />
    <glyph glyph-name="trademark" unicode="&#x2122;" horiz-adv-x="1071" 
d="M772 464q38 54 78.5 113.5t76.5 113.5h37l16 -137q4 -32 10.5 -73t13.5 -82.5t13.5 -79.5t11.5 -65q-19 5 -34 8t-24 3q-10 0 -22.5 -2.5t-29.5 -6.5q-2 45 -5.5 98t-13.5 110l-10 56q-6 -8 -12 -17t-12 -17q-19 -26 -39 -56t-38.5 -60t-34 -57t-25.5 -46h-31
q-18 32 -42 68l-48 72q-11 15 -20.5 30.5t-20.5 30.5q-7 11 -9.5 15t-5 7t-5.5 7.5t-10 15.5l-4 -28l-4 -28q-8 -45 -11.5 -94t-5.5 -109q-17 5 -29.5 8t-17.5 3t-20 -4t-35 -9q20 74 34 145.5t26 141.5q6 35 13 76.5t13 75.5h38q30 -53 68 -111.5t76 -112.5q7 -10 13 -17.5
t11.5 -15t11 -15.5t13.5 -18zM188 618q-20 0 -42.5 -1t-45.5 -2t-44.5 -2t-38.5 -2q11 17 18 27t7 12q0 1 -7 11t-18 27q23 -1 51.5 -2.5t58.5 -2.5t58.5 -1.5t51.5 -0.5t52 0.5t58.5 1.5t58.5 2.5t52 2.5q-24 -36 -24 -38q0 -4 24 -40q-38 2 -85.5 5t-85.5 3v-115
q0 -56 2.5 -123.5t4.5 -124.5q-18 5 -32.5 7.5t-24.5 2.5q-8 0 -23.5 -2.5t-32.5 -7.5q2 38 4.5 101t2.5 140v122z" />
    <glyph glyph-name="minus" unicode="&#x2212;" horiz-adv-x="719" 
d="M41 302h636v-87h-636v87z" />
    <glyph glyph-name="fi" unicode="&#xfb01;" horiz-adv-x="618" 
d="M355 630q-36 17 -65 17q-42 0 -60 -23t-18 -53q0 -14 3.5 -39.5t7.5 -51.5h45q15 0 39.5 0.5t40.5 0.5q0 -2 -0.5 -13.5t-0.5 -13.5q-2 -8 -2 -11q0 -1 2 -11q0 -2 0.5 -13.5t0.5 -13.5q-10 0 -30 0.5t-30 0.5q-21 1 -31 1.5t-31 0.5v-102t1 -107t2 -106.5t3 -101.5
q-22 4 -40.5 6.5t-30.5 2.5q-11 0 -30 -2.5t-43 -6.5q8 106 10.5 209.5t2.5 207.5q-9 0 -18.5 -0.5t-19.5 -1.5q-7 0 -25 -0.5t-26 -0.5q2 13 4 24t2 14t-1.5 14t-3.5 24h14.5t18.5 -0.5t18.5 -0.5h14.5h23q3 28 11.5 60t22.5 62.5t32.5 57.5t41.5 45t59 32.5t74 14.5
q11 0 43 -8q0 -18 -0.5 -29.5t-1.5 -19.5q-1 -11 -2 -27t-1 -27zM445 289q0 41 -3 92t-11 108q25 -4 44.5 -6t32.5 -2q12 0 32 2t44 6q-8 -57 -11 -108t-3 -92v-98q0 -41 3 -92t11 -108q-24 4 -44 6.5t-32 2.5q-13 0 -32.5 -2.5t-44.5 -6.5q8 57 11 108t3 92v98zM429 631
q0 28 23.5 47.5t55.5 19.5q33 0 56 -19.5t23 -47.5t-23 -47.5t-56 -19.5q-32 0 -55.5 19.5t-23.5 47.5z" />
    <glyph glyph-name="fl" unicode="&#xfb02;" horiz-adv-x="625" 
d="M355 630q-36 17 -64 17q-43 0 -61 -23t-18 -53q0 -14 3.5 -39.5t7.5 -51.5h45q15 0 39.5 0.5t40.5 0.5q0 -2 -0.5 -13.5t-0.5 -13.5q-2 -8 -2 -11q0 -1 2 -11q0 -2 0.5 -13.5t0.5 -13.5q-10 0 -30 0.5t-30 0.5q-21 1 -31 1.5t-31 0.5v-102t1 -107t2 -106.5t3 -101.5
q-22 4 -40.5 6.5t-30.5 2.5q-11 0 -30 -2.5t-43 -6.5q9 106 11 209.5t2 207.5q-9 0 -18.5 -0.5t-18.5 -1.5q-8 0 -26 -0.5t-26 -0.5q2 13 4 24t2 14t-1.5 14t-3.5 24h15t18.5 -0.5t18.5 -0.5h14h23q3 28 11.5 60t22.5 62.5t32.5 57.5t41.5 45t59.5 32.5t74.5 14.5
q10 0 42 -8q0 -18 -0.5 -29.5t-1.5 -19.5q-1 -11 -2 -27t-1 -27zM452 458q0 32 -0.5 70.5t-2 78t-4 77.5t-5.5 69q24 -4 43.5 -6.5t31.5 -2.5q13 0 32.5 2.5t42.5 6.5q-3 -31 -5.5 -69t-4 -77.5t-2.5 -78t-1 -70.5v-171q0 -32 1 -70.5t2.5 -78.5t4 -78t5.5 -69
q-23 4 -42.5 6.5t-32.5 2.5q-12 0 -31.5 -2.5t-43.5 -6.5q3 31 5.5 69t4 78t2 78.5t0.5 70.5v171z" />
    <glyph glyph-name="glyph229" horiz-adv-x="720" 
d="M343 162q0 -2 -1.5 -6t-1.5 -5v-7h-4v10q4 4 7 8zM288 144q4 7 4 18h15q-7 0 -7 -8q0 -25 3 -32h4q2 5 7 14h4v-14h-11q-1 0 -2.5 1t-2.5 3t-2 3h-8q0 1 -2 6t-2 9zM374 110v15q3 0 5 1.5t3 2.5v-13q2 -1 4 -2.5t6 -3.5l1 -16q-6 7 -19 16zM89 627q24 7 64 7q25 0 37 -7
q10 -7 34 -7q19 9 22 18q29 0 33 24l9 4q2 3 7 5q5 0 5 2q5 2 7.5 6.5t10.5 4.5q1 3 7 6q7 2 7 5q32 0 32 18q8 0 13 6q4 7 12 7q1 2 9.5 5t8.5 6q7 0 10 3q12 8 16 8l9 4q7 2 7 7q11 0 22 4q11 3 19 3q0 4 7 8q7 2 8 3l89 19l42 -4l15 -8q7 -3 11 -7q10 -7 31 -18l7 -42
q-42 0 -42 5q-5 0 -14 4t-11 4q0 4 -1.5 5.5t-6.5 4.5h-68q-3 -3 -7 -10q-7 0 -21 -4t-21 -4q-13 -9 -18.5 -9t-14.5 -3q-4 0 -8 -6l-6 -6q-10 -3 -8 -3h-4q-1 -3 -8.5 -5l-7.5 -2q-3 0 -5.5 -2t-6.5 -5t-6 -5q-11 0 -15 -10q-5 0 -6 -2.5t-1 -9.5q-6 0 -13.5 -3.5t-8 -3.5
t-6.5 -4.5t-14 -4.5q-2 -1 -7 -2t-8 -6q-2 -1 -4 -4q-2 -5 -3 -6q-11 0 -11 -8q-4 0 -7 -1.5t-6 -4.5l-5 -5q-15 0 -15 -11q-5 0 -13 -7v-11q-4 -3 -6.5 -4t-4.5 -5v-15q6 -7 11 -7v-48q-6 0 -11 -9v-11q-2 -2 -4 -3q-3 -2 -7 -4v-22q-6 -3 -7 -4.5t-1 -10.5q0 -11 -3 -11
l-7 -7q-9 -4 -10.5 -6t-1.5 -10q-9 -4 -15 -8t-8 -11q-11 -11 -44 -11q-17 11 -35 11q-2 3 -7 11h-15q-3 0 -9 4q-7 4 -13 4q0 11 -11 16q0 7 -4 11q-10 0 -21 -1l-11 -1q-4 0 -11 7q-3 2 -6 2v55q2 3 5 5l6 4l4 83q1 0 2.5 1t2.5 3t2 3v15q5 2 6 6t5 4q0 1 10 4.5t10 7.5
q21 7 26 7zM385 132q-4 5 -7 7q-4 1 -15 1v18q6 -6 18 -14q0 -8 4 -12zM400 132q3 -3 3 -7q-3 3 -10 7h7zM403 125h7q5 2 12 10q6 9 10 9q-1 -4 -3.5 -6t-6.5 -6v-14l6 -4t4 -4q-4 0 -10 -7v-13l7 -7h17q1 -6 4 -10q2 -6 18 -12q3 11 3 22q-9 11 -22 11v31q3 0 11 7l-6 6
q-3 2 -5 6q2 -1 12 -5q6 -2 17 -5q6 -2 19 -2v-22q3 -2 6.5 -3.5t4.5 -3.5q0 -16 4 -20h9q3 3 3 14v6q9 0 13 1.5t9 5.5q-7 8 -11 8v14q3 0 11 8v26q-3 2 -6 3.5t-5 5.5q0 8 -1.5 10t-9.5 5q7 0 12.5 5t6.5 5v-10q0 -8 7 -8q3 -10 4 -11.5t7 -4.5q0 -15 8 -22h3q2 2 4 8t3 6
q20 7 20 24q5 0 18 8v-58h-7q-3 -3 -3 -14q-4 -1 -14 -8q10 -7 32 -7q0 -5 -2 -6.5t-5 -6.5v-36q-4 2 -5.5 3.5t-2 3.5t-3.5 7h-20q0 -2 -2 -6q-2 -6 -2 -8q-4 0 -11 -8q7 0 11 -3v-7q-2 -2 -5 -3.5t-6 -4.5v-16q-19 0 -22 -8v-7l1 -1q0 1 -4 1q0 3 -2 8t-2 7q-18 0 -23 -8
v-7q11 -11 22 -11v-7h-7q-12 -5 -21 -7q-4 -1 -10 -1v15q7 0 7 7q0 35 -3 43h-3q-8 -8 -8 -39q-7 0 -11 -4v-14h-26l-4 -8v-38q-10 0 -24 -4q9 -7 14 -7v-18q-6 2 -6 6q0 3 -7 5h-4q-5 -2 -6 -5q-2 -4 -5 -6v18q3 0 11 7q0 57 -7 64h-4q-1 -1 -3 -2l-1 -1l4 3q-4 4 -11 4
q0 31 -7 39h-4q-6 -3 -5 -21q1 -34 1 -31v-55q0 -1 4 -3t4 -4v-7q0 -1 -3.5 -4.5t-3.5 -6.5h-29v25q0 2 -1 3l-4 2q-2 1 -5 3q-2 7 -7 16h-4q-7 -7 -7 -24q3 -2 7 -3l4 -4v-7q-5 -4 -15 -11q3 0 11 11v7q0 7 -18 7q-15 0 -18 -7v-11q0 4 -7 4q0 10 -5 15q-5 4 -16 7v16l-7 4
h-15v14q-6 8 -11 8q-4 12 -22 18v31q11 3 11 15q2 0 5.5 1.5t5.5 1.5q0 19 -4 22h-7q-3 -3 -3 -14q-5 0 -19 -8v44q4 0 7 2t4 2v38h18v-14q-5 0 -7 -4q-2 -2 -3 -4q29 0 36 8v7l-4 4l4 -4h17q0 -31 3 -35h-9l-7 -7v-15q-6 -2 -7 -3.5t-4 -10.5q-4 0 -11 -8h35v-10
q-9 -4 -13 -8q0 -11 7 -24q10 4 21 17v22h7q1 -12 3 -31h8q4 3 4 16q18 0 21 8v7l-7 7l7 4v14q3 -2 8 -3.5t7 -3.5q0 -8 1 -9.5t5 -8.5q27 0 32 11v9h-1q1 -2 5 -2q6 8 6.5 11t0.5 11q3 0 11 7v20q-7 8 -11 8q0 2 -2 4t-2 3zM617 129q2 -1 3 -2l1 -2h8q0 -3 -4 -7h-3
q-5 4 -5 11zM629 125q0 4 3 7q0 -2 -1 -3q-2 -3 -2 -4zM632 132v50q4 0 11 8v10h15l4 8v22h7v-90q-1 -2 -5 -3q-3 -2 -6 -5v-14l-14 -8q0 19 -8 22h-4zM456 -67q2 -1 3 -2l1 -2v3q-1 1 -4 1zM460 -71q4 -1 9 -8l6 -6q0 7 -7 14h-8zM468 -67q3 9 3 31h15q2 -2 3 -4q0 -4 4 -6
q2 -1 4 -1q-2 -2 -5 -3.5t-6 -3.5v-9q0 -5 -3 -5q-3 1 -6 1h-9zM414 -10q-1 -5 -1 -15v-12q0 -20 -2 -26h-4v49q3 0 7 4zM307 -89l3 -4q0 3 -1 4h-2zM310 -93q4 0 8 -3q-8 0 -8 3zM264 129q-3 0 -7 3v12l-7 7h-15v15q11 0 11 9v7q-1 3 -5.5 5t-5.5 3v10q-6 8 -11 8
q3 0 7 2.5t4 4.5v7q0 3 -4 4q-5 2 -7 4v34h8v-16l3 -7h15v-33q-8 0 -8 -8v-7q0 -3 8 -3v-24q2 -1 6 -4t5 -4v-26zM296 90q4 4 4 20h13q-2 -1 -3.5 -3t-2.5 -4v-31q-1 1 -3 2.5t-4 1.5q0 7 -4 14zM307 72l4.5 -2t6.5 -2h-8q-1 1 -1 2zM318 68q1 7 7 15v-15h-7zM531 237
q2 -2 3 -4l4 -2q2 -1 4 -1l1 -15h-18q0 8 -1.5 10t-11.5 5q0 34 -4 42h-3q-4 -2 -5 -8q-2 -6 -3 -7h-4v15h15q1 6 4 14h9v-14q8 -8 11 -8zM511 305q0 7 -6 7q-8 -7 -12 -7v14h15q0 -3 1.5 -8t1.5 -6zM300 290h-12q0 -2 -1.5 -6t-1.5 -5q-27 -7 -28 -7v25h15l7 8v14
q27 0 31 20q18 5 22 22h15q0 -29 7 -34h4q6 5 6 20q7 4 10 7v15q9 -8 11 -8h8q-1 0 7 8q0 -18 7 -22h4l3.5 7l3.5 7h15q1 -5 4 -11q1 -1 9 -3q-14 0 -14 -8v-7q4 -5 36 -5v-15h-39q-2 2 -3 8q-3 6 -4 7h-4q-2 -5 -7 -15h-4q-2 3 -7 15h-15q0 -6 -3 -15h-8q0 4 -3 15h-28
q-2 -6 -7 -15q-10 0 -20 -8z" />
    </font>
</defs>
</svg>
