<?xml version="1.0" standalone="no"?>
<!DOCTYPE svg PUBLIC "-//W3C//DTD SVG 1.1//EN" "http://www.w3.org/Graphics/SVG/1.1/DTD/svg11.dtd" >
<svg xmlns="http://www.w3.org/2000/svg" xmlns:xlink="http://www.w3.org/1999/xlink" version="1.1">
<metadata>
Created by FontForge 20170731 at Mon Apr 12 07:36:01 2004
 By Aleksey,,,
Copyright (c) LDO Fonts, 2004. All rights reserved.
</metadata>
<defs>
<font id="OregonLDOBlack-Oblique" horiz-adv-x="176" >
  <font-face 
    font-family="Oregon LDO Black"
    font-weight="900"
    font-style="oblique"
    font-stretch="normal"
    units-per-em="1000"
    panose-1="2 11 10 3 6 4 2 2 2 4"
    ascent="800"
    descent="-200"
    x-height="495"
    cap-height="692"
    bbox="-111 -281 1086 902"
    underline-thickness="50"
    underline-position="-150"
    slope="-12"
    unicode-range="U+0020-FB02"
  />
<missing-glyph horiz-adv-x="278" 
 />
    <glyph glyph-name=".notdef" horiz-adv-x="278" 
 />
    <glyph glyph-name=".null" horiz-adv-x="0" 
 />
    <glyph glyph-name="nonmarkingreturn" horiz-adv-x="278" 
 />
    <glyph glyph-name="space" unicode=" " horiz-adv-x="278" 
 />
    <glyph glyph-name="space" unicode="&#xa0;" horiz-adv-x="278" 
 />
    <glyph glyph-name="exclam" unicode="!" horiz-adv-x="174" 
d="M11 157q3 22 7.5 62t10.5 87.5t12.5 98.5t12.5 95.5t10.5 78t7.5 46.5q9 41 35 57t54 16t47 -16.5t10 -56.5q-2 -7 -8.5 -32t-17.5 -62.5t-24.5 -84t-28.5 -96t-30 -99.5t-28 -94h-70zM-52 69q3 16 12.5 30.5t22.5 25.5t29 17.5t32 6.5t29 -6.5t22 -17.5t12 -25.5
t0 -30.5t-12.5 -30.5t-23 -25.5t-29.5 -17.5t-32 -6.5t-29 6.5t-21.5 17.5t-11.5 25.5t0 30.5z" />
    <glyph glyph-name="quotedbl" unicode="&#x22;" horiz-adv-x="289" 
d="M57 698h103l-69 -320h-102zM194 698h104l-69 -320h-104z" />
    <glyph glyph-name="numbersign" unicode="#" horiz-adv-x="442" 
d="M134 398h-79q10 14 19.5 31.5t18 35.5t14.5 35t9 29h73q24 56 33.5 81t12 35t2 12.5t3.5 13.5q42 -12 45 -12t73 19q-10 -16 -19.5 -30.5t-19 -31.5t-20 -38t-22.5 -49h50q24 56 33.5 81t12 35t2 12.5t3.5 13.5q42 -12 45 -12t73 19q-10 -16 -19.5 -30.5t-19 -31.5
t-19.5 -38t-22 -49h77q-9 -14 -18.5 -31.5t-17.5 -36t-14.5 -35.5t-9.5 -28h-73q-8 -18 -14.5 -34l-13 -32t-13.5 -32.5t-16 -37.5h79q-9 -14 -18.5 -31.5t-18 -36t-15 -35.5t-8.5 -28h-73q-24 -55 -37 -89.5t-17 -44.5q-15 0 -27.5 1.5t-14.5 1.5l-6 -0.5t-15 -1t-20 -1
t-20 -0.5q7 12 14.5 24.5t15.5 27.5t17 34.5t21 47.5h-49q-24 -55 -37 -89.5t-17 -44.5q-14 0 -27 1.5t-16 1.5q1 0 -4.5 -0.5t-14.5 -1t-20 -1t-20 -0.5q7 12 14 24.5t15 27.5t17.5 34.5t20.5 47.5h-77q9 14 19 31.5t18 35.5t14.5 35t8.5 29h73zM273 398h-51
q-8 -18 -14.5 -34t-13.5 -32t-14 -32.5t-15 -37.5h51z" />
    <glyph glyph-name="dollar" unicode="$" horiz-adv-x="442" 
d="M173 288q-37 16 -63.5 34t-41.5 40.5t-19 50.5t4 66q16 74 67.5 124.5t132.5 65.5q1 14 1 36t-3 54q52 -19 62 -19q5 0 23 5t44 13q-14 -32 -23.5 -53.5t-12.5 -31.5q27 -2 48 -8.5t37 -15t28.5 -18t23.5 -18.5q-20 -25 -33.5 -49.5t-28.5 -60.5h-52q-4 20 -12.5 43
t-30.5 32l-39 -182q34 -15 61 -32.5t44.5 -39.5t23.5 -49.5t-1 -62.5q-8 -36 -26 -70t-46 -62.5t-63.5 -49.5t-77.5 -33q-3 -21 -6 -50t-5 -72q-22 8 -36.5 12.5t-19.5 4.5t-21 -4.5t-42 -12.5q14 35 23 62t15 48q-46 1 -87 17t-78 53q17 30 27.5 54.5t22.5 59.5h51
q16 -48 38 -68t46 -25zM221 94q21 14 37 37t21 48q4 17 1 33.5t-26 34.5zM233 571q-17 -11 -30 -28.5t-18 -38.5q-9 -43 20 -69z" />
    <glyph glyph-name="percent" unicode="%" horiz-adv-x="851" 
d="M62 494q8 39 27.5 72t47.5 57t63.5 37.5t75.5 13.5t69.5 -13.5t47.5 -37.5t23.5 -57t-2.5 -72t-28 -72t-48 -57t-63.5 -38t-75.5 -14t-69.5 14t-47 38t-23 57t2.5 72zM437 166q8 39 27.5 72t48 57t63.5 37.5t75 13.5t69.5 -13.5t47.5 -37.5t23.5 -57t-2.5 -72t-28 -72
t-48 -57t-63.5 -38t-75.5 -14t-69.5 14t-47 38t-23 57t2.5 72zM639 703q14 -6 22.5 -9t10.5 -3t25 7.5t60 19.5l-549 -761q-14 5 -22 8.5t-10 3.5q-3 0 -25.5 -7.5t-59.5 -20.5zM186 494q-5 -20 -5.5 -39t2.5 -33t11 -22.5t22 -8.5q13 0 25 8.5t21.5 22.5t16.5 33t12 39
q4 20 4.5 38.5t-3 33t-12 23t-21.5 8.5q-14 0 -25.5 -8.5t-20.5 -23t-16 -33t-11 -38.5zM560 166q-5 -20 -5.5 -39t3 -33t11.5 -22.5t22 -8.5q13 0 25 8.5t21 22.5t16 33t12 39q4 20 5 38.5t-2.5 33t-11.5 23t-21 8.5q-14 0 -25.5 -8.5t-21.5 -23t-17 -33t-11 -38.5z" />
    <glyph glyph-name="ampersand" unicode="&#x26;" horiz-adv-x="641" 
d="M166 508q7 35 26 65t46.5 52.5t61 35.5t71.5 13q32 0 57.5 -8.5t42 -25t23 -41t-0.5 -56.5q-6 -27 -21 -51t-35.5 -45.5t-45 -39.5t-48.5 -32q1 -1 1.5 -2t1.5 -2l-1 1q13 -23 23 -41.5t19.5 -35t19.5 -33.5t24 -36q37 41 74 89t82 114q10 -40 24 -61.5t28 -32.5
q-85 -102 -163 -178q12 -18 27 -40t30 -44.5t29 -42.5t23 -35h-51t-28 2q-10 2 -21.5 2.5t-19.5 0.5t-18.5 -1t-21.5 -3q-2 0 -14 -0.5t-15 -0.5q-6 14 -14.5 32.5t-16.5 33.5q-48 -35 -99 -56.5t-114 -21.5q-41 0 -75.5 11.5t-57 35t-31.5 58t0 79.5q13 64 66.5 119.5
t131.5 90.5q-15 35 -21.5 66.5t1.5 64.5zM122 183q-4 -20 0 -38t15 -32t29 -22.5t42 -8.5q34 0 61 10t55 30q-15 24 -28 46t-25 44t-24.5 45t-25.5 49q-35 -23 -63 -53.5t-36 -69.5zM390 544q5 22 -4.5 35.5t-31.5 13.5q-23 0 -40.5 -17t-22.5 -42q-4 -18 1 -44t16 -51
q35 24 56 52t26 53z" />
    <glyph glyph-name="quotesingle" unicode="'" horiz-adv-x="144" 
d="M51 698h104l-69 -320h-103z" />
    <glyph glyph-name="parenleft" unicode="(" horiz-adv-x="215" 
d="M302 656q-47 -48 -80 -92.5t-55.5 -89t-37.5 -91t-25 -97.5q-11 -51 -16 -97t-1.5 -90.5t17.5 -89t41 -92.5l-67 -54q-66 93 -87.5 202t1.5 221q11 53 34 108.5t56.5 110t77 106.5t96.5 98z" />
    <glyph glyph-name="parenright" unicode=")" horiz-adv-x="215" 
d="M-88 -83q47 48 79.5 92.5t55 89t37 90.5t25.5 97t16 97.5t1.5 91t-17.5 89t-41 92.5l67 54q67 -93 88.5 -202.5t-2.5 -221.5q-11 -53 -34 -108t-56.5 -109.5t-77 -106.5t-95.5 -98z" />
    <glyph glyph-name="asterisk" unicode="*" horiz-adv-x="366" 
d="M168 696q23 -8 35 -11t19 -3q6 0 20 3t43 12l-39 -123q32 20 64 40.5t53 34.5q-2 -29 8.5 -57t32.5 -45l-132 -54q27 -14 56.5 -30t47.5 -26q-22 -14 -44.5 -41t-34.5 -58l-88 72q-4 -32 -7.5 -64t-6.5 -55q-17 5 -32 8.5t-21 3.5t-22.5 -3.5t-36.5 -6.5l34 116
q-31 -20 -62.5 -40t-52.5 -34q2 33 -8 59.5t-29 42.5l127 54q-29 14 -57.5 28.5t-48.5 24.5q19 15 42 43.5t31 64.5l93 -80z" />
    <glyph glyph-name="plus" unicode="+" horiz-adv-x="512" 
d="M6 312h209l44 209h104l-44 -209h209l-22 -103h-209l-45 -209h-104l45 209h-208z" />
    <glyph glyph-name="comma" unicode="," 
d="M85 105l-1 -1q10 19 29 37t50 18q10 0 20.5 -3.5t18 -10.5t11 -18t0.5 -27q-4 -15 -12 -27t-16 -23q0 -1 -4 -5l4 3q-20 -24 -42 -51.5t-44.5 -56t-45 -56t-41.5 -51.5l-58 23z" />
    <glyph glyph-name="hyphen" unicode="-" horiz-adv-x="336" 
d="M37 297h285l-24 -113h-285z" />
    <glyph glyph-name="period" unicode="." 
d="M7 69q3 16 12.5 30.5t23 25.5t29.5 17.5t32 6.5t29 -6.5t22 -17.5t12 -25.5t0 -30.5q-4 -16 -13.5 -30.5t-23 -25.5t-29.5 -17.5t-32 -6.5q-32 0 -50.5 24t-11.5 56z" />
    <glyph glyph-name="slash" unicode="/" horiz-adv-x="334" 
d="M332 709q14 -5 23.5 -8t14.5 -3t24 5.5t50 15.5l-443 -747q-27 11 -36 11q-5 0 -24.5 -5.5t-50.5 -15.5z" />
    <glyph glyph-name="zero" unicode="0" horiz-adv-x="534" 
d="M24 330q15 70 41 133t64.5 109.5t90.5 74t120 27.5q75 0 116.5 -27.5t58.5 -74t13.5 -109.5t-18.5 -133q-15 -69 -42.5 -131.5t-67.5 -110t-92 -75.5t-115 -28q-75 0 -116 27.5t-57.5 74.5t-13.5 109.5t18 133.5zM155 330q-12 -56 -16.5 -103.5t1 -82t22.5 -54.5t49 -20
q31 0 57 20t46.5 54.5t36.5 82t28 103.5q12 55 16 102.5t-1.5 82t-23 54.5t-48.5 20q-32 0 -57.5 -18.5t-45.5 -52t-36 -81.5t-28 -107z" />
    <glyph glyph-name="one" unicode="1" horiz-adv-x="278" 
d="M161 540q-27 -14 -56 -27.5t-49 -24.5q-5 19 -14.5 32.5t-17.5 21.5l9 39q60 23 128 51.5t131 57.5l32 -19q-16 -61 -33 -129t-30 -128l-33 -154q-6 -30 -12.5 -64.5t-12.5 -70.5t-12 -71t-11 -64q-23 5 -41.5 7.5t-29.5 2.5t-30.5 -2.5t-44.5 -7.5q8 30 17.5 64.5
t18.5 70.5t17 70.5t14 64.5z" />
    <glyph glyph-name="two" unicode="2" horiz-adv-x="480" 
d="M95 554q51 62 106 91t121 29q42 0 77 -11t57.5 -34t30.5 -59t-3 -86q-7 -35 -21 -64.5t-35.5 -58t-50.5 -56.5t-67 -60q-8 -6 -16.5 -13.5t-18.5 -15.5q-21 -18 -37 -30t-30.5 -23t-28 -23t-28.5 -29h30q33 0 68.5 1t68.5 3t61 3.5t47 3.5q-10 -24 -17 -41t-9 -24
q-2 -6 -1.5 -23t0.5 -40q-24 1 -54 2t-61 2t-61 1.5t-55 0.5t-54 -0.5t-59 -1.5t-59 -2t-54 -2l12 54q117 95 188.5 158t113 109t60 83t27.5 81q12 55 -5 80.5t-48 25.5q-22 0 -40.5 -10.5t-33.5 -26t-25 -33t-16 -31.5l-44 -1z" />
    <glyph glyph-name="three" unicode="3" horiz-adv-x="459" 
d="M99 599q16 13 35.5 26t42.5 24t49.5 18t55.5 7q42 0 77 -9.5t58.5 -30t33 -51.5t0.5 -74q-11 -51 -41 -87.5t-66 -58.5q19 -8 35 -20.5t26.5 -31.5t14 -44.5t-3.5 -58.5q-10 -48 -37.5 -88.5t-68.5 -70.5t-93 -47t-111 -17q-52 0 -92 14.5t-72 31.5q9 15 21 41.5t18 45.5
l43 20q7 -11 17 -22.5t22.5 -22t28.5 -17t34 -6.5q56 0 96 35t51 91q13 61 -10 85.5t-68 24.5q-8 0 -31.5 -5t-47.5 -10q8 20 13.5 36.5l6.5 19.5q1 1 1.5 17t2.5 36q24 -4 45 -6.5t28 -2.5q24 0 41 11t29 27.5t19 36.5t11 38q9 45 -9 65t-44 20q-28 0 -55.5 -22t-43.5 -51
l-45 -2z" />
    <glyph glyph-name="four" unicode="4" horiz-adv-x="508" 
d="M-29 217q52 57 112 122.5t117 128t105.5 116.5t78.5 89q14 -4 25 -6.5t16 -2.5t22 4.5t40 10.5q-11 -40 -23 -90t-24.5 -103t-24.5 -107.5t-22 -103.5q23 2 52 6t52 8q-13 -26 -21 -43t-9 -22q-2 -6 -1.5 -23t2.5 -42q-12 2 -27 4t-28.5 3.5t-24.5 3t-17 1.5l-2 -11
q-7 -31 -12.5 -63.5t-9.5 -57.5q0 -2 -1.5 -9.5t-3.5 -16t-3.5 -15.5t-1.5 -8q-21 5 -37.5 7.5t-27.5 2.5q-9 0 -28.5 -3t-45.5 -8q4 13 10.5 35t13.5 46.5t13 48.5t10 41l2 11q-28 0 -70 -1t-85 -2t-79.5 -2t-53.5 -2zM309 472q-23 -25 -48 -52t-48.5 -53.5t-44 -50.5
t-35.5 -42h136z" />
    <glyph glyph-name="five" unicode="5" horiz-adv-x="461" 
d="M187 415q14 4 32 6.5t42 2.5q46 0 80.5 -16t55.5 -44t28 -64.5t-2 -76.5q-11 -50 -39 -93t-68.5 -75.5t-92 -51t-108.5 -18.5q-44 0 -86 11.5t-77 38.5l6 28q8 11 16.5 33t16.5 42h48q10 -34 39 -51t59 -17q22 0 44.5 8.5t42 26t34.5 44.5t23 64q6 31 2.5 53.5
t-14.5 36.5t-27.5 20.5t-36.5 6.5q-16 0 -32 -4.5t-30 -10.5t-24.5 -12t-16.5 -9l-34 27q18 46 28.5 88t18.5 80t15.5 82.5t10.5 83.5l35 20q7 -2 23.5 -3t36.5 -3q36 -3 109 -3q21 0 42.5 0.5t40 1t33.5 1t24 0.5l20 -25q-17 -34 -22 -59q-2 -6 -2.5 -14t-1.5 -36
q-28 5 -62.5 8.5t-69.5 6t-67.5 3.5t-55.5 1z" />
    <glyph glyph-name="six" unicode="6" horiz-adv-x="491" 
d="M466 609l-37 -30q-14 5 -27.5 7.5t-25.5 2.5q-35 0 -66 -18t-57 -47.5t-46.5 -65.5t-34.5 -72q24 16 53.5 26t66.5 10q28 0 62.5 -8.5t62 -31t41.5 -61.5t1 -100q-11 -53 -37 -96t-63 -74.5t-83.5 -48.5t-99.5 -17q-45 0 -83.5 15.5t-62.5 50.5t-31 91t10 136v3
q17 81 52 152.5t84 125t110.5 84.5t133.5 31q20 0 33 -1.5t28 -3.5zM319 202q12 57 -2.5 93.5t-60.5 36.5q-21 0 -41 -9.5t-37.5 -27t-30 -41.5t-18.5 -52q-13 -59 6 -95.5t60 -36.5q45 0 78 36.5t46 95.5z" />
    <glyph glyph-name="seven" unicode="7" horiz-adv-x="464" 
d="M530 611q-56 -70 -116.5 -148t-122 -158t-121.5 -160t-113 -154q-17 4 -29 6.5t-20 2.5q-6 0 -31 -5.5t-64 -14.5q38 46 80.5 98t85.5 104.5t85.5 104.5t80 99t69.5 86.5t54 68.5q-53 -1 -133 -3.5t-175 -7.5q8 21 14.5 41.5t8.5 29.5q2 8 3.5 28t3.5 42q18 -1 40 -2.5
t43.5 -3t40.5 -3t32 -1.5q15 0 37.5 -0.5t46.5 -1t47.5 -0.5h40.5q14 0 27.5 0.5t24.5 0.5h71z" />
    <glyph glyph-name="eight" unicode="8" horiz-adv-x="505" 
d="M-10 192q11 54 45 100.5t94 77.5q-24 20 -38 52.5t-4 77.5q7 34 28 65.5t52.5 55.5t71.5 38.5t86 14.5q53 0 88.5 -13.5t55.5 -36t26 -52t-1 -61.5q-8 -38 -32.5 -73.5t-63.5 -60.5q16 -9 30 -23t23.5 -34t12.5 -46t-4 -60q-11 -52 -38 -94t-65.5 -72t-84.5 -46.5
t-94 -16.5q-50 0 -89 14t-64.5 40.5t-35 65t0.5 87.5zM320 197q12 56 -6.5 91.5t-63.5 35.5t-78.5 -35.5t-45.5 -91.5q-11 -57 7 -92t63 -35t79 35t45 92zM361 499q8 37 -3.5 63.5t-49.5 26.5t-60 -26.5t-30 -63.5t3 -63.5t49 -26.5t60.5 26.5t30.5 63.5z" />
    <glyph glyph-name="nine" unicode="9" horiz-adv-x="498" 
d="M47 118q19 -23 40 -35.5t41 -12.5q34 0 63.5 17t54.5 45t44.5 65t33.5 77q-26 -17 -57 -26t-68 -9q-95 0 -138.5 55t-22.5 155q10 48 35 89t62 71.5t83.5 47.5t99.5 17q46 0 85.5 -15.5t64 -50.5t32 -91t-9.5 -136q-18 -83 -53.5 -155t-85.5 -125.5t-112.5 -84.5
t-132.5 -31q-26 0 -51 7t-40 14q-1 14 -4.5 37t-10.5 44zM369 473q11 52 -8 84t-62 32q-42 0 -76.5 -37.5t-48.5 -102.5q-14 -64 3 -92.5t57 -28.5q25 0 47 12t39.5 32.5t30 46.5t18.5 54z" />
    <glyph glyph-name="colon" unicode=":" horiz-adv-x="185" 
d="M46 406q4 16 13.5 30.5t22.5 25.5t29 17.5t32 6.5t29.5 -6.5t22 -17.5t12 -25.5t-0.5 -30.5q-3 -16 -12.5 -30.5t-23 -25.5t-29.5 -17.5t-32 -6.5t-29 6.5t-22 17.5t-12 25.5t0 30.5zM-24 69q3 16 12.5 30.5t22.5 25.5t29 17.5t32 6.5t29 -6.5t22 -17.5t12 -25.5t0 -30.5
t-12.5 -30.5t-23 -25.5t-29.5 -17.5t-32 -6.5t-29 6.5t-21.5 17.5t-11.5 25.5t0 30.5z" />
    <glyph glyph-name="semicolon" unicode=";" horiz-adv-x="192" 
d="M54 105v-1q10 19 29 37t51 18q10 0 20 -3.5t17.5 -10.5t10.5 -18t0 -27q-3 -15 -11 -27t-16 -23l-2 -2l-3 -3l4 3q-20 -24 -42 -51.5t-44.5 -56t-44 -56t-40.5 -51.5l-60 23zM94 406q3 16 12.5 30.5t23 25.5t29.5 17.5t33 6.5q16 0 29 -6.5t22 -17.5t12 -25.5t0 -30.5
t-12.5 -30.5t-23 -25.5t-29.5 -17.5t-32 -6.5q-17 0 -30 6.5t-22 17.5t-12 25.5t0 30.5z" />
    <glyph glyph-name="less" unicode="&#x3c;" horiz-adv-x="549" 
d="M3 303l573 243l-23 -109l-422 -176q84 -43 175 -89.5t172 -87.5l-23 -109l-469 245z" />
    <glyph glyph-name="equal" unicode="=" horiz-adv-x="559" 
d="M564 298h-522l22 104h522zM527 120h-522l21 103h522z" />
    <glyph glyph-name="greater" unicode="&#x3e;" horiz-adv-x="548" 
d="M-5 84l422 177q-84 42 -175.5 88t-172.5 88l23 109l470 -245l-17 -83l-573 -243z" />
    <glyph glyph-name="question" unicode="?" horiz-adv-x="286" 
d="M66 655q29 16 62.5 29.5t71.5 13.5q40 0 68 -12t44.5 -32.5t21 -47.5t-1.5 -57q-6 -31 -20.5 -56.5t-33 -47.5t-40.5 -41t-44 -37q-31 -26 -55.5 -50t-29.5 -49q-2 -9 1 -18t13 -9q6 0 16.5 5t15.5 7l45 -26q-12 -11 -24.5 -27.5t-16.5 -27.5q-15 -5 -30.5 -8.5
t-29.5 -3.5t-34 7t-37 22t-26 40t-2 61q6 28 19.5 52t31 44t38 38t40.5 35q30 25 56 49.5t32 52.5q5 22 -9 35t-33 13t-51.5 -23t-70.5 -60zM-14 69q3 16 12.5 30.5t22.5 25.5t28.5 17.5t32.5 6.5q16 0 29 -6.5t22 -17.5t12 -25.5t0 -30.5t-12.5 -30.5t-23 -25.5
t-29.5 -17.5t-32 -6.5q-33 0 -51 24t-11 56z" />
    <glyph glyph-name="at" unicode="@" horiz-adv-x="685" 
d="M673 409q-13 -59 -43.5 -106.5t-70.5 -80.5l-31 -101q-17 -13 -44.5 -29.5t-63 -31t-78.5 -24.5t-89 -10q-50 0 -98 18.5t-82.5 57t-49 97.5t2.5 140q13 60 49 117t90.5 101.5t124 71.5t148.5 27q83 0 134 -21.5t76.5 -56.5t30 -79t-5.5 -90zM400 545q16 0 30.5 -3
t25.5 -11l2 5h84q-18 17 -49 26t-77 9q-50 0 -96 -20.5t-84 -55.5t-65 -83t-39 -103q-11 -48 -3.5 -84.5t29.5 -60.5t56.5 -36.5t78.5 -12.5q38 0 82 15t88 37q-27 -8 -48 -8q-33 0 -49 8.5t-21 25.5q-20 -15 -43.5 -24.5t-49.5 -9.5q-62 0 -86.5 38t-8.5 113
q11 52 35.5 95.5t57.5 74.5t72 48t78 17zM401 419q4 18 1 30t-20 12q-20 0 -38 -15t-33 -38t-26 -50t-16 -51q-6 -29 -3.5 -43.5t19.5 -14.5q20 0 39 19t34.5 45.5t26.5 55.5t16 50zM570 391q8 39 6 72t-19 57q-39 -91 -61 -143.5t-33 -80t-14.5 -37t-4.5 -14.5q-2 -5 2 -5
q14 0 32.5 11.5t36.5 31.5t33 48t22 60z" />
    <glyph glyph-name="A" unicode="A" horiz-adv-x="662" 
d="M440 698q8 -38 18 -88.5t19 -95.5q15 -71 32.5 -152t34 -155.5t30 -133.5t21.5 -87q-36 6 -61 10t-34 4q-11 0 -29 -2.5t-41 -5.5q-4 54 -13.5 107.5t-18.5 104.5q-3 15 -4.5 20.5t-4.5 18.5q-25 1 -50 1h-51h-25h-21.5t-21.5 -0.5t-25 -0.5q-41 -66 -78 -132t-65 -121
q-18 5 -32 7.5t-20 2.5q-5 0 -28 -4.5t-56 -12.5q54 81 114 172.5t121.5 185t121 185t112.5 172.5h55zM344 477q-11 -18 -21.5 -33.5t-21 -31.5t-22.5 -34t-25 -39h10q12 -1 24 -1h24q17 0 23.5 -0.5t14.5 -0.5q5 0 10.5 0.5t13.5 0.5z" />
    <glyph glyph-name="B" unicode="B" horiz-adv-x="520" 
d="M56 421q6 30 12.5 64.5t12.5 70t11.5 70t10.5 63.5q38 -4 70.5 -5.5t55.5 -1.5h23.5t23.5 1l26 2t26 1q45 0 84 -7.5t65.5 -25.5t37.5 -49t1 -78q-11 -54 -41 -91t-76 -62q47 -19 66 -59t5 -106q-12 -59 -44.5 -99.5t-75.5 -65.5t-92 -36.5t-94 -11.5q-11 0 -23.5 0.5
t-23.5 1.5t-20.5 2t-20.5 1q-23 0 -53.5 -2t-65.5 -5q8 30 16.5 64.5t17.5 70t17 70t14 64.5zM150 248q-7 -32 -12.5 -62t-10.5 -62q-3 -12 -6 -37q14 -2 30 -2h32q24 0 48 8.5t44 24.5t35 39.5t21 54.5q7 31 -1.5 51t-28.5 31t-51.5 15.5t-71.5 4.5h-14zM205 403q27 0 55 5
t51 17t40.5 32.5t23.5 50.5q6 28 -1.5 45.5t-23 27.5t-36.5 13t-42 3h-24h-8.5t-11.5 -2q-2 -9 -3.5 -17t-4.5 -17q-8 -29 -15 -58t-13 -58l-9 -42h22z" />
    <glyph glyph-name="C" unicode="C" horiz-adv-x="655" 
d="M543 49q-12 -9 -36 -20t-55 -21.5t-67 -17.5t-73 -7q-79 0 -140.5 24t-100.5 70t-52 112.5t5 151.5t59.5 151t100.5 112t132.5 70t156.5 24q63 0 122 -17t104 -40q-22 -30 -32 -51t-16 -35q-1 -5 -3.5 -15t-2.5 -11l-46 -2q-8 10 -20.5 24.5t-30.5 27t-41.5 21.5t-52.5 9
q-48 0 -93 -16t-82.5 -49t-65.5 -83.5t-43 -119.5t-8.5 -119.5t30 -83.5t62 -49t86.5 -16q29 0 58.5 9t57 22.5t51 28t40.5 25.5l24 -31z" />
    <glyph glyph-name="D" unicode="D" horiz-adv-x="706" 
d="M64 420q6 30 12.5 64.5t12.5 69.5t11.5 69.5t10.5 64.5q17 -1 39 -2t45 -2t45 -1.5t39 -0.5h34t34 1t36 2t36 1q88 0 146 -23t89 -65.5t36.5 -104t-10.5 -139.5q-21 -100 -70 -168.5t-111.5 -111t-130.5 -61t-127 -18.5q-16 0 -32 0.5t-31 1.5q-14 1 -29 2t-31 1
q-15 0 -35.5 -0.5t-41.5 -1.5t-41 -2t-35 -2q8 30 17 64t17.5 69.5t17 70t14.5 64.5zM161 262q-5 -25 -9.5 -46t-8.5 -41.5t-7.5 -41t-7.5 -44.5q19 -2 43 -3t51 -1q46 0 94 11t90.5 41t76.5 82t51 135q15 72 7.5 118t-33 72.5t-66 37t-91.5 10.5q-30 0 -61 -2t-56 -4
q-11 -39 -21 -81t-19 -85z" />
    <glyph glyph-name="E" unicode="E" horiz-adv-x="416" 
d="M53 421q6 30 12.5 64.5t12.5 69.5t11.5 69.5t10.5 63.5q42 -2 96.5 -4t96.5 -2q21 0 47 0.5t53 1.5t53 2t46 2q-9 -23 -14 -37.5t-7 -19.5q-1 -5 -2 -19.5t-1 -37.5q-6 0 -18 1t-24.5 1.5t-24 1.5t-16.5 1q-20 2 -34.5 3.5t-31.5 3t-39 2t-57 0.5q-2 -6 -3 -9.5t-3 -9.5
v1q-5 -17 -8.5 -34t-8.5 -38t-8.5 -42t-7.5 -39l-3 -13q72 1 127.5 4.5t104.5 7.5q-18 -44 -21 -59q-2 -10 -4 -59q-32 3 -64 5.5t-62 3.5t-56 2t-46 1l-23 -106q-5 -26 -8.5 -43.5t-6 -29.5t-4.5 -20t-3 -17q58 1 127 4.5t135 14.5q-11 -24 -17 -41t-7 -22q-2 -5 -2 -18.5
v-37.5q-20 1 -46 2t-53 2t-53.5 1.5t-47.5 0.5t-46.5 -0.5t-52 -1.5t-51.5 -2t-46 -2q8 30 16.5 64.5t17 70t16.5 69.5t14 64z" />
    <glyph glyph-name="F" unicode="F" horiz-adv-x="413" 
d="M53 420q6 30 12.5 64.5t13 69.5t12 69.5t10.5 64.5q21 -1 45.5 -2t50.5 -2t51 -1.5t46 -0.5t47 0.5t54 1.5t56.5 2t54.5 2q-11 -23 -16 -37.5t-6 -19.5q-2 -6 -3 -21t0 -38q-28 3 -62.5 5.5t-70.5 4.5t-70 3.5t-59 2.5q-6 -26 -10.5 -48t-9.5 -45q-4 -17 -6.5 -32
t-5.5 -29l-6 -28q53 1 114 3.5t133 9.5q-8 -20 -14.5 -36.5t-8.5 -22.5t-2 -23t-1 -36q-60 6 -123 8.5t-118 2.5l-11 -50q-6 -30 -12.5 -65t-13 -71t-12.5 -71t-11 -65q-25 5 -43.5 7.5t-28.5 2.5t-29 -2.5t-47 -7.5q8 30 17 65t17.5 71t17 71t14.5 65z" />
    <glyph glyph-name="G" unicode="G" horiz-adv-x="713" 
d="M643 519q-11 17 -27 33t-37.5 29t-48.5 20.5t-58 7.5q-51 0 -99 -16t-87.5 -49t-68.5 -83.5t-44 -119.5q-26 -123 23.5 -193.5t167.5 -70.5q31 0 65.5 5t58.5 15q5 23 10.5 46t10.5 48q5 26 9.5 51.5t9.5 50.5q0 3 1.5 11t3.5 18t3.5 18.5t2.5 11.5q21 -6 40.5 -9
t28.5 -3q8 0 24 3t49 13q-3 -11 -8.5 -33.5t-13 -53t-16 -66.5t-16.5 -73l-8 -37q-2 -10 -5.5 -28.5t-5.5 -28.5q-25 -8 -60.5 -17.5t-73.5 -17.5t-75 -13t-65 -5q-88 0 -154 23t-106 68t-52.5 112t5.5 155q18 85 59.5 151t102 112t137.5 70t165 24q49 0 88 -6.5t70.5 -17
t56 -22.5t43.5 -24q-8 -10 -16.5 -23.5t-16 -28.5t-14 -29.5t-10.5 -27.5h-49z" />
    <glyph glyph-name="H" unicode="H" horiz-adv-x="683" 
d="M522 420q6 30 12.5 65t13 71t12.5 71t11 65q26 -5 44 -7.5t28 -2.5t30 2.5t47 7.5q-8 -30 -17 -65t-18 -71t-17.5 -71t-14.5 -65l-33 -158l-13 -65t-13 -71t-12 -71t-11 -65q-26 5 -44.5 7.5t-28.5 2.5t-29.5 -2.5t-46.5 -7.5q7 30 16.5 65t18.5 71t17.5 71t14.5 65
l12 56q-42 1 -82.5 1h-82.5h-43.5h-38.5t-39 -0.5t-44 -0.5l-12 -56q-6 -30 -12.5 -65t-13 -71t-12.5 -71t-11 -65q-26 5 -44 7.5t-28 2.5t-29.5 -2.5t-46.5 -7.5q8 30 17 65t17.5 71t17 71t14.5 65l33 158l13 65t13 71t12 71t11 65q26 -5 44.5 -7.5t28.5 -2.5t29.5 2.5
t46.5 7.5q-8 -30 -17 -65t-18 -71t-17.5 -71t-14.5 -65l-1 -5q10 0 18.5 -0.5t18.5 -0.5q32 0 64 -0.5t64 -0.5t63.5 0.5t63.5 0.5h12t7 0.5t7 0.5h12z" />
    <glyph glyph-name="I" unicode="I" horiz-adv-x="181" 
d="M40 420q6 30 12.5 65t13 71t12 71t10.5 65q26 -5 44.5 -7.5t28.5 -2.5t30 2.5t47 7.5q-8 -30 -17 -65t-18.5 -71t-18 -71t-14.5 -65l-33 -158q-6 -30 -12.5 -65t-13 -71t-12 -71t-10.5 -65q-26 5 -44.5 7.5t-28.5 2.5t-29.5 -2.5t-46.5 -7.5q8 30 17 65t18 71t17.5 71
t14.5 65z" />
    <glyph glyph-name="J" unicode="J" horiz-adv-x="286" 
d="M-77 -173q42 0 70 16t46.5 44.5t30.5 69t23 88.5l83 375l13 65t13 71t12 71t11 65q26 -5 44.5 -7.5t28.5 -2.5t29.5 2.5t46.5 7.5q-8 -30 -17 -65t-18 -71t-17.5 -71t-14.5 -65q-5 -22 -11 -50.5t-12.5 -61t-14.5 -67.5t-15 -69q-5 -22 -11.5 -52t-13 -59t-12 -53.5
t-7.5 -36.5q-10 -47 -35.5 -88t-63 -71.5t-85 -48t-100.5 -17.5z" />
    <glyph glyph-name="K" unicode="K" horiz-adv-x="581" 
d="M-31 24q32 120 57 238l34 158q6 30 12.5 65t12.5 71t12 71t11 65q26 -5 44.5 -7.5t28.5 -2.5t29.5 2.5t46.5 7.5q-8 -30 -17 -65t-18 -71t-17 -71t-14 -65l-1 -5q36 28 76 61.5t80.5 69t81 72t78.5 71.5q14 -4 25.5 -5.5t20.5 -1.5q11 0 49.5 6t93.5 16
q-50 -37 -110 -82.5t-119 -91.5t-110.5 -88t-83.5 -71q52 -76 104 -156q14 -22 34 -52.5t41.5 -63t42 -63t35.5 -52.5q-46 8 -78.5 12t-44.5 4q-10 0 -26 -2t-37 -5q-21 34 -45.5 75t-49.5 81l-47.5 76t-38.5 61l-5 -24q-6 -30 -12.5 -65t-13 -71t-12.5 -71t-11 -65
q-25 5 -43.5 7.5t-28.5 2.5q-8 0 -18.5 -1.5t-22.5 -3.5z" />
    <glyph glyph-name="L" unicode="L" horiz-adv-x="411" 
d="M53 420q6 30 12.5 65t13 71t12.5 71t11 65q25 -5 43.5 -7.5t28.5 -2.5t29.5 2.5t47.5 7.5q-8 -30 -17 -65t-18 -71t-17.5 -71t-14.5 -65q-20 -91 -34.5 -161t-26.5 -128q-2 -9 -2.5 -13t-0.5 -7t-1 -6.5t-2 -10.5q28 0 56.5 0.5t60.5 2.5t69 5t83 9q-13 -24 -20.5 -40.5
t-8.5 -19.5q-1 -5 0 -20.5t3 -36.5q-21 1 -48 2t-55 2t-55 1.5t-48 0.5t-47 -0.5t-53 -1.5t-53 -2t-47 -2q7 30 16 64t17.5 69.5t17 70t14.5 64.5z" />
    <glyph glyph-name="M" unicode="M" horiz-adv-x="863" 
d="M263 698q18 -65 34.5 -123.5t34 -115.5t36 -115.5t40.5 -122.5q24 32 56 74.5t70 92.5q28 36 58.5 77t61.5 82t60 80t53 71h53q-3 -31 -6 -65t-6.5 -68.5t-7.5 -67.5t-7 -61q-5 -53 -10.5 -110t-11 -115t-10.5 -114.5t-8 -107.5q-25 5 -44 8t-30 3t-29 -2.5t-41 -6.5
q14 103 27 210t23 210q-71 -94 -143 -192t-150 -219h-44q-20 76 -44.5 161t-48.5 164q-6 20 -8.5 28t-4 13.5t-3.5 13t-9 27.5q-17 -52 -34.5 -108t-34 -110.5t-30.5 -106t-24 -94.5q-20 5 -34.5 8.5t-22.5 3.5q-7 0 -24.5 -4t-43.5 -10q28 76 61.5 169.5t67.5 189.5
t65.5 188t54.5 165h58z" />
    <glyph glyph-name="N" unicode="N" horiz-adv-x="677" 
d="M499 -17q-72 112 -157 232.5t-170 235.5q-5 -22 -11.5 -51t-14.5 -67q-6 -29 -15.5 -78t-18.5 -101.5t-16.5 -99t-9.5 -69.5q-23 7 -40 11t-22 4q-8 0 -26.5 -4t-45.5 -9q6 15 15.5 45t20.5 68.5t23 83t23.5 88t21 83t15.5 69.5q9 43 18 85.5t16.5 79.5t12.5 65.5t8 43.5
h56q8 -11 18.5 -26t18.5 -26q83 -119 157 -224t134 -183q12 58 24.5 119t24 120.5t21.5 115t18 101.5q22 -6 37 -9.5t21 -3.5q8 0 64 14q-5 -17 -13 -44t-17 -59.5t-18.5 -68t-18 -68t-15 -60.5t-10.5 -46q-5 -23 -12 -56.5t-14.5 -71t-15 -75.5t-14 -71t-11.5 -58l-7 -35
h-55z" />
    <glyph glyph-name="O" unicode="O" horiz-adv-x="811" 
d="M33 341q18 85 59.5 151t100.5 112t132.5 70t155.5 24t145.5 -24t103.5 -70t53 -112t-5 -151t-59.5 -151.5t-100.5 -112.5t-133 -70t-156 -24t-145.5 24t-103 70t-52.5 112.5t5 151.5zM632 341q15 69 8 119.5t-30 83.5t-61.5 49t-86.5 16t-93 -16t-82.5 -49t-65.5 -83.5
t-43 -119.5t-8.5 -119.5t30.5 -83.5t62 -49t86 -16t93 16t82.5 49t65.5 83.5t43 119.5z" />
    <glyph glyph-name="P" unicode="P" horiz-adv-x="489" 
d="M56 420q6 30 12.5 64.5t12.5 70t12 70t11 64.5q35 -4 64.5 -5.5t52.5 -1.5q10 0 25.5 0.5t32 1.5t31.5 1.5t26 0.5q15 0 38 -1t47.5 -6t47.5 -16.5t39 -31.5t22 -51.5t-4 -76.5q-15 -69 -53 -112.5t-85.5 -67.5t-97 -32.5t-86.5 -8.5h-25h-8.5t-12.5 1l-5 -21l-13 -65
t-13 -71t-12 -71t-11 -65q-25 5 -44 7.5t-29 2.5q-9 0 -28 -2.5t-47 -7.5q7 30 16 65t18 71t17.5 71t14.5 65zM177 374q19 -3 37 -3q24 0 50.5 5t50.5 19t43 38.5t27 63.5q7 31 2 50.5t-19 30.5t-37 15t-52 4h-55z" />
    <glyph glyph-name="Q" unicode="Q" horiz-adv-x="830" 
d="M45 341q18 85 59.5 151t100.5 112t132.5 70t155.5 24t146 -24t103.5 -70t52.5 -112t-5 -151q-26 -126 -100.5 -209t-182.5 -121q27 -25 63 -57t72 -63.5t68.5 -59.5t52.5 -44q-29 -2 -54.5 -8t-46.5 -14t-36 -17.5t-22 -17.5q-20 23 -52 57t-67 69.5t-68.5 69.5t-57.5 57
h-18q-82 0 -145 24t-102.5 70t-53 112.5t4.5 151.5zM644 341q15 69 8.5 119.5t-30 83.5t-62 49t-86.5 16t-93 -16t-82.5 -49t-65.5 -83.5t-43 -119.5t-8 -119.5t31 -83.5t62 -49t86 -16t93 16t82.5 49t65 83.5t42.5 119.5z" />
    <glyph glyph-name="R" unicode="R" horiz-adv-x="571" 
d="M60 420q6 30 13 64.5t13 70t12 70t11 64.5q13 -1 30.5 -2.5t36 -2.5t36 -1.5t30.5 -0.5h25t25 1l28 2t28 1q45 0 83 -8.5t63.5 -29t35.5 -53.5t0 -82q-9 -42 -31 -74t-51 -55.5t-62 -39t-63 -24.5q6 -12 21 -38t34.5 -58.5t41.5 -69t42.5 -70t37 -60.5t25.5 -40
q-46 8 -78.5 12t-44.5 4q-11 0 -29 -2t-39 -5q-10 21 -29 59.5t-42.5 82.5t-49 87.5t-48.5 74.5l-7 -35q-6 -30 -12.5 -65t-13 -71t-12.5 -71t-11 -65q-26 5 -44 7.5t-28 2.5t-29.5 -2.5t-46.5 -7.5q8 30 17 65t17.5 71t17 71t14.5 65zM185 391h34q24 0 51.5 5t52 18
t43.5 35t26 55q6 28 -1 46t-22 28.5t-34.5 14.5t-38.5 4h-25h-15t-10.5 -0.5t-11.5 -1.5q-12 -45 -22.5 -87.5t-20.5 -87.5z" />
    <glyph glyph-name="S" unicode="S" horiz-adv-x="469" 
d="M56 173q4 -16 12.5 -33t21.5 -31t31.5 -23t42.5 -9t45 8.5t37.5 23t27.5 33.5t16 41q5 23 -1 39.5t-19.5 28.5t-32 21.5t-38.5 18.5q-29 13 -57.5 28t-48.5 37.5t-28.5 56t2.5 83.5q9 45 33 82t59 63.5t80.5 41.5t97.5 15q50 0 87 -15.5t71 -47.5q-20 -26 -33.5 -52
t-28.5 -61h-52q-2 13 -6.5 28t-12.5 28t-21 22t-32 9q-40 0 -71 -24.5t-39 -62.5q-5 -24 1.5 -40.5t21 -29t33.5 -22t40 -18.5q29 -13 56.5 -27t47 -35.5t28 -53t-1.5 -78.5q-10 -48 -36.5 -90.5t-65.5 -74.5t-90 -51t-111 -19q-32 0 -57.5 6.5t-45.5 16.5t-36.5 23
t-29.5 26q9 16 16 30t12.5 27.5t10.5 28t11 32.5h53z" />
    <glyph glyph-name="T" unicode="T" horiz-adv-x="536" 
d="M220 420q5 24 9 43.5t8 38t7.5 38t8.5 43.5q-46 -1 -102.5 -5t-110.5 -11q12 24 19.5 41t9.5 22q1 4 0.5 19t-1.5 38q29 -1 64.5 -2t72 -1.5t71.5 -1t65 -0.5t65 0.5t72 1t72.5 1.5t65.5 2q-11 -23 -17.5 -38t-8.5 -20q-1 -5 -0.5 -21.5t2.5 -40.5q-53 8 -108.5 11.5
t-96.5 4.5q-10 -41 -19.5 -81.5t-17.5 -81.5l-34 -158q-6 -30 -12.5 -65t-12.5 -71t-12 -71t-10 -65q-26 5 -44.5 7.5t-28.5 2.5t-30 -2.5t-47 -7.5q7 30 16.5 65t18.5 71t17.5 71t14.5 65z" />
    <glyph glyph-name="U" unicode="U" horiz-adv-x="664" 
d="M522 359q13 64 23.5 113.5t17.5 89t11.5 71.5t6.5 61q24 -5 42 -8.5t27 -3.5q7 0 23 4t39 11q-9 -32 -23 -82.5t-29 -109t-30 -118.5t-27 -111q-15 -67 -46 -121t-76 -92.5t-103 -59t-127 -20.5q-152 0 -206 71t-24 220q5 23 10.5 43.5t9.5 38.5q5 17 8.5 32t7.5 32
q14 66 23.5 119t17.5 94q1 3 2.5 11.5t3.5 18t3.5 18t1.5 11.5q23 -5 43 -7.5t30 -2.5q8 0 28 3.5t46 8.5q-9 -27 -19.5 -66t-22.5 -85.5t-24 -97.5t-23 -102q-9 -43 -16 -89t1.5 -84.5t39.5 -63t97 -24.5q65 0 106.5 28.5t66.5 70.5t38 90t22 88z" />
    <glyph glyph-name="V" unicode="V" horiz-adv-x="664" 
d="M201 14q-8 57 -23.5 141t-34 177.5t-38.5 188.5t-36 174q35 -6 59 -9.5t32 -3.5q22 0 68 8q15 -122 35.5 -244.5t49.5 -261.5q37 58 79.5 128.5t83.5 140t76 132.5t58 107q17 -5 31 -7.5t20 -2.5t29.5 4.5t56.5 12.5q-53 -80 -112 -170.5t-118 -184t-115 -184.5
t-103 -170q-15 5 -27 7.5t-18 2.5t-12 -0.5t-10 -2.5z" />
    <glyph glyph-name="W" unicode="W" horiz-adv-x="1028" 
d="M169 15q-2 25 -7.5 78.5t-12 120.5t-14 141.5t-14.5 141.5t-13 120t-10 77q32 -5 55 -8.5t32 -3.5q17 0 67 9q3 -70 5.5 -122.5t6.5 -105t10 -114t16 -148.5q2 4 7 12.5t7 13.5q29 53 64.5 117.5t69.5 128.5t64 122t48 98q35 -11 48 -11q10 0 52 11q2 -25 5.5 -64.5
t8 -86.5t10 -97.5t10.5 -97t9.5 -85.5t8.5 -63q19 36 43 81.5t49 94l50 97t46.5 91.5t38 76.5t24.5 52.5q17 -5 30 -7.5t20 -2.5q8 0 29.5 4t53.5 12q-10 -16 -30.5 -51t-47.5 -82t-58.5 -103t-64 -114t-64.5 -114t-58.5 -104.5t-47 -85t-30.5 -54.5q-15 5 -27 7.5t-19 2.5
q-5 0 -18.5 -3t-33.5 -8q-6 64 -11.5 121.5t-11.5 114t-12.5 115.5t-15.5 127q-27 -47 -61 -109t-70 -127t-71 -128t-62 -113q-17 5 -29.5 7.5t-17.5 2.5q-7 0 -13.5 -1t-13.5 -3z" />
    <glyph glyph-name="X" unicode="X" horiz-adv-x="600" 
d="M258 690q18 -63 37 -118.5t41 -113.5q49 55 94 110t96 122q30 -8 45 -8q8 0 35.5 5.5t67.5 15.5q-8 -8 -24 -26t-34 -37.5t-34.5 -37t-23.5 -25.5q-26 -28 -49.5 -53t-46 -49.5t-45 -50t-46.5 -53.5q16 -43 36 -93.5t41 -101.5t41.5 -100t37.5 -90q-38 6 -65.5 10
t-39.5 4t-29.5 -2t-37.5 -5l-21 59q-9 30 -15.5 53.5t-14 46t-16.5 46t-22 53.5q-54 -63 -105 -127.5t-102 -132.5q-16 4 -28.5 6.5t-17.5 2.5q-8 0 -35 -5.5t-67 -15.5q35 39 76.5 85.5t84.5 94.5t84 95t76 87q-15 39 -33.5 85.5t-37.5 93.5t-38 92.5t-35 83.5
q39 -7 66 -10.5t37 -3.5q9 0 26.5 2t40.5 6z" />
    <glyph glyph-name="Y" unicode="Y" horiz-adv-x="595" 
d="M145 -11q25 78 41.5 148t31.5 140q-7 19 -20.5 53.5t-30 76t-34 87t-34 85.5t-29.5 71.5t-19 45.5q39 -7 67 -10.5t40 -3.5q9 0 27 2t41 6q12 -39 23 -75t22.5 -72t24 -73t27.5 -78q26 32 54 68.5t56.5 75t56.5 77.5t54 77q32 -8 50 -8q7 0 34 5.5t66 13.5
q-67 -78 -121 -141t-96 -113.5t-73.5 -89.5t-53.5 -69q-7 -34 -15 -74t-15 -80.5t-13 -78t-9 -66.5q-28 5 -47 8t-27 3t-29 -3t-50 -8z" />
    <glyph glyph-name="Z" unicode="Z" horiz-adv-x="609" 
d="M-47 48q47 50 97.5 104t99.5 108t95.5 105t85 94.5t68 77t45.5 51.5h-15q-32 0 -76 -1.5t-90.5 -4t-91.5 -6t-81 -7.5q12 24 19.5 40t8.5 21q1 4 0 20t-3 39q22 -2 64 -3.5t97.5 -2t122 -1t137.5 -0.5q38 0 79 3h10t14.5 0.5t14.5 0.5h10l-12 -54q-21 -19 -58 -57
t-83 -86.5t-96.5 -104t-98.5 -109t-90.5 -101t-70.5 -80.5q3 0 5.5 -0.5t4.5 -0.5q5 0 8.5 0.5t10.5 0.5q34 0 83 2t101 5t101 7t83 8q-11 -25 -18.5 -41.5t-9.5 -22.5q-1 -4 0 -19t2 -39q-67 2 -133 4t-119 2q-36 0 -86 -0.5t-99 -1.5t-89.5 -2t-57.5 -2z" />
    <glyph glyph-name="bracketleft" unicode="[" horiz-adv-x="207" 
d="M50 402q7 32 14 69t14 75t13.5 74.5t11.5 68.5q28 -4 46.5 -5.5t29.5 -1.5q21 0 49.5 0.5t48.5 1.5l40 -2q-7 -14 -12 -25t-5 -13q-1 -2 -1.5 -15t-0.5 -28q-20 0 -45 1.5t-46 1.5q-27 -99 -49 -202l-49 -232q-6 -29 -11 -53t-9.5 -47.5t-8.5 -48t-8 -52.5q23 1 50.5 1.5
t41.5 0.5q-6 -13 -10.5 -24t-5.5 -16q0 -1 -1 -14.5t-1 -27.5h-38q-20 0 -48 1t-49 1q-11 0 -30.5 -1.5t-47.5 -5.5q8 31 17.5 68t18.5 74.5t17.5 74.5t14.5 69z" />
    <glyph glyph-name="backslash" unicode="\" horiz-adv-x="335" 
d="M50 719q26 -10 43.5 -15.5t22.5 -5.5t15.5 3t26.5 8l125 -747q-26 10 -43 15.5t-22 5.5q-8 0 -43 -11z" />
    <glyph glyph-name="bracketright" unicode="]" horiz-adv-x="209" 
d="M97 402q6 29 11 53.5t9.5 48t8.5 48t8 52.5q-23 -1 -50 -1.5t-42 -1.5q6 13 10.5 24.5t5.5 16.5q-1 1 0.5 14.5t1.5 27.5h37q20 -1 49 -1.5t50 -0.5q11 0 30.5 1.5t47.5 5.5q-8 -32 -17.5 -68.5t-18.5 -74.5t-17.5 -75t-15.5 -69l-49 -232q-7 -32 -14 -69t-14 -74.5
t-13.5 -74.5t-11.5 -68q-26 4 -45 5.5t-30 1.5q-21 0 -50 -1t-49 -1l-39 1q7 14 12 25.5t6 13.5v14.5t1 28.5q20 -1 45 -2t46 -1q13 51 25 100.5t23 100.5z" />
    <glyph glyph-name="asciicircum" unicode="^" horiz-adv-x="555" 
d="M286 659h83l143 -472h-111l-102 340q-61 -85 -124.5 -171.5t-123.5 -168.5h-110z" />
    <glyph glyph-name="underscore" unicode="_" horiz-adv-x="587" 
d="M24 -120l21 102h516l-21 -102h-516z" />
    <glyph glyph-name="grave" unicode="`" horiz-adv-x="284" 
d="M53 606q-13 10 -25.5 24.5t-6.5 41.5q3 14 11 25t18.5 18t21 10.5t19.5 3.5q17 0 30.5 -8t24.5 -22l143 -184h-112z" />
    <glyph glyph-name="a" unicode="a" horiz-adv-x="476" 
d="M99 433q60 39 104 53t85 14q79 0 118.5 -44.5t23.5 -119.5q-5 -25 -11 -50.5t-12 -51.5q-5 -25 -12.5 -55.5t-12.5 -56.5q-3 -14 -5 -27.5t4 -13.5q1 0 2.5 0.5t7 2.5t15 7t27.5 14l-18 -87q-18 -7 -43.5 -14.5t-48.5 -7.5q-28 0 -43.5 10t-23.5 27q-34 -23 -67.5 -35
t-75.5 -12q-28 0 -53 10t-42 28t-24 44t0 59q14 68 62.5 105t122.5 49q43 6 67 10.5t36 8.5t15 8t4 10q4 18 3.5 34t-7 28t-19 19t-32.5 7q-29 0 -60 -16.5t-53 -45.5h-53zM280 220q-4 -1 -9.5 -2t-9.5 -2q-21 -4 -43 -8.5t-41 -12.5t-32.5 -21t-17.5 -34q-7 -30 6 -45
t33 -15q25 0 49 13t41 31z" />
    <glyph glyph-name="b" unicode="b" horiz-adv-x="507" 
d="M482 256q-12 -59 -40.5 -108.5t-68 -85.5t-87 -56t-97.5 -20q-43 0 -74.5 15.5t-51.5 40.5q-12 -9 -26 -19t-29 -23h-58q9 29 18.5 66t19 76t18 76.5t15.5 69.5l36 167l13.5 67.5t14.5 77.5t13 79.5t11 74.5q24 -5 42 -8t28 -3q9 0 30 2.5t51 7.5q-10 -26 -20 -61.5
t-20.5 -76t-20 -82.5t-18.5 -81q33 26 66.5 37t72.5 11q54 0 90 -20t55.5 -53.5t23 -78t-6.5 -92.5zM347 259q7 36 5 63.5t-11.5 46t-25 28t-34.5 9.5q-24 0 -46.5 -9.5t-43 -30.5t-37 -55t-26.5 -83q-17 -78 2.5 -117.5t71.5 -39.5q22 0 44.5 13.5t41.5 38t34.5 59.5
t24.5 77z" />
    <glyph glyph-name="c" unicode="c" horiz-adv-x="484" 
d="M23 243q14 67 47 115.5t76.5 80t93.5 46.5t100 15q55 0 101 -18.5t67 -43.5q-14 -21 -27 -44.5t-24 -49.5h-46q-4 12 -12 24.5t-19 23t-25 17t-31 6.5q-35 0 -62 -13t-47 -36t-34 -54t-22 -68q-17 -81 8 -122.5t89 -41.5q15 0 34 6t39.5 16.5t40.5 24.5t38 31l29 -34
l-12 -34t-10 -34q-20 -14 -44.5 -26.5t-50 -22.5t-51.5 -15.5t-50 -5.5q-45 0 -86.5 14t-71 45t-41.5 80t3 118z" />
    <glyph glyph-name="d" unicode="d" horiz-adv-x="506" 
d="M268 31q-26 -19 -60 -32t-76 -13q-40 0 -75.5 15t-58.5 46t-31 79t6 114q13 66 43 114.5t69 81t82.5 48.5t84.5 16q70 0 108 -38q8 40 16.5 82t16 81t14 72.5t10.5 56.5q1 0 8 -1.5t15 -3t14.5 -3t8.5 -1.5l-2 1q15 -3 25 -3q5 0 10.5 0.5t10.5 1.5q1 0 9 1.5t17 3t17 3
t10 1.5q-12 -39 -28 -101t-33 -133.5t-33 -144t-28 -131.5q-9 -42 -16 -78t-15 -71q-2 -9 -5 -23t-6 -29.5t-6 -30.5t-5 -24q-1 0 -7 1.5t-13 3t-13.5 3t-7.5 1.5q-6 0 -16 2q-4 1 -9 1t-13 -2q-2 -1 -9.5 -2.5t-15.5 -3.5t-15 -3.5t-8 -1.5zM107 235q-10 -47 -8 -77.5
t12.5 -48.5t26.5 -25.5t34 -7.5q29 0 53 15.5t42.5 40.5t31.5 56.5t20 63.5q16 75 -3 114.5t-71 39.5q-26 0 -48 -13t-39.5 -36.5t-30.5 -54.5t-20 -67z" />
    <glyph glyph-name="e" unicode="e" horiz-adv-x="496" 
d="M17 230q13 62 39.5 112t64 85t86 54t105.5 19q55 0 92.5 -17t58 -46.5t25.5 -68.5t-4 -83q-1 -5 -3 -13.5t-4.5 -18.5t-5 -19t-3.5 -13h-21t-26.5 0.5t-26 0.5h-20.5q-33 1 -65 1.5t-64 0.5q-20 0 -40 -0.5t-40 -1.5h-14q-13 -60 12.5 -101t89.5 -41q15 0 34 6t39.5 16.5
t40.5 24.5t38 31l29 -34l-22 -68q-21 -14 -45 -26.5t-49.5 -22.5t-51.5 -15.5t-50 -5.5q-56 0 -98 18.5t-68 51.5t-35 77.5t2 96.5zM296 415q-23 0 -41.5 -9t-33.5 -24t-26 -34t-19 -38h5q21 -1 42.5 -1h41.5h41.5t42.5 1h10q2 18 1 37t-8 34t-20.5 24.5t-35.5 9.5z" />
    <glyph glyph-name="f" unicode="f" horiz-adv-x="302" 
d="M320 612q-24 18 -45 18q-26 0 -41.5 -19.5t-20.5 -44.5q-2 -11 -5 -34.5t-5 -46.5h23h17t23 0.5t23 0.5h17q-6 -17 -10.5 -31t-5.5 -15q0 -2 -0.5 -15.5t-1.5 -30.5h-13t-19.5 0.5t-19.5 0.5h-13q-8 0 -11.5 0.5t-6 1t-6 0.5h-11.5q-10 -48 -21 -100t-21.5 -105
t-20.5 -104.5t-18 -98.5q-23 5 -40.5 8t-26.5 3q-8 0 -26.5 -3t-44.5 -8q27 102 50.5 204t44.5 203q-4 0 -7.5 -0.5t-7.5 -0.5h-11t-17 -0.5t-17 -0.5h-10q5 17 10 30.5t5 15.5q1 1 1.5 15t2.5 31h13.5t19.5 -0.5t19.5 -0.5h13.5h5q9 28 22.5 58.5t31 59t38 54t42.5 43.5
q24 20 57.5 35.5t65.5 15.5q13 0 44 -11q-5 -25 -8 -35t-5 -18v1q-3 -11 -7 -29t-6 -29z" />
    <glyph glyph-name="g" unicode="g" horiz-adv-x="507" 
d="M78 322q9 45 32.5 78.5t56 55.5t72 33t80.5 11q12 0 23.5 -0.5t25.5 -1.5q6 -1 13 -1t15 -1h14q15 -2 27.5 -2.5t18.5 -0.5q26 0 55.5 3.5t55.5 9.5q-8 -20 -13 -36.5t-6 -19.5q-1 -4 -2.5 -18.5t-2.5 -31.5q-3 0 -12 1t-18.5 2t-18.5 2t-12 1h-6v1h-1q16 -40 7 -86
q-18 -83 -82 -129t-155 -46h-28q-5 1 -10.5 1h-11.5t-12.5 -4t-7.5 -10q-2 -10 2.5 -14.5t19.5 -5.5q13 -1 26 -1.5t25 -0.5h50q49 -2 81.5 -13.5t51 -31t23 -45.5t-1.5 -56q-8 -37 -30 -75t-58.5 -69t-87.5 -51t-116 -20q-50 0 -88.5 11t-62.5 32t-33 50.5t-1 67.5
q10 44 35 74.5t59 50.5q-10 14 -14 32.5t1 39.5q5 25 20 45t35 34q-25 23 -34 56.5t1 78.5zM320 -75q9 40 -14 57.5t-82 17.5q-55 0 -89.5 -17.5t-43.5 -61.5q-5 -24 -0.5 -41t17 -27.5t31 -15.5t41.5 -5t46 5.5t42 17t33 29t19 41.5zM356 327q9 44 -6.5 67.5t-47.5 23.5
q-37 0 -62.5 -26t-34.5 -70q-10 -45 3 -71t52 -26q19 0 35 8.5t28 22.5t20.5 32.5t12.5 38.5z" />
    <glyph glyph-name="h" unicode="h" horiz-adv-x="460" 
d="M55 455q7 30 14.5 67.5t14.5 77.5t13 79.5t10 74.5q25 -5 43 -8t28 -3t29.5 3t45.5 8q-11 -35 -21 -74.5l-20 -79t-18.5 -76t-14.5 -64.5q29 19 61.5 29.5t69.5 10.5q30 0 59.5 -8.5t50.5 -29.5t29 -57.5t-4 -92.5q-8 -39 -19 -81.5t-21 -88.5q-3 -15 -7 -35.5t-8 -41.5
t-7.5 -41t-6.5 -35q-24 5 -41 8t-25 3t-26 -3t-43 -8l28 110q8 32 15.5 63.5t14.5 65.5l12 57q12 54 -1.5 83t-46.5 29q-51 0 -81 -32t-42 -91q-6 -26 -12.5 -60.5t-13.5 -72.5t-13.5 -77.5t-10.5 -74.5q-23 5 -41.5 8t-28.5 3t-29 -3t-46 -8q11 35 21.5 74.5t20.5 79.5
t18.5 77.5t14.5 67.5z" />
    <glyph glyph-name="i" unicode="i" horiz-adv-x="157" 
d="M4 291q9 41 18 93.5t15 112.5q24 -5 42.5 -8t28.5 -3t29.5 3t45.5 8q-20 -60 -33 -112.5t-22 -93.5l-20 -96q-8 -41 -17.5 -94t-15.5 -112q-23 5 -41.5 8t-28.5 3q-9 0 -29 -3t-46 -8q20 59 33.5 112t21.5 94zM62 624q7 30 33.5 52t57.5 22t48.5 -22t10.5 -52
q-6 -31 -33 -53t-58 -22t-48 22t-11 53z" />
    <glyph glyph-name="j" unicode="j" horiz-adv-x="246" 
d="M111 254q12 55 23 119t18 124q24 -5 42 -8t28 -3t29.5 3t45.5 8q-19 -60 -32.5 -112.5t-22.5 -93.5l-20 -96q-6 -27 -12 -57.5t-11 -62.5q-5 -33 -10.5 -64.5t-11.5 -57.5q-5 -21 -9.5 -40.5t-11.5 -38t-18 -36.5t-28 -36q-31 -35 -81.5 -58t-115.5 -25l9 96
q14 -5 26.5 -7.5t15.5 -2.5q17 0 30.5 13t23.5 34t17.5 47t13.5 51zM177 624q3 15 12 28.5t21 23.5t27 16t30 6q31 0 48 -22t11 -52q-7 -31 -33.5 -53t-57.5 -22q-30 0 -47.5 22t-10.5 53z" />
    <glyph glyph-name="k" unicode="k" horiz-adv-x="472" 
d="M44 455l13.5 67.5t14.5 77.5t13 79.5t11 74.5q24 -5 42.5 -8t28.5 -3q9 0 28.5 3t45.5 8q-11 -35 -21 -74.5t-20 -79.5t-18.5 -77.5t-14.5 -67.5l-31 -145l3 3q9 6 32.5 25t54.5 45t65 55.5t63 56.5q13 -4 24 -6.5t19 -2.5q4 0 13.5 1t22.5 3h15t30 0.5t29.5 0.5h14.5
q-93 -64 -166.5 -116t-130.5 -99q19 -32 44 -69.5t50.5 -76.5t51 -76t46.5 -68q-47 6 -77.5 10t-41.5 4q-9 0 -24.5 -2t-35.5 -5q-13 23 -29 50t-33 54t-33.5 52.5t-30.5 46.5l-3 -11q-8 -40 -15.5 -87.5t-14.5 -108.5q-24 5 -42.5 8t-27.5 3t-28.5 -3t-45.5 -8
q10 35 20.5 74.5t20 79.5t18 77.5t14.5 67.5z" />
    <glyph glyph-name="l" unicode="l" horiz-adv-x="167" 
d="M37 455q7 30 14.5 67.5t14.5 77.5t13.5 79.5t10.5 74.5q24 -5 42.5 -8t28.5 -3t29.5 3t45.5 8q-11 -35 -21.5 -74.5t-20 -79.5t-18 -77.5t-15.5 -67.5l-35 -167l-13.5 -67.5t-15 -77.5t-14 -79.5t-10.5 -74.5q-23 5 -41.5 8t-28.5 3q-9 0 -29 -3t-46 -8q11 35 21.5 74.5
t20.5 79.5t18 77.5t14 67.5z" />
    <glyph glyph-name="m" unicode="m" horiz-adv-x="777" 
d="M58 291q9 41 17.5 93.5t15.5 112.5q24 -5 42.5 -8t28.5 -3q6 0 24.5 3t44.5 8q-2 -8 -4.5 -16t-5.5 -16q54 35 117 35q42 0 74.5 -18t49.5 -47q68 65 160 65q36 0 64.5 -9.5t46.5 -30.5t24 -54t-4 -79q-2 -13 -6 -27t-8 -31q-8 -26 -15.5 -60.5t-18.5 -85.5
q-3 -12 -6 -29t-6.5 -35.5t-6.5 -36.5t-5 -33q-22 5 -39 8t-28 3q-8 0 -28 -3.5t-47 -8.5q12 36 34 118.5t48 207.5q8 35 -2 59t-49 24q-26 0 -45.5 -9.5t-31.5 -22.5l1 1q-8 -8 -13 -16.5t-11 -28t-14 -55t-21 -97.5q-9 -40 -17 -88.5t-15 -91.5q-23 5 -41 8t-26 3
q-9 0 -28.5 -3t-45.5 -8q8 26 17 57.5t17.5 64.5t16 64.5t12.5 56.5q9 40 13.5 63.5t6 37t0.5 21t-4 15.5v-1q-4 12 -17 20.5t-29 8.5q-46 0 -75.5 -32t-41.5 -91l-17 -79q-8 -41 -17 -94t-16 -112q-23 5 -41 8t-28 3t-29.5 -3t-45.5 -8q18 59 32 112t22 94z" />
    <glyph glyph-name="n" unicode="n" horiz-adv-x="484" 
d="M336 285q12 54 -1.5 83t-46.5 29q-51 0 -81 -32t-42 -91l-17 -79q-8 -41 -17 -94t-16 -112q-23 5 -41.5 8t-28.5 3t-29.5 -3t-45.5 -8q20 59 33.5 112t21.5 94l20 96q9 41 17.5 93.5t14.5 112.5q25 -5 43 -8t28 -3q7 0 25 3t44 8q-2 -10 -4.5 -19t-4.5 -17q28 19 59.5 29
t67.5 10q30 0 59.5 -8.5t50.5 -29.5t29 -57.5t-4 -92.5q-8 -39 -19 -81.5t-21 -88.5q-3 -15 -7 -35.5t-8 -41.5t-7.5 -41t-6.5 -35q-24 5 -41 8t-25 3t-26 -3t-43 -8l28 110q8 32 15.5 63.5t14.5 65.5l12 57v0z" />
    <glyph glyph-name="o" unicode="o" horiz-adv-x="549" 
d="M23 243q15 70 47.5 119t74.5 80t90 44.5t93 13.5t87 -13.5t71 -44.5t41.5 -80t-2.5 -119q-15 -71 -48 -119.5t-75 -79.5t-90 -44.5t-93 -13.5t-86.5 13.5t-71 44.5t-41.5 79.5t3 119.5zM159 243q-7 -33 -8 -64t7 -55t27 -38.5t52 -14.5t58 14.5t43.5 38.5t31 55t19.5 64
t7.5 64t-7.5 55t-27 38.5t-52 14.5t-58 -14.5t-43.5 -38.5t-30.5 -55t-19 -64z" />
    <glyph glyph-name="p" unicode="p" horiz-adv-x="508" 
d="M54 195q7 32 14.5 71t14.5 79.5t13.5 79.5t10.5 72q25 -5 42.5 -8t27.5 -3q11 0 29.5 2.5t41.5 7.5q-4 -9 -5 -12.5t-1 -5.5q-1 -2 -0.5 -3t-1.5 -15q26 18 58.5 29t73.5 11q40 0 75.5 -14.5t59 -45.5t32 -79t-5.5 -115q-14 -66 -44.5 -114.5t-69.5 -81t-83 -48.5
t-85 -16q-72 0 -110 40q-6 -30 -13 -65.5t-13.5 -72t-12 -73t-9.5 -68.5q-24 5 -42.5 8t-28.5 3t-28.5 -3t-44.5 -8q10 35 20.5 74.5t20 79.5t18 77.5t14.5 67.5zM397 247q10 47 7.5 77.5t-12.5 48.5t-26 25.5t-34 7.5q-30 0 -54 -13t-42 -36t-30.5 -53.5t-19.5 -64.5
q-17 -81 2 -122t71 -41q26 0 48 13t39.5 36.5t30 54.5t20.5 67z" />
    <glyph glyph-name="q" unicode="q" horiz-adv-x="507" 
d="M451 46l-13.5 -67.5t-14.5 -77.5t-13.5 -79.5t-10.5 -74.5q-24 5 -42 8t-28 3t-29.5 -3t-45.5 -8q9 33 19 71t19.5 75.5t18 74t15.5 66.5q-65 -48 -135 -48q-39 0 -75.5 13t-62 43t-35 78.5t5.5 119.5q15 68 45.5 117t69 81t81 47t81.5 15q38 0 64 -8t44 -26q1 7 1.5 15
t0.5 16q24 -5 43 -8t30 -3q9 0 28 3t45 8q-10 -33 -20 -72t-20 -79.5t-18.5 -79.5t-15.5 -71zM372 252q6 30 6.5 58t-8 49t-25.5 34t-45 13q-18 0 -38 -7.5t-39.5 -27t-36 -53t-27.5 -85.5q-7 -33 -7 -62t7.5 -50t23 -33t39.5 -12q28 0 52 15.5t43.5 40t33.5 56t21 64.5z
" />
    <glyph glyph-name="r" unicode="r" horiz-adv-x="291" 
d="M277 354q-5 8 -15 14.5t-18 6.5q-32 0 -55.5 -29t-32.5 -72q-12 -58 -20.5 -98t-14.5 -71t-10 -58t-8 -59q-22 5 -39 8.5t-26 3.5t-27.5 -3t-44.5 -8q9 30 16.5 58.5t14.5 59.5t14 64t15 72l7 30q4 18 9 44t10.5 56t11 62t10.5 62q25 -5 41.5 -8t25.5 -3q6 0 25.5 4
t45.5 9q-4 -11 -7 -20.5t-5 -17.5q53 39 99 39q12 0 24.5 -3.5t38.5 -13.5q-17 -27 -25 -55t-13 -49z" />
    <glyph glyph-name="s" unicode="s" horiz-adv-x="369" 
d="M67 139q3 -9 9.5 -20t16 -20.5t21.5 -16t26 -6.5q25 0 46.5 14t27.5 41q4 23 -16.5 34.5t-48.5 20.5q-24 7 -47 16.5t-39.5 25t-24 41t1.5 64.5q7 36 25.5 66.5t46.5 53t64 35t79 12.5q29 0 50 -6.5t38 -13.5q3 -2 3.5 -2.5t4 -2t12.5 -4t29 -7.5q-9 -12 -19 -27.5
t-18.5 -31.5t-15.5 -29.5t-10 -21.5h-56q-2 22 -14.5 39.5t-34.5 17.5q-17 0 -36 -12t-24 -38q-3 -13 1.5 -22t13.5 -16t22 -11.5t27 -8.5q23 -7 46 -16t40 -25t24.5 -40.5t-0.5 -62.5q-7 -31 -27 -62t-50.5 -55.5t-69.5 -40t-83 -15.5q-48 0 -83 15t-61 32q6 9 13 22t14 28
t12.5 29.5t7.5 26.5h56z" />
    <glyph glyph-name="t" unicode="t" horiz-adv-x="283" 
d="M217 614h40q-11 -35 -20 -68.5t-18 -67.5q23 1 52 2.5t51 2.5q-11 -29 -13 -37.5t-3 -11.5q0 -2 -0.5 -4.5t-1 -7.5t-1 -13.5t-1.5 -23.5q-12 1 -27 1.5t-29.5 1t-27.5 1t-21 0.5q-4 -15 -9.5 -39.5t-12.5 -53t-13.5 -59t-12.5 -55.5q-4 -21 -7.5 -40.5t-2 -35.5t9 -25.5
t24.5 -9.5q5 0 26.5 4.5t45.5 11.5l-17 -79q-27 -9 -55 -15.5t-47 -6.5q-72 0 -98.5 38t-12.5 105q5 24 11 50t13.5 56.5t16.5 68t20 85.5h-67q6 16 11 30t5 16t1.5 17t3.5 32q20 -2 38 -3t25 -1v1q1 9 3.5 21t4.5 24.5t4.5 25t4.5 21.5z" />
    <glyph glyph-name="u" unicode="u" horiz-adv-x="485" 
d="M11 165q6 26 11 48t10 42q5 17 8 32l6 30q4 16 8.5 39t9.5 48t9.5 49.5t8.5 43.5q23 -5 40 -8t25 -3q9 0 27 3t44 8q-8 -27 -18 -63t-20 -75t-19.5 -78.5t-16.5 -73.5q-9 -42 -7.5 -62.5t8.5 -30.5q8 -11 21 -18t33 -7q30 0 52 13t34 31q9 13 14.5 23t11 27.5t12 47
t17.5 81.5q4 19 9 44t10 51t9.5 49.5t7.5 40.5q23 -5 39 -8t26 -3q9 0 27.5 3.5t43.5 8.5q-10 -36 -20 -76t-20 -81t-19 -81t-17 -77q-5 -20 -9.5 -46t-9.5 -52.5t-9 -52t-7 -44.5q-23 5 -39.5 8.5t-24.5 3.5q-34 0 -48 1t-13 3q0 2 16 6q0 1 0.5 2t0.5 2q1 7 0 7
q-2 0 -5 -2t-5 -2q-6 0 -3 10q-29 -20 -61.5 -30.5t-63.5 -10.5q-85 0 -123 47t-21 132z" />
    <glyph glyph-name="v" unicode="v" horiz-adv-x="491" 
d="M138 15q-2 8 -3 16l-2 16l-1 -2q-9 51 -19.5 109.5t-22 118t-24 118t-25.5 109.5q35 -6 58.5 -10t31.5 -4q11 0 26.5 2.5t35.5 6.5q9 -90 21.5 -170t28.5 -155q39 60 77 125.5t75 130.5q3 6 8.5 15.5t11.5 20t11.5 20t8.5 15.5q16 -5 27.5 -8t15.5 -3q5 0 27.5 6t56.5 15
q-5 -7 -15.5 -23t-22.5 -33.5t-22.5 -34t-15.5 -23.5q-32 -48 -65 -99.5l-66 -103t-64.5 -102.5t-58.5 -99q-15 5 -26 8t-16 3t-11 -1t-12 -3z" />
    <glyph glyph-name="w" unicode="w" horiz-adv-x="794" 
d="M141 16q-3 36 -10.5 91.5t-18 121t-23 135.5t-25.5 135q29 -5 51.5 -9t34.5 -4q9 0 26 2.5t38 7.5q5 -87 12.5 -160.5t19.5 -148.5q19 32 40.5 71t44 80t44.5 82t40 78q17 -5 29 -8.5t15 -3.5q4 0 16.5 3.5t30.5 8.5q5 -89 13.5 -163t19.5 -146q20 34 43.5 73.5t47 80
t46 80t41.5 73.5q16 -5 27.5 -7.5t17.5 -2.5q5 0 28 6.5t57 16.5q-93 -136 -174.5 -264t-150.5 -250q-2 0 -14.5 0.5t-14.5 0.5q-5 2 -8 3t-5 1q-4 0 -19 -3.5t-28 -7.5q-6 81 -14 156t-20 145q-18 -30 -38.5 -66.5t-42 -75.5t-42.5 -78t-40 -75h-5t-10.5 0.5t-10 0.5h-5.5
q-5 2 -9 3t-6 1t-7 -1t-10 -3q-2 0 -4.5 -0.5t-4.5 -0.5z" />
    <glyph glyph-name="x" unicode="x" horiz-adv-x="517" 
d="M217 494q34 -87 70 -157q38 38 76.5 79.5t71.5 78.5q14 -4 24.5 -6.5t17.5 -2.5q8 0 39 7t79 18q-28 -25 -63.5 -57.5t-72.5 -66.5t-72 -66.5t-61 -57.5q15 -30 34.5 -67t39.5 -75t40 -74.5t36 -64.5q-43 9 -72 13.5t-37 4.5q-11 0 -26.5 -2t-34.5 -5q-20 46 -39 84.5
t-41 85.5q-39 -42 -79.5 -87.5t-75.5 -84.5q-15 4 -25 6.5t-15 2.5q-6 0 -35.5 -7t-77.5 -20q28 27 64 62t72.5 71.5t71.5 71t61 61.5q-15 29 -34 64t-39 70.5t-38.5 69.5t-33.5 60q44 -8 72.5 -12.5t37.5 -4.5q11 0 27.5 2t37.5 6z" />
    <glyph glyph-name="y" unicode="y" horiz-adv-x="487" 
d="M-38 -264q72 89 124.5 159.5t89.5 127.5q-5 30 -13.5 73t-18.5 91t-20.5 98t-19.5 93t-16.5 75.5t-10.5 46.5q30 -6 52.5 -10t33.5 -4t27 2.5t36 6.5q8 -74 22.5 -156.5t29.5 -160.5q47 72 94.5 155t90.5 164q18 -5 30 -8t17 -3q4 0 27.5 6t59.5 15q-10 -14 -33.5 -48.5
t-55.5 -82t-70.5 -105.5t-79 -119t-80 -122t-73.5 -115t-60 -98t-40 -70q-18 5 -30.5 8t-17.5 3t-31 -6t-64 -16z" />
    <glyph glyph-name="z" unicode="z" horiz-adv-x="486" 
d="M-29 45q42 41 88 87t91 92.5t86.5 90t75.5 79.5q6 6 4 6l-7 -9l1 1q0 -1 2 3q-24 -2 -54.5 -3.5t-62 -3.5t-61.5 -4.5t-53 -4.5q11 25 16 38.5t6 19.5q1 4 1.5 18t2.5 40q51 -5 115 -7t147 -2q19 0 36 0.5t34.5 1.5t36.5 2.5t43 3.5l-11 -54q-47 -48 -98 -99.5
t-97.5 -99.5t-85.5 -88t-61 -64q27 0 54 1t58.5 3t70.5 5t90 8q-8 -19 -15 -35.5t-8 -21.5q-2 -5 -2 -21v-33h-19t-25.5 0.5t-26.5 1t-20 0.5q-42 2 -86 2.5t-86 0.5q-61 0 -121 -3q-5 0 -14.5 -0.5t-20 -1t-20.5 -0.5h-15z" />
    <glyph glyph-name="braceleft" unicode="{" horiz-adv-x="243" 
d="M-1 333q32 0 53 16.5t26 42.5l33 157q17 78 51.5 106.5t86.5 28.5h81l-19 -89h-57q-11 0 -17 -8.5t-13 -37.5l-32 -151q-8 -41 -26.5 -67t-47.5 -45q20 -18 27.5 -44.5t-0.5 -66.5l-32 -151q-6 -29 -3.5 -37.5t13.5 -8.5h57l-19 -89h-81q-26 0 -44.5 6.5t-29 22
t-12.5 41.5t6 65l33 157q6 26 -7.5 42t-45.5 16z" />
    <glyph glyph-name="bar" unicode="|" horiz-adv-x="144" 
d="M120 746h104l-207 -976h-103z" />
    <glyph glyph-name="braceright" unicode="}" horiz-adv-x="243" 
d="M243 239q-33 0 -53.5 -16t-26.5 -42l-33 -157q-17 -78 -51.5 -106.5t-85.5 -28.5h-81l19 89h57q10 0 16.5 8.5t12.5 37.5l32 151q8 41 26 67t48 44q-21 18 -28 44.5t1 67.5l32 151q7 29 4 37.5t-14 8.5h-57l19 89h81q26 0 45 -6.5t29.5 -22t12.5 -41.5t-7 -65l-33 -157
q-5 -26 8 -42.5t46 -16.5z" />
    <glyph glyph-name="asciitilde" unicode="~" horiz-adv-x="520" 
d="M12 239q40 49 78 77t90 28q33 0 53 -7.5t40 -18.5h-1q7 -4 14 -7t13 -7q17 -9 32 -16t32 -7q9 0 22 9t27 23.5t28.5 31.5t25.5 32l42 -94q-17 -19 -36 -37.5t-40 -33.5t-44 -24.5t-48 -9.5q-31 0 -56 10t-54 27q-20 11 -37 18t-30 7q-15 0 -29.5 -9.5t-28 -24
t-26.5 -31.5t-23 -33z" />
    <glyph glyph-name="exclamdown" unicode="&#xa1;" horiz-adv-x="175" 
d="M160 332q-2 -13 -4 -30.5t-4 -35.5t-4.5 -35.5l-4.5 -31.5q-3 -27 -7.5 -61.5t-9.5 -70.5t-9.5 -71t-8 -63t-6 -47t-3.5 -22q-9 -41 -35 -57t-54 -16q-14 0 -26 4t-20 12.5t-11.5 22.5t1.5 34q1 7 10.5 39t23 79t30 103.5t33.5 113.5q4 14 9.5 31.5t10.5 36t10 35.5t9 30
h70zM64 420q3 16 12.5 30.5t23 25.5t29.5 17.5t32 6.5t29 -6.5t22 -17.5t12 -25.5t0 -30.5t-12.5 -30.5t-23 -25.5t-29.5 -17.5t-32 -6.5t-29 6.5t-22 17.5t-12 25.5t0 30.5z" />
    <glyph glyph-name="cent" unicode="&#xa2;" horiz-adv-x="480" 
d="M21 243q12 56 37 99t59 73.5t74 50t82 27.5q4 19 7 46.5t7 65.5q43 -16 54 -16q5 0 21 4t39 12q-12 -36 -20 -62t-13 -45q47 -5 83.5 -22t55.5 -38q-14 -21 -27 -44.5t-24 -49.5h-45q-8 19 -23 39.5t-38 28.5q-9 -43 -17 -83t-16 -79.5t-16.5 -80t-17.5 -85.5q29 9 63 29
t61 45l29 -34q-13 -33 -23 -68q-32 -22 -72.5 -40t-79.5 -25q-5 -23 -8.5 -53t-8.5 -62q-20 7 -33.5 11t-18.5 4t-20.5 -4t-38.5 -12q10 31 18.5 62.5t14.5 54.5q-37 7 -69 25t-53 48.5t-28 74.5t5 103zM254 400q-38 -20 -62 -61t-35 -95q-24 -112 32 -148z" />
    <glyph glyph-name="sterling" unicode="&#xa3;" horiz-adv-x="507" 
d="M-1 110q30 0 51 9t35.5 25.5t23.5 39.5t15 52q3 16 4.5 33.5t3.5 34.5q-25 -1 -53.5 -1h-45.5q6 14 10 22.5t5.5 13.5t2.5 7.5t1 5.5q1 3 1 11.5t-2 42.5q38 -7 56.5 -9t32.5 -3l3.5 17.5l3.5 17.5q15 72 45 119t67.5 75t78 39.5t75.5 11.5q40 0 79 -19t58 -60
q-19 -18 -40.5 -40.5t-43.5 -50.5l-27 33q-2 23 -14 35.5t-31 12.5q-38 0 -66.5 -28t-37.5 -69q-6 -29 -9.5 -51t-6.5 -43q21 0 38.5 0.5t36.5 2.5q6 0 16.5 0.5t21.5 1.5t21 1.5t15 0.5q-7 -17 -11.5 -31.5t-5.5 -17.5q1 1 -1 -14.5t-4 -34.5h-41q-16 0 -27 0.5t-21.5 1
t-22 0.5h-28.5l-3 -15q-11 -51 -37.5 -98t-55.5 -81q48 1 94.5 3.5t91.5 4.5q8 0 21 0.5t27.5 1.5t27 1.5t20.5 0.5q-10 -26 -14.5 -42.5t-6.5 -23.5q-5 -15 -6 -62h-19t-25 0.5t-25 1t-18 0.5q-81 3 -161 3q-79 0 -157 -3h1q-6 0 -18 -0.5t-24.5 -1t-24.5 -0.5h-19
q7 19 12 35.5t7 21.5q1 5 2.5 21.5t4.5 36.5h43z" />
    <glyph glyph-name="currency" unicode="&#xa4;" horiz-adv-x="574" 
d="M536 597l57 -72l-63 -53q12 -29 16.5 -66.5t-3.5 -75.5q-18 -78 -72 -140l40 -52l-88 -74l-41 52q-70 -42 -150 -42q-81 0 -133 43q-17 -14 -35 -29t-29 -24l-55 74l62 54q-14 29 -17 64t6 74q8 38 26.5 74.5t44.5 66.5q-10 14 -21.5 29t-19.5 25l87 72l42 -54
q36 23 73 33t78 10q77 0 131 -43zM440 330q7 32 1 60.5t-22 50t-41.5 34t-57.5 12.5q-33 0 -63.5 -12.5t-55.5 -34t-42.5 -50t-24.5 -60.5q-7 -33 -1.5 -61.5t21.5 -50t41 -34t58 -12.5q32 0 62.5 12.5t56 34t43.5 50t25 61.5z" />
    <glyph glyph-name="yen" unicode="&#xa5;" horiz-adv-x="549" 
d="M195 305q-20 0 -39.5 -0.5t-39.5 -1.5h-17.5t-24.5 -0.5t-24.5 -0.5h-17.5q5 17 10.5 31t5.5 16q1 2 1.5 16.5t2.5 31.5q37 -1 64.5 -2t64.5 -1q-6 15 -11.5 30t-12.5 30q-10 24 -23.5 55.5t-27.5 65.5t-28 65.5t-24 55.5q38 -7 65 -10.5t38 -3.5q10 0 27 2t40 6
q4 -19 13 -48t20.5 -63t25 -69.5t25.5 -68.5q51 60 101.5 121.5t101.5 128.5q14 -5 25.5 -7t17.5 -2q5 0 34 6.5t73 17.5q-23 -23 -58.5 -61t-75.5 -81.5t-80.5 -88t-72.5 -81.5q34 1 70 1.5t62 1.5q-7 -17 -11.5 -31.5t-5.5 -16.5q0 -2 -1 -16t-2 -31h-19t-24.5 0.5
t-24.5 0.5h-19q-14 0 -22.5 0.5t-16 1t-16.5 0.5h-22l-6 -25q39 0 85 0.5t81 1.5q-7 -17 -12 -31.5t-6 -16.5q0 -3 -1 -17.5t-2 -31.5q-41 2 -82.5 4t-81.5 2q-10 -51 -19 -106.5t-15 -95.5q-23 5 -41.5 8t-28.5 3t-29.5 -3t-46.5 -8q14 49 28 100.5t25 101.5
q-19 0 -40.5 -0.5t-43.5 -1.5t-42.5 -1.5t-36.5 -1.5q5 17 10.5 31.5t5.5 16.5q1 2 2 16.5t3 31.5q38 -1 79.5 -1.5t81.5 -0.5z" />
    <glyph glyph-name="brokenbar" unicode="&#xa6;" horiz-adv-x="130" 
d="M8 216h104l-81 -377h-103zM106 677h104l-81 -378h-104z" />
    <glyph glyph-name="section" unicode="&#xa7;" horiz-adv-x="437" 
d="M360 532q-2 30 -16.5 53.5t-43.5 23.5q-28 0 -55.5 -17.5t-34.5 -47.5q-3 -17 3 -29.5t19 -23t30.5 -18.5t35.5 -16q27 -12 53 -24.5t44.5 -31.5t27 -45.5t0.5 -65.5q-8 -38 -28.5 -67.5t-41.5 -51.5q17 -29 7 -83q-9 -39 -31 -76t-56.5 -66t-79 -46.5t-98.5 -17.5
q-19 0 -40 4.5t-40.5 12t-37 18t-30.5 21.5q10 22 21.5 56.5t17.5 60.5h57q2 -11 7.5 -25t17 -27.5t29 -22.5t43.5 -9q19 0 37.5 7t33.5 18.5t25 26t13 29.5q3 16 -3.5 28t-19.5 21.5t-31 17.5t-37 16q-29 13 -57.5 27t-49 34.5t-30 50t-0.5 72.5q8 41 32.5 71.5t47.5 49.5
q-5 14 -5 31.5t6 47.5q7 34 26.5 66.5t48.5 57.5t68 40t87 15q26 0 48 -7.5t39.5 -19.5t31 -27.5t24.5 -31.5q-17 -13 -34 -36.5t-25 -43.5h-56zM315 250q5 23 -7.5 37.5t-42.5 29.5q-50 24 -79.5 40t-41.5 24q-6 -7 -11 -15t-7 -17q-5 -23 10.5 -39.5t55.5 -35.5
q30 -14 48.5 -22.5t30 -14t18.5 -9.5t13 -9q9 13 13 31z" />
    <glyph glyph-name="dieresis" unicode="&#xa8;" horiz-adv-x="376" 
d="M204 614q6 31 32.5 53t56.5 22q31 0 48.5 -22t11.5 -53q-7 -30 -33.5 -52t-57.5 -22q-30 0 -47.5 22t-10.5 52zM22 614q6 31 32.5 53t57.5 22q30 0 47.5 -22t11.5 -53q-7 -30 -33.5 -52t-56.5 -22q-31 0 -48.5 22t-10.5 52z" />
    <glyph glyph-name="copyright" unicode="&#xa9;" horiz-adv-x="775" 
d="M30 341q16 74 57.5 139t100.5 113.5t130 76.5t145 28t133 -28t97.5 -76.5t52.5 -113.5t-2 -139t-57.5 -139.5t-100.5 -114t-130 -76.5t-145 -28t-133 28t-97 76.5t-52 114t1 139.5zM650 341q11 56 0.5 105.5t-39.5 85.5q-10 -17 -18.5 -35.5t-13.5 -37.5l-44 -2
q-5 6 -12 14t-17.5 15.5t-24.5 13t-33 5.5q-27 0 -54 -7.5t-51 -26t-43 -51t-29 -82.5q-7 -33 -4 -61.5t16.5 -49.5t36.5 -33t56 -12q16 0 34 5t34.5 12.5t31 16.5t25.5 17l56 -2q-18 -29 -25.5 -49t-10.5 -31q-13 -7 -32.5 -16t-42.5 -16.5t-48 -12.5t-49 -5
q-54 0 -95.5 17t-67 48t-34.5 75t3 98q13 61 42.5 107.5t70.5 77.5t91 46.5t103 15.5q34 0 63.5 -6t54.5 -15q-27 20 -61.5 32t-74.5 12q-55 0 -107.5 -21t-96 -57.5t-74 -85.5t-42.5 -104q-12 -56 -2 -104.5t38 -85t71.5 -57.5t98.5 -21t107.5 21t95.5 57.5t74 85t43 104.5
z" />
    <glyph glyph-name="ordfeminine" unicode="&#xaa;" horiz-adv-x="341" 
d="M70 636q28 13 61 25.5t76 12.5q20 0 41 -4.5t36.5 -17t23 -35t-0.5 -58.5q-4 -19 -10 -41.5t-11 -42.5q-3 -16 -6 -28.5t-5 -21.5l-1 -1q8 3 20 8.5t21 10.5l-16 -77q-14 -8 -35 -15t-41 -7q-33 0 -46 22q-38 -22 -86 -22q-20 0 -38.5 4.5t-32.5 15.5t-20 29.5t0 45.5
q8 45 37.5 69t97.5 35q26 5 39.5 7t18.5 2t4 -1q6 27 -3.5 34.5t-24.5 7.5q-19 0 -35 -12.5t-25 -24.5h-56zM183 481q-2 -1 -5.5 -0.5t-5.5 -0.5q-20 -4 -38 -10t-22 -25q-2 -10 3.5 -15t15.5 -5q11 0 22.5 6.5t21.5 14.5z" />
    <glyph glyph-name="guillemotleft" unicode="&#xab;" horiz-adv-x="361" 
d="M199 467q6 -20 24 -36.5t44 -19.5l-154 -170q8 -19 18 -42t20 -46.5t19.5 -45.5t16.5 -40q-23 -2 -49 -20t-40 -41l-98 236zM332 467q7 -20 24.5 -36.5t43.5 -19.5l-154 -170q9 -19 19 -42t20 -46.5t19 -45.5t17 -40q-12 -1 -24.5 -6.5t-25 -14t-23 -19t-17.5 -21.5
l-99 236z" />
    <glyph glyph-name="logicalnot" unicode="&#xac;" horiz-adv-x="552" 
d="M422 298h-418l22 104h522l-65 -303h-104z" />
    <glyph glyph-name="registered" unicode="&#xae;" horiz-adv-x="775" 
d="M30 341q16 74 57.5 139t100.5 113.5t130 76.5t145 28t133 -28t97.5 -76.5t52.5 -113.5t-2 -139t-57.5 -139.5t-100.5 -114t-130 -76.5t-145 -28t-133 28t-97 76.5t-52 114t1 139.5zM458 301q10 -18 21.5 -38t23 -38.5t23 -35t20.5 -27.5q39 36 66 82t38 97q12 55 1.5 104
t-38 85.5t-71 57.5t-98.5 21q-67 0 -129 -31q42 -3 68 -3q9 0 17.5 0.5t18.5 1.5q9 0 19 1t20 1q30 0 54.5 -7t41 -22t23 -37.5t0.5 -52.5q-6 -27 -19.5 -48.5t-32 -37.5t-39.5 -27t-42 -18q3 -6 7 -13.5t7 -14.5zM124 341q-14 -66 1.5 -122t57.5 -93q4 14 7 27t5 17v-1
q16 51 27 101l33 157q5 26 9.5 60t9.5 69q-57 -37 -96.5 -93t-53.5 -122zM240 118q-5 0 -37 -8q52 -37 127 -37q41 0 80.5 11.5t74.5 32.5q-3 1 -7 1q-7 0 -20 -2.5t-29 -5.5q-22 46 -46 95.5t-51 97.5l-7 -29q-6 -30 -12.5 -72t-14.5 -98q-22 6 -37 10t-21 4zM350 388h11
q36 0 65 15t37 50q5 23 -8.5 36t-39.5 13h-18h-8.5t-11.5 -2q-5 -16 -9 -31.5t-8 -30.5z" />
    <glyph glyph-name="macron" unicode="&#xaf;" horiz-adv-x="360" 
d="M37 659h307l-22 -103h-307z" />
    <glyph glyph-name="degree" unicode="&#xb0;" horiz-adv-x="350" 
d="M13 513q7 33 25.5 62.5t45 51.5t59 34.5t65.5 12.5t59.5 -12.5t44 -34.5t24 -51.5t-0.5 -62.5t-26 -62.5t-45.5 -51.5t-59 -34.5t-65.5 -12.5t-59.5 12.5t-43.5 34.5t-23.5 51.5t0.5 62.5zM102 513q-7 -30 9.5 -51t46.5 -21t55.5 21t32.5 51q6 30 -10.5 51t-46.5 21
t-55.5 -21t-31.5 -51z" />
    <glyph glyph-name="plusminus" unicode="&#xb1;" horiz-adv-x="522" 
d="M-33 103h208l32 148h-208l20 103h209l36 167h104l-36 -167h209l-21 -103h-209l-32 -148h209l-22 -103h-521z" />
    <glyph glyph-name="twosuperior" unicode="&#xb2;" horiz-adv-x="337" 
d="M58 592q38 43 77 62.5t84 19.5q31 0 56.5 -7.5t42 -22.5t22.5 -38.5t-1 -56.5q-5 -24 -14.5 -44t-29.5 -43t-54.5 -52.5t-89.5 -71.5q41 1 83.5 2t70.5 3q-20 -44 -22 -52q-1 -3 0 -14.5t3 -39.5q-16 1 -37.5 2t-44.5 2t-45.5 2t-38.5 1t-36.5 -0.5t-41.5 -1.5t-41.5 -2
t-36.5 -2l12 54q11 9 26 21t26 20q41 33 74.5 60t58 51.5t40.5 49t22 52.5q5 26 -3.5 38.5t-24.5 12.5q-12 0 -22.5 -6t-19 -15t-14.5 -19t-9 -18l-42 -2z" />
    <glyph glyph-name="threesuperior" unicode="&#xb3;" horiz-adv-x="325" 
d="M2 348h38q8 -11 23.5 -21.5t36.5 -10.5q31 0 52.5 17.5t27.5 43.5q6 29 -6.5 40.5t-29.5 11.5q-8 0 -33 -6t-51 -14q28 51 29 58q1 5 0 22t-5 47q32 -16 47.5 -22.5t20.5 -6.5q23 0 34.5 18t15.5 36q4 19 -4.5 27.5t-22.5 8.5q-15 0 -31 -12.5t-25 -27.5l-39 -1l-19 64
q25 18 60.5 36t83.5 18q57 0 89.5 -26.5t21.5 -81.5q-6 -29 -20.5 -50t-34.5 -36q21 -13 32.5 -35.5t3.5 -61.5q-7 -32 -25.5 -58.5t-46.5 -45.5t-63.5 -29.5t-76.5 -10.5q-37 0 -66 9.5t-53 22.5z" />
    <glyph glyph-name="acute" unicode="&#xb4;" horiz-adv-x="282" 
d="M168 699q17 14 33.5 22t33.5 8q9 0 18 -3.5t16.5 -10.5t11 -18t0.5 -25q-6 -27 -24.5 -41.5t-35.5 -24.5q-38 -22 -81 -46t-81 -45h-110z" />
    <glyph glyph-name="mu" unicode="&#xb5;" horiz-adv-x="461" 
d="M183 -14q-15 0 -29.5 1.5t-26.5 6.5q-12 -57 -22 -115.5t-17 -132.5l-42.5 8.5t-25.5 3.5t-25.5 -3t-42.5 -8q3 16 8 37t9.5 42.5t9.5 41t8 33.5q9 42 18.5 84.5t20.5 95.5q14 67 25 122.5t21 105.5q4 20 9.5 45t10.5 50.5t10 50t9 42.5q23 -5 40 -8t25 -3q9 0 27 3t43 8
q-8 -27 -17.5 -63t-19.5 -75t-19.5 -78.5t-16.5 -73.5q-9 -42 -7.5 -62.5t8.5 -30.5q8 -11 20.5 -18t32.5 -7q30 0 52.5 13t34.5 31q9 13 14.5 23t11 27.5t12 47t17.5 81.5q4 19 9 44t10 51t9 49.5t7 40.5q23 -5 39.5 -8t26.5 -3q9 0 27.5 3.5t42.5 8.5q-10 -36 -20 -76
t-20 -81t-19 -81t-17 -77q-4 -20 -9 -46t-9.5 -52.5t-9 -52t-7.5 -44.5q-22 5 -38.5 8.5t-24.5 3.5q-34 0 -48 1t-14 3q1 3 17 6q0 3 1 4q1 7 -1 7t-5 -2t-5 -2q-4 0 -3 10q-29 -20 -61 -30.5t-64 -10.5z" />
    <glyph glyph-name="paragraph" unicode="&#xb6;" horiz-adv-x="496" 
d="M386 583h-4l-146 -689h-88l79 375q-58 3 -97.5 20t-62 45t-28 66.5t4.5 83.5q21 100 87.5 149t164.5 49h268l-15 -73l-72 -12l-149 -703h-88z" />
    <glyph glyph-name="periodcentered" unicode="&#xb7;" horiz-adv-x="183" 
d="M7 309q3 18 13 33t23.5 26t30 17.5t33.5 6.5q35 0 54 -24t12 -59q-8 -35 -37 -58.5t-64 -23.5t-53.5 23.5t-11.5 58.5z" />
    <glyph glyph-name="cedilla" unicode="&#xb8;" horiz-adv-x="246" 
d="M17 -98q17 -8 38 -13.5t40 -5.5q11 0 20 3t10 8q2 5 -4 7t-14 2q-11 0 -22.5 -4t-22.5 -10l-28 35l78 131h89l-34 -62q42 -4 60.5 -29t10.5 -64q-5 -26 -20.5 -46t-37 -33.5t-48 -20t-53.5 -6.5q-32 0 -62 9.5t-50 17.5z" />
    <glyph glyph-name="onesuperior" unicode="&#xb9;" horiz-adv-x="229" 
d="M119 554q-17 -8 -32.5 -15.5t-26.5 -12.5q-5 11 -12 21.5t-15 15.5l10 47q45 14 90.5 30.5t79.5 33.5h48q-5 -18 -11 -40t-12 -45t-12 -45.5t-10 -40.5l-19 -92q-4 -18 -8 -41.5t-8 -48.5t-8 -49l-7 -42q-45 14 -58 14q-14 0 -65 -14q5 19 11.5 43t13 48.5t12 48
t9.5 41.5z" />
    <glyph glyph-name="ordmasculine" unicode="&#xba;" horiz-adv-x="395" 
d="M21 508q10 46 32 77.5t51 51t62.5 28.5t66.5 9q31 0 60 -9t49.5 -28.5t29.5 -51t-1 -77.5q-9 -45 -31.5 -76.5t-51.5 -51t-62 -28t-64 -8.5q-33 0 -62.5 8.5t-50 28t-29 51t0.5 76.5zM137 508q-3 -16 -3.5 -31.5t4 -28t14.5 -20t27 -7.5q16 0 28.5 7.5t22 20t16 28
t9.5 31.5q4 17 4.5 33t-4 28.5t-14 20t-25.5 7.5q-17 0 -30 -7.5t-22.5 -20t-16 -28.5t-10.5 -33z" />
    <glyph glyph-name="guillemotright" unicode="&#xbb;" horiz-adv-x="362" 
d="M173 414q23 3 49 21t41 41l98 -237l-199 -224q-7 20 -24.5 36t-43.5 20l153 169zM39 414q23 3 49.5 21t41.5 41l98 -237l-199 -224q-8 20 -24.5 36t-42.5 20l152 169z" />
    <glyph glyph-name="onequarter" unicode="&#xbc;" horiz-adv-x="762" 
d="M355 153q31 32 65.5 67t69.5 71t69.5 70.5l66.5 66.5q10 -2 19 -4.5t14 -2.5q3 0 20 4t37 10q-17 -60 -31.5 -122t-27.5 -121q14 2 30.5 5t36.5 8q-11 -20 -18.5 -38t-8.5 -21q-1 -5 -1 -21t2 -34l-27.5 5t-33.5 3q-5 -28 -10 -60.5t-8 -52.5q-23 6 -37.5 10t-19.5 4
q-6 0 -23 -4t-42 -10q13 42 20.5 67.5t11.5 45.5q-26 0 -54 -0.5t-53.5 -1.5t-46.5 -1.5t-33 -1.5zM519 694q14 -7 23 -10t11 -3t22 6.5t52 18.5l-444 -740q-31 13 -34 13q-2 0 -22 -6.5t-52 -18.5zM158 554q-17 -8 -33 -15.5t-27 -12.5q-4 11 -11.5 21.5t-15.5 15.5l10 47
q45 14 90.5 30.5t80.5 33.5h48q-5 -18 -11.5 -40t-12.5 -45t-12 -45.5t-10 -40.5l-19 -92q-4 -18 -8 -41.5t-8 -48.5t-7.5 -49t-6.5 -42q-47 14 -59 14t-65 -14q6 19 12.5 43t13 48.5t12 48t9.5 41.5zM564 262q-17 -17 -34.5 -35t-34.5 -38h54z" />
    <glyph glyph-name="onehalf" unicode="&#xbd;" horiz-adv-x="749" 
d="M439 348q38 43 77.5 62.5t84.5 19.5q31 0 56.5 -7.5t42 -22.5t22.5 -38.5t-1 -56.5q-5 -24 -14.5 -44t-29.5 -43t-55 -52.5t-90 -71.5q42 1 85 2t70 3q-22 -47 -23 -52q-1 -3 0.5 -14.5t3.5 -39.5q-16 1 -38 2t-45 2t-45 2t-38 1t-36.5 -0.5t-42 -1.5t-42 -2t-36.5 -2
l12 54q11 9 26.5 21t25.5 20q42 33 75.5 60t58 51.5t40.5 49t22 52.5q5 26 -4 38.5t-25 12.5q-12 0 -22.5 -6t-18.5 -15t-14 -19t-9 -18l-42 -2zM516 694q14 -7 23 -10t11 -3t21.5 6.5t52.5 18.5l-444 -740q-15 6 -23.5 9.5t-10.5 3.5t-22 -6.5t-52 -18.5zM157 554
q-17 -8 -32.5 -15.5t-26.5 -12.5q-5 11 -12 21.5t-15 15.5l10 47q45 14 90.5 30.5t79.5 33.5h48q-5 -18 -11 -40t-12 -45t-12 -45.5t-10 -40.5l-19 -92q-4 -18 -8 -41.5t-8 -48.5t-8 -49l-7 -42q-45 14 -58 14q-14 0 -65 -14q6 19 12.5 43t12.5 48.5t11.5 48t9.5 41.5z" />
    <glyph glyph-name="threequarters" unicode="&#xbe;" horiz-adv-x="803" 
d="M393 153q31 32 65.5 67t69.5 71t69.5 70.5l66.5 66.5q10 -2 19 -4.5t14 -2.5q3 0 20 4t37 10q-17 -60 -31.5 -122t-27.5 -121q14 2 30.5 5t36.5 8q-11 -20 -18.5 -38t-8.5 -21q-1 -5 -0.5 -21t1.5 -34l-27.5 5t-33.5 3q-5 -28 -10 -60.5t-8 -52.5q-23 6 -37.5 10t-19.5 4
q-6 0 -22.5 -4t-42.5 -10q13 42 21 67.5t12 45.5q-26 0 -54 -0.5t-53.5 -1.5t-47 -1.5t-33.5 -1.5zM38 348h38q8 -11 24 -21.5t37 -10.5q31 0 52.5 17.5t26.5 43.5q7 29 -5.5 40.5t-29.5 11.5q-8 0 -33.5 -6t-51.5 -14q15 26 22 40t8 18q1 5 0 22t-6 47q32 -16 48 -22.5
t21 -6.5q23 0 34 18t16 36q4 19 -4.5 27.5t-22.5 8.5q-15 0 -31 -12.5t-25 -27.5l-39 -1l-19 64q25 18 60.5 36t83.5 18q57 0 89.5 -26.5t21.5 -81.5q-7 -29 -21 -50t-35 -36q22 -13 33.5 -35.5t3.5 -61.5q-7 -32 -26 -58.5t-46.5 -45.5t-63 -29.5t-76.5 -10.5
q-37 0 -67 9.5t-53 22.5zM568 694q29 -13 34 -13q2 0 22 6.5t52 18.5l-444 -740q-31 13 -34 13q-2 0 -22 -6.5t-52 -18.5zM603 262q-36 -34 -70 -73h55z" />
    <glyph glyph-name="questiondown" unicode="&#xbf;" horiz-adv-x="286" 
d="M84 262q13 11 25 27.5t15 27.5q17 5 32 8.5t29 3.5q15 0 35 -7t36.5 -22t25.5 -40t2 -61q-6 -29 -19 -52.5t-30.5 -43.5t-38 -38t-41.5 -35q-31 -25 -56.5 -49.5t-31.5 -52.5q-5 -22 9 -35t33 -13q18 0 50.5 22.5t70.5 59.5l-12 -128q-29 -16 -62.5 -29.5t-71.5 -13.5
q-39 0 -67 12t-44.5 32.5t-21 47.5t1.5 57q6 31 20.5 56.5t33 47.5t40.5 41t44 37q30 26 55 50t30 49q2 9 -1.5 18t-13.5 9q-5 0 -17 -5t-18 -9zM139 420q3 16 12.5 30.5t23 25.5t29.5 17.5t32 6.5t29 -6.5t22 -17.5t12 -25.5t0 -30.5t-12.5 -30.5t-23 -25.5t-29.5 -17.5
t-32 -6.5t-29 6.5t-22 17.5t-12 25.5t0 30.5z" />
    <glyph glyph-name="Agrave" unicode="&#xc0;" horiz-adv-x="662" 
d="M279 764q-13 10 -25 25t-6 42q3 14 11 25t18.5 18t21 10.5t19.5 3.5q17 0 30 -8.5t24 -22.5l143 -184h-86q8 -36 16.5 -78.5t16.5 -80.5q15 -71 32.5 -152t34 -155.5t30 -133.5t21.5 -87q-36 6 -61 10t-34 4q-11 0 -29.5 -2.5t-41.5 -5.5q-3 54 -12.5 107.5t-19.5 104.5
q-2 15 -3.5 20.5t-4.5 18.5q-25 1 -50 1h-51h-25h-21.5t-21.5 -0.5t-25 -0.5q-41 -66 -78.5 -132t-64.5 -121q-18 5 -31.5 7.5t-19.5 2.5t-29 -4.5t-57 -12.5q54 81 114.5 172.5t121.5 185t120.5 185t112.5 172.5zM328 477q-11 -18 -21.5 -33.5t-21 -31.5t-22 -34t-24.5 -39
h10q12 -1 24 -1h24q17 0 23.5 -0.5t14.5 -0.5q5 0 10.5 0.5t13.5 0.5z" />
    <glyph glyph-name="Aacute" unicode="&#xc1;" horiz-adv-x="663" 
d="M468 857q17 14 34 22.5t34 8.5q9 0 18 -3.5t16.5 -10.5t11 -18t0.5 -25q-6 -27 -24.5 -42t-36.5 -25q-28 -16 -58 -32.5t-59 -33.5h11q8 -38 18.5 -88.5t19.5 -95.5q15 -71 32.5 -152t34 -155.5t30 -133.5t21.5 -87q-36 6 -61 10t-34 4q-11 0 -29.5 -2.5t-41.5 -5.5
q-3 54 -12.5 107.5t-19.5 104.5q-2 15 -3.5 20.5t-4.5 18.5q-25 1 -50 1h-51h-25h-21.5t-21.5 -0.5t-25 -0.5q-41 -66 -78.5 -132t-64.5 -121q-18 5 -31.5 7.5t-19.5 2.5t-29 -4.5t-57 -12.5q52 78 110 165.5t117 177.5t117 178.5t109 168.5h-96zM319 477
q-11 -18 -21.5 -33.5t-21 -31.5t-22 -34t-24.5 -39h10q12 -1 24 -1h24q17 0 23.5 -0.5t14.5 -0.5q5 0 10.5 0.5t13.5 0.5z" />
    <glyph glyph-name="Acircumflex" unicode="&#xc2;" horiz-adv-x="668" 
d="M423 698q8 -38 18.5 -88.5t19.5 -95.5q15 -71 32.5 -152t34 -155.5t30 -133.5t21.5 -87q-37 6 -61.5 10t-33.5 4q-11 0 -29.5 -2.5t-41.5 -5.5q-4 54 -13 107.5t-19 104.5q-3 15 -4 20.5t-5 18.5q-24 1 -49 1h-51h-25h-21.5t-21.5 -0.5t-26 -0.5q-40 -66 -77.5 -132
t-64.5 -121q-18 5 -31.5 7.5t-19.5 2.5t-29.5 -4.5t-56.5 -12.5q54 81 114.5 172.5t121.5 185t120.5 185t112.5 172.5h55zM402 761q-29 -23 -59 -45t-58 -43h-100l199 209h89l111 -209h-100zM327 477q-11 -18 -21.5 -33.5t-21 -31.5t-22 -34t-24.5 -39h10q12 -1 24 -1h24
q17 0 23 -0.5t14 -0.5q5 0 11 0.5t14 0.5z" />
    <glyph glyph-name="Atilde" unicode="&#xc3;" horiz-adv-x="662" 
d="M205 696q10 25 25.5 52t36 48.5t45.5 35.5t54 14q20 0 34 -5t40 -19q20 -11 28.5 -14.5t16.5 -3.5q10 0 21 14t20 32h80q-6 -17 -19.5 -43.5t-34.5 -51t-48.5 -42t-62.5 -17.5h-9t-9 1q8 -38 18.5 -88t19.5 -95q15 -71 32.5 -152t34 -155.5t30 -133.5t21.5 -87
q-36 6 -61 10t-34 4q-11 0 -29.5 -2.5t-41.5 -5.5q-3 54 -12.5 107.5t-19.5 104.5q-2 15 -3.5 20.5t-4.5 18.5q-25 1 -50 1h-51h-25h-21.5t-21.5 -0.5t-25 -0.5q-41 -66 -78.5 -132t-64.5 -121q-18 5 -31.5 7.5t-19.5 2.5t-29 -4.5t-57 -12.5q54 81 114.5 172.5t121.5 185
t120.5 185t112.5 172.5h52q-11 2 -24.5 7.5t-29.5 15.5q-17 11 -26 14.5t-17 3.5q-9 0 -16.5 -9t-21.5 -34h-80zM327 477q-11 -18 -21.5 -33.5t-21 -31.5t-22 -34t-24.5 -39h10q12 -1 24 -1h24q17 0 23.5 -0.5t14.5 -0.5q5 0 10.5 0.5t13.5 0.5z" />
    <glyph glyph-name="Adieresis" unicode="&#xc4;" horiz-adv-x="661" 
d="M424 698q8 -38 18 -88.5t20 -95.5q15 -71 32 -152t33.5 -155.5t30 -133.5t21.5 -87q-36 6 -61 10t-34 4q-11 0 -29 -2.5t-41 -5.5q-4 54 -13.5 107.5t-18.5 104.5q-3 15 -4.5 20.5t-4.5 18.5q-25 1 -50 1h-51h-25h-21.5t-21.5 -0.5t-25 -0.5q-41 -66 -78 -132t-65 -121
q-18 5 -31.5 7.5t-19.5 2.5t-29 -4.5t-56 -12.5q54 81 114.5 172.5t121.5 185t120.5 185t112.5 172.5h55zM241 773q6 30 32.5 52t57.5 22q30 0 47.5 -22t11.5 -52q-3 -15 -12 -29t-21.5 -24t-27 -16t-29.5 -6q-31 0 -48.5 22t-10.5 53zM423 773q6 30 32.5 52t56.5 22
q31 0 48.5 -22t11.5 -52q-7 -31 -33.5 -53t-57.5 -22q-30 0 -47.5 22t-10.5 53zM328 477q-11 -18 -21.5 -33.5t-21 -31.5t-22.5 -34t-25 -39h10q12 -1 24 -1h24q17 0 23.5 -0.5t14.5 -0.5q5 0 10.5 0.5t13.5 0.5z" />
    <glyph glyph-name="Aring" unicode="&#xc5;" horiz-adv-x="667" 
d="M282 780q5 25 19.5 47t34.5 38.5t44.5 26.5t50.5 10q25 0 45 -10t33 -26.5t18 -38.5t0 -47q-8 -38 -36 -68t-63 -44q7 -35 15 -76t16 -78q15 -71 32 -152t33.5 -155.5t30.5 -133.5t22 -87q-37 6 -61.5 10t-33.5 4q-11 0 -29.5 -2.5t-41.5 -5.5q-4 54 -13 107.5t-19 104.5
q-3 15 -4 20.5t-5 18.5q-25 1 -50 1h-51h-25h-21.5t-21.5 -0.5t-25 -0.5q-40 -66 -77.5 -132t-65.5 -121q-17 5 -30.5 7.5t-19.5 2.5t-29.5 -4.5t-56.5 -12.5q51 77 108 163t115 174.5t115 176t109 167.5q-35 11 -52.5 43t-9.5 73zM325 477q-11 -18 -21.5 -33.5t-21 -31.5
t-22 -34t-24.5 -39h10q11 -1 23 -1h24q17 0 23.5 -0.5t14.5 -0.5q5 0 10.5 0.5t13.5 0.5zM376 780q-2 -12 4 -20t18 -8t22.5 8t12.5 20q3 11 -4 19.5t-18 8.5q-12 0 -22 -8.5t-13 -19.5z" />
    <glyph glyph-name="AE" unicode="&#xc6;" horiz-adv-x="829" 
d="M243 232q-46 -57 -91.5 -117.5t-88.5 -122.5q-18 3 -31 5.5t-21 2.5q-9 0 -37 -5t-70 -13q36 40 83 93t100 114t110 126.5t112.5 130.5t108 126.5t96.5 114.5q39 -2 84.5 -3.5t84.5 -1.5q19 0 44.5 0.5t52 1.5t52 2t44.5 2q-11 -22 -19 -37.5t-9 -20.5t0 -22.5t4 -41.5
q-21 4 -41 8t-46 7t-60.5 5t-82.5 2q-1 -4 -2 -7.5t-1 -5.5q-8 -31 -15 -60.5t-14 -60.5l-10 -48q40 0 67.5 0.5t46 1.5t31 2t23.5 2h9t16.5 0.5t16 0.5h9.5q-24 -41 -26 -54q-2 -5 -1 -19t4 -34h-9.5t-16 0.5t-16.5 0.5h-9q-11 1 -22.5 1.5t-30 1.5t-45.5 1.5t-67 0.5
l-14 -65q-8 -34 -14 -67.5t-12 -68.5q-1 -5 -1 -6.5v-2v-1.5t-1 -7q88 1 148 6.5t95 10.5q-13 -25 -20.5 -41.5t-8.5 -19.5q-2 -5 -0.5 -20t3.5 -36q-20 1 -46 2t-52.5 2t-52 1.5t-44.5 0.5q-20 0 -44.5 -0.5t-50 -1.5t-50 -2t-44.5 -2q23 70 36.5 126t24.5 107zM471 507
q-20 -23 -38 -44t-36.5 -43t-38.5 -45.5t-43 -50.5q29 -1 55.5 -1.5t61.5 -1.5z" />
    <glyph glyph-name="Ccedilla" unicode="&#xc7;" horiz-adv-x="629" 
d="M242 -11q-60 12 -106 41t-73.5 73.5t-35.5 104t7 133.5q18 85 59.5 151t100.5 112t132.5 70t156.5 24q63 0 122.5 -17t104.5 -40q-22 -30 -32 -51t-16 -35q-1 -5 -3.5 -15t-3.5 -11l-45 -2q-8 10 -20.5 24.5t-31 27t-42 21.5t-52.5 9q-48 0 -93 -16t-82.5 -49
t-65.5 -83.5t-43 -119.5t-8 -119.5t30 -83.5t61.5 -49t86.5 -16q29 0 58.5 9t57 22.5t51 28t40.5 25.5l25 -31l-29 -78q-11 -8 -31.5 -18t-48 -19.5t-59.5 -17t-66 -10.5q35 -7 49 -31t6 -59q-6 -26 -21 -46t-36.5 -33.5t-47.5 -20t-54 -6.5q-31 0 -61 10t-51 18l50 81
q17 -8 38.5 -14t39.5 -6q11 0 20 3t10 9q2 5 -3.5 7t-13.5 2q-11 0 -23 -4.5t-23 -10.5l-28 36z" />
    <glyph glyph-name="Egrave" unicode="&#xc8;" horiz-adv-x="402" 
d="M26 421q6 30 12.5 64.5t13 69.5t12 69.5t10.5 63.5q20 -1 45 -2t51 -2t51 -1.5t46 -0.5h2l-113 82q-13 10 -25 25t-7 42q3 14 11 25t18.5 18t21.5 10.5t20 3.5q17 0 30.5 -8.5t23.5 -22.5l134 -173q23 1 44.5 1.5t38.5 2.5q-9 -23 -14.5 -37.5t-6.5 -19.5q-3 -11 -3 -57
q-6 0 -18 1t-24.5 1.5t-24 1.5t-16.5 1q-20 2 -34.5 3.5t-31.5 3t-39 2t-57 0.5q-2 -6 -3.5 -9.5t-2.5 -8.5q-5 -17 -8.5 -34t-8.5 -38t-8.5 -42t-8.5 -39l-2 -13q72 1 127.5 4.5t104.5 7.5q-18 -44 -21 -59q-2 -10 -4 -59q-32 3 -64 5.5t-62 3.5t-56.5 2t-45.5 1l-23 -106
q-6 -26 -9.5 -43.5t-5.5 -29.5t-4 -20t-3 -17q58 1 127 4.5t135 14.5q-11 -24 -17 -41t-8 -22q-1 -5 -1.5 -18.5t-0.5 -37.5q-20 1 -45.5 2t-52.5 2t-53.5 1.5t-47.5 0.5t-46.5 -0.5t-51.5 -1.5l-52 -2t-47 -2q8 30 17 64.5t17.5 70t16.5 69.5t14 64z" />
    <glyph glyph-name="Eacute" unicode="&#xc9;" horiz-adv-x="401" 
d="M15 421q6 30 12.5 64.5t13 69.5t12 69.5t10.5 63.5q16 -1 34.5 -2t39.5 -2l207 173q17 14 34 22.5t34 8.5q9 0 18 -3.5t16 -10.5t10.5 -18t0.5 -25q-5 -27 -24 -42t-36 -25q-35 -19 -73.5 -40.5t-73.5 -41.5h6q21 0 47 0.5t53 1.5t52.5 2t46.5 2q-9 -23 -14.5 -37.5
t-6.5 -19.5q-3 -11 -3 -57q-6 0 -18 1t-24.5 1.5t-24 1.5t-16.5 1q-20 2 -34.5 3.5t-31.5 3t-39 2t-57 0.5q-2 -6 -3.5 -9.5t-2.5 -8.5q-5 -17 -8.5 -34t-8.5 -38t-8.5 -42t-8.5 -39l-2 -13q72 1 127.5 4.5t104.5 7.5q-18 -44 -21 -59q-2 -10 -4 -59q-32 3 -64 5.5t-62 3.5
t-56.5 2t-45.5 1l-23 -106q-6 -26 -9.5 -43.5t-5.5 -29.5t-4 -20t-3 -17q58 1 127 4.5t135 14.5q-11 -24 -17 -41t-8 -22q-1 -5 -1.5 -18.5t-0.5 -37.5q-20 1 -45.5 2t-52.5 2t-53.5 1.5t-47.5 0.5t-46.5 -0.5t-51.5 -1.5l-52 -2t-47 -2q8 30 17 64.5t17.5 70t16.5 69.5
t14 64z" />
    <glyph glyph-name="Ecircumflex" unicode="&#xca;" horiz-adv-x="408" 
d="M25 421q6 28 12 60t11.5 65t10.5 65.5t10 61.5h-8l11 10l1 5h2l186 194h89l102 -195q4 0 7 0.5t6 0.5q-2 -4 -3 -6.5t-3 -6.5l1 -2h-3q-5 -17 -8.5 -27.5t-4.5 -14.5q-2 -5 -2.5 -19.5t-1.5 -37.5q-6 0 -18 1t-24.5 1.5t-24 1.5t-17.5 1q-19 2 -33.5 3.5t-31.5 3t-39.5 2
t-57.5 0.5q-1 -6 -2 -9.5t-3 -9.5l1 1q-5 -17 -9 -34t-9 -38t-8.5 -42t-7.5 -39l-3 -13q72 1 127.5 4.5t105.5 7.5q-11 -23 -15.5 -37.5t-6.5 -21.5q-1 -6 -2.5 -21t-0.5 -38q-64 7 -126.5 9t-102.5 3l-22 -106q-6 -26 -9.5 -43.5t-6 -29.5t-4.5 -20t-3 -17q59 1 127.5 4.5
t134.5 14.5q-11 -24 -17 -41t-8 -22q-1 -5 -1.5 -18.5t0.5 -37.5q-20 1 -46 2t-53 2t-53.5 1.5t-47.5 0.5t-46 -0.5t-51.5 -1.5t-52 -2t-46.5 -2q7 30 16 64.5t17.5 70t17 69.5t14.5 64zM351 682l-72 79q-26 -20 -52.5 -39.5t-51.5 -38.5q24 -1 47 -1h43h86z" />
    <glyph glyph-name="Edieresis" unicode="&#xcb;" horiz-adv-x="407" 
d="M29 421q6 30 12.5 64.5t12.5 69.5t11.5 69.5t10.5 63.5q42 -2 96.5 -4t96.5 -2q21 0 47 0.5t53 1.5t53 2t46 2q-9 -23 -14 -37.5t-7 -19.5q-1 -10 -3 -57q-6 0 -18 1t-24.5 1.5t-24 1.5t-16.5 1q-20 2 -34.5 3.5t-31.5 3t-39 2t-57 0.5q-1 -6 -2.5 -9.5t-3.5 -9.5v1
l-8 -34t-9 -38t-8.5 -42t-7.5 -39l-3 -13q72 1 128 4.5t105 7.5q-10 -23 -15 -37.5t-7 -21.5q-3 -12 -3 -59q-64 7 -126.5 9t-102.5 3l-22 -106q-6 -26 -9.5 -43.5t-6 -29.5t-4.5 -20t-3 -17q58 1 127 4.5t135 14.5q-11 -24 -17 -41t-7 -22t-1.5 -18.5t-0.5 -37.5
q-20 1 -46 2t-53 2t-53.5 1.5t-47.5 0.5t-46.5 -0.5t-51.5 -1.5t-51.5 -2t-46.5 -2q8 30 16.5 64.5t17.5 70t17 69.5t14 64zM122 773q6 30 32.5 52t56.5 22q31 0 48.5 -22t11.5 -52q-7 -31 -33.5 -53t-57.5 -22q-30 0 -47.5 22t-10.5 53zM303 773q6 30 32.5 52t57.5 22
q30 0 47.5 -22t11.5 -52q-3 -15 -12 -29t-21.5 -24t-27 -16t-29.5 -6q-31 0 -48.5 22t-10.5 53z" />
    <glyph glyph-name="Igrave" unicode="&#xcc;" horiz-adv-x="254" 
d="M91 420q6 30 12.5 65t13 71t12.5 71t11 65q26 -5 44 -7.5t28 -2.5h5l-112 82q-14 10 -26 25t-6 42q3 14 11 25t18.5 18t21 10.5t19.5 3.5q17 0 30 -8.5t24 -22.5l143 -184h-56q-8 -29 -16 -62t-16.5 -66.5t-16 -65.5t-13.5 -59l-33 -158l-13 -65t-13 -71t-12 -71t-11 -65
q-26 5 -44.5 7.5t-28.5 2.5t-29.5 -2.5t-45.5 -7.5q7 30 16 65t18 71t17.5 71t14.5 65z" />
    <glyph glyph-name="Iacute" unicode="&#xcd;" horiz-adv-x="253" 
d="M232 857q17 14 34 22.5t34 8.5q9 0 18 -3.5t16.5 -10.5t11 -18t0.5 -25q-6 -27 -24.5 -42t-35.5 -25q-35 -19 -73.5 -40.5t-74.5 -41.5h4q10 0 29.5 2.5t46.5 7.5q-8 -30 -17 -65t-18 -71t-17.5 -71t-14.5 -65l-33 -158q-6 -30 -12.5 -65t-13 -71t-12.5 -71t-11 -65
q-26 5 -44 7.5t-27 2.5q-10 0 -30 -2.5t-47 -7.5q8 30 17 65t18 71t17.5 71t14.5 65l32 158q6 27 12 59t12 65.5t11.5 66.5t10.5 62h-54z" />
    <glyph glyph-name="Icircumflex" unicode="&#xce;" horiz-adv-x="336" 
d="M98 420q6 30 12.5 65t13 71t12 71t10.5 65q25 -5 44 -7.5t29 -2.5t29.5 2.5t47.5 7.5q-8 -30 -17 -65t-18.5 -71t-18 -71t-14.5 -65l-33 -158l-13 -65t-13 -71t-12 -71t-10 -65q-26 5 -44.5 7.5t-28.5 2.5t-30 -2.5t-46 -7.5q7 30 16 65t18 71t18 71t15 65zM236 761
q-30 -23 -60 -45t-58 -43h-100l199 209h89l111 -209h-101z" />
    <glyph glyph-name="Idieresis" unicode="&#xcf;" horiz-adv-x="319" 
d="M94 420q6 30 12.5 65t13 71t12 71t10.5 65q25 -5 44 -7.5t29 -2.5t29.5 2.5t47.5 7.5q-8 -30 -17 -65t-18.5 -71t-18 -71t-14.5 -65l-34 -158q-6 -30 -12.5 -65t-12.5 -71t-12 -71t-10 -65q-26 5 -44.5 7.5t-28.5 2.5t-30 -2.5t-46 -7.5q7 30 16 65t18 71t17.5 71
t14.5 65zM69 773q3 15 12 28.5t21.5 23.5t27.5 16t30 6q30 0 47 -22t11 -52q-3 -15 -12 -29t-21.5 -24t-27 -16t-29.5 -6q-31 0 -48.5 22t-10.5 53zM251 773q3 15 12 28.5t21 23.5t27 16t30 6q31 0 48 -22t11 -52q-7 -31 -33.5 -53t-57.5 -22q-30 0 -47.5 22t-10.5 53z" />
    <glyph glyph-name="Eth" unicode="&#xd0;" horiz-adv-x="780" 
d="M40 429q19 -2 45.5 -2.5t49.5 -0.5q6 29 12 63t12 68.5t11.5 68t10.5 62.5q17 -1 39 -2t44.5 -2t44.5 -1.5t39 -0.5h34t34 1t36 2t36 1q88 0 146 -23t89 -65.5t36.5 -104t-10.5 -139.5q-21 -100 -70 -168.5t-111.5 -111t-130.5 -61t-127 -18.5q-16 0 -31.5 0.5t-31.5 1.5
q-14 1 -29 2t-30 1q-16 0 -36 -0.5t-41 -1.5t-41.5 -2t-35.5 -2q7 30 16 64t18 69.5t17.5 70t14.5 64.5l15 74q-23 -1 -49 -1.5t-46 -2.5q5 17 10 32t6 17t1.5 16.5t2.5 31.5zM231 262q-5 -25 -9.5 -46t-8.5 -41.5l-8 -41t-8 -44.5q19 -2 43 -3t51 -1q46 0 94 11t91 41
t76.5 82t50.5 135q15 72 7.5 118t-33 72.5t-66 37t-91.5 10.5q-30 0 -60.5 -2t-56.5 -4q-10 -38 -19.5 -78t-17.5 -82h47t49.5 0.5t48 1t41.5 1.5q-11 -21 -16 -33t-6 -15q-2 -6 0 -50q-42 2 -90.5 3.5t-93.5 1.5z" />
    <glyph glyph-name="Ntilde" unicode="&#xd1;" horiz-adv-x="661" 
d="M474 -17q-35 56 -74.5 114.5t-81.5 118t-85 119t-85 116.5q-5 -22 -11.5 -51t-14.5 -67q-6 -29 -15.5 -78t-18.5 -101.5t-16.5 -99t-9.5 -69.5q-23 7 -40 11t-22 4q-8 0 -26.5 -4t-45.5 -9q6 15 15.5 45t20.5 68.5t23 83t23.5 88t21 83t15.5 69.5q9 43 18 85.5t16 79.5
t12.5 65.5t7.5 43.5h56q8 -11 18.5 -26t18.5 -26q84 -119 158 -224t134 -183q12 58 24.5 119t24 120.5t21.5 115t18 101.5q22 -6 37 -9.5t21 -3.5q8 0 64 14q-8 -26 -21.5 -73t-27.5 -98.5t-26 -99.5t-18 -75q-5 -23 -12 -56.5t-14.5 -71t-15 -75.5t-14 -71t-11.5 -58
l-7 -35h-55zM219 696q10 25 25.5 52t36 48.5t45.5 35.5t54 14q20 0 34.5 -5t40.5 -19q20 -11 28 -14.5t16 -3.5q10 0 21 14t21 32h80q-7 -17 -20.5 -43.5t-34.5 -51t-48.5 -42t-62.5 -17.5q-31 0 -74 25q-17 11 -26 14.5t-17 3.5q-9 0 -17 -9t-22 -34h-80z" />
    <glyph glyph-name="Ograve" unicode="&#xd2;" horiz-adv-x="793" 
d="M6 341q17 82 56.5 147t95 110.5t125.5 70.5t149 28l-90 67q-14 10 -25.5 25t-5.5 42q3 14 11 25t18.5 18t21 10.5t19.5 3.5q17 0 30 -8.5t23 -22.5l135 -174q55 -15 95.5 -44.5t64.5 -73t30 -100t-8 -124.5q-18 -85 -60 -151.5t-101 -112.5t-133 -70t-156 -24t-145 24
t-102.5 70t-52.5 112.5t5 151.5zM605 341q15 69 8 119.5t-30.5 83.5t-62 49t-86.5 16t-92.5 -16t-82 -49t-65.5 -83.5t-43 -119.5t-8.5 -119.5t30.5 -83.5t62 -49t86 -16t93 16t82.5 49t65.5 83.5t43 119.5z" />
    <glyph glyph-name="Oacute" unicode="&#xd3;" horiz-adv-x="793" 
d="M2 341q14 69 44 125.5t72 100t95.5 73t114.5 44.5l208 173q17 14 34 22.5t34 8.5q9 0 18 -3.5t16.5 -10.5t11 -18t0.5 -25q-6 -27 -25 -42t-36 -25q-28 -16 -58 -33l-60 -34q77 -3 136.5 -28.5t96 -71t48.5 -110t-5 -146.5q-18 -85 -60 -151.5t-101 -112.5t-133 -70
t-156 -24t-145 24t-102.5 70t-52.5 112.5t5 151.5zM601 341q15 69 8 119.5t-30.5 83.5t-62 49t-86.5 16t-92.5 -16t-82 -49t-65.5 -83.5t-43 -119.5t-8.5 -119.5t30.5 -83.5t62 -49t86 -16t93 16t82.5 49t65.5 83.5t43 119.5z" />
    <glyph glyph-name="Ocircumflex" unicode="&#xd4;" horiz-adv-x="797" 
d="M6 341q27 126 104.5 211t185.5 121h-46l199 209h89l111 -209h-47q94 -36 135 -120.5t14 -211.5q-18 -85 -59.5 -151.5t-100.5 -112.5t-133 -70t-156 -24t-145 24t-102.5 70t-53 112.5t4.5 151.5zM605 341q15 69 8 119.5t-30 83.5t-61.5 49t-86.5 16t-93 -16t-82.5 -49
t-65.5 -83.5t-43 -119.5t-8 -119.5t30.5 -83.5t61.5 -49t86 -16t93 16t82.5 49t65.5 83.5t43 119.5zM454 698q20 0 38.5 -2t37.5 -4l-63 69q-23 -17 -46.5 -34.5t-45.5 -34.5q39 6 79 6z" />
    <glyph glyph-name="Otilde" unicode="&#xd5;" horiz-adv-x="797" 
d="M10 341q18 85 59.5 151t100 112t132 70t155.5 24t146 -24t103.5 -70t53 -112t-4.5 -151t-60 -151.5t-101 -112.5t-133 -70t-156 -24t-145 24t-102.5 70t-52.5 112.5t5 151.5zM609 341q15 69 8 119.5t-30 83.5t-61.5 49t-86.5 16t-93 -16t-82.5 -49t-65.5 -83.5
t-43 -119.5t-8.5 -119.5t30.5 -83.5t62 -49t86 -16t93 16t82.5 49t65.5 83.5t43 119.5zM273 696q10 25 25.5 52t36 48.5t45.5 35.5t54 14q19 0 33.5 -5t40.5 -19q20 -11 28.5 -14.5t16.5 -3.5q10 0 21 14t20 32h80q-6 -17 -19.5 -43.5t-34.5 -51t-48.5 -42t-62.5 -17.5
q-31 0 -75 25q-17 11 -26 14.5t-17 3.5q-9 0 -16.5 -9t-21.5 -34h-80z" />
    <glyph glyph-name="Odieresis" unicode="&#xd6;" horiz-adv-x="797" 
d="M10 341q18 85 59.5 151t100.5 112t132.5 70t155.5 24t145.5 -24t103.5 -70t53 -112t-5 -151t-59.5 -151.5t-100.5 -112.5t-133 -70t-156 -24t-145 24t-102.5 70t-53 112.5t4.5 151.5zM609 341q15 69 8 119.5t-30 83.5t-61.5 49t-86.5 16t-93 -16t-82.5 -49t-65.5 -83.5
t-43 -119.5t-8.5 -119.5t30.5 -83.5t62 -49t86 -16t93 16t82.5 49t65.5 83.5t43 119.5zM491 773q6 30 32.5 52t56.5 22q31 0 48.5 -22t11.5 -52q-7 -31 -33.5 -53t-57.5 -22q-30 0 -47.5 22t-10.5 53zM309 773q6 30 32.5 52t57.5 22q30 0 47.5 -22t11.5 -52q-3 -15 -12 -29
t-21.5 -24t-27 -16t-29.5 -6q-31 0 -48.5 22t-10.5 53z" />
    <glyph glyph-name="multiply" unicode="&#xd7;" horiz-adv-x="518" 
d="M186 261q-32 41 -68 86.5t-65 83.5l88 72l133 -170q50 42 105 87t101 83l57 -72l-205 -170l133 -170l-88 -73l-134 170l-205 -170l-56 73z" />
    <glyph glyph-name="Oslash" unicode="&#xd8;" horiz-adv-x="809" 
d="M32 341q18 85 59.5 151t100.5 112t132.5 70t155.5 24q63 0 115 -13.5t90 -41.5q12 11 27 26t29.5 30t27 29t20.5 25q10 -19 28.5 -39t37.5 -32q-14 -9 -30.5 -20.5t-32.5 -23.5t-30.5 -24t-24.5 -21q35 -46 46 -109t-6 -143q-18 -85 -59.5 -151.5t-100.5 -112.5t-133 -70
t-156 -24q-61 0 -112.5 14.5t-89.5 40.5q-22 -20 -50 -48.5t-58 -65.5q-12 24 -28 41.5t-35 28.5q33 22 63 47.5t54 46.5q-35 46 -46 109t6 144zM597 562q-50 47 -136 47q-48 0 -93 -16t-82.5 -49t-65.5 -83.5t-43 -119.5q-11 -49 -10 -89.5t10 -70.5zM215 119
q23 -23 57 -34.5t75 -11.5q48 0 93.5 16t83 49t65.5 83.5t43 119.5q21 95 1 156z" />
    <glyph glyph-name="Ugrave" unicode="&#xd9;" horiz-adv-x="643" 
d="M493 359q14 64 24.5 113.5t17.5 89t11.5 71.5t6.5 61q24 -5 42 -8.5t27 -3.5q7 0 23 4t39 11q-9 -32 -23 -82.5t-29.5 -109t-30.5 -118.5t-26 -111q-15 -67 -46.5 -121t-76.5 -92.5t-103 -59t-127 -20.5q-152 0 -206 71t-22 220q5 23 10 43.5t9 38.5q5 17 8.5 32t6.5 32
q14 66 24 119t18 94q0 3 1.5 11.5t3.5 18t3.5 18t2.5 11.5q23 -5 43 -7.5t30 -2.5q8 0 28 3.5t46 8.5q-9 -27 -19.5 -66t-22.5 -85.5t-24 -97.5t-23 -102q-9 -43 -16 -89t1 -84.5t39 -63t97 -24.5q65 0 106.5 28.5t67 70.5t38.5 90t21 88zM270 764q-13 10 -25 25t-6 42
q3 14 11 25t18.5 18t21 10.5t19.5 3.5q17 0 30 -8.5t24 -22.5l143 -184h-112z" />
    <glyph glyph-name="Uacute" unicode="&#xda;" horiz-adv-x="642" 
d="M486 359q14 64 24.5 113.5t17.5 89t11.5 71.5t6.5 61q24 -5 42 -8.5t27 -3.5q7 0 23 4t39 11q-9 -32 -23 -82.5t-29.5 -109t-30.5 -118.5t-26 -111q-15 -67 -46.5 -121t-76.5 -92.5t-103 -59t-127 -20.5q-152 0 -206 71t-22 220q5 23 10 43.5t9 38.5q5 17 8.5 32t6.5 32
q14 66 24 119t18 94q0 3 1.5 11.5t3.5 18t3.5 18t2.5 11.5q23 -5 43 -7.5t30 -2.5q8 0 28 3.5t46 8.5q-9 -27 -19.5 -66t-22.5 -85.5t-24 -97.5t-23 -102q-9 -43 -16 -89t1 -84.5t39 -63t97 -24.5q65 0 106.5 28.5t67 70.5t38.5 90t21 88zM462 857q16 14 33 22.5t34 8.5
q9 0 18 -3.5t16.5 -10.5t11 -18t0.5 -25q-6 -27 -24.5 -42t-36.5 -25q-38 -21 -80.5 -45t-80.5 -46h-112z" />
    <glyph glyph-name="Ucircumflex" unicode="&#xdb;" horiz-adv-x="647" 
d="M154 682q5 0 14 1t20 3l188 196h89l101 -191q19 -5 33.5 -7t22.5 -2q7 0 23 4t39 11q-9 -32 -23 -82.5t-29.5 -109t-30.5 -118.5t-27 -111q-15 -67 -46 -121t-76 -92.5t-103 -59t-127 -20.5q-152 0 -206 71t-22 220q5 23 9.5 43.5t8.5 38.5q5 17 8.5 32t7.5 32
q14 66 24 119t17 94q1 3 2.5 11.5t3.5 18t3.5 18t2.5 11.5q23 -5 43 -7.5t30 -2.5zM394 761q-29 -23 -59 -45t-58 -43h-57q-9 -29 -19 -66.5t-20.5 -80.5t-21 -90t-20.5 -93q-9 -43 -16.5 -89t1 -84.5t39.5 -63t97 -24.5q65 0 106.5 28.5t66.5 70.5t38 90t22 88
q12 58 22 104t17 83.5t11.5 68.5t7.5 58h-75z" />
    <glyph glyph-name="Udieresis" unicode="&#xdc;" horiz-adv-x="648" 
d="M497 359q13 64 23.5 113.5t17.5 89t11.5 71.5t6.5 61q24 -5 42 -8.5t27 -3.5q7 0 23.5 4t38.5 11q-9 -32 -23 -82.5t-29 -109t-30 -118.5t-27 -111q-15 -67 -46 -121t-76 -92.5t-103 -59t-127 -20.5q-152 0 -206 71t-22 220q4 23 9 43.5t9 38.5q5 17 8.5 32t7.5 32
q14 66 23.5 119t17.5 94q1 3 2.5 11.5t3.5 18t3.5 18t1.5 11.5q23 -5 43 -7.5t30 -2.5q8 0 28 3.5t46 8.5q-9 -27 -19.5 -66t-22.5 -85.5t-24 -97.5t-23 -102q-9 -43 -16 -89t1.5 -84.5t39.5 -63t97 -24.5q65 0 106.5 28.5t66.5 70.5t38 90t22 88zM236 773q6 30 32.5 52
t57.5 22q30 0 47.5 -22t11.5 -52q-3 -15 -12 -29t-21.5 -24t-27 -16t-29.5 -6q-31 0 -48.5 22t-10.5 53zM418 773q6 30 32.5 52t56.5 22q31 0 48.5 -22t11.5 -52q-7 -31 -33.5 -53t-57.5 -22q-30 0 -47.5 22t-10.5 53z" />
    <glyph glyph-name="Yacute" unicode="&#xdd;" horiz-adv-x="582" 
d="M118 -11q25 78 41.5 148t31.5 140q-7 19 -20.5 53.5t-30 76t-34 87t-34 85.5t-29.5 71.5t-19 45.5q39 -7 67 -10.5t40 -3.5q9 0 27 2t41 6q12 -39 23 -75t22.5 -72t24.5 -73t28 -78q26 32 54 68.5t56 75t56 77.5t54 77q32 -8 50 -8q7 0 34 5.5t66 13.5q-67 -78 -121 -141
t-96 -113.5t-73.5 -89.5t-53.5 -69q-7 -34 -15 -74t-15 -80.5t-13 -78t-9 -66.5q-28 5 -47 8t-27 3t-29 -3t-50 -8zM429 848q17 14 34 22.5t34 8.5q9 0 18 -3.5t16.5 -11t11 -18t0.5 -24.5q-6 -27 -24.5 -42t-35.5 -25q-38 -21 -80.5 -45t-82.5 -46h-111z" />
    <glyph glyph-name="Thorn" unicode="&#xde;" horiz-adv-x="474" 
d="M56 420q6 30 12.5 65t12.5 71t11.5 71t10.5 65q26 -5 44.5 -7.5t28.5 -2.5q8 0 29 3t50 8q-9 -31 -20.5 -64t-17.5 -63h86q106 0 156.5 -45t30.5 -143q-13 -59 -44 -98t-72 -62t-88.5 -32.5t-93.5 -9.5h-32h-10.5t-15.5 1l-5 -21q-8 -40 -14 -85t-4 -83q-31 5 -51.5 8.5
t-28.5 3.5q-10 0 -29.5 -2.5t-46.5 -7.5q8 30 17 65t18 71t17.5 71t14.5 65zM153 266q10 -1 21.5 -1h23.5q24 0 48.5 6.5t45.5 20.5t36 35t21 50q4 18 2 35.5t-13 32t-32 23t-54 8.5h-55z" />
    <glyph glyph-name="germandbls" unicode="&#xdf;" horiz-adv-x="518" 
d="M39 402q6 29 10 51t6 37q2 8 2.5 13.5t1.5 9.5q14 64 44 109.5t68 74t78.5 41.5t75.5 13q25 0 52 -9.5t47 -27t30.5 -41.5t4.5 -54q-11 -48 -41 -82t-62 -63q-17 -16 -31 -30t-17 -25q-3 -17 15 -33.5t40 -32.5q18 -14 37 -30t33 -36.5t20.5 -45t0.5 -55.5
q-8 -35 -32.5 -70.5t-59.5 -64.5t-76.5 -47t-82.5 -18q-31 0 -60.5 10t-52.5 24q-2 -8 -2.5 -15.5t-1.5 -15.5q-24 5 -42.5 8t-28.5 3t-29 -3t-45 -8q10 35 20.5 74.5t20.5 79.5t18 77.5t14 67.5zM138 288q-11 -51 -23 -117.5t-22 -129.5q12 18 22 39t15 37h45
q6 -17 24.5 -29t40.5 -12q28 0 54 18.5t33 51.5q4 17 -1 31t-15 27t-23.5 24.5t-27.5 22.5q-18 13 -34 26.5t-27 29.5t-15.5 35.5t0.5 44.5q7 33 31 59t53 52q28 25 53.5 51.5t32.5 58.5q5 25 -8.5 41.5t-43.5 16.5q-48 0 -74 -41t-43 -120l-47 -217v0z" />
    <glyph glyph-name="agrave" unicode="&#xe0;" horiz-adv-x="463" 
d="M74 433q60 39 104 53t85 14q79 0 118.5 -44.5t23.5 -119.5q-5 -25 -11 -50.5t-13 -51.5q-5 -25 -12 -55.5t-12 -56.5q-3 -14 -5 -27.5t4 -13.5q1 0 2.5 0.5t7 2.5t15 7t27.5 14l-19 -87q-17 -7 -42.5 -14.5t-48.5 -7.5q-28 0 -43.5 10t-23.5 27q-34 -23 -67.5 -35
t-75.5 -12q-28 0 -53 10t-42 28t-24 44t0 59q14 68 62.5 105t121.5 49q43 6 67 10.5t36 8.5t15.5 8t4.5 10q4 18 3.5 34t-7 28t-19 19t-32.5 7q-29 0 -60 -16.5t-53 -45.5h-53zM163 606q-13 10 -25 24.5t-7 41.5q3 14 11.5 25t19 18t21 10.5t19.5 3.5q17 0 30 -8t24 -22
l143 -184h-112zM254 220q-8 -2 -18 -4q-21 -4 -43.5 -8.5t-41 -12.5t-32.5 -21t-18 -34q-6 -30 7 -45t33 -15q25 0 49 13t41 31z" />
    <glyph glyph-name="aacute" unicode="&#xe1;" horiz-adv-x="459" 
d="M59 433q60 39 104 53t85 14q79 0 118.5 -44.5t23.5 -119.5q-5 -25 -11 -50.5t-13 -51.5q-5 -25 -12 -55.5t-12 -56.5q-3 -14 -5 -27.5t4 -13.5q1 0 2.5 0.5t7 2.5t15 7t27.5 14l-19 -87q-17 -7 -42.5 -14.5t-48.5 -7.5q-28 0 -43.5 10t-23.5 27q-34 -23 -67.5 -35
t-75.5 -12q-28 0 -52.5 10t-42 28t-24.5 44t0 59q14 68 62.5 105t121.5 49q43 6 67 10.5t36 8.5t15.5 8t4.5 10q4 18 3.5 34t-7 28t-19 19t-32.5 7q-29 0 -60 -16.5t-53 -45.5h-53zM347 699q16 14 33 22t34 8q9 0 18 -3.5t16.5 -10.5t10.5 -18t0 -25q-5 -27 -23.5 -41.5
t-36.5 -24.5q-38 -22 -80.5 -46t-80.5 -45h-112zM239 220q-8 -2 -18 -4q-21 -4 -43.5 -8.5t-41 -12.5t-32.5 -21t-18 -34q-6 -30 7 -45t33 -15q25 0 49 13t41 31z" />
    <glyph glyph-name="acircumflex" unicode="&#xe2;" horiz-adv-x="466" 
d="M69 433q60 39 104 53t85 14q79 0 118.5 -45t23.5 -119q-5 -25 -11 -50.5t-12 -51.5q-5 -25 -12.5 -55.5t-12.5 -56.5q-3 -14 -5 -27.5t4 -13.5q1 0 2.5 0.5t7 2.5t15 7t27.5 14l-18 -87q-18 -7 -43.5 -14.5t-48.5 -7.5q-28 0 -43.5 10t-23.5 27q-33 -23 -67 -35t-76 -12
q-28 0 -52.5 10t-41.5 28t-24.5 44t-0.5 59q14 68 62.5 105t122.5 49q43 6 67 10.5t36 8.5t15 8t5 10q4 18 3 34t-7 28t-19 19t-33 7q-29 0 -60 -16.5t-53 -45.5h-53zM283 602q-29 -22 -59.5 -44.5t-57.5 -42.5h-100l199 209h89l111 -209h-100zM250 220q-3 -1 -9 -2t-10 -2
q-21 -4 -43 -8.5t-41 -12.5t-32.5 -21t-17.5 -34q-7 -30 6 -45t33 -15q25 0 49 13t41 31z" />
    <glyph glyph-name="atilde" unicode="&#xe3;" horiz-adv-x="473" 
d="M76 433q61 39 105 53t85 14q79 0 118.5 -44.5t23.5 -119.5q-5 -25 -11.5 -50.5t-12.5 -51.5q-5 -25 -12 -55.5t-13 -56.5q-3 -14 -4.5 -27.5t4.5 -13.5q1 0 2.5 0.5t7 2.5t15 7t27.5 14l-19 -87q-18 -7 -43 -14.5t-48 -7.5q-28 0 -44 10t-24 27q-33 -23 -67 -35t-76 -12
q-28 0 -52.5 10t-41.5 28t-24.5 44t-0.5 59q15 68 63.5 105t121.5 49q43 6 67 10.5t36 8.5t15.5 8t4.5 10q4 18 3.5 34t-7 28t-19 19t-32.5 7q-29 0 -60 -16.5t-53 -45.5h-53zM93 538q10 25 25.5 52t36 48.5t45.5 35.5t54 14q20 0 33.5 -5.5t40.5 -18.5q20 -11 28.5 -14.5
t16.5 -3.5q10 0 20.5 14t20.5 32h80q-6 -17 -19.5 -43.5t-34.5 -51t-48.5 -42t-62.5 -17.5q-15 0 -34 5.5t-40 19.5q-17 11 -26 14t-17 3q-9 0 -17 -9t-22 -33h-80zM257 220q-3 -1 -8.5 -2t-10.5 -2q-21 -4 -43 -8.5t-40.5 -12.5t-32.5 -21t-18 -34q-6 -30 6.5 -45t32.5 -15
q25 0 49.5 13t41.5 31z" />
    <glyph glyph-name="adieresis" unicode="&#xe4;" horiz-adv-x="471" 
d="M76 433q60 39 104 53t85 14q79 0 118.5 -44.5t23.5 -119.5q-5 -25 -11 -50.5t-12 -51.5q-5 -25 -12.5 -55.5t-12.5 -56.5q-3 -14 -5 -27.5t4 -13.5q1 0 2.5 0.5t7 2.5t15 7t27.5 14l-18 -87q-18 -7 -43.5 -14.5t-48.5 -7.5q-28 0 -43.5 10t-23.5 27q-33 -23 -67 -35
t-76 -12q-28 0 -53 10t-42 28t-24 44t0 59q14 68 62.5 105t122.5 49q43 6 67 10.5t36 8.5t15 8t4 10q4 18 3.5 34t-7 28t-19 19t-32.5 7q-29 0 -60 -16.5t-53 -45.5h-53zM127 614q7 31 33.5 53t57.5 22q30 0 48 -22t11 -53q-3 -15 -12 -28.5t-21 -23.5t-27 -16t-30 -6
q-31 0 -48.5 22t-11.5 52zM309 614q3 15 12 29t21.5 24t27 16t29.5 6q31 0 48.5 -22t10.5 -53q-6 -30 -32.5 -52t-57.5 -22q-30 0 -47.5 22t-11.5 52zM257 220q-4 -1 -9.5 -2t-9.5 -2q-21 -4 -43 -8.5t-41 -12.5t-32.5 -21t-17.5 -34q-7 -30 6 -45t33 -15q25 0 49 13t41 31z
" />
    <glyph glyph-name="aring" unicode="&#xe5;" horiz-adv-x="465" 
d="M164 622q5 25 19.5 47t34.5 38.5t44 26t50 9.5q25 0 45 -9.5t33 -26t18 -38.5t0 -47q-5 -24 -18.5 -46t-33 -38.5t-43.5 -26.5t-49 -11q76 -3 113 -47.5t22 -116.5q-5 -25 -11.5 -50.5t-12.5 -51.5q-5 -25 -12 -55.5t-13 -56.5q-3 -14 -5 -27.5t4 -13.5q1 0 2.5 0.5
t7 2.5t15 7t27.5 14l-18 -87q-18 -7 -43.5 -14.5t-48.5 -7.5q-28 0 -43.5 10t-23.5 27q-33 -23 -67 -35t-76 -12q-28 0 -52.5 10t-41.5 28t-24.5 44t-0.5 59q14 68 62.5 105t122.5 49q43 6 67 10.5t36 8.5t15 8t5 10q4 18 3 34t-7 28t-19 19t-33 7q-29 0 -59.5 -16.5
t-53.5 -45.5h-53l19 89q60 38 103 52t84 15q-24 1 -42.5 11t-31 26.5t-17 38.5t0.5 46zM248 220q-3 -1 -9 -2t-10 -2q-21 -4 -43 -8.5t-40.5 -12.5t-32.5 -21t-18 -34q-7 -30 6 -45t33 -15q25 0 49 13t41 31zM258 622q-2 -12 4 -20t17 -8q12 0 22.5 8t12.5 20q2 11 -4.5 19
t-17.5 8q-12 0 -22 -8t-12 -19z" />
    <glyph glyph-name="ae" unicode="&#xe6;" horiz-adv-x="784" 
d="M116 433q60 39 104.5 53t85.5 14q30 0 65.5 -11t61.5 -43q66 54 151 54q55 0 92.5 -17t58.5 -46.5t25.5 -68.5t-4.5 -83q-1 -5 -3 -13.5t-4.5 -18.5t-5 -19t-3.5 -13h-21t-26.5 0.5t-26 0.5h-20.5q-32 1 -64.5 1.5t-64.5 0.5q-20 0 -40 -0.5t-40 -1.5h-14
q-13 -60 12.5 -101t89.5 -41q15 0 34 6t39.5 16.5t40.5 24.5t38 31l29 -34l-22 -68q-20 -14 -44.5 -26.5t-50 -22.5t-51.5 -15.5t-50 -5.5q-60 0 -103.5 19.5t-66.5 60.5q-30 -34 -75.5 -57t-111.5 -23q-29 0 -53.5 10t-41.5 28t-24.5 44t-0.5 59q14 68 62.5 105t122.5 49
q43 6 67 10.5t36 8.5t15.5 8t4.5 10q8 35 -3.5 61.5t-51.5 26.5q-30 0 -60.5 -16.5t-53.5 -45.5h-53zM568 415q-23 0 -41.5 -9t-33.5 -24t-26 -34t-19 -38h5q21 -1 42.5 -1h41.5h41.5t43.5 1h9q2 18 1 37t-8 34t-20.5 24.5t-35.5 9.5zM144 140q-6 -27 6.5 -43.5t39.5 -16.5
t54 18t38 53q4 14 7.5 30.5t6.5 31.5l2 7l-10 -2l-10 -2q-21 -4 -43 -8.5t-40.5 -12.5t-32.5 -21t-18 -34z" />
    <glyph glyph-name="ccedilla" unicode="&#xe7;" horiz-adv-x="473" 
d="M116 -98q17 -8 38 -13.5t40 -5.5q11 0 20 3t11 8q1 9 -18 9q-11 0 -22.5 -4t-22.5 -10l-28 35l41 69q-36 7 -67 25.5t-51 49t-26 74t6 101.5q14 67 47 115.5t76.5 80t94 46.5t100.5 15q55 0 100.5 -18.5t66.5 -43.5q-29 -43 -51 -94h-46q-4 12 -12 24.5t-19 23t-25 17
t-31 6.5q-35 0 -62 -13t-47 -36t-34 -54t-22 -68q-17 -81 8 -122.5t89 -41.5q15 0 34.5 6t39.5 16.5t40.5 24.5t38.5 31l29 -34q-13 -33 -23 -68q-32 -21 -72.5 -39t-79.5 -26q36 -7 52.5 -31t8.5 -60q-6 -26 -21.5 -46t-37 -33.5t-48 -20t-53.5 -6.5q-32 0 -62 9.5
t-51 17.5z" />
    <glyph glyph-name="egrave" unicode="&#xe8;" horiz-adv-x="475" 
d="M-11 230q13 62 39 112t63.5 85t86 54t105.5 19q55 0 92.5 -17t58 -46.5t25.5 -68.5t-4 -83q-1 -5 -3 -13.5t-4.5 -18.5t-5 -19t-3.5 -13h-21t-26.5 0.5t-26 0.5h-20.5q-33 1 -65 1.5t-64 0.5q-20 0 -40 -0.5t-40 -1.5h-14q-13 -60 12.5 -101t89.5 -41q15 0 34 6
t39.5 16.5t40.5 24.5t38 31l29 -34l-22 -68q-21 -14 -45 -26.5t-49.5 -22.5t-51.5 -15.5t-50 -5.5q-56 0 -98 18.5t-68 51.5t-34.5 77.5t2.5 96.5zM182 606q-14 10 -25.5 24.5t-6.5 41.5q3 14 11.5 25t19 18t21 10.5t19.5 3.5q17 0 30 -8t23 -22l144 -184h-113zM267 415
q-23 0 -41.5 -9t-33.5 -24t-26.5 -34t-18.5 -38h5q20 -1 41.5 -1h41.5h41.5t43.5 1h10q2 18 1 37t-8 34t-20.5 24.5t-35.5 9.5z" />
    <glyph glyph-name="eacute" unicode="&#xe9;" horiz-adv-x="477" 
d="M-22 230q13 62 39 112t63.5 85t86 54t105.5 19q55 0 92.5 -17t58 -46.5t25.5 -68.5t-4 -83q-1 -5 -3 -13.5t-4.5 -18.5t-5 -19t-3.5 -13h-21t-26.5 0.5t-26 0.5h-20.5q-33 1 -65 1.5t-64 0.5q-20 0 -40 -0.5t-40 -1.5h-14q-13 -60 12.5 -101t89.5 -41q15 0 34 6
t39.5 16.5t40.5 24.5t38 31l29 -34l-22 -68q-21 -14 -45 -26.5t-49.5 -22.5t-51.5 -15.5t-50 -5.5q-56 0 -98 18.5t-68 51.5t-34.5 77.5t2.5 96.5zM369 699q17 14 34 22t34 8q9 0 18 -3.5t16.5 -10.5t10.5 -18t0 -25q-5 -27 -24 -41.5t-36 -24.5q-38 -22 -80.5 -46
t-81.5 -45h-111zM256 415q-23 0 -41.5 -9t-33.5 -24t-26.5 -34t-18.5 -38h5q20 -1 41.5 -1h41.5h41.5t43.5 1h10q2 18 1 37t-8 34t-20.5 24.5t-35.5 9.5z" />
    <glyph glyph-name="ecircumflex" unicode="&#xea;" horiz-adv-x="481" 
d="M-14 230q13 62 39 112t63.5 85t86 54t105.5 19q55 0 92.5 -17t58.5 -46.5t26 -68.5t-4 -83q-1 -5 -3.5 -13.5t-5 -18.5t-5 -19t-3.5 -13h-21t-26.5 0.5t-26 0.5h-20.5q-33 1 -64.5 1.5t-63.5 0.5q-20 0 -40.5 -0.5t-40.5 -1.5h-14q-13 -60 12.5 -101t89.5 -41
q31 0 73.5 22.5t79.5 55.5l28 -34l-22 -68q-21 -14 -45 -26.5t-49.5 -22.5t-51.5 -15.5t-50 -5.5q-56 0 -98 18.5t-68 51.5t-34.5 77.5t2.5 96.5zM304 602q-29 -22 -59.5 -44.5t-58.5 -42.5h-99l199 209h89l111 -209h-101zM264 415q-23 0 -41.5 -9t-33.5 -24t-26 -34
t-19 -38h5q21 -1 42.5 -1h41.5h41.5t42.5 1h10q2 18 1 37t-8 34t-20.5 24.5t-35.5 9.5z" />
    <glyph glyph-name="edieresis" unicode="&#xeb;" horiz-adv-x="488" 
d="M-7 230q13 62 39 112t63.5 85t86 54t105.5 19q55 0 92.5 -17t58 -46.5t25.5 -68.5t-4 -83q-1 -5 -3 -13.5t-4.5 -18.5t-5 -19t-3.5 -13h-21t-26.5 0.5t-26 0.5h-20.5q-33 1 -65 1.5t-64 0.5q-20 0 -40 -0.5t-40 -1.5h-14q-13 -60 12.5 -101t89.5 -41q15 0 34 6t39.5 16.5
t40.5 24.5t38 31l29 -34l-22 -68q-21 -14 -45 -26.5t-49.5 -22.5t-51.5 -15.5t-50 -5.5q-56 0 -98 18.5t-68 51.5t-34.5 77.5t2.5 96.5zM148 614q7 31 33.5 53t57.5 22q30 0 47.5 -22t10.5 -53q-6 -30 -32.5 -52t-56.5 -22q-31 0 -48.5 22t-11.5 52zM330 614q3 15 12 29
t21.5 24t27 16t29.5 6q31 0 48.5 -22t10.5 -53q-6 -30 -32.5 -52t-57.5 -22q-30 0 -47.5 22t-11.5 52zM271 415q-23 0 -41.5 -9t-33.5 -24t-26 -34t-19 -38h5q21 -1 42.5 -1h41.5h41.5t42.5 1h10q2 18 1 37t-8 34t-20.5 24.5t-35.5 9.5z" />
    <glyph glyph-name="igrave" unicode="&#xec;" horiz-adv-x="251" 
d="M85 291q9 41 18 93.5t15 112.5q25 -5 42.5 -8t27.5 -3t30 3t46 8q-19 -60 -32.5 -112.5t-22.5 -93.5l-20 -96q-9 -41 -18 -94t-15 -112q-24 5 -42.5 8t-28.5 3t-29.5 -3t-45.5 -8q19 59 32.5 112t22.5 94zM89 606q-13 10 -25.5 24.5t-6.5 41.5q3 14 11 25t18.5 18
t21 10.5t19.5 3.5q17 0 30.5 -8t24.5 -22l143 -184h-112z" />
    <glyph glyph-name="iacute" unicode="&#xed;" horiz-adv-x="251" 
d="M10 291q9 41 17.5 93.5t15.5 112.5q24 -5 42 -8t28 -3t30 3t46 8q-20 -60 -33 -112.5t-22 -93.5l-20 -96q-9 -41 -18.5 -94t-14.5 -112q-25 5 -43 8t-28 3q-9 0 -28.5 -3t-45.5 -8q18 59 32 112t23 94zM212 699q17 14 33.5 22t33.5 8q9 0 18 -3.5t16.5 -10.5t11 -18
t0.5 -25q-6 -27 -24.5 -41.5t-35.5 -24.5q-38 -22 -81 -46t-81 -45h-110z" />
    <glyph glyph-name="icircumflex" unicode="&#xee;" horiz-adv-x="333" 
d="M90 291q8 41 17.5 93.5t14.5 112.5q24 -5 42.5 -8t28.5 -3t29.5 3t45.5 8q-19 -60 -32.5 -112.5t-21.5 -93.5l-21 -96q-8 -41 -17.5 -94t-15.5 -112q-23 5 -41.5 8t-28.5 3t-30 -3t-46 -8q20 59 33.5 112t21.5 94zM218 602q-29 -22 -59.5 -44.5t-58.5 -42.5h-100l200 209
h89l110 -209h-101z" />
    <glyph glyph-name="idieresis" unicode="&#xef;" horiz-adv-x="330" 
d="M91 291q9 41 18 93.5t15 112.5q24 -5 42.5 -8t28.5 -3t29.5 3t45.5 8q-20 -60 -33 -112.5t-22 -93.5l-20 -96q-9 -41 -18 -94t-15 -112q-24 5 -42.5 8t-28.5 3t-29.5 -3t-45.5 -8q20 59 33 112t22 94zM57 614q7 31 33.5 53t57.5 22q30 0 47.5 -22t10.5 -53
q-7 -30 -33.5 -52t-56.5 -22q-31 0 -48.5 22t-10.5 52zM239 614q3 15 12 29t21.5 24t27 16t29.5 6q31 0 48.5 -22t10.5 -53q-7 -30 -33.5 -52t-57.5 -22q-30 0 -47.5 22t-10.5 52z" />
    <glyph glyph-name="eth" unicode="&#xf0;" horiz-adv-x="537" 
d="M-5 243q14 67 44 114.5t69 78t84 46t88 17.5q-11 14 -21.5 28t-24.5 30q-31 -10 -68.5 -22t-67.5 -22q-10 35 -32 84q29 7 53.5 12.5t56.5 14.5q-17 18 -42.5 41.5t-57.5 52.5l139 34q28 -23 53.5 -44.5t46.5 -42.5q32 10 67.5 21.5t68.5 23.5q7 -39 35 -85
q-31 -7 -55.5 -12t-52.5 -13q83 -94 110.5 -179t8.5 -178q-15 -71 -48 -119.5t-75.5 -79.5t-90.5 -44.5t-93 -13.5t-86.5 13.5t-71 44.5t-41 79.5t3.5 119.5zM360 243q7 33 8 64t-7.5 55t-27.5 38.5t-52 14.5t-58 -14.5t-43 -38.5t-30.5 -55t-19.5 -64t-8 -64t7 -55
t27 -38.5t52 -14.5t58 14.5t43.5 38.5t31 55t19.5 64z" />
    <glyph glyph-name="ntilde" unicode="&#xf1;" horiz-adv-x="472" 
d="M310 285q11 54 -2 83t-46 29q-51 0 -81 -32t-43 -91l-16 -79q-9 -41 -18 -94t-15 -112q-24 5 -42.5 8t-28.5 3t-29 -3t-45 -8q19 59 33 112t23 94l19 96q9 41 17.5 93.5t14.5 112.5q25 -5 43 -8t28 -3q7 0 25 3t44 8q-2 -10 -4.5 -19t-5.5 -17q29 19 60.5 29t67.5 10
q30 0 59.5 -8.5t50 -29.5t29 -57.5t-3.5 -92.5q-9 -39 -20 -81.5t-21 -88.5q-3 -15 -7 -35.5t-8 -41.5t-7.5 -41t-5.5 -35q-25 5 -42 8t-25 3t-26 -3t-42 -8l27 110q8 32 15.5 63.5t15.5 65.5l12 57v0zM94 538q10 25 25.5 52t35.5 48.5t45 35.5t54 14q19 0 33.5 -5.5
t40.5 -18.5q20 -11 29 -14.5t17 -3.5q9 0 20 14t20 32h80q-6 -17 -19.5 -43.5t-34 -51t-48.5 -42t-63 -17.5q-15 0 -34 5.5t-40 19.5q-17 11 -26 14t-17 3q-9 0 -17 -9t-21 -33h-80z" />
    <glyph glyph-name="ograve" unicode="&#xf2;" horiz-adv-x="528" 
d="M-6 243q15 70 47.5 119t74.5 80t90 44.5t93 13.5t87 -13.5t71 -44.5t41 -80t-3 -119q-15 -71 -47.5 -119.5t-75 -79.5t-90 -44.5t-92.5 -13.5t-87 13.5t-71 44.5t-41 79.5t3 119.5zM129 243q-7 -33 -8 -64t7.5 -55t27.5 -38.5t52 -14.5t58 14.5t43 38.5t30.5 55t19.5 64
t8 64t-7.5 55t-27 38.5t-51.5 14.5t-58 -14.5t-43.5 -38.5t-31 -55t-19.5 -64zM196 606q-14 10 -25.5 24.5t-6.5 41.5q3 14 11.5 25t19 18t21 10.5t19.5 3.5q17 0 30 -8t23 -22l144 -184h-113z" />
    <glyph glyph-name="oacute" unicode="&#xf3;" horiz-adv-x="527" 
d="M-17 243q15 70 47.5 119t74.5 80t90 44.5t93 13.5t87 -13.5t71 -44.5t41 -80t-3 -119q-15 -71 -47.5 -119.5t-75 -79.5t-90 -44.5t-92.5 -13.5t-87 13.5t-71 44.5t-41 79.5t3 119.5zM118 243q-7 -33 -8 -64t7.5 -55t27.5 -38.5t52 -14.5t58 14.5t43 38.5t30.5 55t19.5 64
t8 64t-7.5 55t-27 38.5t-51.5 14.5t-58 -14.5t-43.5 -38.5t-31 -55t-19.5 -64zM383 699q17 14 34 22t34 8q9 0 18 -3.5t16.5 -10.5t10.5 -18t0 -25q-5 -27 -24 -41.5t-36 -24.5q-38 -22 -80.5 -46t-81.5 -45h-111z" />
    <glyph glyph-name="ocircumflex" unicode="&#xf4;" horiz-adv-x="532" 
d="M-8 243q15 70 47.5 119t74.5 80t89.5 44.5t92.5 13.5t87 -13.5t71.5 -44.5t41.5 -80t-3 -119q-15 -71 -48 -119.5t-75 -79.5t-90 -44.5t-93 -13.5t-86.5 13.5t-71 44.5t-41 79.5t3.5 119.5zM127 243q-7 -33 -8 -64t7 -55t27 -38.5t52 -14.5t58 14.5t43.5 38.5t31 55
t19.5 64t8 64t-7.5 55t-27.5 38.5t-52 14.5t-58 -14.5t-43.5 -38.5t-30.5 -55t-19 -64zM318 602q-29 -22 -59.5 -44.5t-57.5 -42.5h-100l199 209h89l111 -209h-101z" />
    <glyph glyph-name="otilde" unicode="&#xf5;" horiz-adv-x="537" 
d="M-3 243q15 70 47.5 119t74.5 80t90 44.5t93 13.5t87 -13.5t71 -44.5t41 -80t-3 -119q-15 -71 -48 -119.5t-75 -79.5t-90 -44.5t-93 -13.5t-86.5 13.5t-71 44.5t-41 79.5t3.5 119.5zM132 243q-7 -33 -8 -64t7.5 -55t27.5 -38.5t52 -14.5t58 14.5t43 38.5t30.5 55t19.5 64
t8 64t-7.5 55t-27 38.5t-51.5 14.5t-58 -14.5t-43.5 -38.5t-31 -55t-19.5 -64zM126 538q10 25 25.5 52t36 48.5t45.5 35.5t54 14q19 0 33 -5.5t41 -18.5q19 -11 28 -14.5t17 -3.5q10 0 20.5 14t20.5 32h80q-6 -17 -19.5 -43.5t-34.5 -51t-48.5 -42t-62.5 -17.5
q-16 0 -34.5 5.5t-40.5 19.5q-17 11 -26 14t-17 3q-9 0 -16.5 -9t-21.5 -33h-80z" />
    <glyph glyph-name="odieresis" unicode="&#xf6;" horiz-adv-x="537" 
d="M-2 243q14 70 46.5 119t74.5 80t90 44.5t93 13.5t87 -13.5t71 -44.5t41.5 -80t-2.5 -119q-15 -71 -48 -119.5t-75 -79.5t-90 -44.5t-93 -13.5t-86.5 13.5t-71 44.5t-41 79.5t3.5 119.5zM133 243q-7 -33 -8 -64t7 -55t27 -38.5t52 -14.5t58 14.5t43.5 38.5t31 55t19.5 64
t7.5 64t-7.5 55t-27 38.5t-52 14.5t-58 -14.5t-43.5 -38.5t-30.5 -55t-19 -64zM343 614q3 15 12 29t21.5 24t27 16t29.5 6q31 0 48.5 -22t10.5 -53q-6 -30 -32.5 -52t-57.5 -22q-30 0 -47.5 22t-11.5 52zM161 614q7 31 33.5 53t57.5 22q30 0 47.5 -22t10.5 -53
q-6 -30 -32.5 -52t-56.5 -22q-31 0 -48.5 22t-11.5 52z" />
    <glyph glyph-name="divide" unicode="&#xf7;" horiz-adv-x="516" 
d="M8 312h522l-22 -103h-521zM139 80q3 16 12.5 30.5t23 25.5t29.5 17.5t32 6.5t29 -6.5t22 -17.5t12 -25.5t0 -30.5t-12.5 -30.5t-23 -25.5t-29.5 -17.5t-32 -6.5t-29 6.5t-22 17.5t-12 25.5t0 30.5zM216 441q3 16 12.5 30.5t23 25.5t29.5 17.5t32 6.5t29 -6.5t22 -17.5
t12 -25.5t0 -30.5t-12.5 -30.5t-23 -25.5t-29.5 -17.5t-32 -6.5t-29 6.5t-22 17.5t-12 25.5t0 30.5z" />
    <glyph glyph-name="oslash" unicode="&#xf8;" horiz-adv-x="581" 
d="M43 243q15 70 48 119t75 80t90 44.5t93 13.5q35 0 68.5 -8t62.5 -28q22 20 45.5 45t40.5 46q20 -41 62 -66q-13 -9 -27 -19t-27.5 -20.5t-25 -20t-19.5 -16.5q17 -32 22.5 -73.5t-5.5 -96.5q-15 -71 -48 -119.5t-75.5 -79.5t-90 -44.5t-92.5 -13.5q-37 0 -72 9t-64 31
q-14 -12 -28.5 -25.5t-27.5 -25.5t-23.5 -22t-15.5 -15q-7 17 -22 32t-36 24q9 6 21.5 16.5t27 22.5t29 24.5t26.5 23.5q-15 31 -19 69.5t7 92.5zM187 102q11 -15 27.5 -23t43.5 -8q33 0 58 14.5t43.5 38.5t31 55t19.5 64q8 38 8 69zM397 389q-21 26 -66 26q-33 0 -58 -14.5
t-43.5 -38.5t-31 -55t-19.5 -64q-3 -15 -5 -30t-3 -29z" />
    <glyph glyph-name="ugrave" unicode="&#xf9;" horiz-adv-x="457" 
d="M-19 165q5 26 10 48t10 42q4 17 7.5 32t6.5 30q3 16 7.5 39t9.5 48t9.5 49.5t8.5 43.5q23 -5 40.5 -8t25.5 -3q9 0 27 3t43 8q-8 -27 -17.5 -63t-19.5 -75t-19.5 -78.5t-16.5 -73.5q-9 -42 -7.5 -62.5t8.5 -30.5q8 -11 21 -18t33 -7q30 0 52 13t34 31q9 13 14.5 23
t11 27.5t12 47t17.5 81.5q4 19 9 44t10 51t9 49.5t7 40.5q23 -5 39.5 -8t26.5 -3q9 0 27.5 3.5t42.5 8.5q-10 -36 -20 -76t-20 -81t-19 -81t-16 -77q-5 -20 -10 -46t-9.5 -52.5t-9 -52t-7.5 -44.5q-22 5 -38.5 8.5t-24.5 3.5q-34 0 -48 1t-14 3q1 3 17 6q0 3 1 4q1 7 -1 7
t-5 -2t-5 -2q-4 0 -3 10q-29 -20 -61 -30.5t-63 -10.5q-85 0 -123 47t-20 132zM162 606q-13 10 -25 24.5t-7 41.5q3 14 11.5 25t19 18t21 10.5t19.5 3.5q17 0 30 -8t24 -22l143 -184h-112z" />
    <glyph glyph-name="uacute" unicode="&#xfa;" horiz-adv-x="457" 
d="M-33 165q5 26 10.5 48l10.5 42q4 17 7.5 32t5.5 30q3 16 7.5 39t9.5 48t9.5 49.5t8.5 43.5q23 -5 40.5 -8t25.5 -3q9 0 27 3t43 8q-8 -27 -17.5 -63t-19.5 -75t-19.5 -78.5t-16.5 -73.5q-9 -42 -7.5 -62.5t8.5 -30.5q8 -11 21 -18t33 -7q30 0 52 13t34 31q9 13 14.5 23
t11 27.5t12 47t17.5 81.5q4 19 9 44t10 51t9 49.5t7 40.5q23 -5 39.5 -8t26.5 -3q9 0 27.5 3.5t42.5 8.5q-10 -36 -20 -76t-20 -81t-19 -81t-16 -77q-5 -20 -10 -46t-9.5 -52.5t-9 -52t-7.5 -44.5q-22 5 -38.5 8.5t-24.5 3.5q-34 0 -48 1t-14 3q1 3 17 6q0 3 1 4q1 7 -1 7
t-5 -2t-5 -2q-4 0 -3 10q-29 -20 -61 -30.5t-63 -10.5q-85 0 -123 47t-20 132zM346 699q17 14 34 22t34 8q9 0 18 -3.5t16.5 -10.5t10.5 -18t0 -25q-5 -27 -23.5 -41.5t-36.5 -24.5q-38 -22 -80.5 -46t-81.5 -45h-111z" />
    <glyph glyph-name="ucircumflex" unicode="&#xfb;" horiz-adv-x="465" 
d="M-22 165q6 26 11 48t10 42q4 17 7 32l6 30q4 16 8.5 39t9.5 48t9.5 49.5t8.5 43.5q23 -5 40 -8t25 -3q9 0 27 3t44 8q-8 -27 -18 -63t-20 -75t-19.5 -78.5t-16.5 -73.5q-9 -42 -7.5 -62.5t8.5 -30.5q8 -11 21 -18t33 -7q30 0 52 13t34 31q9 13 14.5 23t11 27.5t12 47
t17.5 81.5q4 19 9 44t10 51t9.5 49.5t7.5 40.5q23 -5 39 -8t26 -3q9 0 27.5 3.5t43.5 8.5q-10 -36 -20.5 -76t-20 -81t-18.5 -81t-17 -77q-5 -20 -9.5 -46t-9.5 -52.5t-9.5 -52t-7.5 -44.5q-22 5 -38.5 8.5t-24.5 3.5q-34 0 -48 1t-13 3q0 2 16 6q0 1 0.5 2t0.5 2q1 7 0 7
q-2 0 -5 -2t-5 -2q-6 0 -3 10q-29 -20 -61.5 -30.5t-63.5 -10.5q-85 0 -123 47t-20 132zM284 602q-29 -22 -59.5 -44.5t-57.5 -42.5h-100l199 209h89l111 -209h-100z" />
    <glyph glyph-name="udieresis" unicode="&#xfc;" horiz-adv-x="471" 
d="M-15 165q5 26 10.5 48t9.5 42q5 17 8 32l6 30q3 16 8 39t10 48t9.5 49.5t8.5 43.5q23 -5 40 -8t25 -3q9 0 27 3t44 8q-8 -27 -18 -63t-20 -75t-19.5 -78.5t-16.5 -73.5q-9 -42 -7.5 -62.5t8.5 -30.5q8 -11 21 -18t33 -7q30 0 52 13t34 31q9 13 14.5 23t11 27.5t12 47
t17.5 81.5q4 19 9 44t10 51t9.5 49.5t7.5 40.5q23 -5 39 -8t26 -3q9 0 27.5 3.5t43.5 8.5q-10 -36 -20.5 -76t-20 -81t-18.5 -81t-17 -77q-5 -20 -10 -46t-9.5 -52.5t-9 -52t-7.5 -44.5q-22 5 -38.5 8.5t-24.5 3.5q-34 0 -48 1t-13 3q0 2 16 6q0 1 0.5 2t0.5 2q1 7 -1 7
t-5 -2t-5 -2q-5 0 -2 10q-29 -20 -61.5 -30.5t-63.5 -10.5q-85 0 -123 47t-20 132zM128 614q7 31 33.5 53t57.5 22q30 0 47.5 -22t10.5 -53q-6 -30 -32.5 -52t-56.5 -22q-31 0 -48.5 22t-11.5 52zM310 614q3 15 12 29t21.5 24t27 16t29.5 6q31 0 48.5 -22t10.5 -53
q-6 -30 -32.5 -52t-57.5 -22q-30 0 -47.5 22t-11.5 52z" />
    <glyph glyph-name="yacute" unicode="&#xfd;" horiz-adv-x="471" 
d="M-78 -264q72 89 124.5 159.5t89.5 127.5q-5 30 -13.5 73t-18.5 91t-20.5 98t-19.5 93t-16.5 75.5t-10.5 46.5q31 -6 53 -10t33 -4t27 2.5t36 6.5q9 -74 23 -156.5t29 -160.5q47 72 95 155t91 164q18 -5 29.5 -8t16.5 -3q4 0 27.5 6t59.5 15q-10 -14 -33.5 -48.5
t-55.5 -82t-70.5 -105.5t-79 -119t-80 -122t-73.5 -115t-60 -98t-40 -70q-17 5 -29.5 8t-17.5 3t-30.5 -6t-65.5 -16zM390 699q16 14 32.5 22t33.5 8q9 0 18 -3.5t16.5 -10.5t11 -18t0.5 -25q-6 -27 -24 -41.5t-36 -24.5q-38 -22 -80.5 -46t-80.5 -45h-112z" />
    <glyph glyph-name="thorn" unicode="&#xfe;" horiz-adv-x="500" 
d="M83 455l13.5 67.5t15 77.5t13.5 79.5t11 74.5q23 -5 41 -8t28 -3t30 3t46 8q-11 -35 -21.5 -74.5t-20 -79.5t-18.5 -77.5t-15 -67.5v-2q26 20 60.5 33.5t79.5 13.5q40 0 75.5 -14.5t59 -45.5t32 -79t-5.5 -115q-14 -66 -44.5 -114.5t-69.5 -81t-83 -48.5t-85 -16
q-72 0 -110 40q-6 -30 -13 -65.5t-13.5 -72t-12 -73t-9.5 -68.5q-24 5 -42.5 8t-27.5 3q-10 0 -29 -3t-45 -8q10 35 20.5 74.5t20 79.5t18.5 77.5t15 67.5zM371 247q10 47 7.5 77.5t-12.5 48.5t-26 25.5t-34 7.5q-30 0 -54 -13t-42 -36t-30.5 -53.5t-19.5 -64.5
q-17 -81 2 -122t71 -41q26 0 48 13t39.5 36.5t30 54.5t20.5 67z" />
    <glyph glyph-name="ydieresis" unicode="&#xff;" horiz-adv-x="474" 
d="M-70 -264q72 89 124.5 159.5t89.5 127.5q-5 30 -13.5 73t-18 91t-20 98t-19.5 93t-16.5 75.5t-10.5 46.5q30 -6 52.5 -10t33.5 -4t27 2.5t36 6.5q8 -74 22 -156.5t29 -160.5q48 72 95.5 155t90.5 164q18 -5 30 -8t17 -3q4 0 27.5 6t58.5 15q-10 -14 -33.5 -48.5
t-55.5 -82t-70.5 -105.5t-78.5 -119t-79.5 -122t-73.5 -115t-60 -98t-40 -70q-18 5 -30.5 8t-17.5 3t-30.5 -6t-65.5 -16zM161 614q7 31 33.5 53t57.5 22q30 0 48 -22t11 -53q-3 -15 -12 -28.5t-21.5 -23.5t-27.5 -16t-30 -6q-31 0 -48.5 22t-10.5 52zM343 614q3 15 12 29
t21.5 24t27 16t29.5 6q31 0 48.5 -22t10.5 -53q-7 -30 -33.5 -52t-57.5 -22q-30 0 -47.5 22t-10.5 52z" />
    <glyph glyph-name="dotlessi" unicode="&#x131;" horiz-adv-x="173" 
d="M33 291q8 41 17.5 93.5t14.5 112.5q24 -5 42.5 -8t28.5 -3t29.5 3t45.5 8q-19 -60 -32.5 -112.5t-21.5 -93.5l-21 -96q-8 -41 -17.5 -94t-14.5 -112q-24 5 -42.5 8t-28.5 3t-29 -3t-45 -8q19 59 32 112t21 94z" />
    <glyph glyph-name="Lslash" unicode="&#x141;" horiz-adv-x="486" 
d="M119 420l13 65t13 71t12 71t11 65q25 -5 44 -7.5t29 -2.5t29 2.5t47 7.5q-7 -28 -15.5 -61t-17.5 -67t-17 -67.5t-14 -62.5q23 13 48 27t44 25q5 -20 11 -41t16 -43q-11 -5 -27 -12.5t-34.5 -17t-39.5 -20t-40 -20.5l-14 -67q-11 -51 -18.5 -89t-13.5 -70l-2 -12
q28 0 56.5 0.5t61 2.5t70 5t82.5 9q-13 -24 -20.5 -40.5t-8.5 -19.5q-1 -5 -0.5 -20.5t2.5 -36.5q-21 1 -47.5 2t-54.5 2t-55 1.5t-48 0.5t-47.5 -0.5t-53.5 -1.5t-53 -2t-48 -2q15 57 33 127t31 130q-19 -12 -36.5 -24t-31.5 -23q-5 26 -12 48t-18 42q28 14 61 30t59 30z
" />
    <glyph glyph-name="lslash" unicode="&#x142;" horiz-adv-x="270" 
d="M-19 -11q10 33 20 70.5t19 76t17.5 75t15.5 66.5q-8 -4 -13.5 -7.5t-9.5 -5.5q-7 -5 -18 -14t-12 -10q-5 18 -12 37t-25 42q10 5 24.5 12.5t29.5 15.5t30 16.5t27 15.5l16 76q7 30 14.5 67.5t14.5 77.5t13.5 79.5t10.5 74.5q24 -5 42.5 -8t28.5 -3t29.5 3t45.5 8
q-11 -35 -21 -74l-20 -78t-18.5 -76t-14.5 -67q23 14 44 27t32 20q-6 -28 0 -51.5t17 -35.5q-2 -2 -10.5 -6t-18 -9.5t-18.5 -10t-12 -5.5q-13 -7 -23 -12t-32 -17l-15 -71l-13.5 -67.5t-15 -77.5t-14 -79.5t-10.5 -74.5q-23 5 -41.5 8t-28.5 3t-29.5 -3t-45.5 -8z" />
    <glyph glyph-name="OE" unicode="&#x152;" horiz-adv-x="1006" 
d="M718 247q-8 -34 -14 -67.5t-13 -68.5q-1 -5 -1 -6.5v-2v-1.5t-1 -7q88 1 148.5 6.5t95.5 10.5q-13 -25 -21 -41.5t-9 -19.5q-2 -5 -0.5 -20t3.5 -36q-20 1 -45 2t-51 2t-51.5 1.5t-44.5 0.5q-20 0 -44 -0.5t-49.5 -1.5t-50 -2t-44.5 -2q3 9 5 14.5t3.5 10l3 9t3.5 11.5
q0 3 2 13q-41 -28 -95.5 -48.5t-134.5 -20.5q-72 0 -129.5 24t-95 68.5t-51 109t3.5 145.5q19 89 61 157.5t100.5 115.5t129.5 71t148 24q39 0 69 -5t53.5 -13.5t40.5 -19t30 -21.5q2 14 3.5 27t2.5 22q19 -1 43 -2l48 -2t47 -1.5t42 -0.5q18 0 43 0.5t51 1.5t50.5 2t43.5 2
q-11 -22 -18.5 -37.5t-8.5 -20.5t-0.5 -22.5t3.5 -41.5q-21 4 -41 8t-46 7t-60.5 5t-82.5 2q-1 -4 -2 -7.5t-2 -5.5q-7 -31 -14 -60.5t-13 -60.5l-10 -48q40 0 67 0.5t46 1.5t31 2t23 2h9t16.5 0.5t16 0.5h9.5q-11 -20 -18 -34.5t-8 -19.5q-2 -5 -0.5 -19t3.5 -34h-9.5
t-16.5 0.5t-16.5 0.5h-8.5q-10 1 -22 1.5t-30 1.5t-45 1.5t-67 0.5zM190 341q-15 -69 -9 -119.5t28 -83.5t57.5 -49t78.5 -16q49 0 92.5 19.5t78.5 54.5t60 84.5t38 109.5q15 73 11 124t-24.5 83t-54 46.5t-76.5 14.5q-47 0 -91 -16t-81 -49t-65 -83.5t-43 -119.5z" />
    <glyph glyph-name="oe" unicode="&#x153;" horiz-adv-x="897" 
d="M692 500q55 0 92.5 -17t58 -46.5t25.5 -68.5t-4 -83q-1 -5 -3 -13.5t-5 -18.5t-5.5 -19t-3.5 -13h-21t-26.5 0.5t-26 0.5h-20.5q-32 1 -64 1.5t-65 0.5q-20 0 -40 -0.5t-40 -1.5h-14q-13 -60 12.5 -101t89.5 -41q16 0 35 6t39 16.5t40.5 24.5t38.5 31l28 -34l-22 -68
q-41 -28 -94 -49t-101 -21q-54 0 -95.5 18.5t-68.5 49.5q-44 -36 -94 -52t-101 -16q-45 0 -86.5 13.5t-71 44.5t-41.5 79.5t3 119.5q15 70 47.5 119t75 80t90 44.5t92.5 13.5q47 0 91 -16t73 -48q74 64 182 64zM408 243q7 33 7.5 64t-7.5 55t-27.5 38.5t-52.5 14.5
t-58 -14.5t-43.5 -38.5t-30.5 -55t-19 -64t-8 -64t7 -55t27 -38.5t52 -14.5t58.5 14.5t44 38.5t31 55t19.5 64zM676 415q-23 0 -41.5 -9t-33.5 -24t-26.5 -34t-18.5 -38h5q20 -1 41.5 -1h41.5h42.5t42.5 1h9q2 18 1 37t-7.5 34t-20 24.5t-35.5 9.5z" />
    <glyph glyph-name="Scaron" unicode="&#x160;" horiz-adv-x="460" 
d="M434 882h100l-179 -188q34 -5 62 -19.5t54 -39.5q-20 -26 -33.5 -52t-28.5 -61h-52q-2 13 -6.5 28t-13 28t-21.5 22t-32 9q-40 0 -70.5 -24.5t-38.5 -62.5q-5 -24 1.5 -40.5t20.5 -29t33 -22t40 -18.5q29 -13 56.5 -27t47.5 -35.5t28 -53t-2 -78.5q-10 -48 -36.5 -90.5
t-65.5 -74.5t-90 -51t-111 -19q-32 0 -57 6.5t-45.5 16.5t-36.5 23t-30 26q10 16 17 30t12.5 27.5t10.5 28t11 32.5h52q4 -16 12.5 -33t21.5 -31t31.5 -23t42.5 -9t45 8.5t37.5 23t28 33.5t16.5 41q5 23 -1 39.5t-19.5 28.5t-32 21.5t-38.5 18.5q-29 13 -57.5 28t-49 37.5
t-29 56t2.5 83.5q16 72 67.5 123.5t127.5 69.5l-102 193h100l82 -87z" />
    <glyph glyph-name="scaron" unicode="&#x161;" horiz-adv-x="370" 
d="M43 139q3 -9 9 -20t15.5 -20.5t21.5 -16t27 -6.5q24 0 45.5 14t27.5 41q4 23 -16 34.5t-48 20.5q-24 7 -47 16.5t-39.5 25t-24 41t0.5 64.5q7 36 26 66.5t46.5 53t64 35t79.5 12.5q29 0 49.5 -6.5t37.5 -13.5q3 -2 3.5 -2.5t4 -2t13 -4t29.5 -7.5q-9 -12 -19 -27.5
t-19 -31.5t-15.5 -29.5t-9.5 -21.5h-57q-2 22 -14.5 39.5t-33.5 17.5q-17 0 -36.5 -12t-24.5 -38q-3 -13 1.5 -22t14 -16t22 -11.5t26.5 -8.5q24 -7 47 -16t40 -25t24 -40.5t-1 -62.5q-7 -31 -27 -62t-50 -55.5t-69 -40t-84 -15.5q-48 0 -83 15t-61 32q6 9 13.5 22t14.5 28
t12.5 29.5t8.5 26.5h55zM363 724h100l-199 -209h-89l-111 209h100l81 -88z" />
    <glyph glyph-name="Ydieresis" unicode="&#x178;" horiz-adv-x="583" 
d="M123 -11q25 78 42 148t32 140q-8 19 -21 53.5t-29.5 76t-34.5 87t-34 85.5t-29 71.5t-19 45.5q39 -7 67 -10.5t40 -3.5q9 0 26.5 2t40.5 6q12 -39 23 -75t22.5 -72t24.5 -73t28 -78q26 32 54 68.5t56 75t56 77.5t54 77q32 -8 51 -8q7 0 33.5 5.5t66.5 13.5
q-68 -78 -121.5 -141t-95.5 -113.5t-73.5 -89.5t-53.5 -69q-7 -34 -15 -74t-15 -80.5t-13 -78t-10 -66.5q-27 5 -46 8t-27 3t-29.5 -3t-50.5 -8zM210 773q3 15 12 28.5t21.5 23.5t27.5 16t30 6q31 0 48 -22t11 -52q-7 -31 -33.5 -53t-57.5 -22t-48.5 22t-10.5 53zM392 773
q3 15 12 28.5t21 23.5t27 16t30 6q31 0 48 -22t11 -52q-7 -31 -33.5 -53t-57.5 -22q-30 0 -47.5 22t-10.5 53z" />
    <glyph glyph-name="Zcaron" unicode="&#x17d;" horiz-adv-x="597" 
d="M497 882h99l-192 -200h111q40 0 79 3h10t14.5 0.5t14.5 0.5h10l-11 -54q-21 -19 -58 -57t-83 -86.5t-96.5 -104t-99 -109t-90.5 -101t-71 -80.5q3 0 5.5 -0.5t4.5 -0.5q5 0 8.5 0.5t10.5 0.5q34 0 83.5 2t101.5 5t101 7t82 8q-11 -25 -18.5 -41.5t-9.5 -22.5q-1 -4 0 -19
t2 -39q-66 2 -132.5 4t-119.5 2q-36 0 -86 -0.5t-98.5 -1.5t-89 -2t-58.5 -2l12 54q47 50 97 104t99.5 108t95.5 105t85 94.5t68 77t45 51.5h-15q-32 0 -76 -1.5t-90.5 -4t-91.5 -6t-81 -7.5q12 24 19.5 40t8.5 21q2 5 1.5 21t-2.5 38q11 -1 31 -2t45 -2t52 -2t51 -1h28
l-106 200h101l80 -87z" />
    <glyph glyph-name="zcaron" unicode="&#x17e;" horiz-adv-x="470" 
d="M-54 45q42 41 88 87t91 92.5t86.5 90t75.5 79.5q6 6 4 6l-8 -9l1 1q1 1 1.5 1t1.5 2q-25 -2 -55.5 -3.5t-61.5 -3.5t-61 -4.5t-53 -4.5q11 25 15.5 38.5l6.5 19.5q2 8 3 58q52 -5 115.5 -7t146.5 -2q19 0 36.5 0.5t34.5 1.5t36.5 2.5t43.5 3.5l-11 -54q-47 -48 -98 -99.5
t-97.5 -99.5t-85.5 -88t-61 -64q27 0 53.5 1t58 3t71 5t90.5 8q-8 -19 -15 -35.5t-8 -21.5q-2 -5 -2 -21v-33h-19.5t-26 0.5t-26 1t-19.5 0.5q-42 2 -86 2.5t-86 0.5q-61 0 -121 -3q-5 0 -14.5 -0.5t-20 -1t-20.5 -0.5h-15zM416 724h100l-199 -209h-89l-111 209h101l80 -88z
" />
    <glyph glyph-name="florin" unicode="&#x192;" horiz-adv-x="497" 
d="M5 -53q7 -4 15.5 -8.5t14.5 -4.5q20 0 34.5 24.5t29.5 62.5q16 42 30.5 80t29 75t29 75t30.5 80q-13 0 -29 -1t-31 -1.5t-27 -1.5t-18 -1q10 20 22 47t18 54q16 -1 45 -4t55 -3q3 6 6.5 12.5t6.5 13.5q16 37 41 77t57 73.5t70 55.5t81 22q7 0 25 -4t36 -11
q-11 -23 -22.5 -54t-17.5 -60l-53 -14q-6 12 -14 21.5t-16 9.5q-9 0 -18 -8.5t-20 -34.5l-37 -98q8 1 17.5 1.5t17.5 0.5q6 0 17.5 0.5t23.5 1t22 0.5h13q-14 -21 -26.5 -48.5t-17.5 -50.5q-37 4 -59.5 4.5t-43.5 0.5q-17 -45 -34.5 -89.5t-34.5 -89.5
q-43 -107 -88.5 -172.5t-92 -101.5t-91.5 -48t-87 -12q18 36 30.5 65t17.5 53z" />
    <glyph glyph-name="circumflex" unicode="&#x2c6;" horiz-adv-x="354" 
d="M172 602q-29 -22 -59.5 -44.5t-58.5 -42.5h-99l199 209h89l110 -209h-101z" />
    <glyph glyph-name="caron" unicode="&#x2c7;" horiz-adv-x="350" 
d="M296 724h100l-200 -209h-89l-109 209h99l82 -88z" />
    <glyph glyph-name="breve" unicode="&#x2d8;" horiz-adv-x="342" 
d="M115 716q-2 -43 11 -66t46 -23q35 0 56.5 23t41.5 66h78q-9 -41 -26.5 -77t-43 -64t-58 -44t-71.5 -16t-65.5 16t-40 44t-16 64t6.5 77h81z" />
    <glyph glyph-name="dotaccent" unicode="&#x2d9;" horiz-adv-x="164" 
d="M6 612q6 30 32.5 52t57.5 22t48.5 -22t11.5 -52q-7 -31 -33.5 -53t-57.5 -22t-48 22t-11 53z" />
    <glyph glyph-name="ring" unicode="&#x2da;" horiz-adv-x="266" 
d="M10 622q5 25 19.5 47t34.5 38.5t44 26t50 9.5q25 0 45 -9.5t33 -26t18 -38.5t0 -47q-6 -25 -20 -47.5t-34 -39t-44.5 -26t-49.5 -9.5t-45 9.5t-33 26t-18 39t0 47.5zM104 622q-3 -12 3.5 -20t18.5 -8t22 8t13 20q2 11 -5 19t-18 8q-12 0 -22 -8t-12 -19z" />
    <glyph glyph-name="ogonek" unicode="&#x2db;" horiz-adv-x="220" 
d="M265 55q-47 -36 -76.5 -60.5t-46.5 -41t-24 -26.5t-8 -17q-4 -16 6 -21.5t23 -5.5q5 0 19.5 4t30.5 9l7 -80q-28 -12 -49.5 -17t-41.5 -5q-26 0 -48.5 6.5t-38 20t-22 33.5t-1.5 46q7 33 46 71.5t108 83.5h116z" />
    <glyph glyph-name="tilde" unicode="&#x2dc;" horiz-adv-x="393" 
d="M-5 538q10 25 25.5 52t35.5 48.5t45 35.5t54 14q19 0 33.5 -5.5t40.5 -18.5q20 -11 28.5 -14.5t16.5 -3.5q10 0 21 14t20 32h80q-6 -17 -19.5 -43.5t-34.5 -51t-48.5 -42t-62.5 -17.5q-16 0 -34 5.5t-41 19.5q-17 11 -26 14t-17 3q-9 0 -16.5 -9t-21.5 -33h-79z" />
    <glyph glyph-name="hungarumlaut" unicode="&#x2dd;" horiz-adv-x="468" 
d="M166 699q17 14 33.5 22t33.5 8q9 0 18 -3.5t16.5 -10.5t11 -18t0.5 -25q-6 -27 -24.5 -41.5t-35.5 -24.5q-38 -22 -81 -46t-81 -45h-110zM350 699q17 14 33.5 22t33.5 8q9 0 18 -3.5t16.5 -10.5t11 -18t0.5 -25q-6 -27 -24.5 -41.5t-35.5 -24.5q-38 -22 -80.5 -46
t-81.5 -45h-111z" />
    <glyph glyph-name="endash" unicode="&#x2013;" horiz-adv-x="587" 
d="M45 289h516l-21 -98h-516z" />
    <glyph glyph-name="emdash" unicode="&#x2014;" horiz-adv-x="1086" 
d="M65 289h976l-21 -98h-976z" />
    <glyph glyph-name="quoteleft" unicode="&#x2018;" 
d="M90 432l1 1q-11 -19 -29.5 -37t-49.5 -18q-10 0 -20 3.5t-17.5 10.5t-11 18t-0.5 27q4 15 11.5 27t15.5 23q1 0 2 1.5t3 3.5l-4 -3q19 24 41 51.5t44.5 56t44.5 56t42 51.5l59 -23z" />
    <glyph glyph-name="quoteright" unicode="&#x2019;" 
d="M85 644l-1 -1q10 19 29 37t50 18q10 0 20.5 -3.5t18 -10.5t11 -18t0.5 -27q-4 -15 -12 -27t-16 -23q0 -1 -4 -5l4 3q-20 -24 -42 -51.5t-44.5 -56t-45 -56t-41.5 -51.5l-58 23z" />
    <glyph glyph-name="quotesinglbase" unicode="&#x201a;" 
d="M85 105l-1 -1q10 19 29 37t50 18q10 0 20.5 -3.5t18 -10.5t11 -18t0.5 -27q-4 -15 -12 -27t-16 -23q0 -1 -4 -5l4 3q-20 -24 -42 -51.5t-44.5 -56t-45 -56t-41.5 -51.5l-58 23z" />
    <glyph glyph-name="quotedblleft" unicode="&#x201c;" horiz-adv-x="376" 
d="M270 432l1 1q-10 -19 -29 -37t-50 -18q-10 0 -20.5 3.5t-18 10.5t-11 18t-0.5 27q4 15 12 27t16 23q0 1 1 2q2 2 2 3l-2 -3q19 24 41 51.5t44.5 56t44.5 56t42 51.5l59 -23zM112 432l1 1q-11 -19 -29.5 -37t-50.5 -18q-10 0 -20 3.5t-17.5 10.5t-10.5 18t0 27q4 15 11 27
t15 23l2 2q1 1 1 1.5t1 1.5l-3 -3q19 24 41.5 51.5t45 56t44.5 56t41 51.5l60 -23z" />
    <glyph glyph-name="quotedblright" unicode="&#x201d;" horiz-adv-x="377" 
d="M264 644l-1 -1q11 19 29.5 37t50.5 18q10 0 20 -3.5t17.5 -10.5t11 -18t0.5 -27q-4 -15 -11.5 -27t-15.5 -23l-5 -5l4 3q-20 -24 -42 -51.5t-44.5 -56t-44.5 -56t-41 -51.5l-60 23zM106 644l-1 -1q10 19 29 37t50 18q10 0 20.5 -3.5t18 -10.5t11 -18t0.5 -27
q-4 -15 -12 -27t-16 -23q-3 -3 -4 -5l3 3q-19 -24 -41 -51.5t-44.5 -56t-45 -56t-41.5 -51.5l-58 23z" />
    <glyph glyph-name="quotedblbase" unicode="&#x201e;" horiz-adv-x="377" 
d="M264 105l-1 -1q11 19 29.5 37t50.5 18q10 0 20 -3.5t17.5 -10.5t11 -18t0.5 -27q-4 -15 -11.5 -27t-15.5 -23l-5 -5l4 3q-20 -24 -42 -51.5t-44.5 -56t-44.5 -56t-41 -51.5l-60 23zM106 105l-1 -1q10 19 29 37t50 18q10 0 20.5 -3.5t18 -10.5t11 -18t0.5 -27
q-4 -15 -12 -27t-16 -23q-3 -3 -4 -5l3 3q-19 -24 -41 -51.5t-44.5 -56t-45 -56t-41.5 -51.5l-58 23z" />
    <glyph glyph-name="dagger" unicode="&#x2020;" horiz-adv-x="473" 
d="M37 482q56 -8 95 -10.5t72 -2.5q11 53 21.5 114.5t12.5 110.5q24 -6 42.5 -9t27.5 -3t29 3t47 9q-20 -49 -35.5 -110.5t-26.5 -114.5q33 0 72 2.5t99 10.5q-11 -25 -18 -42.5t-9 -25.5q-2 -7 -2 -24.5t1 -42.5q-60 9 -98 11.5t-68 2.5q-12 -57 -23 -116t-22 -117
q-3 -13 -6.5 -31.5t-7 -38t-7 -38t-5.5 -31.5q-23 5 -39.5 8t-25.5 3t-27 -3t-42 -8q3 13 7.5 31.5t9 38t8.5 38t7 31.5q8 33 15 61.5t13.5 55.5t13 55t13.5 61q-33 0 -72.5 -2.5t-99.5 -10.5q11 25 18 42.5t9 23.5q2 8 2 25.5t-1 42.5z" />
    <glyph glyph-name="daggerdbl" unicode="&#x2021;" horiz-adv-x="476" 
d="M182 341q2 11 3.5 21.5t4.5 22.5q0 5 1 10.5t2 10.5q-33 0 -72.5 -2.5t-99.5 -10.5q11 25 18 42.5t9 24.5q2 8 2 25.5t-1 42.5q60 -9 98 -11.5t68 -2.5q6 26 12.5 68t15.5 111q47 -11 67 -11q21 0 71 11q-20 -68 -31.5 -110.5t-16.5 -68.5q33 0 72.5 2.5t99.5 10.5
q-11 -25 -18 -42.5t-9 -24.5t-2 -24.5t1 -42.5q-57 8 -96 10.5t-73 2.5l-4 -20q-3 -12 -5.5 -23t-4.5 -22q-6 -25 -9 -46l-5 -20q32 1 75.5 3t98.5 10q-11 -25 -18 -42.5t-9 -24.5t-2 -24.5t1 -42.5q-60 9 -98 11.5t-68 2.5q-6 -26 -12.5 -68t-15.5 -111q-23 5 -40 8t-27 3
t-28.5 -3t-42.5 -8q20 67 31.5 110t16.5 69q-33 0 -72.5 -2.5t-98.5 -10.5q11 25 18 42.5t9 23.5q2 8 2 25.5t-1 42.5q59 -9 97 -11.5t69 -2.5l3 10.5l3 10.5q2 11 5 22t6 23z" />
    <glyph glyph-name="bullet" unicode="&#x2022;" horiz-adv-x="400" 
d="M16 341q8 38 29.5 71.5t51.5 58.5t67 39.5t75 14.5t68.5 -14.5t50 -39.5t27 -58.5t-0.5 -71.5t-30 -71.5t-52 -58.5t-67 -39.5t-75 -14.5t-68.5 14.5t-50 39.5t-26.5 58.5t1 71.5z" />
    <glyph glyph-name="ellipsis" unicode="&#x2026;" horiz-adv-x="862" 
d="M44 69q3 16 12.5 30.5t23 25.5t29.5 17.5t32 6.5t29.5 -6.5t22 -17.5t11.5 -25.5t0 -30.5q-4 -16 -13.5 -30.5t-23 -25.5t-29.5 -17.5t-32 -6.5t-29 6.5t-21.5 17.5t-12 25.5t0.5 30.5zM658 69q3 16 12.5 30.5t23 25.5t29 17.5t32.5 6.5q16 0 29 -6.5t22 -17.5t12 -25.5
t0 -30.5q-4 -16 -13.5 -30.5t-23 -25.5t-29.5 -17.5t-32 -6.5q-17 0 -30 6.5t-21.5 17.5t-11.5 25.5t1 30.5zM351 69q3 16 12.5 30.5t23 25.5t29.5 17.5t32 6.5t29 -6.5t22 -17.5t12 -25.5t0 -30.5q-4 -16 -13.5 -30.5t-23 -25.5t-29.5 -17.5t-32 -6.5t-29 6.5t-21.5 17.5
t-12 25.5t0.5 30.5z" />
    <glyph glyph-name="perthousand" unicode="&#x2030;" horiz-adv-x="980" 
d="M308 160q10 51 32 84.5t49.5 53.5t57 28.5t55.5 8.5q21 0 42.5 -5.5t39.5 -18.5t29.5 -35t13.5 -54q15 32 36 54t44 35t47.5 18.5t45.5 5.5q26 0 52 -8.5t44.5 -28.5t26 -53.5t-2.5 -84.5q-11 -50 -33 -84t-49.5 -54t-57 -28.5t-55.5 -8.5q-21 0 -43 5.5t-39.5 19
t-29.5 35t-13 53.5q-15 -32 -36 -53.5t-44.5 -35t-47.5 -19t-45 -5.5q-26 0 -52 8.5t-44.5 28.5t-26 54t3.5 84zM76 499q10 51 32 84.5t49.5 53.5t57 28.5t55.5 8.5t51.5 -8.5t44 -28.5t26 -53.5t-2.5 -84.5q-11 -50 -33 -84t-49 -54t-56.5 -28.5t-55.5 -8.5t-52 8.5
t-44.5 28.5t-26 54t3.5 84zM571 703q14 -6 22.5 -9t10.5 -3t25.5 7.5t61.5 20.5l-565 -762q-13 5 -21.5 8.5t-10.5 3.5q-3 0 -26 -7.5t-61 -21.5zM724 160q-10 -43 -7.5 -70t25.5 -27t36.5 27t23.5 70q9 43 6.5 70.5t-25.5 27.5t-36.5 -27.5t-22.5 -70.5zM426 160
q-10 -43 -7.5 -70t25.5 -27t36 27t23 70q9 43 7 70.5t-25 27.5t-36.5 -27.5t-22.5 -70.5zM194 499q-9 -43 -7 -70t25 -27t36.5 27t22.5 70t7 70.5t-25 27.5t-36.5 -27.5t-22.5 -70.5z" />
    <glyph glyph-name="guilsinglleft" unicode="&#x2039;" horiz-adv-x="197" 
d="M180 467q7 -20 24.5 -36.5t43.5 -19.5l-154 -170q8 -19 18 -42t20 -46.5t19.5 -45.5t17.5 -40q-12 -1 -24.5 -6.5t-25 -14t-23 -19t-17.5 -21.5l-98 236z" />
    <glyph glyph-name="guilsinglright" unicode="&#x203a;" horiz-adv-x="195" 
d="M25 415q23 3 49.5 21t41.5 41l98 -237l-199 -224q-8 20 -24.5 36t-42.5 20l152 169z" />
    <glyph glyph-name="fraction" unicode="&#x2044;" horiz-adv-x="329" 
d="M332 694q14 -7 23 -10t11 -3t22 6.5t52 18.5l-443 -740q-31 13 -34 13q-2 0 -22 -6.5t-52 -18.5z" />
    <glyph glyph-name="Euro" unicode="&#x20ac;" horiz-adv-x="577" 
d="M602 590q-10 -17 -21 -39.5t-24 -50.5l-52 -1q-14 38 -41.5 59t-54.5 21q-44 0 -87.5 -37t-75.5 -114h120q25 0 57.5 2t91.5 13q-20 -31 -34.5 -56.5t-23.5 -43.5q2 0 4.5 0.5t4.5 0.5q-27 -41 -43.5 -74t-22.5 -47q-35 6 -62 8t-47 2h-91q-2 -72 27 -110.5t77 -38.5
q31 0 74 22.5t94 68.5l18 -54q-5 -14 -11.5 -31.5t-13.5 -39.5q-18 -13 -42 -24.5t-50.5 -19.5t-53 -13t-49.5 -5q-48 0 -86.5 17.5t-66 50t-42.5 77.5t-16 99q-19 -2 -41.5 -5.5t-48.5 -8.5q18 29 31 55.5t22 49.5q-8 -2 -15.5 -3t-15.5 -3q20 35 34.5 65.5t24.5 55.5
q16 -2 30.5 -4.5t28.5 -3.5q25 51 60.5 95.5t77.5 77.5t89.5 52t95.5 19q45 0 90.5 -14.5t75.5 -35.5zM317 330h24t28 1q-8 1 -15.5 1h-13.5h-125q0 -1 -1 -1t-1 -1h104v0z" />
    <glyph glyph-name="trademark" unicode="&#x2122;" horiz-adv-x="870" 
d="M177 601q-16 0 -35.5 -1t-38 -2.5t-35.5 -2.5t-29 -2q15 21 24 34t9 15q0 1 -3.5 13.5t-9.5 33.5q18 -1 42.5 -2.5t51 -2.5t51.5 -1.5t43 -0.5t43 0.5t51 1.5t51.5 2.5t43.5 2.5q0 1 1 1.5t1 1.5h51q14 -57 32 -115t35 -110q4 -9 5.5 -13.5l2.5 -7.5t3 -7.5t6 -14.5
l32 41q20 26 42.5 55t45 58.5t44.5 58.5t42 55h47l-16 -142q-3 -32 -7 -74t-7.5 -85t-6.5 -83t-4 -67q-21 8 -36 12.5t-20 4.5t-20 -4t-36 -10q8 46 16.5 102t14.5 115v18q-20 -25 -42 -55t-43 -60t-39 -57t-31 -47h-44q-10 43 -20.5 77.5t-21.5 67.5q-5 15 -9 29t-9 28
l-2 10q-2 -6 -3 -9.5t-3 -9.5q-15 -46 -29.5 -97.5t-28.5 -114.5q-19 8 -30.5 12.5t-13.5 4.5q-3 0 -20 -5.5t-44 -14.5q12 28 26.5 65.5t30 78t30 80.5t25.5 73q5 13 10 28t11 32q-29 2 -63 4t-60 2l-21 -102q-19 -83 -33 -163q-2 -8 -4 -21.5t-4.5 -27t-4.5 -26t-3 -18.5
q-20 6 -34.5 10.5t-19.5 4.5t-21 -4.5t-39 -10.5l11 50q9 35 20.5 83t25.5 116zM411 613q7 20 13 39.5t12 35.5q-14 -21 -23 -33t-9 -13q0 -5 7 -29z" />
    <glyph glyph-name="minus" unicode="&#x2212;" horiz-adv-x="593" 
d="M46 312h522l-22 -103h-522z" />
    <glyph glyph-name="fi" unicode="&#xfb01;" horiz-adv-x="507" 
d="M337 612q-24 18 -46 18q-26 0 -41 -19.5t-20 -44.5q-2 -11 -5 -34.5t-5 -46.5h23h17t23 0.5t23 0.5h17q-7 -17 -11 -31t-5 -15q0 -2 -1 -15.5t-1 -30.5h-13t-19.5 0.5t-19.5 0.5h-13q-8 0 -11.5 0.5t-6 1t-6 0.5h-11.5q-10 -48 -21 -100t-21.5 -105t-20.5 -104.5
t-19 -98.5q-23 5 -40 8t-26 3q-8 0 -27 -3t-44 -8q26 102 50 204t45 203q-4 0 -7.5 -0.5t-7.5 -0.5h-11t-17.5 -0.5t-17.5 -0.5h-11q6 17 11.5 30.5t5.5 15.5q1 1 1 15t2 31h13.5t20 -0.5t20 -0.5h13.5h5q9 28 22.5 58.5t31 59t38 54t42.5 43.5q12 10 26.5 19.5t31 16.5
t33 11t32.5 4q13 0 44 -11q-5 -25 -8 -35t-5 -18v1q-3 -11 -7.5 -29t-6.5 -29zM327 291q8 41 17 93.5t15 112.5q24 -5 42.5 -8t28.5 -3t29.5 3t45.5 8q-19 -60 -32.5 -112.5t-21.5 -93.5l-21 -96q-8 -41 -17.5 -94t-14.5 -112q-24 5 -42.5 8t-28.5 3t-29.5 -3t-45.5 -8
q18 59 32 112t22 94zM384 624q7 30 33.5 52t57.5 22q30 0 48 -22t11 -52q-3 -15 -12 -29t-21 -24t-27 -16t-30 -6q-31 0 -48.5 22t-11.5 53z" />
    <glyph glyph-name="fl" unicode="&#xfb02;" horiz-adv-x="513" 
d="M337 612q-24 18 -45 18q-26 0 -41.5 -19.5t-20.5 -44.5q-2 -11 -5 -34.5t-5 -46.5h23h17t23 0.5t23 0.5h17q-6 -17 -11 -31t-5 -15q0 -2 -1 -15.5t-2 -30.5h-13t-19 0.5t-19 0.5h-13q-8 0 -11.5 0.5t-6 1t-6 0.5h-11.5q-10 -48 -21 -100t-21.5 -105t-21 -104.5
t-19.5 -98.5q-22 5 -39 8t-26 3q-8 0 -27 -3t-45 -8q28 102 51 204t45 203q-4 0 -7.5 -0.5t-7.5 -0.5h-11.5t-17.5 -0.5t-17 -0.5h-11q6 17 11.5 30.5t5.5 15.5q0 1 0.5 15t2.5 31h13.5t20 -0.5t20 -0.5h13.5h5q9 28 22.5 58.5t31 59t37.5 54t42 43.5q24 20 58 35.5t66 15.5
q11 0 44 -11q-5 -25 -8 -35t-5 -18v1q-3 -11 -7.5 -29t-6.5 -29zM367 455q7 30 14.5 67.5t14.5 77.5t13 79.5t11 74.5q24 -5 42.5 -8t28.5 -3t29 3t45 8q-11 -35 -21.5 -74.5t-20 -79.5t-18 -77.5t-15.5 -67.5l-35 -167l-13.5 -67.5t-15 -77.5t-14 -79.5t-10.5 -74.5
q-23 5 -41 8t-28 3t-30 -3t-46 -8q10 35 21 74.5t20.5 79.5t18.5 77.5t15 67.5z" />
    <glyph glyph-name="LDO" horiz-adv-x="720" 
d="M343 162q0 -2 -1.5 -6t-1.5 -5v-7h-4v10q4 4 7 8zM288 144q4 7 4 18h15q-7 0 -7 -8q0 -25 3 -32h4q2 5 7 14h4v-14h-11q-1 0 -2.5 1t-2.5 3t-2 3h-8q0 1 -2 6t-2 9zM374 110v15q3 0 5 1.5t3 2.5v-13q2 -1 4 -2.5t6 -3.5l1 -16q-6 7 -19 16zM89 627q24 7 64 7q25 0 37 -7
q10 -7 34 -7q19 9 22 18q29 0 33 24l9 4q2 3 7 5q5 0 5 2q5 2 7.5 6.5t10.5 4.5q1 3 7 6q7 2 7 5q32 0 32 18q8 0 13 6q4 7 12 7q1 2 9.5 5t8.5 6q7 0 10 3q12 8 16 8l9 4q7 2 7 7q11 0 22 4q11 3 19 3q0 4 7 8q7 2 8 3l89 19l42 -4l15 -8q7 -3 11 -7q10 -7 31 -18l7 -42
q-42 0 -42 5q-5 0 -14 4t-11 4q0 4 -1.5 5.5t-6.5 4.5h-68q-3 -3 -7 -10q-7 0 -21 -4t-21 -4q-13 -9 -18.5 -9t-14.5 -3q-4 0 -8 -6l-6 -6q-10 -3 -8 -3h-4q-1 -3 -8.5 -5l-7.5 -2q-3 0 -5.5 -2t-6.5 -5t-6 -5q-11 0 -15 -10q-5 0 -6 -2.5t-1 -9.5q-6 0 -13.5 -3.5t-8 -3.5
t-6.5 -4.5t-14 -4.5q-2 -1 -7 -2t-8 -6q-2 -1 -4 -4q-2 -5 -3 -6q-11 0 -11 -8q-4 0 -7 -1.5t-6 -4.5l-5 -5q-15 0 -15 -11q-5 0 -13 -7v-11q-4 -3 -6.5 -4t-4.5 -5v-15q6 -7 11 -7v-48q-6 0 -11 -9v-11q-2 -2 -4 -3q-3 -2 -7 -4v-22q-6 -3 -7 -4.5t-1 -10.5q0 -11 -3 -11
l-7 -7q-9 -4 -10.5 -6t-1.5 -10q-9 -4 -15 -8t-8 -11q-11 -11 -44 -11q-17 11 -35 11q-2 3 -7 11h-15q-3 0 -9 4q-7 4 -13 4q0 11 -11 16q0 7 -4 11q-10 0 -21 -1l-11 -1q-4 0 -11 7q-3 2 -6 2v55q2 3 5 5l6 4l4 83q1 0 2.5 1t2.5 3t2 3v15q5 2 6 6t5 4q0 1 10 4.5t10 7.5
q21 7 26 7zM385 132q-4 5 -7 7q-4 1 -15 1v18q6 -6 18 -14q0 -8 4 -12zM400 132q3 -3 3 -7q-3 3 -10 7h7zM403 125h7q5 2 12 10q6 9 10 9q-1 -4 -3.5 -6t-6.5 -6v-14l6 -4t4 -4q-4 0 -10 -7v-13l7 -7h17q1 -6 4 -10q2 -6 18 -12q3 11 3 22q-9 11 -22 11v31q3 0 11 7l-6 6
q-3 2 -5 6q2 -1 12 -5q6 -2 17 -5q6 -2 19 -2v-22q3 -2 6.5 -3.5t4.5 -3.5q0 -16 4 -20h9q3 3 3 14v6q9 0 13 1.5t9 5.5q-7 8 -11 8v14q3 0 11 8v26q-3 2 -6 3.5t-5 5.5q0 8 -1.5 10t-9.5 5q7 0 12.5 5t6.5 5v-10q0 -8 7 -8q3 -10 4 -11.5t7 -4.5q0 -15 8 -22h3q2 2 4 8t3 6
q20 7 20 24q5 0 18 8v-58h-7q-3 -3 -3 -14q-4 -1 -14 -8q10 -7 32 -7q0 -5 -2 -6.5t-5 -6.5v-36q-4 2 -5.5 3.5t-2 3.5t-3.5 7h-20q0 -2 -2 -6q-2 -6 -2 -8q-4 0 -11 -8q7 0 11 -3v-7q-2 -2 -5 -3.5t-6 -4.5v-16q-19 0 -22 -8v-7l1 -1q0 1 -4 1q0 3 -2 8t-2 7q-18 0 -23 -8
v-7q11 -11 22 -11v-7h-7q-12 -5 -21 -7q-4 -1 -10 -1v15q7 0 7 7q0 35 -3 43h-3q-8 -8 -8 -39q-7 0 -11 -4v-14h-26l-4 -8v-38q-10 0 -24 -4q9 -7 14 -7v-18q-6 2 -6 6q0 3 -7 5h-4q-5 -2 -6 -5q-2 -4 -5 -6v18q3 0 11 7q0 57 -7 64h-4q-1 -1 -3 -2l-1 -1l4 3q-4 4 -11 4
q0 31 -7 39h-4q-6 -3 -5 -21q1 -34 1 -31v-55q0 -1 4 -3t4 -4v-7q0 -1 -3.5 -4.5t-3.5 -6.5h-29v25q0 2 -1 3l-4 2q-2 1 -5 3q-2 7 -7 16h-4q-7 -7 -7 -24q3 -2 7 -3l4 -4v-7q-5 -4 -15 -11q3 0 11 11v7q0 7 -18 7q-15 0 -18 -7v-11q0 4 -7 4q0 10 -5 15q-5 4 -16 7v16l-7 4
h-15v14q-6 8 -11 8q-4 12 -22 18v31q11 3 11 15q2 0 5.5 1.5t5.5 1.5q0 19 -4 22h-7q-3 -3 -3 -14q-5 0 -19 -8v44q4 0 7 2t4 2v38h18v-14q-5 0 -7 -4q-2 -2 -3 -4q29 0 36 8v7l-4 4l4 -4h17q0 -31 3 -35h-9l-7 -7v-15q-6 -2 -7 -3.5t-4 -10.5q-4 0 -11 -8h35v-10
q-9 -4 -13 -8q0 -11 7 -24q10 4 21 17v22h7q1 -12 3 -31h8q4 3 4 16q18 0 21 8v7l-7 7l7 4v14q3 -2 8 -3.5t7 -3.5q0 -8 1 -9.5t5 -8.5q27 0 32 11v9h-1q1 -2 5 -2q6 8 6.5 11t0.5 11q3 0 11 7v20q-7 8 -11 8q0 2 -2 4t-2 3zM617 129q2 -1 3 -2l1 -2h8q0 -3 -4 -7h-3
q-5 4 -5 11zM629 125q0 4 3 7q0 -2 -1 -3q-2 -3 -2 -4zM632 132v50q4 0 11 8v10h15l4 8v22h7v-90q-1 -2 -5 -3q-3 -2 -6 -5v-14l-14 -8q0 19 -8 22h-4zM456 -67q2 -1 3 -2l1 -2v3q-1 1 -4 1zM460 -71q4 -1 9 -8l6 -6q0 7 -7 14h-8zM468 -67q3 9 3 31h15q2 -2 3 -4q0 -4 4 -6
q2 -1 4 -1q-2 -2 -5 -3.5t-6 -3.5v-9q0 -5 -3 -5q-3 1 -6 1h-9zM414 -10q-1 -5 -1 -15v-12q0 -20 -2 -26h-4v49q3 0 7 4zM307 -89l3 -4q0 3 -1 4h-2zM310 -93q4 0 8 -3q-8 0 -8 3zM264 129q-3 0 -7 3v12l-7 7h-15v15q11 0 11 9v7q-1 3 -5.5 5t-5.5 3v10q-6 8 -11 8
q3 0 7 2.5t4 4.5v7q0 3 -4 4q-5 2 -7 4v34h8v-16l3 -7h15v-33q-8 0 -8 -8v-7q0 -3 8 -3v-24q2 -1 6 -4t5 -4v-26zM296 90q4 4 4 20h13q-2 -1 -3.5 -3t-2.5 -4v-31q-1 1 -3 2.5t-4 1.5q0 7 -4 14zM307 72l4.5 -2t6.5 -2h-8q-1 1 -1 2zM318 68q1 7 7 15v-15h-7zM531 237
q2 -2 3 -4l4 -2q2 -1 4 -1l1 -15h-18q0 8 -1.5 10t-11.5 5q0 34 -4 42h-3q-4 -2 -5 -8q-2 -6 -3 -7h-4v15h15q1 6 4 14h9v-14q8 -8 11 -8zM511 305q0 7 -6 7q-8 -7 -12 -7v14h15q0 -3 1.5 -8t1.5 -6zM300 290h-12q0 -2 -1.5 -6t-1.5 -5q-27 -7 -28 -7v25h15l7 8v14
q27 0 31 20q18 5 22 22h15q0 -29 7 -34h4q6 5 6 20q7 4 10 7v15q9 -8 11 -8h8q-1 0 7 8q0 -18 7 -22h4l3.5 7l3.5 7h15q1 -5 4 -11q1 -1 9 -3q-14 0 -14 -8v-7q4 -5 36 -5v-15h-39q-2 2 -3 8q-3 6 -4 7h-4q-2 -5 -7 -15h-4q-2 3 -7 15h-15q0 -6 -3 -15h-8q0 4 -3 15h-28
q-2 -6 -7 -15q-10 0 -20 -8z" />
    </font>
</defs>
</svg>
