<?xml version="1.0" standalone="no"?>
<!DOCTYPE svg PUBLIC "-//W3C//DTD SVG 1.1//EN" "http://www.w3.org/Graphics/SVG/1.1/DTD/svg11.dtd" >
<svg xmlns="http://www.w3.org/2000/svg" xmlns:xlink="http://www.w3.org/1999/xlink" version="1.1">
<metadata>
Created by FontForge 20170731 at Fri Mar 26 00:59:19 2004
 By Aleksey,,,
Copyright (c) Luke Owens, 2004. All rights reserved.
</metadata>
<defs>
<font id="OregonLDOExtendedBlack" horiz-adv-x="215" >
  <font-face 
    font-family="Oregon LDO Extended Black"
    font-weight="400"
    font-stretch="normal"
    units-per-em="1000"
    panose-1="2 1 6 3 0 0 0 2 0 4"
    ascent="800"
    descent="-200"
    x-height="500"
    cap-height="693"
    bbox="-87 -249 1264 896"
    underline-thickness="50"
    underline-position="-150"
    unicode-range="U+0020-FB02"
  />
<missing-glyph horiz-adv-x="278" 
 />
    <glyph glyph-name=".notdef" horiz-adv-x="278" 
 />
    <glyph glyph-name=".null" horiz-adv-x="0" 
 />
    <glyph glyph-name="nonmarkingreturn" horiz-adv-x="278" 
 />
    <glyph glyph-name="space" unicode=" " horiz-adv-x="278" 
 />
    <glyph glyph-name="space" unicode="&#xa0;" horiz-adv-x="278" 
 />
    <glyph glyph-name="exclam" unicode="!" horiz-adv-x="202" 
d="M0 77q0 26 15 46.5t41 31.5q-5 46 -10.5 96.5t-11 100t-10 95.5t-8.5 82t-6 59.5t-2 29.5q0 22 8 37.5t21 25t29.5 13.5t33.5 4t33.5 -4t29.5 -13.5t21 -25t8 -37.5q0 -7 -2.5 -36.5t-7 -72.5t-10 -95t-11.5 -103q-2 -15 -4 -36t-4.5 -43t-5 -42.5t-3.5 -34.5
q25 -11 40.5 -31.5t15.5 -46.5q0 -18 -8 -34t-21.5 -27.5t-31.5 -18.5t-39 -7t-39 7t-31.5 18.5t-21.5 27.5t-8 34z" />
    <glyph glyph-name="quotedbl" unicode="&#x22;" horiz-adv-x="338" 
d="M19 698h132v-331h-132v331zM186 698h131v-331h-131v331z" />
    <glyph glyph-name="numbersign" unicode="#" horiz-adv-x="545" 
d="M146 387h-104q10 16 19.5 36.5t17 41t11.5 39t4 30.5h90q8 30 12 46.5t7 27.5q1 3 1.5 7.5t1.5 6.5q0 2 1 5t1 5q2 5 6.5 19t6.5 20q20 -6 31.5 -8.5t15.5 -2.5q3 0 47 11q2 1 10.5 3.5t17.5 5t16.5 5t8.5 2.5q-23 -40 -40.5 -73.5t-29.5 -79.5h54q4 14 7.5 27.5
t5.5 23.5q6 27 9 36h-1q1 3 3 10.5t4 12.5q0 6 0.5 16.5t0.5 11.5q26 -7 39 -9.5t15 -2.5q5 0 31 6t74 17q-14 -23 -25 -39t-19 -32t-15 -34t-14 -44h96q-8 -15 -16 -35.5t-14 -41t-10 -39.5t-4 -31h-90q-5 -17 -8.5 -33t-8.5 -31q-2 -8 -3.5 -13t-3 -9.5t-3 -10.5t-3.5 -16
h97q-8 -15 -16 -35t-14 -40.5t-10 -39.5t-4 -32h-90q-2 -5 -3 -10t-3 -10q-2 -8 -4 -15.5t-4 -12.5q-1 -5 -2.5 -10t-3 -14t-4.5 -22.5t-7 -35.5h-29q-5 0 -8 0.5t-4 0.5q-2 0 -3.5 0.5t-2.5 0.5q-2 0 -3 0.5t-2 0.5h-1q-1 0 -4.5 -0.5t-8.5 -1.5q-1 0 -7.5 -0.5t-13.5 -0.5
h-47q7 15 13 28t11.5 27.5t11 32t12.5 42.5h-52q-6 -25 -10.5 -42t-7.5 -31t-5 -27t-5 -30h-27q-5 0 -9.5 0.5t-6.5 0.5q-1 0 -2 0.5t-2 0.5q-4 1 -9 1l-8 -2q-2 0 -10 -0.5t-15 -0.5h-51l17 33q4 9 8 17.5t8 19t9 25t11 35.5h-103q10 16 19.5 36.5t17 41t11.5 39t4 30.5h90
zM314 387h-54q-5 -20 -9 -37l-8 -34q-2 -7 -3 -11l-2 -8t-2 -9t-4 -14h53z" />
    <glyph glyph-name="dollar" unicode="$" horiz-adv-x="579" 
d="M238 281q-50 17 -87 35t-61 40.5t-36 51t-12 67.5q0 75 49.5 126.5t142.5 67.5q-3 16 -9.5 38.5t-17.5 53.5q38 -12 60 -17t27 -5t27 4.5t58 15.5q-10 -31 -17 -54.5t-8 -30.5q65 -5 108 -25.5t76 -39.5q-20 -31 -32 -58.5t-22 -62.5h-66q-9 21 -25 42.5t-41 30.5v-158
q49 -16 86.5 -33t63 -38.5t39 -49.5t13.5 -66q0 -36 -13.5 -70.5t-39.5 -63.5t-63 -51t-85 -34q2 -18 6 -46.5t13 -72.5q-65 17 -78 17q-11 0 -79 -20q16 70 21 111q-57 2 -111.5 18.5t-112.5 54.5q9 17 14.5 32t9 29t6 29.5t5.5 34.5h65q30 -45 62.5 -64.5t63.5 -24.5v186z
M352 113q42 25 42 71q0 7 -1 13.5t-5 13t-12.5 13.5t-23.5 15v-126zM238 553q-36 -19 -36 -54t36 -56v110z" />
    <glyph glyph-name="percent" unicode="%" horiz-adv-x="1052" 
d="M39 490q0 39 15.5 73t44 59t68.5 39t89 14t89 -14t68.5 -39t44 -59t15.5 -73q0 -40 -15.5 -74t-44 -58.5t-68.5 -38.5t-89 -14t-89 14t-68.5 38.5t-44 58.5t-15.5 74zM580 171q0 39 15.5 73t44 59t68.5 39.5t89 14.5t89 -14.5t68.5 -39.5t44 -59t15.5 -73t-15.5 -73
t-44 -59t-68.5 -39t-89 -14t-89 14t-68.5 39t-44 59t-15.5 73zM691 702q33 -11 42 -11q3 0 33 9t78 23l-484 -765q-17 5 -28.5 8.5t-14.5 3.5q-5 0 -35.5 -9t-76.5 -22zM736 171q0 -18 3.5 -34t11 -29t19 -20.5t27.5 -7.5q15 0 26 7.5t18.5 20.5t11.5 29t4 34q0 36 -15 63
t-45 27q-32 0 -46.5 -27t-14.5 -63zM196 490q0 -18 3.5 -34t11 -29t19 -20.5t26.5 -7.5q16 0 27.5 7.5t19 20.5t11 29t3.5 34q0 35 -14.5 62.5t-46.5 27.5q-30 0 -45 -27.5t-15 -62.5z" />
    <glyph glyph-name="ampersand" unicode="&#x26;" horiz-adv-x="791" 
d="M158 504q0 36 15.5 67t43 54.5t66 36.5t84.5 13q41 0 75.5 -9t59 -26t38.5 -43t14 -59q0 -27 -11.5 -51t-30 -45t-42 -38.5t-47.5 -32.5q19 -20 35 -36.5t31.5 -31.5t31.5 -30.5t36 -34.5q33 39 66 86.5t70 110.5q23 -38 48.5 -59.5t51.5 -35.5q-23 -28 -42 -51.5
t-37.5 -45t-36.5 -41t-39 -40.5q11 -10 22.5 -21t24.5 -22q14 -12 34 -29.5t40 -35.5t37.5 -34t26.5 -25h-41h-36.5t-27 0.5t-12.5 0.5h2q-14 2 -27.5 3t-24.5 1q-10 0 -22.5 -1t-25.5 -3q-2 0 -6 -0.5t-8 -0.5h-19q-2 4 -8.5 11t-10.5 12q-10 11 -16 19t-21 23
q-25 -18 -51 -32.5t-54.5 -24t-61.5 -14.5t-72 -5q-51 0 -96.5 12t-79.5 35.5t-54 58.5t-20 82q0 31 13.5 60.5t37.5 56.5t56.5 50t71.5 41q-22 30 -36.5 61.5t-14.5 62.5zM195 188q0 -17 9.5 -33t26.5 -28.5t40 -20t51 -7.5q37 0 65.5 9t53.5 23q-23 22 -42.5 42t-38 39.5
t-37.5 40t-41 44.5q-43 -22 -65 -46.5t-22 -62.5zM421 539q0 16 -14 26.5t-38 10.5q-28 0 -43.5 -13.5t-15.5 -33.5q0 -15 11 -37.5t30 -45.5q36 23 53 47t17 46z" />
    <glyph glyph-name="quotesingle" unicode="'" horiz-adv-x="156" 
d="M10 698h131v-331h-131v331z" />
    <glyph glyph-name="parenleft" unicode="(" horiz-adv-x="261" 
d="M284 649q-47 -49 -77 -93.5t-47 -88t-23 -87t-6 -91.5t6 -92.5t23 -88t47 -88t77 -93.5l-79 -59q-108 91 -162.5 200t-54.5 221q0 52 14 107.5t41 109.5t67.5 105.5t94.5 96.5z" />
    <glyph glyph-name="parenright" unicode=")" horiz-adv-x="261" 
d="M-24 -74q47 49 77 93.5t47 88.5t23 88.5t6 92.5t-6 91.5t-23 87t-47 88t-77 93.5l79 60q107 -92 162 -200.5t55 -219.5q0 -53 -14 -108t-41 -109t-67.5 -106t-94.5 -97z" />
    <glyph glyph-name="asterisk" unicode="*" horiz-adv-x="449" 
d="M150 697q32 -8 49.5 -11.5t25.5 -3.5q10 0 27.5 3.5t49.5 11.5l-16 -118q32 19 66.5 39.5t56.5 33.5q5 -32 29.5 -62t64.5 -53l-142 -49q17 -6 32 -12t31 -12q5 -2 15.5 -5.5t21.5 -7.5t21 -8t14 -5q-15 -9 -29 -21.5t-26 -27t-20.5 -30.5t-10.5 -33l-125 69
q1 -8 2 -15.5t2 -15.5q0 -8 1.5 -19t3 -22.5t2.5 -22t2 -16.5q-3 0 -10 1t-14.5 2t-14 2t-9.5 1q-9 2 -16 3t-9 1q-3 0 -11 -1t-18 -3q-3 0 -9 -1t-13.5 -1.5t-14 -1.5t-9.5 -1l14 112q-3 -2 -8 -4.5t-7 -4.5q-11 -6 -25.5 -15t-29.5 -17.5t-28 -16.5t-21 -13
q-7 33 -32.5 62.5t-57.5 49.5l133 50q-35 13 -72 25.5t-58 20.5q12 9 24.5 21.5t23.5 28t18 34t7 38.5l132 -78z" />
    <glyph glyph-name="plus" unicode="+" horiz-adv-x="638" 
d="M-1 324h254v202h131v-202h255v-121h-255v-203h-131v203h-254v121z" />
    <glyph glyph-name="comma" unicode="," 
d="M73 116q3 10 9.5 20.5t16.5 19t24 14t34 5.5q13 0 26.5 -4t25 -12t19 -20.5t7.5 -30.5q0 -20 -6.5 -32.5t-14.5 -24.5q-4 -4 -4 -5q-14 -19 -30 -40.5t-31 -42.5q-21 -30 -46.5 -64t-45.5 -61l-84 25z" />
    <glyph glyph-name="hyphen" unicode="-" horiz-adv-x="398" 
d="M22 308h352v-129h-352v129z" />
    <glyph glyph-name="period" unicode="." horiz-adv-x="204" 
d="M1 77q0 18 8 34t21.5 28t31.5 19t39 7t39 -7t31.5 -19t21.5 -28t8 -34t-8 -34t-21.5 -27.5t-31.5 -18.5t-39 -7t-39 7t-31.5 18.5t-21.5 27.5t-8 34z" />
    <glyph glyph-name="slash" unicode="/" horiz-adv-x="416" 
d="M313 709q39 -11 49 -11q7 0 19.5 3t29.5 8q3 0 20 5.5t30 10.5l-358 -752q-39 11 -50 11q-6 0 -18.5 -3t-30.5 -7h1q-1 0 -8.5 -3t-16.5 -6l-16.5 -5.5t-8.5 -2.5z" />
    <glyph glyph-name="zero" unicode="0" horiz-adv-x="651" 
d="M27 330q0 70 15.5 133t50.5 110t92.5 74.5t140.5 27.5q91 0 149 -27.5t91 -74.5t45.5 -110t12.5 -133q0 -68 -17.5 -130.5t-54 -110t-93 -75.5t-133.5 -28q-92 0 -150 27.5t-91 74t-45.5 109t-12.5 133.5zM193 330q0 -52 6.5 -96t22.5 -76.5t41 -51t63 -18.5
q37 0 62.5 18.5t41 51t22.5 76.5t7 96t-7 96t-22.5 76.5t-41 51t-62.5 18.5q-38 0 -63 -17t-41 -48.5t-22.5 -76.5t-6.5 -100z" />
    <glyph glyph-name="one" unicode="1" horiz-adv-x="336" 
d="M145 525q-29 -12 -60 -25.5t-51 -23.5q-11 17 -26 31t-29 23v53q32 10 70.5 23.5t78 28.5t77 29.5t66.5 26.5l45 -23q-4 -60 -7 -128.5t-3 -128.5v-149q0 -29 1 -64.5t3 -72.5t4 -73t4 -64q-35 5 -60 8.5t-32 3.5q-8 0 -33 -3.5t-60 -8.5q5 69 8.5 142.5t3.5 131.5v263z
" />
    <glyph glyph-name="two" unicode="2" horiz-adv-x="588" 
d="M54 548q52 66 113 96.5t140 30.5q52 0 97 -11t79 -35t53.5 -61t19.5 -88q0 -36 -10 -66t-29.5 -58.5t-48.5 -57.5t-68 -61q-3 -2 -6 -5t-7 -6l1 1q-6 -5 -12 -10.5t-13 -10.5l-39 -31l-21 -15t-12 -8.5t-10.5 -8t-14.5 -14.5h15q40 0 83.5 1t85 2.5t77 3t58.5 3.5
q-10 -28 -15.5 -48.5t-5.5 -25.5q0 -4 5.5 -24t15.5 -48q-30 1 -68 2.5t-78 2.5t-78 1.5t-68 0.5t-65.5 -0.5t-72.5 -1.5t-73 -2.5t-66 -2.5v71q78 62 135.5 109t98 84t66 65.5t40 53.5t19.5 48.5t5 50.5q0 48 -26.5 71t-62.5 23q-27 0 -47 -10.5t-33.5 -25.5t-21.5 -32
t-11 -30l-53 -2z" />
    <glyph glyph-name="three" unicode="3" horiz-adv-x="561" 
d="M45 596q17 13 38.5 27t48 25.5t57.5 19t67 7.5q51 0 96.5 -10t79.5 -31t54 -53t20 -76q0 -47 -21.5 -82t-53.5 -58q22 -9 42 -22.5t35.5 -32.5t24.5 -43t9 -55q0 -48 -23 -89.5t-65.5 -72t-102 -47.5t-131.5 -17q-64 0 -120 15t-102 32q5 9 10.5 22.5t10 27t8 26.5
t3.5 22l50 24q11 -11 26.5 -22.5t33.5 -21.5t39 -16.5t43 -6.5q67 0 105.5 31.5t38.5 81.5q0 52 -34.5 74t-87.5 22q-5 0 -20 -2.5t-30 -5.5q-5 0 -19 -2.5t-18 -3.5v40q0 5 0.5 10t0.5 6l2 8l-2 10q0 1 -0.5 5t-0.5 9v37q26 -4 51 -6.5t36 -2.5q28 0 45.5 9.5t27.5 24.5
t13.5 32.5t3.5 33.5q0 19 -7 33t-19 23t-27 13t-30 4q-33 0 -61 -21.5t-39 -49.5l-55 -2z" />
    <glyph glyph-name="four" unicode="4" horiz-adv-x="629" 
d="M-1 226q33 37 69.5 78.5t73.5 83.5t73.5 83.5t68.5 79t58.5 69t44.5 54.5q17 -4 31 -6.5t22 -2.5t28.5 4t47.5 11q-3 -39 -5 -87.5t-3.5 -100.5t-2.5 -104.5t-1 -99.5q22 1 44 3.5t41 4.5h6.5t11.5 0.5t11.5 0.5h6.5q-6 -23 -11.5 -44t-5.5 -26q0 -4 5.5 -26t12.5 -48
q-38 5 -69 9t-53 4q0 -23 1 -46t3 -43q0 -5 0.5 -8t0.5 -7q1 -6 1.5 -21t0.5 -53q-31 5 -54.5 8.5t-31.5 3.5q-10 0 -35 -3.5t-57 -8.5q2 21 4.5 46t5 49.5t4 46.5t1.5 36q-36 0 -87 -1t-102.5 -2.5t-95.5 -2.5t-64 -2v68zM346 456q-42 -46 -80 -89t-67 -80h149z" />
    <glyph glyph-name="five" unicode="5" horiz-adv-x="564" 
d="M212 425q17 3 36 4.5t48 1.5q58 0 104.5 -16.5t79.5 -44.5t50.5 -65t17.5 -79q0 -50 -23 -93.5t-64.5 -76t-99.5 -51.5t-128 -19q-55 0 -110 11t-106 38v40q6 11 12.5 34.5t10.5 44.5h59q10 -16 26 -28.5t35 -20.5t39 -12.5t39 -4.5q26 0 50 8t42.5 24t29.5 40t11 57
q0 28 -10 48t-26.5 32.5t-38 18t-44.5 5.5q-20 0 -38.5 -4.5t-34 -10t-27 -11.5t-17.5 -9l-52 28q11 53 13.5 94t2.5 77t-2.5 78.5t-10.5 86.5l40 25q2 0 7.5 -0.5t9.5 -0.5q10 0 25.5 -1.5t32.5 -2.5q48 -3 135 -3h51.5t47.5 0.5t39.5 1t27.5 0.5l42 -22q-8 -24 -13 -42.5
t-5 -26.5l0.5 -1.5l2.5 -7.5t7.5 -18.5t14.5 -34.5q-39 6 -83.5 10.5t-89 6.5t-85.5 3.5t-71 1.5z" />
    <glyph glyph-name="six" unicode="6" horiz-adv-x="600" 
d="M504 592l-51 -27q-27 7 -63 7q-39 0 -70.5 -15.5t-54.5 -40t-39.5 -55.5t-25.5 -62q26 14 58 22t73 8q34 0 79 -8.5t84.5 -31t67 -62.5t27.5 -102q0 -54 -20 -98t-57.5 -75.5t-90 -48.5t-117.5 -17q-56 0 -107 15.5t-90 50.5t-62.5 91t-23.5 137q0 82 24 154.5
t70.5 126.5t115.5 85t159 29q21 0 35.5 -1t33.5 -4zM417 206q0 51 -25.5 84t-78.5 33q-26 0 -48 -8.5t-38 -24.5t-25 -37.5t-9 -46.5q0 -52 32 -85t80 -33q53 0 82.5 33t29.5 85z" />
    <glyph glyph-name="seven" unicode="7" horiz-adv-x="572" 
d="M576 598q-50 -68 -105 -144.5t-109.5 -155.5t-107.5 -157.5t-99 -150.5q-22 5 -37 7.5t-23 2.5q-6 0 -41.5 -6.5t-89.5 -17.5q35 45 74 95.5t79 102.5t79 103t73.5 97t63 84.5t48.5 66.5q-32 0 -73.5 -1t-89 -2t-99.5 -3l-104 -4q5 29 9 51t4 27q0 8 -3.5 29t-8.5 50h8
t13 -0.5t13 -0.5h9q42 -3 83.5 -5.5t68.5 -3.5q20 0 48.5 -0.5t58.5 -1t57.5 -0.5h47.5q10 0 18.5 0.5t16.5 0.5h118v-63z" />
    <glyph glyph-name="eight" unicode="8" horiz-adv-x="617" 
d="M21 197q0 52 26 97t85 77q-30 20 -50.5 51.5t-20.5 73.5q0 36 17.5 68t49.5 57t78 39.5t102 14.5q65 0 112.5 -14t78 -37.5t45.5 -54t15 -62.5q0 -35 -18 -69t-51 -60q20 -10 39 -24.5t33.5 -34t23.5 -45t9 -56.5q0 -53 -22.5 -95.5t-61.5 -73t-91.5 -47t-111.5 -16.5
q-61 0 -113.5 14t-91 41t-60.5 66t-22 90zM422 201q0 50 -30 82t-84 32t-84 -32t-30 -82q0 -49 30 -81t84 -32t84 32t30 81zM393 495q0 31 -19.5 54t-64.5 23t-64 -23t-19 -54q0 -32 19 -55t64 -23t64.5 23t19.5 55z" />
    <glyph glyph-name="nine" unicode="9" horiz-adv-x="610" 
d="M120 131q27 -20 55 -31.5t52 -11.5q38 0 67.5 14.5t52 39t37 56t22.5 66.5q-26 -14 -61 -23t-75 -9q-58 0 -105 14.5t-80.5 41.5t-51.5 67t-18 91q0 49 20.5 90.5t58 72.5t90 48.5t117.5 17.5q57 0 109 -15.5t92 -51t63.5 -91.5t23.5 -137q0 -82 -25 -153.5t-72 -125
t-115 -84.5t-155 -31q-33 0 -65 6t-54 14q-5 15 -17 41.5t-31 52.5zM412 470q0 45 -31 73.5t-82 28.5q-48 0 -79.5 -33.5t-31.5 -92.5q0 -57 26.5 -82t74.5 -25q29 0 52 11t38.5 29t24 41.5t8.5 49.5z" />
    <glyph glyph-name="colon" unicode=":" horiz-adv-x="213" 
d="M6 405q0 18 8 34t21.5 28t31.5 19t39 7t39 -7t31.5 -19t21.5 -28t8 -34t-8 -34t-21.5 -28t-31.5 -19t-39 -7t-39 7t-31.5 19t-21.5 28t-8 34zM6 77q0 18 8 34t21.5 28t31.5 19t39 7t39 -7t31.5 -19t21.5 -28t8 -34t-8 -34t-21.5 -27.5t-31.5 -18.5t-39 -7t-39 7
t-31.5 18.5t-21.5 27.5t-8 34z" />
    <glyph glyph-name="semicolon" unicode=";" horiz-adv-x="234" 
d="M76 116q7 20 26.5 39.5t57.5 19.5q13 0 27 -4t26 -12t19.5 -20.5t7.5 -30.5t-7 -30.5t-14 -24.5q-1 -1 -1.5 -2t-1.5 -2l-2 -2q-1 -1 -3 -4t-3 -5q-17 -23 -36 -49t-38.5 -52t-38 -51.5t-34.5 -47.5l-85 25zM47 405q0 18 8 34t21.5 28t32 19t38.5 7q21 0 39 -7t32 -19
t22 -28t8 -34t-8 -34t-22 -28t-32 -19t-39 -7q-20 0 -38.5 7t-32 19t-21.5 28t-8 34z" />
    <glyph glyph-name="less" unicode="&#x3c;" horiz-adv-x="674" 
d="M-2 313l640 238v-124l-440 -164q42 -15 82.5 -30.5t82.5 -31.5q65 -25 138.5 -51.5t136.5 -49.5v-126l-640 241v98z" />
    <glyph glyph-name="equal" unicode="=" horiz-adv-x="685" 
d="M679 289h-640v122h640v-122zM679 116h-640v120h640v-120z" />
    <glyph glyph-name="greater" unicode="&#x3e;" horiz-adv-x="674" 
d="M36 100l440 162q-35 13 -70.5 26.5t-71.5 27.5q-72 27 -150 56t-148 55v124l640 -240v-98l-640 -239v126z" />
    <glyph glyph-name="question" unicode="?" horiz-adv-x="348" 
d="M49 77q0 30 22 53.5t55 31.5q-19 5 -39.5 15.5t-37 26t-27.5 37.5t-11 51q0 28 11 52.5t28 46t37.5 39.5t40.5 35q29 23 52 46.5t23 43.5q0 17 -18.5 26.5t-39.5 9.5q-24 0 -58 -22t-72 -58l-19 142q32 16 70.5 30.5t83.5 14.5q49 0 87 -12.5t64 -33.5t39 -49.5t13 -59.5
q0 -33 -11 -59.5t-29 -49t-40 -41.5t-44 -37v1q-29 -24 -52 -46t-23 -40q0 -5 5.5 -11t16.5 -6q8 0 19.5 4.5t18.5 7.5l69 -33q-7 -7 -14 -15.5t-13 -17.5t-10 -17t-4 -14q-14 -4 -27 -7t-26 -5q27 -10 44.5 -31.5t17.5 -48.5q0 -18 -8 -34t-22 -27.5t-32 -18.5t-39 -7
t-39 7t-32 18.5t-22 27.5t-8 34z" />
    <glyph glyph-name="at" unicode="@" horiz-adv-x="841" 
d="M808 408q0 -62 -26.5 -110.5t-67.5 -81.5l-8 -97q-18 -12 -48 -28.5t-70 -31t-89 -24.5t-105 -10q-61 0 -125 19t-116 57.5t-85.5 98t-33.5 140.5q0 60 29.5 117t84.5 101.5t133 71.5t175 27q102 0 169.5 -21.5t108 -56.5t57.5 -80t17 -91zM469 417q0 13 -5.5 21.5
t-25.5 8.5q-23 0 -40.5 -13.5t-29.5 -34t-18.5 -45t-6.5 -46.5q0 -23 7 -35t26 -12q23 0 40.5 17t29 41.5t17.5 51.5t6 46zM438 550q41 0 70 -14l1 5h57q-45 13 -115 13q-60 0 -110 -19t-86.5 -52t-57 -77.5t-20.5 -96.5q0 -44 18.5 -77.5t50.5 -56t76.5 -33.5t97.5 -11
q31 0 62.5 6.5t63.5 17.5q-33 1 -52 9.5t-30 23.5q-22 -16 -47 -24.5t-58 -8.5q-158 0 -158 156q0 53 18.5 97t51 75.5t75.5 49t92 17.5zM681 390q0 35 -10 64.5t-35 50.5q-20 -74 -32 -120.5t-18.5 -74t-9.5 -39.5t-3 -17q17 0 36 10t35 28t26.5 43t10.5 55z" />
    <glyph glyph-name="A" unicode="A" horiz-adv-x="820" 
d="M449 698q6 -12 16 -30.5t18 -32.5l24 -46t24 -45q25 -48 54 -103t59 -111t59.5 -109.5t55 -99.5t45.5 -81.5t32 -54.5q-51 7 -87 11t-45 4q-15 0 -36.5 -2.5t-47.5 -6.5q-20 55 -45.5 109t-50.5 101q-5 10 -7.5 16.5t-9.5 18.5h-2q-31 0 -60.5 0.5t-61.5 0.5h-53.5
t-50.5 -1h-10q-33 -66 -61.5 -129.5t-45.5 -117.5q-55 11 -65 11q-6 0 -36.5 -5.5t-77.5 -13.5q45 78 97 170.5t105.5 187.5t104.5 187.5t93 171.5h66zM390 463q-16 -29 -30 -56.5t-30 -57.5q5 0 13 -0.5t17 -0.5h28h22h10h10h22z" />
    <glyph glyph-name="B" unicode="B" horiz-adv-x="632" 
d="M44 419q0 29 -1 64t-3 72t-4 72t-4 64q15 -1 36 -2.5t43.5 -3t43 -2.5t35.5 -1q14 0 28 0.5t28 1.5q5 0 10 0.5t10 0.5q10 1 21.5 1.5t21.5 0.5q55 0 104.5 -7.5t86.5 -26.5t59 -51t22 -81q0 -48 -24 -84.5t-63 -62.5q52 -23 83.5 -62.5t31.5 -99.5t-29.5 -101.5t-76 -67
t-103 -37t-111.5 -11.5q-14 0 -28.5 0.5t-28.5 1.5q-4 0 -9.5 0.5t-9.5 0.5q-8 1 -17 1.5t-16 0.5q-14 0 -33.5 -1t-40.5 -2.5t-41 -3t-33 -2.5q2 30 4 65.5t4 72t3 72t1 64.5v154zM209 251q0 -29 1 -56t3 -55q1 -7 1 -14v-14v-9q17 -1 36.5 -1h38.5q28 0 54 7.5t45.5 22
t31.5 36t12 48.5t-15 44.5t-42.5 27.5t-66 14t-85.5 4h-14v-55zM232 411q33 0 65 4.5t57 15t40.5 28.5t15.5 45q0 24 -13.5 39t-34.5 23.5t-47 11t-52 2.5q-20 0 -28 0.5t-21 -1.5v-10q-1 -5 -1 -11v-11q-2 -27 -3 -53t-1 -52v-31h23z" />
    <glyph glyph-name="C" unicode="C" horiz-adv-x="803" 
d="M743 49q-14 -9 -40.5 -20t-62 -21t-77.5 -17t-87 -7q-97 0 -178.5 24t-141 69.5t-92.5 112t-33 151.5t33.5 151.5t94 112.5t144.5 69.5t185 23.5q78 0 156.5 -17t145.5 -42q-26 -35 -33 -52.5t-10 -28.5v-1q0 -2 -1 -4q-2 -5 -6 -15.5t-11 -23.5l-42 -2
q-12 10 -31.5 23.5t-45 26t-56.5 21t-66 8.5q-59 0 -109 -14.5t-87 -45.5t-57.5 -78t-20.5 -112t20.5 -112t57.5 -78t87 -45.5t109 -14.5q36 0 70 9t64 21.5t54.5 27t42.5 25.5l40 -39z" />
    <glyph glyph-name="D" unicode="D" horiz-adv-x="863" 
d="M56 418q0 29 -1 64t-3 71t-4 71.5t-4 64.5q21 -1 48 -2.5t55.5 -2.5t56 -1.5t48.5 -0.5t41 0.5t42 1.5q5 0 11 0.5t11 0.5q15 1 33 1.5t31 0.5q108 0 185 -23t126.5 -66t72.5 -105t23 -139q0 -67 -19.5 -119.5t-53 -92.5t-77.5 -68t-93.5 -45.5t-101.5 -25.5t-100 -8
q-19 0 -38 0.5t-38 1.5q-5 0 -12.5 0.5t-12.5 0.5q-12 1 -23.5 1.5t-25.5 0.5q-19 0 -44 -0.5t-50.5 -1.5t-50.5 -2.5t-44 -2.5q2 29 4 64.5t4 71.5t3 71t1 64v154zM220 264v-42.5t1 -36.5t2 -36.5t3 -41.5q24 -3 53 -4t59 -1q54 0 108.5 10.5t98 38t71 76.5t27.5 127
q0 67 -21 109.5t-58.5 67.5t-89 34.5t-112.5 9.5q-42 0 -73.5 -2t-63.5 -4q-2 -35 -3.5 -73.5t-1.5 -77.5v-154z" />
    <glyph glyph-name="E" unicode="E" horiz-adv-x="506" 
d="M38 419q0 29 -1 64t-2.5 71t-3.5 71t-4 64q25 -1 56 -2.5t63 -2.5t63 -1.5t56 -0.5t58 0.5t67.5 1.5t67 2.5t57.5 2.5q-9 -32 -13 -47t-4 -19q0 -5 4 -20t13 -47q-5 0 -15 1t-22 1.5t-24 1.5t-19 1q-10 1 -17 1.5t-12 0.5q-4 0 -8 0.5t-9 0.5q-21 1 -37.5 2.5t-36 2.5
t-44.5 1.5t-64 0.5q0 -2 -0.5 -4t-0.5 -4v-2q0 -5 -0.5 -9t-0.5 -9q-1 -12 -1.5 -24t-0.5 -25q0 -11 0.5 -22t0.5 -21v-39q88 2 161.5 6t119.5 8q-5 -26 -8.5 -46.5t-3.5 -21.5q0 -3 3.5 -23.5t8.5 -45.5q-32 3 -72 5.5t-79 4t-74 2.5t-57 1v-93v-41v-25v-16.5t1 -14.5
q71 0 151 3t162 16l-8 -45q-2 -11 -3.5 -19.5t-1.5 -7.5q0 -7 5 -32q1 -5 3 -17t3 -17q-25 1 -57 2.5t-65.5 2.5t-66 1.5t-57.5 0.5q-26 0 -57 -0.5t-64 -1.5t-64.5 -2.5t-56.5 -2.5q2 30 4 65t3.5 71.5t2.5 71.5t1 64v154z" />
    <glyph glyph-name="F" unicode="F" horiz-adv-x="505" 
d="M39 418q0 48 -2.5 103t-5.5 107q-1 12 -2 31.5t-2 29.5q25 -1 56 -2.5t63.5 -2.5t63.5 -1.5t57 -0.5q25 0 57.5 0.5t68 1.5t71 2.5t65.5 2.5q0 -1 -1.5 -6t-3.5 -11t-3.5 -11t-1.5 -6q-2 -13 -3.5 -23.5t-1.5 -8.5q0 -2 3.5 -23t8.5 -45q-28 2 -70.5 5t-88.5 5t-89.5 4
t-74.5 2q-1 -20 -0.5 -40.5t0.5 -39.5v-77q67 1 147.5 4.5t156.5 10.5q-8 -28 -13.5 -46.5t-5.5 -23.5q0 -2 5.5 -21t15.5 -48q-90 10 -165 12t-141 2v-40q0 -29 1.5 -64.5t3.5 -73t4 -73t4 -64.5q-35 5 -59.5 8t-35.5 3t-35 -3t-59 -8q0 4 0.5 12.5t1.5 17.5t1.5 17.5
t0.5 13.5q3 52 5.5 109t2.5 105v154z" />
    <glyph glyph-name="G" unicode="G" horiz-adv-x="875" 
d="M741 504q-17 16 -41 32t-53.5 28t-64 19.5t-72.5 7.5q-62 0 -115.5 -14.5t-92.5 -45.5t-61 -78t-22 -112q0 -116 78 -180.5t218 -64.5q35 0 74.5 3.5t68.5 12.5q0 2 0.5 4.5t0.5 6.5q1 18 1 36v36q0 27 -1.5 53.5t-3.5 52.5q0 2 -0.5 7.5t-0.5 12.5v41q30 -5 55 -8.5
t36 -3.5t30.5 3t55.5 13v-8.5t-0.5 -14t-0.5 -15v-10.5q-2 -29 -3.5 -76.5t-1.5 -105.5v-61q0 -8 0.5 -21t0.5 -18q-29 -8 -70 -17.5t-86 -17t-88.5 -12.5t-76.5 -5q-108 0 -195 23t-148 68t-94 112t-33 154q0 85 34 151.5t96 112.5t149.5 69.5t195.5 23.5q58 0 108.5 -7
t93 -18t78 -24t63.5 -25q-10 -13 -19 -29t-15.5 -32t-11 -31.5t-6.5 -27.5h-60z" />
    <glyph glyph-name="H" unicode="H" horiz-adv-x="833" 
d="M613 423q0 48 -2.5 103t-5.5 106q0 6 -0.5 14.5t-1.5 17.5t-1.5 17t-0.5 12q35 -5 59 -8t35 -3t36 3t60 8q-2 -29 -4 -64.5t-4 -73t-3.5 -73t-1.5 -64.5v-154q0 -29 1.5 -64.5t3.5 -73t4 -73t4 -64.5q-35 5 -60 8t-36 3t-35 -3t-59 -8q0 4 0.5 12.5t1.5 17.5t1.5 17.5
t0.5 13.5q3 52 5.5 109t2.5 105v43q-52 1 -98 1.5t-99 0.5q-50 0 -91.5 -0.5t-88.5 -1.5h-17v-43q0 -48 2.5 -104.5t5.5 -109.5q0 -6 0.5 -14.5t1.5 -17.5t1.5 -17t0.5 -12q-35 5 -59.5 8t-35.5 3t-35.5 -3t-59.5 -8q2 29 4 64.5t4 73t3.5 73t1.5 64.5v154q0 29 -1.5 64.5
t-3.5 73t-4 73t-4 64.5q35 -5 59.5 -8t35.5 -3t35.5 3t59.5 8q0 -5 -0.5 -13t-1.5 -17t-1.5 -17.5t-0.5 -13.5q-3 -51 -5.5 -107t-2.5 -102h12h29q39 -1 77.5 -1.5t78.5 -0.5q39 0 78 0.5t78 1.5h29h12z" />
    <glyph glyph-name="I" unicode="I" horiz-adv-x="204" 
d="M20 418q0 29 -1.5 64.5t-3.5 73t-4 73t-4 64.5q35 -5 59.5 -8t35.5 -3t35.5 3t59.5 8q-2 -29 -4 -64.5t-4 -73t-3.5 -73t-1.5 -64.5v-154q0 -29 1.5 -64.5t3.5 -73t4 -73t4 -64.5q-35 5 -59.5 8t-35.5 3t-35.5 -3t-59.5 -8q2 29 4 64.5t4 73t3.5 73t1.5 64.5v154z" />
    <glyph glyph-name="J" unicode="J" horiz-adv-x="309" 
d="M-35 -30q53 0 84.5 15t47.5 41.5t20.5 63.5t4.5 82v246q0 29 -1 64.5t-3 73t-4 73t-4 64.5q35 -5 59.5 -8t35.5 -3t35 3t58 8q0 -5 -0.5 -13t-1 -17t-1 -17.5t-0.5 -13.5q-3 -52 -5.5 -109t-2.5 -105q0 -43 0.5 -87.5t1.5 -88.5q0 -17 0.5 -36.5l1 -39t0.5 -37v-30.5
q0 -47 -21 -88.5t-59.5 -72.5t-92.5 -49t-120 -18z" />
    <glyph glyph-name="K" unicode="K" horiz-adv-x="710" 
d="M41 26q4 57 7.5 118.5t3.5 119.5v154q0 29 -1.5 64.5t-3.5 73t-4 73t-4 64.5q35 -5 59.5 -8t35.5 -3q10 0 34 3t62 8q-2 -28 -4 -63t-4 -71t-3.5 -71t-1.5 -63q35 27 74 59t79.5 66.5t80.5 70.5t78 70q20 -4 35 -6.5t21 -2.5q24 0 71 9l23 -58q-37 -25 -82.5 -58.5
t-92.5 -69t-91 -70.5t-77 -64q15 -15 32.5 -30.5t34.5 -30.5q26 -23 51.5 -47t51.5 -47q21 -20 54.5 -50t69.5 -63t69.5 -63.5t55.5 -49.5h-10t-20 0.5t-20 0.5h-10q-38 4 -66.5 6.5t-44.5 2.5q-15 0 -33.5 -1.5t-39.5 -5.5q-39 38 -81.5 80t-82 81t-74 71t-56.5 51v-12
q0 -29 1.5 -64.5t3.5 -73t4 -73t4 -64.5q-38 5 -62 8t-34 3q-24 0 -58 -6z" />
    <glyph glyph-name="L" unicode="L" horiz-adv-x="503" 
d="M39 418q0 29 -1 64.5t-3 73t-4 73t-4 64.5q35 -5 59 -8t35 -3t35.5 3t59.5 8q-2 -29 -4 -64.5t-4 -73t-3 -73t-1 -64.5q0 -78 0.5 -140.5t1.5 -115.5v1q1 -18 1 -26v-25q33 0 68.5 0.5t75 2.5t85 5t99.5 9l-13 -37q-5 -16 -8 -24.5t-3 -7.5q0 -3 5.5 -19.5t18.5 -47.5
q-26 1 -60.5 2.5t-70.5 2.5t-70.5 1.5t-60.5 0.5t-58 -0.5t-65 -1.5t-64.5 -2.5t-57.5 -2.5q2 29 4 64.5t3.5 71.5t2.5 71t1 64v154z" />
    <glyph glyph-name="M" unicode="M" horiz-adv-x="1055" 
d="M231 698q38 -63 74 -119.5t72 -112t74 -111.5t81 -119q19 29 44 66t57 83q14 20 29.5 42.5t30.5 45.5q19 28 40 58.5t40.5 60t37.5 56.5t33 50h68q3 -18 6.5 -45.5t6.5 -47.5q6 -41 11.5 -82t10.5 -77q7 -53 15.5 -112t17.5 -119t18.5 -118t18.5 -109q-35 5 -61.5 8.5
t-37.5 3.5q-12 0 -34 -2.5t-52 -7.5q-1 10 -2 23t-2 26.5t-2.5 26.5t-2.5 23q-8 81 -16.5 154.5t-20.5 154.5q-59 -88 -120 -183t-128 -215h-53q-45 76 -98.5 161.5t-104.5 164.5q-5 8 -9.5 15t-8.5 13q-7 10 -8 12.5t-1.5 4t-3 5.5t-12.5 18q-14 -100 -26 -207t-14 -203
q-11 4 -20 6.5t-11 2.5q-17 3 -28.5 5t-16.5 2t-28.5 -4t-58.5 -11q15 74 32.5 168t35 191.5t32 190t23.5 163.5h72z" />
    <glyph glyph-name="N" unicode="N" horiz-adv-x="827" 
d="M700 -16q-112 106 -241.5 220t-257.5 223q-5 4 -6 5l-1 1l-1 1l-6 6q-1 -21 -1 -47.5v-58.5q0 -29 1 -78t3.5 -101.5t5.5 -99t7 -70.5q-34 7 -56 11t-27 4q-6 0 -30 -4t-59 -10q4 23 10 77.5t11.5 120t9 130t3.5 108.5q0 42 -0.5 84.5t-1.5 80t-2 67t-2 44.5h70l48 -42
q65 -56 128.5 -111.5t123.5 -106.5t115 -97.5t102 -84.5q0 56 -1 115t-2.5 116t-4.5 110.5t-6 98.5q32 -6 53 -10t27 -4q4 0 25 4t54 11q-4 -28 -8 -76.5t-7.5 -100.5t-6 -98.5t-2.5 -71.5v-56t0.5 -70t0.5 -75.5t0.5 -71.5t1 -58t0.5 -35h-70z" />
    <glyph glyph-name="O" unicode="O" horiz-adv-x="999" 
d="M43 341q0 85 33.5 151.5t94 112.5t144 69.5t184.5 23.5t185 -23.5t144.5 -69.5t94 -112.5t33.5 -151.5t-33.5 -151.5t-94 -112t-144.5 -69.5t-185 -24t-184.5 24t-144 69.5t-94 112t-33.5 151.5zM771 341q0 65 -20.5 112t-57 78t-86.5 45.5t-108 14.5t-107.5 -14.5
t-86 -45.5t-57 -78t-20.5 -112t20.5 -112t57 -78t86 -45.5t107.5 -14.5t108 14.5t86.5 45.5t57 78t20.5 112z" />
    <glyph glyph-name="P" unicode="P" horiz-adv-x="599" 
d="M43 418q0 29 -1 64t-2.5 72t-3.5 72.5t-4 64.5q13 -1 33 -2.5t40.5 -3t40 -2.5t33.5 -1q8 0 18 0.5t22 1.5q6 1 16.5 1h15.5q16 1 37 1.5t30 0.5q19 0 47.5 -1t59.5 -6.5t62.5 -17t56.5 -32t40.5 -53t15.5 -78.5q0 -48 -16.5 -83t-44.5 -60t-63 -41t-73 -25.5t-74.5 -13
t-66.5 -3.5h-19h-10h-9h-16v-9q0 -29 1 -64.5t3 -73t3.5 -73t3.5 -64.5q-34 5 -58 8t-35 3t-35.5 -3t-59.5 -8q2 29 4 64.5t4 73t3 73t1 64.5v154zM208 382q11 -2 23 -2h20q28 0 58.5 4.5t55.5 17.5t41.5 34.5t16.5 56.5q0 27 -10.5 44t-30 26.5t-47.5 13t-63 3.5h-64v-198z
" />
    <glyph glyph-name="Q" unicode="Q" horiz-adv-x="984" 
d="M30 341q0 85 33.5 151.5t94 112.5t144 69.5t183.5 23.5q101 0 185 -23.5t144.5 -69.5t94 -112.5t33.5 -151.5q0 -120 -64.5 -201.5t-176.5 -121.5q33 -20 73 -44t80 -47.5t76.5 -45t61.5 -35.5q-42 -2 -77.5 -8t-62.5 -14t-45 -17t-25 -18q-62 46 -133 97.5t-142 97.5
h-22q-100 0 -183.5 24t-144 69.5t-94 112t-33.5 151.5zM758 341q0 65 -20.5 112t-57.5 78t-87 45.5t-108 14.5t-107.5 -14.5t-86 -45.5t-57 -78t-20.5 -112t20.5 -112t57 -78t86 -45.5t107.5 -14.5t108 14.5t87 45.5t57.5 78t20.5 112z" />
    <glyph glyph-name="R" unicode="R" horiz-adv-x="697" 
d="M51 418q0 29 -1 64t-3 71t-4 71.5t-4 64.5q16 -1 38 -2.5t45.5 -2.5t45 -1.5t37.5 -0.5q15 0 29 0.5t29 1.5h5q5 0 9.5 0.5t9.5 0.5q11 1 23.5 1.5t23.5 0.5q54 0 103 -9t86 -30t58.5 -55.5t21.5 -84.5q0 -43 -17 -75t-44.5 -55.5t-61.5 -39t-68 -24.5l14 -14l48.5 -48.5
t61 -60t66.5 -64.5t64 -61.5t54 -50.5l36 -33q-69 8 -117.5 13t-62.5 5t-34.5 -2t-46.5 -6q-17 21 -49 58t-71.5 79.5t-81.5 84.5t-78 73v-23q0 -48 2.5 -104.5t5.5 -109.5q0 -6 0.5 -14.5t1.5 -17.5t1.5 -17t0.5 -12q-35 5 -59 8t-35 3t-35.5 -3t-59.5 -8q2 29 4 64.5t4 73
t3.5 73t1.5 64.5v154zM215 399q10 -1 19.5 -0.5t19.5 0.5q28 0 59 5t57.5 16.5t43.5 30.5t17 48q0 24 -13 40t-33.5 25t-44.5 12.5t-46 3.5h-44t-29 -1q-2 -40 -4 -80.5t-2 -80.5v-19z" />
    <glyph glyph-name="S" unicode="S" horiz-adv-x="578" 
d="M114 188q9 -16 23.5 -32t34 -29.5t44.5 -22t55 -8.5q57 0 90 27t33 65q0 18 -11.5 32t-30 25t-43 20t-50.5 18q-39 12 -77.5 27.5t-69.5 39t-50.5 58t-19.5 84.5q0 46 19.5 84t56 65t88 42t115.5 15q58 0 110 -16.5t106 -51.5q-19 -31 -31.5 -59t-21.5 -64h-65
q-6 12 -15 27t-22 27.5t-31 21t-41 8.5q-47 0 -77.5 -20.5t-30.5 -53.5q0 -20 12 -34.5t31.5 -25.5t44.5 -19.5t52 -17.5q39 -12 77 -26.5t68 -36t48.5 -54t18.5 -81.5q0 -48 -21 -91.5t-61 -76t-97.5 -51.5t-130.5 -19q-77 0 -133.5 24t-98.5 51q9 19 14.5 34t9.5 29.5
t6.5 30t4.5 35.5h67z" />
    <glyph glyph-name="T" unicode="T" horiz-adv-x="665" 
d="M251 418v40.5v34t-0.5 34t-1.5 40.5q-29 -1 -64.5 -2.5t-71.5 -4t-69 -5t-57 -4.5q11 27 18.5 48t7.5 23l-8 26q-1 3 -3.5 9t-5 12.5t-4.5 12t-3 7.5q36 -1 81 -2.5t91 -2.5t91 -1.5t81 -0.5t77.5 0.5t84.5 1.5t84.5 2.5t77.5 2.5q0 -1 -0.5 -14.5t-0.5 -18.5v-16
q-2 -6 -2.5 -11.5t-0.5 -7.5t6 -23t14 -47q-66 7 -135 11t-121 5q-1 -34 -1.5 -74.5t-0.5 -74.5v-154q0 -48 2.5 -104.5t5.5 -109.5q0 -6 0.5 -14.5t1 -17.5t1 -17t0.5 -12q-34 5 -58 8t-35 3t-35.5 -3t-59.5 -8q2 29 4 64.5t4 73t3.5 73t1.5 64.5v154z" />
    <glyph glyph-name="U" unicode="U" horiz-adv-x="812" 
d="M629 359q0 61 -0.5 109t-2 87.5t-5 73.5t-10.5 68q35 -7 60 -11t33 -4t28 4t49 11q-5 -42 -9 -94.5t-8 -109t-6.5 -112t-3.5 -103.5q-1 -68 -24.5 -122t-68.5 -92.5t-111 -59t-150 -20.5q-186 0 -272 71.5t-86 220.5q0 23 1 43.5t3 39.5q3 30 3 59q0 37 -1 77.5t-2.5 78
t-3.5 69t-3 51.5q35 -5 62 -8.5t35 -3.5q10 0 34.5 4t57.5 11q-4 -30 -7.5 -71.5t-6.5 -88.5t-4.5 -97t-1.5 -98q0 -26 1 -54.5t7 -55.5t18.5 -51t36 -42.5t60 -29t89.5 -10.5q52 0 88 12.5t59 33t35.5 47.5t18.5 56t7 57.5t1 53.5z" />
    <glyph glyph-name="V" unicode="V" horiz-adv-x="822" 
d="M340 11q-17 37 -41.5 88t-54.5 110t-63 123l-66 128t-65 124.5t-59 111.5q48 -6 81 -10t44 -4q12 0 33 2.5t47 6.5q48 -114 108.5 -240t125.5 -251q28 55 61 122.5t64.5 135t58.5 129.5t45 106q24 -5 41 -8t24 -3q9 0 49 8q1 0 21 4t44 10q-44 -77 -94 -169t-100 -187.5
t-96.5 -188t-83.5 -169.5q-21 5 -35.5 7.5t-22.5 2.5q-7 0 -16.5 -1.5t-17.5 -3.5z" />
    <glyph glyph-name="W" unicode="W" horiz-adv-x="1272" 
d="M300 14q-9 24 -29 77.5t-46.5 121.5t-55.5 143t-56 142.5t-48.5 120.5t-32.5 77q43 -6 73 -10t44 -4t34.5 2.5t46.5 6.5q21 -66 38.5 -120t37 -107.5t42.5 -112.5t53 -134q2 5 4.5 9.5t4.5 9.5q21 51 46.5 113t50.5 124t46.5 120t34.5 100q44 -11 62 -11q3 0 13 2t24 5
l-4 -2q-2 -2 9.5 2t18.5 6q8 -24 23 -62.5t32.5 -84.5t37 -95t38 -94.5t34.5 -83.5t26 -61q14 36 31 80.5t35 92t35.5 94.5t32.5 88.5t26 74t16 50.5q26 -5 44.5 -8.5t20.5 -3.5q5 0 34 5.5t73 13.5q-17 -32 -43.5 -90t-58 -128.5t-64.5 -147t-62.5 -145t-52 -122.5
t-32.5 -79q-49 11 -60 11q-5 0 -22 -3t-40 -8q-7 18 -16.5 43.5t-16.5 43.5q-20 52 -37.5 96.5t-34.5 88t-36 90t-43 103.5q-20 -45 -45 -104.5t-52 -123t-52.5 -125t-46.5 -111.5q-23 5 -38.5 7.5t-23.5 2.5q-14 0 -38 -6z" />
    <glyph glyph-name="X" unicode="X" horiz-adv-x="734" 
d="M233 680q19 -31 36.5 -57t35 -51t36.5 -51t42 -57q20 24 39.5 49t39.5 52.5t42 59t47 67.5q23 -5 38 -7.5t20 -2.5q3 0 23.5 4t50.5 9v-1q1 0 11 2.5t21.5 4.5t21.5 4.5t12 2.5q-4 -5 -14.5 -17t-23.5 -26.5t-25 -28.5t-19 -22q-14 -16 -26.5 -30.5t-20.5 -22.5
q-5 -5 -8 -8.5t-7 -8.5q-22 -24 -40.5 -44.5t-36.5 -41.5t-36 -42.5t-38 -46.5q31 -42 69.5 -92.5t78.5 -102t78.5 -100.5t70.5 -89q-57 7 -96 11t-52 4q-14 0 -33 -2t-45 -6q-3 5 -8.5 13l-11 16t-10.5 15.5t-8 12.5l-24 36v-1q-15 23 -28 43t-26 38.5t-27 38t-32 41.5
q-47 -57 -92.5 -120t-93.5 -135q-21 5 -36.5 7.5t-21.5 2.5q-4 0 -23 -3.5t-48 -8.5l-68 -14q33 38 74 85.5t83 97t82 97t72 86.5q-3 3 -7 7.5t-6 8.5q-4 4 -4 5q-17 22 -34 45t-37 49q-20 27 -45.5 60t-52 66.5t-50.5 64t-42 52.5q54 -6 95 -11t52 -5q10 0 27.5 2t39.5 5z
" />
    <glyph glyph-name="Y" unicode="Y" horiz-adv-x="737" 
d="M275 13q8 64 10 129.5t2 131.5q-16 21 -42.5 57t-59 78.5t-67 88t-65.5 85.5t-55 71t-35 44q3 0 13.5 -1.5t22.5 -2.5t22 -2.5t13 -1.5q29 -4 49 -6t31 -2q8 0 29 2.5t50 6.5q24 -39 46.5 -74t45.5 -70t48 -70.5t54 -75.5q24 32 49.5 67.5t50 73t48.5 75.5t45 74
q20 -4 36.5 -6.5t25.5 -2.5q8 0 46 6t92 17q-68 -83 -121 -149t-93 -117t-68.5 -89t-46.5 -65q0 -33 1 -72t3 -79t5 -78t6 -68q-38 5 -64.5 8.5t-32.5 3.5q-9 0 -28 -2.5t-45 -6.5z" />
    <glyph glyph-name="Z" unicode="Z" horiz-adv-x="750" 
d="M21 64q67 72 136.5 150.5t131 149t109 125.5t68.5 82h-2q-40 0 -93.5 -1.5t-110 -4t-111 -6t-96.5 -7.5q8 26 14 47t6 23q0 4 -6 24t-12 45q27 -2 78.5 -3.5t119.5 -3t149 -2t168 -0.5q24 0 47 1t45 3h-1q7 1 25 1h41v-70q-20 -17 -53 -52t-74 -79.5t-86 -95.5t-89 -101
t-83 -96t-68 -81h20q43 0 103.5 1.5t124.5 4.5t123 6.5t100 7.5q-11 -29 -17.5 -49t-6.5 -22t6.5 -21.5t16.5 -45.5h-12.5t-18.5 0.5t-18.5 0.5h-12.5q-72 2 -135 3.5t-120 1.5q-29 0 -66.5 -0.5t-78 -1l-81 -1t-76 -1.5t-63 -1.5t-41.5 -1.5v71z" />
    <glyph glyph-name="bracketleft" unicode="[" horiz-adv-x="248" 
d="M22 401q0 31 -0.5 68.5t-1.5 76.5t-2.5 76.5t-2.5 68.5q72 -9 94 -9h173q-12 -41 -12 -46q0 -1 2.5 -16t7.5 -35h-10t-15 0.5t-15 0.5h-11q-20 0 -31.5 0.5t-30.5 0.5q-3 -45 -4.5 -93t-1.5 -93v-225q0 -51 0.5 -94t5.5 -92q17 0 33.5 0.5t31.5 0.5q0 61 4.5 62t20.5 -61
h23q-5 -22 -7.5 -36t-2.5 -15v-1q0 -2 1.5 -8.5t3 -14.5t3 -15.5t1.5 -11.5q-11 0 -33.5 1t-48 1.5t-50 1t-38.5 0.5q-12 0 -36.5 -2t-57.5 -5q1 31 2.5 68t2.5 76t1.5 76.5t0.5 68.5v225z" />
    <glyph glyph-name="backslash" unicode="\" horiz-adv-x="416" 
d="M-45 725q1 0 8.5 -2.5l16.5 -5.5t16 -5.5t8 -2.5h-1q19 -5 31.5 -8t18.5 -3q11 0 50 11l351 -737q-14 0 -26.5 0.5t-14.5 1.5q-17 4 -31 7t-20 3q-11 0 -49 -11z" />
    <glyph glyph-name="bracketright" unicode="]" horiz-adv-x="249" 
d="M87 401q0 51 -0.5 93.5t-5.5 92.5q-18 0 -36.5 -0.5t-34.5 -0.5h-2q-6 -16 -15 -1h-25q3 20 6.5 36.5t3.5 14.5q-2 10 -4 22.5t-4 27.5h36q13 0 31 -1t36.5 -1.5t36 -1t29.5 -0.5q22 0 94 9q-1 -31 -2.5 -68.5t-2.5 -76.5t-1.5 -76.5t-0.5 -68.5v-225q0 -31 0.5 -68.5
t1.5 -76.5t2.5 -76t2.5 -68q-33 3 -57.5 5t-36.5 2h-174q0 1 1.5 5.5t3 10t3 10t1.5 5.5q2 6 2.5 10.5t1.5 6.5l-3 11q0 1 -1 7t-2.5 12.5t-2.5 12t-1 7.5q7 0 24.5 -0.5t25.5 -0.5q20 0 31.5 -0.5t31.5 -0.5q3 45 4.5 93t1.5 93v225z" />
    <glyph glyph-name="asciicircum" unicode="^" horiz-adv-x="685" 
d="M294 660h99l308 -478h-146l-213 332q-27 -42 -56 -87t-56 -87q-24 -38 -51 -79.5t-50 -78.5h-146z" />
    <glyph glyph-name="underscore" unicode="_" horiz-adv-x="712" 
d="M39 -116v118h633v-118h-633z" />
    <glyph glyph-name="grave" unicode="`" horiz-adv-x="298" 
d="M53 588q-10 5 -20.5 12t-19.5 16.5t-15 21t-6 25.5q0 16 7.5 28t18.5 20.5t23.5 12.5t23.5 4q20 0 39 -8t35 -21q16 -14 37.5 -31t44.5 -35.5l46 -37t44 -34.5q4 -4 15 -13t23 -18.5t22.5 -18t14.5 -11.5h-162z" />
    <glyph glyph-name="a" unicode="a" horiz-adv-x="582" 
d="M69 437q67 40 117.5 54.5t98.5 14.5q49 0 89 -12t69 -34.5t45 -53.5t16 -69q0 -24 -0.5 -49.5t-1.5 -51.5q0 -10 -0.5 -26t-0.5 -26q-1 -14 -1 -28v-28q0 -10 1 -20t6 -10q1 0 3.5 0.5t8.5 2.5t17.5 7t30.5 14v-103q-23 -8 -52.5 -15.5t-55.5 -7.5q-30 0 -52.5 10.5
t-37.5 26.5q-19 -13 -36.5 -22t-36.5 -14t-41 -7.5t-50 -2.5q-35 0 -68 10.5t-59 29.5t-42 46t-16 60q0 72 50.5 110t138.5 50q49 6 77 9.5t41 6.5t16 5t3 5q0 30 -19.5 52.5t-67.5 22.5q-35 0 -68 -15.5t-52 -44.5h-70v103zM345 213l-12 -2t-14 -3q-23 -3 -46.5 -7.5
t-42.5 -11t-31.5 -17t-12.5 -26.5q0 -24 18 -36.5t42 -12.5q29 0 53.5 11.5t41.5 28.5z" />
    <glyph glyph-name="b" unicode="b" horiz-adv-x="621" 
d="M618 259q0 -60 -22.5 -110t-61.5 -86t-92 -56t-114 -20q-50 0 -94 16t-73 39q-14 -10 -28.5 -21t-28.5 -21h-73q3 30 5 67t3.5 76.5t2.5 77.5t1 69v162q0 29 -1 66t-2.5 77.5t-4.5 81t-6 77.5q32 -5 56.5 -8.5t35.5 -3.5t36 2.5t63 8.5q-10 -63 -13.5 -141.5t-5.5 -150.5
q64 45 153 45q68 0 117.5 -20t82 -54t48.5 -79t16 -94zM447 261q0 33 -9.5 57.5t-25.5 41.5t-37 25.5t-43 8.5q-28 0 -52.5 -8.5t-43 -27.5t-29.5 -50t-11 -76q0 -71 32 -107t94 -36q27 0 50 12t39.5 34.5t26 54.5t9.5 71z" />
    <glyph glyph-name="c" unicode="c" horiz-adv-x="583" 
d="M20 246q0 68 27.5 117t73 81t103.5 47t118 15q33 0 66 -5.5t63 -14.5t55.5 -21t43.5 -25q-14 -25 -25.5 -51t-19.5 -55h-56q-8 11 -20.5 23.5t-28 23t-35 17t-40.5 6.5q-41 0 -70 -12t-47.5 -33t-27 -49.5t-8.5 -62.5q0 -74 40.5 -112t116.5 -38q18 0 39.5 5.5t43 15.5
t42.5 23t38 27l54 -27q-9 -26 -11.5 -45.5t-4.5 -39.5q-21 -14 -47.5 -26t-55.5 -22t-59.5 -15.5t-58.5 -5.5q-56 0 -111 14.5t-99 45.5t-71.5 80.5t-27.5 118.5z" />
    <glyph glyph-name="d" unicode="d" horiz-adv-x="620" 
d="M417 10q-7 2 -13 2.5t-11 1.5q-26 -12 -57 -19.5t-69 -7.5q-50 0 -97.5 14.5t-84.5 46t-59.5 79.5t-22.5 116q0 66 24.5 115.5t64 82.5t89 49t99.5 16q43 0 76.5 -8t61.5 -26q0 38 -1 79.5t-2 80t-2 71.5t-2 55q19 -7 27 -8.5t13 -2.5q6 -1 14 -2t6 -1q8 -1 15.5 -1.5
t13.5 -0.5q5 0 12.5 0.5t15.5 1.5q3 0 12.5 2t21 4t21 4t11.5 2q-6 -44 -10 -108t-6.5 -134.5t-3.5 -141t-1 -125.5q0 -37 0.5 -69t1.5 -64v1q0 -10 0.5 -26.5t1 -34.5t0.5 -35v-28q-10 0 -22 1t-18 2q-5 1 -10 1t-9 2q-4 0 -8.5 0.5t-9.5 1.5h1q-2 1 -5 1t-5 1v-1l-9 -2
h-4.5t-4.5 -1q-1 0 -5 -0.5t-6 -1.5h1q-8 -2 -19.5 -3t-26.5 -1v19zM174 238q0 -42 10.5 -70t27.5 -44.5t37.5 -23t41.5 -6.5q34 0 59 14t41 37t23.5 51.5t7.5 58.5q0 67 -32.5 103t-94.5 36q-30 0 -53 -12t-38 -33t-22.5 -49.5t-7.5 -61.5z" />
    <glyph glyph-name="e" unicode="e" horiz-adv-x="619" 
d="M29 234q0 63 19.5 113t56.5 85.5t91.5 54.5t125.5 19q69 0 119.5 -17.5t83.5 -47.5t49 -69.5t16 -84.5q0 -4 -0.5 -13t-1.5 -19.5t-1.5 -21.5t-1.5 -18h-65q-14 0 -26.5 0.5t-23.5 0.5q-40 1 -79 1.5t-79 0.5q-24 0 -48 -0.5t-49 -1.5h-14q5 -51 45 -85t112 -34
q19 0 40.5 5.5t42.5 15t41 22.5t37 27l52 -23l-11 -88q-44 -27 -104 -48t-119 -21q-68 0 -125 19t-97.5 52.5t-63 78.5t-22.5 97zM324 404q-23 0 -41.5 -7t-32 -18.5t-22.5 -26.5t-15 -30q26 -1 51.5 -1.5t49.5 -0.5q26 0 50.5 0.5t50.5 1.5h7q-3 15 -9.5 29.5t-18 26.5
t-29 19t-41.5 7z" />
    <glyph glyph-name="f" unicode="f" horiz-adv-x="372" 
d="M331 594q-18 8 -33.5 13t-27.5 5q-31 0 -43.5 -16.5t-12.5 -36.5q0 -8 2.5 -27.5t6.5 -39.5h4q5 0 11 0.5t11 0.5h100q-4 -23 -5.5 -38t-1.5 -17t2.5 -17.5t5.5 -37.5h-52q-8 0 -16 0.5t-13 0.5q-6 0 -12 0.5t-11 0.5q-5 1 -9.5 1h-9.5q0 -46 0.5 -97.5t1 -103.5
t2 -102.5t3.5 -94.5q-30 5 -53.5 8.5t-32.5 3.5t-33.5 -3.5t-56.5 -8.5q8 100 11 199.5t3 198.5q-3 0 -7 -1t-8 -1t-11.5 -0.5t-15.5 -0.5h-45q0 3 1 9.5l2 13t2 12.5t1 9q1 5 1.5 9.5t0.5 1.5v1q0 1 -0.5 2t-0.5 3q-1 5 -2.5 23t-2.5 26h9.5t14 -0.5t15 -0.5h12.5h37
q4 27 13.5 56.5t23.5 57.5t32 53t40 42q24 19 61 33.5t75 14.5q8 0 22 -2.5t37 -9.5q0 -28 -0.5 -41.5t-1.5 -21.5v1q-1 -10 -1.5 -30t-0.5 -30z" />
    <glyph glyph-name="g" unicode="g" horiz-adv-x="619" 
d="M42 324q0 46 20 80.5t54.5 57t80 33.5t96.5 11q12 0 24 -0.5t26 -1.5h12q4 -1 7.5 -1h6.5t7 -0.5t9 -0.5q2 0 4.5 -0.5t5.5 -0.5h9q19 -2 34 -2h24q30 0 65.5 3.5t69.5 11.5q-4 -25 -7 -45t-3 -22q0 1 3 -19t7 -43q-15 3 -24.5 4t-14.5 1.5t-8.5 1t-6.5 0.5q-7 1 -12.5 1
t-10.5 1q9 -17 14.5 -36t5.5 -36q0 -43 -17.5 -76.5t-49 -57t-77 -35.5t-100.5 -12q-5 0 -9 0.5t-8 0.5h-17q-8 1 -14.5 1h-13.5q-6 0 -12 -1t-6 -3q0 -5 6.5 -6.5t23.5 -2.5q20 -1 41 -1h41q5 0 10 -0.5t11 -0.5h19q61 -2 104 -14t71 -32t41 -47.5t13 -58.5
q0 -37 -17.5 -76t-54 -70.5t-94 -51.5t-137.5 -20q-62 0 -112.5 11.5t-85.5 33t-54 52t-19 68.5q0 40 22 71.5t53 51.5q-25 30 -25 68q0 46 36 77q-33 23 -50 55.5t-17 77.5zM440 -62q0 32 -31 47t-102 15q-65 0 -101.5 -15.5t-36.5 -51.5q0 -41 36.5 -58.5t91.5 -17.5
q27 0 52.5 5t46 15t32.5 25t12 36zM380 327q0 38 -24 58.5t-62 20.5q-43 0 -66.5 -22t-23.5 -60q0 -40 21.5 -63t67.5 -23q45 0 66 27t21 62z" />
    <glyph glyph-name="h" unicode="h" horiz-adv-x="560" 
d="M40 452q0 30 -0.5 67.5t-2 77t-4.5 80t-7 77.5q33 -5 58 -8.5t35 -3.5t35 3.5t58 8.5q-4 -35 -7 -73t-4.5 -76t-2.5 -73t-1 -64q59 38 144 38q37 0 75.5 -8.5t70 -30.5t51 -59.5t19.5 -94.5q0 -18 -0.5 -37.5t-1.5 -39.5q0 -5 -0.5 -12t-0.5 -12q-1 -16 -1.5 -32.5
t-0.5 -31.5t0.5 -36.5t1.5 -44t2.5 -44t2.5 -35.5q-33 5 -56.5 8.5t-31.5 3.5q-9 0 -32 -3.5t-53 -8.5q0 4 0.5 13t1.5 19.5t1.5 20.5t0.5 16q1 11 1.5 21.5t0.5 17.5q2 35 3.5 68t1.5 68v55q0 48 -23.5 73.5t-61.5 25.5q-60 0 -87.5 -29t-27.5 -82q0 -25 1 -59t2.5 -72.5
t4.5 -79t7 -76.5q-33 5 -58 8.5t-35 3.5t-35 -3.5t-58 -8.5q4 36 7 76.5t4.5 80.5t2 77.5t0.5 67.5v162z" />
    <glyph glyph-name="i" unicode="i" horiz-adv-x="196" 
d="M19 292q0 41 -3.5 95.5t-11.5 116.5q33 -5 57.5 -8t35.5 -3q10 0 34 3t59 8q-8 -62 -11.5 -116.5t-3.5 -95.5v-92q0 -41 3.5 -95.5t11.5 -116.5q-33 5 -58 8.5t-35 3.5q-11 0 -36 -3.5t-57 -8.5q8 62 11.5 116.5t3.5 95.5v92zM3 616q0 34 27.5 58t66.5 24t66.5 -24
t27.5 -58q0 -35 -27.5 -58.5t-66.5 -23.5t-66.5 23.5t-27.5 58.5z" />
    <glyph glyph-name="j" unicode="j" horiz-adv-x="270" 
d="M94 257q0 51 -2.5 114t-13.5 133q35 -5 59.5 -8t35.5 -3t35.5 3t58.5 8q-9 -70 -12.5 -122.5t-3.5 -89.5v-92q0 -26 0.5 -51.5t1.5 -51.5q0 -8 0.5 -16t0.5 -17q1 -16 1.5 -35.5t0.5 -34.5q0 -21 -1 -41t-5.5 -39t-13.5 -38t-25 -38q-29 -32 -86 -55t-136 -25l-20 114
q4 -1 11.5 -2.5t15.5 -3t15.5 -3t10.5 -1.5q2 -1 6 -1q2 0 3 -1q21 0 33 12t19 30.5t9 42t2 46.5v266zM79 616q0 34 27.5 58t66.5 24q19 0 36 -6.5t30 -17.5t20.5 -26t7.5 -32t-7.5 -32t-20.5 -26t-30 -17.5t-36 -6.5q-39 0 -66.5 23.5t-27.5 58.5z" />
    <glyph glyph-name="k" unicode="k" horiz-adv-x="565" 
d="M45 452q0 30 -1 67t-3 77.5t-4.5 81t-6.5 76.5q32 -5 57 -8.5t35 -3.5q11 0 36 3.5t57 8.5q-4 -36 -6.5 -76.5t-4.5 -81t-3 -77.5t-1 -67v-128q2 0 3 1l-1 -1q9 6 33 24.5t55 43.5t64 53.5t62 54.5q18 -3 31.5 -5t22.5 -2q11 0 40 3h39h22.5t33.5 0.5t30.5 0.5h14.5
q-104 -67 -188 -123t-138 -98q28 -27 60 -56.5t65.5 -59.5t66 -59.5t62.5 -55.5q3 -3 13.5 -11.5t22 -18.5t21 -19t12.5 -11q-69 7 -114 11t-59 4q-24 0 -70 -8q-21 21 -47 46.5t-53.5 51.5t-54.5 51.5t-49 45.5q0 -75 15 -199q-32 5 -57 8.5t-36 3.5q-10 0 -35 -3.5
t-57 -8.5q4 36 6.5 76.5t4.5 81t3 77.5t1 67v162z" />
    <glyph glyph-name="l" unicode="l" horiz-adv-x="191" 
d="M16 452q0 30 -1 67t-2.5 77.5t-4.5 81t-7 76.5q32 -5 57 -8.5t36 -3.5q10 0 35 3.5t58 8.5q-4 -36 -7 -76.5t-4.5 -81t-2.5 -77.5t-1 -67v-162q0 -30 1 -67t2.5 -77.5t4.5 -81t7 -76.5q-33 5 -58 8.5t-35 3.5q-11 0 -36 -3.5t-57 -8.5q4 36 7 76.5t4.5 81t2.5 77.5t1 67
v162z" />
    <glyph glyph-name="m" unicode="m" horiz-adv-x="951" 
d="M60 292q0 37 -3.5 89.5t-13.5 122.5q35 -5 59 -8t35 -3q8 0 30 3t54 8q0 -2 -0.5 -13t-0.5 -16q27 17 58.5 24t69.5 7q51 0 95 -17t73 -46q68 63 176 63q44 0 82.5 -10t66.5 -32t44 -55.5t16 -81.5q0 -5 -0.5 -12t-0.5 -13q-1 -8 -1 -15v-15q0 -2 -0.5 -5t-0.5 -5
q-2 -24 -3 -55.5t-1 -76.5v-22.5t1 -27t2 -37.5t4 -55q-30 5 -53.5 8.5t-34.5 3.5q-13 0 -38 -3.5t-56 -8.5q3 21 6 54t6 75t5 92t2 106q0 30 -18 50.5t-64 20.5q-31 0 -52.5 -9t-32.5 -21l1 1q-6 -7 -9.5 -14t-5.5 -25t-2.5 -51.5t-0.5 -91.5q0 -29 1 -52t3 -49
q1 -5 1 -11.5t1 -11.5v-20v-9.5t0.5 -13.5t0.5 -13v-7q-33 5 -57 8.5t-29 3.5q-11 0 -35.5 -3.5t-55.5 -8.5q7 75 10.5 137.5t3.5 110.5q0 36 -0.5 57.5t-2 33.5t-4.5 18.5t-8 14.5q-7 11 -25 18.5t-35 7.5q-54 0 -80 -29t-26 -82v-75q0 -37 3 -89.5t13 -122.5
q-33 5 -59 8.5t-37 3.5t-36 -3.5t-58 -8.5q10 70 13.5 122.5t3.5 89.5v92z" />
    <glyph glyph-name="n" unicode="n" horiz-adv-x="585" 
d="M395 287q0 48 -23.5 73.5t-61.5 25.5q-60 0 -87.5 -29t-27.5 -82v-75q0 -37 3.5 -89.5t12.5 -122.5q-32 5 -57.5 8.5t-36.5 3.5t-36.5 -3.5t-58.5 -8.5q10 70 13 122.5t3 89.5v92q0 37 -3 89.5t-13 122.5q35 -5 59.5 -8t35.5 -3q6 0 29 3t58 8q-1 -5 -2 -14.5t-2 -18.5
q29 17 63 26t76 9q37 0 75.5 -8.5t70 -30.5t51 -59.5t19.5 -94.5q0 -18 -0.5 -37.5t-1.5 -39.5q0 -5 -0.5 -12t-0.5 -12q-1 -16 -1.5 -32.5t-0.5 -31.5t0.5 -36.5t1.5 -44t2.5 -44t2.5 -35.5q-33 5 -56.5 8.5t-31.5 3.5q-9 0 -32 -3.5t-53 -8.5q0 4 0.5 13t1.5 19.5
t1.5 20.5t0.5 16q1 11 1.5 21.5t0.5 17.5q2 35 3.5 68t1.5 68v55v0z" />
    <glyph glyph-name="o" unicode="o" horiz-adv-x="679" 
d="M31 246q0 72 27 121.5t71 80t99 44.5t111 14t111 -14t99 -44.5t71 -80t27 -121.5q0 -71 -27 -120.5t-71 -80.5t-99 -44.5t-111 -13.5t-111 13.5t-99 44.5t-71 80.5t-27 120.5zM202 246q0 -30 6.5 -58.5t22.5 -50.5t42.5 -35t65.5 -13t65.5 13t42 35t22.5 50.5t7 58.5
q0 31 -7 59.5t-22.5 50.5t-42 35t-65.5 13t-65.5 -13t-42.5 -35t-22.5 -50.5t-6.5 -59.5z" />
    <glyph glyph-name="p" unicode="p" horiz-adv-x="622" 
d="M43 200q0 30 -1 68t-2.5 78.5t-4 81t-5.5 76.5q34 -5 57.5 -8t33.5 -3q8 0 34 3.5t67 10.5q-2 -4 -4 -11t-4.5 -14t-3.5 -11.5t-1 -2.5q26 16 62.5 27t81.5 11q50 0 98 -15t85 -46t59.5 -80t22.5 -116q0 -66 -24.5 -115t-64 -82t-89 -49t-100.5 -16q-43 0 -77.5 9.5
t-63.5 27.5q0 -30 1.5 -64t3 -69.5t3.5 -69.5t5 -64h-6t-10 0.5t-10 0.5h-6q-19 3 -34.5 4.5t-24.5 1.5q-8 0 -20.5 -1t-27.5 -3q-3 0 -9.5 -1t-13.5 -2.5t-13 -2.5t-8 -1q3 37 6 77.5t4.5 81t2.5 77.5t1 66v145zM447 250q0 42 -10.5 70t-27.5 44.5t-37.5 23t-41.5 6.5
q-36 0 -60.5 -12t-40.5 -33t-23 -48.5t-7 -58.5q0 -74 32.5 -111t94.5 -37q30 0 53 12t38 33t22.5 49.5t7.5 61.5z" />
    <glyph glyph-name="q" unicode="q" horiz-adv-x="621" 
d="M578 55q0 -29 1 -66t2.5 -77.5t4.5 -81t6 -77.5l-44 7q-15 2 -27.5 3t-20.5 1q-9 0 -24.5 -1.5t-34.5 -4.5h-6t-10.5 -0.5t-10 -0.5h-5.5q3 31 5 67t3.5 72t3 71t1.5 65q-65 -45 -149 -45q-47 0 -95 13t-87 43t-63.5 79t-24.5 121q0 69 24.5 118.5t63.5 81.5t87 47.5
t95 15.5q45 0 78 -7t58 -21q-2 8 -3.5 15.5l-2.5 12.5q38 -6 62.5 -9.5t34.5 -3.5t33.5 3t57.5 8q-3 -36 -5.5 -76.5t-4 -81t-2.5 -78.5t-1 -68v-145zM422 255q0 27 -7 52.5t-22 44.5t-38.5 30.5t-56.5 11.5q-21 0 -43 -7t-40 -24.5t-29.5 -48t-11.5 -78.5q0 -62 28.5 -102
t85.5 -40q33 0 58 14t42 36.5t25.5 51.5t8.5 59z" />
    <glyph glyph-name="r" unicode="r" horiz-adv-x="351" 
d="M306 343q-9 8 -22.5 14.5t-24.5 6.5q-37 0 -57.5 -25t-20.5 -63v-96t1 -70.5t3 -59.5t6 -62q-30 5 -54 8.5t-33 3.5q-10 0 -33.5 -3.5t-54.5 -8.5q3 34 5 64.5t3 61t1 63v69.5v29q0 18 -0.5 45t-1.5 58.5t-2.5 64t-3.5 61.5q33 -5 55 -8t32 -3t32.5 3.5t55.5 9.5
q-3 -21 -3 -33q25 18 50.5 25.5t53.5 7.5q6 0 13 -1t16.5 -3t23.5 -6t34 -11q-17 -32 -19.5 -62.5t-2.5 -53.5z" />
    <glyph glyph-name="s" unicode="s" horiz-adv-x="445" 
d="M106 155q6 -9 16.5 -19.5t24.5 -20t30 -15.5t34 -6q29 0 51 10.5t22 32.5q0 18 -27 27.5t-62 17.5q-31 7 -62.5 16.5t-56.5 26t-40.5 42.5t-15.5 67q0 37 14.5 69t43 54.5t70 35.5t94.5 13q30 0 55 -5t46 -12l6 -3q2 0 19 -4t62 -12q-11 -15 -21 -33.5t-17.5 -36.5
t-13 -33t-6.5 -24h-72q-8 23 -27.5 39.5t-44.5 16.5q-20 0 -39 -9t-19 -30q0 -9 7.5 -16t20.5 -12.5t29 -10t33 -8.5q31 -8 62 -17t56 -25t40.5 -41t15.5 -65q0 -32 -17 -64t-48 -57.5t-75 -41t-99 -15.5q-56 0 -106 16t-90 33q6 9 12 24t11.5 31.5t9 33.5t3.5 30h71z" />
    <glyph glyph-name="t" unicode="t" horiz-adv-x="350" 
d="M188 617h51q-3 -34 -5.5 -66.5t-4.5 -65.5h14q10 0 25 0.5t30.5 1.5t29.5 1.5t24 0.5q-3 -19 -4.5 -30t-2.5 -16.5t-1 -8v-3.5q0 -2 1 -10.5t7 -46.5q-15 1 -33 1.5t-36.5 1t-34.5 0.5h-26q-1 -18 -1.5 -42t-1 -50t-1 -51.5t-0.5 -46.5q0 -18 1 -36t6 -31.5t16 -22
t31 -8.5q8 0 33.5 4.5t54.5 10.5v-95q-33 -10 -67 -16t-57 -6q-88 0 -130.5 39.5t-42.5 108.5q0 19 0.5 39.5t1.5 44.5v15q2 30 3 63.5t2 78.5q-9 0 -21 -0.5t-24.5 -1.5t-23.5 -1.5t-18 -1.5q7 28 10.5 42.5t3.5 19.5t-4 19t-11 37h9.5t14 -0.5t14 -0.5h8.5q19 -1 24.5 -2
t14.5 -1q0 5 -1 9t-1 9q-1 15 -1.5 37t-1.5 34z" />
    <glyph glyph-name="u" unicode="u" horiz-adv-x="585" 
d="M29 170q0 26 0.5 48t1.5 41v4q1 14 1.5 27.5t0.5 27.5v39t-0.5 50.5t-1 52t-0.5 44.5q32 -5 53.5 -8t29.5 -3q10 0 32 3t54 8q-6 -70 -10 -147t-4 -146q0 -36 6.5 -54t15.5 -26q11 -11 28.5 -17.5t43.5 -6.5q35 0 58.5 11t33.5 28q6 10 9.5 19.5t5.5 27t2.5 45.5t0.5 75
v44t-0.5 53.5t-1 52.5t-1.5 41q64 -11 85 -11q9 0 31 3.5t55 9.5q-2 -35 -4 -75.5t-3.5 -82.5t-2.5 -83t-1 -77q0 -20 0.5 -46.5t1.5 -54.5t2.5 -54t2.5 -45q-30 5 -52.5 8.5t-30.5 3.5t-30.5 -3.5t-51.5 -8.5q1 14 0.5 19.5t-0.5 16.5q-29 -17 -64 -27t-73 -10
q-104 0 -163.5 47.5t-59.5 135.5z" />
    <glyph glyph-name="v" unicode="v" horiz-adv-x="604" 
d="M232 10q-3 6 -6 13t-9 18q-24 50 -53.5 110.5t-61.5 123t-64 123.5t-60 111q52 -8 82.5 -12t41.5 -4q16 0 72 9q35 -89 71.5 -166.5t73.5 -149.5q32 57 61 119.5t55 121.5q3 6 7.5 16.5t9.5 22t9.5 21.5t7.5 16q20 -5 34 -7.5t20 -2.5q9 0 37.5 6t70.5 17l-69 -122
q-5 -11 -10.5 -21t-11.5 -20h1q-49 -90 -97 -180t-90 -183q-20 5 -34 7.5t-22 2.5q-14 0 -36 -6z" />
    <glyph glyph-name="w" unicode="w" horiz-adv-x="999" 
d="M247 14q-14 37 -38.5 94t-55.5 124t-66.5 139t-69.5 138q51 -8 81 -12t39 -4t29 2t47 7q27 -80 56.5 -155t61.5 -144q14 31 30 67.5t32 76l32 79t30 76.5q40 -9 57 -9q15 0 56 10q28 -89 57.5 -158t60.5 -138q0 2 1 -3q15 33 33.5 71.5t37 78t36 78t31.5 70.5
q43 -9 55 -9q10 0 38.5 6t71.5 17q-84 -142 -152.5 -272t-121.5 -249h-22q-3 0 -5.5 0.5t-3.5 0.5q-6 2 -12 3t-11 1q-3 0 -9 -1t-12 -3q-1 0 -4 -0.5t-6 -0.5h-23q-26 75 -55 144.5t-62 141.5q-14 -30 -30 -65t-32 -72.5t-31.5 -75.5t-28.5 -73h-25q-4 0 -7 0.5t-4 0.5
q-6 2 -12 3t-10 1q-3 0 -9 -1t-12 -3q-1 0 -2.5 -0.5t-3.5 -0.5h-10z" />
    <glyph glyph-name="x" unicode="x" horiz-adv-x="629" 
d="M205 491q16 -22 30.5 -40t28.5 -35t29 -34t32 -36q35 36 73 77.5t68 76.5q20 -3 32 -5t20 -2t50.5 8t111.5 22q-5 -5 -18.5 -17.5t-29 -27t-30 -27t-20.5 -18.5q-49 -44 -96 -87t-86 -81q27 -30 63 -69t73.5 -78.5t72 -75.5t59.5 -61q-63 8 -105.5 13.5t-53.5 5.5
q-8 0 -27.5 -2.5t-44.5 -6.5q-18 23 -35 44t-33.5 41t-34 41t-37.5 44q-36 -42 -75 -87t-71 -83q-16 4 -29 6.5t-21 2.5t-51.5 -9t-103.5 -22q27 26 64 62t75 74.5t74 74.5t61 62q-26 28 -61 64.5t-71 74t-69 72.5t-57 60q66 -11 107.5 -15.5t53.5 -4.5q25 0 64 6z" />
    <glyph glyph-name="y" unicode="y" horiz-adv-x="601" 
d="M70 -219q54 71 95.5 134t70.5 117q-14 30 -36.5 73.5t-47.5 92t-51.5 98.5t-49 93t-40 75t-24.5 46q50 -9 80 -13t39 -4q11 0 31 2t46 6q19 -48 36.5 -88t34.5 -76.5t34.5 -71.5t37.5 -72q38 70 74.5 149.5t68.5 160.5q23 -5 39 -7.5t21 -2.5q4 0 33.5 6t78.5 17
q-8 -14 -28 -48.5t-47.5 -82.5t-60 -106t-66.5 -119t-67 -122.5t-61.5 -115.5t-50 -97.5t-31.5 -69.5q-21 5 -37.5 7t-24.5 2t-28 -3t-49 -10z" />
    <glyph glyph-name="z" unicode="z" horiz-adv-x="594" 
d="M16 60q38 37 79.5 79t82 85t78.5 84t70 75q-31 -2 -68 -3.5t-72.5 -3.5t-67 -3.5t-50.5 -2.5q0 2 0.5 14.5t0.5 14.5q2 12 3.5 21.5t2.5 11.5q0 3 -1 10.5t-2 15.5q0 3 -1 9t-2.5 12.5t-2.5 12.5t-1 8q48 -3 134.5 -5t189.5 -2q47 0 97.5 2.5t85.5 4.5v-68
q-14 -14 -30.5 -31.5t-31.5 -33.5q-38 -41 -75 -79.5t-69.5 -72t-59 -61.5t-43.5 -47q70 2 150 5.5t169 10.5q-9 -26 -14 -44t-5 -21q0 -4 5 -21t13 -42h-25.5t-35 0.5t-35 1t-25.5 0.5q-49 2 -105.5 2.5t-103.5 0.5q-74 0 -147 -3q-6 0 -14.5 -0.5t-17.5 -0.5
q-12 -1 -31 -2t-25 -2v68z" />
    <glyph glyph-name="braceleft" unicode="{" horiz-adv-x="296" 
d="M-15 344q41 0 61.5 13t20.5 35v151q0 41 9 68t26 43.5t42.5 23.5t57.5 7h102v-107h-73q-11 0 -16.5 -6.5t-5.5 -28.5v-147q0 -35 -14 -62t-37 -46q24 -19 37.5 -45.5t13.5 -62.5v-147q0 -22 5.5 -28.5t16.5 -6.5h73v-106h-102q-65 0 -100 30t-35 111v152q0 22 -20.5 35
t-61.5 13v111z" />
    <glyph glyph-name="bar" unicode="|" horiz-adv-x="156" 
d="M10 744h131v-967h-131v967z" />
    <glyph glyph-name="braceright" unicode="}" horiz-adv-x="297" 
d="M311 233q-41 0 -61.5 -13t-20.5 -35v-152q0 -41 -9 -68t-26.5 -43t-42.5 -23t-58 -7h-101v106h73q11 0 16.5 6.5t5.5 28.5v147q0 35 13.5 62.5t36.5 46.5q-23 18 -36.5 45t-13.5 62v147q0 22 -5.5 28.5t-16.5 6.5h-73v107h101q33 0 58 -7t42.5 -23.5t26.5 -43.5t9 -68
v-151q0 -22 20.5 -35t61.5 -13v-111z" />
    <glyph glyph-name="asciitilde" unicode="~" horiz-adv-x="634" 
d="M14 242q39 51 80.5 81.5t103.5 30.5q38 0 65.5 -7.5t52.5 -17.5h-1q26 -8 37 -13q23 -9 44.5 -16t40.5 -7q11 0 24.5 8.5t27 22t26.5 29.5t23 30l82 -97q-17 -20 -37 -40t-43 -36t-49 -26.5t-56 -10.5q-36 0 -69.5 9.5t-72.5 26.5l1 -1q-28 11 -50.5 18.5t-38.5 7.5
q-18 0 -33 -9t-28.5 -23t-24.5 -30.5t-20 -31.5z" />
    <glyph glyph-name="exclamdown" unicode="&#xa1;" horiz-adv-x="201" 
d="M0 418q0 18 8 34t21.5 28t31.5 19t39 7t39 -7t31.5 -19t21.5 -28t8 -34q0 -26 -15.5 -47t-40.5 -32q1 -15 3.5 -35.5t5 -42t4.5 -42t4 -35.5q6 -51 11.5 -103t10 -94.5t7 -72t2.5 -36.5q0 -23 -8 -38.5t-21 -25t-29.5 -13.5t-33.5 -4t-33.5 4t-29.5 13.5t-21 25t-8 38.5
q0 8 4 50t10.5 102.5t14 131.5t14.5 136q1 7 2 20.5t2 21.5q-25 11 -40 31.5t-15 46.5z" />
    <glyph glyph-name="cent" unicode="&#xa2;" horiz-adv-x="546" 
d="M5 246q0 56 19 99.5t52 75t76.5 51t93.5 27.5q-2 17 -4.5 42.5t-9.5 67.5q29 -8 49 -12.5t25 -4.5q18 0 76 16q-5 -30 -9 -58.5t-5 -45.5q57 -5 106.5 -23t80.5 -41q-14 -25 -25.5 -51t-19.5 -55h-57q-13 19 -34 38.5t-52 26.5v-299q33 8 67.5 26t62.5 42l54 -27
q-9 -26 -11.5 -45.5t-4.5 -39.5q-34 -23 -78 -41t-89 -24q2 -19 5 -48t8 -66q-31 9 -49.5 13t-25.5 4q-4 0 -22.5 -4.5t-47.5 -12.5q0 3 0.5 11t1.5 16.5t2 16t1 11.5q2 20 3 32.5t2 27.5q-47 7 -90.5 26t-77 50t-53.5 75t-20 103zM247 387q-36 -20 -53 -56.5t-17 -83.5
q0 -100 70 -133v273z" />
    <glyph glyph-name="sterling" unicode="&#xa3;" horiz-adv-x="623" 
d="M62 127q36 0 59 8t35.5 22.5t17.5 35t5 46.5q0 12 -1.5 26.5t-3.5 28.5h-34h-37h-34.5h-27.5q8 19 12 30.5t6 17t2.5 7.5t0.5 3t-0.5 3t-3 8.5t-7.5 19t-15 35.5q35 -5 67.5 -9.5t53.5 -5.5v24q0 73 24.5 120.5t63 76t85 40t90.5 11.5q24 0 50.5 -5.5t52.5 -16t50 -27.5
t43 -39q-33 -29 -53.5 -52.5t-38.5 -46.5l-40 38q-7 21 -24 32t-40 11q-45 0 -71.5 -24.5t-26.5 -60.5q0 -19 1 -36t3 -34q0 -7 1 -11q46 0 88 3q6 0 15.5 0.5t18.5 0.5q5 0 13 1t16 1.5t14.5 1t9.5 0.5v-4.5t-0.5 -10t-0.5 -10v-5.5q-3 -21 -3 -29v-8t1 -9v1
q1 -5 1.5 -14.5t0.5 -27.5h-47q-9 0 -18 0.5t-17 0.5q-13 0 -22 0.5t-17.5 0.5h-19h-25.5v-4q0 -49 -14.5 -90t-39.5 -73q42 1 82.5 1.5t81.5 2.5q10 1 21 1t20 1q10 0 27.5 1t36 1.5t35 1.5t25.5 1q-7 -33 -9.5 -50.5t-2.5 -24.5q0 -15 13 -71h-13t-19.5 0.5t-20.5 0.5h-16
q-13 1 -25.5 1t-20.5 1q-47 2 -97 2.5t-98 0.5q-94 0 -190 -3q-10 0 -24.5 -0.5t-29.5 -1t-28 -0.5h-20v31q0 5 0.5 11t0.5 7q1 5 1.5 9.5t0.5 7.5q0 1 -0.5 4.5t-1.5 8.5q0 2 -0.5 7.5t-0.5 10.5v35h53z" />
    <glyph glyph-name="currency" unicode="&#xa4;" horiz-adv-x="698" 
d="M584 599l99 -79l-67 -53q23 -29 35 -64t12 -73q0 -74 -46 -135q7 -6 17 -13.5t19.5 -14.5t17.5 -13t13 -9l-100 -81l-64 50q-37 -20 -80 -31t-91 -11t-92 10.5t-80 31.5q-8 -7 -17 -13.5t-17 -12.5q-6 -5 -16.5 -13t-14.5 -12l-100 81l68 54q-21 29 -33 62.5t-12 69.5
t12 71.5t33 64.5q-8 7 -13 11t-13 10q-4 3 -10.5 8t-12.5 10t-11.5 9t-7.5 6l100 78l64 -51q37 20 81 31t92 11q46 0 89.5 -10.5t80.5 -30.5zM532 330q0 30 -14 56t-38.5 45.5t-58 30.5t-72.5 11t-72.5 -11t-58 -30.5t-38.5 -45.5t-14 -56q0 -29 14 -55t38.5 -45.5t58 -31
t72.5 -11.5t72.5 11.5t58 31t38.5 45.5t14 55z" />
    <glyph glyph-name="yen" unicode="&#xa5;" horiz-adv-x="680" 
d="M252 296q-23 0 -46 -0.5t-46 -1.5h-40h-14.5t-17 -0.5t-16.5 -0.5h-12v33q0 5 0.5 9.5t0.5 5.5l2 8l-2 10v10v8.5t-0.5 11.5t-0.5 11v5q10 0 28.5 -0.5t27.5 -0.5q22 -1 42.5 -1h42.5q-10 11 -19 23t-17 23q-18 22 -44.5 56t-55 69t-55 68t-44.5 54q4 0 15.5 -1
t24.5 -2.5t24 -2.5t15 -1q25 -3 41.5 -5t24.5 -2q11 0 32 2.5t50 6.5q11 -23 30 -52t41.5 -61.5t46.5 -66t47 -63.5q50 63 96.5 125t84.5 118q16 -4 29.5 -6.5t24.5 -2.5q6 0 45.5 7.5t103.5 21.5q-20 -21 -54.5 -58.5t-73.5 -81t-78.5 -88t-69.5 -80.5q36 0 74 0.5t67 1.5
v-46l-2 -10l2 -8v-95l-2 -9l2 -9v-48q-13 1 -35 1.5t-34 1.5q-34 1 -63 1.5t-63 0.5q1 -47 4 -98.5t8 -98.5q-34 5 -59 8.5t-33 3.5q-9 0 -34.5 -3.5t-57.5 -8.5q4 48 8 98.5t4 98.5q-35 0 -72 -0.5t-71 -2.5q-8 0 -25 -0.5t-24 -0.5v33q0 5 0.5 9t0.5 5l2 9l-2 9
q0 1 -0.5 5t-0.5 9v33q48 -1 96 -1h96v4zM412 292h100t95 1h-60q-12 0 -23 0.5t-20 0.5q-8 0 -14.5 0.5t-13.5 0.5q-10 0 -16.5 0.5t-13 0.5h-14h-20.5v-4v0z" />
    <glyph glyph-name="brokenbar" unicode="&#xa6;" horiz-adv-x="150" 
d="M7 230h131v-387h-131v387zM7 677h131v-387h-131v387z" />
    <glyph glyph-name="section" unicode="&#xa7;" horiz-adv-x="533" 
d="M377 517q-11 29 -35 51.5t-58 22.5q-16 0 -32 -3.5t-28.5 -10.5t-20.5 -16.5t-8 -21.5q0 -13 10.5 -23.5t28 -19.5t40 -17t45.5 -15q36 -12 72 -25t64 -32t45.5 -47t17.5 -68q0 -33 -15 -63t-34 -52q24 -30 24 -81q0 -40 -17.5 -77.5t-52 -67t-84.5 -47.5t-116 -18
q-24 0 -50.5 4.5t-53.5 12.5t-52 18.5t-45 22.5q3 12 6.5 28t6 34t4 35.5t1.5 32.5h74q5 -11 15.5 -25t28 -26.5t41.5 -21.5t55 -9q22 0 41.5 6t34.5 15.5t23.5 22t8.5 25.5q0 12 -11 21.5t-28.5 18t-40.5 15.5t-47 15q-39 12 -78 26.5t-70.5 35.5t-51 51.5t-19.5 75.5
q0 38 19.5 68.5t42.5 51.5q-8 13 -11 30.5t-3 44.5q0 34 15 67t44.5 59t73.5 41.5t102 15.5q31 0 60.5 -8t55.5 -21.5t48.5 -30t40.5 -33.5q-9 -8 -18.5 -18.5t-17.5 -22.5t-13.5 -24.5t-7.5 -22.5h-70zM391 253q0 16 -17 28t-57 26q-71 26 -110.5 40.5t-54.5 22.5
q-6 -6 -7.5 -9.5t-1.5 -11.5q0 -18 25.5 -32.5t70.5 -30.5q58 -21 93.5 -33.5t53.5 -20.5q5 7 5 21z" />
    <glyph glyph-name="dieresis" unicode="&#xa8;" horiz-adv-x="450" 
d="M21 606q0 17 7 32.5t20 27t29.5 18t36.5 6.5q19 0 36 -6.5t30 -18t20.5 -27t7.5 -32.5t-7.5 -31.5t-20.5 -26t-30 -18t-36 -6.5q-39 0 -66 24.5t-27 57.5zM241 606q0 17 7.5 32.5t20.5 27t30 18t36 6.5t36 -6.5t30 -18t20 -27t7 -32.5q0 -33 -27 -57.5t-66 -24.5
q-19 0 -36 6.5t-30 18t-20.5 26t-7.5 31.5z" />
    <glyph glyph-name="copyright" unicode="&#xa9;" horiz-adv-x="962" 
d="M43 341q0 74 34.5 139t94 113.5t139 76.5t170.5 28q90 0 170 -28t139 -76.5t93.5 -113.5t34.5 -139t-34.5 -139t-93.5 -113.5t-139 -76.5t-170 -28q-91 0 -170.5 28t-139 76.5t-94 113.5t-34.5 139zM798 341q0 53 -24.5 98t-68.5 79q-7 -16 -12 -34.5t-6 -37.5l-54 -2
q-8 6 -18.5 13.5t-25.5 15t-34 12.5t-43 5q-32 0 -62 -6.5t-53.5 -24t-38 -46.5t-14.5 -74q0 -62 42.5 -102t121.5 -40q20 0 40.5 5t39 12t34 15.5t26.5 16.5l76 -1q-14 -32 -19.5 -53t-7.5 -35q47 34 74 82t27 102zM197 340q0 61 24.5 108t66.5 78t98.5 47t121.5 16h12
q-10 1 -19.5 1.5t-19.5 0.5q-67 0 -125 -19.5t-100.5 -53.5t-67 -79.5t-24.5 -97.5t24.5 -97.5t67 -79.5t100.5 -53.5t125 -19.5q45 0 85 8.5t75 24.5q-32 -11 -69 -18.5t-76 -7.5q-66 0 -121 17t-94.5 48.5t-61.5 76.5t-22 100z" />
    <glyph glyph-name="ordfeminine" unicode="&#xaa;" horiz-adv-x="412" 
d="M49 635l16 7q29 12 62.5 22.5t80.5 10.5q24 0 51 -4.5t50.5 -18t38.5 -37t15 -62.5q0 -18 -1 -40t-3 -42q-1 -8 -1.5 -18t-0.5 -18q4 2 8.5 3t7.5 3q5 2 16.5 7.5t13.5 6.5v-97q-17 -8 -41.5 -16t-46.5 -8q-40 0 -64 22q-22 -12 -45.5 -17t-52.5 -5q-24 0 -49 5t-45.5 17
t-33.5 32t-13 49q0 41 24 65t79 38h-66v95zM182 576q-22 0 -38.5 -12t-23.5 -23q8 2 16.5 3.5t17.5 3.5q11 2 22 2.5t19 2.5q16 2 22.5 2t8.5 -7q-2 17 -14.5 22.5t-29.5 5.5zM226 466q-3 0 -5 -0.5t-4 -0.5q-23 -3 -42.5 -7.5t-19.5 -15.5q0 -5 7.5 -7.5t18.5 -2.5
q14 0 25 4.5t20 11.5v18z" />
    <glyph glyph-name="guillemotleft" unicode="&#xab;" horiz-adv-x="438" 
d="M344 471q14 -19 43.5 -34t71.5 -20l-150 -171q20 -25 41.5 -52.5t41.5 -53.5h-1q5 -6 13.5 -16.5t17 -21.5t16.5 -21l12 -15q-16 -2 -32.5 -7.5t-31 -13.5t-26 -18.5t-16.5 -21.5l-190 239zM183 472q13 -20 42.5 -35t71.5 -20l-151 -172q11 -14 22.5 -29.5t23.5 -29.5
q10 -12 23 -28.5t26.5 -33.5t26 -32.5t20.5 -25.5q-35 -3 -67 -20t-43 -37l-187 235z" />
    <glyph glyph-name="logicalnot" unicode="&#xac;" horiz-adv-x="678" 
d="M506 289h-508v122h640v-315h-132v193z" />
    <glyph glyph-name="registered" unicode="&#xae;" horiz-adv-x="962" 
d="M43 341q0 74 34.5 139t94 113.5t139 76.5t170.5 28q90 0 170 -28t139 -76.5t93.5 -113.5t34.5 -139t-34.5 -139t-93.5 -113.5t-139 -76.5t-170 -28q-91 0 -170.5 28t-139 76.5t-94 113.5t-34.5 139zM481 591q-26 0 -51.5 -3.5t-48.5 -8.5q10 -1 18.5 -1h16.5
q11 0 20.5 0.5t22.5 1.5q4 0 7.5 0.5t6.5 0.5q8 1 16.5 1.5t16.5 0.5q37 0 69.5 -7.5t56.5 -23t38 -39.5t14 -56q0 -27 -10 -48.5t-26.5 -38t-37.5 -28.5t-43 -19l10 -11q35 -37 72 -74t71 -61q37 33 57.5 74.5t20.5 89.5q0 52 -24.5 97.5t-67.5 79.5t-100.5 53.5
t-124.5 19.5zM164 341q0 -61 32.5 -112.5t89.5 -85.5q1 2 0.5 4t0.5 4q1 8 1.5 13.5t0.5 9.5q1 5 1 9.5t1 9.5v-1q2 20 3.5 40t1.5 40v153q0 21 -2 52t-6 63q-57 -34 -90.5 -85.5t-33.5 -113.5zM361 114q-7 0 -12 -1q59 -22 132 -22q30 0 58 4t54 12q-40 47 -81 91t-85 89
v-12q0 -29 3 -71.5t9 -103.5q-32 7 -52.5 10.5t-25.5 3.5zM427 396h10q42 0 73 12.5t31 41.5q0 18 -19.5 28t-48.5 10q-14 0 -21.5 0.5t-21.5 -1.5q-3 -27 -3 -51v-40z" />
    <glyph glyph-name="macron" unicode="&#xaf;" horiz-adv-x="428" 
d="M24 660h379v-120h-379v120z" />
    <glyph glyph-name="degree" unicode="&#xb0;" horiz-adv-x="422" 
d="M12 508q0 35 15.5 65.5t42.5 53t63.5 35.5t77.5 13t77.5 -13t63.5 -35.5t42.5 -53t15.5 -65.5t-15.5 -65t-42.5 -53t-63.5 -36t-77.5 -13t-77.5 13t-63.5 36t-42.5 53t-15.5 65zM127 508q0 -25 24.5 -42.5t59.5 -17.5t59.5 17.5t24.5 42.5q0 26 -24.5 43.5t-59.5 17.5
t-59.5 -17.5t-24.5 -43.5z" />
    <glyph glyph-name="plusminus" unicode="&#xb1;" horiz-adv-x="648" 
d="M4 120h254v123h-254v120h254v163h131v-163h255v-120h-255v-123h255v-120h-640v120z" />
    <glyph glyph-name="twosuperior" unicode="&#xb2;" horiz-adv-x="407" 
d="M27 585q42 48 85.5 69t97.5 21q38 0 71.5 -7.5t58 -23.5t38.5 -41t14 -60q0 -23 -6 -43t-23 -41.5t-47 -48t-77 -61.5q46 2 93.5 4t76.5 4q-9 -26 -14 -44t-5 -21q0 -2 5 -19t14 -43q-20 1 -47.5 2.5t-57 2.5t-57 1.5t-47.5 0.5t-45 -0.5t-51 -1.5t-51.5 -2t-44.5 -2v71
q12 8 31 21.5t30 21.5h-1q41 30 73.5 55.5t55.5 48.5t35 45t12 46q0 21 -13.5 30.5t-31.5 9.5q-14 0 -24.5 -6t-17.5 -14.5t-11.5 -18.5t-6.5 -18l-52 -2z" />
    <glyph glyph-name="threesuperior" unicode="&#xb3;" horiz-adv-x="393" 
d="M29 359h46q12 -11 34 -21.5t49 -10.5q35 0 55.5 14t20.5 35q0 24 -16.5 32.5t-36.5 8.5q-10 0 -41 -6t-62 -14q13 35 18 50t5 17t-5.5 20t-19.5 56h-5l-45 77q27 19 68.5 38.5t97.5 19.5q34 0 64.5 -7t52.5 -21t35 -36t13 -52q0 -25 -9.5 -45t-24.5 -35q26 -14 43 -36.5
t17 -60.5q0 -34 -16 -61.5t-45.5 -47t-70.5 -30.5t-91 -11q-45 0 -86 10t-76 23zM84 540q42 -16 62.5 -22t25.5 -6q26 0 35 14.5t9 28.5q0 13 -11.5 19t-27.5 6q-19 0 -35 -12t-24 -27z" />
    <glyph glyph-name="acute" unicode="&#xb4;" horiz-adv-x="298" 
d="M158 698q16 12 35.5 21t39.5 9q10 0 23 -4t24 -12.5t18.5 -20.5t7.5 -28q0 -15 -5.5 -27t-14.5 -21t-20 -15.5t-21 -11.5h1q-25 -14 -52 -27t-53 -27l-34 -17t-33 -17h-161z" />
    <glyph glyph-name="mu" unicode="&#xb5;" horiz-adv-x="562" 
d="M255 -13q-17 0 -33.5 1t-31.5 4q0 -25 0.5 -49.5t2.5 -52t5.5 -61t9.5 -77.5q-34 5 -59 8.5t-32 3.5q-5 0 -18 -1.5t-28 -3.5q-6 -1 -20 -3t-19 -3q0 11 0.5 35.5t0.5 38.5q1 17 1 32.5t1 26.5q2 46 2 96v107v119.5t-1 101.5q0 20 -0.5 47.5t-0.5 55.5v52.5v38.5
q32 -5 53.5 -8t29.5 -3q10 0 32 3t54 8q-6 -70 -10 -147t-4 -146q0 -36 6.5 -54t15.5 -26q11 -11 28.5 -17.5t43.5 -6.5q35 0 58.5 11t33.5 28q6 10 9.5 19.5t5.5 27t2.5 45.5t0.5 75v44t-0.5 53.5t-1 52.5t-1.5 41q64 -11 85 -11q9 0 31 3.5t55 9.5q-2 -35 -4 -75.5
t-3.5 -82.5t-2.5 -83t-1 -77q0 -20 0.5 -46.5t1.5 -54.5t2.5 -54t2.5 -45q-30 5 -52.5 8.5t-30.5 3.5t-30.5 -3.5t-51.5 -8.5q1 14 0.5 19.5t-0.5 16.5q-29 -17 -64.5 -27t-73.5 -10z" />
    <glyph glyph-name="paragraph" unicode="&#xb6;" horiz-adv-x="612" 
d="M285 -103v364q-72 4 -125 21.5t-87 46.5t-50.5 67.5t-16.5 84.5q0 100 69.5 150.5t189.5 50.5h328v-92l-83 -10v-683h-225z" />
    <glyph glyph-name="periodcentered" unicode="&#xb7;" horiz-adv-x="212" 
d="M1 310q0 19 8 35.5t22.5 29t33.5 19.5t40 7t40 -7t33.5 -19.5t22.5 -29t8 -35.5q0 -18 -8 -34.5t-22.5 -29t-33.5 -19.5t-40 -7t-40 7t-33.5 19.5t-22.5 29t-8 34.5z" />
    <glyph glyph-name="cedilla" unicode="&#xb8;" horiz-adv-x="298" 
d="M26 -76q12 -3 27 -6l-20 13l69 143h115l-22 -62q50 -5 77.5 -32t27.5 -68q0 -28 -14 -49t-37 -35.5t-54.5 -21.5t-65.5 -7q-36 0 -78.5 10.5t-74.5 20.5z" />
    <glyph glyph-name="onesuperior" unicode="&#xb9;" horiz-adv-x="243" 
d="M82 535q-3 -1 -4.5 -1t-3.5 -1q-11 -5 -28 -11.5t-25 -9.5q-8 9 -20.5 20t-25.5 16v62q51 12 103 29.5t91 35.5h62q-5 -51 -8.5 -96t-3.5 -80v-90q0 -33 3.5 -80.5t8.5 -107.5q-32 8 -53 12t-27 4q-5 0 -26 -4t-52 -12q4 55 6.5 105.5t2.5 82.5v126z" />
    <glyph glyph-name="ordmasculine" unicode="&#xba;" horiz-adv-x="464" 
d="M16 504q0 47 19 79.5t49.5 53t69.5 29.5t79 9q39 0 77 -9t69 -29.5t50 -53t19 -79.5t-19 -79.5t-50 -52.5t-69 -29t-77 -9q-40 0 -79 9t-69.5 29t-49.5 52.5t-19 79.5zM163 504q0 -28 15.5 -51.5t54.5 -23.5q37 0 52 23.5t15 51.5q0 14 -3.5 28t-11.5 24.5t-21 17
t-31 6.5q-39 0 -54.5 -23.5t-15.5 -52.5z" />
    <glyph glyph-name="guillemotright" unicode="&#xbb;" horiz-adv-x="437" 
d="M150 423q16 1 33 6.5t31.5 13.5t25.5 18t17 21l189 -239l-190 -226q-14 19 -43.5 34t-71.5 20l150 172zM-12 423q16 1 32.5 6.5t31 13.5t26 18.5t16.5 21.5l190 -240l-190 -226q-14 19 -43.5 34t-71.5 20l151 172z" />
    <glyph glyph-name="onequarter" unicode="&#xbc;" horiz-adv-x="941" 
d="M483 166q54 55 114.5 118t116.5 120q6 6 15.5 16t15.5 16q11 -3 22 -5t19 -2q7 0 27 4t43 10q-5 -58 -7.5 -118.5t-2.5 -117.5q30 4 87 15q-1 -3 -4 -10.5t-6 -15.5t-5.5 -15.5t-3.5 -9.5l-5 -15q-1 -4 -2 -5q0 -1 6 -18t17 -46q-27 3 -48 5.5t-36 3.5q0 -7 1 -17t2 -17
q0 -3 0.5 -9.5t1.5 -13.5q1 -8 2.5 -22t5.5 -32q-29 6 -52 10.5t-30 4.5q-4 0 -24 -4t-52 -10v6.5t0.5 12t0.5 11.5v7q2 17 4 37t3 36q-30 0 -64 -0.5t-65.5 -1.5t-57.5 -1.5t-39 -1.5v75zM543 690q1 0 8.5 -0.5t8.5 -0.5q11 -3 19 -5.5t11 -2.5q2 0 12.5 3l24.5 7h-1
q2 0 11 2.5t18.5 5t18.5 5t11 3.5l-358 -738l-27 6q-7 2 -12 3t-7 1q-4 0 -29 -7t-67 -20zM140 537q-5 -2 -9 -3.5t-8 -3.5q-8 -4 -22 -9.5t-21 -8.5q-8 9 -21 20t-26 16v62q51 14 104 31t91 34h60q-5 -51 -8 -96t-3 -80v-90q0 -29 3.5 -76.5t9.5 -110.5q-32 8 -52.5 11.5
t-28.5 3.5q-10 0 -31.5 -3.5t-47.5 -11.5q5 55 7.5 105t2.5 82v128zM709 252l-6 -6q-9 -9 -13 -13.5t-7.5 -8t-7.5 -8l-12 -13.5h46v49z" />
    <glyph glyph-name="onehalf" unicode="&#xbd;" horiz-adv-x="926" 
d="M532 347q40 48 83 69.5t97 21.5q39 0 72.5 -7.5t58 -24t38.5 -41.5t14 -59q0 -23 -6.5 -43t-23.5 -42t-46.5 -48t-76.5 -61q27 0 57 1t56 2q1 33 2.5 44.5t4 8.5t6 -17.5t8.5 -34.5q22 2 35 3q-5 -2 -13.5 -8.5t-16.5 -14.5q2 -7 3 -13t3 -13l8 -5q-2 -6 -2.5 -7t-0.5 -2
v-3l3 -9v1l3.5 -10.5t5.5 -16t6 -16.5t4 -11q-20 1 -47.5 2.5t-57 3t-57.5 2.5t-48 1q-19 0 -44.5 -0.5t-51.5 -1.5t-51.5 -2.5t-44.5 -2.5v71q6 4 13.5 10t15.5 12t15.5 12l12.5 10q40 30 73 55t56 48.5t36 46t13 46.5q0 20 -13.5 29t-30.5 9q-15 0 -25.5 -6t-18 -14
t-12 -18t-6.5 -17l-53 -2zM538 690q1 0 9 -0.5t9 -0.5q22 -8 30 -8q4 0 16.5 3.5t28.5 7.5q2 1 10 3.5t17 5.5l16.5 5.5t8.5 2.5l-360 -740q-4 1 -15.5 3t-14.5 3q-5 2 -9.5 3t-6.5 1q-5 0 -29.5 -7t-66.5 -20zM139 537q-4 -2 -7 -3t-7 -3q-9 -4 -24 -10t-23 -9
q-7 9 -20.5 20t-26.5 16v62q50 12 102.5 29.5t91.5 35.5h62q-6 -56 -8 -99t-2 -77v-90q0 -30 2.5 -75t8.5 -113q-31 8 -52 12t-27 4q-8 0 -28.5 -3.5t-51.5 -11.5q6 67 8 110t2 77v128zM888 64q1 -2 1.5 -3.5t1.5 -3.5q2 4 2 5v2h-5zM911 119q3 1 3 0h-3z" />
    <glyph glyph-name="threequarters" unicode="&#xbe;" horiz-adv-x="994" 
d="M534 165q29 31 62.5 65.5t68 70t68.5 70t64 65.5q11 -3 22.5 -5t17.5 -2q2 0 23 4.5t47 10.5q-5 -58 -7.5 -119.5t-2.5 -118.5q22 3 57 10.5t86 19.5l-46.5 -46.5t-24 -23.5t-9 -8t-1.5 0q-2 -6 -2 -7q0 -2 -0.5 -1t0.5 -1q3 -6 7 -13.5t6 -13.5q0 -2 4 -8t9 -13l12 -18
q-29 4 -55.5 8t-41.5 5q1 -15 2 -33t2 -32q1 -5 1.5 -12t0.5 -33q-32 6 -52.5 10t-23.5 4q-5 0 -26 -4t-52 -10q0 4 0.5 12t1.5 17t1.5 17t0.5 12q1 9 2 15t2 11.5t1.5 11t0.5 14.5q-31 0 -65 -0.5t-65.5 -1.5t-57 -1.5t-38.5 -1.5v74zM55 359h45q12 -11 34 -21.5t50 -10.5
q35 0 56 14t21 35q0 24 -17 32.5t-36 8.5q-13 0 -43 -6t-59 -13q11 32 16 48t5 18q0 5 -24 76h-6l-46 76q14 9 31 19.5t38 19.5t45.5 14.5t52.5 5.5q34 0 64.5 -7t52.5 -21t35 -36t13 -52q0 -25 -9.5 -45t-24.5 -35q26 -14 43 -36.5t17 -60.5q0 -34 -16 -61.5t-45.5 -47
t-70.5 -30.5t-91 -11q-45 0 -86 10t-76 23zM607 690q1 0 9 -0.5t9 -0.5q22 -8 30 -8q4 0 16.5 3.5t27.5 7.5q2 1 10 3.5t17 5.5l16.5 5.5t8.5 2.5l-361 -740q-4 1 -15 3.5t-14 3.5q-12 3 -16 3t-29 -7t-67 -20zM109 540q42 -15 63 -21.5t26 -6.5q25 0 34 14.5t9 28.5
q0 13 -11.5 19t-26.5 6q-19 0 -34.5 -12t-23.5 -27zM760 253l-11 -11l-10.5 -10.5t-11.5 -12t-14 -16.5h47v50z" />
    <glyph glyph-name="questiondown" unicode="&#xbf;" horiz-adv-x="348" 
d="M96 418q0 18 8 34t22 28t32 19t39 7t39 -7t32 -19t22 -28t8 -34q0 -31 -21.5 -54.5t-54.5 -30.5q19 -5 39.5 -15.5t37 -26t27 -37.5t10.5 -51t-11 -53.5t-28 -46t-38 -40t-41 -35.5q-28 -23 -51 -45t-23 -43q0 -17 18.5 -26.5t39.5 -9.5q23 0 57.5 23t72.5 58l19 -143
q-32 -17 -70.5 -31t-84.5 -14q-49 0 -87 12.5t-63.5 33.5t-38.5 49t-13 60t11 58.5t28.5 49t39.5 42t44 37.5q29 23 52.5 45t23.5 41q0 5 -5.5 10t-16.5 5q-6 0 -18 -4.5t-20 -8.5l-69 35q14 14 27 33t14 30q23 8 51 13q-26 10 -43 31.5t-17 48.5z" />
    <glyph glyph-name="Agrave" unicode="&#xc0;" horiz-adv-x="820" 
d="M-12 -19q44 76 95 165.5t102.5 182.5t101.5 183.5t93 169.5q-29 15 -58.5 30t-57.5 30q-10 5 -21 11.5t-20 15.5t-14.5 21t-5.5 27q0 16 7.5 28.5t18.5 20.5t23.5 12.5t23.5 4.5q19 0 38 -8.5t36 -21.5q7 -5 15 -12t17 -14q21 -17 50.5 -40.5t60 -48.5t58 -47.5
t44.5 -36.5h-119q5 -8 9.5 -16t8.5 -17q11 -20 21.5 -39t20.5 -38q25 -48 54 -103t59 -111t59.5 -109.5t55 -99.5t45.5 -81.5t32 -54.5q-51 7 -87 11t-45 4q-15 0 -36.5 -2.5t-47.5 -6.5q-20 55 -45.5 109t-50.5 101q-5 10 -7.5 16.5t-9.5 18.5h-2q-31 0 -60.5 0.5
t-61.5 0.5h-53.5t-50.5 -1h-10q-33 -66 -61.5 -129.5t-45.5 -117.5q-55 11 -65 11q-6 0 -36.5 -5.5t-77.5 -13.5zM395 463q-16 -29 -30 -56.5t-30 -57.5q5 0 13 -0.5t17 -0.5h28h22h10h10h22z" />
    <glyph glyph-name="Aacute" unicode="&#xc1;" horiz-adv-x="821" 
d="M469 852q16 12 36 21.5t39 9.5q10 0 23 -4.5t24 -12.5t18.5 -20.5t7.5 -28.5q0 -15 -5.5 -27t-14.5 -21t-20 -15.5t-21 -11.5q-13 -7 -26 -13t-27 -14l-54 -27q7 -12 15 -27t15 -26l24 -46t24 -45q25 -48 54 -103t59 -111t59.5 -109.5t55 -99.5t45.5 -81.5t32 -54.5
q-51 7 -87 11t-45 4q-15 0 -36.5 -2.5t-47.5 -6.5q-20 55 -45.5 109t-50.5 101q-5 10 -7.5 16.5t-9.5 18.5h-2q-31 0 -60.5 0.5t-61.5 0.5h-53.5t-50.5 -1h-10q-33 -66 -61.5 -129.5t-45.5 -117.5q-55 11 -65 11q-6 0 -36.5 -5.5t-77.5 -13.5q43 74 91 159.5t97.5 173.5
t97.5 175t90 165h-131zM386 463q-16 -29 -30 -56.5t-30 -57.5q5 0 13 -0.5t17 -0.5h28h22h10h10h22z" />
    <glyph glyph-name="Acircumflex" unicode="&#xc2;" horiz-adv-x="826" 
d="M452 698q6 -12 16 -30.5t18 -32.5l24 -46t24 -45q25 -48 54 -103t59 -111t59.5 -109.5t55 -99.5t45.5 -81.5t32 -54.5q-51 7 -87 11t-45 4q-15 0 -36.5 -2.5t-47.5 -6.5q-20 55 -45.5 109t-50.5 101q-5 10 -7.5 16.5t-9.5 18.5h-2q-31 0 -60.5 0.5t-61.5 0.5h-53.5
t-50.5 -1h-10q-33 -66 -61.5 -129.5t-45.5 -117.5q-55 11 -65 11q-6 0 -36.5 -5.5t-77.5 -13.5q45 78 97 170.5t105.5 187.5t104.5 187.5t93 171.5h66zM413 740q-8 -6 -15 -11t-15 -10v1q-23 -16 -48 -33.5t-45 -32.5h-138l207 223h107l207 -223h-137zM393 463
q-16 -29 -30 -56.5t-30 -57.5q5 0 13 -0.5t17 -0.5h28h22h10h10h22z" />
    <glyph glyph-name="Atilde" unicode="&#xc3;" horiz-adv-x="820" 
d="M179 676q6 28 19 57.5t33.5 53.5t48 39.5t62.5 15.5q12 0 22 -1t20.5 -3.5t22.5 -6.5t29 -11q28 -11 40.5 -15t21.5 -4q11 0 21 14t18 31h102q-4 -19 -14.5 -48t-30 -56t-50 -46.5t-73.5 -19.5h-11q6 -11 12 -21.5t11 -19.5l24 -46t24 -45q25 -48 54 -103t59 -111
t59.5 -109.5t55 -99.5t45.5 -81.5t32 -54.5q-51 7 -87 11t-45 4q-15 0 -36.5 -2.5t-47.5 -6.5q-20 55 -45.5 109t-50.5 101q-5 10 -7.5 16.5t-9.5 18.5h-2q-31 0 -60.5 0.5t-61.5 0.5h-53.5t-50.5 -1h-10q-33 -66 -61.5 -129.5t-45.5 -117.5q-55 11 -65 11q-6 0 -36.5 -5.5
t-77.5 -13.5q45 78 97 170.5t105.5 187.5t104.5 187.5t93 171.5l-6 3v-1q-26 11 -38 14.5t-21 3.5q-11 0 -18 -9t-18 -33h-103zM390 463q-16 -29 -30 -56.5t-30 -57.5q5 0 13 -0.5t17 -0.5h28h22h10h10h22z" />
    <glyph glyph-name="Adieresis" unicode="&#xc4;" horiz-adv-x="819" 
d="M449 698q6 -12 16 -30.5t18 -32.5l24 -46t24 -45q25 -48 54 -103t59 -111t59.5 -109.5t55 -99.5t45.5 -81.5t32 -54.5q-51 7 -87 11t-45 4q-15 0 -36.5 -2.5t-47.5 -6.5q-20 55 -45.5 109t-50.5 101q-5 10 -7.5 16.5t-9.5 18.5h-2q-31 0 -60.5 0.5t-61.5 0.5h-53.5
t-50.5 -1h-10q-33 -66 -61.5 -129.5t-45.5 -117.5q-55 11 -65 11q-6 0 -36.5 -5.5t-77.5 -13.5q45 78 97 170.5t105.5 187.5t104.5 187.5t93 171.5h66zM206 761q0 34 27 58t66 24q19 0 36 -6.5t30 -17.5t20.5 -26t7.5 -32t-7.5 -32.5t-20.5 -26.5t-30 -17.5t-36 -6.5
q-39 0 -66 24t-27 59zM426 761q0 17 7.5 32t20.5 26t30 17.5t36 6.5q39 0 66 -24t27 -58q0 -35 -27 -59t-66 -24q-19 0 -36 6.5t-30 17.5t-20.5 26.5t-7.5 32.5zM390 463q-16 -29 -30 -56.5t-30 -57.5q5 0 13 -0.5t17 -0.5h28h22h10h10h22z" />
    <glyph glyph-name="Aring" unicode="&#xc5;" horiz-adv-x="826" 
d="M261 768q0 26 12 49.5t32.5 41t48 27.5t59.5 10q31 0 58.5 -10t48 -27.5t32.5 -41t12 -49.5q0 -39 -25 -69.5t-63 -46.5q14 -26 28 -54t29 -54q25 -48 54.5 -103t59.5 -111t59 -109.5t54.5 -99.5t46 -81.5t32.5 -54.5q-51 7 -87 11t-45 4q-15 0 -36.5 -2.5t-47.5 -6.5
q-20 55 -45.5 109t-50.5 101q-5 10 -7.5 16.5t-9.5 18.5h-2q-31 0 -60.5 0.5t-61.5 0.5h-53.5t-50.5 -1h-10q-33 -66 -61.5 -129.5t-45.5 -117.5q-55 11 -65 11q-6 0 -36.5 -5.5t-77.5 -13.5q44 76 92 160.5t96.5 171t95.5 171.5t89 163q-19 8 -36.5 20.5t-31 28.5t-22 34.5
t-8.5 37.5zM393 463q-16 -29 -30 -56.5t-30 -57.5q5 0 13 -0.5t17 -0.5h28h22h10h10h22zM382 768q0 -7 9 -12t21 -5q13 0 22 5t9 12q0 8 -9 12.5t-21 4.5q-13 0 -22 -4.5t-9 -12.5z" />
    <glyph glyph-name="AE" unicode="&#xc6;" horiz-adv-x="1027" 
d="M331 225q-42 -55 -80.5 -113t-73.5 -121q-23 4 -39.5 6.5t-26.5 2.5q-5 0 -23.5 -2.5t-44.5 -6.5q-3 0 -13.5 -1t-23 -2.5t-23.5 -3t-14 -1.5q34 38 79 91t96 114.5t105 127.5t106.5 131.5t101.5 127t89 112.5q48 -2 103 -3.5t104 -1.5q24 0 56 0.5t65.5 1.5t65 2.5
t54.5 2.5q-25 -59 -25 -67q0 -5 31 -82q-1 0 -8.5 2.5t-15.5 4.5t-15.5 4.5t-8.5 2.5q-20 3 -41 6t-49 5.5t-65.5 4t-91.5 1.5q0 -5 -0.5 -9.5t-0.5 -8.5v-31q-1 -18 -1.5 -36t-0.5 -35v-37q48 0 80.5 0.5t54.5 1.5t36.5 2t26.5 2h22h11t16 0.5t15 0.5h8q-24 -54 -24 -62
t24 -62h-50q-7 0 -13 0.5t-8 0.5t-4 0.5t-4 0.5q-12 1 -24.5 2t-33.5 1.5t-52.5 1t-80.5 0.5v-54q0 -20 0.5 -38t1.5 -38v-41v-21q106 1 177.5 5.5t119.5 12.5l-12 -39q-5 -16 -8 -24.5t-3 -7.5q0 -7 23 -66q-24 1 -57 2.5t-67 2.5t-66.5 1.5t-55.5 0.5q-24 0 -54.5 -0.5
t-62.5 -1.5t-62.5 -2.5t-54.5 -2.5q8 76 11 129.5t3 98.5zM535 488q-31 -39 -60 -75.5t-62 -78.5q14 0 27.5 -0.5t27.5 -0.5q21 -1 33 -0.5t34 -0.5v156z" />
    <glyph glyph-name="Ccedilla" unicode="&#xc7;" horiz-adv-x="777" 
d="M357 -9q-74 13 -135.5 42t-106 73.5t-69.5 103.5t-25 131q0 85 33.5 151.5t94 112.5t144.5 69.5t185 23.5q78 0 156.5 -17t145.5 -42q-26 -35 -33 -52.5t-10 -28.5v-1q0 -2 -1 -4q-2 -5 -6 -15.5t-11 -23.5l-42 -2q-12 10 -31.5 23.5t-45 26t-56.5 21t-66 8.5
q-59 0 -109 -14.5t-87 -45.5t-57.5 -78t-20.5 -112t20.5 -112t57.5 -78t87 -45.5t109 -14.5q36 0 70 9t64 21.5t54.5 27t42.5 25.5l40 -39l-16 -86q-21 -14 -72.5 -32t-118.5 -27q23 -13 36 -34.5t13 -48.5q0 -28 -13.5 -49t-37 -35.5t-54.5 -21.5t-65 -7q-31 0 -62 7
t-56 14q-2 0 -7.5 1.5t-11 2.5t-10 2.5t-5.5 1.5l50 96q6 -2 12.5 -4t14.5 -4l-21 14z" />
    <glyph glyph-name="Egrave" unicode="&#xc8;" horiz-adv-x="491" 
d="M32 419q0 29 -1 64t-2.5 71t-3.5 71t-4 64q42 -2 97 -4t104 -3l-116 60q-10 5 -20.5 11.5t-19.5 15.5t-14.5 21t-5.5 27q0 16 7.5 28.5t18.5 20.5t23.5 12.5t23.5 4.5q19 0 37.5 -8.5t35.5 -21.5q18 -15 42 -34t49 -39l50 -40t46 -37l7.5 -7.5t13.5 -11.5q30 2 58.5 2.5
t50.5 2.5q-9 -32 -13 -47t-4 -19q0 -5 4 -20t13 -47q-5 0 -15 1t-22 1.5t-24 1.5t-19 1q-10 1 -17 1.5t-12 0.5q-4 0 -8 0.5t-9 0.5q-21 1 -37.5 2.5t-36 2.5t-44.5 1.5t-64 0.5q0 -2 -0.5 -4t-0.5 -4v-2q0 -5 -0.5 -9t-0.5 -9q-1 -12 -1.5 -24t-0.5 -25q0 -11 0.5 -22
t0.5 -21v-39q88 2 161.5 6t119.5 8q-5 -26 -8.5 -46.5t-3.5 -21.5q0 -3 3.5 -23.5t8.5 -45.5q-32 3 -72 5.5t-79 4t-74 2.5t-57 1v-93v-41v-25v-16.5t1 -14.5q71 0 151 3t162 16l-8 -45q-2 -11 -3.5 -19.5t-1.5 -7.5q0 -7 5 -32q1 -5 3 -17t3 -17q-25 1 -57 2.5t-65.5 2.5
t-66 1.5t-57.5 0.5q-26 0 -57 -0.5t-64 -1.5t-64.5 -2.5t-56.5 -2.5q2 30 4 65t3.5 71.5t2.5 71.5t1 64v154z" />
    <glyph glyph-name="Eacute" unicode="&#xc9;" horiz-adv-x="491" 
d="M22 419q0 29 -1 64t-2.5 71t-3.5 71t-4 64q20 -1 44 -2t49 -2l207 167q17 14 35.5 22.5t39.5 8.5q11 0 23.5 -4.5t23.5 -12.5t18.5 -20.5t7.5 -28.5q0 -15 -6 -27t-15 -21t-19.5 -15.5t-19.5 -11.5q-11 -6 -22 -11.5t-22 -10.5q-17 -9 -36 -19t-38 -19q25 0 54.5 1
t58.5 2t56.5 2t48.5 2q-9 -32 -13 -47t-4 -19q0 -5 4 -20t13 -47q-5 0 -15 1t-22 1.5t-24 1.5t-19 1q-10 1 -17 1.5t-12 0.5q-4 0 -8 0.5t-9 0.5q-21 1 -37.5 2.5t-36 2.5t-44.5 1.5t-64 0.5q0 -2 -0.5 -4t-0.5 -4v-2q0 -5 -0.5 -9t-0.5 -9q-1 -12 -1.5 -24t-0.5 -25
q0 -11 0.5 -22t0.5 -21v-39q88 2 161.5 6t119.5 8q-5 -26 -8.5 -46.5t-3.5 -21.5q0 -3 3.5 -23.5t8.5 -45.5q-32 3 -72 5.5t-79 4t-74 2.5t-57 1v-93v-41v-25v-16.5t1 -14.5q71 0 151 3t162 16l-8 -45q-2 -11 -3.5 -19.5t-1.5 -7.5q0 -7 5 -32q1 -5 3 -17t3 -17
q-25 1 -57 2.5t-65.5 2.5t-66 1.5t-57.5 0.5q-26 0 -57 -0.5t-64 -1.5t-64.5 -2.5t-56.5 -2.5q2 30 4 65t3.5 71.5t2.5 71.5t1 64v154z" />
    <glyph glyph-name="Ecircumflex" unicode="&#xca;" horiz-adv-x="498" 
d="M31 419q0 24 -1 53.5t-2.5 60.5l-3 62t-3.5 59h-25l24 26v9q1 0 3 -0.5t4 -0.5l174 189h109l175 -189h11t12 1q-2 -6 -3.5 -11t-2.5 -9l14 -15h-19q-4 -14 -5 -21.5t-1 -9.5q0 -5 3.5 -20t13.5 -47q-5 0 -15.5 1t-22.5 1.5t-24 1.5t-19 1q-9 1 -16 1.5t-12 0.5t-9 0.5
t-8 0.5q-21 1 -37.5 2.5t-36 2.5t-45 1.5t-64.5 0.5q0 -2 -0.5 -4t-0.5 -4v-2q0 -5 -0.5 -9t-0.5 -9q-1 -12 -1.5 -24t-0.5 -25q0 -11 0.5 -22t0.5 -21v-39q88 2 162 6t119 8q-5 -26 -8.5 -46.5t-3.5 -21.5q0 -3 3.5 -23.5t8.5 -45.5q-32 3 -71.5 5.5t-78.5 4t-74 2.5t-58 1
v-93v-41v-25t0.5 -16.5t0.5 -14.5q71 0 151.5 3t162.5 16l-8 -45q-2 -11 -4 -19.5t-2 -7.5q0 -3 1.5 -12t4.5 -20q1 -5 3 -17t3 -17q-25 1 -57 2.5t-65.5 2.5t-66 1.5t-57.5 0.5q-26 0 -57 -0.5t-64 -1.5t-64.5 -2.5t-56.5 -2.5q1 30 3 65t4 71.5t3 71.5t1 64v154zM258 682
h37t43 1l-82 57l-54 -37l-28 -20q23 -1 44 -1h40z" />
    <glyph glyph-name="Edieresis" unicode="&#xcb;" horiz-adv-x="497" 
d="M273 761q0 34 27 58t66 24q19 0 36 -6.5t30 -17.5t20.5 -26t7.5 -32q0 -26 -16 -46.5t-42 -29.5q30 1 57.5 1.5t48.5 2.5q-9 -32 -13 -47t-4 -19q0 -5 4 -20t13 -47q-5 0 -15 1t-22 1.5t-24 1.5t-19 1q-10 1 -17 1.5t-12 0.5q-4 0 -8 0.5t-9 0.5q-21 1 -37.5 2.5t-36 2.5
t-44.5 1.5t-64 0.5q0 -2 -0.5 -4t-0.5 -4v-2q0 -5 -0.5 -9t-0.5 -9q-1 -12 -1.5 -24t-0.5 -25q0 -11 0.5 -22t0.5 -21v-39q88 2 161.5 6t119.5 8q-5 -26 -8.5 -46.5t-3.5 -21.5q0 -3 3.5 -23.5t8.5 -45.5q-32 3 -72 5.5t-79 4t-74 2.5t-57 1v-93v-41v-25v-16.5t1 -14.5
q71 0 151 3t162 16l-8 -45q-2 -11 -3.5 -19.5t-1.5 -7.5q0 -7 5 -32q1 -5 3 -17t3 -17q-25 1 -57 2.5t-65.5 2.5t-66 1.5t-57.5 0.5q-26 0 -57 -0.5t-64 -1.5t-64.5 -2.5t-56.5 -2.5q2 30 4 65t3.5 71.5t2.5 71.5t1 64v154q0 29 -1 64t-2.5 71t-3.5 71t-4 64q20 -1 42 -2
t46 -2q-25 9 -40.5 29.5t-15.5 46.5q0 17 7.5 32t20.5 26t30 17.5t36 6.5q39 0 66.5 -24t27.5 -58q0 -27 -17.5 -48.5t-44.5 -29.5q22 -1 42.5 -1h37.5h36.5t40.5 1q-28 8 -45 29.5t-17 48.5z" />
    <glyph glyph-name="Igrave" unicode="&#xcc;" horiz-adv-x="310" 
d="M117 418q0 29 -1.5 64.5t-3 73t-4 73t-3.5 64.5q14 -2 27.5 -3.5t24.5 -3.5l-108 56q-10 5 -21 11.5t-20 15.5t-14.5 21t-5.5 27q0 16 7.5 28.5t18.5 20.5t23.5 12.5t23.5 4.5q20 0 39 -8.5t36 -22.5l-1 1q7 -5 15 -12t17 -14q21 -17 50.5 -40.5t60 -48.5t58 -47.5
t44.5 -36.5h-89q-2 -29 -3.5 -60t-3 -62.5t-2.5 -60.5t-1 -53v-154q0 -29 1.5 -64.5t3.5 -73t4 -73t4 -64.5q-35 5 -59.5 8t-35.5 3t-35 -3t-59 -8q1 29 3.5 64.5t4 73t3 73t1.5 64.5v154z" />
    <glyph glyph-name="Iacute" unicode="&#xcd;" horiz-adv-x="310" 
d="M174 852q16 12 35.5 21.5t39.5 9.5q10 0 23 -4.5t24 -12.5t18.5 -20.5t7.5 -28.5q0 -15 -6 -26.5t-15 -20.5t-19.5 -16t-20.5 -12q-5 -3 -13.5 -7.5t-18 -9t-18 -9t-13.5 -7.5q-11 -5 -22.5 -11.5t-24.5 -11.5q12 2 25 3.5t28 3.5q-2 -29 -4 -64.5t-3.5 -73t-3 -73
t-1.5 -64.5v-154q0 -29 1.5 -64.5t3 -73t3.5 -73t4 -64.5q-35 5 -59 8t-35 3t-35.5 -3t-59.5 -8q2 29 4 64.5t4 73t3.5 73t1.5 64.5v154q0 24 -1 53t-2.5 60.5t-3 62.5t-3.5 60h-89z" />
    <glyph glyph-name="Icircumflex" unicode="&#xce;" horiz-adv-x="413" 
d="M299 674q-2 -29 -4 -62.5t-3.5 -67.5t-2.5 -66.5t-1 -59.5v-154q0 -29 1.5 -64.5t3.5 -73t4 -73t4 -64.5q-35 5 -59.5 8t-35.5 3t-35.5 -3t-59.5 -8q2 29 4 64.5t4 73t3.5 73t1.5 64.5v154q0 27 -1 59.5t-3 66.5t-4 67.5t-4 62.5q-7 -5 -14.5 -10t-13.5 -10h-138l207 223
h107l207 -223h-137zM206 682q9 0 27.5 2t44.5 6l-71 50q-8 -6 -15 -11t-15 -10v1q-11 -8 -21.5 -15t-21.5 -15q26 -4 44.5 -6t27.5 -2z" />
    <glyph glyph-name="Idieresis" unicode="&#xcf;" horiz-adv-x="392" 
d="M212 761q0 17 7.5 32t20.5 26t30 17.5t36 6.5q39 0 66 -24t27 -58q0 -35 -27 -59t-66 -24h-9t-8 1q-2 -29 -4 -63t-4 -69t-3 -68.5t-1 -60.5v-154q0 -29 1.5 -64.5t3.5 -73t4 -73t4 -64.5q-35 5 -59.5 8t-35.5 3t-35.5 -3t-59.5 -8q2 29 4 64.5t4 73t3.5 73t1.5 64.5v154
q0 27 -1 60.5t-3 68.5t-4 69t-4 63q-4 -1 -8 -1h-8q-39 0 -66 24t-27 59q0 34 27 58t66 24q19 0 36 -6.5t30 -17.5t20.5 -26t7.5 -32q0 -24 -13.5 -42.5t-34.5 -29.5q23 -4 39.5 -5.5t24.5 -1.5t24.5 2t39.5 5q-21 11 -34 29.5t-13 42.5z" />
    <glyph glyph-name="Eth" unicode="&#xd0;" horiz-adv-x="960" 
d="M31 437q26 -2 57.5 -3t57.5 -1q0 28 -1.5 61.5t-3.5 67.5t-4 67t-3 60q21 -1 48.5 -2.5t56 -2.5t56 -1.5t48.5 -0.5q20 0 40.5 0.5t41.5 1.5q7 0 14 0.5t14 0.5q13 1 29.5 1.5t29.5 0.5q107 0 184 -23t126 -66t72 -105t23 -139q0 -67 -19.5 -119.5t-52.5 -92.5t-77 -68
t-93.5 -45.5t-101.5 -25.5t-100 -8q-19 0 -38.5 0.5t-38.5 1.5q-5 0 -12.5 0.5t-12.5 0.5q-12 1 -23 1.5t-24 0.5q-19 0 -44 -0.5t-51 -1.5t-51 -2.5t-44 -2.5q2 29 4 64.5t4 71.5t3 71t1 64v62q-27 0 -60.5 -1t-54.5 -2q1 6 3 23t3 23q1 5 1 7v4v3.5t-1 6.5q0 2 -1 8.5
t-2 14t-2 14.5t-1 10zM311 264v-42.5t0.5 -36.5t1.5 -36.5t3 -41.5q24 -3 53 -4t59 -1q54 0 109 10.5t98.5 38t71 76.5t27.5 127q0 67 -21 109.5t-58.5 67.5t-89 34.5t-112.5 9.5q-43 0 -74.5 -2t-63.5 -4q-2 -32 -3 -66.5t-1 -69.5q27 0 59 0.5l64 1t61.5 1.5t50.5 2
q-14 -32 -19 -44t-5 -14t5.5 -15t17.5 -43q-26 1 -55.5 1.5t-60.5 1t-61 1t-57 0.5v-62z" />
    <glyph glyph-name="Ntilde" unicode="&#xd1;" horiz-adv-x="810" 
d="M691 -16q-112 106 -241.5 220t-257.5 223q-5 4 -6 5l-1 1l-1 1l-6 6q-1 -21 -1 -47.5v-58.5q0 -29 1 -78t3.5 -101.5t5.5 -99t7 -70.5q-34 7 -56 11t-27 4q-6 0 -30 -4t-59 -10q4 23 10 77.5t11.5 120t9 130t3.5 108.5q0 42 -0.5 84.5t-1.5 80t-2 67t-2 44.5h70l48 -42
q65 -56 128.5 -111.5t123.5 -106.5t115 -97.5t102 -84.5q0 56 -1 115t-2.5 116t-4.5 110.5t-6 98.5q32 -6 53 -10t27 -4q4 0 25 4t54 11q-4 -28 -8 -76.5t-7.5 -100.5t-6 -98.5t-2.5 -71.5v-56t0.5 -70t0.5 -75.5t0.5 -71.5t1 -58t0.5 -35h-70zM192 676q6 28 19 57.5
t33.5 53.5t48 39.5t62.5 15.5q12 0 22.5 -1t21 -3.5t22.5 -7l28 -10.5q27 -10 39.5 -14.5t22.5 -4.5q11 0 20.5 14t16.5 31h102q-3 -19 -13.5 -48t-30 -56t-49.5 -46.5t-73 -19.5q-19 0 -41.5 5.5t-53.5 19.5q-24 10 -36 13.5t-22 3.5q-11 0 -18.5 -9t-17.5 -33h-103z" />
    <glyph glyph-name="Ograve" unicode="&#xd2;" horiz-adv-x="981" 
d="M36 341q0 79 28.5 141.5t80.5 107.5t125 71.5t161 33.5q-23 12 -45 23.5t-44 23.5q-10 5 -21 11.5t-20 15.5t-14.5 21t-5.5 27q0 16 7.5 28.5t18.5 20.5t23.5 12.5t23.5 4.5q19 0 38 -8.5t36 -21.5q7 -5 15 -12t17 -14q16 -13 38 -31t46 -37.5t48.5 -39.5t44.5 -36
q70 -15 128 -44.5t98.5 -73t63 -100t22.5 -124.5q0 -85 -33.5 -151.5t-94 -112t-144.5 -69.5t-185 -24t-184.5 24t-144 69.5t-94 112t-33.5 151.5zM764 341q0 65 -20.5 112t-57 78t-86.5 45.5t-108 14.5t-107.5 -14.5t-86 -45.5t-57 -78t-20.5 -112t20.5 -112t57 -78
t86 -45.5t107.5 -14.5t108 14.5t86.5 45.5t57 78t20.5 112z" />
    <glyph glyph-name="Oacute" unicode="&#xd3;" horiz-adv-x="981" 
d="M32 341q0 69 22 125.5t63 100t98.5 73t128.5 44.5l208 168q16 12 36 21.5t39 9.5q10 0 23 -4.5t24 -12.5t18.5 -20.5t7.5 -28.5q0 -15 -5.5 -27t-14.5 -21t-20 -15.5t-21 -11.5l1 1q-3 -2 -7 -4.5t-8 -4.5l-37 -18.5t-39 -20.5q88 -7 161 -33.5t125.5 -71.5t81 -107.5
t28.5 -141.5q0 -85 -33.5 -151.5t-94 -112t-144.5 -69.5t-185 -24t-184.5 24t-144 69.5t-94 112t-33.5 151.5zM760 341q0 65 -20.5 112t-57 78t-86.5 45.5t-108 14.5t-107.5 -14.5t-86 -45.5t-57 -78t-20.5 -112t20.5 -112t57 -78t86 -45.5t107.5 -14.5t108 14.5t86.5 45.5
t57 78t20.5 112z" />
    <glyph glyph-name="Ocircumflex" unicode="&#xd4;" horiz-adv-x="985" 
d="M36 341q0 112 56.5 191.5t156.5 121.5h-17l207 223h107l207 -223h-18q100 -42 157 -121.5t57 -191.5q0 -85 -33.5 -151.5t-94 -112t-144.5 -69.5t-185 -24t-184.5 24t-144 69.5t-94 112t-33.5 151.5zM764 341q0 65 -20.5 112t-57 78t-86.5 45.5t-108 14.5t-107.5 -14.5
t-86 -45.5t-57 -78t-20.5 -112t20.5 -112t57 -78t86 -45.5t107.5 -14.5t108 14.5t86.5 45.5t57 78t20.5 112zM492 698q34 0 64 -3l-63 45q-8 -6 -15 -11t-15 -10v1l-18 -12t-17 -13q30 3 64 3z" />
    <glyph glyph-name="Otilde" unicode="&#xd5;" horiz-adv-x="985" 
d="M36 341q0 65 19.5 119t56 96t88 72.5t115.5 47.5h-53q6 28 19 57.5t33.5 53.5t48 39.5t62.5 15.5q12 0 22 -1t20.5 -3.5t22.5 -6.5t29 -11q28 -11 40.5 -15t21.5 -4q11 0 21 14t18 31h102q-3 -15 -10.5 -37.5t-20 -45t-32 -43t-46.5 -32.5q76 -13 138 -41.5t106 -72.5
t68 -102.5t24 -130.5q0 -85 -33.5 -151.5t-94 -112t-144.5 -69.5t-185 -24t-184.5 24t-144 69.5t-94 112t-33.5 151.5zM764 341q0 65 -20.5 112t-57 78t-86.5 45.5t-108 14.5t-107.5 -14.5t-86 -45.5t-57 -78t-20.5 -112t20.5 -112t57 -78t86 -45.5t107.5 -14.5t108 14.5
t86.5 45.5t57 78t20.5 112zM371 689q23 3 47 5t49 3q-2 1 -3.5 2t-3.5 2v-1q-26 11 -38 14.5t-21 3.5q-16 0 -30 -29z" />
    <glyph glyph-name="Odieresis" unicode="&#xd6;" horiz-adv-x="985" 
d="M509 761q0 17 7.5 32t20.5 26t30 17.5t36 6.5q39 0 66 -24t27 -58q0 -26 -16.5 -47t-42.5 -30q71 -15 128.5 -44.5t98.5 -73t63 -100t22 -125.5q0 -85 -33.5 -151.5t-94 -112t-144.5 -69.5t-185 -24t-184.5 24t-144 69.5t-94 112t-33.5 151.5q0 69 22 125.5t63 100t98 73
t128 44.5q-26 9 -42 30t-16 47q0 34 27 58t66 24q19 0 36 -6.5t30 -17.5t20.5 -26t7.5 -32q0 -20 -9.5 -37t-26.5 -28q13 1 25.5 1.5t26.5 0.5t27 -0.5t26 -1.5q-17 11 -26.5 28t-9.5 37zM764 341q0 65 -20.5 112t-57 78t-86.5 45.5t-108 14.5t-107.5 -14.5t-86 -45.5
t-57 -78t-20.5 -112t20.5 -112t57 -78t86 -45.5t107.5 -14.5t108 14.5t86.5 45.5t57 78t20.5 112z" />
    <glyph glyph-name="multiply" unicode="&#xd7;" horiz-adv-x="628" 
d="M213 263q-17 14 -35.5 28.5t-35.5 28.5q-15 12 -33 26.5t-36 29.5t-35 28.5t-30 24.5l102 80l205 -165q20 16 40.5 32.5t41.5 33.5h-1q29 23 64 50.5t61 47.5l100 -79l-205 -166q25 -20 51.5 -41.5t52.5 -42.5q11 -9 24.5 -20l27 -22t26.5 -21.5t22 -17.5l-100 -80
l-206 165l-34 -28t-36 -29q-32 -26 -69 -55t-66 -52l-101 79z" />
    <glyph glyph-name="Oslash" unicode="&#xd8;" horiz-adv-x="997" 
d="M42 341q0 85 33.5 151.5t94 112.5t144 69.5t184.5 23.5q75 0 142.5 -14.5t121.5 -40.5q11 12 26 27t29 30t26.5 29t18.5 23q16 -20 48 -41.5t66 -36.5q-42 -23 -74.5 -46.5t-54.5 -41.5q48 -46 78 -108.5t30 -136.5q0 -85 -33.5 -151.5t-94 -112t-144.5 -69.5t-185 -24
q-75 0 -140 13.5t-119 40.5q-23 -22 -53 -52t-53 -59q-18 23 -46.5 41t-61.5 32q14 10 31 22t33.5 24.5t32 25t27.5 23.5q-51 45 -79 106.5t-28 139.5zM662 554q-67 37 -164 37q-58 0 -107.5 -14.5t-86 -45.5t-57 -78t-20.5 -112q0 -43 9.5 -80t26.5 -64zM337 127
q34 -19 74.5 -27.5t86.5 -8.5q58 0 108 14.5t86.5 45.5t57.5 78t21 112q0 44 -9.5 79.5t-26.5 63.5z" />
    <glyph glyph-name="Ugrave" unicode="&#xd9;" horiz-adv-x="791" 
d="M621 359q0 61 -0.5 109t-2 87.5t-5 73.5t-10.5 68q35 -7 60 -11t33 -4t28 4t49 11q-5 -42 -9 -94.5t-8 -109t-6.5 -112t-3.5 -103.5q-1 -68 -24.5 -122t-68.5 -92.5t-111 -59t-150 -20.5q-186 0 -272 71.5t-86 220.5q0 23 1 43.5t3 39.5q3 30 3 59q0 37 -1 77.5t-2.5 78
t-3.5 69t-3 51.5q35 -5 62 -8.5t35 -3.5q10 0 34.5 4t57.5 11q-4 -30 -7.5 -71.5t-6.5 -88.5t-4.5 -97t-1.5 -98q0 -26 1 -54.5t7 -55.5t18.5 -51t36 -42.5t60 -29t89.5 -10.5q52 0 88 12.5t59 33t35.5 47.5t18.5 56t7 57.5t1 53.5zM250 742q-10 5 -21 11.5t-20 15.5
t-14.5 21t-5.5 27q0 16 7.5 28.5t18.5 20.5t23.5 12.5t23.5 4.5q20 0 39 -8.5t36 -22.5l-1 1q7 -5 15 -12t17 -14q21 -17 50.5 -40.5t60 -48.5t58 -47.5t44.5 -36.5h-160z" />
    <glyph glyph-name="Uacute" unicode="&#xda;" horiz-adv-x="790" 
d="M614 359q0 61 -0.5 109t-2 87.5t-5 73.5t-10.5 68q35 -7 60 -11t33 -4t28 4t49 11q-5 -42 -9 -94.5t-8 -109t-6.5 -112t-3.5 -103.5q-1 -68 -24.5 -122t-68.5 -92.5t-111 -59t-150 -20.5q-186 0 -272 71.5t-86 220.5q0 23 1 43.5t3 39.5q3 30 3 59q0 37 -1 77.5t-2.5 78
t-3.5 69t-3 51.5q35 -5 62 -8.5t35 -3.5q10 0 34.5 4t57.5 11q-4 -30 -7.5 -71.5t-6.5 -88.5t-4.5 -97t-1.5 -98q0 -26 1 -54.5t7 -55.5t18.5 -51t36 -42.5t60 -29t89.5 -10.5q52 0 88 12.5t59 33t35.5 47.5t18.5 56t7 57.5t1 53.5zM457 852q16 12 36 21.5t39 9.5
q11 0 23.5 -4.5t23.5 -12.5t18.5 -20.5t7.5 -28.5q0 -15 -6 -26.5t-15 -20.5t-19.5 -16t-20.5 -12q-5 -3 -13.5 -7.5t-18 -9t-18 -9t-13.5 -7.5q-26 -14 -54 -27.5t-53 -27.5h-162z" />
    <glyph glyph-name="Ucircumflex" unicode="&#xdb;" horiz-adv-x="795" 
d="M127 682q5 0 16 1.5t27 3.5l176 190h107l170 -185q26 -5 45.5 -7.5t26.5 -2.5q8 0 28 4t49 11q-5 -42 -9 -94.5t-8 -109t-6.5 -112t-3.5 -103.5q-1 -68 -24.5 -122t-68.5 -92.5t-111 -59t-150 -20.5q-186 0 -272 71.5t-86 220.5q0 23 1 43.5t3 39.5q3 30 3 59
q0 37 -1 77.5t-2.5 78t-3.5 69t-3 51.5q35 -5 62 -8.5t35 -3.5zM400 740q-8 -6 -15 -11t-15 -10v1q-23 -16 -47.5 -33.5l-45.5 -32.5h-63q-3 -32 -6 -69.5t-5 -78t-3 -82.5t-1 -82q0 -26 1 -54.5t7 -55.5t18.5 -51t36 -42.5t60 -29t89.5 -10.5q52 0 88 12.5t59 33t35.5 47.5
t18.5 56t7 57.5t1 53.5v93.5t-1 77t-3.5 65.5t-6.5 59h-86z" />
    <glyph glyph-name="Udieresis" unicode="&#xdc;" horiz-adv-x="796" 
d="M620 359q0 61 -0.5 109t-2 87.5t-5 73.5t-10.5 68q35 -7 60 -11t33 -4t28 4t49 11q-5 -42 -9 -94.5t-8 -109t-6.5 -112t-3.5 -103.5q-1 -68 -24.5 -122t-68.5 -92.5t-111 -59t-150 -20.5q-186 0 -272 71.5t-86 220.5q0 23 1 43.5t3 39.5q3 30 3 59q0 37 -1 77.5t-2.5 78
t-3.5 69t-3 51.5q35 -5 62 -8.5t35 -3.5q10 0 34.5 4t57.5 11q-4 -30 -7.5 -71.5t-6.5 -88.5t-4.5 -97t-1.5 -98q0 -26 1 -54.5t7 -55.5t18.5 -51t36 -42.5t60 -29t89.5 -10.5q52 0 88 12.5t59 33t35.5 47.5t18.5 56t7 57.5t1 53.5zM196 761q0 34 27 58t66 24q19 0 36 -6.5
t30 -17.5t20.5 -26t7.5 -32t-7.5 -32.5t-20.5 -26.5t-30 -17.5t-36 -6.5q-39 0 -66 24t-27 59zM416 761q0 17 7.5 32t20.5 26t30 17.5t36 6.5q39 0 66 -24t27 -58q0 -35 -27 -59t-66 -24q-19 0 -36 6.5t-30 17.5t-20.5 26.5t-7.5 32.5z" />
    <glyph glyph-name="Yacute" unicode="&#xdd;" horiz-adv-x="724" 
d="M267 13q8 64 10 129.5t2 131.5q-16 21 -42.5 57t-59 78.5t-67 88t-65.5 85.5t-55 71t-35 44q3 0 13.5 -1.5t22.5 -2.5t22 -2.5t13 -1.5q29 -4 49 -6t31 -2q8 0 29 2.5t50 6.5q5 -8 9 -14t8 -14l222 180q16 13 36 22t39 9q11 0 23.5 -4.5t23.5 -13t18.5 -20.5t7.5 -28
q0 -15 -6 -26.5t-15 -21t-19.5 -16.5t-19.5 -11q-20 -10 -42.5 -21.5t-42.5 -21.5q-20 -11 -43.5 -23.5t-43.5 -21.5h-126q20 -31 39 -60t39 -59t41.5 -60.5t45.5 -64.5q24 32 49.5 67.5t50 73t48.5 75.5t45 74q20 -4 36.5 -6.5t25.5 -2.5q8 0 45.5 6t91.5 17
q-67 -82 -120 -147.5t-93 -117t-68.5 -89.5t-46.5 -66q0 -33 1 -72t3 -79t5 -78t6 -68q-38 5 -64.5 8.5t-32.5 3.5q-9 0 -28 -2.5t-45 -6.5z" />
    <glyph glyph-name="Thorn" unicode="&#xde;" horiz-adv-x="582" 
d="M42 418q0 48 -2.5 104.5t-4.5 109.5q0 6 -0.5 14.5t-1.5 17.5t-1.5 17t-0.5 12q35 -5 59 -8t35 -3q12 0 37.5 3t59.5 8q-2 -17 -3 -34t-3 -22q-1 -11 -2.5 -19t-2.5 -15t-2 -15t-1 -19h101q64 0 115.5 -11t87.5 -34.5t55.5 -60t19.5 -87.5q0 -60 -27.5 -99.5t-72 -63
t-100 -33t-112.5 -9.5q-15 0 -23 -0.5t-14 -0.5h-12t-18 1v-10q0 -37 5 -82t20 -91q-40 5 -69.5 8.5t-38.5 3.5q-11 0 -35 -3t-59 -8q0 4 0.5 12.5t1.5 17.5t1.5 17.5t0.5 13.5q2 52 4.5 109t2.5 105v154zM208 278h50q29 0 56.5 5.5t49 17.5t34.5 30.5t13 44.5
q0 15 -7.5 30.5t-24 28t-43.5 20.5t-66 8h-62v-185z" />
    <glyph glyph-name="germandbls" unicode="&#xdf;" horiz-adv-x="620" 
d="M40 400q0 23 -0.5 41t-1.5 32q0 3 -0.5 5.5t-0.5 4.5q-1 6 -1 14v11q0 65 25 111t63.5 75t85 42t90.5 13q31 0 66 -10t64.5 -28t49 -43.5t19.5 -56.5q0 -23 -8.5 -44t-22 -40t-29.5 -35.5t-31 -30.5l-4 -4q-14 -13 -25 -24t-11 -16q0 -10 23.5 -23.5t55.5 -30.5
q27 -15 55.5 -30.5t51 -35.5t37 -46t14.5 -60q0 -36 -21 -72t-56.5 -65.5t-81.5 -48t-97 -18.5q-35 0 -71.5 8.5t-71.5 22.5q1 -8 2 -15t2 -15q-32 5 -57 8.5t-36 3.5q-10 0 -35 -3.5t-57 -8.5q4 36 6.5 76.5t4.5 81t3 77.5t1 67v110zM195 290q0 -45 2 -104.5t6 -119.5
q8 17 13.5 35t7.5 32h58q11 -15 37.5 -27t52.5 -12q32 0 57.5 15t25.5 42q0 13 -9 25.5t-23.5 23.5t-33 21.5t-37.5 20.5q-26 13 -49.5 27.5t-42.5 31t-30 37.5t-11 48q0 36 23.5 63.5t54.5 54.5q26 22 48.5 46.5t22.5 50.5q0 20 -19.5 33t-54.5 13q-56 0 -77.5 -38
t-21.5 -109v-210v0z" />
    <glyph glyph-name="agrave" unicode="&#xe0;" horiz-adv-x="569" 
d="M68 437q67 40 117.5 54.5t98.5 14.5q4 0 7.5 -0.5t8.5 -0.5l-162 83q-10 5 -20.5 12t-19.5 16.5t-15 21t-6 25.5q0 16 7.5 28t18.5 20.5t24 12.5t24 4q20 0 38 -8t35 -20l248 -200h-126q72 -14 114.5 -57t42.5 -106q0 -24 -0.5 -49.5t-1.5 -51.5q0 -10 -0.5 -26t-0.5 -26
q-1 -14 -1 -28v-28q0 -10 1 -20t6 -10q1 0 3.5 0.5t8.5 2.5t17.5 7t30.5 14v-103q-23 -8 -52.5 -15.5t-55.5 -7.5q-30 0 -52.5 10.5t-37.5 26.5q-19 -13 -36.5 -22t-36.5 -14t-41 -7.5t-50 -2.5q-35 0 -68 10.5t-59 29.5t-42 46t-16 60q0 72 50.5 110t138.5 50q49 6 77 9.5
t41 6.5t16 5t3 5q0 30 -19.5 52.5t-67.5 22.5q-35 0 -68 -15.5t-52 -44.5h-70v103zM344 213l-12 -2t-14 -3q-23 -3 -46.5 -7.5t-42.5 -11t-31.5 -17t-12.5 -26.5q0 -24 18 -36.5t42 -12.5q29 0 53.5 11.5t41.5 28.5z" />
    <glyph glyph-name="aacute" unicode="&#xe1;" horiz-adv-x="565" 
d="M338 699v-1q15 14 34.5 22t39.5 8q11 0 24 -4t24 -12.5t18.5 -20.5t7.5 -28q0 -14 -6 -26t-15 -21t-19.5 -16t-19.5 -12q-24 -13 -50 -25.5t-51 -25.5q-14 -7 -29.5 -15t-30.5 -16h4q49 0 89 -12t69 -34.5t45 -53.5t16 -69q0 -24 -0.5 -49.5t-1.5 -51.5q0 -10 -0.5 -26
t-0.5 -26q-1 -14 -1 -28v-28q0 -10 1 -20t6 -10q1 0 3.5 0.5t8.5 2.5t17.5 7t30.5 14v-103q-23 -8 -52.5 -15.5t-55.5 -7.5q-30 0 -52.5 10.5t-37.5 26.5q-19 -13 -36.5 -22t-36.5 -14t-41 -7.5t-50 -2.5q-35 0 -68 10.5t-59 29.5t-42 46t-16 60q0 72 50.5 110t138.5 50
q49 6 77 9.5t41 6.5t16 5t3 5q0 30 -19.5 52.5t-67.5 22.5q-35 0 -68 -15.5t-52 -44.5h-70v103q45 27 82.5 42t70.5 21h-113zM329 213l-12 -2t-14 -3q-23 -3 -46.5 -7.5t-42.5 -11t-31.5 -17t-12.5 -26.5q0 -24 18 -36.5t42 -12.5q29 0 53.5 11.5t41.5 28.5z" />
    <glyph glyph-name="acircumflex" unicode="&#xe2;" horiz-adv-x="571" 
d="M63 437q67 40 117.5 54.5t98.5 14.5q49 0 89 -12t69 -34.5t45 -53.5t16 -69q0 -24 -0.5 -49.5t-1.5 -51.5q0 -10 -0.5 -26t-0.5 -26q-1 -14 -1 -28v-28q0 -10 1 -20t6 -10q1 0 3.5 0.5t8.5 2.5t17.5 7t30.5 14v-103q-23 -8 -52.5 -15.5t-55.5 -7.5q-30 0 -52.5 10.5
t-37.5 26.5q-19 -13 -36.5 -22t-36.5 -14t-41 -7.5t-50 -2.5q-35 0 -68 10.5t-59 29.5t-42 46t-16 60q0 72 50.5 110t138.5 50q49 6 77 9.5t41 6.5t16 5t3 5q0 30 -19.5 52.5t-67.5 22.5q-35 0 -68 -15.5t-52 -44.5h-70v103zM284 587q-19 -14 -38.5 -27.5t-39.5 -27.5h1
q-11 -8 -24 -16.5t-23 -15.5h-137l207 224h108l206 -224h-136zM339 213l-12 -2t-14 -3q-23 -3 -46.5 -7.5t-42.5 -11t-31.5 -17t-12.5 -26.5q0 -24 18 -36.5t42 -12.5q29 0 53.5 11.5t41.5 28.5z" />
    <glyph glyph-name="atilde" unicode="&#xe3;" horiz-adv-x="578" 
d="M66 437q67 40 117.5 54.5t98.5 14.5q49 0 89 -12t69 -34.5t45 -53.5t16 -69q0 -24 -0.5 -49.5t-1.5 -51.5q0 -10 -0.5 -26t-0.5 -26q-1 -14 -1 -28v-28q0 -10 1 -20t6 -10q1 0 3.5 0.5t8.5 2.5t17.5 7t30.5 14v-103q-23 -8 -52.5 -15.5t-55.5 -7.5q-30 0 -52.5 10.5
t-37.5 26.5q-19 -13 -36.5 -22t-36.5 -14t-41 -7.5t-50 -2.5q-35 0 -68 10.5t-59 29.5t-42 46t-16 60q0 72 50.5 110t138.5 50q49 6 77 9.5t41 6.5t16 5t3 5q0 30 -19.5 52.5t-67.5 22.5q-35 0 -68 -15.5t-52 -44.5h-70v103zM57 522q6 28 18.5 58t32.5 54t47.5 39.5
t63.5 15.5q24 0 44 -5.5t51 -17.5q24 -9 38.5 -14t22.5 -5q11 0 21 13.5t18 30.5h102q-3 -19 -13.5 -47.5t-30 -55.5t-50 -46.5t-73.5 -19.5q-20 0 -42 6t-53 19v-1q-26 11 -37.5 14.5t-20.5 3.5q-11 0 -17.5 -9t-17.5 -33h-104zM342 213l-12 -2t-14 -3q-23 -3 -46.5 -7.5
t-42.5 -11t-31.5 -17t-12.5 -26.5q0 -24 18 -36.5t42 -12.5q29 0 53.5 11.5t41.5 28.5z" />
    <glyph glyph-name="adieresis" unicode="&#xe4;" horiz-adv-x="577" 
d="M66 437q67 40 117.5 54.5t98.5 14.5q49 0 89 -12t69 -34.5t45 -53.5t16 -69q0 -24 -0.5 -49.5t-1.5 -51.5q0 -10 -0.5 -26t-0.5 -26q-1 -14 -1 -28v-28q0 -10 1 -20t6 -10q1 0 3.5 0.5t8.5 2.5t17.5 7t30.5 14v-103q-23 -8 -52.5 -15.5t-55.5 -7.5q-30 0 -52.5 10.5
t-37.5 26.5q-19 -13 -36.5 -22t-36.5 -14t-41 -7.5t-50 -2.5q-35 0 -68 10.5t-59 29.5t-42 46t-16 60q0 72 50.5 110t138.5 50q49 6 77 9.5t41 6.5t16 5t3 5q0 30 -19.5 52.5t-67.5 22.5q-35 0 -68 -15.5t-52 -44.5h-70v103zM303 606q0 17 7.5 32.5t20.5 27t30 18t37 6.5
q19 0 36 -6.5t29.5 -18t20 -27t7.5 -32.5t-7.5 -31.5t-20 -26t-29.5 -18t-36 -6.5q-20 0 -37 6.5t-30 18t-20.5 26t-7.5 31.5zM83 606q0 17 7.5 32.5t20 27t29.5 18t37 6.5q19 0 36 -6.5t30 -18t20 -27t7 -32.5q0 -33 -27 -57.5t-66 -24.5q-20 0 -37 6.5t-29.5 18t-20 26
t-7.5 31.5zM342 213l-12 -2t-14 -3q-23 -3 -46.5 -7.5t-42.5 -11t-31.5 -17t-12.5 -26.5q0 -24 18 -36.5t42 -12.5q29 0 53.5 11.5t41.5 28.5z" />
    <glyph glyph-name="aring" unicode="&#xe5;" horiz-adv-x="571" 
d="M133 614q0 26 12 49.5t32.5 41t48 27.5t58.5 10t58.5 -10t48.5 -27.5t33 -41t12 -49.5q0 -38 -24.5 -69t-63.5 -46q69 -15 109.5 -58t40.5 -104q0 -24 -0.5 -49.5t-1.5 -51.5q0 -10 -0.5 -26t-0.5 -26q-1 -14 -1 -28v-28q0 -10 1 -20t6 -10q1 0 3.5 0.5t8.5 2.5t17.5 7
t30.5 14v-103q-23 -8 -52.5 -15.5t-55.5 -7.5q-30 0 -52.5 10.5t-37.5 26.5q-19 -13 -36.5 -22t-36.5 -14t-41 -7.5t-50 -2.5q-35 0 -68 10.5t-59 29.5t-42 46t-16 60q0 72 50.5 110t138.5 50q49 6 77 9.5t41 6.5t16 5t3 5q0 30 -19.5 52.5t-67.5 22.5q-35 0 -68 -15.5
t-52 -44.5h-70v103q45 27 82 42t70 21q-36 16 -59 46.5t-23 67.5zM339 213l-12 -2t-14 -3q-23 -3 -46.5 -7.5t-42.5 -11t-31.5 -17t-12.5 -26.5q0 -24 18 -36.5t42 -12.5q29 0 53.5 11.5t41.5 28.5zM253 614q0 -8 9 -12.5t21 -4.5q14 0 22.5 4.5t8.5 12.5q0 7 -8.5 12
t-21.5 5t-22 -5t-9 -12z" />
    <glyph glyph-name="ae" unicode="&#xe6;" horiz-adv-x="962" 
d="M94 437q34 20 63 33.5t55 21.5t50.5 11t48.5 3q36 0 81 -10.5t87 -44.5q34 27 75.5 41t93.5 14q69 0 119.5 -17.5t83.5 -47.5t49.5 -69.5t16.5 -84.5q0 -4 -0.5 -13t-1.5 -19.5t-1.5 -21.5t-1.5 -18h-66q-14 0 -26.5 0.5t-22.5 0.5q-40 1 -79.5 1.5t-79.5 0.5
q-25 0 -49 -0.5t-48 -1.5q-5 0 -8.5 -0.5t-5.5 -0.5q5 -51 45 -84.5t112 -33.5q19 0 40.5 5.5t43 15t41.5 22.5t37 27l52 -23l-11 -88q-22 -14 -48.5 -26t-55.5 -22t-59.5 -15.5t-58.5 -5.5q-73 0 -130.5 19t-96.5 59q-29 -32 -79.5 -55t-128.5 -23q-35 0 -68 10.5t-59 29.5
t-42 46t-16 60q0 72 50.5 110t138.5 50q49 6 76.5 9.5t41 6.5t16 5t2.5 5q0 30 -19.5 52.5t-66.5 22.5q-36 0 -68.5 -15.5t-52.5 -44.5h-69v103zM210 146q0 -22 18.5 -35.5t50.5 -13.5q15 0 30 4t28 12t21 19t10 26q1 11 1 26.5v27.5q-5 -1 -10.5 -1.5t-9.5 -1.5
q-24 -3 -48.5 -7.5t-45 -11.5t-33 -17.5t-12.5 -26.5zM651 404q-47 0 -74 -25.5t-37 -56.5q24 -1 49.5 -1.5t49.5 -0.5q26 0 51 0.5t51 1.5h8q-3 15 -9.5 29.5t-18 26.5t-29 19t-41.5 7z" />
    <glyph glyph-name="ccedilla" unicode="&#xe7;" horiz-adv-x="564" 
d="M198 -77q5 -2 12 -3t14 -3l-20 18l30 60q-45 9 -85.5 28t-72 49.5t-50 73.5t-18.5 100q0 68 27.5 117t73 81t103.5 47t118 15q33 0 66 -5.5t63 -14.5t55.5 -21t43.5 -25q-14 -25 -25.5 -51t-19.5 -55h-56q-8 11 -20.5 23.5t-28 23t-35 17t-40.5 6.5q-41 0 -70 -12
t-47.5 -33t-27 -49.5t-8.5 -62.5q0 -74 40.5 -112t116.5 -38q18 0 39.5 5.5t43 15.5t42.5 23t38 27l54 -27q-9 -26 -11.5 -45.5t-4.5 -39.5q-26 -17 -59.5 -31.5t-69.5 -24.5q59 -25 59 -88q0 -28 -13.5 -49t-36.5 -35.5t-54 -21.5t-65 -7q-36 0 -78.5 10.5t-75.5 20.5z" />
    <glyph glyph-name="egrave" unicode="&#xe8;" horiz-adv-x="607" 
d="M23 234q0 63 19.5 113t56.5 85.5t91.5 54.5t125.5 19h13l-161 82q-10 5 -20.5 12t-19.5 16.5t-15 21t-6 25.5q0 16 7.5 28t18.5 20.5t23.5 12.5t23.5 4q20 0 38.5 -8t35.5 -20l248 -200h-117q51 -8 88.5 -28t62 -48.5t36.5 -63.5t12 -73q0 -4 -0.5 -13t-1.5 -19.5
t-1.5 -21.5t-1.5 -18h-65q-14 0 -26.5 0.5t-23.5 0.5q-40 1 -79 1.5t-79 0.5q-24 0 -48 -0.5t-49 -1.5h-14q5 -51 45 -85t112 -34q19 0 40.5 5.5t42.5 15t41 22.5t37 27l52 -23l-11 -88q-44 -27 -104 -48t-119 -21q-68 0 -125 19t-97.5 52.5t-63 78.5t-22.5 97zM318 404
q-23 0 -41.5 -7t-32 -18.5t-22.5 -26.5t-15 -30q26 -1 51.5 -1.5t49.5 -0.5q26 0 50.5 0.5t50.5 1.5h7q-3 15 -9.5 29.5t-18 26.5t-29 19t-41.5 7z" />
    <glyph glyph-name="eacute" unicode="&#xe9;" horiz-adv-x="607" 
d="M382 698q16 12 36 21t39 9q11 0 23.5 -4t23.5 -12.5t18.5 -20.5t7.5 -28q0 -15 -5.5 -27t-14.5 -21t-20 -15.5t-21 -11.5h1q-26 -14 -54 -28l-56 -28l-25 -12.5t-25 -13.5h6q69 0 119.5 -17.5t83.5 -47.5t49 -69.5t16 -84.5q0 -4 -0.5 -13t-1.5 -19.5t-1.5 -21.5
t-1.5 -18h-65q-14 0 -26.5 0.5t-23.5 0.5q-40 1 -79 1.5t-79 0.5q-24 0 -48 -0.5t-49 -1.5h-14q5 -51 45 -85t112 -34q19 0 40.5 5.5t42.5 15t41 22.5t37 27l52 -23l-11 -88q-44 -27 -104 -48t-119 -21q-68 0 -125 19t-97.5 52.5t-63 78.5t-22.5 97q0 109 57 179t164 87
h-107zM318 404q-23 0 -41.5 -7t-32 -18.5t-22.5 -26.5t-15 -30q26 -1 51.5 -1.5t49.5 -0.5q26 0 50.5 0.5t50.5 1.5h7q-3 15 -9.5 29.5t-18 26.5t-29 19t-41.5 7z" />
    <glyph glyph-name="ecircumflex" unicode="&#xea;" horiz-adv-x="613" 
d="M26 234q0 63 19.5 113t56.5 85.5t91.5 54.5t125.5 19q69 0 119.5 -17.5t83.5 -47.5t49 -69.5t16 -84.5q0 -4 -0.5 -13t-1.5 -19.5t-1.5 -21.5t-1.5 -18h-65q-14 0 -26.5 0.5t-23.5 0.5q-40 1 -79 1.5t-79 0.5q-24 0 -48 -0.5t-49 -1.5h-14q5 -51 45 -85t112 -34
q19 0 40.5 5.5t42.5 15t41 22.5t37 27l52 -23l-11 -88q-44 -27 -104 -48t-119 -21q-68 0 -125 19t-97.5 52.5t-63 78.5t-22.5 97zM324 586q-14 -10 -30 -20.5t-31 -20.5q-15 -11 -33 -22.5t-32 -22.5h-137l207 224h108l206 -224h-136zM321 404q-23 0 -41.5 -7t-32 -18.5
t-22.5 -26.5t-15 -30q26 -1 51.5 -1.5t49.5 -0.5q26 0 50.5 0.5t50.5 1.5h7q-3 15 -9.5 29.5t-18 26.5t-29 19t-41.5 7z" />
    <glyph glyph-name="edieresis" unicode="&#xeb;" horiz-adv-x="605" 
d="M22 234q0 63 19.5 113t56.5 85.5t91.5 54.5t125.5 19q69 0 119.5 -17.5t83.5 -47.5t49 -69.5t16 -84.5q0 -4 -0.5 -13t-1.5 -19.5t-1.5 -21.5t-1.5 -18h-65q-14 0 -26.5 0.5t-23.5 0.5q-40 1 -79 1.5t-79 0.5q-24 0 -48 -0.5t-49 -1.5h-14q5 -51 45 -85t112 -34
q19 0 40.5 5.5t42.5 15t41 22.5t37 27l52 -23l-11 -88q-44 -27 -104 -48t-119 -21q-68 0 -125 19t-97.5 52.5t-63 78.5t-22.5 97zM334 606q0 17 7.5 32.5t20.5 27t30 18t36 6.5t36.5 -6.5t30 -18t20 -27t7.5 -32.5t-7.5 -31.5t-20 -26t-30 -18t-36.5 -6.5t-36 6.5t-30 18
t-20.5 26t-7.5 31.5zM114 606q0 17 7.5 32.5t20 27t29.5 18t37 6.5q19 0 36 -6.5t29.5 -18t20 -27t7.5 -32.5t-7.5 -31.5t-20 -26t-29.5 -18t-36 -6.5q-20 0 -37 6.5t-29.5 18t-20 26t-7.5 31.5zM317 404q-23 0 -41.5 -7t-32 -18.5t-22.5 -26.5t-15 -30q26 -1 51.5 -1.5
t49.5 -0.5q26 0 50.5 0.5t50.5 1.5h7q-3 15 -9.5 29.5t-18 26.5t-29 19t-41.5 7z" />
    <glyph glyph-name="igrave" unicode="&#xec;" horiz-adv-x="306" 
d="M50 588q-10 5 -20.5 12t-19.5 16.5t-15 21t-6 25.5q0 16 7.5 28t18.5 20.5t23.5 12.5t23.5 4q20 0 39 -8t35 -21q16 -14 37.5 -31t44.5 -35.5l46 -37t44 -34.5q4 -4 15 -13t23 -18.5t22.5 -18t14.5 -11.5h-91q-8 -61 -11 -114.5t-3 -93.5v-92q0 -41 3.5 -95.5
t11.5 -116.5q-33 5 -58 8.5t-35 3.5q-11 0 -36 -3.5t-57 -8.5q8 62 12 116.5t4 95.5v92q0 41 -4 95.5t-12 116.5q33 -5 57.5 -8t35.5 -3q8 0 26 1.5t44 5.5h-49z" />
    <glyph glyph-name="iacute" unicode="&#xed;" horiz-adv-x="306" 
d="M169 698q16 12 35.5 21t39.5 9q10 0 23 -4t24 -12.5t18.5 -20.5t7.5 -28q0 -15 -5.5 -27t-14.5 -21t-20 -15.5t-21 -11.5h1q-25 -14 -52 -27t-53 -27l-34 -17t-33 -17h-48q23 -3 41 -5t27 -2q10 0 34 3t59 8q-8 -62 -12 -116.5t-4 -95.5v-92q0 -41 4 -95.5t12 -116.5
q-33 5 -58 8.5t-35 3.5q-11 0 -36 -3.5t-57 -8.5q8 62 11.5 116.5t3.5 95.5v92q0 40 -3.5 93.5t-11.5 114.5h-88z" />
    <glyph glyph-name="icircumflex" unicode="&#xee;" horiz-adv-x="411" 
d="M127 292q0 41 -3.5 95.5t-11.5 116.5q33 -5 57.5 -8t35.5 -3q10 0 34 3t59 8q-8 -62 -11.5 -116.5t-3.5 -95.5v-92q0 -41 3.5 -95.5t11.5 -116.5q-33 5 -58 8.5t-35 3.5q-11 0 -36 -3.5t-57 -8.5q8 62 11.5 116.5t3.5 95.5v92zM207 586q-11 -8 -23 -16t-23 -16
q-20 -13 -40.5 -27.5t-37.5 -26.5h-138l207 224h107l207 -224h-136z" />
    <glyph glyph-name="idieresis" unicode="&#xef;" horiz-adv-x="403" 
d="M123 292q0 41 -3.5 95.5t-11.5 116.5q33 -5 57.5 -8t35.5 -3q10 0 34 3t59 8q-8 -62 -11.5 -116.5t-3.5 -95.5v-92q0 -41 3.5 -95.5t11.5 -116.5q-33 5 -58 8.5t-35 3.5q-11 0 -36 -3.5t-57 -8.5q8 62 11.5 116.5t3.5 95.5v92zM-2 606q0 17 7 32.5t20 27t29.5 18
t36.5 6.5q19 0 36 -6.5t30 -18t20.5 -27t7.5 -32.5t-7.5 -31.5t-20.5 -26t-30 -18t-36 -6.5q-39 0 -66 24.5t-27 57.5zM218 606q0 17 7.5 32.5t20.5 27t30 18t36 6.5t36 -6.5t30 -18t20 -27t7 -32.5q0 -33 -27 -57.5t-66 -24.5q-19 0 -36 6.5t-30 18t-20.5 26t-7.5 31.5z
" />
    <glyph glyph-name="eth" unicode="&#xf0;" horiz-adv-x="678" 
d="M28 246q0 64 22.5 111t59.5 78t85 47.5t98 21.5q-11 9 -23 18.5t-26 20.5q-17 -5 -37.5 -10.5t-41 -11.5t-40.5 -11.5t-36 -10.5q-10 18 -29.5 43.5t-45.5 56.5l60 12q12 3 17.5 3.5t10 1.5t11 2t20.5 4q-15 10 -34 22.5t-38.5 25t-38.5 24t-35 21.5l180 36
q41 -23 79 -45t69 -42q34 8 75 20.5t76 25.5q11 -20 31.5 -45.5t49.5 -54.5q-6 -1 -17 -3t-23 -4.5t-23 -4.5t-17 -3q-11 -2 -14.5 -2.5t-5.5 -1t-6 -1t-14 -3.5q58 -44 100 -86t68 -83.5t38.5 -84t12.5 -87.5q0 -71 -27.5 -120.5t-71.5 -80.5t-99 -44.5t-110 -13.5
q-56 0 -111.5 13.5t-99.5 44.5t-71.5 80.5t-27.5 120.5zM474 246q0 31 -6.5 59.5t-22.5 50.5t-42 35t-65 13t-65.5 -13t-42.5 -35t-22.5 -50.5t-6.5 -59.5q0 -30 6.5 -58.5t22.5 -50.5t42.5 -35t65.5 -13t65 13t42 35t22.5 50.5t6.5 58.5z" />
    <glyph glyph-name="ntilde" unicode="&#xf1;" horiz-adv-x="573" 
d="M389 287q0 48 -23.5 73.5t-61.5 25.5q-60 0 -87.5 -29t-27.5 -82v-75q0 -37 3.5 -89.5t12.5 -122.5q-32 5 -57.5 8.5t-36.5 3.5t-36.5 -3.5t-58.5 -8.5q10 70 13 122.5t3 89.5v92q0 37 -3 89.5t-13 122.5q35 -5 59.5 -8t35.5 -3q6 0 29 3t58 8q-1 -5 -2 -14.5t-2 -18.5
q29 17 63 26t76 9q37 0 75.5 -8.5t70 -30.5t51 -59.5t19.5 -94.5q0 -18 -0.5 -37.5t-1.5 -39.5q0 -5 -0.5 -12t-0.5 -12q-1 -16 -1.5 -32.5t-0.5 -31.5t0.5 -36.5t1.5 -44t2.5 -44t2.5 -35.5q-33 5 -56.5 8.5t-31.5 3.5q-9 0 -32 -3.5t-53 -8.5q0 4 0.5 13t1.5 19.5
t1.5 20.5t0.5 16q1 11 1.5 21.5t0.5 17.5q2 35 3.5 68t1.5 68v55v0zM57 522q6 28 19 58t33 54t47.5 39.5t63.5 15.5q13 0 23 -1t20.5 -4t22.5 -7.5l28 -10.5q27 -10 39 -14.5t22 -4.5q11 0 21 13.5t17 30.5h102q-3 -19 -13.5 -47.5t-30 -55.5t-49.5 -46.5t-73 -19.5
q-19 0 -41.5 5.5t-53.5 19.5q-24 10 -36 13.5t-22 3.5q-11 0 -18.5 -9t-17.5 -33h-103z" />
    <glyph glyph-name="ograve" unicode="&#xf2;" horiz-adv-x="669" 
d="M26 246q0 72 27 121.5t71 80t99 44.5t111 14h9l-159 82q-10 5 -20.5 12t-19.5 16.5t-15 21t-6 25.5q0 16 7.5 28t18.5 20.5t23.5 12.5t23.5 4q19 0 38.5 -8t35.5 -21q16 -14 37.5 -31t44.5 -35.5l46 -37t44 -34.5q4 -4 15 -13t23 -18.5t22.5 -18t14.5 -11.5h-111
q46 -7 89 -25t75.5 -49t52 -75.5t19.5 -104.5q0 -71 -27 -120.5t-71 -80.5t-99 -44.5t-111 -13.5t-111 13.5t-99 44.5t-71 80.5t-27 120.5zM197 246q0 -30 6.5 -58.5t22.5 -50.5t42.5 -35t65.5 -13t65.5 13t42 35t22.5 50.5t7 58.5q0 31 -7 59.5t-22.5 50.5t-42 35t-65.5 13
t-65.5 -13t-42.5 -35t-22.5 -50.5t-6.5 -59.5z" />
    <glyph glyph-name="oacute" unicode="&#xf3;" horiz-adv-x="670" 
d="M399 698q16 12 36 21t39 9q10 0 23 -4t24 -12.5t18.5 -20.5t7.5 -28q0 -15 -5.5 -27t-14.5 -21t-20 -15.5t-21 -11.5h1q-25 -14 -52 -27t-53 -27q-11 -5 -26.5 -13t-29.5 -15h9q56 0 111 -14t99 -44.5t71 -80t27 -121.5q0 -71 -27 -120.5t-71 -80.5t-99 -44.5t-111 -13.5
t-111 13.5t-99 44.5t-71 80.5t-27 120.5q0 60 19.5 104.5t51.5 75.5t74.5 49t89.5 25h-108zM198 246q0 -30 6.5 -58.5t22.5 -50.5t42.5 -35t65.5 -13t65.5 13t42 35t22.5 50.5t7 58.5q0 31 -7 59.5t-22.5 50.5t-42 35t-65.5 13t-65.5 -13t-42.5 -35t-22.5 -50.5t-6.5 -59.5z
" />
    <glyph glyph-name="ocircumflex" unicode="&#xf4;" horiz-adv-x="677" 
d="M30 246q0 72 27 121.5t71 80t99 44.5t111 14t111 -14t99 -44.5t71 -80t27 -121.5q0 -71 -27 -120.5t-71 -80.5t-99 -44.5t-111 -13.5t-111 13.5t-99 44.5t-71 80.5t-27 120.5zM201 246q0 -30 6.5 -58.5t22.5 -50.5t42.5 -35t65.5 -13t65.5 13t42 35t22.5 50.5t7 58.5
q0 31 -7 59.5t-22.5 50.5t-42 35t-65.5 13t-65.5 -13t-42.5 -35t-22.5 -50.5t-6.5 -59.5zM340 586q-11 -8 -23 -16t-23 -16q-20 -13 -40.5 -27.5t-37.5 -26.5h-138l207 224h107l207 -224h-136z" />
    <glyph glyph-name="otilde" unicode="&#xf5;" horiz-adv-x="670" 
d="M27 246q0 72 27 121.5t71 80t99 44.5t111 14t111 -14t99 -44.5t71 -80t27 -121.5q0 -71 -27 -120.5t-71 -80.5t-99 -44.5t-111 -13.5t-111 13.5t-99 44.5t-71 80.5t-27 120.5zM198 246q0 -30 6.5 -58.5t22.5 -50.5t42.5 -35t65.5 -13t65.5 13t42 35t22.5 50.5t7 58.5
q0 31 -7 59.5t-22.5 50.5t-42 35t-65.5 13t-65.5 -13t-42.5 -35t-22.5 -50.5t-6.5 -59.5zM105 522q6 28 19 58t33 54t47.5 39.5t63.5 15.5q13 0 23 -1t20 -3.5t22 -7t29 -11.5q28 -11 40.5 -15t21.5 -4q11 0 21 13.5t18 30.5h102q-4 -19 -14.5 -47.5t-30 -55.5t-50 -46.5
t-73.5 -19.5q-19 0 -41 6t-53 19v-1q-26 11 -38 14.5t-21 3.5q-11 0 -18 -9t-18 -33h-103z" />
    <glyph glyph-name="odieresis" unicode="&#xf6;" horiz-adv-x="668" 
d="M25 246q0 72 27 121.5t71 80t99 44.5t111 14t111 -14t99 -44.5t71 -80t27 -121.5q0 -71 -27 -120.5t-71 -80.5t-99 -44.5t-111 -13.5t-111 13.5t-99 44.5t-71 80.5t-27 120.5zM196 246q0 -30 6.5 -58.5t22.5 -50.5t42.5 -35t65.5 -13t65.5 13t42 35t22.5 50.5t7 58.5
q0 31 -7 59.5t-22.5 50.5t-42 35t-65.5 13t-65.5 -13t-42.5 -35t-22.5 -50.5t-6.5 -59.5zM130 606q0 17 7 32.5t20 27t29.5 18t36.5 6.5q19 0 36 -6.5t30 -18t20.5 -27t7.5 -32.5t-7.5 -31.5t-20.5 -26t-30 -18t-36 -6.5q-39 0 -66 24.5t-27 57.5zM350 606q0 17 7.5 32.5
t20.5 27t30 18t36 6.5t36 -6.5t30 -18t20 -27t7 -32.5q0 -33 -27 -57.5t-66 -24.5q-19 0 -36 6.5t-30 18t-20.5 26t-7.5 31.5z" />
    <glyph glyph-name="divide" unicode="&#xf7;" horiz-adv-x="643" 
d="M1 324h640v-121h-640v121zM221 88q0 18 8 34t21.5 28t31.5 19t39 7t39 -7t31.5 -19t21.5 -28t8 -34t-8 -34t-21.5 -28t-31.5 -19t-39 -7t-39 7t-31.5 19t-21.5 28t-8 34zM221 439q0 18 8 33.5t21.5 27.5t31.5 19t39 7t39 -7t31.5 -19t21.5 -27.5t8 -33.5t-8 -34
t-21.5 -28t-31.5 -19t-39 -7t-39 7t-31.5 19t-21.5 28t-8 34z" />
    <glyph glyph-name="oslash" unicode="&#xf8;" horiz-adv-x="707" 
d="M52 246q0 72 27.5 121.5t71.5 80t99 44.5t111 14q42 0 86.5 -9t82.5 -27q20 19 42 43t39 47q16 -20 44 -38.5t72 -34.5q-36 -19 -66.5 -39t-50.5 -37q29 -32 44 -71.5t15 -93.5q0 -71 -27.5 -120.5t-71.5 -80.5t-99 -44.5t-110 -13.5q-46 0 -91 9t-85 30
q-20 -17 -37.5 -35t-30.5 -29q-4 -3 -10.5 -8t-15.5 -12q-13 16 -40.5 31.5t-69.5 29.5q27 14 35.5 18t10.5 5q14 12 33.5 27t42.5 37q-26 30 -38.5 67.5t-12.5 88.5zM277 110q30 -21 84 -21q39 0 65.5 13t42 35t22 50.5t6.5 58.5q0 13 -2 29t-5 30zM435 386q-14 8 -33.5 13
t-40.5 5q-39 0 -65.5 -13t-42 -35t-22.5 -50.5t-7 -59.5q0 -26 4 -46z" />
    <glyph glyph-name="ugrave" unicode="&#xf9;" horiz-adv-x="559" 
d="M136 588q-10 5 -20.5 12t-19.5 16.5t-15 21t-6 25.5q0 16 7.5 28t18.5 20.5t23.5 12.5t23.5 4q19 0 38.5 -8t35.5 -21q16 -14 37.5 -31t44.5 -35.5l46 -37t44 -34.5q4 -4 15 -13t23 -18.5t22.5 -18t14.5 -11.5h-68q23 -4 39.5 -5.5t25.5 -1.5t31 3.5t55 9.5
q-2 -35 -4 -75.5t-3.5 -82.5t-2.5 -83t-1 -77q0 -20 0.5 -46.5t1.5 -54.5t2.5 -54t2.5 -45q-30 5 -52.5 8.5t-30.5 3.5t-30.5 -3.5t-51.5 -8.5q1 14 0.5 19.5t-0.5 16.5q-29 -17 -64 -27t-73 -10q-104 0 -163.5 47.5t-59.5 135.5q0 26 0.5 48t1.5 41v4q1 14 1.5 27.5
t0.5 27.5v39t-0.5 50.5t-1 52t-0.5 44.5q32 -5 53.5 -8t29.5 -3q10 0 32 3t54 8q-6 -70 -10 -147t-4 -146q0 -36 6.5 -54t15.5 -26q11 -11 28.5 -17.5t43.5 -6.5q35 0 58.5 11t33.5 28q6 10 9.5 19.5t5.5 27t2.5 45.5t0.5 75v42.5t-0.5 52t-1 51t-1.5 41.5h-74z" />
    <glyph glyph-name="uacute" unicode="&#xfa;" horiz-adv-x="559" 
d="M336 698q16 12 36 21t39 9q10 0 23 -4t24 -12.5t18.5 -20.5t7.5 -28q0 -15 -5.5 -27t-14.5 -21t-20 -15.5t-21 -11.5h1q-25 -14 -52 -27t-53 -27l-34 -17t-33 -17h-73q-6 -69 -9.5 -145.5t-3.5 -143.5q0 -36 6.5 -54t15.5 -26q11 -11 28.5 -17.5t43.5 -6.5q35 0 58.5 11
t33.5 28q6 10 9.5 19.5t5.5 27t2.5 45.5t0.5 75v44t-0.5 53.5t-1 52.5t-1.5 41q64 -11 85 -11q9 0 31 3.5t55 9.5q-2 -35 -4 -75.5t-3.5 -82.5t-2.5 -83t-1 -77q0 -20 0.5 -46.5t1.5 -54.5t2.5 -54t2.5 -45q-30 5 -52.5 8.5t-30.5 3.5t-30.5 -3.5t-51.5 -8.5q1 14 0.5 19.5
t-0.5 16.5q-29 -17 -64 -27t-73 -10q-104 0 -163.5 47.5t-59.5 135.5q0 26 0.5 48t1.5 41v4q1 14 1.5 27.5t0.5 27.5v39t-0.5 50.5t-1 52t-0.5 44.5q32 -5 53.5 -8t29.5 -3t24.5 1.5t40.5 5.5h-68z" />
    <glyph glyph-name="ucircumflex" unicode="&#xfb;" horiz-adv-x="565" 
d="M19 170q0 26 0.5 48t1.5 41v4q1 14 1.5 27.5t0.5 27.5v39t-0.5 50.5t-1 52t-0.5 44.5q1 0 1.5 -0.5t2.5 -0.5l204 221h107l203 -220q3 0 9 2q-2 -35 -4 -75.5t-3.5 -82.5t-2.5 -83t-1 -77q0 -20 0.5 -46.5t1.5 -54.5t2.5 -54t2.5 -45q-30 5 -52.5 8.5t-30.5 3.5
t-30.5 -3.5t-51.5 -8.5q1 14 0.5 19.5t-0.5 16.5q-29 -17 -64 -27t-73 -10q-104 0 -163.5 47.5t-59.5 135.5zM284 586q-11 -8 -23 -16t-23 -16q-20 -13 -40.5 -27.5t-37.5 -26.5h-118q23 -4 39.5 -5.5t22.5 -1.5q10 0 32 3t54 8q-6 -70 -10 -147t-4 -146q0 -36 6.5 -54
t15.5 -26q11 -11 28.5 -17.5t43.5 -6.5q35 0 58.5 11t33.5 28q6 10 9.5 19.5t5.5 27t2.5 45.5t0.5 75v44t-0.5 53.5t-1 52.5t-1.5 41q64 -11 85 -11q6 0 21 2t36 5h-112z" />
    <glyph glyph-name="udieresis" unicode="&#xfc;" horiz-adv-x="572" 
d="M23 170q0 26 0.5 48t1.5 41v4q1 14 1.5 27.5t0.5 27.5v39t-0.5 50.5t-1 52t-0.5 44.5q32 -5 53.5 -8t29.5 -3q10 0 32 3t54 8q-6 -70 -10 -147t-4 -146q0 -36 6.5 -54t15.5 -26q11 -11 28.5 -17.5t43.5 -6.5q35 0 58.5 11t33.5 28q6 10 9.5 19.5t5.5 27t2.5 45.5t0.5 75
v44t-0.5 53.5t-1 52.5t-1.5 41q64 -11 85 -11q9 0 31 3.5t55 9.5q-2 -35 -4 -75.5t-3.5 -82.5t-2.5 -83t-1 -77q0 -20 0.5 -46.5t1.5 -54.5t2.5 -54t2.5 -45q-30 5 -52.5 8.5t-30.5 3.5t-30.5 -3.5t-51.5 -8.5q1 14 0.5 19.5t-0.5 16.5q-29 -17 -64 -27t-73 -10
q-104 0 -163.5 47.5t-59.5 135.5zM83 606q0 17 7 32.5t20 27t29.5 18t36.5 6.5q19 0 36 -6.5t30 -18t20.5 -27t7.5 -32.5t-7.5 -31.5t-20.5 -26t-30 -18t-36 -6.5q-39 0 -66 24.5t-27 57.5zM303 606q0 17 7.5 32.5t20.5 27t30 18t36 6.5t36 -6.5t30 -18t20 -27t7 -32.5
q0 -33 -27 -57.5t-66 -24.5q-19 0 -36 6.5t-30 18t-20.5 26t-7.5 31.5z" />
    <glyph glyph-name="yacute" unicode="&#xfd;" horiz-adv-x="585" 
d="M359 698q15 12 35 21t39 9q11 0 23.5 -4t23.5 -12.5t18.5 -20.5t7.5 -28q0 -15 -5.5 -27t-14.5 -21t-19.5 -15.5t-20.5 -11.5h1q-26 -14 -52.5 -27t-52.5 -27q-14 -7 -34.5 -17t-33.5 -17h-107q19 -48 36.5 -88t34.5 -76.5t34.5 -71t37.5 -71.5q38 70 74.5 149.5
t68.5 160.5q23 -5 39 -7.5t21 -2.5q4 0 33.5 6t78.5 17q-8 -14 -28 -48.5t-47.5 -82.5t-60 -106t-66.5 -119t-67 -122.5t-61.5 -115.5t-50 -97.5t-31.5 -69.5q-21 5 -37.5 7t-24.5 2t-28 -3t-49 -10l-20 30q54 71 95.5 134t70.5 117q-14 30 -36.5 73.5t-47.5 92t-51.5 98.5
t-49 93t-40 75t-24.5 46q50 -9 80 -13t39 -4q11 0 29 1.5t42 5.5h-47z" />
    <glyph glyph-name="thorn" unicode="&#xfe;" horiz-adv-x="614" 
d="M44 452q0 29 -1 66t-2.5 77.5t-4.5 81t-6 77.5q32 -5 56.5 -8.5t35.5 -3.5t36.5 3.5t55.5 8.5q-3 -35 -6 -74t-4.5 -77.5t-2.5 -74.5t-1 -65q26 18 63 30.5t91 12.5q50 0 98 -15t85 -46t59.5 -80t22.5 -116q0 -66 -24.5 -115t-64 -82t-89 -49t-100.5 -16q-43 0 -77.5 9.5
t-63.5 27.5q0 -30 1.5 -64t3 -69.5t3.5 -69.5t5 -64h-6t-10 0.5t-10 0.5h-6q-19 3 -34.5 4.5t-24.5 1.5q-8 0 -20.5 -1t-27.5 -3q-3 0 -9.5 -1t-13.5 -2.5t-13 -2.5t-8 -1q3 37 6 77.5t4.5 81t2.5 77.5t1 66v397zM448 250q0 42 -10.5 70t-27.5 44.5t-37.5 23t-41.5 6.5
q-36 0 -60.5 -12t-40.5 -33t-23 -48.5t-7 -58.5q0 -74 32.5 -111t94.5 -37q30 0 53 12t38 33t22.5 49.5t7.5 61.5z" />
    <glyph glyph-name="ydieresis" unicode="&#xff;" horiz-adv-x="588" 
d="M58 -219q54 71 95.5 134t70.5 117q-15 30 -37 73.5t-47 92t-51.5 98.5t-49 93t-40 75t-24.5 46q50 -9 80 -13t39 -4q11 0 31 2t46 6q19 -48 36.5 -88t34.5 -76.5t34.5 -71.5t37.5 -72q38 70 74.5 149.5t68.5 160.5q23 -5 39 -7.5t21 -2.5q4 0 33.5 6t78.5 17
q-8 -14 -28 -48.5t-47.5 -82.5t-60 -106t-66.5 -119t-67 -122.5t-61.5 -115.5t-50 -97.5t-31.5 -69.5q-21 5 -37.5 7t-24.5 2t-28 -3t-49 -10zM95 606q0 17 7 32.5t20 27t29.5 18t36.5 6.5q19 0 36.5 -6.5t30 -18t20 -27t7.5 -32.5t-7.5 -31.5t-20 -26t-30 -18t-36.5 -6.5
q-39 0 -66 24.5t-27 57.5zM315 606q0 17 7.5 32.5t20.5 27t30 18t36 6.5t36.5 -6.5t30 -18t20 -27t7.5 -32.5t-7.5 -31.5t-20 -26t-30 -18t-36.5 -6.5t-36 6.5t-30 18t-20.5 26t-7.5 31.5z" />
    <glyph glyph-name="dotlessi" unicode="&#x131;" horiz-adv-x="192" 
d="M16 292q0 41 -3.5 95.5t-11.5 116.5q33 -5 57.5 -8t35.5 -3q10 0 34 3t59 8q-8 -62 -11.5 -116.5t-3.5 -95.5v-92q0 -41 3.5 -95.5t11.5 -116.5q-33 5 -58 8.5t-35 3.5q-11 0 -36 -3.5t-57 -8.5q8 62 11.5 116.5t3.5 95.5v92z" />
    <glyph glyph-name="Lslash" unicode="&#x141;" horiz-adv-x="602" 
d="M127 418q0 29 -1 64.5t-3 73t-4 73t-4 64.5q34 -5 58.5 -8t35.5 -3q12 0 36 3t58 8q0 -5 -0.5 -13t-1.5 -17t-1.5 -17.5t-0.5 -13.5q-2 -46 -4 -96t-3 -94q24 13 50 26.5t46 24.5q12 -26 28.5 -50.5t37.5 -48.5q-10 -4 -29.5 -12t-42.5 -17.5t-47 -20t-43 -19.5v-57
q0 -34 0.5 -61.5t1.5 -50.5q0 -8 0.5 -14.5t0.5 -13.5q1 -5 1 -9v-7q66 0 144.5 3t184.5 14q-13 -33 -20 -50.5t-7 -18.5q0 -8 25 -67q-26 1 -60 2.5t-70.5 2.5t-71 1.5t-59.5 0.5q-26 0 -58 -0.5t-65 -1.5t-65 -2.5t-58 -2.5q1 27 3 58.5t3.5 64.5t3 65.5t1.5 61.5
q-36 -21 -68 -45q-29 56 -74 102q4 2 12.5 5.5t18 7t17.5 7t13 5.5q24 11 42.5 18.5t38.5 16.5v58z" />
    <glyph glyph-name="lslash" unicode="&#x142;" horiz-adv-x="334" 
d="M74 -12q4 33 6.5 69.5t4.5 73.5t3.5 72t1.5 65q-14 -8 -29 -15t-26 -13q-11 17 -27.5 36t-49.5 48q11 5 21.5 10.5t18.5 7.5l-1 -1q23 11 46.5 22t46.5 23v66q0 30 -1 67t-3 77.5t-5 81t-7 76.5q32 -5 57 -8.5t36 -3.5q10 0 35 3.5t58 8.5q-4 -34 -7 -72t-4.5 -76.5
t-2.5 -74t-1 -65.5l25 15l12 6l17 8.5t16.5 8.5t10.5 6q0 -26 16.5 -51t37.5 -39q-50 -28 -68 -33l-10 -10q-4 -2 -10 -4.5t-10 -4.5q-10 -5 -15.5 -7.5t-21.5 -10.5v-60q0 -30 1 -67t2.5 -77.5t4.5 -81t7 -76.5q-33 5 -58 8.5t-35 3.5q-11 0 -36 -3.5t-57 -8.5z" />
    <glyph glyph-name="OE" unicode="&#x152;" horiz-adv-x="1242" 
d="M908 250q0 -29 1 -58t3 -59q0 -7 -0.5 -8.5t0.5 -12.5q103 2 178.5 6.5t121.5 11.5q-26 -68 -26 -71q0 -4 4.5 -19t18.5 -47q-23 1 -55 2.5t-66 2.5t-66 1.5t-56 0.5t-54 -0.5t-61.5 -1.5t-62 -2.5t-55.5 -2.5q1 10 3 27t3 27q-43 -26 -105 -44.5t-152 -18.5
q-88 0 -165 24t-134 68.5t-90 108.5t-33 145q0 90 33.5 158.5t92.5 115t139.5 70.5t175.5 24q90 0 149 -18t95 -40v49q23 -1 52 -2.5t58.5 -2.5t58 -1.5t51.5 -0.5q22 0 52.5 0.5t62.5 1.5t62 2.5t53 2.5q-7 -25 -12.5 -45t-5.5 -22q0 -3 3.5 -16t7.5 -27v-4.5t0.5 -10
t0.5 -10v-4.5q-25 4 -49.5 7.5t-55 6.5t-72 5t-99.5 2q0 -4 -0.5 -8.5t-0.5 -9.5v1q-2 -25 -3 -51.5t-1 -51.5v-37q48 0 81 0.5t55.5 1.5t37 2t26.5 2h21h10t14.5 0.5t14 0.5h7.5q-8 -23 -14.5 -42t-6.5 -20q0 -2 6.5 -21t14.5 -41h-46q-7 0 -12.5 0.5t-7.5 0.5t-5 0.5
t-5 0.5q-12 1 -24.5 2t-33.5 1.5t-52.5 1t-80.5 0.5v-54zM243 341q0 -65 20.5 -112t55.5 -78t81.5 -45.5t98.5 -14.5q59 0 106 18t79.5 51t50 79t17.5 102q0 68 -18.5 115.5t-50.5 77.5t-76.5 43.5t-96.5 13.5q-56 0 -104.5 -14.5t-84.5 -45.5t-57 -78t-21 -112z" />
    <glyph glyph-name="oe" unicode="&#x153;" horiz-adv-x="1103" 
d="M781 506q68 0 118.5 -17.5t84 -47.5t50 -69.5t16.5 -84.5q0 -4 -0.5 -13t-1.5 -19.5t-1.5 -21.5t-1.5 -18h-65q-14 0 -27 0.5t-24 0.5q-40 1 -79 1.5t-79 0.5q-25 0 -49 -0.5t-48 -1.5q-5 0 -8 -0.5t-5 -0.5q4 -51 44 -84.5t112 -33.5q19 0 40.5 5.5t43 15t41.5 22.5
t37 27l52 -23l-12 -88q-21 -14 -47.5 -26t-56 -22t-59.5 -15.5t-59 -5.5q-135 0 -217 66q-44 -36 -101 -51t-117 -15q-56 0 -111 13.5t-99 44.5t-71.5 80.5t-27.5 120.5q0 72 27.5 121.5t71.5 80t99 44.5t111 14q58 0 115 -16t100 -48q39 31 89.5 47.5t114.5 16.5zM500 246
q0 31 -7 59.5t-23 50.5t-42.5 35t-65.5 13t-65 -13t-42 -35t-22.5 -50.5t-6.5 -59.5q0 -30 6.5 -58.5t22.5 -50.5t42 -35t65 -13t65.5 13t42.5 35t23 50.5t7 58.5zM784 404q-24 0 -42.5 -7t-32 -18.5t-22.5 -26.5t-15 -30q26 -1 51 -1.5t49 -0.5q26 0 51 0.5t51 1.5h7
q-3 15 -9.5 29.5t-17.5 26.5t-28.5 19t-41.5 7z" />
    <glyph glyph-name="Scaron" unicode="&#x160;" horiz-adv-x="574" 
d="M421 877h139l-172 -186q74 -14 148 -61q-20 -31 -32.5 -59t-21.5 -64h-65q-6 12 -15 27t-22 27.5t-30.5 21t-40.5 8.5q-48 0 -78.5 -20.5t-30.5 -53.5q0 -20 12 -34.5t31.5 -25.5t44.5 -19.5t52 -17.5q39 -12 77 -26.5t68.5 -36t49 -54t18.5 -81.5q0 -48 -21 -91.5
t-61 -76t-98 -51.5t-131 -19q-77 0 -133.5 24t-98.5 51q9 19 14.5 34t9.5 29.5t6.5 30t4.5 35.5h67q9 -16 23.5 -32t34 -29.5t44.5 -22t55 -8.5q58 0 90.5 27t32.5 65q0 18 -11 32t-30 25t-43 20t-50 18q-39 12 -78 27.5t-70 39t-50.5 58t-19.5 84.5q0 71 45 122t128 72
q-21 22 -44 47t-46.5 50.5t-45.5 49.5t-40 44h137l123 -86z" />
    <glyph glyph-name="scaron" unicode="&#x161;" horiz-adv-x="447" 
d="M346 724h138l-204 -221q32 -4 61 -14h-1q11 -2 14 -4l10 -2q8 -2 22.5 -5t42.5 -8q-10 -15 -19.5 -33.5t-17.5 -36.5t-13.5 -33t-6.5 -24h-70q-10 23 -29.5 39.5t-44.5 16.5q-21 0 -40 -9t-19 -30q0 -9 7.5 -16t20.5 -12.5t29.5 -10t33.5 -8.5q30 -8 61 -17t56 -25
t40.5 -41t15.5 -65q0 -32 -16.5 -64t-47.5 -57.5t-75 -41t-98 -15.5q-57 0 -107 16t-90 33q5 9 11.5 24t12 31.5t9 33.5t3.5 30h71q6 -9 16.5 -19.5t24 -20t30.5 -15.5t35 -6q28 0 50 10.5t22 32.5q0 9 -7.5 15.5t-20 12t-28.5 9.5t-33 8q-32 7 -63 16.5t-56 26t-40.5 42.5
t-15.5 67q0 63 40 107.5t116 58.5h-6l-207 224h137l123 -86z" />
    <glyph glyph-name="Ydieresis" unicode="&#x178;" horiz-adv-x="725" 
d="M269 13q8 64 10 129.5t2 131.5q-16 21 -42.5 57t-59 78.5t-67 88t-65.5 85.5t-55 71t-35 44q3 0 13.5 -1.5t22.5 -2.5t22 -2.5t13 -1.5q29 -4 49 -6t31 -2q8 0 29 2.5t50 6.5q24 -39 46.5 -74t45.5 -70t48 -70.5t54 -75.5q24 32 49.5 67.5t50 73t48.5 75.5t45 74
q20 -4 36.5 -6.5t25.5 -2.5q8 0 46 6t92 17q-68 -83 -121 -149t-93 -117t-68.5 -89t-46.5 -65q0 -33 1 -72t3 -79t5 -78t6 -68q-38 5 -64.5 8.5t-32.5 3.5q-9 0 -28 -2.5t-45 -6.5zM390 761q0 34 27.5 58t66.5 24q19 0 36 -6.5t30 -17.5t20.5 -26t7.5 -32t-7.5 -32.5
t-20.5 -26.5t-30 -17.5t-36 -6.5q-39 0 -66.5 24t-27.5 59zM170 761q0 17 7.5 32t20.5 26t30 17.5t36 6.5q39 0 66.5 -24t27.5 -58q0 -17 -7.5 -32.5t-20 -26.5t-30 -17.5t-36.5 -6.5t-36 6.5t-30 17.5t-20.5 26.5t-7.5 32.5z" />
    <glyph glyph-name="Zcaron" unicode="&#x17d;" horiz-adv-x="739" 
d="M497 877h138l-181 -195h116q24 0 47 1t45 3h-1q7 1 25 1h41v-70q-20 -17 -53 -52t-74 -79.5t-86 -95.5t-89 -101t-83 -96t-68 -81h20q43 0 103.5 1.5t124.5 4.5t123 6.5t100 7.5q-11 -29 -17.5 -49t-6.5 -22t6.5 -21.5t16.5 -45.5h-12.5t-18.5 0.5t-18.5 0.5h-12.5
q-72 2 -135 3.5t-120 1.5q-29 0 -66.5 -0.5t-78 -1l-81 -1t-76 -1.5t-63 -1.5t-41.5 -1.5v71q67 72 136.5 150.5t131 149t109 125.5t68.5 82h-2q-40 0 -93.5 -1.5t-110 -4t-111 -6t-96.5 -7.5q8 26 14 47t6 23q0 3 -6 23t-12 44q14 -1 39.5 -2t56.5 -2t64.5 -1.5t63.5 -0.5
q4 0 7 -0.5t7 -0.5l-180 195h137l124 -87z" />
    <glyph glyph-name="zcaron" unicode="&#x17e;" horiz-adv-x="578" 
d="M15 60q38 37 79.5 79t82 85t78.5 84t70 75q-31 -2 -68 -3.5t-72.5 -3.5t-67 -3.5t-50.5 -2.5q0 2 0.5 14.5t0.5 14.5q2 12 3.5 21.5t2.5 11.5q0 3 -1 10.5t-2 15.5q0 3 -1 9t-2.5 12.5t-2.5 12.5t-1 8q48 -3 134.5 -5t189.5 -2q47 0 97.5 2.5t85.5 4.5v-68
q-14 -14 -30.5 -31.5t-31.5 -33.5q-38 -41 -75 -79.5t-69.5 -72t-59 -61.5t-43.5 -47q70 2 150 5.5t169 10.5q-9 -26 -14 -44t-5 -21q0 -4 5 -21t13 -42h-25.5t-35 0.5t-35 1t-25.5 0.5q-49 2 -105.5 2.5t-103.5 0.5q-74 0 -147 -3q-6 0 -14.5 -0.5t-17.5 -0.5
q-12 -1 -31 -2t-25 -2v68zM416 724h138l-207 -224h-107l-207 224h137l123 -86z" />
    <glyph glyph-name="florin" unicode="&#x192;" horiz-adv-x="570" 
d="M65 -26l6 -4q2 -2 5 -4.5t5 -4.5h3q5 -2 12 -3.5t12 -1.5q23 0 33 21t18 56q17 75 31.5 143t30.5 146q-17 0 -36.5 -1t-37.5 -1.5t-32.5 -1.5t-23.5 -2q10 24 19.5 56.5t9.5 61.5q3 0 15.5 -0.5t15.5 -0.5q22 -2 44.5 -3.5t50.5 -1.5q0 1 1 1t1 1v-1q2 5 3 9.5t3 8.5
q11 37 32 77t52 73.5t71.5 55.5t90.5 22q8 0 33 -5t50 -13q-8 -24 -15.5 -59.5t-7.5 -68.5l-63 -13q-11 12 -23 21t-22 9q-11 0 -18.5 -7t-12.5 -27q-4 -16 -6.5 -28.5t-4.5 -24.5q-1 -6 -1.5 -8.5t-0.5 -5t-0.5 -6t-2.5 -10.5h18.5t17.5 1q9 0 24.5 0.5l31 1t28 0.5h15.5
q-12 -23 -22.5 -55.5t-10.5 -58.5q-23 2 -58.5 3t-69.5 1q-3 -17 -7 -34.5t-8 -34.5q-5 -26 -10.5 -50.5t-10.5 -48.5v1q-25 -110 -64.5 -176t-87.5 -100.5t-102 -45t-108 -10.5q16 42 23.5 74.5t7.5 59.5z" />
    <glyph glyph-name="circumflex" unicode="&#x2c6;" horiz-adv-x="431" 
d="M217 586q-11 -8 -23 -16t-23 -16q-20 -13 -40.5 -27.5t-37.5 -26.5h-138l207 224h107l207 -224h-136z" />
    <glyph glyph-name="caron" unicode="&#x2c7;" horiz-adv-x="428" 
d="M336 724h138l-207 -224h-107l-207 224h137l123 -86z" />
    <glyph glyph-name="breve" unicode="&#x2d8;" horiz-adv-x="417" 
d="M114 715q11 -42 32 -64t62 -22q42 0 61.5 22t33.5 64h99q0 -44 -12 -83t-36.5 -68t-60.5 -46.5t-84 -17.5t-84.5 17.5t-61 46.5t-36.5 68t-12 83h99z" />
    <glyph glyph-name="dotaccent" unicode="&#x2d9;" horiz-adv-x="213" 
d="M11 604q0 35 27.5 59t66.5 24q19 0 36.5 -6.5t30 -18t20 -26.5t7.5 -32t-7.5 -32t-20 -26.5t-30 -18t-36.5 -6.5q-20 0 -37 6.5t-29.5 18t-20 26.5t-7.5 32z" />
    <glyph glyph-name="ring" unicode="&#x2da;" horiz-adv-x="336" 
d="M16 614q0 26 12 49.5t32.5 41t48 27.5t59.5 10q31 0 58.5 -10t48 -27.5t32.5 -41t12 -49.5t-12 -49.5t-32.5 -41t-48.5 -27.5t-59 -10t-58.5 10t-48 27.5t-32.5 41t-12 49.5zM137 614q0 -8 9 -12.5t21 -4.5q13 0 22 4.5t9 12.5q0 7 -9 12t-21 5q-13 0 -22 -5t-9 -12z" />
    <glyph glyph-name="ogonek" unicode="&#x2db;" horiz-adv-x="263" 
d="M316 74q-56 -42 -90.5 -68.5t-53.5 -43.5t-25.5 -25.5t-6.5 -14.5q0 -9 12.5 -12.5t26.5 -3.5q11 0 26.5 3t32.5 8l35 -94q-31 -11 -58 -17.5t-54 -6.5q-32 0 -61.5 7t-52.5 21.5t-37 35.5t-14 49q0 37 38.5 76.5t114.5 85.5h167z" />
    <glyph glyph-name="tilde" unicode="&#x2dc;" horiz-adv-x="475" 
d="M6 522q6 28 19 58t33 54t47.5 39.5t63.5 15.5q13 0 23 -1t20 -3.5t22 -7t29 -11.5q28 -11 40.5 -15t21.5 -4q11 0 21 13.5t18 30.5h102q-4 -19 -14.5 -47.5t-30 -55.5t-50 -46.5t-73.5 -19.5q-19 0 -41 6t-53 19v-1q-26 11 -38 14.5t-21 3.5q-11 0 -18 -9t-18 -33h-103z
" />
    <glyph glyph-name="hungarumlaut" unicode="&#x2dd;" horiz-adv-x="574" 
d="M272 588q-30 -15 -62.5 -31.5t-62.5 -32.5q-11 -6 -24 -12t-24 -12h-160l246 199v-1q16 14 35 22t38 8q11 0 24 -4t24 -12.5t18.5 -20.5t7.5 -28q0 -10 -3 -18.5t-7 -16.5l87 71v-1q17 14 35.5 22t38.5 8q11 0 23.5 -4t23.5 -12.5t18.5 -20.5t7.5 -28q0 -14 -6 -26
t-15 -21t-19.5 -16t-19.5 -12q-30 -15 -62 -31.5t-63 -32.5q-11 -6 -23.5 -12t-23.5 -12h-161z" />
    <glyph glyph-name="endash" unicode="&#x2013;" horiz-adv-x="712" 
d="M39 301h633v-116h-633v116z" />
    <glyph glyph-name="emdash" unicode="&#x2014;" horiz-adv-x="1336" 
d="M72 301h1192v-116h-1192v116z" />
    <glyph glyph-name="quoteleft" unicode="&#x2018;" 
d="M142 425q-3 -10 -9.5 -20.5t-16.5 -18.5t-24.5 -13.5t-33.5 -5.5q-13 0 -26.5 4t-25 12t-18.5 20.5t-7 30.5q0 17 5.5 29.5t13.5 23.5v2q21 28 44.5 60t45.5 62q16 21 35 47t33 46l85 -25z" />
    <glyph glyph-name="quoteright" unicode="&#x2019;" 
d="M73 640q3 10 9.5 20.5t16.5 18.5t24.5 13.5t33.5 5.5q13 0 26.5 -4t25 -12t19 -20.5t7.5 -30.5q0 -19 -6.5 -32t-14.5 -24v-2q-18 -23 -37.5 -49.5t-38.5 -52.5t-41.5 -56t-39.5 -54l-84 25z" />
    <glyph glyph-name="quotesinglbase" unicode="&#x201a;" 
d="M73 116q3 10 9.5 20.5t16.5 19t24 14t34 5.5q13 0 26.5 -4t25 -12t19 -20.5t7.5 -30.5q0 -20 -6.5 -32.5t-14.5 -24.5q-4 -4 -4 -5q-14 -19 -30 -40.5t-31 -42.5q-21 -30 -46.5 -64t-45.5 -61l-84 25z" />
    <glyph glyph-name="quotedblleft" unicode="&#x201c;" horiz-adv-x="459" 
d="M169 425q-4 -10 -10.5 -20.5t-16.5 -18.5t-24 -13.5t-33 -5.5q-13 0 -27 4t-25.5 12t-19 20.5t-7.5 30.5q0 15 5.5 26.5t11.5 22.5q1 5 5 9q36 50 78.5 106.5t78.5 105.5l84 -25zM361 425v1q-3 -10 -9.5 -20.5t-16.5 -19t-24.5 -14t-33.5 -5.5q-13 0 -26.5 4t-25 12
t-19 20.5t-7.5 30.5q0 15 5.5 29t13.5 25q1 2 3 4q36 50 78.5 106.5t78.5 105.5l84 -25z" />
    <glyph glyph-name="quotedblright" unicode="&#x201d;" horiz-adv-x="459" 
d="M290 640q7 20 26.5 39t57.5 19q13 0 27 -4t25.5 -12t19 -20.5t7.5 -30.5t-7.5 -32t-16.5 -26h1q-17 -23 -37 -49.5t-38 -52.5q-20 -26 -42 -56t-39 -54l-84 25zM98 640v-1q3 10 9.5 20.5t16.5 19t24.5 14t33.5 5.5q13 0 26.5 -4t25 -12t19 -20.5t7.5 -30.5
q0 -19 -6.5 -32t-15.5 -24q-1 -1 -1 -2q-17 -23 -37 -49.5t-38 -52.5q-20 -26 -42 -56t-39 -54l-84 25z" />
    <glyph glyph-name="quotedblbase" unicode="&#x201e;" horiz-adv-x="459" 
d="M290 116q7 20 26.5 39.5t57.5 19.5q13 0 27 -4t25.5 -12t19 -20.5t7.5 -30.5t-6.5 -30.5t-14.5 -24.5q-1 -1 -1.5 -2t-1.5 -2l-2 -2q-1 -1 -2.5 -4t-3.5 -5q-17 -23 -36 -49t-38.5 -52t-38 -51.5t-34.5 -47.5l-84 25zM98 116v-1q3 10 9.5 20.5t16.5 19.5t24 14.5t34 5.5
q13 0 26.5 -4t25 -12t19 -20.5t7.5 -30.5q0 -20 -6.5 -32.5t-15.5 -24.5l-4 -4q0 -1 -2 -4t-4 -5q-17 -23 -36 -49t-38.5 -52t-38 -51.5t-34.5 -47.5l-84 25z" />
    <glyph glyph-name="dagger" unicode="&#x2020;" horiz-adv-x="530" 
d="M9 485q54 -5 96.5 -7t83.5 -2q0 50 -3.5 107.5t-16.5 112.5q37 -6 62.5 -10t33.5 -4q7 0 32 4t63 11q-12 -55 -16 -114t-4 -107q40 0 92 2t118 10q-21 -62 -21 -76q0 -11 21 -75q-69 8 -120.5 11t-89.5 3q0 -48 1 -94t3 -94q1 -17 2 -41t1.5 -49t1.5 -47.5t1 -37.5
q-30 5 -53 8.5t-32 3.5q-8 0 -31.5 -3.5t-54.5 -8.5q0 6 0.5 17t1 23l1 24t0.5 20q1 14 1.5 26.5t0.5 22.5t0.5 19.5t0.5 18.5q1 27 1.5 49.5l1 45t1 45.5t0.5 52q-39 0 -89 -3t-120 -11q21 64 21 75q0 6 -3.5 18.5t-8.5 30.5z" />
    <glyph glyph-name="daggerdbl" unicode="&#x2021;" horiz-adv-x="536" 
d="M196 341q0 6 -0.5 11.5t-0.5 10.5v26q0 3 -0.5 2.5t-0.5 -1.5v-1v5q-41 0 -93 -2t-118 -10q21 61 21 75t-21 76q69 -8 121 -11t88 -3q0 11 -1 24.5t-2.5 33.5t-4 48.5t-6.5 68.5q31 -5 55 -8.5t35 -3.5q6 0 30 4t59 10q-8 -70 -11 -112t-3 -65q40 0 92 2.5t118 10.5
q-21 -62 -21 -75q0 -15 21 -76q-41 4 -71.5 7t-55 4t-45 1.5t-40.5 0.5v-10q-1 -11 -1 -21v-22v-23.5t1 -22.5v-7q42 0 92.5 2t119.5 10q-21 -62 -21 -75q0 -5 5 -24.5t16 -50.5q-66 8 -118 10.5t-92 2.5q0 -11 1 -24.5t2.5 -34t4 -48.5t6.5 -68q-34 5 -58.5 8.5t-30.5 3.5
q-11 0 -35 -3.5t-55 -8.5q8 70 11 111t3 64q-40 0 -91.5 -2.5t-117.5 -10.5q11 31 16 50.5t5 24.5q0 14 -21 76q39 -5 69.5 -7.5t55.5 -3.5t46 -1.5t41 -0.5v31q0 6 0.5 11.5t0.5 10.5z" />
    <glyph glyph-name="bullet" unicode="&#x2022;" horiz-adv-x="485" 
d="M16 341q0 39 17.5 73.5t48.5 60t72.5 40.5t88.5 15t88 -15t72 -40.5t48.5 -60t17.5 -73.5t-17.5 -73.5t-48.5 -60t-72 -40.5t-88 -15t-88.5 15t-72.5 40.5t-48.5 60t-17.5 73.5z" />
    <glyph glyph-name="ellipsis" unicode="&#x2026;" horiz-adv-x="1057" 
d="M55 77q0 18 8 34t22 28t32 19t39 7t39 -7t32 -19t22 -28t8 -34t-8 -34t-22 -27.5t-32 -18.5t-39 -7t-39 7t-32 18.5t-22 27.5t-8 34zM800 77q0 18 8 34t22 28t32 19t39 7t39.5 -7t32 -19t21.5 -28t8 -34t-8 -34t-21.5 -27.5t-32 -18.5t-39.5 -7t-39 7t-32 18.5t-22 27.5
t-8 34zM429 77q0 18 8 34t21.5 28t31.5 19t39 7t39 -7t31.5 -19t21.5 -28t8 -34t-8 -34t-21.5 -27.5t-31.5 -18.5t-39 -7t-39 7t-31.5 18.5t-21.5 27.5t-8 34z" />
    <glyph glyph-name="perthousand" unicode="&#x2030;" horiz-adv-x="1214" 
d="M56 495q0 52 18 86.5t46.5 55.5t62.5 29.5t66 8.5t66.5 -8.5t63 -29.5t46.5 -55.5t18 -86.5q0 -16 -2 -29.5t-5 -25.5l173 262q32 -11 43 -11q3 0 33.5 9t78.5 23l-274 -415q29 20 62.5 28.5t66.5 8.5q25 0 52 -5.5t51.5 -18t44.5 -33t32 -50.5q12 30 32 50.5t44.5 33
t52 18t53.5 5.5q32 0 66 -8.5t62.5 -29t46.5 -55t18 -86.5t-18 -86.5t-46.5 -55.5t-62.5 -29.5t-66 -8.5q-26 0 -53.5 5.5t-52 18t-44.5 33t-32 50.5q-12 -30 -32 -50.5t-44.5 -33t-51.5 -18t-52 -5.5q-33 0 -67 8.5t-62.5 29.5t-46.5 55.5t-18 86.5q0 26 6 52l-172 -260
q-16 5 -27 8.5t-14 3.5q-4 0 -35 -9t-79 -23l275 417q-28 -23 -63 -31.5t-67 -8.5t-66 9t-62.5 30t-46.5 55.5t-18 85.5zM938 166q0 -38 8.5 -62t34.5 -24t35 24t9 62q0 37 -9 61t-35 24t-34.5 -24t-8.5 -61zM575 166q0 -38 9 -62t35 -24t34.5 24t8.5 62q0 37 -8.5 61
t-34.5 24t-35 -24t-9 -61zM205 495q0 -37 9 -60.5t35 -23.5t34.5 23.5t8.5 60.5t-8.5 61t-34.5 24t-35 -24t-9 -61z" />
    <glyph glyph-name="guilsinglleft" unicode="&#x2039;" horiz-adv-x="237" 
d="M159 471q14 -19 43 -34t71 -20l-149 -171q20 -25 41.5 -52.5t41.5 -53.5h-1q5 -6 13 -16.5t17 -21.5t16.5 -21t12.5 -15q-17 -2 -33.5 -7.5t-31 -13.5t-25.5 -18.5t-16 -21.5l-190 239z" />
    <glyph glyph-name="guilsinglright" unicode="&#x203a;" horiz-adv-x="235" 
d="M-30 424q16 1 33 6.5t31.5 13.5t25.5 18.5t16 21.5l190 -240l-190 -226q-14 19 -43 34t-71 20l150 172z" />
    <glyph glyph-name="fraction" unicode="&#x2044;" horiz-adv-x="409" 
d="M312 690q1 0 9 -0.5t9 -0.5q22 -8 30 -8q3 0 12.5 2.5t24.5 7.5h-1q2 0 10.5 3t19 6t19.5 6t11 3l-361 -740q-3 1 -13.5 3t-13.5 3q-7 2 -11.5 3t-7.5 1t-28 -7t-67 -20z" />
    <glyph glyph-name="Euro" unicode="&#x20ac;" horiz-adv-x="709" 
d="M676 585q-11 -23 -19.5 -47.5t-16.5 -51.5l-62 -1q-26 37 -65 57.5t-73 20.5q-51 0 -91.5 -31t-62.5 -96h140q13 0 28 0.5t37 2t52.5 5t75.5 10.5q-15 -23 -27 -49t-21 -49q4 0 7 1q-5 -11 -9.5 -19.5t-8.5 -16.5q-2 -8 -2 -10h-3q-16 -34 -24.5 -58t-11.5 -35
q-42 5 -75 6.5t-59 1.5h-102q17 -61 59.5 -93t96.5 -32q38 0 83.5 21.5t94.5 63.5l45 -55q-5 -17 -9 -37.5t-8 -43.5q-18 -13 -44.5 -24t-57 -19.5t-62 -13t-59.5 -4.5q-60 0 -112 16t-93.5 46t-70.5 74t-43 100q-20 -2 -48 -5t-70 -10q15 30 25 55t16 47q-9 -2 -19.5 -3.5
t-22.5 -3.5q23 46 35.5 81t18.5 62q17 -3 38 -6t35 -4q17 52 48.5 95.5t75 75t96.5 49t113 17.5q53 0 112.5 -15t105.5 -38z" />
    <glyph glyph-name="trademark" unicode="&#x2122;" horiz-adv-x="1071" 
d="M187 585q-20 -1 -45.5 -2t-50.5 -2.5t-47.5 -3t-36.5 -2.5q2 3 7.5 11.5t11 17.5t10 16.5t6.5 9.5q1 3 4 3q-3 4 -8.5 12t-11.5 17t-11 17t-8 12q22 -1 54.5 -2.5t68 -3t68 -2.5t54.5 -1q20 0 49 1t61 2t63 2.5t55 2.5l1 1h62q29 -51 67 -109.5t74 -109.5q6 -8 9 -11.5
l6 -7t6.5 -8t10.5 -14.5l27 38q18 25 37.5 53.5t39.5 57.5t38.5 57.5t35.5 53.5h63l17 -145q4 -32 11.5 -76t15 -88.5t14.5 -84t11 -62.5q-28 6 -49 11t-31 5q-7 0 -25 -4t-42 -10q-2 51 -5.5 106.5t-13.5 111.5l-2 8q-17 -25 -36 -53.5t-36 -57t-32 -54.5t-25 -45h-51
q-15 26 -37.5 60t-42.5 63l-11 18h1l-20 28q-5 7 -10 14.5t-10 14.5l-1 1v-4q-8 -43 -11.5 -94.5t-5.5 -117.5q-2 0 -7 1.5t-11 3t-11 3t-6 1.5q-10 2 -17 4t-10 2q-2 0 -11 -2.5t-23 -6.5l-45 -9q24 86 38.5 159.5t26.5 139.5q2 20 6 44q-10 1 -18 1.5t-11 1.5q-32 2 -58 4
t-55 2v-90q0 -26 1 -60t2 -69.5t2.5 -69.5t2.5 -60q-27 7 -46.5 11t-27.5 4q-6 0 -26 -4t-46 -11v31.5t1 26.5q2 36 4 86.5t2 107.5v97zM468 620q3 16 6 36q-13 -20 -17 -22q1 0 3.5 -4.5t7.5 -9.5z" />
    <glyph glyph-name="minus" unicode="&#x2212;" horiz-adv-x="719" 
d="M39 324h640v-121h-640v121z" />
    <glyph glyph-name="fi" unicode="&#xfb01;" horiz-adv-x="618" 
d="M351 594q-19 8 -33.5 13t-27.5 5q-29 0 -41.5 -16.5t-12.5 -36.5q0 -6 2.5 -26t5.5 -40v-1h63q11 0 30 0.5t27 0.5q0 -1 -0.5 -14.5t-0.5 -17.5v-14q-2 -6 -2 -8t2 -8v-17q0 -4 0.5 -17t0.5 -14h-47q-8 0 -16 0.5t-12 0.5q-8 0 -13 0.5t-10 0.5t-5.5 0.5t-1 0.5h-2.5h-8
q0 -46 0.5 -97.5t1 -103.5t1.5 -102.5t3 -94.5q-29 5 -52.5 8.5t-34.5 3.5q-8 0 -32.5 -3.5t-56.5 -8.5q8 100 11 199.5t3 198.5q-4 0 -8.5 -1t-7.5 -1h-24h-11.5t-15 -0.5t-14 -0.5h-7.5q3 18 6 34t3 20q0 2 -2 12q0 3 -1 9t-1.5 12.5t-1.5 13t-1 9.5h9t15 -0.5t16 -0.5h13
h36q4 28 13 57.5t22.5 57t31.5 52t39 41.5q25 19 62.5 34t76.5 15q5 0 20.5 -3.5t38.5 -8.5q0 -25 -0.5 -40t-1.5 -23v-3q-1 -11 -2 -30t-1 -28zM418 292q0 37 -3.5 90t-13.5 122q35 -5 60 -8t36 -3t35.5 3t58.5 8q-10 -69 -13.5 -122t-3.5 -90v-92q0 -38 3.5 -90.5
t13.5 -121.5q-32 5 -57.5 8.5t-36.5 3.5t-36 -3.5t-60 -8.5q10 69 13.5 121.5t3.5 90.5v92zM403 616q0 17 7.5 32t20.5 26t30 17.5t36 6.5q39 0 66 -24t27 -58q0 -35 -27 -58.5t-66 -23.5q-19 0 -36 6.5t-30 17.5t-20.5 26t-7.5 32z" />
    <glyph glyph-name="fl" unicode="&#xfb02;" horiz-adv-x="625" 
d="M351 594q-19 8 -33.5 13t-26.5 5q-30 0 -42.5 -16.5t-12.5 -36.5q0 -6 2.5 -26t5.5 -40v-1h63q11 0 30 0.5t27 0.5q0 -1 -0.5 -14.5t-0.5 -17.5v-14q-2 -6 -2 -8t2 -8v-17q0 -4 0.5 -17t0.5 -14h-47q-8 0 -16 0.5t-12 0.5q-8 0 -13 0.5t-10 0.5q-4 0 -5 0.5t-1.5 0.5
h-2.5h-8q0 -46 0.5 -97.5t1 -103.5t2 -102.5t3.5 -94.5q-30 5 -53.5 8.5t-33.5 3.5q-8 0 -33 -3.5t-57 -8.5q9 110 11.5 207t2.5 191q-5 0 -7.5 -1t-6.5 -1t-11.5 -0.5t-15.5 -0.5h-47q4 18 6.5 34t2.5 20q0 2 -2 12q0 3 -1 9t-1.5 12.5t-1.5 13t-1 9.5h9.5t15 -0.5
t16.5 -0.5h13h35q4 28 13 57.5t23 57t32 52t39 41.5q24 19 61.5 34t77.5 15q4 0 19.5 -3.5t38.5 -8.5q0 -25 -0.5 -40t-1.5 -23v-3q-1 -11 -1.5 -30t-0.5 -28zM425 452q0 30 -1 67t-2.5 77t-4 80.5t-6.5 77.5q32 -5 57 -8.5t35 -3.5q11 0 36 3.5t57 8.5q-4 -36 -6.5 -76.5
t-4.5 -81t-3 -77.5t-1 -67v-162q0 -30 1 -67t3 -77.5t4.5 -81t6.5 -76.5q-32 5 -57 8.5t-36 3.5q-10 0 -35 -3.5t-57 -8.5q4 36 6.5 76.5t4 80.5t2.5 77.5t1 67.5v162z" />
    <glyph glyph-name="glyph229" horiz-adv-x="720" 
d="M343 162q0 -2 -1.5 -6t-1.5 -5v-7h-4v10q4 4 7 8zM288 144q4 7 4 18h15q-7 0 -7 -8q0 -25 3 -32h4q2 5 7 14h4v-14h-11q-1 0 -2.5 1t-2.5 3t-2 3h-8q0 1 -2 6t-2 9zM374 110v15q3 0 5 1.5t3 2.5v-13q2 -1 4 -2.5t6 -3.5l1 -16q-6 7 -19 16zM89 627q24 7 64 7q25 0 37 -7
q10 -7 34 -7q19 9 22 18q29 0 33 24l9 4q2 3 7 5q5 0 5 2q5 2 7.5 6.5t10.5 4.5q1 3 7 6q7 2 7 5q32 0 32 18q8 0 13 6q4 7 12 7q1 2 9.5 5t8.5 6q7 0 10 3q12 8 16 8l9 4q7 2 7 7q11 0 22 4q11 3 19 3q0 4 7 8q7 2 8 3l89 19l42 -4l15 -8q7 -3 11 -7q10 -7 31 -18l7 -42
q-42 0 -42 5q-5 0 -14 4t-11 4q0 4 -1.5 5.5t-6.5 4.5h-68q-3 -3 -7 -10q-7 0 -21 -4t-21 -4q-13 -9 -18.5 -9t-14.5 -3q-4 0 -8 -6l-6 -6q-10 -3 -8 -3h-4q-1 -3 -8.5 -5l-7.5 -2q-3 0 -5.5 -2t-6.5 -5t-6 -5q-11 0 -15 -10q-5 0 -6 -2.5t-1 -9.5q-6 0 -13.5 -3.5t-8 -3.5
t-6.5 -4.5t-14 -4.5q-2 -1 -7 -2t-8 -6q-2 -1 -4 -4q-2 -5 -3 -6q-11 0 -11 -8q-4 0 -7 -1.5t-6 -4.5l-5 -5q-15 0 -15 -11q-5 0 -13 -7v-11q-4 -3 -6.5 -4t-4.5 -5v-15q6 -7 11 -7v-48q-6 0 -11 -9v-11q-2 -2 -4 -3q-3 -2 -7 -4v-22q-6 -3 -7 -4.5t-1 -10.5q0 -11 -3 -11
l-7 -7q-9 -4 -10.5 -6t-1.5 -10q-9 -4 -15 -8t-8 -11q-11 -11 -44 -11q-17 11 -35 11q-2 3 -7 11h-15q-3 0 -9 4q-7 4 -13 4q0 11 -11 16q0 7 -4 11q-10 0 -21 -1l-11 -1q-4 0 -11 7q-3 2 -6 2v55q2 3 5 5l6 4l4 83q1 0 2.5 1t2.5 3t2 3v15q5 2 6 6t5 4q0 1 10 4.5t10 7.5
q21 7 26 7zM385 132q-4 5 -7 7q-4 1 -15 1v18q6 -6 18 -14q0 -8 4 -12zM400 132q3 -3 3 -7q-3 3 -10 7h7zM403 125h7q5 2 12 10q6 9 10 9q-1 -4 -3.5 -6t-6.5 -6v-14l6 -4t4 -4q-4 0 -10 -7v-13l7 -7h17q1 -6 4 -10q2 -6 18 -12q3 11 3 22q-9 11 -22 11v31q3 0 11 7l-6 6
q-3 2 -5 6q2 -1 12 -5q6 -2 17 -5q6 -2 19 -2v-22q3 -2 6.5 -3.5t4.5 -3.5q0 -16 4 -20h9q3 3 3 14v6q9 0 13 1.5t9 5.5q-7 8 -11 8v14q3 0 11 8v26q-3 2 -6 3.5t-5 5.5q0 8 -1.5 10t-9.5 5q7 0 12.5 5t6.5 5v-10q0 -8 7 -8q3 -10 4 -11.5t7 -4.5q0 -15 8 -22h3q2 2 4 8t3 6
q20 7 20 24q5 0 18 8v-58h-7q-3 -3 -3 -14q-4 -1 -14 -8q10 -7 32 -7q0 -5 -2 -6.5t-5 -6.5v-36q-4 2 -5.5 3.5t-2 3.5t-3.5 7h-20q0 -2 -2 -6q-2 -6 -2 -8q-4 0 -11 -8q7 0 11 -3v-7q-2 -2 -5 -3.5t-6 -4.5v-16q-19 0 -22 -8v-7l1 -1q0 1 -4 1q0 3 -2 8t-2 7q-18 0 -23 -8
v-7q11 -11 22 -11v-7h-7q-12 -5 -21 -7q-4 -1 -10 -1v15q7 0 7 7q0 35 -3 43h-3q-8 -8 -8 -39q-7 0 -11 -4v-14h-26l-4 -8v-38q-10 0 -24 -4q9 -7 14 -7v-18q-6 2 -6 6q0 3 -7 5h-4q-5 -2 -6 -5q-2 -4 -5 -6v18q3 0 11 7q0 57 -7 64h-4q-1 -1 -3 -2l-1 -1l4 3q-4 4 -11 4
q0 31 -7 39h-4q-6 -3 -5 -21q1 -34 1 -31v-55q0 -1 4 -3t4 -4v-7q0 -1 -3.5 -4.5t-3.5 -6.5h-29v25q0 2 -1 3l-4 2q-2 1 -5 3q-2 7 -7 16h-4q-7 -7 -7 -24q3 -2 7 -3l4 -4v-7q-5 -4 -15 -11q3 0 11 11v7q0 7 -18 7q-15 0 -18 -7v-11q0 4 -7 4q0 10 -5 15q-5 4 -16 7v16l-7 4
h-15v14q-6 8 -11 8q-4 12 -22 18v31q11 3 11 15q2 0 5.5 1.5t5.5 1.5q0 19 -4 22h-7q-3 -3 -3 -14q-5 0 -19 -8v44q4 0 7 2t4 2v38h18v-14q-5 0 -7 -4q-2 -2 -3 -4q29 0 36 8v7l-4 4l4 -4h17q0 -31 3 -35h-9l-7 -7v-15q-6 -2 -7 -3.5t-4 -10.5q-4 0 -11 -8h35v-10
q-9 -4 -13 -8q0 -11 7 -24q10 4 21 17v22h7q1 -12 3 -31h8q4 3 4 16q18 0 21 8v7l-7 7l7 4v14q3 -2 8 -3.5t7 -3.5q0 -8 1 -9.5t5 -8.5q27 0 32 11v9h-1q1 -2 5 -2q6 8 6.5 11t0.5 11q3 0 11 7v20q-7 8 -11 8q0 2 -2 4t-2 3zM617 129q2 -1 3 -2l1 -2h8q0 -3 -4 -7h-3
q-5 4 -5 11zM629 125q0 4 3 7q0 -2 -1 -3q-2 -3 -2 -4zM632 132v50q4 0 11 8v10h15l4 8v22h7v-90q-1 -2 -5 -3q-3 -2 -6 -5v-14l-14 -8q0 19 -8 22h-4zM456 -67q2 -1 3 -2l1 -2v3q-1 1 -4 1zM460 -71q4 -1 9 -8l6 -6q0 7 -7 14h-8zM468 -67q3 9 3 31h15q2 -2 3 -4q0 -4 4 -6
q2 -1 4 -1q-2 -2 -5 -3.5t-6 -3.5v-9q0 -5 -3 -5q-3 1 -6 1h-9zM414 -10q-1 -5 -1 -15v-12q0 -20 -2 -26h-4v49q3 0 7 4zM307 -89l3 -4q0 3 -1 4h-2zM310 -93q4 0 8 -3q-8 0 -8 3zM264 129q-3 0 -7 3v12l-7 7h-15v15q11 0 11 9v7q-1 3 -5.5 5t-5.5 3v10q-6 8 -11 8
q3 0 7 2.5t4 4.5v7q0 3 -4 4q-5 2 -7 4v34h8v-16l3 -7h15v-33q-8 0 -8 -8v-7q0 -3 8 -3v-24q2 -1 6 -4t5 -4v-26zM296 90q4 4 4 20h13q-2 -1 -3.5 -3t-2.5 -4v-31q-1 1 -3 2.5t-4 1.5q0 7 -4 14zM307 72l4.5 -2t6.5 -2h-8q-1 1 -1 2zM318 68q1 7 7 15v-15h-7zM531 237
q2 -2 3 -4l4 -2q2 -1 4 -1l1 -15h-18q0 8 -1.5 10t-11.5 5q0 34 -4 42h-3q-4 -2 -5 -8q-2 -6 -3 -7h-4v15h15q1 6 4 14h9v-14q8 -8 11 -8zM511 305q0 7 -6 7q-8 -7 -12 -7v14h15q0 -3 1.5 -8t1.5 -6zM300 290h-12q0 -2 -1.5 -6t-1.5 -5q-27 -7 -28 -7v25h15l7 8v14
q27 0 31 20q18 5 22 22h15q0 -29 7 -34h4q6 5 6 20q7 4 10 7v15q9 -8 11 -8h8q-1 0 7 8q0 -18 7 -22h4l3.5 7l3.5 7h15q1 -5 4 -11q1 -1 9 -3q-14 0 -14 -8v-7q4 -5 36 -5v-15h-39q-2 2 -3 8q-3 6 -4 7h-4q-2 -5 -7 -15h-4q-2 3 -7 15h-15q0 -6 -3 -15h-8q0 4 -3 15h-28
q-2 -6 -7 -15q-10 0 -20 -8z" />
    </font>
</defs>
</svg>
