<?xml version="1.0" standalone="no"?>
<!DOCTYPE svg PUBLIC "-//W3C//DTD SVG 1.1//EN" "http://www.w3.org/Graphics/SVG/1.1/DTD/svg11.dtd" >
<svg xmlns="http://www.w3.org/2000/svg" xmlns:xlink="http://www.w3.org/1999/xlink" version="1.1">
<metadata>
Created by FontForge 20170731 at Mon Apr 12 07:35:38 2004
 By Aleksey,,,
Copyright (c) LDO Fonts, 2004. All rights reserved.
</metadata>
<defs>
<font id="OregonLDOBookSinistral" horiz-adv-x="176" >
  <font-face 
    font-family="Oregon LDO Book Sinistral"
    font-weight="400"
    font-style="italic"
    font-stretch="normal"
    units-per-em="1000"
    panose-1="2 11 5 3 6 4 2 2 2 4"
    ascent="800"
    descent="-200"
    x-height="469"
    cap-height="684"
    bbox="-83 -308 1052 922"
    underline-thickness="50"
    underline-position="-150"
    slope="-12"
    unicode-range="U+0020-FB02"
  />
<missing-glyph horiz-adv-x="278" 
 />
    <glyph glyph-name=".notdef" horiz-adv-x="278" 
 />
    <glyph glyph-name=".null" horiz-adv-x="0" 
 />
    <glyph glyph-name="nonmarkingreturn" horiz-adv-x="278" 
 />
    <glyph glyph-name="space" unicode=" " horiz-adv-x="278" 
 />
    <glyph glyph-name="space" unicode="&#xa0;" horiz-adv-x="278" 
 />
    <glyph glyph-name="exclam" unicode="!" horiz-adv-x="174" 
d="M117 173q-8 29 -17 56.5t-18 57.5q-19 64 -37.5 126.5t-33.5 113.5t-24.5 85t-10.5 41q-5 25 6.5 35t27.5 10q17 0 33.5 -10t21.5 -35q1 -7 5.5 -41t11 -85t14.5 -113.5t16 -126.5q5 -29 8 -57.5t7 -56.5h-10zM97 41q-5 21 8 36.5t34 15.5t40 -15.5t24 -36.5
q5 -22 -8 -37.5t-34 -15.5t-40 15.5t-24 37.5z" />
    <glyph glyph-name="quotedbl" unicode="&#x22;" horiz-adv-x="289" 
d="M17 698h42l59 -282h-42zM168 698h42l59 -282h-42z" />
    <glyph glyph-name="numbersign" unicode="#" horiz-adv-x="442" 
d="M131 438h-74q3 17 3.5 37t-3.5 36h73v101t-1 44q5 -1 9 -1h9h12q-1 -5 -2 -13.5t-1 -24.5v-41.5t1 -64.5h125v101t-1 44q5 -1 9 -1h9h12q-1 -5 -2 -13.5t-1 -24.5v-41.5t1 -64.5h73q-3 -16 -3.5 -36t3.5 -37h-73l1 -221h74q-4 -16 -4 -36.5t3 -36.5h-73v-31t1 -27
q-1 -43 -1 -61v-27h-1q-2 1 -7 1.5t-8 0.5q-5 0 -13 -2q0 5 0.5 13.5t1 25t0.5 42.5v65h-125q-1 -15 -1 -31t1 -27v-88h-1q-2 1 -7 1.5t-8 0.5q-5 0 -13 -2q0 5 0.5 13.5t1 25t0.5 42.5v65h-73q4 16 4 36.5t-3 36.5h73zM283 438h-127l2 -221h127zM129 -2q0 -2 -0.5 -4
t-0.5 -4l-7 7q2 0 3 0.5t3 0.5h2v0zM281 -2q0 -2 -0.5 -4t-0.5 -4l-7 7q2 0 3 0.5t3 0.5h2v0zM281 656q-2 1 -3 1t-2 1l5 5v-6v-1v0zM129 656q-2 1 -3 1t-2 1l5 5v-6v-1v0z" />
    <glyph glyph-name="dollar" unicode="$" horiz-adv-x="442" 
d="M213 307q-49 18 -86.5 35.5t-64 39t-43 48t-23.5 62.5q-15 72 22 119.5t117 58.5q-4 20 -8.5 39.5t-12.5 36.5q5 -2 9 -2h10q13 0 18 2q0 -18 3 -36t8 -38q34 0 59 -4t44.5 -10.5t33.5 -14.5t26 -15q-5 -16 -6.5 -33t-2.5 -41h-4q-8 13 -20 28t-29.5 28.5t-41 22.5
t-53.5 11l57 -269q47 -17 85 -33.5t66 -36.5t45.5 -46t25.5 -61q8 -37 3 -71.5t-23 -62t-48 -47.5t-72 -28q6 -29 12.5 -56.5t16.5 -53.5q-5 2 -9.5 2h-10.5q-13 0 -18 -2q-2 23 -6 49.5t-11 56.5q-9 -1 -16 -1h-17q-45 0 -87 11.5t-85 40.5q4 19 3.5 37t-2.5 43h5
q25 -32 50.5 -52.5t50 -32t47.5 -16t45 -4.5zM301 16q52 12 74 53t11 92q-4 17 -11 33t-22.5 32.5t-42 34t-68.5 35.5zM141 643q-23 -4 -41 -14.5t-28.5 -27t-14 -37.5t1.5 -45q11 -50 44.5 -81.5t92.5 -51.5z" />
    <glyph glyph-name="percent" unicode="%" horiz-adv-x="851" 
d="M-16 508q-8 35 -3 65t21 52t42.5 34.5t62.5 12.5t67.5 -12.5t57 -34.5t43 -52t25.5 -65q7 -35 2.5 -65t-20.5 -51.5t-42.5 -34t-62.5 -12.5t-68 12.5t-57.5 34t-43 51.5t-24.5 65zM550 147q-8 35 -3 65t21.5 51.5t43 34t62.5 12.5t67.5 -12.5t57 -34t43 -51.5t25.5 -65
q7 -35 2 -65t-21 -51.5t-42.5 -34t-62.5 -12.5t-68 12.5t-57 34t-43 51.5t-25 65zM615 147q6 -29 17.5 -56t27 -47.5t36 -33t44.5 -12.5t38.5 12.5t22 33t7.5 47.5t-6 56t-17.5 56t-27.5 47.5t-36 33t-44 12.5t-39 -12.5t-22.5 -33t-7 -47.5t6.5 -56zM48 508q6 -29 17.5 -56
t27.5 -47.5t36.5 -33t44.5 -12.5t38.5 12.5t22 33t7 47.5t-6.5 56t-17.5 56t-27.5 47.5t-36 33t-44 12.5t-39 -12.5t-22.5 -33t-7 -47.5t6.5 -56zM513 693q10 -3 23 -3q4 0 7 0.5t7 1.5q-55 -186 -108.5 -365t-107.5 -365q-7 3 -12.5 3.5t-10.5 0.5q-10 0 -14 -2z" />
    <glyph glyph-name="ampersand" unicode="&#x26;" horiz-adv-x="641" 
d="M100 524q-7 31 -1.5 58t21.5 47t41.5 31.5t58.5 11.5q56 0 98.5 -28t53.5 -81q6 -28 -2 -54t-23.5 -49t-36.5 -41.5t-41 -31.5l17 -17t16 -17q51 -51 102.5 -102t99.5 -95q27 52 46.5 99.5t33.5 97.5q8 -9 17.5 -16.5t18.5 -13.5q-19 -46 -42 -91t-55 -96
q38 -35 77.5 -69.5t77.5 -69.5q-1 0 -1 -1q-1 0 -1 1q-26 3 -52 3q-11 0 -23.5 -1t-22.5 -3q-2 0 -3.5 -0.5t-3.5 -0.5q-12 14 -34.5 38.5t-51.5 50.5q-37 -47 -82 -74.5t-116 -27.5q-38 0 -74.5 10.5t-66.5 31.5t-51.5 52t-30.5 72q-7 32 0.5 63.5t26.5 59.5t48.5 51.5
t65.5 40.5q-41 45 -69 85t-36 76zM133 166q6 -29 23 -55.5t41.5 -46.5t55.5 -32.5t65 -12.5q53 0 87.5 20t63.5 57q-64 62 -127.5 126t-122.5 127q-52 -35 -76 -76t-10 -107zM330 564q-8 39 -37 64t-68 25q-42 0 -61 -28.5t-10 -71.5q3 -15 12.5 -34.5t23 -39.5t30.5 -40.5
t35 -38.5q48 34 66 78.5t9 85.5z" />
    <glyph glyph-name="quotesingle" unicode="'" horiz-adv-x="144" 
d="M18 698h42l59 -282h-42z" />
    <glyph glyph-name="parenleft" unicode="(" horiz-adv-x="215" 
d="M102 684q-27 -49 -40.5 -96.5t-16 -96.5t4.5 -101t19 -110t27.5 -110t39 -101t56.5 -96.5t81 -96.5q-2 -3 -5 -5.5t-5 -5.5q-96 86 -159.5 193.5t-87.5 221.5q-11 54 -12.5 109.5t7.5 109t27.5 103.5t47.5 93z" />
    <glyph glyph-name="parenright" unicode=")" horiz-adv-x="215" 
d="M112 -125q27 49 40 96.5t15.5 96.5t-4 101.5t-18.5 110.5t-28 110t-39 101t-56.5 96.5t-80.5 96.5l5 5t5 6q95 -86 158.5 -193.5t88.5 -221.5q11 -54 12.5 -109.5t-7.5 -109t-28 -103.5t-48 -93z" />
    <glyph glyph-name="asterisk" unicode="*" horiz-adv-x="366" 
d="M122 682q5 -1 10.5 -1.5t13.5 -0.5q7 0 12.5 0.5t10.5 1.5l18 -162q25 23 53.5 48t54.5 48q5 -11 14.5 -23t18.5 -20l-133 -66q37 -15 80.5 -33t81.5 -35q-6 -7 -10.5 -18t-5.5 -22l-149 90q12 -37 26 -79t26 -79q-7 2 -12 2.5t-13 0.5q-7 0 -11.5 -0.5t-9.5 -1.5
l-21 157q-24 -20 -52.5 -45t-54.5 -46q-10 25 -31 41l131 67q-38 15 -82 34t-82 34q6 8 10 19.5t4 22.5l150 -95z" />
    <glyph glyph-name="plus" unicode="+" horiz-adv-x="512" 
d="M0 273h230l-49 230h42l49 -230h231l9 -43h-231l49 -230h-42l-49 230h-231z" />
    <glyph glyph-name="comma" unicode="," 
d="M71 69q1 12 7.5 23.5t25.5 11.5q11 0 23 -7t15 -22q2 -11 0 -19.5t-4 -16.5l-1 2q-1 -1 0 -1.5t0 -1.5q-20 -53 -40.5 -107t-40.5 -107q-5 3 -10 5z" />
    <glyph glyph-name="hyphen" unicode="-" horiz-adv-x="336" 
d="M40 256h243l11 -53h-243z" />
    <glyph glyph-name="period" unicode="." 
d="M33 41q-5 21 8 36.5t34 15.5t40 -15.5t24 -36.5q5 -22 -7.5 -37.5t-33.5 -15.5t-40.5 15.5t-24.5 37.5z" />
    <glyph glyph-name="slash" unicode="/" horiz-adv-x="334" 
d="M207 701q10 -3 23 -3q7 0 17 2q-30 -184 -59.5 -361t-61.5 -360q-11 3 -23 3q-7 0 -17 -2z" />
    <glyph glyph-name="zero" unicode="0" horiz-adv-x="534" 
d="M35 328q-15 70 -16 132.5t16 109.5t55 74.5t103 27.5q72 0 123 -27.5t86.5 -74.5t58.5 -109.5t38 -132.5q14 -68 13.5 -130.5t-18.5 -110t-56 -75.5t-98 -28q-72 0 -123 27.5t-86.5 74t-58 109t-37.5 133.5zM108 328q14 -69 34.5 -127.5t48 -102t63.5 -68t81 -24.5
t70 24.5t34.5 68t5 102t-18.5 127.5q-15 68 -35.5 127t-48 102t-63.5 67.5t-81 24.5t-70.5 -23t-35 -65t-5 -101t20.5 -132z" />
    <glyph glyph-name="one" unicode="1" horiz-adv-x="278" 
d="M95 620q-26 -16 -55 -34.5t-53 -34.5q-6 7 -16 15.5t-19 13.5q53 24 105 51t99 54l2 -1q21 -132 48 -264l36 -169q14 -66 30 -128.5t33 -126.5q-12 2 -22.5 3t-21.5 1t-21 -1t-21 -3q-9 66 -20.5 127.5t-25.5 127.5z" />
    <glyph glyph-name="two" unicode="2" horiz-adv-x="480" 
d="M20 577q20 50 58.5 72.5t99.5 22.5q39 0 75.5 -10t66.5 -31.5t52 -54.5t32 -79q7 -34 5 -63t-12 -57.5t-27.5 -57t-42.5 -60.5v1q-5 -7 -11 -15.5t-12 -16.5q-29 -38 -64.5 -83.5t-59.5 -92.5h107q71 0 124.5 2t95.5 5q0 -17 4 -32q3 -17 9 -32q-54 2 -105.5 3.5
t-105.5 1.5t-106 -1.5t-106 -3.5l-1 7q82 102 131.5 171.5t74 123t28 98t-7.5 97.5q-8 39 -24 67.5t-36.5 47.5t-44 28t-47.5 9q-33 0 -54.5 -11.5t-34 -28.5t-17 -36.5t-4.5 -34.5v-2z" />
    <glyph glyph-name="three" unicode="3" horiz-adv-x="459" 
d="M4 615q17 20 47 38.5t83 18.5q39 0 75 -8.5t65.5 -26.5t50 -45.5t28.5 -65.5q8 -36 1 -64t-23 -48.5t-37.5 -33.5t-42.5 -19l4 -15q26 -2 57 -9.5t60.5 -24.5t52.5 -46t32 -72q9 -45 -1 -83.5t-37 -66.5t-70.5 -44t-100.5 -16q-46 0 -85 10.5t-68 21.5q2 10 1 25.5
t-3 30.5q12 -11 28 -22.5t35.5 -21t42 -16t46.5 -6.5q39 0 67.5 13t45.5 36t22 55t-3 71q-9 43 -26.5 73t-41 48.5t-52 26.5t-61.5 8q-11 0 -21 -1t-19 -3v6.5t-2 7.5q-1 9 -4 15q19 -3 41 -3q37 0 57 15.5t28 39t7 51.5t-7 54q-7 34 -22.5 58.5t-35 40.5t-41 23.5
t-42.5 7.5q-43 0 -69 -25t-31 -57l-1 -3zM89 76l6 -1q-2 -1 -1.5 -1t-0.5 -1v-1z" />
    <glyph glyph-name="four" unicode="4" horiz-adv-x="508" 
d="M34 193q31 62 64 129t64 130.5t57 118.5t43 93q8 -2 16.5 -3t16.5 -1q15 0 27 3q7 -44 17 -96.5t21 -109t23 -114.5t24 -112q29 0 53.5 2t41.5 4q0 -13 3 -26q2 -7 4 -13.5t4 -12.5q-17 2 -43 3t-55 1l11 -48q7 -33 16.5 -70t16.5 -65q1 -4 2 -5.5t1 -4.5q-10 2 -19 3
t-20 1t-20.5 -1t-19.5 -3q-4 29 -9 68t-13 77l-11 48q-22 0 -65 -1t-90 -2t-91 -2t-68 -2zM265 592q-17 -32 -41.5 -80.5t-50 -101t-47.5 -101t-34 -78.5h250z" />
    <glyph glyph-name="five" unicode="5" horiz-adv-x="461" 
d="M115 366q21 12 44.5 21t68.5 9q43 0 81.5 -15t68.5 -40.5t50.5 -59.5t28.5 -71q10 -47 0.5 -88t-35.5 -72t-68 -48.5t-97 -17.5q-43 0 -85.5 9t-79.5 29v3q2 13 3 28.5t0 27.5v1q13 -19 32.5 -33.5t41.5 -24t44.5 -14t43.5 -4.5q31 0 58 11.5t44 35.5t22.5 60.5
t-4.5 85.5q-10 45 -29 76t-43.5 50.5t-53 28.5t-56.5 9q-41 0 -65 -12.5t-33 -19.5q-2 1 -3 2t-3 2q-2 40 -10 82t-17 86q-9 42 -20 86t-22 79l3 3q8 -1 22.5 -2t34.5 -3q23 -2 53 -3t72 -1q47 0 83 0.5t56 1.5l2 -2q0 -25 6 -53l2 -11q-25 4 -62.5 6t-77.5 3.5t-77 2
t-61 0.5z" />
    <glyph glyph-name="six" unicode="6" horiz-adv-x="491" 
d="M312 643v-2q-27 8 -52 8q-40 0 -68.5 -18t-47 -47.5t-28.5 -68t-12.5 -79t0.5 -80.5t10 -73q8 19 20 39t29.5 36t41.5 26t56 10q26 0 61 -8t69.5 -28.5t63 -56.5t40.5 -93q11 -50 4.5 -91t-29 -70.5t-60 -46t-87.5 -16.5q-43 0 -85.5 15.5t-80 49.5t-67.5 89t-46 133
q-18 83 -14 156.5t29.5 128.5t74.5 86t121 30h23.5t16.5 -2zM421 187q-17 79 -60.5 129t-111.5 50q-31 0 -54.5 -13t-38.5 -37t-19 -57t4 -72q9 -40 26.5 -73.5t41 -57.5t52 -37t58.5 -13q33 0 56.5 13t36.5 37t15.5 57.5t-6.5 73.5z" />
    <glyph glyph-name="seven" unicode="7" horiz-adv-x="464" 
d="M391 646q-58 -155 -116 -320.5t-106 -329.5q-8 2 -17 3t-20 1q-6 0 -12.5 -0.5t-12.5 -1.5q31 76 65 161.5t64.5 167t56.5 152t43 117.5q-46 0 -137 -1.5t-216 -9.5q-1 11 -2 21t-3 20q-5 20 -11 38q41 -3 71.5 -4.5t59.5 -2.5q15 0 39 -0.5t51 -1t54 -0.5h48
q16 0 29.5 0.5t26.5 0.5h43z" />
    <glyph glyph-name="eight" unicode="8" horiz-adv-x="505" 
d="M63 177q-6 30 -4 58t14.5 52.5t36 44t60.5 32.5l-3 15q-20 5 -42.5 16t-42.5 28.5t-35 40t-21 51.5q-7 31 0 59.5t26.5 50t51.5 34.5t74 13q49 0 87.5 -12t66 -32t44 -46t22.5 -54q10 -46 -10.5 -87t-72.5 -59l3 -15q18 -3 45.5 -12.5t54.5 -28.5t49.5 -50t32.5 -76
q10 -49 1.5 -89t-32.5 -68t-61 -43.5t-83 -15.5q-47 0 -90 13t-78 37.5t-59.5 60.5t-34.5 82zM425 182q-8 38 -25 70t-40.5 55.5t-52.5 36.5t-62 13t-56 -13t-36.5 -36.5t-16.5 -55.5t5 -70q8 -39 24.5 -71t40 -55.5t52.5 -36.5t62 -13t56 13t36.5 36.5t17 55.5t-4.5 71z
M328 514q-6 27 -18 51.5t-30 43t-42 29.5t-54 11t-49.5 -11t-29 -29.5t-11 -43t4.5 -51.5t17.5 -51.5t29.5 -43t42 -29.5t54 -11t49.5 11t29.5 29.5t11.5 43t-4.5 51.5z" />
    <glyph glyph-name="nine" unicode="9" horiz-adv-x="498" 
d="M168 -4q-5 11 -12.5 23.5t-15.5 24.5q25 -18 52 -28t54 -10q56 0 89 32.5t47 85t12 117.5t-16 130q-19 -48 -53.5 -78t-94.5 -30q-89 0 -151 51.5t-82 145.5q-9 45 -2 83.5t29.5 67t59.5 45t87 16.5q44 0 87.5 -15.5t81.5 -50t68 -89.5t47 -133q18 -83 13.5 -156
t-30.5 -127t-74 -85.5t-118 -31.5q-23 0 -44 3.5t-34 8.5zM350 486q-8 36 -24 66t-39.5 51.5t-52 33.5t-59.5 12q-62 0 -90 -51t-10 -138q20 -91 63.5 -130.5t103.5 -39.5q36 0 60.5 16.5t37.5 44t15.5 62.5t-5.5 73zM138 47q0 -1 1 -1.5t1 -1.5l-4 3h2v0z" />
    <glyph glyph-name="colon" unicode=":" horiz-adv-x="185" 
d="M-1 412q-5 21 7.5 37t33.5 16t40 -16t24 -37q5 -22 -8 -37.5t-34 -15.5t-40 15.5t-23 37.5zM77 41q-5 21 8 36.5t34 15.5t40 -15.5t24 -36.5q5 -22 -8 -37.5t-34 -15.5t-40 15.5t-24 37.5z" />
    <glyph glyph-name="semicolon" unicode=";" horiz-adv-x="192" 
d="M113 69q1 12 7.5 23.5t25.5 11.5q11 0 23 -7t15 -22q2 -11 0 -19.5t-4 -16.5l-1 2v-3q-20 -53 -40 -107t-40 -107q-3 2 -5.5 3t-5.5 2zM16 412q-5 21 7 37t33 16q22 0 41 -16t24 -37q5 -22 -7.5 -37.5t-34.5 -15.5q-21 0 -39.5 15.5t-23.5 37.5z" />
    <glyph glyph-name="less" unicode="&#x3c;" horiz-adv-x="549" 
d="M-2 275q114 59 226.5 117.5t226.5 117.5l9 -40l-428 -218q128 -54 260 -109.5t261 -109.5l8 -40q-141 60 -277 118.5t-277 118.5z" />
    <glyph glyph-name="equal" unicode="=" horiz-adv-x="559" 
d="M531 329h-504l-9 42h504zM573 132h-504l-9 42h504z" />
    <glyph glyph-name="greater" unicode="&#x3e;" horiz-adv-x="548" 
d="M87 33l427 219q-128 54 -259.5 109t-259.5 109l-9 40l276.5 -118.5t277.5 -118.5l9 -45q-114 -59 -226.5 -117.5t-227.5 -117.5z" />
    <glyph glyph-name="question" unicode="?" horiz-adv-x="286" 
d="M-45 668q17 11 37.5 20.5t54.5 9.5q35 0 64.5 -10.5t51.5 -28t36.5 -41t19.5 -49.5q6 -28 2.5 -52t-13 -45.5t-23.5 -40.5t-28 -37q-25 -32 -43 -64t-10 -70q5 -22 24 -43.5t48 -21.5q9 0 16.5 2t13.5 4q-2 -5 -3 -10t-1 -10q-5 -2 -12 -3t-17 -1q-12 0 -31 5.5t-38 18.5
t-35.5 33t-22.5 50q-5 25 -1.5 47t12.5 41.5t21.5 37t26.5 34.5q25 32 43 64.5t10 73.5q-5 21 -16.5 37.5t-27 28t-33.5 17.5t-34 6q-26 0 -46.5 -11.5t-34.5 -29.5zM133 41q-5 21 7.5 36.5t34.5 15.5q21 0 39.5 -15.5t23.5 -36.5q5 -22 -7.5 -37.5t-33.5 -15.5
q-22 0 -40.5 15.5t-23.5 37.5zM209 203q-3 -3 -3 -2q0 3 4 7l4 -7q-1 0 -5 2z" />
    <glyph glyph-name="at" unicode="@" horiz-adv-x="685" 
d="M417 519h41q0 -92 0.5 -145t1 -81.5t1.5 -40t3 -18.5q4 -19 17 -29.5t30 -10.5q21 0 42 15t35.5 42t20.5 64t-3 80q-11 51 -32 94t-56.5 74t-86.5 48.5t-123 17.5q-62 0 -109.5 -25t-76.5 -69t-38 -103t6 -128q13 -62 42.5 -108t70.5 -77.5t92 -47t107 -15.5q34 0 64.5 7
t57 18t47.5 24.5t38 27.5q1 -8 1 -10t1 -9q-11 -12 -30 -27t-47.5 -28t-66 -22t-83.5 -9q-49 0 -104 18.5t-104.5 57t-88.5 96.5t-56 138q-12 59 -0.5 115t47 100t93 71t136.5 27q82 0 140.5 -20.5t97.5 -53.5t61.5 -75.5t31.5 -86.5q12 -54 3.5 -98t-29 -75.5t-50.5 -48.5
t-62 -17q-40 0 -55.5 22.5t-23.5 61.5q-8 -15 -18 -30t-22.5 -27t-27.5 -19.5t-33 -7.5q-104 0 -131 130q-11 49 -5.5 90t23 71t46 46.5t64.5 16.5q30 0 54 -15t34 -47h10zM406 426q-8 35 -25 58t-59 23q-30 0 -49 -20t-28.5 -50.5t-10 -66.5t6.5 -68q11 -49 30 -74t58 -25
q31 0 49 24.5t26.5 59.5t8 73.5t-6.5 65.5z" />
    <glyph glyph-name="A" unicode="A" horiz-adv-x="662" 
d="M267 698q25 -41 55 -87.5t60 -94.5q48 -77 98 -155t95 -148t82 -126.5t60 -89.5q-24 3 -46 3q-12 0 -25 -1t-24 -3q-11 21 -25 46t-30.5 52.5t-33.5 55t-33 53.5q-9 16 -19.5 33t-19.5 31q-34 1 -69.5 1.5t-68.5 0.5q-32 0 -64.5 -0.5t-62.5 -1.5q-8 -37 -14.5 -74.5
t-12 -72.5t-9.5 -67t-6 -57q-8 2 -16.5 3t-17.5 1q-15 0 -27 -3q43 177 83 349.5t80 351.5h11zM263 580l-60 -277q10 0 30.5 -0.5t32.5 -0.5q14 -1 27.5 -1h27.5q28 0 60.5 0.5t60.5 1.5z" />
    <glyph glyph-name="B" unicode="B" horiz-adv-x="520" 
d="M33 428q-14 65 -29.5 128.5t-32.5 127.5q25 -2 51 -3t51 -1q14 0 27 0.5t27 1.5t26.5 2t26.5 1q42 0 81.5 -6.5t71.5 -22.5t54.5 -43.5t31.5 -68.5q8 -36 2 -64.5t-24 -50t-45.5 -36t-63.5 -22.5l3 -10q91 -6 150 -45t77 -122q12 -55 -3 -93t-46.5 -61.5t-74 -34
t-85.5 -10.5q-13 0 -25.5 0.5t-25.5 1.5q-12 1 -24.5 2t-24.5 1q-23 0 -46.5 -1t-45.5 -3q-11 66 -22 129t-25 129zM146 237q8 -34 16.5 -68t17.5 -69q4 -17 8 -36.5t9 -36.5q20 -2 48 -3.5t58 -1.5q34 0 62 11.5t46.5 34t25 55.5t-2.5 75q-10 45 -32.5 73.5t-55.5 45
t-76.5 23t-95.5 6.5h-51zM177 373q36 0 70.5 7.5t59 24.5t35.5 46t2 73q-9 43 -30 69t-49 40t-59 19t-61 5q-47 0 -81 -6q3 -16 6.5 -33.5t6.5 -34.5q5 -32 10.5 -64.5t12.5 -64.5l17 -81h60z" />
    <glyph glyph-name="C" unicode="C" horiz-adv-x="655" 
d="M474 9q35 0 64 8.5t52 21t41 26.5t30 25l3 -53q-8 -8 -25.5 -17.5t-42.5 -18t-57 -14t-69 -5.5q-79 0 -151 24t-130.5 70t-100 112.5t-59.5 151.5t-5 151.5t53 112.5t103.5 70t146.5 24q63 0 120.5 -13t102.5 -32q-4 -15 -3.5 -35t0.5 -36l1 -3q-13 12 -34.5 28t-49.5 30
t-61.5 24t-69.5 10q-61 0 -109 -19.5t-77.5 -60.5t-38 -103.5t9.5 -147.5q18 -86 53 -148t82 -103t103.5 -60.5t117.5 -19.5zM663 90l-2 1v-1v5z" />
    <glyph glyph-name="D" unicode="D" horiz-adv-x="706" 
d="M33 427q-14 65 -30 129t-33 129q38 -2 74.5 -3.5t74.5 -1.5q19 0 37.5 0.5t38.5 1.5q19 1 37.5 2t38.5 1q87 0 154.5 -23t117 -65.5t81 -104t48.5 -138.5q14 -67 9 -119.5t-24 -92.5t-49 -68t-67 -45.5t-77.5 -25.5t-80.5 -8q-17 0 -34 0.5t-35 1.5l-34 2t-34 1
q-32 0 -65 -1t-65 -3q-11 66 -21.5 128.5t-24.5 128.5zM143 253q11 -54 25 -110.5t28 -109.5q23 -5 61.5 -8t78.5 -3q57 0 110.5 13.5t90.5 50.5t51.5 101.5t-6.5 166.5q-19 90 -53.5 147.5t-81 91t-103 46.5t-119.5 13q-48 0 -88.5 -3t-70.5 -7q8 -49 18 -104.5t22 -110.5z
" />
    <glyph glyph-name="E" unicode="E" horiz-adv-x="416" 
d="M34 428q-14 65 -30 129t-33 128q46 -2 88.5 -3.5t88.5 -1.5q45 0 87.5 1.5t85.5 3.5q1 -6 1.5 -12t2.5 -14q2 -7 3.5 -13t3.5 -12q-14 1 -25 2l-22 2q-22 2 -44.5 3.5t-49 3t-57.5 2t-70 0.5q3 -13 5.5 -27t4.5 -27q3 -18 6.5 -37.5t8.5 -42.5l10 -46t10 -43l10 -50
q45 0 80.5 0.5t64.5 2t52.5 3t45.5 3.5q1 -6 1.5 -12t2.5 -13q3 -13 7 -24q-27 2 -62 3.5t-70.5 2.5t-66 1.5t-48.5 0.5q1 -9 3.5 -20t6 -28.5l8.5 -42.5t13 -61q13 -58 22 -98t14 -60q33 0 70.5 0.5t73.5 1.5t68.5 3.5t56.5 6.5q2 -13 5 -25q1 -12 6 -24q-46 2 -88 3.5
t-89 1.5q-46 0 -90 -1.5t-89 -3.5q-11 66 -21.5 129.5t-24.5 129.5z" />
    <glyph glyph-name="F" unicode="F" horiz-adv-x="413" 
d="M34 427q-14 65 -30 129t-33 129q46 -2 88.5 -3.5t88.5 -1.5q45 0 89.5 1.5t97.5 3.5q1 -6 1.5 -12t2.5 -14q3 -13 7 -24q-29 3 -68 5t-79 3.5t-77 2.5t-61 1l4 -19q6 -32 11.5 -61t12.5 -58q4 -18 7.5 -34t7.5 -33l14 -66q65 0 131 2t126 8q1 -7 1 -13t2 -12t3.5 -12
t3.5 -12q-26 2 -57.5 3.5t-66 2t-69.5 1t-67 0.5l19 -91q14 -66 30 -129t33 -128q-12 2 -23.5 3t-22.5 1t-22 -1t-22 -3q-11 66 -21.5 128.5t-24.5 128.5z" />
    <glyph glyph-name="G" unicode="G" horiz-adv-x="713" 
d="M596 571q-20 19 -46.5 37t-58.5 32t-67.5 22.5t-73.5 8.5q-64 0 -115 -19.5t-83 -60.5t-41.5 -103.5t8.5 -147.5q16 -76 49.5 -136.5t81.5 -102.5t110 -64.5t135 -22.5q22 0 45.5 2t44.5 6.5t39 11t30 15.5q-5 30 -11.5 62t-12.5 63q-6 28 -13.5 58t-14.5 56q-3 9 -5 18
q10 -2 21.5 -2.5t22.5 -0.5q20 0 38 3q3 -23 12.5 -69.5t26.5 -128.5l9 -41q2 -10 4.5 -19t4.5 -20q-21 -8 -50.5 -16t-63 -14.5t-67.5 -11t-63 -4.5q-89 0 -165.5 23t-136.5 68t-101.5 112t-59.5 155q-18 85 -4.5 151.5t55 112.5t108.5 70t156 24q92 0 159 -18.5t106 -36.5
q-5 -14 -7 -34.5t-1 -37.5h-5z" />
    <glyph glyph-name="H" unicode="H" horiz-adv-x="683" 
d="M539 427q-14 65 -30 128.5t-33 128.5q11 -2 22.5 -3t23.5 -1q11 0 22 1t21 3q11 -66 22 -128.5t25 -128.5l37 -174q14 -66 30 -129t33 -128q-11 2 -22.5 3t-22.5 1q-12 0 -23 -1t-21 -3q-11 66 -22 128.5t-25 128.5l-20 96q-54 1 -109 1.5t-109 0.5t-108.5 -0.5
t-107.5 -1.5l20 -96q14 -66 30 -129t33 -128q-11 2 -22.5 3t-23.5 1q-11 0 -22 -1t-21 -3q-11 66 -22 128.5t-25 128.5l-37 174q-14 65 -29.5 128.5t-32.5 128.5q11 -2 22 -3t22 -1q12 0 23 1t21 3q11 -66 22 -128.5t25 -128.5l9 -40h16t21 -0.5t21.5 -0.5h17.5
q70 -3 141 -3q33 0 71 0.5t70 2.5q17 0 38 0.5t38 0.5z" />
    <glyph glyph-name="I" unicode="I" horiz-adv-x="181" 
d="M33 427q-14 65 -29.5 128.5t-32.5 128.5q12 -2 23 -3t22 -1t22 1t22 3q11 -66 22 -128.5t25 -128.5l37 -174q14 -66 30 -129t33 -128q-12 2 -23.5 3t-22.5 1t-22 -1t-22 -3q-11 66 -22 128.5t-25 128.5z" />
    <glyph glyph-name="J" unicode="J" horiz-adv-x="286" 
d="M134 -262q43 2 64 23t26.5 57.5t-1.5 86t-20 109.5l-82 413q-14 65 -30 128.5t-33 128.5q11 -2 23 -3t23 -1t22 1t22 3q11 -66 21.5 -128.5t24.5 -128.5q5 -24 11.5 -55.5t14 -67t15.5 -74t16 -76.5q14 -68 26 -127.5t20 -94.5q9 -44 3.5 -82.5t-25.5 -67t-53 -45.5
t-78 -17z" />
    <glyph glyph-name="K" unicode="K" horiz-adv-x="581" 
d="M159 0q-24 0 -44 -4q-10 64 -21 128t-25 129l-37 174q-14 65 -29.5 128.5t-32.5 128.5q11 -2 22.5 -3t22.5 -1t22 1t22 3q11 -66 21.5 -128.5t24.5 -128.5l12 -56q3 -13 14 -13q6 0 14 9q29 31 59.5 69t61.5 79.5t60.5 84.5t56.5 84q10 -2 20 -3t21 -1q8 0 15 0.5t15 1.5
q-29 -32 -63.5 -72t-69 -82.5t-65 -83t-50.5 -71.5q51 -48 105 -97t107 -98q49 -45 97.5 -90t99.5 -91q-14 2 -25 2.5t-23 0.5q-14 0 -27.5 -1t-25.5 -3q-31 30 -66.5 64.5t-72 70t-71.5 69t-65.5 62t-54 50t-35.5 31.5q-10 9 -18 9q-5 0 -6.5 -3.5t-0.5 -7.5l18 -88
q14 -66 30 -129t33 -128q-11 2 -23 3t-23 1zM109 -5q2 0 3 0.5t3 0.5l1 -6l-7 5v0z" />
    <glyph glyph-name="L" unicode="L" horiz-adv-x="411" 
d="M34 427q-14 65 -30 128.5t-33 128.5q12 -2 23 -3t22 -1t22 1t22 3q11 -66 22 -128.5t25 -128.5q20 -91 37.5 -174.5t31.5 -143.5q5 -20 9.5 -40t8.5 -37q70 0 137.5 2t137.5 11q-1 -5 0 -12t2 -13q3 -13 8 -24q-47 2 -90 3t-90 1t-91.5 -1.5t-90.5 -3.5l-21.5 129
t-24.5 129z" />
    <glyph glyph-name="M" unicode="M" horiz-adv-x="863" 
d="M65 698q100 -144 203 -282t212 -281q4 14 12 39t18.5 57.5t23 69t25.5 74.5q26 81 53.5 166.5t50.5 156.5h8q23 -69 43 -132l40 -126q37 -115 72 -223t75 -220q-23 3 -43 3q-11 0 -21 -1t-21 -3q-40 137 -80 269.5t-84 263.5l-26 -68q-38 -118 -74.5 -232t-62.5 -229h-1
q-57 82 -119 168t-124 171q-32 45 -69 95.5t-68 95.5q5 -64 12 -138.5t14.5 -147t16 -137.5t17.5 -110q-17 3 -31 3q-7 0 -15.5 -0.5t-13.5 -2.5q-5 84 -10 173.5t-11.5 180t-13.5 178.5t-16 169h8z" />
    <glyph glyph-name="N" unicode="N" horiz-adv-x="677" 
d="M692 -18q-65 61 -136 125.5t-145 129.5t-149 130.5t-147 127.5l-63 56l5 -25q5 -29 14 -75t24 -119q6 -30 17 -77t22.5 -96.5t22.5 -93.5l17 -68q-6 2 -14.5 2.5t-15.5 0.5q-16 0 -31 -3q-1 16 -5.5 46t-10 67.5t-12.5 80.5t-14.5 85.5t-15 82.5t-14.5 72
q-20 95 -34.5 163.5t-24.5 103.5h9q11 -11 24.5 -22.5t26.5 -23.5q73 -65 155 -137t161 -141t150 -129.5t122 -103.5q-14 67 -29 138.5t-31 141.5t-31.5 137t-31.5 125q16 -3 29 -3q8 0 13.5 0.5t12.5 2.5q3 -26 9.5 -70.5t15 -93.5t16.5 -95t14 -74q8 -38 20.5 -93
t24.5 -110t22 -100.5t15 -64.5h-7z" />
    <glyph glyph-name="O" unicode="O" horiz-adv-x="811" 
d="M31 340q-18 85 -5 151.5t53 112.5t103 70t146 24t157 -24t133.5 -70t101.5 -112.5t60 -151.5t4.5 -151.5t-53 -112.5t-103.5 -70t-147 -24t-156.5 24t-133 70t-101 112.5t-59.5 151.5zM691 340q-18 85 -53.5 147.5t-82.5 103.5t-103.5 60.5t-117.5 19.5q-60 0 -108 -19.5
t-77.5 -60.5t-38 -103.5t9.5 -147.5q18 -86 53 -148t82 -103t103.5 -60.5t116.5 -19.5q61 0 109 19.5t78 60.5t38.5 103t-9.5 148z" />
    <glyph glyph-name="P" unicode="P" horiz-adv-x="489" 
d="M33 427q-14 65 -29.5 128.5t-32.5 128.5q23 -2 46.5 -3t46.5 -1q13 0 31 1l36 2q17 1 32 1.5t26 0.5q15 0 37 -1t47.5 -5.5t51.5 -15t49 -29t41 -47t27 -69.5q14 -65 -6 -106t-56.5 -63.5t-81 -30.5t-80.5 -8q-23 0 -45.5 0.5t-42.5 2.5l13 -60q14 -66 30 -129t33 -128
q-11 2 -22.5 3t-22.5 1q-12 0 -23 -1t-21 -3q-11 66 -22 128.5t-25 128.5zM123 347q18 -5 40 -7t39 -2q32 0 65 7t57.5 26.5t35.5 53.5t0 87q-10 45 -28.5 73.5t-44.5 44t-60 21.5t-74 6h-96z" />
    <glyph glyph-name="Q" unicode="Q" horiz-adv-x="830" 
d="M-15 340q-18 85 -4.5 151.5t53 112.5t103 70t146.5 24t157 -24t133.5 -70t101 -112.5t59.5 -151.5q15 -70 8 -127.5t-33.5 -102t-70.5 -74t-104 -44.5q31 -21 76.5 -51.5t95.5 -63.5t98.5 -64.5t84.5 -53.5q-21 -5 -36 -15.5t-22 -21.5q-33 25 -80.5 59.5t-98.5 70.5
t-100 70.5t-86 60.5q-8 -1 -15.5 -1h-15.5q-83 0 -157 24t-133 70t-100.5 112.5t-59.5 151.5zM645 340q-18 85 -53.5 147.5t-82.5 103.5t-103 60.5t-117 19.5t-109 -19.5t-77.5 -60.5t-38 -103.5t9.5 -147.5q18 -86 53 -148t82 -103t103 -60.5t117 -19.5t109 19.5t78 60.5
t38.5 103t-9.5 148z" />
    <glyph glyph-name="R" unicode="R" horiz-adv-x="571" 
d="M33 427q-14 65 -29.5 128.5t-33.5 128.5q28 -2 56 -3t55 -1q14 0 29 0.5t29 1.5l28 2t29 1q42 0 81 -8t71 -26t55 -48t32 -73q10 -48 -5 -82t-42.5 -57t-62 -35t-62.5 -16l36.5 -36.5t49.5 -48.5l68.5 -68.5l72 -72t67 -66t53.5 -51.5q-24 3 -48 3q-14 0 -28.5 -1
t-27.5 -3q-22 25 -62.5 68.5t-87.5 92.5t-96 96t-88 79h-46l17 -79q14 -66 30 -129t33 -128q-11 2 -23 3t-23 1t-22 -1t-22 -3q-11 66 -21.5 128.5t-24.5 128.5zM119 365q17 -4 35 -5t39 -1q32 0 65.5 7.5t59 26t38 49t2.5 77.5q-9 42 -30 68.5t-48 42t-57 21.5t-57 6
q-39 0 -62.5 -1.5t-39.5 -3.5q10 -56 20 -113t22 -112z" />
    <glyph glyph-name="S" unicode="S" horiz-adv-x="469" 
d="M100 120q13 -18 31.5 -37t42 -34.5t52 -25t62.5 -9.5q35 0 60 12t40 32.5t19.5 48t-2.5 59.5q-7 34 -24.5 58t-41.5 41t-53.5 29.5t-60.5 24.5q-34 12 -67.5 26.5t-63 36t-51 52.5t-31.5 77q-8 41 0 75.5t30.5 59t59 38.5t85.5 14q46 0 83 -10.5t71 -33.5q-6 -17 -7 -35
t-1 -44h-4q-9 15 -22.5 31.5t-31 31t-40.5 24t-52 9.5q-60 0 -90 -36.5t-18 -94.5q7 -36 25.5 -60.5t43.5 -42t55.5 -29.5t62.5 -24q33 -12 66 -25.5t60.5 -33.5t48 -49t29.5 -71q10 -45 2 -85.5t-32.5 -71t-66 -48.5t-99.5 -18q-60 0 -101 16.5t-72 37.5q4 20 3 39.5
t-3 44.5h3z" />
    <glyph glyph-name="T" unicode="T" horiz-adv-x="536" 
d="M212 427q-11 53 -23.5 107.5t-25.5 107.5q-53 0 -111.5 -2.5t-100.5 -7.5q1 11 -2 26q-2 8 -4 14t-5 13q66 -2 127.5 -3.5t127.5 -1.5q64 0 127 1.5t127 3.5q0 -12 3 -28q2 -6 4 -13t4 -12q-44 5 -103.5 7.5t-113.5 2.5q10 -53 21 -107.5t22 -107.5l37 -174
q14 -66 30 -129t33 -128q-12 2 -23.5 3t-22.5 1t-22 -1t-22 -3q-11 66 -22 128.5t-25 128.5z" />
    <glyph glyph-name="U" unicode="U" horiz-adv-x="664" 
d="M566 360q-29 137 -46.5 213.5t-27.5 109.5q19 -3 37 -3q12 0 23 3q4 -36 12 -84t17.5 -103t20 -113.5t21.5 -113.5q13 -66 5.5 -119.5t-36 -90.5t-77 -57t-115.5 -20q-149 0 -231.5 69.5t-113.5 215.5q-5 23 -9 46.5t-7 42.5q-3 18 -6 35.5t-7 35.5q-16 72 -29.5 131.5
t-24.5 103.5q-2 6 -3.5 11.5t-2.5 10.5q11 -2 23.5 -3t23.5 -1q22 0 37 3q3 -23 8.5 -58.5t13.5 -80t18 -96t22 -106.5q7 -35 16 -72.5t23 -73.5t34.5 -68t51.5 -56.5t73.5 -38.5t100.5 -14q57 0 92.5 16t55 43.5t25.5 62.5t4.5 73t-8.5 75.5t-14 70.5z" />
    <glyph glyph-name="V" unicode="V" horiz-adv-x="664" 
d="M399 0q-8 0 -15 -1t-14 -3q-36 62 -86 144.5t-106.5 174.5t-116 187t-113.5 181q24 -3 44 -3q11 0 23.5 1t23.5 3q37 -68 80.5 -142.5t90.5 -152.5t96 -157t97 -156q10 42 20.5 94t21 108t20.5 114t18.5 111.5t15 100t10.5 80.5q8 -2 16.5 -3t17.5 -1q15 0 27 3
q-41 -175 -75 -344t-65 -343q-13 4 -31 4zM364 -5q1 0 2.5 0.5t3.5 0.5q2 -2 3 -4l-9 3v0z" />
    <glyph glyph-name="W" unicode="W" horiz-adv-x="1028" 
d="M347 0q-10 0 -17 -1t-15 -3q-15 29 -43 83.5t-62.5 121t-72.5 139.5t-73 139.5t-63.5 120.5t-44.5 83q19 -3 44 -3q12 0 22 1t22 3q36 -77 70 -146t70 -140.5t77.5 -150t92.5 -174.5q3 20 8 56.5t10 73.5q7 59 15.5 129.5t16.5 137.5t13.5 124t6.5 89q13 -3 30 -3
q14 0 29 3q13 -27 38.5 -76t57 -107.5t66 -123t66.5 -123t58 -106.5t41 -74q3 22 8.5 69t11.5 106t12.5 124t12 125.5t9 109.5t4.5 76q15 -3 33 -3q8 0 13 0.5t12 2.5q-5 -23 -12.5 -75t-16.5 -118t-18.5 -140t-18 -142.5t-15.5 -124.5t-10 -86q-17 3 -32 3q-18 0 -30 -4
q-75 143 -154 291.5t-162 299.5q-4 -23 -9.5 -62.5t-12.5 -89.5t-14.5 -106.5t-15 -114.5t-14.5 -114t-12 -103q-17 3 -32 3zM311 -5q3 0 4 1q1 -1 3 -5l-7 4v0z" />
    <glyph glyph-name="X" unicode="X" horiz-adv-x="600" 
d="M302 409q31 66 56.5 130t52.5 145q8 -2 18 -3t18 -1h13t14 2q-10 -19 -17 -32t-16 -30q-31 -61 -61.5 -122.5t-57.5 -124.5q74 -92 154.5 -188.5t156.5 -187.5q-21 3 -46 3q-14 0 -27 -1t-27 -3q-8 11 -15.5 21t-15.5 21q-48 64 -100 133.5t-109 134.5q-36 -78 -65 -155
t-55 -155q-8 2 -18 3t-18 1q-5 0 -13 -0.5t-13 -1.5q42 87 80 170t77 171q-69 85 -139.5 171.5t-142.5 172.5q19 -3 42 -3q14 0 27 1t25 3q50 -71 101.5 -136t112.5 -139h8z" />
    <glyph glyph-name="Y" unicode="Y" horiz-adv-x="595" 
d="M272 281q-13 17 -38 48.5t-56 70t-65 81t-65.5 81.5t-58 71t-41.5 50q10 -2 22.5 -2.5t23.5 -0.5q13 0 26 1t25 3q63 -88 131 -176t140 -179q16 38 32.5 82t32 90t29.5 92.5t25 90.5q9 -2 18.5 -3t19.5 -1h14.5t13.5 2q-31 -71 -55.5 -128.5t-43.5 -105t-33 -87
t-24 -72.5q8 -36 17 -77t18.5 -80.5t18.5 -75t16 -60.5q-13 2 -23.5 3t-21.5 1q-22 0 -44 -3q-6 54 -20.5 128t-31.5 153z" />
    <glyph glyph-name="Z" unicode="Z" horiz-adv-x="609" 
d="M92 5q28 55 59.5 118t63 127.5t61 126.5t54 115t42.5 93l27 60q-19 1 -42 1.5t-39 0.5q-36 0 -78.5 -1t-85.5 -3t-83 -4.5t-69 -5.5q2 11 -2 25q-1 8 -3 13.5t-5 12.5q50 -4 154 -4h262q20 0 42.5 1t42.5 3q5 0 9 0.5t8 0.5l3 -11q-17 -26 -44 -76.5t-58.5 -113
t-64.5 -131t-62 -130.5t-51 -112t-31 -74q25 -2 49 -3.5t44 -1.5q37 0 85.5 1.5t97.5 4t93 6t72 6.5q0 -6 0.5 -13.5t2.5 -14.5q2 -8 4 -14t5 -13q-37 1 -67 2t-57 1.5t-53 1t-55 0.5q-39 0 -87.5 -0.5t-95.5 -1t-86.5 -1.5t-59.5 -2z" />
    <glyph glyph-name="bracketleft" unicode="[" horiz-adv-x="207" 
d="M24 408q-15 70 -30.5 137.5t-33.5 136.5q9 -1 22 -1.5t25 -0.5q23 0 53.5 1t51.5 2l2 -9q1 -3 1 -5.5t2 -5.5q-21 1 -44.5 2t-46.5 1q10 -63 21.5 -129t25.5 -129l54 -256q14 -63 30 -129t33 -129q22 0 46 1t44 2q0 -3 0.5 -5.5t0.5 -5.5l3 -9q-22 1 -53 2t-54 1
q-13 0 -25.5 -0.5t-21.5 -1.5q-12 70 -24.5 136.5t-27.5 137.5zM112 683q1 2 0.5 3t0.5 3l6 -6h-4h-3zM286 -127l-2 4h2q1 0 2 1t2 1l-4 -6v0z" />
    <glyph glyph-name="backslash" unicode="\" horiz-adv-x="335" 
d="M-66 700q10 -2 17 -2q12 0 23 3l426 -721q-10 2 -17 2q-13 0 -23 -3z" />
    <glyph glyph-name="bracketright" unicode="]" horiz-adv-x="209" 
d="M79 408q-14 63 -30 129t-33 129q-21 0 -45 -1t-44 -2q0 3 -0.5 5.5t-0.5 5.5q-1 2 -2 4.5t-1 4.5q21 -1 52 -2t54 -1q13 0 25.5 0.5t21.5 1.5q12 -70 24.5 -136.5t27.5 -137.5l54 -256q15 -70 31 -137.5t34 -136.5q-9 1 -22 1.5t-26 0.5q-23 0 -53.5 -1t-52.5 -2
q0 6 -1 9t-1 5.5t-2 5.5q21 -1 44.5 -2t46.5 -1q-10 63 -21.5 129t-25.5 129zM93 -129l-6 6h4h2v-6zM-79 683q-1 -1 -2 -1t-2 -1l4 6q0 -3 2 -4h-2z" />
    <glyph glyph-name="asciicircum" unicode="^" horiz-adv-x="555" 
d="M206 655h48q83 -113 164 -224.5t163 -224.5h-43l-303 417q-30 -103 -63 -208.5t-63 -208.5h-42z" />
    <glyph glyph-name="underscore" unicode="_" horiz-adv-x="587" 
d="M48 -132l-9 41h498l9 -41h-498z" />
    <glyph glyph-name="grave" unicode="`" horiz-adv-x="284" 
d="M63 661q-13 8 -26.5 18t-16.5 26q-3 14 5.5 20.5t16.5 6.5q10 0 22 -6.5t25 -16.5q42 -35 85 -71t85 -71h-29z" />
    <glyph glyph-name="a" unicode="a" horiz-adv-x="476" 
d="M35 423q37 33 71.5 45t74.5 12q35 0 66.5 -10.5t56.5 -29.5t42.5 -45.5t24.5 -59.5q5 -28 10.5 -55.5t10.5 -56.5q6 -29 12 -60.5t13 -64.5q3 -13 6.5 -27t10 -26t17.5 -19.5t28 -7.5h7t9 2l2 -12q-10 -5 -25 -8.5t-32 -3.5q-30 0 -51 20.5t-30 49.5q-32 -41 -64 -61
t-82 -20q-24 0 -49.5 8t-47 23.5t-37 37.5t-21.5 50q-13 58 19 90.5t91 43.5q51 9 80.5 16t43.5 15t16.5 18.5t-0.5 26.5q-6 27 -17 51t-28.5 42.5t-42 29t-56.5 10.5q-41 0 -73 -17.5t-43 -51.5h-4zM321 253q-14 -5 -30 -9t-31 -7q-24 -5 -50.5 -12.5t-46.5 -20.5
t-31 -33.5t-4 -51.5q5 -25 17 -44t27.5 -32t33.5 -19.5t36 -6.5q41 0 69.5 23t39.5 52z" />
    <glyph glyph-name="b" unicode="b" horiz-adv-x="507" 
d="M521 247q12 -57 5.5 -105.5t-29.5 -83t-60 -54t-85 -19.5q-24 0 -47 6t-44.5 16.5t-39.5 24.5t-31 29q-16 -14 -31.5 -30.5t-26.5 -30.5h-11q-3 24 -9 58t-13 72.5t-15 77.5t-15 74l-39 184q-7 34 -15.5 73t-17.5 77.5t-18 74t-16 61.5q10 -2 19.5 -3t19.5 -1q11 0 21 1
t22 3q2 -21 10 -66.5t18.5 -102t22.5 -115.5t21 -106q27 60 64 89t90 29q51 0 93 -19.5t73.5 -51.5t52.5 -74t31 -88zM442 250q-11 48 -30.5 85t-44.5 61.5t-53.5 37.5t-55.5 13q-33 0 -60 -12t-43.5 -39t-20 -71.5t10.5 -108.5q22 -103 72 -156t125 -53q32 0 56 17.5
t37.5 49t16 76.5t-9.5 100z" />
    <glyph glyph-name="c" unicode="c" horiz-adv-x="484" 
d="M36 232q-14 65 -2 112t41.5 77t71.5 44.5t90 14.5q52 0 97 -12t69 -29q-5 -14 -6.5 -28.5t-1.5 -32.5l-1 -2q-11 13 -26.5 27.5t-35 26.5t-42 20t-46.5 8q-48 0 -78 -17t-45 -47.5t-16 -71.5t9 -89q23 -107 81 -161.5t146 -54.5q40 0 77 19.5t59 48.5q1 -10 2 -20.5
t2 -20.5q-25 -24 -65.5 -41.5t-85.5 -17.5q-44 0 -90 13.5t-86.5 43.5t-72 77t-45.5 113zM478 87q0 -2 -1 -2v7l2 -5h-1v0z" />
    <glyph glyph-name="d" unicode="d" horiz-adv-x="506" 
d="M448 91l-8 2q-5 -16 -15 -34.5t-27 -35t-43 -27.5t-62 -11q-38 0 -77 14t-73.5 44t-62 76t-40.5 110q-14 64 -5 111t32.5 78t58.5 46.5t74 15.5q54 0 97.5 -26t75.5 -75l9 2q-9 47 -20 98.5t-21.5 101t-20.5 94t-19 77.5q4 -1 7 -1q8 -2 17.5 -2.5t17.5 -0.5q15 0 29 3
q3 1 9 1q4 -33 14.5 -94.5t25 -134t30 -149.5t29.5 -141q9 -42 19 -85.5t18 -78.5q4 -17 8 -36t9 -37h-4.5t-4.5 1q-3 0 -8 0.5t-9.5 1t-7.5 1t-2 0.5q-14 0 -27 -3q-1 -1 -5 -1zM120 223q13 -62 35 -103t48 -65t53.5 -33.5t53.5 -9.5q41 0 66 20t37 53t12.5 74t-8.5 83
q-21 99 -71 152t-125 53q-38 0 -62 -17.5t-36 -47.5t-12.5 -71t9.5 -88z" />
    <glyph glyph-name="e" unicode="e" horiz-adv-x="496" 
d="M34 218q-26 121 18 191.5t154 70.5q52 0 94 -16t73 -43.5t51.5 -64.5t29.5 -78q2 -8 3.5 -17t2.5 -18q-14 0 -35.5 0.5t-34.5 0.5q-72 3 -144 3q-20 0 -43.5 -0.5t-43.5 -2.5q-11 0 -25 -0.5t-25 -0.5q1 -8 2.5 -16.5t3.5 -16.5q9 -41 28.5 -76t48 -61t65 -41t80.5 -15
q40 0 77.5 20t59.5 49q1 -11 1.5 -20.5t1.5 -20.5q-25 -24 -65.5 -42t-86.5 -18q-54 0 -102 18t-86.5 49t-65 73.5t-37.5 92.5zM212 458q-38 0 -61 -18t-34.5 -46t-13.5 -60.5t2 -61.5q8 0 22.5 -0.5t22.5 -0.5q23 -1 47 -1.5t46 -0.5q20 0 46 0.5t47 1.5q11 0 23.5 0.5
t22.5 0.5q-6 28 -18 61t-32 60.5t-49.5 46t-70.5 18.5zM474 86q-1 2 -0.5 3t-0.5 3l2 -5h-1v-1z" />
    <glyph glyph-name="f" unicode="f" horiz-adv-x="302" 
d="M219 679q-29 15 -60 15q-24 0 -39 -9t-22 -23.5t-8 -34t4 -40.5q2 -9 6 -23t9 -30.5t11.5 -35t12.5 -34.5h56q12 0 23 0.5t23 0.5v-8t2 -8q1 -9 4 -15q-6 0 -14.5 0.5t-13.5 0.5q-17 1 -37.5 1.5t-37.5 0.5q23 -109 47 -220t50 -221q-9 2 -19 3t-20 1q-11 0 -19.5 -1
t-18.5 -3q-17 112 -39.5 220.5t-45.5 220.5q-11 0 -26.5 -0.5t-27.5 -1.5q-5 0 -9 -0.5t-9 -0.5q0 4 -0.5 7t-0.5 8q-1 3 -2.5 8t-1.5 8q8 0 14.5 -0.5t15.5 -0.5h41q-6 30 -7.5 64.5t3 68.5t14.5 63.5t25 49.5q14 17 38 31.5t52 14.5q5 0 15 -2q3 -15 5 -30q2 -12 3.5 -23
t3.5 -22z" />
    <glyph glyph-name="g" unicode="g" horiz-adv-x="507" 
d="M3 320q-8 41 0.5 71t30 50t53.5 29.5t71 9.5q12 0 25 -0.5t28 -1.5q7 -1 14.5 -1t15.5 -1q4 0 8.5 -0.5t7.5 -0.5q17 -2 32.5 -2.5t23.5 -0.5q26 0 45 0.5t30 2.5q0 -4 0.5 -6.5l1.5 -7.5q2 -5 2.5 -8.5t2.5 -7.5q-8 1 -13 1t-13 1q-21 2 -42.5 3t-41.5 2l-2 -8
q17 -9 32.5 -23t28 -31t21.5 -35.5t13 -36.5q16 -75 -25 -116.5t-125 -41.5q-5 0 -13 0.5t-14 0.5q-6 1 -13.5 1h-15.5q-20 0 -34.5 -14.5t-9.5 -36.5q6 -29 24 -42t53 -15q11 -1 28 -1.5t28 -0.5q14 -1 27.5 -1h28.5q45 -1 79 -11t58 -26.5t38 -39t20 -48.5
q7 -34 1.5 -69.5t-28 -65t-63 -48t-102.5 -18.5q-96 0 -159.5 37.5t-77.5 103.5q-6 26 0 48t19.5 38.5t32.5 28.5t40 19q-40 13 -64.5 34.5t-29.5 48.5q-3 16 1.5 29.5t14.5 24.5t23.5 18t27.5 10q-57 25 -95.5 63t-49.5 92zM456 -118q-14 63 -56.5 90.5t-126.5 27.5
q-77 0 -114.5 -27.5t-23.5 -95.5q8 -36 25.5 -61.5t41.5 -41t53.5 -23t62.5 -7.5q32 0 60.5 8.5t48 25.5t28 43t1.5 61zM307 325q-14 65 -53 100.5t-91 35.5q-57 0 -81 -38.5t-10 -102.5q14 -66 52 -104.5t99 -38.5q30 0 49.5 12t29 32.5t10.5 47.5t-5 56z" />
    <glyph glyph-name="h" unicode="h" horiz-adv-x="460" 
d="M32 466q-7 34 -15.5 73t-17.5 77.5t-18 74t-16 61.5q11 -2 20.5 -3t19.5 -1q11 0 20 1t18 3q3 -26 9 -60.5t13.5 -72.5t15.5 -76.5t15 -71.5l20 -94q23 49 58.5 76t89.5 27q27 0 57 -8t56.5 -27.5t48 -52.5t32.5 -84q4 -20 7.5 -41t8.5 -44q4 -24 9 -50l10 -52
q8 -33 14.5 -63t14.5 -62q-10 2 -19.5 3t-19.5 1t-18.5 -1t-16.5 -3q-3 19 -6.5 38.5t-6.5 37.5q-7 36 -13 71t-14 73l-13 62q-17 77 -57 118t-93 41q-73 0 -98 -45t-8 -126q6 -28 14 -63.5t17 -73t17.5 -72.5t16.5 -61q-11 2 -20 3t-20 1t-20.5 -1t-18.5 -3q-3 25 -9 60
t-13.5 73.5t-16 78t-15.5 74.5z" />
    <glyph glyph-name="i" unicode="i" horiz-adv-x="157" 
d="M59 285q-10 45 -21.5 93t-25.5 91q11 -2 20 -3t20 -1t20 1t20 3q5 -43 13 -91t18 -93l22 -105q10 -45 21.5 -93t25.5 -91q-11 2 -20.5 3t-20.5 1t-19.5 -1t-19.5 -3q-5 43 -13 91t-18 93zM-33 651q-5 20 6.5 33.5t29.5 13.5q19 0 35.5 -13.5t21.5 -33.5q4 -19 -7 -32.5
t-30 -13.5q-18 0 -35 13.5t-21 32.5z" />
    <glyph glyph-name="j" unicode="j" horiz-adv-x="246" 
d="M124 244q-13 60 -27 120.5t-28 104.5q11 -2 20.5 -3t20.5 -1t20 1t18 3q5 -43 14 -91t18 -93l23 -105q6 -30 14 -64.5t17 -69.5l17.5 -70t14.5 -63q9 -42 12.5 -77.5t-12.5 -68.5q-15 -31 -45 -52t-77 -23q-2 7 -4.5 11.5t-4.5 10.5q5 -1 4.5 -0.5t4.5 0.5q31 0 46 18
t19 46t0 63t-11 69zM24 651q-5 20 6 33.5t31 13.5q19 0 35 -13.5t21 -33.5q4 -19 -7 -32.5t-30 -13.5q-20 0 -36 13.5t-20 32.5z" />
    <glyph glyph-name="k" unicode="k" horiz-adv-x="472" 
d="M18 466q-7 34 -15.5 73t-17.5 77.5t-18 74t-16 61.5q11 -2 20.5 -3t20.5 -1q10 0 19 1t18 3q3 -26 9 -60.5t13.5 -73t15.5 -78t16 -74.5l39 -185q5 -24 22 -24q8 0 16.5 5.5t16.5 13.5h-1q5 2 5.5 3t1.5 2h-1q7 7 24 27t38 46.5t43 57t40 57.5q8 -2 18.5 -3t19.5 -1
q8 0 15.5 0.5t18.5 2.5q-50 -49 -95.5 -97.5t-87.5 -99.5q72 -68 147.5 -137t150.5 -137q-24 3 -46 3q-28 0 -48 -4q-28 28 -62.5 62t-70 67t-67 61.5t-53.5 47.5q-5 5 -11.5 9t-11.5 4q-14 0 -11 -18l13 -61q9 -43 20 -86t24 -86q-11 2 -20 3t-20 1t-20.5 -1t-18.5 -3
q-3 25 -9 60t-13.5 73.5t-16 78t-15.5 74.5zM406 469q-2 -1 -7 -1q3 2 5.5 5t5.5 6l5 -9q-2 0 -4.5 -0.5t-4.5 -0.5z" />
    <glyph glyph-name="l" unicode="l" horiz-adv-x="167" 
d="M30 466q-7 34 -15.5 73t-17.5 77.5t-18 74t-17 61.5q11 -2 20.5 -3t19.5 -1q11 0 20 1t19 3q3 -26 9 -60.5t13 -73t15 -78t16 -74.5l39 -184q7 -34 16 -73t18 -77.5t18 -74t17 -61.5q-11 2 -20.5 3t-20.5 1t-20 -1t-19 -3q-3 25 -9 60t-13 73.5t-15.5 78t-15.5 74.5z" />
    <glyph glyph-name="m" unicode="m" horiz-adv-x="777" 
d="M40 285q-10 45 -21.5 93t-24.5 91q10 -2 19.5 -3t20.5 -1q7 0 15.5 1t17.5 3q3 -21 8 -46.5t10 -46.5q43 104 136 104q25 0 50.5 -8t48 -22.5t40.5 -34.5t29 -44q17 53 54 81t91 28q32 0 61.5 -9t53.5 -27.5t41.5 -48t26.5 -70.5q3 -14 6 -29.5t5 -32.5q5 -29 12 -68
t19 -95q5 -26 10.5 -50t13.5 -53q-18 3 -39 3t-37 -3q-4 32 -17 108t-41 205q-6 27 -16.5 50t-27 40t-40 27t-55.5 10q-38 0 -61 -14.5t-33 -34.5q-6 -12 -8.5 -23.5t-0.5 -34.5t10 -64.5t23 -114.5q9 -42 18.5 -76.5t20.5 -78.5q-11 2 -21 3t-20 1t-18.5 -1t-19.5 -3
q-7 55 -17.5 112.5t-21.5 111.5q-10 47 -16 74.5t-11.5 44t-11.5 26.5t-16 23q-16 20 -44 34.5t-55 14.5q-68 0 -91.5 -45t-6.5 -126l18 -86q9 -45 21 -93t25 -91q-10 2 -19.5 3t-20.5 1t-20 -1t-19 -3q-5 43 -14 91t-18 93z" />
    <glyph glyph-name="n" unicode="n" horiz-adv-x="484" 
d="M364 278q-17 77 -57 118t-93 41q-73 0 -97.5 -45t-7.5 -126l18 -86q9 -45 21 -93t25 -91q-10 2 -19.5 3t-20.5 1t-20 -1t-19 -3q-5 43 -14 91t-18 93l-22 105q-10 45 -21.5 93t-24.5 91q10 -2 19.5 -3t20.5 -1q7 0 15.5 1t17.5 3q3 -21 8 -46t10 -46q23 49 58.5 76
t89.5 27q27 0 57 -8t56.5 -27.5t48 -52.5t32.5 -84q4 -20 7.5 -41t8.5 -44q4 -24 9 -50l10 -52q8 -33 14.5 -63t14.5 -62q-9 2 -19 3t-20 1t-18.5 -1t-16.5 -3q-3 19 -6.5 38.5t-6.5 37.5q-6 36 -12.5 71t-14.5 73l-13 62v0z" />
    <glyph glyph-name="o" unicode="o" horiz-adv-x="549" 
d="M33 232q-14 68 -3 115t39 76.5t68 43t84 13.5q43 0 89 -13.5t86.5 -43t72 -76.5t46.5 -115q14 -68 2.5 -115t-39.5 -76t-68.5 -42.5t-83.5 -13.5q-44 0 -89.5 13.5t-86 42.5t-72 76t-45.5 115zM112 232q9 -44 25.5 -84.5t41.5 -71.5t60 -50t82 -19q46 0 73.5 19t39.5 50
t11.5 71.5t-9.5 84.5t-26 84.5t-42.5 72t-61 50.5t-81.5 19q-47 0 -73.5 -19t-38.5 -50.5t-11 -72t10 -84.5z" />
    <glyph glyph-name="p" unicode="p" horiz-adv-x="508" 
d="M34 180q-7 34 -15.5 73t-17.5 78t-18 75t-16 63q10 -2 19.5 -3t19.5 -1q22 0 39 3q2 -25 5 -47t8 -48l9 -2q5 16 14.5 35t26.5 35.5t42.5 27.5t63.5 11t77 -14t74 -44t62 -76.5t41 -110.5q13 -63 4.5 -110t-32 -78t-59 -46.5t-74.5 -15.5q-55 0 -99.5 25t-77.5 73l-8 -2
l12 -66q7 -34 16 -73t18 -77.5t17.5 -74t16.5 -61.5q-10 2 -20 3t-21 1t-19.5 -1t-18.5 -3q-3 25 -9 60t-13.5 73.5t-16 78t-15.5 74.5zM388 236q-13 63 -34.5 103.5t-47.5 64.5t-54 33.5t-53 9.5q-43 0 -69 -17.5t-38 -47t-12 -69.5t9 -85q23 -107 73.5 -161.5t125.5 -54.5
q37 0 61.5 17.5t36.5 47.5t12 71t-10 88z" />
    <glyph glyph-name="q" unicode="q" horiz-adv-x="507" 
d="M474 15q7 -34 16 -73t18 -77.5t17.5 -74t16.5 -61.5q-10 2 -19.5 3t-20.5 1t-20 -1t-19 -3q-3 25 -9 60t-13.5 73.5t-16 78t-15.5 74.5l-16 78l-9 2q-17 -57 -54 -83.5t-86 -26.5q-37 0 -77 12.5t-76 41.5t-64 75.5t-42 114.5q-14 66 -5.5 113t32 78t57 45.5t70.5 14.5
q67 0 112 -31.5t72 -77.5l8 2q-4 25 -10.5 47t-14.5 48q19 -3 41 -3q11 0 19.5 1t18.5 3q3 -27 9.5 -62t14 -74t15.5 -78.5t15 -74.5zM361 242q-9 40 -25 77t-40 65.5t-56 45.5t-73 17q-26 0 -50.5 -9.5t-41 -35t-21 -69.5t10.5 -112q9 -45 26 -83t41 -66t53.5 -44t64.5 -16
q39 0 65 20t39 52.5t14.5 74t-7.5 83.5z" />
    <glyph glyph-name="r" unicode="r" horiz-adv-x="291" 
d="M237 398q-10 5 -24.5 10t-28.5 5q-26 0 -43.5 -11.5t-27.5 -31t-11.5 -46t4.5 -57.5q14 -65 23 -109t16 -74t12 -50t10 -37q-18 3 -35 3q-10 0 -17.5 -1t-18.5 -3q-5 38 -17 94.5t-30 141.5l-7 33q-8 39 -19 88.5t-28 115.5q10 -2 19 -3t19 -1q17 0 34 3q3 -31 7 -52.5
t9 -41.5l8 -2q20 54 48.5 81t61.5 27q14 0 27 -4q-1 -14 3 -36t8 -41z" />
    <glyph glyph-name="s" unicode="s" horiz-adv-x="369" 
d="M89 82q8 -11 21.5 -23t31 -22.5t38 -17.5t42.5 -7q20 0 37.5 6.5t29 18.5t16.5 30t0 42q-5 22 -17.5 37.5t-30 26t-39 18t-43.5 13.5q-24 7 -49 15.5t-46.5 22.5t-38 35.5t-23.5 54.5q-14 64 20 106t112 42q27 0 49 -6.5t42 -13.5l10 -4l10 -4q-5 -14 -7 -32.5t-2 -29.5
h-3q-15 24 -43 43t-63 19q-16 0 -31 -5t-26 -16t-15.5 -28t0.5 -41q5 -25 18 -41t30.5 -26.5t39 -17.5t44.5 -13q24 -6 49 -14t46 -21.5t36.5 -34.5t22.5 -54q6 -28 -0.5 -56t-24.5 -50t-48 -35.5t-71 -13.5q-43 0 -75 9t-55 20q2 12 3.5 32.5t-1.5 35.5h4z" />
    <glyph glyph-name="t" unicode="t" horiz-adv-x="283" 
d="M91 605q6 -38 12.5 -76t12.5 -73q11 0 41.5 0.5t64.5 2.5l7 -32q-27 2 -57.5 1.5t-48.5 -0.5q0 -4 5 -33t12 -69t15.5 -84t15.5 -77q6 -29 13.5 -57.5t20.5 -51t33.5 -36t52.5 -13.5q7 0 19 1.5t21 3.5l3 -13q-16 -5 -34.5 -9.5t-35.5 -4.5q-61 0 -97.5 32t-48.5 90
q-5 23 -10 52.5t-10 58.5l-18 94.5t-23 115.5q-14 0 -31 0.5t-36 -1.5q0 8 -3 17q0 3 -1.5 7t-2.5 7q23 0 39 -0.5t27 -0.5q-2 7 -4.5 18t-4.5 20q-5 17 -10 36.5t-10 39.5zM91 605v6l6 -5h-3z" />
    <glyph glyph-name="u" unicode="u" horiz-adv-x="485" 
d="M59 146q-7 29 -11 53t-8 45q-3 19 -6.5 35.5t-7.5 33.5q-8 35 -16.5 74.5t-17.5 81.5q8 -2 18.5 -3t19.5 -1t17 1t17 3q8 -60 21 -130.5t29 -145.5q11 -54 27 -82.5t33 -43.5q18 -17 43 -28.5t56 -11.5q45 0 70.5 19.5t33.5 48.5q4 16 5.5 29t-1 33.5t-9.5 55.5t-20 95
q-8 41 -17.5 83t-18.5 78q9 -2 18 -3t20 -1t19.5 1t16.5 3q6 -40 13 -77l14 -74t14.5 -74.5l15.5 -77.5q10 -44 19.5 -86t20.5 -84q-9 2 -18 3t-17 1q-17 0 -33 -3q-3 22 -8.5 49.5t-10.5 48.5q-20 -54 -57.5 -82t-85.5 -28q-77 0 -129.5 42t-68.5 119z" />
    <glyph glyph-name="v" unicode="v" horiz-adv-x="491" 
d="M291 0q-15 0 -28 -4q-4 8 -9 15.5t-9 15.5q-65 110 -132 220t-140 221q19 -3 41 -3q11 0 20.5 1t19.5 3q54 -100 112.5 -199.5t126.5 -202.5q24 87 39.5 177t28.5 177q2 11 3 23.5t3 24.5q8 -2 15 -3t15 -1h11t9 2q-3 -17 -5 -28.5t-6 -26.5q-25 -106 -48 -208.5
t-39 -207.5q-6 2 -13.5 3t-14.5 1zM258 -5q2 0 3 0.5t2 0.5q2 -2 3 -4l-8 3v0z" />
    <glyph glyph-name="w" unicode="w" horiz-adv-x="794" 
d="M251 -4q-20 40 -51.5 96.5t-68 120.5t-75.5 130t-75 125q18 -3 38 -3q11 0 21.5 1t20.5 3q47 -97 100.5 -194.5t117.5 -203.5q6 30 13.5 77t15 102t14 112t10.5 106q12 -3 28 -3q7 0 12 0.5t12 2.5q42 -90 90 -175.5t99 -174.5l27 -47q6 32 14.5 80t17.5 102.5
t17.5 110.5t15.5 104q13 -3 29 -3q5 0 9.5 0.5t9.5 1.5q-29 -119 -53.5 -236t-42.5 -235h-1q-5 2 -11 3t-11 1q-13 0 -22 -3q-46 92 -97.5 185.5t-116.5 197.5q-7 -32 -15.5 -78t-16 -98.5t-14.5 -106.5t-11 -101h-1q-5 2 -11.5 3t-12.5 1q-7 0 -12.5 -1t-10.5 -3h-2z
M248 -5q2 0 3 1q1 -1 3 -5l-6 4v0z" />
    <glyph glyph-name="x" unicode="x" horiz-adv-x="517" 
d="M261 282q26 47 51 93t47 94q8 -2 17 -3t18 -1q5 0 10 0.5t10 1.5q-38 -56 -69.5 -106t-65.5 -105q57 -64 119.5 -129.5t125.5 -129.5q-20 3 -39 3q-29 0 -49 -4q-45 52 -92.5 105t-95.5 105q-26 -51 -52.5 -105t-48.5 -105q-8 2 -16.5 3t-16.5 1h-10t-10 -1q36 60 67 114
t64 114q-56 60 -113.5 120.5t-116.5 120.5q19 -3 41 -3q14 0 26 1t24 3q39 -48 80.5 -94t86.5 -93h8z" />
    <glyph glyph-name="y" unicode="y" horiz-adv-x="487" 
d="M252 -9q-17 29 -42.5 70.5t-54.5 87.5t-59.5 94.5t-58 91.5t-49.5 78t-35 55q8 -2 18.5 -2.5t19.5 -0.5q11 0 21 1t20 3q45 -85 98.5 -172t109.5 -175q5 -8 12 -20.5t18 -30.5q12 46 23 96.5t20.5 101.5t16.5 101.5t12 97.5q15 -3 31 -3h12.5t10.5 2q-7 -27 -21 -82.5
t-30.5 -125.5t-35 -148.5t-34 -151.5t-27 -134t-15.5 -96q-15 4 -33 4q-5 0 -11 -0.5t-11 -1.5q25 65 43.5 129t31.5 127z" />
    <glyph glyph-name="z" unicode="z" horiz-adv-x="486" 
d="M74 2q27 45 55.5 94.5t55.5 99t51.5 96t45.5 85.5q7 15 16.5 32t15.5 28q-8 0 -40.5 -1t-74.5 -3t-86 -4.5t-74 -5.5l-4 22q-1 6 -3 12l-4 12q33 -3 94.5 -3.5t153.5 -0.5q43 0 70 0.5t57 3.5l2 -7q-19 -35 -42 -76t-46 -83.5t-45.5 -84t-42.5 -78.5t-35.5 -66t-24.5 -47
q43 0 79.5 0.5t72.5 2t75.5 4t90.5 7.5q1 -6 1 -12t2 -11q2 -6 3.5 -11.5t4.5 -11.5q-15 0 -28 0.5t-30 1.5q-96 3 -191 3q-68 0 -134 -3q-10 -1 -20 -1.5t-19 -0.5z" />
    <glyph glyph-name="braceleft" unicode="{" horiz-adv-x="243" 
d="M7 296q35 2 49 29.5t5 71.5l-37 172q-14 65 2.5 89.5t57.5 24.5h54l6 -28h-28q-29 0 -40 -16t0 -70l35 -166q11 -48 -9 -76.5t-64 -45.5q51 -18 83 -47t43 -77l35 -166q6 -27 13 -44t16.5 -26t21 -12.5t25.5 -3.5h28l6 -28h-54q-41 0 -68 24.5t-40 89.5l-37 172
q-9 44 -34 71.5t-62 29.5z" />
    <glyph glyph-name="bar" unicode="|" horiz-adv-x="144" 
d="M-58 751h42l212 -1005h-42z" />
    <glyph glyph-name="braceright" unicode="}" horiz-adv-x="243" 
d="M234 264q-35 -2 -49 -29.5t-5 -71.5l37 -172q13 -65 -3.5 -89.5t-56.5 -24.5h-54l-6 28h28q29 0 40 16t0 70l-35 166q-11 48 9.5 76.5t63.5 45.5q-51 18 -83 47t-43 77l-35 166q-6 27 -13 44t-16 26t-20.5 12.5t-25.5 3.5h-28l-6 28h54q40 0 66.5 -24.5t40.5 -89.5
l37 -172q9 -44 34 -71.5t62 -29.5z" />
    <glyph glyph-name="asciitilde" unicode="~" horiz-adv-x="520" 
d="M39 229q15 38 36.5 58t64.5 20q29 0 52 -7.5t47 -17.5q9 -4 18 -7t17 -7q27 -12 50 -21t47 -9q15 0 27.5 6.5t22 16.5t17 23t11.5 25q8 -9 15.5 -16.5t14.5 -15.5q-7 -15 -16 -29.5t-21 -26t-27.5 -18.5t-35.5 -7q-29 0 -57.5 10t-63.5 26q-30 14 -56.5 23.5t-45.5 9.5
q-22 0 -37 -6.5t-25 -17t-16 -22.5t-9 -24z" />
    <glyph glyph-name="exclamdown" unicode="&#xa1;" horiz-adv-x="175" 
d="M55 294q8 -28 16.5 -55.5t17.5 -57.5q19 -64 37.5 -126.5t33.5 -113.5t25 -85.5t12 -41.5q5 -24 -7 -34t-29 -10t-33 10t-21 34q-2 7 -6.5 41.5t-11 85.5t-14.5 113.5t-16 126.5q-5 29 -8 57.5t-6 55.5h10zM-31 427q-5 22 8 37.5t33 15.5q21 0 40 -15.5t24 -37.5
q5 -21 -7.5 -37t-33.5 -16t-40 16t-24 37z" />
    <glyph glyph-name="cent" unicode="&#xa2;" horiz-adv-x="480" 
d="M33 232q-12 58 -3.5 101.5t32.5 73.5t60 47.5t78 22.5l-3 13q-5 19 -10.5 42.5t-12.5 46.5q5 -1 10 -1.5t10 -0.5q6 0 11 0.5t10 1.5q2 -22 6 -45t9 -43l2 -11q54 -1 99 -12.5t69 -28.5q-5 -14 -6 -28.5t-1 -32.5l-2 -2q-11 13 -26.5 27.5t-35 26.5t-43 20t-49.5 8
l93 -441q44 0 83 19.5t61 48.5q1 -10 2 -20.5t3 -20.5q-23 -23 -61 -39t-81 -18l2 -13q5 -20 12 -46.5t13 -49.5q-5 1 -10.5 1.5t-11.5 0.5q-5 0 -9.5 -0.5t-9.5 -1.5q-2 22 -7 48.5t-10 48.5l-2 12q-42 4 -84.5 19.5t-80 45.5t-65.5 74.5t-41 105.5zM204 454
q-35 -8 -57 -28t-33 -49t-11.5 -65.5t8.5 -78.5q20 -91 66.5 -144.5t118.5 -67.5zM474 85v7l2 -5h-1z" />
    <glyph glyph-name="sterling" unicode="&#xa3;" horiz-adv-x="507" 
d="M86 50q45 0 70.5 12.5t36.5 35t9.5 55t-9.5 71.5q-6 26 -14 52t-16 49q0 2 -1.5 5.5t-1.5 5.5q-23 -1 -49 -1.5t-49 -0.5q0 7 -3 18q-1 4 -1 6.5t-2 7.5q17 -2 41 -2.5t53 -0.5q-8 23 -13.5 41.5t-8.5 32.5q-15 69 -5.5 114t32.5 72t56 38t66 11q35 0 73.5 -12.5
t62.5 -35.5q-13 -19 -23 -47q-17 34 -46 50.5t-61 16.5q-29 0 -49.5 -11t-33 -30t-15.5 -45t3 -56q6 -31 13 -56.5t13 -48.5q2 -8 4.5 -17.5t4.5 -16.5q66 0 116 3q9 1 18.5 0.5t18.5 0.5q0 -4 0.5 -7t1.5 -8q2 -4 2.5 -9t2.5 -8q-2 0 -2 -0.5t-2 -0.5q-36 1 -72.5 1.5
t-74.5 0.5q3 -11 7 -25.5t6 -26.5q8 -38 6 -72.5t-10.5 -64t-23 -53.5t-32.5 -40q33 -1 70 -0.5t74.5 1.5t73.5 2t68 3q15 1 31 1t30 1q1 -8 2.5 -17.5t3.5 -17.5q2 -9 4 -16.5t4 -15.5q-14 0 -26 0.5t-26 1.5q-92 3 -181 3q-88 0 -173 -3q-14 -1 -25.5 -1.5t-25.5 -0.5
q0 6 -1 12t-3 15q-2 6 -3.5 13.5t-3.5 14.5h8zM390 577q0 -1 1 -2t5 -3l-8 -1z" />
    <glyph glyph-name="currency" unicode="&#xa4;" horiz-adv-x="574" 
d="M448 571l34 -28l-43 -56q35 -32 60 -73t34 -86q10 -44 3 -84.5t-27 -74.5l63 -52q-7 -8 -11 -15.5t-10 -15.5l-67 54q-27 -29 -63.5 -44t-81.5 -15t-89.5 15.5t-82.5 44.5q-22 -27 -44 -55q-11 8 -18 15.5t-17 15.5l42 54q-34 33 -57.5 73t-33.5 84q-9 44 -2 84t27 73
q-16 14 -33.5 28.5t-32.5 28.5l22 29l68 -56q27 28 64 43.5t82 15.5t88.5 -15t81.5 -43zM490 328q-9 43 -32.5 81t-57 66.5t-74.5 45t-84 16.5q-44 0 -77.5 -16.5t-55 -45t-29 -66.5t1.5 -81q9 -44 33 -82t57.5 -66t74 -44.5t84.5 -16.5q43 0 77 16.5t55.5 44.5t28.5 66
t-2 82z" />
    <glyph glyph-name="yen" unicode="&#xa5;" horiz-adv-x="549" 
d="M231 336q-26 0 -59.5 -0.5t-59.5 -1.5q-14 0 -26 -0.5t-26 -0.5q0 6 -2 16q-2 5 -2.5 8.5t-2.5 7.5q42 -1 84.5 -1.5t83.5 -0.5q-24 29 -51 60.5t-52 60.5q-39 48 -82.5 99.5t-84.5 99.5q21 -3 43 -3q11 0 24 1t24 3q13 -20 41 -56t61.5 -78t69 -86.5t65.5 -80.5
q33 75 64 151.5t54 149.5q8 -2 16.5 -3t16.5 -1q5 0 10.5 0.5t11.5 1.5q-29 -53 -60.5 -121t-67.5 -148q-5 -11 -11 -25t-11 -25q42 0 84.5 0.5t83.5 1.5q0 -4 1 -8l2 -8q2 -10 4 -16q-11 0 -27 0.5t-26 0.5q-29 1 -61.5 1.5t-62.5 0.5l21 -99h88t88 1q0 -4 1 -8l2 -8
q2 -10 4 -16q-45 2 -88.5 3t-88.5 1q12 -57 24.5 -110.5t26.5 -102.5q-20 3 -40 3q-22 0 -41 -3q-8 54 -18 106.5t-21 106.5q-42 0 -85 -1t-86 -3q0 6 -2 16q-2 5 -2.5 8.5t-2.5 7.5q44 -1 86.5 -1h85.5z" />
    <glyph glyph-name="brokenbar" unicode="&#xa6;" horiz-adv-x="130" 
d="M65 167h42l73 -345h-42zM-42 675h42l72 -345h-42z" />
    <glyph glyph-name="section" unicode="&#xa7;" horiz-adv-x="437" 
d="M281 586q-17 33 -51.5 59t-78.5 26q-22 0 -41.5 -7.5t-33 -21.5t-19.5 -33.5t-1 -44.5q6 -27 22 -47t39 -35t50.5 -26.5t55.5 -21.5q29 -11 59 -23t55.5 -29.5t44.5 -41t26 -56.5q8 -42 -5.5 -77t-27.5 -55q21 -15 36 -36.5t22 -53.5q7 -36 1 -70.5t-27 -61.5t-56 -43.5
t-86 -16.5q-18 0 -37.5 3.5t-39 9t-37 13t-31.5 15.5q2 17 0 39.5t-6 39.5h3q7 -12 21.5 -28t36 -30.5t50 -24t64.5 -9.5q28 0 50.5 11t37.5 28.5t21 39.5t1 45q-5 26 -21 45t-39 33.5t-51 25.5t-57 21q-33 12 -67 25.5t-62.5 32.5t-49.5 46t-29 65q-5 23 -1.5 43t11 35.5
t18 27.5t19.5 18q-1 1 -4 4.5t-5 4.5l1 -1q-14 17 -24.5 34t-18.5 55q-6 30 -1.5 59t22 51.5t47 36.5t73.5 14q48 0 82 -17.5t58 -39.5q-7 -10 -11.5 -25t-4.5 -30h-3zM379 239q-4 20 -11.5 34.5t-21 26.5t-33.5 23t-49 23q-54 22 -86.5 36.5t-52 23.5t-29 15t-17.5 11
q-11 -13 -21 -35t-4 -48q4 -20 13.5 -36t26 -29.5t40 -26t56.5 -25.5q39 -15 68 -26.5t49.5 -20.5t34.5 -16t24 -13q8 17 13.5 36t-0.5 47z" />
    <glyph glyph-name="dieresis" unicode="&#xa8;" horiz-adv-x="376" 
d="M241 641q-5 20 6 33.5t30 13.5q20 0 36 -13.5t21 -33.5q4 -19 -7 -33t-31 -14q-19 0 -35 14t-20 33zM41 641q-5 20 6 33.5t31 13.5q19 0 35 -13.5t21 -33.5q4 -19 -7 -33t-30 -14q-20 0 -36 14t-20 33z" />
    <glyph glyph-name="copyright" unicode="&#xa9;" horiz-adv-x="775" 
d="M29 340q-16 74 -2 139.5t52.5 114t97.5 76.5t133 28t145.5 -28t130.5 -76.5t101 -114t58 -139.5t1.5 -139.5t-52.5 -114t-97.5 -76.5t-133.5 -28t-145.5 28t-130 76.5t-100.5 114t-58 139.5zM713 340q-15 68 -53 128.5t-91.5 105.5t-118.5 71t-134 26t-122.5 -26t-88 -71
t-47 -105.5t2.5 -128.5q14 -69 52 -129t91.5 -105t118.5 -71t134 -26t122.5 26t88 71t47 105t-1.5 129zM168 338q-12 59 -2.5 103t36 73.5t68 44.5t92.5 15q94 0 142 -25q-6 -22 -2 -46l1 -1q-8 6 -20.5 15.5t-29 18t-38 14.5t-46.5 6q-36 0 -68.5 -10t-54 -34.5t-28.5 -67
t7 -107.5q9 -45 29.5 -82.5t50.5 -65.5t68 -43.5t83 -15.5q42 0 74.5 17.5t49.5 34.5q-1 -8 0.5 -16t3.5 -15q-17 -12 -52 -25.5t-83 -13.5q-51 0 -97.5 16t-83.5 45.5t-63 71t-37 93.5zM581 191l7 -7q-4 0 -6 1l-2 -3z" />
    <glyph glyph-name="ordfeminine" unicode="&#xaa;" horiz-adv-x="341" 
d="M40 643q17 11 39 20t61 9q16 0 35 -3.5t36.5 -14t31 -28.5t19.5 -46q5 -20 8.5 -44.5t7.5 -46.5q3 -17 5.5 -32t4.5 -25q5 -23 16.5 -31t20.5 -8q4 0 6.5 1t6.5 3l2 -9q-6 -4 -16.5 -7t-24.5 -3q-18 0 -31 15t-19 35q-20 -24 -42.5 -37t-53.5 -13q-15 0 -31.5 3.5
t-31.5 11.5t-26 21.5t-15 33.5q-4 17 -2.5 29.5t10.5 22t26.5 16.5t44.5 12q33 6 52 10.5t28 8.5t10 9t-1 14q-6 26 -15.5 42.5t-22 25.5t-27 12t-30.5 3q-32 0 -49 -13.5t-22 -26.5h-4zM223 543q-11 -5 -24 -8.5t-26 -5.5q-15 -3 -30 -7t-26 -12t-16 -21.5t0 -34.5
q5 -28 26 -42.5t47 -14.5t43 14.5t28 28.5z" />
    <glyph glyph-name="guillemotleft" unicode="&#xab;" horiz-adv-x="361" 
d="M105 411q7 -7 15 -12.5t17 -8.5l-76 -159q35 -41 70.5 -81.5t70.5 -82.5q-8 -2 -15.5 -7.5t-11.5 -12.5q-40 48 -77 91.5t-77 91.5zM252 411q7 -7 15 -12.5t17 -8.5l-75 -159q35 -41 70 -81.5t70 -82.5q-8 -2 -15.5 -7.5t-11.5 -12.5q-40 48 -76.5 91.5t-77.5 91.5z" />
    <glyph glyph-name="logicalnot" unicode="&#xac;" horiz-adv-x="552" 
d="M445 329h-460l-9 42h503l55 -261h-43z" />
    <glyph glyph-name="registered" unicode="&#xae;" horiz-adv-x="775" 
d="M29 340q-16 74 -2 139.5t52.5 114t97.5 76.5t133 28t145.5 -28t130.5 -76.5t101 -114t58 -139.5t1.5 -139.5t-52.5 -114t-97.5 -76.5t-133.5 -28t-145.5 28t-130 76.5t-100.5 114t-58 139.5zM61 340q14 -69 52 -129t91.5 -105t118.5 -71t134 -26t122.5 26t88 71t47 105
t-1.5 129q-15 68 -53 128.5t-91.5 105.5t-118.5 71t-134 26t-122.5 -26t-88 -71t-47 -105.5t2.5 -128.5zM236 435q-7 32 -16.5 68t-17.5 63q18 -2 38.5 -3t39.5 -1q10 0 20 0.5t21 1.5q10 1 19.5 2t20.5 1q25 0 49 -5.5t43.5 -17.5t33 -30t18.5 -43q6 -30 -4 -52.5
t-29 -37.5t-42.5 -23t-42.5 -9l35 -35t38 -39q41 -43 83 -84.5t71 -63.5q-18 3 -30 3q-21 0 -36 -4q-49 54 -101 107.5t-109 108.5h-39l16 -76q8 -33 17 -70t18 -69q-8 2 -14 2.5t-14 0.5q-16 0 -26 -3q-1 8 -2 11t-2 11q-4 29 -8.5 56.5t-10.5 56.5zM295 361q7 -2 20 -3.5
t28 -1.5q27 0 50 6t38.5 19t21.5 33.5t0 49.5q-9 42 -41.5 65.5t-76.5 23.5q-18 0 -37 -1.5t-36 -4.5q2 -24 5.5 -48.5t9.5 -51.5zM625 125l-5 -5v3q-3 1 -6 4q3 0 11 -2z" />
    <glyph glyph-name="macron" unicode="&#xaf;" horiz-adv-x="360" 
d="M41 655h267l9 -42h-267z" />
    <glyph glyph-name="degree" unicode="&#xb0;" horiz-adv-x="350" 
d="M32 530q-6 29 -0.5 55t20.5 45.5t38.5 30.5t52.5 11t57.5 -11t52 -30.5t40.5 -45.5t23 -55q6 -30 0 -55.5t-21 -45t-38.5 -30.5t-52.5 -11t-57.5 11t-52 30.5t-40 45t-22.5 55.5zM59 530q5 -24 18.5 -45t32 -36.5t41.5 -24.5t47 -9t43 9t31.5 24.5t17 36.5t-0.5 45
t-18.5 44.5t-32.5 36t-42 24.5t-47 9t-43 -9t-31 -24.5t-16.5 -36t0.5 -44.5z" />
    <glyph glyph-name="plusminus" unicode="&#xb1;" horiz-adv-x="522" 
d="M-5 319h230l-39 184h42l39 -184h231l9 -43h-231l40 -185h-42l-40 185h-231zM53 43h504l9 -43h-504z" />
    <glyph glyph-name="twosuperior" unicode="&#xb2;" horiz-adv-x="337" 
d="M123 657q-21 0 -35 -6.5t-22.5 -16t-12.5 -21t-4 -21.5l-23 25q15 29 39.5 42t63.5 13q54 0 96 -24.5t53 -78.5q5 -24 2.5 -44.5t-18.5 -48t-48 -66t-86 -97.5l5 -12h48.5t53 0.5t52 1t47.5 2.5q0 -6 0.5 -10.5t1.5 -9.5q2 -5 2.5 -9.5t2.5 -9.5q-35 1 -66.5 2t-67.5 1
q-35 0 -68 -1.5t-67 -3.5l-2 7q8 10 16 18t16 17h-1q32 38 58 70t42.5 62.5t22 61t-1.5 66.5q-11 48 -39 69.5t-60 21.5zM49 591v1l3 -2z" />
    <glyph glyph-name="threesuperior" unicode="&#xb3;" horiz-adv-x="325" 
d="M72 311q14 -12 39 -23t57 -11q49 0 72.5 29t13.5 73q-6 27 -17.5 45t-26 29t-31 15.5t-32.5 4.5q-10 0 -18 -1t-15 -3q1 5 0 5t-2 5q-1 4 -1 6t-1 5q7 -2 13.5 -2.5t12.5 -0.5q23 0 36 9t19 23t5.5 31t-3.5 32q-8 38 -34 56.5t-55 18.5q-27 0 -44.5 -14t-23.5 -30l2 -2
q-5 7 -8.5 14t-8.5 14q11 11 32 22t62 11q47 0 84 -20.5t46 -64.5q4 -21 -0.5 -37.5t-14.5 -28.5t-24 -20t-28 -11l2 -10q17 -2 37.5 -7t39 -15.5t33 -27.5t20.5 -43q11 -57 -26 -90.5t-111 -33.5q-32 0 -58.5 6t-44.5 13zM68 314l4 -2h-1l1 -1z" />
    <glyph glyph-name="acute" unicode="&#xb4;" horiz-adv-x="282" 
d="M168 709q8 10 17 16.5t19 6.5q8 0 20 -6.5t15 -20.5q3 -16 -6.5 -26t-19.5 -18q-32 -23 -63.5 -46.5t-63.5 -47.5h-28z" />
    <glyph glyph-name="mu" unicode="&#xb5;" horiz-adv-x="461" 
d="M232 -15q-26 0 -52 7.5t-54 29.5q16 -76 33.5 -151t37.5 -141q-17 3 -37 3q-11 0 -19.5 -1t-17.5 -3q-8 36 -13.5 65t-11.5 61q-9 46 -18.5 93.5t-21.5 105.5q-16 74 -29.5 135t-25.5 116q-10 44 -18.5 84t-16.5 80q9 -2 19.5 -3t18.5 -1q9 0 17 1t17 3
q8 -60 20.5 -130.5t29.5 -145.5q11 -54 26.5 -82.5t32.5 -43.5q19 -17 44 -28.5t56 -11.5q45 0 70 19.5t33 48.5q4 16 5.5 29t-0.5 33.5t-9 55.5t-20 95q-8 41 -17.5 83t-18.5 78q9 -2 18 -3t20 -1t19.5 1t16.5 3q6 -40 12.5 -77t13.5 -74t14.5 -74.5t16.5 -77.5
q10 -44 19 -86t20 -84q-8 2 -17 3t-17 1q-17 0 -33 -3q-3 22 -9 49.5t-11 48.5q-20 -54 -57.5 -82t-85.5 -28z" />
    <glyph glyph-name="paragraph" unicode="&#xb6;" horiz-adv-x="496" 
d="M289 649l-72 -12l160 -754h-27l-87 412q-65 0 -115.5 15t-87 41.5t-59.5 64t-33 82.5q-20 91 23 136.5t135 45.5h259l3 -16l-73 -12l163 -769h-26z" />
    <glyph glyph-name="periodcentered" unicode="&#xb7;" horiz-adv-x="183" 
d="M34 305q-5 23 8 39.5t36 16.5t43 -16.5t25 -39.5t-8.5 -39t-36.5 -16t-42.5 16t-24.5 39z" />
    <glyph glyph-name="cedilla" unicode="&#xb8;" horiz-adv-x="246" 
d="M47 -190q13 -4 32 -7t41 -3q27 0 44 12.5t12 35.5q-5 25 -24.5 35t-42.5 10q-14 0 -25 -1t-16 -4q-2 1 -3 2q3 26 9 50t9 50h24l-9 -78q21 9 35 9q38 0 62.5 -18.5t30.5 -48.5q4 -20 -2 -35.5t-19.5 -25.5t-33.5 -15t-43 -5q-27 0 -48.5 5t-37.5 10z" />
    <glyph glyph-name="onesuperior" unicode="&#xb9;" horiz-adv-x="229" 
d="M98 625l-9 2q-16 -8 -31.5 -17.5t-31.5 -19.5q-5 5 -10 9.5t-11 6.5v4q33 12 67.5 27.5t63.5 34.5h5q5 -38 12.5 -76.5t15.5 -77.5l22 -101q8 -38 16.5 -74.5t20.5 -76.5q-8 2 -14.5 2.5t-14.5 0.5q-15 0 -28 -3q-6 42 -13 77t-15 74z" />
    <glyph glyph-name="ordmasculine" unicode="&#xba;" horiz-adv-x="395" 
d="M40 524q-9 40 -1 68.5t26.5 46t45 25.5t55.5 8q28 0 57.5 -8t56 -25.5t46 -46t28.5 -68.5q8 -40 0 -67.5t-26.5 -45t-44.5 -25.5t-54 -8q-29 0 -59 8t-56.5 25.5t-46 45t-27.5 67.5zM97 524q5 -24 15 -47.5t26 -42t37.5 -30t50.5 -11.5q28 0 44.5 11.5t24 30t7.5 42
t-5 47.5q-5 25 -15.5 48.5t-26 42.5t-37 30.5t-49.5 11.5q-29 0 -45.5 -11.5t-24 -30.5t-7.5 -42.5t5 -48.5z" />
    <glyph glyph-name="guillemotright" unicode="&#xbb;" horiz-adv-x="362" 
d="M158 393q8 2 15.5 7.5t11.5 12.5q40 -48 77.5 -92t76.5 -92q-20 -46 -41.5 -90t-42.5 -90q-7 7 -15 12.5t-17 8.5l76 158zM11 393q8 2 15.5 7.5t11.5 12.5q40 -48 77 -92t77 -92q-21 -46 -42 -90t-42 -90q-7 7 -15 12.5t-17 8.5l75 158z" />
    <glyph glyph-name="onequarter" unicode="&#xbc;" horiz-adv-x="762" 
d="M473 121q39 69 76.5 137t77.5 138q10 -3 25 -3q6 0 10 0.5t9 1.5q11 -66 24 -129.5t27 -128.5q14 0 29.5 1t26.5 3q0 -6 2 -16q2 -9 5 -18q-21 3 -57 3q5 -27 12 -56.5t15 -56.5q-8 2 -14 2.5t-14 0.5q-13 0 -26 -3q-4 26 -9 54.5t-11 58.5q-29 0 -59 -0.5t-57.5 -1
t-50 -1t-37.5 -1.5zM392 682q10 -3 22 -3q10 0 14 1q-32 -181 -62.5 -353.5t-62.5 -352.5q-11 3 -21 3q-11 0 -15 -1zM54 625l-9 2q-16 -8 -32 -17.5t-30 -19.5q-5 5 -10 9.5t-11 6.5v4q32 12 66.5 27.5t63.5 34.5h5q5 -38 12.5 -76.5t15.5 -77.5l22 -101q8 -38 16.5 -74.5
t20.5 -76.5q-8 2 -14.5 2.5t-14.5 0.5q-15 0 -28 -3q-6 42 -13 77t-15 74zM632 338l-5 18q-8 -12 -18 -31t-17 -31q-20 -35 -38.5 -71t-34.5 -75l4 -11h152z" />
    <glyph glyph-name="onehalf" unicode="&#xbd;" horiz-adv-x="749" 
d="M578 389q-21 0 -35 -6.5t-22.5 -16.5t-12.5 -21t-5 -21l-22 25q14 29 39 41.5t64 12.5q54 0 95.5 -24.5t52.5 -78.5q5 -24 2.5 -44.5t-18 -48t-47.5 -66t-86 -96.5l4 -13h48.5t53 0.5t52 1.5t47.5 3q0 -11 3 -21q1 -8 5 -19q-35 1 -67 2t-68 1q-35 0 -67.5 -1.5
t-67.5 -3.5l-1 7q8 10 16 18t15 18h-1q33 38 58.5 70t42 62t22 60.5t-1.5 66.5q-10 48 -38 70t-60 22zM389 682q10 -3 22 -3q10 0 14 1q-32 -181 -62.5 -353.5t-62.5 -352.5q-11 3 -21 3h-8t-7 -1zM54 625l-9 2q-16 -8 -31.5 -17.5t-30.5 -19.5q-5 5 -10 9.5t-11 6.5v4
q32 12 66.5 27.5t63.5 34.5h5q5 -38 12.5 -76.5t15.5 -77.5l22 -101q8 -38 16.5 -74.5t20.5 -76.5q-8 2 -14.5 2.5t-14.5 0.5q-15 0 -28 -3q-6 42 -13 77t-15 74zM504 323l-1 1l3 -2z" />
    <glyph glyph-name="threequarters" unicode="&#xbe;" horiz-adv-x="803" 
d="M513 121q39 69 76.5 137t77.5 138q10 -3 25 -3q7 0 11 0.5t9 1.5q11 -66 24 -129.5t27 -128.5q14 0 29 1t26 3q0 -6 2 -16q2 -9 5 -18q-21 3 -56 3q5 -27 12 -56.5t15 -56.5q-8 2 -14.5 2.5t-14.5 0.5q-13 0 -26 -3q-4 26 -9 54.5t-11 58.5q-29 0 -59 -0.5t-57 -1t-50 -1
t-38 -1.5zM29 311q15 -12 39 -23t56 -11q50 0 73 29t14 73q-6 27 -17 45t-26 29t-31.5 15.5t-32.5 4.5q-10 0 -18 -1t-14 -3q0 5 -0.5 5t-2.5 5q-1 4 -0.5 6t-1.5 5q8 -2 14 -2.5t12 -0.5q23 0 36 9t18.5 23t5.5 31t-3 32q-8 38 -34 56.5t-55 18.5q-26 0 -44 -14t-23 -30
l1 -2q-5 7 -8.5 14t-8.5 14q11 11 32 22t61 11q47 0 84 -20.5t46 -64.5q4 -21 -0.5 -37.5t-14.5 -28.5t-23.5 -20t-27.5 -11l2 -10q17 -2 37 -7t38.5 -15.5t33 -27.5t20.5 -43q12 -57 -25.5 -90.5t-111.5 -33.5q-32 0 -58 6t-44 13zM445 682q10 -3 21 -3q10 0 14 1
q-32 -180 -62.5 -353.5t-62.5 -352.5q-11 3 -21 3t-14 -1zM672 338l-5 18q-7 -12 -17.5 -31t-17.5 -31q-20 -35 -38.5 -71t-33.5 -75l4 -11h151zM25 314l5 -2h-1v-1z" />
    <glyph glyph-name="questiondown" unicode="&#xbf;" horiz-adv-x="286" 
d="M108 273q-9 0 -17 -2.5t-13 -4.5q2 5 3 10.5t1 10.5q5 2 12 3t17 1q12 0 31 -5.5t38 -18.5t35.5 -33t22.5 -50q5 -26 1.5 -47.5t-12.5 -41t-22 -37.5t-26 -35q-12 -16 -23.5 -31.5t-19.5 -32t-11 -35t2 -39.5q4 -20 15.5 -36.5t27 -28t33 -17.5t34.5 -6q26 0 47 11t35 30
q4 -12 5.5 -19.5t5.5 -18.5q-17 -11 -38 -20.5t-55 -9.5q-35 0 -64.5 10.5t-51.5 28t-36.5 41t-19.5 49.5q-6 28 -2.5 52t13 45t23.5 40.5t28 37.5q25 32 43 63.5t10 70.5q-2 10 -8.5 21.5t-15.5 21.5t-21.5 16t-26.5 6zM46 427q-5 22 7.5 37.5t33.5 15.5q22 0 40.5 -15.5
t23.5 -37.5q5 -21 -7 -37t-34 -16q-21 0 -40 16t-24 37zM75 265q1 0 1.5 0.5t1.5 0.5q0 -1 -0.5 -1t-0.5 -1l-2 1v0z" />
    <glyph glyph-name="Agrave" unicode="&#xc0;" horiz-adv-x="662" 
d="M294 698q25 -41 55 -87.5t60 -94.5q48 -77 98 -155t95 -148t82 -126.5t60 -89.5q-23 3 -46 3q-12 0 -25 -1t-24 -3q-10 21 -24.5 46t-30.5 52.5t-33.5 55t-33.5 53.5q-9 16 -19.5 33t-19.5 31q-34 1 -69.5 1.5t-68.5 0.5q-32 0 -64.5 -0.5t-62.5 -1.5q-8 -37 -14.5 -74.5
t-12 -72.5t-9.5 -67t-6 -57q-8 2 -16.5 3t-17.5 1q-14 0 -27 -3q43 177 83.5 349.5t79.5 351.5h11zM290 580l-60 -277q10 0 30.5 -0.5t32.5 -0.5q14 -1 27.5 -1h27.5q28 0 60.5 0.5t60.5 1.5zM134 836q-13 7 -26.5 17t-17.5 27q-3 14 6 20.5t17 6.5q10 0 22.5 -6.5
t23.5 -16.5q42 -35 85.5 -71.5t85.5 -70.5h-29z" />
    <glyph glyph-name="Aacute" unicode="&#xc1;" horiz-adv-x="663" 
d="M285 698q25 -41 55 -87.5t60 -94.5q48 -77 98 -155t95 -148t82 -126.5t60 -89.5q-23 3 -46 3q-12 0 -25 -1t-24 -3q-10 21 -24.5 46t-30.5 52.5t-33.5 55t-33.5 53.5q-9 16 -19.5 33t-19.5 31q-34 1 -69.5 1.5t-68.5 0.5q-32 0 -64.5 -0.5t-62.5 -1.5q-8 -37 -14.5 -74.5
t-12 -72.5t-9.5 -67t-6 -57q-8 2 -16.5 3t-17.5 1q-14 0 -27 -3q43 177 83.5 349.5t79.5 351.5h11zM281 580l-60 -277q10 0 30.5 -0.5t32.5 -0.5q14 -1 27.5 -1h27.5q28 0 60.5 0.5t60.5 1.5zM317 884q8 10 18 16.5t20 6.5q8 0 19 -6.5t14 -20.5q4 -17 -5 -27t-19 -17
q-33 -24 -64 -47.5t-63 -46.5h-29z" />
    <glyph glyph-name="Acircumflex" unicode="&#xc2;" horiz-adv-x="668" 
d="M291 698q26 -41 56 -87.5t59 -94.5q48 -77 98 -155t95 -148t82 -126.5t60 -89.5q-23 3 -45 3q-12 0 -25 -1t-24 -3q-11 21 -25 46t-30.5 52.5t-33.5 55t-33 53.5q-10 16 -20.5 33t-19.5 31q-33 1 -68.5 1.5t-68.5 0.5q-32 0 -64.5 -0.5t-63.5 -1.5q-8 -37 -14.5 -74.5
t-11.5 -72.5t-9 -67t-6 -57q-9 2 -17 3t-17 1q-15 0 -28 -3q43 177 83.5 349.5t79.5 351.5h11zM287 580l-60 -277q10 0 31 -0.5t33 -0.5q14 -1 27.5 -1h27.5q28 0 60.5 0.5t59.5 1.5zM247 850q-25 -26 -50 -54t-50 -54h-25q23 41 41.5 79t41.5 80h62q40 -41 77 -80t75 -79
h-25z" />
    <glyph glyph-name="Atilde" unicode="&#xc3;" horiz-adv-x="662" 
d="M285 698q25 -41 55 -87.5t59 -94.5q48 -77 98 -155t95.5 -148t82.5 -126.5t60 -89.5q-24 3 -46 3q-12 0 -25 -1t-24 -3q-11 21 -25 46t-30.5 52.5t-33.5 55t-33 53.5q-10 16 -20.5 33t-19.5 31q-33 1 -68.5 1.5t-68.5 0.5q-32 0 -64.5 -0.5t-63.5 -1.5
q-8 -37 -14.5 -74.5t-11.5 -72.5t-9 -67t-6 -57q-9 2 -17 3t-17 1q-15 0 -27 -3q43 177 83 349.5t80 351.5h11zM281 580l-61 -277q10 0 31 -0.5t33 -0.5q14 -1 27.5 -1h27.5q28 0 60.5 0.5t59.5 1.5zM98 767q0 17 3.5 33.5t13 30t24.5 22t38 8.5q17 0 32.5 -4.5t44.5 -17.5
q33 -14 47 -19t27 -5q21 0 33.5 17t17.5 33h19q0 -12 -3 -29t-11.5 -32.5t-25 -26t-43.5 -10.5q-14 0 -32 5t-44 17q-32 16 -46.5 20.5t-26.5 4.5q-25 0 -34.5 -11t-13.5 -36h-20z" />
    <glyph glyph-name="Adieresis" unicode="&#xc4;" horiz-adv-x="661" 
d="M284 698q26 -41 56 -87.5t59 -94.5q48 -77 98 -155t95 -148t82 -126.5t60 -89.5q-23 3 -45 3q-12 0 -25 -1t-24 -3q-11 21 -25 46t-30.5 52.5t-33.5 55t-33 53.5q-10 16 -20.5 33t-19.5 31q-33 1 -68.5 1.5t-68.5 0.5q-32 0 -64.5 -0.5t-63.5 -1.5q-8 -37 -14.5 -74.5
t-11.5 -72.5t-9 -67t-6 -57q-9 2 -17 3t-17 1q-15 0 -28 -3q43 177 83.5 349.5t79.5 351.5h11zM280 580l-60 -277q10 0 30.5 -0.5t32.5 -0.5q14 -1 28 -1h28q28 0 60 0.5t60 1.5zM301 816q-4 19 6.5 32.5t29.5 13.5q20 0 36.5 -13.5t20.5 -32.5q5 -20 -6 -33.5t-31 -13.5
q-19 0 -35 13.5t-21 33.5zM101 816q-4 19 6.5 32.5t30.5 13.5q19 0 35.5 -13.5t20.5 -32.5q5 -20 -6 -33.5t-30 -13.5q-20 0 -36 13.5t-21 33.5z" />
    <glyph glyph-name="Aring" unicode="&#xc5;" horiz-adv-x="667" 
d="M294 698q25 -41 55 -87.5t59 -94.5q48 -77 98 -155t95.5 -148t82.5 -126.5t60 -89.5q-24 3 -46 3q-12 0 -25 -1t-24 -3q-11 21 -25 46t-30.5 52.5t-33.5 55t-33 53.5q-10 16 -20.5 33t-19.5 31q-33 1 -68.5 1.5t-68.5 0.5q-32 0 -64.5 -0.5t-63.5 -1.5
q-8 -37 -14.5 -74.5t-11.5 -72.5t-9 -67t-6 -57q-9 2 -17 3t-17 1q-15 0 -27 -3q43 177 83 349.5t80 351.5h11zM290 580l-60 -277q10 0 30.5 -0.5t32.5 -0.5q14 -1 27.5 -1h27.5q28 0 60.5 0.5t60.5 1.5zM157 824q-9 41 13.5 69.5t64.5 28.5q20 0 39.5 -7.5t35.5 -21
t27.5 -31.5t16.5 -38q8 -41 -14 -70t-64 -29q-20 0 -39.5 8t-36 21.5t-28 31.5t-15.5 38zM189 824q6 -28 29 -47t51 -19q29 0 44 19t9 47q-6 27 -29 46.5t-51 19.5q-29 0 -44 -19.5t-9 -46.5z" />
    <glyph glyph-name="AE" unicode="&#xc6;" horiz-adv-x="829" 
d="M248 256q-26 -67 -47.5 -132t-38.5 -128q-19 4 -39 4q-17 0 -35 -3q33 66 70.5 149t77 173.5t79 184.5t75.5 181q44 -2 84.5 -3.5t84.5 -1.5q41 0 82 1t79 3q-1 -7 -0.5 -12.5t2.5 -13.5q2 -6 4 -12.5t5 -11.5q-15 3 -31.5 5t-43.5 4t-67.5 3t-102.5 1q2 -11 4 -24t4 -24
q6 -34 12.5 -67.5t13.5 -66.5l19 -89q55 0 92 0.5t62 1.5t40 2t27 2h4q-1 -5 -0.5 -11t1.5 -11q2 -5 3.5 -11t4.5 -11h-5q-12 1 -27.5 2t-40.5 2t-62 1.5t-92 0.5l23 -108q8 -37 16.5 -74.5t17.5 -75.5q4 -12 7.5 -26.5t6.5 -27.5q105 0 162.5 3t84.5 7v-11.5t2 -11.5
q3 -13 8 -23q-45 2 -85 3t-83 1t-83.5 -1.5t-82.5 -3.5q-8 63 -20.5 126t-26.5 129zM415 616h-19l-137 -328l227 -6z" />
    <glyph glyph-name="Ccedilla" unicode="&#xc7;" horiz-adv-x="629" 
d="M397 -19q-73 7 -138.5 34.5t-118 73.5t-90 109t-53.5 142q-18 85 -5 151.5t52.5 112.5t103 70t146.5 24q63 0 120.5 -13t102.5 -32q-4 -15 -3.5 -35t0.5 -36l1 -3q-13 12 -34.5 28t-49.5 30t-61.5 24t-69.5 10q-61 0 -109 -19.5t-77.5 -60.5t-38 -103.5t9.5 -147.5
q18 -86 53 -148t82 -103t103.5 -60.5t117.5 -19.5q35 0 64 8.5t52 21t41 26.5t30 25q0 -13 1 -27t2 -26q-8 -8 -25.5 -17.5t-42.5 -18t-57 -14t-69 -5.5h-16l-11 -76q22 9 37 9q38 0 62.5 -18.5t30.5 -48.5q4 -20 -2 -35.5t-20 -25.5t-34 -15t-43 -5q-26 0 -47.5 5t-38.5 10
q1 7 2.5 11.5t2.5 10.5q14 -4 33 -7t40 -3q28 0 44 12.5t11 35.5q-5 25 -23.5 35t-41.5 10q-32 0 -41 -5q-1 0 -2 1q-1 0 -1 1zM628 91q-1 0 0 -1q-1 2 0 5l2 -5l-2 1v0z" />
    <glyph glyph-name="Egrave" unicode="&#xc8;" horiz-adv-x="402" 
d="M52 428q-14 65 -29.5 129t-32.5 128q45 -2 88 -3.5t89 -1.5q45 0 87 1.5t86 3.5q0 -11 3 -26q2 -7 4 -13l4 -12q-14 1 -25 2l-22 2q-22 2 -44.5 3.5t-49 3t-57.5 2t-70 0.5q2 -13 4.5 -27t4.5 -27q3 -18 6.5 -37.5t8.5 -42.5t10.5 -46t9.5 -43l11 -50q45 0 80.5 0.5
t64.5 2t52.5 3t45.5 3.5q1 -6 1 -12t2 -13t3.5 -12.5t3.5 -11.5q-27 2 -62 3.5t-70 2.5t-65.5 1.5t-48.5 0.5q1 -9 3.5 -20t6 -28.5l8.5 -42.5t13 -61q12 -58 21.5 -98t14.5 -60q33 0 70 0.5t73.5 1.5t69 3.5t56.5 6.5q1 -6 2 -13t2 -12l6 -24q-45 2 -87.5 3.5t-89.5 1.5
q-46 0 -89.5 -1.5t-89.5 -3.5q-10 66 -21 129.5t-25 129.5zM12 836q-12 7 -25.5 17t-17.5 27q-3 14 6 20.5t17 6.5q9 0 21.5 -6.5t23.5 -16.5q42 -35 85.5 -71.5t85.5 -70.5h-29z" />
    <glyph glyph-name="Eacute" unicode="&#xc9;" horiz-adv-x="401" 
d="M41 428q-14 65 -29.5 129t-32.5 128q45 -2 88 -3.5t89 -1.5q45 0 87 1.5t86 3.5q0 -11 3 -26q2 -7 4 -13l4 -12q-14 1 -25 2l-22 2q-22 2 -44.5 3.5t-49 3t-57.5 2t-70 0.5q2 -13 4.5 -27t4.5 -27q3 -18 6.5 -37.5t8.5 -42.5t10.5 -46t9.5 -43l11 -50q45 0 80.5 0.5
t64.5 2t52.5 3t45.5 3.5q1 -6 1 -12t2 -13t3.5 -12.5t3.5 -11.5q-27 2 -62 3.5t-70 2.5t-65.5 1.5t-48.5 0.5q1 -9 3.5 -20t6 -28.5l8.5 -42.5t13 -61q12 -58 21.5 -98t14.5 -60q33 0 70 0.5t73.5 1.5t69 3.5t56.5 6.5q1 -6 2 -13t2 -12l6 -24q-45 2 -87.5 3.5t-89.5 1.5
q-46 0 -89.5 -1.5t-89.5 -3.5q-10 66 -21 129.5t-25 129.5zM193 884q8 10 18 16.5t20 6.5q8 0 19 -6.5t14 -20.5q4 -17 -5 -27t-19 -17q-33 -24 -64 -47.5t-63 -46.5h-29z" />
    <glyph glyph-name="Ecircumflex" unicode="&#xca;" horiz-adv-x="408" 
d="M50 428q-14 65 -30 129t-33 128q46 -2 88.5 -3.5t88.5 -1.5q45 0 87.5 1.5t85.5 3.5q1 -6 1.5 -12t2.5 -14q2 -7 3.5 -13t3.5 -12q-14 1 -25 2l-22 2q-22 2 -44.5 3.5t-49 3t-57.5 2t-70 0.5q3 -13 5.5 -27t4.5 -27q3 -18 6.5 -37.5t8.5 -42.5l10 -46t10 -43l10 -50
q45 0 80.5 0.5t64.5 2t52.5 3t45.5 3.5q1 -6 1.5 -12t2.5 -13q3 -13 7 -24q-27 2 -62.5 3.5t-70.5 2.5t-65.5 1.5t-48.5 0.5q1 -9 3.5 -20t6 -28.5l8.5 -42.5t13 -61q13 -58 22 -98t14 -60q33 0 70.5 0.5t73.5 1.5t68.5 3.5t56.5 6.5q2 -13 5 -25q1 -12 6 -24q-46 2 -88 3.5
t-89 1.5q-46 0 -90 -1.5t-89 -3.5q-11 66 -21.5 129.5t-24.5 129.5zM125 850q-25 -26 -50 -54t-50 -54h-25q23 41 41.5 79t40.5 80h63q40 -41 76.5 -80t75.5 -79h-25z" />
    <glyph glyph-name="Edieresis" unicode="&#xcb;" horiz-adv-x="407" 
d="M46 428q-14 65 -30 129t-33 128q46 -2 88.5 -3.5t88.5 -1.5q45 0 87.5 1.5t85.5 3.5q1 -6 1 -12t2 -14q2 -7 4 -13l4 -12q-14 1 -25 2l-22 2q-22 2 -44.5 3.5t-49 3t-57.5 2t-70 0.5q3 -13 5 -27t4 -27q4 -18 7 -37.5t8 -42.5t10.5 -46t9.5 -43l11 -50q45 0 80.5 0.5
t64.5 2t52.5 3t45.5 3.5q1 -6 1 -12t2 -13t3.5 -12.5t3.5 -11.5q-27 2 -62 3.5t-70 2.5t-65.5 1.5t-48.5 0.5q1 -9 3.5 -20t6 -28.5l8.5 -42.5t13 -61q12 -58 21.5 -98t14.5 -60q33 0 70 0.5t73.5 1.5t69 3.5t56.5 6.5q1 -6 2 -13t2 -12q2 -6 3.5 -12t3.5 -12
q-46 2 -88.5 3.5t-89.5 1.5q-46 0 -89.5 -1.5t-88.5 -3.5q-11 66 -22 129.5t-25 129.5zM-17 816q-4 19 6.5 32.5t29.5 13.5t35.5 -13.5t20.5 -32.5q5 -20 -6 -33.5t-30 -13.5q-20 0 -35.5 13.5t-20.5 33.5zM182 816q-4 19 6.5 32.5t29.5 13.5q20 0 36.5 -13.5t20.5 -32.5
q5 -20 -6 -33.5t-31 -13.5q-19 0 -35 13.5t-21 33.5z" />
    <glyph glyph-name="Igrave" unicode="&#xcc;" horiz-adv-x="254" 
d="M132 427q-14 65 -30 128.5t-33 128.5q11 -2 22.5 -3t23.5 -1q11 0 21.5 1t21.5 3q11 -66 22 -128.5t25 -128.5l37 -174q14 -66 29.5 -129t32.5 -128q-11 2 -22.5 3t-22.5 1q-12 0 -22.5 -1t-21.5 -3q-11 66 -21.5 128.5t-24.5 128.5zM-36 836q-13 7 -26.5 17t-17.5 27
q-3 14 6 20.5t17 6.5q10 0 22 -6.5t24 -16.5q41 -35 84.5 -71.5t85.5 -70.5h-29z" />
    <glyph glyph-name="Iacute" unicode="&#xcd;" horiz-adv-x="253" 
d="M57 427q-14 65 -30 128.5t-32 128.5q10 -2 21.5 -3t22.5 -1q12 0 22.5 1t21.5 3q11 -66 22 -128.5t25 -128.5l37 -174q14 -66 29.5 -129t32.5 -128q-11 2 -22.5 3t-23.5 1q-11 0 -21.5 -1t-21.5 -3q-11 66 -21.5 128.5t-24.5 128.5zM80 884q8 8 18 15.5t19 7.5
q8 0 19.5 -6.5t14.5 -20.5q4 -17 -5.5 -27t-19.5 -17q-33 -24 -63.5 -47.5t-62.5 -46.5h-28z" />
    <glyph glyph-name="Icircumflex" unicode="&#xce;" horiz-adv-x="336" 
d="M134 427q-14 65 -30 128.5t-33 128.5q12 -2 23.5 -3t22.5 -1t22 1t22 3q11 -66 22 -128.5t25 -128.5l37 -174q14 -66 30 -129t33 -128q-12 2 -23.5 3t-22.5 1t-22 -1t-22 -3q-11 66 -22 128.5t-25 128.5zM81 850q-25 -26 -50 -54t-49 -54h-25q23 41 41 79t41 80h62
q40 -41 77 -80t75 -79h-25z" />
    <glyph glyph-name="Idieresis" unicode="&#xcf;" horiz-adv-x="319" 
d="M122 427q-14 65 -30 128.5t-33 128.5q12 -2 23.5 -3t22.5 -1t22 1t22 3q11 -66 22 -128.5t25 -128.5l37 -174q14 -66 30 -129t33 -128q-12 2 -23.5 3t-22.5 1t-22 -1t-22 -3q-11 66 -22 128.5t-25 128.5zM-69 816q-4 19 6.5 32.5t30.5 13.5q19 0 35 -13.5t20 -32.5
q5 -20 -6 -33.5t-29 -13.5q-20 0 -36 13.5t-21 33.5zM130 816q-4 19 6.5 32.5t29.5 13.5q20 0 36.5 -13.5t20.5 -32.5q5 -20 -6 -33.5t-31 -13.5q-19 0 -35 13.5t-21 33.5z" />
    <glyph glyph-name="Eth" unicode="&#xd0;" horiz-adv-x="780" 
d="M106 427q-14 65 -30 129t-33 129q39 -2 75 -3.5t74 -1.5q20 0 38.5 0.5t37.5 1.5q20 1 38.5 2t37.5 1q88 0 155.5 -23t116.5 -65.5t80.5 -104t48.5 -138.5q21 -100 1 -168.5t-64.5 -111t-105 -61t-119.5 -18.5q-17 0 -34.5 0.5t-34.5 1.5l-34 2t-34 1q-32 0 -65 -1
t-65 -3q-11 66 -22 128.5t-25 128.5l-25 117q-22 0 -47 0.5t-51 -1.5q0 4 -0.5 7t-1.5 8q-1 9 -4 15q28 -2 51.5 -1.5t46.5 0.5zM216 253q11 -54 25 -110.5t28 -109.5q24 -5 62.5 -8t77.5 -3q57 0 110.5 13.5t91 50.5t52 101.5t-6.5 166.5q-19 90 -53.5 147.5t-81 91
t-103 46.5t-119.5 13q-48 0 -88.5 -3t-71.5 -7q8 -49 18 -104.5t22 -110.5l6 -29q48 0 97.5 0.5t95.5 2.5q0 -5 0.5 -8.5t1.5 -8.5q2 -9 5 -18q-48 2 -96.5 3t-97.5 1z" />
    <glyph glyph-name="Ntilde" unicode="&#xd1;" horiz-adv-x="661" 
d="M701 -18q-65 61 -136 125.5t-145 129.5t-149 130.5t-147 127.5l-63 56l6 -25q5 -29 13.5 -75t24.5 -119q6 -30 17 -77t22.5 -96.5t22.5 -93.5l17 -68q-6 2 -15 2.5t-16 0.5q-15 0 -30 -3q-2 16 -6 46t-9.5 67.5t-12.5 80.5t-14.5 85.5t-15 82.5t-14.5 72
q-20 95 -35 163.5t-24 103.5h8q12 -11 25 -22.5t27 -23.5q73 -65 155 -137t160.5 -141t149.5 -129.5t122 -103.5q-14 67 -29 138.5t-31 141.5t-31.5 137t-31.5 125q9 -2 15.5 -2.5t14.5 -0.5q13 0 25 3q3 -26 10 -70.5t15.5 -93.5t16.5 -95t14 -74q8 -38 20 -93l24 -110
t22 -100.5t15 -64.5h-7zM112 767q0 17 4 33.5t13.5 30t24.5 22t37 8.5q18 0 33 -4.5t44 -17.5q33 -14 47 -19t27 -5q21 0 34 17t18 33h20q0 -12 -3.5 -29t-12.5 -32.5t-25.5 -26t-43.5 -10.5q-14 0 -32 5t-43 17q-32 16 -47 20.5t-27 4.5q-24 0 -34 -11t-14 -36h-20z" />
    <glyph glyph-name="Ograve" unicode="&#xd2;" horiz-adv-x="793" 
d="M46 340q-18 85 -4.5 151.5t53 112.5t103 70t146.5 24t157 -24t133 -70t101 -112.5t60 -151.5t4.5 -151.5t-53 -112.5t-103.5 -70t-147 -24t-156.5 24t-133 70t-101 112.5t-59.5 151.5zM706 340q-18 85 -53.5 147.5t-82.5 103.5t-103.5 60.5t-117.5 19.5q-60 0 -108 -19.5
t-77.5 -60.5t-38 -103.5t9.5 -147.5q18 -86 53 -148t82 -103t103.5 -60.5t116.5 -19.5q61 0 109 19.5t78 60.5t38.5 103t-9.5 148zM195 836q-13 7 -26 17t-17 27q-3 14 5.5 20.5t16.5 6.5q10 0 22.5 -6.5t24.5 -16.5q42 -35 85 -71.5t85 -70.5h-29z" />
    <glyph glyph-name="Oacute" unicode="&#xd3;" horiz-adv-x="793" 
d="M42 340q-18 85 -4.5 151.5t53 112.5t103 70t146.5 24t157 -24t133 -70t101 -112.5t60 -151.5t4.5 -151.5t-53 -112.5t-103.5 -70t-147 -24t-156.5 24t-133 70t-101 112.5t-59.5 151.5zM702 340q-18 85 -53.5 147.5t-82.5 103.5t-103.5 60.5t-117.5 19.5q-60 0 -108 -19.5
t-77.5 -60.5t-38 -103.5t9.5 -147.5q18 -86 53 -148t82 -103t103.5 -60.5t116.5 -19.5q61 0 109 19.5t78 60.5t38.5 103t-9.5 148zM384 884q8 10 17.5 16.5t19.5 6.5q8 0 19.5 -6.5t14.5 -20.5q4 -17 -5.5 -27t-19.5 -17q-32 -24 -63.5 -47.5t-63.5 -46.5h-29z" />
    <glyph glyph-name="Ocircumflex" unicode="&#xd4;" horiz-adv-x="797" 
d="M45 340q-18 85 -4.5 151.5t53.5 112.5t103 70t146 24t157 -24t133.5 -70t101 -112.5t59.5 -151.5t4.5 -151.5t-53 -112.5t-103.5 -70t-147 -24t-156.5 24t-133 70t-101 112.5t-59.5 151.5zM705 340q-18 85 -53 147.5t-82 103.5t-103.5 60.5t-117.5 19.5q-60 0 -108 -19.5
t-78 -60.5t-38.5 -103.5t9.5 -147.5q18 -86 53 -148t82 -103t103.5 -60.5t116.5 -19.5q61 0 109 19.5t78 60.5t38.5 103t-9.5 148zM311 850q-25 -26 -50.5 -54t-49.5 -54h-25q22 41 41 79t42 80h62q39 -41 76 -80t76 -79h-25z" />
    <glyph glyph-name="Otilde" unicode="&#xd5;" horiz-adv-x="797" 
d="M41 340q-18 85 -4.5 151.5t53.5 112.5t103 70t146 24t157 -24t133.5 -70t101 -112.5t59.5 -151.5t4.5 -151.5t-53 -112.5t-103.5 -70t-147 -24t-156.5 24t-133 70t-101 112.5t-59.5 151.5zM701 340q-18 85 -53 147.5t-82 103.5t-103.5 60.5t-117.5 19.5q-60 0 -108 -19.5
t-78 -60.5t-38.5 -103.5t9.5 -147.5q18 -86 53.5 -148t82 -103t103 -60.5t116.5 -19.5q61 0 109 19.5t78 60.5t38.5 103t-9.5 148zM164 767q0 17 4 33.5t13 30t24 22t38 8.5q17 0 32.5 -4.5t44.5 -17.5q33 -14 47 -19t27 -5q21 0 34 17t18 33h19q0 -12 -3 -29t-12 -32.5
t-25.5 -26t-43.5 -10.5q-14 0 -32 5t-43 17q-32 16 -47 20.5t-27 4.5q-25 0 -34.5 -11t-13.5 -36h-20z" />
    <glyph glyph-name="Odieresis" unicode="&#xd6;" horiz-adv-x="797" 
d="M41 340q-18 85 -4.5 151.5t53.5 112.5t103 70t146 24t157 -24t133.5 -70t101 -112.5t59.5 -151.5t4.5 -151.5t-53 -112.5t-103.5 -70t-147 -24t-156.5 24t-133 70t-101 112.5t-59.5 151.5zM701 340q-18 85 -53.5 147.5t-82.5 103.5t-103 60.5t-117 19.5q-60 0 -108 -19.5
t-78 -60.5t-38.5 -103.5t9.5 -147.5q18 -86 53 -148t82 -103t103.5 -60.5t116.5 -19.5q61 0 109 19.5t78 60.5t38.5 103t-9.5 148zM368 816q-5 19 6 32.5t30 13.5q20 0 36 -13.5t21 -32.5q4 -20 -6.5 -33.5t-30.5 -13.5q-19 0 -35.5 13.5t-20.5 33.5zM168 816q-5 19 6 32.5
t31 13.5q19 0 35 -13.5t21 -32.5q4 -20 -6.5 -33.5t-29.5 -13.5q-20 0 -36.5 13.5t-20.5 33.5z" />
    <glyph glyph-name="multiply" unicode="&#xd7;" horiz-adv-x="518" 
d="M230 252q-56 45 -113.5 93t-113.5 94q6 8 11 14.5t12 14.5l226 -187q36 46 74.5 93.5t74.5 93.5l34 -29l-147 -187l226 -187q-6 -8 -10.5 -14.5t-11.5 -14.5l-227 186l-148 -186l-35 29z" />
    <glyph glyph-name="Oslash" unicode="&#xd8;" horiz-adv-x="809" 
d="M29 340q-18 85 -4.5 151.5t53.5 112.5t103 70t146 24q72 0 137.5 -18.5t121.5 -54.5q7 8 17 22t19.5 29t17.5 29t12 23q4 -4 11 -8.5t12 -7.5q-7 -8 -16.5 -20.5t-20 -26.5t-20 -27.5t-15.5 -22.5q66 -48 111 -116.5t64 -158.5q18 -85 4.5 -151.5t-53 -112.5t-103.5 -70
t-147 -24q-70 0 -135 18t-121 53q-8 -11 -17.5 -25t-19 -29t-18 -29t-13.5 -24q-5 4 -11.5 8t-11.5 7q6 7 15 19.5t19 27.5l20 30l18 27q-66 47 -111 116t-64 159zM560 585q-50 44 -107 65t-120 21q-60 0 -108 -19.5t-78 -60.5t-38.5 -103.5t9.5 -147.5q16 -75 46 -133
t71 -100zM250 92q48 -42 105 -62.5t118 -20.5t109 19.5t78 60.5t38.5 103t-9.5 148q-16 73 -45 130t-70 101z" />
    <glyph glyph-name="Ugrave" unicode="&#xd9;" horiz-adv-x="643" 
d="M581 360q-29 137 -46 213.5t-27 109.5q18 -3 36 -3q12 0 24 3q4 -36 11.5 -84t17 -103t20.5 -113.5t22 -113.5q13 -66 5 -119.5t-36.5 -90.5t-76.5 -57t-115 -20q-149 0 -232 69.5t-114 215.5q-5 23 -8.5 46.5t-7.5 42.5q-3 18 -6 35.5t-7 35.5q-15 72 -29.5 131.5
t-24.5 103.5q-2 6 -3 11.5t-3 10.5q12 -2 24 -3t23 -1q21 0 38 3q3 -23 8.5 -58.5t13 -80t17.5 -96t22 -106.5q8 -35 17 -72.5t23 -73.5t34.5 -68t51.5 -56.5t73.5 -38.5t100.5 -14q57 0 92.5 16t54.5 43.5t25.5 62.5t4.5 73t-9 75.5t-14 70.5zM123 836q-13 7 -26 17t-17 27
q-3 14 5.5 20.5t16.5 6.5q10 0 22.5 -6.5t24.5 -16.5q42 -35 85 -71.5t85 -70.5h-29z" />
    <glyph glyph-name="Uacute" unicode="&#xda;" horiz-adv-x="642" 
d="M574 360q-29 137 -46 213.5t-27 109.5q18 -3 36 -3q12 0 24 3q4 -36 11.5 -84t17 -103t20.5 -113.5t22 -113.5q13 -66 5 -119.5t-36.5 -90.5t-76.5 -57t-115 -20q-149 0 -232 69.5t-114 215.5q-5 23 -8.5 46.5t-7.5 42.5q-3 18 -6 35.5t-7 35.5q-15 72 -29 131.5
t-25 103.5q-2 6 -3 11.5t-3 10.5q12 -2 24 -3t23 -1q21 0 38 3q3 -23 8.5 -58.5t13 -80t17.5 -96t22 -106.5q7 -35 16.5 -72.5t23.5 -73.5t34.5 -68t51.5 -56.5t73.5 -38.5t100.5 -14q57 0 92.5 16t54.5 43.5t25.5 62.5t4.5 73t-9 75.5t-14 70.5zM309 884q8 8 18 15.5
t19 7.5q8 0 19.5 -6.5t14.5 -20.5q4 -17 -5.5 -27t-19.5 -17q-32 -24 -63.5 -47.5t-63.5 -46.5h-29z" />
    <glyph glyph-name="Ucircumflex" unicode="&#xdb;" horiz-adv-x="647" 
d="M580 360q-29 137 -46.5 213.5t-27.5 109.5q18 -3 37 -3q11 0 23 3q4 -36 12 -84t17.5 -103t20 -113.5t21.5 -113.5q13 -66 5.5 -119.5t-36 -90.5t-77 -57t-115.5 -20q-149 0 -231.5 69.5t-114.5 215.5q-5 23 -8.5 46.5t-6.5 42.5q-4 18 -6.5 35.5t-7.5 35.5
q-15 72 -28.5 131.5t-24.5 103.5q-2 6 -3.5 11.5t-2.5 10.5q11 -2 23.5 -3t23.5 -1q20 0 37 3q3 -23 8.5 -58.5t13.5 -80t18 -96t22 -106.5q7 -35 16 -72.5t23 -73.5t34.5 -68t51.5 -56.5t73.5 -38.5t100.5 -14q57 0 92.5 16t55 43.5t25.5 62.5t4.5 73t-8.5 75.5t-14 70.5z
M238 850q-25 -26 -50.5 -54t-49.5 -54h-25q22 41 41 79t42 80h62q39 -41 76 -80t76 -79h-25z" />
    <glyph glyph-name="Udieresis" unicode="&#xdc;" horiz-adv-x="648" 
d="M576 360q-29 137 -46.5 213.5t-27.5 109.5q18 -3 37 -3q11 0 23 3q4 -36 12 -84t17.5 -103t20 -113.5t21.5 -113.5q13 -66 5.5 -119.5t-36 -90.5t-77 -57t-115.5 -20q-149 0 -231.5 69.5t-114.5 215.5q-5 23 -8.5 46.5t-6.5 42.5q-4 18 -6.5 35.5t-7.5 35.5
q-15 72 -29 131.5t-25 103.5q-1 6 -2.5 11.5t-2.5 10.5q11 -2 23.5 -3t23.5 -1q20 0 37 3q3 -23 8.5 -58.5t13.5 -80t18 -96t22 -106.5q7 -35 16 -72.5t23 -73.5t34.5 -68t51.5 -56.5t73.5 -38.5t100.5 -14q57 0 92.5 16t55 43.5t25.5 62.5t4.5 73t-8.5 75.5t-14 70.5z
M95 816q-5 19 6 32.5t31 13.5q19 0 35 -13.5t21 -32.5q4 -20 -6.5 -33.5t-29.5 -13.5q-20 0 -36.5 13.5t-20.5 33.5zM295 816q-5 19 6 32.5t30 13.5q20 0 36 -13.5t21 -32.5q4 -20 -6.5 -33.5t-30.5 -13.5q-19 0 -35.5 13.5t-20.5 33.5z" />
    <glyph glyph-name="Yacute" unicode="&#xdd;" horiz-adv-x="582" 
d="M287 281q-14 17 -39 48.5t-55.5 70t-65 81t-66 81.5t-58 71t-41.5 50q11 -2 23 -2.5t23 -0.5q14 0 27 1t25 3q63 -88 130.5 -176t139.5 -179q17 38 33.5 82t32 90t29.5 92.5t25 90.5q8 -2 18 -3t20 -1h14.5t12.5 2q-31 -71 -55.5 -128.5t-43.5 -105t-32.5 -87
t-23.5 -72.5q7 -36 16.5 -77t18.5 -80.5t18 -75t16 -60.5q-12 2 -23 3t-22 1q-21 0 -43 -3q-6 54 -21 128t-32 153zM282 873q7 9 17.5 16.5t19.5 7.5q8 0 19.5 -7t14.5 -21q3 -16 -6 -26t-19 -17q-32 -24 -63.5 -47.5t-63.5 -47.5h-29z" />
    <glyph glyph-name="Thorn" unicode="&#xde;" horiz-adv-x="474" 
d="M33 427q-14 65 -29.5 128.5t-32.5 128.5q11 -2 22 -3t23 -1q11 0 21 1t21 3q5 -33 9 -64.5t12 -67.5h130q100 0 165.5 -40.5t85.5 -131.5q12 -54 -2 -90t-44.5 -57.5t-72 -30t-85.5 -8.5q-28 0 -53.5 1t-47.5 3l13 -62q9 -42 18 -80.5t17 -58.5q-21 3 -42 3q-12 0 -23 -1
t-21 -3q-11 66 -22 128.5t-25 128.5zM149 226q17 -3 39.5 -4t45.5 -1q34 0 64 9.5t50.5 29t29 49t-0.5 70.5q-6 26 -20 52t-38 46.5t-58.5 33.5t-80.5 13h-95z" />
    <glyph glyph-name="germandbls" unicode="&#xdf;" horiz-adv-x="518" 
d="M37 407q-6 29 -12.5 55t-10.5 43l-3.5 14t-3.5 11q-12 61 -2 104t33.5 70t56 39.5t65.5 12.5q22 0 49 -8t51.5 -22.5t43 -34.5t23.5 -45q4 -21 2 -40t-9 -35.5t-16 -32t-18 -28.5q-15 -20 -26 -41.5t-6 -42.5q3 -17 13.5 -30.5t26 -25.5t34.5 -23t39 -23q25 -14 50 -29
t46.5 -33.5t37.5 -41t22 -51.5q7 -32 -2 -65t-30 -59.5t-53 -43t-70 -16.5q-29 0 -55 6t-43 14q3 11 4.5 24.5t0.5 24.5q17 -17 47.5 -29.5t61.5 -12.5q22 0 41 8t31.5 22.5t17.5 35.5t0 47q-5 25 -19.5 45.5t-35 38t-44 32.5t-46.5 29q-21 12 -42 25.5t-38.5 28t-30 31
t-16.5 36.5q-5 26 8 50t30 49q11 15 21.5 31t17.5 33.5t9.5 37.5t-2.5 42q-9 43 -42.5 71t-83.5 28q-37 0 -58.5 -14t-30.5 -41t-6.5 -66.5t13.5 -91.5l50 -238q7 -34 16 -73t18 -77.5t17.5 -74t16.5 -61.5q-10 2 -20 3t-21 1t-19.5 -1t-18.5 -3q-3 25 -9 60t-13.5 73.5
t-16 78t-15.5 74.5zM275 58v-4l-5 6l5 -2v0z" />
    <glyph glyph-name="agrave" unicode="&#xe0;" horiz-adv-x="463" 
d="M61 423q36 33 71 45t75 12q35 0 66.5 -10.5t56.5 -29.5t42 -45.5t24 -59.5q6 -28 11.5 -55.5t10.5 -56.5t11 -60.5t14 -64.5q3 -13 6.5 -27t10 -26t17.5 -19.5t28 -7.5h7t8 2l3 -12q-10 -5 -25.5 -8.5t-32.5 -3.5q-30 0 -50.5 20.5t-29.5 49.5q-32 -41 -64 -61t-82 -20
q-24 0 -49.5 8t-47 23.5t-37.5 37.5t-22 50q-12 58 19.5 90.5t91.5 43.5q51 9 80.5 16t43.5 15t16.5 18.5t-0.5 26.5q-6 27 -17 51t-28.5 42.5t-42 29t-56.5 10.5q-41 0 -73 -17.5t-43 -51.5h-4zM347 253q-15 -5 -31 -9t-30 -7q-24 -5 -50.5 -12.5t-47 -20.5t-31 -33.5
t-4.5 -51.5q6 -25 18 -44t27.5 -32t33.5 -19.5t36 -6.5q41 0 69 23t40 52zM52 661q-13 8 -26.5 18t-16.5 26q-3 14 5.5 20.5t16.5 6.5q10 0 22.5 -6.5t24.5 -16.5q42 -35 85 -71t85 -71h-29z" />
    <glyph glyph-name="aacute" unicode="&#xe1;" horiz-adv-x="459" 
d="M46 423q36 33 71 45t75 12q35 0 66.5 -10.5t56.5 -29.5t42 -45.5t24 -59.5q6 -28 11.5 -55.5t10.5 -56.5t11 -60.5t14 -64.5q3 -13 6.5 -27t10 -26t17.5 -19.5t28 -7.5h7t8 2l3 -12q-10 -5 -25.5 -8.5t-32.5 -3.5q-30 0 -50.5 20.5t-29.5 49.5q-32 -41 -64 -61t-82 -20
q-24 0 -49.5 8t-47 23.5t-37.5 37.5t-22 50q-12 58 19.5 90.5t91.5 43.5q51 9 80.5 16t43.5 15t16.5 18.5t-0.5 26.5q-6 27 -17 51t-28.5 42.5t-42 29t-56.5 10.5q-41 0 -73 -17.5t-43 -51.5h-4zM332 253q-15 -5 -31 -9t-30 -7q-24 -5 -50.5 -12.5t-47 -20.5t-31 -33.5
t-4.5 -51.5q6 -25 18 -44t27.5 -32t33.5 -19.5t36 -6.5q41 0 69 23t40 52zM230 709q8 10 17.5 16.5t19.5 6.5q8 0 19.5 -6.5t14.5 -20.5q3 -16 -6 -26t-19 -18q-32 -23 -63.5 -46.5t-63.5 -47.5h-29z" />
    <glyph glyph-name="acircumflex" unicode="&#xe2;" horiz-adv-x="466" 
d="M55 423q37 33 71.5 45t74.5 12q35 0 66.5 -10.5t56.5 -29.5t42.5 -45.5t24.5 -59.5q6 -28 11 -55.5t11 -56.5q5 -29 11 -60.5t13 -64.5q3 -13 6.5 -27t10.5 -26t17.5 -19.5t27.5 -7.5h7t9 2l2 -12q-9 -5 -24.5 -8.5t-32.5 -3.5q-30 0 -51 20.5t-30 49.5q-32 -41 -64 -61
t-82 -20q-24 0 -49 8t-46.5 23.5t-37.5 37.5t-22 50q-6 29 -1 51.5t20 39t38.5 27t52.5 16.5q51 9 80.5 16t43.5 15t16.5 18.5t-0.5 26.5q-6 27 -17 51t-28.5 42.5t-42 29t-56.5 10.5q-41 0 -72.5 -17.5t-42.5 -51.5h-4zM341 253q-14 -5 -30 -9t-30 -7q-25 -5 -51.5 -12.5
t-46.5 -20.5t-31 -33.5t-4 -51.5q5 -25 17 -44t27.5 -32t33.5 -19.5t36 -6.5q41 0 69.5 23t39.5 52zM162 676q-24 -27 -49.5 -54.5t-50.5 -54.5h-25q23 42 42 80t42 79h62q39 -40 76 -79t75 -80h-25z" />
    <glyph glyph-name="atilde" unicode="&#xe3;" horiz-adv-x="473" 
d="M55 423q37 33 71.5 45t74.5 12q35 0 66.5 -10.5t57 -29.5t42.5 -45.5t24 -59.5q6 -28 11.5 -55.5t10.5 -56.5t11 -60.5t14 -64.5q3 -13 6.5 -27t10 -26t17.5 -19.5t28 -7.5h7t8 2l3 -12q-10 -5 -25.5 -8.5t-32.5 -3.5q-30 0 -50.5 20.5t-30.5 49.5q-16 -20 -31 -35.5
t-32 -25.5t-37 -15t-45 -5q-24 0 -49.5 8t-47 23.5t-37.5 37.5t-22 50q-12 58 19.5 90.5t91.5 43.5q51 9 80.5 16t43.5 15t16.5 18.5t-0.5 26.5q-6 27 -17.5 51t-29 42.5t-42 29t-56.5 10.5q-41 0 -72.5 -17.5t-42.5 -51.5h-4zM342 253q-15 -5 -31 -9t-30 -7
q-24 -5 -50.5 -12.5t-47 -20.5t-31.5 -33.5t-4 -51.5q5 -25 17 -44t28 -32t34 -19.5t36 -6.5q41 0 69 23t40 52zM21 592q0 17 3.5 34t12.5 30.5t24 22t38 8.5q17 0 32.5 -4.5t44.5 -18.5q33 -14 47 -19t27 -5q20 0 33 17.5t18 33.5h19q0 -13 -2.5 -30t-11 -32.5t-25 -26
t-43.5 -10.5q-29 0 -76 23q-32 15 -46.5 19.5t-26.5 4.5q-25 0 -35 -10.5t-13 -36.5h-20z" />
    <glyph glyph-name="adieresis" unicode="&#xe4;" horiz-adv-x="471" 
d="M54 423q37 33 71.5 45t74.5 12q35 0 66.5 -10.5t56.5 -29.5t42.5 -45.5t24.5 -59.5q6 -28 11 -55.5t11 -56.5q5 -29 11 -60.5t13 -64.5q3 -13 6.5 -27t10.5 -26t17.5 -19.5t27.5 -7.5h7t9 2l2 -12q-10 -5 -25 -8.5t-32 -3.5q-30 0 -51 20.5t-30 49.5q-32 -41 -64 -61
t-82 -20q-24 0 -49 8t-46.5 23.5t-37.5 37.5t-22 50q-6 29 -1 51.5t20 39t38.5 27t52.5 16.5q51 9 80.5 16t43.5 15t16.5 18.5t-0.5 26.5q-6 27 -17 51t-28.5 42.5t-42 29t-56.5 10.5q-41 0 -72.5 -17.5t-42.5 -51.5h-4zM340 253q-14 -5 -30 -9t-30 -7q-25 -5 -51.5 -12.5
t-46.5 -20.5t-31 -33.5t-4 -51.5q5 -25 17 -44t27.5 -32t33.5 -19.5t36 -6.5q41 0 69.5 23t39.5 52zM223 641q-5 20 6 33.5t30 13.5q20 0 36 -13.5t21 -33.5q4 -19 -6.5 -33t-30.5 -14q-19 0 -35.5 14t-20.5 33zM23 641q-5 20 6 33.5t31 13.5q19 0 35 -13.5t21 -33.5
q4 -19 -6.5 -33t-29.5 -14q-20 0 -36.5 14t-20.5 33z" />
    <glyph glyph-name="aring" unicode="&#xe5;" horiz-adv-x="465" 
d="M57 423q37 33 71.5 45t74.5 12q35 0 66.5 -10.5t57 -29.5t42.5 -45.5t24 -59.5q6 -28 11.5 -55.5t10.5 -56.5t11 -60.5t13 -64.5q3 -13 6.5 -27t10.5 -26t17.5 -19.5t27.5 -7.5h7t9 2l3 -12q-10 -5 -25.5 -8.5t-32.5 -3.5q-30 0 -50.5 20.5t-30.5 49.5q-16 -20 -31 -35.5
t-32.5 -25.5t-37.5 -15t-45 -5q-24 0 -49 8t-46.5 23.5t-37.5 37.5t-22 50q-12 58 19.5 90.5t91.5 43.5q51 9 80 16t43.5 15t17 18.5t-0.5 26.5q-6 27 -17.5 51t-29 42.5t-42 29t-56.5 10.5q-41 0 -72.5 -17.5t-42.5 -51.5h-4zM344 253q-15 -5 -31 -9t-30 -7
q-24 -5 -50.5 -12.5t-47 -20.5t-31.5 -33.5t-4 -51.5q5 -25 17 -44t28 -32t34 -19.5t36 -6.5q41 0 69 23t40 52zM72 649q-8 41 14 70t64 29q20 0 39.5 -8t36 -21.5t28 -31.5t15.5 -38t0.5 -37.5t-14 -31t-27 -21.5t-37.5 -8q-20 0 -39.5 8t-35.5 21.5t-28 31t-16 37.5z
M104 649q6 -27 29 -46.5t51 -19.5t43.5 19.5t9.5 46.5q-6 28 -29.5 47t-50.5 19q-29 0 -44 -19t-9 -47z" />
    <glyph glyph-name="ae" unicode="&#xe6;" horiz-adv-x="784" 
d="M39 423q37 33 71.5 45t74.5 12q16 0 36 -3t42 -11.5t45 -24t46 -40.5q19 36 54 57.5t83 21.5q52 0 94 -16t73 -43.5t51.5 -64.5t29.5 -78q2 -8 3.5 -17t2.5 -18q-14 0 -35.5 0.5t-34.5 0.5q-72 3 -144 3q-20 0 -43.5 -0.5t-43.5 -2.5q-11 0 -25 -0.5t-25 -0.5
q1 -8 2.5 -16.5t3.5 -16.5q9 -41 28.5 -76t48 -61t65 -41t80.5 -15q40 0 77.5 20t59.5 49q1 -11 1.5 -20.5t1.5 -20.5q-25 -24 -65.5 -42t-86.5 -18q-71 0 -132.5 33t-103.5 97q-4 -24 -13.5 -47.5t-27.5 -42t-46.5 -29.5t-69.5 -11q-24 0 -49.5 8t-47 23.5t-37 37.5
t-21.5 50q-13 58 19 90.5t91 43.5q51 9 80.5 16t43.5 15t16.5 18.5t-0.5 26.5q-6 27 -17 51t-29 42.5t-42.5 29t-56.5 10.5q-40 0 -72 -17.5t-43 -51.5h-4zM497 458q-38 0 -61 -18t-34.5 -46t-13.5 -60.5t2 -61.5q8 0 22.5 -0.5t22.5 -0.5q23 -1 47 -1.5t46 -0.5
q20 0 46 0.5t47 1.5q11 0 23.5 0.5t22.5 0.5q-6 28 -18 61t-32 60.5t-49.5 46t-70.5 18.5zM132 119q9 -46 42.5 -74t78.5 -28q21 0 40.5 7t33 21.5t20 35.5t2.5 49q-3 17 -6.5 34.5t-6.5 34.5q-3 11 -6 26.5t-5 27.5q-14 -5 -30.5 -9t-30.5 -7q-24 -5 -50.5 -12.5
t-46.5 -20.5t-31 -33.5t-4 -51.5zM759 86q-1 2 -0.5 3t-0.5 3l2 -5h-1v-1z" />
    <glyph glyph-name="ccedilla" unicode="&#xe7;" horiz-adv-x="473" 
d="M248 -190q13 -4 32.5 -7t40.5 -3q28 0 44.5 12.5t11.5 35.5q-5 25 -24 35t-43 10q-31 0 -40 -5q-1 0 -1 1l-1 1l14 96q-42 3 -85 18.5t-81 45.5t-67 75t-42 107q-14 65 -2 112t41.5 77t71.5 44.5t90 14.5q52 0 97 -12t69 -29q-7 -25 -7 -61l-2 -2q-11 13 -26 27.5
t-34.5 26.5t-42 20t-46.5 8q-48 0 -78 -17t-45 -47.5t-16 -71.5t9 -89q23 -107 81 -161.5t146 -54.5q40 0 77 19.5t58 48.5q1 -10 2 -20.5t3 -20.5q-23 -23 -61.5 -39.5t-82.5 -18.5l-11 -74q21 9 37 9q38 0 62.5 -18.5t30.5 -48.5q4 -20 -2 -35.5t-19.5 -25.5t-33.5 -15
t-43 -5q-26 0 -48.5 5t-38.5 10zM450 87l-2 -2q1 2 0.5 3.5t0.5 3.5l2 -5h-1v0z" />
    <glyph glyph-name="egrave" unicode="&#xe8;" horiz-adv-x="475" 
d="M56 218q-26 121 18 191.5t154 70.5q52 0 94 -16t73 -43.5t51.5 -64.5t29.5 -78q2 -8 3 -17t3 -18q-14 0 -35.5 0.5t-34.5 0.5q-74 3 -144 3q-20 0 -44 -0.5t-43 -2.5q-11 0 -25 -0.5t-25 -0.5q1 -8 2.5 -16.5t3.5 -16.5q9 -41 28.5 -76t48 -61t65 -41t80.5 -15
q40 0 77.5 20t58.5 49q1 -11 2 -20.5t2 -20.5q-25 -24 -65.5 -42t-86.5 -18q-54 0 -102 18t-86.5 49t-65.5 73.5t-37 92.5zM234 458q-38 0 -61.5 -18t-35 -46t-13.5 -60.5t3 -61.5q8 0 22.5 -0.5t22.5 -0.5q23 -1 46.5 -1.5t45.5 -0.5q20 0 46.5 0.5t47.5 1.5q11 0 23.5 0.5
t22.5 0.5q-6 28 -18 61t-32 60.5t-49.5 46t-70.5 18.5zM72 661q-13 8 -26.5 18t-16.5 26q-3 14 5.5 20.5t16.5 6.5q11 0 23 -6.5t24 -16.5q42 -35 85 -71t85 -71h-28zM495 86v6l2 -5h-1z" />
    <glyph glyph-name="eacute" unicode="&#xe9;" horiz-adv-x="477" 
d="M45 218q-26 121 18 191.5t154 70.5q52 0 94 -16t73 -43.5t51.5 -64.5t29.5 -78q2 -8 3 -17t3 -18q-14 0 -35.5 0.5t-34.5 0.5q-74 3 -144 3q-20 0 -44 -0.5t-43 -2.5q-11 0 -25 -0.5t-25 -0.5q1 -8 2.5 -16.5t3.5 -16.5q9 -41 28.5 -76t48 -61t65 -41t80.5 -15
q40 0 77.5 20t58.5 49q1 -11 2 -20.5t2 -20.5q-25 -24 -65.5 -42t-86.5 -18q-54 0 -102 18t-86.5 49t-65.5 73.5t-37 92.5zM223 458q-38 0 -61.5 -18t-35 -46t-13.5 -60.5t3 -61.5q8 0 22.5 -0.5t22.5 -0.5q23 -1 46.5 -1.5t45.5 -0.5q20 0 46.5 0.5t47.5 1.5q11 0 23.5 0.5
t22.5 0.5q-6 28 -18 61t-32 60.5t-49.5 46t-70.5 18.5zM254 709q8 10 17.5 16.5t19.5 6.5q8 0 19.5 -6.5t14.5 -20.5q3 -16 -6 -26t-19 -18q-32 -23 -63.5 -46.5t-63.5 -47.5h-29zM484 86v6l2 -5h-1z" />
    <glyph glyph-name="ecircumflex" unicode="&#xea;" horiz-adv-x="481" 
d="M53 218q-26 121 17.5 191.5t153.5 70.5q52 0 94 -16t73 -43.5t51.5 -64.5t29.5 -78q2 -8 3.5 -17t2.5 -18q-14 0 -35.5 0.5t-34.5 0.5q-72 3 -144 3q-20 0 -43.5 -0.5t-43.5 -2.5q-11 0 -25 -0.5t-25 -0.5q1 -8 2.5 -16.5t3.5 -16.5q9 -41 28.5 -76t48 -61t65 -41
t80.5 -15q40 0 77.5 20t59.5 49q1 -11 1.5 -20.5t1.5 -20.5q-25 -24 -65.5 -42t-86.5 -18q-54 0 -102 18t-86 49t-65 73.5t-37 92.5zM231 458q-38 0 -61.5 -18t-35 -46t-13.5 -60.5t2 -61.5q8 0 22.5 -0.5t22.5 -0.5q23 -1 47 -1.5t46 -0.5q20 0 46.5 0.5t46.5 1.5
q11 0 23.5 0.5t22.5 0.5q-6 28 -17.5 61t-31.5 60.5t-49.5 46t-70.5 18.5zM184 676q-23 -27 -49 -54.5t-51 -54.5h-25q23 42 42 80t42 79h63q38 -40 75 -79t75 -80h-25zM492 86q-1 2 -0.5 3t-0.5 3l2 -5h-1v-1z" />
    <glyph glyph-name="edieresis" unicode="&#xeb;" horiz-adv-x="488" 
d="M52 218q-26 121 17.5 191.5t153.5 70.5q52 0 94 -16t73 -43.5t51.5 -64.5t29.5 -78q2 -8 3.5 -17t2.5 -18q-14 0 -35.5 0.5t-34.5 0.5q-72 3 -144 3q-20 0 -43.5 -0.5t-43.5 -2.5q-11 0 -25 -0.5t-25 -0.5q1 -8 2.5 -16.5t3.5 -16.5q9 -41 28.5 -76t48 -61t65 -41
t80.5 -15q40 0 77.5 20t59.5 49q1 -11 1.5 -20.5t1.5 -20.5q-25 -24 -65.5 -42t-86.5 -18q-54 0 -102 18t-86 49t-65 73.5t-37 92.5zM230 458q-38 0 -61.5 -18t-35 -46t-13.5 -60.5t2 -61.5q8 0 22.5 -0.5t22.5 -0.5q23 -1 47 -1.5t46 -0.5q20 0 46.5 0.5t46.5 1.5
q11 0 23.5 0.5t22.5 0.5q-6 28 -17.5 61t-31.5 60.5t-49.5 46t-70.5 18.5zM245 641q-5 20 6 33.5t31 13.5q19 0 35 -13.5t21 -33.5q4 -19 -6.5 -33t-29.5 -14q-20 0 -36.5 14t-20.5 33zM45 641q-5 20 6 33.5t31 13.5q19 0 35 -13.5t21 -33.5q4 -19 -6.5 -33t-29.5 -14
q-20 0 -36.5 14t-20.5 33zM491 86q-1 2 -0.5 3t-0.5 3l2 -5h-1v-1z" />
    <glyph glyph-name="igrave" unicode="&#xec;" horiz-adv-x="251" 
d="M148 285q-9 45 -21 93t-25 91q11 -2 20.5 -3t20.5 -1t20 1t18 3q5 -43 14 -91t18 -93l23 -105q9 -45 21 -93t25 -91q-11 2 -20 3t-20 1t-20.5 -1t-18.5 -3q-5 43 -14 91t-18 93zM-17 661q-13 8 -26.5 18t-16.5 26q-3 14 5.5 20.5t16.5 6.5q10 0 22 -6.5t24 -16.5
q42 -35 85 -71t85 -71h-29z" />
    <glyph glyph-name="iacute" unicode="&#xed;" horiz-adv-x="251" 
d="M68 285q-9 45 -21 93t-25 91q11 -2 20 -3t20 -1t20.5 1t18.5 3q5 -43 14 -91t18 -93l23 -105q9 -45 21 -93t25 -91q-11 2 -20.5 3t-20.5 1t-20 -1t-18 -3q-5 43 -14 91t-18 93zM95 709q8 10 17 16.5t19 6.5q8 0 20 -6.5t15 -20.5q3 -16 -6.5 -26t-19.5 -18
q-32 -23 -63 -46.5t-64 -47.5h-27z" />
    <glyph glyph-name="icircumflex" unicode="&#xee;" horiz-adv-x="333" 
d="M150 285q-10 45 -21.5 93t-25.5 91q11 -2 20 -3t20 -1t20 1t20 3q5 -43 13 -91t18 -93l22 -105q10 -45 21.5 -93t25.5 -91q-11 2 -20.5 3t-20.5 1t-19.5 -1t-19.5 -3q-5 43 -13 91t-18 93zM99 676q-25 -27 -50.5 -54.5t-48.5 -54.5h-25l40 80t42 79h62q39 -40 76 -79
t76 -80h-25z" />
    <glyph glyph-name="idieresis" unicode="&#xef;" horiz-adv-x="330" 
d="M144 285q-10 45 -21.5 93t-25.5 91q11 -2 20 -3t20 -1t20 1t20 3q5 -43 13 -91t18 -93l22 -105q9 -45 21 -93t26 -91q-11 2 -20.5 3t-20.5 1t-19.5 -1t-19.5 -3q-5 43 -13.5 91t-17.5 93zM-45 641q-5 20 6 33.5t31 13.5q18 0 34 -13.5t21 -33.5q4 -19 -6.5 -33t-29.5 -14
t-35.5 14t-20.5 33zM154 641q-5 20 6 33.5t30 13.5q20 0 36 -13.5t21 -33.5q4 -19 -6.5 -33t-30.5 -14q-19 0 -35.5 14t-20.5 33z" />
    <glyph glyph-name="eth" unicode="&#xf0;" horiz-adv-x="537" 
d="M61 232q-15 68 -3.5 115t39.5 76.5t68 43t84 13.5q12 0 24 -1.5t28 -6.5l4 7q-77 74 -162 140l-60 -22t-62 -23q-6 8 -10.5 14.5t-9.5 12.5q29 8 59.5 17t61.5 19q-34 26 -70.5 52t-73.5 52q16 5 27 7t28 7q42 -26 79.5 -51t71.5 -48q32 11 61 22t54 22q9 -12 22 -25
q-31 -8 -59.5 -17t-55.5 -18q78 -56 136.5 -107.5t99.5 -101.5t65.5 -99t35.5 -100q14 -68 2.5 -115t-39.5 -76t-68.5 -42.5t-83.5 -13.5q-44 0 -89.5 13.5t-86 42.5t-72 76t-45.5 115zM464 232q-9 44 -25.5 84.5t-42 72t-61 50.5t-81.5 19q-47 0 -74 -19t-39 -50.5t-11 -72
t10 -84.5t25.5 -84.5t42 -71.5t60.5 -50t82 -19q46 0 73 19t39 50t11.5 71.5t-9.5 84.5z" />
    <glyph glyph-name="ntilde" unicode="&#xf1;" horiz-adv-x="472" 
d="M380 278q-16 77 -56 118t-93 41q-73 0 -98 -45t-8 -126l18 -86q10 -45 21.5 -93t24.5 -91q-10 2 -19.5 3t-20.5 1t-20 -1t-19 -3q-5 43 -13.5 91t-18.5 93l-22 105q-10 45 -21.5 93t-24.5 91q10 -2 20 -3t21 -1q7 0 15 1t18 3q3 -21 7.5 -46t9.5 -46q23 49 58.5 76
t89.5 27q27 0 57 -8t56.5 -27.5t48 -52.5t32.5 -84q5 -20 8.5 -41t7.5 -44q5 -24 9.5 -50t10.5 -52q7 -33 13.5 -63t14.5 -62q-9 2 -19 3t-20 1t-18.5 -1t-16.5 -3q-3 19 -6.5 38.5t-6.5 37.5q-6 36 -12.5 71t-14.5 73l-13 62v0zM23 592q0 17 3.5 34t12.5 30.5t24 22t38 8.5
q17 0 32.5 -4.5t44.5 -18.5q33 -14 47 -19t27 -5q21 0 34 17.5t18 33.5h19q0 -13 -3 -30t-11.5 -32.5t-25 -26t-43.5 -10.5q-29 0 -76 23q-32 15 -46.5 19.5t-26.5 4.5q-25 0 -35 -10.5t-13 -36.5h-20z" />
    <glyph glyph-name="ograve" unicode="&#xf2;" horiz-adv-x="528" 
d="M54 232q-14 68 -2.5 115t39.5 76.5t68 43t84 13.5q43 0 89 -13.5t86.5 -43t72 -76.5t45.5 -115q15 -68 3.5 -115t-39.5 -76t-68.5 -42.5t-83.5 -13.5q-44 0 -89.5 13.5t-86 42.5t-72 76t-46.5 115zM133 232q9 -44 25.5 -84.5t42 -71.5t60.5 -50t82 -19q46 0 73.5 19
t39.5 50t11 71.5t-10 84.5t-25.5 84.5t-42 72t-61 50.5t-81.5 19q-47 0 -74 -19t-39 -50.5t-11 -72t10 -84.5zM85 661q-13 8 -26.5 18t-16.5 26q-3 14 5.5 20.5t16.5 6.5q10 0 22.5 -6.5t24.5 -16.5q42 -35 85 -71t85 -71h-29z" />
    <glyph glyph-name="oacute" unicode="&#xf3;" horiz-adv-x="527" 
d="M43 232q-14 68 -2.5 115t39.5 76.5t68 43t84 13.5q43 0 89 -13.5t86.5 -43t72 -76.5t45.5 -115q15 -68 3.5 -115t-39.5 -76t-68.5 -42.5t-83.5 -13.5q-44 0 -89.5 13.5t-86 42.5t-72 76t-46.5 115zM122 232q9 -44 25.5 -84.5t42 -71.5t60.5 -50t82 -19q46 0 73.5 19
t39.5 50t11 71.5t-10 84.5t-25.5 84.5t-42 72t-61 50.5t-81.5 19q-47 0 -74 -19t-39 -50.5t-11 -72t10 -84.5zM267 709q8 10 17.5 16.5t19.5 6.5q8 0 19.5 -6.5t14.5 -20.5q3 -16 -6 -26t-19 -18q-32 -23 -63.5 -46.5t-63.5 -47.5h-29z" />
    <glyph glyph-name="ocircumflex" unicode="&#xf4;" horiz-adv-x="532" 
d="M51 232q-15 68 -3.5 115t39.5 76.5t68 43t84 13.5q43 0 89 -13.5t86.5 -43t72 -76.5t46.5 -115q14 -68 2.5 -115t-39.5 -76t-68.5 -42.5t-83.5 -13.5q-44 0 -89.5 13.5t-86 42.5t-72 76t-45.5 115zM130 232q9 -44 25.5 -84.5t41.5 -71.5t60 -50t82 -19q46 0 73.5 19
t39.5 50t11.5 71.5t-9.5 84.5t-25.5 84.5t-42 72t-61 50.5t-81.5 19q-47 0 -74 -19t-39 -50.5t-11 -72t10 -84.5zM197 676q-24 -27 -49.5 -54.5t-50.5 -54.5h-25q23 42 42 80t42 79h62q39 -40 76 -79t75 -80h-25z" />
    <glyph glyph-name="otilde" unicode="&#xf5;" horiz-adv-x="537" 
d="M49 232q-14 68 -3 115t39 76.5t68 43t84 13.5q43 0 89.5 -13.5t87 -43t72 -76.5t45.5 -115t3 -115t-39 -76t-68.5 -42.5t-83.5 -13.5q-44 0 -90 13.5t-86.5 42.5t-72 76t-45.5 115zM128 232q9 -44 25.5 -84.5t42 -71.5t60.5 -50t82 -19q46 0 73.5 19t39.5 50t11 71.5
t-10 84.5t-25.5 84.5t-42 72t-61 50.5t-81.5 19q-47 0 -74 -19t-39 -50.5t-11 -72t10 -84.5zM54 592q0 17 3.5 34t12.5 30.5t24 22t38 8.5q17 0 32.5 -4.5t44.5 -18.5q33 -14 47 -19t27 -5q21 0 33.5 17.5t17.5 33.5h19q0 -13 -2.5 -30t-11 -32.5t-25 -26t-43.5 -10.5
q-29 0 -76 23q-32 15 -46.5 19.5t-26.5 4.5q-25 0 -35 -10.5t-13 -36.5h-20z" />
    <glyph glyph-name="odieresis" unicode="&#xf6;" horiz-adv-x="537" 
d="M49 232q-15 68 -3.5 115t39.5 76.5t68 43t84 13.5q43 0 89 -13.5t86.5 -43t72 -76.5t46.5 -115q14 -68 2.5 -115t-39.5 -76t-68.5 -42.5t-83.5 -13.5q-44 0 -89.5 13.5t-86 42.5t-72 76t-45.5 115zM128 232q9 -44 25.5 -84.5t41.5 -71.5t60 -50t82 -19q46 0 73.5 19
t39.5 50t11.5 71.5t-9.5 84.5t-25.5 84.5t-42 72t-61 50.5t-81.5 19q-47 0 -74 -19t-39 -50.5t-11 -72t10 -84.5zM257 641q-5 20 6 33.5t30 13.5q20 0 36 -13.5t21 -33.5q4 -19 -6.5 -33t-30.5 -14q-19 0 -35.5 14t-20.5 33zM57 641q-5 20 6 33.5t31 13.5q19 0 35 -13.5
t21 -33.5q4 -19 -6.5 -33t-29.5 -14q-20 0 -36.5 14t-20.5 33z" />
    <glyph glyph-name="divide" unicode="&#xf7;" horiz-adv-x="516" 
d="M1 273h504l9 -43h-504zM247 53q-5 21 7.5 37t33.5 16t40.5 -16t24.5 -37q5 -22 -8 -37.5t-34 -15.5t-40 15.5t-24 37.5zM162 450q-5 22 8 37.5t34 15.5t40 -15.5t24 -37.5q5 -21 -8 -36.5t-34 -15.5t-40 15.5t-24 36.5z" />
    <glyph glyph-name="oslash" unicode="&#xf8;" horiz-adv-x="581" 
d="M55 232q-15 68 -3.5 115t39.5 76.5t68 43t84 13.5q40 0 83.5 -12t85.5 -39q17 23 31 45.5t21 36.5q6 -5 9.5 -8.5t11.5 -6.5q-11 -11 -26 -31.5t-32 -45.5q40 -34 68.5 -78t42.5 -109q14 -68 2.5 -115t-40 -76t-69 -42.5t-83.5 -13.5q-42 0 -88 13.5t-88 42.5
q-17 -25 -32.5 -48t-23.5 -38q-6 5 -9.5 8.5t-11.5 6.5q11 12 28.5 35.5t32.5 48.5q-36 32 -62 75t-39 103zM198 80q27 -33 63 -53t83 -20q46 0 73 19t39 50t11.5 71.5t-9.5 84.5q-8 37 -22.5 74.5t-37.5 69.5zM387 391q-25 30 -60.5 48.5t-78.5 18.5q-47 0 -74 -19
t-39 -50.5t-11 -72t10 -84.5q7 -35 19.5 -69.5t32.5 -66.5z" />
    <glyph glyph-name="ugrave" unicode="&#xf9;" horiz-adv-x="457" 
d="M80 146q-7 29 -11 53t-8 45q-4 19 -7 35.5t-7 33.5q-8 35 -16.5 74.5t-18.5 81.5q9 -2 19.5 -3t19.5 -1t17 1t17 3q8 -60 21 -130.5t29 -145.5q11 -54 26.5 -82.5t32.5 -43.5q19 -17 44 -28.5t56 -11.5q45 0 70 19.5t33 48.5q4 16 5.5 29t-0.5 33.5t-9 55.5t-20 95
q-8 41 -17.5 83t-18.5 78q9 -2 18 -3t20 -1t19.5 1t16.5 3q6 -40 12.5 -77t13.5 -74t14.5 -74.5t16.5 -77.5q10 -44 19 -86t20 -84q-8 2 -17 3t-17 1q-17 0 -33 -3q-3 22 -9 49.5t-11 48.5q-20 -54 -57 -82t-85 -28q-77 0 -129.5 42t-68.5 119zM51 661q-13 8 -26.5 18
t-16.5 26q-3 14 5.5 20.5t16.5 6.5q10 0 22.5 -6.5t24.5 -16.5q42 -35 85 -71t85 -71h-29z" />
    <glyph glyph-name="uacute" unicode="&#xfa;" horiz-adv-x="457" 
d="M66 146q-7 29 -11 53t-8 45q-4 19 -7 35.5t-7 33.5q-8 35 -16.5 74.5t-17.5 81.5q8 -2 18.5 -3t19.5 -1t17 1t17 3q8 -60 21 -130.5t29 -145.5q11 -54 26.5 -82.5t32.5 -43.5q19 -17 44 -28.5t56 -11.5q45 0 70 19.5t33 48.5q4 16 5.5 29t-0.5 33.5t-9 55.5t-20 95
q-8 41 -17.5 83t-18.5 78q9 -2 18 -3t20 -1t19.5 1t16.5 3q6 -40 12.5 -77t13.5 -74t14.5 -74.5t16.5 -77.5q10 -44 19 -86t20 -84q-8 2 -17 3t-17 1q-17 0 -33 -3q-3 22 -9 49.5t-11 48.5q-20 -54 -57 -82t-85 -28q-77 0 -129.5 42t-68.5 119zM230 709q8 10 17.5 16.5
t19.5 6.5q8 0 19.5 -6.5t14.5 -20.5q3 -16 -6 -26t-19 -18q-32 -23 -63.5 -46.5t-63.5 -47.5h-29z" />
    <glyph glyph-name="ucircumflex" unicode="&#xfb;" horiz-adv-x="465" 
d="M76 146q-12 56 -19 98q-3 19 -6.5 35.5t-7.5 33.5q-8 35 -16.5 74.5t-18.5 81.5q10 -2 20 -3t19 -1t17.5 1t16.5 3q8 -60 21 -130.5t29 -145.5q11 -54 27 -82.5t33 -43.5q18 -17 43 -28.5t56 -11.5q45 0 70.5 19.5t33.5 48.5q4 16 5.5 29t-1 33.5t-9.5 55.5t-20 95
q-8 41 -17.5 83t-18.5 78q10 -2 18.5 -3t19.5 -1t19.5 1t16.5 3q6 -40 13 -77l14 -74t14.5 -74.5t16.5 -77.5q9 -44 18.5 -86t20.5 -84q-9 2 -18 3t-17 1q-17 0 -32 -3q-4 22 -9.5 49.5t-10.5 48.5q-20 -54 -57.5 -82t-85.5 -28q-77 0 -129 42t-69 119zM163 676
q-24 -27 -49.5 -54.5t-50.5 -54.5h-25q23 42 42 80t42 79h62q39 -40 76 -79t75 -80h-25z" />
    <glyph glyph-name="udieresis" unicode="&#xfc;" horiz-adv-x="471" 
d="M75 146q-12 56 -19 98q-3 19 -6.5 35.5t-7.5 33.5q-8 35 -16.5 74.5t-18.5 81.5q10 -2 20 -3t19 -1t17.5 1t16.5 3q8 -60 21 -130.5t29 -145.5q11 -54 27 -82.5t33 -43.5q18 -17 43 -28.5t56 -11.5q45 0 70.5 19.5t33.5 48.5q4 16 5.5 29t-1 33.5t-9.5 55.5t-20 95
q-8 41 -17.5 83t-18.5 78q10 -2 18.5 -3t19.5 -1t19.5 1t16.5 3q6 -40 13 -77l14 -74t14.5 -74.5t16.5 -77.5q9 -44 18.5 -86t20.5 -84q-9 2 -18 3t-17 1q-17 0 -32 -3q-4 22 -9.5 49.5t-10.5 48.5q-20 -54 -57.5 -82t-85.5 -28q-77 0 -129 42t-69 119zM24 641q-5 20 6 33.5
t31 13.5q19 0 35 -13.5t21 -33.5q4 -19 -6.5 -33t-29.5 -14q-20 0 -36.5 14t-20.5 33zM224 641q-5 20 6 33.5t30 13.5q20 0 36 -13.5t21 -33.5q4 -19 -6.5 -33t-30.5 -14q-19 0 -35.5 14t-20.5 33z" />
    <glyph glyph-name="yacute" unicode="&#xfd;" horiz-adv-x="471" 
d="M264 -9q-17 29 -42.5 70.5t-54.5 87.5t-59.5 94.5t-58 91.5t-49.5 78t-35 55q8 -2 18.5 -2.5t18.5 -0.5q11 0 21.5 1t20.5 3q45 -85 98.5 -172t108.5 -175q6 -8 13 -20.5t18 -30.5q12 46 23 96.5t20 101.5t16.5 101.5t12.5 97.5q15 -3 31 -3h12.5t10.5 2
q-7 -27 -21 -82.5t-30.5 -125.5t-35 -148.5t-34 -151.5t-27 -134t-15.5 -96q-16 4 -33 4q-5 0 -11 -0.5t-11 -1.5q25 65 43.5 129t31.5 127zM219 709q8 10 17.5 16.5t19.5 6.5q8 0 19.5 -6.5t14.5 -20.5q3 -16 -6 -26t-19 -18q-33 -23 -64 -46.5t-63 -47.5h-29z" />
    <glyph glyph-name="thorn" unicode="&#xfe;" horiz-adv-x="500" 
d="M3 466q-7 34 -15 73t-17 77.5t-18 74t-16 61.5q10 -2 19.5 -3t20.5 -1t19.5 1t18.5 3q3 -26 9 -60.5t13.5 -73t15.5 -78t15 -74.5l20 -93l9 -2q5 16 14.5 35t26 35.5t42 27.5t63.5 11t77.5 -14t74 -44t62 -76.5t41.5 -110.5q13 -63 4.5 -110t-32.5 -78t-59 -46.5
t-74 -15.5q-55 0 -99.5 25t-77.5 73l-8 -2l12 -66q7 -34 16 -73t18 -77.5t17.5 -74t16.5 -61.5q-10 2 -20 3t-21 1t-19.5 -1t-18.5 -3q-3 25 -9 60t-13.5 73.5t-16 78t-15.5 74.5zM418 236q-13 63 -34.5 103.5t-47.5 64.5t-54 33.5t-53 9.5q-43 0 -69 -17.5t-38 -47
t-12 -69.5t9 -85q23 -107 73.5 -161.5t125.5 -54.5q37 0 61.5 17.5t36.5 47.5t12 71t-10 88z" />
    <glyph glyph-name="ydieresis" unicode="&#xff;" horiz-adv-x="474" 
d="M264 -9q-18 29 -43 70.5t-54.5 87.5t-60 94.5t-58 91.5t-49.5 78t-35 55q18 -3 37 -3q11 0 21.5 1t20.5 3q45 -85 98.5 -172t109.5 -175q5 -8 12.5 -20.5t18.5 -30.5q12 46 23 96.5t20 101.5t16 101.5t12 97.5q16 -3 31 -3h12.5t10.5 2q-7 -27 -21 -82.5t-30.5 -125.5
t-35 -148.5t-34 -151.5t-27 -134t-15.5 -96q-15 4 -33 4q-5 0 -11 -0.5t-11 -1.5q26 65 44 129t31 127v4zM2 641q-3 20 7 33.5t30 13.5q19 0 35.5 -13.5t20.5 -33.5q5 -19 -6 -33t-30 -14q-20 0 -36 14t-21 33zM202 641q-4 20 6.5 33.5t29.5 13.5q20 0 36.5 -13.5
t20.5 -33.5q5 -19 -6 -33t-31 -14q-19 0 -35 14t-21 33z" />
    <glyph glyph-name="dotlessi" unicode="&#x131;" horiz-adv-x="173" 
d="M41 285q-9 45 -21 93t-25 91q11 -2 20 -3t20 -1t20 1t19 3q5 -43 13.5 -91t17.5 -93l23 -105q9 -45 21 -93t26 -91q-11 2 -20.5 3t-20.5 1t-20 -1t-19 -3q-5 43 -13.5 91t-17.5 93z" />
    <glyph glyph-name="Lslash" unicode="&#x141;" horiz-adv-x="486" 
d="M105 427q-14 65 -30 128.5t-33 128.5q11 -2 23 -3t23 -1t22 1t21 3q11 -66 22 -128.5t25 -128.5l10 -49q21 15 45 32.5t49 35.5q3 -5 9 -12.5t11 -13.5q-19 -11 -46.5 -29t-61.5 -40l20 -94q11 -51 21 -96.5t18 -79.5q3 -11 6.5 -24.5t5.5 -24.5q71 0 138.5 2t136.5 11
q-1 -5 0 -12t2 -13q3 -13 8 -24q-47 2 -89.5 3t-89.5 1t-91.5 -1.5t-90.5 -3.5q-11 66 -22 129t-25 129l-11 52q-26 -17 -45.5 -32t-28.5 -23q-4 5 -9.5 12.5t-11.5 14.5q24 15 45 29.5t43 28.5z" />
    <glyph glyph-name="lslash" unicode="&#x142;" horiz-adv-x="270" 
d="M111 336q-17 -13 -36 -27t-30 -22q-4 5 -8 10.5t-8 10.5q18 13 36.5 26t39.5 28l-22 104q-7 34 -16 73t-18 77.5t-18 74t-17 61.5q11 -2 20.5 -3t20.5 -1t20 1t19 3q3 -26 9 -60.5t13 -73t15 -78t16 -74.5l13 -61q18 12 35 24.5t31 23.5q6 -11 17 -21l-15 -10h-1
q-11 -8 -26.5 -18.5t-35.5 -24.5l21 -97q7 -34 16 -73t18 -77.5t18 -74t17 -61.5q-11 2 -20.5 3t-20.5 1t-20 -1t-19 -3q-3 25 -9 60t-13 73.5t-15.5 78t-15.5 74.5zM41 284q0 1 4 3q0 -2 3 -5l-7 2v0zM41 284q-1 -1 -1 0h1v0z" />
    <glyph glyph-name="OE" unicode="&#x152;" horiz-adv-x="1006" 
d="M747 236q8 -37 16.5 -74.5t17.5 -75.5q4 -12 7.5 -26.5t6.5 -27.5q105 0 162.5 3t84.5 7v-11.5t2 -11.5q3 -13 8 -23q-44 2 -83 3t-82 1q-42 0 -82.5 -1.5t-83.5 -3.5q-3 23 -8 50t-11 56q-15 -19 -35 -40t-49.5 -38.5t-70 -29t-95.5 -11.5q-71 0 -139 24t-124 68.5
t-97 108.5t-58 145q-19 90 -6.5 159t51 116t99 71t138.5 24q63 0 111.5 -14t83.5 -33.5t57.5 -40.5t34.5 -34q-5 35 -10.5 60.5t-12.5 48.5q44 -2 82 -3.5t79 -1.5q39 0 79 1t78 3q0 -11 3 -26q3 -13 8 -24q-15 3 -31.5 5t-43.5 4t-67.5 3t-102.5 1q2 -11 4 -24t4 -24
q6 -34 12.5 -67.5t13.5 -66.5l19 -89q55 0 92 0.5t62 1.5t40 2t27 2h4q-1 -5 -0.5 -11t1.5 -11q2 -5 3.5 -11t4.5 -11h-5q-12 1 -27.5 2t-40.5 2t-62 1.5t-92 0.5zM122 340q18 -86 52.5 -148t80 -103t98.5 -60.5t108 -19.5q62 0 107 24t70.5 67.5t31.5 104.5t-10 135
q-20 90 -53 153t-75.5 102.5t-93.5 57.5t-106 18q-59 0 -106 -19.5t-76.5 -60.5t-37.5 -103.5t10 -147.5z" />
    <glyph glyph-name="oe" unicode="&#x153;" horiz-adv-x="897" 
d="M604 480q52 0 94 -16t73 -43.5t51.5 -64.5t29.5 -78q2 -8 3.5 -17t2.5 -18q-14 0 -35.5 0.5t-34.5 0.5q-72 3 -144 3q-20 0 -43.5 -0.5t-43.5 -2.5q-12 0 -25.5 -0.5t-24.5 -0.5q1 -8 2.5 -16.5t3.5 -16.5q9 -41 28 -76t47.5 -61t65.5 -41t80 -15q41 0 78.5 20t59.5 49
q1 -11 1.5 -20.5t1.5 -20.5q-25 -24 -65.5 -42t-86.5 -18q-63 0 -118 24.5t-99 68.5q-25 -50 -73 -71.5t-104 -21.5q-44 0 -90 13.5t-86.5 42.5t-72 76t-45.5 115t-2.5 115t39.5 76.5t68 43t84 13.5q54 0 111.5 -22t102.5 -70q22 45 63.5 68.5t102.5 23.5zM440 232
q-9 44 -26 84.5t-43 72t-61.5 50.5t-81.5 19q-47 0 -74 -19t-39 -50.5t-11 -72t10 -84.5t25.5 -84.5t42 -71.5t60.5 -50t82 -19q46 0 73.5 19t40 50t12 71.5t-9.5 84.5zM610 458q-38 0 -61 -18t-34.5 -46t-13.5 -60.5t2 -61.5q8 0 22 -0.5t23 -0.5q23 -1 46.5 -1.5
t46.5 -0.5q20 0 46 0.5t47 1.5q11 0 23.5 0.5t22.5 0.5q-6 28 -18 61t-32 60.5t-49.5 46t-70.5 18.5zM872 86q-1 2 -0.5 3t-0.5 3l2 -5h-1v-1z" />
    <glyph glyph-name="Scaron" unicode="&#x160;" horiz-adv-x="460" 
d="M117 120q13 -18 31 -37t41.5 -34.5t52 -25t62.5 -9.5q35 0 60.5 12t40.5 32.5t19.5 48t-2.5 59.5q-8 34 -25 58t-41.5 41t-54 29.5t-60.5 24.5q-34 12 -67.5 26.5t-62.5 36t-50.5 52.5t-31.5 77q-9 41 -1 75.5t30.5 59t59.5 38.5t86 14q46 0 83 -10.5t70 -33.5
q-5 -17 -6 -35t-2 -44h-4q-9 15 -22 31.5t-30.5 31t-40.5 24t-52 9.5q-60 0 -90.5 -36.5t-18.5 -94.5q8 -36 26 -60.5t43.5 -42t56 -29.5t62.5 -24q33 -12 65.5 -25.5t60.5 -33.5t48.5 -49t29.5 -71q9 -45 1 -85.5t-32.5 -71t-66 -48.5t-99.5 -18q-60 0 -100.5 16.5
t-71.5 37.5q3 20 2.5 39.5t-2.5 44.5h3zM266 901h25q-23 -42 -42 -80t-41 -79h-63q-40 41 -76 79t-74 80h24l147 -109z" />
    <glyph glyph-name="scaron" unicode="&#x161;" horiz-adv-x="370" 
d="M115 82q7 -11 20.5 -23t31 -22.5t38 -17.5t42.5 -7q20 0 37.5 6.5t29 18.5t16.5 30t0 42q-5 22 -17.5 37.5t-30 26t-38.5 18t-43 13.5q-24 7 -49.5 15.5t-47 22.5t-38 35.5t-23.5 54.5q-14 64 20 106t112 42q27 0 49 -6.5t42 -13.5l10 -4l10 -4q-5 -14 -7 -32.5t-2 -29.5
h-3q-15 24 -43 43t-63 19q-16 0 -31 -5t-26 -16t-15.5 -28t0.5 -41q5 -25 18 -41t30.5 -26.5t39 -17.5t44.5 -13q24 -6 49 -14t46 -21.5t36.5 -34.5t22.5 -54q6 -28 -0.5 -56t-24.5 -50t-48 -35.5t-71 -13.5q-43 0 -75 9t-55 20q3 12 4 32.5t-1 35.5h4zM230 726h25
q-23 -41 -42.5 -79t-42.5 -80h-62q-39 42 -75 80t-74 79h25l146 -108z" />
    <glyph glyph-name="Ydieresis" unicode="&#x178;" horiz-adv-x="583" 
d="M285 281q-13 17 -38 48.5t-56 70t-65 81t-65.5 81.5t-58 71t-41.5 50q10 -2 22 -2.5t23 -0.5q14 0 27 1t25 3q63 -88 131 -176t140 -179q16 38 32.5 82t32 90t29.5 92.5t25 90.5q9 -2 18.5 -3t19.5 -1h14.5t13.5 2q-31 -71 -55.5 -128.5t-43.5 -105t-33 -87t-24 -72.5
q7 -36 16.5 -77t19 -80.5t18.5 -75t16 -60.5q-13 2 -23.5 3t-21.5 1q-22 0 -44 -3q-6 54 -20.5 128t-31.5 153zM72 816q-4 19 6.5 32.5t30.5 13.5q19 0 35.5 -13.5t20.5 -32.5q5 -20 -6 -33.5t-30 -13.5q-20 0 -36 13.5t-21 33.5zM272 816q-4 19 6.5 32.5t30.5 13.5
q19 0 35.5 -13.5t20.5 -32.5q5 -20 -6 -33.5t-30 -13.5q-20 0 -36 13.5t-21 33.5z" />
    <glyph glyph-name="Zcaron" unicode="&#x17d;" horiz-adv-x="597" 
d="M115 5q28 55 59.5 118t63 127.5t61 126.5t54 115t42.5 93l27 60q-19 1 -42 1.5t-39 0.5q-36 0 -79 -1t-86 -3t-82.5 -4.5t-68.5 -5.5q2 11 -2 25q-2 8 -4 13.5t-5 12.5q10 -1 28 -1.5t39.5 -1t43.5 -0.5h41q54 -1 120 -1h145q20 0 42.5 1t42.5 3q5 0 9 0.5t8 0.5l2 -11
q-16 -26 -43 -76.5t-58.5 -113t-64.5 -131t-62 -130.5t-51 -112t-31 -74q24 -2 48.5 -3.5t44.5 -1.5q37 0 85.5 1.5t97.5 4t93 6t72 6.5q0 -6 0.5 -13.5t2.5 -14.5q2 -8 4 -14t5 -13q-37 1 -67 2t-57 1.5t-53 1t-55 0.5q-39 0 -87.5 -0.5t-95.5 -1t-86.5 -1.5t-59.5 -2z
M329 901h25q-22 -42 -41.5 -80t-42.5 -79h-62q-39 41 -75.5 79t-75.5 80h25l147 -109z" />
    <glyph glyph-name="zcaron" unicode="&#x17e;" horiz-adv-x="470" 
d="M101 2q27 45 55 94.5t55 99t51.5 96t45.5 85.5q8 15 17 32t15 28q-8 0 -40.5 -1t-74.5 -3t-85.5 -4.5t-74.5 -5.5q0 5 -1 10t-3 12q-1 6 -3 12l-4 12q33 -3 94.5 -3.5t153.5 -0.5q43 0 70 0.5t57 3.5l2 -7q-19 -35 -42 -76t-46 -83.5t-45.5 -84t-42.5 -78.5t-35.5 -66
t-24.5 -47q43 0 79.5 0.5t72.5 2t75.5 4t90.5 7.5q1 -6 1.5 -12t1.5 -11q2 -6 3.5 -11.5t4.5 -11.5q-15 0 -28 0.5t-29 1.5q-98 3 -192 3q-33 0 -67 -0.5t-66 -2.5q-11 -1 -21 -1.5t-19 -0.5zM285 726h25q-23 -41 -42 -79t-42 -80h-62q-40 42 -76.5 80t-74.5 79h25l147 -108
z" />
    <glyph glyph-name="florin" unicode="&#x192;" horiz-adv-x="497" 
d="M120 -129q11 -5 23.5 -10t24.5 -5q22 0 34 9t18 25.5t6.5 39.5t-0.5 52l-16 382q-29 0 -57.5 0.5t-49.5 -1.5q0 7 0.5 15.5t-1.5 17.5q20 -2 49 -3t58 -1q1 13 1 27.5v27.5q1 36 9 75.5t24.5 72.5t42.5 55t64 22q5 0 13 -0.5t14 -2.5q0 -15 1.5 -35.5t5.5 -41.5
q-3 -1 -5 -2q-11 11 -29 20t-32 9q-11 0 -21 -3.5t-16.5 -12t-10.5 -23t-3 -37.5l7 -151q21 0 43 1t39 2q8 1 14.5 1.5t12.5 0.5q-2 -16 0 -34q-21 2 -49.5 1.5t-58.5 -0.5l7 -226q4 -108 -8.5 -174t-36 -102.5t-54 -49t-63.5 -13.5q2 21 1.5 38t-4.5 34h3z" />
    <glyph glyph-name="circumflex" unicode="&#x2c6;" horiz-adv-x="354" 
d="M169 676q-24 -27 -49.5 -54.5t-50.5 -54.5h-25q23 42 41.5 80t41.5 79h62q40 -40 77 -79t75 -80h-25z" />
    <glyph glyph-name="caron" unicode="&#x2c7;" horiz-adv-x="350" 
d="M280 726h25q-22 -41 -41.5 -79t-42.5 -80h-62q-39 42 -75.5 80t-75.5 79h25l147 -108z" />
    <glyph glyph-name="breve" unicode="&#x2d8;" horiz-adv-x="342" 
d="M40 717q19 -48 50.5 -72.5t83.5 -24.5q27 0 44.5 6.5t28 18.5t15.5 30t7 42h23q6 -31 3 -58t-16 -47.5t-36 -32.5t-57 -12t-62 12t-49.5 32.5t-36 47.5t-21.5 58h23z" />
    <glyph glyph-name="dotaccent" unicode="&#x2d9;" horiz-adv-x="164" 
d="M34 638q-5 19 6.5 33t30.5 14t35.5 -14t21.5 -33q4 -19 -7.5 -33t-30.5 -14t-35.5 14t-20.5 33z" />
    <glyph glyph-name="ring" unicode="&#x2da;" horiz-adv-x="266" 
d="M34 649q-9 41 13 70t64 29q20 0 39.5 -8t36 -21.5t28 -31.5t16.5 -38q8 -40 -14.5 -69t-64.5 -29q-20 0 -39.5 8t-35.5 21.5t-27.5 31t-15.5 37.5zM66 649q5 -27 28.5 -46.5t51.5 -19.5q29 0 43.5 19.5t9.5 46.5q-6 28 -29.5 47t-51.5 19q-29 0 -43.5 -19t-8.5 -47z" />
    <glyph glyph-name="ogonek" unicode="&#x2db;" horiz-adv-x="220" 
d="M136 -10q-21 -24 -33 -43t-18 -33.5t-6.5 -26.5t1.5 -22q8 -37 34.5 -51t53.5 -14q18 0 27 4q4 -8 6.5 -12t6.5 -11q-19 -8 -52 -8q-21 0 -42 5t-38 15t-30 25.5t-17 35.5q-5 26 16 61t65 75h26z" />
    <glyph glyph-name="tilde" unicode="&#x2dc;" horiz-adv-x="393" 
d="M45 592q0 17 3.5 34t13 30.5t24.5 22t38 8.5q17 0 32.5 -4.5t44.5 -18.5q33 -14 47 -19t27 -5q21 0 33.5 17.5t17.5 33.5h19q0 -13 -3 -30t-11.5 -32.5t-25 -26t-43.5 -10.5q-29 0 -76 23q-32 15 -46.5 19.5t-26.5 4.5q-25 0 -34.5 -10.5t-13.5 -36.5h-20z" />
    <glyph glyph-name="hungarumlaut" unicode="&#x2dd;" horiz-adv-x="468" 
d="M156 709q8 10 17 16.5t20 6.5q8 0 19.5 -6.5t14.5 -20.5q3 -16 -6 -26t-19 -18q-32 -23 -64 -46.5t-64 -47.5h-28zM359 709q8 10 17 16.5t20 6.5q8 0 19.5 -6.5t14.5 -20.5q3 -16 -6 -26t-20 -18q-32 -23 -63.5 -46.5t-63.5 -47.5h-28z" />
    <glyph glyph-name="endash" unicode="&#x2013;" horiz-adv-x="587" 
d="M39 248h498l9 -38h-498z" />
    <glyph glyph-name="emdash" unicode="&#x2014;" horiz-adv-x="1086" 
d="M36 248h1004l9 -38h-1004z" />
    <glyph glyph-name="quoteleft" unicode="&#x2018;" 
d="M104 450q-1 -11 -7.5 -22.5t-25.5 -11.5q-11 0 -23 7t-15 22q-2 11 0 20t4 17l1 -2v3q20 53 40.5 106.5t40.5 106.5q3 -1 5.5 -2t5.5 -2z" />
    <glyph glyph-name="quoteright" unicode="&#x2019;" 
d="M71 662q1 13 7.5 24.5t25.5 11.5q11 0 23 -7t15 -22q2 -11 0 -20t-4 -17l-1 2v-3q-20 -53 -40.5 -106.5t-40.5 -106.5q-2 1 -4.5 2t-5.5 2z" />
    <glyph glyph-name="quotesinglbase" unicode="&#x201a;" 
d="M71 69q1 12 7.5 23.5t25.5 11.5q11 0 23 -7t15 -22q2 -11 0 -19.5t-4 -16.5l-1 2q-1 -1 0 -1.5t0 -1.5q-20 -53 -40.5 -107t-40.5 -107q-5 3 -10 5z" />
    <glyph glyph-name="quotedblleft" unicode="&#x201c;" horiz-adv-x="376" 
d="M292 450q-1 -11 -7.5 -22.5t-24.5 -11.5q-11 0 -23.5 7t-15.5 22q-2 11 0 20t4 17l1 -2v3q20 53 40.5 106.5t40.5 106.5q3 -1 5.5 -2t5.5 -2zM118 450q-1 -11 -7.5 -22.5t-25.5 -11.5q-11 0 -23 7t-15 22q-2 11 0 20t4 17l1 -2v3q19 53 40 106.5t41 106.5q3 -1 5.5 -2
t5.5 -2z" />
    <glyph glyph-name="quotedblright" unicode="&#x201d;" horiz-adv-x="377" 
d="M258 662q1 13 7.5 24.5t25.5 11.5q11 0 23 -7t15 -22q2 -11 0 -20t-4 -17l-1 2v-3q-19 -53 -40 -106.5t-41 -106.5q-2 1 -4.5 2t-5.5 2zM84 662q1 13 7.5 24.5t24.5 11.5q11 0 23.5 -7t15.5 -22q2 -11 0 -20t-4 -17l-1 2v-3q-20 -53 -40.5 -106.5t-40.5 -106.5
q-2 1 -4.5 2t-5.5 2z" />
    <glyph glyph-name="quotedblbase" unicode="&#x201e;" horiz-adv-x="377" 
d="M258 69q1 12 7.5 23.5t25.5 11.5q11 0 23 -7t15 -22q2 -11 0 -19.5t-4 -16.5l-1 2q-1 -1 0 -1.5t0 -1.5q-19 -53 -40 -107t-41 -107q-5 3 -10 5zM84 69q1 12 7.5 23.5t24.5 11.5q11 0 23.5 -7t15.5 -22q2 -11 0 -19.5t-4 -16.5l-1 2q-1 -1 0 -1.5t0 -1.5
q-20 -53 -40.5 -107t-40.5 -107q-5 3 -10 5z" />
    <glyph glyph-name="dagger" unicode="&#x2020;" horiz-adv-x="473" 
d="M183 450q-6 28 -13 61.5t-14.5 65.5t-15 60t-14.5 46q11 -2 19 -2.5t18 -0.5q17 0 35 3q1 -18 6 -47t11.5 -61.5t13.5 -66.5t13 -63q45 0 88 1t85 6q1 -8 1.5 -15t2.5 -16q2 -7 4.5 -15t4.5 -15q-44 5 -87.5 6t-88.5 1q15 -70 32.5 -146.5t34.5 -147.5q8 -27 14.5 -54.5
t12.5 -53.5q-10 2 -19 3t-19 1t-19 -1t-19 -3q-5 26 -9.5 54t-9.5 54q-13 73 -27 147t-30 147q-45 0 -88.5 -1t-85.5 -6q1 7 0 15t-3 15q-3 16 -10 31q45 -5 86.5 -6t85.5 -1z" />
    <glyph glyph-name="daggerdbl" unicode="&#x2021;" horiz-adv-x="476" 
d="M212 340q-3 13 -6.5 25t-5.5 26q-4 13 -7.5 28t-5.5 28q-46 0 -89.5 -1t-85.5 -6q0 7 -0.5 15.5t-2.5 15.5q-2 9 -4.5 16t-4.5 15q44 -5 87 -6t89 -1q-3 16 -7 33.5t-9.5 40t-13 50.5t-18.5 64q18 -3 37 -3t37 3q8 -72 16.5 -114.5t15.5 -73.5q45 0 88 1t85 6
q0 -15 4 -31q2 -7 4 -15.5t5 -15.5q-44 5 -87 6t-90 1l5.5 -27.5t5.5 -28.5q2 -14 4.5 -26t5.5 -25q2 -11 5 -26t7 -26q2 -13 6 -27.5t6 -28.5q46 0 89.5 1t85.5 6q0 -15 4 -31q1 -7 3.5 -15t5.5 -15q-45 5 -88.5 6t-88.5 1q3 -16 7 -34t9.5 -40.5t13 -50t18.5 -63.5
q-18 3 -37 3t-37 -3q-8 71 -16.5 113.5t-15.5 74.5q-45 0 -88 -1t-85 -6q0 7 -1 15t-2 15q-4 16 -10 31q44 -5 87 -6t90 -1q-2 14 -5 28.5t-5 27.5q-3 13 -5.5 26t-4.5 26z" />
    <glyph glyph-name="bullet" unicode="&#x2022;" horiz-adv-x="400" 
d="M32 340q-7 34 -0.5 64.5t24.5 53.5t45.5 36t62.5 13q34 0 67.5 -13t61 -36t47 -53.5t26.5 -64.5q7 -35 0.5 -65.5t-24 -53t-45.5 -36t-62 -13.5q-35 0 -68 13.5t-60.5 36t-47.5 53t-27 65.5z" />
    <glyph glyph-name="ellipsis" unicode="&#x2026;" horiz-adv-x="862" 
d="M39 41q-5 21 8 36.5t34 15.5q22 0 40.5 -15.5t23.5 -36.5q5 -22 -7 -37.5t-34 -15.5q-21 0 -40.5 15.5t-24.5 37.5zM715 41q-5 21 7.5 36.5t34.5 15.5q21 0 40 -15.5t24 -36.5q5 -22 -7.5 -37.5t-33.5 -15.5q-22 0 -41 15.5t-24 37.5zM377 41q-5 21 8 36.5t34 15.5
t40 -15.5t24 -36.5q5 -22 -7.5 -37.5t-33.5 -15.5t-40.5 15.5t-24.5 37.5z" />
    <glyph glyph-name="perthousand" unicode="&#x2030;" horiz-adv-x="980" 
d="M403 141q-10 45 -3.5 75.5t23 48.5t39 25.5t45.5 7.5t48.5 -7.5t49.5 -25.5t43 -48.5t29 -75.5t3.5 -75.5t-23 -48.5t-39 -25.5t-45.5 -7.5t-48.5 7.5t-49.5 25.5t-43 48.5t-29 75.5zM-10 514q-10 45 -3.5 75.5t22 49t38 26t45.5 7.5t49 -7.5t50 -26t43 -49t29 -75.5
q9 -45 2.5 -75t-22.5 -48.5t-38.5 -26t-45.5 -7.5t-49 7.5t-49.5 26t-42.5 48.5t-28 75zM732 141q-10 45 -3.5 75.5t23 48.5t39 25.5t45.5 7.5t48.5 -7.5t49.5 -25.5t43 -48.5t29 -75.5t3.5 -75.5t-23 -48.5t-39 -25.5t-45.5 -7.5t-48.5 7.5t-49.5 25.5t-43 48.5t-29 75.5z
M462 141q7 -31 16 -57.5t22 -45.5t30 -29.5t40 -10.5t36 10.5t18 29.5t3 45.5t-9 57.5t-16 57.5t-22 45.5t-30 29.5t-40 10.5t-36 -10.5t-18 -29.5t-3 -45.5t9 -57.5zM791 141q7 -31 16 -57.5t22 -45.5t30 -29.5t40 -10.5t36 10.5t18 29.5t3 45.5t-9 57.5t-16 57.5t-22 45.5
t-30 29.5t-40 10.5t-36 -10.5t-18 -29.5t-3 -45.5t9 -57.5zM48 514q6 -31 15.5 -57.5t22 -45.5t30 -29.5t40.5 -10.5t35.5 10.5t17.5 29.5t3 45.5t-8 57.5q-14 63 -38.5 103t-70.5 40q-23 0 -35.5 -10.5t-17.5 -29.5t-3 -45.5t9 -57.5zM430 693q10 -3 23 -3q10 0 14 1
q-59 -186 -115 -364.5t-115 -364.5q-6 3 -12 3.5t-11 0.5q-9 0 -13 -2z" />
    <glyph glyph-name="guilsinglleft" unicode="&#x2039;" horiz-adv-x="197" 
d="M93 411q7 -7 15 -12.5t17 -8.5l-75 -159q35 -41 70 -81.5t70 -82.5q-8 -2 -15.5 -7.5t-11.5 -12.5q-40 48 -77 91.5t-77 91.5z" />
    <glyph glyph-name="guilsinglright" unicode="&#x203a;" horiz-adv-x="195" 
d="M4 394q8 2 15.5 7.5t11.5 12.5q40 -48 77.5 -92t76.5 -92q-21 -46 -42 -90t-42 -90q-7 7 -15 12.5t-17 8.5l75 158z" />
    <glyph glyph-name="fraction" unicode="&#x2044;" horiz-adv-x="329" 
d="M209 682q10 -3 21 -3q10 0 14 1q-32 -180 -62.5 -353.5t-62.5 -352.5q-11 3 -21 3t-14 -1z" />
    <glyph glyph-name="Euro" unicode="&#x20ac;" horiz-adv-x="577" 
d="M296 672q42 0 92 -14t89 -34q-3 -17 -4 -35t-2 -38q-4 0 -4.5 -0.5t-3.5 -0.5q-34 43 -79.5 65.5t-83.5 22.5q-34 0 -61 -14.5t-45.5 -43.5t-27 -74t-3.5 -105h174q24 0 50.5 0.5t47.5 3.5q-1 -10 -1.5 -23t0.5 -22q-21 3 -46.5 4t-48.5 1h-172q2 -13 4.5 -29t6.5 -31
l2 -13h150q24 0 50.5 0.5t48.5 3.5q-2 -10 -2.5 -22.5t0.5 -21.5q-22 3 -47.5 4t-48.5 1h-141q18 -56 44.5 -100t58 -74t67 -46t70.5 -16q40 0 76.5 19.5t64.5 55.5q2 -4 4 -4q-1 -13 0 -27.5t3 -28.5q-10 -11 -27 -20t-38.5 -15.5t-45 -10t-45.5 -3.5q-51 0 -98 18
t-88 52.5t-74 84.5t-55 115q-24 -1 -40.5 -1.5t-28.5 -2.5q3 19 1 44q8 -2 22.5 -2.5t34.5 -1.5l-5 26q-2 11 -4 23.5t-4 22.5q-25 -1 -41 -1.5t-27 -2.5q2 11 2 22.5t-1 22.5q10 -2 25.5 -2.5t38.5 -1.5q-1 57 13.5 106.5t42.5 86t68.5 57t91.5 20.5zM481 622q-2 0 -4 2
q1 1 0.5 1.5t0.5 2.5l3 -6v0z" />
    <glyph glyph-name="trademark" unicode="&#x2122;" horiz-adv-x="870" 
d="M659 460q20 57 39.5 115t38.5 116h2l37 -124q10 -33 23 -70.5l26 -75t25.5 -74t23.5 -66.5q-11 3 -24 3q-11 0 -23 -3q-10 39 -24 89t-33 107l-42 124q-7 -19 -16.5 -45t-16.5 -46q-9 -27 -19 -58t-19 -61.5t-17 -58t-12 -46.5l-2 -2q-29 46 -53 79t-48 64
q-11 16 -23 31.5t-23 31.5l-79 106l10 -127q4 -47 9.5 -93t15.5 -94q-5 2 -10 2h-9q-6 0 -16 -2q-1 62 -5 128t-9 139q-3 35 -5.5 71t-5.5 71h1q38 -58 80 -113.5t89 -115.5l77 -101zM119 662q-30 0 -63 -1t-63 -3q2 5 1 7t-2 7q-1 2 -2.5 5.5t-3.5 6.5q40 -2 75.5 -3
t74.5 -1q38 0 75 1t74 3v-6.5t1 -5.5q1 -5 1.5 -7t3.5 -7q-34 2 -65.5 3t-63.5 1l32 -148q9 -45 19.5 -90t21.5 -90q4 -15 6.5 -27t6.5 -26q-14 3 -28 3q-12 0 -25 -3l-1 6q-7 39 -16.5 91.5t-25.5 127.5z" />
    <glyph glyph-name="minus" unicode="&#x2212;" horiz-adv-x="593" 
d="M39 273h504l9 -43h-504z" />
    <glyph glyph-name="fi" unicode="&#xfb01;" horiz-adv-x="507" 
d="M228 679q-30 15 -60 15q-24 0 -39 -9t-22 -23.5t-8 -34t4 -40.5q2 -9 6 -23t9 -30.5t11.5 -35t12.5 -34.5h56q12 0 23 0.5t23 0.5v-8t2 -8q1 -9 4 -15q-6 0 -14.5 0.5t-13.5 0.5q-17 1 -37.5 1.5t-37.5 0.5q23 -109 47 -220t50 -221q-9 2 -19.5 3t-20.5 1t-18.5 -1
t-18.5 -3q-17 112 -39.5 220.5t-45.5 220.5q-11 0 -27 -0.5t-27 -1.5q-5 0 -9 -0.5t-9 -0.5q0 4 -0.5 7t-1.5 8q-1 3 -2.5 8t-1.5 8q9 0 15.5 -0.5t15.5 -0.5h41q-6 30 -7.5 64.5t3 68.5t14 63.5t25.5 49.5q14 17 38 31.5t52 14.5q5 0 15 -2q3 -15 5 -30q2 -12 3.5 -23
t3.5 -22zM409 285q-10 45 -21.5 93t-24.5 91q10 -2 20 -3t21 -1t19.5 1t18.5 3q5 -43 13.5 -91t18.5 -93l22 -105q10 -45 21.5 -93t24.5 -91q-10 2 -19.5 3t-20.5 1t-20 -1t-19 -3q-5 43 -13.5 91t-18.5 93zM317 651q-4 20 6.5 33.5t30.5 13.5q19 0 35.5 -13.5t20.5 -33.5
q4 -19 -6.5 -32.5t-29.5 -13.5q-20 0 -36.5 13.5t-20.5 32.5z" />
    <glyph glyph-name="fl" unicode="&#xfb02;" horiz-adv-x="513" 
d="M228 679q-30 15 -60 15q-24 0 -39 -9t-22 -23.5t-8 -34t4 -40.5q2 -9 6 -23t9 -30.5t11.5 -35t12.5 -34.5h56q12 0 23 0.5t23 0.5v-8t2 -8q1 -9 4 -15q-6 0 -14.5 0.5t-13.5 0.5q-17 1 -37.5 1.5t-37.5 0.5q23 -109 47 -220t50 -221q-9 2 -19.5 3t-20.5 1t-18.5 -1
t-18.5 -3q-17 112 -39.5 220.5t-45.5 220.5q-11 0 -27 -0.5t-27 -1.5q-5 0 -9 -0.5t-9 -0.5q0 4 -0.5 7t-1.5 8q-1 3 -2.5 8t-1.5 8q9 0 15.5 -0.5t15.5 -0.5h41q-6 30 -7.5 64.5t3 68.5t14 63.5t25.5 49.5q14 17 38 31.5t52 14.5q5 0 15 -2q3 -15 5 -30q2 -12 3.5 -23
t3.5 -22zM376 466q-7 34 -16 73t-18 77.5t-17.5 74t-15.5 61.5q10 -2 19.5 -3t20.5 -1t20 1t19 3q3 -26 9 -60.5t13.5 -73t15.5 -78t15 -74.5l39 -184q7 -34 16 -73t18 -77.5t17.5 -74t16.5 -61.5q-10 2 -19.5 3t-20.5 1t-20 -1t-19 -3q-3 25 -9 60t-13.5 73.5t-16 78
t-15.5 74.5z" />
    <glyph glyph-name="LDO" horiz-adv-x="720" 
d="M343 162q0 -2 -1.5 -6t-1.5 -5v-7h-4v10q4 4 7 8zM288 144q4 7 4 18h15q-7 0 -7 -8q0 -25 3 -32h4q2 5 7 14h4v-14h-11q-1 0 -2.5 1t-2.5 3t-2 3h-8q0 1 -2 6t-2 9zM374 110v15q3 0 5 1.5t3 2.5v-13q2 -1 4 -2.5t6 -3.5l1 -16q-6 7 -19 16zM89 627q24 7 64 7q25 0 37 -7
q10 -7 34 -7q19 9 22 18q29 0 33 24l9 4q2 3 7 5q5 0 5 2q5 2 7.5 6.5t10.5 4.5q1 3 7 6q7 2 7 5q32 0 32 18q8 0 13 6q4 7 12 7q1 2 9.5 5t8.5 6q7 0 10 3q12 8 16 8l9 4q7 2 7 7q11 0 22 4q11 3 19 3q0 4 7 8q7 2 8 3l89 19l42 -4l15 -8q7 -3 11 -7q10 -7 31 -18l7 -42
q-42 0 -42 5q-5 0 -14 4t-11 4q0 4 -1.5 5.5t-6.5 4.5h-68q-3 -3 -7 -10q-7 0 -21 -4t-21 -4q-13 -9 -18.5 -9t-14.5 -3q-4 0 -8 -6l-6 -6q-10 -3 -8 -3h-4q-1 -3 -8.5 -5l-7.5 -2q-3 0 -5.5 -2t-6.5 -5t-6 -5q-11 0 -15 -10q-5 0 -6 -2.5t-1 -9.5q-6 0 -13.5 -3.5t-8 -3.5
t-6.5 -4.5t-14 -4.5q-2 -1 -7 -2t-8 -6q-2 -1 -4 -4q-2 -5 -3 -6q-11 0 -11 -8q-4 0 -7 -1.5t-6 -4.5l-5 -5q-15 0 -15 -11q-5 0 -13 -7v-11q-4 -3 -6.5 -4t-4.5 -5v-15q6 -7 11 -7v-48q-6 0 -11 -9v-11q-2 -2 -4 -3q-3 -2 -7 -4v-22q-6 -3 -7 -4.5t-1 -10.5q0 -11 -3 -11
l-7 -7q-9 -4 -10.5 -6t-1.5 -10q-9 -4 -15 -8t-8 -11q-11 -11 -44 -11q-17 11 -35 11q-2 3 -7 11h-15q-3 0 -9 4q-7 4 -13 4q0 11 -11 16q0 7 -4 11q-10 0 -21 -1l-11 -1q-4 0 -11 7q-3 2 -6 2v55q2 3 5 5l6 4l4 83q1 0 2.5 1t2.5 3t2 3v15q5 2 6 6t5 4q0 1 10 4.5t10 7.5
q21 7 26 7zM385 132q-4 5 -7 7q-4 1 -15 1v18q6 -6 18 -14q0 -8 4 -12zM400 132q3 -3 3 -7q-3 3 -10 7h7zM403 125h7q5 2 12 10q6 9 10 9q-1 -4 -3.5 -6t-6.5 -6v-14l6 -4t4 -4q-4 0 -10 -7v-13l7 -7h17q1 -6 4 -10q2 -6 18 -12q3 11 3 22q-9 11 -22 11v31q3 0 11 7l-6 6
q-3 2 -5 6q2 -1 12 -5q6 -2 17 -5q6 -2 19 -2v-22q3 -2 6.5 -3.5t4.5 -3.5q0 -16 4 -20h9q3 3 3 14v6q9 0 13 1.5t9 5.5q-7 8 -11 8v14q3 0 11 8v26q-3 2 -6 3.5t-5 5.5q0 8 -1.5 10t-9.5 5q7 0 12.5 5t6.5 5v-10q0 -8 7 -8q3 -10 4 -11.5t7 -4.5q0 -15 8 -22h3q2 2 4 8t3 6
q20 7 20 24q5 0 18 8v-58h-7q-3 -3 -3 -14q-4 -1 -14 -8q10 -7 32 -7q0 -5 -2 -6.5t-5 -6.5v-36q-4 2 -5.5 3.5t-2 3.5t-3.5 7h-20q0 -2 -2 -6q-2 -6 -2 -8q-4 0 -11 -8q7 0 11 -3v-7q-2 -2 -5 -3.5t-6 -4.5v-16q-19 0 -22 -8v-7l1 -1q0 1 -4 1q0 3 -2 8t-2 7q-18 0 -23 -8
v-7q11 -11 22 -11v-7h-7q-12 -5 -21 -7q-4 -1 -10 -1v15q7 0 7 7q0 35 -3 43h-3q-8 -8 -8 -39q-7 0 -11 -4v-14h-26l-4 -8v-38q-10 0 -24 -4q9 -7 14 -7v-18q-6 2 -6 6q0 3 -7 5h-4q-5 -2 -6 -5q-2 -4 -5 -6v18q3 0 11 7q0 57 -7 64h-4q-1 -1 -3 -2l-1 -1l4 3q-4 4 -11 4
q0 31 -7 39h-4q-6 -3 -5 -21q1 -34 1 -31v-55q0 -1 4 -3t4 -4v-7q0 -1 -3.5 -4.5t-3.5 -6.5h-29v25q0 2 -1 3l-4 2q-2 1 -5 3q-2 7 -7 16h-4q-7 -7 -7 -24q3 -2 7 -3l4 -4v-7q-5 -4 -15 -11q3 0 11 11v7q0 7 -18 7q-15 0 -18 -7v-11q0 4 -7 4q0 10 -5 15q-5 4 -16 7v16l-7 4
h-15v14q-6 8 -11 8q-4 12 -22 18v31q11 3 11 15q2 0 5.5 1.5t5.5 1.5q0 19 -4 22h-7q-3 -3 -3 -14q-5 0 -19 -8v44q4 0 7 2t4 2v38h18v-14q-5 0 -7 -4q-2 -2 -3 -4q29 0 36 8v7l-4 4l4 -4h17q0 -31 3 -35h-9l-7 -7v-15q-6 -2 -7 -3.5t-4 -10.5q-4 0 -11 -8h35v-10
q-9 -4 -13 -8q0 -11 7 -24q10 4 21 17v22h7q1 -12 3 -31h8q4 3 4 16q18 0 21 8v7l-7 7l7 4v14q3 -2 8 -3.5t7 -3.5q0 -8 1 -9.5t5 -8.5q27 0 32 11v9h-1q1 -2 5 -2q6 8 6.5 11t0.5 11q3 0 11 7v20q-7 8 -11 8q0 2 -2 4t-2 3zM617 129q2 -1 3 -2l1 -2h8q0 -3 -4 -7h-3
q-5 4 -5 11zM629 125q0 4 3 7q0 -2 -1 -3q-2 -3 -2 -4zM632 132v50q4 0 11 8v10h15l4 8v22h7v-90q-1 -2 -5 -3q-3 -2 -6 -5v-14l-14 -8q0 19 -8 22h-4zM456 -67q2 -1 3 -2l1 -2v3q-1 1 -4 1zM460 -71q4 -1 9 -8l6 -6q0 7 -7 14h-8zM468 -67q3 9 3 31h15q2 -2 3 -4q0 -4 4 -6
q2 -1 4 -1q-2 -2 -5 -3.5t-6 -3.5v-9q0 -5 -3 -5q-3 1 -6 1h-9zM414 -10q-1 -5 -1 -15v-12q0 -20 -2 -26h-4v49q3 0 7 4zM307 -89l3 -4q0 3 -1 4h-2zM310 -93q4 0 8 -3q-8 0 -8 3zM264 129q-3 0 -7 3v12l-7 7h-15v15q11 0 11 9v7q-1 3 -5.5 5t-5.5 3v10q-6 8 -11 8
q3 0 7 2.5t4 4.5v7q0 3 -4 4q-5 2 -7 4v34h8v-16l3 -7h15v-33q-8 0 -8 -8v-7q0 -3 8 -3v-24q2 -1 6 -4t5 -4v-26zM296 90q4 4 4 20h13q-2 -1 -3.5 -3t-2.5 -4v-31q-1 1 -3 2.5t-4 1.5q0 7 -4 14zM307 72l4.5 -2t6.5 -2h-8q-1 1 -1 2zM318 68q1 7 7 15v-15h-7zM531 237
q2 -2 3 -4l4 -2q2 -1 4 -1l1 -15h-18q0 8 -1.5 10t-11.5 5q0 34 -4 42h-3q-4 -2 -5 -8q-2 -6 -3 -7h-4v15h15q1 6 4 14h9v-14q8 -8 11 -8zM511 305q0 7 -6 7q-8 -7 -12 -7v14h15q0 -3 1.5 -8t1.5 -6zM300 290h-12q0 -2 -1.5 -6t-1.5 -5q-27 -7 -28 -7v25h15l7 8v14
q27 0 31 20q18 5 22 22h15q0 -29 7 -34h4q6 5 6 20q7 4 10 7v15q9 -8 11 -8h8q-1 0 7 8q0 -18 7 -22h4l3.5 7l3.5 7h15q1 -5 4 -11q1 -1 9 -3q-14 0 -14 -8v-7q4 -5 36 -5v-15h-39q-2 2 -3 8q-3 6 -4 7h-4q-2 -5 -7 -15h-4q-2 3 -7 15h-15q0 -6 -3 -15h-8q0 4 -3 15h-28
q-2 -6 -7 -15q-10 0 -20 -8z" />
    </font>
</defs>
</svg>
