<?xml version="1.0" standalone="no"?>
<!DOCTYPE svg PUBLIC "-//W3C//DTD SVG 1.1//EN" "http://www.w3.org/Graphics/SVG/1.1/DTD/svg11.dtd" >
<svg xmlns="http://www.w3.org/2000/svg" xmlns:xlink="http://www.w3.org/1999/xlink" version="1.1">
<metadata>
Created by FontForge 20170731 at Fri Mar 26 01:01:50 2004
 By Aleksey,,,
Copyright (c) Luke Owens, 2004. All rights reserved.
</metadata>
<defs>
<font id="OregonLDOVanishingBoldOblique" horiz-adv-x="556" >
  <font-face 
    font-family="Oregon LDO Vanishing"
    font-weight="700"
    font-style="oblique"
    font-stretch="normal"
    units-per-em="1000"
    panose-1="2 1 6 3 0 5 0 2 0 4"
    ascent="800"
    descent="-200"
    x-height="481"
    cap-height="686"
    bbox="-200 -259 1060 862"
    underline-thickness="50"
    underline-position="-150"
    slope="-12"
    unicode-range="U+0020-FB02"
  />
<missing-glyph horiz-adv-x="278" 
 />
    <glyph glyph-name=".notdef" horiz-adv-x="278" 
 />
    <glyph glyph-name=".null" horiz-adv-x="0" 
 />
    <glyph glyph-name="nonmarkingreturn" horiz-adv-x="278" 
 />
    <glyph glyph-name="space" unicode=" " horiz-adv-x="278" 
 />
    <glyph glyph-name="space" unicode="&#xa0;" horiz-adv-x="278" 
 />
    <glyph glyph-name="exclam" unicode="!" horiz-adv-x="333" 
d="M22 43q-1 5 -1 10.5v13.5h152q-3 -8 -6 -12q0 -6 -2 -12h-143v0zM168 101q0 -2 0.5 -4t0.5 -4l9 -15h-159q5 5 10 9.5t10 8.5q1 2 1.5 2.5t1.5 2.5h126zM35 8q-10 5 -20 11t-21 13h161q-10 -16 -20 -24h-100v0zM128 378h98v-2h-9l2 -2q-1 -3 -1 -5.5t-2 -6.5h-91
q3 7 3 10v6zM139 433q0 2 0.5 5.5t1.5 8.5h106q-2 -4 -3.5 -8t-2.5 -6h-102v0zM119 342v1h92q-2 -5 -3.5 -8l-2.5 -5l-2 -4h-84v4h3q0 1 0.5 1.5t0.5 1.5q0 5 1 9h-5zM133 402q0 1 0.5 3.5t0.5 6.5h96v-2h-5l5 -7q-1 -2 -1 -3t-1 -3h-95v5v0zM117 297q0 7 1 9v3h80l-4 -12h1
l-2 -6h-77l1 6v0zM145 481h109q-2 -4 -2 -7t-1 -6h-107v2.5t1 6.5h-1zM265 543l3 -4h-110q0 4 2 12h118l-2 -8h-11zM161 574q1 2 1 11h126l-3 -11h-124v0zM264 510q-1 -2 -1 -3t-1 -3h-111l3 12h113q0 -2 -0.5 -3t-0.5 -3h-2v0zM168 610q1 2 1.5 4.5t2.5 5.5h131v-10h-135z
M111 264l2 10h73l-6 -18h-72q1 2 1 4t1 4h1zM106 232q0 4 1 7h67q-2 -5 -3 -10t-3 -9h-65v12h3v0zM124 133q12 -3 28 -19h-93q11 8 20 12.5t15 6.5h30v0zM175 654h134l4 -9h-139zM101 205h62q-1 -4 -1.5 -6.5t-1.5 -6.5q-1 -1 -1 -7h-59q0 5 0.5 10.5t0.5 6.5v3zM205 684
q1 0 6 5h75l8 -8h-94q4 2 5 3zM83 -11q-8 0 -26 8h59q-19 -8 -33 -8z" />
    <glyph glyph-name="quotedbl" unicode="&#x22;" horiz-adv-x="333" 
d="M167 443l1 4h89l-3 -14h-88l3 10h-2zM26 443l1 4h89l-3 -14h-88l3 10h-2zM177 477l1 4h88l-4 -13h-88zM36 477l1 4h88l-4 -13h-88zM139 539h-88l3 12h91v-8h-5zM279 539h-87l3 12h91v-8h-6zM270 504h-86l3 12h87l-1 -6h-1zM129 504h-86l3 12h87l-1 -6h-1zM287 574h-88
l1 11h95v-8h-8v-3zM146 574h-88l1 11h95v-8h-8v-3zM208 610l1 10h91l-3 -10h-89zM67 610l1 10h91l-3 -10h-89zM170 645h-92l1 9h92l-1 -2v-7zM311 645h-92l1 9h92l-1 -2v-7zM161 410v2h87v-2h-20v-13h-52l23 13h-38zM20 410v2h87v-2h-20v-13h-52l23 13h-38zM226 689h87
l-1 -8h-88zM85 689h87l-1 -8h-88z" />
    <glyph glyph-name="numbersign" unicode="#" 
d="M375 149h-337l-11 21h352q-2 -5 -3 -8t-1 -4v-9zM47 205h349l-6 -12q-1 -2 -5 -8h-350l7 14h6l-2 5zM56 232v7h368l-9.5 -9.5t-7.5 -9.5h-355zM144 433q3 5 5.5 8t4.5 6h351l-2 -4h-9l6 -10h-356v0zM165 468q2 3 3 6.5t3 6.5h353q-1 -2 -1 -4h-14l6 -9h-350v0zM180 504
q0 6 4 12h335l5 -12h-344v0zM126 410l1 2h366q-1 -1 -1 -2h-70l-6 -13h-75l5 13h-66l-6 -13h-74l5 13h-79zM37 47q0 1 8 20h79l-2 -4q-1 -1 -1 -2l-1 -1l-1 -2q-2 -9 -6 -15h-79q2 2 3 4zM179 47q0 1 8 20h79l-2 -4q-1 -1 -1 -2t-0.5 -1t-0.5 -1l-1 -1q-2 -4 -3.5 -8.5
t-3.5 -6.5h-78q2 2 3 4zM51 78q2 3 6 11l6 12h76q-2 -6 -4.5 -11.5t-6.5 -10.5q0 -1 -1 -1h-76v0zM193 78q2 3 6 11l6 12h76q-2 -6 -5 -11.5t-6 -10.5q0 -1 -1 -1h-76v0zM80 136h74v-3q-2 -5 -10 -19h-76q1 2 2 5t3 6l4 8h4zM222 136h74v-3q-2 -5 -10 -19h-76q1 2 2 5t3 6
l4 8h4zM171 32h78q-1 -1 -1 -2v-1q-2 -2 -4 -7t-4 -14h-51zM30 32h77q-1 -1 -1 -2v-1q-2 -2 -3.5 -7t-3.5 -14h-51zM368 291h-77l3 6h1l5 12h77v-1h-3zM153 297l5 12h77v-1h-3l-6 -17h-76zM351 256h-74l3 8l4 10h74l-4 -10h1zM135 256q2 6 3 8l4 10h74l-4 -10h1l-4 -8h-74v0
zM314 343h78v-1h-2l-6 -16h-76l2 4l5 12h-1v1zM172 342v1h78v-1h-2l-6 -16h-76l2 4h1l4 12h-1zM258 362h-76l8 16h77l-1 -2h-2zM400 362h-76l8 16h77l-1 -2h-2zM265 577l8 8h89l-5 -11h-75v1l-1 -1h-1q1 1 1 3h-16zM407 577l8 8h89l-5 -11h-75v1l-1 -1h-1q1 1 1 3h-16z
M425 613q4 4 6 7h92l-5 -10h-96zM280 610l3 3q4 4 6 7h92l-5 -10h-96zM480 539h-75l6 12h75zM339 539h-75l6 12h75zM458 654h82l-5 -9h-83zM311 645q2 6 4 9h83l-5 -9h-82v0z" />
    <glyph glyph-name="dollar" unicode="$" 
d="M-16 67h163q8 -5 17.5 -6.5t19.5 -2.5l1 9h208q-23 -15 -39 -24h-362q4 6 6 10zM57 8q-15 6 -36 24h315q-17 -10 -28 -15t-20 -9h-231v0zM420 343q10 -8 23 -17h-257q-6 4 -12.5 8t-13.5 9h260v0zM468 274q0 -2 -0.5 -2.5t0.5 -2.5l6 -13h-155q-2 2 -4.5 3.5t-5.5 3.5
l-1 -7h-76l2 8h2l2 10h230v0zM452 308l12 -17h-223l1 6q-8 6 -18 11h-8q-2 0 -3 1h252q1 -1 2 -1h-15zM367 362h-222q-3 3 -5.5 6.5t-5.5 7.5h-1l-1 2h230q2 -1 4 -1.5t4 -1.5zM544 620q-4 -6 -6 -10h-338q6 4 10 7l4 3h330v0zM342 397h-218l-5 15h226v-2zM401 86
q-2 -2 -3.5 -4t-3.5 -4h-124q8 3 16 9.5t16 13.5h114l-15 -15v0zM165 -15q-45 0 -85 12h174q-5 -2 -8.5 -3t-5.5 -2h2q-2 -5 -2.5 -10.5t-1.5 -7.5h-1v-2h-77l3 6q0 1 2 7zM439 133q-4 -5 -7.5 -9.5t-7.5 -9.5h-111q2 3 5.5 7t8.5 12h3l-1 3h108l-1 -3h3v0zM470 220h-122
q-2 2 -4 6t-8 13h133q1 -3 1 -6v-13zM460 185h-114q0 5 0.5 8.5t0.5 5.5h2v6h117q-1 -2 -1 -3t-1 -3h2zM445 149h-109q2 5 7 17h1l-1 1v3h110l-1 -4q-1 -1 -1 -3.5t-2 -4.5zM144 -72h83v-22h-2q0 -1 -0.5 -2t-0.5 -3h-75l-4 5h-5l1 5l-1 1q1 2 2 4.5t2 4.5v7zM12 78
q4 6 6.5 12t5.5 11h81q2 -4 4 -6l3 -1q3 -6 16 -16h-116v0zM499 650q3 -3 10 -5h-251q4 2 8 4.5t7 4.5h2l-2 -2l4 2h215q2 -1 2 -1.5t5 -2.5zM157 -37h78q-1 -2 -1 -6q-2 -10 -2 -17h-2q-1 -1 -1 -3h-84v1h5l1 1zM119 433q-1 5 -1 14h125q2 -2 4 -5.5t6 -8.5h-134v0z
M195 101h73l-6 -23h-74zM272 114h-75l6 22h73v-3h1zM282 149h-76l5 21h75l-1 -4h1l-2 -4zM219 199l1 6h74l-3 -20h-77l3 14h2zM120 468q1 3 1.5 6.5t1.5 6.5h113l-1 -4h-2l5 -7v-2h-118v0zM227 232l1 7h74l-3 -19h-76l3 12h1zM159 577l10 8h136q-2 -2 -5.5 -4t-7.5 -4h-27
l1 -3h-98l2 3h-11zM144 539l4 6l4 6h113q-1 -2 -2.5 -4t-3.5 -4h-2l-2 -4h-111v0zM130 510q0 2 1 3t1 3h112l-3 -12h-111l2 6h-2v0zM38 133q0 2 1 3h51q0 -2 0.5 -2.5t0.5 -2.5q0 1 1.5 -2.5t7.5 -14.5h-71q2 4 3.5 7.5t3.5 7.5q1 1 1 1.5t1 1.5v1zM278 443l1 4h75l-3 -14
h-74l3 10h-2zM426 583q-1 0 -3 2h102q-5 -7 -5 -8h-2q-1 -1 -1 -1.5t-1 -1.5h-81q-2 2 -2 5l-7 4v0zM289 477l1 4h73l-4 -13h-73zM377 539h-73l3 12h73zM367 504h-72l3 12h73l-1 -6h-1zM315 585h77v-8h-3l-1 -3h-75l1 3zM505 551q-4 -8 -5 -12h-54v12h59v0zM417 689
q-1 -2 -0.5 -4t0.5 -4h-86l2 4l2 4h82v0zM156 -106h67q0 -4 -0.5 -8t-1.5 -9q-14 6 -24.5 9t-12.5 3q-5 0 -10.5 -1t-10.5 -2zM401 722l2 -6h-60v6h58zM77 149h-33l3 6h24z" />
    <glyph glyph-name="percent" unicode="%" horiz-adv-x="889" 
d="M502 11q-9 7 -20 21h240q-8 -7 -17.5 -13t-20.5 -11h-171zM759 309q6 -5 12.5 -9t13.5 -9h-245q2 2 8 6h17l-2 10q1 0 3 2h193v0zM115 362q-3 4 -7 7.5t-8 8.5h260q-2 -2 -3 -2h-14l3 -13q-1 -1 -3 -1h-228v0zM758 67q-5 -5 -10 -11t-13 -13h-136v2q20 2 44 22h115v0z
M472 43q-5 5 -10 11t-10 13h114q1 -3 3 -7q5 -7 12 -10.5t13 -4.5v-2h-122v0zM421 620q3 -3 6.5 -5.5t7.5 -4.5h-127q-9 3 -16 3q-11 0 -20 -3h-124q4 6 9 10h264v0zM781 101q-5 -9 -16 -23h-115q6 8 10.5 13t7.5 10h113v0zM795 136q-1 -5 -3.5 -10t-5.5 -12h-109
q2 6 4.5 11.5t4.5 10.5h109v0zM458 78q-2 5 -2.5 10.5t-2.5 12.5h106q-1 -4 -0.5 -7t0.5 -5q1 -3 1.5 -5.5t1.5 -5.5h-104v0zM454 131v5h109q0 -1 -0.5 -1.5t-0.5 -1.5h1q-1 -5 -1.5 -10t-1.5 -9h-106v17zM566 159q-1 -3 -1 -10h-115l4 6t4 8v3h1q0 2 2 4h109l-2 -10z
M197 67h92l-18 -24h-92zM171 32h92l-18 -24h-92zM472 200q0 1 2 5h109q-1 -2 -1 -4v-1q-2 -3 -3 -7t-3 -8h-111q2 3 3 6t3 8h1v1zM125 -26l19 23h92l-15 -20l-1 -3l-6 -2h-17v2h-34v-2h-6l-3 2h-29zM808 185h-109q0 2 0.5 3l1.5 3v12v2h107v-6h3q-1 -3 -1.5 -5.5t-1.5 -5.5
v-3zM785 157l7 -8h-102q2 5 3 8.5t2 8.5v1q0 1 -0.5 1t-0.5 2h110v-3q-2 -4 -2 -9v3zM224 101h92l-10 -12l-9 -11h-92l18 22zM327 114h-94l16 22h91l-2 -3h5zM491 237l1 2h112q-7 -12 -9 -14l-4 -5h-108q1 1 4.5 6t4.5 6h2l-3 5v0zM522 274h120q-7 -5 -12.5 -9.5t-10.5 -8.5
h-114q2 2 3.5 4t3.5 4h13zM808 220h-106q-1 5 -1 9.5t-1 9.5h104q0 -2 0.5 -3.5t0.5 -3.5h3v-12zM273 166l3 4h90l-15 -21h-92l13 17h1zM789 274q3 -4 10 -18h-104q-2 4 -5 8t-8 10h107v0zM297 199l4 6h93l-16 -20h-92l10 14h1zM407 220h-96l15 19h93l-5 -7h3zM433 256h-95
l14 18h92l-8 -10h4zM369 297l9 12h94l-1 -1h-2l-12 -17h-93zM380 397h-117q4 3 7 6.5t5 6.5h-7l2 2h119l-2 -2h-14zM376 654q2 -2 5 -4t7 -5h-195l18 9h165v0zM396 330l9 13h94l-14 -17h-93l3 4h1zM91 397l-3 6t-4 9h109v-2h1h-5l4 -13h-102v0zM405 433h-115q7 7 9 10h-2
q2 2 2 4h112l-2 -4h-10zM420 362l12 16h93l-12 -16h-93zM81 443v4h106v-10v-4h-105v10h-1zM141 343h169q-1 -1 -2 -1h-51l2 -16h-80l2 16h-37zM81 481h108q0 -4 -0.5 -7t-0.5 -6h-107v13zM421 470q0 -1 -0.5 -1t-0.5 -1h-111q2 3 2.5 6.5t1.5 6.5h98l10 -11v0zM455 410l2 2
h92l-1 -2h-3l-8 -13h-90zM195 504h-108l1 12h117v-6h-9zM100 539q2 8 4 12h112l-6 -12h-110v0zM430 504h-108l1 12h111v-6h-3zM435 539h-107q0 2 0.5 5t0.5 7h109q1 -2 1.5 -4t1.5 -4h-8l2 -3v-1zM481 443l3 4h93l-3 -4h-1l-8 -10h-92zM121 577l5 8h119l-11 -11h-114v1l1 2
l-2 -3zM427 577l3 -3h-101v9l-2 2h116l8 -8h-24zM592 468h-92l10 13h93l-3 -4h-1zM647 539h-92l9 12h93l-5 -8h-2zM620 504h-92l9 12h93l-4 -6h-1zM592 -15q-35 0 -63 12h133q-18 -5 -35.5 -8.5t-34.5 -3.5zM673 574h-91l7 11h94l-5 -8h-3zM614 620h95l-7 -10h-96zM727 645
h-92l7 9h93l-6 -7zM671 689h97l-8 -8h-95zM721 329q2 -1 8 -3h-122l6 2t7 2h96l5 -1v0z" />
    <glyph glyph-name="ampersand" unicode="&#x26;" horiz-adv-x="722" 
d="M44 43q-5 5 -9.5 11t-9.5 13h188q6 -2 11 -2h10h13.5t14.5 2h295l15 -24h-151l-10 20q-8 -5 -15 -8.5t-13 -8.5l-6 -3h-333v0zM81 10q-12 7 -26 22h301q-30 -17 -47 -24h-219l-9 2v0zM301 78q30 11 49 22l1 1h185l17 -23h-252v0zM545 185h-207l-3 6q-1 1 -1 1.5t-1 1.5
t-5 11h231l2 -4zM394 343q2 -4 3.5 -8t3.5 -9h-248q2 1 3 2t3 2h26l-3 13h212v0zM433 18q-2 3 -2.5 6t-2.5 5l-2 3h153l3 -5l12 -19h-144zM526 166q-3 -3 -8.5 -7.5t-10.5 -9.5h-150q-2 5 -5 10.5t-5 10.5h177l2 -4v0zM376 119q-2 4 -5 8t-6 9h149l16 -22h-162q2 2 4 2.5
t4 2.5zM158 101q1 -5 5 -8q7 -8 19 -15h-154q-5 13 -8 23h138zM436 412q-7 -5 -12.5 -8.5t-10.5 -6.5h-179l-5 15h207v0zM22 133v3h122q1 -5 2 -9l2 -8l1 -1q0 -2 2 -4h-131q-1 5 -1.5 9.5t-0.5 9.5h4zM263 610l17 10h261q2 -4 10 -10h-288zM459 224q1 -1 1 -2t1 -2h-143
q-5 8 -5 12l-3 7h142q1 -4 5 -14l2 -1v0zM413 309q2 -3 4.5 -7.5t7.5 -10.5h-142l-3 6l-5 11h-2l-1 1h141v0zM41 202q0 1 0.5 1.5t0.5 1.5h115l-2 -6h19l-14 -14h-126q2 4 6 14h3l-2 3v0zM291 274h139l10 -18h-139zM29 166q0 2 1 4h116l-1 -1q-1 -3 -1 -7l-1 -1v-12h-120
q1 4 1.5 8t1.5 9h3v0zM379 376q1 -2 2 -6l2 -8h-137l-3 10l-3 6h142q-2 -2 -3 -2zM62 237l1 2h114q-4 -5 -6.5 -9t-2.5 -5l-4 -5h-113q3 6 7 12h7l-3 5v0zM132 309h127q-8 -5 -13.5 -9t-10.5 -7q-2 -2 -3 -2h-121q2 2 3.5 3t3.5 3h18zM93 274h119q-6 -6 -12 -11t-9 -7h-116
q3 2 9 8h13zM593 233q-2 -3 -5.5 -6t-6.5 -7h-100q4 5 9 9.5t10 9.5h89l4 -6v0zM648 291h-102l6 6h2q2 3 3 6t3 5h-6l1 1h141l1 -1h-35l-10 -11h2zM514 256q5 5 9 9.5t8 8.5h101l-17 -18h-101v0zM344 442q0 -1 1 -3.5t2 -5.5h-121q-2 8 -2 14h116v-2q0 -1 1 -1l3 -2v0z
M678 326h-107l12 12l-20 -11q3 3 6.5 7t8.5 9h84l13 -13h6zM504 654l4 -4t6 -5h-190l15 9h165v0zM188 -17q-21 0 -40 3.5t-39 10.5h171q-23 -6 -46 -10t-46 -4zM334 478q0 -2 2 -10h-116v13h111v-1l3 -2v0zM371 445l4 2h110l-21 -14h-90l-3 12v0zM222 504q0 3 3 12h107v-6
h-1v-6h-109v0zM232 577q3 2 5.5 4t5.5 4h119q-4 -4 -10 -7l-2 -4h-102q0 -1 2 3h-18v0zM505 477q-2 -2 -3.5 -4.5t-3.5 -4.5h-88l-3 7q2 2 5 6h97q-1 -1 -1.5 -2t-1.5 -2h-1v0zM233 543q0 1 1 3t2 5h102q-1 -1 -1 -1.5t-1 -1.5l-1 -9h-105q1 1 1.5 2t1.5 2zM523 504h-91
q2 6 7 12h97v-6h-10zM544 574h-87q0 2 0.5 5t0.5 6h103l9 -8h-26v-3zM543 543l-2 -4h-90q0 2 2 4l2 8h92l-3 -6v-2h-1v0zM596 362q5 5 9 9.5t6 6.5h11l24 -5l-19 -11h-31zM566 -5q-10 2 -12 2h13l-1 -2v0zM467 -3q-3 0 -9 -2v2h9v0zM445 256h1h-1v0z" />
    <glyph glyph-name="quotesingle" unicode="'" horiz-adv-x="278" 
d="M69 443l1 4h89l-3 -14h-88l3 10h-2zM79 477l1 4h88l-4 -13h-88zM181 539h-87l3 12h91v-8h-6zM172 504h-86l3 12h87l-1 -6h-1zM189 574h-88l1 11h95v-8h-8v-3zM111 620h91l-3 -10h-89zM213 645h-92l1 9h92l-1 -2v-7zM63 410v2h87v-2h-20v-13h-52l23 13h-38zM128 689h87
l-1 -8h-88z" />
    <glyph glyph-name="parenleft" unicode="(" horiz-adv-x="278" 
d="M93 -99q-2 4 -7.5 11.5t-10.5 15.5h81l4 -7q1 -1 5.5 -9t5.5 -10l-2 -1h-76v0zM141 -37l3 -9l7 -16h1v-1h-83v1h5q-2 6 -6 14q-1 2 -2 4.5t-2 4.5q-1 1 -1 2h78zM58 -28q-2 5 -4.5 12t-4.5 13h80q2 -5 4.5 -11t4.5 -14h-80v0zM118 67q1 -11 3 -24h-82l-3 24h82v0z
M118 101v-18v-5h-84l-2 23h86zM48 8q-2 5 -4 10.5t-4 13.5h82l1 -6q1 -4 1.5 -8.5t1.5 -9.5h-78v0zM31 166v4h92v-4l-1 -17h-91v17zM32 136h87v-22h-87v22zM34 205h95q-2 -5 -2.5 -10t-1.5 -10h-93q0 3 2 9v11zM38 232q0 1 0.5 3t0.5 4h95q-1 -3 -1 -7h5q-3 -7 -4 -12h-98
q0 4 2 12zM43 264l2 10h99l-2 -10l-2 -8h-99q0 2 0.5 4t0.5 4h1zM52 297q0 3 3 12h99v-1h-3l-3 -17h-99l2 6h1v0zM62 334q0 2 1 4t2 5h97q-1 -5 -2 -8.5t-2 -8.5h-98l2 4h3l-3 4v0zM76 376l1 2h97q-2 -2 -2 -3t-1 -2l-1 -1l-3 -10h-89l-4 6q1 2 3 8h-1zM91 410l1 2h94
q-3 -5 -4 -7.5t-2 -4.5t0 -2v-1h-95l6 13v0zM104 443l2 4h94l-2 -4h-6l4 -7q0 -2 -1 -3h-92q2 3 3 5.5t2 4.5h-4zM129 481h88l-2 -4h-1q-2 -3 -4 -9h-90zM147 510q0 1 3 6h91q-3 -4 -5 -7t-4 -5h-88q0 2 1 3t2 3zM170 543q0 3 5 8h87l-4 -8h-5l-2 -4h-84q2 2 3 4zM264 654
h105l9 -9h-123zM193 574q2 2 4 5l4 6h92q-3 -4 -6 -6.5t-5 -4.5h-89v0zM227 617q0 1 0.5 1.5t0.5 1.5h91l-7 -10h-92zM106 -118l-4 6l-4 6h62l-29 -21h-9l-16 9v0zM300 689h36l7 -8h-50z" />
    <glyph glyph-name="parenright" unicode=")" horiz-adv-x="278" 
d="M-60 -72h87l-2 -2q-2 -4 -8 -9.5t-11 -10.5h-2l1 -1q-1 -1 -2 -1.5t-2 -2.5h-75l-4 5h-4zM-25 -26q8 8 13.5 13t9.5 10h90q-3 -3 -4 -5q-3 -2 -7 -7.5t-8 -10.5h-3l1 -2h-87l2 2h-7v0zM-52 -63q8 8 14 14.5t11 11.5h86q-4 -4 -6 -7q-2 -2 -7 -8t-7 -8h-2l1 -1l-2 -2h-88
v0zM38 49q1 2 4 6.5l5 7.5l2 4h90l-18 -24h-88q1 2 5 6zM22 25q1 2 2 3.5t2 3.5h87l-4 -6q-2 -2 -7 -9t-7 -9h-87q5 5 6.5 7.5t3.5 4.5l4 5v0zM151 90q-1 -2 -3 -5.5t-4 -6.5h-89l1 1q1 3 5 11t6 11h90l-3.5 -7t-3.5 -5l1 1v0zM174 133q-1 -2 -11 -19h-90q2 5 4.5 9.5
t4.5 9.5h3l-1 2v1h90v-3v0zM189 166q-1 0 -2 -2.5t-4 -14.5h-94q2 5 3.5 10t2.5 7h1q0 1 0.5 1.5t0.5 2.5h94l-2 -4v0zM216 239q-1 -3 -2 -8.5t-3 -10.5h-109q10 10 16 19h98v0zM206 205q-4 -7 -8 -20h-95q2 4 3 8t2 6h1v3v3h97v0zM233 299q0 -1 -0.5 -3t-0.5 -5h-99l2 6h1
l2 12h101v-1h-4q-2 -6 -2 -9zM226 268q-1 -2 -2 -5t-3 -7h-96l2 4l3 14h94l3 -4q-1 -1 -1 -2zM240 326h-98l1 4q1 3 1 6t1 6v1h100v-1h-7l3 -3q-1 -2 -1 -7v-6zM246 374q-1 -3 -1 -12h-96q1 4 3 14h-5v2h100v-2h-3l2 -2v0zM157 412h91v-15h-94l3 7v8zM246 443l2 -10h-89
q1 2 1 6q0 1 0.5 3t0.5 5h86v-4h-1v0zM246 474q0 -2 0.5 -3.5t0.5 -2.5h-85v9h-1v4h86l2 -4h-6l3 -3v0zM234 543l1 -4h-80l-3 12h90q2 -2 3 -4t3 -4h-14zM192 654q2 -2 2.5 -4.5t2.5 -4.5h-120l12 9h103v0zM242 504h-81v6h-3v6h83l2 -6h-4l3 -3v-3zM225 576q0 -1 1 -2h-77v6
q-3 3 -4 5h85q2 -2 3 -4t3 -4h-11v-1zM-68 -106h60l-2 -2q-6 -7 -21 -19h-19zM214 610h-78l-4 10h76q1 -2 1.5 -4t1.5 -4zM172 689q1 -2 5 -8h-51l10 8h36v0z" />
    <glyph glyph-name="asterisk" unicode="*" horiz-adv-x="444" 
d="M15 443l11 4h346l1 -14h-349zM38 543l8 8h382q2 -2 4.5 -4t4.5 -4h-73l1 -4h-270l1 4h-58zM327 468h-224l-1 9l9 4h206l12 -6zM117 516h228l-15 -6h-45l1 -6h-125l2 6h-35zM137 342v1h95v-1h-4l-1 -16h-94zM149 376v2h87v-2h-3l-1 -14h-87zM46 401q0 1 -0.5 4t-0.5 7h98
l-3 -2h-1l-21 -13h-72v4v0zM236 397h-81l5 15h81v-2h-5v-13zM179 577l3 -3h-113l6 6l5 5h94l11 -8h-6zM296 577l13 8h95q1 -2 1 -3.5t2 -4.5h-3q0 -1 2 -3h-114l5 3h-1zM345 410l5 -13h-65l-18 15h100q0 -2 -2 -2h-20zM279 574h-77v11h81l-2 -8h-1zM214 654h97l-2 -9h-96z
M208 620h87l-3 -10h-84v10zM98 610q2 2 8 10h22l13 -10h-43v0zM367 620h16l8 -10h-40zM307 378h34q0 -1 -1 -2h-30zM280 682q2 0 12 5l5 -6h-17v1v0zM62 378h26l-3 -2h-19zM130 308v1h34q-2 -1 -4 -1h-3h-27zM204 308h-4.5t-4.5 1h32v-1h-23v0zM247 681h-5l4 2l1 -1v-1z
M171 438l1 5h-2zM354 397h-1h1z" />
    <glyph glyph-name="plus" unicode="+" horiz-adv-x="606" 
d="M38 239h516l-4 -19h-517zM45 274h519l-4 -18h-519zM267 297l2 12h91v-1h-3l-2 -11h214l-2 -6h-518l2 6h216zM209 67h87l-5 -24h-88zM201 32h87l-6 -24h-87zM219 101h87l-6 -23h-88zM311 114h-89l4 22h88v-3h1l-2 -5zM234 166v4h90l-4 -21h-92l4 17h2zM242 199l1 6h89
l-4 -20h-91l3 14h2zM275 330l3 13h90v-1h-2l-3 -16h-90l1 4h1zM286 376v2h90v-2h-1l-3 -14h-89zM294 412h89l-3 -15h-89zM304 443l1 4h87l-4 -14h-88zM313 481h87l-4 -13h-86zM390 504h-53v12h79z" />
    <glyph glyph-name="comma" unicode="," horiz-adv-x="278" 
d="M217 66q-3 -6 -7.5 -12t-9.5 -11h-118l13 24h123l-1 -1v0zM62 8l13 24h115l-18 -24h-110zM212 91l8 -13h-118q2 3 3.5 6l3.5 7l6 10h114v-11v4zM141 -28h-99l14 25h106l-15 -18l-3 -5h-1zM110 -63h-87l11 19l3 7h97l-19 -23h-2zM83 -99h-81l2 3h1l1 2l12 22h86l-17 -22
h-2l-1 -2h2zM-9 -120l8 14h78l-18 -21l-6 -7h-68l3 7h-1zM217 133q3 -5 5.5 -9.5t4.5 -9.5h-101q5 5 9.5 10t8.5 9h73v0zM-29 -159l10 18h66l-17 -20h-24z" />
    <glyph glyph-name="hyphen" unicode="-" horiz-adv-x="333" 
d="M27 232l1 7h274l-3 -19h-278l2 12h4zM35 264v10h277l-2 -18h-278l2 8h1zM17 189l2 16h277v-16h-279z" />
    <glyph glyph-name="period" unicode="." horiz-adv-x="278" 
d="M64 65v2h155q-4 -5 -6.5 -10.5t-5.5 -9.5q0 -3 -1 -4h-153zM83 101h126q0 -3 0.5 -5.5t0.5 -4.5l7 -13h-160q7 6 13 11.5t12 10.5zM77 8q-20 10 -42 24h163q-10 -16 -20 -24h-101v0zM166 132q14 -3 27 -18h-94q11 8 20 12.5t17 6.5h26zM125 -11q-8 0 -26 8h59
q-19 -8 -33 -8z" />
    <glyph glyph-name="slash" unicode="/" horiz-adv-x="278" 
d="M-101 32h96l-16 -24h-95zM-85 58l6 9h92l-14 -24h-93zM35 101l-3 -4l-12 -19h-93v1l13 22h95zM44 114h-95l15 22h92l-2 -3h4zM-15 166l2 4h91l-13 -21h-93l11 17h2zM-74 -17q-7 0 -40 -11h-25l16 25h95l-15 -23q-11 4 -19.5 6.5t-11.5 2.5zM6 205h95l-13 -20h-94z
M111 220h-97l13 19h95l-4 -7h1zM71 308v1h96l-8 -12h1l-4 -6h-97zM133 256h-96l11 18h96l-7 -10h2zM179 326h-97l11 17h95v-1h-1l-8 -12h3zM199 362h-93l10 16h92l-1 -2zM132 410l1 2h96l-9 -15h-93l8 13h-3zM158 447h96l-10 -14h-96zM264 468h-93l8 13h96l-2 -4h-4z
M310 539h-95l8 12h96l-5 -8h-2zM201 516h96l-3 -6h-4l-3 -6h-93l3 6zM246 585h96l-8 -11h-94zM267 620h96l-6 -10h-97zM289 654h96l-6 -9h-96zM309 689h91l-4 -8h-92zM-142 -37q-2 0 -3 -1l1 1h2v0z" />
    <glyph glyph-name="zero" unicode="0" 
d="M357 43h-305q-11 11 -20 24h128q0 -2 2 -2q19 -12 44 -12q26 0 53 14h130q-8 -5 -15 -10.5t-14 -10.5zM93 8q-7 4 -14 9t-17 15h278q-12 -9 -22 -15t-17 -9h-208zM189 610q3 2 6 5q1 1 2.5 2t3.5 3h310q4 -3 8 -5.5t8 -4.5h-338zM418 101q-3 -3 -9.5 -9t-14.5 -14h-118
q6 4 12.5 9.5t14.5 13.5h115v0zM25 96q-2 2 -2 5h114q1 -4 3 -10l3 -1q2 -6 7 -12h-121q-1 3 -1.5 7.5t-2.5 10.5zM17 133v3h113q1 -4 1.5 -8.5t1.5 -9.5q0 -3 1 -4h-114q-2 7 -3 12t-1 7h1zM439 136q-9 -14 -16 -22h-111q5 6 13 19h6l-1 3h109v0zM15 170h114v-21h-114v17v4
zM16 199q1 2 1 4v2h114v-20h-120l1 1q-1 2 -1 4.5v4.5t-1 4h6v0zM459 166q-3 -5 -5.5 -9t-5.5 -8h-111l1 1l-1 -1l8 17h3l-1 3v1h111q0 -2 -0.5 -2.5t-0.5 -1.5h2v0zM496 232q-6 -8 -8 -12h-128q6 7 10.5 12t5.5 7h117l-4 -7h7v0zM473 196q-2 -5 -6 -11h-113q2 4 6 14h6
l-3 5l1 1h114q-2 -2 -2.5 -3l-1.5 -3t-1 -3zM20 239h115q-1 -5 -1.5 -10t-1.5 -9h-114v12h2v7zM512 297q-1 -1 -1 -6h-118q1 1 1 1.5t1 1.5q0 8 3 14v1h118v-1h-1l-3 -11v0zM32 297l2 12h117v-1h-2l-3 -17h-119v6h5zM501 256h-119l3 8h1q1 2 1 5t1 5h112l3 -4q-1 -2 -1 -3
t-1 -3h4zM24 261v5.5t1 7.5h117v-3q-2 -4 -2 -15h-116q0 2 1 3l-1 2v0zM39 330l2 13h122v-1h-5l-4 -16h-117l1 4h1zM521 326h-118l4 16v1h117v-1h-1l-2 -12h2zM463 652q1 -1 3.5 -2.5l7.5 -4.5h-233q5 2 10 4.5t10 4.5h199q2 -2 3 -2zM50 375q0 1 0.5 1t0.5 2h119v-2h-2
l-4 -14h-117q0 12 1 11.5t2 1.5zM530 376q-1 -4 -1 -7.5t-1 -6.5h-118l4 16h120v-2h-4v0zM541 412q-4 -10 -5 -15h-117q0 6 3 15h119v0zM58 397q2 7 4 15h115q-1 -1 -1 -2h-7l6 -11l-1 -2h-116v0zM540 443q0 -2 -0.5 -5t-0.5 -5h-111l-2 4l-1 -2v12h118v-4h-3v0zM72 433
q2 11 3 12v2h116l-2 -4h-5l4 -5q-1 -2 -1 -2.5t-1 -2.5h-114v0zM543 468h-116v13h117v-4h-1v-9zM87 470l4 11h116q-2 -5 -6 -13h-113l-1 2v0zM537 543l1 -4h-114q0 2 -2 12h119l4 -8h-8zM244 543q-1 -2 -3 -4h-116l9 12h117q-3 -3 -5 -8h-2v0zM103 510l4 6h118
q-2 -2 -2 -3.5t-1 -2.5h-2l-3 -6h-113q1 2 2 3t2 3h-5zM543 504h-114v12h115l2 -6h-3v-6zM530 574h-115q-1 1 -1 3h-1l-7 8h124v-1l4 -7h-4v-2v-1zM198 -15q-23 0 -44 3.5t-38 8.5h157q-19 -5 -37.5 -8.5t-37.5 -3.5zM156 577q2 2 3.5 4t3.5 4h123q-1 0 -1 -1q-2 -1 -6 -3.5
t-6 -3.5h-24l1 -3h-97l3 3v0z" />
    <glyph glyph-name="one" unicode="1" 
d="M137 8l5 24h132l-7 -16v-8h-130zM145 43q1 2 3.5 10.5t3.5 12.5v1h122q-1 -2 -1 -5t-1 -7q-2 -8 -2 -12h-125v0zM274 577v-3h-133l2 8q2 0 7 3h257l-1 -8h-6l-1 -3h-115l1 3h-11zM156 78q2 4 4 12t2 11h120l-1 -4q-2 -5 -3 -9.5t-2 -9.5h-120v0zM170 127q0 2 2 6l1 3h116
q-1 -1 -1 -2v-1h2l-5 -19h-120l5 13v0zM177 149q1 5 1.5 10t1.5 7l1 4h115v-2q0 -1 -0.5 -1t-0.5 -1h3q-1 -2 -2 -7t-3 -10h-116v0zM190 199l1 6h113l-3 -20h-117l3 14h3zM200 239h112l-3 -19h-113zM217 309h115v-1h-2l-4 -17h-114zM207 264l2 10h112l-3 -18h-115l2 8h2z
M223 330l3 13h114v-1h-2l-3 -16h-114l1 4h1zM221 610v2q6 2 11 4l10 4h175l-1 -10h-195zM344 362h-113l3 16h115v-2h-2zM353 397h-114l3 15h113v-2zM249 443l1 4h114l-3 -14h-112l2 10h-2zM260 477l1 4h115v-4h-4l-3 -9h-112zM381 504h-115l3 12h118q-1 -1 -1 -2v-4h-2z
M274 543l2 8h116l-2 -8h-10l3 -4h-108l1 4h-2zM327 654h114l9 -9h-144zM136 551h126l-17 -8h-35l1 -4h-53l-1 4h-22zM388 681q2 1 5.5 3t9.5 5h4l8 -8h-27v0zM168 516h24l-20 -10zM239 -4q-2 0 -2 0.5t-1 0.5h5l-2 -1v0z" />
    <glyph glyph-name="two" unicode="2" 
d="M-62 8l10 24h431q-1 -6 -1 -12v-12h-440zM-46 49q5 4 10 7.5t11 10.5h413q-4 -10 -5 -14q-2 -6 -2 -10h-429l2 6h-1l1 1v-1zM17 101h107l-5 -5h42q57 0 104 1t85 4h55q-4 -7 -7 -12.5t-5 -10.5h-408q8 5 14.5 10t14.5 10zM496 610h-345l13 10h315zM70 136h94
q-7 -7 -14 -12.5t-12 -9.5h-103q13 10 22 19h14zM109 170h97q-8 -6 -14.5 -11.5t-11.5 -9.5h-104q2 2 4 3q4 3 8.5 7.5t9.5 6.5h13zM252 308l1 1h122v-1h-2l-20 -17h-114l6 6l10 11h-3zM394 326h-124l17 17h120l-13 -13h5zM148 205h102l-8 -6h1q-2 -2 -7 -5.5t-11 -8.5h-104
q4 2 8 6.5t8 7.5h13zM185 239h104l-8 -7h4l-16 -12h-108q1 0 2 1l3.5 3.5l3.5 3.5t5 4h13zM212 264l10 10h109l-18 -18h-112l9 8h2zM203 645q5 2 10 4.5t10 4.5h198l15 -9h-233v0zM329 410l1 2h126l-1 -2h-1l-8 -13h-121l5 13h-1zM313 378h122l-1 -2h-17l5 -13v-1h-119z
M344 443l1 4h125l-2 -4h-7l6 -8l-1 -2h-127l6 10h-1zM356 480l1 1h129v-4h-2q-2 -3 -2.5 -5t-1.5 -4h-128zM361 504q0 2 0.5 4.5t0.5 7.5h132l-6 -12h-127v0zM349 585h147q2 -2 4.5 -5t3.5 -3h-19q0 -2 1 -3h-127v5zM365 551h126v-12h-126v12zM108 577l10 8h127
q-2 -2 -5 -3.5l-9 -4.5h-28l1 -3h-87l3 3h-12zM86 543l8 8h110q-1 -2 -1.5 -2.5t-1.5 -2.5t-2 -3h-20l2 -4h-63l-2 4h-30zM130 516h49q-1 -2 -1 -3t-1 -3h-44zM357 -5q-8 1 -15 1.5t-15 0.5h34l-4 -2v0zM0 -3q-11 0 -23 -0.5t-25 0.5h48v0z" />
    <glyph glyph-name="three" unicode="3" 
d="M-32 51q1 2 3 6.5t4 9.5h93q25 -14 57 -14q31 0 67 14h160q-11 -7 -21 -13t-20 -11h-347l4 8v0zM-1 8q-8 2 -19.5 8t-22.5 13l2 3h332q-16 -9 -28 -15t-20 -9h-244v0zM374 343q7 -4 15 -8t16 -9h-242l-7 8q0 3 3 9h215v0zM467 620q6 -4 10.5 -6.5t5.5 -3.5h-345l15 10
h314v0zM380 101q-8 -7 -14 -12.5t-12 -10.5h-141q8 5 16 11l16 12h135v0zM355 363q-1 -1 -2 -1h-189q1 4 2 7.5t3 8.5h208q-2 -2 -3 -2h-22l3 -13v0zM399 133q-4 -5 -7.5 -9.5t-7.5 -9.5h-129q3 3 6 7.5t8 11.5h6l-1 3h124q-2 -2 -2 -3h3v0zM418 166q-2 -2 -4.5 -6.5
t-6.5 -10.5h-128q4 5 9 17v1q0 2 1 3h123q0 -2 -0.5 -2.5t-0.5 -1.5h7v0zM420 185h-128q1 4 3 14h4v1v5h127v-4zM413 308q3 -5 6 -8.5t6 -8.5h-136q-4 3 -8.5 7t-12.5 10h-5q-2 0 -3 1h174q1 -1 2 -1h-23v0zM430 239q0 -5 -0.5 -9.5t-0.5 -9.5h-127q1 1 1 2t1 3v2v12h126v0z
M433 256h-128l-1 2q-1 2 -2 5t-3 11h127q1 -4 3 -10h6zM409 654q2 -2 16 -9h-232q5 2 10 4.5l9 4.5h197v0zM419 412q-5 -5 -9 -8.5t-8 -6.5h-102l-4 13q1 0 3 2h120v0zM446 447q-3 -4 -6 -7.5t-6 -6.5h-107l-4 9l-2 -4q0 3 3 9h122v0zM460 477q-2 -3 -2.5 -5t-1.5 -4h-118
l-1 2q2 4 2 7l2 4h126v-4h-7v0zM477 516q-1 -4 -5 -12h-123l3 12h125v0zM475 574h-123v7l-7 4h139q5 -5 9 -8h-18v-3zM476 543q0 -2 -0.5 -2.5t-0.5 -1.5h-121q0 2 0.5 4.5t0.5 7.5h121v-8v0zM115 -15q-25 0 -47 3.5t-41 8.5h182q-23 -5 -47 -8.5t-47 -3.5zM-18 79
q2 3 4.5 11t4.5 11h34l7 -4q0 1 0.5 1t3.5 -3l3 -1q3 -7 14 -16h-72zM93 579l9 6h132q-2 -2 -5 -3.5l-9 -4.5h-24l1 -3h-56v4zM142 551h54l-8 -8h-45z" />
    <glyph glyph-name="four" unicode="4" 
d="M476 205q-2 -6 -1.5 -10.5t0.5 -9.5h-495l5 20h491v0zM-10 220q5 5 9 9.5t9 9.5h482q-5 -6 -8 -8q-1 -2 -1 -4.5t-1 -6.5h-490v0zM41 271q0 -1 2 3h96q-3 -4 -5.5 -6.5l-4.5 -4.5h163l2 11h110l-2 -11q2 0 4 0.5t4 0.5h104l-3 -3t-4 -5h-482q6 6 7 8h12l-3 7v0zM239 67
h116q-1 -3 -1 -6q-2 -5 -3 -10t-1 -8h-118q2 5 4 9.5t4 10.5l-1 2v2zM228 32h127l-9 -19q0 -2 -0.5 -3t-0.5 -2h-102v4l-15 17v3zM369 101q-1 -2 -4 -9l-6 -14h-117q1 3 2.5 9l3.5 14h121zM266 510l6 6h197v-6h-5l-2 -6h-200l6 6h-2zM259 132q0 1 0.5 1.5t0.5 2.5h109
l-3 -12q-1 -4 -3 -10h-109l6 17l-1 1v0zM264 149q0 3 1 4l3 17h110l-1 -4h1l-2 -4l-1 -13h-111v0zM480 551q-2 -3 -2.5 -6t-2.5 -6h-180l12 12h173v0zM409 291h-111l5 18h111v-1h-2zM417 326h-110l1 4h1l3 13h111v-1h-2zM426 362h-109l3 16h111v-2h-2zM75 308l1 1h96v-1h-4
l-9 -11h3l-2.5 -2.5l-3.5 -3.5h-97l17 17h-1zM329 577l8 8h148q0 -1 -0.5 -1t-0.5 -1l-2 -9h-152q0 1 2 3h-3zM435 397h-110l3 15h115v-2h-5zM449 447q-2 -10 -4 -14h-110l3 10h-2l1 4h112v0zM107 342l1 1h94l-1 -1h-15l6 -9q-2 -2 -3 -3.5t-3 -3.5h-94q5 4 9 8l8 8h-2z
M143 378h94l-16 -16h-94zM452 468h-109l3 11v2h111l-1 -4h-1zM361 610q3 2 5.5 5t4.5 5h128v-10h-138zM172 410l2 2h94q-5 -5 -8.5 -9t-6.5 -6h-78l-4 11l2 2h-1zM202 443l4 4h93l-4 -4h-1q-2 -3 -4 -5.5t-4 -4.5h-91l10 10h-3zM235 477l4 4h94l-13 -13h-93l9 9h-1zM400 654
h100l-1 -9h-107zM318 -4q-1 0 -1 1h5l-2 -1h-2z" />
    <glyph glyph-name="five" unicode="5" 
d="M327 47q-3 -2 -7 -4h-343l1 24h108q2 -3 7 -4q26 -10 54 -10q14 0 29.5 3t31.5 11h150l-16 -10t-15 -10zM12 8q-9 4 -17.5 10.5t-16.5 13.5h322q-15 -9 -26.5 -15t-19.5 -9h-242v0zM399 378q4 -4 8.5 -7.5t9.5 -8.5h-294l-4 6q1 2 1.5 4t2.5 6h276v0zM429 342
q2 -4 4 -7.5t4 -8.5h-147q-5 3 -11.5 7t-14.5 9h-86l3 -14q-4 -2 -5 -2h-66l-3 7q0 6 1 10h327q1 -1 2 -1h-8v0zM528 620q-1 -2 -1.5 -5t-1.5 -5h-348q1 2 1.5 5t1.5 5h348v0zM393 101q-4 -3 -11.5 -9l-17.5 -14h-137q1 0 1.5 0.5t1.5 0.5q7 5 13.5 9.5t14.5 12.5h135v0z
M186 654h331l5 -9h-336v9zM258 574h-84q0 2 0.5 5t0.5 6h341l-2 -8h-255zM397 119q-2 -2 -2.5 -3t-1.5 -2h-125q2 3 5.5 7t8.5 12h4l-2 3h123q0 -1 -0.5 -1.5t-0.5 -1.5h2q-4 -4 -6 -7.5t-5 -6.5zM426 170q-2 -5 -5 -10.5t-5 -10.5h-125q4 6 8 17h1l2 4h124v0zM439 199
q-4 -10 -6 -14h-125q4 10 6 14l-1 2q1 1 1 2t1 2h124q-1 -3 -1 -6h1v0zM446 220h-130q0 4 0.5 7.5t0.5 4.5h3q0 4 1 6v1h127v-1q-1 -2 -1 -3t-1 -3h2q-1 -2 -1 -3.5t-1 -3.5v-5zM449 291h-130l-7 18h134q0 -1 1 -1h-4l3 -11h3v-6zM449 270q0 -1 0.5 -3.5t2.5 -10.5h-127l1 1
l-3 4v4.5t-1 8.5h127v-4v0zM-11 78l5.5 11t5.5 12h50q0 -4 3 -8l3 -1q2 -5 14 -14h-81v0zM136 -15q-48 0 -94 12h181q-22 -5 -44 -8.5t-43 -3.5zM327 397h-88l-1 15h91zM203 397h-69l-3 6q-1 -2 0 1.5t2 5.5l1 2h73v-2h-1zM212 433h-71l3 14h75l-1 -4h-3zM224 468h-74l3 13
h76l-1 -4h-1zM245 539h-79q0 4 4 12h80l-3 -8h-1zM235 504h-76l3 12h77l-1 -6h-1zM41 114h-35l5 9h19zM124 309h15q-8 -4 -10 -4z" />
    <glyph glyph-name="six" unicode="6" 
d="M211 53q28 0 56 14h142q-7 -5 -13.5 -9t-12.5 -8q-2 -2 -4 -3.5t-4 -3.5h-309q-2 2 -3 4l-3 3q-4 4 -7.5 8t-7.5 9h122q0 -1 1 -1q17 -13 43 -13zM440 378q8 -7 19 -16h-392l6 12q0 1 0.5 1.5t0.5 2.5h119l-1 -2h-3q-1 -2 -1 -3.5t-1 -3.5l15 9h238v0zM103 9q-9 5 -27 23
h280q-14 -9 -24.5 -15.5t-17.5 -8.5h-201l-10 1v0zM481 330v-4h-138q-4 4 -8.5 7.5t-9.5 8.5h-61l-24 -16h-186l1 4h3q0 4 0.5 5.5t2.5 4.5l1 2h-5v1h425q0 -1 1 -1h-11q2 -2 3.5 -5l3.5 -7h2zM432 101q-6 -9 -20 -23h-129q5 5 10.5 9t10.5 8q1 2 2 3t2 3h124v0zM48 297
l2 12h165q-1 -1 -2 -1h-2l-15 -17h-152l2 6h2zM454 136q-2 -5 -6 -10.5t-9 -11.5h-119q2 2 3 4q3 7 9 18h122v0zM469 170q-4 -11 -10 -21h-121l10 21h121v0zM41 88q-3 5 -4 13h107q4 -10 13 -23h-111q-2 4 -2 8l-3 2v0zM39 264l2 10h141q-8 -11 -12 -18h-134q0 3 0.5 5
t0.5 3h2zM500 610h-250v3q-2 -1 0.5 0.5t4.5 3.5l3 3h241zM481 205q-2 -5 -3 -10.5t-3 -9.5h-121q2 10 4 14h1v2q0 2 1 4h121v0zM33 239h128q-2 -5 -4 -9.5t-4 -9.5h-122v12h2v7zM30 131l-1 2v3h108v-3h1q0 -9 2 -19h-106q-2 6 -2 9l-1 1q-1 2 -1 7zM487 220h-125q1 4 1 7
t1 5h1v7h124q-1 -2 -1 -6q0 -1 -1 -1h2l-2 -7v-5zM30 203v2h118l-2 -6q-1 -2 -1 -4v-10h-117v14h2v4zM139 166q0 -1 -0.5 -6.5t-0.5 -10.5h-110v21h111q-1 -2 -0.5 -2t0.5 -1v-1v0zM491 291h-126q-1 2 -1.5 5t-5.5 13h131l1 -1h-5l3 -11h3v-6zM491 270q0 -1 0.5 -3.5
t3.5 -10.5h-128l1 2q-2 5 -1.5 7.5t0.5 4.5v4h124v-4v0zM84 401q1 2 2.5 4.5t3.5 6.5h116l-6 -15h-114l-2 4v0zM317 650q1 0 9 4h173v-9h-189v2q1 0 7 3zM222 443q-2 -6 -4 -10h-108l-4 9q1 1 1 2t1 2l-3 -3q2 2 2 4h120l-2 -4h-3v0zM239 468h-117l-1 2q1 1 5 7h-3l3 4h122
l-3 -4h-2zM296 539h-128l9 9l3 3h129q-2 -2 -3.5 -3t-2.5 -2zM140 510l6 6h128l-9 -12h-122l5 6h-8zM332 574h-128v1q2 2 3 2.5t3 2.5l5 5h141l-6 -4t-10 -4h-5zM203 -15q-38 0 -75 12h155q-21 -5 -40.5 -8.5t-39.5 -3.5zM306 412h42l-1 -15h-41v15z" />
    <glyph glyph-name="seven" unicode="7" 
d="M144 620h445v-10h-446zM321 574h-189q1 1 3 5q-1 0 -1 6h424l-2 -2q-2 -2 -3.5 -4.5t-3.5 -4.5h-91l3 3h-140v-3zM156 654h435l-1 -9h-437zM-13 18q-5 4 -10 7.5t-8 6.5h153l-24 -24h-121l10 10v0zM142 67q-2 -3 -7.5 -10t-11.5 -14h-114l20 24h113v0zM167 101
q-2 -2 -7 -8.5t-11 -14.5h-111l4 4q2 3 5 7t12 12h108zM196 136q-4 -5 -9 -11t-10 -11h-112l22 22h109v0zM96 149l12 12t8 9h103l1 -2q-2 -2 -3.5 -5t-3.5 -5t-3 -3.5t-4 -5.5h-110v0zM148 205h102q-12 -15 -17 -20h-103q2 2 6.5 7t6.5 7h8zM178 239h97q-4 -5 -7.5 -10
t-7.5 -9h-101q3 3 6 6.5t5 5.5h11zM205 272l1 2h97q-3 -6 -6 -10l-6 -8h-100q1 2 5 8h13l-4 8v0zM234 306q0 1 0.5 1.5t0.5 1.5h97l-1 -1h-1l-12 -17h-97l6 6h10zM251 326q3 4 6.5 8t6.5 9h97l-1 -1h-13l5 -8q-4 -6 -6 -8h-95v0zM288 372q1 2 2.5 3t3.5 3h95l-6 -8l-6 -8
h-84l-5 10v0zM316 410l2 2h97l-2 -2h-15l7 -12l-2 -1h-93l11 13h-5zM477 481l-13 -13h-91l-1 2q3 6 8 11h97zM339 433q5 5 8 8.5t5 5.5h92l-4 -4h-13l4 -10h-92v0zM404 509q3 3 5 7h96q-4 -4 -6.5 -7t-4.5 -5h-88l-2 5v0zM431 542l3 3t4 6h93q-2 -3 -7 -8h-1q-1 -2 -3 -4
h-88l-1 3v0zM145 551h113q-25 -1 -52.5 -2t-54.5 -3z" />
    <glyph glyph-name="eight" unicode="8" 
d="M206 53q28 0 56 14h144q-17 -13 -34 -23q-1 0 -2 -1h-328l-1 2l-1 1q-3 3 -4 5q-4 4 -8 7.5t-7 8.5h137q0 -1 1 -1q19 -13 47 -13zM87 9q-15 5 -33 23h297q-14 -9 -25 -14.5l-19 -9.5h-213l-7 1v0zM466 326h-146q-2 1 -2.5 1t-2.5 1l3 14h-72l3 -15q-2 -1 -4 -1h-147l4 4
h22l-4 13h331q3 -4 12 -13h2zM185 362l-3 13l1 1h-6l-11 2h253q-4 -2 -5 -2h-10l-2 -14h-217zM191 610q1 1 3 2.5t2 2.5q1 1 7 5h299q1 -2 2 -2.5t3 -2.5l3 -1q0 -2 1 -2q0 -2 1 -2h-321zM428 101l-8 -10t-11 -13h-130q4 3 7.5 6t6.5 5l12 12h123v0zM18 85q-2 3 -3 7t-3 9
h124q2 -5 4.5 -11t7.5 -12h-127q-1 2 -1 3t-1 3l-1 1v0zM8 133v3h121v-3q0 -5 0.5 -9.5t1.5 -9.5h-122q-1 5 -1.5 9.5t-0.5 9.5h1zM451 136q-2 -5 -5.5 -10t-8.5 -12h-120l1 1l5 9l6 12h122v0zM10 166v4h121v-5q0 -2 -0.5 -6.5t-0.5 -9.5h-123l1 6v11h2zM458 149h-122l4 10
t4 11h122q-1 -3 -2 -5.5t-1 -4.5zM478 205l-5 -20h-124q1 4 3 14h2v6h124v0zM18 202q-1 -1 -1 0t1 3h124q-3 -8 -3 -11l-5 -9h-122l2 14h6l-2 3v0zM29 233q0 2 2 6h126q-2 -4 -6 -10q-1 -3 -1.5 -5t-1.5 -4h-125q1 2 2 5t3 7h1v1v0zM484 236q0 -2 -0.5 -6.5t-0.5 -9.5h-124
l1 1q0 5 0.5 9t0.5 9h123v-3v0zM474 308l6 -17h-128l-8 17q-1 0 -1 1h138q0 -1 1 -1h-8zM77 306l3 3h132l-1 -1h-2l-9 -9l-8 -8h-130l5 6h14zM173 264q-4 -6 -6 -8h-129l12 18h123l-5 -10h5v0zM484 256h-124v11q0 1 -2 7h125q1 -2 1 -6v-12zM469 650q0 -1 6 -5h-234l10 5
l8 4h202q2 -2 4 -2.5t4 -1.5zM147 397q-2 3 -5 6.5t-6 8.5h121q8 -8 19 -15h-129v0zM438 410l4 -13h-108l-2 11q4 1 8 4h124q-1 -1 -1.5 -1t-1.5 -1h-23zM476 443l4 -10h-114q10 10 13 14h117q-1 -2 -3 -4h-17zM120 477l1 4h119v-4h-1l-3 -9h-114v9h-2zM236 446q0 -5 4 -13
h-103l-8 14h107v-1v0zM501 477l6 -9h-115q4 8 6 13h115l-2 -4h-10zM142 551h120l-7 -12h-120zM406 510q0 4 1 6h119q-2 -4 -2.5 -7t-1.5 -5h-116l1 6h-1zM122 510l3 6h118l-1 -3v-9h-116v6h-4zM529 539h-118q0 1 0.5 1.5t0.5 2.5h-1v8h114l4 -8h-3l3 -3v-1zM513 577l1 -3
h-104v5q-2 1 -4 2.5t-4 3.5h133q5 -5 9 -8h-31zM161 578q1 2 2 3.5t3 3.5h127q-4 -2 -10 -8h-6q-2 -2 -2 -3h-118l4 4v0zM198 -15q-22 0 -41.5 3.5t-39.5 8.5h160q-21 -5 -40.5 -8.5t-38.5 -3.5z" />
    <glyph glyph-name="nine" unicode="9" 
d="M104 291q-5 5 -13 18h404v-1h-3l2 -2q-2 -4 -2.5 -8t-2.5 -7h-121l1 1l-1 -1h-264v0zM137 53q34 0 63 14h139l-15 -10q-2 -2 -4 -3.5t-4 -2.5q-8 -7 -12 -8h-273q0 3 -0.5 10.5t-0.5 8.5q-1 -1 -3 5h61q11 -6 23 -10t26 -4zM34 26v6h250q-32 -20 -46 -24h-196l2 9z
M503 620q6 -4 10.5 -6.5t5.5 -3.5h-342v3q1 0 2 1q2 2 3 3.5t3 2.5h318v0zM504 342q-2 -5 -2 -8.5t-2 -7.5h-202q6 2 9 4h3q5 3 9 6.5t8 6.5h184v-1h-7v0zM161 256q-6 2 -11.5 4t-10.5 4l2 10h177l3 -11q-5 -2 -10 -3.5t-10 -3.5h-140v0zM241 93q2 2 4.5 4t4.5 4h121
q-5 -5 -11 -10.5t-14 -12.5h-128q8 5 13 8.5t10 6.5zM283 133q0 1 2 3h117q-3 -4 -6 -7t-6 -7l-8 -8h-118q6 6 10 10.5t8 8.5h1v0zM512 362h-163l8.5 8.5l5.5 5.5l1 2h156v-2h-3zM307 166l2 4h117q-3 -5 -5.5 -8.5t-5.5 -6.5l-6 -6h-115q1 1 1 1.5t1 1.5q1 2 4.5 7.5
t4.5 6.5h2v0zM317 185l7 10.5t5 9.5h117l1 -2q-2 -3 -5.5 -8t-6.5 -10h-118v0zM345 233q0 2 1 3t2 3h118q-2 -5 -4.5 -10l-4.5 -9h-119q2 3 2.5 6t2.5 6h2v1v0zM79 326q-2 3 -3.5 7.5t-3.5 9.5h124q2 -3 4.5 -6t5.5 -7h1q2 -2 3.5 -2.5t3.5 -1.5h-135v0zM360 264l3 10h118
l-4 -10h4q-1 -2 -5 -8h-121q2 2 2.5 4t1.5 4h1zM521 397h-141q2 5 4 8.5t3 4.5v2h140v-2h-10l5 -7q-1 -2 -1 -4v-2zM445 654q2 -2 6.5 -4t9.5 -5h-231l21 9h194v0zM68 369q0 1 -0.5 3t-0.5 6h119q0 -3 0.5 -5.5t0.5 -3.5q0 -4 1 -7h-120q-1 2 -0.5 3.5t0.5 3.5zM66 397v7
t1 8h125q-2 -5 -3 -8.5t-2 -6.5h-121v0zM527 433h-130q2 4 3 7t3 7h124q0 -1 -0.5 -1.5t-0.5 -1.5l2 -2q0 -2 -0.5 -3.5t-0.5 -3.5v-2zM70 433q0 3 0.5 6t1.5 8h124v-4h-2q-2 -8 -2 -10h-122v0zM78 477l2 4h132q-2 -4 -4 -7l-4 -6h-125q1 2 1 4.5t1 4.5h-3zM109 539
q2 2 3.5 5t4.5 7h134l-12 -12h-130v0zM532 477q-1 -3 -1 -9h-117l-1 2v3q0 2 2 8h117v-4v0zM97 516h124l-6 -12h-124zM142 580q1 1 1.5 2t2.5 3h136l-12 -8l-3 -3h-131l6 6v0zM532 504h-112q0 2 0.5 5t0.5 7h116l3 -6h-8v-6zM517 574h-107l-3 6l-5 5h120q2 -2 4.5 -5t3.5 -3
h-13v-3zM527 539h-106v7q-1 1 -3 5h108l2 -4l2 -4h-6l3 -3v-1zM125 -15q-20 0 -38.5 3.5t-32.5 8.5h151q-22 -5 -42.5 -8.5t-37.5 -3.5zM58 96q2 -3 6.5 -8t10.5 -10h-53v1l36 17v0z" />
    <glyph glyph-name="colon" unicode=":" horiz-adv-x="278" 
d="M22 61v6h151q-1 -6 -5 -12q0 -6 -2 -12h-153zM43 101h126q0 -3 0.5 -5.5t0.5 -4.5l6 -13h-160q7 6 13.5 11.5t12.5 10.5zM38 8q-17 10 -36 24h154q-10 -16 -20 -24h-98v0zM258 412q-2 -5 -3 -8.5t-2 -6.5h-145l1.5 7.5t1.5 4.5v-1l15 2h-27l2 2h157v0zM243 376
q-4 -4 -7 -7.5t-6 -6.5h-110q-4 6 -7 14h-5v2h137l-1 -1v-1h-1v0zM252 447q1 -4 3 -14h-137q3 4 6 7t6 7h122v0zM125 132q15 -3 28 -18h-94q11 8 20 12.5t17 6.5h25zM84 -11q-8 0 -26 8h61q-19 -8 -35 -8zM141 343h66q-1 -1 -2 -1h-60zM110 405q1 1 1 3z" />
    <glyph glyph-name="semicolon" unicode=";" horiz-adv-x="278" 
d="M177 66q-7 -12 -17 -23h-118l13 24h123l-1 -1v0zM22 8l13 24h115l-18 -24h-110zM171 91l9 -13h-118q2 3 3.5 6l3.5 7l6 10h114q0 -8 -1 -11v4zM16 -3h106l-12 -14l-7 -9h-1l-2 -2h-97l2 2h-1zM-15 -60l13 23h95l-19 -23h-1l-3 -3h-86l2 3h-1zM272 397h-146q1 4 1 7t1 6
h-5l1 2h154q0 -1 1 -2h-2zM-34 -94l13 22h84l-17 -22h-1l-1 -2h2l-3 -3h-79l2 3l1 2h-1zM-52 -127l12 21h77l-23 -28h-69l4 7h-1zM258 376q-3 -5 -6.5 -8t-5.5 -6h-110q-3 4 -8 14h-2v2h136q0 -1 -1 -2h-3v0zM270 447q1 -4 3 -14h-136q2 4 5 7.5t5 6.5h123v0zM177 133
q6 -11 9 -19h-100q5 5 9.5 10t8.5 9h73v0zM-70 -159l11 18h67l-17 -20h-24zM158 343h65q-1 -1 -2 -1h-59zM144 410h-15v-2z" />
    <glyph glyph-name="less" unicode="&#x3c;" horiz-adv-x="606" 
d="M453 101l45 -23h-185l-44 23h184zM392 133l37 -19h-185l-39 20v2h172v-3h15zM332 67h182l-6 -24h-130zM326 166l34 -17h-181l-33 17l1 4h167l-1 -4h13zM265 199l27 -14h-181l-27 15l1 5h163l-1 -6h18zM81 308l2 1h199l-2 -1h-32l3 -11l-14 -6h-185l2 6h29zM201 232
l23 -12h-182l-6 3l5 16h144l-1 -7h17zM161 341l4 2h200l-2 -1h-38l3 -14l-5 -2h-200l10 4h30zM242 376l5 2h200l-5 -2h-35l3 -14h-165zM485 410l2 -13h-163l-2 12l7 3h201l-5 -2h-40zM564 443l2 -10h-161l-2 10l9 4h197l-1 -4h-44zM153 256h-109l4 18h120l3 -10zM398 32h107
l-4 -15v-9h-56zM614 468h-130l-1 8l11 5h124l-1 -4zM564 510l14 6h49l-3 -12h-59zM464 -3h36v-20z" />
    <glyph glyph-name="equal" unicode="=" horiz-adv-x="606" 
d="M20 166l1 4h518l-3 -21h-520v17h4zM65 343h518l-4 -17h-518zM74 378h516l-3 -16h-517zM542 185h-518l3 14h517zM16 123v13h516v-13h-516zM57 308v1h519v-1h-519z" />
    <glyph glyph-name="greater" unicode="&#x3e;" horiz-adv-x="606" 
d="M263 101l1 -2l-52 -21h-202l56 23h197zM162 136h181l1 -3l-47 -19h-202l48 19h20zM244 166v4h176l1 -4l-40 -17h-199l42 17h20zM-4 67h189l-59 -24h-137zM326 205h172l2 -8l-30 -12h-201l33 14h26zM406 239h148l-5 -19h-195l28 12h26zM567 291h-176l-15 8l2 9h-20l-2 1
h178l6 -3l-3 -9h31zM496 330l7 -4h-181l-6 3l3 13h-26l-2 1h182l4 -2l-3 -11h22zM254 362l-2 1l3 13h-28l-4 2h184l6 -3l-3 -13h-156zM349 397h-160l2 13h-29l-4 2h182l11 -6zM283 433h-156l2 10h-41l1 4h187l10 -5zM-22 8l5 24h117l-58 -24h-64zM440 266l2 8h121l-3 -18
h-120l10 4zM223 468h-129l3 9l1 4h115l12 -6zM161 504h-58l3 12h39l17 -9zM19 -3l-47 -20l4 20h43z" />
    <glyph glyph-name="question" unicode="?" horiz-adv-x="389" 
d="M40 43q-1 5 -1 10.5v13.5h151q-2 -4 -3 -7t-2 -5q0 -6 -2 -12h-143v0zM186 101v-8l9 -15h-159q5 5 10 9.5t11 8.5q1 2 1.5 2.5t1.5 2.5h126zM52 8q-9 5 -19.5 11t-21.5 13h161q-11 -18 -20 -24h-100v0zM66 232q-2 4 -2 7h95l2 -4l2 -4q4 -2 10 -2q8 0 16 3h60
q-2 -3 -5 -6t-5 -6h-171q-5 4 -9 12h7v0zM100 185q-7 6 -20 20h147q-4 -6 -8 -11t-7 -9h-112v0zM140 408q1 1 2 1.5t3 2.5h156l-18 -15h-139l-4 11v0zM385 654q4 -2 7 -4.5t7 -4.5h-257l1 9h242v0zM109 375q1 0 3 3h147l-2 -2h-3l-14 -14h-126l-5 13v0zM82 333q1 2 2 4.5
t3 5.5h134q-5 -5 -10 -9l-10 -8h-123l2 4h4l-2 3v0zM181 443q2 1 5 4h151l-4 -4h-22l3 -10h-143q6 4 10 10zM68 299q0 4 2 10h114l-1 -1h-3l-6 -12q-2 -2 -2.5 -3t-1.5 -2h-107v6h6l-1 2v0zM61 264q0 6 1 10h99q-7 -14 -5 -12v-6h-94q-1 2 -1 8zM212 468q5 3 9 6.5t8 6.5
h135q-1 -2 -3 -4h-18l5 -9h-136v0zM265 516h119q-2 -4 -3 -7t-3 -5h-125zM286 543l4 8h110l-6 -12h-111zM141 133q13 -3 29 -19h-93q20 16 35 19h29v0zM288 614q-2 1 -4.5 2.5t-5.5 3.5h130q4 -4 6 -7t3 -3h-120l-9 4v0zM199 686q2 1 8 3h120l4 -1q2 -2 5 -2q2 -2 8 -5h-156
q8 4 11 5zM300 574h-1v11h101v-8h-1q0 -1 -0.5 -1.5t-0.5 -1.5h-97v1zM139 620h85l-24 -10h-61v10zM100 -11q-8 0 -26 8h60q-19 -8 -34 -8zM171 585q-3 -2 -6 -5t-7 -6h-19v11h32v0z" />
    <glyph glyph-name="at" unicode="@" horiz-adv-x="800" 
d="M548 101l1 -3q-8 -5 -17 -10t-20 -10h-364q-8 5 -16.5 10.5t-18.5 12.5h188q9 -1 17 -1.5t16 -0.5h15t16 2h183zM518 232q5 2 11 7h92l4 -7q-10 -10 -13 -12h-398q-2 3 -3.5 6t-3.5 6h6q-1 2 -1 3.5t-1 3.5h106q2 -3 8 -7h24l-1 6l2 1h144v-11h2q6 0 17 4h5v0zM211 43
q-8 3 -18.5 9t-26.5 15h321q-15 -7 -31.5 -13t-36.5 -11h-208v0zM322 610v4l8 4l4 2h328q4 -4 7 -4q2 -2 5.5 -3.5t4.5 -2.5h-357zM601 481q-2 -3 -4 -6.5t-4 -6.5h-121l-3 9h-31q-4 -2 -7 -4.5t-6 -4.5h-112l-2 7q1 2 5 6h285v0zM416 185q-5 9 -8 20h177l1 -4
q-8 -5 -15.5 -9t-14.5 -7h-140v0zM240 185q-8 8 -16 20h184l-16.5 -11t-14.5 -9h-137v0zM366 516h248l-6 -12h-255l-1 5zM215 131q15 -11 30 -17h-129l-1 1q-2 2 -6 8q-2 2 -3.5 5t-3.5 5h1q-2 2 -2 3h108q4 -4 6 -5zM544 114h-116q14 4 28 9t26 10h15l-1 3h84l-6 -19z
M502 266q-1 -2 -2 -4.5t-2 -5.5h-124q6 4 9 7q7 7 10 11h107l3 -4q-1 -2 -0.5 -2t-0.5 -2zM180 170q3 -4 7.5 -9t9.5 -12h-103l-4 8t-4 9h2l-2 4h94v0zM173 199v-5t1 -9h-91q-3 6 -6 20h91l2 -6h3v0zM407 291q1 0 1 1l11 17h100v-1h-5l4 -5q-2 -4 -3 -5t-1 -2t-1 -2
q-2 -2 -2 -3h-104v0zM213 294q0 1 0.5 1.5t0.5 1.5l3 12h100v-1h-4v-3l-1 -8h5l-3 -6h-102l1 3v0zM371 577l1 -3h-114l-1 4q2 2 4 2.5t4 2.5l3 2h198q-11 -2 -22.5 -3.5t-22.5 -4.5h-50zM210 264v10h98q-5 -11 -3 -9.5t2 0.5v-9h-98q0 2 -0.5 4t-0.5 4h2zM166 220h-91
q-2 8 -2 12h1v7h90v-7h2v-12zM169 291h-95v6h4l-2 3q1 2 0.5 3.5t0.5 3.5v2h96v-3zM224 334q0 1 2 9h102v-1h-2q-2 -4 -3 -8t-3 -8h-99l1 4h4l-2 4v0zM185 342q-2 -5 -3.5 -8.5t-3.5 -7.5h-97l4 17h100v-1v0zM166 267q-1 -2 -1 -11h-93l1 8v10h93v-7v0zM199 378
q-2 -5 -3.5 -8.5t-3.5 -7.5h-99l-2 3q0 2 1 5t3 8h104v0zM532 339q-2 -8 -3 -9.5t-2 -3.5h-98q2 4 4.5 8t4.5 9h96v-1h-5l3 -3v0zM238 376l1 2h108q-1 -1 -1 -2h-1q-3 -5 -5 -8l-4 -6h-93l-5 8q1 2 1 2.5t1 2.5v1h-2zM565 264q6 6 9 10h79l5 -8q-6 -6 -9 -10h-95q3 2 5.5 4
t4.5 4h1v0zM249 410l2 2h112v-1q-2 -4 -4 -7.5t-4 -6.5h-105l8 13h-9zM335 539h-123l-1 3q2 2 3.5 3t3.5 3l3 3h138q-8 -4 -14 -8h-5zM572 577q-11 2 -22.5 4t-23.5 4h174l7 -4h1q1 -1 2.5 -3t3.5 -4h-113l-3 3h-26v0zM211 402q-1 -2 -1 -2.5t-1 -2.5h-106q2 4 3.5 7.5
t3.5 7.5h108q-1 -1 -1 -2h-11l5 -8v0zM241 447q-2 -4 -4.5 -7.5t-4.5 -6.5h-109q2 8 3.5 10t3.5 4h111v0zM593 293l11 16h87q0 -1 -1 -1h-10l5 -7q-2 -2 -3 -4.5t-4 -5.5h-87zM549 376q-2 -5 -3.5 -8.5t-2.5 -5.5h-86l-4 8q0 1 1 3l2 4v1h95l-1 -2h-1v0zM263 477
q-3 -6 -6 -9h-105l-3 7q2 2 2.5 3.5t2.5 2.5h114l-4 -4h-1v0zM272 433q5 5 8 8.5t5 5.5h110q-2 -2 -3 -2.5t-2 -1.5h-16l6 -10h-108v0zM291 504h-115l-1 3q1 2 3.5 4t4.5 5h123l-7 -6h-2zM562 404q-1 -2 -1.5 -3.5t-1.5 -3.5h-96q2 7 4 15h99q-1 -1 -1 -2h-7l4 -6v0z
M577 435q0 -2 -1 -2h-100v2q0 3 1 8v4h104l-2 -4h-7l5 -8v0zM705 335q-1 -2 -2 -4.5t-3 -4.5h-84l9 17h85v-1h-10l5 -7v0zM640 378h83q-1 -1 -1 -2h-7l5 -8l-2 -6h-82l4 15v1zM729 542v-1q0 -1 1 -2h-94l-2 4q-4 2 -10 8h112q6 -8 8 -8h-18l3 -3v2zM647 401q0 4 1 9v2h84v-2
h-4l4 -5q-1 -2 -1 -4t-1 -4h-83v4v0zM587 645h-163v3q11 2 22.5 3.5t23.5 2.5h65q14 -2 26.5 -3.5t25.5 -3.5v-2zM652 433q2 10 2 14h86v-4h-3l1 -1q0 -1 -2 -9h-84v0zM743 481q-1 -4 -1 -7t-1 -6h-85v13h87v0zM647 516h93l4 -6h-6v-6h-87l-2 9zM584 149h-70q18 8 32 17h44z
M303 26q-12 0 -25 1t-25 4v1h112v-2q-14 -2 -29.5 -3t-32.5 -1z" />
    <glyph glyph-name="A" unicode="A" horiz-adv-x="667" 
d="M520 256h-429q2 2 3 3.5t3 3.5v1q6 6 8 10h410v-10h5v-8zM515 291h-398q7 10 13 18h384q0 -1 1 -1h-6v-2h1q0 -1 2 -9h3v-6zM505 343q2 -10 4 -17h-368l2 4h14l-4 11l1 2h94l-11 -14h15q13 -1 25.5 -1h25.5h41t41 1l-2 13h-1v1h123v0zM424 43q-2 10 -3 24h135
q0 -3 0.5 -11t0.5 -10v-2v-1h-133v0zM426 26q0 3 -1 6h139q0 -4 -2 -6q2 -5 2.5 -9.5t1.5 -8.5h-121l-19 18v0zM418 98q0 1 -0.5 1.5t-0.5 1.5h128l6 -23h-131l-2 18v2v0zM413 131q-1 1 -1 2t-1 3h128q2 -5 3 -11t3 -11h-130q-2 10 -2 17zM-78 8q5 7 8.5 13t7.5 11h109
l-4 -7q-1 -2 -4.5 -8.5t-5.5 -8.5h-111v0zM535 166q0 -7 2 -17h-127l-3 21h125l1 -4h2v0zM-55 43q6 8 10 13.5t8 10.5h105l-3 -5l-2 -4t-3 -5l-6 -10h-109v0zM404 191q-1 3 -1 6t-2 8h126q1 -2 1 -3t1 -3h1l1 -14h-126v5l-1 1v0zM474 510q0 -4 1 -6h-121v3l-2 -3h-87l9 12
h201q0 -2 2 -6h-3v0zM397 232q0 1 -0.5 2t-0.5 2v3h124q1 -5 2 -5v-12q0 -2 1 -2h-126q-2 4 -3 12h3v0zM-30 78q2 2 4.5 5.5t4.5 7.5l7 10h101q-4 -6 -7 -12t-5 -11h-105v0zM8 133q0 1 0.5 1.5t0.5 1.5h101q-1 -2 -2 -3t-1 -2q-2 -3 -4.5 -6.5t-5.5 -10.5h-103q3 3 4 5
q2 3 3 6t3 8h4zM470 539h-180q1 3 8 12h174q1 -2 2 -3.5l3 -4.5h-7v-4zM131 170q-4 -6 -7.5 -11.5t-6.5 -9.5h-100l8 11q2 3 5 6l3 4h98v0zM378 362l-3 16h121q1 -4 1.5 -8t1.5 -8h-121zM152 199q-3 -4 -5.5 -7.5t-4.5 -6.5h-98l10 14h7l-2 6h95q-4 -4 -5 -6h3v0zM492 410
l1 -13h-121l-2 13h-1l-1 2h124q0 -2 1 -2h-1zM173 232q-3 -5 -8 -12h-96q2 2 3.5 5l3.5 7h8l-3 6l1 1h96l-7 -7h2v0zM486 443q0 -7 1 -10h-121v10l-1 4h126q1 -1 1.5 -2t1.5 -2h-8v0zM464 574h-149v1q2 2 4 6v1q0 2 1 3h144q0 -2 1 -4l2 -4h-3v-3zM358 478l-1 3h123
q1 -5 1 -8.5v-4.5h-121l-2 9v1zM176 375q1 0 1 1l1 2h91l-1 -2h-2l-9 -14h-76l-5 13v0zM202 412h88l-1 -2h-1l-8 -13h-81l-3 6l5 8zM219 437q1 2 2.5 3.5t2.5 3.5l2 3h90l-10 -14h-85l-2 4v0zM341 615q0 1 2 5h116v-10h-120l2 5v0zM245 477l3 4h92l-1 -2l-1 -2h-1l-7 -9h-89
l6 9h-2zM448 648q0 -1 0.5 -1.5t0.5 -1.5h-87l6 9h80v-6v0zM387 681q2 2 5 8h55v-8h-60v0zM541 -4q-2 0 -3 0.5t-3 0.5h6v-1v0zM455 -3q-2 0 -3 -0.5t-2 -0.5v1h5v0z" />
    <glyph glyph-name="B" unicode="B" horiz-adv-x="611" 
d="M14 67h408q-8 -6 -17 -12.5t-18 -11.5h-379q1 4 2.5 8.5t5.5 11.5l-2 3v1zM5 31v1h362q-17 -8 -34 -13.5t-34 -10.5h-283l1 7zM493 326h-409l1 4h1l3 13h383l8 -6t9 -7h3zM402 362h-308l3 16h346q-4 -2 -5 -2h-38zM148 610l1 10h423q5 -6 13 -10h-205q-23 3 -44 3
q-19 0 -32.5 -0.5t-25.5 -2.5h-130zM458 101q-5 -5 -10 -11t-13 -12h-170q22 8 45 23h148v0zM531 651q0 -1 7 -6h-379q1 2 1.5 4.5t1.5 4.5h361l8 -3v0zM482 136q-2 -5 -6 -10.5t-9 -11.5h-142q13 11 19 19l3 3h135v0zM18 78q2 6 3 11.5t3 11.5h125l-1 -4q-2 -7 -4 -19h-126
v0zM496 163q-3 -4 -6 -14h-133q2 2 2.5 3.5t2.5 3.5l3.5 7l3.5 7h128l-1 -7v0zM35 134l1 2h120q0 -1 -0.5 -1.5t-0.5 -1.5h3l-6 -19h-123l7 18l-1 2v0zM508 199q-1 -1 -1 -3l-3 -9v-2h-131q4 8 6 13t3 7h127v-1zM501 308q2 -3 3 -7.5t3 -9.5h-135l-1 2l-15 15h-13q-2 0 -3 1
h174q0 -1 1 -1h-14v0zM45 170h118l-3 -21h-121zM514 220h-129q0 4 0.5 7.5t0.5 4.5h3v4v3h125v-19zM50 189l3 16h118l-4 -20h-118zM514 256h-124l-4 18h127q0 -2 0.5 -3.5t0.5 -3.5v-11zM61 232l1 7h117l-3 -19h-120l3 12h2zM76 297l3 12h120v-1h-2l-4 -17h-118zM70 264
l2 10h116l-4 -18h-118l2 8h2zM465 410l5 -13h-128l-2 13q2 0 6 2h150l-2 -2h-29zM383 433q5 4 9 7.5t8 6.5h131l-14 -14h-134v0zM219 397h-117l3 15h117v-2zM115 447h115l-3 -14h-115zM120 468q0 1 2 9l1 4h120v-4h-5l-3 -9h-115v0zM568 539h-124q1 4 1 12h126v-8h-3v-4z
M532 477l5 -9h-119q3 3 5.5 6.5t4.5 6.5h120q0 -2 -0.5 -2.5t-0.5 -1.5h-15zM567 577l3 -3h-130q0 2 -2 8q-1 1 -2 1.5t-2 1.5h139l2 -4l2 -4h-10zM255 539h-119l4 12h123v-8h-7zM129 510l1 6h123q-1 -4 -5 -12h-120zM143 574q0 1 0.5 1.5t0.5 1.5l1 8h128v-8h-4
q-1 -1 -1 -3h-125v0zM440 510q0 2 0.5 3t0.5 3h106l9 -12h-119l1.5 3zM449 681h-135v1q5 0 11.5 0.5t13.5 1.5q11 1 22.5 1.5t21.5 0.5q20 0 35.5 -1t30.5 -3v-1zM235 681h-57l6 5q12 -2 25 -2.5t26 -1.5v-1zM202 -5q-8 0 -18.5 0.5t-19.5 1.5h79q-10 -1 -20.5 -1.5
t-20.5 -0.5z" />
    <glyph glyph-name="C" unicode="C" horiz-adv-x="667" 
d="M119 43q-14 9 -33 24h177q18 -6 37.5 -8.5t39.5 -2.5q36 0 72 11h144l-9 -24h-428v0zM174 11q-7 3 -16 8t-22 13h393q-26 -15 -59 -24h-292l-4 3v0zM293 654h447l-9 -9h-456zM72 93q-5 5 -7 8h138q1 -2 2 -2.5t3 -2.5h2q9 -11 25 -18h-155l-5 11q-2 2 -3 4zM48 134l-1 2
h129q2 -2 2.5 -4.5t2.5 -4.5l3 -2q2 -5 7 -11h-135q-5 7 -8.5 12t-4.5 7h5v1v0zM38 166q0 2 -1 4h127l3 -15l3 -1q0 -3 1 -5h-130l-5.5 11t-2.5 6h5v0zM32 199q-1 2 -1 6h128v-8t1 -12h-127q-3 9 -3 14h2v0zM29 239h129v-1q0 -2 0.5 -7.5t1.5 -10.5h-132q-1 4 -1 7v5h2v7z
M34 308v1h132q-1 -1 -1 -3v-1q0 -2 -0.5 -5t-0.5 -9h-135l1 6h3l2 11h-1zM29 274h131v-7q-1 -2 -1 -11h-130v18zM39 330l2 13h137v-1h-4l-5 -16h-131zM445 78q9 4 21 9.5t27 13.5h77l-9 -23h-116v0zM178 362h-133v1h2q0 11 1 10.5t2 1.5v1h-17l2 2h151v-2h-8l4 -5
q-1 -2 -1.5 -4t-1.5 -4zM193 402q-2 -4 -2 -5h-137q5 5 6 6.5t1 2.5v4h-1l1 2h135q-1 -1 -1 -2h-8l6 -8v0zM322 -17q-53 0 -107 14h214q-26 -5 -53.5 -9.5t-53.5 -4.5zM429 620q-8 -2 -18 -5t-18 -5h-177q5 3 8.5 5.5t6.5 4.5h198v0zM610 686q4 -1 9 -2.5t10 -2.5h-263
q6 3 11 3q5 1 11 2t12 3h198q3 -1 5.5 -1.5t6.5 -1.5zM207 435q0 -2 -1 -2h-134l6 11v1l1 2h139v-4h-17l6 -8v0zM228 477q-2 -2 -2.5 -4.5t-1.5 -4.5h-130l-1 2q1 2 1.5 3.5t1.5 3.5h-3l2 4h138q0 -1 -0.5 -2t-0.5 -2h-4v0zM261 543l1 -4h-123l4 4h-12q3 2 5.5 4t5.5 4h150
q-2 -2 -4.5 -4t-4.5 -4h-22zM293 577l1 -3h-122q2 1 4 3h-14q7 3 13 8h165l-6 -4t-11 -4h-30zM534 620h184l-10 -10h-140l-7 1q-4 2 -8 3t-8 3zM235 510l3 -6h-126l5 6h-6q0 1 1 2l4 4h141q-2 -4 -4 -6h-18zM513 114q9 5 19.5 11t19.5 11h19l1 -22h-59v0zM608 581q-3 0 -6 4
h86q-4 -8 -6 -11h-65l-3 5l-6 2v0zM633 551h39q-2 -6 -2 -8h-31z" />
    <glyph glyph-name="D" unicode="D" horiz-adv-x="778" 
d="M523 67q-14 -8 -25 -14.5t-19 -9.5h-469q2 7 4 13t4 11h505v0zM455 32q-19 -7 -37.5 -13t-37.5 -11h-377q0 2 2.5 9t4.5 15h445v0zM710 610h-557l1 10h539zM163 645q1 2 1.5 4.5t1.5 4.5h468l16 -9h-487v0zM581 101q-11 -7 -20.5 -12.5t-18.5 -10.5h-201v1q17 3 33.5 8.5
t32.5 13.5h174v0zM611 133q-2 -2 -8.5 -7.5t-14.5 -11.5h-155q6 3 12.5 7t15.5 12h13l-1 3h136l-3 -3h5v0zM622 149h-142q5 5 9.5 9t9.5 8h3l-1 2l1 2h135l-2 -4h5zM22 78q2 8 3.5 13t3.5 10h124q0 -4 -1 -9t-3 -14h-127v0zM660 199q-3 -4 -5.5 -7.5t-4.5 -6.5h-136
q2 2 4 5.5t5 8.5h11l-3 6h133q-2 -2 -4 -6zM30 114q6 13 9 22h121q0 -2 -0.5 -2.5t-0.5 -1.5q-2 -3 -3.5 -8t-1.5 -10h-124v0zM683 232q-2 -2 -4 -5t-5 -7h-136q2 4 4 7t4 5h4l-2 4q1 1 2 3h132l-3 -7h4v0zM167 168q-1 -2 -2.5 -8t-3.5 -11h-118l6 21h118v-2v0zM698 274
q-2 -6 -3.5 -10t-3.5 -8h-136q1 2 1 4t1 4h5l4 10h132v0zM705 291h-133l3 6h5l-3 6l1.5 3l1.5 3h134v-1h-2zM54 189l3 16h118l-3 -20h-119zM66 232l1 7h116l-3 -19h-119l3 12h2zM718 326h-132l2 4h3l-3 4q1 1 1 3.5t1 5.5h137v-1h-6l-2 -12h1zM728 366q0 -1 -0.5 -2t-0.5 -2
h-131q0 2 -0.5 4t1.5 6q0 3 1 6h135v-2h-2q-2 -6 -2 -7q-1 -2 -1 -3zM84 309h119v-1h-2l-4 -17h-118zM74 264l2 10h116l-3 -18h-119l2 8h2zM90 330l3 13h118v-1h-2l-3 -16h-118l1 4h1zM734 397h-131q1 1 1 4v4t1 7h132l-3 -11v-4zM215 362h-117l3 16h119v-2h-2zM716 577
q0 -1 0.5 -1.5t0.5 -1.5h-154l-3 3l-5 2q-2 1 -3.5 2t-3.5 2l-4 2h174l8 -8h-10v0zM739 443q-1 -4 -1 -10h-130q0 2 0.5 4t0.5 6v4h131v-4h-1v0zM224 397h-118l3 15h117v-2zM739 468h-130v13h129v-4h-6zM729 543v-4h-135v8l-6 4h139zM119 447h116l-3 -14h-116zM601 516h136
v-12h-133zM124 468q0 1 2 9l1 4h120v-4h-3l-3 -9h-117v0zM134 543q1 2 1.5 4t1.5 4h131q-2 -3 -2.5 -6t-2.5 -6h-123l1 4h-7v0zM135 516h123q-1 -1 -1 -2v-4h-2l-3 -6h-120zM147 574q0 2 0.5 5t0.5 6h125l-3 -11h-123v0zM540 681h-165v1q10 0 18.5 0.5t19.5 1.5q15 1 30 1.5
t29 0.5q20 0 36.5 -1t31.5 -3v-1zM262 681h-79l6 5q17 -2 36 -2.5t37 -1.5v-1zM277 -5q-15 0 -30 0.5t-29 1.5h101q-9 -1 -21 -1.5t-21 -0.5z" />
    <glyph glyph-name="E" unicode="E" horiz-adv-x="500" 
d="M13 67h374l4 -5q-2 -3 -4 -7t-4 -12h-376q1 4 2.5 8.5t5.5 11.5l-2 3v1zM3 31v1h378l-3 -18q0 -4 -1 -6h-362v7zM432 326h-349l1 4h1l2 13h347v-1h-2v-16zM439 368q-2 -2 -2 -6h-345l4 16h336l7 -10v0zM148 620h377v-10h-377v10zM535 654q1 -2 1 -9h-379l3 9h375v0z
M139 78h-123q4 10 7 23h121v-2zM149 124q-2 -6 -2 -10h-120l7 18l-1 2l1 2h118l-3 -12v0zM157 149h-120l6 21h118l-1 -4h1l-2 -4zM169 198q0 -2 -0.5 -5.5t-0.5 -7.5h-120l1 4l3 16h118l-1 -7v0zM60 232l1 7h116l-2 -19h-120l3 12h2zM192 291h-119l2 6h2l2 12h121v-1h-4z
M68 264l2 10h117l-4 -18h-118l2 8h1zM104 412h118l-3 -15h-118zM114 447h115l-3 -14h-116zM234 468h-115q1 2 1 9l1 4h121v-4h-5zM252 539h-117l3 12h122v-8h-7zM243 504h-117l3 12h117l-1 -6h-2v-6zM255 577l2 -3h-116q1 2 1.5 4.5t2.5 6.5h126l-1 -8h-15zM379 78h-154v1
q42 0 79.5 3t65.5 8zM271 681h-95l6 5q21 -2 44 -2.5t45 -1.5v-1zM428 682q22 1 44.5 1.5t45.5 2.5l2 -5h-92v1v0zM358 -5q-7 1 -13 1.5t-12 0.5h30l-5 -2v0zM57 -3q-10 0 -21.5 -0.5t-20.5 0.5h42v0zM432 308q-7 0 -11 1h11v-1v0z" />
    <glyph glyph-name="F" unicode="F" horiz-adv-x="500" 
d="M85 330l3 13h358v-1h-1v-16h-362l1 4h1zM452 368l-2 -6h-358l4 16h349l7 -10v0zM148 620h390v-10h-391zM547 654q1 -2 1 -9h-390l3 9h386v0zM13 67h128q-2 -6 -3 -11.5t-3 -12.5h-128q1 4 2.5 8.5t5.5 11.5l-2 3v1zM4 31v1h136l-10 -19v-5h-111v3zM17 78q2 6 3 11.5
t3 11.5h124q-1 -5 -1.5 -10.5t-1.5 -12.5h-127v0zM34 134l1 2h119v-3h1q-2 -5 -3 -9.5t-2 -9.5h-122l7 18l-1 2v0zM159 149h-121l6 21h118v-4h1l-3 -13zM49 189l3 16h118l-4 -20h-118zM60 232l1 7h117l-3 -19h-120l3 12h2zM75 297l3 12h118v-1l-4 -17h-118zM69 264l2 10h116
l-4 -18h-118l2 8h2zM104 412h117l-3 -15h-117zM227 433h-116l3 14h115l-1 -4h-1v-8v-2zM119 468q0 1 2 9l1 4h119v-4h-5l-2 -9h-115v0zM128 543q1 4 4 8h123l-3 -12h-117l1 4h-8v0zM242 504h-115l1 6l1 6h117l-1 -6h-2zM261 574h-119q0 2 0.5 5t0.5 6h124v-8h-5zM429 682
q23 1 48.5 1.5t52.5 2.5l2 -5h-103v1v0zM271 681h-95l6 5q22 -2 44.5 -2.5t44.5 -1.5v-1zM105 -4q-2 0 -2.5 0.5t-1.5 0.5h6l-2 -1v0z" />
    <glyph glyph-name="G" unicode="G" horiz-adv-x="778" 
d="M381 61q17 0 37 1t40 5h180l-7 -24h-491l-4 1q-6 4 -9 7q-5 4 -11 7.5t-12 8.5h208q15 -4 32.5 -5t36.5 -1zM202 9q-17 5 -46 23h469v-1q-20 -6 -42 -12t-43 -11h-332l-6 1v0zM753 652q0 -1 3 -3t7 -4h-464v1q3 2 8 4l10 4h431l5 -2v0zM238 101q17 -14 41 -23h-178
q-1 0 -1 1l-2 1q-5 4 -12 16q-1 2 -1.5 2.5t-1.5 2.5h155v0zM209 133q4 -8 15 -19h-149q-3 5 -6 9.5t-6 9.5h4q-1 1 -1 1.5t-1 1.5h138l3 -3h3v0zM190 170q2 -5 4.5 -10.5t4.5 -10.5h-139q-2 4 -3 8t-3 9q0 2 -1 4h137v0zM641 78h-136q5 2 8.5 2.5t7.5 2.5l5 18h121z
M183 199q1 -4 1 -7.5t1 -6.5h-137l-2 6t-3 8h7q-1 1 -1 6h132q0 -3 1 -3v-3h1v0zM649 114h-120l3 9q1 7 3 10h1l1 3h116v-3h1zM180 229q0 -2 0.5 -4.5t0.5 -4.5h-132v2q-1 3 -1 7v9v1h131v-7h1v-3v0zM659 149h-118l2 10t1 7l1 4h118l-1 -4h1l-2 -4zM54 308v1h132l-3 -18
h-134l1 6h3zM553 199l1 6h117l-3 -20h-120l3 14h2zM49 264v10h130v-18h-131v8h1zM361 -17q-64 0 -123 14h250q-33 -6 -66.5 -10t-60.5 -4zM189 326h-132l1 4l3 13h136v-1h-3zM680 234q-2 -5 -3 -8.5t-2 -5.5h-117l3 12l1 7h117l2 -3q-1 0 -1 -2zM697 291h-127q0 2 0.5 3.5
t0.5 2.5h4q0 7 2 11v1h123l-3 -12h2zM687 264q-1 -1 -1 -8h-120l2 8q0 7 1 10h121l-3 -10v0zM577 620h225q3 -2 6 -3.5t5 -3.5q3 -2 5 -3h-206zM197 362h-132v1h2q0 3 1 6l2 6v3h136v-2h-4q-2 -5 -3 -8.5t-1 -4.5zM219 412q-2 -5 -3 -8.5t-3 -6.5h-130l-3 6q1 1 1 3
q0 1 -0.5 2.5t1.5 3.5h137v0zM659 686q5 -1 9 -2t11 -3h-277v1h-1l14 3.5t12 3.5h221q2 -1 5 -2t6 -1zM422 610h-179v3l11 7h209q-6 -2 -13 -3t-12 -3zM231 444q-2 -4 -3 -6.5t-2 -4.5h-124l-4 9q1 1 1 2t1 2l-3 -3q2 2 2 4h134q-1 -1 -1 -2t-1 -1zM245 468h-132l-1 2
q1 2 2 3.5t2 3.5h-3l3 4h137l-3 -4h-5v-9zM302 539h-142q2 3 8 9l3 3h145q-4 -3 -6 -5t-4 -3zM343 577q-1 -1 -2 -1.5t-2 -1.5h-144v1q2 2 3.5 2.5t3.5 2.5l5 5h158l-4 -2q-2 -1 -5.5 -3t-4.5 -3h-8v0zM270 504h-137l9 12h138q-2 -2 -2.5 -3.5t-1.5 -2.5h-1zM666 577
q-1 1 -4 2.5t-7 5.5h102q-2 -2 -3.5 -4.5t-2.5 -3.5h-11l2 -3h-69q0 1 -0.5 1.5t-0.5 1.5h-6v0zM704 326h-126v4h127zM697 543q-3 1 -7 8h52q-2 -2 -3 -4t-3 -4h-39v0z" />
    <glyph glyph-name="H" unicode="H" horiz-adv-x="778" 
d="M689 362h-590l3 16h592v-2h-2zM91 330l3 13h591v-1h-2l-3 -16h-118l1 4h1l2 12h-356l-3 -16h-118l1 4h1zM492 67h128q-2 -6 -3 -11.5t-3 -12.5h-127q0 4 1 8.5t5 11.5l-1 3v1zM19 67h128q-2 -6 -3 -11.5t-3 -12.5h-127q1 4 2 8.5t5 11.5l-2 3v1zM483 31v1h136l-9 -19v-5
h-112v3zM10 31v1h136l-9 -19v-5h-112v3zM23 78q4 10 7 23h124q-1 -5 -1.5 -10.5t-2.5 -12.5h-127v0zM496 78q4 10 7 23h123q-1 -5 -1.5 -10.5t-1.5 -12.5h-127v0zM40 134l1 2h119v-3h1q-2 -5 -2.5 -9.5t-2.5 -9.5h-122l7 18l-1 2v0zM513 134l1 2h119v-3h1q-2 -5 -3 -9.5
t-2 -9.5h-122l7 18l-1 2v0zM638 149h-121l6 21h119l-1 -4h2l-4 -13zM165 149h-121l6 21h119l-1 -4h2l-4 -13zM528 189l3 16h118l-3 -20h-119zM55 189l3 16h118l-3 -20h-119zM67 232l1 7h116l-3 -19h-119l3 12h2zM540 232l1 7h116l-3 -19h-119l3 12h2zM85 309h119v-1h-2
l-4 -17h-118zM558 309h119v-1h-2l-4 -17h-118zM75 264l2 10h116l-3 -18h-119l2 8h2zM548 264l2 10h116l-3 -18h-119l2 8h2zM225 397h-118l3 15h117v-2zM698 397h-118l3 15h117v-2zM120 447h116l-3 -14h-116zM593 447h116l-3 -14h-116zM241 468h-116q0 1 2 9l1 4h117l-1 -4
h-1zM598 468q0 1 2 9l1 4h117l-1 -4h-1l-2 -9h-116v0zM608 543q1 2 1.5 4t1.5 4h126l-2 -8h-1l-1 -4h-119l1 4h-7v0zM260 539h-119l1 4h-7q1 2 1.5 4t1.5 4h126l-2 -8h-1zM250 504h-117l3 12h119l-1 -6h-2zM609 516h119l-1 -6h-2l-2 -6h-117zM148 574q0 2 0.5 5t0.5 6h126
l-4 -11h-123v0zM621 574q0 2 0.5 5t0.5 6h126l-4 -11h-123v0zM627 620h135l-1 -10h-135zM153 610l1 10h135l-1 -10h-135zM293 645h-129q1 2 1.5 4.5t1.5 4.5h128l-1 -4zM766 645h-129q1 2 1.5 4.5t1.5 4.5h128l-1 -4zM725 682q5 1 11.5 1.5t13.5 2.5l6 -5h-31v1v0zM252 682
q5 1 11.5 1.5t13.5 2.5l6 -5h-31v1v0zM215 681h-28l5 4q2 -1 8.5 -1.5t14.5 -1.5v-1zM688 681h-28l5 4q2 -1 8.5 -1.5t14.5 -1.5v-1zM584 -4q-2 0 -2.5 0.5t-1.5 0.5h6l-2 -1v0zM111 -4q-2 0 -2.5 0.5t-1.5 0.5h6l-2 -1v0z" />
    <glyph glyph-name="I" unicode="I" horiz-adv-x="278" 
d="M6 67h128q-2 -6 -3 -11.5t-3 -12.5h-128q1 4 2.5 8.5t5.5 11.5l-2 3v1zM-4 31v1h136l-9 -19v-5h-112v3zM9 78q4 10 7 23h124q-1 -5 -1.5 -10.5t-2.5 -12.5h-127v0zM27 136h120v-3h1q-2 -5 -3 -9.5t-2 -9.5h-123l7 18v2v2zM151 149h-121l6 21h119l-1 -4h2l-4 -13zM42 189
l3 16h118l-4 -20h-118zM53 232l1 7h116l-2 -19h-120l3 12h2zM68 297l3 12h119v-1h-2l-3 -17h-119zM62 264l1 10h117l-4 -18h-118l2 8h2zM78 330l2 13h119v-1h-2l-4 -16h-117l1 4h1zM202 362h-117l4 16h118v-2h-2zM211 397h-117l3 15h117v-2zM107 447h115l-3 -14h-116z
M112 468q0 1 2 9l1 4h117l-1 -4h-1l-3 -9h-115v0zM121 543l2 4l2 4h126l-2 -8h-1l-1 -4h-119l1 4h-8v0zM121 510l1 6h119l-1 -6h-2l-1 -6h-117zM134 574q0 2 0.5 5t0.5 6h126l-3 -11h-124v0zM141 620h134l-1 -10h-134zM279 645h-128q0 3 2 9h128l-1 -4zM238 682q5 1 12 1.5
t13 2.5l6 -5h-31v1v0zM202 681h-29l6 4q3 -1 23 -3v-1zM97 -4q-1 0 -1.5 0.5t-1.5 0.5h5l-2 -1v0z" />
    <glyph glyph-name="J" unicode="J" horiz-adv-x="278" 
d="M20 -97q-1 0 -3 -2h-150l-1 27h12h175q-7 -6 -14 -11.5t-15 -10.5h-5l1 -3v0zM64 -62q-1 0 -1 -1h-131q1 1 2 1v1q11 5 18.5 11t14.5 13h121q-5 -5 -10 -10.5t-11 -12.5h-5l2 -2v0zM9 43q9 16 12 24h126l-11 -24h-127v0zM96 -27l-1 -1h-120q10 13 16 25h121l-15 -23h-2
l1 -1v0zM129 29q-2 -2 -5 -10.5t-5 -10.5h-121q2 4 4 9.5t6 14.5h122l-1 -3v0zM24 78q2 4 5 12t4 11h120l-4 -23h-125v0zM-72 -132q-2 -1 -5 -1t-6 -1h-47l11 7h-14v21h138q-23 -12 -52 -21h-25v-5v0zM42 133v3h121l-4 -22h-123q2 5 3 10.5t2 8.5h1zM165 149h-125l7 21h122
l-1 -4h1zM174 185h-122l5 14l1 6h119v-6h1l-4 -13v-1zM185 234q-1 -2 -2 -5.5t-3 -8.5h-118l3 12h1l1 7h119q0 -2 -0.5 -2.5t-0.5 -1.5v-1v0zM195 264q-2 -6 -3 -8h-121l2 8h1l2 10h119l-2 -10h2v0zM199 291h-120l2 6h2l2 11h-1v1h119v-1h-1zM207 326h-118l1 3v1l3 13h119
v-1h-1zM215 362h-117l4 16h118v-2h-2zM110 412h117l-3 -15h-117zM232 433h-116l4 14h116zM240 468h-113l-1 2v11h120l-1 -4h-2zM134 543q1 2 1.5 4t1.5 4h127l-3 -12h-119l1 4h-9v0zM251 504h-118l3 12h119l-1 -6h-2zM270 574h-123v3h-1l2 5v3h128q1 -2 1 -8h-6zM287 610
h-130l3 10h129q0 -3 -1 -4zM292 645h-129q0 3 3 9h128l-1 -4zM251 682q5 1 11.5 1.5t13.5 2.5l6 -5h-31v1v0zM214 681h-28l6 4q2 -1 8 -1.5t14 -1.5v-1z" />
    <glyph glyph-name="K" unicode="K" horiz-adv-x="611" 
d="M78 297l3 12h263q0 -1 1 -1h-3l8 -11h2q0 -2 2 -6h-141l-10 17h-4l-4 -17h-118zM88 330l3 13h241q0 -1 1 -1h-11q3 -5 9 -12h1q0 -3 1 -4h-247l1 4h1zM363 32h153l5 -9l10 -15h-155q-1 2 -5 10.5t-6 10.5zM346 62q-1 0 -3 5h150l16 -24h-151l-2 4l-1 1q-4 5 -5.5 8
t-3.5 6zM329 93q-3 1 -6 8h150q6 -10 16 -23h-151q-1 2 -1.5 2.5t-1.5 2.5l-1 1q-1 2 -2.5 4.5t-2.5 4.5zM301 376q1 -2 4 -5.5t8 -8.5h-218l4 16h217q-2 -2 -4 -2h-11v0zM221 397q5 4 9 7.5t8 7.5h118l-2 -2h-24l5 -13h-231l3 15h117v-2l-3 -13v0zM311 124q-4 3 -7 12h144
l2 -3h4q2 -5 4.5 -9.5t6.5 -9.5h-149q-1 1 -1 2t-1 2q-3 4 -3 6zM8 43q2 7 4 13t4 11h128q-2 -6 -3 -11.5t-3 -12.5h-130v0zM292 158q0 -2 -1 -0.5t-6 12.5h145q6 -11 13 -21h-146l-5 9v0zM7 32h136l-10 -19v-5h-129l12 11l-9 12v1zM271 193q-2 2 -3 4.5t-4 7.5h144
q3 -4 7 -9t9 -11h-148q-4 3 -5 8zM20 78q5 16 6 23h124q-1 -4 -1 -9t-2 -14h-127v0zM252 229q-3 2 -11 10h144q3 -5 6.5 -9.5t8.5 -9.5h-146q-2 2 -2.5 5t-1.5 5l1 -1q0 -1 0.5 -1.5t0.5 -1.5v3v0zM28 114q6 13 9 22h120l-5 -22h-124v0zM224 274h140q2 -4 5.5 -8.5t7.5 -9.5
h-153q-5 5 -7 8h14zM162 149h-121l6 21h119l-1 -4h1l-2 -8zM55 199l1 6h117l-4 -20h-118zM63 232l1 7h117l-3 -19h-119l2 12h2zM72 264l2 10h116l-4 -18h-118l2 8h2zM283 447h116q0 -1 -1 -1l-16 -13h-117zM117 447h115l-3 -14h-116zM237 468h-115q0 1 2 9l1 4h117l-1 -4h-1
zM515 539h-112l-1 4h-13q2 2 5 4t7 4h132q-3 -2 -9 -5l-1 -1zM257 539h-119l1 4h-8q1 2 1.5 4t1.5 4h127l-2 -8h-1zM247 504h-117l1 6l1 6h120l-1 -6h-2zM470 504h-114q5 4 7.5 7t3.5 4l1 1h119l-7 -6h-2zM145 574q0 2 0.5 5t0.5 6h125l-3 -11h-123v0zM534 577l1 -3h-102
q2 1 2.5 1.5t2.5 1.5h-3q3 2 5.5 4t5.5 4h132l-6 -4t-5 -4h-33zM150 610l1 10h135l-1 -10h-135zM478 610l7.5 6t4.5 4h135l-13 -10h-134zM409 477l3 -9h-103l17 13h116l-5 -4h-28zM668 652q-1 -1 -3.5 -3t-4.5 -4h-141q3 3 11 9h141q-1 -1 -1.5 -1t-1.5 -1zM289 645h-128
q1 2 1.5 4.5t1.5 4.5h127l-1 -4zM249 682q5 1 11.5 1.5t12.5 2.5l6 -5h-30v1v0zM629 682q6 1 11.5 1.5t13.5 2.5l2 -5h-27v1v0zM598 681h-34l15 4q1 0 6 -1t13 -2v-1zM212 681h-29l6 4q3 -1 23 -3v-1zM25 -4q-1 0 -6 -0.5t-12 -0.5h-17l2 2h37q-3 0 -4 -1zM398 -4
q-1 0 -1.5 -0.5t-1.5 -0.5v2h8q-3 0 -5 -1zM108 -4q-2 0 -2.5 0.5t-1.5 0.5h6l-2 -1v0zM499 -4q-2 0 -2 0.5t-2 0.5h5l-1 -1v0zM214 367v7q1 -2 0.5 -3.5t-0.5 -3.5zM436 159h-2q0 2 2 0z" />
    <glyph glyph-name="L" unicode="L" horiz-adv-x="500" 
d="M9 67h387l-11 -23v-1h-381q0 7 7 20l-2 3v1zM0 31v1h383q-1 -5 -1 -10.5v-13.5h-367v3zM137 78h-124q4 10 7 23h123v-2zM145 114h-121l7 18l-1 2l1 2h120q-1 -1 -1 -3v-1q-1 -1 -1 -1.5t-1 -1.5zM155 149h-121l6 21h119l-1 -4h2q-1 -1 -1.5 -5.5t-2.5 -9.5zM45 189l3 16
h119l-4 -20h-119zM56 232l1 7h117l-3 -19h-119l3 12h1zM65 264l2 10h117l-4 -18h-119l2 8h2zM188 291h-118l5 18h119v-1h-2zM197 326h-118l1 4h1l3 13h118v-1h-2zM206 362h-117l3 16h119v-2h-2zM215 397h-118l3 15h117v-2zM110 447h116l-3 -14h-116zM231 468h-116q0 1 2 9
l1 4h117l-1 -4h-1zM250 539h-119l1 4h-7q1 2 1.5 4t1.5 4h126l-2 -8h-1zM240 504h-117l3 12h119l-1 -6h-2zM138 574q0 2 0.5 5t0.5 6h125l-3 -11h-123v0zM143 610l1 10h135l-1 -10h-135zM402 78h-173v1q32 0 77 4t104 12zM283 645h-129q1 2 1.5 4.5t1.5 4.5h128l-1 -4z
M242 682q5 1 11.5 1.5t12.5 2.5l6 -5h-30v1v0zM205 681h-28l5 4q2 -1 8.5 -1.5t14.5 -1.5v-1zM15 -3h28q-6 0 -11.5 -0.5t-11.5 -1.5zM361 -5q-7 1 -13 1.5t-13 0.5h31l-5 -2v0z" />
    <glyph glyph-name="M" unicode="M" horiz-adv-x="889" 
d="M507 203q-6 -9 -13 -18h-216l-6 20h133q0 -3 1 -4q4 2 5 4h95l1 -2v0zM473 157q-2 -2 -2.5 -3.5t-3.5 -4.5h-174v3l-2 2q-1 2 -1 5t-1 6v-1q-2 2 -2 6h195l1 -2q-2 -2 -5 -5.5t-5 -5.5zM458 136q-3 -4 -7.5 -10.5t-8.5 -11.5h-141q-1 5 -2 9.5t-2 7.5q-1 1 -1 2t-1 3h163
v0zM636 67h125l-3 -24h-126q1 2 2 8.5t2 11.5v1v3zM688 433h-84l-4 9q2 2 2.5 3t2.5 2h208v-4h-7l4 -5q-1 -1 -1 -5h-116q0 4 1 6zM765 101l-2 -16v-7h-126q1 5 1.5 10.5t2.5 12.5h124zM629 32h127l-2 -18l-1 -6h-113l3 5l-14 13v6zM337 447q1 -4 1.5 -7t1.5 -7h-123v9
q-2 -3 -4 -9h-81q0 4 5 14h200v0zM647 136h121v-22h-125q1 5 1.5 10.5t0.5 8.5h2v3zM423 89l-2.5 -5t-3.5 -6h-108q0 2 -0.5 4.5t-0.5 5.5q-1 2 -1.5 5t-2.5 8h127q-3 -5 -5 -8t-3 -4zM652 163q0 1 0.5 2.5t0.5 4.5h120l-3 -21h-120q1 2 1.5 5.5t1.5 6.5l-1 2v0zM396 239
q2 -5 2.5 -9.5t2.5 -9.5h-134l-3 12h8q-2 2 -3 7h127v0zM813 468h-184l-2 7l4 6h187v-4h-5v-9zM-13 65l1 2h98q-1 -3 -2.5 -8.5t-3.5 -10.5q-2 -4 -2 -5h-101q2 5 4.5 10t5.5 12zM329 477l1 -9h-184l-1 2q2 4 3 7l2 4h178zM658 205h119q0 -2 -0.5 -3t-0.5 -3h1l-2 -14h-118
q1 3 3 11l-2 3v6zM74 26q-3 -8 -3.5 -8.5t0.5 2.5q-1 -1 -1 -2v-4l-2 -1q0 -2 -1 -3t-1 -2h-94l5 20l-3 4h100q-1 -4 -2 -7t-1 -5q1 4 3 6zM392 264q0 -6 1 -8h-129l-4 18h125l2 -10h5v0zM0 100v1h98l-4 -11v-6.5t-1 -5.5h-101v1q2 2 4 9t4 11v1zM381 297l1 -6h-126l-5 18
h128q0 -1 1 -1h-4l2 -11h3zM663 239h119q0 -2 -1 -6.5t-3 -11.5v-1h-117q0 3 0.5 5.5t1.5 6.5v1v6zM367 343q1 -8 5 -17h-127q-1 4 -3 16h-5v1h130v0zM15 133v3h93q-1 -5 -2.5 -11t-2.5 -11h-98l7 19h3zM674 297q0 2 -0.5 4t1.5 5v3h116q0 -3 -0.5 -6t-0.5 -6h5q-1 -2 -1 -3
t-1 -3h-120l1 6v0zM785 270v-5t-2 -9h-117l4 18h116q-1 -3 -1 -4zM392 45q0 -1 -0.5 -1t-0.5 -1h-73l-6 23v1h97l-15 -20zM818 504h-169l9 12h164v-6h-4v-6zM356 377q1 -2 1.5 -6t2.5 -9h-124q-1 2 -1 3.5t-1 3.5q-1 1 -1 3v6h123v-1v0zM680 333q0 5 1 10h114v-13
q0 -2 -0.5 -2.5t-0.5 -1.5h-118v4h3q0 1 0.5 1.5t0.5 1.5zM18 149q2 5 4.5 10.5t3.5 6.5l2 4h91q-2 -5 -3.5 -10.5t-3.5 -10.5h-94v0zM156 510q0 1 1 2l2 4h159l3 -12h-164l1.5 3l1.5 3h-4v0zM31 185q2 5 4.5 10t4.5 10h92q0 -2 -1 -3.5t-1 -2.5h2q-2 -4 -3.5 -7.5
t-3.5 -6.5h-94v0zM524 224q-1 -1 -1 -2t-1 -2h-99q3 4 6.5 9t8.5 10h91l3 -5q-2 -3 -4 -5.5t-4 -4.5zM346 412q2 -4 2 -7.5t1 -7.5h-122q-2 6 -3 15h122v0zM684 378h116v-2q-1 -4 -1 -7.5t-1 -6.5h-111l-3 5v2v9zM449 256q8 8 12.5 12t6.5 6h95l-13 -18h-101v0zM689 412h118
l-3 -15h-116q0 1 -0.5 2.5t1.5 4.5v8zM822 539h-145l9 12h140v-8h-4v-4zM576 291h-95l5 6l8 11h-6l1 1h101l-1 -1h-1q-6 -8 -8 -11h1zM53 236q0 1 0.5 1.5t0.5 1.5h87q-2 -5 -3 -10t-2 -9h-90q2 4 4 12h5l-2 4v0zM312 543v-4h-141l2 4l3 8h135l2 -8h-1zM66 264l2 10h87
q-2 -5 -3.5 -9t-3.5 -9h-86q1 2 3 8h1zM607 330q-1 -1 -1.5 -2t-2.5 -2h-98q5 5 9 9.5t7 7.5h94l-1 -1h-13l6 -12v0zM161 291h-84l6 18h89v-1h-10l4 -5q-1 -2 -1 -3t-1 -3zM96 343h86q-2 -5 -3.5 -9t-2.5 -8h-88l2 4h7l-3 6q1 2 1 3t1 2v2zM566 397q3 5 5.5 9t4.5 6h97
l-13 -15h-94v0zM642 376q-3 -4 -5.5 -7.5t-5.5 -6.5h-79l-5 13l3 3h94l-1 -2h-1v0zM302 577q0 -1 0.5 -1.5t0.5 -1.5h-119q0 2 1 3h-9q2 2 3 4l2 4h121l3 -8h-3v0zM829 577q0 -1 -0.5 -1.5t-0.5 -1.5h-122v1l8 10h117v-8h-2v0zM107 371q0 -1 2 7h81q-1 -5 -1 -9t-1 -7h-76
l-5 9v0zM119 400q1 2 1 5.5t2 6.5h85q0 -1 -1 -2h-2q-2 -4 -2.5 -7.5t-2.5 -5.5h-79l-1 3v0zM321 32h62l-4 -6q-2 -2 -7 -9t-7 -9h-38zM838 620q-1 -4 -3 -10h-102l3 3t6 7h96v0zM290 611l1 -1h-95q2 3 3 5.5t2 4.5h89v-9zM840 654q-1 -3 -0.5 -5t0.5 -4h-79q1 1 2 3l3 6h74
v0zM281 654q2 -3 4 -9h-77v9h73v0zM848 689q-1 -2 -1 -4t-1 -4h-57q2 2 3.5 4t3.5 4h52v0zM274 689q2 -6 3 -8h-53q2 2 3.5 4t3.5 4h43v0zM628 -12l5 9h23zM46 -4q-2 0 -2.5 0.5t0.5 0.5h3l-1 -1v0zM13 131h1h-1z" />
    <glyph glyph-name="N" unicode="N" horiz-adv-x="778" 
d="M417 199q-3 3 -5 6h231l-4 -20h-219q-2 3 -5 6.5t-6 7.5h8v0zM630 149h-182q-3 4 -6.5 8.5t-9.5 12.5h202q0 -2 -0.5 -2.5t-0.5 -1.5h2zM621 114h-151v1q-6 6 -14 21h171l-1 -3h1zM547 239q3 -5 6.5 -9.5t8.5 -9.5h-161q-2 3 -5.5 7.5t-7.5 11.5h159v0zM617 98
q-2 -5 -2.5 -10t-1.5 -10h-121v1l-3 4q-3 3 -5 7q-1 2 -2 3q-4 4 -6 8h142l-1 -3v0zM521 274q6 -8 15 -18h-160q-2 2 -2 3l-10 15h157v0zM498 308l5 -7.5t8 -9.5h-158l-4 6l-9 12h160q0 -1 1 -1h-3v0zM473 342q2 -3 5.5 -7t7.5 -9h-158q-2 3 -5.5 7t-8.5 10h160q0 -1 1 -1
h-2v0zM362 504h-214l3 12h206q1 -2 5 -6h-3zM451 376q2 -3 4.5 -6.5t4.5 -7.5h-156q-2 2 -4.5 5.5t-5.5 10.5h159l2 -2h-4v0zM611 67q-1 -6 -2 -11.5t-2 -12.5h-92l-15 24h111v0zM24 65l1 2h98q-1 -4 -2 -10t-2 -14h-103q4 8 7 17q0 1 0.5 2.5t0.5 2.5zM429 410
q2 -3 4.5 -6.5t4.5 -6.5h-158q-2 6 -6 15h160q2 -2 3 -2h-8v0zM16 32h101q-2 -9 -3 -15.5t-1 -8.5h-87v7zM34 100v1h97l-7 -23h-96q2 5 3.5 10.5t3.5 9.5zM337 543l2 -4h-183l1 4l2 8h180q6 -8 8 -8h-10v0zM405 443q4 -6 8 -10h-158q-2 3 -4 6.5t-4 7.5h157q1 -2 2 -2.5
t2 -1.5h-3v0zM43 127q0 2 2 6l1 3h91l-3 -12q-1 -4 -3 -10h-93l5 13v0zM379 481q2 -3 4.5 -6.5t5.5 -6.5h-156q-3 3 -6 9l-4 4h156v0zM55 166l1 4h89l-1 -4h2l-4 -13l-1 -4h-91q1 5 1.5 10t1.5 7h2zM57 185q4 8 5.5 12.5t3.5 7.5h87l-4 -20h-92v0zM522 32h79l-6 -24h-58
q-1 1 -3 5zM309 585q4 -8 6 -9q0 -2 2 -2h-151l1 3h-4l2 8h144v0zM76 236v3h84q-3 -11 -3 -19h-86q2 4 3 7.5t2 4.5h2l-2 4v0zM571 232l1 7h79l-3 -19h-81l3 12h1zM93 308v1h89v-1h-5l-3 -17h-84l1 6h3q0 6 3 11h-4zM82 256l1 1l3 17h83l-2 -10h1q-1 -2 -1 -2.5t-1 -2.5
l-1 -3h-83v0zM579 264l2 10h79l-4 -18h-80l2 8h1zM665 291h-81l2 6h2l2 12h80v-1h-2zM100 326q2 4 3 8t3 9h82v-1h-3l-1 -12l-1 -4h-83v0zM673 326h-80l1 4h4l-2 3q0 1 0.5 2t0.5 3v5h82v-1h-2zM682 362h-80l4 16h81v-2h-2zM191 362h-80l4 16h81v-2h-2zM124 412h80l-3 -15
h-80zM694 402q-2 -4 -2 -5h-81l3 15h85v-2h-11l6 -8v0zM624 447h82l-5 -14h-81zM292 610h-118l1 10h107q0 -2 1 -2l7 -4zM208 433h-78l4 14h79l-1 -4h-2zM710 468h-81l3 13h87v-4h-6zM724 504h-87l2 6h-1l1 6h91q-1 -1 -1 -2v-4h-2zM723 543l3 -4h-81l1 4h-1l2 8h92v-8h-16z
M218 468h-79l3 13h81l-1 -4h-1zM748 577q-1 -1 -1 -1.5t-1 -1.5h-92l3 11h94q0 -2 -0.5 -2.5t-0.5 -1.5v-4h-2v0zM763 620q-1 -2 -2 -4.5t-3 -5.5h-99q0 2 0.5 5t0.5 5h103v0zM667 645q1 2 1.5 4t2.5 5h98l-3 -9h-99v0zM266 648q0 -1 2 -3h-89l1 9h81q2 -2 3 -4t2 -2z
M549 -17q-3 7 -4 9.5t-2 4.5h50q-3 -11 -3 -14h-41zM244 688q0 -3 2 -7h-56q0 2 2 8h26l26 -1v0zM739 683q2 0 10 2l5 -4h-16q0 1 1 2zM699 685q4 -2 14 -4h-20l6 4v0z" />
    <glyph glyph-name="O" unicode="O" horiz-adv-x="833" 
d="M608 67q-11 -8 -21.5 -14.5t-15.5 -9.5h-450q-10 5 -19.5 11.5t-19.5 12.5h181q19 -6 38 -8.5t41 -2.5q20 0 40.5 2.5t42.5 8.5h183v0zM550 32q-14 -8 -29.5 -14t-30.5 -10h-304q-8 2 -20 8.5t-27 15.5h411v0zM658 101q-4 -2 -13 -8.5t-21 -14.5h-169q11 4 23 10t25 13
h155v0zM284 649q2 1 4.5 2t5.5 3h392l15 -9h-425zM76 91q-2 2 -4 4.5t-4 5.5h138q1 -2 4 -5h2q9 -11 25 -18h-154l-5 11zM688 133q-7 -5 -12 -10t-11 -9h-144q9 6 22 19h11l-1 3h133l-3 -3h5v0zM52 133q-1 1 -1 1.5t-1 1.5h129q2 -6 4 -8h1q2 -2 3.5 -4.5t3.5 -4.5
q1 -2 1.5 -2.5t1.5 -2.5h-135q-5 7 -8.5 12t-4.5 7h6v0zM713 166q-2 -2 -6 -6.5t-10 -10.5h-138q4 4 7.5 8t8.5 9h9l-2 4h131l-2 -4h2v0zM41 166q-1 1 -1 4h127q1 -4 1 -7.5t1 -7.5l3 -1q0 -3 1 -5h-128q-2 4 -3 8t-3 9h2v0zM736 205q-4 -5 -7 -10.5t-5 -9.5h-134q2 3 4 6.5
t4 7.5h9l-2 6h131v0zM34 199q-1 2 -1 6h128v-8t1 -12h-126q-2 5 -3 8.5t-1 5.5h2v0zM748 225q-1 -1 -3 -5h-134l6 12h3v1q0 2 2 6h133l-7 -14v0zM31 239h129v-1q0 -2 0.5 -7.5t1.5 -10.5h-132q-1 4 -1 7v5h2v7zM763 256h-134l4 8l4 10h132l-4 -10h2zM776 291h-133l3 6h1
q0 3 3 11v1h136v-1h-4zM34 308v1h134v-4q-1 -2 -1.5 -5t-0.5 -9h-135l1 6h3l2 11h-3zM31 274h131v-7q-1 -2 -1 -11h-130v18zM788 326h-133l5 15l22 2h113v-1h-3l-4 -12h2zM49 342v1h131v-1h-5l-4 -16h-132l1 1l1 3l4 11l14 1h-10zM332 -17q-57 0 -113 14h233
q-62 -14 -120 -14zM35 376l2 2h151v-2h-8l4 -5q-1 -2 -1.5 -4t-1.5 -4q0 -1 -1 -1h-131q0 12 1 11.5t2 1.5v1h-17zM796 364q0 -1 -0.5 -1t-0.5 -1h-131q0 1 0.5 2t0.5 3t0.5 4t1.5 7h133v-2h-3q0 -5 -0.5 -7.5t-0.5 -4.5zM63 410l1 2h134q-1 -1 -1 -2h-8l6 -8q-2 -4 -2 -5
h-137q5 5 6 6.5t1 2.5v4zM801 397h-130v6.5t1 8.5h132l-3 -11v-4zM548 620h196l17 -10h-179zM228 617q1 1 2 1.5t2 1.5h199q-9 -2 -18.5 -5t-17.5 -5h-172v3q-2 -1 0.5 0.5t4.5 3.5zM80 445l1 2h140v-4h-18l6 -8q0 -2 -1 -2h-134l6 11v1zM803 433h-129v1v13h138q1 -2 3 -4
h-12v-10zM598 689q10 -4 27 -8h-257q18 5 32 8h198v0zM95 477l2 4h138q0 -1 -0.5 -2t-0.5 -2h-4q-2 -2 -2.5 -4.5t-1.5 -4.5h-130l-1 2q1 2 2 3.5t1 3.5h-3zM133 543q3 2 5.5 4t5.5 4h150q-2 -2 -4.5 -4t-4.5 -4h-23l2 -4h-123l4 4h-12v0zM801 474q0 -2 0.5 -3t0.5 -3h-127
v13h127l1 -4h-5l3 -3v0zM113 510q0 1 1 2l4 4h142l-3 -6h-19l3 -6h-127l5 6h-6v0zM174 574q5 4 8 6.5t5 4.5h154l-6 -3l-5 -5h-35l1 -3h-122v0zM784 543l2 -4h-127q-1 2 -1 4t-1 5l-7 3h134l6 -8h-6v0zM767 577q0 -1 2 -3h-132q0 1 -0.5 1.5t-0.5 2.5l-5 1q-6 2 -9 6h146
l8 -8h-9v0zM795 510l1 -6h-126v12h126q1 -6 3 -6h-4z" />
    <glyph glyph-name="P" unicode="P" 
d="M429 326h-345l1 4h1l3 13h371q0 -1 -1 -1h-34zM343 362l-3 14q2 0 4 2h161l-2 -2h-21l3 -14h-391l3 16h119v-2h-2l-3 -14h132zM308 292q-3 -1 -8 -1h-225l2 6h2l2 12h303q-2 -1 -4 -1h-73l1 -16v0zM392 610q-23 3 -49 3h-73v-3h-122l1 10h430q5 -6 13 -10h-200zM535 654
l4.5 -4.5t6.5 -4.5h-387q1 2 1.5 4.5t1.5 4.5h373v0zM14 67h128q-2 -6 -3 -11.5t-3 -12.5h-127q1 4 2 8.5t5 11.5l-2 3v1zM5 31v1h136l-9 -19v-5h-112v3zM18 78q4 10 7 23h124q-1 -5 -1.5 -10.5t-2.5 -12.5h-127v0zM35 134l1 2h119v-3h1q-2 -5 -2.5 -9.5t-2.5 -9.5h-122
l7 18l-1 2v0zM160 149h-121l6 21h119l-1 -4h2l-4 -13zM50 189l3 16h118l-3 -20h-119zM62 232l1 7h116l-3 -19h-119l3 12h2zM70 264l2 10h116l-3 -18h-119l2 8h2zM525 400q-1 -1 -1 -1.5t-1 -1.5h-143q9 7 16 15h139q0 -1 -1 -2h-15l6 -10v0zM550 435q-1 -1 -1 -2h-132
q2 4 4 7t4 7h130l-2 -4h-9l6 -8v0zM220 397h-118l3 15h117v-2zM559 477l6 -9h-128q4 8 6 13h130v-4h-14zM115 447h116l-3 -14h-116zM120 468q0 1 2 9l1 4h117l-4 -13h-116v0zM583 539h-127q1 3 1 10l-1 2h128v-8h-4l3 -3v-1zM582 574h-126v3h-3l-8 8h143q2 -2 3 -4t3 -4h-12
v-3zM568 510l4 -6h-122l1 6v2v4h131v-6h-14zM254 539h-117l3 12h117zM131 516h117l-1 -6h-1l-2 -6h-116zM143 574q0 2 0.5 5t0.5 6h125v-8h-3l-1 -3h-122v0zM458 681h-148v1q11 0 21 0.5t20 1.5q12 1 22.5 1.5t18.5 0.5q13 0 30 -1t36 -3v-1zM232 681h-53l6 5q11 -2 23 -2.5
t24 -1.5v-1zM106 -4q-2 0 -2.5 0.5t-1.5 0.5h6l-2 -1v0z" />
    <glyph glyph-name="Q" unicode="Q" horiz-adv-x="833" 
d="M633 67q-11 -8 -21.5 -14.5t-15.5 -9.5h-450q-10 5 -19.5 11.5t-19.5 12.5h181q19 -6 38 -8.5t40 -2.5q20 0 41 2.5t43 8.5h183v0zM211 8q-8 2 -20 8.5t-27 15.5h412q-17 -8 -31 -13.5t-30 -10.5h-304zM357 -17q-30 0 -58 3.5t-55 10.5h264l25 -25h-145q0 2 -2 2h-6
q-1 1 -1 6l-3 3h-19v0zM484 -134q-5 5 -11 12t-16 16h161q5 -5 11.5 -11t13.5 -13h1l4 -4h-164v0zM640 -168q-5 0 -15 -2h-111l-24 29h166q8 -7 13.5 -12t8.5 -8h-38v-7v0zM450 -96l-10 12t-11 12h151q8 -8 14.5 -13.5t9.5 -8.5h-3l2 -2h2q1 0 4 -3h-159l-3 3h3v0zM395 -37
h147q5 -5 12.5 -11.5t15.5 -14.5h-149l-1 1zM683 101q-4 -2 -13 -8.5t-21 -14.5h-169q11 4 23 10t25 13h155v0zM718 651q3 -3 10 -6h-425l10 5l8 4h392q2 -1 3 -2t2 -1zM101 91q-2 2 -4 4.5t-4 5.5h138q1 -2 4 -5h2q7 -10 25 -18h-154l-5 11zM713 133q-7 -5 -12 -10t-11 -9
h-144q9 6 22 19h11l-1 3h135l-3 -3h3v0zM77 133q-1 1 -1 1.5t-1 1.5h129q2 -6 4 -8h1q1 -2 3 -4.5t4 -4.5q1 -2 1.5 -2.5t1.5 -2.5h-135q-5 7 -8.5 12t-4.5 7h6v0zM726 149h-142q4 4 7.5 8t8.5 9h9l-2 4h130q-1 -2 -3 -4h9zM752 189q0 -1 0.5 -1t-2.5 -3h-135q2 3 4 6.5
t4 7.5h9l-2 6h133q-4 -5 -7 -9.5t-4 -6.5zM66 166q-1 1 -1 4h126l3 -15l3 -1q0 -3 1 -5h-128q-2 4 -3 8t-3 9h2v0zM783 232q-1 -2 -3.5 -4.5t-5.5 -7.5h-138l6 12h3v1q0 2 2 6h130q-2 -6 -2 -7h8v0zM59 199q-1 2 -1 6h128v-8t1 -12h-126q-2 5 -3 8.5t-1 5.5h2v0zM55 239h129
v-3q0 -1 0.5 -3.5t3.5 -12.5h-133q-1 4 -1 7v5h1v7zM658 264l4 10h131l-6 -18h-133q0 2 2 8h2zM59 308v1h132v-1l1 -2q-2 -5 -3 -15h-134l2 4v2l4 10v1h-2zM801 291h-133l3 6h5l-3 6q1 2 0.5 2t0.5 1v3h136l-7 -12zM56 264v10h132q-1 -3 -1 -7q-1 -2 -1 -11h-131v8h1z
M824 330q-1 -2 -3 -4h-140l4 15l22 2h113v-1h-4l-3 -12h11v0zM74 342v1h131v-1h-5l-4 -16h-132l5 15l15 1h-10zM60 376l2 2h151v-2h-8l4 -5q-1 -2 -1.5 -4t-1.5 -4q0 -1 -1 -1h-131q0 12 1 11.5t2 1.5v1h-17zM821 364q0 -1 -0.5 -1t-0.5 -1h-131q0 1 0.5 2t0.5 3t0.5 4
t1.5 7h133v-2h-4v-12v0zM87 410l1 2h135q-1 -1 -1 -2h-8l6 -8q-2 -4 -2 -5h-137q5 5 6 6.5t1 2.5v4h-1zM826 397h-130v6.5t1 8.5h132l-3 -11v-4zM104 445l1 2h140v-4h-17l6 -8q0 -2 -1 -2h-135l6 11v1zM242 610q9 5 16 10h197q-8 -2 -17 -5t-17 -5h-179v0zM828 433h-129v14
h138q0 -2 2 -4h-11v-10zM646 682l2 -1h-253l16 4t15 4h193l27 -7v0zM120 477l2 4h138q0 -1 -0.5 -2t-0.5 -2h-4q-2 -2 -2.5 -4.5t-1.5 -4.5h-130l-1 2q1 2 1.5 3.5t1.5 3.5h-3zM605 611q-5 2 -10 3t-10 3q-2 0 -4.5 1t-5.5 2h181l8 -7q0 -3 3 -3h-157zM158 543q3 2 5.5 4
t5.5 4h150q-2 -2 -4.5 -4t-4.5 -4h-23l1 -4h-122l4 4h-12v0zM826 474q0 -2 0.5 -3t0.5 -3h-128v13h128l1 -4h-5l3 -3v0zM138 510q0 1 1 2l4 4h142l-3 -6h-20l3 -6h-126l5 6h-6v0zM199 574q5 4 8 6.5t5 4.5h154q-2 -2 -5 -3.5l-9 -4.5h-32l1 -3h-122v0zM809 543l2 -4h-128
q0 1 -2 9l-6 3h134l6 -8h-6v0zM792 577q0 -1 2 -3h-132q-2 2 -2 5l-9 4q-1 0 -3 2h144q6 -6 9 -8h-9v0zM820 510l1 -6h-126v12h126q1 -6 3 -6h-4zM533 -191q-5 6 -9 10l-6 6h91q-15 -5 -29 -16q-13 -10 -12 -10h-27q-2 2 -8 10zM650 583l-4 2h2l2 -2v0z" />
    <glyph glyph-name="R" unicode="R" horiz-adv-x="611" 
d="M456 363q-1 -1 -3 -1h-359l3 16h379q-2 -2 -3 -2h-20l3 -13v0zM86 330l3 13h324q0 -1 -1 -1h-59v-16h-269l1 4h1zM390 610q-20 3 -34 3q-20 0 -35.5 -0.5t-27.5 -1.5q-3 0 -5.5 -0.5t-5.5 -0.5h-134l1 10h428l14 -10h-201zM364 17q-2 3 -4 6.5t-4 8.5h153l1 -3
q4 -5 7.5 -10.5t8.5 -10.5h-149l1 1l-14 8v0zM342 64q0 1 -0.5 1.5t-0.5 1.5h147q4 -10 13 -24h-149q-1 2 -1 3t-1 3l-2 2q-5 8 -6 13zM159 645q1 2 1.5 4.5t1.5 4.5h370l12 -9h-385v0zM334 78q-2 4 -6 9.5t-9 13.5h148q2 -4 4 -7t4 -7q1 -3 5 -9h-146v0zM309 133q-1 0 -2 3
h140q0 -2 1 -3h3l3.5 -7t6.5 -12h-143q-3 6 -6 11.5t-4 7.5h1v0zM14 67h128q-2 -6 -3 -11.5t-3 -12.5h-127q0 7 7 20l-2 3v1zM440 154q2 -4 3 -5h-140l-12 21h139l2 -4h7v-5.5t1 -6.5zM5 31v1h136l-9 -19v-5h-112v3zM18 78q4 10 7 23h123q-1 -5 -1.5 -10.5t-1.5 -12.5h-127
v0zM274 199q-2 1 -3 6h140q0 -3 3 -6h3q2 -5 2.5 -8.5t1.5 -5.5h-139l-8 14v0zM264 220q-2 3 -5 8t-7 11h141l5 -7h4l1 -8l2 -4h-141v0zM35 134l1 2h119v-3h1q-2 -5 -3 -9.5t-2 -9.5h-122l7 18l-1 2v0zM219 292l-2.5 5t-5.5 12h147q0 -1 1 -1h-3q4 -10 10 -17h-147v1v0z
M233 274h141q2 -3 4.5 -8t6.5 -10h-143q-2 2 -2.5 4t-1.5 4h1zM160 149h-121l6 21h119l-1 -4h2l-4 -13zM50 189l3 16h118l-3 -20h-119zM62 232l1 7h116l-3 -19h-119l3 12h2zM80 309h117l-4 -18h-118zM70 264l2 10h116l-3 -18h-119l2 8h2zM514 410l-7 -7t-7 -6h-122l-2 14
l1 1h141l-2 -2h-2v0zM548 447q-3 -4 -6 -7.5t-6 -6.5h-117l-4 9l1 1l2 4h130v0zM219 397h-117l3 15h117v-2zM567 481q-2 -4 -4 -7.5t-4 -5.5h-126l9 13h125v0zM115 447h116l-3 -14h-116zM120 468q0 1 2 9l1 4h117l-1 -4h-1l-2 -9h-116v0zM580 543q0 -2 -0.5 -2.5t-0.5 -1.5
h-122v12h125v-8h-2v0zM130 543q1 2 1.5 4t1.5 4h126l-2 -8h-1l-1 -4h-119l1 4h-7v0zM579 577q0 -1 0.5 -1.5t0.5 -1.5h-127v3h-2l-7 8h137q2 -6 4 -8h-6v0zM573 510q-1 -2 -1 -3t-1 -3h-121q1 2 1.5 5t2.5 7h121q0 -2 -0.5 -3t-0.5 -3h-1v0zM131 516h119l-1 -6h-2l-2 -6
h-117zM143 574q0 2 0.5 5t0.5 6h126l-4 -11h-123v0zM398 686q17 0 30.5 -1t26.5 -3v-1h-131v1q6 0 13 0.5t14 1.5q11 1 23.5 1.5t23.5 0.5zM240 681h-62l6 5q14 -2 28 -2.5t28 -1.5v-1zM398 -3q-2 0 -11.5 -2t-20.5 -4l4 6h28v0zM106 -4q-2 0 -2.5 0.5t-1.5 0.5h6l-2 -1v0z
M492 -4q-2 0 -2.5 0.5t-2.5 0.5h5v-1v0zM201 328v-1l1 1h-1z" />
    <glyph glyph-name="S" unicode="S" horiz-adv-x="500" 
d="M160 61q11 0 21.5 1t21.5 5h151q-9 -6 -18 -11.5t-17 -10.5q-1 -1 -1.5 -1t-1.5 -1h-344q-5 5 -11.5 11t-13.5 13h170q10 -4 20.5 -5t22.5 -1zM11 10q-5 3 -11.5 8t-15.5 14h312q-13 -8 -24 -14.5t-20 -9.5h-231l-10 2v0zM418 326h-254q-8 4 -9 5l3 11h-17q-1 0 -2 1h257
l14 -13h6zM119 362l-16 16h254l7 -3l-2 -13h-243zM200 308q-2 0 -3 1h235l1 -1h-6l8 -17h-197q-5 2 -8.5 3.5t-6.5 3.5l2 10h-25v0zM289 397h-191q-2 3 -4 13h-1l-1 2h194q4 -2 6 -2zM293 256q-5 4 -10.5 8.5t-10.5 9.5h162q2 -6 2 -7v-11h-143v0zM202 654h295l9 -9h-316z
M247 89q4 3 7 6l6 6h116q-4 -5 -9.5 -11t-11.5 -12h-125q5 2 9 4.5t8 6.5zM277 118q3 5 6.5 9t5.5 9h111q-2 -5 -6.5 -11t-8.5 -11h-112l4 4v0zM312 220q-2 5 -3 9.5t-3 9.5h129q-1 -2 -1 -6q-1 -2 -1 -13h-121v0zM296 149q9 14 10 21h110q-1 -3 -2 -5.5t-1 -4.5l-6 -11
h-111v0zM73 101q5 -6 10.5 -12t12.5 -11h-119q2 5 5.5 10.5t6.5 12.5h84v0zM312 187q1 5 1 9.5v8.5h116q-2 -4 -3.5 -9.5t-3.5 -10.5h-111zM227 447q2 -3 6.5 -6t9.5 -8h-156v6.5t-1 7.5h141v0zM127 -17q-25 0 -46 4t-40 10h181q-48 -14 -95 -14zM209 478q0 -2 2 -10h-124
q0 3 0.5 6t0.5 7h119v-2l2 -1v0zM305 620q-6 -2 -13.5 -5l-12.5 -5h-137l14 10h149v0zM56 132q3 -8 9 -18h-75q4 7 6.5 12t4.5 10h54v-1v-1q0 -1 1 -2zM443 686q6 -2 13 -5h-198l2 1l24 7h150q2 -1 5 -1.5t5 -1.5h-1v0zM205 543l3 -4h-104q0 2 1 4h-13q1 0 2 2q1 1 2 2.5
t3 3.5h122l-4 -8h-12zM207 504h-114l1 12h113v-1v-11zM232 574h-111l3 3h-7l8 8h120q-2 -3 -7 -8h-4zM379 618q-2 0 -6 2h129q2 2 2 -10h-118q-5 5 -7 8zM406 585h74l-5 -11h-64q-2 4 -2 6zM54 149h-47q1 2 1.5 5t2.5 5h43v-10zM424 551h40q-2 -3 -3.5 -5t-1.5 -3h-27z" />
    <glyph glyph-name="T" unicode="T" 
d="M639 610h-551l3 10h539zM624 654q1 -2 1 -9h-525l3 9h521v0zM149 67h128q-2 -6 -3 -11.5t-3 -12.5h-127q0 4 1 8.5t5 11.5l-1 3v1zM140 31v1h136l-9 -19v-5h-112v3zM153 78q4 10 7 23h123q-1 -5 -1.5 -10.5t-1.5 -12.5h-127v0zM170 134l1 2h119v-3h1q-2 -5 -3 -9.5
t-2 -9.5h-122l7 18l-1 2v0zM295 149h-121l6 21h119l-1 -4h2l-4 -13zM185 189l3 16h118l-3 -20h-119zM197 232l1 7h116l-3 -19h-119l3 12h2zM215 309h119v-1h-2l-4 -17h-118zM205 264l2 10h116l-3 -18h-119l2 8h2zM221 330l3 13h118v-1h-2l-3 -16h-118l1 4h1zM346 362h-117
l3 16h119v-2h-2zM355 397h-118l3 15h117v-2zM248 443l1 4h117l-3 -14h-116l2 10h-1zM257 477l1 4h117l-4 -13h-116l3 9h-1zM270 543l2 8h126q-2 -3 -2.5 -6t-2.5 -6h-121l1 4h-3zM379 504h-116l3 12h121v-6h-6zM399 574h-119l4 11h122v-8h-6zM247 681h-134l8 5
q31 -2 62.5 -2.5t63.5 -1.5v-1zM478 682q32 1 64.5 1.5t64.5 2.5l2 -5h-131v1v0zM241 -4q-2 0 -2.5 0.5t-1.5 0.5h6l-2 -1v0z" />
    <glyph glyph-name="U" unicode="U" horiz-adv-x="778" 
d="M107 43q-7 5 -13.5 11t-14.5 13h214q9 -2 18 -2h18h15.5t15.5 2h185q-11 -8 -21.5 -13.5t-19.5 -10.5h-397v0zM160 8q-17 6 -39 24h363q-34 -19 -49 -24h-275v0zM211 101q2 -4 4 -5q6 -5 14 -9t20 -9h-167q-4 5 -6.5 11t-6.5 12h142zM66 130l-2 6h126q2 -8 3 -11l4 -2
q0 -5 4 -9h-135v16v0zM552 83q-4 -4 -6 -5h-138q23 6 48 23h117q-6 -5 -11 -9t-10 -9zM63 149q0 5 -0.5 10.5t-0.5 10.5h122q1 -4 2 -8.5t3 -12.5h-126v0zM64 205h120v-20h-121q0 6 1 9v11zM153 558l1 1h115v-8h2l-2 -4v-4h-2l-2 -4h-119q0 4 4 12h3v7zM68 232q0 4 1 7h119
q-1 -3 -1 -5t0 -1q0 -1 -0.5 -5t-0.5 -8h-121q1 2 1 3t1 3q0 4 1 6zM598 133q-5 -5 -8.5 -9.5t-8.5 -9.5h-106q5 4 10 9l10 10h8l-2 3h96q-2 -2 -2 -3h3v0zM75 264l2 10h116l2 -2q-3 -5 -4 -16h-120q1 2 1 4t1 4h2zM82 297l3 12h119v-1h-2l-3 -17h-121q1 3 1 6h3zM625 166
q-1 -1 -5.5 -6t-10.5 -11h-101q5 7 11 17h2l2 4h93q0 -2 -2 -4h11v0zM300 -17q-60 0 -111 14h212q-27 -7 -52 -10.5t-49 -3.5zM92 330q2 8 4 13h117v-1h-2l-4 -16h-117l1 4h1v0zM634 199q-2 -3 -4.5 -6.5t-4.5 -7.5h-93l8 14h1q1 2 1 6h90q-1 -2 -1 -3t-1 -3h4v0zM103 365
q0 2 1 5t3 8h113v-2h-1l-3 -14h-111l-2 3v0zM112 401q0 2 1 4t2 7h117v-2h-4l-3 -13h-111l-2 4v0zM645 232l-2.5 -5l-3.5 -7h-90q4 10 5 12h4l-2 4v1q0 1 0.5 1t0.5 1h88q0 -2 -1 -3.5t-1 -3.5h2v0zM239 447q-4 -10 -6 -14h-112l4 14h114v0zM652 256h-89l6 18h87v-3
q-1 -2 -2.5 -6.5t-1.5 -6.5v-2zM661 291h-85l4 18h88v-1h-3zM132 477l1 4h114l-1 -4h-2l-3 -9h-110l2 9h-1zM671 326h-87l1 4h2l3 13h87v-1h-3zM252 504h-113l3 12h118v-6h-7zM598 376v2h86l-3 -16h-86zM155 574q0 3 2 11h123v-8h-13l3 -3h-115v0zM693 410q-2 -10 -3 -13
h-88l4 15h87v-2v0zM162 620h126l-3 -10h-126zM699 433h-87l4 14h91v-4h-5zM735 543l-2 -4h-94l3 12h97q-1 -1 -1 -2v-6h-3v0zM173 654h127l-3 -9h-127zM710 468h-88l2 9l1 4h89l-1 -4h-9zM740 574h-95l1 11h102v-8h-8v-3zM719 504h-89l3 12h94v-6h-6zM652 610l3 10h101
l-3 -10h-101zM665 649v5h103l-3 -9h-102zM257 682q8 1 14 1.5t8 1.5l5 -4h-27v1v0zM218 681h-25l5 4q-1 0 5.5 -1t11.5 -2h3v-1zM707 681h-23l6 4q4 -1 17 -3v-1zM729 682q13 1 16 3l6 -4h-22v1v0z" />
    <glyph glyph-name="V" unicode="V" horiz-adv-x="667" 
d="M398 159q-2 -2 -3.5 -5t-3.5 -5h-208l-3 21h123l1 -4q0 -4 1 -8q2 3 3.5 5t2.5 3h2l2 4h88l1 -2q-2 -2 -3.5 -4.5t-2.5 -4.5zM384 136q-3 -5 -7 -11t-8 -11h-181l-1 8q-2 8 -2 13l-1 1h200v0zM361 101q-4 -5 -8 -11.5t-8 -11.5h-153l-2 14t-1 9h172v0zM195 63
q0 1 -0.5 1.5t-0.5 2.5h144l-15 -24h-127q0 3 -0.5 9.5t-0.5 10.5zM203 8q-2 6 -3 12t-1 12h118l-15 -24h-99zM297 205q1 -4 2 -9t3 -11h-124l-1 14q-1 2 -1 6h121v0zM291 239q2 -5 3 -9.5t3 -9.5h-122l-1 1q-1 2 -1.5 6.5t-1.5 6.5q-1 0 -1 1v4h121v0zM286 291h-128
q-1 3 -1 6h4q-1 3 -1 6t-1 6h122v-4.5t2 -7.5h3v-6zM288 256h-124q-1 2 -1 4t-1 4h4v2q-2 4 -3 8h124v-2v-8h1v-8zM277 326h-120q0 1 -0.5 1.5t-0.5 2.5v3q0 1 -2 9l-1 1h124q0 -1 1 -1h-3q2 -8 2 -9v-7zM271 376v-5.5t2 -8.5h-123q-1 4 -1 14l-1 2h124l1 -2h-2v0zM267 410
l2 -13h-124l-3 15h132q0 -2 1 -2h-8zM417 189q-1 -1 -1.5 -2t-1.5 -2h-90l9 14h9l-3 6h88q-4 -5 -6.5 -10t-3.5 -6zM263 433h-123q-1 3 -2 6.5t-2 7.5h127q0 -3 1 -4h-3l1 -1q0 -2 0.5 -3.5t0.5 -3.5v-2zM447 232q-3 -5 -8 -12h-92q3 3 5 6.5t4 5.5h1v1q2 4 2 6h90
q-2 -2 -3 -3.5t-2 -3.5h3v0zM261 481q-1 -5 -1 -13h-127v13h128v0zM462 256h-93l5 8h1l7 10h89zM484 291h-93q5 5 9 9.5t6 8.5h91v-1h-13l5 -10zM118 543v8h132v-12h-128q0 1 -0.5 2t-0.5 2h-3zM518 342q-3 -5 -5.5 -8.5t-5.5 -7.5h-93q1 2 3 4h9l-3 6q1 1 5 7h91v-1h-1v0z
M124 510v6h129v-12h-125v6h-4zM541 376q-2 -4 -4.5 -7.5t-4.5 -6.5h-82l-5 9q1 1 1.5 3t2.5 4h94q0 -1 -1 -2h-1v0zM566 412l-6 -8t-5 -7h-93l7 13h-3l1 2h99v0zM243 584q0 -4 2 -10h-127q0 2 -0.5 5t-0.5 6h126v-1v0zM242 620q0 -2 0.5 -4.5t0.5 -5.5h-137l-4 10h140v0z
M573 443l5 -10h-95q2 4 4.5 7t4.5 7h97l-2 -4h-14zM653 539h-104l8 12h105zM239 645h-138v9h141q-2 -4 -3 -5v-4zM601 468h-90l-2 5q1 2 2.5 3.5t3.5 4.5h96l-3 -4h-2zM628 504h-100l4 6l2 6h103l-1 -2l-2 -4h-1zM659 577l1 -3h-89l1 1q0 3 7 10h105l-3 -4.5t-2 -3.5h-20z
M595 610l4 10h109l-6 -10h-107zM734 654q1 -2 1 -9h-122l5 9h116v0zM269 689q-2 -3 -7 -8h-71v1l34 7h44v0zM148 681h-38l15 4q2 0 8.5 -1t14.5 -2v-1zM672 681h-32l15 4q2 -1 7 -1.5t10 -1.5v-1zM693 682q10 2 16 2.5t5 0.5l2 -4h-23v1v0zM220 -3h8l-1 -1q-1 0 -3.5 -0.5
t-3.5 -0.5v2z" />
    <glyph glyph-name="W" unicode="W" horiz-adv-x="1000" 
d="M343 166q-1 -2 -4 -7l-6 -10h-194q-1 3 -1 7.5t-1 9.5h2v4h119v-2l1 2h86q-2 -2 -2 -4zM564 165q-1 1 -1 5h119q0 -3 1 -4h2l-1 2l1 2h85q-2 -2 -2 -3l-1 -1q0 -2 -3 -7t-7 -10h-191v10l-1 1q0 2 -0.5 2t-0.5 3zM568 114q-1 5 -1.5 10.5t-0.5 11.5h184q-1 -1 -1 -3h2
q-1 -1 -4.5 -7t-8.5 -12h-170v0zM323 131q-3 -5 -5.5 -8.5t-6.5 -8.5h-169v12l-1 1q0 4 -1 9h185l-2 -4v-1v0zM302 96q-3 -4 -5.5 -8.5t-6.5 -9.5h-147v3q-1 5 -1 10t-1 10h164q-2 -4 -3 -5zM727 96q-3 -5 -6 -8.5t-7 -9.5h-145v23h161l-2 -4l-1 -1v0zM285 67
q-6 -10 -14 -24h-127v11t-1 13h142v0zM571 43q0 3 -0.5 11t-0.5 13h138q-4 -8 -6 -11q2 1 -1 -2.5t-5 -8.5l-1 -2h-124v0zM149 8q-3 10 -3 24h116q-2 -2 -4 -7t-5 -17h-104zM574 25q-1 1 -1 7h116l-13 -24h-84l-18 17v0zM656 504h-200l-1 3l1 3h-4q1 2 2 3t2 3h200v-12z
M562 191q-1 2 -1 5.5v8.5h118v-2q0 -2 1 -4h1v-4q0 -4 3 -10h-121v5l-1 1v0zM257 185h-119v8l-1 1v11h119v-6h1v-14zM254 236q-1 -2 0 -4q0 -2 1 -4.5l3 -7.5h-121v1q-2 5 -2 8v7v3h119v-3v0zM561 221q-2 5 -2 9v6v3h118v-3v-1q0 -2 1 -3h1v-4q0 -5 1 -8h-119v1v0zM475 546
q1 1 3 5h176v-12h-182q1 2 2 3t2 3h-2zM253 262q0 -4 1 -6h-120q-1 5 -1 14v4h118v-4q0 -2 1 -6h1v-2v0zM251 291h-119l-1 18h121q0 -1 1 -1h-4v-11h2v-6zM676 256h-119v18h116l1 -10h2v-8zM672 297v-6h-117v18h124q0 -1 1 -1h-9v-11h1zM247 342q0 -4 0.5 -7.5t1.5 -8.5
h-120q-1 2 -0.5 4t0.5 5v8h121q0 -1 1 -1h-4v0zM552 335v8h119q0 -1 1 -1h-4v-7q0 -2 1 -5h2v-3v-1h-119v9zM245 378q1 -4 1 -7.5t1 -8.5h-121q0 2 -0.5 6t0.5 10h119v0zM548 376v2h117q1 -5 1 -8.5t1 -7.5h-118v14h-1zM784 185h-91q2 4 4.5 8t4.5 6h4l-2 3q0 1 0.5 1.5
t0.5 1.5h86l-6 -6h13zM243 397h-118v4v4t-1 7h123q0 -1 1 -2h-5v-13zM546 397q0 5 -2 15h118q0 -2 0.5 -5t1.5 -10h-118v0zM364 203q-2 -3 -5 -8l-6 -10h-88q2 3 4.5 6t4.5 7l1 1q2 4 4 6h84l1 -2v0zM806 220h-92q3 6 7 12q1 2 2 3.5t2 3.5h82l2 -3q-1 -1 -1.5 -2t-1.5 -2
h13zM493 574q2 3 3.5 6t3.5 5h152v-11h-159v0zM242 433h-119v2q0 1 -0.5 4t-0.5 8h120v-5v-9zM542 443v4h119q1 -5 1 -8.5v-4.5v-1h-117v10h-3zM378 224q-2 -2 -1.5 1.5t-3.5 -5.5h-84q2 3 3.5 6.5t3.5 5.5h1v1q2 4 2 6h85l-6 -15v0zM841 291h-88l3 6l7 12h89v-1h-2z
M738 264l6 10h86l-9 -18h-88l4 8h1zM334 297l6 12h87l-11 -18h-88l4 6h2zM314 264l5 10h85l-9 -18h-86l4 8h1zM241 468h-120v13h120v-4h-7zM542 468q0 2 1 5.5t2 7.5h116l1 -4h-3v-9h-117v0zM115 543v8h125v-12h-124v4h-1zM870 342q-2 -5 -4.5 -8.5t-4.5 -7.5h-89l3 4h9
l-4 7q1 1 3 6h89v-1h-2v0zM119 516h121v-12h-121v12zM514 610q1 2 1.5 4.5t2.5 5.5h139l3 -10h-146zM890 376q-2 -5 -3.5 -8.5t-3.5 -5.5h-82l-4 6q1 2 2 4.5t3 5.5h93q-1 -1 -1 -2h-4v0zM436 326h-86l2 4h10l-4 7q1 1 3 6h87v-1h-3zM112 577v8h127v-11h-124v3h-3zM256 654
q2 -3 8 -9h-158v9h150v0zM111 610v10h135q1 -3 3 -7q1 -2 1 -3h-139zM459 362h-86l8 15v1h89q-1 -1 -1 -2h-12l5 -8zM903 397h-90l6 13l1 2h92l-2 -2h-11l6 -11zM929 443q-2 -3 -2.5 -5.5t-2.5 -4.5h-81l-4 9v1h-5l2 4h97l-2 -4h-2v0zM478 397h-86q2 4 4 7.5t4 7.5h86l-2 -2
h-10l6 -11zM662 654q3 -3 11 -9h-140q1 3 5 9h124v0zM977 516q-5 -8 -9 -12h-97l3 6q0 1 3 6h100v0zM500 433h-77l-4 9q-5 -5 -2.5 -1.5t4.5 5.5v1h87l-2 -4h-1zM991 546q-2 -3 -4 -7h-97l2 4l4 8h98q-2 -4 -3 -5zM937 477l5 -9h-92l9 13h95l-2 -4h-15zM1010 577
q-1 -1 -1 -1.5t-1 -1.5h-98l6 11h100l-4 -8h-2v0zM510 477l4 -9h-82q2 3 4.5 6t4.5 7h88l-2 -4h-17zM930 612q1 0 2 2q1 1 2 2.5t3 3.5h102l-4 -10h-106l1 2v0zM1055 645h-108q1 2 2.5 4t3.5 5h107zM252 689l-2 -4l-2 -4h-54v1l35 7h23v0zM608 682q4 1 9 2t15 4l4 -7h-28v1
v0zM153 681h-38l15 4q3 -1 23 -3v-1zM1003 681h-32l16 4q3 -2 16 -3v-1zM573 685q4 -2 14 -4h-30l16 4v0zM1023 681q4 1 8.5 1.5t10.5 2.5l2 -4h-21v0zM601 -3q0 -1 -1 -1h-2v1h3v0zM172 -3h1v-1h-1v1z" />
    <glyph glyph-name="X" unicode="X" horiz-adv-x="611" 
d="M176 264l9 10h216q2 -4 4 -8.5t4 -9.5h-130q-2 4 -2 8l-1 2l-9 -10h-99q1 2 5 8h3zM337 67h140l9 -24h-142l-3 11v1q-1 3 -2 5.5t-2 5.5v1zM351 22q-1 2 -2 4.5t-2 5.5h143l1 -1q5 -4 5 -13l4 -10h-134l1 1l-16 13v0zM212 308l1 1h185q0 -1 1 -1h-10q0 -1 2.5 -6.5
t4.5 -10.5h-198l16 17h-2zM464 101l8 -23h-138l-5 23h135zM-39 8q-8 6 -16.5 13t-13.5 11h153l-24 -24h-77l-4 8v-8h-18v0zM343 446l1 1h97l-4 -4h-18l4 -10h-208q-2 4 -4 10h-4v4h135q0 -1 1 -1zM323 122q-1 2 -1.5 5.5t-2.5 8.5h133q2 -6 5 -11.5t5 -10.5h-137q-1 2 -1 7
l-1 1v0zM-28 43l12 12l12 12h112q-2 -4 -8 -10t-13 -14h-115v0zM438 170q1 -3 1 -5.5t2 -5.5l5 -10h-131l-6 21h129v0zM409 412q-4 -5 -7.5 -8.5l-6.5 -6.5h-167l-6 15h187v0zM304 185q-4 8 -7 20h128q2 -4 4 -8.5t5 -11.5h-130v0zM2 78l9.5 9.5t12.5 13.5h109
q-4 -5 -8.5 -10t-11.5 -13h-111v0zM289 229q-2 2 -5 10h130q3 -9 8 -19h-129q-3 4 -4 9zM246 341l-2 2h133q1 -2 3 -5.5t7 -11.5h-157l16 15v0zM63 136h100q-6 -7 -11 -12.5t-9 -9.5h-106q6 7 11 12l7 7h10zM236 378h144l-12 -12q0 -2 0.5 -2.5t0.5 -1.5h-128q-1 2 -1.5 5.5
t-2.5 8.5zM93 170h96l-2 -4h3l-6.5 -6.5t-9.5 -10.5h-103q2 2 3.5 4t3.5 4q1 1 4.5 5t4.5 4h8zM123 205h97q-5 -5 -9 -10.5t-7 -9.5h-101q3 4 6.5 7.5t5.5 6.5h11zM153 239h92l2 -3q-3 -6 -6 -9.5t-6 -6.5h-101zM332 472q0 -2 1 -4h-130q-2 3 -3 9h-1q-1 1 -1 4h128
q0 -2 1 -3l4 -4l1 -2v0zM318 510q0 -2 0.5 -3t0.5 -3h-131q-1 2 -2 5t-3 7h137l3 -6h-5v0zM307 543q0 -3 1 -4h-133q-2 3 -2.5 6t-2.5 6h135q2 -7 3 -8h-1v0zM141 610l-10 10h157q1 -3 2 -5t3 -5h-152zM290 654q2 -3 8 -9h-156q-5 4 -7 9h155v0zM166 579q-2 4 -2 6h127v-4
l6 -4v-3h-122q-2 2 -4 5h-5v-1l-1 1h1zM529 539h-102q0 1 3 4h-4l8 8h107l-8 -8zM368 477l4 4h103l-13 -13h-89l-3 7l2 2h-4zM405 515l1 1h101l-12 -12h-101zM487 610q1 1 3 3.5t5 6.5h113q-2 -2 -2.5 -3.5t-1.5 -3.5t-2 -3h-115zM542 577l1 -3h-87q4 3 6 6t4 5h108l-8 -8
h-24zM517 645q4 6 7 9h119l-9 -9h-117v0zM602 682q6 1 13.5 2.5t20.5 4.5h40l-8 -8h-66v1v0zM285 689q-2 -6 -3 -8h-59v1q5 1 13.5 2t29.5 5h19v0zM382 -3q-2 0 -8 -2t-22 -7l6 9h24v0zM581 681h-33l16 4q2 -1 7 -1.5t10 -1.5v-1zM180 681h-30l6 4q2 -1 9 -1.5t15 -1.5v-1z
M326 410h-9l-1 -2zM166 578q3 -3 5 -4h-4q0 1 -0.5 1.5t-0.5 2.5zM473 -4q-2 0 -3 0.5t-3 0.5h7l-1 -1v0zM163 579q-1 1 0 1t2 -1h-2v0z" />
    <glyph glyph-name="Y" unicode="Y" horiz-adv-x="611" 
d="M417 362h-207q-1 3 -1.5 6t-1.5 8l-1 2h225l-1 -2h-17l6 -12zM172 43q2 3 3 7t3 9l2 8h125q-1 -5 -2 -11.5t-3 -12.5h-128v0zM169 32h136l-8 -16v-8h-113v4l-15 17v3zM393 334q-4 -6 -6 -8h-164l-1 4l-2 6l-2 6l-1 1h185v-1h-14l5 -8v0zM184 78q2 4 4 12t3 11h121l-5 -21
v-2h-123v0zM200 133v3h119v-3h2l-5 -19h-122zM324 149h-120l6 21h118l-1 -4h2l-4 -13zM229 309h145l-14 -18h-125zM336 205q-2 -5 -2.5 -10t-1.5 -10h-118l1 4l3 16h118v0zM345 232q-2 -4 -3 -7t-2 -5h-118l3 12h1l1 7h116l-1 -7h3v0zM234 264l2 10h116l-3 -18h-119l2 8h2z
M322 410q0 -2 1.5 -5.5t3.5 -7.5h-128l-6 15h134q0 -2 1 -2h-6v0zM312 443q2 -6 4 -10h-130q-2 4 -6 14h134q0 -2 2 -4h-4v0zM303 477q1 -2 1 -4.5t1 -4.5h-130q-1 2 -1 4t-1 5h-2q-1 1 -1 4h133l2 -4h-2v0zM281 543l2 -4h-135q-3 4 -6 12h138q2 -7 3 -8h-2v0zM291 509
q0 -1 2 -5h-133q-1 2 -2 5t-3 7h139q1 -6 3 -6h-9l3 -3v2zM115 610l-10 10h156q1 -4 3 -10h-149zM350 397q13 12 15 15h94l-12 -15h-97v0zM272 574h-132v11h126v-4l6 -4v-3zM265 654l4.5 -4.5l4.5 -4.5h-157v1q-5 3 -8 8h156v0zM509 468h-93l-2 5q1 2 2.5 3.5t3.5 4.5h102z
M466 539q2 2 3.5 4t3.5 5l3 3h108l-12 -12h-106v0zM469 443l4 -10h-91q2 3 5 6.5t5 7.5h98q-1 -2 -3 -4h-18zM447 515l1 1h104l-12 -12h-102q3 5 5 7zM499 582q0 2 1 3h115l-11 -11h-109v1q2 2 4 6v1zM521 610q2 2 5 10h118l-7 -10h-116zM552 650q1 1 1.5 2t1.5 2h120l-9 -9
h-119l3 3zM634 682q6 1 14 2t23 5h38l-8 -8h-67v1v0zM261 689q-2 -6 -3 -8h-58v1l40 7h21v0zM611 681h-33l15 4q3 0 18 -3v-1zM155 681h-32l6 4q2 -1 9 -1.5t17 -1.5v-1zM270 -4q-2 0 -2.5 0.5t-1.5 0.5h6l-2 -1v0zM281 543h-2l2 -3v3zM364 412l-1 -1z" />
    <glyph glyph-name="Z" unicode="Z" horiz-adv-x="611" 
d="M-58 8l1 24h568l-1 -24h-568zM512 43h-567l25 24h551l1 -2q-1 -2 -1 -3.5t-2 -3.5q-1 -2 -3 -5.5t-4 -7.5v-2zM126 610l3 10h515l-10 -10h-508zM672 645h-534l1 3v6h539l-6 -6v-3zM148 100q-4 -4 -10 -10.5t-11 -11.5h-147q4 4 10.5 9.5t12.5 13.5h146l-1 -1v0zM159 114
h-145l22 22h145l-8 -8zM193 149h-144l6 6l14 15h142q-1 -2 -2 -2.5t-2 -1.5h3zM232 192q-2 -2 -3 -3.5t-3 -3.5h-143l13 14h11l-3 6h141l-13 -13v0zM259 220h-143l19 19h132l3 -5l-2 -2h3zM160 264l9 10h138l-16 -18h-140q6 6 7 8h2zM324 291h-140l18 18h138v-1h-1zM370 342
q-4 -5 -7 -8.5t-7 -7.5h-137l4 4h12l-4 11q2 0 2 2h141v-1h-4v0zM390 362h-122l-5 13q1 0 4 3h139zM439 412q-4 -5 -7.5 -8.5l-6.5 -6.5h-127l-4 11l4 3l1 1h140v0zM232 79q36 0 75.5 1.5t76.5 4t68.5 5t51.5 5.5l10 -17h-282v1v0zM465 443q-2 -3 -4 -5.5t-4 -4.5h-125
l-4 10h-3l4 4h142l-4 -4h-2v0zM561 539h-141l-1 3l3.5 3.5t4.5 5.5h147q-2 -2 -5 -4.5t-4 -3.5zM479 477l4 -9h-133l13 13h141l-4 -4h-21zM389 509q2 2 2.5 3t2.5 3l1 1h144l-12 -12h-136l-2 5v0zM450 577l8 8h150l-11 -11h-147q1 1 1 1.5t1 1.5h-2zM677 681h-85v1
q7 0 14 0.5t15 1.5q4 0 12 1t16.5 1.5t16.5 1.5t12 1zM258 681h-111l13 5q17 -2 41.5 -3t56.5 -1v-1zM-66 -3h62q-15 0 -34 -1.5t-37 -3.5zM489 -5q-11 1 -20.5 1.5t-19.5 0.5h44l-4 -2v0z" />
    <glyph glyph-name="bracketleft" unicode="[" horiz-adv-x="333" 
d="M24 -89q1 2 1.5 5.5t2.5 11.5h199q-3 -2 -5 -4.5t-4 -4.5l-2 -8v-10h-184l-8 10v0zM31 -62l3 9t5 16h102q0 -6 -2 -14q13 0 29.5 0.5t32 1.5t29 1.5t21.5 0.5q-1 0 -5.5 -5t-9.5 -11h-206v1h1v0zM45 -18v15h102l-2 -12q-1 -6 -2 -8.5t-1 -4.5h-100zM51 8q2 5 3.5 12
t2.5 12h98q-2 -11 -3 -24h-101v0zM61 43q1 2 2.5 9t3.5 12v3h96q-2 -6 -3 -11.5t-3 -12.5h-96v0zM165 78h-97l8 23h95zM79 114q2 5 3 11t2 8v3h95v-3h1l-2 -6l-2 -13h-97v0zM94 166v4h94l-2 -6v-6.5t-1 -8.5h-98l4 17h3zM101 199l1 6h95l-1 -6h2l-6 -14h-95l3 14h1zM109 232
l1 7h94l-3 -19h-95zM118 274h96l-4 -18h-96zM126 297l2 12h96v-1h-3l-3 -17h-95l2 6h1zM134 330l3 13h96v-1h-2l-4 -16h-95l1 4h1zM143 376v2h97l-3 -16h-95l3 14h-2zM244 397h-94l3 11v4h94v-2h-1v-9zM163 447h94l-4 -14h-93zM260 468h-92l3 9h-1l1 4h95l-1 -4h-2zM37 -106
h178v-9q-9 0 -25.5 0.5t-34.5 1t-35 1t-29 0.5q-13 0 -24.5 -0.5t-22.5 -1.5zM273 543l3 -4h-91q0 3 3 12h101v-8h-16zM271 504h-94l3 12h99v-6h-6zM281 577l2 -3h-90q0 3 2 11h104v-8h-18zM309 620q-1 -3 -1 -7v-3h-107q0 2 2 10h106v0zM205 654h89l9 -9h-103zM419 681h-82
v1q7 0 21.5 1t30 2t28.5 2t18 1zM359 654l-20 -9h-2v9h22zM247 681h-15l5 2q1 -1 10 -1v-1z" />
    <glyph glyph-name="backslash" unicode="\" horiz-adv-x="500" 
d="M242 67h88l3 -21v-3h-88l-1 14zM246 32h88l4 -24h-87zM238 101h88l3 -23h-88zM322 133l2 -19h-88l-3 22h87l1 -3h1zM228 170h89l3 -21h-89l-2 17zM226 205h87v-6h1l1 -14h-88l-1 14h1zM312 232v-12h-89l-2 19h86l1 -7h4zM253 -3h87l4 -25h-6q-16 5 -26 8t-14 3
q-6 0 -16.5 -2.5t-24.5 -7.5zM212 309h89v-1h-2v-11h4v-6h-90l-1 17v1zM307 264v-8h-89l-1 18h86l1 -10h3zM298 326h-90l-3 17h89l3 -13h1v-4zM201 378h89l1 -16h-86l-1 14h-3v2zM198 412h88v-15h-86l-1 13h-1v2zM193 447h88l1 -14h-86l-1 10h-1zM188 481h89l1 -13h-86l-1 9
h-3v4zM183 516h90v-12h-87v6h-2zM181 551h88v-12h-87v4zM177 585h87v-11h-86v3zM170 620h91v-10h-91v10zM166 654h91v-9h-90zM164 689h87v-8h-87v8z" />
    <glyph glyph-name="bracketright" unicode="]" horiz-adv-x="333" 
d="M121 -94q-1 -1 -1 -2t-1 -3h-179l-3 5h-1v1l-4 7q3 3 4 12v2h189q-1 -5 -1 -10.5t-1 -11.5h-2v0zM127 -63h-190q3 6 11 14q17 -1 37.5 -1.5t40.5 -0.5q1 3 1.5 7t1.5 7h104q-1 -3 -1.5 -5.5t-1.5 -5.5zM137 -10q0 -9 -3 -18h-102l2 6l6 19h99l-2 -7v0zM43 8q2 5 3.5 11
t3.5 13h99l-7 -24h-99v0zM153 53q-3 -8 -3 -10h-98q2 4 3.5 8.5t3.5 9.5l1 6h96l-3 -14v0zM70 101h94l-6 -23h-95q1 2 2 5.5t2 7.5zM170 114h-97l3 9l2 13h94v-3h1l-1 -5zM180 164v-6.5t-1 -8.5h-98l3 17h3l1 4h94l-2 -6v0zM186 185h-95l3 14h1l1 6h94l-1 -6h2zM102 232l1 7
h95l-4 -19h-95zM112 274h95l-4 -18h-95zM212 291h-95l2 6l2 12h97v-1h-3zM221 326h-96l1 4h2l3 13h95v-1h-2zM137 376v2h97l-4 -16h-94l2 14h-1zM238 397h-95l4 11v4h94v-2h-1v-9zM246 433h-93l3 10h-1l1 4h94zM-56 -106h173q-1 -2 -1 -5t-1 -5q-17 2 -32 3t-29 1
q-20 0 -48 -1t-48 -1h-10zM254 468h-93l4 13h94l-1 -4h-1zM274 539h-97l2 6l1 6h101v-8h-6zM282 574h-99l1 11h107v-8h-9v-3zM264 504h-94q0 5 2 10v2h96l-1 -6h-2zM189 610q1 2 1.5 5t1.5 5h108l-1 -10h-110zM197 654h108l-1 -9h-107v9zM110 654h74v-9h-79zM317 681h-43v1
l51 6zM184 681h-51l6 3q9 -1 21 -1.5t24 -0.5v-1z" />
    <glyph glyph-name="asciicircum" unicode="^" horiz-adv-x="606" 
d="M-2 239h94l-14 -19h-93zM40 297l10 12h98l-16 -18h-97l3 3zM16 264l8 10h95l-13 -18h-97l6 8h1zM415 239h90l6 -19h-90zM414 577l1 -3h-159l9 11h148l3 -8h-2zM162 326h-97l12 17h96l-10 -13h3zM406 274h89l6 -18h-92l-2 8h3zM397 309h89l3 -18h-88l-2 6h2l-2 11h-1z
M102 376l1 2h98l-2 -2h-1l-10 -14h-96l11 14h-1zM389 343h88l3 -13h2l1 -4h-90l-4 16v1zM380 378h88l3 -16h-87zM212 397h-93l12 15h94l-1 -2h-4zM370 412h89l3 -15h-87l-3 13h-1zM154 443l3 4h94l-11 -14h-93l8 10h-1zM180 477l3 4h95l-3 -4l-7 -9h-95zM359 447h89l3 -14
h-86l-2 10h-3zM289 620h112l4 -10h-123zM236 551h96l-5 -8h-2l-3 -4h-95l3 4h-1zM294 504h-94l9 12h95l-4 -6h-1zM352 481h89l1 -13h-85l-1 9h-3zM333 551h89l3 -8h-3l1 -4h-86l-1 4zM343 516h86l3 -12h-86zM-46 192l33 13h61v-13h-94zM315 654h83v-9h-90zM424 192l23 13h45
v-13h-68z" />
    <glyph glyph-name="underscore" unicode="_" horiz-adv-x="500" 
d="M499 -99h-509l3 11l3 16h513l-5 -22h-3zM511 -63h-513l5 25h514zM-16 -123l5 17h509l-4 -17h-510z" />
    <glyph glyph-name="grave" unicode="`" horiz-adv-x="333" 
d="M39 620h138l7 -10h-132zM14 650q-2 2 -3 4h145l9 -9h-140l-11 5v0zM85 585h117l8 -11h-111zM-24 681q4 2 7 4t5 4h135q2 -2 2.5 -3t2.5 -3l2 -2h-154v0zM130 551h96l6 -8h-91zM98 719q2 -1 2.5 -1t2.5 -2h-76q4 3 7 6h54z" />
    <glyph glyph-name="a" unicode="a" horiz-adv-x="500" 
d="M162 63q7 0 13.5 0.5t14.5 3.5h187q0 -2 1 -3h5q1 0 3.5 0.5t7.5 2.5h30l-3 -24h-411q-8 9 -16 24h147q5 -2 10.5 -3t10.5 -1zM100 239h204l1 -3l1 3h110l-4 -19h-113l2 6l-30 -6h-2h-208l8 6t9 6h24zM37 11q-6 5 -19 21h239q-26 -18 -42 -24h-166l-12 3v0zM420 447l4 -6
t5 -8h-305q17 10 22 14h274v0zM247 274h178l-4 -18h-292l14 4t15 4h90zM285 12q-9 9 -14 20h148l-2 -16q-14 -8 -24 -8h-95zM375 85q0 -2 -0.5 -3.5t0.5 -3.5h-157q19 9 35 23h126l-4 -16v0zM0 78v10.5t-2 12.5h120q0 -5 1 -6q2 -4 4.5 -8t5.5 -9h-129v0zM48 205h137l1 -5
q-8 -4 -14 -7.5t-12 -7.5h-130q2 3 5 6.5t6 7.5h10zM5 132q0 1 0.5 1.5t0.5 2.5h116l-2 -4q0 -1 -0.5 -1.5t-0.5 -2.5l3 3q0 -7 -2 -17h-119l2 8t3 9l-1 1v0zM19 167q0 2 1 3h122l-2 -4h1q-4 -5 -7 -9t-5 -8h-119q2 5 3.5 10t2.5 7h3v1v0zM384 114h-116l5 5v14h4l1 3h109v-3
h1l-2 -5zM286 166l1 4h111l-5 -21h-112zM387 468h-178l-1 10l12 3h155q4 -2 7 -3t7 -3zM297 205h109l-3 -20h-113zM431 291h-135q5 2 8.5 3t7.5 3h13l-4 7q0 -1 2 5h116v-1h-5zM440 326h-114q0 1 0.5 1.5t0.5 2.5h3q0 9 1 13h115v-1h-5v-6zM442 397h-121l-9 13h-4q-2 0 -6 2
h137zM332 378h114v-16h-114v16zM87 410q1 0 3 2h139q-6 -2 -8 -2h-11l-18 -13h-81l4 13h-28v0zM119 -14q-27 0 -57 11h130q-38 -11 -73 -11zM167 378l-8.5 -8.5t-6.5 -7.5h-53l4 16h64v0zM334 -4q-2 0 -3 0.5t-2 0.5h20q-2 0 -3 -0.5t-3 -0.5h-9v0zM426 78h-7q4 1 8 4z" />
    <glyph glyph-name="b" unicode="b" 
d="M199 54q11 0 24 3t25 10h143q-6 -4 -11.5 -8t-10.5 -8l-6 -4l-6 -4h-285l-2 2q-2 -2 -3 -2h-95q1 4 2 9.5t3 14.5h172q2 -2 3 -2.5t3 -2.5q21 -8 44 -8zM187 440q4 3 10 7h263l14 -14h-400l4 14h112q-1 -3 -3 -7zM109 10q-10 6 -25 22h255q-14 -9 -24.5 -15.5t-16.5 -8.5
h-179l-10 2v0zM-16 78q2 5 2.5 10.5t2.5 12.5h133q1 -1 1 -1.5t1 -1.5q2 -5 5.5 -9.5t8.5 -10.5h-154v0zM418 101q-5 -5 -10 -11.5t-10 -11.5h-133q8 7 15 12.5t12 10.5h126v0zM438 128q-4 -4 -9 -14h-126q10 15 14 19l1 3h125l-5 -8v0zM252 410q-5 -4 -9 -7l-8 -6h-171
l4 15h200q-4 -2 -7 -2h-9v0zM-7 114q2 4 2 6l3 16h118q0 -5 0.5 -10.5t1.5 -11.5h-125v0zM452 149h-126l1 1q2 3 4 7t4 9h2q0 1 0.5 1.5t0.5 2.5h125l-2 -4h3zM471 185h-127q5 11 8 20h126q0 -2 -1 -3.5t-1 -2.5h3zM7 166l1 4h110q-1 -2 -1 -3v-1q0 -3 -0.5 -8t-0.5 -9h-116
l4 17h3zM490 239q-4 -7 -7 -19h-126l3 12h4q0 2 1 3.5t2 3.5h123v0zM198 368q-1 -2 -2 -3t-2 -3h-138l3 16h149q-1 -1 -2 -1t-1 -1h-12l5 -8v0zM497 267q-1 -2 -1.5 -4.5t-2.5 -6.5h-123q2 6 3 11t2 7h121l1 -2v-5v0zM422 468h-170l-1 9q2 1 4.5 2t5.5 2h151q3 -2 6 -2.5
t6 -2.5zM500 291h-121q0 5 -0.5 9t1.5 6v3h122v-1h-1zM13 186l3 19h107q-1 -2 -1 -6h5q-1 -2 -2 -5.5t-3 -8.5h-110zM485 410q0 -1 3 -4.5t8 -8.5h-140q-2 2 -4.5 5.5t-4.5 7.5h-6q-3 0 -5 2h159l2 -2h-12v0zM502 326h-122v16h-1v1h124q0 -1 1 -1h-3q0 -2 0.5 -3.5t0.5 -3.5
v-9zM497 376q1 -4 1 -7.5t1 -6.5h-125q-1 7 -5 16h146l2 -2h-20v0zM24 232l1 7h106l-3 -19h-109l3 12h2zM41 297l2 12h118v-1h-9l4 -5l-6 -12h-112l2 6h1zM49 330l3 13h125l-1 -1h-12l6 -12q-2 -2 -2 -4h-122l1 4h2zM33 264l2 10h105l3 -4q-3 -4 -7 -14h-107l2 8h2zM191 468
h-108l4 13h110l-1 -4h-2zM212 539h-112l1 4h-1l2 8h115v-8h-4zM202 504h-110l3 12h111l-1 -6h-2zM-28 32h78q-2 -2 -3 -2.5t-2 -1.5t-2 -1q-5 -4 -13 -9.5t-13 -9.5h-30zM226 585q-1 -4 -2 -6.5t-2 -4.5h-113l1 3h-4l2 8h118v0zM237 620q-1 -3 -1 -7v-3h-120l1 10h120v0z
M122 654h126l-1 -9h-126zM130 689h129l-2 -8h-128zM197 -14q-32 0 -63 11h135q-39 -11 -72 -11zM264 716h-124l3 6h122z" />
    <glyph glyph-name="c" unicode="c" horiz-adv-x="500" 
d="M411 49q-4 -4 -9 -6h-331q-14 10 -27 24h173q16 -4 35 -4t34 4h133v-4q-1 -2 -2 -4.5t-2 -4.5zM118 9q-11 5 -34 23h299q-27 -17 -51 -24h-207l-7 1v0zM311 443l1 -10h-138l-2 9l4 2t5 3h332q2 -2 3 -2t3 -1t3 -1l-6 -10h-147l1 10h-59zM161 101q10 -13 25 -23h-143
q-3 5 -6.5 10.5t-7.5 12.5h132v0zM458 468h-207l-1 11q3 0 7 2h193q6 -2 10 -3zM150 133q1 -10 6 -19h-122q-2 4 -3 12l-1 1q0 -2 -0.5 -1t-0.5 3q-2 2 -2 7h121q0 -2 1 -3h1v0zM146 170q0 -4 1 -10t2 -11h-123v8q-1 3 -1 13h121v0zM150 205q-1 -5 -1.5 -10t-0.5 -10h-123
q1 2 1 4t1 5v11h123v0zM157 232l-2 -6l-2 -6h-123l5 19h122v-2l-2 -5h2v0zM160 256h-125l1 2l1 6h1q2 3 2.5 5.5t2.5 4.5h117l5 -6l-2 -4zM174 291h-124l3 6l2 6l2 6h126v-1h-3zM194 333q-1 -2 -2 -3.5t-2 -3.5h-125q2 2 3 4h1q2 3 3.5 6.5t3.5 6.5h125v-1h-12l5 -9v0z
M425 83q-2 -4 -2 -5h-105q20 7 41 20q1 0 1 0.5t1 0.5q1 1 2 1v1h69q-2 -5 -3 -6q-2 -3 -2.5 -6.5t-1.5 -5.5zM214 362h-122q3 5 5 9t3 5l2 2h124q-1 -1 -2 -1t-1 -1h-13l5 -13zM243 410l4 -13h-111l-3 14q-2 -2 -2 -1.5t2 2.5h142q-2 -2 -4 -2h-28zM399 412h105l-1 -2h-3
l-6 -13h-79l-5.5 5.5l-8.5 8.5zM226 -14q-38 0 -77 11h151q-41 -11 -74 -11zM491 378q-5 -5 -8 -8.5t-6 -7.5h-45v16h59v0zM428 122l2 -8h-48q11 7 17.5 12.5t11.5 9.5h2z" />
    <glyph glyph-name="d" unicode="d" 
d="M30 43q-9 10 -21 24h142q1 -1 2 -1q18 -7 38 -7q11 0 22 1.5t22 6.5h190l-6 -24h-389v0zM410 443l1 4h109l-4 -14h-391q7 5 11.5 8.5t7.5 5.5h259q2 -2 2 -3t-2 2q0 -1 1.5 -3.5t3.5 -6.5zM68 10q-11 7 -27 22h254q-23 -17 -40 -24h-177l-10 2v0zM429 78h-175q6 4 12 7.5
t11 8.5l7 7h150l-1 -4zM442 136q-1 -6 -2 -11.5t-2 -10.5h-143q4 5 8.5 10t7.5 9h3l-1 2v1h129v0zM123 101q2 -4 6 -10q3 -7 11 -13h-129q-2 5 -4.5 10.5t-5.5 12.5h122zM301 8l6 24h109q-1 -5 -2.5 -13.5t-2.5 -10.5h-110zM0 122q-1 3 -1 6t-1 8h116q1 -11 3 -18q0 -3 1 -4
h-117q0 2 -0.5 4t-0.5 4zM445 153q-1 -2 -1 -4h-122l1 1q2 3 5 8.5t5 7.5h3l-2 4h115l-3 -14l-1 -3v0zM-3 170h118q0 -3 -0.5 -6t-0.5 -5v-10h-117v21zM-2 199q2 2 2 6h120q-1 -3 -1 -6h1q-1 -2 -1.5 -5.5t-1.5 -8.5h-120v14h1v0zM507 397h-152l-8 13h-13q-3 0 -7 2h183v-2z
M126 220h-125l6 19h122l-3 -12l1 1zM14 264l3 10h123l-6 -18h-126q1 2 1 4.5v3.5h5zM30 309h128v-1h-5l-6 -17h-123l2 6h3l-2 3zM454 185h-113l7 14h2l-2 3q0 1 0.5 1.5t0.5 1.5h109l-1 -6h1l-4 -13v-1zM94 410l2 2h161q-4 -2 -6 -2h-10l-16 -13h-140l13 13h-4zM370 468
h-168l-1 10l9 3h147l15 -6zM44 336q2 4 4 7h128q-3 -5 -6 -9t-5 -8h-126l2 4h6l-3 6v0zM497 362h-126q-2 2 -3 6.5t-3 9.5h137v-2h-2zM358 232q2 4 3 7h106l-4 -19h-108q0 1 2 5q0 4 1 7zM62 376l2 2h138l-2 -2h-2q-3 -5 -5.5 -8.5t-4.5 -5.5h-114l-5 13l1 1h-8zM489 326
h-114v4h1v13h118v-1h-1zM480 291h-107l1 18h112v-1h-3zM369 267q1 2 0.5 3.5t0.5 3.5h106l-4 -18h-106q2 6 3 8h2l-2 3v0zM523 468h-107l3 13h110l-1 -4h-2zM552 551q-2 -3 -2.5 -6t-2.5 -6h-114l1 4h-2l2 8h118v0zM534 504h-110l3 12h114v-6h-6zM554 574h-113l1 3h-2l2 8
h116q1 -2 1 -8h-4zM450 610l3 10h118q0 -3 -1 -4l-1 -6h-119zM574 645h-118l1 9h119q0 -1 -0.5 -1t-0.5 -1zM464 689h127l-2 -8h-126zM160 -14q-17 0 -32.5 3t-32.5 8h135q-33 -11 -70 -11zM596 716h-125l1 6h125zM331 -3l-12.5 -2.5t-15.5 -3.5l4 6h24v0zM381 -3h13v-2z
" />
    <glyph glyph-name="e" unicode="e" horiz-adv-x="500" 
d="M65 43q-14 10 -27 24h169q9 -3 18.5 -3.5t19.5 -0.5q8 0 16.5 1t17.5 3h132l-3 -9l-4 -9q-4 -4 -9 -6h-330v0zM485 268q-1 -2 -2 -5t-3 -7h-450l2 8h2l3 10h446l3 -4q-1 -1 -1 -2zM109 9q-10 4 -32 23h299q-29 -17 -52 -24h-206l-9 1v0zM168 297h207q1 3 1 6t1 6h119v-1
h-3v-8q-1 -2 -1 -9h-448l1 1l6 17h122v-1h-6l4 -5zM161 446l2 1h289l10 -14h-124l1 10h-48l1 -10h-129l-2 13v0zM155 101q2 -2 2.5 -3t2.5 -3q9 -11 20 -17h-142q-3 5 -6 10.5t-6 12.5h129zM20 133q-1 1 -1 3h121q0 -3 2 -7q1 -8 6 -15h-124q-2 6 -4 11.5t-3 7.5h3v0z
M17 166v4h120q0 -4 1 -10t2 -11h-123q-1 4 -1 8t-1 9h2zM413 468h-188l-2 10q2 1 5 1.5t5 1.5h169q3 -2 6 -2.5t7 -2.5zM19 205h123q-2 -5 -2.5 -10t-1.5 -10h-121q1 2 1 4.5t1 4.5v11zM150 232q-2 -4 -2.5 -7t-1.5 -5h-125v12h3l1 7h125q-3 -6 -4 -7h4v0zM64 333q2 6 4 10
h125q-3 -5 -5.5 -10t-4.5 -7h-126l2 4h7l-2 3v0zM238 397h-135l16 15h141q-2 -2 -3 -2h-7zM309 78q23 9 47 23h68l-8 -23h-107v0zM81 376l2 2h138l-16 -16h-111l-4 13q-1 -1 -1 -0.5t1 1.5h-9zM496 326h-118v4h4q0 8 1 13h115q0 -1 1 -1h-6l2 -3v-2q0 -1 0.5 -2t0.5 -3v-6z
M493 372q0 -4 2 -10h-114v15l-1 1h110l3 -2v-4zM480 412q2 -7 5 -15h-112l-6 13h-1q-1 0 -3 2h117v0zM218 -14q-40 0 -78 11h153q-42 -11 -75 -11zM429 114h-54q10 7 16.5 12.5t11.5 9.5h3z" />
    <glyph glyph-name="f" unicode="f" horiz-adv-x="278" 
d="M24 439l2 8h270q-1 -4 -1 -7.5t-1 -6.5h-272q0 5 0.5 5.5t2.5 3.5l-1 -3v0zM-14 43q1 6 6 19l1 5h115l-6 -24h-116v0zM0 94q0 2 0.5 3t0.5 3v1h116l-6 -23h-115l4 16v0zM-17 32h117l-3 -13v-5l-2 -1l-1 -5h-107l2 15l-6 8v1zM121 124q-1 -4 -3 -10h-114l7 22h113l-3 -12
v0zM21 170h111q0 -2 -0.5 -2.5t-0.5 -1.5h2l-5 -17h-113q2 10 4 17h3l-1 2v2zM28 199q0 2 2 6h111l-4 -20h-114q1 3 1.5 6t2.5 8h1v0zM39 239h110l-3 -19h-111zM46 264l2 10h110l-4 -18h-111l2 8h1zM57 308v1h111v-1h-2l-3 -17h-112l2 6h3zM38 412h255v-2h-100l-3 -13h-111
l3 13h-42zM62 330l3 13h112v-1h-1l-4 -16h-111l1 3v1zM180 362h-109l3 16h111v-2h-2zM303 647q-5 0 -9.5 -0.5t-9.5 -1.5h-102l9 9h189l-1 -9h-59q-5 1 -9 1.5t-8 0.5zM208 477q-1 -2 -1 -4.5v-4.5h-109l3 13h108v-4h-1v0zM218 681q2 2 3.5 4t3.5 4h165l-1 -8h-171v0z
M109 504q2 8 4 12h100v-6h-4v-6h-100v0zM123 539l2 4l3 8h87l-2 -8v-4h-90v0zM130 577l8 8h89l-4 -11h-82l1 3h-12zM153 610l10 10h84l-8 -10h-86zM392 716h-134q6 4 8 6h66v1h57v-1h4zM71 -4q-1 0 -1 1h4l-1 -1h-2z" />
    <glyph glyph-name="g" unicode="g" horiz-adv-x="500" 
d="M-19 -183q-2 2 -3 4l-2 4h118q16 -9 44 -14l-1 -5h49v5q14 2 28.5 5.5t28.5 8.5h125q-5 -5 -10 -9.5t-11 -9.5h-2l1 -1q-4 -2 -7.5 -4.5t-7.5 -5.5h-332q-4 5 -7.5 10t-8.5 11h-1zM80 32h357q4 -6 7.5 -11.5t7.5 -12.5h-406q8 6 17.5 11.5t19.5 9.5zM71 43q-5 5 -9.5 11
t-9.5 13h353q12 -9 24 -24h-358v0zM18 -223q-4 2 -7.5 5.5l-7.5 7.5h321q-8 -5 -15.5 -8.5t-15.5 -8.5h-1q-9 -4 -18 -7l-18 -6h-202q-19 7 -35 16v1h-1v0zM61 78q-1 5 -0.5 10.5t0.5 12.5h109q0 -1 1 -2q5 -2 9.5 -2h11.5q26 -1 52 -1t52 -1q51 -2 90 -17h-325v0zM129 185
l-7.5 7.5t-10.5 12.5h137v-6h24v6h136l3 -7q-5 -4 -9 -7t-9 -6h-264v0zM561 447q1 -3 2 -6.5t2 -7.5h-218l2 10h-55l2 -10h-123l-3 11q1 1 5 3h386v0zM115 170h231l1 -6q-47 -15 -90 -15q-6 0 -13.5 0.5t-13.5 0.5q-7 1 -12.5 1h-12.5q-4 0 -12 -2h-106q3 4 7 8l9 9h13z
M232 478q2 1 5 1.5t5 1.5h334l-7 -13h-336l-1 10v0zM448 -28h-125l-2 4l-2 4q-16 12 -47 17h176q0 -8 1 -13v-10h-1v-2zM384 -161q-3 -2 -5.5 -4.5t-5.5 -4.5h-118q3 2 6.5 3.5t6.5 3.5q8 6 14 11.5t11 10.5h105q-3 -5 -6.5 -10t-6.5 -10h-1v0zM6 -28q5 5 12 11.5t15 13.5
h155q-40 -5 -65 -20q-2 -1 -6 -5h-111v0zM-30 -141h99q2 -5 4.5 -11t7.5 -14q3 -3 5 -4h-113l-6 9h6q-1 5 -1.5 8.5t-1.5 7.5v4zM442 -62l-1 -1h-112v1h1v18q-1 3 -3 7h120q0 -5 -1 -10.5t-1 -12.5h-3v-2v0zM409 -127q-4 -4 -5 -7h-104q10 15 17 28h106q-2 -4 -6 -11t-6 -10
h-2v0zM328 -79v7h110l-2 -6t-2 -5q-2 -2 -2.5 -5t-2.5 -6h-1q-2 -2 -2 -5h-105q0 2 1 3h2q2 8 4 14v3zM-30 -106h100v-21h-1v-7h-99q-1 2 -1 6h1v22zM-26 -96q1 9 8 24h99q-2 -5 -4 -11t-3 -11h-1l-1 -2v-1l-1 -2h-100v3h3v0zM-13 -62q2 5 5 11.5t8 13.5h106q-9 -7 -14 -16
q-2 -2 -3 -5t-3 -5h-100v1h1v0zM448 234q-6 -8 -12 -14h-138q10 4 21 12h1q5 5 8 7h117l3 -5v0zM96 232q-2 4 -3 7h111q2 -3 4 -7h1q7 -8 15 -12h-125q-2 2 -4 5t-4 7h5v0zM472 270q-2 -3 -4 -6.5t-4 -7.5h-126q5 5 9.5 10t7.5 8h114l3 -4v0zM78 136h98q-4 -5 -6 -10t-4 -9
v-3h-100q2 3 4.5 7.5t6.5 11.5h3zM481 291h-117l5.5 11t2.5 6v1h120v-1h-5zM89 297q0 2 -0.5 4t1.5 5v3h114v-1h-2l-3 -17h-111v6h1v0zM89 269v5h109v-3q0 -1 1 -5.5t3 -9.5h-113q-1 2 -1 4t-1 4h2v5zM95 342v1h119q-2 -5 -3.5 -9t-3.5 -8h-116v4h5l-1 1q1 4 1 6.5t2 4.5h-3
zM493 326h-116l2 4h1v4t1 4q0 3 1 5h112v-1h-3l2 -1q-1 -3 -1 -11h3zM105 376l1 2h125q-2 -5 -4.5 -8.5t-4.5 -7.5h-117l7 14h-7zM245 397h-123l13 15h129q-2 -2 -3 -2h-5zM493 362h-108v14l-1 2h106q0 -1 1 -2h1v-1q0 -2 1 -3v-10zM481 410l2 -6t3 -7h-107l-3 13h-3l-2 2
h118q2 -2 4 -2h-12v0zM155 -256q-45 0 -86 11h171q-42 -11 -85 -11zM573 411q-5 0 -8 1h7q0 -1 1 -1z" />
    <glyph glyph-name="h" unicode="h" 
d="M202 446q1 0 2 1h254q4 -7 9 -14h-377l4 14h108v-1v0zM235 410l4 -13h-158l3 15h394q2 -2 3 -2h-5l2 -8v-5h-136l-10 13h-97zM3 96l1 5h116q-1 -2 -1.5 -5t-2.5 -8v-5q0 -1 -0.5 -1.5t-0.5 -1.5v-2q-1 -2 -1 -4h-116l1 4q1 3 1 6.5t2 7.5zM108 49q0 -1 -0.5 -1.5
t-0.5 -1.5v-3h-118q1 4 2 9.5t3 14.5h119q-1 -4 -2 -6.5t-2 -5.5v-2q-1 -2 -1 -4zM295 67h113l-5 -21v-3h-115q2 5 3.5 10t4.5 12l-1 1v1zM-11 32h116q0 -7 -1 -12.5t-1 -11.5h-113l3 18zM285 32h116q-2 -11 -3 -24h-108l2 14l-7 9v1zM411 78h-114l7 23h114zM315 133v3h110
v-3h1l-5 -19h-113q2 5 3 11t2 8h2zM14 133v3h113q0 -1 -0.5 -1.5t-0.5 -1.5v-1q-3 -5 -4 -11v-5q0 -1 -1 -2h-113zM20 158l2 12h112q0 -2 -0.5 -2.5t-0.5 -1.5h3q-1 -2 -2 -7t-3 -10h-114zM321 158l2 12h111l-3 -21h-113zM31 199l1 6h110l-3 -20h-113l3 14h2zM332 199l1 6
h110q-2 -5 -3 -10.5t-3 -9.5h-110l3 14h2zM255 477q2 1 5 2t5 2h150q8 -4 12 -5l-2 -8h-169l-1 9v0zM342 232l1 7h111l-4 -19h-113l3 12h2zM208 368q-1 -2 -5 -6h-131l4 16h142l-4 -2h-11l5 -8v0zM40 232l1 7h110l-4 -19h-112l3 12h2zM358 297q0 2 0.5 4.5t0.5 7.5h114
l-2 -12h1l-2 -6h-115l1 6h2v0zM350 264l2 10h112l-3 -10l-1 -4v-4h-113l2 8h1zM57 297l2 12h113v-1h-1l-6 -17h-111l1 6h2zM362 330v5t1 8h118q-3 -9 -3 -11q0 -1 -0.5 -1t-0.5 -1v-1l-1 -3h-116v4h2v0zM357 378h124v-16h-122v3q-1 2 -1 5.5v6.5zM49 264l2 10h108v-3l-4 -15
h-109l2 8h1zM65 330l3 13h121v-1h-12l6 -9q-3 -3 -4 -7h-116l1 4h1zM102 481h112l-5 -13h-110zM225 539h-109l1 4l2 8h112v-8h-5zM109 510l1 6h110l-3 -12h-109l2 6h-1zM241 585q-2 -5 -4 -11h-112l1 3h-4l3 8h116v0zM134 610l3 10h114l-1 -10h-116zM140 654h120v-9h-121z
M271 689q0 -2 -0.5 -4t-0.5 -4h-125l2 8h124v0zM253 722l6 -6h-106v6h100zM373 -4q-2 0 -2 0.5t-1 0.5h4l-1 -1v0z" />
    <glyph glyph-name="i" unicode="i" horiz-adv-x="278" 
d="M127 66q-1 -2 -1 -5.5v-17.5h-122q2 5 4 11t4 13h115v-1v0zM116 13q-1 -2 -1 -5h-111l3 16l-6 8h120q-2 -6 -2 -8v-10zM134 99q-1 -5 -1 -10.5v-10.5h-118q2 4 3 10t3 10v3h114q0 -1 -0.5 -1t-0.5 -1zM32 131q0 3 1 5h108l-2 -22h-114q2 4 3.5 8t3.5 9zM41 170h109
l-6 -21h-108zM155 185h-110l4 20h109v-6h1l-4 -13v-1zM56 232l1 7h110l-4 -19h-111l3 12h1zM66 274h110l-4 -18h-110zM181 291h-111l2 6h1l2 12h112v-1h-3zM190 326h-111l1 4h2q0 1 0.5 1.5t0.5 1.5q0 5 1 9h-3v1h114v-1h-1zM199 362h-112q3 7 3 10v6h115v-2h-3zM211 402
q-1 -2 -1 -2.5t-1 -2.5h-115l4 13h-1v2h114v-2h-5l5 -8v0zM222 436q-1 -1 -1 -3h-119q1 3 1 7t1 7h119q0 -2 -2 -4h-4l5 -7v0zM139 610q-2 2 -2.5 4.5t-2.5 5.5h146q-1 -1 -1 -1.5t-1 -1.5v-7h-139v0zM144 651v3h145l10 -9h-160zM155 585h96q-3 -3 -5 -4.5t-4 -3.5h-73z
M176 681q8 6 11 8h62l12 -8h-85v0zM177 481h35l16 -13h-51v13zM160 468h-50l18 13h24h8v-13z" />
    <glyph glyph-name="j" unicode="j" horiz-adv-x="278" 
d="M-88 -188q17 0 37 13h120q-21 -17 -36 -30h-155v11h2v12q10 -2 18.5 -4t13.5 -2zM2 -227q-7 -3 -14.5 -6.5t-15.5 -6.5h-95l1 30h148q-15 -12 -23 -17h-1v0zM86 -161q-8 -6 -11 -9h-119l9 9q4 5 7.5 9.5t7.5 10.5h119q-5 -5 -9.5 -10t-9.5 -10h6v0zM111 -128l-6 -6h-120
v1l-1 1q1 2 3.5 9t7.5 17h115q-2 -5 -4.5 -10.5t-4.5 -10.5h-1v-1h11v0zM114 -94q-1 -1 -1 -2t-1 -3h-114q0 1 0.5 1.5t0.5 1.5h1q2 5 4 11t4 13h114q0 -1 -0.5 -1.5t-0.5 -2.5q-2 -5 -3.5 -10.5t-1.5 -7.5h-2v0zM126 -62l-1 -1h-114q2 5 3.5 10.5t3.5 15.5h114
q-2 -6 -3 -13t-1 -10h-3q-1 -1 -1 -2h2v0zM22 -26l5 23h115l-9 -25h-112zM36 32h113l-7 -24h-112zM152 53q-3 -8 -3 -10h-111l6 24h111l-3 -14v0zM157 78h-110l7 23h109zM167 114h-110l3 14l1 8h110v-3h1l-3 -11zM69 166l1 4h110l-4 -21h-112l3 17h2zM77 199l1 6h110l-4 -20
h-111l3 14h1zM85 232l1 7h110l-4 -19h-110zM95 274h110l-4 -18h-110zM210 291h-111l2 6h1l2 12h112v-1h-3zM219 326h-112l1 4h2l2 13h113v-1h-3zM116 376v2h116l-3 -16h-113l3 14h-3zM240 403q-1 -2 -1 -3t-1 -3h-115l3 7v6h-5l1 2h117q0 -1 -0.5 -1t-0.5 -1h-3l5 -7v0z
M251 438q0 -4 -1 -5h-121q1 4 3 14h120q0 -2 -2 -4h-2l3 -5v0zM168 610q-2 2 -2.5 4.5t-2.5 5.5h146l-3 -3v-7h-138v0zM173 651v3h145l10 -9h-161zM183 585h97q-4 -4 -10 -8h-72zM-44 -245q-37 -10 -80 -12l1 12h79v0zM205 681q3 2 5.5 4t4.5 4h63l12 -8h-85v0zM214 481h26
l17 -13h-51v13h8zM189 468h-50l18 13h24h8v-13z" />
    <glyph glyph-name="k" unicode="k" horiz-adv-x="500" 
d="M273 239q3 -4 6 -9t7 -10h-250l3 12h2l1 7h231v0zM287 296q-1 -1 -7 -5h-225l1 6h2l2 11h-1v1h112v-1h-2l-2 -13q6 4 11 7.5t10 6.5h116q0 -1 -1 -1h-21l5 -12v0zM254 273l5 -7.5t8 -9.5h-220l2 8h1l2 10h203l-1 -1v0zM239 67h143q5 -7 10.5 -14t7.5 -10h-147
q-1 2 -2 3.5t-2 3.5v1q-2 3 -3.5 6t-3.5 5zM268 17q-2 2 -4 6t-5 9h144l3 -5l12 -19h-134l-16 9v0zM223 96q1 0 -4 5h142q1 -2 1 -3t1 -2q7 -12 13 -18h-142l-1 2l-1 1q-2 2 -4.5 6t-4.5 9zM201 133q-2 2 -2 3h137q8 -10 19 -22h-144q-5 7 -8.5 12.5t-4.5 6.5h3v0zM-1 78
q1 2 1.5 5.5t1.5 6.5l1 3l1 3l1 5h115q-1 -2 -1.5 -5t-2.5 -8q0 -2 -0.5 -5t-0.5 -5q-1 -2 -1 -4h-116zM184 160q-1 0 -1 -0.5t-0.5 -0.5t-1.5 2.5t-4 8.5h137l2 -4h4l8 -16l-1 1l-5 5l5 -7h-136q-5 5 -7 11zM112 66q-1 -2 -1 -5.5v-17.5h-121q1 4 2 9.5t3 14.5h117v-1v0z
M165 191q-5 5 -9 14h139q2 -5 5.5 -10t6.5 -10h-139q-3 3 -3 6zM101 13q-1 -2 -1 -5h-109l3 18l-4 6h115q-2 -6 -2 -8v-10zM126 133q-2 -5 -3 -9.5t-2 -9.5h-112l6 19v3h110v-3h1v0zM131 149h-113l3 9l2 12h112l-1 -4h1l-2 -4zM32 199l1 6h110l-4 -20h-112l3 14h2zM350 343
q-6 -5 -12 -9.5t-11 -7.5h-115l4 3l1 1l17 13h116v0zM425 397h-124l18 15h129q-1 -1 -2 -1t-1 -1h-1zM174 326h-110l1 3v1l3 13h111v-1h-1zM492 443q-4 -3 -7.5 -5.5t-7.5 -4.5h-117l-3 11q2 2 4 3h140l-4 -2t-5 -2zM183 362h-110l4 16h111v-2h-2zM377 362h-118l19 16h121
l-3 -2h-24l6 -13zM85 412h110l-3 -15h-110zM199 433h-108l4 14h109l-1 -4h-1zM103 481h109l-3 -13h-109zM225 539h-108l3 12h112v-8h-6zM110 510l1 6h110l-3 -12h-109l2 6h-1zM241 585q-2 -5 -4 -11h-111l1 3h-3l2 8h115v0zM134 610l3 10h115l-1 -10h-117zM140 654h120v-9
h-121zM272 689q0 -2 -0.5 -4t-0.5 -4h-125l2 8h124v0zM254 722l6 -6h-106v6h100zM438 468h-51q10 8 13 13h38v-13zM454 481h42l4 -13h-46v13zM287 -9l2 6h12zM389 -5q-8 2 -9 2h10l-1 -2v0z" />
    <glyph glyph-name="l" unicode="l" horiz-adv-x="278" 
d="M15 96l1 5h114q-1 -5 -1 -10.5t-2 -12.5h-1v-3v-1h-117l1 4q1 2 1.5 5.5t1.5 6.5l1 3zM0 43q1 4 2 9.5t3 14.5h119q-4 -12 -5 -24h-119v0zM0 32h116q-1 -7 -1.5 -12.5t-0.5 -11.5h-114l4 18zM133 116q0 -1 -1 -2h-112l6 19v3h113q0 -1 -0.5 -1.5t-0.5 -1.5v-1l-2 -4
t-2 -5v-2q0 -4 -1 -5zM148 166q-1 -2 -2 -7t-3 -10h-114l3 9l2 12h112q0 -2 -0.5 -2.5t-0.5 -1.5h3v0zM44 199l1 6h109l-3 -20h-113l3 14h3zM52 232l1 7h110l-4 -19h-111l2 12h2zM177 291h-111l1 6h2l2 11h-1v1h112v-1h-2zM61 264l2 10h108l-3 -18h-110l2 8h1zM185 326h-110
l1 3v1l3 13h111v-1h-1zM194 362h-110l4 16h111v-2h-2zM96 412h110l-3 -15h-110zM210 433h-108l4 14h109l-1 -4h-1zM220 468h-109l3 13h109l-1 -4zM236 539h-108l3 12h112v-8h-6zM121 510l1 6h110l-3 -12h-109l2 6h-1zM252 585q-2 -5 -4 -11h-111l1 3h-3l2 8h115v0zM148 620
h115l-1 -10h-117zM151 654h120v-9h-121zM283 689q0 -2 -0.5 -4t-0.5 -4h-125l2 8h124v0zM265 722l6 -6h-106v6h100z" />
    <glyph glyph-name="m" unicode="m" horiz-adv-x="833" 
d="M113 412h690l2 -2h-18l1 -13h-130l-5 5t-7 8h-98l3 -13h-185l-6 6t-6 7h-58l-20 -13h-166l3 13v2zM476 447q3 -4 6 -7.5t5 -6.5h-369q1 3 1 7t1 7h356v0zM502 433q5 4 9 7.5t8 6.5h251l1 -1q0 -2 11 -13h-280v0zM20 43q2 5 4 11t4 13h115v-1q-1 -2 -1 -5.5v-17.5h-122v0z
M305 43q2 5 4 10.5t4 10.5v3h116l-6 -24h-118v0zM591 43l2 4l6 20h115q-2 -6 -3 -11.5t-3 -12.5h-117v0zM17 32h120q-2 -6 -2 -8v-10l-3 -1q-1 -2 -1 -5h-111l3 16zM302 32h118v-5.5t-1 -7.5v-5l-2 -1q0 -2 -0.5 -3t-0.5 -2h-110l3 15l-7 8v1zM589 32h117q-2 -11 -3 -24
h-111l3 16zM323 97q0 1 0.5 1.5t0.5 2.5h112q-1 -5 -1 -11v-12h-119q1 3 2 7.5t5 10.5v1v0zM37 101h114q0 -1 -0.5 -1t-0.5 -1q-1 -5 -1 -10.5v-10.5h-118q2 4 3 10t3 10v3zM602 78q2 5 4 11.5t4 11.5h112l-4 -23h-116v0zM619 133q0 2 1 3h111l-3 -22h-115q2 5 3 10.5t2 8.5
h1v0zM333 133q0 2 1 3h110l-3 -22h-114q2 5 3 10.5t2 8.5h1v0zM48 131q0 3 1 5h108l-2 -22h-114q2 4 3.5 8t3.5 9zM452 163q0 -2 -0.5 -6t-0.5 -8h-114l6 21h110l-1 -7v0zM629 170h110l-5 -21h-111zM57 170h109l-6 -21h-108zM385 362q-1 2 -2 6t-3 10h152l-2 -2h-1
q-4 -5 -6.5 -8t-5.5 -6h-132v0zM637 199l1 6h111l-4 -20h-112zM349 189l2 16h110l-1 -6h3l-5 -14h-110zM171 185h-110l4 20h109v-6h1l-4 -13v-1zM570 477q2 1 5 2t5 2h148q4 -2 7 -3t7 -3l-2 -7h-169l-1 9v0zM358 239h112l-4 -19h-115zM646 232l1 7h110l2 -3q-2 -3 -4 -11
q-1 -1 -3 -5h-111l3 12h2zM72 232l1 7h110l-4 -19h-111l3 12h1zM105 376v2h143l-3 -2h-14l6 -11q-1 -1 -1 -1.5t-1 -1.5h-132q3 7 3 10v4h-1zM663 297l2 12h115l-4 -12q-1 -1 -1 -6h-116l2 6h2zM654 264l2 10h113q-2 -5 -2.5 -9.5t-2.5 -8.5h-114l2 8h2zM441 468h-159l-1 9
q2 1 5 2t5 2h138q4 -2 14 -6zM376 297l2 12h111q-1 -4 -1.5 -6.5t-1.5 -5.5h2l-2 -6h-114l2 6h2zM89 309h115v-1h-1l-6 -17h-111l1 6h2l2 11h-2v1zM383 332q0 2 0.5 3t0.5 3v5h122q-10 -15 -11 -17h-114l1 4h2l-1 2v0zM367 264l2 10h110l-3 -10q-1 -1 -1 -8h-111zM670 332
q0 2 0.5 3.5t0.5 3.5v4h116q-1 -4 -1 -7t-1 -6h2l-2 -4h-117l1 4h2l-1 2v0zM81 264l2 10h109v-3l-5 -15h-109l2 8h1zM97 342v1h122l-1 -1h-8l5 -9q-3 -3 -4 -7h-116l1 4q1 2 1 3.5t1 3.5q0 2 1 3v2h-2zM669 378h121q0 -4 -0.5 -8t-0.5 -8h-115l-2 3zM191 481h33l16 -13h-49
v13zM176 468h-50l18 13h24h8v-13zM677 -4q-1 0 -1 1h4l-1 -1h-2z" />
    <glyph glyph-name="n" unicode="n" 
d="M116 433q1 3 1 7t1 7h114q0 -1 -0.5 -1t-0.5 -1l3 2h255q1 -2 3 -4l10 -10h-386v0zM111 412h410l2 -2h-16l2 -13h-137q-2 2 -5 5.5t-6 7.5h-64q-5 -4 -9.5 -7t-9.5 -6h-170l3 13v2zM18 43q2 5 4 11t4 13h115v-1q-1 -2 -1 -5.5v-17.5h-122v0zM325 67h114l-5 -21
q0 -1 -0.5 -1.5t-0.5 -1.5h-115q2 5 3.5 10t4.5 12l-1 1v1zM15 32h120q-2 -6 -2 -8v-10l-3 -1q-1 -2 -1 -5h-111l3 16zM35 101h114q0 -1 -0.5 -1t-0.5 -1q-1 -5 -1 -10.5v-10.5h-118q2 4 3 10t3 10v3zM315 32h116q-2 -11 -3 -24h-108l2 14l-7 9v1zM329 78q2 6 3 11.5t3 11.5
h113l-4 -23h-115v0zM339 114q4 7 5 14l1 8h111v-3q0 -2 -1 -8t-1 -11h-115v0zM46 131q0 3 1 5h108l-2 -22h-114q2 4 3.5 8t3.5 9zM354 166l1 4h110l-4 -14l-2 -7h-111l3 17h3zM55 170h109l-6 -21h-108zM169 185h-110l4 20h109v-6h1l-4 -13v-1zM361 189l3 16h110
q-1 -8 -3 -13l-1 -4v-3h-111zM285 477q2 1 5 2t5 2h148q3 -2 6.5 -2.5t7.5 -2.5l-2 -8h-169l-1 9v0zM103 376v2h144q-1 -1 -2 -1t-1 -1h-1q-3 -5 -5.5 -8.5t-4.5 -5.5h-127l-3 5q0 1 0.5 2t0.5 3v4h-1zM372 232l1 7h112l-4 -19h-114l3 12h2zM70 232l1 7h110l-4 -19h-111
l3 12h1zM388 308v1h116l-2 -12h1l-3 -6h-115l1 6h1q1 3 1 6t1 5h-1zM380 264l2 10h112l-3 -10l-1 -4v-4h-113l2 8h1zM87 309h115v-1h-1l-6 -17h-111l1 6h2l2 11h-2v1zM391 342v1h114v-1l4 -4q-1 -2 -1 -6q0 -1 -0.5 -1t-0.5 -1h1l-1 -4h-117v4h1q1 5 1 12h-1zM79 264l2 10
h109v-3l-5 -15h-109l2 8h1zM97 343h120l-1 -1h-8l5 -9q-3 -3 -4 -7h-116l1 4q1 2 1 3.5t1 3.5q0 2 1 3v3zM387 376q-1 0 -1 2h127l1 -2h-3v-4q0 -2 -2 -10h-119q0 3 -0.5 5t-0.5 4v5h-2v0zM197 481h25l16 -13h-49v13h8zM174 468h-50l18 13h24h8v-13zM401 -4q-1 0 -1 1h4
l-1 -1h-2zM226 443l1 -1l1 1h-2z" />
    <glyph glyph-name="o" unicode="o" 
d="M64 43q-14 10 -27 24h134q23 -13 56 -13q31 0 60 13h148q-20 -14 -37 -24h-334v0zM110 9q-12 5 -33 23h304q-31 -19 -47 -24h-216l-8 1v0zM480 447q3 -3 6 -6.5t7 -7.5h-138l1 10h-58l1 -10h-132l-3 12q1 0 5 2h311v0zM461 101q-5 -5 -10.5 -11.5t-10.5 -11.5h-134
q8 6 13.5 11t10.5 8q2 2 3 4h128v0zM145 101q2 -3 3.5 -6l3.5 -7q2 -3 3.5 -5.5t3.5 -4.5h-124q-7 7 -15 14.5t-8 8.5h133zM485 136q-2 -5 -6 -10.5t-9 -11.5h-124l3 3q4 5 7 10t5 9h124v0zM499 162q-2 -6 -5 -13h-125l2 2q1 2 3 8t3 7h1l2 4h124q-2 -2 -3 -4zM22 131
q-1 0 -1 1t-0.5 1.5t-0.5 2.5h118v-3h1q1 -4 2 -9l2 -10h-117q-2 4 -3 12l-1 1v4v0zM19 166q0 1 -0.5 1.5t-0.5 2.5h120v-21h-120q-2 6 -3 10.5t-1 6.5h5v0zM430 468h-194l-1 10q3 1 5.5 1.5t5.5 1.5h178l9 -3zM517 205q-2 -4 -3.5 -8l-4.5 -12h-125l9 20h124v0zM21 199
q0 3 1 6h120q0 -4 -0.5 -7t-0.5 -6q-1 -3 -1 -7h-122q0 3 0.5 6.5t0.5 7.5h2v0zM145 220h-123l6 19h122v-1zM521 220h-122l3 8q0 3 1 4l2 7h122v-1zM50 309h126v-1h-3l-5 -11h18l-6 -6h-135q2 4 4 6l-2 3zM34 264l3 10h126q-2 -2 -2.5 -3t-1.5 -2l-1 -1q-2 -2 -2.5 -5
t-2.5 -7h-124q0 3 0.5 5t0.5 3h4zM532 267q-1 -3 -3 -11h-123q1 4 1 8h1q1 2 1.5 5t1.5 5h120l2 -2q-1 -1 -1 -5zM535 291h-120v2v16h123q0 -1 1 -1h-3zM65 336q1 2 2 3.5t2 3.5h125q-3 -5 -6 -9t-5 -8h-125l2 4h8l-3 6v0zM536 326h-120v4h2q-1 5 -1 13h122q0 -1 1 -1h-6v-4
t1 -8h2zM91 376l1 2h126q-3 -5 -6 -9t-6 -7h-114l-5 8q1 2 2 3t2 3zM120 409q2 2 4 3h139l-4 -2h-8q-9 -9 -12 -13h-115l-4 12v0zM526 378q1 -3 2 -7t3 -9h-117q-1 4 -3 14h-2l-1 2h118v0zM512 410q1 -6 5 -13h-118l-5 13h-6q-1 0 -3 2h125l2 -2v0zM219 -14q-36 0 -77 11
h160q-46 -11 -83 -11z" />
    <glyph glyph-name="p" unicode="p" 
d="M-7 -125q1 2 1.5 8t2.5 11h113l-5 -21v-1h3l-2 -6h-3l-1 -7h2l-2 -6t-2 -5v-2v-2l-1 -5h1l-3 -9q-1 -2 -1 -5q-2 -8 -3 -19q-1 -3 -1.5 -5.5t-1.5 -5.5h-1q-1 -1 -1 -2t-1 -3h1q-2 -8 -3 -15t-2 -15h-112l-9 10q2 6 3 10.5t3 9.5h9l-4 5h-3q1 1 1 3q2 6 4.5 12.5
t4.5 14.5h4l-3 4q0 1 1 1h-1q2 10 8 29h4l-3 3q1 2 1 4v1q0 1 0.5 1t0.5 1t0.5 2.5t0.5 3.5zM439 54q-7 -7 -13 -11h-389l6 24h177q9 -5 20.5 -6.5t23.5 -1.5q11 0 22 1.5t22 6.5h148q-5 -4 -9 -7zM246 438q8 6 11 9h261l14 -14h-403q1 4 1.5 7t1.5 7h118q-1 -1 -1 -2t-1 -2
h-6l4 -5v0zM180 8q-5 4 -12 10t-15 14h253q-25 -18 -41 -24h-185zM51 97v4h138q1 -2 1.5 -5t2.5 -5h1q2 -5 11 -13h-159zM464 78h-137q7 4 14 9.5t15 13.5h128l-4 -4l-4 -4q-7 -9 -7 -10zM5 -82l2 10h110l-6 -27h-113q0 1 0.5 1t0.5 1v1h2q1 2 1.5 5t2.5 6v3zM119 -63h-110
l6 26h113q-2 -7 -5 -14.5t-3 -9.5v-1zM59 133l1 3h121v-8t2 -10h1v-4h-131l4 19h2zM492 114h-126q4 5 8.5 10t7.5 9h3l-1 3h122q0 -1 -0.5 -1.5t-0.5 -1.5h2q-2 -2 -4.5 -6t-7.5 -10zM292 397h-172l4 15h203q-6 -2 -7 -2h-11zM18 -28q2 5 4 11.5t4 11.5v2h108l-6 -23l-1 -2
h-109v0zM33 28l1 4h109l-6 -24h-108zM513 149h-123q2 3 4 7l5 10h3l-1 3v1h122q-1 -2 -1 -4zM538 205l-4 -10l-4 -10h-122q1 3 1.5 6.5t2.5 7.5h5l-1 3v3h122v0zM67 162l1 8h114v-3q0 -2 -0.5 -7.5t-0.5 -10.5h-118zM548 239q-1 -10 -5 -19h-123q2 3 4 9q1 4 1 6t1 4h122v0z
M257 366q-1 -2 -3 -4h-141l3 16h151l-2 -2h-14l6 -10v0zM76 199l1 6h110q-1 -6 -3 -20h-113l2 14h3zM555 266q0 -2 -0.5 -4.5t-0.5 -5.5h-124l4 18h122q0 -3 -0.5 -4.5t-0.5 -3.5zM478 468h-170l-1 9q2 1 5 2t5 2h150q3 -2 6 -2.5t7 -2.5zM559 291h-121l1 5v1v12h121v-1h-1
v-17zM109 342v1h129l-1 -1h-9l6 -9q-2 -2 -2.5 -3.5t-2.5 -3.5h-124l1 4zM102 308v1h118v-1h-1l-6 -17h-117l2 6h2zM192 220h-112l3 12h1l1 7h110l-2 -6zM560 326h-120v4h2l-1 2q-1 0 -1 1v5v5h128q0 -1 1 -1h-9v-16zM542 410q0 -1 3 -4.5t8 -8.5h-134q-2 2 -4 5t-5 8h-7
q-3 0 -7 2h157l2 -2h-13v0zM91 264l2 10h112l-3 -10h2l-3 -8h-112zM555 375q0 -2 1 -5t3 -8h-122q-1 2 -2.5 6t-4.5 10h142l2 -2h-20q0 -1 1 -1zM267 -14q-32 0 -65 11h135q-41 -11 -70 -11zM-24 -245h106q-1 -4 -1 -13q-21 4 -36 6.5t-22 2.5q-14 0 -39 -5zM214 481h26
l16 -13h-51v13h9zM188 468h-50l17 13h24h9v-13z" />
    <glyph glyph-name="q" unicode="q" 
d="M332 -112q0 2 2 6h112l-5 -21v-1h3l-2 -6h-3l-1 -7h2l-2 -6t-2 -5v-1v-1v-2l-1 -5h1q-4 -10 -5 -14h1q-2 -8 -3 -19q-1 -3 -1.5 -5.5t-1.5 -5.5h-2q0 -1 -0.5 -2t-0.5 -3h1q-2 -8 -3 -15t-2 -15h-113l-9 10q2 6 2.5 10.5t2.5 9.5h9l-3 5h-4q1 1 1 1.5t1 1.5q2 6 4 12.5
t4 14.5h4l-3 4v1q2 5 3.5 12.5t4.5 16.5h6l-3 4v3v3l1 1v1q0 1 1 1q2 5 2.5 9t1.5 7zM370 43h-279l-2 2q-10 10 -19 22h140l2 -2q16 -6 35 -6q11 0 22 1.5t22 6.5h196l-6 -24h-108v2zM578 443l5 -10h-399q7 5 11 8.5t7 5.5h261q2 -2 2 -2.5t-2 1.5q0 -2 5 -9q0 7 1 10h117
q0 -2 -2 -4h-6zM354 32q-23 -17 -38 -24h-182q-14 7 -31 24h251v0zM310 78q15 8 31 23h155l-4 -23h-182v0zM373 136h131l-6 -22h-145q4 4 7.5 9t7.5 10h6zM341 -82l2 10h110l-6 -27h-112l2 6t3 8zM455 -63h-110l6 26h113q-2 -7 -5 -14.5t-3 -9.5v-1zM184 101q2 -4 4 -9
t5 -10q3 -3 5 -4h-127q-2 5 -4.5 10.5t-5.5 12.5h123zM354 -28q2 5 4 11.5t4 11.5v2h108l-6 -23l-1 -2h-109v0zM57 136h119v-17l2 -1q0 -3 1 -4h-122v6q-1 5 -3 13h3v3zM509 149h-129q2 4 4 6v1l7 14h122l-1 -4h1l-2 -4zM369 28l1 4h108l-6 -24h-107zM53 149q1 6 1 11t1 10
h120v-21h-122v0zM576 403q-1 -2 -1 -3t-1 -3h-160l-9 13h-12q-2 0 -6 2h192v-2h-8l5 -7v0zM57 199q0 1 0.5 2.5t0.5 3.5h123q-1 -5 -1.5 -10t-1.5 -10h-124q0 2 0.5 4l1.5 6v4h1v0zM186 220h-125l6 19h122l-2 -11zM410 205h112l-4 -20h-119l7 14h6l-3 5zM567 376
q-1 -5 -1.5 -8t-1.5 -6h-134l-3 6t-4 10h149v-2h-5v0zM74 264q1 4 1 6t1 4h123l-3 -10q-1 -1 -1 -8h-127q0 3 0.5 5t0.5 3h5v0zM85 308v1h128l-7 -18h-123l2 6h2l4 11h-6zM97 342l1 1h137l-11 -17h-128q0 1 2 3l1 1q3 5 4.5 8t3.5 4h-10zM155 410l2 2h160q-4 -2 -6 -2h-9
l-17 -13h-140l12 13h-2zM428 468h-168l-2 10l9 3h149q4 -2 7 -3t7 -3zM419 232q0 2 1 3.5t1 3.5h109l-4 -19h-111l4 12v0zM555 326h-120v9q0 1 -0.5 3t-0.5 5h125q-1 -4 -2 -7l-2 -6h2zM123 376l2 2h136l-2 -2h-12l5 -8q-1 -2 -2 -3t-2 -3h-132q5 5 8 8.5t5 5.5h-6zM545 297
q-1 -1 -1 -6h-112l1 4l1 14h115l-4 -12v0zM429 274h110l-4 -18h-109zM227 -14q-35 0 -71 11h136q-35 -11 -65 -11zM310 -245h108q-1 -4 -1 -13q-21 4 -36 6.5t-22 2.5q-15 0 -40 -5zM550 481h25l16 -13h-50v13h9zM524 468h-50l17 13h33v-13z" />
    <glyph glyph-name="r" unicode="r" horiz-adv-x="333" 
d="M364 397h-261l3 15h262v-2h-1zM222 436q3 3 5.5 6t4.5 5h147l-2 -4h-12l4 -10h-257q0 5 3 14h111q0 -2 -2 -4h-6l4 -7v0zM14 43q2 4 2.5 9.5t2.5 14.5h113q-1 -2 -1.5 -6t-2.5 -9q-1 -2 -1 -4.5t-1 -4.5h-112v0zM14 32h110v-24h-109l3 18zM24 78q1 4 2 9.5t3 13.5h111
l-4 -23h-112v0zM39 136h109l-3 -22h-110zM251 376q-5 -4 -8.5 -7.5l-6.5 -6.5h-142l4 16h159q-2 -2 -4 -2h-2v0zM47 166l1 4h109l-6 -21h-110l4 17h2zM161 185h-109l4 20h109l-1 -6h1l-4 -13v-1zM87 330l2 13h129q-4 -5 -7 -9.5l-5 -7.5h-120l1 3v1zM64 232l2 7h108l-4 -19
h-111l3 12h2zM81 308v1h114v-1h-5l4 -5q-1 -2 -1.5 -3.5t-1.5 -3.5q-2 -4 -2 -5h-115l1 6h5l2 11h-1zM73 271v3h109v-3l-4 -15h-111q0 3 0.5 5t0.5 3h4zM389 468h-117l-1 7q4 2 14 6h111zM169 468h-48l17 13h24h7v-13zM190 481h25l16 -13h-47v13h6zM324 376l-4 2h39v-2h-35
v0zM95 -4q-1 0 -1 1h4l-1 -1h-2z" />
    <glyph glyph-name="s" unicode="s" horiz-adv-x="389" 
d="M298 67q-9 -8 -17 -13.5t-15 -10.5h-282l-1 4l2.5 5t8.5 15h104q0 -1 1 -1q15 -7 35 -7q9 0 19 1.5t21 6.5h124v0zM250 32q-14 -10 -23.5 -15.5t-16.5 -8.5h-203q-6 3 -12 7l-9 6l-1 11h265v0zM338 232l2 -12h-244q-9 6 -22 19h250q2 -4 5 -7h9zM307 259l3 -3h-254
q-3 2 -7 8h11q-1 2 -2 4.5t-2 5.5h222l-2 -10h19zM172 188l-12 4t-17 7l1 6h199l5 -20h-167l-9 3v0zM383 447q-2 -4 -4 -7.5t-4 -6.5h-256l-2 9q7 3 8 3.5t2 1.5h256v0zM220 296q4 -2 7 -3l6 -2h-181v18h135q2 -1 2.5 -1t2.5 -1l-3 -10h26l5 -1v0zM337 149h-108v1q-3 4 -7 9
t-8 11h125v-4h4l-6 -16v-1zM316 101q-3 -6 -7.5 -11.5t-9.5 -11.5h-109q9 6 15 11.5t9 9.5l1 2h101v0zM331 131q-2 -2 -4 -7l-4 -10h-101l2 2q0 4 0.5 10t0.5 7h3v3h105l-2 -5v0zM336 468h-158l-1 10l9 3h150v-13zM163 341q0 -4 4 -15h-115v4h4v6l2 7h105v-1h-2l2 -1v0z
M168 367q-1 -1 -1 -2t-1 -3h-103q2 3 3.5 6.5t3.5 7.5h-7l1 2h106l-2 -2h-5l5 -9v0zM76 85q2 -3 8 -7h-84q2 3 3.5 6.5t3.5 8.5l3 8h55q2 -5 11 -16zM189 400q-1 -1 -1 -1.5t-1 -1.5h-107l12 15h115l-4 -2h-20l6 -10v0zM111 -14q-44 0 -79 11h150q-38 -11 -71 -11zM282 410
q-1 0 -3 2h84q0 -1 -1 -2h-4q-2 -5 -2.5 -8t-1.5 -5h-62q-2 2 -3.5 5t-3.5 8h-3v0zM57 123q0 -3 2 -9h-46v10l44 -1v0zM311 378h30l-2 -2h-26z" />
    <glyph glyph-name="t" unicode="t" horiz-adv-x="278" 
d="M43 12q-7 6 -15 20h199l-5 -24h-167l-12 4v0zM22 43q-2 5 -4.5 11t-5.5 13h121l2 -4q12 -9 31 -9q5 0 24 3.5t40 9.5h4l-5 -24h-207v0zM45 447h269l-1 -11v-3h-266l-3 6l1 1v7zM15 101h114v-14q0 -2 0.5 -4.5t0.5 -4.5h-115v23zM132 130q-1 -5 -1.5 -8.5t-0.5 -7.5h-111
l4 22h111q-1 -1 -1 -2.5t-1 -3.5zM32 170h109l-3 -21h-112l4 17h2v4zM39 188l4 17h108l-4 -20h-109l1 2v1zM50 233q0 3 1 6h107l-3 -19h-108q1 3 2 5.5t2 4.5l-1 3v0zM61 274h108l-4 -18h-108zM69 297l2 12h109v-1h-2l-4 -11q-1 -1 -1 -6h-108l2 6h2zM59 412h253v-2h-105
q-2 -5 -4 -13h-108l3 13h-38zM79 330l2 13h109v-1h-1q-2 -2 -2.5 -5.5t-1.5 -6.5h1l-2 -4h-109l1 4h3zM90 378h108l-4 -16h-108zM113 477l1 4h116v-4h-6l-3 -9h-111zM248 543l-2 -4h-119l4 12h121q-1 -1 -1 -2v-6h-3v0zM120 510l1 6h120v-6h-3l-3 -6h-116zM163 585h78
l11 -11h-108v4zM128 -14q-16 0 -30 3t-27 8h126q-18 -5 -36 -8t-33 -3z" />
    <glyph glyph-name="u" unicode="u" 
d="M441 67q-2 -8 -3 -24h-377q-5 5 -9 11t-9 13h398v0zM91 10q-8 4 -21 22h245q-27 -19 -37 -24h-176l-11 2v0zM443 78h-185q24 6 44 22l1 1h146v-2zM172 92q8 -9 20 -14h-147q-2 5 -3 11t-3 12h128q2 -2 2.5 -4.5t2.5 -4.5zM336 136h121l-3 -22h-138l10.5 10.5t7.5 8.5h3z
M323 32h117l-10 -22v-2h-112zM160 121q0 -3 2 -7h-120q0 5 0.5 9.5t0.5 9.5v3h115q0 -5 2 -15zM353 166l1 4h113l-5 -21h-119l1 2t3.5 8t3.5 7h2zM161 166q-1 -1 -1 -17h-114q1 5 1 10t1 7h2v4h111v-4v0zM167 185h-114l3 14h3l1 6h110l-2 -5zM363 200q1 0 1 1q0 2 1 4h110
l-4 -20h-113q2 4 3 7.5t3 5.5l-1 2v0zM373 239h110l-4 -19h-112zM174 220h-111l3 12h2l1 7h108v-7h1zM488 256h-111l5 18h109l-2 -10h1zM497 297q-1 -1 -1 -6h-110l2 6l2 12h113v-1h-2l-4 -11v0zM77 264l2 10h108l-5 -18h-110l2 8h3zM192 291h-110l2 6h2l2 12h110v-1h-2z
M507 326h-113l1 4h2l3 13h112v-1h-2l-2 -12h1zM205 338q-1 -2 -1.5 -4t-2.5 -8h-110l1 4h2l3 13h109v-1h-5l4 -4v0zM406 376v2h114l-4 -16h-111l2 14h-1zM211 362h-107v4v3.5t1 6.5v2h108v-2h-4l4 -7zM528 405q0 -5 -1 -8h-115l3 7v8h114v-2h-4l3 -5v0zM224 403q-1 -2 -1 -3
t-1 -3h-113l3 15h112q0 -1 -1 -2h-4l5 -7v0zM424 447h115l-4 -14h-114zM234 436q-1 -2 -1 -3h-115q1 4 3 14h113q-1 -1 -1 -2t-1 -2h-2l4 -7v0zM188 -14q-33 0 -68 11h135q-36 -11 -67 -11zM494 481h32l17 -13h-49v13zM199 481h24l17 -13h-49v13h8zM177 468h-49l18 13h31
v-13zM478 468h-47l18 13h29v-13z" />
    <glyph glyph-name="v" unicode="v" horiz-adv-x="500" 
d="M129 114q-1 5 -1.5 9.5t-0.5 9.5v3h195l-5 -8q-4 -4 -9 -14h-179v0zM135 88q-2 3 -2.5 6.5t-1.5 6.5h168q-5 -8 -9 -13.5t-6 -9.5h-149v10v0zM137 67h140l-15 -24h-122zM240 149h-115q-1 5 -1.5 9.5t-0.5 11.5h112l3 -20zM232 199l1 -14h-112q-1 4 -1.5 9.5t-1.5 10.5
h112q0 -4 1 -6h1zM226 220h-111q-1 4 -1 7v5q-1 2 -1 3.5t-1 3.5h112q1 -2 1 -3t1 -2v-14zM219 291h-116q0 2 -0.5 3t-0.5 3h2l-2 11l-1 1h114v-6zM220 256h-112v11q0 1 -0.5 3t-0.5 4h111q2 -6 2 -7v-11zM213 326h-115q0 3 -0.5 7t-0.5 9h-1l-1 1h117q0 -2 0.5 -4t0.5 -4
v-9zM207 376l1 -14h-116q-1 4 -1.5 8t-1.5 8h121q0 -1 1 -2h-4zM170 32h85l-15 -24h-69zM331 149h-88l2 2q7 12 10 15h1l2 4h87l-3 -4h1zM205 410q0 -3 0.5 -6t0.5 -7h-120l-3 15h124q0 -2 1 -2h-3v0zM356 185h-92q5 5 9 10l8 10h85l1 -2q-1 -2 -3 -4h2zM202 438q-2 -2 0 -5
h-122q-1 3 -1 12h-6v2h127v-4h-2l4 -5v0zM388 236q-2 -4 -4.5 -7.5t-5.5 -8.5h-87q7 9 13 19h82l2 -3v0zM431 296q-2 -2 -2.5 -3t-1.5 -2h-91q2 2 2.5 3t2.5 3h1l6 11h-2l1 1h90l-1 -1h-5l4 -5q-1 -2 -2 -3.5t-2 -3.5zM402 256h-87q2 2 3 4l2 4q2 2 3 5t3 5h88l-9 -15z
M457 333q-1 0 -2.5 -2.5t-3.5 -4.5h-95l3 4q2 4 4.5 7t4.5 6h92l-1 -1h-8l6 -9v0zM510 410q-2 -4 -4.5 -7.5t-4.5 -5.5h-98l9 15h100l-1 -1q-1 0 -1 -1zM482 376q-2 -4 -4 -7.5t-4 -6.5h-82l-4 11q0 -1 2 5h98q-1 -1 -1 -2h-5v0zM523 433h-92l-3 7q1 1 1.5 2t1.5 2l-11 1
l2 2h114q-1 -2 -3 -4h-4zM147 481h53v-13h-53v13zM141 32h29v-24h-26zM129 468h-54l18 13h36v-13zM505 481h19l18 -13h-41v13h4zM490 468h-39l21 13h18v-13z" />
    <glyph glyph-name="w" unicode="w" horiz-adv-x="778" 
d="M605 149h-184v21h105v-4h3v-5q2 5 4 5l2 4h81l1 -2l-2 -2h2zM235 170h80q-5 -7 -5 -9q-1 -1 -3.5 -4.5t-5.5 -7.5h-182q-1 6 -1.5 10.5t-0.5 6.5h1v3v1h108v-1v-3.5t2 -6.5q1 2 2.5 4t2.5 3h4zM123 114q-1 6 -3 22h175q-3 -5 -7 -11t-7 -11h-158v0zM424 124
q-1 2 -1.5 4.5t-0.5 7.5h174l-5 -8q-4 -4 -9 -14h-158v10v0zM126 78l-2 10t-1 13h149l-3 -6q-1 -1 -3.5 -6.5t-4.5 -10.5h-135v0zM427 88q-2 5 -2 7.5v5.5h149l-15 -23h-132v10v0zM332 342l1 1h177v-17h-182l2 4h9l-4 8q1 2 3 4h-6zM129 47q-1 7 -3 20h129q-4 -6 -7.5 -11.5
t-6.5 -12.5h-112v4v0zM428 43q-2 7 -3 24h127l-15 -24h-109v0zM508 362h-161q4 5 6.5 8.5t4.5 7.5h150v-16zM132 8q-2 6 -2 12t-1 12h104q0 -1 -0.5 -1.5t-0.5 -1.5l-11 -21h-89v0zM222 203q0 -2 0.5 -4.5t4.5 -13.5h-111q-2 8 -2 12v6v2h108v-2v0zM526 185h-105v6l-3 3v4
t-1 7h105q1 -2 1 -6h3v-14zM520 220h-107q-2 4 -3 12h5q0 2 -0.5 3.5t-0.5 3.5h105q0 -1 1 -1v-18zM218 220h-107v19h106q0 -1 1 -1v-18zM507 397h-131l-3 6q1 2 2 3.5t2 3.5l2 2h130q0 -2 1 -2h-3v-13zM98 308v1h113v-18h-109l-1 6h2q-1 4 -1 9v2h-4zM105 274h109l3 -18
h-109zM515 297v-6h-111v6h1l-1 12h107l1 -12h3zM519 256h-108l-3 18h107l1 -10h3v-8zM98 335q0 1 -0.5 3t-0.5 5h113v-17h-112v9v0zM93 362q0 1 -1 4.5t-2 9.5h-1v2h119v-10v-6h-115zM206 397h-118v15h121q0 -1 1 -2h-4v-13zM640 203q-3 -4 -6 -8.5t-7 -9.5h-90l20 20h82
l1 -2v0zM207 433h-124q-1 3 -0.5 6.5t0.5 7.5h124v-14zM664 239q-4 -5 -7 -10t-6 -9h-85l6 12h8l-2 5l1 2h85v0zM455 32h75l-15 -24h-59zM257 205h77q-2 -5 -3 -6h3q-2 -4 -4.5 -7.5t-4.5 -6.5h-81q3 5 6 14h9l-3 5zM703 296q-1 -2 -1.5 -2.5t-1.5 -2.5h-90l4 6h2q2 5 3 7
l2 4h-2v1h91v-1h-7l4 -5q-1 -2 -2 -3.5t-2 -3.5zM506 438q-1 -1 -1 -5h-114q2 2 3 5t3 5h-14l4 4h118v-4h-3l4 -5v0zM596 267q1 3 3 7h88l-12 -18h-85q4 6 5 8h3l-2 3v0zM728 333q-2 -2 -3 -3.5t-2 -3.5h-93q3 5 6 9t5 7h-5l1 1h97v-1h-12l6 -9v0zM276 237l1 2h81
q-4 -5 -6.5 -9t-2.5 -5q-1 -2 -0.5 -2.5t-1.5 -2.5h-81q2 3 3.5 6.5t3.5 5.5h6l-3 5v0zM749 362h-98q4 5 6.5 8.5t4.5 7.5h97l-1 -2h-11l5 -8zM313 297l6 12h83l-1 -1h-8l4 -5q-2 -3 -3.5 -6t-3.5 -6h-83l3 6h3zM293 264l5 10h75l3 -4l-3 -6h4q-4 -6 -6 -8h-83q1 2 2 3.5
t2 3.5zM771 397h-95l9 15h99q0 -1 -1 -2h-4zM796 433h-93l-2 4q0 4 2 6h-11l4 4h111l-4 -4h-1zM149 481h55v-13h-55v13zM131 468h-51l18 13h24h9v-13zM465 481h40v-13h-41v13h1zM764 468h-47q4 4 4.5 5t1.5 2l16 6h21h4v-13zM453 468h-45q4 4 4.5 5t1.5 2l18 6h13h8v-13z
M429 26v6h26v-24h-7zM779 481h16l12 -13h-33v13h5zM110 264q0 7 -0.5 5t-1.5 -5h2v0zM197 -4q-2 0 -2.5 0.5t0.5 0.5h3l-1 -1v0z" />
    <glyph glyph-name="x" unicode="x" horiz-adv-x="500" 
d="M126 185l12 10l12 10h179q0 -3 3 -6h2l5 -14h-213v0zM150 309h211q0 -1 -1 -1l-18 -17h-188l-4 6h7l-6 11h-1v1zM280 32h135l3 -5l10 -19h-138zM268 62q-2 2 -3 5h133l12 -24h-134l-3 8l-5 11v0zM382 101q3 -6 7 -11.5t9 -11.5h-138q-4 8 -7 14.5t-4 8.5h133zM-42 18
q-5 4 -10 7.5t-8 6.5h146l-7.5 -7.5t-9.5 -7.5q-3 -3 -4.5 -5.5t-3.5 -3.5h-113l10 10v0zM240 128q-2 2 -4 8h126q1 -1 1 -1.5t1 -1.5h2l3 -8q2 -3 3.5 -6t3.5 -5h-131q-2 3 -2.5 6.5t-2.5 7.5zM179 232l7 7h128q1 -2 1.5 -3.5t1.5 -3.5h1l5 -12h-157q4 3 7 6.5t5 5.5h1z
M8 67h111l-24 -24h-112zM355 154q0 -1 2 -5h-127l-9 21h124l7 -14l3 -2v0zM177 258q-3 3 -11 16h156q-14 -12 -14 -15q-1 -1 -1 -2v-1h-129l-1 2v0zM20 78q6 5 12.5 11.5l11.5 11.5h107l-23 -23h-108v0zM84 136h96q-1 -1 -1 -1.5t-1 -1.5h3l-18 -18q-1 -1 -2 -1h-103l19 19
h8zM265 341q1 -1 2 -3t1.5 -4t2.5 -4l1 -4h-129l-2 4v1l1 -1q-1 2 -3 5t-4 7h-2l-1 1h132q0 -1 1 -1h-1q0 -1 1 -1zM113 166l3 4h100l-22 -21h-100l7 7l11 10h1zM249 373v3h-1q1 -1 1 -3q1 -2 2 -5t3 -6h-129l-7 14h-1l-1 2h133l2 -2h-2l1 -3h-1zM237 406q0 -2 1 -4.5
t2 -4.5h-132l-7 14q-1 0 -1 1h137q0 -2 1 -2h-2q0 -3 1 -4zM221 446q0 -3 5 -13h-139q-2 3 -2.5 6.5t-2.5 7.5h137q0 -1 1 -1h1v0zM289 342l1 1h107q0 -1 -1 -1h-18l3 -12h1l-1 -1l1 -2q-1 -1 -2 -1h-105q5 5 10.5 9t9.5 7h-6zM312 362q5 5 9.5 8.5t8.5 7.5h107q-2 -2 -3 -2
h-18l6 -12l-2 -2h-108v0zM362 410l2 2h112l-2 -2h-23l5 -13h-105l12 13h-1zM395 444l3 3h117q-3 -3 -7 -4h-19l4 -10h-108l11 11h-1zM212 481q0 -5 2 -13h-63v13h6h55v0zM132 468h-56l17 13h39v-13zM469 468h-51l12 12l5 1h30h4v-13zM482 481h23l8 -13h-31v13zM305 -9l1 6
h13zM400 -4q-2 0 -3 0.5t-2 0.5h5v-1v0zM35 -4q-1 0 -1 1h4l-1 -1h-2zM144 327h-1h1z" />
    <glyph glyph-name="y" unicode="y" horiz-adv-x="500" 
d="M367 166q-2 -2 -5 -6.5t-8 -10.5h-197q-1 5 -1 10.5v6.5l-2 4h114l3 -20q3 5 5.5 9t4.5 7h9l-2 4h79q-1 -2 -3 -4h3v0zM345 136q-5 -7 -9 -12.5t-7 -9.5h-165q0 2 -0.5 4.5t-0.5 5.5q-2 3 -3 12h185v0zM310 85q-2 -4 -5 -7h-135q-2 7 -3 14t-1 9h156l-12 -16v0zM-4 -224
q2 3 4.5 6.5t5.5 7.5h104q-4 -6 -5 -9l-4 -8l-6 -9q-2 -2 -3 -4h-86l-9 13h-3zM133 -175q-5 -8 -10 -15.5t-10 -14.5h-102l3 3l16 19l2 4t3 4h98v0zM144 -161q-3 -3 -7 -9h-97q3 3 5 4q3 6 5.5 9.5t5.5 7.5l6 8h93q-4 -5 -7 -10t-5 -10h1v0zM291 60q-2 -3 -6 -8.5t-6 -8.5
h-104l-3 19q-1 1 -1 4v1h125l-5 -7v0zM162 -131q-1 -1 -1 -1.5t-1 -1.5h-92l5 6h1l13 17q0 1 2 5h90q-3 -4 -6 -8.5t-6 -9.5q0 -1 -0.5 -1.5t-0.5 -1.5h-1l-1 -1h1l-2 -2l-1 -1v0zM187 -96q-2 0 -3 -3h-91q1 3 3 3h3q3 5 7.5 11.5t9.5 12.5h87q-5 -7 -9.5 -12.5t-7.5 -11.5
h1v0zM263 199l2 -14h-113q-1 3 -1 6t-1 8h1l-2 6h113q0 -2 1 -3v-3zM211 -62q-1 0 -1 -1h-88v1h1q4 5 8.5 12t8.5 13h85l-1 -2l-17 -23h4v0zM257 239q1 -4 2 -8.5t3 -10.5h-116q-2 10 -2 12h2q-1 2 -1 7h112v0zM273 32q-2 -4 -6.5 -11t-9.5 -13h-84q4 6 5 7q-1 5 -1 9.5v7.5
h96v0zM251 291h-119l-2 6h4v2q-1 2 -2 4.5t-2 4.5h-1v1h117q0 -1 0.5 -1t0.5 -1v-1q0 -5 1 -9h3v-6zM232 -26q-2 0 -2 -2h-82q4 5 5.5 8t3.5 6t8 11h84q-4 -4 -4 -5q-3 -3 -11 -18h-2v0zM252 272q0 -2 0.5 -6.5t2.5 -9.5h-114q-2 4 -2 10q-1 2 -3 8h116v-2v0zM243 326h-118
q-1 2 -1 4h4q-2 8 -2 13h116q0 -2 0.5 -4t0.5 -4v-9zM238 378q1 -3 1 -7t1 -9h-118q-1 3 -1 7t-1 9h118v0zM115 411l-1 1h122l1 -2h-2v-13h-119v7q-1 1 -1 2v5v0zM110 433q0 3 -0.5 6.5t-0.5 7.5h120v-3l2 -2q0 -2 -0.5 -4.5t0.5 -4.5h-121v0zM377 185h-82q2 2 4 5.5t5 8.5
h9l-2 6h80l-4.5 -7.5t-2.5 -3.5zM330 237l1 2h84l-12 -19h-86l9 12h7zM462 308q-4 -7 -5.5 -11t-3.5 -6h-89q1 2 2 3t2 3h9l-4 8q1 1 1.5 1t1.5 2h-2v1h92q0 -1 -1 -1h-3v0zM565 447q-3 -4 -5.5 -7.5t-4.5 -6.5h-100l-2 4q1 2 1 3t2 3h-12l4 4h117v0zM429 257q0 -1 -1 -1
h-86l5 8h7l-3 6l2 4h84q-2 -3 -2.5 -5.5t-1.5 -4.5h1q-1 -1 -5 -7zM518 378q-14 -14 -15 -16h-84l-4 11q0 -1 2 5h101v0zM477 326h-92l2 4t5 7t5 6h90l-1 -1h-12l6 -12zM537 410q-3 -4 -5 -7.5t-4 -5.5h-94l-1 3q1 6 5 12h101q-1 -1 -1 -2h-1v0zM174 481h55v-13h-55v13z
M157 468h-51l18 13h24h9v-13zM10 -245h80l-3.5 -7t-1.5 -5q-13 3 -23.5 5.5t-17.5 2.5q-8 0 -14.5 -1t-13.5 -3zM516 468h-47q4 4 4.5 5t1.5 2l18 6h14h9v-13zM534 481h17l12 -13h-34v13h5z" />
    <glyph glyph-name="z" unicode="z" horiz-adv-x="500" 
d="M-58 9q3 2 10 8.5t16 14.5h444q-1 -4 -1 -24h-84l-293 1v-1h-43l1 1h-50v0zM-19 43q8 8 15 14.5t10 9.5h410v-1l6 -9q-1 -1 -1 -14h-440v0zM513 433h-384l-3 6q1 1 1 3v5h401v-4h-5zM168 92l-6 -6t-7 -8h-136q8 8 15 14t9 9h134l-9 -9v0zM204 127q-2 -2 -5.5 -6t-6.5 -7
h-136l19 19h8l-1 3h131l-9 -9v0zM96 153l7 7t7 6l4 4h128l2 -4l-17 -17h-135l4 4v0zM278 201q-3 -4 -6.5 -7.5l-8.5 -8.5h-138q6 5 11.5 10t10.5 10h128l3 -4v0zM302 225q-1 -2 -2 -2.5t-3 -2.5h-139q5 5 11.5 9.5t11.5 9.5h135l-14 -14v0zM476 397h-137l13 13h-210l-1 2
h351zM370 291h-135l18 18h134l-16 -17zM218 274h134l-19 -18h-133zM285 341l2 2h134l-17 -17h-134l4 4h14zM304 468h-172l14 13h158v-13zM452 376q-6 -6 -12 -14h-116l-4 14h-2l2 2h137l-2 -2h-3v0zM442 481h90l-1 -13h-110v13h21zM408 78h-94v1h9q17 2 38 3.5t43 3.5z
M23 -3q-12 0 -27 -1t-26 -2l5 3h48v0zM391 -5q-11 1 -22.5 1.5t-22.5 0.5h47l-2 -2v0z" />
    <glyph glyph-name="braceleft" unicode="{" horiz-adv-x="333" 
d="M43 -62q-3 12 -6 25h103l1 -1q7 -4 14 -4h54l-4 -21h-182l-1 1h21v0zM73 -99q-18 10 -39 27h169l-4 -22h-1l-2 -5h-123v0zM141 -3q-1 -1 -1 -4q-1 -5 -1 -10.5v-10.5h-99v10.5t2 14.5h99v0zM59 67h97l-6 -24h-97zM143 8h-99q0 2 1 4l2 4l4 16h96l-4 -21v-3zM158 274
q5 -4 9.5 -8.5l9.5 -9.5h-139l4 18h116v0zM69 101h96l-5 -23h-98zM173 296q-4 -4 -6 -5h-121l6 18h139l-1 -1h-22l5 -12v0zM171 114h-99l4 22h98v-3h1l-2 -5zM183 166q0 -2 -0.5 -7t-1.5 -10h-103l4 17h3l1 4h98l-1 -4v0zM188 185h-100q0 5 0.5 9t0.5 5h3q1 2 1 5v1h94v-6h6
zM187 220h-94v1l-3 3q-1 2 -3 5t-6 10h99q1 -3 3 -7h4v-12zM328 611q-2 0 -3.5 -0.5t-3.5 -0.5h-134l10 10h180v-9h-49v0zM209 330q-2 -2 -3 -4h-121q8 2 11 4h6q9 9 12 13h106v-1h-17l6 -12v0zM231 368q-2 -2 -3 -6h-100q2 4 3.5 7.5t3.5 8.5h103v-2h-12l5 -8v0zM240 397
h-98l3 13v2h97v-2h-1zM221 645q1 1 2 3l3 6h152l-1 -9h-156v0zM248 433h-98l4 14h98zM255 468h-95l3 9v4h97l-1 -4h-1zM274 539h-96l3 12h101l-1 -8h-6zM265 504h-96l3 12h97l-1 -6h-1zM284 574h-99v11h104q-2 -6 -2 -8h-2zM122 -114q-14 0 -35 8h108l-2 -8h-71v0zM389 681
h-104v1q5 1 11.5 1.5t15.5 0.5h85z" />
    <glyph glyph-name="bar" unicode="|" horiz-adv-x="333" 
d="M99 -205h-92l3 11h2l4 19h91l-4 -19h-2zM108 -170h-90l2 9h1l3 11l2 9h89l-1 -5zM116 -134h-89l2 6h1l5 22h88l-5 -21zM5 -210h93l-3 -14v-12h-97zM125 -99h-88l1 3l5 24h89l-5 -22h-1v-2zM47 -62l5 25h88l-6 -26h-89l1 1h1zM141 -28h-87l7 25h88l-6 -23h-1zM70 32h88
l-6 -24h-88zM78 67h88l-6 -24h-88zM87 101h88l-6 -23h-88zM179 114h-90l7 22h87v-3h1zM188 149h-89l4 21h89l-1 -4h1l-2 -4zM111 199l1 6h89l-4 -20h-91l3 14h2zM119 232l1 7h88l-2 -19h-91l3 12h1zM126 264l2 10h90l-4 -18h-90zM223 291h-90l5 18h90v-1h-2zM231 326h-89
l1 4h1l3 13h90v-1h-2zM240 362h-88l3 16h90v-2h-2zM249 397h-89l3 15h89v-2zM170 443l1 4h89l-3 -14h-87l2 10h-2zM181 479v2h88l-3 -13h-89zM283 539h-87l1 4l2 8h88zM274 504h-87l3 12h87l-1 -6h-1zM294 574h-89l1 3l1 8h91v-8h-3zM211 610l1 10h91l-3 -10h-89zM314 645
h-92l1 9h92l-1 -2v-7zM229 689h94v-8h-96zM324 716h-87l1 6h87z" />
    <glyph glyph-name="braceright" unicode="}" horiz-adv-x="333" 
d="M141 -62q-1 0 -2 -1h-186v1h1l4 20h47q7 0 19 5h109q-2 -2 -2 -4q-2 -5 -4.5 -9.5t-4.5 -9.5h-3q0 -1 -0.5 -1t-0.5 -1h23v0zM86 -94q-3 -2 -5.5 -2.5t-5.5 -2.5h-130l6 27h173q-15 -8 -27 -15q-2 -3 -6 -7h-5v0zM137 -26q-1 0 -1 -2h-100q2 4 4 10t6 15h98q-1 -4 -2 -7
t-2 -7l-2 -9h-1v0zM65 67h96l-5 -24h-97zM147 8h-97q0 1 3 7l4 17h96v-2zM163 274h120l-5 -18h-142q3 2 9 8h21zM75 101h96l-6 -23h-97zM287 291h-110q-4 4 -9 8.5t-10 9.5h134l-3 -12zM177 114h-100l4 22h99v-3l-1 -5zM91 166v4h98l-4 -21h-101l4 17h3zM201 205l-4 -10
l-4 -10h-98l5 14q0 2 2 6h99v0zM230 239q-5 -5 -9.5 -10t-8.5 -9h-103l4 6l4 6h9l-3 7h107v0zM249 329l4 -2t5 -1h-117q-3 1 -4 4h13l-2 6t-2 7h95q1 -4 8 -14zM128 611v9h163v-10h-108q-2 0 -3 0.5t-3 0.5h-49zM240 374q-1 -3 -1 -12h-94v14h-7l1 2h102v-2h-3l2 -2v0z
M149 399l1 13h98l-3 -15h-97zM283 648q0 -1 0.5 -1.5t0.5 -1.5h-156v9h143l12 -6v0zM253 433h-97l4 10l1 4h96zM261 468h-95l3 13h97l-1 -4h-1zM280 539h-96l3 12h99v-8h-5zM271 504h-96l3 12h96l-1 -6h-1zM277 577l2 -3h-89q1 2 1.5 4.5t2.5 6.5h97v-8h-14zM-58 -114l2 8
h114q-24 -8 -38 -8h-78zM236 681h-81v3h55q10 0 15.5 -0.5t10.5 -1.5v-1z" />
    <glyph glyph-name="asciitilde" unicode="~" horiz-adv-x="606" 
d="M541 264q-4 -4 -10 -8h-456l8 8h2q6 6 9 10h278l-2 -10h55l-2 8l2 2h120l-11 -10h7v0zM250 239h261q-8 -7 -14.5 -11.5t-10.5 -7.5h-204q-2 0 -2 1zM340 291h-236q9 5 16.5 9.5t15.5 8.5h172q2 -2 4 -2l-3 -10h22zM366 185q-21 3 -43 14v6h131l2 -5q-23 -12 -42 -15h-48
v0zM159 230q-3 -2 -6 -4.5t-7 -5.5h-77l-7 19h93l4 -9v0zM562 291h-111q2 2 8 6h1l12 12h61l5 -12h30zM123 193l-6 -8h-33l-7 20h54l-8 -12v0zM256 330q4 -1 7.5 -2t6.5 -2h-99q7 3 12 4h73v0zM526 330l1 -4h-38l4 4h33zM90 170h16q-4 -5 -6.5 -9.5t-3.5 -5.5z" />
    <glyph glyph-name="exclamdown" unicode="&#xa1;" horiz-adv-x="333" 
d="M63 -37h114q-1 -8 -1.5 -14t-1.5 -12h-1q-1 -3 -1 -9v-1q-1 -6 -1.5 -11.5t-1.5 -11.5h1v-1q0 -1 -0.5 -1t-0.5 -1h-127q0 3 2 5l2 7q2 3 2.5 6t2.5 6v2v1h1l2 9l1 1l8 24v1zM28 -141h133v-20h7q-4 -3 -10 -9h-138q-2 2 -2.5 4.5t-2.5 4.5h11q0 7 2 15v5zM34 -128
q2 5 3.5 11t3.5 11h127q-2 -8 -4 -17t-2 -11h-134v4q0 1 1 2h5v0zM52 -205q-14 10 -28 30h129q-5 -3 -8 -8q-5 -5 -8 -11h-7q-5 -3 -9 -6t-9 -5h-60v0zM185 -3q0 -1 -0.5 -2t-0.5 -3q-1 -5 -1.5 -9t-0.5 -9h-2v-2h-115q1 3 2 5l2 4q0 2 1.5 6.5t3.5 9.5h111v0zM189 17
q-1 -3 -1 -9h-110q3 11 8 24h107q-1 -5 -2 -8t-2 -7zM195 55q0 -3 -0.5 -6.5t-0.5 -5.5h-104l4 12l4 12h100zM109 98v3h95q-2 -6 -3 -12t-3 -11h-97q2 5 4 9.5t4 9.5v1zM156 410l1 2h151q0 -1 -0.5 -1t-0.5 -1h-1q-2 -4 -3.5 -7.5t-3.5 -5.5h-137v13h-6zM164 447h160
q1 -3 4 -4h-18v-10h-145q2 2 2.5 4.5t2.5 5.5h-10zM210 133q-2 -5 -3 -9.5t-2 -9.5h-92q1 4 2.5 7.5t3.5 8.5v1q1 0 1 1q0 2 1 4h87v-3h2v0zM212 149h-86q1 2 2 7t3 8v1q0 1 0.5 2t0.5 3h81q-1 -2 -0.5 -2t0.5 -1v-1h2l-3 -8v-9zM187 362q-12 7 -25 16h130q-16 -9 -31 -16
h-74v0zM218 197q-1 -5 -1 -12h-79q1 2 1.5 4t2.5 5q0 2 0.5 4.5t0.5 3.5l1 3h75q-1 -2 -1 -6h1q0 -1 -0.5 -1t-0.5 -1zM226 232q-2 -4 -4 -12h-73l5 12v1l2 6h68q-1 -3 -1 -7h3v0zM189 468q5 4 9.5 7t9.5 6h79q3 -3 6.5 -6t8.5 -7h-113v0zM164 264l3 10h63l-3 -18h-66
q1 2 1 4t1 4h1zM233 291h-65q8 12 10 18h60l-4 -12zM82 -215q-9 0 -21 5h41q-13 -5 -20 -5z" />
    <glyph glyph-name="cent" unicode="&#xa2;" 
d="M444 45q-1 -1 -1.5 -1t-1.5 -1h-333q-7 5 -14 11t-15 13h232v-2q3 0 9 2h136q-1 -4 -1 -7zM157 9q-6 2 -15 8.5t-20 14.5h299q-27 -17 -51 -24h-206l-7 1v0zM403 433h-207q12 7 23 14h332q2 -2 3 -2t3 -1t3 -1l-6 -10h-146l1 10h-3zM200 101q2 -3 4.5 -6.5t5.5 -7.5
q4 -5 12 -9h-138q-3 5 -6 10.5t-6 12.5h128zM71 114q-2 5 -3 9.5t-2 9.5v3h120q1 -5 3 -9.5t5 -12.5h-123v0zM496 468h-206l-2 10l9 3h191q6 -2 10 -3zM63 149q0 5 -0.5 10.5t0.5 10.5h120v-21h-120v0zM65 205h122q0 -8 -1 -10q0 -2 -0.5 -4.5t-0.5 -5.5h-121q0 5 0.5 10.5
t0.5 6.5v3zM70 232l2 7h123v-2l-4 -17h-124v12h3zM189 -91l6 19h87q-2 -8 -4 -13.5t-2 -7.5q-1 -1 -1 -6h-78l-5 5h-4zM188 -3h148q-12 -3 -22.5 -4.5t-19.5 -3.5l-1 -15h-4q-1 0 -1 -2h-79q2 5 3 9.5t3 9.5zM76 264l3 6l2 4h123l-6 -18h-125q1 1 1 1.5t1 1.5v5h1v0zM91 308
v1h127v-1h-3l2 -2q-1 -2 -2 -6.5t-2 -6.5l-2 -2h-124q0 2 2 6h2q2 8 4 11h-4zM285 -62l-1 -1h-86l9 26h79q-1 -5 -2 -12.5t-3 -12.5h4v0zM104 342l1 1h131l-1 -1h-8l5 -9q-2 -5 -4 -7h-126l11 16h-9zM123 362q4 4 7 7.5t6 6.5l2 2h129l-2 -2h-15l5 -10q-1 -2 -3 -4h-129v0z
M463 85q-2 -2 -2 -3.5t-1 -3.5h-105q10 4 19 8t18 9l9 6h69v-1q-2 -3 -3 -5t-2 -5q-2 -4 -2 -5zM237 80l4 21h79l-3 -23h-81zM160 410q1 0 3 2h153l-6 -2h-30l4 -13h-125l12 13h-11zM250 133v3h79l-3 -22h-82l4 19h2zM258 166l1 4h78l-5 -21h-79l3 17h2zM342 185h-79l4 20
h79l-1 -6h1l-4 -13v-1zM274 232l1 7h79l-3 -19h-81l3 12h1zM292 309h81v-1h-1l-3 -17h-81l1 6h2l2 11h-1v1zM283 264l2 10h78l-4 -18h-79l2 8h1zM377 326h-80l1 3v1l3 13h81v-1h-1zM436 412h106l-1 -2h-2l-8 -13h-78q-2 2 -5 5.5t-8 8.5zM386 362h-80l4 16h80v-2h-1z
M319 412h79l-3 -15h-80zM430 539h-80q0 2 1 4h-10q1 2 1.5 4t1.5 4h89v-1zM420 504h-78l4 12h79l-1 -6h-2zM355 585h65l7 -11h-72v11zM204 -106h71v-19q-32 13 -42 13q-5 0 -10 -1l-10 -2zM473 378h47q-2 -4 -2.5 -8t-1.5 -8h-31l-7 14zM466 122l1 -8h-46q10 7 16.5 12.5
t11.5 9.5h2z" />
    <glyph glyph-name="sterling" unicode="&#xa3;" 
d="M-28 56q0 3 0.5 6t0.5 5h475q-2 -5 -3 -9l-2 -8q-1 -3 -1 -7h-475l5 13v0zM-33 32h472v-24h-457v5zM9 94q31 0 53 7h112l-3 -3l-2 -2q40 0 80 1.5t79 3.5h133l-4 -12t-4 -11h-476v16h32v0zM85 342v1h348q-1 -5 -1.5 -9t-0.5 -8h-348q0 5 0.5 8t0.5 4q2 2 2 4h-1zM90 362
q1 5 1.5 8.5t0.5 7.5h337l10 -15v-1h-349v0zM288 610l13 10h306l-4 -4l11 -6h-326zM171 300q0 4 1 9h116v-1h-3q-1 -2 -2 -5.5t-3 -11.5h-113q0 2 0.5 3.5t0.5 2.5h3v3v0zM113 133q0 1 1 1.5t1 1.5h91q-4 -5 -9 -10.5t-12 -11.5h-96q15 10 24 19zM147 199q0 2 0.5 3t0.5 3
h100l1 -2q-2 -3 -5 -8t-5 -10h-98q4 10 6 14zM159 234l1 5h104q-2 -8 -7 -19h-103q2 4 2.5 7t1.5 5h1v2zM165 260q0 10 1 14h110l1 -1q-2 -4 -2.5 -8t-2.5 -7l-1 -2h-107l1 4v0zM124 149l7 10.5t5 6.5l1 4h91l1 -1q-2 -4 -6 -9.5t-8 -10.5h-91v0zM544 653q2 -2 11 -8h-215
q5 2 10 4.5t10 4.5h180l4 -1v0zM302 405q-1 -2 -1 -4t-1 -4h-119q2 10 2 15h117q-1 -1 -1 -2l3 -5v0zM308 433h-120l5 14h116l-1 -4l1 -1q0 -2 -0.5 -3.5t-0.5 -3.5v-2zM201 481h117l-4 -13h-113l-1 2q1 1 3 7h-4zM351 577l1 -3h-96q1 1 1 1.5t1 1.5h-13l10 8h134
q-2 -2 -4.5 -3.5t-5.5 -4.5h-28zM329 543l2 -4h-100q2 3 3.5 6t3.5 6h113q-1 -2 -1.5 -2.5t-1.5 -2.5t-1 -3h-18zM316 510l4 -6h-108q1 4 3 6l3 6h111l-3 -6h-10zM487 585h85l-4 -4t-7 -4l-3 -3h-65v8zM502 551h37l-8 -8h-18zM417 -5q-11 1 -21 1.5t-21 0.5h46l-4 -2v0z
M-18 -3h41q-9 0 -17.5 -0.5t-18.5 -1.5z" />
    <glyph glyph-name="currency" unicode="&#xa4;" 
d="M373 121l-7 -3.5t-6 -3.5h-266q-3 2 -10 9l-12 -9h-89l-4 8l-7 11h1l-1 3h510l2 -3h7l-4 -3l1 -1l-19 -15h-91l-5 7v0zM460 166l12 -17h-485l20 17l4 4h158q2 -2 6 -4h5q26 -8 50 -8q23 0 57 8h28l-1 4h142l3 -4h1zM82 516h490l-15 -12h-183l1 6h-118l1 -6h-169zM332 99
q-21 -8 -40 -13.5t-39 -7.5h-67q-39 5 -73 23h218l1 -2v0zM188 542q3 2 8 4t11 5h243l18 -12h-280v3v0zM459 192q-1 -2 -6 -7h-126q5 2 10 5.5t12 8.5h18l-2 6h107l-13 -13v0zM34 189q-4 6 -7 16h101q3 -4 6 -7.5t7 -8.5q3 -3 5 -4h-117l5 4v0zM497 232l-4 -4t-7 -8h-111
q3 2 7.5 6t7.5 6h8l-3 7h98q-2 -2 -3 -3.5t-2 -3.5h9v0zM18 239h92q1 -9 6 -18l2 -1h-94q-1 1 -1 5l-2 6zM413 264l5 10h95l-9 -18h-97q2 2 2.5 4t2.5 4h1zM521 291h-93l1 2l6 15h-4v1h95q-2 -3 -2.5 -6t-2.5 -6h3zM18 264q-1 4 -1 8v2h88v-6t2 -12h-95l-2 8h8v0zM19 297v12
h85l3 -3q-1 -1 -1 -6q0 -1 -0.5 -3.5t-0.5 -5.5h-88v6h2zM24 342v1h98v-1h-7l-3 -16h-92v4h4l1 12h-1zM533 330q-1 -2 -1 -4h-93l5 9q0 2 0.5 3.5t0.5 4.5h87l-1 -13h2v0zM516 476q0 -2 7 -8h-108l-6 9l-9 3q-2 0 -3 1h132l-5 -4h-9q0 -1 1 -1zM32 362q2 4 3 8t3 8h92l-1 -2
h-7l5 -8l-3 -6h-92v0zM532 443v-3t1 -7h-95q-2 3 -3 10h-1l-3 4h114q1 -3 4 -4h-17v0zM102 481h138q-3 -2 -5 -2.5t-4 -1.5h-33l2 -9h-104l9 9h-1zM537 369q0 -4 -1 -7h-87v7q0 1 -0.5 3t0.5 6h89v-2h-1v-7v0zM141 397h-92q2 4 3.5 7.5t3.5 7.5h97l-2 -2h-2zM71 443l4 4h113
l-6 -4h-18l6 -10h-100q2 2 3.5 5t3.5 5h-6zM535 412q1 -4 1 -7t1 -8h-89l-3 15h90v0zM488 551h80l8 -12h-103zM96 550v1h73l8 -12h-84l1 4h-6zM389 101h63l-27 -23h-18zM-6 101h61l-30 -23h-18zM367 574h-64v7q7 1 14.5 1.5t18.5 0.5q10 0 17 -0.5t15 -1.5zM137 574h-9l9 7
v-7zM536 574h-9l9 7v-7zM530 441l2 2h-3q0 -1 1 -2z" />
    <glyph glyph-name="yen" unicode="&#xa5;" 
d="M469 220h-435l1 11q0 2 0.5 3t0.5 3v2h436q-3 -9 -3 -12v-7zM498 342q-1 -5 -1.5 -9t-0.5 -7h-440q1 5 2 9l2 8h442v-1h-4v0zM500 362h-433q0 8 3 16h421zM481 264q-2 -4 -3 -8h-438q2 4 3 8h159l2 10h113l-2 -10h166v0zM133 8l6 24h130l-8 -16v-8h-128zM149 67h120
q-1 -2 -1 -5t-1 -7v-12h-125q1 2 3 9t4 12v3zM384 397h-179l-5 15h199zM159 101h116q-1 -5 -1.5 -10.5t-1.5 -12.5h-121q2 5 4 9.5t4 11.5v1v1zM278 116q0 -1 -1 -2h-114l5 19v3h116q-1 -1 -1 -3v-1q-2 -4 -3 -7q0 -1 -0.5 -1t-0.5 -1v-2v-4zM288 149h-116l6 21h113l-1 -4h2
q-1 -1 -1.5 -5.5t-1.5 -9.5zM184 189l2 16h114l-4 -20h-113zM322 291h-115l5 18h118v-1h-5zM312 443q1 -3 2 -5.5t2 -4.5h-124q-4 6 -5 10h-4v4h130q1 -2 3 -4h-4v0zM301 474l2 -6h-125l-2 6t-2 7h122q0 -2 1 -3l4 -4v0zM289 510q0 -4 1 -6h-127q-2 3 -2.5 6t-2.5 6h132
l3 -6h-4v0zM277 543q0 -3 1 -4h-125v12h122q1 -2 1 -3.5t1 -2.5q0 -2 1 -2h-1v0zM264 585q1 -2 1.5 -5t2.5 -6h-130l-9 11h135v0zM255 620q1 -3 1.5 -5t1.5 -5h-136q-3 5 -5 10h138v0zM367 481h96l-13 -13h-96zM425 443q-2 -3 -4 -5.5t-4 -4.5h-80l-4 9l1 1h-5l4 4h96l-4 -4
v0zM239 652q1 -1 3 -7h-130l-2 6l-3 3h130zM516 543q-1 -2 -3 -4h-94v1q2 2 3.5 4.5t5.5 6.5h99q-6 -6 -10 -8h-1v0zM446 577q0 1 2 2l2.5 2.5l3.5 3.5h107l-11 -11h-101v1l1 2h-4v0zM392 509q2 2 2 3t2 3l1 1h98l-12 -12h-89l-2 5v0zM587 610h-110q2 3 4 5.5t4 4.5h107z
M515 654h112l-10 -9h-111zM447 192q-14 0 -27.5 0.5t-27.5 1.5v11h68l-13 -13v0zM100 194q-14 -1 -28.5 -1.5t-27.5 1.5v11h55l1 -11v0zM590 681q4 1 9.5 2t17.5 5l4 -7h-31v0zM192 682q7 1 13 1.5t14 2.5l3 -5h-30v1v0zM152 681h-30l6 4q2 -1 9 -1.5t15 -1.5v-1zM555 685
q5 -2 8.5 -2.5t6.5 -1.5h-31l16 4v0zM234 -4q-2 0 -2 0.5t-1 0.5h5l-2 -1v0z" />
    <glyph glyph-name="brokenbar" unicode="&#xa6;" horiz-adv-x="333" 
d="M115 -134h-88l6 28h89l-4 -21h-1zM37 -94l5 22h88l-5 -22l-1 -5h-89l1 3h1v2zM50 -42l1 5h87l-5 -25l-1 -1h-88l1 1v2zM140 -28h-88l6 18l2 7h87l-6 -23zM77 67h87l-6 -24h-87zM68 32h87l-5 -24h-87zM81 80l4 21h88l-3 -23h-90zM93 133v3h89l-3 -22h-92l4 19h2zM102 166
l1 4h88l-6 -21h-89l4 17h2zM21 -161l4 20h88l-4 -20h-88zM230 326h-89l4 17h90v-1h-1zM239 362h-89l3 16h90v-2h-1zM162 412h89l-3 -15h-90zM195 185h-88l4 14h88zM256 433h-88l4 14h88zM263 468h-85l3 13h87l-1 -4h-1zM195 543l2 8h89l-3 -12h-88l1 4h-1zM273 504h-87l3 12
h88l-1 -6h-1zM205 585h91l-4 -11h-88l1 3h-2zM305 610h-92l1 10h91v-10zM219 654h88l-1 -9h-88zM136 308v1h90v-1h-90z" />
    <glyph glyph-name="section" unicode="&#xa7;" horiz-adv-x="500" 
d="M-22 -47l5 10h110q24 -11 57 -11q23 0 48 11h120q-10 -8 -18.5 -14t-16.5 -12h-313zM-3 -88q-4 3 -9.5 6.5t-11.5 9.5h294q-11 -8 -19.5 -13t-14.5 -9h-6l1 -2q-3 -1 -7 -3h-209q-4 3 -8 4v1h-4l-6 6v0zM392 185h-289q-5 4 -10.5 9t-11.5 11h239l-1 -6h8q1 2 5 6h70l3 -4
l-2 -2h3zM372 165q1 -4 1.5 -8t2.5 -8h-209q-16 7 -38 19v2h248l-5 -5v0zM110 412h293l24 -15h-332zM59 239h198l-1 -7h20q3 -2 8.5 -6t9.5 -6h-228q-3 3 -5.5 6t-5.5 6h8zM382 121q0 -5 1 -7h-137q-9 5 -19.5 10t-21.5 10v2h175v-3h2v-12v0zM436 376q2 -2 5.5 -6t7.5 -8
h-213q-4 2 -5 3l2 11h-23q-2 0 -4 2h252l3 -2h-25v0zM343 433h-205q2 2 4.5 4t4.5 4q-1 2 -1 3t-1 3h191q6 -2 10 -3zM54 264q-2 4 -2 10h136q4 -2 8 -4.5t9 -5.5h3l10 -5h-1q2 -1 3.5 -1.5t3.5 -1.5h-173l-4 8h7v0zM451 342q0 -4 0.5 -7.5t1.5 -8.5h-147q-7 3 -20 16h-13
q-2 0 -2 1h197q0 -1 1 -1h-18v0zM382 96q-1 -5 -1 -9.5t-1 -8.5h-99q0 1 -0.5 1.5t-0.5 2.5l-2 2q-1 2 -5 6l-11 11h120v-5v0zM319 -28h-96l-1 3q7 5 13.5 10.5t13.5 11.5h93l-7 -7t-6 -7q-2 -4 -7 -9h-1zM488 654q2 -8 4 -9h-266l10 9h252v0zM281 49l2 18h95l-12 -24h-87z
M260 8q2 3 5 7t6 9l4 8h87q-5 -9 -10 -16l-4 -8h-88zM-13 -26q1 2 3.5 8.5t4.5 14.5h64l1 -2l1 -1q4 -6 20 -22h-94v2v0zM452 306q0 -5 -3 -15h-98q-2 4 -5 8t-6 9h-5q-1 0 -1 1h122q0 -1 1 -1h-5v-2v0zM55 309h94q2 -3 4.5 -6.5t5.5 -8.5q1 -1 2 -1.5t2 -1.5h-111v6
q0 5 3 11v1zM280 468h-139v13h128q0 -1 1 -1q3 -2 5.5 -3.5t6.5 -3.5zM115 -121q-20 0 -41 4t-41 11h171q-22 -7 -44.5 -11t-44.5 -4zM440 258q0 -1 -0.5 -1t-0.5 -1h-83q1 2 1 2.5t1 2.5v13h86l1 -1q-2 -4 -2.5 -8t-2.5 -7zM422 224q-2 -2 -2 1.5t-2 -5.5h-75l6 12l4 7h74
l2 -3q-4 -6 -7 -12zM61 333q1 2 1.5 4t1.5 4v2h83l-2 -8t-1 -9h-88v4h7l-2 3v0zM74 376l2 2h90l-2 -2h-2q-2 -4 -3.5 -7.5t-3.5 -6.5h-73l-5 8l3 6h-6zM242 510q1 -3 6 -6h-105v12h96v-3q3 -2 3 -3zM434 688q2 -1 3 -1t3 -1l9 -5h-166q7 3 13 5q2 1 5 1.5t5 1.5h124l4 -1v0z
M189 610q0 2 1.5 4.5t3.5 5.5h125l-12.5 -5l-12.5 -5h-105zM260 574h-94l1 3h-10l4 4l4 4h106zM-1 8q3 15 7 24h30l16 -13q0 -3 2 -11h-55v0zM239 539h-87q1 2 1.5 5t2.5 7h87l-2 -8h-2v-4zM386 616q-4 1 -8 4h114l-2 -10h-95v1q-3 1 -9 5zM411 585h68q-2 -3 -3.5 -6
t-3.5 -5h-56q0 1 0.5 1.5t0.5 1.5h-2zM421 547q-2 2 -2 4h45v-4h-43v0z" />
    <glyph glyph-name="dieresis" unicode="&#xa8;" horiz-adv-x="333" 
d="M1 620h137v-1v-9h-141zM188 620h137v-1v-9h-141zM201 654h124v-9h-128zM14 654h124v-9h-127zM197 585h108q-2 -2 -3.5 -4t-3.5 -4h-90zM11 585h107q-4 -6 -6 -8h-90zM86 689q9 -1 24 -8h-61q8 3 16.5 5.5t16.5 2.5h4v0zM272 689q11 -2 24 -8h-60q8 3 16 5.5t16 2.5h4v0z
" />
    <glyph glyph-name="copyright" unicode="&#xa9;" horiz-adv-x="750" 
d="M107 43q-8 5 -17 11t-19 13h152q18 -6 37.5 -8.5t39.5 -2.5q39 0 81 11h160q-8 -5 -18.5 -12t-18.5 -12h-397v0zM162 9q-11 5 -38 23h359q-26 -14 -55 -24h-258l-8 1v0zM193 149q-6 5 -19 21h129l-1 -4h99v4h103q-2 -8 -2 -12l-12 -9h-297v0zM718 543l2 -4h-90l-2 4
l-3.5 3.5l-3.5 3.5l-11 -11h-316v3q2 2 9 4.5t10 4.5h412q6 -8 8 -8h-15zM261 114q-11 4 -23.5 9.5t-25.5 12.5h253l1 -3q-14 -6 -28.5 -10.5t-28.5 -8.5h-148v0zM267 649q2 1 4.5 2t5.5 3h343l12 -9h-373zM584 100q-5 -4 -12 -9.5t-17 -12.5h-140q20 8 38 16q6 4 11 7h119
l1 -1v0zM68 80q-3 3 -6.5 8.5t-8.5 12.5h106q9 -8 18 -13l18 -10h-123q-1 0 -1 1l-3 1v0zM620 135q-5 -5 -10 -10.5t-12 -10.5h-114q10 6 16 10t12 9q2 2 4 3h103l1 -1v0zM153 205h108q2 -3 4.5 -5.5t4.5 -5.5q6 -6 13 -9h-121q-7 6 -9 14h3zM34 134q0 1 -0.5 1t-0.5 1h92
q1 -1 1 -1.5t1 -1.5q4 -4 7.5 -8.5t10.5 -10.5h-100q-3 5 -6 9.5t-6 9.5h1v1zM555 170h95l-17 -21h-101q2 2 8 6zM144 232q-2 4 -2 7h102q2 -8 4 -14q2 -4 3 -5h-105l-4 12h2v0zM662 185h-94l2 2l3 3q2 2 3 4.5t3 4.5l6 6h86l2 -3l-3 -3h4zM22 164q-2 0 -2 6h85l2 -4h1
q3 -9 9 -17h-89q-3 7 -6 16v-1v0zM139 308v1h103l-1 -18h-102v6h1v11h-1zM140 256q-1 5 -1 14v4h100q1 -4 1 -10h1v-8h-101v0zM291 -17q-47 0 -97 14h197q-53 -14 -100 -14zM148 343h99v-8l-3 -9h-104l1 4h3zM14 196l-2 9h82q2 -5 3 -10t3 -10h-83q-1 3 -1 8l-1 1
q0 -2 -0.5 -1t-0.5 3zM156 376l1 2h104l-1 -2q-4 -10 -5 -14h-101q0 3 0.5 6t1.5 7v1v0zM690 229q-1 -2 -2 -4.5t-3 -4.5h-88q3 5 6 9.5t7 9.5h80l3 -4q0 -2 -1 -3t-1 -2t-1 -1zM209 614q2 1 4.5 2.5t5.5 3.5h173l-38 -10h-150q5 2 5 4zM171 412h105l-7 -15h-104zM550 686
q3 -1 8 -2.5t9 -2.5h-222q7 2 13 3.5t9 2.5l-1 -1q2 0 4 1t5 2h162l4 -1q1 0 9 -2zM8 232v7h79q0 -2 0.5 -3.5t0.5 -3.5h1q0 -4 2 -12h-83q-2 10 -2 12h2zM538 610q-4 2 -9.5 3t-9.5 3q-2 1 -6.5 1.5t-7.5 2.5h162l14 -10h-143zM719 291h-83q1 1 1 2t1 3l1 1q5 10 6 11v1h84
v-1h-4zM341 510l2 -6h-102l15 12h160l-30 -6h-45zM706 260q-1 -2 -3 -4h-82q4 6 5 8h4l-2 6q1 1 1 4h81q-2 -5 -3 -9t-1 -5zM182 443l4 4h112l-4 -4h-15l6 -10h-102q2 2 3 5t3 5h-7zM9 264q0 3 -0.5 5t-0.5 3v2h78v-10h1v-8h-79v8h1v0zM8 308v1h80v-9q-1 -2 -1 -9h-79v6h2
q0 2 0.5 5t0.5 6h-3zM731 326h-82l2 4q1 5 1.5 6.5t1.5 3.5t1 1t1 1h4v1h75q-1 -4 -2 -7.5t-2 -5.5h2zM163 577q5 5 9 8h124l-4 -2l-1 -1l-10 -5h-1q-2 -1 -2.5 -1.5t-2.5 -1.5h-111l-1 3v0zM208 477l5 4h119q-2 -1 -2.5 -2t-2.5 -2h-25l4 -9h-99l9 9h-8zM18 341l11 2h73v-1
h-6l-5 -16h-77q0 1 0.5 2t0.5 2h1zM25 376l1 2h83l-1 -2h-1l-4 -14h-75l-4 6q0 1 1 3t2 5h-2zM125 540l4.5 4.5t5.5 6.5h108q-1 -1 -2 -1q-2 -2 -3.5 -3t-3.5 -3l-1 -1h-1l-4 -4h-103v1v0zM740 374q-2 -6 -2 -12h-77v9q0 1 0.5 3t0.5 4h80v-2h-4l2 -2v0zM116 397h-82l7 15
h84v-2h-3zM510 185h-86q14 6 28 14h15l-2 6h38l3 -6h6l-3 -9l2 -4zM700 577q0 -1 1 -1q0 -2 2 -2h-99q-1 1 -1 3h-6q-5 3 -12 8h114l8 -8h-7v0zM664 412h79v-15h-79v15zM76 477l3 4h92q0 -2 -0.5 -2t-1.5 -2h-5q-2 -2 -3 -4.5t-2 -4.5h-89zM202 516q-3 -3 -5.5 -6t-5.5 -6
h-95l9 12h97v0zM665 433q-1 4 -1 14h79v-14h-78v0zM731 510l1 -6h-86q-2 3 -2.5 6t-2.5 6h90l3 -6h-3zM476 516h115l-3 -3l-5 -9h-69q-2 2 -4 6h-13zM53 443l2 4h89q-1 -2 -3 -4h-16q0 -4 4 -10h-68l-4 9v1l-3 -5q0 1 2 5h-3zM727 477l4 -9h-72q-1 3 -1.5 6.5t-1.5 6.5h82
l1 -4h-12zM455 583q12 0 23 -0.5t21 -1.5l-1 -7h-81v7q8 1 17.5 1.5t20.5 0.5zM539 481h34l-2 -4h-25zM147 342v1h1z" />
    <glyph glyph-name="ordfeminine" unicode="&#xaa;" horiz-adv-x="324" 
d="M-5 397q-3 6 -6 15h302l-2 -15h-37v4l-1 -4h-256v0zM13 378h274v-2h-30l1 -14h-68q-11 5 -25 14h-37l2 -14h-96l2 14h-18zM297 610h-234l1 10h233v-10zM277 646v-1h-191l21 9h156zM293 543l-2 -4h-123v9q5 1 8.5 1.5t7.5 1.5h111q0 -1 -0.5 -2t-0.5 -2v-4h-1v0zM92 447
q-2 -5 -3 -8.5t-1 -5.5h-98q1 3 1 6t1 8h100v0zM101 468h-101l-1 2q1 2 2.5 4.5t3.5 4.5l1 2h116l-4 -2l-4 -2h-7zM257 433h-90l-2 9q6 4 6 3v2h90l-1 -4h-1zM37 512q2 1 4 1.5t4 2.5h98v-12h-104l-2 8v0zM277 504h-90l2 6h-18l-1 6h115v-6h-7zM268 468h-90l3 9l1 4h90
l-1 -4zM295 574h-92q1 3 3 11h98q2 -6 3 -8h-12v-3zM62 577v8h49q-1 -2 -1.5 -3.5t-1.5 -2.5q-1 -2 -2 -2h-44zM293 433h-5q4 2 6 4z" />
    <glyph glyph-name="guillemotleft" unicode="&#xab;" horiz-adv-x="500" 
d="M331 362l13 14h-32l-14 -14h-104l16 16h276l4 -2h-41l-13 -14h-105zM139 101h91l10 -23h-94l-5 14zM276 101h91l10 -23h-94l-4 14zM217 133l8 -19h-91l-8 22h90zM354 133l8 -19h-91l-8 22h90zM210 154l2 -5h-92l-7 21h90l2 -4h2zM348 154l2 -5h-92l-7 21h89l2 -4h2z
M145 309h104l-18 -18h-103zM282 309h104l-18 -18h-103zM105 264l10 10h98l-15 -18h-103l5 8h5zM334 185h-91l-7 20h91zM243 264l9 10h98l-15 -18h-102l4 8h6zM197 185h-91l-6 20h90zM175 342l1 1h105l-13 -13h2l-4 -4h-105l4 4h1l11 12h-2zM314 343h104l-13 -13h2l-4 -4
h-105l4 4h1l11 12h-1zM88 239h89v-4q0 -2 1 -3h2l4 -12h-91l-3 11v1zM225 239h89v-4q0 -2 1 -3h2l4 -12h-91l-3 12zM358 63q-5 -2 -14 -7t-19 -13h-28l-9 24h69l1 -4v0zM221 63q-13 -3 -33 -20h-28l-9 24h69l1 -4v0zM295 412q6 -5 23 -15h-90l13 15h54v0zM432 412
q6 -5 23 -15h-89l13 15h53v0zM302 32h11l-8 -8zM165 32h10q-2 -3 -7 -8z" />
    <glyph glyph-name="logicalnot" unicode="&#xac;" horiz-adv-x="606" 
d="M68 343h518l-4 -17h-518zM77 378h517l-4 -16h-516zM60 308v1h519v-1h-3l-3 -17h-90l2 6l3 11h-428zM445 136h88l-3 -22h-89zM453 166l1 4h89l-4 -21h-92l4 17h2zM461 199l1 6h89l-3 -20h-91l3 14h1zM469 232l1 7h89l-4 -19h-89zM479 274h89l-4 -18h-89z" />
    <glyph glyph-name="registered" unicode="&#xae;" horiz-adv-x="750" 
d="M107 43q-8 5 -17 11t-19 13h152q18 -6 37.5 -8.5t39.5 -2.5q39 0 81 11h160q-8 -5 -18.5 -12t-18.5 -12h-397v0zM162 9q-11 5 -38 23h359q-26 -14 -55 -24h-258l-8 1v0zM620 135q-5 -5 -10 -10.5t-12 -10.5h-113q2 1 3 2t3 2q-14 3 -22 3q-11 0 -19 -1t-15 -3l-21 10
q-2 1 -6 9h211l1 -1v0zM584 100q-5 -4 -12 -9.5t-17 -12.5h-17l2 -4h-122q2 1 3.5 1.5t3.5 2.5h-10l20 8t20 9l1 1q2 2 4 2.5t4 2.5h119l1 -1v0zM267 649q2 1 4.5 2t5.5 3h343l12 -9h-373zM227 330l3 13h226q-1 -1 -2 -1h-44q4 -7 7 -13q0 -1 2 -3h-194l1 4h1zM538 551
q2 -2 5 -4.5t8 -7.5h-276l3 12h260v0zM68 80q-3 3 -6.5 8.5t-8.5 12.5h106q9 -8 18 -13l18 -10h-123q-1 0 -1 1l-3 1v0zM505 170q5 -5 10 -10.5t10 -10.5h-122l-9 21h103q3 -5 3 0h5v0zM384 191q-1 2 -3 5.5t-4 8.5h106q0 -3 3 -6h4q2 -10 3 -14h-107l-2 6v0zM34 134
q0 1 -0.5 1t-0.5 1h92q1 -1 1 -1.5t1 -1.5q4 -4 7.5 -8.5t10.5 -10.5h-100q-3 5 -6 9.5t-6 9.5h1v1zM484 376l4 -14h-128l-1 16h154q-2 -2 -3 -2h-26zM182 167q0 2 1 3h96q-1 -2 -1 -4v-1h1q-1 -1 -1 -4v-5.5t-1 -6.5h-100l4 17h1v1v0zM555 170h95l-17 -21h-101l8 6z
M363 234q-1 1 -1 2t-2 3h106q4 -7 12 -19h-109q-3 5 -4 8zM225 121q-5 0 -14.5 -2t-23.5 -5h-18l5 22h99v-22h-11q-14 3 -23 5t-14 2zM322 308l-1 1h108q2 -3 4.5 -7.5t6.5 -10.5h-108q-1 2 -1 3t-1 3h1l-7 11h-2v0zM351 256q-5 7 -10 18h104l6 -10h2q1 -2 1.5 -4t1.5 -4
h-105v0zM193 202q0 -1 0.5 0t0.5 3h92q-2 -5 -2.5 -10t-1.5 -10h-96q1 4 3 14h6l-2 3v0zM662 185h-94l2 2l3 3q2 2 3 4.5t3 4.5l6 6h86l2 -3l-3 -3h4zM22 164q-2 0 -2 6h85l2 -4h1q3 -9 9 -17h-89q-3 7 -6 16v-1v0zM291 -17q-47 0 -97 14h197q-53 -14 -100 -14zM203 232
q0 2 1 3.5t1 3.5h88l-1 -7h3q-3 -7 -4 -12h-93q2 3 3 6t2 5v1v0zM14 196l-2 9h82q2 -5 3 -10t3 -10h-83q-1 3 -1 8l-1 1q0 -2 -0.5 -1t-0.5 3zM690 229q-1 -2 -2 -4.5t-3 -4.5h-88q3 5 6 9.5t7 9.5h80l3 -4q0 -2 -1 -3t-1 -2t-1 -1zM209 614q2 1 4.5 2.5t5.5 3.5h173
l-38 -10h-150q5 2 5 4zM220 297l2 12h88l-3 -18h-93l1 6h5zM213 271v3h88v-5l-4 -13h-87q0 2 2 6zM550 686q3 -1 8 -2.5t9 -2.5h-222q7 2 13 3.5t9 2.5l-1 -1q2 0 4 1t5 2h162l4 -1q1 0 9 -2zM8 232v7h79q0 -2 0.5 -3.5t0.5 -3.5h1q0 -4 2 -12h-83q-2 10 -2 12h2zM538 610
q-4 2 -9.5 3t-9.5 3q-2 1 -6.5 1.5t-7.5 2.5h162l14 -10h-143zM525 410l6 -13h-109q5 5 9.5 8t8.5 7h103l-2 -2h-16zM719 291h-83q1 1 1 2t1 3l1 1q5 10 6 11v1h84v-1h-4zM565 510l1 -6h-105l-3 6h-8q-13 4 -26 6h150l3 -3l3 -3h-15zM706 260q-1 -2 -3 -4h-82q4 6 5 8h4
l-2 6q1 1 1 4h81q-2 -5 -3 -9t-1 -5zM323 362h-88l4 16h90v-2h-2zM9 264q0 3 -0.5 5t-0.5 3v2h78v-10h1v-8h-79v8h1v0zM8 308v1h80v-9q-1 -2 -1 -9h-79v6h2q0 2 0.5 5t0.5 6h-3zM731 326h-82l2 4q0 6 3 9q0 1 0.5 1t1.5 3h78v-1v-1l-1 -6q-2 -4 -2 -5h2zM247 412h89l-3 -15
h-89zM558 435q-1 -1 -1 -2h-101q2 4 3.5 7.5t3.5 6.5h85l10 -12v0zM163 577q5 5 9 8h124l-4 -2l-1 -1l-10 -5h-1q-2 -1 -2.5 -1.5t-2.5 -1.5h-111l-1 3v0zM18 341l11 2h73v-1h-6l-5 -16h-77q1 1 1 4h1zM567 477q0 -7 -1 -9h-96v13h103l1 -4h-7v0zM25 376l1 2h83l-1 -2h-1
l-4 -14h-75l-4 6q0 1 1 3t2 5h-2zM125 540l4.5 4.5t5.5 6.5h108q-1 -1 -2 -1q-2 -2 -3.5 -3t-3.5 -3l-1 -1h-1l-4 -4h-103v1v0zM740 374q-1 -2 -1 -5t-1 -7h-77v9q0 1 0.5 3t0.5 4h80v-2h-4l2 -2v0zM116 397h-82l7 15h84v-2h-3zM257 447h88q-1 -2 -1 -4h-1l-3 -10h-87z
M269 504q0 2 0.5 4.5t2.5 7.5h135l-22 -2t-21 -3l-3 -7h-92v0zM718 543l2 -4h-89l-2 4q-4 2 -10 8h106q6 -8 8 -8h-15zM700 577q0 -1 1 -1q0 -2 2 -2h-99q0 1 -0.5 1.5t-0.5 1.5h-6q-5 3 -12 8h114l8 -8h-7v0zM357 481q-2 -4 -2.5 -7.5t-2.5 -5.5h-90l3 13h92v0zM664 412h79
v-15h-79v15zM76 477l3 4h92q0 -2 -0.5 -2t-1.5 -2h-5q-2 -2 -3 -4.5t-2 -4.5h-89zM202 516q-3 -3 -5.5 -6t-5.5 -6h-95l9 12h97v0zM665 433q-1 4 -1 14h79v-14h-78v0zM731 510l1 -6h-86q-2 3 -2.5 6t-2.5 6h90l3 -6h-3zM53 443l2 4h89q-1 -2 -3 -4h-16q0 -4 4 -10h-68l-4 9
v1l-3 -5q0 1 2 5h-3zM727 477l4 -9h-72q-1 3 -1.5 6.5t-1.5 6.5h82l1 -4h-12z" />
    <glyph glyph-name="macron" unicode="&#xaf;" horiz-adv-x="333" 
d="M16 610l1 10h300v-10h-301zM22 654h297l-1 -9h-297zM8 585h297l-2 -8h-297z" />
    <glyph glyph-name="degree" unicode="&#xb0;" horiz-adv-x="400" 
d="M76 397q-4 3 -7.5 6.5l-8.5 8.5h235q-14 -10 -22 -15h-197v0zM80 610q1 1 5.5 3.5t11.5 6.5h235l13 -9v-1h-265v0zM312 649q3 -3 5 -4h-178q5 3 9 5t7 4h147l8 -3l2 -2v0zM49 433l-2 6t-3 8h92q5 -3 9.5 -6.5t10.5 -7.5h-107v0zM305 443l4 -10h-94l-2 9q2 1 4.5 2t5.5 3
h100l-2 -4h-16zM354 577l2 -3h-75v3h-6q-2 3 -3.5 4.5t-2.5 3.5h101l8 -8h-24zM66 574q5 10 6 11h99q-1 0 -1 -1q-2 -1 -5.5 -3.5t-5.5 -3.5h-1l-3 -3h-86v1l-1 -1h-2v0zM328 477l5 -9h-82q4 3 7 6.5t6 6.5h85v-4h-21zM116 481q0 -7 0.5 -9t1.5 -4h-77v13h75v0zM49 539l2 4
l4 8h80q-2 -3 -3.5 -5t-1.5 -3h-2l-2 -4h-77v0zM351 543l2 -4h-67v12h80q1 -4 4 -8h-19zM41 504q0 2 0.5 5t0.5 7h75q-1 -2 -1 -6h-3v-6h-72v0zM343 510l4 -6h-71q4 8 5 12h77v-6h-15zM99 378h141q-4 -2 -5 -2h-126z" />
    <glyph glyph-name="plusminus" unicode="&#xb1;" horiz-adv-x="606" 
d="M-6 64v3h518l-3 -24h-520zM-20 8l6 24h515l-5 -24h-516zM53 309h518l-3 -18h-519zM345 256h-91v1h-220l225 16v1h285v-17h-199v-1zM514 78h-519v9h216l4 14h89l-4 -14h215zM574 326h-517l1 4h216l3 13h90v-1h-2l-2 -12h212zM310 114h-90l4 22h89v-3h3l-5 -15zM233 166v4
h89l-3 -21h-92l4 17h2zM241 199l1 6h89l-4 -20h-91l3 14h2zM249 232l1 7h88l-3 -19h-89l3 11v1zM370 362h-88l3 14v2h89v-2h-1zM293 412h89l-3 -15h-90zM387 433h-88l3 14h89zM312 481h86l-3 -13h-87zM389 504h-53v12h79z" />
    <glyph glyph-name="twosuperior" unicode="&#xb2;" horiz-adv-x="333" 
d="M261 274q-1 -5 -1 -9t-1 -9h-303l5 18h300v0zM-11 308q1 0 1 1h284q-4 -6 -6.5 -10.5t-4.5 -7.5h-297l1 6h27l-5 11v0zM199 613q-9 0 -22 -3h-105l10 10h250l10 -10h-126q-9 3 -17 3zM32 341q1 0 3 2h98l-1 -1l-19 -14h46.5t47.5 2h81q-1 -2 -3 -4h-274q2 1 3.5 1.5
t3.5 2.5l18 -1l-4 12v0zM296 654l4 -4t6 -5h-195l6 3q2 1 3 2q2 0 6 4h170v0zM79 377l1 1h99q-1 -1 -2 -1t-1 -1h-2q-5 -4 -8.5 -7.5t-7.5 -6.5h-74l-5 15v0zM121 411l2 1h101l-2 -2h-3q-4 -4 -7.5 -7t-7.5 -6h-80l-3 14v0zM247 433h-87l-2 11l1 1l2 2h102l-4 -4h-2z
M187 476q0 1 1 2t2 3h107l-13 -13h-94l-3 7q1 1 1.5 2t1.5 2l-3 -3v0zM312 510l-1.5 -3l-1.5 -3h-103l7 12h109v-6h-10v0zM225 539l3 12h105q-2 -3 -2.5 -6t-2.5 -6h-103v0zM333 574h-101v11h108q2 -2 2.5 -4t2.5 -4h-12v-3zM106 574h-5l1 3h-32l-1 8h69q-2 -2 -6 -8h-26v-3
z" />
    <glyph glyph-name="threesuperior" unicode="&#xb3;" horiz-adv-x="333" 
d="M119 309h129v-1h-15l4 -11q-3 -2 -7 -6h-256l9 18h76q1 -1 3 -1l-3 -11h62zM9 256q-6 2 -11.5 4.5t-10.5 4.5l2 9h189l2 -11q-5 -2 -10.5 -3.5t-10.5 -3.5h-150v0zM208 610q-11 3 -19 3q-11 0 -21 -3h-112q3 2 6 5t7 5h251l11 -10h-123zM251 468h-155q1 2 1 3t1 3v7h152
l-4 -2q2 -1 3.5 -2t3.5 -2zM94 447h188q2 -3 3.5 -6.5t3.5 -7.5h-109q-4 6 -6 10h-80v4zM158 330q2 3 5 6.5t5 6.5h105v-1h-8l4 -7q-1 -3 -5 -9h-115q4 2 6 4h3v0zM180 362q2 4 3 7.5t3 8.5h102v-2h-4l2 -4q-1 -2 -1.5 -5t-1.5 -5h-103v0zM104 645q10 6 16 9h165l9 -9h-190
v0zM192 412h106q0 -2 1 -2h-8l1 -1q0 -8 -1 -12h-100zM218 585h118l-11 -11h-108l1 9v1v1zM259 510l2 -6h-95q10 6 18 12h105q-1 -2 -2 -3t-2 -3h-26zM292 543l3 -4h-91q2 2 2.5 4t1.5 3q1 0 2 1q2 2 3 4h94q-2 -6 -3 -8h-12zM89 585h40q-2 -2 -3 -3.5t-2 -2.5q-1 -2 -2 -2
h-30zM22 330l9 -4h-40l2 4h29z" />
    <glyph glyph-name="acute" unicode="&#xb4;" horiz-adv-x="333" 
d="M128 610l13 10h152l-20 -10h-145zM335 654l-2 -4t-3 -5h-168l13 9h160v0zM85 577l10 8h133l-15 -8h-36l1 -3h-94l4 3h-3zM344 689q0 -2 0.5 -4t0.5 -4h-131l11 8h119v0zM45 543l10 8h111l-15 -8h-106zM336 716h-75l9 6h53z" />
    <glyph glyph-name="mu" unicode="&#xb5;" 
d="M9 -120q1 2 2 6t3 8h108q-1 -4 -5 -14q-1 -5 -2 -8.5t-1 -5.5h-2q0 -4 -1 -7h1q-1 -1 -1 -4q-1 -3 -1 -7q-1 -1 -1 -3v-6h3q-2 -6 -2 -9h-2q0 -2 -0.5 -2.5t-0.5 -2.5h1q-1 -1 -1 -4l-3 -15q-1 -3 -1 -7l-2 -4v-2q0 -2 -1 -3q-1 -7 -2 -14.5t-3 -15.5h-115l3 13h-1l4 17
h1l2 5h-2l8 30h4l-3 3l1 2h-1l2 9h1q1 3 1 5t1 4t1 5t1 6h3l-2 3q0 2 0.5 2.5t0.5 1.5h-1q1 4 5 14zM470 67q-1 -4 -1 -9.5t-2 -14.5h-417l8 24h412v0zM43 9q1 2 3 10t4 13h298q-10 -7 -20 -13t-21 -11h-265l1 1v0zM478 101q-3 -12 -3 -23h-188q25 6 46 23h145v0zM201 89
q7 -7 18 -11h-158q0 5 1 13t1 10h131q2 -3 3.5 -5.5t3.5 -6.5zM15 -99q1 3 2 3l4 24h109q-5 -16 -6 -20.5t-1 -6.5h-108v0zM486 133q-2 -5 -3 -9.5t-3 -9.5h-134q5 5 9 10t7 9h5l-1 3h119v-3h1v0zM31 -37h106l-6 -25h3l-1 -1h-110q0 1 1 1q1 1 1 2zM352 32h110
q-2 -11 -3 -24h-112zM38 -12l2 9h105l-5 -23l-1 -2h-106zM188 114h-119l4 19h1v3h112v-1v-16l2 -1v-4zM490 149h-120q4 7 6.5 12l4.5 9h114l-1 -4l-1 -2zM190 170q-1 -5 -2 -10.5t-2 -10.5h-108q2 5 3 10.5t2 10.5h107v0zM391 201q1 2 1.5 2t1.5 2h109l-4 -20h-112
q2 3 2.5 6t2.5 8l-1 2v0zM192 185h-106q0 4 2 14h2l1 6h106v-4zM401 232l2 7h109l-4 -19h-113q0 4 0.5 7.5t0.5 4.5h5zM99 232l1 7h107l-4 -19h-109l3 12h2zM527 297q-1 -1 -1 -6h-112l2 6h2l2 12h111v-1h-1l-3 -11v0zM114 309h111l-4 -18h-110l1 6h2l2 11h-2v1zM517 256
h-110l4 18h109l-2 -10h1zM212 256h-108l2 8h1l1 10h107l-2 -10zM536 326h-113l1 4h1l3 13h113v-1h-1l-3 -12h1zM234 338q-1 -2 -2 -5t-2 -7h-110l1 4q1 2 1 3.5t1 3.5q0 2 1 3v3h109v-1h-3l4 -4v0zM244 374q-2 -8 -4 -12h-112l4 16h115v-2h-5l2 -2v0zM545 362h-112l3 16h117
v-2h-6zM557 403q-1 -2 -1 -3t-1 -3h-114l3 13v2h115v-2h-7l5 -7v0zM253 402q-2 -4 -2 -5h-114l3 15h117v-2h-9l5 -8v0zM454 447h114l-4 -14h-114zM256 443l5 -10h-114l4 14h113q0 -2 -2 -4h-6zM215 -14q-17 0 -32.5 2.5t-30.5 8.5h130q-36 -11 -67 -11zM39 -249
q-8 0 -25 -2.5t-40 -7.5l4 14h117q-1 -5 -1 -7.5v-4.5q-16 3 -30 5.5t-25 2.5zM229 481h24l16 -13h-49v13h9zM524 481h31l17 -13h-48v13zM206 468h-48l18 13h30v-13zM508 468h-47l18 13h29v-13zM433 -4q-1 0 -1 1h4l-1 -1h-2z" />
    <glyph glyph-name="paragraph" unicode="&#xb6;" horiz-adv-x="800" 
d="M195 401q-1 1 -1 3v8h294l-3 -15h-289q0 1 -0.5 1.5t-0.5 2.5zM209 362q-2 2 -3.5 6t-3.5 10h279v-2h-1l-3 -14h-268v0zM192 447h305l-4 -14h-301v3v11zM237 326q-4 3 -7.5 7.5t-8.5 9.5h252v-1h-2l-4 -16h-230v0zM195 481h310l-1 -4h-1l-3 -9h-303l-1 2l-1 -2v13z
M630 610h-367l10 10h411v-1zM201 510l3 6h310l-1 -6h-1l-2 -6h-307l1 6h-3zM519 539h-304l6 12h305v-8h-6zM324 654h357l1 -9h-375zM230 577l8 8h296v-8h-7v-3h-292q0 1 2 3h-7zM262 309h202v-1h-2l-3 -17h-164q-4 1 -12 5l2 12h-19zM458 -99h-76l4 27h76l-3 -18zM292 -85
v13h76l-4 -18l-1 -9h-72v5h-1zM297 -62l6 25h73l-5 -23l-1 -3h-77v1h4zM392 -62l5 25h74l-6 -23l-1 -3h-76v1h4zM400 -26l7 23h72l-6 -25h-73l1 2h-1zM306 -26l6 23h72l-6 -25h-72l1 2h-1zM329 67h72l-6 -24h-72zM321 32h72l-6 -24h-72zM416 32h72l-6 -24h-72zM424 67h72
l-6 -24h-72zM433 101h72l-5 -23h-73zM339 101h71l-5 -23h-73zM511 114h-75l4 22h74v-3h1l-2 -5zM416 114h-74l4 22h73v-3h1l-2 -5zM354 166v4h74l-3 -21h-77l4 17h2zM448 166l1 4h74l-4 -21h-76l4 17h1zM457 199l1 6h74l-4 -20h-76l3 14h2zM362 199l1 6h74l-4 -20h-76l3 14
h2zM464 232l1 7h74l-3 -19h-75zM370 232l1 7h74l-4 -19h-74zM474 274h75l-4 -18h-75zM379 274h75l-4 -18h-75zM482 297l2 12h75v-1h-3l-3 -17h-74l2 6h1zM490 330l3 13h75v-1h-2l-4 -16h-75l1 4h2zM500 378h75v-2h-1l-3 -14h-73l2 14v2zM509 412h74l-3 -15h-75zM588 433h-73
l4 14h72l-1 -4zM595 468h-71l3 9l1 4h72l-1 -4h-1zM614 539h-72l3 12h76v-8h-6zM605 504h-72l3 12h72l-1 -6h-1zM622 574h-73l1 11h79v-8h-7v-3zM381 -109v3h77v-3h-77zM291 -109v3h72v-3h-72z" />
    <glyph glyph-name="periodcentered" unicode="&#xb7;" horiz-adv-x="278" 
d="M213 297q-2 -2 -2.5 -3l-1.5 -3h-157l-3 6h10q0 9 1 11h-8v1h161v-1h-1v-3q-1 -2 -1 -4t-1 -4h3v0zM212 326h-151l1 4h4q4 7 10 13h133q2 -8 3 -13h1zM195 274q-5 -5 -8.5 -9.5t-7.5 -8.5h-106q-2 4 -5 8.5t-6 9.5h133v0zM179 362h-56l-1 16h57q1 -1 3 -1z" />
    <glyph glyph-name="cedilla" unicode="&#xb8;" horiz-adv-x="333" 
d="M210 -170h-215l18 29h219q-2 -4 -5 -8.5t-6 -11.5h-2zM175 -195q-14 -5 -32 -10h-108q-9 2 -16.5 4.5l-13.5 4.5l1 2h-26l12 19h212q-6 -5 -13.5 -9.5t-15.5 -9.5v-1v0zM245 -99h-112h-1v5h-26l1 -5h-36l-3 5h-23l11 17l-3 5h187l1 -2l1 -1q0 -1 0.5 -1.5t0.5 -2.5
q3 -6 6 -15h-4v-5zM210 -37q14 -9 24 -26h-187v1h19l2 2l14 23h128v0zM239 -127q-2 -4 -4 -7h-110q2 1 4.5 2t4.5 2q5 5 7 9t4 7q-2 6 -3 8h103q-1 -5 -1.5 -10t-0.5 -11h-4v0zM89 -26l15 23h80l-16 -25h-81zM127 32h78l-15 -24h-79zM24 -123q14 -6 33 -11h-40l7 11v0z
M91 -212q-8 0 -15.5 0.5t-15.5 1.5h60q-8 -1 -14.5 -1.5t-14.5 -0.5zM75 -106h15q-6 -3 -10 -7z" />
    <glyph glyph-name="onesuperior" unicode="&#xb9;" horiz-adv-x="333" 
d="M121 577v-3h-43q-2 2 -3.5 4.5t-3.5 6.5h189l-1 -8h-8v-3h-95l1 3h-36zM90 309h102v-1h-4l-3 -17h-100l3 6h4l-3 6q1 2 0.5 2t0.5 1v3zM78 270q0 2 1 4h103v-3q-1 -2 -1.5 -4.5t-0.5 -10.5h-88l-14 14v0zM263 610h-184q3 1 7 2.5t6 2.5q3 1 7.5 2t9.5 3h157l-2 -6z
M194 337q-1 -2 -1.5 -4t-0.5 -7h-97l4 17h97v-1h-2v-5v0zM110 377v1h94v-2h-2l-3 -14h-93zM208 397h-94l3 15h94v-2zM128 447h91l-3 -14h-92zM135 477l1 4h92l-1 -4h-1l-3 -9h-90zM242 539h-92l3 12h96v-8h-6zM233 504h-92l3 12h92l-1 -6h-1zM191 650q2 0 10 4h77l-3 -9h-95
v1q8 2 11 4z" />
    <glyph glyph-name="ordmasculine" unicode="&#xba;" horiz-adv-x="340" 
d="M52 610l2 2l8 8h275q3 -3 6.5 -5.5t7.5 -4.5h-129q-9 3 -20 3q-7 0 -20 -3h-130zM21 397q-4 3 -7.5 7t-7.5 8h135l-1 -15h-119v0zM43 378h199q-4 -2 -5 -2h-48l1 -14h-105l2 14h-34zM147 412h113l6 -15h-119v15zM291 654q2 -2 5 -4t8 -5h-209q2 1 4.5 2t5.5 3q2 0 8 4
h178v0zM2 433q-2 2 -2 5.5t-2 8.5h100q4 -10 6 -14h-102v0zM298 443l5 -10h-92q-1 4 -3 7.5t0 5.5v1h108l-2 -4h-16zM-4 468v5.5t1 7.5h101q-2 -10 -2 -13h-100v0zM318 477l5 -9h-100q2 2 2.5 4.5t2.5 4.5h-4l2 4h111v-4h-19zM246 539q0 2 0.5 4.5t0.5 7.5h107l-6 -12h-102
v0zM-7 510q0 1 1 2l2 4h106l-3 -12h-100q1 2 1 3t1 3h-8v0zM27 585h112l-4 -6t-4 -5h-105v1l-1 -1h-1l1 3h-6zM7 539l2 4l4 8h104q-2 -6 -3 -8h-11l3 -4h-99v0zM331 510l4 -6h-98q2 4 3 7t2 5h103v-6h-14zM341 577l3 -3h-97v9l-2 2h106q2 -2 3 -4t3 -4h-16zM275 412h13
l-2 -2z" />
    <glyph glyph-name="guillemotright" unicode="&#xbb;" horiz-adv-x="500" 
d="M190 101h104l-22 -23h-104zM54 101h103l-22 -23h-104zM307 114h-104l21 22h103l-3 -3h2zM68 115l18 21h104l-3 -3h2l-19 -19h-103zM203 149h-105l20 21h101l-3 -4h4zM340 149h-104l20 21h100l-3 -4h4zM145 199l6 6h103l-20 -20h-102zM283 199l6 6h102l-20 -20h-101z
M405 220h-103l19 19h94l2 -5l-2 -2h2zM268 220h-103l19 19h93l3 -5l-2 -2h2zM296 309h91l1 -1l3 -11h1l2 -6h-91l-6 17zM159 309h91l1 -1h-1l4 -11h1l2 -6h-91l-6 17zM404 264l3 -8h-91l-6 18h90zM266 264l3 -8h-90l-6 18h89zM243 330l1 -4h-92l-7 16l-1 1h94l1 -1h-1z
M380 330l1 -4h-92l-6 16l-1 1h93l1 -1h-1zM363 376l5 -14h-94l-6 16h95l1 -2h-1zM226 376l5 -14h-93l-7 16h95l1 -2h-1zM286 412h62l6 -15h-66zM149 412h62l6 -15h-66zM213 55q-2 7 -10 12h58l-15 -19l-33 7v0zM76 55q-2 2 -4 5.5t-7 6.5h59l-16 -19l-32 7v0z" />
    <glyph glyph-name="onequarter" unicode="&#xbc;" horiz-adv-x="834" 
d="M716 133q-2 -4 -2 -19h-339l6 22h335v-3v0zM579 170h94l-1 -4h26v4h2v-4h19l-2 -17h-332l5 5l2 2q2 2 3 4q2 3 5 6h12l-2 4h88q-1 -2 -3 -4h84v4zM703 291h-174l6 6h14l-3 10l1 1h-6l1 1h171v-1h-4zM537 8l6 24h105l-10 -19v-5h-101zM715 326h-153q6 5 10.5 9t8.5 8h140
v-1h-8l4 -4q-1 -2 -1 -4t-1 -4h2zM552 67h97q-2 -6 -3 -11.5t-3 -12.5h-97q1 2 2.5 10t3.5 12v1v1zM556 78q4 10 7 23h92l-5 -23h-94v0zM165 67h88l-15 -24h-88zM128 8l15 24h88l-15 -24h-88zM277 101l-16 -23h-89l15 23h90zM163 -22q-4 0 -22 -6h-34l15 25h86l-14 -25h-12
q-15 6 -19 6zM286 114h-90l14 22h88l-2 -3h4zM587 199l1 6h94l-4 -20h-96l3 14h2zM602 362q5 5 8.5 9t7.5 7h110l-4 -16h-122v0zM230 166l2 4h86l-12 -21h-88l7 10zM436 199l6 6h87q-3 -5 -6 -6h3l-5 -5l-9 -9h-91l14 14h1zM162 577v-3h-36v11h175l-1 -8h-4q-1 -1 -1 -3h-95
l1 3h-39zM596 232l1 7h93l-3 -19h-95l3 12h1zM250 199l4 6h89l-14 -20h-88l4 6zM125 610v3q6 2 12 3.5t13 3.5h161l-1 -10h-185zM130 309h102v-1h-3l-2 -11h1q-1 -2 -1 -3t-1 -3h-96l-1 6h3l-3 6q1 2 0.5 2t0.5 1v3zM353 220h-90l8 12l4 7h90l-5 -7h1zM604 264l2 10h93
l-4 -18h-95l2 8h2zM547 222l-2 -2h-88l19 19h86q-7 -9 -10 -12zM320 308v1h91l-12 -18h-92l4 6h1zM234 337q-1 -2 -1.5 -4t-0.5 -7h-96l4 17h96v-1h-2v-5v0zM377 256h-91l6 8l6 10h87l-6 -10h3zM223 274q-1 -5 -1 -9t-1 -9h-81l-5 18h88v0zM422 326h-91l11 17h88v-1h-1
l-7 -12h3zM150 377v1h95v-2h-2l-3 -14h-94zM511 272l2 2h82q-5 -6 -8.5 -11t-6.5 -7h-88q1 2 2.5 2.5t2.5 2.5q1 1 2 3h15zM249 397h-94l3 15h93v-2zM441 362h-86l9 16h89l-1 -2h-2zM464 397h-87l9 15h90l-1 -2h-3zM165 443l1 4h94l-3 -14h-93l3 10h-2zM487 433h-87l6 10h-1
l2 4h89l-3 -4h-1zM176 479v2h93l-4 -13h-93zM425 477l2 4h94l-10 -13h-90l6 9h-2zM192 543l2 8h95v-8h-5l-1 -4h-92zM273 504h-91l3 12h92l-1 -6h-1zM531 504h-89l8 12h91l-3 -6h-4zM553 539h-87l6 12h91l-5 -8h-3zM496 585h90l-8 -11h-89zM512 610l6 10h89l-3 -10h-92z
M538 654h96l-2 -9h-99zM220 645q5 2 10.5 4.5t10.5 4.5h75l-1 -9h-95v0zM653 411l4 1h28v-15h-46zM734 397h-39v15h21l19 -14zM623 689h18l-1 -8h-40zM551 689h9l24 -8h-34zM101 -37h14q-4 -2 -8.5 -3.5t-9.5 -3.5z" />
    <glyph glyph-name="onehalf" unicode="&#xbd;" horiz-adv-x="834" 
d="M679 8h-299v20l2 4h296q0 -1 0.5 -0.5t0.5 -0.5v-23zM699 67q-5 -9 -9.5 -14.5t-6.5 -9.5h-295q-4 -2 2.5 3t9.5 8q3 2 8.5 6t9.5 7h281v0zM737 378q2 -4 4.5 -7.5t5.5 -8.5h-118q-1 0 -2 1l2 13h-40l2 -14h-99q5 5 8.5 9t7.5 7h229v0zM532 78h-100q8 5 16 11.5t15 11.5
h102q-8 -6 -13.5 -10t-7.5 -5q-1 -1 -8 -5zM611 133q-2 -2 -10 -7t-18 -12h-102q4 2 6 4l18 15h13l-1 3h93q-1 -1 -2 -1.5t-2 -1.5h5v0zM126 8l14 24h89l-15 -24h-88zM163 67h88l-15 -24h-88zM698 397h-138l-1 14q2 0 3 1h136q1 -1 3 -1zM647 166q-2 -2 -7.5 -6.5
t-13.5 -10.5h-101q2 1 3.5 2t3.5 3q9 9 15 12h11l-1 4h93l-4 -4h1v0zM275 101l-16 -23h-89l15 23h90zM161 -22q-4 0 -22 -6h-35l15 25h87l-14 -25h-13q-15 6 -18 6zM670 185h-103l14 14h11l-2 6h100zM705 220h-104q3 3 5.5 6t4.5 6h5l-2 4l2 3h107l-7 -7h1zM284 114h-90
l14 22h87l-1 -3h3zM740 264q-3 -4 -3 -5t-1 -3h-110q1 2 3 8h3l4 10h101q-2 -8 -3 -10h6v0zM745 291h-103l3 6h1l1 4v8h104v-1h-2v-7zM227 166l2 4h87l-13 -21h-87l7 10zM163 577v-3h-37v11h175l-1 -8h-4q-1 -1 -1 -3h-94l1 3h-39zM247 199l4 6h90l-14 -20h-89l4 5zM125 613
q6 2 12.5 3.5t12.5 3.5h162l-1 -10h-186v3v0zM131 309h102v-1h-4l-2 -11h1q-1 -2 -1 -6h-96l-1 6h3l-3 6q1 2 0.5 2t0.5 1v3zM750 342q0 -5 0.5 -8.5t0.5 -7.5h-103l1 4h2q-1 2 -1 6q0 -1 -3 7h109q0 -1 1 -1h-7v0zM351 220h-90l8 12l4 7h90l-5 -7h1zM317 308v1h91l-12 -18
h-91l4 6h1zM235 337q-1 -2 -1.5 -4t-0.5 -7h-96l4 17h96v-1h-2v-5v0zM374 256h-90l6 8l4 10h88l-5 -10h3zM224 274q-1 -5 -1 -9t-1 -9h-82l-4 18h88v0zM419 326h-91l11 17h89v-1h-1l-8 -12h3zM151 377v1h94v-2h-2l-3 -14h-93zM249 397h-93l3 15h93v-2zM439 362h-87l10 16h89
l-1 -2h-2zM462 397h-87l9 15h89l-1 -2h-2zM166 443l1 4h93l-3 -14h-92l3 10h-2zM484 433h-87l5 10l2 3v1h89l-3 -4h-1zM176 479v2h93l-3 -13h-93zM423 477l2 4h93l-10 -13h-89l6 9h-2zM192 543l2 8h96v-8h-6l-1 -4h-92zM274 504h-91l3 12h92l-1 -6h-1zM528 504h-88l7 12h92
l-3 -6h-4zM472 342l1 1h91l-1 -1h-13l5 -7q-1 -2 -2 -3t-2 -3l-3 -3h-53l-9 16h-14zM551 539h-88l7 12h91l-5 -8h-3zM494 585h90l-8 -11h-89zM510 610l6 10h89l-3 -10h-92zM536 654h95l-2 -9h-98zM222 645q5 2 9.5 4.5t9.5 4.5h75l-1 -9h-93v0zM621 689h18l-2 -8h-39z
M549 689h9l24 -8h-34zM600 79q37 0 69 3l4 -4h-73v1v0zM99 -37h14q-4 -2 -8.5 -3.5t-9.5 -3.5zM504 309h36v-1h-35zM657 -5q-5 1 -10 1.5t-10 0.5h25l-5 -2v0z" />
    <glyph glyph-name="threequarters" unicode="&#xbe;" horiz-adv-x="834" 
d="M733 133q-2 -4 -2 -19h-339l6 22h335v-3v0zM596 170h94l-1 -4h26v4h2v-4h19l-2 -17h-332l5 5l2 2q2 2 3 4q2 3 5 6h12l-2 4h88l-4 -4h85v4zM159 309h130l-1 -1h-15l5 -11q-2 -2 -4 -3t-4 -3h-257l9 18h78q1 -1 3 -1l-3 -11h61zM49 256q-10 2 -21 8l2 10h188l3 -11
q-5 -2 -10.5 -3.5t-10.5 -3.5h-151v0zM720 291h-174l6 6h14l-4 10l1 1h-5l1 1h171v-1h-4zM248 610q-9 3 -19 3q-11 0 -20 -3h-113q3 2 6 5t7 5h251l11 -10h-123zM554 8l5 24h106l-10 -19v-5h-101zM732 326h-153q6 5 10.5 9t8.5 8h139v-1h-7l4 -4q-1 -2 -1 -4t-1 -4h2z
M569 67h97q-2 -6 -3 -11.5t-3 -12.5h-98q1 2 3 10t4 12v1v1zM573 78q2 6 3 11.5t3 11.5h93l-5 -23h-94v0zM171 32h89l-15 -24h-89zM193 67h88l-14 -24h-88zM305 101l-16 -23h-89l15 23h90zM192 -22q-5 0 -23 -6h-34l15 25h87l-15 -25h-12q-15 6 -18 6zM314 114h-90l14 22h88
l-2 -3h4zM292 468h-155q1 2 1 3t1 3v7h151l-4 -2l4 -2l4 -2zM604 199l1 6h94l-4 -20h-96l3 14h2zM619 362q5 5 8.5 9t7.5 7h110l-4 -16h-122v0zM135 447h187q2 -3 3.5 -6.5t3.5 -7.5h-109q-4 6 -6 10h-79v4zM258 166l2 4h87l-13 -21h-88l7 10zM198 330q3 3 5.5 6.5t4.5 6.5
h108v-1h-11l5 -7q-2 -2 -3 -4.5t-3 -4.5h-115q4 2 6 4h3v0zM453 199l6 6h87q-3 -5 -6 -6h3l-5 -5l-9 -9h-91l14 14h1zM613 232l1 7h93l-3 -19h-95l3 12h1zM278 199l4 6h89l-13 -20h-89l4 5zM299 232l4 7h90l-5 -7h1l-8 -12h-90zM621 264l2 10h93l-4 -18h-95l2 8h2zM562 220
h-88l19 19h85q-7 -9 -9.5 -12t-4.5 -5zM348 308v1h91l-12 -18h-92l4 6h1zM144 645q5 3 9 5t7 4h165l9 -9h-190v0zM320 264l5 10h88l-6 -10h3l-5 -8h-91zM228 378h101v-2h-8l5 -8q-2 -2 -3 -6h-101zM332 397h-101v15h107q2 -2 1 -2h-7v-13zM527 272l2 2h83q-5 -6 -8.5 -11
t-6.5 -7h-88q1 2 2.5 2.5t2.5 2.5q1 1 2 3h15zM450 326h-91l11 17h88v-1h-1l-7 -12h3zM469 362h-86l10 16h88l-1 -2h-2zM492 397h-87l9 15h90l-1 -2h-3zM259 585h118l-12 -11h-107l1 9v1v1zM435 446v1h89l-3 -4h-1l-5 -10h-88l6 10zM454 477l2 4h93l-10 -13h-89l6 9h-2z
M299 510l2 -6h-94q5 3 9 6l8 6h106q-4 -4 -5 -6h-26zM333 543l2 -4h-90q2 2 2 4t1 3l5 5h95q-2 -6 -3 -8h-12zM559 504h-88l7 12h91l-3 -6h-4zM581 539h-87l7 12h90l-5 -8h-3zM524 585h90l-8 -11h-89zM546 620h89l-3 -10h-92zM566 654h96l-2 -9h-99zM670 411l4 1h28v-15h-46
zM751 397h-39v15h21l19 -14zM129 585h41l-8 -8h-30zM651 689h18l-1 -8h-40zM579 689h9l24 -8h-33v8zM62 330l9 -4h-40l2 4h29zM143 -37q-4 -2 -8.5 -3.5t-9.5 -3.5l4 7h14v0z" />
    <glyph glyph-name="questiondown" unicode="&#xbf;" horiz-adv-x="389" 
d="M11 -170q-5 6 -9.5 13.5t-9.5 15.5h131q4 -1 11 -1q3 0 6 0.5t6 0.5h101l-2 -20h-1v-9h-233v0zM31 -190q-8 6 -15 15h228v-3q-8 -3 -11.5 -4.5t-5.5 -2.5l-17 -9h-2v-1q-7 -2 -13.5 -5t-14.5 -5h-119q-8 3 -15 6t-14 7v2h-1v0zM212 43h-154l24 24h160l-25 -20zM123 101
h151l-4 -5l-18 -17l-1 -1h-157l1 1h2q1 2 3 3.5t4 3.5l11 9zM23 8l24 24h150l-30 -24h-144zM19 -9q0 3 3 6h131v-1q-2 -2 -3.5 -3t-3.5 -2q-5 -5 -9 -9.5t-9 -9.5h-120q2 5 5.5 11t5.5 8zM171 136h127q0 -1 -0.5 -1.5t-0.5 -1.5h5q-5 -5 -8.5 -9.5t-8.5 -9.5h-147l9 7
q2 2 7.5 6t8.5 6h10zM-11 -108v2h100v-2q3 -5 6.5 -11.5t8.5 -12.5q1 0 3 -2h-118q-1 2 -2 3t-2 3h7v9t-1 9zM151 269q2 2 3 2.5t2 2.5h156q4 -5 7 -9t7 -9h-161l-14 13v0zM-6 -62q4 13 9 25h118q-5 -5 -9 -9.5t-7 -9.5q-3 -3 -4 -7h-108v1h1v0zM-10 -95v10t2 13h105
q-3 -4 -4 -8q-1 -5 -1.5 -9.5t-1.5 -9.5h-100v4v0zM205 170h111q0 -1 -0.5 -2t-0.5 -2q-2 -2 -3 -5t-3 -5q-1 -3 -3 -7h-125q7 6 17 17h9zM195 410l1 2h151q0 -1 -0.5 -1t-0.5 -1h-1q-2 -4 -3.5 -7.5t-3.5 -5.5h-136v5.5t-1 7.5h-6zM203 447h160q1 -3 4 -4h-18v-10h-145
q1 2 2 4.5t3 5.5h-10zM225 202q0 1 0.5 1.5t0.5 1.5h99q0 -5 -0.5 -10t-1.5 -10h-109q2 3 4.5 6.5t5.5 7.5h3l-2 3v0zM235 229q0 2 -0.5 4l-1.5 6h91q1 -5 1.5 -9.5t1.5 -9.5h-96q1 3 4 9zM183 309h87l-3 -12h25l6 -6h-127q2 2 2.5 3t2.5 3h9zM226 362q-12 7 -25 16h130
q-16 -9 -31 -16h-74v0zM189 -126q4 3 10.5 8t15.5 12h37l-4 -28h-78l15 6h4v2v0zM228 468q5 4 9.5 7t9.5 6h78q4 -3 7.5 -6t8.5 -7h-113v0zM223 -99q13 12 30 27h3l-3 -27h-30v0zM120 -215q-20 0 -42 5h84q-22 -5 -42 -5z" />
    <glyph glyph-name="Agrave" unicode="&#xc0;" horiz-adv-x="667" 
d="M494 256h-429q2 2 3 3.5t3 3.5v1q2 2 4.5 5t4.5 5h409q0 -1 1 -2v-8h4v-8zM489 291h-398q3 5 6 9t7 9h383q0 -1 1 -1h-4l2 -11h3v-6zM478 338q0 -3 3 -12h-363q1 1 2 1.5t2 2.5h7l-4 9l1 1q0 1 2 3h94l-11 -14h15q13 -1 25.5 -1h25.5h41t41 1l-2 13v1h126q0 -1 1 -1h-6
v-4v0zM402 22q-2 8 -2 10h139v-14q1 -4 3 -10h-122l-18 14v0zM529 67q1 -14 3 -24h-133l-3 24h133v0zM525 78h-130l-3 23h128q1 -4 1.5 -8t1.5 -8l2 -4v-3zM388 131q-1 0 -1 1t-0.5 1.5t-0.5 2.5h126q1 -2 1 -3t1 -2q1 -5 2 -9l2 -8h-128q-2 10 -2 14v3v0zM-103 8
q5 7 8.5 13t7.5 11h110q-6 -11 -12 -24h-114zM382 170h125l4 -21h-127q-1 6 -2 10.5t-1 6.5h2zM42 67q-4 -6 -6 -10t-9 -14h-107q6 8 10 13.5t8 10.5h104v0zM379 191q-1 3 -1.5 6t-1.5 8h126q2 -5 3 -10t3 -10h-128l-1 5v1v0zM448 510q0 -4 1 -6h-121v3l-2 -3h-87l9 12h201
q0 -2 2 -6h-3v0zM372 227q0 3 -2 9v3h124q1 -5 2 -5v-2h2q0 -3 0.5 -6t0.5 -6h-126v6l-1 1v0zM62 101q-4 -7 -7.5 -13t-5.5 -10h-105q3 5 7.5 10.5t9.5 12.5h101v0zM83 133q-2 -2 -5 -7t-8 -12h-103q10 11 17 22h100q-1 -1 -1 -1.5t-1 -1.5h1v0zM444 539h-180q1 3 8 12h175
l2 -4t3 -4h-8v-4zM106 170q-4 -6 -7.5 -11t-5.5 -10h-100q7 10 9 17h3l2 4h99v0zM473 378q0 -7 3 -16h-123l-3 16h123v0zM126 199q-2 -4 -4.5 -7.5t-4.5 -6.5h-100l10 14h8l-3 5v1h97q-4 -4 -5 -6h2v0zM467 410l2 -13h-122l-2 13l-1 2h123q0 -1 1 -2h-1zM148 232
q-2 -3 -4 -6.5t-4 -5.5h-97q2 3 4.5 6.5t4.5 5.5h6l-3 6l1 1h96l-7 -7h3v0zM460 443q0 -4 2 -10h-122l-3 14h128q1 -2 3 -4h-8v0zM438 574h-148v1q1 1 1 2t1 2l-4 -5l7 11h151q2 -2 3 -4t3 -4h-14v-3zM332 478l-1 3h124v-13h-122l-1 9v1zM149 373q1 1 1.5 2t2.5 3h91l-1 -2
h-2l-9 -14h-78l-5 11v0zM176 412h89l-1 -2h-1l-8 -13h-81l-3 6l5 8v1zM196 440q1 1 1 1.5t1 1.5l3 4h89l-10 -14h-81l-3 7v0zM433 620q0 -6 1 -10h-121l5 10h115v0zM219 477l3 4h92l-1 -2l-1 -2h-1l-7 -9h-89l6 9h-2zM292 787q-2 1 -5 6h138l6 -6h-139v0zM425 645h-89l9 9
h77zM453 755l1 -3h-120l-6 6h115l2 -3h8zM271 827h130l5 -5h-133zM373 723h95l3 -7h-90zM263 862h108l4 -4h-116zM416 689q1 -2 1 -4t1 -4h-57q1 2 1 3.5t1 4.5h53v0zM422 -4q-1 0 -2 -1v2h7q-3 0 -5 -1zM514 -4q-2 0 -2.5 0.5t-1.5 0.5h5l-1 -1v0z" />
    <glyph glyph-name="Aacute" unicode="&#xc1;" horiz-adv-x="667" 
d="M496 256h-429q4 3 7 7v1q2 2 4 5t4 5h409q0 -1 1 -2v-8h4v-8zM491 291h-398q3 5 6 9t7 9h383q0 -1 1 -1h-4l2 -11h3v-6zM480 338q0 -3 3 -12h-362q2 2 3 4h7l-3 9l2 4h94l-10 -14h14q13 -1 25.5 -1h25.5h41t41 1l-2 13v1h126q0 -1 1 -1h-6v-4v0zM404 22q-2 8 -2 10h139
v-14q1 -4 3 -10h-122l-18 14v0zM531 67q1 -14 3 -24h-133l-3 24h133v0zM527 78h-130l-3 23h128q1 -4 1.5 -8t1.5 -8l2 -4v-3zM390 132q0 1 -0.5 1.5t-0.5 2.5h125q1 -2 1 -3t1 -2q1 -5 2 -9l2 -8h-128q-2 10 -2 14v3v1zM-100 8q9 13 15 24h110q-6 -11 -12 -24h-113zM384 170
h125l4 -21h-126q-2 6 -3 10.5t-1 6.5h2zM44 67l-5 -10t-10 -14h-107q6 8 10 13.5t8 10.5h104v0zM381 190q-2 6 -3 15h126q2 -5 3 -10t3 -10h-128l-1 5v0zM450 510q0 -4 1 -6h-121v3l-2 -3h-87l9 12h201q0 -2 2 -6h-3v0zM64 101q-4 -7 -7.5 -13t-5.5 -10h-105q3 5 7.5 10.5
t9.5 12.5h101v0zM374 227q0 2 -0.5 4.5t-0.5 4.5v3h123q1 -5 2 -5v-2h2q0 -3 0.5 -6t0.5 -6h-126v6l-1 1v0zM85 133q-2 -2 -5 -7t-8 -12h-103q10 11 17 22h100q-1 -1 -1 -1.5t-1 -1.5h1v0zM446 539h-180q2 2 3.5 5t4.5 7h175l2 -4t3 -4h-8v-4zM108 170q-4 -6 -7.5 -11
t-5.5 -10h-100q6 9 10 17h2l2 4h99v0zM475 378q0 -7 3 -16h-123l-3 16h123v0zM128 199q-2 -4 -4.5 -7.5t-4.5 -6.5h-100l10 14h8l-3 5v1h97q-2 -2 -4 -6h1v0zM469 410l2 -13h-122l-2 13l-1 2h123q0 -1 1 -2h-1zM150 232q-2 -4 -4 -6.5t-4 -5.5h-97q2 3 4.5 6.5t4.5 5.5h6
l-2 6v1h96l-7 -7h3v0zM462 443q0 -4 2 -10h-122l-3 14h129q0 -2 2 -4h-8v0zM441 574h-149v1q1 1 1 2t1 2l-4 -5l8 11h150q2 -2 3 -4t3 -4h-13v-3zM334 478l-1 3h124q1 -5 1 -8.5v-4.5h-122l-2 9v1zM151 373q1 1 1.5 2t2.5 3h91l-1 -2h-2l-9 -14h-78l-5 11v0zM179 411v1h89
l-1 -2h-2l-8 -13h-81l-3 6l6 8v0zM198 440q1 1 1 1.5t1 1.5l3 4h90l-10 -14h-82l-3 7v0zM221 477l3 4h92l-1 -2l-1 -2h-1l-6 -9h-90l6 9h-2zM435 620q0 -6 1 -10h-121l5 10h115v0zM314 723h117l-11 -7h-115zM357 755l3 3h134l-9 -6h-134l4 3h2zM425 654q1 -2 1 -4.5t1 -4.5
h-88q1 2 8 9h78v0zM450 827h141l-5 -5h-141zM424 793h112v-5h4l-2 -1h-143l1 1h29zM418 689q2 -6 2 -8h-57q1 2 1 3.5t1 4.5h53v0zM510 862h81v-4h-80zM425 -4q-1 0 -1.5 -0.5t-1.5 -0.5v2h6q-2 0 -3 -1zM516 -4q-2 0 -2 0.5t-1 0.5h4l-1 -1v0z" />
    <glyph glyph-name="Acircumflex" unicode="&#xc2;" horiz-adv-x="667" 
d="M495 256h-430q4 3 7 7v1q2 2 4 5t4 5h409q0 -1 1 -2v-8h5v-8zM489 291h-398q3 5 6 9t7 9h383q0 -1 1 -1h-4l2 -11h3v-6zM478 338q0 -3 3 -12h-362q2 2 3 4h7l-3 9l1 1q0 1 2 3h93l-10 -14h14q13 -1 25.5 -1h25.5h41t41 1l-2 13v1h126q0 -1 1 -1h-6v-4v0zM402 22
q-2 8 -2 10h139v-14q1 -4 3 -10h-122l-18 14v0zM530 67q0 -7 0.5 -13t1.5 -11h-133l-3 24h134v0zM525 78h-130l-3 23h128q1 -4 1.5 -8t1.5 -8l2 -4v-3zM389 131q-1 0 -1 1t-0.5 1.5t-0.5 2.5h126q0 -3 1 -5q1 -5 2 -9l2 -8h-127q-2 10 -2 14v3v0zM24 32q-3 -5 -6.5 -11
t-6.5 -13h-113q9 13 15 24h111v0zM382 170h126l3 -21h-126q-2 6 -3 10.5t-1 6.5h2zM42 67l-5 -10t-10 -14h-107q6 8 10 13.5t8 10.5h104v0zM379 191q-1 3 -1.5 6t-1.5 8h127q2 -10 6 -20h-129l-1 5v1v0zM448 510q0 -4 1 -6h-121v3l-2 -3h-87l9 12h201q0 -2 2 -6h-3v0z
M373 227q0 3 -2 9v3h124q0 -4 1 -5v-2h2q0 -3 0.5 -6t0.5 -6h-126v6v1v0zM62 101q-4 -7 -7.5 -13t-5.5 -10h-105q8 10 17 23h101v0zM83 133q-2 -2 -5 -7t-8 -12h-103q5 6 9.5 11.5t8.5 10.5h99q-1 -1 -1 -1.5t-1 -1.5h1v0zM444 539h-180q2 2 3.5 5t4.5 7h175l2 -4t3 -4h-8
v-4zM106 170q-4 -6 -7.5 -11t-5.5 -10h-99q3 5 5 8.5t4 8.5h2l2 4h99v0zM473 378q1 -4 1.5 -8t2.5 -8h-124l-3 16h123v0zM127 199q-2 -4 -5 -7.5t-5 -6.5h-100l10 14h8l-3 5v1h97q-2 -2 -4 -6h2v0zM467 410l2 -13h-122l-2 13l-1 2h123q0 -1 1 -2h-1zM148 232q-2 -4 -4 -6.5
t-4 -5.5h-97q2 3 4.5 6.5t4.5 5.5h6l-2 6l1 1h95l-7 -7h3v0zM460 443q0 -4 2 -10h-122l-3 14h129q0 -2 2 -4h-8v0zM439 574h-149v1q1 1 1 2t1 2l-4 -5l8 11h150q2 -2 3 -4t3 -4h-13v-3zM332 478l-1 3h124q1 -5 1 -8.5v-4.5h-122l-2 9v1zM149 373q1 1 1.5 2t2.5 3h91l-1 -2
h-2l-8 -14h-79l-5 11v0zM526 788v-1h-236l7 6h221v-5h8zM177 411v1h89l-1 -2h-2l-8 -13h-81l-3 6l6 8v0zM197 440q1 1 1 3l3 4h90l-10 -14h-81l-3 7v0zM219 477l3 4h92l-1 -2l-1 -2h-1l-6 -9h-90l6 9h-2zM433 620q0 -6 1 -10h-121l5 10h115v0zM501 822h-172l5 5h167v-5z
M423 654q1 -2 1 -4.5t1 -4.5h-88l9 9h77v0zM228 723h105l-11 -7h-102zM375 752h-114l6 6h109l-3 -3h7zM549 755v-3h-104l-6 6h101l2 -3h7zM473 723h77l1 -7h-73zM369 862h116v-4h-120zM416 689q2 -6 2 -8h-57q1 2 1 3.5t1 4.5h53v0zM423 -4q-1 0 -1.5 -0.5t-1.5 -0.5v2h6
q-2 0 -3 -1zM514 -4q-1 0 -1.5 0.5t-1.5 0.5h4l-1 -1v0z" />
    <glyph glyph-name="Atilde" unicode="&#xc3;" horiz-adv-x="667" 
d="M499 264q0 -6 1 -8h-425q4 6 6 8h1q1 3 2 5.5t2 4.5h410l2 -10h1v0zM492 297l1 -6h-396l4 6h1l9 12h382q0 -1 1 -1h-4zM485 338q0 -3 3 -12h-364q1 1 2 1.5t2 2.5h8l-4 9l1 1q0 1 2 3h93l-10 -14h14q13 -1 25.5 -1h25.5h41.5t40.5 1l-1 13v1h124v-1h-3v-4v0zM405 43
q-2 10 -3 24h136v-7.5t1 -9.5v-7h-134v0zM407 26q0 3 -1 6h139q0 -4 -2 -6q2 -5 2.5 -9.5t1.5 -8.5h-121l-19 18v0zM399 96v5h128q0 -4 0.5 -7t1.5 -7q1 -3 1 -5t1 -4h-130l-1 12l-1 2v4zM396 124q-1 2 -1 4.5t-1 7.5h126q1 -3 1 -5.5t1 -4.5q1 -3 1 -6t1 -6h-127
q0 2 -0.5 5t-0.5 5zM-96 8q9 13 15 24h111q-2 -7 -5 -10q-2 -3 -5.5 -7t-6.5 -7h-109v0zM389 170h125l1 -4h2v-6.5t1 -10.5h-126q-1 3 -1 10zM-74 43q6 8 10 13.5t8 10.5h105l-2 -5q-2 -2 -6 -8.5t-6 -10.5h-109v0zM384 198q-2 2 -2 7h126q2 -5 3 -10t3 -10h-128l-1 4l-1 8
v1v0zM454 510q0 -4 1 -6h-121v3l-2 -3h-87l9 12h201q0 -2 2 -6h-3v0zM380 224q-3 5 -4 15h127q1 -5 2 -9.5t3 -9.5h-126v2l-2 2v0zM-50 78q3 4 7 9t10 14h102q-5 -8 -9 -13.5t-6 -9.5h-104v0zM-28 114q6 8 11 12.5t8 9.5h100l-2 -3l-3 -4q-3 -6 -9 -15h-105v0zM451 539h-181
q2 2 3.5 5t4.5 7h176l4 -8h-7v-4zM100 149h-100l14 21h99q-1 -2 -3 -4h2zM133 199q-6 -9 -11 -14h-98l9 14h8l-3 5v1h97q-2 -2 -4 -6h2v0zM479 372q0 -3 3 -10h-122l-4 16h123v-6v0zM473 410l1 -13h-121l-2 13l-1 2h123q0 -2 1 -2h-1zM154 232q-2 -4 -4 -6.5t-4 -5.5h-97
q2 3 4.5 6.5t4.5 5.5h5l-2 4q1 0 1 1l1 2h92q-1 -2 -2 -3.5t-2 -3.5h3v0zM446 574h-150v1q2 2 4 6v1q0 2 1 3h159l8 -8h-22v-3zM467 443q0 -4 2 -10h-123l-1 10l-1 4h122q0 -1 1 -1q0 -2 1 -3h-1v0zM587 787h-330l6 6h206v-5h51l-2 5h67q-1 -2 -4 -5h7zM337 481h125v-6.5
t1 -6.5h-121l-1 9h-3zM155 373q2 2 4 5h91l-1 -2h-2l-8 -14h-79l-5 11v0zM319 610l2 4l3 6h128l10 -10h-143zM178 404q2 2 2.5 4t2.5 4h89l-1 -2h-1l-8 -13h-80l-4 7v0zM203 440q1 2 2 3.5t3 3.5h89l-10 -14h-81l-3 7v0zM225 477l3 4h93l-3 -4l-7 -9h-86l-1 2q0 2 1.5 3.5
t2.5 3.5h-3zM365 752q-2 1 -9 6h201l-6 -6h-186v0zM436 654q1 -2 2 -4.5t2 -4.5h-96q2 2 4 4.5t4 4.5h84v0zM242 758h84l-8 -6h-79zM369 681q2 2 3.5 4t3.5 4h53v-8h-60v0zM443 716q-3 0 -6 1t-7 3v3h59l1 -4q-8 -3 -13 -3h-34v0zM612 827q-2 -4 -3 -5h-56l-2 5h61v0z
M252 717v6h27v-7h-14zM361 827h28v-5h-28v5zM-6 -4q-2 0 -2.5 0.5t0.5 0.5h4l-2 -1v0zM436 -3q-2 0 -2.5 -0.5t-1.5 -0.5v1h4v0zM522 -4q-1 0 -2 0.5t-3 0.5h5v-1v0z" />
    <glyph glyph-name="Adieresis" unicode="&#xc4;" horiz-adv-x="667" 
d="M500 256h-426q4 6 5 8h1l5 10h410l2 -10h3v-8zM490 306q0 -1 1 -5.5t3 -9.5h-399l4 6h2q2 3 4.5 6.5t4.5 5.5h379q0 -1 1 -1h-1v-2h1v0zM484 343q0 -7 2 -17h-365l2 4h13l-4 11l1 2h95l-11 -14h15q13 -1 25.5 -1h25.5h41.5t41.5 1l-1 13h-3v1h122v0zM404 43q-2 10 -3 24
h135q0 -3 0.5 -11.5t0.5 -10.5q0 -1 1 -2h-134v0zM406 26q0 3 -1 6h139q0 -4 -2 -6q2 -5 2.5 -9.5t1.5 -8.5h-121l-19 18v0zM399 90q-1 2 -1 4.5t-1 6.5h130q1 -3 1.5 -10.5t2.5 -12.5h-131l-1 11v1v0zM394 124q-2 4 -2 12h126q1 -3 1 -5.5t1 -4.5q1 -4 1.5 -6.5t1.5 -5.5
h-128q-1 3 -1 10zM-98 8q5 7 8.5 13t7.5 11h110q-1 -3 -2 -5.5t-2 -4.5q-2 -3 -5.5 -7t-7.5 -7h-109v0zM388 170h125l1 -4h1v-6.5t1 -10.5h-126v10zM-75 43q6 8 10 13.5t8 10.5h105q-6 -8 -4 -6t1 0q-2 -3 -4.5 -8t-7.5 -10h-108v0zM383 198q-2 2 -3 7h126q2 -2 2 -6h1
l2 -14h-126l-1 4l-1 8v1v0zM454 510q0 -4 1 -6h-121v3l-2 -3h-87l9 12h200q0 -2 2 -6h-2v0zM-34 101h107q-6 -8 -10 -13.5t-7 -9.5h-106q3 5 7.5 10t9.5 12zM378 224q-1 2 -3 15h127q1 -8 5 -19h-127v2l-2 2v0zM-29 114q7 8 11.5 12.5t7.5 9.5h100l-2 -3l-4 -5
q-2 -3 -4 -6.5t-4 -7.5h-105v0zM449 539h-180q2 2 4 5t4 7h175l5 -8h-8v-4zM99 149h-100l13 21h98q0 -2 -0.5 -2.5t-0.5 -1.5h2zM124 189q0 -1 -3 -4h-99l2 3l8 11l4 6h99q-4 -5 -7 -9.5t-4 -6.5zM476 378q1 -4 1.5 -8t1.5 -8h-121l-3 16h121v0zM472 410l1 -13h-121l-2 13
l-1 2h123q0 -2 1 -2h-1zM154 232q-1 -2 -3.5 -4.5t-5.5 -7.5h-97q2 3 4 6.5t4 5.5h7l-3 5l1 2h96q-2 -3 -6 -7h3v0zM465 443q0 -4 2 -10h-122l-3 14h130q0 -2 2 -4h-9v0zM444 574h-149v1q2 2 4 6v1q0 2 1 3h144q1 -2 3 -8h-3v-3zM338 478l-1 3h124q1 -5 1 -8.5v-4.5h-123
l-1 9v1zM156 375q1 0 1 1l1 2h91l-1 -2h-2l-9 -14h-76l-5 13v0zM182 412h88l-1 -2l-8 -13h-82l-3 6l6 8v1zM201 440q1 2 2 3.5t3 3.5h89l-10 -14h-81l-3 7v0zM225 477l3 4h92l-1 -2l-1 -2h-1l-7 -9h-89l6 9h-2zM322 613q0 -1 2 7h115v-10h-120l2 2zM437 793h143v-5h4
q0 -1 -1 -1h-152zM250 793h143v-5h4q0 -1 -1 -1h-152zM435 654q1 -2 2 -4.5t2 -4.5h-98l9 9h85v0zM567 758q-2 -4 -4 -6h-118v6h122v0zM381 758q-1 -2 -2 -3t-2 -3h-118v6h122v0zM367 681q2 2 3.5 4t3.5 4h53v-8h-60v0zM503 827h36v-5h-36v5zM317 827h36v-5h-36v5zM521 -4
q-2 0 -3 0.5t-3 0.5h6v-1v0zM435 -3q-2 0 -3 -0.5t-2 -0.5v1h5v0zM-8 -4q-2 0 -2.5 0.5t0.5 0.5h4l-2 -1v0z" />
    <glyph glyph-name="Aring" unicode="&#xc5;" horiz-adv-x="667" 
d="M494 256h-429q4 4 6 7v1q2 2 4.5 5t4.5 5h409q0 -1 1 -2v-8h4v-8zM489 291h-398q3 5 6 9t7 9h383q0 -1 1 -1h-4l2 -11h3v-6zM478 338q0 -3 3 -12h-363q1 1 2 1.5t2 2.5h7l-4 9l1 1q0 1 2 3h94l-11 -14h15q13 -1 25.5 -1h25.5h41t41 1l-2 13v1h126q0 -1 1 -1h-6v-4v0z
M402 22q-2 8 -2 10h139v-14q1 -4 3 -10h-122l-18 14v0zM529 67q1 -14 3 -24h-133l-3 24h133v0zM525 78h-130l-3 23h128q1 -4 1.5 -8t1.5 -8l2 -4v-3zM388 131q-1 0 -1 1t-0.5 1.5t-0.5 2.5h126q1 -2 1 -3t1 -2q1 -5 2 -9l2 -8h-128q-2 10 -2 14v3v0zM-103 8q5 7 8.5 13
t7.5 11h110q-6 -11 -12 -24h-114zM382 170h125l4 -21h-127q-1 6 -2 10.5t-1 6.5h2zM42 67q-4 -6 -6 -10t-9 -14h-107q6 8 10 13.5t8 10.5h104v0zM379 190q-2 6 -3 15h126q2 -5 3 -10t3 -10h-128l-1 5v0zM448 510q0 -4 1 -6h-121v3l-2 -3h-87l9 12h201q0 -2 2 -6h-3v0z
M372 227q0 3 -2 9v3h124q1 -5 2 -5v-2h2q0 -3 0.5 -6t0.5 -6h-126v6l-1 1v0zM62 101q-4 -7 -7.5 -13t-5.5 -10h-105q3 5 7.5 10.5t9.5 12.5h101v0zM83 133q-2 -2 -5 -7t-8 -12h-103q10 11 17 22h100q-1 -1 -1 -1.5t-1 -1.5h1v0zM444 539h-180q2 2 4 5t4 7h175l2 -4t3 -4h-8
v-4zM106 170q-4 -6 -7.5 -11t-5.5 -10h-100q7 10 9 17h3l2 4h99v0zM473 378q0 -7 3 -16h-123l-3 16h123v0zM126 199q-2 -4 -4.5 -7.5t-4.5 -6.5h-100l10 14h8l-3 5v1h97q-4 -4 -5 -6h2v0zM467 410l2 -13h-122l-2 13l-1 2h123q0 -1 1 -2h-1zM148 232q-2 -3 -4 -6.5t-4 -5.5
h-97q2 3 4.5 6.5t4.5 5.5h6l-3 6l1 1h96l-7 -7h3v0zM460 443q0 -4 2 -10h-122l-3 14h129q0 -2 2 -4h-8v0zM439 574h-149v1q1 1 1 2t1 2l-4 -5l7 11h151q2 -2 3 -4t3 -4h-13v-3zM332 478l-1 3h124q1 -5 1 -8.5v-4.5h-123l-1 9v1zM149 373q1 1 1.5 2t2.5 3h91l-1 -2h-2l-9 -14
h-78l-5 11v0zM176 412h89l-1 -2h-1l-8 -13h-81l-3 6l5 8v1zM400 754q4 0 8 1h23l1 3h85l-1 -3h27q-4 -2 -5 -3h-242v6h85l2 -3h9q3 -1 8 -1zM496 723q-4 -2 -6 -4t-4 -3h-167l-8 7h185v0zM196 440q1 1 1 1.5t1 1.5l3 4h89l-10 -14h-81l-3 7v0zM433 620q0 -6 1 -10h-121l5 10
h115v0zM219 477l3 4h92l-1 -2l-1 -2h-1l-7 -9h-89l6 9h-2zM425 645h-89l9 9h77zM443 688q-5 -2 -9.5 -3.5t-8.5 -3.5h-69q-4 2 -8 3.5t-9 4.5h104v-1v0zM369 862h141l1 -4h-142v4zM532 787h-96q4 4 5 6h83l2 -5q4 4 4 0h3zM380 793q-2 -2 -2.5 -3t-2.5 -3h-83l2 6h86v0z
M442 827h84l2 -5h-81zM402 827q-2 -2 -2.5 -3t-1.5 -2h-66l-1 5h71v0zM422 -4q-1 0 -1 -0.5t-1 -0.5v2h7q-3 0 -5 -1zM514 -4q-2 0 -2.5 0.5t-1.5 0.5h5l-1 -1v0zM307 723h1l2 -3z" />
    <glyph glyph-name="AE" unicode="&#xc6;" horiz-adv-x="833" 
d="M354 67h353l5 -6q-2 -4 -4.5 -8t-5.5 -8v-2h-356q2 5 4 10.5t4 10.5v3zM344 32h356q-1 -5 -1 -10.5v-13.5h-341v5l-14 18v1zM138 264l9 10h379l-3 -18h-393q1 2 5 8h3zM753 343q1 -4 1.5 -8t2.5 -9h-335l1 4h1l3 13h326v0zM531 291h-369l5 6h13l-4 10l2 2h158v-12h79
l3 12h117v-1zM760 368l-1.5 -3l-1.5 -3h-325l3 16h318l7 -10v0zM445 610q1 1 2.5 3t5.5 7h390l-1 -10h-397v0zM846 645h-374l9 9h370l-4 -7zM-100 8l25 24h134l-24 -24h-135zM-57 50q2 3 7.5 8t8.5 9h118l-18 -24h-123l7 7v0zM487 101q-1 -5 -1.5 -10.5t-2.5 -12.5h-126
l4 10t5 13h121v0zM494 133q-2 -5 -2.5 -9.5t-2.5 -9.5h-121l6 19v3h120q-1 -1 -1 -2v-1h1v0zM-10 101h111q-5 -7 -9.5 -13l-7.5 -10h-117l3 3l3 3zM593 539h-117l1 4l-3 -4h-89l-1 3l3.5 3.5t4.5 5.5h208v-8h-6zM503 166q-1 -2 -2 -7t-3 -10h-120l6 21h117v-2q0 -1 -0.5 -1
t-0.5 -1h3v0zM25 136h105q-5 -6 -9 -11t-7 -10q-1 -1 -2 -1h-111q3 4 6.5 8.5t8.5 10.5h11zM389 189l3 16h117l-3 -20h-118zM50 166q2 2 3 4h105l-17 -21h-108q4 5 8 9l8 8h1v0zM400 232v7h118l-4 -19h-118l3 12h1zM79 199q1 1 5 6h103l-5 -6l-1 -1l-5 -7q-2 -4 -4 -6h-106
q5 5 8 8.5t5 5.5zM595 577l2 -3h-182v1l1 2l8 8h187v-8h-16zM115 239h95l2 -3q-3 -6 -6 -9.5t-6 -6.5h-104zM558 397h-118l3 15h117v-2zM452 447h117l-3 -14h-116l3 10h-2zM208 343h98l-17 -17h-96l4 4h12l-3 11zM461 477l1 4h116l-4 -13h-116zM240 378h94l-1 -2h-2l-11 -14
h-80l-5 11zM582 504h-115l3 12h117l-1 -6h-2zM269 411l1 1h94l-2 -2h-1l-11 -13h-80l-4 11zM296 442l4 5h97l-13 -14h-84zM324 473q1 2 7 8h96l-13 -13h-88l-2 5v0zM355 509q2 2 2.5 3t2.5 3l1 1h95l-4 -6h-4l-5 -6h-86l-2 5v0zM699 78h-144v1q54 1 86.5 3.5t50.5 5.5z
M605 681h-96l13 5q20 -2 41 -2.5t42 -1.5v-1zM752 682q21 1 42 1.5t43 2.5l2 -5h-87v1v0zM679 -5q-7 1 -13 1.5t-12 0.5h30l-5 -2v0zM358 -3h28q-5 0 -10.5 -0.5t-11.5 -1.5zM-60 -4q-1 0 -3 -0.5t-4 -0.5v2h10q-2 0 -3 -1z" />
    <glyph glyph-name="Ccedilla" unicode="&#xc7;" horiz-adv-x="667" 
d="M141 43q-9 5 -18 11t-20 13h186q18 -6 37.5 -8.5t39.5 -2.5q19 0 36.5 3t35.5 8h144l-9 -24h-432v0zM206 8q-18 7 -46 24h395q-12 -6 -26 -12.5t-33 -11.5h-290v0zM266 -145q5 0 11 1t11 3h119q-6 -6 -8 -9q-1 -2 -1.5 -5t-2.5 -6h-4q-6 -6 -8 -9h-221l1 9h9l13 20h45
q9 -2 18 -3t18 -1zM162 -176v1h215q-5 -5 -10 -8.5t-10 -7.5l1 -2q-7 -3 -13.5 -6t-14.5 -6h-144q-7 2 -13.5 4.5t-11.5 4.5v2h-10zM234 -74l1 2h173l1 -2q4 -4 7 -9t7 -11h-11v-2h1v-1v-2h-181l-3 5h-6l3 7l-1 1zM766 654q-1 -2 -3.5 -4t-5.5 -5h-457l8 4q2 0 4.5 1.5
t4.5 3.5h449v0zM405 -62v-1h-165l15 26h106q21 -8 38 -25h6zM231 101l5 -5q11 -11 25 -18h-153l-10.5 10.5t-10.5 12.5h144zM271 -12q-9 2 -18.5 4.5t-19.5 4.5h223q-26 -5 -53.5 -9.5t-54.5 -4.5h-1l-7 -11h-78l1 2h-2l10 14v0zM76 133q-1 1 -1 3h129q1 -2 1.5 -5t1.5 -5
l4 -2q1 -5 7 -10h-135q-3 5 -5.5 9.5t-5.5 9.5h4v0zM315 -119q-5 11 -14 13h112q0 -5 -0.5 -10t-0.5 -11h-2v-1h7q-2 -2 -2.5 -3t-2.5 -3h-109q2 2 3 2q5 5 6.5 8.5t2.5 4.5zM64 168q-1 0 -1 2h127q2 -5 3.5 -10t3.5 -11h-127q-5 8 -5 11.5t-1 7.5zM59 205h126q1 -5 2 -9.5
t2 -10.5h-133q-7 12 -7 14h10v6zM55 239h129v-19h-129v19zM57 274h131l-4 -18h-131zM190 291h-132l3 17h-2v1h133q-1 -1 -1 -3v-1q-1 -2 -1 -3.5t-1 -4.5h2zM469 78q14 5 26 11l24 12h78l-9 -23h-119v0zM196 326h-132l1 4h1l2 11v2h134v-1h-3v-5zM208 370q-1 -2 -1 -3.5
t-1 -4.5h-132l3 14h-10l1 2h142q-1 -1 -1 -2h-4l3 -6v0zM220 405q-1 -2 -1 -4t-1 -4h-137q5 7 6.5 10l2.5 5h129l-2 -2h-2l5 -5v0zM242 610q5 3 8.5 5.5t6.5 4.5h199q-2 -1 -6 -2t-7.5 -2t-5.5 -1.5t0 -0.5q-8 -3 -10 -3t-5 -1h-180zM636 686q4 -1 9 -2.5t10 -2.5h-261
q7 2 14.5 4t14.5 4h201q4 -2 12 -3zM234 436q-1 -1 -1 -1.5t-1 -1.5h-123q-2 3 -3.5 6.5t-0.5 4.5q1 0 1 1l1 2h137v-4h-15l5 -7v0zM254 477q-2 -2 -2.5 -4.5t-1.5 -4.5h-130l-1 2q0 2 1 3.5t2 3.5h-3l2 4h138q0 -1 -0.5 -2t-0.5 -2h-4v0zM342 574h-141l3 3h-16q7 3 13 8
h164q-2 -2 -5 -4t-11 -4h-4zM587 611q-5 2 -12 4.5t-14 4.5h183l-10 -10h-141l-6 1v0zM288 543l1 -4h-123l12 12h141l-8 -8h-23zM261 510l3 -6h-126l5 6h-6l6 6h141q-2 -4 -4 -6h-19zM714 585q-4 -8 -5 -11h-71l-11 11h87v0zM541 114q9 5 19 11t19 11h19l1 -22h-58v0z
M260 -218q-17 0 -31 2.5t-27 5.5h113q-29 -8 -55 -8zM659 551h43v-8h-35zM236 -106h45q-20 -3 -38 -13zM193 -129q4 -1 12 -5h-16l4 5v0z" />
    <glyph glyph-name="Egrave" unicode="&#xc8;" horiz-adv-x="500" 
d="M-12 66v1h373l4 -5q-2 -3 -3.5 -7t-3.5 -12h-376q1 4 2.5 8.5t5.5 11.5zM-22 31v1h378l-4 -18q0 -4 -1 -6h-359v5zM405 326h-348l1 4h1l2 13h347v-1h-3v-16zM413 368l-2 -6h-345l4 16h336l7 -10v0zM122 620h374l-3 -10h-371v10zM131 645q0 3 3 9h374l-3 -9h-374v0z
M113 78h-121q2 5 4 15q0 2 0.5 3.5t0.5 3.5l1 1h120v-2zM7 133q0 1 0.5 1.5t0.5 1.5h118l-3 -22h-121l6 17l-1 2v0zM15 164q0 4 1 6h119l-4 -21h-121q2 4 6 14l-1 1v0zM142 200v-7t-1 -8h-119l4 20h118l-2 -5v0zM148 220h-119l3 12h1l1 7h117l-1 -7h2zM43 274h118l-4 -18
h-118zM166 291h-119l2 6h2l2 12h121v-1h-4zM78 412h118l-3 -15h-118zM88 447h115l-3 -14h-116zM207 468h-112l-1 2l-1 -2v13h123v-4h-6zM226 539h-117l3 12h122v-8h-7zM218 504h-118l3 12h117l-1 -6h-1v-6zM232 577l2 -3h-120q1 2 1.5 4.5t2.5 6.5h127l-1 -8h-12zM229 787
l-4 6h138l6 -6h-140v0zM391 755l1 -3h-120l-6 6h115l2 -3h8zM353 78h-154v1q42 0 79.5 3t65.5 8zM209 827h130l5 -5h-133zM311 723h95l3 -7h-90zM201 862h108l4 -4h-116zM401 682q23 1 45.5 1.5t44.5 2.5l5 -5h-95v1v0zM242 681h-93l6 5q21 -2 42 -2.5t41 -1.5h4v-1zM332 -5
q-7 1 -13 1.5t-12 0.5h30l-5 -2v0zM31 -3q-9 0 -19 -0.5t-21 0.5h40v0zM405 308q-8 0 -11 1h11v-1v0z" />
    <glyph glyph-name="Eacute" unicode="&#xc9;" horiz-adv-x="500" 
d="M-11 66l1 1h372l4 -5q-2 -3 -3.5 -7t-3.5 -12h-376q1 4 2.5 8.5t5.5 11.5l-2 3v0zM-21 31v1h378l-4 -18q0 -4 -1 -6h-358v5zM406 326h-348l1 4h1l3 13h346v-1h-3v-16zM415 368l-2 -6h-346l4 16h337l7 -10v0zM123 610v10h374l-3 -10h-371zM132 645q1 2 1.5 4t2.5 5h373
l-3 -9h-374v0zM114 78h-120q3 7 3 15q0 2 0.5 3.5t0.5 3.5l1 1h120v-2zM8 133q0 2 1 3h118l-3 -22h-121l7 17l-2 2v0zM16 164q0 4 1 6h119l-3 -21h-121q1 4 5 14l-1 1v0zM143 200v-7t-1 -8h-119l4 20h118l-2 -5v0zM149 220h-119l3 12h1l1 7h118l-1 -7h2zM168 291h-120l2 6h2
l2 12h121v-1h-3zM44 274h118l-4 -18h-118zM79 412h118l-3 -15h-118zM89 447h115l-3 -14h-116zM208 468h-112l-1 2l-1 -2v13h123v-4h-6zM227 539h-117l4 12h121v-8h-7zM219 504h-117l1 6l1 6h118l-1 -6h-2v-6zM233 577l3 -3h-120q1 2 1.5 4.5t2.5 6.5h126l-1 -8h-12zM251 723
h117l-11 -7h-115zM294 755l3 3h134l-9 -6h-133l4 3h1zM387 827h142l-6 -5h-141zM362 793h111v-5h4l-2 -1h-143l1 1h30zM354 78h-154v1q42 0 80 3t66 8zM458 862h70v-4h-70v4zM402 682q23 1 45.5 1.5t44.5 2.5l5 -5h-95v1v0zM243 681h-92l5 5q21 -2 42.5 -2.5t41.5 -1.5h3v-1
zM333 -5q-7 1 -12.5 1.5t-12.5 0.5h30l-5 -2v0zM32 -3q-9 0 -18.5 -0.5t-20.5 0.5h39v0zM406 308q-8 0 -11 1h11v-1v0z" />
    <glyph glyph-name="Ecircumflex" unicode="&#xca;" horiz-adv-x="500" 
d="M-12 66v1h373l4 -5q-2 -3 -3.5 -7t-3.5 -12h-376q1 4 2.5 8.5t5.5 11.5zM-22 31v1h378l-4 -18q0 -4 -1 -6h-359v5zM405 326h-348l1 4h1l2 13h347v-1h-3v-16zM413 368l-2 -6h-345l4 16h336l7 -10v0zM122 610v10h374l-3 -10h-371zM131 645q0 3 3 9h374l-3 -9h-374v0z
M113 78h-121q2 5 4 15q0 2 0.5 3.5t0.5 3.5l1 1h120v-2zM7 133q0 1 0.5 1.5t0.5 1.5h118l-3 -22h-121l6 17l-1 2v0zM15 164q0 4 1 6h119l-4 -21h-121q2 4 6 14l-1 1v0zM142 200v-7t-1 -8h-119l4 20h118l-2 -5v0zM148 220h-119l3 12h1l1 7h117l-1 -7h2zM43 274h118l-4 -18
h-118zM166 291h-119l2 6h2l2 12h121v-1h-4zM78 412h118l-3 -15h-118zM88 447h115l-3 -14h-116zM207 468h-112l-1 2l-1 -2v13h123v-4h-6zM226 539h-117l3 12h122v-8h-7zM218 504h-118l3 12h117l-1 -6h-1v-6zM232 577l2 -3h-120q1 2 1.5 4.5t2.5 6.5h127l-1 -8h-12zM463 788
v-1h-235l7 6h221v-5h7zM439 822h-173l5 5h168v-5zM166 723h105l-11 -7h-102zM353 78h-154v1q42 0 79.5 3t65.5 8zM313 752h-114l6 6h108l-3 -3h8zM487 755v-3h-104l-6 6h101l2 -3h7zM411 723h77l1 -7h-73zM306 862h117v-4h-121zM401 682q23 1 45.5 1.5t44.5 2.5l5 -5h-95v1
v0zM242 681h-93l6 5q21 -2 42 -2.5t41 -1.5h4v-1zM332 -5q-7 1 -13 1.5t-12 0.5h30l-5 -2v0zM31 -3q-9 0 -19 -0.5t-21 0.5h40v0zM405 308q-8 0 -11 1h11v-1v0z" />
    <glyph glyph-name="Edieresis" unicode="&#xcb;" horiz-adv-x="500" 
d="M-7 66l1 1h372l4 -5q-2 -3 -3.5 -7t-3.5 -12h-377q2 8 8 21zM-18 31v1h378l-5 -24h-360v7zM63 330l3 13h344v-17h-349l1 4h1zM418 371q-1 -2 -1.5 -4.5t-1.5 -4.5h-345l4 16h338l6 -7v0zM132 620h372v-10h-375zM513 654q1 -2 1 -9h-379q0 3 3 9h375v0zM125 101
q-5 -14 -6 -23h-122q1 2 1 6t2 9q0 2 0.5 3.5t0.5 3.5v1h124v0zM127 124q-1 -4 -3 -10h-118l7 18l-1 2l1 2h117l-3 -12v0zM136 149h-119q1 4 1.5 8t2.5 9h1l-1 2v2h118l-1 -4h1l-2 -4zM147 198q0 -2 -0.5 -5.5t-0.5 -7.5h-121q1 3 1.5 6t1.5 8h1l1 6h118l-1 -7v0zM38 232
l1 7h117l-3 -19h-120l3 12h2zM171 291h-119l1 6h2l2 12h121v-1h-4zM47 264l2 10h116l-4 -18h-117l2 8h1zM82 412h120l-4 -15h-119zM204 433h-116l4 14h116zM213 468h-113l-1 2l-1 -2v13h123v-4h-5zM230 539h-117l4 12h121v-8h-7zM222 504h-117l2 6h-1l1 6h118l-1 -6h-1z
M233 577l2 -3h-115v3h-2l2 8h124l-2 -8h-9zM374 793h143v-5h4q0 -1 -1 -1h-152zM187 793h143v-5h4q0 -1 -1 -1h-152zM504 758q-2 -4 -4 -6h-118v6h122v0zM318 758q-1 -2 -2 -3t-2 -3h-118v6h122v0zM358 78h-154v1q42 0 79.5 3t66.5 8zM249 681h-95l6 5q22 -2 44.5 -2.5
t44.5 -1.5v-1zM406 682q22 1 44.5 1.5t45.5 2.5l2 -5h-92v1v0zM254 827h36v-5h-36v5zM440 827h36v-5h-36v5zM301 -3h38v-2zM35 -3q-10 0 -21 -0.5t-20 0.5h41v0zM410 308q-8 0 -11 1h11v-1v0zM416 362q0 1 0.5 1t0.5 1l-1 -2v0z" />
    <glyph glyph-name="Igrave" unicode="&#xcc;" horiz-adv-x="278" 
d="M-19 66l1 1h126q-2 -6 -3 -11.5t-3 -12.5h-126q2 8 7 20l-2 3v0zM-28 31v1h135l-9 -19v-5h-111v3zM-10 93q0 2 0.5 3.5t0.5 3.5l1 1h123q-1 -5 -1.5 -11t-2.5 -12h-125q2 5 4 15zM0 133q0 2 1 3h120v-3h1q-1 -1 -1 -2l-2 -17h-123l6 17l-2 2v0zM9 164q0 4 1 6h120l-4 -21
h-122q2 4 6 14l-1 1v0zM19 205h118l-3 -20h-119zM27 232l1 7h117l-4 -19h-118l3 12h1zM36 274h119l-4 -18h-119zM46 309h119v-1h-2l-4 -17h-118zM52 330l3 13h118v-1h-1l-4 -16h-118l1 4h1zM177 362h-117l4 16h118v-2h-2zM186 397h-118l3 15h118v-2zM81 447h116l-3 -14h-116
zM86 481h121l-1 -4h-2l-3 -9h-113l-1 2l-1 -2v13zM222 539h-119l3 12h124l-1 -8h-6zM97 516h119l-1 -6h-2l-1 -6h-118zM109 574q0 1 0.5 1.5t0.5 1.5l1 8h128v-8h-6l-1 -3h-123v0zM116 620h130l-3 -10h-128zM124 645q1 2 1.5 4t2.5 5h130l-3 -9h-131v0zM103 787l-4 6h138
l6 -6h-140v0zM264 755l1 -3h-119l-6 6h115l2 -3h7zM75 827h137l5 -5h-137zM185 723h95l3 -7h-90zM77 862h105l4 -4h-113zM211 682q7 1 13 1.5t13 2.5l6 -5h-32v1v0zM175 681h-29l6 5q6 -2 12 -2.5t11 -1.5v-1zM72 -4q-2 0 -2 0.5t-1 0.5h5l-2 -1v0z" />
    <glyph glyph-name="Iacute" unicode="&#xcd;" horiz-adv-x="278" 
d="M-15 66l1 1h126q-2 -6 -3 -11.5t-2 -12.5h-127q2 8 7 20l-2 3v0zM-24 31v1h135l-9 -19v-5h-111v3zM-6 93q0 2 0.5 3.5t0.5 3.5l1 1h123q-1 -5 -1.5 -11t-2.5 -12h-125q2 5 4 15zM4 133q0 2 1 3h120v-3h1q-1 -1 -1 -2l-2 -17h-123l6 17l-2 2v0zM13 164q0 4 1 6h120l-4 -21
h-122q2 4 6 14l-1 1v0zM24 205h118l-4 -20h-118zM31 232l1 7h117l-4 -19h-118l3 12h1zM40 274h119l-4 -18h-119zM50 309h119v-1h-2l-4 -17h-118zM56 330l3 13h119v-1h-2l-4 -16h-118l1 4h1zM181 362h-117l4 16h118v-2h-2zM190 397h-117l3 15h117v-2zM86 447h115l-3 -14h-116
zM90 481h121l-1 -4h-2l-3 -9h-113l-1 2l-1 -2v13zM226 539h-119l3 12h124l-1 -8h-6zM101 516h119l-1 -6h-2l-1 -6h-118zM113 574q0 1 0.5 1.5t0.5 1.5l1 8h128v-8h-6l-1 -3h-123v0zM119 610l1 10h130l-3 -10h-128zM128 645q1 2 1.5 4t2.5 5h130l-3 -9h-131v0zM127 723h118
l-11 -7h-116zM171 755l3 3h133l-9 -6h-133l4 3h2zM263 827h142l-6 -5h-141zM238 793h112v-5h3l-1 -1h-143l1 1h29zM334 862h71v-4h-71v4zM215 682q7 1 13 1.5t13 2.5l6 -5h-32v1v0zM179 681h-29l6 5q6 -2 12 -2.5t11 -1.5v-1zM76 -4q-2 0 -2 0.5t-1 0.5h5l-2 -1v0z" />
    <glyph glyph-name="Icircumflex" unicode="&#xce;" horiz-adv-x="278" 
d="M-16 66v1h126q-2 -6 -3 -11.5t-2 -12.5h-127q2 8 7 20zM-26 31v1h135l-9 -19v-5h-111v3zM-8 93q0 2 0.5 3.5t0.5 3.5l1 1h123q-1 -5 -1.5 -11t-2.5 -12h-125q2 5 4 15zM3 136h121v-3h1q-1 -1 -1 -2l-3 -17h-123l6 17l-1 2v3zM11 164q0 4 1 6h120l-4 -21h-122q2 4 6 14
l-1 1v0zM22 205h118l-4 -20h-118zM29 232l1 7h117l-3 -19h-119l3 12h1zM45 297l3 12h119v-1h-2l-3 -17h-119zM39 274h118l-4 -18h-118zM55 330l2 13h119v-1h-2l-4 -16h-117l1 4h1zM179 362h-117l4 16h118v-2h-2zM188 397h-117l3 15h117v-2zM84 447h115l-3 -14h-116zM89 481
h120l-1 -4h-2l-3 -9h-112l-1 2l-1 -2v13zM224 539h-119l3 12h124l-1 -8h-6zM99 516h119l-1 -6h-2l-1 -6h-118zM111 574q0 1 0.5 1.5t0.5 1.5l1 8h128v-8h-6l-1 -3h-123v0zM339 788v-1h-236l8 6h221v-5h7zM117 610l1 10h130l-3 -10h-128zM127 645q0 3 3 9h130l-3 -9h-130v0z
M315 822h-173l5 5h168v-5zM47 723h99l-11 -7h-95zM189 752h-114l6 6h108l-3 -3h8zM363 755v-3h-105l-6 6h101l2 -3h8zM287 723h77l1 -7h-73zM182 862h117v-4h-121zM213 682q7 1 13 1.5t13 2.5l6 -5h-32v1v0zM178 681h-30l6 5q6 -2 12 -2.5t12 -1.5v-1zM74 -4q-1 0 -1.5 0.5
t-1.5 0.5h5l-2 -1v0z" />
    </font>
</defs>
</svg>
