<?xml version="1.0" standalone="no"?>
<!DOCTYPE svg PUBLIC "-//W3C//DTD SVG 1.1//EN" "http://www.w3.org/Graphics/SVG/1.1/DTD/svg11.dtd" >
<svg xmlns="http://www.w3.org/2000/svg" xmlns:xlink="http://www.w3.org/1999/xlink" version="1.1">
<metadata>
Created by FontForge 20170731 at Fri Mar 26 01:00:01 2004
 By Aleksey,,,
Copyright (c) Luke Owens, 2004. All rights reserved.
</metadata>
<defs>
<font id="OregonLDOExtended" horiz-adv-x="215" >
  <font-face 
    font-family="Oregon LDO Extended"
    font-weight="400"
    font-stretch="normal"
    units-per-em="1000"
    panose-1="2 1 6 3 0 0 0 2 0 4"
    ascent="800"
    descent="-200"
    x-height="473"
    cap-height="685"
    bbox="0 -271 1293 919"
    underline-thickness="50"
    underline-position="-150"
    unicode-range="U+0020-FB02"
  />
<missing-glyph horiz-adv-x="278" 
 />
    <glyph glyph-name=".notdef" horiz-adv-x="278" 
 />
    <glyph glyph-name=".null" horiz-adv-x="0" 
 />
    <glyph glyph-name="nonmarkingreturn" horiz-adv-x="278" 
 />
    <glyph glyph-name="space" unicode=" " horiz-adv-x="278" 
 />
    <glyph glyph-name="space" unicode="&#xa0;" horiz-adv-x="278" 
 />
    <glyph glyph-name="exclam" unicode="!" horiz-adv-x="202" 
d="M87 171q-5 47 -10.5 99.5t-11 104t-10 98.5t-8.5 84.5t-6 61.5t-2 30q0 27 19 38t42 11t42 -11t19 -38q0 -5 -2 -29.5t-6 -62t-9 -84.5t-10.5 -98.5t-11 -104t-10.5 -99.5h-25zM29 45q0 23 21 40t50 17t50 -17t21 -40t-21 -40t-50 -17t-50 17t-21 40z" />
    <glyph glyph-name="quotedbl" unicode="&#x22;" horiz-adv-x="338" 
d="M43 698h65v-288h-65v288zM229 698h65v-288h-65v288z" />
    <glyph glyph-name="numbersign" unicode="#" horiz-adv-x="545" 
d="M184 432h-94q10 16 17 40.5t7 41.5h91q10 38 16.5 63t10.5 41.5t6 25.5t4 15q12 -3 26 -3q12 0 26 3l-6 -12t-7.5 -20.5t-11.5 -41t-19 -71.5h143q10 38 16 63t10 41.5t6 25.5t4 15q13 -3 26 -3t27 3l-6 -12t-7.5 -20.5t-11.5 -41t-19 -71.5h92q-8 -16 -15.5 -41
t-7.5 -41h-92l-53 -208h93q-8 -16 -15.5 -41t-7.5 -41h-92q-10 -40 -16.5 -65.5t-10.5 -41.5l-6 -24t-3 -14q-7 1 -13 2t-13 1t-13.5 -1t-12.5 -2q3 6 5.5 12t7 20.5t11.5 41t19 71.5h-142q-11 -40 -17.5 -65.5t-10.5 -41.5t-5.5 -24t-2.5 -14q-7 1 -13.5 2t-13.5 1
q-6 0 -12.5 -1t-13.5 -2q3 6 5.5 12t7 20.5t12 41t19.5 71.5h-93q10 16 17 40.5t7 41.5h91zM372 432h-144l-54 -208h144z" />
    <glyph glyph-name="dollar" unicode="$" horiz-adv-x="579" 
d="M319 27q61 11 95 49.5t34 87.5q0 16 -4 31.5t-17.5 31t-39 31t-68.5 32.5v-263zM273 633q-54 -7 -88 -38.5t-34 -77.5q0 -47 31 -76.5t91 -47.5v240zM273 304q-56 17 -97 34.5t-68 39t-40.5 49t-13.5 63.5t15.5 67t44 54.5t69 38.5t90.5 20q0 20 -2 40.5t-8 37.5
q18 -5 32 -5q8 0 16 1.5t17 3.5q-6 -18 -7.5 -37.5t-1.5 -38.5q41 0 71 -4.5t52.5 -11.5t38.5 -15t29 -15q-11 -17 -18.5 -35t-15.5 -45h-15q-6 13 -16.5 28t-27 28t-40.5 22.5t-58 10.5v-256q54 -17 96 -33.5t71 -37t44 -46.5t15 -62q0 -37 -15 -71.5t-44 -62.5t-71 -48
t-96 -28q0 -29 1.5 -56.5t7.5 -55.5q-9 2 -17 3.5t-16 1.5q-14 0 -32 -5q5 23 7.5 51t2.5 56q-11 -1 -18.5 -1h-15.5q-59 0 -109.5 13t-96.5 42q11 22 15 40t8 45h15q22 -32 47 -52t51 -31.5t52 -15.5t52 -4v283z" />
    <glyph glyph-name="percent" unicode="%" horiz-adv-x="1052" 
d="M23 506q0 36 14.5 66t41 52.5t63.5 35t83 12.5q45 0 82.5 -12.5t63.5 -35t40.5 -52.5t14.5 -66t-14.5 -66t-40.5 -52.5t-63.5 -35t-82.5 -12.5q-46 0 -83 12.5t-63.5 35t-41 52.5t-14.5 66zM116 506q0 -28 6.5 -53.5t20 -45t34 -31.5t48.5 -12t48.5 12t33.5 31.5t19.5 45
t6.5 53.5t-6.5 53.5t-19.5 45t-33.5 31.5t-48.5 12t-48.5 -12t-34 -31.5t-20 -45t-6.5 -53.5zM627 150q0 36 14.5 66t40.5 52.5t63.5 35t82.5 12.5q46 0 83 -12.5t63.5 -35t41 -52.5t14.5 -66t-14.5 -66t-41 -52.5t-63.5 -35t-83 -12.5q-45 0 -82.5 12.5t-63.5 35
t-40.5 52.5t-14.5 66zM720 150q0 -28 6.5 -53.5t19.5 -45t33.5 -31.5t48.5 -12t48.5 12t34 31.5t20 45t6.5 53.5t-6.5 53.5t-20 45t-34 31.5t-48.5 12t-48.5 -12t-33.5 -31.5t-19.5 -45t-6.5 -53.5zM728 695q17 -5 30 -5q12 0 29 5l-466 -734q-17 5 -29 5q-13 0 -30 -5z" />
    <glyph glyph-name="ampersand" unicode="&#x26;" horiz-adv-x="791" 
d="M463 561q0 36 -27 59.5t-73 23.5q-49 0 -78 -27t-29 -67q0 -15 6 -33t16.5 -37t25 -38t31.5 -36q64 32 96 74.5t32 80.5zM169 522q0 31 14 58.5t39.5 48t61 32t77.5 11.5q73 0 120 -28.5t47 -83.5q0 -29 -16.5 -54.5t-42 -48t-55.5 -41t-58 -31.5q57 -58 111.5 -113.5
t108.5 -104.5q45 50 82 97.5t67 100.5q8 -13 21 -22.5t27 -17.5q-39 -48 -78.5 -93t-90.5 -93l160 -144q-20 2 -40 3.5t-40 1.5q-17 0 -35.5 -1.5t-35.5 -3.5q-11 14 -31.5 36.5t-47.5 48.5q-28 -22 -57 -40t-61.5 -31t-69.5 -20t-82 -7q-48 0 -91.5 11t-76.5 32t-52 52.5
t-19 73.5q0 33 17.5 64.5t48 59.5t72.5 51.5t90 39.5q-37 42 -60.5 80t-23.5 76zM128 169q0 -27 13.5 -52.5t38 -45t58 -31t73.5 -11.5q63 0 108.5 18.5t89.5 53.5q-63 60 -120.5 119t-114.5 122q-68 -33 -107 -72t-39 -101z" />
    <glyph glyph-name="quotesingle" unicode="'" horiz-adv-x="156" 
d="M43 698h65v-288h-65v288z" />
    <glyph glyph-name="parenleft" unicode="(" horiz-adv-x="261" 
d="M240 680q-47 -48 -76 -95t-45.5 -95.5t-22.5 -100t-6 -108.5t6 -108.5t22.5 -100t45.5 -95.5t76 -95l-25 -18q-100 86 -151.5 194t-51.5 223q0 55 13 111t38.5 109.5t63.5 103.5t88 93z" />
    <glyph glyph-name="parenright" unicode=")" horiz-adv-x="261" 
d="M20 -118q47 48 76 95t45.5 95.5t22.5 100t6 108.5t-6 108.5t-22.5 100t-45.5 95.5t-76 95l25 18q100 -86 151.5 -194t51.5 -223q0 -55 -13 -111t-38.5 -109.5t-63.5 -103.5t-88 -93z" />
    <glyph glyph-name="asterisk" unicode="*" horiz-adv-x="449" 
d="M189 684q15 -4 36 -4t36 4l-20 -155l157 92q5 -34 37 -52l-177 -64l176 -66q-12 -8 -23 -21t-13 -29l-158 88l21 -152q-8 2 -16.5 3t-19.5 1t-19.5 -1t-16.5 -3l17 152l-152 -89q-3 17 -13 30t-23 21l175 65l-180 65q12 8 24 22.5t12 29.5l157 -92z" />
    <glyph glyph-name="plus" unicode="+" horiz-adv-x="638" 
d="M3 279h283v227h65v-227h284v-52h-284v-227h-65v227h-283v52z" />
    <glyph glyph-name="comma" unicode="," 
d="M108 75q5 13 17.5 25.5t37.5 12.5q15 0 31 -8t16 -26q0 -12 -6 -22t-13 -20l-156 -212l-23 7z" />
    <glyph glyph-name="hyphen" unicode="-" horiz-adv-x="398" 
d="M43 262h311v-62h-311v62z" />
    <glyph glyph-name="period" unicode="." horiz-adv-x="204" 
d="M30 45q0 23 21 40t50 17t50 -17t21 -40t-21 -40t-50 -17t-50 17t-21 40z" />
    <glyph glyph-name="slash" unicode="/" horiz-adv-x="416" 
d="M348 703q18 -5 32 -5q9 0 17 1.5t16 3.5l-345 -726q-8 2 -16 3.5t-17 1.5q-14 0 -32 -5z" />
    <glyph glyph-name="zero" unicode="0" horiz-adv-x="651" 
d="M136 328q0 -66 9.5 -123t32 -99t58.5 -66t90 -24q53 0 89.5 24t59 66t32 99t9.5 123t-9.5 123t-32 99t-59 66t-89.5 24q-54 0 -90 -22t-58.5 -63t-32 -98.5t-9.5 -128.5zM33 328q0 70 15 133t49.5 109.5t90.5 74t138 27.5q90 0 147 -27.5t89 -74t44 -109.5t12 -133
q0 -68 -17 -130.5t-53 -110t-91 -75.5t-131 -28q-90 0 -147 27.5t-89.5 74t-44.5 109t-12 133.5z" />
    <glyph glyph-name="one" unicode="1" horiz-adv-x="336" 
d="M186 608l-149 -66q-5 9 -15.5 17.5t-21.5 14.5v7q72 23 145.5 50.5t139.5 53.5l8 -5q-5 -66 -7.5 -130.5t-2.5 -130.5v-167q0 -65 2.5 -129t7.5 -128q-15 2 -29 3.5t-29 1.5t-29.5 -1.5t-29.5 -3.5q5 65 7.5 128.5t2.5 128.5v356z" />
    <glyph glyph-name="two" unicode="2" horiz-adv-x="588" 
d="M79 573q40 51 95.5 75t133.5 24q49 0 92.5 -10t75.5 -32t51 -55.5t19 -79.5q0 -34 -10 -63.5t-29.5 -57.5t-49.5 -56.5t-69 -60.5q-23 -19 -54 -44t-63 -51.5t-61.5 -52.5t-48.5 -48h118q90 0 160 2.5t122 5.5q-3 -9 -5 -18.5t-2 -18.5t2 -18.5t5 -18.5q-67 2 -134 3.5
t-134 1.5q-68 0 -134.5 -1.5t-134.5 -3.5v15q87 69 151.5 122t109.5 95t73.5 75.5t44.5 63.5t22 60t6 64q0 37 -11.5 64.5t-30.5 45.5t-44.5 26.5t-53.5 8.5q-40 0 -68.5 -11.5t-47.5 -28t-29.5 -35.5t-13.5 -34l-9 -2z" />
    <glyph glyph-name="three" unicode="3" horiz-adv-x="561" 
d="M71 612q13 10 30 20.5t39.5 19.5t50.5 14.5t63 5.5q49 0 92.5 -9t76 -27t51.5 -46t19 -67q0 -36 -16 -64.5t-41 -49t-54.5 -33.5t-57.5 -19v-6q31 -2 68 -9.5t68 -25t52 -46.5t21 -74t-23 -84t-65 -67.5t-100.5 -44.5t-130.5 -16q-65 0 -110 11t-79 24q5 8 9.5 26.5
t5.5 33.5l8 4q11 -11 27.5 -22.5t37.5 -21.5t47 -16.5t56 -6.5q46 0 83.5 12.5t64 34.5t40.5 52.5t14 67.5q0 41 -13 69.5t-36.5 46t-56 25.5t-71.5 8q-14 0 -29.5 -2t-26.5 -4q1 5 2 10.5t1 10.5t-1 10.5t-2 10.5q14 -2 27.5 -3t28.5 -1q44 0 72 14.5t43.5 37t21 49.5
t5.5 52q0 32 -11.5 55.5t-30.5 38.5t-43 22t-49 7q-26 0 -48.5 -6.5t-40.5 -18t-31.5 -26t-19.5 -29.5l-9 -2z" />
    <glyph glyph-name="four" unicode="4" horiz-adv-x="629" 
d="M3 197q55 62 115 129t115 130t102 117.5t77 92.5q23 -5 43 -5q18 0 40 5q-3 -44 -5 -96t-2.5 -108t-1 -113.5t-0.5 -110.5q35 0 68 2.5t54 5.5q-2 -8 -4 -16.5t-2 -16.5t2 -16.5t4 -16.5q-21 3 -54 4.5t-68 1.5v-42q0 -39 2.5 -80.5t4.5 -68.5q-14 2 -27.5 3.5t-27.5 1.5
t-27.5 -1.5t-27.5 -3.5q3 29 6.5 70t3.5 79v42q-19 0 -50 -0.5t-68.5 -1t-78 -1.5t-78 -1.5t-68 -1.5t-47.5 -1v18zM393 574h-2q-26 -29 -66.5 -74.5t-82.5 -94t-80 -94t-60 -73.5h291v336z" />
    <glyph glyph-name="five" unicode="5" horiz-adv-x="564" 
d="M158 374l26 10t29 8.5t36.5 5.5t48.5 2q55 0 99 -15t75.5 -41t48.5 -60t17 -72q0 -47 -22.5 -88.5t-64 -72.5t-98.5 -49t-126 -18q-56 0 -107.5 9t-92.5 31v8q7 13 12 29.5t7 28.5h8q12 -18 31.5 -32t43.5 -23.5t50.5 -14t52.5 -4.5q37 0 71.5 11t61 34t42.5 58t16 82
q0 42 -14.5 72t-39 49t-56 27.5t-65.5 8.5q-52 0 -85 -13.5t-44 -19.5l-13 7q8 39 10 82.5t2 86.5q0 42 -2 86.5t-8 78.5l11 6q10 -2 27 -3t43 -3q28 -2 65 -2.5t88 -0.5q58 0 105 0.5t70 1.5l6 -4q-9 -26 -9 -56q0 -12 2 -17q-28 4 -73.5 6.5t-95 4t-96 2t-75.5 0.5z" />
    <glyph glyph-name="six" unicode="6" horiz-adv-x="600" 
d="M471 637l-6 -4q-13 3 -28.5 5t-36.5 2q-48 0 -87 -16.5t-69 -44t-51.5 -63t-35 -73.5t-20 -75t-6.5 -67h3q12 17 29.5 34t42 31t56.5 23t73 9q33 0 75.5 -8t80.5 -29t64 -57.5t26 -93.5q0 -50 -19.5 -91.5t-55.5 -71.5t-87.5 -46.5t-114.5 -16.5q-54 0 -103.5 15.5
t-88 50t-61 89t-22.5 133.5q0 83 24 156.5t71 128t116.5 85.5t159.5 30q21 0 31.5 -0.5t21.5 -2.5zM471 189q0 76 -39 124t-119 48q-37 0 -68.5 -12.5t-55 -35.5t-37 -54.5t-13.5 -69.5t12.5 -70t35 -55t52.5 -35.5t66 -12.5q39 0 70 12.5t52.5 35.5t32.5 55t11 70z" />
    <glyph glyph-name="seven" unicode="7" horiz-adv-x="572" 
d="M569 641q-112 -153 -228.5 -318.5t-219.5 -327.5q-11 2 -22 3.5t-25 1.5q-20 0 -45 -5q58 75 122.5 160t124.5 165.5t111 150.5t84 116q-57 0 -167 -1t-269 -9q5 23 5 45q0 21 -5 44q51 -3 92.5 -5t76.5 -3q19 0 48.5 -0.5t62.5 -1t66 -0.5h59q38 0 67.5 0.5t61.5 0.5
v-16z" />
    <glyph glyph-name="eight" unicode="8" horiz-adv-x="617" 
d="M29 179q0 61 42.5 112t138.5 77v7q-23 4 -47.5 15.5t-44.5 29t-32.5 41t-12.5 52.5q0 31 16.5 60t47.5 51t74 35t97 13q62 0 107 -12.5t74.5 -32.5t43.5 -47t14 -55q0 -23 -9 -46t-27 -42.5t-44 -34.5t-60 -24v-7q21 -3 52 -12.5t59.5 -29t48.5 -50.5t20 -77
q0 -50 -22 -90t-60 -68.5t-88.5 -44t-108.5 -15.5q-59 0 -110 13t-88.5 38t-59 61t-21.5 83zM444 512q0 26 -7.5 49t-24 40.5t-42 28t-61.5 10.5q-35 0 -60.5 -10.5t-42 -28t-24 -40.5t-7.5 -49t7.5 -49t24 -40.5t42 -28t60.5 -10.5q36 0 61.5 10.5t42 28t24 40.5t7.5 49z
M477 184q0 37 -12 67.5t-33.5 53t-53 35t-70.5 12.5t-70.5 -12.5t-53 -35t-33.5 -53t-12 -67.5t12 -67.5t33.5 -53t53 -35t70.5 -12.5t70.5 12.5t53 35t33.5 53t12 67.5z" />
    <glyph glyph-name="nine" unicode="9" horiz-adv-x="610" 
d="M94 57q26 -19 57.5 -30t66.5 -11q67 0 115 30t79 78.5t45 108.5t14 120h-3q-29 -42 -78 -68t-124 -26q-112 0 -177.5 52t-65.5 147q0 46 19.5 85t56 67.5t88 45t114.5 16.5q55 0 106 -15.5t89.5 -50t61.5 -89t23 -133.5q0 -83 -25 -156t-72.5 -127t-116 -85.5
t-155.5 -31.5q-32 0 -58.5 4.5t-40.5 9.5q-4 13 -10.5 29t-14.5 27zM466 484q0 34 -12 63t-34 49.5t-53 32t-68 11.5q-36 0 -66.5 -13t-52.5 -36.5t-34.5 -57t-12.5 -75.5q0 -86 41 -124t113 -38q43 0 76.5 16t56 42t34.5 60t12 70z" />
    <glyph glyph-name="colon" unicode=":" horiz-adv-x="213" 
d="M35 411q0 23 21 40t50 17t50 -17t21 -40t-21 -40t-50 -17t-50 17t-21 40zM35 45q0 23 21 40t50 17t50 -17t21 -40t-21 -40t-50 -17t-50 17t-21 40z" />
    <glyph glyph-name="semicolon" unicode=";" horiz-adv-x="234" 
d="M111 75q5 13 17.5 25.5t37.5 12.5q15 0 31 -8t16 -26q0 -12 -6 -22t-13 -20l-156 -212l-23 7zM80 411q0 23 21 40t50 17t50.5 -17t21.5 -40t-21.5 -40t-50.5 -17t-50 17t-21 40z" />
    <glyph glyph-name="less" unicode="&#x3c;" horiz-adv-x="674" 
d="M2 280l632 236v-52l-574 -211l574 -211v-52l-632 238v52z" />
    <glyph glyph-name="equal" unicode="=" horiz-adv-x="685" 
d="M675 324h-632v52h632v-52zM675 130h-632v52h632v-52z" />
    <glyph glyph-name="greater" unicode="&#x3e;" horiz-adv-x="674" 
d="M40 42l573 211l-573 211v52l632 -238v-52l-632 -236v52z" />
    <glyph glyph-name="question" unicode="?" horiz-adv-x="348" 
d="M20 665q24 12 54.5 22.5t73.5 10.5q45 0 79.5 -10.5t58 -28.5t35.5 -42t12 -51q0 -35 -16.5 -64.5t-41 -54.5t-53.5 -47.5t-53.5 -44.5t-41 -45t-16.5 -49q0 -20 16.5 -39.5t48.5 -19.5q15 0 26 3.5t16 5.5l8 -4q-5 -5 -9.5 -13t-5.5 -15q-8 -2 -18.5 -3.5t-25.5 -1.5
t-38 6t-44.5 19t-36.5 34t-15 52q0 33 16 60.5t40 51t51.5 44.5t51.5 42.5t40 45t16 50.5q0 19 -9.5 34.5t-24.5 26t-34.5 16t-38.5 5.5q-34 0 -63.5 -13t-50.5 -33zM76 45q0 23 21 40t50 17t50 -17t21 -40t-21 -40t-50 -17t-50 17t-21 40z" />
    <glyph glyph-name="at" unicode="@" horiz-adv-x="841" 
d="M553 522h65q-24 -93 -38 -147t-20.5 -82.5t-8 -39t-1.5 -17.5q0 -17 11 -26t30 -9q25 0 53.5 14.5t52.5 40.5t40 61.5t16 76.5q0 49 -14 90.5t-48.5 71.5t-92 47t-143.5 17q-76 0 -139.5 -24.5t-110 -67t-72.5 -100t-26 -123.5q0 -60 23.5 -105t65.5 -75t99 -45t125 -15
q45 0 86 7.5t77 19.5t66 26.5t54 28.5l-3 -32q-16 -12 -44.5 -27t-68 -28.5t-89 -22.5t-108.5 -9q-61 0 -125 18.5t-116 57t-85.5 96.5t-33.5 138q0 59 30 115.5t86 100.5t135.5 71t178.5 27q102 0 169.5 -20.5t108 -54t57.5 -76.5t17 -87q0 -54 -22.5 -98.5t-57 -76
t-77.5 -49t-83 -17.5q-26 0 -42 5t-24.5 14.5t-11.5 22.5t-3 30h-3q-11 -13 -25 -26t-31 -23t-37.5 -16.5t-43.5 -6.5q-66 0 -100.5 33.5t-34.5 100.5q0 49 17.5 90.5t48 71.5t71.5 46.5t87 16.5q38 0 66 -15t32 -49h3zM516 425q0 16 -3 30t-11.5 24t-23.5 15.5t-38 5.5
q-36 0 -63 -19.5t-46 -48.5t-28.5 -64t-9.5 -65q0 -46 16 -69.5t61 -23.5q36 0 63.5 23.5t46 57.5t27.5 71t9 63z" />
    <glyph glyph-name="A" unicode="A" horiz-adv-x="820" 
d="M429 698q30 -58 65.5 -125t71.5 -136.5t72 -137t67.5 -126.5t57 -105t42.5 -73q-17 2 -33 3.5t-33 1.5t-33 -1.5t-33 -3.5q-9 26 -24 58.5t-32.5 68t-36.5 72t-36 69.5q-41 1 -81.5 1.5t-82.5 0.5q-38 0 -76 -0.5t-76 -1.5q-40 -78 -72.5 -149t-49.5 -119
q-12 2 -23.5 3.5t-22.5 1.5t-22.5 -1.5t-23.5 -3.5q101 177 198 351t193 352h24zM388 563l-137 -254q33 0 68 -1t67 -1q35 0 70 0.5t70 1.5z" />
    <glyph glyph-name="B" unicode="B" horiz-adv-x="632" 
d="M52 427q0 65 -3 129.5t-7 128.5q33 -2 66.5 -3.5t66.5 -1.5q32 0 65.5 2.5t66.5 2.5q54 0 102 -6.5t84 -23t57 -44.5t21 -70q0 -37 -15 -65.5t-43 -50.5t-66.5 -36.5t-85.5 -22.5v-2q56 -2 100.5 -12.5t75.5 -31t47.5 -51t16.5 -73.5q0 -56 -29 -94t-74.5 -62t-102 -34.5
t-110.5 -10.5q-30 0 -61 2.5t-61 2.5t-60.5 -1.5t-60.5 -3.5q4 66 7 130.5t3 129.5v172zM222 378q44 0 87 7t76.5 23.5t54.5 44t21 69.5q0 40 -18.5 65t-48 38.5t-65.5 18t-72 4.5q-32 0 -54.5 -1.5t-40.5 -3.5q-2 -48 -4.5 -95t-2.5 -95v-75h67zM155 239q0 -51 2.5 -101
t4.5 -101q23 -2 56 -3.5t67 -1.5q40 0 76.5 11t64 32.5t44 52.5t16.5 72q0 43 -19.5 70t-55.5 43t-87 22t-113 6h-56v-102z" />
    <glyph glyph-name="C" unicode="C" horiz-adv-x="803" 
d="M744 39q-12 -8 -36.5 -17.5t-58.5 -18.5t-76 -15t-89 -6q-99 0 -182.5 24t-144.5 70t-95 112.5t-34 151.5t34.5 151.5t96.5 112.5t148 70t190 24q81 0 150.5 -13.5t120.5 -32.5q-10 -14 -16 -38l-10 -40l-8 -2q-13 12 -35.5 27t-52.5 29t-67.5 23.5t-81.5 9.5
q-74 0 -137.5 -19t-110 -58.5t-73 -100t-26.5 -143.5t26.5 -143.5t73 -100t110 -58.5t137.5 -19q44 0 82.5 9t70.5 21.5t57 27t43 25.5l5 -4z" />
    <glyph glyph-name="D" unicode="D" horiz-adv-x="863" 
d="M154 254q0 -54 2 -107t6 -105q26 -5 71 -7.5t93 -2.5q69 0 137 13t123 49t89 98.5t34 161.5q0 87 -26.5 143t-74 88.5t-112.5 45t-142 12.5q-55 0 -104.5 -3t-87.5 -7q-4 -48 -6 -100.5t-2 -106.5v-172zM52 426q0 65 -3 129.5t-7 129.5q47 -2 94 -3.5t95 -1.5
q47 0 94 2.5t94 2.5q110 0 188 -23t128 -65.5t73.5 -104t23.5 -138.5q0 -67 -20 -119.5t-54 -92.5t-79.5 -68t-96 -45.5t-103.5 -25.5t-102 -8q-42 0 -83.5 2.5t-84.5 2.5q-42 0 -83.5 -1.5t-83.5 -3.5q4 65 7 129.5t3 129.5v172z" />
    <glyph glyph-name="E" unicode="E" horiz-adv-x="506" 
d="M52 427q0 65 -3 129.5t-7 128.5q57 -2 111.5 -3.5t111.5 -1.5t112 1.5t111 3.5q-4 -13 -4 -30t4 -30q-39 2 -72.5 4.5t-70 4.5t-81 3t-105.5 1q-1 -32 -3 -61t-2 -66q0 -39 0.5 -76t0.5 -56q55 0 99.5 1t80.5 2.5t66 3t58 3.5q-2 -8 -3 -15.5t-1 -15.5t1 -15t3 -15
q-32 3 -75 4.5t-86.5 2.5t-82 1.5t-60.5 0.5q0 -9 -0.5 -19.5t-0.5 -26v-39.5v-60q0 -112 3 -150q42 0 88.5 0.5t92 1.5t86 3.5t70.5 7.5q-2 -7 -3 -15.5t-1 -15.5t1 -14.5t3 -14.5q-56 2 -112 3.5t-113 1.5t-113.5 -1.5t-113.5 -3.5q4 66 7 130.5t3 129.5v172z" />
    <glyph glyph-name="F" unicode="F" horiz-adv-x="505" 
d="M52 426q0 65 -3 129.5t-7 129.5q57 -2 111.5 -3.5t111.5 -1.5t114 1.5t125 3.5q-2 -8 -3 -15t-1 -15t1 -15t3 -15q-34 3 -81 5t-96.5 4t-95 3t-76.5 1q-1 -35 -1.5 -67t-0.5 -64q0 -35 0.5 -64.5t0.5 -61.5q81 0 163 2t160 8q-5 -17 -5 -30t5 -30q-32 3 -71 4.5t-81.5 2
t-86.5 1t-84 0.5v-85q0 -65 3 -129.5t7 -129.5q-16 2 -31 3.5t-30 1.5t-30 -1.5t-31 -3.5q4 65 7 129.5t3 129.5v172z" />
    <glyph glyph-name="G" unicode="G" horiz-adv-x="875" 
d="M793 563q-19 18 -46.5 36t-62.5 31.5t-77 22t-89 8.5q-78 0 -145 -19t-116 -58.5t-77 -100t-28 -143.5q0 -74 25 -132.5t73 -99t117 -62.5t157 -22q27 0 55.5 2t55.5 6t50 10t39 14l2 60t1 61q0 35 -2.5 70t-4.5 67q28 -5 60 -5q14 0 28 1t26 4q-2 -23 -3.5 -72.5
t-1.5 -130.5q0 -20 0.5 -40.5t0.5 -40.5q-27 -8 -66 -16t-83 -15.5t-88.5 -12t-80.5 -4.5q-112 0 -201.5 23t-152 68t-96 112t-33.5 155q0 85 35 151.5t98.5 112.5t154 70t201.5 24q63 0 112.5 -5.5t88 -14t67.5 -19t51 -19.5q-10 -14 -18 -36t-11 -41h-15z" />
    <glyph glyph-name="H" unicode="H" horiz-adv-x="833" 
d="M677 426q0 65 -3 129.5t-7 129.5q16 -2 31 -3.5t30 -1.5t30 1.5t32 3.5q-4 -65 -7 -129.5t-3 -129.5v-172q0 -65 3 -129.5t7 -129.5q-17 2 -32 3.5t-30 1.5t-30 -1.5t-31 -3.5q4 65 7 129.5t3 129.5v90q-66 1 -130.5 1.5t-130.5 0.5t-130.5 -0.5t-130.5 -1.5v-90
q0 -65 3 -129.5t7 -129.5q-17 2 -32 3.5t-30 1.5t-30 -1.5t-31 -3.5q4 65 7 129.5t3 129.5v172q0 65 -3 129.5t-7 129.5q16 -2 31 -3.5t30 -1.5t30 1.5t32 3.5q-4 -65 -7 -129.5t-3 -129.5v-35q66 -1 130.5 -2t130.5 -1t130.5 1t130.5 2v35z" />
    <glyph glyph-name="I" unicode="I" horiz-adv-x="204" 
d="M51 426q0 65 -3 129.5t-7 129.5q16 -2 31 -3.5t30 -1.5t30 1.5t31 3.5q-4 -65 -7 -129.5t-3 -129.5v-172q0 -65 3 -129.5t7 -129.5q-16 2 -31 3.5t-30 1.5t-30 -1.5t-31 -3.5q4 65 7 129.5t3 129.5v172z" />
    <glyph glyph-name="J" unicode="J" horiz-adv-x="309" 
d="M2 -116q55 0 86.5 19.5t48 54.5t21 84.5t4.5 108.5v275q0 65 -3 129.5t-7 129.5q16 -2 31 -3.5t30 -1.5t30 1.5t31 3.5q-4 -65 -7 -129.5t-3 -129.5q0 -45 0.5 -93t1.5 -94.5t1.5 -89.5t0.5 -79q0 -45 -18.5 -84t-52 -68t-81 -45.5t-104.5 -16.5z" />
    <glyph glyph-name="K" unicode="K" horiz-adv-x="710" 
d="M43 -5q4 65 7 129.5t3 129.5v172q0 65 -3 129.5t-7 129.5q16 -2 31 -3.5t30 -1.5t30 1.5t32 3.5q-4 -65 -7 -129.5t-3 -129.5v-55q0 -8 7 -8q5 0 18 9q43 30 91 68t96.5 79t96.5 83.5t92 82.5q12 -2 25 -3.5t26 -1.5q15 0 30 1.5t30 3.5q-43 -30 -98.5 -71t-111 -84
t-106 -84.5t-84.5 -72.5q101 -91 204.5 -186t209.5 -192q-19 2 -37.5 3.5t-37.5 1.5q-17 0 -34.5 -1.5t-34.5 -3.5q-45 44 -99 97t-105.5 102.5t-94 89t-62.5 55.5q-11 8 -15 8q-6 0 -6 -6v-87q0 -65 3 -129.5t7 -129.5q-17 2 -32 3.5t-30 1.5t-30 -1.5t-31 -3.5z" />
    <glyph glyph-name="L" unicode="L" horiz-adv-x="503" 
d="M52 426q0 65 -3 129.5t-7 129.5q16 -2 31 -3.5t30 -1.5t30 1.5t31 3.5q-4 -65 -7 -129.5t-3 -129.5q0 -126 1.5 -218.5t2.5 -165.5h86t84 1.5t85 4t90 7.5q-6 -15 -6 -30t6 -30q-57 2 -115 3.5t-115 1.5q-58 0 -115.5 -1.5t-115.5 -3.5q4 65 7 129.5t3 129.5v172z" />
    <glyph glyph-name="M" unicode="M" horiz-adv-x="1055" 
d="M174 698q86 -142 174.5 -276t184.5 -275q12 19 36 55t55 81.5t67.5 99t73.5 108t72.5 108t66.5 99.5h17q14 -96 26 -185.5t24 -176t24.5 -171t27.5 -170.5q-15 2 -29.5 3.5t-29.5 1.5t-29 -1.5t-29 -3.5q-14 135 -28 261t-34 255h-2q-86 -126 -169.5 -250.5
t-158.5 -260.5h-11q-73 125 -156 252.5t-165 258.5h-3q-9 -62 -19 -134.5t-19 -143t-15 -133.5t-7 -105q-11 2 -21.5 3.5t-21.5 1.5t-22 -1.5t-22 -3.5q16 83 33.5 173.5t33.5 181.5t30 179.5t24 168.5h21z" />
    <glyph glyph-name="N" unicode="N" horiz-adv-x="827" 
d="M753 -18q-71 67 -148.5 136.5t-158 139t-162.5 139.5t-162 138q-2 -28 -3 -75.5t-1 -127.5q0 -21 0.5 -52t1 -65t1.5 -69t2.5 -65t2.5 -53t3 -33q-23 5 -44 5q-11 0 -22.5 -1.5t-23.5 -3.5q2 12 5 39.5t6 65t5.5 81.5l5 88t3.5 86t1 75q0 95 -0.5 164.5t-2.5 103.5h20
q76 -66 163 -141.5t172 -149t162.5 -139t134.5 -111.5v136.5t-1 137t-3 132t-6 122.5q23 -5 43 -5q17 0 40 5q-3 -22 -6.5 -66t-6.5 -94t-5 -98t-2 -77q0 -38 0.5 -94t1 -111.5t1 -100.5t0.5 -62h-17z" />
    <glyph glyph-name="O" unicode="O" horiz-adv-x="999" 
d="M845 340q0 83 -26.5 143.5t-73 100t-110 58.5t-136.5 19t-136 -19t-109.5 -58.5t-73 -100t-26.5 -143.5t26.5 -143.5t73 -100t109.5 -58.5t136 -19t136.5 19t110 58.5t73 100t26.5 143.5zM31 340q0 85 34.5 151.5t96.5 112.5t148 70t189 24t189.5 -24t148.5 -70
t96.5 -112.5t34.5 -151.5t-34.5 -151.5t-96.5 -112.5t-148.5 -70t-189.5 -24t-189 24t-148 70t-96.5 112.5t-34.5 151.5z" />
    <glyph glyph-name="P" unicode="P" horiz-adv-x="599" 
d="M52 426q0 65 -3 129.5t-7 129.5q30 -2 60.5 -3.5t60.5 -1.5q15 0 36 1t43 1.5t42.5 1.5t33.5 1q19 0 46.5 -1t58 -6t60.5 -15t54.5 -29t39.5 -47.5t15 -70.5q0 -66 -35.5 -107t-87.5 -64t-110 -31t-103 -8q-29 0 -53 0.5t-49 2.5v-55q0 -65 3 -129.5t7 -129.5
q-16 2 -31 3.5t-30 1.5t-30 -1.5t-31 -3.5q4 65 7 129.5t3 129.5v172zM154 351q20 -4 44.5 -6t44.5 -2q39 0 80 7t75.5 25.5t56.5 51t22 83.5q0 43 -14.5 70t-42 42t-66.5 20.5t-87 5.5h-113v-297z" />
    <glyph glyph-name="Q" unicode="Q" horiz-adv-x="984" 
d="M830 340q0 83 -26.5 143.5t-73 100t-110 58.5t-136.5 19t-136 -19t-109.5 -58.5t-73 -100t-26.5 -143.5t26.5 -143.5t73 -100t109.5 -58.5t136 -19t136.5 19t110 58.5t73 100t26.5 143.5zM16 340q0 85 34.5 151.5t96.5 112.5t148 70t189 24t189.5 -24t148.5 -70
t96.5 -112.5t34.5 -151.5q0 -70 -23.5 -127.5t-66.5 -101.5t-104 -73.5t-136 -43.5q66 -43 136 -86t146 -86q-33 -2 -60 -15t-37 -26q-69 51 -139.5 101t-148.5 101q-9 -1 -18 -1h-18q-103 0 -189 24t-148 70t-96.5 112.5t-34.5 151.5z" />
    <glyph glyph-name="R" unicode="R" horiz-adv-x="697" 
d="M154 369q17 -3 38.5 -4t45.5 -1q39 0 81 7t77 24.5t58 47t23 74.5q0 39 -18.5 64.5t-47 40.5t-62.5 20.5t-66 5.5q-43 0 -72 -1.5t-49 -3.5q-3 -55 -5.5 -109t-2.5 -108v-57zM52 426q0 65 -3 129.5t-7 129.5q35 -2 71 -3.5t71 -1.5q36 0 71.5 2.5t71.5 2.5q53 0 100 -8
t82.5 -26.5t56.5 -48.5t21 -75q0 -48 -26.5 -82.5t-65.5 -57.5t-83.5 -35t-80.5 -16q15 -15 41.5 -42t58.5 -59.5t67 -67.5l68 -68t61 -60.5t46 -43.5q-19 2 -37.5 3.5t-37.5 1.5q-18 0 -36.5 -1.5t-35.5 -3.5q-13 15 -34 39.5t-48.5 54t-58.5 62.5t-62.5 65t-62.5 60.5
t-58 50.5h-48v-73q0 -65 3 -129.5t7 -129.5q-16 2 -31 3.5t-30 1.5t-30 -1.5t-31 -3.5q4 65 7 129.5t3 129.5v172z" />
    <glyph glyph-name="S" unicode="S" horiz-adv-x="578" 
d="M71 128q10 -18 27.5 -36.5t41.5 -33.5t56 -24.5t73 -9.5q42 0 75 11.5t56 31t35.5 46t12.5 56.5q0 46 -29 73t-73 45t-95 33t-95 37.5t-73 57.5t-29 94q0 42 19 76.5t54 59.5t85.5 39t112.5 14q60 0 103.5 -11.5t81.5 -35.5q-11 -17 -18.5 -36t-15.5 -48h-15
q-6 14 -17 30.5t-28.5 30.5t-42.5 23.5t-60 9.5t-65 -9t-51.5 -25.5t-33.5 -39.5t-12 -50q0 -47 29 -74t73 -45.5t95 -33t95 -35.5t73 -54t29 -88q0 -46 -21 -87t-60 -71.5t-96 -48.5t-129 -18q-78 0 -126 18t-80 39q6 12 9.5 22t6 20t4 21.5t3.5 25.5h15z" />
    <glyph glyph-name="T" unicode="T" horiz-adv-x="665" 
d="M282 426q0 52 -1 103.5t-3 103.5q-32 0 -68 -0.5t-72 -2t-69 -3.5t-59 -5q7 17 7 32q0 8 -2 15.5t-5 15.5q81 -2 161.5 -3.5t161.5 -1.5t161 1.5t161 3.5l-4 -16t-2 -16t2 -15.5t4 -15.5q-26 3 -59 5t-68.5 3.5t-71.5 2t-68 0.5q-2 -52 -3 -103.5t-1 -103.5v-172
q0 -65 3 -129.5t7 -129.5q-16 2 -31 3.5t-30 1.5t-30 -1.5t-31 -3.5q4 65 7 129.5t3 129.5v172z" />
    <glyph glyph-name="U" unicode="U" horiz-adv-x="812" 
d="M695 360q0 142 -1 219t-6 106q12 -2 25 -3.5t26 -1.5q18 0 38 5q-4 -35 -7.5 -83.5t-6.5 -104t-5.5 -114t-3.5 -113.5q-1 -66 -25 -119.5t-69.5 -91t-111.5 -57.5t-150 -20q-186 0 -272 70t-86 216q0 47 3.5 83.5t3.5 74.5q0 83 -3 149l-5 110q15 -2 32.5 -3.5t32.5 -1.5
q14 0 28 1.5t26 3.5q-3 -22 -5.5 -57.5t-5 -80.5t-3.5 -97.5t-1 -107.5q0 -34 1.5 -70.5t9 -71t24.5 -66t48 -55t78.5 -37t117.5 -13.5q68 0 115 16t77 42t46.5 60t24 71t9 73.5t1.5 68.5z" />
    <glyph glyph-name="V" unicode="V" horiz-adv-x="822" 
d="M365 -5q-28 62 -69 145t-88 175.5t-97 188t-95 181.5q16 -2 32.5 -3.5t32.5 -1.5t32.5 1.5t32.5 3.5q28 -66 61 -138.5t70 -147.5t76 -152t78 -153q23 41 49 91t53 105t54 111t51 108.5t44 97.5t33 78q25 -5 46 -5t46 5q-195 -345 -360 -690q-11 2 -20.5 3.5t-20.5 1.5
q-23 0 -41 -5z" />
    <glyph glyph-name="W" unicode="W" horiz-adv-x="1272" 
d="M298 -5q-10 27 -30.5 81.5t-46.5 122.5t-55 142.5t-55.5 142t-48.5 121t-34 80.5q16 -2 31 -3.5t32 -1.5q16 0 31 1.5t31 3.5q24 -76 46.5 -142.5t48 -135t54.5 -144t67 -170.5h3q11 27 31 74.5t44 105t49.5 119.5t48.5 118.5t40.5 102.5t25.5 72q22 -5 41 -5
q11 0 20.5 1.5t20.5 3.5q9 -27 27.5 -74t41.5 -104t48.5 -119.5t48.5 -119t42.5 -103t30.5 -72.5h2q9 22 28 68.5t42 105t47.5 123t46 123t38 104.5t22.5 68q11 -2 22 -3.5t22 -1.5t22 1.5t22 3.5q-9 -18 -25 -52.5t-36 -80t-43.5 -99t-47 -109t-46.5 -109.5t-42.5 -100.5
t-35 -83t-23.5 -56.5q-23 5 -43 5q-19 0 -42 -5q-55 141 -111.5 282.5t-118.5 290.5h-3q-10 -23 -26.5 -61.5t-37 -86.5t-44 -103t-47 -111t-46.5 -110t-42 -101q-11 2 -22 3.5t-22 1.5t-22 -1.5t-22 -3.5z" />
    <glyph glyph-name="X" unicode="X" horiz-adv-x="734" 
d="M383 411q29 34 55.5 66.5t52 66t50.5 68t51 73.5q25 -5 46 -5q22 0 47 5q-71 -79 -140 -155t-133 -157q71 -96 143 -190t147 -188q-18 2 -35 3.5t-35 1.5t-35 -1.5t-35 -3.5q-50 76 -99.5 151.5t-112.5 151.5q-64 -76 -120 -151.5t-107 -151.5q-25 5 -46 5t-46 -5
q75 85 146.5 171t142.5 173q-66 87 -131 173t-134 173q17 -2 33.5 -3.5t33.5 -1.5t34 1.5t34 3.5q42 -67 89 -132.5t104 -141.5z" />
    <glyph glyph-name="Y" unicode="Y" horiz-adv-x="737" 
d="M318 279q-12 17 -36 49.5t-53.5 72.5t-61.5 83.5t-61.5 82.5t-54 70.5t-37.5 47.5q17 -2 34.5 -3.5t34.5 -1.5t34.5 1.5t34.5 3.5q54 -86 113 -171t124 -175q29 36 60 79t62 88t60 90.5t54 88.5q13 -2 25 -3.5t24 -1.5t24.5 1.5t24.5 3.5q-60 -73 -107 -132t-84 -107
t-64.5 -86.5t-47.5 -69.5q0 -37 0.5 -79t2 -82t3.5 -75.5t4 -58.5q-16 2 -31 3.5t-30 1.5t-30 -1.5t-31 -3.5q8 54 9 128.5t1 155.5z" />
    <glyph glyph-name="Z" unicode="Z" horiz-adv-x="750" 
d="M20 12q49 54 104 115.5t110 124.5t107 123.5t96 111.5t76.5 90t48.5 59q-23 1 -45.5 1.5t-42.5 0.5q-45 0 -100 -1t-110.5 -3.5t-105.5 -5t-86 -5.5q2 8 4 15.5t2 15.5t-2 15.5t-4 15.5q61 -4 193.5 -4.5t327.5 -0.5q34 0 68 1.5t66 3.5v-18q-25 -21 -70 -69t-99.5 -109
t-113.5 -129t-112 -130t-93.5 -111.5t-58.5 -73.5q30 -2 55 -2.5t49 -0.5q48 0 111 1.5t125.5 4t118 6t88.5 6.5q-3 -9 -5 -17t-2 -16t2 -16t5 -16q-45 1 -83 2t-73 1.5t-68.5 1t-69.5 0.5q-49 0 -110.5 -0.5t-121 -1t-108.5 -1.5t-73 -2v17z" />
    <glyph glyph-name="bracketleft" unicode="[" horiz-adv-x="248" 
d="M49 407q0 70 -1.5 138.5t-5.5 137.5q27 -3 63 -3q16 0 35 0.5t38.5 1t37 1t29.5 0.5q-1 -4 -1.5 -7t-0.5 -7q0 -5 2 -15q-26 1 -55 1.5t-58 0.5q-5 -62 -7.5 -124t-2.5 -125v-252q0 -63 2.5 -125t7.5 -124q29 0 58 0.5t55 1.5q-2 -10 -2 -15q0 -4 0.5 -7t1.5 -7
q-12 0 -29.5 0.5t-37 1t-38.5 1t-35 0.5q-36 0 -63 -3q4 69 5.5 137.5t1.5 138.5v252z" />
    <glyph glyph-name="backslash" unicode="\" horiz-adv-x="416" 
d="M3 703q18 -5 32 -5q9 0 17 1.5t16 3.5l345 -726q-8 2 -16 3.5t-17 1.5q-14 0 -32 -5z" />
    <glyph glyph-name="bracketright" unicode="]" horiz-adv-x="249" 
d="M126 407q0 63 -2.5 125t-7.5 124q-29 0 -58 -0.5t-55 -1.5q2 10 2 15q0 4 -0.5 7t-1.5 7q12 0 29.5 -0.5t37 -1t38.5 -1t35 -0.5q36 0 63 3q-4 -69 -5.5 -137.5t-1.5 -138.5v-252q0 -70 1.5 -138.5t5.5 -137.5q-27 3 -63 3q-16 0 -35 -0.5t-38.5 -1t-37 -1t-29.5 -0.5
q1 4 1.5 7t0.5 7q0 5 -2 15q26 -1 55 -1.5t58 -0.5q5 62 7.5 124t2.5 125v252z" />
    <glyph glyph-name="asciicircum" unicode="^" horiz-adv-x="685" 
d="M311 656h65l292 -453h-65l-261 406l-261 -406h-65z" />
    <glyph glyph-name="underscore" unicode="_" horiz-adv-x="712" 
d="M43 -130v50h625v-50h-625z" />
    <glyph glyph-name="grave" unicode="`" horiz-adv-x="298" 
d="M56 653q-15 8 -30 18.5t-15 28.5q0 16 14.5 24t26.5 8q14 0 28.5 -6.5t27.5 -17.5l184 -149h-52z" />
    <glyph glyph-name="a" unicode="a" horiz-adv-x="582" 
d="M84 425q57 34 104 46t97 12q45 0 82.5 -10.5t64 -30t41.5 -47t15 -60.5q0 -57 -2.5 -113.5t-2.5 -119.5q0 -12 1 -25.5t5.5 -24t14.5 -17.5t28 -7q5 0 12 0.5t14 3.5v-22q-14 -5 -35 -9.5t-45 -4.5q-41 0 -61.5 18t-24.5 44q-23 -18 -44.5 -31.5t-44.5 -23t-49.5 -14
t-58.5 -4.5q-31 0 -61 8.5t-53 24.5t-37.5 38.5t-14.5 51.5q0 60 47.5 93t128.5 44q68 9 106 15.5t56 13.5t22 16.5t4 24.5q0 25 -7.5 48t-24 40t-43 27.5t-63.5 10.5q-50 0 -92.5 -18t-64.5 -50h-14v52zM393 247q-21 -6 -49 -10t-57 -8.5t-57 -11.5t-49.5 -19t-35 -30.5
t-13.5 -45.5q0 -24 9 -41.5t24 -29.5t34.5 -18t40.5 -6q48 0 87 21t61 49z" />
    <glyph glyph-name="b" unicode="b" horiz-adv-x="621" 
d="M612 248q0 -57 -21.5 -105.5t-59.5 -83.5t-90 -54.5t-113 -19.5q-59 0 -107.5 22t-73.5 51q-23 -14 -43.5 -28.5t-40.5 -29.5h-22q3 23 4.5 57.5t3 73t2 78t0.5 74.5v181q0 34 -0.5 74t-2 79t-3 74.5t-4.5 60.5q14 -2 28 -3.5t28 -1.5t29 1.5t32 3.5q-3 -20 -5.5 -63.5
t-4 -97t-3 -110t-2.5 -102.5h3q42 53 94 78.5t118 25.5q65 0 112.5 -19.5t79 -51.5t47 -75t15.5 -89zM502 251q0 46 -14 81.5t-37.5 59.5t-54 36.5t-63.5 12.5q-40 0 -75 -11.5t-61.5 -38t-41.5 -69t-15 -104.5q0 -100 46 -150.5t136 -50.5q39 0 72 16.5t57 47.5t37.5 74
t13.5 96z" />
    <glyph glyph-name="c" unicode="c" horiz-adv-x="583" 
d="M29 234q0 65 27.5 112t72 77.5t102 45t117.5 14.5q34 0 65.5 -3.5t57.5 -9.5t46 -14t32 -17q-8 -15 -15.5 -31.5t-12.5 -34.5h-10q-9 13 -24 26.5t-35 25t-45.5 19t-55.5 7.5q-57 0 -97 -16.5t-65.5 -45.5t-37.5 -68.5t-12 -85.5q0 -103 55.5 -155.5t160.5 -52.5
q25 0 51 5.5t51 15t47 22.5t39 28l6 -3q-3 -12 -4.5 -24.5t-3.5 -24.5q-38 -24 -94 -42.5t-114 -18.5q-54 0 -108.5 13.5t-98 43.5t-70.5 77.5t-27 114.5z" />
    <glyph glyph-name="d" unicode="d" horiz-adv-x="620" 
d="M476 93h-2q-9 -16 -26 -34.5t-43 -35t-61 -27.5t-81 -11q-48 0 -93.5 14t-81 44t-57.5 76.5t-22 111.5q0 64 23.5 111t62 78.5t86.5 47t97 15.5q69 0 117.5 -25.5t74.5 -74.5h3v98.5t-0.5 101t-1.5 93.5t-3 76q15 -2 28.5 -3.5t27.5 -1.5q13 0 26.5 1.5t29.5 3.5
q-4 -32 -7 -92.5t-4.5 -133.5t-2.5 -150t-1 -141q0 -68 1.5 -124t2.5 -116q-14 2 -26 3.5t-23 1.5t-22.5 -1.5t-24.5 -3.5zM119 225q0 -60 15.5 -99t40 -62.5t55.5 -32.5t61 -9q49 0 84 19.5t58 51t34 71t11 80.5q0 95 -46.5 146t-136.5 51q-45 0 -78 -16.5t-55 -46
t-32.5 -69t-10.5 -84.5z" />
    <glyph glyph-name="e" unicode="e" horiz-adv-x="619" 
d="M37 220q0 122 74 192.5t213 70.5q66 0 114.5 -16.5t80.5 -44t47.5 -64.5t15.5 -79q0 -10 -0.5 -19.5t-1.5 -19.5q-68 1 -134.5 2t-133.5 1q-42 0 -81.5 -1t-81.5 -2q-2 -8 -2 -14.5v-13.5q0 -39 14.5 -73t42 -58.5t68 -39t92.5 -14.5q25 0 51 5.5t50.5 15t46.5 22.5
t39 28l6 -3l-7 -49q-38 -24 -94 -42.5t-115 -18.5q-68 0 -123.5 18t-96 49.5t-62.5 74.5t-22 93zM326 451q-46 0 -78 -17t-53 -42.5t-31.5 -56t-12.5 -57.5q38 -1 80.5 -2t82.5 -1q42 0 84 1t82 2q0 27 -6 57t-22.5 56t-46.5 43t-79 17z" />
    <glyph glyph-name="f" unicode="f" horiz-adv-x="372" 
d="M349 669q-30 15 -69 15q-28 0 -47.5 -8.5t-32 -22t-18 -32t-5.5 -37.5q0 -18 5 -52t10 -65q32 0 64.5 0.5t64.5 0.5q-1 -5 -1.5 -10t-0.5 -10t0.5 -10t1.5 -10q-32 1 -64.5 2t-64.5 1q0 -109 0.5 -217t4.5 -219q-28 5 -53 5q-14 0 -27.5 -1.5t-27.5 -3.5q8 111 9.5 218.5
t1.5 217.5q-23 0 -45 -1t-45 -2q1 5 1.5 10t0.5 10t-0.5 10t-1.5 10q23 0 45.5 -0.5t44.5 -0.5q0 29 7.5 63t22 67t34.5 62.5t45 49.5q23 18 57.5 32t69.5 14q14 0 25 -3q-1 -20 -3 -40t-2 -40z" />
    <glyph glyph-name="g" unicode="g" horiz-adv-x="619" 
d="M52 320q0 42 19 72.5t51.5 50.5t76 30t92.5 10q23 0 45 -1t56 -3q29 -2 51.5 -3t36.5 -1q37 0 63 1.5t38 3.5q-1 -5 -1.5 -10.5t-0.5 -10.5t0.5 -10.5t1.5 -10.5q-35 2 -70 4.5t-69 3.5l-2 -2q38 -17 62 -52.5t24 -73.5t-16.5 -67.5t-46.5 -50t-73 -31.5t-96 -11
q-17 0 -34 1t-35 1q-23 0 -42 -13t-19 -33q0 -26 15.5 -38t57.5 -13q35 -1 69 -1.5t69 -1.5q57 -1 97.5 -11t66.5 -27.5t38 -40t12 -49.5q0 -35 -17 -71t-53 -65t-92 -48t-135 -19q-60 0 -108.5 10t-82 28.5t-52 45.5t-18.5 60q0 27 11.5 48.5t30.5 38t43 28t49 17.5v2
q-79 19 -79 80q0 16 8 30.5t21 25.5t29 18t31 9v2q-57 20 -90 56.5t-33 91.5zM429 325q0 62 -37.5 95.5t-99.5 33.5q-68 0 -105 -36.5t-37 -97.5q0 -62 34.5 -99t106.5 -37q36 0 62 11.5t43 31t25 45t8 53.5zM496 -111q0 59 -44.5 85t-144.5 26q-92 0 -144 -26t-52 -90
q0 -34 14 -58t39 -39t58.5 -22t72.5 -7q38 0 74 8t64.5 24t45.5 40.5t17 58.5z" />
    <glyph glyph-name="h" unicode="h" horiz-adv-x="560" 
d="M52 464q0 34 -0.5 74t-1.5 79t-3 74.5t-5 60.5q14 -2 28.5 -3.5t28.5 -1.5t28 1.5t28 3.5q-3 -25 -5 -60t-3 -74t-1.5 -77.5t-0.5 -71.5v-76h2q35 43 83.5 66.5t116.5 23.5q35 0 70.5 -8t64.5 -27.5t47 -53t18 -85.5q0 -43 -2.5 -88.5t-2.5 -96.5q0 -33 0.5 -65t2.5 -64
q-14 2 -26.5 3.5t-26.5 1.5q-13 0 -25 -1.5t-26 -3.5q2 55 5.5 110t3.5 113v61q0 74 -37 113t-99 39q-88 0 -128.5 -43t-40.5 -121q0 -29 0.5 -65.5t1.5 -74t3 -72.5t5 -60q-14 2 -28 3.5t-28 1.5t-28.5 -1.5t-28.5 -3.5q3 25 5 60.5t3 74.5t1.5 78.5t0.5 74.5v181z" />
    <glyph glyph-name="i" unicode="i" horiz-adv-x="196" 
d="M51 286q0 45 -2.5 94.5t-7.5 92.5q14 -2 28 -3.5t28 -1.5t28 1.5t28 3.5q-5 -43 -7.5 -92.5t-2.5 -94.5v-104q0 -45 2.5 -94.5t7.5 -92.5q-14 2 -28 3.5t-28 1.5t-28 -1.5t-28 -3.5q5 43 7.5 92.5t2.5 94.5v104zM33 647q0 21 19 36t45 15t45 -15t19 -36t-19 -36t-45 -15
t-45 15t-19 36z" />
    <glyph glyph-name="j" unicode="j" horiz-adv-x="270" 
d="M133 246q0 60 -2 122t-8 105q14 -2 28 -3.5t28 -1.5t28.5 1.5t28.5 3.5q-6 -43 -8 -92.5t-2 -94.5v-104q0 -58 2.5 -115t2.5 -115q0 -42 -6 -77.5t-34 -69.5q-28 -32 -75 -53t-107 -23l-8 34q5 -1 9 -1.5t11 -0.5q36 0 58 17t34 44t16 60.5t4 66.5v297zM116 647
q0 21 18.5 36t44.5 15t45 -15t19 -36t-19 -36t-45 -15t-44.5 15t-18.5 36z" />
    <glyph glyph-name="k" unicode="k" horiz-adv-x="565" 
d="M52 464q0 34 -0.5 74t-2 79t-3 74.5t-4.5 60.5q14 -2 28 -3.5t28 -1.5t28 1.5t28 3.5q-3 -25 -4.5 -60.5t-3 -74.5t-2 -79t-0.5 -74v-182q0 -19 15 -19q10 0 22 7t27 16q11 7 37.5 27t59.5 46.5t68.5 56.5t64.5 57q23 -5 48 -5q13 0 26.5 1.5t35.5 3.5
q-78 -51 -150 -100.5t-137 -100.5q72 -69 147.5 -138.5t153.5 -138.5l-38.5 3.5t-32.5 1.5q-17 0 -32.5 -1.5t-31.5 -3.5q-27 28 -61.5 62t-69.5 67t-66.5 61.5t-53.5 47.5q-4 4 -9 7t-10 3q-13 0 -13 -12v-60q0 -45 2.5 -88t7.5 -88q-14 2 -28 3.5t-28 1.5t-28 -1.5
t-28 -3.5q3 25 4.5 60.5t3 74.5t2 78.5t0.5 74.5v181z" />
    <glyph glyph-name="l" unicode="l" horiz-adv-x="191" 
d="M48 464q0 34 -0.5 74t-2 79t-3 74.5t-4.5 60.5q14 -2 28 -3.5t28 -1.5t28 1.5t28 3.5q-3 -25 -4.5 -60.5t-3 -74.5t-2 -79t-0.5 -74v-181q0 -35 0.5 -74.5t2 -78.5t3 -74.5t4.5 -60.5q-14 2 -28 3.5t-28 1.5t-28 -1.5t-28 -3.5q3 25 4.5 60.5t3 74.5t2 78.5t0.5 74.5v181
z" />
    <glyph glyph-name="m" unicode="m" horiz-adv-x="951" 
d="M52 286q0 45 -2 94.5t-8 92.5q14 -2 28 -3.5t28 -1.5q10 0 23 1.5t27 3.5q-3 -41 -3 -80h2q66 90 186 90q32 0 62 -7.5t54.5 -20.5t41.5 -31.5t24 -39.5h2q30 48 82.5 73.5t118.5 25.5q41 0 76 -9t61 -28t40.5 -49t14.5 -72q0 -17 -1.5 -37t-3 -46.5t-2.5 -60t-1 -77.5
q0 -27 0.5 -52t3.5 -57q-14 2 -27 3.5t-27 1.5t-27.5 -1.5t-27.5 -3.5q4 28 8.5 104.5t4.5 211.5q0 25 -6.5 47t-22 38t-41 25.5t-62.5 9.5q-45 0 -76.5 -14t-48.5 -33q-10 -11 -16 -22t-9 -33.5t-4 -63t-1 -111.5q0 -22 0.5 -40.5t1.5 -37.5t2 -38.5t3 -42.5q-14 2 -28 3.5
t-27 1.5q-14 0 -27.5 -1.5t-27.5 -3.5q5 57 8 114.5t3 112.5q0 46 -0.5 73t-3 43t-7 25.5t-12.5 21.5q-13 19 -42.5 32.5t-60.5 13.5q-81 0 -120.5 -43t-39.5 -121v-85q0 -45 2 -94.5t8 -92.5q-14 2 -28.5 3.5t-28.5 1.5t-28 -1.5t-28 -3.5q6 43 8 92.5t2 94.5v104z" />
    <glyph glyph-name="n" unicode="n" horiz-adv-x="585" 
d="M448 279q0 74 -37 113t-99 39q-88 0 -128.5 -43t-40.5 -121v-85q0 -45 2 -94.5t8 -92.5q-14 2 -28 3.5t-28 1.5t-28.5 -1.5t-28.5 -3.5q6 43 8 92.5t2 94.5v104q0 45 -2 94.5t-8 92.5q14 -2 28.5 -3.5t28.5 -1.5q9 0 22.5 1.5t27.5 3.5q-2 -20 -3 -40t-1 -40h2
q35 43 83.5 66.5t116.5 23.5q35 0 70.5 -8t64.5 -27.5t47 -53t18 -85.5q0 -43 -2.5 -88.5t-2.5 -96.5q0 -33 0.5 -65t2.5 -64q-14 2 -26.5 3.5t-26.5 1.5q-13 0 -25 -1.5t-26 -3.5q2 55 5.5 110t3.5 113v61v0z" />
    <glyph glyph-name="o" unicode="o" horiz-adv-x="679" 
d="M35 234q0 68 27 115.5t70.5 77t98 43t108.5 13.5t108.5 -13.5t98 -43t70.5 -77t27 -115.5t-27 -115.5t-70.5 -77t-98 -43t-108.5 -13.5t-108.5 13.5t-98 43t-70.5 77t-27 115.5zM145 234q0 -42 9.5 -81t32 -69.5t59.5 -48.5t93 -18q55 0 92.5 18t60 48.5t32 69.5t9.5 81
t-9.5 81t-32 69.5t-60 48.5t-92.5 18q-56 0 -93 -18t-59.5 -48.5t-32 -69.5t-9.5 -81z" />
    <glyph glyph-name="p" unicode="p" horiz-adv-x="622" 
d="M502 238q0 60 -15.5 99t-40 62.5t-55.5 32.5t-61 9q-51 0 -86.5 -17t-58 -45.5t-32.5 -67t-10 -81.5q0 -103 46.5 -155.5t136.5 -52.5q45 0 78 16.5t55 46t32.5 69t10.5 84.5zM51 182q0 34 -0.5 74t-2 79.5t-3 75.5t-4.5 62q14 -2 28 -3.5t28 -1.5t28 1.5t28 3.5
q-5 -26 -7.5 -50t-2.5 -48h3q9 16 25.5 34.5t42 35t61 27.5t82.5 11q48 0 94 -14.5t81.5 -44.5t57.5 -76.5t22 -110.5t-24 -111t-62 -78.5t-86.5 -47t-97.5 -15.5q-69 0 -118 25t-78 73h-3v-63q0 -35 0.5 -74.5t2 -78.5t3 -74.5t4.5 -60.5q-14 2 -28 3.5t-28 1.5t-28 -1.5
t-28 -3.5q3 25 4.5 60.5t3 74.5t2 78.5t0.5 74.5v162z" />
    <glyph glyph-name="q" unicode="q" horiz-adv-x="621" 
d="M478 244q0 38 -10 73.5t-32 63t-56 44t-82 16.5q-31 0 -62.5 -9.5t-57.5 -34t-42.5 -66.5t-16.5 -108q0 -43 10.5 -79.5t31.5 -63.5t52 -42.5t73 -15.5q48 0 84 19t60 50.5t36 71.5t12 81zM570 20q0 -35 0.5 -74.5t2 -78.5t3 -74.5t4.5 -60.5q-14 2 -28 3.5t-28 1.5
t-28 -1.5t-28 -3.5q3 25 4.5 60.5t3 74.5t2 78.5t0.5 74.5v75h-3q-35 -57 -88.5 -83.5t-115.5 -26.5q-46 0 -93 12.5t-84.5 41.5t-61 76t-23.5 116q0 66 24 113.5t61.5 78t84 45.5t92.5 15q85 0 133.5 -31t70.5 -77h3q0 24 -2.5 48t-7.5 50q14 -2 28 -3.5t28 -1.5t28 1.5
t28 3.5q-3 -26 -4.5 -62t-3 -75.5t-2 -79.5t-0.5 -74v-162z" />
    <glyph glyph-name="r" unicode="r" horiz-adv-x="351" 
d="M327 391q-7 6 -24.5 11t-36.5 5q-30 0 -54 -11t-40.5 -29.5t-25 -44t-8.5 -54.5v-109.5t0.5 -75t1.5 -51t3 -37.5q-12 2 -25 3.5t-25 1.5q-13 0 -25.5 -1.5t-26.5 -3.5q4 37 4.5 95.5t0.5 143.5v32q0 39 -0.5 90.5t-4.5 116.5q14 -2 26.5 -3.5t25.5 -1.5q12 0 25 1.5
t25 3.5q-5 -36 -5.5 -57t-0.5 -40l2 -1q36 54 79 81t86 27q11 0 19.5 -1t20.5 -5q-6 -12 -7 -36.5t-1 -44.5z" />
    <glyph glyph-name="s" unicode="s" horiz-adv-x="445" 
d="M70 91q7 -10 20 -22t31 -22.5t41 -17.5t49 -7q24 0 46 6t39 17t27 28t10 39q0 31 -22 47.5t-54.5 27t-71 18.5t-71 22.5t-54.5 38.5t-22 66q0 33 14 60.5t40 47.5t64.5 31.5t88.5 11.5q46 0 78 -10t61 -18q-11 -14 -19.5 -37t-10.5 -34h-15q-10 24 -39 43t-71 19
q-18 0 -37 -5t-34.5 -15t-25 -26t-9.5 -38q0 -32 22 -49.5t54.5 -27.5t71 -18t71 -21t54.5 -37t22 -66q0 -29 -16 -57t-45 -50.5t-70.5 -36.5t-93.5 -14q-58 0 -97 10.5t-65 22.5q8 13 16 35.5t8 37.5h15z" />
    <glyph glyph-name="t" unicode="t" horiz-adv-x="350" 
d="M196 607h6q-4 -38 -6 -74.5t-4 -73.5q13 0 51 0.5t81 2.5q-1 -5 -1 -10.5v-10.5v-10.5t1 -10.5q-16 1 -34.5 1.5t-36.5 0.5h-34h-27q-1 -4 -2.5 -32t-3 -66.5t-2.5 -80.5t-1 -75q0 -28 2 -55t11.5 -48.5t30 -34.5t57.5 -13q11 0 27.5 2t29.5 5v-24q-22 -6 -47.5 -10.5
t-49.5 -4.5q-78 0 -115.5 33t-37.5 92q0 27 1 58.5t2.5 69t3 83t1.5 101.5h-39.5t-45.5 -2q3 12 3 23q0 9 -3 20q57 -3 83 -3q-1 20 -2 50t-3 62z" />
    <glyph glyph-name="u" unicode="u" horiz-adv-x="585" 
d="M39 149q0 53 2 90.5t2 74.5q0 35 -0.5 76t-1.5 83q28 -5 52 -5q23 0 51 5q-5 -59 -8.5 -131.5t-3.5 -146.5q0 -52 11 -79.5t28 -41.5q17 -16 43.5 -26.5t63.5 -10.5q53 0 88 18.5t51 45.5q9 16 14.5 28.5t8 32.5t3 54t0.5 93v84.5t-2 79.5q13 -2 25.5 -3.5t26.5 -1.5
t26.5 1.5t24.5 3.5q-5 -78 -6.5 -151t-1.5 -153q0 -45 1 -88.5t4 -85.5q-13 2 -25 3.5t-24 1.5t-24.5 -1.5t-24.5 -3.5q2 22 2.5 43.5t0.5 42.5h-3q-32 -47 -83.5 -71.5t-111.5 -24.5q-98 0 -153.5 43t-55.5 121z" />
    <glyph glyph-name="v" unicode="v" horiz-adv-x="604" 
d="M258 -5q-57 120 -115 238.5t-127 239.5q16 -2 31 -3.5t31 -1.5q14 0 27.5 1.5t27.5 3.5q38 -98 85 -194.5t101 -195.5q25 41 50 88.5t49 98.5t47.5 102.5t45.5 100.5q20 -5 38 -5q19 0 39 5q-67 -121 -132 -239.5t-119 -238.5q-22 5 -39 5q-11 0 -20 -1.5t-20 -3.5z" />
    <glyph glyph-name="w" unicode="w" horiz-adv-x="999" 
d="M254 -5q-15 39 -39 96.5t-54 122.5t-62.5 132t-63.5 127q15 -2 29.5 -3.5t29.5 -1.5q14 0 28.5 1.5t28.5 3.5q32 -94 71.5 -188.5t88.5 -194.5q15 28 36 74t44 99t45.5 108t39.5 102q10 -2 19 -3.5t19 -1.5q9 0 17 1.5t18 3.5q31 -95 72.5 -189t86.5 -194q16 32 38 78.5
t46 98t48 105.5t45 101q11 -2 20 -3.5t20 -1.5q18 0 38 5q-71 -121 -133 -239.5t-116 -238.5q-8 2 -16 3.5t-17 1.5q-8 0 -16.5 -1.5t-15.5 -3.5q-32 91 -71 182t-89 189q-15 -30 -36.5 -74.5t-44 -95.5t-45 -103.5t-39.5 -97.5q-8 2 -17.5 3.5t-17.5 1.5t-17.5 -1.5
t-17.5 -3.5z" />
    <glyph glyph-name="x" unicode="x" horiz-adv-x="629" 
d="M326 286q45 47 88 93t85 94q11 -2 21.5 -3.5t21.5 -1.5t21.5 1.5t21.5 3.5q-60 -55 -117 -108.5t-113 -107.5q112 -130 241 -262q-16 2 -31.5 3.5t-32.5 1.5q-16 0 -31.5 -1.5t-31.5 -3.5q-42 51 -85.5 102t-88.5 102q-46 -51 -90.5 -102t-87.5 -102q-22 5 -41 5
q-20 0 -42 -5q60 59 117 117t114 117q-56 61 -113 121.5t-117 122.5q17 -2 33 -3.5t33 -1.5t33 1.5t33 3.5q36 -48 76 -94t83 -93z" />
    <glyph glyph-name="y" unicode="y" horiz-adv-x="601" 
d="M275 -6l-36.5 73t-46.5 90.5t-51 97t-48.5 93t-40.5 76.5t-27 49q14 -2 28.5 -3.5t28.5 -1.5t29 1.5t29 3.5q38 -95 86 -189.5t100 -194.5q52 87 100 188t86 196q23 -5 42 -5q18 0 41 5q-8 -14 -28 -47.5t-46.5 -80t-58.5 -103t-65.5 -116.5t-65.5 -119.5t-60 -112
t-48.5 -95t-30.5 -67.5q-22 5 -42 5t-43 -5q51 66 92 131t76 131z" />
    <glyph glyph-name="z" unicode="z" horiz-adv-x="594" 
d="M24 9q54 52 111 111t110.5 116t100 108t80.5 87q-6 0 -26.5 -0.5t-50 -1.5t-65.5 -2.5t-71.5 -3.5t-68 -3.5t-56.5 -3.5q3 13 3 28q0 12 -3 29q39 -3 117.5 -4t194.5 -1h48.5t40.5 1t37 1.5t38 2.5v-15q-33 -35 -71.5 -74.5t-77.5 -80.5t-77 -81t-71 -75.5t-59 -64
t-42 -45.5q51 0 94 0.5t87.5 2t94.5 4t116 7.5q-5 -15 -5 -28t5 -28q-78 2 -156.5 3.5t-156.5 1.5q-56 0 -110.5 -1.5t-110.5 -3.5v14z" />
    <glyph glyph-name="braceleft" unicode="{" horiz-adv-x="296" 
d="M8 302q45 0 68 26t23 68v170q0 67 28.5 92t81.5 25h72v-37h-40q-32 0 -48.5 -15t-16.5 -65v-164q0 -50 -29 -77.5t-81 -42.5v-2q52 -15 81 -42.5t29 -77.5v-164q0 -50 16.5 -65t48.5 -15h40v-37h-72q-26 0 -46.5 5.5t-34.5 19t-21.5 36t-7.5 56.5v170q0 42 -23 68t-68 26
v42z" />
    <glyph glyph-name="bar" unicode="|" horiz-adv-x="156" 
d="M43 750h65v-1000h-65v1000z" />
    <glyph glyph-name="braceright" unicode="}" horiz-adv-x="297" 
d="M288 260q-45 0 -68 -26t-23 -68v-170q0 -34 -7.5 -56.5t-21.5 -36t-34.5 -19t-46.5 -5.5h-72v37h40q32 0 48.5 15t16.5 65v164q0 50 29 77.5t81 42.5v2q-52 15 -81 42.5t-29 77.5v164q0 50 -16.5 65t-48.5 15h-40v37h72q26 0 46.5 -5.5t34.5 -19t21.5 -36t7.5 -56.5v-170
q0 -42 23 -68t68 -26v-42z" />
    <glyph glyph-name="asciitilde" unicode="~" horiz-adv-x="634" 
d="M32 230q29 38 62 60.5t90 22.5q38 0 65 -7.5t53 -17.5q42 -15 75.5 -29t73.5 -14q18 0 35 7t32 18.5t27.5 24.5t20.5 25l36 -42q-13 -15 -28 -30t-34 -27.5t-41.5 -20t-49.5 -7.5q-35 0 -68 10t-74 27q-33 14 -62 22.5t-53 8.5q-28 0 -48 -7t-35 -18.5t-24.5 -24.5
t-16.5 -25z" />
    <glyph glyph-name="exclamdown" unicode="&#xa1;" horiz-adv-x="201" 
d="M112 300q5 -47 10.5 -99.5t11 -104t10.5 -98.5t9 -84.5t6 -62t2 -29.5q0 -27 -19 -38t-42 -11t-42 11t-19 38q0 5 2 29.5t6 62t8.5 84.5t10 98.5t11 103.5t10.5 100h25zM29 426q0 23 21 40t50 17t50 -17t21 -40t-21 -40t-50 -17t-50 17t-21 40z" />
    <glyph glyph-name="cent" unicode="&#xa2;" horiz-adv-x="546" 
d="M284 447q-42 -8 -72.5 -26.5t-50 -46.5t-28.5 -63.5t-9 -75.5q0 -88 41 -139t119 -64v415zM14 234q0 58 22 102t59.5 74t86 47.5t102.5 22.5v8q0 20 -1 46.5t-5 49.5q18 -5 32 -5q8 0 16 1.5t17 3.5q-4 -23 -5.5 -48.5t-1.5 -46.5v-6q67 -1 121 -14t77 -30
q-8 -15 -15.5 -31.5t-12.5 -34.5h-10q-9 13 -23.5 26.5t-35 25t-46 19t-55.5 7.5v-424h4q25 0 51 5.5t51 15t47 22.5t39 28l6 -3q-3 -12 -4.5 -24.5t-3.5 -24.5q-35 -23 -85.5 -40t-104.5 -19v-8q0 -23 2 -51t5 -51q-9 2 -17 3.5t-16 1.5q-14 0 -32 -5q2 21 4 50.5t2 52.5v7
q-51 4 -99.5 19.5t-86.5 45.5t-61 75t-23 107z" />
    <glyph glyph-name="sterling" unicode="&#xa3;" horiz-adv-x="623" 
d="M33 59q53 0 86.5 12t52 33.5t25.5 52.5t7 69q0 27 -3.5 54t-7.5 51q-32 -1 -62 -1.5t-60 -0.5q2 6 2.5 11.5t0.5 11.5q0 5 -0.5 10.5t-2.5 10.5q19 -3 49 -4t66 -1q-2 18 -4 35t-2 33q0 69 24 114.5t60.5 72.5t81.5 38t87 11q23 0 46.5 -3t45.5 -10t40 -17t29 -23
q-23 -21 -48 -54l-5 3q-11 33 -40.5 50t-67.5 17q-34 0 -61.5 -10.5t-47 -28.5t-30.5 -43t-11 -53q0 -41 2.5 -73t4.5 -59q30 0 54 0.5t46.5 1t44.5 1.5t46 2q-1 -5 -1.5 -10.5t-0.5 -10.5q0 -6 0.5 -11.5t1.5 -11.5q-48 1 -93 1.5t-94 0.5q1 -11 1.5 -22.5t0.5 -23.5
q0 -38 -10 -71.5t-27 -62t-39 -51t-46 -37.5v-2q106 0 216.5 4t203.5 7q-2 -11 -3 -21t-1 -19q0 -22 4 -37q-74 2 -146.5 3.5t-147.5 1.5q-72 0 -142.5 -1.5t-142.5 -3.5q1 7 2 15t1 17q0 8 -1 16l-2 16h18z" />
    <glyph glyph-name="currency" unicode="&#xa4;" horiz-adv-x="698" 
d="M594 328q0 42 -18.5 78.5t-51.5 63.5t-78 43t-97 16t-97 -16t-78 -43t-51.5 -63.5t-18.5 -78.5t18.5 -78.5t51.5 -63.5t78 -43t97 -16t97 16t78 43t51.5 63.5t18.5 78.5zM611 576l45 -36l-68 -56q34 -31 52.5 -71t18.5 -85q0 -44 -18 -83.5t-51 -71.5l66 -53l-45 -38
l-68 54q-41 -27 -89.5 -41.5t-104.5 -14.5q-57 0 -107 15t-88 42l-70 -55l-45 38l67 55q-32 32 -49.5 70.5t-17.5 82.5q0 45 18.5 84.5t50.5 70.5l-69 57l45 36l70 -56q41 26 90 41t105 15t105 -14.5t89 -40.5z" />
    <glyph glyph-name="yen" unicode="&#xa5;" horiz-adv-x="680" 
d="M281 331q-54 0 -107 -1t-107 -2q1 5 2 10.5t1 10.5t-1 10.5t-2 10.5q51 -1 101.5 -1.5t101.5 -0.5q-63 79 -125.5 158t-127.5 159q17 -2 33 -3.5t33 -1.5t33.5 1.5t33.5 3.5q9 -18 32 -52t53 -75.5t63 -85.5l60 -80q60 75 117 149t105 144q22 -5 42 -5t43 5
q-56 -59 -127 -143.5t-146 -173.5q52 0 102.5 0.5t101.5 1.5q-1 -5 -2 -10.5t-1 -10.5t1 -10.5t2 -10.5q-55 1 -109 2t-109 1v-87h109t109 1q-1 -5 -2 -10.5t-1 -10.5t1 -10.5t2 -10.5q-55 2 -109 3t-109 1q0 -115 9 -212q-14 2 -28.5 3.5t-28.5 1.5t-29 -1.5t-29 -3.5
q9 106 9 212q-54 0 -107 -1t-107 -3q1 5 2 10.5t1 10.5t-1 10.5t-2 10.5q54 -1 107 -1h107v87z" />
    <glyph glyph-name="brokenbar" unicode="&#xa6;" horiz-adv-x="150" 
d="M40 175h65v-350h-65v350zM40 675h65v-350h-65v350z" />
    <glyph glyph-name="section" unicode="&#xa7;" horiz-adv-x="533" 
d="M418 578q-11 32 -45 57.5t-87 25.5q-26 0 -51 -7t-45 -20t-32 -31.5t-12 -41.5q0 -36 26.5 -58.5t66.5 -38.5t87 -29.5t87 -32t66.5 -46t26.5 -71.5q0 -21 -7.5 -40.5t-18.5 -36.5t-23.5 -30.5t-23.5 -22.5q22 -14 34 -35.5t12 -53.5q0 -37 -17 -72t-50 -62t-82 -43.5
t-113 -16.5q-24 0 -48.5 3.5t-48 9.5t-44 13.5t-35.5 16.5q5 17 9 42.5t4 42.5h15q6 -12 19 -27.5t35 -29.5t54 -24t75 -10q33 0 62.5 10.5t51.5 27t35 37.5t13 43q0 36 -28.5 57.5t-71.5 37.5t-93 30t-93 34t-71.5 50.5t-28.5 79.5q0 24 9 44t22 36t28 27t27 17
q-8 9 -14 17.5t-10 18.5t-6.5 23.5t-2.5 34.5q0 31 14 60.5t42 52.5t69.5 37t96.5 14q61 0 101.5 -19t64.5 -42q-12 -9 -22.5 -26.5t-13.5 -32.5h-15zM447 241q0 19 -5.5 32.5t-18 25t-34 21.5t-52.5 21q-62 22 -98.5 36t-57.5 23t-30.5 14t-16.5 10q-16 -11 -31.5 -31
t-15.5 -44q0 -38 31.5 -61.5t102.5 -48.5q44 -15 76 -26.5t54.5 -20t37.5 -15t24 -11.5q12 14 23 31t11 44z" />
    <glyph glyph-name="dieresis" unicode="&#xa8;" horiz-adv-x="450" 
d="M284 637q0 21 19 36t45 15t44.5 -15t18.5 -36t-18.5 -36t-44.5 -15t-45 15t-19 36zM38 637q0 21 18.5 36t44.5 15t45 -15t19 -36t-19 -36t-45 -15t-44.5 15t-18.5 36z" />
    <glyph glyph-name="copyright" unicode="&#xa9;" horiz-adv-x="962" 
d="M205 338q0 59 24 103.5t65.5 74.5t97.5 45t120 15q61 0 105 -7.5t71 -20.5q-6 -11 -10.5 -23.5t-5.5 -26.5l-6 -2q-9 6 -21.5 15t-30.5 17.5t-42.5 14t-55.5 5.5q-44 0 -85 -9.5t-73 -33t-51.5 -64.5t-19.5 -104q0 -43 15 -79.5t43.5 -63t70.5 -41.5t96 -15q26 0 51 5.5
t47 13.5t40.5 17.5t30.5 18.5l7 -2q-5 -9 -6 -20.5t-1 -19.5q-25 -12 -74 -26.5t-109 -14.5q-65 0 -118.5 16t-92.5 46t-60.5 72t-21.5 94zM33 340q0 74 35 139.5t96 114t142.5 76.5t174.5 28t174 -28t142 -76.5t96 -114t35 -139.5t-35 -139.5t-96 -114t-142 -76.5t-174 -28
t-174.5 28t-142.5 76.5t-96 114t-35 139.5zM876 340q0 66 -30.5 124.5t-84 102t-125.5 69t-155 25.5t-155 -25.5t-125.5 -69t-84 -102t-30.5 -124.5t30.5 -124.5t84 -102t125.5 -69t155 -25.5t155 25.5t125.5 69t84 102t30.5 124.5z" />
    <glyph glyph-name="ordfeminine" unicode="&#xaa;" horiz-adv-x="412" 
d="M72 641q25 11 56 21t80 10q21 0 44 -3.5t42.5 -14t32.5 -29t13 -48.5q0 -18 -1 -39t-2 -41t-2 -37.5t-1 -28.5q0 -20 9 -27t19 -7q6 0 12.5 2t10.5 4v-18q-8 -4 -23 -8t-35 -4q-26 0 -39 13t-15 30q-27 -21 -57.5 -32t-68.5 -11q-20 0 -40.5 3.5t-37.5 12t-28 23
t-11 35.5q0 18 5.5 31t20 23t38.5 17t60 12q41 6 64 10t34.5 7.5t14 8t2.5 11.5q0 24 -7 39.5t-19 23.5t-28.5 11t-34.5 3q-38 0 -61.5 -13.5t-31.5 -26.5h-15v37zM269 533q-19 -8 -46.5 -11t-53 -9t-43.5 -19t-18 -41q0 -26 20 -39t49 -13q30 0 53.5 13.5t38.5 26.5v92z
" />
    <glyph glyph-name="guillemotleft" unicode="&#xab;" horiz-adv-x="438" 
d="M176 419q7 -10 19 -17.5t27 -9.5l-139 -159l133 -166q-15 -2 -29 -9.5t-19 -16.5l-150 191zM357 419q7 -10 19 -17.5t27 -9.5l-138 -159l132 -166q-15 -2 -28.5 -9.5t-18.5 -16.5l-150 191z" />
    <glyph glyph-name="logicalnot" unicode="&#xac;" horiz-adv-x="678" 
d="M569 324h-567v52h632v-268h-65v216z" />
    <glyph glyph-name="registered" unicode="&#xae;" horiz-adv-x="962" 
d="M315 434q0 34 -2.5 70.5t-6.5 64.5q26 -2 51 -3.5t51 -1.5t51 2.5t51 2.5q33 0 61.5 -6t49.5 -18.5t33.5 -31.5t12.5 -44q0 -31 -18 -53.5t-44.5 -37.5t-56 -23.5t-52.5 -9.5q24 -24 54.5 -56.5t61 -64t58.5 -57.5t47 -39v-5q-12 2 -24 3.5t-23 1.5q-13 0 -25 -1.5
t-24 -3.5q-46 54 -96.5 107t-104.5 107h-40v-70q0 -36 1.5 -72t5.5 -72q-23 5 -40 5q-11 0 -20.5 -1.5t-20.5 -3.5l6 70t3 70v171zM380 365q6 -2 20 -3t32 -1q32 0 60.5 5.5t50.5 17.5t34.5 31.5t12.5 46.5q0 39 -33 61t-84 22q-23 0 -45 -1.5t-41 -3.5q-3 -23 -5 -47
t-2 -47v-81zM33 340q0 74 35 139.5t96 114t142.5 76.5t174.5 28t174 -28t142 -76.5t96 -114t35 -139.5t-35 -139.5t-96 -114t-142 -76.5t-174 -28t-174.5 28t-142.5 76.5t-96 114t-35 139.5zM86 340q0 -66 30.5 -124.5t84 -102t125.5 -69t155 -25.5t155 25.5t125.5 69
t84 102t30.5 124.5t-30.5 124.5t-84 102t-125.5 69t-155 25.5t-155 -25.5t-125.5 -69t-84 -102t-30.5 -124.5z" />
    <glyph glyph-name="macron" unicode="&#xaf;" horiz-adv-x="428" 
d="M43 656h341v-52h-341v52z" />
    <glyph glyph-name="degree" unicode="&#xb0;" horiz-adv-x="422" 
d="M30 527q0 30 14 56.5t39 46t57.5 31t70.5 11.5q37 0 70 -11.5t58 -31t39 -46t14 -56.5t-14 -56.5t-39 -46t-58 -31t-70 -11.5q-38 0 -70.5 11.5t-57.5 31t-39 46t-14 56.5zM76 527q0 -23 10.5 -42.5t29 -34t43 -23t52.5 -8.5t52.5 8.5t43 23t29 34t10.5 42.5
q0 22 -10.5 42t-29 34.5t-43 23t-52.5 8.5t-52.5 -8.5t-43 -23t-29 -34.5t-10.5 -42z" />
    <glyph glyph-name="plusminus" unicode="&#xb1;" horiz-adv-x="648" 
d="M8 324h283v182h65v-182h284v-52h-284v-182h-65v182h-283v52zM8 52h632v-52h-632v52z" />
    <glyph glyph-name="twosuperior" unicode="&#xb2;" horiz-adv-x="407" 
d="M61 613q26 31 62 45t87 14q34 0 64 -6t51.5 -19t34 -33t12.5 -48q0 -24 -8.5 -45t-35 -48t-76 -65t-131.5 -96l3 -5h60.5t65.5 0.5t65.5 1.5t59.5 3q-5 -15 -5 -26t5 -26q-45 2 -87.5 3.5t-87.5 1.5q-44 0 -87 -1.5t-87 -3.5v15q60 45 109 81.5t83.5 69.5t53 65.5
t18.5 71.5q0 44 -27.5 64.5t-63.5 20.5q-26 0 -44.5 -6.5t-31 -16t-19 -20.5t-8.5 -20l-6 -2z" />
    <glyph glyph-name="threesuperior" unicode="&#xb3;" horiz-adv-x="393" 
d="M40 318h6q14 -11 41.5 -23t66.5 -12q58 0 92.5 27t34.5 69q0 25 -9 41.5t-23 26.5t-32 14.5t-37 4.5q-15 0 -28.5 -2t-22.5 -4q3 9 3 17q0 11 -3 20q10 -4 20.5 -5.5t20.5 -1.5q26 0 43.5 8.5t27.5 21.5t14 28.5t4 30.5q0 35 -25.5 52t-58.5 17t-57.5 -13t-32.5 -30
l-6 -1l-19 32q17 12 47 24t85 12q30 0 56 -5.5t45.5 -16t31 -27.5t11.5 -39t-10 -39.5t-26 -30t-35.5 -20.5t-38.5 -11v-2q21 -1 45 -6t45 -15.5t34.5 -28.5t13.5 -45q0 -29 -15 -52t-42 -40t-65.5 -26t-85.5 -9q-45 0 -76 6.5t-53 14.5z" />
    <glyph glyph-name="acute" unicode="&#xb4;" horiz-adv-x="298" 
d="M190 708q13 11 27.5 17.5t28.5 6.5q12 0 26.5 -8t14.5 -24q0 -18 -15 -28.5t-30 -18.5l-184 -94h-52z" />
    <glyph glyph-name="mu" unicode="&#xb5;" horiz-adv-x="562" 
d="M251 -15q-35 0 -63.5 6.5t-51.5 23.5q0 -75 1.5 -144.5t10.5 -138.5q-28 5 -52 5q-14 0 -26.5 -1.5t-26.5 -3.5q1 43 1.5 81.5t1.5 77t1.5 79t0.5 88.5q0 66 -0.5 122.5t-1 106.5t-1 95.5t-0.5 90.5q28 -5 52 -5q23 0 51 5q-5 -59 -8.5 -131.5t-3.5 -146.5
q0 -52 11 -79.5t28 -41.5q17 -16 43.5 -26.5t63.5 -10.5q53 0 88 18.5t51 45.5q9 16 14.5 28.5t8 32.5t3 54t0.5 93v84.5t-2 79.5q13 -2 25.5 -3.5t26.5 -1.5t26.5 1.5t24.5 3.5q-5 -78 -6.5 -151t-1.5 -153q0 -45 1 -88.5t4 -85.5q-13 2 -25 3.5t-24 1.5t-24.5 -1.5
t-24.5 -3.5q2 22 2.5 43.5t0.5 42.5h-3q-32 -47 -84 -71.5t-112 -24.5z" />
    <glyph glyph-name="paragraph" unicode="&#xb6;" horiz-adv-x="612" 
d="M449 639l-80 -10v-744h-45v406q-80 0 -138.5 15t-97 42t-57.5 65t-19 83q0 93 66.5 138.5t182.5 45.5h326v-24l-93 -12v-759h-45v754z" />
    <glyph glyph-name="periodcentered" unicode="&#xb7;" horiz-adv-x="212" 
d="M30 306q0 25 22 42.5t53 17.5t53 -17.5t22 -42.5t-22 -42.5t-53 -17.5t-53 17.5t-22 42.5z" />
    <glyph glyph-name="cedilla" unicode="&#xb8;" horiz-adv-x="298" 
d="M34 -175q14 -5 37.5 -8.5t52.5 -3.5q32 0 53.5 11t21.5 31q0 22 -18.5 31t-44.5 9q-42 0 -54 -7l-9 7l51 105h44l-31 -73q8 2 16 3.5t20 1.5q49 0 76.5 -19.5t27.5 -51.5q0 -21 -12 -37t-32.5 -26.5t-47.5 -16t-57 -5.5q-38 0 -65.5 6t-45.5 11z" />
    <glyph glyph-name="onesuperior" unicode="&#xb9;" horiz-adv-x="243" 
d="M121 616l-5 2l-90 -37q-4 5 -10.5 10.5t-14.5 8.5v10q48 12 97.5 28.5t87.5 33.5h14q-4 -38 -6 -77t-2 -79v-100q0 -38 2 -77t6 -79q-23 5 -43 5q-19 0 -42 -5q4 41 5 79.5t1 76.5v200z" />
    <glyph glyph-name="ordmasculine" unicode="&#xba;" horiz-adv-x="464" 
d="M32 522q0 41 17.5 69.5t46 46.5t64.5 26t73 8q36 0 71.5 -8t64 -26t46 -46.5t17.5 -69.5t-17.5 -69.5t-46 -46t-64 -25.5t-71.5 -8q-37 0 -73 8t-64.5 25.5t-46 46t-17.5 69.5zM114 522q0 -23 6 -45.5t20 -40t37 -28.5t56 -11q32 0 54.5 11t36 28.5t19.5 40t6 45.5
q0 24 -6 46.5t-19.5 40t-36 28.5t-54.5 11q-33 0 -56 -11t-37 -28.5t-20 -40t-6 -46.5z" />
    <glyph glyph-name="guillemotright" unicode="&#xbb;" horiz-adv-x="437" 
d="M222 396q15 2 28.5 9.5t18.5 16.5l150 -191l-157 -187q-7 10 -19 17.5t-27 9.5l138 159zM41 396q15 2 28.5 9.5t18.5 16.5l150 -191l-157 -187q-7 10 -19.5 17.5t-27.5 9.5l139 159z" />
    <glyph glyph-name="onequarter" unicode="&#xbc;" horiz-adv-x="941" 
d="M525 126q66 69 131.5 137.5t133.5 137.5q6 -2 13.5 -3t18.5 -1q10 0 18 1t15 3q-5 -64 -6 -128t-1 -128q18 0 38.5 1.5t34.5 4.5q-5 -13 -5 -23q0 -11 5 -24q-14 2 -32 3t-41 1q0 -29 1.5 -56.5t3.5 -56.5q-22 5 -41 5q-11 0 -20.5 -1.5t-20.5 -3.5q6 57 6 113
q-36 0 -73.5 -0.5t-71.5 -1t-61.5 -1t-45.5 -1.5v22zM777 338l-2 3q-45 -48 -91 -95.5t-83 -95.5l2 -5h174v193zM575 684l14 -3.5t14 -1.5t14.5 1.5t14.5 3.5l-346 -712q-8 2 -14.5 3.5t-14.5 1.5t-14.5 -1.5t-14.5 -3.5zM141 616l-5 2l-90 -37q-4 5 -10.5 10.5t-14.5 8.5
v10q47 12 97 28.5t88 33.5h14q-4 -38 -6 -77t-2 -79v-100q0 -38 2 -77t6 -79q-23 5 -43 5t-42 -5q4 41 5 79.5t1 76.5v200z" />
    <glyph glyph-name="onehalf" unicode="&#xbd;" horiz-adv-x="926" 
d="M571 684q8 -2 14.5 -3.5t14.5 -1.5t14.5 1.5t14.5 3.5l-346 -712q-8 2 -14.5 3.5t-14.5 1.5t-14.5 -1.5t-14.5 -3.5zM141 616l-5 2l-90 -37q-4 5 -10.5 10.5t-14.5 8.5v10q48 12 97.5 28.5t87.5 33.5h14q-4 -38 -5.5 -77t-1.5 -79v-100q0 -38 1.5 -77t5.5 -79
q-23 5 -42 5q-20 0 -43 -5q4 41 5 79.5t1 76.5v200zM593 348q26 31 61.5 45t86.5 14q35 0 65 -6t51.5 -19t34 -33t12.5 -48q0 -24 -8.5 -45t-35 -48t-76 -65t-131.5 -96l2 -5h60.5t66 0.5t65.5 1.5t59 3q-2 -7 -3.5 -13t-1.5 -13t1.5 -13t3.5 -13q-44 2 -87 3.5t-88 1.5
q-43 0 -86.5 -1.5t-86.5 -3.5v15q60 45 109 81.5t83 69.5t52.5 65.5t18.5 71.5q0 45 -27 65t-64 20q-26 0 -44.5 -6.5t-30.5 -16t-18.5 -20.5t-8.5 -20l-7 -2z" />
    <glyph glyph-name="threequarters" unicode="&#xbe;" horiz-adv-x="994" 
d="M576 126q66 69 131.5 137.5t133.5 137.5q7 -2 14.5 -3t18.5 -1q9 0 17 1t15 3q-5 -64 -5.5 -128t-0.5 -128q18 0 38 1.5t34 4.5q-2 -6 -3.5 -12t-1.5 -11q0 -6 1.5 -12t3.5 -12q-14 2 -31.5 3t-40.5 1q0 -29 1.5 -56.5t3.5 -56.5q-23 5 -41 5q-19 0 -42 -5q3 29 5 56.5
t2 56.5q-37 0 -74.5 -0.5t-71 -1t-61.5 -1t-46 -1.5v22zM829 338l-3 3q-45 -48 -91 -95.5t-83 -95.5l3 -5h174v193zM641 684q8 -2 14.5 -3.5t14.5 -1.5t14.5 1.5t14.5 3.5l-347 -712l-14 3.5t-14 1.5t-14.5 -1.5t-14.5 -3.5zM30 318h6q14 -11 41.5 -23t66.5 -12
q58 0 92.5 27t34.5 69q0 25 -9 41.5t-23 26.5t-32 14.5t-37 4.5q-15 0 -28.5 -2t-22.5 -4q3 9 3 17q0 11 -3 20q10 -4 20.5 -5.5t20.5 -1.5q26 0 43.5 8.5t27.5 21.5t14 28.5t4 30.5q0 35 -25.5 52t-58.5 17t-57.5 -13t-32.5 -30l-6 -1l-19 32q17 12 47 24t85 12
q30 0 56 -5.5t45.5 -16t31 -27.5t11.5 -39t-10 -39.5t-26 -30t-35.5 -20.5t-38.5 -11v-2q21 -1 45 -6t45 -15.5t34.5 -28.5t13.5 -45q0 -29 -15 -52t-42 -40t-65.5 -26t-85.5 -9q-45 0 -76 6.5t-53 14.5z" />
    <glyph glyph-name="questiondown" unicode="&#xbf;" horiz-adv-x="348" 
d="M121 264q5 5 9.5 13t5.5 15q8 2 18.5 3.5t25.5 1.5t38 -6t44.5 -19t36.5 -34t15 -52q0 -33 -16 -60.5t-40 -51t-51.5 -44.5t-51.5 -42.5t-40 -45t-16 -50.5q0 -19 9.5 -34.5t24.5 -26t34 -16t39 -5.5q34 0 63.5 13t50.5 33l7 -50q-24 -12 -54.5 -22.5t-73.5 -10.5
q-45 0 -79.5 10.5t-58 28.5t-35.5 42t-12 51q0 35 16.5 64.5t41 54.5t53.5 47.5t53.5 44.5t41 45t16.5 49q0 20 -16.5 39.5t-48.5 19.5q-15 0 -26 -3.5t-16 -5.5zM129 426q0 23 21 40t50 17t50 -17t21 -40t-21 -40t-50 -17t-50 17t-21 40z" />
    <glyph glyph-name="Agrave" unicode="&#xc0;" horiz-adv-x="820" 
d="M434 698q30 -58 65.5 -125t71.5 -136.5t72 -137t67.5 -126.5t57 -105t42.5 -73q-17 2 -33 3.5t-33 1.5t-33 -1.5t-33 -3.5q-9 26 -24 58.5t-32.5 68t-36.5 72t-36 69.5q-41 1 -81.5 1.5t-82.5 0.5q-38 0 -76 -0.5t-76 -1.5q-40 -78 -72.5 -149t-49.5 -119
q-12 2 -23.5 3.5t-22.5 1.5t-22.5 -1.5t-23.5 -3.5q101 177 198 351t193 352h24zM393 563l-137 -254q33 0 68 -1t67 -1q35 0 70 0.5t70 1.5zM264 825q-15 8 -30 18.5t-15 28.5q0 16 14.5 24t26.5 8q14 0 28.5 -6.5t27.5 -17.5l184 -149h-52z" />
    <glyph glyph-name="Aacute" unicode="&#xc1;" horiz-adv-x="821" 
d="M425 698q30 -58 65.5 -125t71.5 -136.5t72 -137t67.5 -126.5t57 -105t42.5 -73q-17 2 -33 3.5t-33 1.5t-33 -1.5t-33 -3.5q-9 26 -24 58.5t-32.5 68t-36.5 72t-36 69.5q-41 1 -81.5 1.5t-82.5 0.5q-38 0 -76 -0.5t-76 -1.5q-40 -78 -72.5 -149t-49.5 -119
q-12 2 -23.5 3.5t-22.5 1.5t-22.5 -1.5t-23.5 -3.5q101 177 198 351t193 352h24zM384 563l-137 -254q33 0 68 -1t67 -1q35 0 70 0.5t70 1.5zM504 880q13 11 27.5 17.5t28.5 6.5q12 0 26.5 -8t14.5 -24q0 -18 -15 -28.5t-30 -18.5l-184 -94h-52z" />
    <glyph glyph-name="Acircumflex" unicode="&#xc2;" horiz-adv-x="826" 
d="M432 698q30 -58 65.5 -125t71.5 -136.5t72 -137t67.5 -126.5t57 -105t42.5 -73q-17 2 -33 3.5t-33 1.5t-33 -1.5t-33 -3.5q-9 26 -24 58.5t-32.5 68t-36.5 72t-36 69.5q-41 1 -81.5 1.5t-82.5 0.5q-38 0 -76 -0.5t-76 -1.5q-40 -78 -72.5 -149t-49.5 -119
q-12 2 -23.5 3.5t-22.5 1.5t-22.5 -1.5t-23.5 -3.5q101 177 198 351t193 352h24zM391 563l-137 -254q33 0 68 -1t67 -1q35 0 70 0.5t70 1.5zM412 836l-149 -105h-46l154 167h83l154 -167h-46z" />
    <glyph glyph-name="Atilde" unicode="&#xc3;" horiz-adv-x="820" 
d="M429 698q30 -58 65.5 -125t71.5 -136.5t72 -137t67.5 -126.5t57 -105t42.5 -73q-17 2 -33 3.5t-33 1.5t-33 -1.5t-33 -3.5q-9 26 -24 58.5t-32.5 68t-36.5 72t-36 69.5q-41 1 -81.5 1.5t-82.5 0.5q-38 0 -76 -0.5t-76 -1.5q-40 -78 -72.5 -149t-49.5 -119
q-12 2 -23.5 3.5t-22.5 1.5t-22.5 -1.5t-23.5 -3.5q101 177 198 351t193 352h24zM388 563l-137 -254q33 0 68 -1t67 -1q35 0 70 0.5t70 1.5zM204 756q4 18 13.5 36t25.5 33t38.5 24.5t52.5 9.5q11 0 20 -1t19 -3.5t22.5 -7t29.5 -11.5t29 -11.5t21.5 -7t17 -3.5t15.5 -1
q29 0 46 15t25 35h36q-2 -12 -9.5 -30t-23.5 -35.5t-41 -29.5t-62 -12q-18 0 -39.5 5t-50.5 18q-33 14 -49.5 18.5t-31.5 4.5q-29 0 -42.5 -10t-24.5 -36h-37z" />
    <glyph glyph-name="Adieresis" unicode="&#xc4;" horiz-adv-x="819" 
d="M429 698q30 -58 65.5 -125t71.5 -136.5t72 -137t67.5 -126.5t57 -105t42.5 -73q-17 2 -33 3.5t-33 1.5t-33 -1.5t-33 -3.5q-9 26 -24 58.5t-32.5 68t-36.5 72t-36 69.5q-41 1 -81.5 1.5t-82.5 0.5q-38 0 -76 -0.5t-76 -1.5q-40 -78 -72.5 -149t-49.5 -119
q-12 2 -23.5 3.5t-22.5 1.5t-22.5 -1.5t-23.5 -3.5q101 177 198 351t193 352h24zM388 563l-137 -254q33 0 68 -1t67 -1q35 0 70 0.5t70 1.5zM469 809q0 21 19 36t45 15t44.5 -15t18.5 -36t-18.5 -36t-44.5 -15t-45 15t-19 36zM223 809q0 21 18.5 36t44.5 15t45 -15t19 -36
t-19 -36t-45 -15t-44.5 15t-18.5 36z" />
    <glyph glyph-name="Aring" unicode="&#xc5;" horiz-adv-x="826" 
d="M432 698q30 -58 65.5 -125t71.5 -136.5t72 -137t67.5 -126.5t57 -105t42.5 -73q-17 2 -33 3.5t-33 1.5t-33 -1.5t-33 -3.5q-9 26 -24 58.5t-32.5 68t-36.5 72t-36 69.5q-41 1 -81.5 1.5t-82.5 0.5q-38 0 -76 -0.5t-76 -1.5q-40 -78 -72.5 -149t-49.5 -119
q-12 2 -23.5 3.5t-22.5 1.5t-22.5 -1.5t-23.5 -3.5q101 177 198 351t193 352h24zM391 563l-137 -254q33 0 68 -1t67 -1q35 0 70 0.5t70 1.5zM284 817q0 21 10 39.5t27.5 32.5t41 22t50.5 8q26 0 49.5 -8t41 -22t27.5 -32.5t10 -39.5t-10 -39.5t-27.5 -32.5t-41 -22t-50.5 -8
q-26 0 -49.5 8t-41 22t-27.5 32.5t-10 39.5zM337 817q0 -25 22 -42.5t53 -17.5q32 0 54 17.5t22 42.5t-22 42.5t-53 17.5q-32 0 -54 -17.5t-22 -42.5z" />
    <glyph glyph-name="AE" unicode="&#xc6;" horiz-adv-x="1027" 
d="M294 252q-51 -65 -94 -128.5t-81 -128.5q-14 2 -26 3.5t-26 1.5t-28 -1.5t-28 -3.5q57 65 126.5 149t143.5 175.5t148.5 185.5t142.5 180q53 -2 105.5 -3.5t106.5 -1.5q53 0 104.5 1.5t102.5 3.5q-6 -15 -6 -31t6 -31q-19 3 -38.5 5.5t-51 5t-81.5 3.5t-129 1
q-2 -44 -4 -87.5t-2 -87.5v-82q76 0 123.5 0.5t76.5 1.5t46.5 2.5t34.5 2.5q-6 -14 -6 -28q0 -15 6 -28q-17 1 -35 2.5t-47 2.5t-76 1.5t-123 0.5v-101q0 -49 2 -98l4 -98q69 0 120 1t88 2.5t61.5 3.5t39.5 4q-6 -15 -6 -29t6 -29q-55 2 -108 3.5t-106 1.5q-54 0 -107 -1.5
t-107 -3.5q8 63 9 125.5t1 125.5zM582 607h-13l-248 -313l261 -6v319z" />
    <glyph glyph-name="Ccedilla" unicode="&#xc7;" horiz-adv-x="777" 
d="M415 -18q-87 7 -160 34.5t-125.5 73t-82 108.5t-29.5 142q0 85 34.5 151.5t96.5 112.5t148 70t190 24q81 0 150.5 -13.5t120.5 -32.5q-10 -14 -16 -38l-10 -40l-8 -2q-13 12 -35.5 27t-52.5 29t-67.5 23.5t-81.5 9.5q-74 0 -137.5 -19t-110 -58.5t-73 -100t-26.5 -143.5
t26.5 -143.5t73 -100t110 -58.5t137.5 -19q44 0 82.5 9t70.5 21.5t57 27t43 25.5l5 -4l-11 -59q-12 -8 -36.5 -17.5t-58.5 -18.5t-76 -15t-89 -6h-15l-26 -61q8 2 16 3.5t20 1.5q49 0 76.5 -19.5t27.5 -51.5q0 -21 -12 -37t-32.5 -26.5t-47.5 -16t-57 -5.5q-38 0 -65.5 6
t-45.5 11l17 32q14 -5 37.5 -8.5t52.5 -3.5q32 0 53.5 11t21.5 31q0 22 -18.5 31t-44.5 9q-42 0 -54 -7l-9 7z" />
    <glyph glyph-name="Egrave" unicode="&#xc8;" horiz-adv-x="491" 
d="M46 427q0 65 -3 129.5t-7 128.5q57 -2 111.5 -3.5t111.5 -1.5t112 1.5t111 3.5q-4 -13 -4 -30t4 -30q-39 2 -72.5 4.5t-70 4.5t-81 3t-105.5 1q-1 -32 -3 -61t-2 -66q0 -39 0.5 -76t0.5 -56q55 0 99.5 1t80.5 2.5t66 3t58 3.5q-2 -8 -3 -15.5t-1 -15.5t1 -15t3 -15
q-32 3 -75 4.5t-86.5 2.5t-82 1.5t-60.5 0.5q0 -9 -0.5 -19.5t-0.5 -26v-39.5v-60q0 -112 3 -150q42 0 88.5 0.5t92 1.5t86 3.5t70.5 7.5q-2 -7 -3 -15.5t-1 -15.5t1 -14.5t3 -14.5q-56 2 -112 3.5t-113 1.5t-113.5 -1.5t-113.5 -3.5q4 66 7 130.5t3 129.5v172zM106 825
q-15 8 -30 18.5t-15 28.5q0 16 14.5 24t26.5 8q14 0 28.5 -6.5t27.5 -17.5l184 -149h-53z" />
    <glyph glyph-name="Eacute" unicode="&#xc9;" horiz-adv-x="491" 
d="M36 427q0 65 -3 129.5t-7 128.5q57 -2 111.5 -3.5t111.5 -1.5t112 1.5t111 3.5q-4 -13 -4 -30t4 -30q-39 2 -72.5 4.5t-70 4.5t-81 3t-105.5 1q-1 -32 -3 -61t-2 -66q0 -39 0.5 -76t0.5 -56q55 0 99.5 1t80.5 2.5t66 3t58 3.5q-2 -8 -3 -15.5t-1 -15.5t1 -15t3 -15
q-32 3 -75 4.5t-86.5 2.5t-82 1.5t-60.5 0.5q0 -9 -0.5 -19.5t-0.5 -26v-39.5v-60q0 -112 3 -150q42 0 88.5 0.5t92 1.5t86 3.5t70.5 7.5q-2 -7 -3 -15.5t-1 -15.5t1 -14.5t3 -14.5q-56 2 -112 3.5t-113 1.5t-113.5 -1.5t-113.5 -3.5q4 66 7 130.5t3 129.5v172zM344 880
q14 11 28.5 17.5t28.5 6.5q12 0 26.5 -8t14.5 -24q0 -18 -15 -28.5t-30 -18.5l-184 -94h-52z" />
    <glyph glyph-name="Ecircumflex" unicode="&#xca;" horiz-adv-x="498" 
d="M45 427q0 65 -3 129.5t-7 128.5q57 -2 111.5 -3.5t111.5 -1.5t112 1.5t111 3.5q-4 -13 -4 -30t4 -30q-39 2 -72.5 4.5t-70 4.5t-81 3t-105.5 1q-1 -32 -3 -61t-2 -66q0 -39 0.5 -76t0.5 -56q55 0 99.5 1t80.5 2.5t66 3t58 3.5q-2 -8 -3 -15.5t-1 -15.5t1 -15t3 -15
q-32 3 -75 4.5t-86.5 2.5t-82 1.5t-60.5 0.5q0 -9 -0.5 -19.5t-0.5 -26v-39.5v-60q0 -112 3 -150q42 0 88.5 0.5t92 1.5t86 3.5t70.5 7.5q-2 -7 -3 -15.5t-1 -15.5t1 -14.5t3 -14.5q-56 2 -112 3.5t-113 1.5t-113.5 -1.5t-113.5 -3.5q4 66 7 130.5t3 129.5v172zM255 836
l-149 -105h-46l153 167h84l154 -167h-46z" />
    <glyph glyph-name="Edieresis" unicode="&#xcb;" horiz-adv-x="497" 
d="M45 427q0 65 -3 129.5t-7 128.5q57 -2 111.5 -3.5t111.5 -1.5t112 1.5t111 3.5q-4 -13 -4 -30t4 -30q-39 2 -72.5 4.5t-70 4.5t-81 3t-105.5 1q-1 -32 -3 -61t-2 -66q0 -39 0.5 -76t0.5 -56q55 0 99.5 1t80.5 2.5t66 3t58 3.5q-2 -8 -3 -15.5t-1 -15.5t1 -15t3 -15
q-32 3 -75 4.5t-86.5 2.5t-82 1.5t-60.5 0.5q0 -9 -0.5 -19.5t-0.5 -26v-39.5v-60q0 -112 3 -150q42 0 88.5 0.5t92 1.5t86 3.5t70.5 7.5q-2 -7 -3 -15.5t-1 -15.5t1 -14.5t3 -14.5q-56 2 -112 3.5t-113 1.5t-113.5 -1.5t-113.5 -3.5q4 66 7 130.5t3 129.5v172zM315 809
q0 21 18.5 36t44.5 15t45 -15t19 -36t-19 -36t-45 -15t-44.5 15t-18.5 36zM68 809q0 21 19 36t45 15t45 -15t19 -36t-19 -36t-45 -15t-45 15t-19 36z" />
    <glyph glyph-name="Igrave" unicode="&#xcc;" horiz-adv-x="310" 
d="M151 426q0 65 -3 129.5t-7 129.5q16 -2 31 -3.5t30 -1.5t30 1.5t31 3.5q-4 -65 -7 -129.5t-3 -129.5v-172q0 -65 3 -129.5t7 -129.5q-16 2 -31 3.5t-30 1.5t-30 -1.5t-31 -3.5q4 65 7 129.5t3 129.5v172zM52 825q-15 8 -30 18.5t-15 28.5q0 16 14.5 24t26.5 8
q14 0 28.5 -6.5t27.5 -17.5l184 -149h-52z" />
    <glyph glyph-name="Iacute" unicode="&#xcd;" horiz-adv-x="310" 
d="M56 426q0 65 -3 129.5t-7 129.5q16 -2 31 -3.5t30 -1.5t30 1.5t31 3.5q-4 -65 -7 -129.5t-3 -129.5v-172q0 -65 3 -129.5t7 -129.5q-16 2 -31 3.5t-30 1.5t-30 -1.5t-31 -3.5q4 65 7 129.5t3 129.5v172zM206 880q13 11 27.5 17.5t28.5 6.5q12 0 26.5 -8t14.5 -24
q0 -18 -15 -28.5t-30 -18.5l-184 -94h-52z" />
    <glyph glyph-name="Icircumflex" unicode="&#xce;" horiz-adv-x="413" 
d="M155 426q0 65 -3 129.5t-7 129.5q16 -2 31 -3.5t30 -1.5t30 1.5t31 3.5q-4 -65 -7 -129.5t-3 -129.5v-172q0 -65 3 -129.5t7 -129.5q-16 2 -31 3.5t-30 1.5t-30 -1.5t-31 -3.5q4 65 7 129.5t3 129.5v172zM206 836l-149 -105h-46l154 167h83l154 -167h-46z" />
    <glyph glyph-name="Idieresis" unicode="&#xcf;" horiz-adv-x="392" 
d="M144 426q0 65 -3 129.5t-7 129.5q16 -2 31 -3.5t30 -1.5t30 1.5t31 3.5q-4 -65 -7 -129.5t-3 -129.5v-172q0 -65 3 -129.5t7 -129.5q-16 2 -31 3.5t-30 1.5t-30 -1.5t-31 -3.5q4 65 7 129.5t3 129.5v172zM255 809q0 21 19 36t45 15t44.5 -15t18.5 -36t-18.5 -36
t-44.5 -15t-45 15t-19 36zM9 809q0 21 18.5 36t44.5 15t45 -15t19 -36t-19 -36t-45 -15t-44.5 15t-18.5 36z" />
    <glyph glyph-name="Eth" unicode="&#xd0;" horiz-adv-x="960" 
d="M251 254q0 -54 1.5 -107t5.5 -105q26 -5 71 -7.5t93 -2.5q69 0 137.5 13t123.5 49t89 98.5t34 161.5q0 87 -26.5 143t-74 88.5t-112.5 45t-142 12.5q-56 0 -105.5 -3t-87.5 -7q-4 -48 -5.5 -100.5t-1.5 -106.5v-24q60 0 121 0.5t119 2.5q-4 -9 -4 -21t4 -23q-58 2 -119 3
t-121 1v-111zM148 426q0 65 -3 129.5t-7 129.5q48 -2 94.5 -3.5t94.5 -1.5q47 0 94 2.5t95 2.5q109 0 187.5 -23t128 -65.5t73 -104t23.5 -138.5q0 -67 -20 -119.5t-54 -92.5t-79 -68t-96 -45.5t-104 -25.5t-102 -8q-42 0 -83.5 2.5t-83.5 2.5q-43 0 -84.5 -1.5t-83.5 -3.5
q4 65 7 129.5t3 129.5v111h-58t-64 -2q1 5 1.5 10.5t0.5 10.5t-0.5 10t-1.5 10q35 -2 64 -2h58v24z" />
    <glyph glyph-name="Ntilde" unicode="&#xd1;" horiz-adv-x="810" 
d="M744 -18q-71 67 -148.5 136.5t-158 139t-162.5 139.5t-162 138q-2 -28 -3 -75.5t-1 -127.5q0 -21 0.5 -52t1 -65t1.5 -69t2.5 -65t2.5 -53t3 -33q-23 5 -44 5q-11 0 -22.5 -1.5t-23.5 -3.5q2 12 5 39.5t6 65t5.5 81.5l5 88t3.5 86t1 75q0 95 -0.5 164.5t-2.5 103.5h20
q76 -66 163 -141.5t172 -149t162.5 -139t134.5 -111.5v136.5t-1 137t-3 132t-6 122.5q23 -5 43 -5q17 0 40 5q-3 -22 -6.5 -66t-6.5 -94t-5 -98t-2 -77q0 -38 0.5 -94t1 -111.5t1 -100.5t0.5 -62h-17zM219 756q4 18 13.5 36t25.5 33t38.5 24.5t52.5 9.5q11 0 20 -1t19 -3.5
t22.5 -7t29.5 -11.5t29 -11.5t21.5 -7t17 -3.5t15.5 -1q29 0 46 15t25 35h36q-2 -12 -9.5 -30t-23.5 -35.5t-41 -29.5t-62 -12q-18 0 -39.5 5t-50.5 18q-33 14 -49.5 18.5t-31.5 4.5q-29 0 -42.5 -10t-24.5 -36h-37z" />
    <glyph glyph-name="Ograve" unicode="&#xd2;" horiz-adv-x="981" 
d="M838 340q0 83 -26.5 143.5t-73 100t-110 58.5t-136.5 19t-136 -19t-109.5 -58.5t-73 -100t-26.5 -143.5t26.5 -143.5t73 -100t109.5 -58.5t136 -19t136.5 19t110 58.5t73 100t26.5 143.5zM24 340q0 85 34.5 151.5t96.5 112.5t148 70t189 24t189.5 -24t148.5 -70
t96.5 -112.5t34.5 -151.5t-34.5 -151.5t-96.5 -112.5t-148.5 -70t-189.5 -24t-189 24t-148 70t-96.5 112.5t-34.5 151.5zM342 825q-15 8 -30 18.5t-15 28.5q0 16 14.5 24t26.5 8q14 0 28.5 -6.5t27.5 -17.5l184 -149h-52z" />
    <glyph glyph-name="Oacute" unicode="&#xd3;" horiz-adv-x="981" 
d="M834 340q0 83 -26.5 143.5t-73 100t-110 58.5t-136.5 19t-136 -19t-109.5 -58.5t-73 -100t-26.5 -143.5t26.5 -143.5t73 -100t109.5 -58.5t136 -19t136.5 19t110 58.5t73 100t26.5 143.5zM20 340q0 85 34.5 151.5t96.5 112.5t148 70t189 24t189.5 -24t148.5 -70
t96.5 -112.5t34.5 -151.5t-34.5 -151.5t-96.5 -112.5t-148.5 -70t-189.5 -24t-189 24t-148 70t-96.5 112.5t-34.5 151.5zM587 880q13 11 27.5 17.5t28.5 6.5q12 0 26.5 -8t14.5 -24q0 -18 -15 -28.5t-30 -18.5l-184 -94h-52z" />
    <glyph glyph-name="Ocircumflex" unicode="&#xd4;" horiz-adv-x="985" 
d="M838 340q0 83 -26.5 143.5t-73 100t-110 58.5t-136.5 19t-136 -19t-109.5 -58.5t-73 -100t-26.5 -143.5t26.5 -143.5t73 -100t109.5 -58.5t136 -19t136.5 19t110 58.5t73 100t26.5 143.5zM24 340q0 85 34.5 151.5t96.5 112.5t148 70t189 24t189.5 -24t148.5 -70
t96.5 -112.5t34.5 -151.5t-34.5 -151.5t-96.5 -112.5t-148.5 -70t-189.5 -24t-189 24t-148 70t-96.5 112.5t-34.5 151.5zM492 836l-149 -105h-46l154 167h83l154 -167h-46z" />
    <glyph glyph-name="Otilde" unicode="&#xd5;" horiz-adv-x="985" 
d="M838 340q0 83 -26.5 143.5t-73 100t-110 58.5t-136.5 19t-136 -19t-109.5 -58.5t-73 -100t-26.5 -143.5t26.5 -143.5t73 -100t109.5 -58.5t136 -19t136.5 19t110 58.5t73 100t26.5 143.5zM24 340q0 85 34.5 151.5t96.5 112.5t148 70t189 24t189.5 -24t148.5 -70
t96.5 -112.5t34.5 -151.5t-34.5 -151.5t-96.5 -112.5t-148.5 -70t-189.5 -24t-189 24t-148 70t-96.5 112.5t-34.5 151.5zM287 756q4 18 13.5 36t25.5 33t38.5 24.5t52.5 9.5q11 0 20 -1t19 -3.5t22.5 -7t29.5 -11.5t29 -11.5t21.5 -7t17 -3.5t15.5 -1q29 0 46 15t25 35h36
q-2 -12 -9.5 -30t-23.5 -35.5t-41 -29.5t-62 -12q-18 0 -39.5 5t-50.5 18q-33 14 -49.5 18.5t-31.5 4.5q-29 0 -42.5 -10t-24.5 -36h-37z" />
    <glyph glyph-name="Odieresis" unicode="&#xd6;" horiz-adv-x="985" 
d="M838 340q0 83 -26.5 143.5t-73 100t-110 58.5t-136.5 19t-136 -19t-109.5 -58.5t-73 -100t-26.5 -143.5t26.5 -143.5t73 -100t109.5 -58.5t136 -19t136.5 19t110 58.5t73 100t26.5 143.5zM24 340q0 85 34.5 151.5t96.5 112.5t148 70t189 24t189.5 -24t148.5 -70
t96.5 -112.5t34.5 -151.5t-34.5 -151.5t-96.5 -112.5t-148.5 -70t-189.5 -24t-189 24t-148 70t-96.5 112.5t-34.5 151.5zM552 809q0 21 19 36t45 15t44.5 -15t18.5 -36t-18.5 -36t-44.5 -15t-45 15t-19 36zM306 809q0 21 18.5 36t44.5 15t45 -15t19 -36t-19 -36t-45 -15
t-44.5 15t-18.5 36z" />
    <glyph glyph-name="multiply" unicode="&#xd7;" horiz-adv-x="628" 
d="M268 253l-230 185l46 36l230 -184l231 184l45 -36l-230 -185l230 -184l-45 -37l-231 184l-230 -184l-46 37z" />
    <glyph glyph-name="Oslash" unicode="&#xd8;" horiz-adv-x="997" 
d="M747 582q-47 41 -110.5 60t-138.5 19q-73 0 -136 -19t-109.5 -58.5t-73 -100t-26.5 -143.5q0 -73 20.5 -128.5t56.5 -93.5zM30 340q0 85 34.5 151.5t96.5 112.5t148 70t189 24q181 0 300 -70q11 9 27.5 24t33 30.5t30 29.5t18.5 20q5 -6 15 -12.5t20 -11.5
q-8 -4 -22.5 -16t-31.5 -26.5t-34 -29.5t-29 -25q67 -46 104.5 -114t37.5 -157q0 -85 -34.5 -151.5t-96.5 -112.5t-148.5 -70t-189.5 -24q-88 0 -163 17.5t-133 50.5q-12 -11 -28.5 -26l-33 -30t-30 -28.5t-20.5 -22.5q-6 8 -15 13.5t-20 10.5q7 4 21 15.5t31 26.5t34.5 31
t31.5 28q-68 45 -105.5 113.5t-37.5 158.5zM253 96q46 -39 108.5 -58t136.5 -19q73 0 136.5 19t110 58.5t73 100t26.5 143.5q0 72 -19.5 126t-55.5 94z" />
    <glyph glyph-name="Ugrave" unicode="&#xd9;" horiz-adv-x="791" 
d="M687 360q0 142 -1 219t-6 106q12 -2 25 -3.5t26 -1.5q18 0 38 5q-4 -35 -7.5 -83.5t-6.5 -104t-5.5 -114t-3.5 -113.5q-1 -66 -25 -119.5t-69.5 -91t-111.5 -57.5t-150 -20q-186 0 -272 70t-86 216q0 47 3.5 83.5t3.5 74.5q0 83 -3 149l-5 110q15 -2 32.5 -3.5t32.5 -1.5
q14 0 28 1.5t26 3.5q-3 -22 -5.5 -57.5t-5 -80.5t-3.5 -97.5t-1 -107.5q0 -34 1.5 -70.5t9 -71t24.5 -66t48 -55t78.5 -37t117.5 -13.5q68 0 115 16t77 42t46.5 60t24 71t9 73.5t1.5 68.5zM250 825q-15 8 -30 18.5t-15 28.5q0 16 14.5 24t26.5 8q14 0 28.5 -6.5t27.5 -17.5
l184 -149h-52z" />
    <glyph glyph-name="Uacute" unicode="&#xda;" horiz-adv-x="790" 
d="M680 360q0 142 -1 219t-6 106q12 -2 25 -3.5t26 -1.5q18 0 38 5q-4 -35 -7.5 -83.5t-6.5 -104t-5.5 -114t-3.5 -113.5q-1 -66 -25 -119.5t-69.5 -91t-111.5 -57.5t-150 -20q-186 0 -272 70t-86 216q0 47 3.5 83.5t3.5 74.5q0 83 -3 149l-5 110q15 -2 32.5 -3.5t32.5 -1.5
q14 0 28 1.5t26 3.5q-3 -22 -5.5 -57.5t-5 -80.5t-3.5 -97.5t-1 -107.5q0 -34 1.5 -70.5t9 -71t24.5 -66t48 -55t78.5 -37t117.5 -13.5q68 0 115 16t77 42t46.5 60t24 71t9 73.5t1.5 68.5zM492 880q13 11 27.5 17.5t28.5 6.5q12 0 26.5 -8t14.5 -24q0 -18 -15 -28.5
t-30 -18.5l-184 -94h-52z" />
    <glyph glyph-name="Ucircumflex" unicode="&#xdb;" horiz-adv-x="795" 
d="M686 360q0 142 -1 219t-6 106q12 -2 25 -3.5t26 -1.5q18 0 38 5q-4 -35 -7.5 -83.5t-6.5 -104t-5.5 -114t-3.5 -113.5q-1 -66 -25 -119.5t-69.5 -91t-111.5 -57.5t-150 -20q-186 0 -272 70t-86 216q0 47 3.5 83.5t3.5 74.5q0 83 -3 149l-5 110q15 -2 32.5 -3.5t32.5 -1.5
q14 0 28 1.5t26 3.5q-3 -22 -5.5 -57.5t-5 -80.5t-3.5 -97.5t-1 -107.5q0 -34 1.5 -70.5t9 -71t24.5 -66t48 -55t78.5 -37t117.5 -13.5q68 0 115 16t77 42t46.5 60t24 71t9 73.5t1.5 68.5zM399 836l-149 -105h-46l154 167h83l154 -167h-46z" />
    <glyph glyph-name="Udieresis" unicode="&#xdc;" horiz-adv-x="796" 
d="M686 360q0 142 -1 219t-6 106q12 -2 25 -3.5t26 -1.5q18 0 38 5q-4 -35 -7.5 -83.5t-6.5 -104t-5.5 -114t-3.5 -113.5q-1 -66 -25 -119.5t-69.5 -91t-111.5 -57.5t-150 -20q-186 0 -272 70t-86 216q0 47 3.5 83.5t3.5 74.5q0 83 -3 149l-5 110q15 -2 32.5 -3.5t32.5 -1.5
q14 0 28 1.5t26 3.5q-3 -22 -5.5 -57.5t-5 -80.5t-3.5 -97.5t-1 -107.5q0 -34 1.5 -70.5t9 -71t24.5 -66t48 -55t78.5 -37t117.5 -13.5q68 0 115 16t77 42t46.5 60t24 71t9 73.5t1.5 68.5zM459 809q0 21 19 36t45 15t44.5 -15t18.5 -36t-18.5 -36t-44.5 -15t-45 15t-19 36z
M213 809q0 21 18.5 36t44.5 15t45 -15t19 -36t-19 -36t-45 -15t-44.5 15t-18.5 36z" />
    <glyph glyph-name="Yacute" unicode="&#xdd;" horiz-adv-x="724" 
d="M310 279q-12 17 -36 49.5t-53.5 72.5t-61.5 83.5t-61.5 82.5t-54 70.5t-37.5 47.5q17 -2 34.5 -3.5t34.5 -1.5t34.5 1.5t34.5 3.5q54 -86 113 -171t124 -175q29 36 60 79t62 88t60 90.5t54 88.5q13 -2 25 -3.5t24 -1.5t24.5 1.5t24.5 3.5q-60 -73 -107 -132t-84 -107
t-64.5 -86.5t-47.5 -69.5q0 -37 0.5 -79t2 -82t3.5 -75.5t4 -58.5q-16 2 -31 3.5t-30 1.5t-30 -1.5t-31 -3.5q8 54 9 128.5t1 155.5zM459 870q13 11 27.5 17.5t28.5 6.5q12 0 26.5 -8t14.5 -24q0 -18 -15 -28.5t-30 -18.5l-184 -94h-52z" />
    <glyph glyph-name="Thorn" unicode="&#xde;" horiz-adv-x="582" 
d="M155 232q15 -2 41.5 -3t55.5 -1q40 0 78.5 9t68 27.5t47.5 47t18 67.5q0 25 -10 50t-33.5 44.5t-61.5 31.5t-93 12h-111v-285zM52 426q0 65 -3 129.5t-7 129.5q17 -2 32 -3.5t30 -1.5t30 1.5t31 3.5q-4 -33 -7 -65.5t-3 -65.5h154q63 0 113 -10t85 -31.5t53.5 -54.5
t18.5 -78q0 -55 -27.5 -91.5t-71 -58t-99 -30.5t-110.5 -9q-34 0 -62 1t-54 3v-56q0 -22 0.5 -43.5t1.5 -41t3 -35t5 -24.5q-16 2 -31 3.5t-30 1.5t-30 -1.5t-32 -3.5q4 65 7 129.5t3 129.5v172z" />
    <glyph glyph-name="germandbls" unicode="&#xdf;" horiz-adv-x="620" 
d="M48 406q0 47 -2 78.5t-2 42.5q0 62 24 105.5t61.5 70.5t82.5 39.5t86 12.5q28 0 60 -8t59 -23t45 -36t18 -46q0 -39 -23 -69t-50.5 -55.5t-50.5 -47.5t-23 -45t19.5 -41t49 -34.5t64 -33t64 -37t49 -46.5t19.5 -61q0 -33 -20 -66t-54 -60t-78.5 -44t-92.5 -17
q-41 0 -73 6.5t-52 16.5q8 11 14 28t8 31h7q6 -9 18.5 -17t29 -14.5t35.5 -10t38 -3.5q26 0 50.5 7.5t43 21t30 33.5t11.5 44q0 32 -19.5 56t-49 43.5t-64 37t-64 36t-49 40t-19.5 49.5q0 19 12.5 37.5t31 36t40 36t40 38.5t31 42.5t12.5 49.5q0 40 -32.5 66.5t-90.5 26.5
q-86 0 -119 -52.5t-33 -152.5v-235q0 -35 0.5 -74.5t2 -78.5t3 -74.5t4.5 -60.5q-14 2 -28 3.5t-28 1.5t-28 -1.5t-28 -3.5q3 25 4.5 60.5t3 74.5t2 78.5t0.5 74.5v123z" />
    <glyph glyph-name="agrave" unicode="&#xe0;" horiz-adv-x="569" 
d="M83 425q57 34 104 46t97 12q45 0 82.5 -10.5t64 -30t41.5 -47t15 -60.5q0 -57 -2.5 -113.5t-2.5 -119.5q0 -12 1 -25.5t5.5 -24t14.5 -17.5t28 -7q5 0 12 0.5t14 3.5v-22q-14 -5 -35 -9.5t-45 -4.5q-41 0 -61.5 18t-24.5 44q-23 -18 -44.5 -31.5t-44.5 -23t-49.5 -14
t-58.5 -4.5q-31 0 -61 8.5t-53 24.5t-37.5 38.5t-14.5 51.5q0 60 47.5 93t128.5 44q68 9 106 15.5t56 13.5t22 16.5t4 24.5q0 25 -7.5 48t-24 40t-43 27.5t-63.5 10.5q-50 0 -92.5 -18t-64.5 -50h-14v52zM392 247q-21 -6 -49 -10t-57 -8.5t-57 -11.5t-49.5 -19t-35 -30.5
t-13.5 -45.5q0 -24 9 -41.5t24 -29.5t34.5 -18t40.5 -6q48 0 87 21t61 49zM138 653q-15 8 -30 18.5t-15 28.5q0 16 14.5 24t26.5 8q14 0 28.5 -6.5t28.5 -17.5l183 -149h-52z" />
    <glyph glyph-name="aacute" unicode="&#xe1;" horiz-adv-x="565" 
d="M68 425q57 34 104 46t97 12q45 0 82.5 -10.5t64 -30t41.5 -47t15 -60.5q0 -57 -2.5 -113.5t-2.5 -119.5q0 -12 1 -25.5t5.5 -24t14.5 -17.5t28 -7q5 0 12 0.5t14 3.5v-22q-14 -5 -35 -9.5t-45 -4.5q-41 0 -61.5 18t-24.5 44q-23 -18 -44.5 -31.5t-44.5 -23t-49.5 -14
t-58.5 -4.5q-31 0 -61 8.5t-53 24.5t-37.5 38.5t-14.5 51.5q0 60 47.5 93t128.5 44q68 9 106 15.5t56 13.5t22 16.5t4 24.5q0 25 -7.5 48t-24 40t-43 27.5t-63.5 10.5q-50 0 -92.5 -18t-64.5 -50h-14v52zM377 247q-21 -6 -49 -10t-57 -8.5t-57 -11.5t-49.5 -19t-35 -30.5
t-13.5 -45.5q0 -24 9 -41.5t24 -29.5t34.5 -18t40.5 -6q48 0 87 21t61 49zM372 708q13 11 27.5 17.5t28.5 6.5q12 0 26.5 -8t14.5 -24q0 -18 -15 -28.5t-30 -18.5l-183 -94h-53z" />
    <glyph glyph-name="acircumflex" unicode="&#xe2;" horiz-adv-x="571" 
d="M78 425q57 34 104 46t97 12q45 0 82.5 -10.5t64 -30t41.5 -47t15 -60.5q0 -57 -2.5 -113.5t-2.5 -119.5q0 -12 1 -25.5t5.5 -24t14.5 -17.5t28 -7q5 0 12 0.5t14 3.5v-22q-14 -5 -35 -9.5t-45 -4.5q-41 0 -61.5 18t-24.5 44q-23 -18 -44.5 -31.5t-44.5 -23t-49.5 -14
t-58.5 -4.5q-31 0 -61 8.5t-53 24.5t-37.5 38.5t-14.5 51.5q0 60 47.5 93t128.5 44q68 9 106 15.5t56 13.5t22 16.5t4 24.5q0 25 -7.5 48t-24 40t-43 27.5t-63.5 10.5q-50 0 -92.5 -18t-64.5 -50h-14v52zM387 247q-21 -6 -49 -10t-57 -8.5t-57 -11.5t-49.5 -19t-35 -30.5
t-13.5 -45.5q0 -24 9 -41.5t24 -29.5t34.5 -18t40.5 -6q48 0 87 21t61 49zM283 664l-149 -105h-46l154 167h84l153 -167h-46z" />
    <glyph glyph-name="atilde" unicode="&#xe3;" horiz-adv-x="578" 
d="M81 425q57 34 104 46t97 12q45 0 82.5 -10.5t64 -30t41.5 -47t15 -60.5q0 -57 -2.5 -113.5t-2.5 -119.5q0 -12 1 -25.5t5.5 -24t14.5 -17.5t28 -7q5 0 12 0.5t14 3.5v-22q-14 -5 -35 -9.5t-45 -4.5q-41 0 -61.5 18t-24.5 44q-23 -18 -44.5 -31.5t-44.5 -23t-49.5 -14
t-58.5 -4.5q-31 0 -61 8.5t-53 24.5t-37.5 38.5t-14.5 51.5q0 60 47.5 93t128.5 44q68 9 106 15.5t56 13.5t22 16.5t4 24.5q0 25 -7.5 48t-24 40t-43 27.5t-63.5 10.5q-50 0 -92.5 -18t-64.5 -50h-14v52zM390 247q-21 -6 -49 -10t-57 -8.5t-57 -11.5t-49.5 -19t-35 -30.5
t-13.5 -45.5q0 -24 9 -41.5t24 -29.5t34.5 -18t40.5 -6q48 0 87 21t61 49zM81 584q4 18 13.5 36t25.5 33t38.5 24.5t52.5 9.5q11 0 20 -1t19 -3.5t22.5 -7t29.5 -11.5q18 -7 30 -11.5t21 -7t16.5 -3.5t15.5 -1q29 0 46 15t25 35h36q-2 -12 -9.5 -30t-23.5 -35.5t-41 -29.5
t-62 -12q-18 0 -39.5 5t-50.5 18q-33 14 -49.5 18.5t-31.5 4.5q-29 0 -42 -10t-24 -36h-38z" />
    <glyph glyph-name="adieresis" unicode="&#xe4;" horiz-adv-x="577" 
d="M81 425q57 34 104 46t97 12q45 0 82.5 -10.5t64 -30t41.5 -47t15 -60.5q0 -57 -2.5 -113.5t-2.5 -119.5q0 -12 1 -25.5t5.5 -24t14.5 -17.5t28 -7q5 0 12 0.5t14 3.5v-22q-14 -5 -35 -9.5t-45 -4.5q-41 0 -61.5 18t-24.5 44q-23 -18 -44.5 -31.5t-44.5 -23t-49.5 -14
t-58.5 -4.5q-31 0 -61 8.5t-53 24.5t-37.5 38.5t-14.5 51.5q0 60 47.5 93t128.5 44q68 9 106 15.5t56 13.5t22 16.5t4 24.5q0 25 -7.5 48t-24 40t-43 27.5t-63.5 10.5q-50 0 -92.5 -18t-64.5 -50h-14v52zM390 247q-21 -6 -49 -10t-57 -8.5t-57 -11.5t-49.5 -19t-35 -30.5
t-13.5 -45.5q0 -24 9 -41.5t24 -29.5t34.5 -18t40.5 -6q48 0 87 21t61 49zM346 637q0 21 19 36t45 15t45 -15t19 -36t-19 -36t-45 -15t-45 15t-19 36zM100 637q0 21 19 36t45 15t44.5 -15t18.5 -36t-18.5 -36t-44.5 -15t-45 15t-19 36z" />
    <glyph glyph-name="aring" unicode="&#xe5;" horiz-adv-x="571" 
d="M78 425q57 34 104 46t97 12q45 0 82.5 -10.5t64 -30t41.5 -47t15 -60.5q0 -57 -2.5 -113.5t-2.5 -119.5q0 -12 1 -25.5t5.5 -24t14.5 -17.5t28 -7q5 0 12 0.5t14 3.5v-22q-14 -5 -35 -9.5t-45 -4.5q-41 0 -61.5 18t-24.5 44q-23 -18 -44.5 -31.5t-44.5 -23t-49.5 -14
t-58.5 -4.5q-31 0 -61 8.5t-53 24.5t-37.5 38.5t-14.5 51.5q0 60 47.5 93t128.5 44q68 9 106 15.5t56 13.5t22 16.5t4 24.5q0 25 -7.5 48t-24 40t-43 27.5t-63.5 10.5q-50 0 -92.5 -18t-64.5 -50h-14v52zM387 247q-21 -6 -49 -10t-57 -8.5t-57 -11.5t-49.5 -19t-35 -30.5
t-13.5 -45.5q0 -24 9 -41.5t24 -29.5t34.5 -18t40.5 -6q48 0 87 21t61 49zM156 645q0 21 10 39.5t27.5 32.5t40.5 22t50 8q26 0 49.5 -8t41 -22t27.5 -32.5t10 -39.5t-10 -39.5t-27.5 -32.5t-41 -22t-50.5 -8q-26 0 -49.5 8t-40.5 22t-27 32.5t-10 39.5zM208 645
q0 -25 22 -42.5t53 -17.5q32 0 54 17.5t22 42.5t-21.5 42.5t-53.5 17.5t-54 -17.5t-22 -42.5z" />
    <glyph glyph-name="ae" unicode="&#xe6;" horiz-adv-x="962" 
d="M137 122q0 -43 32 -69t86 -26q25 0 49.5 6.5t44 20t32.5 33t15 46.5q2 29 1.5 57t0.5 57q-22 -6 -49.5 -10t-56.5 -8.5t-57 -11.5t-49.5 -19t-35 -30.5t-13.5 -45.5zM90 425q57 34 104 46t97 12q21 0 45 -3t48.5 -11.5t48.5 -23t45 -37.5q33 35 81.5 55t108.5 20
q66 0 114.5 -16.5t80.5 -44t48 -64.5t16 -79q0 -10 -0.5 -19.5t-1.5 -19.5q-68 1 -134.5 2t-133.5 1q-42 0 -82 -1t-82 -2q-1 -8 -1 -14.5v-13.5q0 -39 14.5 -73t42 -58.5t67.5 -39t92 -14.5q25 0 51.5 5.5t51 15t46.5 22.5t39 28l6 -3l-7 -49q-38 -24 -94.5 -42.5
t-114.5 -18.5q-90 0 -157.5 30.5t-98.5 88.5q-11 -22 -28 -43.5t-44.5 -38t-66 -27t-90.5 -10.5q-32 0 -61.5 8.5t-53 24.5t-37.5 38.5t-14 51.5q0 60 47 93t129 44q68 9 105.5 15.5t55.5 13.5t22 16.5t4 24.5q0 25 -7.5 48t-23.5 40t-42.5 27.5t-63.5 10.5q-50 0 -93 -18
t-65 -50h-13v52zM671 451q-46 0 -78.5 -17t-53 -42.5t-31 -56t-12.5 -57.5q38 -1 80.5 -2t81.5 -1q42 0 84.5 1t82.5 2q0 27 -6 57t-22.5 56t-46.5 43t-79 17z" />
    <glyph glyph-name="ccedilla" unicode="&#xe7;" horiz-adv-x="564" 
d="M207 -175q14 -5 37.5 -8.5t52.5 -3.5q31 0 53 11t22 31q0 22 -19 31t-45 9q-40 0 -54 -7l-8 7l43 92q-51 3 -99.5 18.5t-87 45.5t-62 75t-23.5 108q0 65 27.5 112t72 77.5t102 45t117.5 14.5q34 0 65.5 -3.5t57.5 -9.5t46 -14t32 -17q-8 -15 -15.5 -31.5t-12.5 -34.5h-10
q-9 13 -24 26.5t-35 25t-45.5 19t-55.5 7.5q-57 0 -97 -16.5t-65.5 -45.5t-37.5 -68.5t-12 -85.5q0 -103 55.5 -155.5t160.5 -52.5q25 0 51 5.5t51 15t47 22.5t39 28l6 -3q-3 -12 -4.5 -24.5t-3.5 -24.5q-17 -11 -39.5 -21.5t-47.5 -18.5t-52 -13.5t-54 -6.5l-27 -59
q8 2 16 3.5t21 1.5q49 0 76 -19.5t27 -51.5q0 -21 -12 -37t-32 -26.5t-47 -16t-57 -5.5q-39 0 -66.5 6t-45.5 11z" />
    <glyph glyph-name="egrave" unicode="&#xe8;" horiz-adv-x="607" 
d="M31 220q0 122 74 192.5t213 70.5q66 0 114.5 -16.5t80.5 -44t47.5 -64.5t15.5 -79q0 -10 -0.5 -19.5t-1.5 -19.5q-68 1 -134.5 2t-133.5 1q-42 0 -81.5 -1t-81.5 -2q-2 -8 -2 -14.5v-13.5q0 -39 14.5 -73t42 -58.5t68 -39t92.5 -14.5q25 0 51 5.5t50.5 15t46.5 22.5
t39 28l6 -3l-7 -49q-38 -24 -94 -42.5t-115 -18.5q-68 0 -123.5 18t-96 49.5t-62.5 74.5t-22 93zM320 451q-46 0 -78 -17t-53 -42.5t-31.5 -56t-12.5 -57.5q38 -1 80.5 -2t82.5 -1q42 0 84 1t82 2q0 27 -6 57t-22.5 56t-46.5 43t-79 17zM170 653q-15 8 -30 18.5t-15 28.5
q0 16 14.5 24t26.5 8q14 0 28.5 -6.5t28.5 -17.5l183 -149h-52z" />
    <glyph glyph-name="eacute" unicode="&#xe9;" horiz-adv-x="607" 
d="M31 220q0 122 74 192.5t213 70.5q66 0 114.5 -16.5t80.5 -44t47.5 -64.5t15.5 -79q0 -10 -0.5 -19.5t-1.5 -19.5q-68 1 -134.5 2t-133.5 1q-42 0 -81.5 -1t-81.5 -2q-2 -8 -2 -14.5v-13.5q0 -39 14.5 -73t42 -58.5t68 -39t92.5 -14.5q25 0 51 5.5t50.5 15t46.5 22.5
t39 28l6 -3l-7 -49q-38 -24 -94 -42.5t-115 -18.5q-68 0 -123.5 18t-96 49.5t-62.5 74.5t-22 93zM320 451q-46 0 -78 -17t-53 -42.5t-31.5 -56t-12.5 -57.5q38 -1 80.5 -2t82.5 -1q42 0 84 1t82 2q0 27 -6 57t-22.5 56t-46.5 43t-79 17zM419 708q13 11 27.5 17.5t28.5 6.5
q12 0 26.5 -8t14.5 -24q0 -18 -15 -28.5t-30 -18.5l-183 -94h-53z" />
    <glyph glyph-name="ecircumflex" unicode="&#xea;" horiz-adv-x="613" 
d="M34 220q0 122 74 192.5t213 70.5q66 0 114.5 -16.5t80.5 -44t47.5 -64.5t15.5 -79q0 -10 -0.5 -19.5t-1.5 -19.5q-68 1 -134.5 2t-133.5 1q-42 0 -81.5 -1t-81.5 -2q-2 -8 -2 -14.5v-13.5q0 -39 14.5 -73t42 -58.5t68 -39t92.5 -14.5q25 0 51 5.5t50.5 15t46.5 22.5
t39 28l6 -3l-7 -49q-38 -24 -94 -42.5t-115 -18.5q-68 0 -123.5 18t-96 49.5t-62.5 74.5t-22 93zM323 451q-46 0 -78 -17t-53 -42.5t-31.5 -56t-12.5 -57.5q38 -1 80.5 -2t82.5 -1q42 0 84 1t82 2q0 27 -6 57t-22.5 56t-46.5 43t-79 17zM323 664l-149 -105h-46l154 167h84
l153 -167h-46z" />
    <glyph glyph-name="edieresis" unicode="&#xeb;" horiz-adv-x="605" 
d="M30 220q0 122 74 192.5t213 70.5q66 0 114.5 -16.5t80.5 -44t47.5 -64.5t15.5 -79q0 -10 -0.5 -19.5t-1.5 -19.5q-68 1 -134.5 2t-133.5 1q-42 0 -81.5 -1t-81.5 -2q-2 -8 -2 -14.5v-13.5q0 -39 14.5 -73t42 -58.5t68 -39t92.5 -14.5q25 0 51 5.5t50.5 15t46.5 22.5
t39 28l6 -3l-7 -49q-38 -24 -94 -42.5t-115 -18.5q-68 0 -123.5 18t-96 49.5t-62.5 74.5t-22 93zM319 451q-46 0 -78 -17t-53 -42.5t-31.5 -56t-12.5 -57.5q38 -1 80.5 -2t82.5 -1q42 0 84 1t82 2q0 27 -6 57t-22.5 56t-46.5 43t-79 17zM379 637q0 21 19 36t45 15t45 -15
t19 -36t-19 -36t-45 -15t-45 15t-19 36zM133 637q0 21 19 36t45 15t44.5 -15t18.5 -36t-18.5 -36t-44.5 -15t-45 15t-19 36z" />
    <glyph glyph-name="igrave" unicode="&#xec;" horiz-adv-x="306" 
d="M157 286q0 45 -2.5 94.5t-7.5 92.5q14 -2 28 -3.5t28 -1.5t28 1.5t28 3.5q-5 -43 -7.5 -92.5t-2.5 -94.5v-104q0 -45 2.5 -94.5t7.5 -92.5q-14 2 -28 3.5t-28 1.5t-28 -1.5t-28 -3.5q5 43 7.5 92.5t2.5 94.5v104zM53 653q-15 8 -30 18.5t-15 28.5q0 16 14.5 24t26.5 8
q14 0 28.5 -6.5t27.5 -17.5l184 -149h-52z" />
    <glyph glyph-name="iacute" unicode="&#xed;" horiz-adv-x="306" 
d="M56 286q0 45 -2.5 94.5t-7.5 92.5q14 -2 28 -3.5t28 -1.5t28 1.5t28 3.5q-5 -43 -7.5 -92.5t-2.5 -94.5v-104q0 -45 2.5 -94.5t7.5 -92.5q-14 2 -28 3.5t-28 1.5t-28 -1.5t-28 -3.5q5 43 7.5 92.5t2.5 94.5v104zM201 708q13 11 27.5 17.5t28.5 6.5q12 0 26.5 -8t14.5 -24
q0 -18 -15 -28.5t-30 -18.5l-184 -94h-52z" />
    <glyph glyph-name="icircumflex" unicode="&#xee;" horiz-adv-x="411" 
d="M159 286q0 45 -2.5 94.5t-7.5 92.5q14 -2 28 -3.5t28 -1.5t28 1.5t28 3.5q-5 -43 -7.5 -92.5t-2.5 -94.5v-104q0 -45 2.5 -94.5t7.5 -92.5q-14 2 -28 3.5t-28 1.5t-28 -1.5t-28 -3.5q5 43 7.5 92.5t2.5 94.5v104zM205 664l-149 -105h-46l154 167h83l154 -167h-46z" />
    <glyph glyph-name="idieresis" unicode="&#xef;" horiz-adv-x="403" 
d="M155 286q0 45 -2.5 94.5t-7.5 92.5q14 -2 28 -3.5t28 -1.5t28 1.5t28 3.5q-5 -43 -7.5 -92.5t-2.5 -94.5v-104q0 -45 2.5 -94.5t7.5 -92.5q-14 2 -28 3.5t-28 1.5t-28 -1.5t-28 -3.5q5 43 7.5 92.5t2.5 94.5v104zM261 637q0 21 19 36t45 15t44.5 -15t18.5 -36t-18.5 -36
t-44.5 -15t-45 15t-19 36zM15 637q0 21 18.5 36t44.5 15t45 -15t19 -36t-19 -36t-45 -15t-44.5 15t-18.5 36z" />
    <glyph glyph-name="eth" unicode="&#xf0;" horiz-adv-x="678" 
d="M533 234q0 42 -9.5 81t-32 69.5t-60 48.5t-92.5 18q-56 0 -93 -18t-59.5 -48.5t-32 -69.5t-9.5 -81t9.5 -81t32 -69.5t59.5 -48.5t93 -18q55 0 92.5 18t60 48.5t32 69.5t9.5 81zM35 234q0 68 27 115.5t70.5 77t98 43t108.5 13.5q16 0 31 -1t30 -6l3 2q-39 34 -78 66.5
t-82 64.5q-41 -11 -81 -22t-82 -23q-5 9 -11.5 18t-14.5 18q38 8 76.5 16.5t79.5 18.5q-35 26 -72.5 51t-79.5 51l87 18q45 -26 85 -50t75 -47q44 11 83.5 22t74.5 22q9 -18 26 -35q-40 -8 -76.5 -16t-72.5 -17q80 -54 137.5 -104.5t94 -99t54 -97t17.5 -99.5
q0 -68 -27 -115.5t-70.5 -77t-98 -43t-108.5 -13.5t-108.5 13.5t-98 43t-70.5 77t-27 115.5z" />
    <glyph glyph-name="ntilde" unicode="&#xf1;" horiz-adv-x="573" 
d="M442 279q0 74 -37 113t-99 39q-88 0 -128.5 -43t-40.5 -121v-85q0 -45 2 -94.5t8 -92.5q-14 2 -28 3.5t-28 1.5t-28.5 -1.5t-28.5 -3.5q6 43 8 92.5t2 94.5v104q0 45 -2 94.5t-8 92.5q14 -2 28.5 -3.5t28.5 -1.5q9 0 22.5 1.5t27.5 3.5q-2 -20 -3 -40t-1 -40h2
q35 43 83.5 66.5t116.5 23.5q35 0 70.5 -8t64.5 -27.5t47 -53t18 -85.5q0 -43 -2.5 -88.5t-2.5 -96.5q0 -33 0.5 -65t2.5 -64q-14 2 -26.5 3.5t-26.5 1.5q-13 0 -25 -1.5t-26 -3.5q2 55 5.5 110t3.5 113v61v0zM82 584q4 18 13.5 36t25.5 33t38.5 24.5t52.5 9.5q11 0 20 -1
t19 -3.5t22.5 -7t29.5 -11.5t29 -11.5t21.5 -7t17 -3.5t15.5 -1q29 0 46 15t25 35h36q-2 -12 -9.5 -30t-23.5 -35.5t-41 -29.5t-62 -12q-18 0 -39.5 5t-50.5 18q-33 14 -49.5 18.5t-31.5 4.5q-29 0 -42.5 -10t-24.5 -36h-37z" />
    <glyph glyph-name="ograve" unicode="&#xf2;" horiz-adv-x="669" 
d="M30 234q0 68 27 115.5t70.5 77t98 43t108.5 13.5t108.5 -13.5t98 -43t70.5 -77t27 -115.5t-27 -115.5t-70.5 -77t-98 -43t-108.5 -13.5t-108.5 13.5t-98 43t-70.5 77t-27 115.5zM140 234q0 -42 9.5 -81t32 -69.5t59.5 -48.5t93 -18q55 0 92.5 18t60 48.5t32 69.5t9.5 81
t-9.5 81t-32 69.5t-60 48.5t-92.5 18q-56 0 -93 -18t-59.5 -48.5t-32 -69.5t-9.5 -81zM184 653q-15 8 -30 18.5t-15 28.5q0 16 14.5 24t26.5 8q14 0 28.5 -6.5t27.5 -17.5l184 -149h-52z" />
    <glyph glyph-name="oacute" unicode="&#xf3;" horiz-adv-x="670" 
d="M31 234q0 68 27 115.5t70.5 77t98 43t108.5 13.5t108.5 -13.5t98 -43t70.5 -77t27 -115.5t-27 -115.5t-70.5 -77t-98 -43t-108.5 -13.5t-108.5 13.5t-98 43t-70.5 77t-27 115.5zM141 234q0 -42 9.5 -81t32 -69.5t59.5 -48.5t93 -18q55 0 92.5 18t60 48.5t32 69.5t9.5 81
t-9.5 81t-32 69.5t-60 48.5t-92.5 18q-56 0 -93 -18t-59.5 -48.5t-32 -69.5t-9.5 -81zM434 708q13 11 27.5 17.5t28.5 6.5q12 0 26.5 -8t14.5 -24q0 -18 -15 -28.5t-30 -18.5l-184 -94h-52z" />
    <glyph glyph-name="ocircumflex" unicode="&#xf4;" horiz-adv-x="677" 
d="M34 234q0 68 27 115.5t70.5 77t98 43t108.5 13.5t108.5 -13.5t98 -43t70.5 -77t27 -115.5t-27 -115.5t-70.5 -77t-98 -43t-108.5 -13.5t-108.5 13.5t-98 43t-70.5 77t-27 115.5zM144 234q0 -42 9.5 -81t32 -69.5t59.5 -48.5t93 -18q55 0 92.5 18t60 48.5t32 69.5t9.5 81
t-9.5 81t-32 69.5t-60 48.5t-92.5 18q-56 0 -93 -18t-59.5 -48.5t-32 -69.5t-9.5 -81zM338 664l-149 -105h-46l154 167h83l154 -167h-46z" />
    <glyph glyph-name="otilde" unicode="&#xf5;" horiz-adv-x="670" 
d="M31 234q0 68 27 115.5t70.5 77t98 43t108.5 13.5t108.5 -13.5t98 -43t70.5 -77t27 -115.5t-27 -115.5t-70.5 -77t-98 -43t-108.5 -13.5t-108.5 13.5t-98 43t-70.5 77t-27 115.5zM141 234q0 -42 9.5 -81t32 -69.5t59.5 -48.5t93 -18q55 0 92.5 18t60 48.5t32 69.5t9.5 81
t-9.5 81t-32 69.5t-60 48.5t-92.5 18q-56 0 -93 -18t-59.5 -48.5t-32 -69.5t-9.5 -81zM130 584q4 18 13.5 36t25.5 33t38.5 24.5t52.5 9.5q11 0 20 -1t19 -3.5t22.5 -7t29.5 -11.5t29 -11.5t21.5 -7t17 -3.5t15.5 -1q29 0 46 15t25 35h36q-2 -12 -9.5 -30t-23.5 -35.5
t-41 -29.5t-62 -12q-18 0 -39.5 5t-50.5 18q-33 14 -49.5 18.5t-31.5 4.5q-29 0 -42.5 -10t-24.5 -36h-37z" />
    <glyph glyph-name="odieresis" unicode="&#xf6;" horiz-adv-x="668" 
d="M29 234q0 68 27 115.5t70.5 77t98 43t108.5 13.5t108.5 -13.5t98 -43t70.5 -77t27 -115.5t-27 -115.5t-70.5 -77t-98 -43t-108.5 -13.5t-108.5 13.5t-98 43t-70.5 77t-27 115.5zM139 234q0 -42 9.5 -81t32 -69.5t59.5 -48.5t93 -18q55 0 92.5 18t60 48.5t32 69.5t9.5 81
t-9.5 81t-32 69.5t-60 48.5t-92.5 18q-56 0 -93 -18t-59.5 -48.5t-32 -69.5t-9.5 -81zM393 637q0 21 19 36t45 15t44.5 -15t18.5 -36t-18.5 -36t-44.5 -15t-45 15t-19 36zM147 637q0 21 18.5 36t44.5 15t45 -15t19 -36t-19 -36t-45 -15t-44.5 15t-18.5 36z" />
    <glyph glyph-name="divide" unicode="&#xf7;" horiz-adv-x="643" 
d="M5 279h632v-52h-632v52zM250 449q0 23 21 40t50 17t50 -17t21 -40t-21 -40t-50 -17t-50 17t-21 40zM250 57q0 23 21 40t50 17t50 -17t21 -40t-21 -40t-50 -17t-50 17t-21 40z" />
    <glyph glyph-name="oslash" unicode="&#xf8;" horiz-adv-x="707" 
d="M209 83q23 -30 60 -48t92 -18t92.5 18t60 48.5t32 69.5t9.5 81q0 37 -7 71.5t-24 62.5zM58 234q0 68 27 115.5t70 77t97.5 43t108.5 13.5q51 0 101 -11t93 -37q29 25 54.5 48t33.5 34q12 -15 31 -22q-14 -8 -39 -29t-55 -48q40 -32 62.5 -76t22.5 -108q0 -68 -27 -115.5
t-70.5 -77t-98 -43t-108.5 -13.5q-53 0 -105 12.5t-96 40.5q-29 -26 -54.5 -48.5t-39.5 -36.5q-12 15 -31 21q5 3 15.5 11.5t24 20t28.5 25t30 27.5q-34 31 -54.5 73.5t-20.5 102.5zM508 391q-21 27 -58.5 43.5t-88.5 16.5q-55 0 -92 -18t-59.5 -48.5t-32 -69.5t-9.5 -81
q0 -34 5.5 -65.5t19.5 -58.5z" />
    <glyph glyph-name="ugrave" unicode="&#xf9;" horiz-adv-x="559" 
d="M33 149q0 53 2 90.5t2 74.5q0 35 -0.5 76t-1.5 83q28 -5 52 -5q23 0 51 5q-5 -59 -8.5 -131.5t-3.5 -146.5q0 -52 11 -79.5t28 -41.5q17 -16 43.5 -26.5t63.5 -10.5q53 0 88 18.5t51 45.5q9 16 14.5 28.5t8 32.5t3 54t0.5 93v84.5t-2 79.5q13 -2 25.5 -3.5t26.5 -1.5
t26.5 1.5t24.5 3.5q-5 -78 -6.5 -151t-1.5 -153q0 -45 1 -88.5t4 -85.5q-13 2 -25 3.5t-24 1.5t-24.5 -1.5t-24.5 -3.5q2 22 2.5 43.5t0.5 42.5h-3q-32 -47 -83.5 -71.5t-111.5 -24.5q-98 0 -153.5 43t-55.5 121zM136 653q-15 8 -30 18.5t-15 28.5q0 16 14.5 24t26.5 8
q14 0 28.5 -6.5t27.5 -17.5l184 -149h-52z" />
    <glyph glyph-name="uacute" unicode="&#xfa;" horiz-adv-x="559" 
d="M19 149q0 53 2 90.5t2 74.5q0 35 -0.5 76t-1.5 83q28 -5 52 -5q23 0 51 5q-5 -59 -8.5 -131.5t-3.5 -146.5q0 -52 11 -79.5t28 -41.5q17 -16 43.5 -26.5t63.5 -10.5q53 0 88 18.5t51 45.5q9 16 14.5 28.5t8 32.5t3 54t0.5 93v84.5t-2 79.5q13 -2 25.5 -3.5t26.5 -1.5
t26.5 1.5t24.5 3.5q-5 -78 -6.5 -151t-1.5 -153q0 -45 1 -88.5t4 -85.5q-13 2 -25 3.5t-24 1.5t-24.5 -1.5t-24.5 -3.5q2 22 2.5 43.5t0.5 42.5h-3q-32 -47 -83.5 -71.5t-111.5 -24.5q-98 0 -153.5 43t-55.5 121zM371 708q13 11 27.5 17.5t28.5 6.5q12 0 26.5 -8t14.5 -24
q0 -18 -15 -28.5t-30 -18.5l-184 -94h-52z" />
    <glyph glyph-name="ucircumflex" unicode="&#xfb;" horiz-adv-x="565" 
d="M29 149q0 53 2 90.5t2 74.5q0 35 -0.5 76t-1.5 83q28 -5 52 -5q23 0 51 5q-5 -59 -8.5 -131.5t-3.5 -146.5q0 -52 11 -79.5t28 -41.5q17 -16 43.5 -26.5t63.5 -10.5q53 0 88 18.5t51 45.5q9 16 14.5 28.5t8 32.5t3 54t0.5 93v84.5t-2 79.5q13 -2 25.5 -3.5t26.5 -1.5
t26.5 1.5t24.5 3.5q-5 -78 -6.5 -151t-1.5 -153q0 -45 1 -88.5t4 -85.5q-13 2 -25 3.5t-24 1.5t-24.5 -1.5t-24.5 -3.5q2 22 2.5 43.5t0.5 42.5h-3q-32 -47 -83.5 -71.5t-111.5 -24.5q-98 0 -153.5 43t-55.5 121zM282 664l-149 -105h-46l154 167h83l154 -167h-46z" />
    <glyph glyph-name="udieresis" unicode="&#xfc;" horiz-adv-x="572" 
d="M33 149q0 53 2 90.5t2 74.5q0 35 -0.5 76t-1.5 83q28 -5 52 -5q23 0 51 5q-5 -59 -8.5 -131.5t-3.5 -146.5q0 -52 11 -79.5t28 -41.5q17 -16 43.5 -26.5t63.5 -10.5q53 0 88 18.5t51 45.5q9 16 14.5 28.5t8 32.5t3 54t0.5 93v84.5t-2 79.5q13 -2 25.5 -3.5t26.5 -1.5
t26.5 1.5t24.5 3.5q-5 -78 -6.5 -151t-1.5 -153q0 -45 1 -88.5t4 -85.5q-13 2 -25 3.5t-24 1.5t-24.5 -1.5t-24.5 -3.5q2 22 2.5 43.5t0.5 42.5h-3q-32 -47 -83.5 -71.5t-111.5 -24.5q-98 0 -153.5 43t-55.5 121zM346 637q0 21 19 36t45 15t44.5 -15t18.5 -36t-18.5 -36
t-44.5 -15t-45 15t-19 36zM100 637q0 21 18.5 36t44.5 15t45 -15t19 -36t-19 -36t-45 -15t-44.5 15t-18.5 36z" />
    <glyph glyph-name="yacute" unicode="&#xfd;" horiz-adv-x="585" 
d="M259 -6l-36.5 73t-46.5 90.5t-51 97t-48.5 93t-40.5 76.5t-27 49q14 -2 28.5 -3.5t28.5 -1.5t29 1.5t29 3.5q38 -95 86 -189.5t100 -194.5q52 87 100 188t86 196q23 -5 42 -5q18 0 41 5q-8 -14 -28 -47.5t-46.5 -80t-58.5 -103t-65.5 -116.5t-65.5 -119.5t-60 -112
t-48.5 -95t-30.5 -67.5q-22 5 -42 5t-43 -5q51 66 92 131t76 131zM393 708q13 11 27.5 17.5t28.5 6.5q12 0 26.5 -8t14.5 -24q0 -18 -15 -28.5t-30 -18.5l-184 -94h-52z" />
    <glyph glyph-name="thorn" unicode="&#xfe;" horiz-adv-x="614" 
d="M52 464q0 34 -0.5 74t-2 79t-3 74.5t-4.5 60.5q14 -2 28 -3.5t28 -1.5t28 1.5t28 3.5q-3 -25 -4.5 -60.5t-3 -74.5t-2 -79t-0.5 -74v-89h3q9 16 25.5 34.5t42 35t61 27.5t82.5 11q48 0 94 -14.5t81.5 -44.5t57.5 -76.5t22 -110.5t-24 -111t-62 -78.5t-86.5 -47
t-97.5 -15.5q-69 0 -118 25t-78 73h-3v-63q0 -35 0.5 -74.5t2 -78.5t3 -74.5t4.5 -60.5q-14 2 -28 3.5t-28 1.5t-28 -1.5t-28 -3.5q3 25 4.5 60.5t3 74.5t2 78.5t0.5 74.5v444zM503 238q0 60 -15.5 99t-40 62.5t-55.5 32.5t-61 9q-51 0 -86.5 -17t-58 -45.5t-32.5 -67
t-10 -81.5q0 -103 46.5 -155.5t136.5 -52.5q45 0 78 16.5t55 46t32.5 69t10.5 84.5z" />
    <glyph glyph-name="ydieresis" unicode="&#xff;" horiz-adv-x="588" 
d="M263 -6q-14 30 -36 73t-47 90.5t-51 97t-48.5 93t-40.5 76.5t-27 49q14 -2 28.5 -3.5t28.5 -1.5t29 1.5t29 3.5q38 -95 86 -189.5t100 -194.5q52 87 100 188t86 196q23 -5 42 -5q18 0 41 5q-8 -14 -28 -47.5t-46.5 -80t-58.5 -103t-65.5 -116.5t-65.5 -119.5t-60 -112
t-48.5 -95t-30.5 -67.5q-22 5 -42 5t-43 -5q51 66 92 131t76 131zM358 637q0 21 19 36t45 15t44.5 -15t18.5 -36t-18.5 -36t-44.5 -15t-45 15t-19 36zM112 637q0 21 18.5 36t44.5 15t45 -15t19 -36t-19 -36t-45 -15t-44.5 15t-18.5 36z" />
    <glyph glyph-name="dotlessi" unicode="&#x131;" horiz-adv-x="192" 
d="M48 286q0 45 -2.5 94.5t-7.5 92.5q14 -2 28 -3.5t28 -1.5t28 1.5t28 3.5q-5 -43 -7.5 -92.5t-2.5 -94.5v-104q0 -45 2.5 -94.5t7.5 -92.5q-14 2 -28 3.5t-28 1.5t-28 -1.5t-28 -3.5q5 43 7.5 92.5t2.5 94.5v104z" />
    <glyph glyph-name="Lslash" unicode="&#x141;" horiz-adv-x="602" 
d="M147 426q0 65 -3 129.5t-7 129.5q16 -2 31 -3.5t30 -1.5t30 1.5t31 3.5q-4 -65 -7 -129.5t-3 -129.5v-39q30 14 62.5 30.5t67.5 35.5q9 -18 24 -36q-26 -11 -66 -29t-88 -40v-90q0 -72 1.5 -122.5t2.5 -93.5q88 0 169.5 1.5t175.5 11.5q-6 -15 -6 -30t6 -30
q-57 2 -115 3.5t-115 1.5q-59 0 -116 -1.5t-115 -3.5q4 65 7 129.5t3 129.5v43q-37 -17 -64 -31.5t-38 -22.5q-8 17 -27 37q35 15 66 29t63 28v89z" />
    <glyph glyph-name="lslash" unicode="&#x142;" horiz-adv-x="334" 
d="M121 327q-29 -15 -53.5 -28t-35.5 -18q-5 8 -10.5 15t-13.5 14q26 12 55 26t58 29v99q0 34 -0.5 74t-2 79t-3 74.5t-4.5 60.5q14 -2 28 -3.5t28 -1.5t28 1.5t28 3.5q-3 -25 -4.5 -60.5t-3 -74.5t-2 -79t-0.5 -74v-51q27 14 49 25.5t41 22.5q0 -8 7 -16.5t16 -14.5
q-15 -8 -43 -20.5t-70 -33.5v-93q0 -35 0.5 -74.5t2 -78.5t3 -74.5t4.5 -60.5q-14 2 -28 3.5t-28 1.5t-28 -1.5t-28 -3.5q3 25 4.5 60.5t3 74.5t2 78.5t0.5 74.5v44z" />
    <glyph glyph-name="OE" unicode="&#x152;" horiz-adv-x="1242" 
d="M900 238q0 -49 2 -98l4 -98q69 0 120 1t88 2.5t61.5 3.5t39.5 4q-6 -15 -6 -29t6 -29q-53 2 -105 3.5t-105 1.5q-54 0 -106.5 -1.5t-107.5 -3.5q3 25 5 49t2 49l-3 2q-21 -18 -49.5 -38t-68.5 -36.5t-92.5 -27.5t-120.5 -11q-89 0 -167.5 24t-137 68.5t-92 108.5
t-33.5 145q0 90 34 159t94.5 116t143 71t179.5 24q79 0 134.5 -13t92 -31t57.5 -36.5t32 -30.5l3 2q0 24 -1.5 48t-3.5 48q53 -2 103.5 -3.5t101.5 -1.5t101 1.5t101 3.5q-2 -8 -4 -15.5t-2 -15.5t2 -15.5t4 -15.5q-19 3 -38.5 5.5t-51 5t-81.5 3.5t-129 1q-2 -44 -4 -87.5
t-2 -87.5v-82q76 0 123.5 0.5t76.5 1.5t46.5 2.5t34.5 2.5l-4 -14t-2 -14t2 -14l4 -14q-17 1 -34.5 2.5t-47 2.5t-76.5 1.5t-123 0.5v-101zM156 340q0 -83 26 -143.5t71 -100t104.5 -58.5t125.5 -19q75 0 135 23t102.5 65.5t65 101.5t22.5 131q0 88 -23.5 149t-65.5 99
t-99 55.5t-124 17.5q-71 0 -133 -19t-108 -58.5t-72.5 -100t-26.5 -143.5z" />
    <glyph glyph-name="oe" unicode="&#x153;" horiz-adv-x="1103" 
d="M535 234q0 42 -9.5 81t-32.5 69.5t-60.5 48.5t-92.5 18q-56 0 -93 -18t-59.5 -48.5t-32 -69.5t-9.5 -81t9.5 -81t32 -69.5t59.5 -48.5t93 -18q55 0 92.5 18t60.5 48.5t32.5 69.5t9.5 81zM808 483q66 0 114.5 -16.5t80.5 -44t48 -64.5t16 -79q0 -10 -0.5 -19.5t-1.5 -19.5
q-68 1 -134.5 2t-133.5 1q-42 0 -82 -1t-82 -2q-1 -8 -1 -14.5v-13.5q0 -39 14.5 -73t42 -58.5t67.5 -39t92 -14.5q25 0 51.5 5.5t51 15t46.5 22.5t39 28l6 -3l-7 -49q-38 -24 -94.5 -42.5t-114.5 -18.5q-78 0 -140 23.5t-103 65.5q-43 -48 -108.5 -68.5t-134.5 -20.5
q-54 0 -108.5 13.5t-98 43t-70.5 77t-27 115.5t27 115.5t70.5 77t98 43t108.5 13.5q34 0 68 -5t65.5 -15.5t59 -27t48.5 -39.5q35 42 92.5 64.5t134.5 22.5zM811 451q-46 0 -78.5 -17t-53 -42.5t-31 -56t-12.5 -57.5q38 -1 80.5 -2t81.5 -1q42 0 84.5 1t82.5 2q0 27 -6 57
t-22.5 56t-46.5 43t-79 17z" />
    <glyph glyph-name="Scaron" unicode="&#x160;" horiz-adv-x="574" 
d="M69 128q10 -18 27.5 -36.5t41.5 -33.5t56 -24.5t73 -9.5q42 0 75 11.5t56 31t35.5 46t12.5 56.5q0 46 -29 73t-73 45t-95 33t-95 37.5t-73 57.5t-29 94q0 42 19 76.5t54 59.5t85.5 39t112.5 14q60 0 103.5 -11.5t81.5 -35.5q-11 -17 -18.5 -36t-15.5 -48h-15
q-6 14 -17 30.5t-28.5 30.5t-42.5 23.5t-60 9.5t-65 -9t-51.5 -25.5t-33.5 -39.5t-12 -50q0 -47 29 -74t73 -45.5t95 -33t95 -35.5t73 -54t29 -88q0 -46 -21 -87t-60 -71.5t-96 -48.5t-129 -18q-78 0 -126 18t-80 39q6 12 9.5 22t6 20t4 21.5t3.5 25.5h15zM449 898h47
l-154 -167h-84l-154 167h47l150 -105z" />
    <glyph glyph-name="scaron" unicode="&#x161;" horiz-adv-x="447" 
d="M69 91q7 -10 20 -22t31 -22.5t41 -17.5t49 -7q24 0 46 6t39 17t27 28t10 39q0 31 -22 47.5t-54.5 27t-71 18.5t-71 22.5t-54.5 38.5t-22 66q0 33 14 60.5t40 47.5t64.5 31.5t88.5 11.5q46 0 78 -10t61 -18q-11 -14 -19.5 -37t-10.5 -34h-15q-10 24 -39 43t-71 19
q-18 0 -37 -5t-34.5 -15t-25 -26t-9.5 -38q0 -32 22 -49.5t54.5 -27.5t71 -18t71 -21t54.5 -37t22 -66q0 -29 -16 -57t-45 -50.5t-70.5 -36.5t-93.5 -14q-58 0 -97 10.5t-65 22.5q8 13 16 35.5t8 37.5h15zM373 726h46l-154 -167h-83l-154 167h46l150 -105z" />
    <glyph glyph-name="Ydieresis" unicode="&#x178;" horiz-adv-x="725" 
d="M312 279q-13 17 -36.5 49.5t-53 72.5t-61.5 83.5t-61.5 82.5t-54 70.5t-37.5 47.5q17 -2 34.5 -3.5t34.5 -1.5t34.5 1.5t34.5 3.5q54 -86 113 -171t124 -175q29 36 60 79t62 88t60 90.5t54 88.5q13 -2 25 -3.5t24 -1.5t24.5 1.5t24.5 3.5q-60 -73 -107 -132t-84 -107
t-64.5 -86.5t-47.5 -69.5q0 -37 0.5 -79t2 -82t3.5 -75.5t4 -58.5q-16 2 -31 3.5t-30 1.5t-30 -1.5t-31 -3.5q8 54 9 128.5t1 155.5zM434 809q0 21 19 36t45 15t45 -15t19 -36t-19 -36t-45 -15t-45 15t-19 36zM188 809q0 21 19 36t45 15t45 -15t19 -36t-19 -36t-45 -15
t-45 15t-19 36z" />
    <glyph glyph-name="Zcaron" unicode="&#x17d;" horiz-adv-x="739" 
d="M20 12q49 54 104 115.5t110 124.5t107 123.5t96 111.5t76.5 90t48.5 59q-23 1 -45.5 1.5t-42.5 0.5q-45 0 -100 -1t-110.5 -3.5t-105.5 -5t-86 -5.5q2 8 4 15.5t2 15.5t-2 15.5t-4 15.5q31 -2 79.5 -3t115.5 -1q66 -1 147.5 -1h178.5q34 0 68 1.5t66 3.5v-18
q-25 -21 -70 -69t-99.5 -109t-113.5 -129t-112 -130t-93.5 -111.5t-58.5 -73.5q30 -2 55 -2.5t49 -0.5q48 0 111 1.5t125.5 4t118 6t88.5 6.5q-3 -9 -5 -17t-2 -16t2 -16t5 -16q-45 1 -83 2t-73 1.5t-68.5 1t-69.5 0.5q-49 0 -110.5 -0.5t-121 -1t-108.5 -1.5t-73 -2v17z
M523 898h46l-154 -167h-83l-154 167h46l150 -105z" />
    <glyph glyph-name="zcaron" unicode="&#x17e;" horiz-adv-x="578" 
d="M23 9q54 52 111 111t110.5 116t100 108t80.5 87q-6 0 -26.5 -0.5t-50 -1.5t-65.5 -2.5t-71.5 -3.5t-68 -3.5t-56.5 -3.5q3 13 3 28q0 12 -3 29q39 -3 117.5 -4t194.5 -1h48.5t40.5 1t37 1.5t38 2.5v-15q-34 -35 -72 -74.5t-77 -80.5t-77 -81t-71 -75.5t-59 -64t-42 -45.5
q51 0 94 0.5t87.5 2t94.5 4t116 7.5q-5 -15 -5 -28t5 -28q-78 2 -156.5 3.5t-156.5 1.5q-56 0 -110.5 -1.5t-110.5 -3.5v14zM443 726h46l-154 -167h-83l-154 167h46l150 -105z" />
    <glyph glyph-name="florin" unicode="&#x192;" horiz-adv-x="570" 
d="M31 -116q11 -5 25.5 -10.5t30.5 -5.5q25 0 41.5 8.5t27 24t17.5 37.5t13 50l79 371h-72.5t-61.5 -2q4 9 7.5 21t3.5 23q22 -2 59 -3.5t73 -1.5l15 51q10 36 30 76t49.5 73t68.5 54.5t88 21.5q8 0 20.5 -1.5t20.5 -3.5q-5 -15 -9.5 -37.5t-4.5 -44.5l-15 -4q-10 11 -27 20
t-38 9q-26 0 -46 -13.5t-30 -57.5l-30 -143q41 0 76.5 2t62.5 3q-5 -9 -9 -21t-4 -23q-26 2 -61.5 2h-73.5l-48 -219q-25 -112 -59.5 -179t-74.5 -102t-83.5 -46t-86.5 -11q8 23 12.5 42t4.5 37z" />
    <glyph glyph-name="circumflex" unicode="&#x2c6;" horiz-adv-x="431" 
d="M215 664l-149 -105h-46l154 167h83l154 -167h-46z" />
    <glyph glyph-name="caron" unicode="&#x2c7;" horiz-adv-x="428" 
d="M363 726h46l-154 -167h-83l-154 167h46l150 -105z" />
    <glyph glyph-name="breve" unicode="&#x2d8;" horiz-adv-x="417" 
d="M73 717q11 -46 41.5 -71t93.5 -25q33 0 55 6.5t37.5 18.5t25.5 30t18 41h40q0 -32 -11 -60.5t-33 -50.5t-55 -34.5t-76 -12.5q-44 0 -77 12.5t-55 34.5t-33 50.5t-11 60.5h40z" />
    <glyph glyph-name="dotaccent" unicode="&#x2d9;" horiz-adv-x="213" 
d="M41 634q0 21 19 36t45 15t45 -15t19 -36t-19 -36t-45 -15t-45 15t-19 36z" />
    <glyph glyph-name="ring" unicode="&#x2da;" horiz-adv-x="336" 
d="M39 645q0 21 10 39.5t27.5 32.5t41 22t50.5 8q26 0 49.5 -8t41 -22t27.5 -32.5t10 -39.5t-10 -39.5t-27.5 -32.5t-41 -22t-50.5 -8q-26 0 -49.5 8t-41 22t-27.5 32.5t-10 39.5zM92 645q0 -25 22 -42.5t53 -17.5q32 0 54 17.5t22 42.5t-22 42.5t-53 17.5q-32 0 -54 -17.5
t-22 -42.5z" />
    <glyph glyph-name="ogonek" unicode="&#x2db;" horiz-adv-x="263" 
d="M210 0q-36 -26 -58 -45.5t-34 -34t-16 -26t-4 -22.5q0 -17 7.5 -28t19.5 -18t27.5 -10t30.5 -3q11 0 20.5 2t18.5 4l13 -33q-26 -10 -72 -10q-28 0 -53.5 5.5t-45.5 16t-32 26.5t-12 37q0 55 140 139h50z" />
    <glyph glyph-name="tilde" unicode="&#x2dc;" horiz-adv-x="475" 
d="M31 584q4 18 13.5 36t25.5 33t38.5 24.5t52.5 9.5q11 0 20 -1t19 -3.5t22.5 -7t29.5 -11.5t29 -11.5t21.5 -7t17 -3.5t15.5 -1q29 0 46 15t25 35h36q-2 -12 -9.5 -30t-23.5 -35.5t-41 -29.5t-62 -12q-18 0 -39.5 5t-50.5 18q-33 14 -49.5 18.5t-31.5 4.5q-29 0 -42.5 -10
t-24.5 -36h-37z" />
    <glyph glyph-name="hungarumlaut" unicode="&#x2dd;" horiz-adv-x="574" 
d="M203 708q13 11 27.5 17.5t28.5 6.5q12 0 26.5 -8t14.5 -24q0 -18 -15 -28.5t-30 -18.5l-184 -94h-52zM453 708q13 11 27.5 17.5t28.5 6.5q12 0 26.5 -8t14.5 -24q0 -18 -15 -28.5t-30 -18.5l-184 -94h-52z" />
    <glyph glyph-name="endash" unicode="&#x2013;" horiz-adv-x="712" 
d="M43 254h625v-47h-625v47z" />
    <glyph glyph-name="emdash" unicode="&#x2014;" horiz-adv-x="1336" 
d="M43 254h1250v-47h-1250v47z" />
    <glyph glyph-name="quoteleft" unicode="&#x2018;" 
d="M107 448q-5 -13 -17 -25.5t-38 -12.5q-15 0 -30.5 8t-15.5 26q0 12 6 22t13 20l156 212l23 -7z" />
    <glyph glyph-name="quoteright" unicode="&#x2019;" 
d="M108 660q5 13 17.5 25.5t37.5 12.5q15 0 31 -8t16 -26q0 -12 -6 -22t-13 -20l-156 -212l-23 7z" />
    <glyph glyph-name="quotesinglbase" unicode="&#x201a;" 
d="M108 75q5 13 17.5 25.5t37.5 12.5q15 0 31 -8t16 -26q0 -12 -6 -22t-13 -20l-156 -212l-23 7z" />
    <glyph glyph-name="quotedblleft" unicode="&#x201c;" horiz-adv-x="459" 
d="M337 448q-5 -13 -17 -25.5t-38 -12.5q-15 0 -30.5 8t-15.5 26q0 12 6 22l12 20l157 212l22 -7zM122 448q-5 -13 -17 -25.5t-38 -12.5q-15 0 -30.5 8t-15.5 26q0 12 6 22l12 20l157 212l22 -7z" />
    <glyph glyph-name="quotedblright" unicode="&#x201d;" horiz-adv-x="459" 
d="M337 660q5 13 17 25.5t38 12.5q15 0 30.5 -8t15.5 -26q0 -12 -6 -22t-13 -20l-156 -212l-22 7zM122 660q5 13 17 25.5t38 12.5q15 0 30.5 -8t15.5 -26q0 -12 -6 -22t-13 -20l-156 -212l-22 7z" />
    <glyph glyph-name="quotedblbase" unicode="&#x201e;" horiz-adv-x="459" 
d="M337 75q5 13 17 25.5t38 12.5q15 0 30.5 -8t15.5 -26q0 -12 -6 -22t-13 -20l-156 -212l-22 7zM122 75q5 13 17 25.5t38 12.5q15 0 30.5 -8t15.5 -26q0 -12 -6 -22t-13 -20l-156 -212l-22 7z" />
    <glyph glyph-name="dagger" unicode="&#x2020;" horiz-adv-x="530" 
d="M222 449v64.5t-1 67.5t-3 60.5t-6 43.5q14 -2 26.5 -3.5t26.5 -1.5q24 0 52 5q-4 -16 -6 -43.5t-3 -60.5t-1 -67.5v-64.5q55 0 109 1t109 7q-6 -18 -6 -37q0 -18 6 -36q-55 6 -109 7t-109 1q0 -100 4 -198.5t6 -198.5q-28 5 -52 5q-14 0 -26.5 -1.5t-26.5 -3.5
q3 100 6.5 198.5t3.5 198.5q-54 0 -108.5 -1t-108.5 -7q6 18 6 36q0 19 -6 37q54 -6 108.5 -7t108.5 -1z" />
    <glyph glyph-name="daggerdbl" unicode="&#x2021;" horiz-adv-x="536" 
d="M229 340q0 26 -1 50.5t-1 50.5q-56 0 -110.5 -1t-108.5 -7q6 18 6 36q0 19 -6 37q54 -6 108.5 -7t108.5 -1q0 30 -1 72.5t-9 114.5q14 -2 26.5 -3.5t26.5 -1.5q24 0 52 5q-8 -72 -9 -114.5t-1 -72.5q55 0 109 1t109 7q-6 -18 -6 -37q0 -18 6 -36q-55 6 -109 7t-110 1
q0 -26 -1 -50.5t-1 -50.5t1 -50.5t1 -50.5q56 0 110 1t109 7q-6 -18 -6 -37q0 -18 6 -36q-55 6 -109 7t-109 1q0 -30 1 -72.5t9 -114.5q-28 5 -52 5q-14 0 -26.5 -1.5t-26.5 -3.5q8 72 9 114.5t1 72.5q-54 0 -108.5 -1t-108.5 -7q6 18 6 36q0 19 -6 37q54 -6 108.5 -7
t110.5 -1q0 26 1 50.5t1 50.5z" />
    <glyph glyph-name="bullet" unicode="&#x2022;" horiz-adv-x="485" 
d="M30 340q0 35 16.5 66t45.5 54t68 36.5t83 13.5t82.5 -13.5t67.5 -36.5t45.5 -54t16.5 -66t-16.5 -66t-45.5 -54t-67.5 -36.5t-82.5 -13.5t-83 13.5t-68 36.5t-45.5 54t-16.5 66z" />
    <glyph glyph-name="ellipsis" unicode="&#x2026;" horiz-adv-x="1057" 
d="M41 45q0 23 21.5 40t50.5 17t50 -17t21 -40t-21 -40t-50 -17t-50.5 17t-21.5 40zM458 45q0 23 21 40t50 17t50 -17t21 -40t-21 -40t-50 -17t-50 17t-21 40zM874 45q0 23 21 40t50 17t50 -17t21 -40t-21 -40t-50 -17t-50 17t-21 40z" />
    <glyph glyph-name="perthousand" unicode="&#x2030;" horiz-adv-x="1214" 
d="M444 144q0 46 16.5 77t42 49.5t56.5 26t60 7.5t60 -7.5t56.5 -26t42 -49.5t16.5 -77t-16.5 -77t-42 -49.5t-56.5 -26t-60 -7.5t-60 7.5t-56.5 26t-42 49.5t-16.5 77zM529 144q0 -30 4 -55t14.5 -43t28 -28t43.5 -10t43.5 10t28 28t14.5 43t4 55t-4 55t-14.5 43t-28 28
t-43.5 10t-43.5 -10t-28 -28t-14.5 -43t-4 -55zM849 144q0 46 16.5 77t42 49.5t56.5 26t60 7.5t60 -7.5t56.5 -26t42 -49.5t16.5 -77t-16.5 -77t-42 -49.5t-56.5 -26t-60 -7.5t-60 7.5t-56.5 26t-42 49.5t-16.5 77zM934 144q0 -30 4 -55t14.5 -43t28 -28t43.5 -10t43.5 10
t28 28t14.5 43t4 55t-4 55t-14.5 43t-28 28t-43.5 10t-43.5 -10t-28 -28t-14.5 -43t-4 -55zM31 512q0 46 16.5 77t42 49.5t56.5 26t60 7.5t60 -7.5t56.5 -26t42 -49.5t16.5 -77t-16.5 -77t-42 -49.5t-56.5 -26t-60 -7.5t-60 7.5t-56.5 26t-42 49.5t-16.5 77zM116 512
q0 -30 4 -55t14.5 -43t28 -28t43.5 -10t43.5 10t28 28t14.5 43t4 55t-4 55t-14.5 43t-28 28t-43.5 10t-43.5 -10t-28 -28t-14.5 -43t-4 -55zM626 695q17 -5 30 -5q12 0 29 5l-485 -734q-17 5 -29 5q-13 0 -30 -5z" />
    <glyph glyph-name="guilsinglleft" unicode="&#x2039;" horiz-adv-x="237" 
d="M162 419q7 -10 19 -17.5t27 -9.5l-138 -159l132 -166q-15 -2 -28.5 -9.5t-18.5 -16.5l-150 191z" />
    <glyph glyph-name="guilsinglright" unicode="&#x203a;" horiz-adv-x="235" 
d="M33 397q15 2 28.5 9.5t18.5 16.5l150 -191l-157 -187q-7 10 -19 17.5t-27 9.5l138 159z" />
    <glyph glyph-name="fraction" unicode="&#x2044;" horiz-adv-x="409" 
d="M349 684q8 -2 14.5 -3.5t14.5 -1.5t14 1.5l14 3.5l-346 -712q-8 2 -14.5 3.5t-14.5 1.5t-14 -1.5l-14 -3.5z" />
    <glyph glyph-name="Euro" unicode="&#x20ac;" horiz-adv-x="709" 
d="M675 622q-10 -20 -17 -39.5t-12 -39.5l-19 -1q-15 21 -35.5 37t-44 27t-48 17t-47.5 6q-40 0 -76.5 -13.5t-65.5 -41.5t-50.5 -70t-31.5 -99h208q35 0 70 0.5t64 5.5q-6 -10 -12 -28t-8 -29q-26 4 -59 5t-63 1h-205q-1 -13 -1.5 -26.5t-0.5 -27.5v-8h177q35 0 70 0.5
t64 5.5q-5 -10 -11 -28t-9 -29q-26 4 -58.5 5t-62.5 1h-166q7 -53 27 -94t50 -69.5t68.5 -43.5t80.5 -15q50 0 99.5 19.5t94.5 57.5l10 -12q-8 -29 -12 -58q-15 -11 -39.5 -20.5t-53 -16t-59.5 -10.5t-59 -4q-63 0 -118 18t-97 52t-69.5 83.5t-37.5 112.5q-65 -2 -93 -6
q7 14 11.5 28.5t7.5 28.5q19 -3 69 -5v20q0 11 0.5 21t1.5 20q-62 -2 -90 -6q7 14 11.5 28.5t7.5 28.5q9 -2 29.5 -3t49.5 -2q14 57 45 105.5t75.5 84t100.5 56t120 20.5q27 0 56.5 -4t58.5 -10.5t55.5 -16t48.5 -19.5z" />
    <glyph glyph-name="trademark" unicode="&#x2122;" horiz-adv-x="1071" 
d="M802 460q41 57 81 115t78 116h10l15 -127q4 -34 9.5 -72t12 -76.5t12.5 -74.5t12 -66q-18 5 -35 5q-9 0 -17.5 -1.5t-18.5 -3.5q-2 41 -5.5 90t-13.5 109l-17 108h-3l-52 -76q-20 -28 -41 -59.5t-40 -61.5t-34.5 -57t-25.5 -46h-10q-28 50 -63 101t-69 103l-60 91h-2
l-16 -111q-8 -48 -12.5 -95.5t-5.5 -95.5q-17 5 -29 5q-13 0 -30 -5q17 61 30 130.5t25 141.5l24 144h13q32 -57 68.5 -113.5t78.5 -115.5l65 -92h3zM189 653q-41 0 -81 -1.5t-81 -3.5q7 10 7 19q0 7 -7 18q49 -2 97 -3.5t97 -1.5t97 1.5t97 3.5q-6 -9 -6 -18q0 -10 6 -19
q-41 2 -81 3.5t-80 1.5v-141q0 -60 2 -118.5t4 -118.5q-22 5 -39 5t-39 -5q2 40 4.5 94t2.5 135v149z" />
    <glyph glyph-name="minus" unicode="&#x2212;" horiz-adv-x="719" 
d="M43 279h632v-52h-632v52z" />
    <glyph glyph-name="fi" unicode="&#xfb01;" horiz-adv-x="618" 
d="M473 286q0 45 -2 94.5t-8 92.5q14 -2 28.5 -3.5t28.5 -1.5t28 1.5t28 3.5q-6 -43 -8 -92.5t-2 -94.5v-104q0 -45 2 -94.5t8 -92.5q-14 2 -28 3.5t-28 1.5t-28.5 -1.5t-28.5 -3.5q6 43 8 92.5t2 94.5v104zM456 647q0 21 19 36t45 15t44.5 -15t18.5 -36t-18.5 -36
t-44.5 -15t-45 15t-19 36zM358 669q-30 15 -68 15q-28 0 -47.5 -8.5t-32 -22t-18 -32t-5.5 -37.5q0 -18 5 -52t10 -65q32 0 64.5 0.5t64.5 0.5l-2 -10t-1 -10t1 -10l2 -10q-32 1 -64.5 2t-64.5 1q0 -109 0.5 -217t4.5 -219q-28 5 -54 5q-13 0 -27 -1.5t-28 -3.5
q9 111 10.5 218.5t1.5 217.5q-23 0 -45 -1t-45 -2q1 5 1.5 10t0.5 10t-0.5 10t-1.5 10q23 0 45.5 -0.5t44.5 -0.5q0 29 7.5 63t21.5 67t34 62.5t45 49.5q23 18 57.5 32t70.5 14q13 0 25 -3q-1 -20 -3 -40t-2 -40z" />
    <glyph glyph-name="fl" unicode="&#xfb02;" horiz-adv-x="625" 
d="M481 464q0 34 -0.5 74t-2 79t-3 74.5t-4.5 60.5q14 -2 28 -3.5t28 -1.5t28 1.5t28 3.5q-3 -25 -4.5 -60.5t-3 -74.5t-2 -79t-0.5 -74v-181q0 -35 0.5 -74.5t2 -78.5t3 -74.5t4.5 -60.5q-14 2 -28 3.5t-28 1.5t-28 -1.5t-28 -3.5q3 25 4.5 60.5t3 74.5t2 78.5t0.5 74.5
v181zM358 669q-30 15 -68 15q-28 0 -47.5 -8.5t-32 -22t-18 -32t-5.5 -37.5q0 -18 5 -52t10 -65q32 0 64.5 0.5t64.5 0.5l-2 -10t-1 -10t1 -10l2 -10q-32 1 -64.5 2t-64.5 1q0 -109 0.5 -217t4.5 -219q-28 5 -54 5q-13 0 -27 -1.5t-28 -3.5q9 111 10.5 218.5t1.5 217.5
q-23 0 -45 -1t-45 -2q1 5 1.5 10t0.5 10t-0.5 10t-1.5 10q23 0 45.5 -0.5t44.5 -0.5q0 29 7.5 63t21.5 67t34 62.5t45 49.5q23 18 57.5 32t70.5 14q13 0 25 -3q-1 -20 -3 -40t-2 -40z" />
    <glyph glyph-name="glyph229" horiz-adv-x="720" 
d="M343 162q0 -2 -1.5 -6t-1.5 -5v-7h-4v10q4 4 7 8zM288 144q4 7 4 18h15q-7 0 -7 -8q0 -25 3 -32h4q2 5 7 14h4v-14h-11q-1 0 -2.5 1t-2.5 3t-2 3h-8q0 1 -2 6t-2 9zM374 110v15q3 0 5 1.5t3 2.5v-13q2 -1 4 -2.5t6 -3.5l1 -16q-6 7 -19 16zM89 627q24 7 64 7q25 0 37 -7
q10 -7 34 -7q19 9 22 18q29 0 33 24l9 4q2 3 7 5q5 0 5 2q5 2 7.5 6.5t10.5 4.5q1 3 7 6q7 2 7 5q32 0 32 18q8 0 13 6q4 7 12 7q1 2 9.5 5t8.5 6q7 0 10 3q12 8 16 8l9 4q7 2 7 7q11 0 22 4q11 3 19 3q0 4 7 8q7 2 8 3l89 19l42 -4l15 -8q7 -3 11 -7q10 -7 31 -18l7 -42
q-42 0 -42 5q-5 0 -14 4t-11 4q0 4 -1.5 5.5t-6.5 4.5h-68q-3 -3 -7 -10q-7 0 -21 -4t-21 -4q-13 -9 -18.5 -9t-14.5 -3q-4 0 -8 -6l-6 -6q-10 -3 -8 -3h-4q-1 -3 -8.5 -5l-7.5 -2q-3 0 -5.5 -2t-6.5 -5t-6 -5q-11 0 -15 -10q-5 0 -6 -2.5t-1 -9.5q-6 0 -13.5 -3.5t-8 -3.5
t-6.5 -4.5t-14 -4.5q-2 -1 -7 -2t-8 -6q-2 -1 -4 -4q-2 -5 -3 -6q-11 0 -11 -8q-4 0 -7 -1.5t-6 -4.5l-5 -5q-15 0 -15 -11q-5 0 -13 -7v-11q-4 -3 -6.5 -4t-4.5 -5v-15q6 -7 11 -7v-48q-6 0 -11 -9v-11q-2 -2 -4 -3q-3 -2 -7 -4v-22q-6 -3 -7 -4.5t-1 -10.5q0 -11 -3 -11
l-7 -7q-9 -4 -10.5 -6t-1.5 -10q-9 -4 -15 -8t-8 -11q-11 -11 -44 -11q-17 11 -35 11q-2 3 -7 11h-15q-3 0 -9 4q-7 4 -13 4q0 11 -11 16q0 7 -4 11q-10 0 -21 -1l-11 -1q-4 0 -11 7q-3 2 -6 2v55q2 3 5 5l6 4l4 83q1 0 2.5 1t2.5 3t2 3v15q5 2 6 6t5 4q0 1 10 4.5t10 7.5
q21 7 26 7zM385 132q-4 5 -7 7q-4 1 -15 1v18q6 -6 18 -14q0 -8 4 -12zM400 132q3 -3 3 -7q-3 3 -10 7h7zM403 125h7q5 2 12 10q6 9 10 9q-1 -4 -3.5 -6t-6.5 -6v-14l6 -4t4 -4q-4 0 -10 -7v-13l7 -7h17q1 -6 4 -10q2 -6 18 -12q3 11 3 22q-9 11 -22 11v31q3 0 11 7l-6 6
q-3 2 -5 6q2 -1 12 -5q6 -2 17 -5q6 -2 19 -2v-22q3 -2 6.5 -3.5t4.5 -3.5q0 -16 4 -20h9q3 3 3 14v6q9 0 13 1.5t9 5.5q-7 8 -11 8v14q3 0 11 8v26q-3 2 -6 3.5t-5 5.5q0 8 -1.5 10t-9.5 5q7 0 12.5 5t6.5 5v-10q0 -8 7 -8q3 -10 4 -11.5t7 -4.5q0 -15 8 -22h3q2 2 4 8t3 6
q20 7 20 24q5 0 18 8v-58h-7q-3 -3 -3 -14q-4 -1 -14 -8q10 -7 32 -7q0 -5 -2 -6.5t-5 -6.5v-36q-4 2 -5.5 3.5t-2 3.5t-3.5 7h-20q0 -2 -2 -6q-2 -6 -2 -8q-4 0 -11 -8q7 0 11 -3v-7q-2 -2 -5 -3.5t-6 -4.5v-16q-19 0 -22 -8v-7l1 -1q0 1 -4 1q0 3 -2 8t-2 7q-18 0 -23 -8
v-7q11 -11 22 -11v-7h-7q-12 -5 -21 -7q-4 -1 -10 -1v15q7 0 7 7q0 35 -3 43h-3q-8 -8 -8 -39q-7 0 -11 -4v-14h-26l-4 -8v-38q-10 0 -24 -4q9 -7 14 -7v-18q-6 2 -6 6q0 3 -7 5h-4q-5 -2 -6 -5q-2 -4 -5 -6v18q3 0 11 7q0 57 -7 64h-4q-1 -1 -3 -2l-1 -1l4 3q-4 4 -11 4
q0 31 -7 39h-4q-6 -3 -5 -21q1 -34 1 -31v-55q0 -1 4 -3t4 -4v-7q0 -1 -3.5 -4.5t-3.5 -6.5h-29v25q0 2 -1 3l-4 2q-2 1 -5 3q-2 7 -7 16h-4q-7 -7 -7 -24q3 -2 7 -3l4 -4v-7q-5 -4 -15 -11q3 0 11 11v7q0 7 -18 7q-15 0 -18 -7v-11q0 4 -7 4q0 10 -5 15q-5 4 -16 7v16l-7 4
h-15v14q-6 8 -11 8q-4 12 -22 18v31q11 3 11 15q2 0 5.5 1.5t5.5 1.5q0 19 -4 22h-7q-3 -3 -3 -14q-5 0 -19 -8v44q4 0 7 2t4 2v38h18v-14q-5 0 -7 -4q-2 -2 -3 -4q29 0 36 8v7l-4 4l4 -4h17q0 -31 3 -35h-9l-7 -7v-15q-6 -2 -7 -3.5t-4 -10.5q-4 0 -11 -8h35v-10
q-9 -4 -13 -8q0 -11 7 -24q10 4 21 17v22h7q1 -12 3 -31h8q4 3 4 16q18 0 21 8v7l-7 7l7 4v14q3 -2 8 -3.5t7 -3.5q0 -8 1 -9.5t5 -8.5q27 0 32 11v9h-1q1 -2 5 -2q6 8 6.5 11t0.5 11q3 0 11 7v20q-7 8 -11 8q0 2 -2 4t-2 3zM617 129q2 -1 3 -2l1 -2h8q0 -3 -4 -7h-3
q-5 4 -5 11zM629 125q0 4 3 7q0 -2 -1 -3q-2 -3 -2 -4zM632 132v50q4 0 11 8v10h15l4 8v22h7v-90q-1 -2 -5 -3q-3 -2 -6 -5v-14l-14 -8q0 19 -8 22h-4zM456 -67q2 -1 3 -2l1 -2v3q-1 1 -4 1zM460 -71q4 -1 9 -8l6 -6q0 7 -7 14h-8zM468 -67q3 9 3 31h15q2 -2 3 -4q0 -4 4 -6
q2 -1 4 -1q-2 -2 -5 -3.5t-6 -3.5v-9q0 -5 -3 -5q-3 1 -6 1h-9zM414 -10q-1 -5 -1 -15v-12q0 -20 -2 -26h-4v49q3 0 7 4zM307 -89l3 -4q0 3 -1 4h-2zM310 -93q4 0 8 -3q-8 0 -8 3zM264 129q-3 0 -7 3v12l-7 7h-15v15q11 0 11 9v7q-1 3 -5.5 5t-5.5 3v10q-6 8 -11 8
q3 0 7 2.5t4 4.5v7q0 3 -4 4q-5 2 -7 4v34h8v-16l3 -7h15v-33q-8 0 -8 -8v-7q0 -3 8 -3v-24q2 -1 6 -4t5 -4v-26zM296 90q4 4 4 20h13q-2 -1 -3.5 -3t-2.5 -4v-31q-1 1 -3 2.5t-4 1.5q0 7 -4 14zM307 72l4.5 -2t6.5 -2h-8q-1 1 -1 2zM318 68q1 7 7 15v-15h-7zM531 237
q2 -2 3 -4l4 -2q2 -1 4 -1l1 -15h-18q0 8 -1.5 10t-11.5 5q0 34 -4 42h-3q-4 -2 -5 -8q-2 -6 -3 -7h-4v15h15q1 6 4 14h9v-14q8 -8 11 -8zM511 305q0 7 -6 7q-8 -7 -12 -7v14h15q0 -3 1.5 -8t1.5 -6zM300 290h-12q0 -2 -1.5 -6t-1.5 -5q-27 -7 -28 -7v25h15l7 8v14
q27 0 31 20q18 5 22 22h15q0 -29 7 -34h4q6 5 6 20q7 4 10 7v15q9 -8 11 -8h8q-1 0 7 8q0 -18 7 -22h4l3.5 7l3.5 7h15q1 -5 4 -11q1 -1 9 -3q-14 0 -14 -8v-7q4 -5 36 -5v-15h-39q-2 2 -3 8q-3 6 -4 7h-4q-2 -5 -7 -15h-4q-2 3 -7 15h-15q0 -6 -3 -15h-8q0 4 -3 15h-28
q-2 -6 -7 -15q-10 0 -20 -8z" />
    </font>
</defs>
</svg>
