<?xml version="1.0" standalone="no"?>
<!DOCTYPE svg PUBLIC "-//W3C//DTD SVG 1.1//EN" "http://www.w3.org/Graphics/SVG/1.1/DTD/svg11.dtd" >
<svg xmlns="http://www.w3.org/2000/svg" xmlns:xlink="http://www.w3.org/1999/xlink" version="1.1">
<metadata>
Created by FontForge 20170731 at Mon Apr 12 07:35:30 2004
 By Aleksey,,,
Copyright (c) LDO Fonts, 2004. All rights reserved.
</metadata>
<defs>
<font id="OregonLDODemiBold-Oblique" horiz-adv-x="176" >
  <font-face 
    font-family="Oregon LDO DemiBold"
    font-weight="600"
    font-style="oblique"
    font-stretch="normal"
    units-per-em="1000"
    panose-1="2 11 7 3 6 4 2 2 2 4"
    ascent="800"
    descent="-200"
    x-height="480"
    cap-height="687"
    bbox="-94 -296 1079 913"
    underline-thickness="50"
    underline-position="-150"
    slope="-12"
    unicode-range="U+0020-FB02"
  />
<missing-glyph horiz-adv-x="278" 
 />
    <glyph glyph-name=".notdef" horiz-adv-x="278" 
 />
    <glyph glyph-name=".null" horiz-adv-x="0" 
 />
    <glyph glyph-name="nonmarkingreturn" horiz-adv-x="278" 
 />
    <glyph glyph-name="space" unicode=" " horiz-adv-x="278" 
 />
    <glyph glyph-name="space" unicode="&#xa0;" horiz-adv-x="278" 
 />
    <glyph glyph-name="exclam" unicode="!" horiz-adv-x="174" 
d="M30 166q2 19 7 58.5t11 88t12.5 101.5t13 99.5t11 81t7.5 46.5q7 31 27 44t42 13t37 -13t8 -44q-1 -6 -8 -31t-18.5 -62.5t-25.5 -85t-29 -98t-30.5 -102t-28.5 -96.5h-36zM-40 53q3 13 10.5 25t18 21t23.5 14.5t26 5.5q26 0 41 -20t10 -46q-6 -26 -29.5 -45.5
t-49.5 -19.5t-41 19.5t-9 45.5z" />
    <glyph glyph-name="quotedbl" unicode="&#x22;" horiz-adv-x="289" 
d="M67 698h70l-63 -299h-70zM212 698h70l-63 -299h-70z" />
    <glyph glyph-name="numbersign" unicode="#" horiz-adv-x="442" 
d="M158 420h-77q14 20 28 50t18 49h73q18 45 29 71t17 40t8 21t3 13q21 -7 29 -7q5 0 40 9q-8 -11 -13.5 -19.5t-12.5 -23.5t-17.5 -39t-27.5 -65h91q24 60 36 87.5t17 40.5l-1 -1q1 1 3 9t2 9q21 -7 29 -7q4 0 13 2t27 7q-8 -11 -13.5 -19.5t-12.5 -23.5t-17.5 -39
t-27.5 -65h74q-6 -10 -13 -23t-13.5 -27t-11.5 -27t-7 -22h-72q-20 -49 -38 -91t-38 -92h75q-6 -10 -13 -23t-13.5 -27t-11.5 -27t-7 -22h-72q-14 -36 -24 -60t-17 -40.5t-10.5 -25.5t-5.5 -15q-11 0 -18.5 1.5t-10.5 1.5q-4 0 -13.5 -1.5t-20.5 -1.5q5 8 9 15.5t10.5 22
t16.5 38.5t28 65h-90q-14 -36 -24 -60t-17 -40.5t-10.5 -25.5t-5.5 -15q-10 0 -18 1.5t-11 1.5q-4 0 -13 -1.5t-20 -1.5q5 8 9 15.5t10.5 22t16.5 38.5t27 65h-74q14 20 27 50t18 49h73zM304 420h-92q-20 -49 -38 -91t-38 -92h91z" />
    <glyph glyph-name="dollar" unicode="$" horiz-adv-x="442" 
d="M194 298q-39 17 -67.5 35t-45 39.5t-21.5 49t3 64.5q7 36 26 66.5t46.5 54.5t62.5 40.5t75 22.5q4 16 5 35t-1 47q25 -10 38 -10q7 0 17.5 2.5t25.5 7.5q-14 -27 -20 -45.5t-9 -33.5q30 -1 52.5 -6t39 -12.5t28.5 -16.5t21 -17q-15 -19 -26.5 -39.5t-23.5 -50.5h-27
q-2 12 -6.5 25.5t-13.5 26t-22.5 21.5t-33.5 12l-49 -231q39 -17 68 -33.5t47 -37.5t23.5 -47.5t-1.5 -62.5q-8 -38 -26.5 -72t-47 -62.5t-65.5 -48.5t-82 -29q-5 -25 -9 -51t-5 -64q-11 4 -19.5 6.5t-16.5 2.5t-18 -2.5t-22 -6.5q11 27 19.5 55.5t13.5 51.5h-17
q-47 0 -86 14.5t-72 46.5q16 25 24 45t18 50h26q9 -29 22.5 -48t29 -30.5t33 -16t34.5 -5.5zM196 49q42 13 70 46t37 74q3 14 3 27t-5.5 26t-19 26.5t-37.5 27.5zM261 613q-35 -9 -61.5 -36t-34.5 -65q-16 -74 52 -107z" />
    <glyph glyph-name="percent" unicode="%" horiz-adv-x="851" 
d="M60 502q8 37 26.5 68t45.5 54t60.5 36t71.5 13q37 0 65 -13t45 -36t22 -54t-3 -68t-26.5 -68.5t-45 -54t-60 -35.5t-70.5 -13q-38 0 -66 13t-45 35.5t-22.5 54t2.5 68.5zM457 156q8 37 26.5 68t45 54t59.5 36t71 13q37 0 65.5 -13t45.5 -36t22.5 -54t-2.5 -68
t-26.5 -68.5t-45.5 -54.5t-61 -36t-71 -13q-38 0 -65.5 13t-44.5 36t-22 54.5t3 68.5zM656 697q17 -7 26 -7q5 0 17 3.5t29 9.5l-537 -743q-8 3 -14 5t-11 2q-10 0 -47 -13zM152 502q-5 -25 -5.5 -48.5t5 -41.5t17 -28.5t31.5 -10.5q19 0 35.5 10.5t29.5 28.5t22.5 41.5
t14.5 48.5q6 25 6.5 48t-5 41t-17.5 28.5t-31 10.5q-20 0 -36 -10.5t-29 -28.5t-22.5 -41t-15.5 -48zM548 156q-6 -26 -6 -49t5.5 -41t17.5 -28.5t31 -10.5t35.5 10.5t29.5 28.5t22 41t15 49q5 25 5.5 48t-5 41t-17.5 28.5t-31 10.5t-35.5 -10.5t-29.5 -28.5t-22.5 -41
t-14.5 -48z" />
    <glyph glyph-name="ampersand" unicode="&#x26;" horiz-adv-x="641" 
d="M175 517q7 33 25 61.5t43.5 49.5t57.5 33t67 12q61 0 93.5 -30t20.5 -89q-6 -28 -23.5 -53.5t-40.5 -47.5t-50 -40.5t-51 -31.5q2 -5 4.5 -9.5t5.5 -9.5q26 -48 51.5 -91t52.5 -83q44 47 82 94t77 105q6 -23 16 -36.5t21 -21.5q-42 -51 -83.5 -96.5t-86.5 -87.5
q23 -35 51 -75.5t51 -74.5q-22 0 -28.5 0.5t-10.5 1.5h1q-11 2 -22.5 2.5t-22.5 0.5q-10 0 -21.5 -1t-23.5 -3q-3 0 -9 -0.5t-9 -0.5q-5 14 -15 35.5t-24 42.5q-53 -42 -106 -66.5t-123 -24.5q-39 0 -72 11t-55 33t-30.5 55t0.5 76q7 32 26.5 63t48 59t65 51t76.5 39
q-18 40 -27.5 76t-1.5 72zM90 174q-5 -24 0 -47t18.5 -40.5t36 -28t51.5 -10.5q44 0 80.5 16t73.5 45q-34 56 -65.5 108.5t-60.5 111.5q-52 -29 -87.5 -65t-46.5 -90zM412 555q7 31 -7 51t-46 20q-34 0 -58.5 -23.5t-31.5 -58.5q-6 -26 1.5 -61t24.5 -66q51 29 80 66t37 72z
" />
    <glyph glyph-name="quotesingle" unicode="'" horiz-adv-x="144" 
d="M65 698h70l-63 -299h-70z" />
    <glyph glyph-name="parenleft" unicode="(" horiz-adv-x="215" 
d="M286 672q-47 -48 -80 -94t-56 -93t-38 -97t-27 -105q-12 -56 -18 -105.5t-3 -97t16.5 -93t40.5 -93.5l-39 -30q-63 89 -82 197t5 222q11 54 33.5 110t55 110t74.5 104.5t92 94.5z" />
    <glyph glyph-name="parenright" unicode=")" horiz-adv-x="215" 
d="M-72 -106q47 48 79.5 93.5t55.5 93t38.5 97t27.5 105.5q12 55 17.5 105t2.5 97t-16.5 93t-40.5 94l39 30q63 -89 82.5 -197t-4.5 -222q-12 -54 -34.5 -110t-55 -110t-74 -104.5t-91.5 -94.5z" />
    <glyph glyph-name="asterisk" unicode="*" horiz-adv-x="366" 
d="M183 688q13 -5 21.5 -6t16.5 -1t17 1t23 6l-45 -144q33 22 69.5 45t66.5 42q-2 -21 5 -40t21 -30l-147 -61q26 -15 60 -31.5t59 -30.5q-15 -10 -30 -27.5t-23 -39.5l-100 82q-5 -34 -9.5 -71.5t-7.5 -68.5q-11 2 -19.5 4.5t-16.5 2.5q-5 0 -16 -2.5t-24 -4.5l43 141
q-32 -20 -68 -43t-65 -42q2 23 -5.5 40.5t-19.5 28.5l144 62q-29 14 -61.5 30t-60.5 30q15 11 31.5 30t21.5 42l102 -88z" />
    <glyph glyph-name="plus" unicode="+" horiz-adv-x="512" 
d="M7 291h221l47 220h70l-47 -220h221l-15 -70h-221l-47 -221h-70l47 221h-220z" />
    <glyph glyph-name="comma" unicode="," 
d="M101 86q8 14 23.5 28.5t39.5 14.5q14 0 27 -10t9 -32q-3 -12 -9.5 -22.5t-13.5 -20.5q-2 -1 -2.5 -2t-2.5 -3l3 2q-42 -51 -86 -106.5t-85 -106.5l-32 13z" />
    <glyph glyph-name="hyphen" unicode="-" horiz-adv-x="336" 
d="M45 274h261l-17 -80h-261z" />
    <glyph glyph-name="period" unicode="." 
d="M22 53q3 13 10.5 25t18.5 21t24 14.5t26 5.5q26 0 41 -20t10 -46q-6 -26 -29.5 -45.5t-49.5 -19.5t-41.5 19.5t-9.5 45.5z" />
    <glyph glyph-name="slash" unicode="/" horiz-adv-x="334" 
d="M347 705q9 -3 16 -5t14 -2q8 0 18 2.5t25 7.5l-433 -732q-18 6 -30 6q-15 0 -43 -9z" />
    <glyph glyph-name="zero" unicode="0" horiz-adv-x="534" 
d="M30 329q15 70 40.5 132.5t63.5 109.5t89 74.5t117 27.5q73 0 113 -27.5t56.5 -74.5t13 -109.5t-18.5 -132.5q-15 -68 -42 -130.5t-66.5 -110t-90.5 -76t-112 -28.5q-72 0 -112 27.5t-56.5 74.5t-13 109.5t18.5 133.5zM129 329q-14 -63 -18.5 -116.5t3.5 -93t29.5 -62
t60.5 -22.5t70 22.5t55.5 62t43 93t32.5 116.5q13 62 17.5 115.5t-3.5 93t-29.5 62t-60.5 22.5t-70 -21t-55 -59t-42.5 -92t-32.5 -121z" />
    <glyph glyph-name="one" unicode="1" horiz-adv-x="278" 
d="M189 583q-29 -14 -61 -30l-60 -30q-5 13 -12 23t-15 17l4 18q63 23 129 51t123 54l15 -9q-17 -64 -32.5 -130t-29.5 -130l-34 -162q-14 -63 -25.5 -131t-22.5 -131q-15 3 -28.5 5t-26.5 2q-12 0 -26 -2t-31 -5q17 63 33.5 131t30.5 131z" />
    <glyph glyph-name="two" unicode="2" horiz-adv-x="480" 
d="M110 567q46 55 97.5 80.5t115.5 25.5q40 0 73.5 -10.5t55 -33t29 -56.5t-2.5 -82q-7 -34 -21 -63.5t-36 -57.5t-51.5 -56.5t-67.5 -60.5q-8 -7 -17 -14.5t-18 -15.5q-19 -16 -41.5 -34.5t-45 -38t-43.5 -38t-36 -33.5h73q70 0 131 3t102 5q-7 -14 -11.5 -26t-6.5 -20
q-3 -19 -2 -47q-51 2 -109 4t-110 2q-53 0 -110 -1.5t-109 -3.5l6 28q82 67 142.5 118.5t104 92t72.5 73t47.5 61.5t29 57t17.5 61q14 68 -8 99.5t-63 31.5q-29 0 -51.5 -11t-40 -27.5t-29 -34.5t-17.5 -33l-20 -2z" />
    <glyph glyph-name="three" unicode="3" horiz-adv-x="459" 
d="M114 608q13 11 30.5 22.5t38.5 21t45.5 15.5t52.5 6q40 0 74 -9t56.5 -28t32 -48.5t0.5 -69.5q-7 -32 -22 -57.5t-34.5 -45.5t-42.5 -34.5t-45 -23.5q23 -5 46 -15t39.5 -28.5t23.5 -46.5t-2 -67q-10 -46 -37 -85.5t-67 -68.5t-91 -45.5t-109 -16.5q-52 0 -87 12.5
t-62 26.5q7 11 16 31.5t13 37.5l20 11q7 -11 17.5 -22.5t24.5 -22t32 -17t39 -6.5q34 0 64 11t53 31.5t39.5 48.5t23.5 62q8 37 4 63t-17.5 42t-35.5 23t-50 7q-9 0 -25.5 -3t-32.5 -7q4 11 7 20t5 14q2 10 2 32q16 -2 30 -4t25 -2q31 0 53.5 13.5t38 33.5t24.5 44.5
t14 47.5q6 29 2 49.5t-14.5 34t-26 20t-32.5 6.5q-37 0 -69.5 -24t-49.5 -54l-20 -2z" />
    <glyph glyph-name="four" unicode="4" horiz-adv-x="508" 
d="M-26 204q55 60 116.5 126.5t119 129.5t106 118t79.5 91q11 -3 20.5 -5t15.5 -2q7 0 18.5 2.5t25.5 6.5q-11 -42 -23.5 -93.5t-25.5 -107t-25.5 -111.5t-23.5 -108q26 0 52.5 3t49.5 8q-7 -15 -12 -26t-7 -19t-1.5 -19t1.5 -26q-44 9 -97 9l-7 -31q-7 -33 -12.5 -68.5
t-10.5 -61.5q-1 -4 -2 -13.5t-2 -13.5q-15 3 -28 5t-24 2q-9 0 -22.5 -2t-32.5 -6q4 14 9.5 33.5t11.5 41t11.5 43.5t9.5 40l7 31q-27 0 -70.5 -1t-89 -2t-85.5 -2t-59 -2zM344 538q-28 -30 -64 -69.5l-72 -79t-68.5 -76.5t-53.5 -62h199z" />
    <glyph glyph-name="five" unicode="5" horiz-adv-x="461" 
d="M156 390q20 8 42.5 13t60.5 5q45 0 77.5 -15.5t52.5 -42t26.5 -61t-1.5 -73.5q-10 -48 -37.5 -90.5t-67.5 -74t-90 -49.5t-106 -18q-44 0 -83.5 10t-70.5 34l3 15q8 12 15.5 30.5t12.5 33.5h21q11 -36 45.5 -54t71.5 -18q27 0 54 10t51 31t42.5 53t27.5 76q8 39 3.5 66
t-18.5 44t-35 25t-45 8q-19 0 -36.5 -4t-31.5 -10t-24.5 -11.5t-15.5 -8.5l-19 14q17 42 28 84.5t19 84.5q8 38 16 82.5t10 82.5l21 12q10 -2 24 -3.5t31 -3.5q20 -2 50 -2.5t68 -0.5q45 0 83.5 0.5t56.5 1.5l10 -12q-8 -16 -13 -30.5t-7 -25.5q-2 -5 -2 -10t-1 -19
q-24 4 -60 7t-73.5 4.5t-72.5 2.5t-59 1z" />
    <glyph glyph-name="six" unicode="6" horiz-adv-x="491" 
d="M455 627l-18 -14q-12 4 -24.5 6.5t-25.5 2.5q-49 0 -90.5 -28t-74.5 -71t-57 -93t-36 -94q29 27 68.5 48.5t92.5 21.5q27 0 60 -8t59.5 -29.5t40 -59t1.5 -95.5q-11 -51 -36 -93.5t-61 -72.5t-81.5 -47t-96.5 -17q-44 0 -81 15.5t-60.5 50t-30.5 90t10 134.5q0 2 1 3
q17 81 51.5 153t83.5 126t110 85.5t132 31.5h6q17 0 27 -1t19 -3zM342 193q15 70 -4 114t-77 44q-26 0 -51.5 -11.5t-47 -32.5t-37.5 -50t-23 -64q-8 -35 -5 -64t15 -50t31 -32.5t45 -11.5q57 0 98 44t56 114z" />
    <glyph glyph-name="seven" unicode="7" horiz-adv-x="464" 
d="M529 630q-59 -74 -121.5 -153.5t-125 -160.5t-123.5 -163t-118 -160q-12 3 -22 5t-19 2q-14 0 -58 -11q41 49 85 103t88.5 108.5t88 108t82.5 102t71.5 89.5t55.5 71q-48 0 -134 -2t-202 -9q5 15 10 30.5t7 23.5t3 23t3 31q39 -3 76.5 -5.5t64.5 -3.5q16 0 40 -0.5
t49.5 -1t50.5 -0.5h43q15 0 29 0.5t26 0.5h56z" />
    <glyph glyph-name="eight" unicode="8" horiz-adv-x="505" 
d="M-5 184q11 59 51.5 108t118.5 77q-17 7 -31.5 19.5t-25 30t-14 40t2.5 49.5q7 33 27 62.5t50 52.5t68.5 36.5t82.5 13.5q51 0 85 -13t53 -34t24.5 -48.5t-0.5 -57.5q-9 -44 -42 -84t-84 -61q18 -6 38 -17.5t35 -31.5t21.5 -49.5t-2.5 -70.5q-11 -50 -37.5 -91t-64 -70
t-82 -45t-91.5 -16q-48 0 -86.5 13.5t-63 39t-34 62.5t0.5 85zM344 189q14 67 -9.5 110t-80.5 43q-28 0 -53 -11.5t-45 -31.5t-34.5 -48.5t-21.5 -61.5q-14 -68 9 -111t80 -43q28 0 53 11.5t45.5 32t35 48.5t21.5 62zM386 507q5 24 4 44.5t-9.5 36.5t-24.5 25t-41 9
t-44.5 -9t-34.5 -25t-24.5 -36.5t-14.5 -44.5q-5 -23 -4.5 -44t9 -36.5t24 -24.5t40.5 -9t45 9t35 24.5t25 36.5t15 44z" />
    <glyph glyph-name="nine" unicode="9" horiz-adv-x="498" 
d="M32 79q17 -20 39 -32t47 -12q46 0 85.5 24.5t70.5 64t53.5 90.5t36.5 105q-32 -32 -72 -49.5t-91 -17.5q-92 0 -134 53t-22 150q10 46 34.5 86t60.5 69.5t81.5 46t96.5 16.5q45 0 83 -15.5t62 -50t31 -90t-10 -134.5q-18 -83 -53.5 -156t-85 -127t-111.5 -85t-132 -31
q-26 0 -47.5 6t-34.5 11q1 14 -2 32.5t-8 32.5zM396 480q14 63 -11 102.5t-79 39.5q-53 0 -96 -45t-60 -122q-17 -78 5.5 -113t73.5 -35q31 0 58.5 14.5t49.5 39t37 55.5t22 64z" />
    <glyph glyph-name="colon" unicode=":" horiz-adv-x="185" 
d="M63 409q6 26 29.5 45.5t49.5 19.5t41.5 -19.5t9.5 -45.5q-3 -13 -10.5 -25t-18 -21t-23.5 -14t-26 -5q-26 0 -41.5 19.5t-10.5 45.5zM-11 53q3 13 10.5 25t18 21t23.5 14.5t26 5.5q26 0 41 -20t10 -46q-6 -26 -29.5 -45.5t-49.5 -19.5t-41 19.5t-9 45.5z" />
    <glyph glyph-name="semicolon" unicode=";" horiz-adv-x="192" 
d="M69 86q8 14 23 28.5t39 14.5q7 0 14.5 -2.5t13.5 -7.5t8.5 -13t0.5 -19q-3 -12 -9.5 -22.5t-14.5 -20.5q-3 -3 -4 -5l2 2q-41 -51 -85.5 -106.5t-83.5 -106.5l-32 13zM113 409q6 26 29.5 45.5t49.5 19.5t41.5 -19.5t9.5 -45.5q-3 -13 -10.5 -25t-18 -21t-23.5 -14t-26 -5
q-26 0 -41.5 19.5t-10.5 45.5z" />
    <glyph glyph-name="less" unicode="&#x3c;" horiz-adv-x="549" 
d="M6 288l562 239l-15 -72l-475 -199q97 -49 195 -99.5t195 -100.5l-15 -72l-460 242z" />
    <glyph glyph-name="equal" unicode="=" horiz-adv-x="559" 
d="M564 315h-512l15 70h512zM524 126h-512l15 70h512z" />
    <glyph glyph-name="greater" unicode="&#x3e;" horiz-adv-x="548" 
d="M-5 56l475 200q-97 49 -195.5 99.5t-195.5 99.5l15 72l461 -241l-13 -62l-562 -240z" />
    <glyph glyph-name="question" unicode="?" horiz-adv-x="286" 
d="M80 661q25 14 54 25.5t65 11.5q37 0 63 -11t41.5 -30t20.5 -44t-1 -53q-6 -30 -20 -54.5t-33 -46.5t-40.5 -41t-43.5 -37q-35 -29 -63.5 -57.5t-36.5 -60.5q-3 -16 4.5 -31.5t27.5 -15.5q10 0 19.5 4t14.5 6l19 -12q-8 -8 -16 -18.5t-10 -18.5q-11 -4 -21 -6t-23 -2
t-31 6t-33 20t-23.5 36.5t-1.5 55.5q6 27 19 49.5t30 42.5t37.5 37.5t40.5 34.5q35 28 64 57.5t37 64.5q7 32 -12.5 51t-46.5 19q-23 0 -52 -17t-56 -43zM-4 53q2 13 10 25t19 21t24 14.5t26 5.5q26 0 41 -20t10 -46q-6 -26 -29.5 -45.5t-49.5 -19.5t-41.5 19.5t-9.5 45.5z
" />
    <glyph glyph-name="at" unicode="@" horiz-adv-x="685" 
d="M476 527h72q-40 -96 -63 -151t-34.5 -83.5t-15 -38.5t-4.5 -15q-5 -24 17 -24q18 0 41.5 13.5t46 37.5t41 56.5t26.5 70.5q10 46 7 84.5t-23 66.5t-59.5 43.5t-103.5 15.5q-56 0 -108.5 -23t-95.5 -63t-74.5 -94.5t-44.5 -116.5q-12 -56 -3 -97.5t34 -69.5t65 -42t90 -14
q34 0 68 8t66.5 21t62.5 29.5t54 32.5l-16 -57q-16 -12 -42.5 -27.5t-61.5 -29.5t-77 -23.5t-89 -9.5q-50 0 -97 18.5t-81 57t-48.5 97t2.5 138.5q13 60 49 116.5t90 100.5t123.5 71t148.5 27q82 0 132.5 -21t76 -54.5t29.5 -77t-5 -88.5q-12 -55 -40 -100t-63 -77
t-73.5 -49.5t-71.5 -17.5q-38 0 -50.5 14t-11.5 40q-23 -23 -51 -38.5t-59 -15.5q-56 0 -78 35t-7 105q10 50 33.5 92t55 72.5t68.5 47.5t75 17q23 0 41.5 -9t26.5 -26zM424 423q6 27 0.5 45t-35.5 18q-26 0 -49 -18t-42 -45t-32.5 -59t-19.5 -60q-8 -39 -2.5 -59.5
t34.5 -20.5q26 0 50 22t43.5 53t33.5 65.5t19 58.5z" />
    <glyph glyph-name="A" unicode="A" horiz-adv-x="662" 
d="M427 698l17.5 -87.5t19.5 -95.5q16 -75 33 -155t32.5 -152t29 -129.5t21.5 -86.5q-43 8 -67 8q-11 0 -26 -2t-35 -5q-3 51 -12 105t-19 105q-3 16 -6 27.5t-6 25.5q-29 1 -60 1.5t-60 0.5q-30 0 -56 -0.5t-56 -1.5q-44 -72 -84 -140.5t-66 -122.5q-12 3 -22.5 5t-18.5 2
q-9 0 -22.5 -2.5t-32.5 -6.5q115 172 234 353t231 354h31zM353 533q-36 -56 -68.5 -106t-69.5 -107q10 0 19.5 -0.5t19.5 -0.5q13 -1 26 -1h26h47.5t47.5 1z" />
    <glyph glyph-name="B" unicode="B" horiz-adv-x="520" 
d="M64 425q13 63 24.5 131t21.5 130q30 -3 59 -4t54 -1q13 0 25 0.5t26 0.5q13 1 26.5 2t26.5 1q43 0 81 -7t63.5 -24t36.5 -45.5t2 -72.5q-14 -63 -55.5 -104t-103.5 -64q66 -12 96.5 -52t14.5 -116q-12 -56 -44 -95t-74 -63.5t-89.5 -35.5t-91.5 -11q-12 0 -24.5 0.5
t-23.5 1.5t-22.5 2t-23.5 1q-48 0 -105 -6q17 64 33.5 132.5t30.5 131.5zM124 242q-8 -33 -13.5 -65.5t-10.5 -65.5q-2 -11 -5.5 -27.5t-5.5 -29.5q18 -2 40.5 -2.5t45.5 -0.5q30 0 58.5 10t53 29.5t42.5 48t26 65.5q8 39 -1.5 63.5t-33 39t-60.5 20t-83 5.5h-34zM197 387
q33 0 66 6t61 21t48.5 40t28.5 63q8 36 -1 58t-28 34.5t-44.5 16.5t-51.5 4q-40 0 -65 -3q-4 -13 -6.5 -27t-6.5 -26q-8 -31 -15.5 -62t-14.5 -62l-14 -63h43z" />
    <glyph glyph-name="C" unicode="C" horiz-adv-x="655" 
d="M538 43q-11 -8 -34 -18.5t-53 -20t-65 -16t-72 -6.5q-79 0 -140.5 24t-100 70t-51.5 112.5t5 151.5t59.5 151.5t100.5 112.5t133 70t157 24q63 0 118 -15t95 -36q-12 -17 -22.5 -38.5t-16.5 -36.5q-1 -3 -2.5 -8t-1.5 -6l-20 -2q-8 11 -22 26t-34 28.5t-46.5 23
t-59.5 9.5q-55 0 -106.5 -18t-94 -55t-75 -94.5t-48.5 -135.5q-17 -78 -9.5 -135t34.5 -94t71 -55t99 -18q33 0 65 9t60 22t51 27.5t40 25.5l11 -14z" />
    <glyph glyph-name="D" unicode="D" horiz-adv-x="706" 
d="M67 424q14 63 25.5 131t22.5 131q36 -2 77.5 -3.5t78.5 -1.5q18 0 36 0.5t36 0.5l38 2t37 1q88 0 146 -23t88.5 -65.5t36 -104t-10.5 -138.5q-21 -100 -70 -168.5t-111.5 -111t-131 -61t-127.5 -18.5q-17 0 -32.5 0.5t-31.5 1.5t-32.5 2t-32.5 1q-33 0 -70.5 -2t-70.5 -4
q17 63 33.5 131.5t30.5 131.5zM131 257q-11 -52 -20 -100t-17 -99q20 -4 51.5 -5.5t64.5 -1.5q52 0 106 12.5t102.5 46t86.5 92.5t58 152q18 82 9 134.5t-38 83t-75.5 42t-103.5 11.5q-41 0 -77 -2.5t-66 -6.5q-13 -45 -24 -93t-22 -99z" />
    <glyph glyph-name="E" unicode="E" horiz-adv-x="416" 
d="M63 425q13 63 25 131t22 130q44 -2 91.5 -3.5t91.5 -1.5t93 1.5t94 3.5q-12 -29 -14 -39q-3 -11 -3 -40q-14 1 -33 2.5t-30 2.5q-20 1 -40 2.5t-42.5 3t-49.5 2t-61 0.5q-2 -11 -4.5 -19t-5.5 -19v1q-5 -17 -9 -35.5t-9 -40.5q-5 -23 -9 -45t-8 -41l-7 -33q42 0 76 1
t63 2.5t54 3.5t48 4l-8.5 -25.5t-5.5 -15.5q-1 -10 -3 -40q-27 3 -60 5t-66.5 3t-63 1.5t-48.5 0.5q-2 -5 -3.5 -11.5t-3.5 -14.5l-7.5 -40t-13.5 -66q-12 -56 -18.5 -86.5t-9.5 -49.5q32 0 67 0.5t70.5 2t69.5 4.5t63 9q-5 -13 -9 -24.5t-6 -18.5q-1 -5 -1.5 -15t-0.5 -24
q-43 2 -92.5 4t-94.5 2t-93.5 -2t-93.5 -4q17 64 33 132.5t30 131.5z" />
    <glyph glyph-name="F" unicode="F" horiz-adv-x="413" 
d="M63 424q13 63 25 131t22 131q45 -2 92 -3.5t91 -1.5q45 0 96 1.5t104 3.5q-12 -29 -14 -39q-2 -5 -2 -15.5t-1 -24.5q-26 3 -62 5t-74 3.5t-74 3t-62 1.5l-1 -4q-7 -30 -13.5 -57.5t-12.5 -55.5q-4 -18 -6.5 -33.5t-5.5 -31.5l-11 -48q63 0 127 2t130 9l-10.5 -24.5
t-5.5 -15.5t-1.5 -16.5t0.5 -23.5q-54 6 -121 7.5t-131 1.5l-16 -73q-14 -63 -25 -132t-22 -132q-17 3 -31.5 5t-25.5 2t-25.5 -2t-33.5 -5q17 63 33.5 132t30.5 132z" />
    <glyph glyph-name="G" unicode="G" horiz-adv-x="713" 
d="M670 547q-11 18 -28.5 35t-41 30.5t-53.5 22t-65 8.5q-58 0 -112 -18t-99 -55t-78.5 -94.5t-49.5 -135.5q-15 -69 -8 -124t34.5 -93.5t75.5 -59t114 -20.5q40 0 82 6.5t70 20.5q7 27 13.5 55.5t12.5 56.5t10 55t9 53q1 5 3 18.5t4 19.5q14 -4 29 -6t25 -2q11 0 23.5 2
t31.5 7q-6 -23 -19.5 -77.5t-30.5 -133.5l-8 -39q-2 -11 -4.5 -23.5t-4.5 -23.5q-23 -8 -57 -16.5t-71.5 -16t-74.5 -12.5t-66 -5q-89 0 -155 23t-106 68t-52.5 112t5.5 155q18 85 60 151.5t102.5 112.5t137.5 70t166 24q50 0 89 -6t68.5 -15t51.5 -20t39 -21
q-12 -17 -25.5 -42t-21.5 -47h-25z" />
    <glyph glyph-name="H" unicode="H" horiz-adv-x="683" 
d="M551 424q14 63 26 131.5t22 131.5q33 -6 57 -6q23 0 59 6q-16 -63 -33 -131.5t-31 -131.5l-35 -167q-14 -63 -25.5 -132t-22.5 -132q-17 3 -31.5 5t-25.5 2t-26 -2t-33 -5q17 63 33.5 132t30.5 132l16 77q-48 1 -96 1.5t-96 0.5q-51 0 -97 -0.5t-97 -1.5l-16 -77
q-14 -63 -25.5 -132t-22.5 -132q-17 3 -31.5 5t-25.5 2t-25.5 -2t-32.5 -5q16 63 32.5 132t30.5 132l35 167q14 63 25.5 131.5t22.5 131.5q33 -6 57 -6q23 0 59 6q-16 -63 -33 -131.5t-31 -131.5l-5 -24q14 0 29 -0.5t29 -0.5q34 -1 67 -1.5t68 -0.5t68 0.5t67 1.5
q17 0 29 0.5t29 0.5z" />
    <glyph glyph-name="I" unicode="I" horiz-adv-x="181" 
d="M56 424q14 63 26 131.5t22 131.5q33 -6 57 -6q23 0 59 6q-16 -63 -33 -131.5t-31 -131.5l-35 -167q-14 -63 -25.5 -132t-22.5 -132q-17 3 -31.5 5t-25.5 2t-25.5 -2t-32.5 -5q17 63 33 132t30 132z" />
    <glyph glyph-name="J" unicode="J" horiz-adv-x="286" 
d="M-70 -222q43 0 72.5 18t49.5 51t33 79t25 102l89 396q14 63 25 131.5t22 131.5q17 -3 31.5 -4.5t25.5 -1.5q22 0 60 6q-17 -63 -34 -131.5t-31 -131.5q-5 -23 -11.5 -53t-13.5 -64t-15 -71l-16 -74q-5 -23 -12 -54.5t-14 -62.5t-12.5 -57.5t-8.5 -38.5q-9 -45 -33 -85
t-59 -69t-78.5 -46t-91.5 -17z" />
    <glyph glyph-name="K" unicode="K" horiz-adv-x="581" 
d="M-31 5q16 63 31 126t29 126l35 167q14 63 25.5 131.5t22.5 131.5q33 -6 57 -6q23 0 59 6q-17 -63 -33.5 -131.5t-30.5 -131.5l-10 -48l3 3q41 30 86.5 67t92 77t93 82t89.5 81q11 -3 21.5 -4t21.5 -1t32.5 3t50.5 8q-44 -33 -99.5 -75.5t-111 -87t-106 -86t-83.5 -71.5
q29 -44 58.5 -87.5t58.5 -90.5q15 -22 32.5 -48t35.5 -53t35 -53.5t32 -48.5q-26 4 -46.5 6.5t-34.5 2.5q-25 0 -59 -6q-18 29 -38 62.5t-41 68t-41.5 67.5t-38 61t-31.5 48.5t-21 30.5l-16 -75q-14 -63 -26 -132t-22 -132q-17 3 -31.5 5t-25.5 2t-21.5 -1.5l-24.5 -3.5z
" />
    <glyph glyph-name="L" unicode="L" horiz-adv-x="411" 
d="M62 424q14 63 25.5 131.5t21.5 131.5q34 -6 58 -6q23 0 59 6q-16 -63 -33.5 -131.5t-31.5 -131.5q-20 -96 -35 -170t-27 -135q-5 -19 -6.5 -30.5t-5.5 -28.5h65.5t64.5 1.5t68.5 4.5t77.5 9q-7 -14 -11.5 -25t-6.5 -16q-1 -6 -0.5 -16t1.5 -24q-45 2 -96 4t-96 2
t-94.5 -2t-95.5 -4q17 63 33 131.5t30 131.5z" />
    <glyph glyph-name="M" unicode="M" horiz-adv-x="863" 
d="M237 698q18 -69 37 -133.5t39 -128.5t41 -129t44 -133q23 32 63.5 85t92.5 122q29 39 60.5 80.5t62.5 82.5t60.5 80.5t55.5 73.5h27q-6 -66 -13 -132.5t-14 -127.5q-10 -109 -21 -224.5t-19 -221.5q-38 8 -57 8q-11 0 -24.5 -2t-30.5 -5q9 65 17 125t15 118.5t12.5 117.5
t10.5 121l-19 -26q-83 -109 -167.5 -222.5t-157.5 -226.5h-20q-21 81 -45.5 165t-50.5 167q-6 20 -11 37t-10 33.5t-10 34t-12 37.5q-20 -59 -41.5 -125.5t-41.5 -131.5t-36.5 -123.5t-25.5 -101.5q-29 8 -43 8q-6 0 -17.5 -2.5t-29.5 -6.5q30 81 63 172.5t66 184.5
t63.5 183t55.5 167h31z" />
    <glyph glyph-name="N" unicode="N" horiz-adv-x="677" 
d="M521 -18q-77 121 -167 247.5t-180 249.5l-19 27q-7 -28 -16 -69.5t-23 -104.5l-10 -50t-12.5 -64t-13 -69t-12 -66.5t-9.5 -55.5t-5 -36q-14 4 -25 6.5t-19 2.5q-14 0 -48 -8q5 13 13.5 42t18.5 66.5t22 81.5t23 88t20.5 85t16.5 73q10 46 18.5 87.5t15.5 76.5t12 62
t8 44h30q8 -11 17 -24t17 -25q44 -62 90 -127t90 -126t84 -115t72 -95q13 63 27 129.5t27 131.5t24 126.5t20 115.5q29 -8 42 -8q12 0 44 8q-8 -24 -20.5 -70t-26 -96.5t-25 -98t-17.5 -74.5q-5 -25 -12 -58.5t-15 -71t-15.5 -75t-14.5 -70.5t-12 -57.5t-7 -35.5h-28z" />
    <glyph glyph-name="O" unicode="O" horiz-adv-x="811" 
d="M32 340q18 85 59.5 151.5t100.5 112.5t132.5 70t156.5 24t146.5 -24t103.5 -70t53 -112.5t-5 -151.5t-60 -151.5t-101 -112.5t-133 -70t-157 -24t-146 24t-102.5 70t-52.5 112.5t5 151.5zM665 340q16 78 8.5 135.5t-34.5 94.5t-71 55t-99 18t-106 -18t-94 -55t-75 -94.5
t-48 -135.5q-17 -78 -9.5 -135t34.5 -94t70.5 -55t98.5 -18t106.5 18t94.5 55t75 94t49 135z" />
    <glyph glyph-name="P" unicode="P" horiz-adv-x="489" 
d="M64 424q13 63 24.5 131t21.5 131q28 -3 54.5 -4t49.5 -1q13 0 30 0.5t36 1.5q17 1 31 1.5t25 0.5q15 0 37.5 -1t46 -6t46 -15.5t38 -30t21.5 -49t-3 -72.5q-14 -67 -51.5 -109t-84.5 -65t-95.5 -31.5t-85.5 -8.5h-35.5t-33.5 2l-9 -42q-14 -63 -25 -132t-22 -132
q-17 3 -31.5 5t-25.5 2t-25.5 -2t-33.5 -5q17 63 33.5 132t30.5 132zM149 359q28 -6 58 -6q28 0 60 6.5t60.5 23.5t51.5 46.5t33 76.5q8 39 2.5 63t-23 37.5t-45 18.5t-62.5 5h-78z" />
    <glyph glyph-name="Q" unicode="Q" horiz-adv-x="830" 
d="M41 340q18 85 59.5 151.5t101 112.5t133 70t156.5 24t146.5 -24t103.5 -70t53 -112.5t-5 -151.5q-29 -135 -113.5 -222t-204.5 -119q24 -22 58 -53t70 -63t69.5 -61.5t56.5 -49.5q-18 -1 -35.5 -5.5t-32.5 -11t-26.5 -14.5t-17.5 -15q-21 24 -53.5 58t-67.5 69.5
t-69 69.5l-59 59h-25q-83 0 -146 24t-103 70t-53.5 112.5t4.5 151.5zM674 340q16 78 8.5 135.5t-34.5 94.5t-70.5 55t-98.5 18t-106 -18t-94 -55t-75 -94.5t-48 -135.5q-17 -78 -9 -135t35 -94t70.5 -55t98.5 -18t106 18t93.5 55t74.5 94t49 135z" />
    <glyph glyph-name="R" unicode="R" horiz-adv-x="571" 
d="M65 424q13 63 24.5 131t22.5 131q27 -2 59.5 -3.5t60.5 -1.5q14 0 27.5 0.5t27.5 0.5q14 1 28.5 2t28.5 1q43 0 80 -8t62 -27t35.5 -50.5t0.5 -77.5q-10 -48 -36.5 -82t-60 -57t-69.5 -36t-66 -17q7 -12 15.5 -27.5t19.5 -35.5q19 -32 43 -72.5t47.5 -80t44 -72.5
t31.5 -51q-26 4 -46.5 6.5t-34.5 2.5q-28 0 -62 -6q-10 22 -30.5 63.5t-46 88.5t-53.5 93t-53 79h-24l-13 -61q-14 -63 -25 -132t-22 -132q-17 3 -31 5t-25 2t-26 -2t-33 -5q16 63 32.5 132t30.5 132zM154 376q11 -2 25 -2.5t30 -0.5q28 0 60.5 6.5t62 22.5t52 42.5
t30.5 67.5q8 36 -0.5 58.5t-26 36t-41.5 18.5t-47 5q-27 0 -49.5 -1t-37.5 -3q-14 -51 -25.5 -101.5t-22.5 -100.5z" />
    <glyph glyph-name="S" unicode="S" horiz-adv-x="469" 
d="M30 144q4 -17 13 -35t24 -32.5t37 -24t51 -9.5q30 0 56.5 10.5t47 28t34.5 41.5t20 51q6 29 -0.5 49t-22 35t-37 26t-45.5 22q-29 13 -56.5 27.5t-48 36.5t-29 54.5t2.5 80.5q9 42 32 77.5t57.5 61t78 40t94.5 14.5q48 0 82 -13t63 -40q-16 -22 -27.5 -43t-23.5 -51h-27
q-2 13 -6.5 29.5t-14.5 30t-26.5 23t-41.5 9.5q-51 0 -89.5 -31t-49.5 -80q-6 -30 1 -51t23.5 -36t39 -26.5t46.5 -21.5q28 -12 55 -26t46.5 -35t27.5 -51t-1 -74q-10 -47 -35.5 -88.5t-64 -72.5t-89 -49.5t-108.5 -18.5q-32 0 -56 5.5t-42.5 14.5t-32.5 20t-26 23
q8 13 13.5 24.5t10 22.5t8.5 23.5t9 28.5h27z" />
    <glyph glyph-name="T" unicode="T" horiz-adv-x="536" 
d="M236 424q11 51 19.5 95.5t17.5 95.5q-49 -1 -108 -4t-105 -8q5 13 10 24t7 19q1 4 0.5 14.5t-0.5 24.5q62 -2 131 -3t132 -1t132.5 1t132.5 3l-10.5 -24.5t-5.5 -15.5q-2 -7 -2 -18t1 -24q-47 6 -104 9t-106 3q-11 -49 -21.5 -95.5t-20.5 -95.5l-36 -167
q-14 -63 -25.5 -132t-22.5 -132q-17 3 -31.5 5t-25.5 2t-26 -2t-33 -5q17 63 33.5 132t30.5 132z" />
    <glyph glyph-name="U" unicode="U" horiz-adv-x="664" 
d="M553 360q15 69 26 122t18.5 92.5t12 67t5.5 46.5q14 -4 27 -5.5t23 -1.5q6 0 17.5 2t23.5 6q-10 -34 -23.5 -83.5t-28 -105.5t-29 -115.5t-26.5 -112.5q-15 -67 -46 -120.5t-75.5 -91t-102 -58t-125.5 -20.5q-150 0 -203.5 70.5t-22.5 217.5q5 24 10.5 45t10.5 41
q5 17 9 34t7 34q15 69 25 126t18 99q2 8 4 20.5t3 17.5q16 -3 32 -4.5t28 -1.5q9 0 23 1.5t31 5.5q-8 -23 -18 -59.5t-21.5 -82t-23 -97.5t-23.5 -107q-7 -32 -13 -66t-7.5 -67t4.5 -62t24.5 -51t51 -35t84.5 -13q76 0 124 32t77.5 79.5t44.5 101.5t24 99z" />
    <glyph glyph-name="V" unicode="V" horiz-adv-x="664" 
d="M214 2q-9 60 -24 143.5t-33 176t-37.5 187.5t-37.5 179q19 -4 36.5 -5.5t28.5 -1.5q13 0 27 1t31 4q15 -130 40.5 -271.5t55.5 -290.5q39 60 86.5 137t94 156t87 150.5t65.5 119.5q12 -3 23 -4.5t19 -1.5q17 0 56 9q-56 -84 -113 -171.5t-113 -176.5t-110 -177t-104 -172
q-12 3 -20.5 5t-16.5 2t-16 -1t-14 -3z" />
    <glyph glyph-name="W" unicode="W" horiz-adv-x="1028" 
d="M169 2q-2 26 -7 80t-11.5 122t-13.5 142.5t-14 141.5t-13 120.5t-10 79.5q19 -4 35 -5.5t27 -1.5q20 0 58 6q3 -74 6 -135t8.5 -123.5t12.5 -133t17 -162.5q10 18 21 37t25 44q31 57 68.5 125.5t72.5 134.5t64.5 123t45.5 91q12 -4 22 -5.5t16 -1.5q13 0 40 7
q2 -26 6 -71t9.5 -98.5t12 -112t13 -112t11.5 -97.5t9 -69q17 31 42 79t53.5 103t58.5 112.5t56 109.5l46.5 93t29.5 62q22 -6 40 -6q15 0 53 9q-15 -23 -45.5 -76t-69.5 -122t-81.5 -146t-81.5 -147t-69 -125t-44 -81q-12 3 -21 5t-17 2q-12 0 -42 -8q-6 68 -12.5 134
t-13.5 132.5t-15 135t-17 140.5q-16 -27 -37.5 -66t-47 -85t-53.5 -97l-56 -102t-55 -100t-50 -91q-12 3 -21.5 5t-16.5 2q-8 0 -16 -1.5t-18 -3.5z" />
    <glyph glyph-name="X" unicode="X" horiz-adv-x="600" 
d="M240 686q17 -60 39.5 -122.5t51.5 -136.5q54 61 105 122.5t107 137.5q24 -6 40 -6q9 0 25 2.5t36 7.5q-8 -9 -19 -21t-23 -24.5t-23.5 -24.5t-19.5 -21q-54 -58 -105 -112.5t-100 -114.5q35 -92 74 -191t78 -190q-21 4 -40 6t-33 2q-27 0 -61 -6l-16 50q-20 62 -38 120.5
t-45 117.5q-61 -70 -118.5 -143t-113.5 -146q-11 3 -21.5 5t-18.5 2t-24 -3t-36 -8q75 83 155.5 174t153.5 176q-32 84 -68 175.5t-71 174.5q23 -4 41 -6t29 -2q13 0 27.5 1t31.5 4z" />
    <glyph glyph-name="Y" unicode="Y" horiz-adv-x="595" 
d="M165 -7q20 65 36.5 137.5t32.5 147.5q-6 17 -18.5 50.5t-28 74t-32.5 84.5t-32.5 84t-28.5 71.5t-20 46.5q23 -4 42.5 -6t30.5 -2q14 0 29 1t32 4q24 -83 50.5 -162t58.5 -166q30 34 61.5 74.5t63.5 83t63 86t60 85.5q25 -6 42 -6q20 0 61 9q-64 -74 -115 -133.5
t-91.5 -108.5t-71 -88t-54.5 -71q-8 -36 -16 -77t-15.5 -81.5t-13.5 -76.5t-9 -61q-17 3 -31.5 5t-25.5 2q-12 0 -27.5 -2t-32.5 -5z" />
    <glyph glyph-name="Z" unicode="Z" horiz-adv-x="609" 
d="M-49 24q50 52 104.5 111.5l109 119t106 117t95 106t76 85.5t49.5 56q-14 1 -27 1h-24q-35 0 -78.5 -1.5t-89 -3.5t-88 -5t-74.5 -6q6 13 11 24t7 18q1 6 0.5 16.5t-1.5 23.5q23 -2 63 -2.5t94 -1.5t120 -1h141q41 0 83 3q6 0 16.5 0.5t15.5 0.5l-7 -31q-22 -20 -64.5 -64
t-95 -100t-110 -119t-110.5 -122t-96.5 -108.5t-67.5 -78.5q17 -1 33 -1.5t31 -0.5q37 0 87 1.5t101 4.5t97.5 6.5t75.5 7.5q-7 -14 -11 -25t-6 -19q-2 -5 -1.5 -15.5t1.5 -25.5q-70 2 -127.5 3.5t-113.5 1.5q-38 0 -87.5 -0.5t-97.5 -1.5t-87.5 -2t-58.5 -2z" />
    <glyph glyph-name="bracketleft" unicode="[" horiz-adv-x="207" 
d="M65 405q14 69 27.5 141.5t25.5 138.5q18 -2 32.5 -3t26.5 -1h25.5t29 0.5t28 1t23.5 0.5l16 -1q-5 -8 -7 -14t-2 -8q-2 -10 -2 -24q-20 1 -44 1.5t-47 0.5q-16 -57 -30 -116t-26 -117l-52 -245q-13 -60 -23.5 -116t-19.5 -116q23 0 47.5 0.5t44.5 1.5q-6 -16 -8 -24
l-3 -24h-15q-20 1 -50.5 2t-53.5 1q-11 0 -26 -1.5t-34 -3.5q17 67 34 139.5t31 140.5z" />
    <glyph glyph-name="backslash" unicode="\" horiz-adv-x="335" 
d="M70 708q25 -10 39 -10q7 0 14 2t18 5l122 -732q-24 9 -39 9q-11 0 -32 -6z" />
    <glyph glyph-name="bracketright" unicode="]" horiz-adv-x="209" 
d="M118 405q13 61 23 117t19 116q-23 0 -47 -0.5t-44 -1.5q2 8 4.5 14t3.5 10l2 23h15q10 0 23.5 -0.5t27.5 -1t28 -0.5h25q12 0 27.5 1t33.5 3q-17 -66 -34 -138.5t-31 -141.5l-52 -245q-15 -68 -29 -140.5t-25 -139.5q-17 2 -32 3.5t-27 1.5q-22 0 -53 -1t-52 -2l-15 2
q3 8 5.5 14t3.5 8q1 4 1 10t1 14q20 -1 43.5 -1.5t45.5 -0.5q16 57 30 116t27 116z" />
    <glyph glyph-name="asciicircum" unicode="^" horiz-adv-x="555" 
d="M295 657h62l141 -460h-73l-116 382q-69 -94 -139.5 -190.5t-138.5 -191.5h-72z" />
    <glyph glyph-name="underscore" unicode="_" horiz-adv-x="587" 
d="M32 -126l15 68h506l-15 -68h-506z" />
    <glyph glyph-name="grave" unicode="`" horiz-adv-x="284" 
d="M61 637q-11 8 -22 20.5t-6 32.5t21 30.5t28 10.5q14 0 25 -7.5t21 -18.5l125 -162h-66z" />
    <glyph glyph-name="a" unicode="a" horiz-adv-x="476" 
d="M108 428q55 35 97 48t82 13q75 0 112 -42t22 -112q-11 -54 -24.5 -109t-27.5 -117l-4 -22t-1 -20t5.5 -14.5t15.5 -5.5q3 0 9 1.5t23 9.5l-9 -44q-15 -6 -35.5 -12t-40.5 -6q-30 0 -45 14t-17 37q-40 -32 -76 -47t-84 -15q-26 0 -49 9t-38.5 26t-22 41t-0.5 54
q12 63 58.5 97.5t115.5 45.5q51 8 80 14t44 12t19.5 13.5t6.5 18.5q5 22 4 42.5t-9 36.5t-24.5 25t-43.5 9q-36 0 -71.5 -17.5t-59.5 -48.5h-26zM307 236q-10 -2 -21.5 -4.5t-24.5 -4.5q-24 -4 -50 -9.5t-48.5 -16t-39.5 -28t-23 -45.5q-8 -41 10.5 -61.5t47.5 -20.5
q34 0 65.5 18.5t52.5 41.5z" />
    <glyph glyph-name="b" unicode="b" horiz-adv-x="507" 
d="M475 251q-12 -58 -40 -107t-66.5 -84t-84.5 -55t-95 -20q-45 0 -78.5 20.5t-50.5 46.5q-17 -11 -34.5 -24.5t-34.5 -27.5h-32q7 25 16 60t18 74l18 78t16 73l37 176q7 33 15 72.5t15.5 79.5t14 76.5t9.5 63.5q17 -3 30.5 -5t22.5 -2q11 0 25.5 2t34.5 4q-7 -22 -17.5 -62
t-22 -88t-23.5 -99t-21 -95q38 38 82.5 59.5t89.5 21.5q53 0 87.5 -19.5t53.5 -52.5t22 -76t-7 -90zM371 254q9 42 5.5 75t-15.5 55t-31.5 33.5t-42.5 11.5q-29 0 -57 -11t-52.5 -35.5t-44 -64t-31.5 -96.5q-20 -92 4.5 -139t88.5 -47q28 0 55 15.5t50.5 44t41.5 68.5t29 90
z" />
    <glyph glyph-name="c" unicode="c" horiz-adv-x="484" 
d="M30 237q14 66 46 113.5t74.5 78t92 45.5t98.5 15q55 0 97.5 -15.5t59.5 -35.5q-25 -36 -41 -75h-22q-4 12 -12.5 25.5t-21.5 24.5t-30 18t-38 7q-42 0 -74.5 -15t-57 -42t-41 -63.5t-25.5 -79.5q-20 -95 10 -143.5t108 -48.5q18 0 38.5 5.5t42 15.5t42 23.5t37.5 29.5
l13 -15l-10 -28t-8 -27q-38 -26 -88.5 -45.5t-97.5 -19.5q-44 0 -85 14t-69.5 44t-40 78t2.5 116z" />
    <glyph glyph-name="d" unicode="d" horiz-adv-x="506" 
d="M302 64q-14 -14 -32 -28t-39.5 -25t-47 -18.5t-52.5 -7.5q-39 0 -73 14.5t-56.5 45t-30 77.5t6.5 112q13 64 42 112t66.5 80t80 47.5t82.5 15.5q94 0 127 -71q9 44 19 91.5t19 92t16 84t12 67.5q4 -1 13 -2t12 -2q7 -2 15 -2.5t14 -0.5q11 0 26 3q4 1 14.5 2t14.5 1
q-11 -33 -26 -94t-32 -133.5t-33.5 -148t-29.5 -138.5q-10 -45 -17 -82.5t-15 -74.5q-4 -19 -8.5 -43.5t-8.5 -44.5q-4 1 -13.5 2t-12.5 2h1q-5 0 -15 2q-5 1 -10 1q-9 0 -21 -3q-3 -1 -12 -2.5t-13 -2.5zM81 228q-12 -55 -8.5 -91t17 -57.5t33.5 -30t42 -8.5q35 0 64.5 18
t52 47t38.5 66t24 75q18 88 -5.5 135t-88.5 47q-33 0 -60 -15.5t-48.5 -43t-36.5 -64t-24 -78.5z" />
    <glyph glyph-name="e" unicode="e" horiz-adv-x="496" 
d="M23 224q13 61 38.5 110t62.5 83.5t84.5 53t103.5 18.5q54 0 90 -16.5t56 -45t25 -66.5t-4 -80q-2 -10 -6.5 -24t-6.5 -24q-18 0 -40.5 0.5t-39.5 0.5q-35 1 -68.5 1.5t-68.5 0.5q-21 0 -42 -0.5t-43 -1.5q-11 0 -17 -0.5t-17 -0.5l-4 -17q-8 -36 -4 -67t19.5 -54
t42.5 -36t65 -13q18 0 38.5 5.5t42 15.5t42.5 23.5t38 29.5l12 -15l-19 -55q-37 -26 -87.5 -45.5t-97.5 -19.5q-55 0 -96 18t-66.5 50.5t-34.5 76t2 94.5zM303 438q-32 0 -57 -14t-44.5 -35.5t-33.5 -48t-22 -50.5q8 0 14 -0.5t13 -0.5q22 -1 44.5 -1.5t43.5 -0.5
q22 0 45 0.5t46 1.5q11 0 15.5 0.5t13.5 0.5q5 24 6 50t-6.5 48t-26 36t-51.5 14z" />
    <glyph glyph-name="f" unicode="f" horiz-adv-x="302" 
d="M335 649q-10 8 -22.5 12t-26.5 4q-38 0 -59.5 -26.5t-29.5 -61.5q-3 -16 -6 -45.5t-5 -58.5h40q13 0 31.5 0.5t31.5 0.5q-4 -10 -7 -18.5t-3 -10.5q-2 -10 -2 -29q-8 0 -22.5 0.5t-22.5 0.5q-17 1 -28.5 1.5t-28.5 0.5q-22 -104 -44.5 -213t-42.5 -214q-34 8 -50 8
t-54 -8q29 108 52.5 214t46.5 213q-10 0 -18 -0.5t-19 -1.5q-6 0 -17.5 -0.5t-17.5 -0.5q3 9 6 17t4 12q0 2 0.5 10.5t1.5 18.5q9 0 24 -0.5t24 -0.5h24q7 29 20.5 61.5t31.5 64t39.5 59.5t45.5 48q23 19 54.5 33t61.5 14q5 0 12.5 -1t15.5 -4q-2 -13 -5 -23t-5 -17
q-3 -11 -7 -25.5t-6 -25.5z" />
    <glyph glyph-name="g" unicode="g" horiz-adv-x="507" 
d="M88 321q9 43 31 74.5t53 52.5t68.5 31t77.5 10q13 0 25 -0.5t26 -1.5q7 -1 14 -1t15 -1q4 0 8 -0.5t7 -0.5q17 -2 30 -2.5t21 -0.5q57 0 92 8q-4 -11 -6.5 -19.5t-4.5 -13.5q0 -3 -0.5 -12t-1.5 -19q-8 1 -21.5 2t-20.5 2q-14 2 -20 2.5t-17 0.5h-12q16 -22 23 -53t0 -60
q-17 -78 -77.5 -121.5t-148.5 -43.5q-6 0 -13 0.5t-14 0.5q-6 1 -12 1h-13q-14 0 -28.5 -10.5t-17.5 -24.5q-5 -21 4 -30t36 -10q12 -1 25.5 -1.5t26.5 -0.5q14 -1 27 -1h27q46 -1 77.5 -11.5t49 -28.5t22.5 -42t-1 -52q-8 -36 -29.5 -72.5t-57 -66.5t-85 -49t-113.5 -19
q-98 0 -146.5 40t-34.5 109q11 48 43.5 80.5t71.5 49.5q-21 11 -27.5 31.5t-1.5 46.5q7 29 28 50.5t45 33.5q-35 22 -48 57t-2 86zM344 -98q11 52 -17 75t-100 23q-67 0 -109.5 -23t-54.5 -80q-7 -31 -1 -52.5t21 -35t38 -19.5t51 -6t55.5 7t51.5 21.5t41 37t24 52.5z
M382 326q12 56 -8.5 85.5t-64.5 29.5q-48 0 -81.5 -32.5t-44.5 -87.5q-12 -56 5.5 -89.5t68.5 -33.5q25 0 46 10.5t36.5 28.5t26.5 41t16 48z" />
    <glyph glyph-name="h" unicode="h" horiz-adv-x="460" 
d="M64 461q7 33 15 72.5t15.5 79.5t13.5 76.5t9 63.5q17 -3 31 -5t22 -2q9 0 23.5 2t32.5 5q-8 -27 -17.5 -63.5t-19 -75.5t-18 -78t-15.5 -70l-7 -46q34 32 73.5 50.5t86.5 18.5q29 0 56.5 -8t47 -28.5t27.5 -55t-4 -87.5q-8 -41 -19.5 -86t-22.5 -94q-7 -32 -14 -69
t-12 -69q-35 8 -50 8q-14 0 -51 -8l22 92q9 34 17.5 68t16.5 70l12 59q14 67 -4.5 102.5t-62.5 35.5q-63 0 -100.5 -39t-52.5 -111q-6 -28 -13.5 -64t-14.5 -74.5t-13 -74.5t-9 -64q-37 8 -54 8q-16 0 -54 -8q8 28 17.5 64.5t18.5 76l18 79t16 73.5z" />
    <glyph glyph-name="i" unicode="i" horiz-adv-x="157" 
d="M19 288q10 45 19 95.5t15 98.5q35 -8 52 -8q18 0 56 8q-15 -48 -27.5 -98.5t-22.5 -95.5l-21 -101q-10 -46 -19 -97t-15 -98q-34 8 -52 8q-15 0 -55 -8q15 47 27.5 98t22.5 97zM81 639q5 24 26.5 41.5t45.5 17.5t37.5 -17.5t8.5 -41.5t-26.5 -42t-45.5 -18t-37.5 18
t-8.5 42z" />
    <glyph glyph-name="j" unicode="j" horiz-adv-x="246" 
d="M130 249q13 60 24 123t16 110q37 -8 54 -8t55 8q-15 -48 -27.5 -98.5t-22.5 -95.5l-21 -101q-7 -29 -13 -62t-12 -67q-5 -34 -11 -66.5t-12 -60.5q-9 -42 -21 -78t-44 -71q-29 -32 -73.5 -54t-98.5 -24l5 56q15 -5 23 -5q24 0 42.5 16t32 40.5t23 55.5t15.5 61zM199 639
q5 24 26.5 41.5t45.5 17.5t38 -17.5t9 -41.5t-26.5 -42t-45.5 -18t-38 18t-9 42z" />
    <glyph glyph-name="k" unicode="k" horiz-adv-x="472" 
d="M50 461q7 33 15 72.5t15.5 79.5t13.5 76.5t9 63.5q18 -3 31.5 -5t22.5 -2q8 0 23 2t32 5q-8 -27 -17.5 -63.5t-19 -76.5t-18.5 -79.5t-16 -72.5l-37 -177q-2 -9 0 -9q4 0 11.5 4.5t18.5 11.5q2 1 6 5q10 6 34.5 25.5t56 45.5t66 56.5t64.5 57.5q11 -3 21 -5t18 -2t17 1
t23 3h6.5t12 0.5t12 0.5h6.5q-79 -55 -150.5 -106.5t-131.5 -99.5q21 -33 44 -68.5t47.5 -72t48.5 -72t47 -68.5q-26 4 -45.5 6t-33.5 2q-23 0 -54 -6q-15 27 -35.5 60.5t-41 66t-40 61t-33.5 47.5q-2 2 -3 4.5t-2 2.5l-13 -60q-10 -45 -17.5 -90.5t-12.5 -93.5q-35 8 -52 8
q-16 0 -56 -8q8 28 17.5 64.5t19 76t18 79t15.5 73.5z" />
    <glyph glyph-name="l" unicode="l" horiz-adv-x="167" 
d="M54 461q7 33 15 72.5t15.5 79.5t14 76.5t9.5 63.5q17 -3 30.5 -5t22.5 -2t23.5 2t31.5 5q-8 -27 -17 -63.5t-18.5 -76.5t-18.5 -79.5t-16 -72.5l-37 -176q-7 -34 -15 -73.5t-15.5 -79t-14 -76t-9.5 -64.5q-35 8 -53 8q-16 0 -54 -8q8 28 17 64.5t18.5 76t18 79t15.5 73.5
z" />
    <glyph glyph-name="m" unicode="m" horiz-adv-x="777" 
d="M60 288q9 45 18 95.5t14 98.5q35 -8 52 -8q5 0 19.5 2t32.5 6q-5 -13 -9.5 -31t-6.5 -28q67 66 150 66q48 0 83 -23t45 -61q34 42 77.5 63t94.5 21q34 0 61 -9t44 -29t22.5 -51t-3.5 -74q-4 -18 -9 -37.5t-11.5 -44.5t-14.5 -57.5t-17 -75.5q-5 -26 -10.5 -57t-10.5 -62
q-34 8 -51 8q-11 0 -24.5 -2t-31.5 -6q11 32 32 112t48 208q4 22 3.5 41.5t-8 34t-23.5 23t-42 8.5q-31 0 -56.5 -12.5t-41.5 -29.5q-9 -9 -15 -19.5t-13 -32.5t-16.5 -61t-23.5 -105q-9 -42 -15.5 -82t-14.5 -85q-35 8 -52 8q-16 0 -54 -8q15 55 31 117.5t28 116.5
q9 44 14 69.5t6.5 40.5t0 23.5t-4.5 19.5q-5 17 -23 28.5t-40 11.5q-58 0 -95 -39t-52 -111l-18 -82q-10 -46 -18.5 -97t-13.5 -98q-37 8 -54 8t-54 -8q14 47 26.5 98t22.5 97z" />
    <glyph glyph-name="n" unicode="n" horiz-adv-x="484" 
d="M361 281q14 67 -4 102.5t-62 35.5q-63 0 -101 -39t-53 -111l-18 -82q-10 -46 -18.5 -97t-13.5 -98q-37 8 -54 8t-54 -8q14 47 26.5 98t22.5 97l22 101q9 45 18 95.5t14 98.5q35 -8 52 -8q5 0 19.5 2t32.5 6q-5 -15 -8.5 -25t-5.5 -22q-1 -4 -1.5 -7.5t-0.5 -8.5
q34 34 73.5 52t87.5 18q29 0 56.5 -8t47 -28.5t27.5 -55t-4 -87.5q-8 -41 -19.5 -86t-22.5 -94q-7 -32 -14 -69t-12 -69q-35 8 -50 8q-14 0 -51 -8l22 92q9 34 17.5 68t16.5 70l12 59v0z" />
    <glyph glyph-name="o" unicode="o" horiz-adv-x="549" 
d="M28 237q15 69 47 117t73 78t88 43.5t91 13.5t85.5 -13.5t70 -43.5t40.5 -78t-3 -117t-47 -117t-73.5 -78t-88.5 -43.5t-91 -13.5t-85 13.5t-69.5 43.5t-40.5 78t3 117zM133 237q-9 -39 -9.5 -75.5t10 -64t34 -44.5t63.5 -17t70.5 17t53 44.5t37 64t23.5 75.5
q8 39 8.5 75.5t-10 64t-34 44.5t-63.5 17t-70.5 -17t-53 -44.5t-37 -64t-22.5 -75.5z" />
    <glyph glyph-name="p" unicode="p" horiz-adv-x="508" 
d="M60 187q7 33 15 72.5t15.5 79.5t14 77t10.5 66q35 -8 52 -8q19 0 57 8q-7 -20 -13.5 -39.5t-10.5 -33.5q13 15 30.5 29t39 25.5t47 18.5t55.5 7q39 0 73.5 -14.5t57 -45t30.5 -77.5t-6 -112t-43 -112.5t-67 -79.5t-80.5 -47.5t-82.5 -15.5q-48 0 -79.5 18t-50.5 52
l-5 -26q-7 -33 -15 -72.5t-15.5 -79.5t-13.5 -76.5t-9 -63.5q-18 3 -31.5 5t-22.5 2t-23 -2t-31 -5q8 27 17 63.5t18 76.5t18 79.5t16 72.5zM423 241q12 55 8.5 91.5t-17 58t-33.5 30t-42 8.5q-37 0 -66 -15.5t-50.5 -42.5t-36.5 -62.5t-24 -75.5q-20 -95 3 -143.5t88 -48.5
q33 0 60 15.5t48.5 42.5t37 63.5t24.5 78.5z" />
    <glyph glyph-name="q" unicode="q" horiz-adv-x="507" 
d="M444 29q-7 -33 -15 -72.5t-15.5 -79.5t-14 -76.5t-9.5 -63.5q-17 3 -30.5 5t-22.5 2t-23.5 -2t-32.5 -5q8 27 17.5 63.5t19 76.5t18.5 79.5t16 72.5l7 38q-39 -45 -80.5 -63.5t-86.5 -18.5q-38 0 -73.5 13t-59.5 42.5t-33 77t5 116.5q14 66 43.5 114.5t67 79.5t78.5 46
t79 15q53 0 85 -20.5t48 -52.5q3 30 6 66q37 -8 54 -8q18 0 56 8q-8 -29 -17.5 -66t-19 -77t-18.5 -79.5t-16 -72.5zM398 247q7 35 7 68t-10 58.5t-31.5 40.5t-56.5 15q-22 0 -46.5 -9t-48.5 -31.5t-44 -61.5t-33 -100q-9 -39 -8.5 -73t10 -59t29 -39.5t49.5 -14.5
q34 0 64 18t53.5 47t40.5 66t25 75z" />
    <glyph glyph-name="r" unicode="r" horiz-adv-x="291" 
d="M293 377q-5 7 -16.5 13t-24.5 6q-21 0 -39.5 -10t-33.5 -27t-26 -40t-17 -49q-14 -64 -23 -107.5t-15 -74.5t-9.5 -53t-6.5 -43q-32 8 -49 8q-14 0 -51 -8q14 45 26 103.5t30 141.5l6 31q8 38 19 94.5t22 119.5q35 -8 49 -8q18 0 53 8q-11 -31 -15.5 -47t-6.5 -27
q35 40 70.5 60.5t66.5 20.5q8 0 16.5 -2t24.5 -9q-11 -17 -17 -42.5t-11 -45.5z" />
    <glyph glyph-name="s" unicode="s" horiz-adv-x="369" 
d="M44 108q3 -10 10.5 -21.5t19 -21.5t26.5 -17t34 -7q33 0 63 20t38 58q4 18 -1.5 30t-16.5 20.5t-26.5 14.5t-32.5 11q-23 7 -45.5 16t-39 24t-23.5 38t1 59q7 34 24.5 63t44 50t60.5 32.5t75 11.5q28 0 48.5 -6.5t37.5 -13.5l1 -1l2 -1t8.5 -2.5t20.5 -5.5q-7 -9 -15 -21
t-14.5 -24t-12 -23t-7.5 -18h-28q-2 23 -19 42t-46 19q-12 0 -26 -4t-26.5 -13t-22 -22.5t-13.5 -32.5t1.5 -32t17 -21.5t27.5 -14.5t33 -12q22 -7 44 -15.5t38 -23t23 -37t0 -57.5q-6 -30 -25.5 -59t-48 -52.5t-66 -38t-79.5 -14.5q-48 0 -78.5 12t-50.5 26q4 7 10 18
t11.5 23t10 23.5t6.5 20.5h27z" />
    <glyph glyph-name="t" unicode="t" horiz-adv-x="283" 
d="M222 610h17q-11 -37 -21 -73t-19 -71q14 0 44.5 1t61.5 3q-5 -16 -6.5 -22t-3.5 -10q-1 -4 -1.5 -9.5t-1.5 -21.5q-26 2 -56.5 2.5t-48.5 0.5q-4 -16 -11 -45t-15.5 -63t-16 -68.5t-13.5 -60.5q-5 -26 -9 -50.5t-1.5 -43.5t13.5 -31t37 -12q6 0 23 3t32 8l-9 -44
q-22 -8 -45.5 -13t-43.5 -5q-66 0 -90 35t-11 97q5 23 11.5 49.5t14.5 57.5q10 39 20 82.5t24 103.5h-68q3 11 6 19.5t4 10.5q2 8 2 15t1 16q22 -2 38 -3t27 -1q1 5 1.5 10.5t1.5 11.5q3 17 7.5 40.5t7.5 42.5z" />
    <glyph glyph-name="u" unicode="u" horiz-adv-x="485" 
d="M19 155q12 55 22 94q5 17 8 33.5t7 32.5q8 35 16.5 80.5t16.5 86.5q34 -8 49 -8t52 8q-8 -29 -17.5 -63t-18.5 -71t-18 -75t-17 -74q-11 -49 -7.5 -73.5t11.5 -37.5q11 -14 27.5 -23.5t42.5 -9.5q38 0 66 17t45 40q10 14 16.5 26t12.5 32t13.5 52.5t19.5 87.5
q4 20 8.5 43l9 46t8.5 44.5t7 38.5q34 -8 51 -8t51 8q-20 -76 -38 -153t-35 -155q-9 -43 -18 -91.5t-16 -90.5q-30 8 -46 8q-17 0 -51 -8q5 16 8.5 26t5.5 22q2 4 2 8t1 9q-33 -34 -75 -53t-84 -19q-81 0 -117 44.5t-19 125.5z" />
    <glyph glyph-name="v" unicode="v" horiz-adv-x="491" 
d="M152 2q-1 9 -2.5 17t-1.5 17l-1 -1q-18 108 -40 223t-49 224q40 -8 64 -8q10 0 22 2t29 5q10 -97 25.5 -188t35.5 -180q46 69 94 150.5t93 159.5q7 12 16.5 29.5t16.5 29.5q11 -4 20 -6t14 -2q7 0 20 3t30 8q-5 -8 -12 -18.5t-14.5 -22t-14.5 -22.5t-12 -19
q-67 -102 -134 -206t-125 -205q-24 8 -34 8q-11 0 -29 -5z" />
    <glyph glyph-name="w" unicode="w" horiz-adv-x="794" 
d="M147 2q-3 39 -10.5 96.5t-17.5 123t-22 133t-24 127.5q37 -8 60 -8q11 0 24 2t30 5q6 -95 15.5 -183t24.5 -176q18 30 42.5 73t51.5 91.5t54 99.5t50 96q22 -8 35 -8q8 0 35 8q5 -95 15.5 -179t23.5 -171l1 -9q20 34 46.5 78.5t54.5 92.5t56 96.5t52 90.5q11 -3 20 -5
t16 -2t20 3t28 8q-88 -128 -165.5 -250t-143.5 -240q-2 0 -7 0.5t-7 0.5q-5 2 -9 3t-7 1q-4 0 -14 -3t-20 -5q-6 91 -16.5 175.5t-27.5 172.5q-18 -30 -42 -71.5t-50 -87.5t-52 -94.5t-49 -91.5q-2 0 -8.5 0.5t-8.5 0.5q-5 2 -9.5 3t-7.5 1t-9 -1t-11 -3q-2 0 -4.5 -0.5
t-4.5 -0.5z" />
    <glyph glyph-name="x" unicode="x" horiz-adv-x="517" 
d="M200 480q17 -46 38 -89.5t44 -87.5q42 44 84.5 89t82.5 89q12 -3 21 -5t16 -2t24 3.5t41 9.5q-29 -27 -60.5 -56t-63.5 -58.5t-63 -58.5t-58 -55q15 -32 32.5 -66t36 -69t37.5 -69t36 -65q-25 5 -43 7.5t-28 2.5q-23 0 -54 -6q-22 50 -44 96.5t-47 96.5
q-44 -48 -89 -97.5t-86 -96.5q-11 3 -20 5t-15 2q-7 0 -23 -3.5t-39 -9.5q29 28 61 59.5t63.5 63.5t62.5 63l59 59q-14 28 -31.5 60.5t-35.5 65.5t-35.5 65t-33.5 60q23 -4 41 -6.5t32 -2.5q24 0 57 6z" />
    <glyph glyph-name="y" unicode="y" horiz-adv-x="487" 
d="M-5 -267q60 75 108.5 142t88.5 130q-5 29 -13.5 72t-18.5 91t-20 97.5t-19.5 92.5t-16.5 76.5t-10 48.5q19 -4 34 -6.5t25 -2.5t23.5 2t30.5 5q9 -84 24.5 -170t32.5 -174q1 -5 1.5 -6.5t1 -2.5t1 -2.5t1.5 -5.5q54 80 108.5 174t105.5 188q26 -8 37 -8q14 0 52 11
q-13 -18 -48.5 -71t-83.5 -124.5t-102 -153.5t-103.5 -159.5t-89 -141t-57.5 -98.5q-12 3 -22 5t-15 2q-6 0 -21 -3t-35 -8z" />
    <glyph glyph-name="z" unicode="z" horiz-adv-x="486" 
d="M-25 22q44 43 91.5 91t94 96t89.5 93t79 83l11 11l7 7l6.5 6.5t8.5 9.5q-20 -1 -54 -2.5t-71.5 -4t-73.5 -5t-61 -4.5q6 14 9 23.5t5 14.5q3 13 3 39q36 -4 99.5 -5t154.5 -1q40 0 70 1t68 5l-6 -28q-50 -51 -107 -109.5t-111 -114t-98.5 -102t-68.5 -71.5q37 0 69 0.5
t66 2t74 4.5t93 8q-5 -12 -9.5 -22.5t-5.5 -15.5q-1 -4 -1.5 -14.5t0.5 -22.5q-15 0 -36.5 0.5t-36.5 1.5q-43 2 -90.5 2.5t-91.5 0.5q-64 0 -130 -3h1q-11 -1 -26.5 -1.5t-26.5 -0.5z" />
    <glyph glyph-name="braceleft" unicode="{" horiz-adv-x="243" 
d="M7 313q35 0 58 22.5t31 59.5l35 165q15 71 45.5 97t76.5 26h66l-12 -55h-41q-20 0 -33 -12.5t-22 -55.5l-34 -159q-10 -45 -36.5 -73.5t-61.5 -45.5q33 -17 45.5 -43.5t2.5 -73.5l-34 -159q-5 -22 -5 -35t3.5 -20.5t10.5 -10t17 -2.5h41l-12 -56h-66q-46 0 -64.5 26.5
t-4.5 97.5l35 165q8 37 -5 59.5t-48 22.5z" />
    <glyph glyph-name="bar" unicode="|" horiz-adv-x="144" 
d="M139 749h70l-210 -992h-70z" />
    <glyph glyph-name="braceright" unicode="}" horiz-adv-x="243" 
d="M234 253q-35 0 -57.5 -22.5t-30.5 -59.5l-35 -165q-15 -71 -46 -97.5t-76 -26.5h-66l12 56h41q10 0 18 2.5t14.5 10t12 20.5t10.5 35l34 159q9 45 35 73.5t62 45.5q-34 16 -46 42.5t-1 74.5l34 159q9 43 1 55.5t-28 12.5h-41l12 55h66q46 0 65.5 -26t4.5 -97l-35 -165
q-8 -37 5 -59.5t48 -22.5z" />
    <glyph glyph-name="asciitilde" unicode="~" horiz-adv-x="520" 
d="M22 234q34 42 67.5 66t81.5 24q29 0 50 -8.5t40 -17.5q16 -7 28 -14q20 -11 37 -18.5t38 -7.5q12 0 26.5 7.5t29 19.5t27.5 26.5t23 27.5l28 -60q-14 -16 -31 -32.5t-35.5 -29.5t-39.5 -21t-44 -8q-29 0 -54 10t-54 27q-22 12 -41 20.5t-36 8.5q-20 0 -36.5 -8t-31 -20.5
t-25.5 -27.5t-20 -28z" />
    <glyph glyph-name="exclamdown" unicode="&#xa1;" horiz-adv-x="175" 
d="M141 311q-4 -27 -7.5 -60t-7.5 -62q-3 -29 -8 -65t-10 -74.5t-10 -75t-9 -66t-6.5 -49t-3.5 -22.5q-7 -32 -27 -45t-42 -13q-21 0 -36 13t-8 45q1 7 10.5 40t24 82.5t32 109.5t35.5 120q8 29 18.5 62.5t18.5 59.5h36zM82 424q6 26 29.5 45.5t49.5 19.5t41.5 -19.5
t9.5 -45.5q-3 -13 -10.5 -25t-18.5 -21t-24 -14t-26 -5q-26 0 -41 19.5t-10 45.5z" />
    <glyph glyph-name="cent" unicode="&#xa2;" horiz-adv-x="480" 
d="M28 237q12 57 38.5 100.5t61.5 74.5t77 49t86 24q4 20 8.5 47t6.5 59q11 -4 19.5 -6.5t15.5 -2.5t17 2.5t22 6.5q-11 -30 -17.5 -56t-10.5 -46q51 -2 89.5 -16.5t55.5 -34.5q-25 -36 -41 -75h-22q-4 12 -11.5 24.5t-19.5 23t-27.5 18t-34.5 9.5q-21 -101 -40.5 -196
t-39.5 -196q17 1 36.5 7.5t39.5 16.5t39 22.5t35 27.5l14 -15l-10 -28t-9 -27q-32 -23 -75 -41t-86 -21q-5 -23 -10 -54t-7 -57q-11 3 -20 5.5t-15 2.5q-7 0 -16.5 -2.5t-21.5 -5.5q8 27 16.5 59t13.5 52q-39 5 -73 21.5t-57 46.5t-31.5 75t4.5 106zM280 432
q-57 -20 -94.5 -72t-52.5 -122q-16 -76 1 -122.5t65 -62.5z" />
    <glyph glyph-name="sterling" unicode="&#xa3;" horiz-adv-x="507" 
d="M-19 77q38 0 64.5 11t44 30.5t28.5 47.5t18 63q5 23 7.5 47t4.5 45q-23 -1 -50 -1h-48q6 14 7.5 20.5t2.5 11.5q1 4 2 10.5t0 23.5q22 -5 44.5 -7t45.5 -2q3 30 9 57q15 70 44 116t65 73.5t75 38.5t73 11q38 0 74 -15t50 -47q-14 -14 -29.5 -31t-31.5 -37l-13 15
q-2 29 -19 44t-43 15q-24 0 -46 -9.5t-39.5 -25.5t-30 -38.5t-17.5 -47.5q-7 -30 -10.5 -54t-6.5 -46q-1 -5 -1.5 -10t-1.5 -9q30 0 52.5 0.5t45.5 2.5q11 1 27.5 1.5t27.5 1.5q-4 -11 -7 -19.5t-4 -11.5q-1 -6 -2 -14.5t-1 -17.5h-21q-34 1 -61.5 1.5t-63.5 0.5
q-2 -9 -3 -18t-3 -17q-15 -69 -49 -121.5t-76 -86.5q62 0 120 2.5t118 5.5q17 0 39.5 1t38.5 2q-6 -17 -10 -29t-6 -20q-2 -9 -3 -20.5t-2 -25.5q-14 0 -34 0.5t-34 1.5h1q-86 3 -171 3t-167 -3h1q-14 -1 -33.5 -1.5t-33.5 -0.5q3 10 6.5 20.5t5.5 20.5q2 7 3 17.5t3 23.5
h24z" />
    <glyph glyph-name="currency" unicode="&#xa4;" horiz-adv-x="574" 
d="M544 583l39 -48l-65 -55q18 -30 23.5 -68.5t-3.5 -82.5q-19 -86 -84 -151q11 -13 22 -26.5t20 -25.5l-59 -50l-43 52q-37 -24 -78 -37t-83 -13q-44 0 -80 13t-61 38q-15 -12 -33 -27t-32 -26l-38 50l64 54q-17 31 -22 68t5 81q9 43 30.5 81t51.5 69q-10 14 -21.5 28.5
t-21.5 27.5l59 48l43 -55q37 25 78 38t85 13q42 0 77.5 -13.5t61.5 -36.5zM468 329q8 38 1 72t-26 59t-49 39.5t-68 14.5t-74.5 -14.5t-66 -39.5t-50.5 -59t-29 -72t-1.5 -72t25.5 -59.5t49 -40t68 -14.5t74.5 14.5t66 40t51 59.5t29.5 72z" />
    <glyph glyph-name="yen" unicode="&#xa5;" horiz-adv-x="549" 
d="M214 322q-25 0 -50.5 -0.5t-50.5 -1.5q-14 0 -34 -0.5t-34 -0.5q3 10 6 19t4 11t1.5 11t0.5 19q40 -1 76.5 -1.5t75.5 -0.5q-10 23 -20 47t-19 47q-21 50 -45.5 108.5t-47.5 109.5q23 -4 41 -6t29 -2q13 0 27 1t31 4q3 -18 13.5 -50t25 -70.5t30.5 -80t30 -77.5
q57 68 113 136.5t112 142.5q21 -6 37 -6q6 0 21.5 3t38.5 9q-24 -25 -56 -59.5t-67 -73t-71.5 -79.5t-70.5 -79q-5 -5 -7 -7.5t-4.5 -4.5t-5 -5t-6.5 -8q39 0 77.5 0.5t76.5 1.5q-3 -10 -6 -19t-4 -11t-1.5 -11t-0.5 -19q-14 0 -34 0.5t-34 0.5q-29 1 -51.5 1.5t-51.5 0.5
l-14 -65h86t86 1q-4 -11 -7 -20t-4 -11q0 -2 -0.5 -10.5t-1.5 -19.5q-42 2 -85 3t-85 1q-12 -54 -21.5 -109t-15.5 -100q-37 8 -54 8q-19 0 -57 -8q30 104 53 209q-41 0 -86 -1t-84 -3q4 11 7 19.5t3 10.5q1 2 1.5 11t1.5 20q42 -1 84 -1h84z" />
    <glyph glyph-name="brokenbar" unicode="&#xa6;" horiz-adv-x="130" 
d="M20 190h70l-76 -360h-69zM123 676h70l-76 -360h-70z" />
    <glyph glyph-name="section" unicode="&#xa7;" horiz-adv-x="437" 
d="M387 562q-2 32 -21.5 56.5t-56.5 24.5q-18 0 -37.5 -6t-36 -17.5t-29 -27.5t-16.5 -37q-5 -23 2 -39.5t22 -29t35.5 -22.5t42.5 -20q26 -11 51 -23.5t43.5 -30t26.5 -42.5t1 -61q-9 -42 -33.5 -74.5t-45.5 -52.5q11 -15 15.5 -34.5t-2.5 -51.5q-8 -38 -29.5 -73.5
t-54.5 -63t-76.5 -44.5t-95.5 -17q-38 0 -76.5 14t-61.5 33q10 20 19.5 48.5t14.5 47.5h27q2 -11 8.5 -26.5t20 -29t35 -23t52.5 -9.5q24 0 47 9t42 24t32.5 33.5t17.5 38.5q4 21 -3 37t-22 28t-36 22t-43 19q-29 12 -57.5 25.5t-48.5 33.5t-29.5 47.5t-0.5 68.5
q5 22 15 41.5t23 35.5t26.5 27.5t25.5 18.5q-8 17 -10.5 35t5.5 54q7 32 25 62.5t46 54t65.5 38t82.5 14.5q25 0 45 -6t36 -16t27.5 -22t19.5 -25q-13 -11 -26.5 -30.5t-20.5 -36.5h-28zM339 244q7 32 -6 50t-54 38q-39 19 -64 32t-40 21.5t-23 13.5t-12 9
q-13 -11 -23.5 -26.5t-14.5 -32.5q-7 -32 11.5 -54t65.5 -44q53 -25 83.5 -41t45.5 -25q10 11 18.5 25t12.5 34z" />
    <glyph glyph-name="dieresis" unicode="&#xa8;" horiz-adv-x="376" 
d="M224 629q5 24 26 41.5t45 17.5t38.5 -17.5t9.5 -41.5t-27 -41.5t-46 -17.5t-37.5 17.5t-8.5 41.5zM32 629q5 24 26.5 41.5t45.5 17.5t38 -17.5t9 -41.5t-26.5 -41.5t-45.5 -17.5t-38 17.5t-9 41.5z" />
    <glyph glyph-name="copyright" unicode="&#xa9;" horiz-adv-x="775" 
d="M29 340q16 75 58 140t100.5 113.5t130 76.5t145.5 28t133.5 -28t97.5 -76.5t52.5 -113.5t-1.5 -140q-16 -74 -58 -139.5t-101 -114t-130.5 -76.5t-145.5 -28t-133 28t-97.5 76.5t-52.5 114t2 139.5zM684 340q13 63 1.5 118t-43 96t-80.5 65t-111 24t-121.5 -24
t-108.5 -65t-84 -96t-48 -118q-14 -62 -2.5 -117t43 -96t81 -65t111.5 -24t121.5 24t108.5 65t83.5 96t48.5 117zM161 338q13 60 42 105.5t69 75.5t88.5 45t100.5 15q49 0 85 -8.5t58 -24.5q-9 -13 -17 -29t-13 -33l-17 -2q-6 6 -14 15t-20 17t-28.5 13.5t-39.5 5.5
q-32 0 -64 -8.5t-60.5 -31t-51 -60.5t-34.5 -96q-8 -39 -4.5 -72.5t19.5 -58t43.5 -38.5t67.5 -14q19 0 39 5t38.5 13t34.5 17.5t27 17.5l24 -2q-11 -16 -16 -30.5t-7 -23.5q-11 -6 -28.5 -14t-38.5 -14.5t-45 -11t-48 -4.5q-53 0 -93 16.5t-65.5 46.5t-34 72.5t2.5 95.5z
" />
    <glyph glyph-name="ordfeminine" unicode="&#xaa;" horiz-adv-x="341" 
d="M81 639q24 11 53.5 22.5t69.5 11.5q18 0 37 -4t33.5 -15.5t21.5 -31.5t0 -51q-5 -20 -11 -43.5t-11 -44.5q-5 -17 -8 -31t-5 -23q-3 -14 -0.5 -19t6.5 -5q3 0 13.5 4.5l17.5 7.5l-8 -39q-11 -5 -26 -10t-33 -5q-17 0 -27.5 10t-12.5 23q-25 -17 -48.5 -25t-51.5 -8
q-17 0 -34 4t-29.5 13t-18.5 24.5t-1 39.5q8 40 34 60t89 31q30 5 47 8t26 5.5t11.5 5.5t3.5 7q8 41 -6.5 53t-39.5 12q-27 0 -47 -13t-28 -26h-28zM208 513q-8 -2 -17 -3.5t-17 -2.5q-14 -2 -27.5 -5.5t-25 -9.5t-20.5 -16t-12 -26q-4 -20 6 -30.5t29 -10.5q20 0 37.5 11
t31.5 22z" />
    <glyph glyph-name="guillemotleft" unicode="&#xab;" horiz-adv-x="361" 
d="M189 437q5 -14 16 -25t28 -13l-148 -164q17 -39 35.5 -84t35.5 -84q-16 -2 -33 -13t-26 -25l-86 207zM330 437q5 -14 16 -25t28 -13l-148 -164q17 -39 35 -84t35 -84q-15 -2 -32 -13t-26 -25l-86 207z" />
    <glyph glyph-name="logicalnot" unicode="&#xac;" horiz-adv-x="552" 
d="M455 315h-442l15 70h512l-59 -280h-70z" />
    <glyph glyph-name="registered" unicode="&#xae;" horiz-adv-x="775" 
d="M29 340q16 75 58 140t100.5 113.5t130 76.5t145.5 28t133.5 -28t97.5 -76.5t52.5 -113.5t-1.5 -140q-16 -74 -58 -139.5t-101 -114t-130.5 -76.5t-145.5 -28t-133 28t-97.5 76.5t-52.5 114t2 139.5zM89 340q-14 -62 -2.5 -117t43 -96t81 -65t111.5 -24t121.5 24t108.5 65
t83.5 96t48.5 117q13 63 1.5 118t-43 96t-80.5 65t-111 24t-121.5 -24t-108.5 -65t-84 -96t-48 -118zM267 432q7 33 13.5 72t8.5 70q45 -6 90 -6q9 0 18 0.5t20 1.5q10 1 20.5 2t20.5 1q28 0 51 -6.5t38 -19.5t21 -33.5t0 -47.5q-6 -29 -23 -51t-39 -37.5t-46 -26t-44 -14.5
q8 -11 14 -23.5t14 -26.5q12 -21 24.5 -43.5t24.5 -42.5t23 -36t21 -26l-5 -22q-27 7 -44 7q-18 0 -43 -5q-52 106 -114 209h-16l-13 -59q-8 -35 -14 -73.5t-11 -79.5q-30 8 -40 8q-12 0 -46 -8q2 7 6.5 21t6.5 21q8 26 15 53.5t13 53.5zM324 372q6 -2 13 -2h18
q46 0 83.5 20.5t48.5 68.5q7 34 -12 52.5t-54 18.5q-16 0 -30.5 -1t-28.5 -3q-6 -20 -12 -41.5t-11 -41.5z" />
    <glyph glyph-name="macron" unicode="&#xaf;" horiz-adv-x="360" 
d="M44 657h285l-15 -70h-285z" />
    <glyph glyph-name="degree" unicode="&#xb0;" horiz-adv-x="350" 
d="M23 522q6 31 24 59t42.5 48t54.5 32t62 12q31 0 56 -12t41 -32t22 -48t0 -59q-7 -32 -24.5 -59.5t-42.5 -47.5t-55.5 -32t-61.5 -12q-32 0 -56.5 12t-40.5 32t-22 47.5t1 59.5zM79 522q-9 -39 12.5 -67t61.5 -28q19 0 38 7.5t35 20.5t27 30t16 37q8 40 -14 67.5t-61 27.5
q-20 0 -39 -7.5t-34.5 -20t-26.5 -30t-15 -37.5z" />
    <glyph glyph-name="plusminus" unicode="&#xb1;" horiz-adv-x="522" 
d="M21 334h221l38 177h70l-38 -177h221l-15 -70h-221l-37 -177h-70l37 177h-221zM-34 70h511l-15 -70h-511z" />
    <glyph glyph-name="twosuperior" unicode="&#xb2;" horiz-adv-x="337" 
d="M75 606q32 35 66 51t76 16q29 0 52.5 -6.5t39 -20.5t21 -35t-0.5 -51q-5 -24 -15.5 -45t-35 -47t-68.5 -61t-116 -89h47t50 0.5t48.5 1.5t43.5 2q-11 -23 -13 -34q-3 -8 0 -36q-34 2 -74 4t-75 2q-34 0 -72.5 -2t-72.5 -4l6 29q12 10 24.5 19.5t23.5 18.5q45 35 82 65
t64 57.5t44.5 55.5t24.5 60q8 38 -6.5 55.5t-39.5 17.5q-18 0 -32 -6.5t-24.5 -15.5t-17.5 -19.5t-10 -19.5l-18 -2z" />
    <glyph glyph-name="threesuperior" unicode="&#xb3;" horiz-adv-x="325" 
d="M4 329h16q8 -11 26.5 -22.5t46.5 -11.5q41 0 70 24t37 59q4 21 1.5 35.5t-10.5 23.5t-19.5 12.5t-24.5 3.5q-10 0 -26.5 -3.5t-30.5 -7.5q14 24 15 31q2 6 1.5 15t-2.5 22q29 -14 45 -14q17 0 30 7t22 18.5t14.5 25t8.5 26.5q6 29 -7.5 43t-36.5 14q-22 0 -41.5 -12.5
t-30.5 -29.5l-17 -1l-12 43q20 14 49.5 28.5t74.5 14.5q25 0 46.5 -5.5t35.5 -17.5t19.5 -30t0.5 -43q-8 -35 -30.5 -58.5t-48.5 -37.5q14 -4 26.5 -11t21.5 -18.5t12.5 -28t-1.5 -38.5q-6 -30 -23.5 -54.5t-43.5 -42t-59.5 -27t-72.5 -9.5q-37 0 -63 7t-43 18z" />
    <glyph glyph-name="acute" unicode="&#xb4;" horiz-adv-x="282" 
d="M182 705q14 11 28 18.5t28 7.5q12 0 24.5 -10.5t8.5 -30.5q-5 -20 -20.5 -32.5t-29.5 -20.5q-42 -23 -84 -47t-82 -47h-65z" />
    <glyph glyph-name="mu" unicode="&#xb5;" horiz-adv-x="461" 
d="M183 -15q-23 0 -42 4t-34 15q-14 -66 -25.5 -129t-19.5 -138q-16 3 -28.5 5t-22.5 2q-8 0 -21 -2t-30 -5q8 34 16 71.5t16 67.5q8 40 19 89.5t22 100.5q15 71 27 129.5t23 111.5q4 20 8.5 43.5t9.5 47t9.5 45.5t8.5 39q34 -8 48 -8q16 0 53 8q-8 -29 -17.5 -63t-19 -71
t-18.5 -75t-16 -74q-11 -49 -8 -73.5t11 -37.5q11 -14 27.5 -23.5t42.5 -9.5q38 0 66.5 17t44.5 40q10 14 16.5 26t12.5 32t13.5 52.5t19.5 87.5q4 20 9 43t9.5 46t8.5 44.5t7 38.5q16 -4 28 -6t22 -2q18 0 52 8q-21 -76 -39 -153t-35 -155q-9 -43 -18 -91.5t-15 -90.5
q-30 8 -47 8q-16 0 -50 -8q4 16 7.5 26t6.5 22q1 4 1 8t1 9q-33 -34 -75.5 -53t-84.5 -19z" />
    <glyph glyph-name="paragraph" unicode="&#xb6;" horiz-adv-x="496" 
d="M419 620q-12 -2 -21.5 -4t-23.5 -4l-154 -724h-54l84 395q-62 1 -104.5 16.5t-66 43t-30 65.5t3.5 84q20 95 84 142t159 47h263l-9 -42l-76 -12l-157 -739h-54z" />
    <glyph glyph-name="periodcentered" unicode="&#xb7;" horiz-adv-x="183" 
d="M22 307q5 28 29 48t53 20q28 0 43.5 -20t10.5 -48q-7 -29 -31 -48.5t-52 -19.5q-29 0 -44.5 19.5t-8.5 48.5z" />
    <glyph glyph-name="cedilla" unicode="&#xb8;" horiz-adv-x="246" 
d="M18 -148q12 -6 30.5 -10t40.5 -4q21 0 36.5 7.5t19.5 23.5q3 16 -7 22.5t-27 6.5q-28 0 -45 -10l-12 17l69 114h52l-36 -67q5 1 13 1q43 0 62.5 -21.5t11.5 -56.5q-5 -23 -19 -40.5t-34 -29t-44 -17.5t-49 -6q-29 0 -53 7.5t-40 14.5z" />
    <glyph glyph-name="onesuperior" unicode="&#xb9;" horiz-adv-x="229" 
d="M145 596q-19 -8 -38.5 -17t-36.5 -17q-2 8 -8 14.5t-13 10.5l5 24q44 12 88 28.5t77 33.5h24q-11 -38 -22 -80.5t-19 -81.5l-20 -97q-8 -37 -16 -82t-14 -83q-13 4 -24 6.5t-17 2.5t-18 -2.5t-28 -6.5q11 39 22.5 83.5t19.5 81.5z" />
    <glyph glyph-name="ordmasculine" unicode="&#xba;" horiz-adv-x="395" 
d="M31 517q9 43 30 72.5t48 48t58.5 27t62.5 8.5q30 0 57.5 -8.5t47 -27t27.5 -48t-1 -72.5q-9 -42 -29.5 -71.5t-47.5 -48t-58 -26.5t-61 -8q-31 0 -59 8t-47.5 26.5t-28 48t0.5 71.5zM114 517q-4 -21 -4 -41t6 -35.5t20 -25.5t37 -10q22 0 40 10t31 25.5t21.5 35.5
t12.5 41t4.5 41.5t-6 36.5t-20 25.5t-35.5 9.5q-23 0 -41 -9.5t-31 -25.5t-22 -36.5t-13 -41.5z" />
    <glyph glyph-name="guillemotright" unicode="&#xbb;" horiz-adv-x="362" 
d="M204 402q16 2 33 13t26 25l86 -207l-178 -200q-5 14 -16 25t-28 13l148 163zM63 402q16 2 33 13t26 25l86 -207l-178 -200q-5 14 -16 25t-27 13l147 163z" />
    <glyph glyph-name="onequarter" unicode="&#xbc;" horiz-adv-x="762" 
d="M371 135q66 68 135.5 138.5t136.5 137.5q8 -2 15 -4t12 -2t16 2.5t22 5.5q-17 -62 -32 -126t-28 -127q23 1 63 11q-5 -11 -9.5 -21.5t-6.5 -15.5q-1 -3 -0.5 -13t1.5 -22q-17 3 -31.5 4t-28.5 2q-6 -27 -10.5 -57.5t-8.5 -56.5q-14 4 -24.5 6.5t-16.5 2.5q-5 0 -17 -2.5
t-27 -6.5q18 60 30 114q-28 0 -57 -0.5t-56 -1.5t-49.5 -1.5t-35.5 -1.5zM532 687q17 -7 26 -7t42 11l-434 -721q-19 8 -26 8q-5 0 -15.5 -3.5l-25.5 -8.5zM171 596q-19 -8 -38.5 -17t-36.5 -17q-2 8 -8 14.5t-12 10.5l5 24q43 12 87 28.5t77 33.5h24q-11 -38 -22 -80.5
t-19 -81.5l-20 -97q-8 -37 -16 -82t-13 -83q-14 4 -25 6.5t-16 2.5q-6 0 -18.5 -2.5t-27.5 -6.5q11 39 22 83.5t19 81.5zM607 314q-7 -7 -14 -13t-14 -13q-32 -31 -61 -63.5t-57 -64.5h113z" />
    <glyph glyph-name="onehalf" unicode="&#xbd;" horiz-adv-x="749" 
d="M468 348q32 35 65.5 51t75.5 16q29 0 52.5 -6.5t39 -20.5t21 -35t-0.5 -51q-5 -24 -15.5 -45t-35.5 -47t-68.5 -61t-115.5 -89h47t50 0.5t48.5 1.5t42.5 2q-5 -11 -8 -20t-5 -14q-1 -5 -1 -12.5t2 -23.5q-35 2 -74.5 4t-74.5 2q-34 0 -73 -2t-73 -4l6 29q11 10 24.5 20
t24.5 18q45 36 82 65.5t64 57t44 55.5t24 60q8 38 -6 55.5t-39 17.5q-18 0 -32 -6.5t-24.5 -15.5t-17.5 -19.5t-10 -19.5l-19 -2zM529 687q15 -7 26 -7q7 0 42 11l-434 -721q-19 8 -26 8q-5 0 -15.5 -3.5l-25.5 -8.5zM170 596q-18 -8 -37.5 -17t-37.5 -17q-2 8 -7.5 14.5
t-11.5 10.5l5 24q43 12 87 28.5t77 33.5h24q-11 -38 -22.5 -80.5t-19.5 -81.5l-20 -97q-8 -37 -15.5 -82t-12.5 -83q-14 4 -25 6.5t-17 2.5q-5 0 -17.5 -2.5t-27.5 -6.5q11 39 21.5 83.5t18.5 81.5z" />
    <glyph glyph-name="threequarters" unicode="&#xbe;" horiz-adv-x="803" 
d="M410 135q67 68 136 138.5t136 137.5q8 -2 15.5 -4t12.5 -2t16 2.5t22 5.5q-17 -62 -32 -126t-28 -127q24 1 62 11q-5 -11 -9.5 -21.5t-6.5 -15.5q-1 -3 -0.5 -13t1.5 -22q-17 3 -31 4l-28 2q-6 -27 -10.5 -57.5t-8.5 -56.5q-14 4 -24.5 6.5t-16.5 2.5t-18 -2.5t-27 -6.5
q18 60 30 114q-28 0 -57 -0.5t-56 -1.5t-49.5 -1.5t-35.5 -1.5zM30 329h16q8 -11 26 -22.5t46 -11.5q41 0 70 24t37 59q4 21 1.5 35.5t-10.5 23.5t-19.5 12.5t-24.5 3.5q-10 0 -26 -3.5t-30 -7.5q13 26 14 31q3 13 -1 37q16 -8 27 -11t17 -3q18 0 31 7t22 18.5t15 25t9 26.5
q6 29 -7.5 43t-36.5 14q-22 0 -42 -12.5t-30 -29.5l-17 -1l-12 43q20 14 49.5 28.5t74.5 14.5q51 0 80.5 -23.5t19.5 -72.5q-8 -35 -29.5 -58.5t-48.5 -37.5q14 -4 27 -11t22 -18.5t12 -28t-1 -38.5q-6 -30 -24 -54.5t-44 -42t-59.5 -27t-72.5 -9.5q-37 0 -62.5 7t-43.5 18z
M583 687q17 -7 26 -7t42 11l-434 -721q-19 8 -26 8q-5 0 -15.5 -3.5l-25.5 -8.5zM646 314q-7 -7 -14 -13t-14 -13q-32 -31 -61 -63.5t-57 -64.5h113z" />
    <glyph glyph-name="questiondown" unicode="&#xbf;" horiz-adv-x="286" 
d="M113 263q7 8 15.5 19t10.5 18q11 4 21 6t23 2t31.5 -6t33.5 -20t23.5 -36.5t1.5 -54.5q-6 -27 -19 -50t-30.5 -43t-38 -37.5t-40.5 -34.5q-35 -29 -64 -57.5t-37 -63.5q-4 -17 0 -30t12.5 -22t20.5 -13.5t26 -4.5q24 0 52.5 16t54.5 42l-6 -77q-25 -13 -54 -25t-65 -12
q-37 0 -63 11t-41 30t-20 44t1 53q6 30 20 55t32.5 46.5t40 40.5t43.5 37q35 29 63.5 57.5t36.5 60.5q3 16 -4 32t-27 16q-10 0 -20.5 -4t-15.5 -7zM158 424q6 26 29.5 45.5t49.5 19.5t41.5 -19.5t9.5 -45.5q-3 -13 -10.5 -25t-18.5 -21t-24 -14t-26 -5q-26 0 -41 19.5
t-10 45.5z" />
    <glyph glyph-name="Agrave" unicode="&#xc0;" horiz-adv-x="662" 
d="M410 698q9 -40 18.5 -87.5t19.5 -95.5q15 -75 32 -155t33 -152t29 -129.5t21 -86.5q-43 8 -66 8q-11 0 -26.5 -2t-34.5 -5q-3 51 -12 105t-20 105q-2 16 -5 27.5t-6 25.5q-29 1 -60 1.5t-60 0.5q-30 0 -56 -0.5t-56 -1.5q-45 -72 -84.5 -140.5t-65.5 -122.5
q-12 3 -22.5 5t-18.5 2q-9 0 -23 -2.5t-32 -6.5q115 172 234 353t230 354h31zM336 533q-36 -56 -68 -106t-69 -107q10 0 19.5 -0.5t19.5 -0.5q13 -1 26 -1h26h47.5t47.5 1zM289 804q-11 9 -21.5 21t-6.5 32q5 21 21.5 31t28.5 10q25 0 45 -26l125 -161h-66z" />
    <glyph glyph-name="Aacute" unicode="&#xc1;" horiz-adv-x="663" 
d="M401 698q9 -40 18.5 -87.5t19.5 -95.5q15 -75 32 -155t33 -152t29 -129.5t21 -86.5q-43 8 -66 8q-11 0 -26.5 -2t-34.5 -5q-3 51 -12 105t-20 105q-2 16 -5 27.5t-6 25.5q-29 1 -60 1.5t-60 0.5q-30 0 -56 -0.5t-56 -1.5q-45 -72 -84.5 -140.5t-65.5 -122.5
q-12 3 -22.5 5t-18.5 2q-9 0 -23 -2.5t-32 -6.5q115 172 234 353t230 354h31zM327 533q-36 -56 -68 -106t-69 -107q10 0 19.5 -0.5t19.5 -0.5q13 -1 26 -1h26h47.5t47.5 1zM486 872q32 26 57 26q12 0 24 -10t8 -31q-4 -20 -19.5 -32t-31.5 -21q-40 -23 -82 -46.5t-83 -46.5
h-66z" />
    <glyph glyph-name="Acircumflex" unicode="&#xc2;" horiz-adv-x="668" 
d="M409 698q9 -40 18.5 -87.5t18.5 -95.5q16 -75 33 -155t33 -152t29 -129.5t21 -86.5q-43 8 -66 8q-11 0 -26.5 -2t-35.5 -5q-2 51 -11.5 105t-19.5 105q-3 16 -6 27.5t-6 25.5q-29 1 -59.5 1.5t-59.5 0.5q-30 0 -56.5 -0.5t-56.5 -1.5q-44 -72 -84 -140.5t-66 -122.5
q-11 3 -21.5 5t-18.5 2q-9 0 -23 -2.5t-32 -6.5q114 172 233 353t231 354h31zM411 809q-33 -25 -67 -49.5t-66 -48.5h-59l172 181h75l96 -181h-60zM335 533q-36 -56 -68 -106t-69 -107q10 0 19.5 -0.5t19.5 -0.5q12 -1 25 -1h26h47.5t48.5 1z" />
    <glyph glyph-name="Atilde" unicode="&#xc3;" horiz-adv-x="662" 
d="M410 698l17.5 -87.5t19.5 -95.5q16 -75 33 -155t32.5 -152t29 -129.5t21.5 -86.5q-43 8 -67 8q-11 0 -26 -2t-35 -5q-3 51 -12 105t-19 105q-3 16 -6 27.5t-6 25.5q-29 1 -60 1.5t-60 0.5q-30 0 -56 -0.5t-56 -1.5q-44 -72 -84 -140.5t-66 -122.5q-11 3 -22 5t-19 2
q-9 0 -22.5 -2.5t-32.5 -6.5q115 172 234 353t231 354h31zM225 735q8 20 21 41.5t30 39t39 28.5t48 11q9 0 16.5 -1t15 -4t16.5 -7.5t22 -11.5q23 -12 34 -16.5t22 -4.5q18 0 32.5 14.5t24.5 33.5h48q-5 -14 -16.5 -34.5t-29 -40.5t-42 -34t-56.5 -14q-31 0 -70 23
q-22 13 -33 17.5t-21 4.5q-18 0 -28.5 -9.5t-24.5 -35.5h-48zM336 533q-36 -56 -68.5 -106t-69.5 -107q10 0 19.5 -0.5t19.5 -0.5q13 -1 26 -1h26h47.5t47.5 1z" />
    <glyph glyph-name="Adieresis" unicode="&#xc4;" horiz-adv-x="661" 
d="M410 698q9 -40 18 -87.5t19 -95.5q16 -75 33 -155t32.5 -152t29 -129.5t21.5 -86.5q-43 8 -66 8q-11 0 -26.5 -2t-35.5 -5q-2 51 -11.5 105t-19.5 105q-3 16 -6 27.5t-6 25.5q-29 1 -60 1.5t-60 0.5q-30 0 -56 -0.5t-56 -1.5q-44 -72 -84 -140.5t-66 -122.5
q-11 3 -21.5 5t-18.5 2q-9 0 -23 -2.5t-32 -6.5q114 172 233 353t231 354h31zM336 533q-36 -56 -68 -106t-69 -107q10 0 19 -0.5t19 -0.5q13 -1 26 -1h26h47.5t47.5 1zM446 796q5 24 26.5 42t45.5 18t38 -18t9 -42t-27 -41.5t-46 -17.5t-37.5 17.5t-8.5 41.5zM254 796
q5 24 27 42t46 18t37.5 -18t8.5 -42t-26.5 -41.5t-45.5 -17.5t-38 17.5t-9 41.5z" />
    <glyph glyph-name="Aring" unicode="&#xc5;" horiz-adv-x="667" 
d="M298 804q5 22 17.5 42t30.5 35t40 23.5t45 8.5q22 0 40 -8.5t30 -23.5t16.5 -35t-0.5 -42q-8 -39 -39 -69t-71 -38q8 -40 17.5 -87t19.5 -95q16 -75 33 -155t32.5 -152t29 -129.5t21.5 -86.5q-43 8 -67 8q-11 0 -26 -2t-35 -5q-3 51 -12 105t-19 105q-3 16 -6 27.5
t-6 25.5q-29 1 -60 1.5t-60 0.5q-30 0 -56 -0.5t-56 -1.5q-44 -72 -84 -140.5t-66 -122.5q-11 3 -22 5t-19 2q-9 0 -22.5 -2.5t-31.5 -6.5q113 171 232 351.5t230 352.5q-20 2 -36 11.5t-26.5 24t-14.5 33.5t1 40zM333 533q-36 -56 -68.5 -106t-69.5 -107q10 0 19.5 -0.5
t19.5 -0.5q13 -1 26 -1h26h47.5t47.5 1zM358 804q-4 -20 7.5 -34.5t31.5 -14.5t38 14.5t22 34.5q5 20 -6.5 34.5t-31.5 14.5t-38 -14.5t-23 -34.5z" />
    <glyph glyph-name="AE" unicode="&#xc6;" horiz-adv-x="829" 
d="M227 245q-54 -65 -100.5 -127t-90.5 -125q-14 3 -24.5 5t-16.5 2q-11 0 -28.5 -2.5t-40.5 -7.5q57 63 132 148.5t156 179t162 189t151 178.5q41 -2 83.5 -3t84.5 -1q41 0 88.5 1.5t87.5 3.5q-6 -13 -10.5 -23.5t-6.5 -16.5t-1.5 -17.5t2.5 -25.5q-17 3 -34 6.5t-43 5.5
t-64 3.5t-95 1.5q-1 -7 -3.5 -16t-4.5 -17l1 1q-9 -32 -16 -64t-15 -64l-14 -70q49 0 82 0.5t55 1.5t35.5 2t25.5 2q3 0 12 0.5t12 0.5q-13 -22 -16 -37q-3 -16 0 -37q-3 0 -12 0.5t-12 0.5q-11 1 -24.5 2t-35.5 2t-54 1.5t-81 0.5l-19 -89q-8 -36 -15 -72t-13 -72
q-2 -9 -3 -17.5t-4 -19.5q101 0 160 4.5t88 9.5q-7 -14 -11.5 -25t-5.5 -16q-2 -6 -1.5 -15.5t0.5 -23.5q-42 2 -89 4t-88 2q-42 0 -89.5 -2t-89.5 -4q20 67 34 126t26 119zM508 583q-62 -72 -118 -138.5t-118 -139.5q45 -2 87.5 -3t87.5 -3z" />
    <glyph glyph-name="Ccedilla" unicode="&#xc7;" horiz-adv-x="629" 
d="M269 -16q-65 10 -115 38t-81 73t-41 106.5t6 138.5q18 85 59.5 151.5t101 112.5t133 70t156.5 24q63 0 118.5 -15t95.5 -36q-12 -17 -22.5 -38.5t-16.5 -36.5q-1 -3 -2.5 -8t-1.5 -6l-20 -2q-8 11 -22 26t-34 28.5t-46.5 23t-59.5 9.5q-55 0 -106.5 -18t-94.5 -55
t-75 -94.5t-49 -135.5t-9 -135t35 -94t71 -55t99 -18q33 0 65 9t60 22t51 27.5t40 25.5l11 -14l-25 -65q-11 -8 -34 -18.5t-53 -20t-65 -16t-72 -6.5h-6l-9 -16.5t-9 -18.5h13q43 0 62.5 -21.5t11.5 -56.5q-5 -23 -19 -40.5t-33.5 -29t-43.5 -17.5t-49 -6q-29 0 -53.5 7.5
t-41.5 14.5l31 48q13 -5 31.5 -9.5t40.5 -4.5q21 0 37 7.5t19 23.5t-7 22.5t-27 6.5q-28 0 -45 -10l-13 18z" />
    <glyph glyph-name="Egrave" unicode="&#xc8;" horiz-adv-x="402" 
d="M35 425q14 63 25.5 131t22.5 130q44 -2 91 -3.5t91 -1.5t93.5 1.5t94.5 3.5q-13 -28 -15 -39q-1 -5 -1.5 -15.5t-0.5 -24.5q-14 1 -33 2.5t-30 2.5q-20 1 -40 2.5t-42.5 3t-50 2t-61.5 0.5q-2 -11 -4.5 -19t-4.5 -18q-9 -34 -19 -76q-5 -23 -8.5 -45t-8.5 -41l-7 -33
q83 0 139 3t103 8q-13 -32 -14 -41q-2 -5 -2.5 -15.5t-1.5 -24.5q-27 3 -60 5t-66.5 3t-63 1.5t-48.5 0.5q-1 -5 -2.5 -11.5t-3.5 -14.5q-4 -16 -8.5 -40t-13.5 -66q-11 -56 -17.5 -86.5t-10.5 -49.5q32 0 67.5 0.5t71 2t69.5 4.5t63 9q-6 -13 -9.5 -24.5t-5.5 -18.5
q-3 -11 -3 -39q-43 2 -92 4t-94 2t-93.5 -2t-94.5 -4q17 64 34 132.5t30 131.5zM168 804q-12 9 -23 21t-6 32q5 21 21.5 31t29.5 10q24 0 44 -26l126 -161h-67z" />
    <glyph glyph-name="Eacute" unicode="&#xc9;" horiz-adv-x="401" 
d="M24 425q14 63 25.5 131t22.5 130q44 -2 91 -3.5t91 -1.5t93.5 1.5t94.5 3.5q-13 -28 -15 -39q-1 -5 -1.5 -15.5t-0.5 -24.5q-14 1 -33 2.5t-30 2.5q-20 1 -40 2.5t-42.5 3t-50 2t-61.5 0.5q-2 -11 -4.5 -19t-4.5 -18q-9 -34 -19 -76q-5 -23 -8.5 -45t-8.5 -41l-7 -33
q83 0 139 3t103 8q-13 -32 -14 -41q-2 -5 -2.5 -15.5t-1.5 -24.5q-27 3 -60 5t-66.5 3t-63 1.5t-48.5 0.5q-1 -5 -2.5 -11.5t-3.5 -14.5q-4 -16 -8.5 -40t-13.5 -66q-11 -56 -17.5 -86.5t-10.5 -49.5q32 0 67.5 0.5t71 2t69.5 4.5t63 9q-6 -13 -9.5 -24.5t-5.5 -18.5
q-3 -11 -3 -39q-43 2 -92 4t-94 2t-93.5 -2t-94.5 -4q17 64 34 132.5t31 131.5zM362 872q14 12 28.5 19t28.5 7q12 0 24.5 -10t8.5 -31q-5 -20 -21 -32t-30 -21q-42 -23 -84 -46.5t-82 -46.5h-66z" />
    <glyph glyph-name="Ecircumflex" unicode="&#xca;" horiz-adv-x="408" 
d="M34 425q13 63 25 131t22 130q45 -2 92 -3.5t91 -1.5t93.5 1.5t93.5 3.5q-12 -29 -14 -39q-3 -11 -3 -40q-14 1 -33 2.5t-30 2.5q-20 1 -40 2.5t-42.5 3t-49.5 2t-61 0.5q-2 -11 -4.5 -19t-5.5 -19v1q-5 -17 -9 -35.5t-9 -40.5q-5 -23 -9 -45t-8 -41l-7 -33q42 0 76 1
t63 2.5t54 3.5t48 4l-8.5 -25.5t-5.5 -15.5q-1 -10 -3 -40q-27 3 -60 5t-66.5 3t-63 1.5t-48.5 0.5q-1 -5 -2.5 -11.5t-3.5 -14.5q-4 -16 -8.5 -40t-13.5 -66q-12 -56 -18.5 -86.5t-9.5 -49.5q32 0 67 0.5t70.5 2t69.5 4.5t63 9q-5 -13 -9 -24.5t-6 -18.5q-1 -5 -1.5 -15
t-0.5 -24q-43 2 -92.5 4t-94.5 2t-93 -2t-94 -4q17 64 33.5 132.5t30.5 131.5zM288 809q-33 -25 -67 -49.5t-66 -48.5h-59l173 181h75l95 -181h-60z" />
    <glyph glyph-name="Edieresis" unicode="&#xcb;" horiz-adv-x="407" 
d="M38 425q13 63 25 131t22 130q44 -2 91.5 -3.5t91.5 -1.5t93 1.5t94 3.5q-12 -29 -14 -39q-3 -11 -3 -40q-14 1 -33 2.5t-30 2.5q-20 1 -40 2.5t-42.5 3t-49.5 2t-61 0.5q-2 -11 -4.5 -19t-5.5 -19v1q-5 -17 -9 -35.5t-9 -40.5q-5 -23 -9 -45t-8 -41l-7 -33q42 0 76 1
t63 2.5t54 3.5t48 4l-8.5 -25.5t-5.5 -15.5q-1 -10 -3 -40q-27 3 -60.5 5t-66.5 3t-62.5 1.5t-48.5 0.5q-2 -5 -3.5 -11.5t-3.5 -14.5l-7.5 -40t-13.5 -66q-12 -56 -18.5 -86.5t-9.5 -49.5q32 0 67 0.5t70.5 2t69.5 4.5t63 9q-5 -13 -9 -24.5t-6 -18.5q-1 -5 -1.5 -15
t-0.5 -24q-43 2 -92.5 4t-94.5 2t-93 -2t-94 -4q17 64 33.5 132.5t29.5 131.5zM135 796q5 24 26.5 42t45.5 18t37.5 -18t8.5 -42t-26 -41.5t-45 -17.5t-38 17.5t-9 41.5zM326 796q5 24 26.5 42t45.5 18t38 -18t9 -42t-26.5 -41.5t-45.5 -17.5t-38 17.5t-9 41.5z" />
    <glyph glyph-name="Igrave" unicode="&#xcc;" horiz-adv-x="254" 
d="M107 424q14 63 25.5 131.5t22.5 131.5q33 -6 57 -6q23 0 59 6q-17 -63 -33.5 -131.5t-30.5 -131.5l-35 -167q-14 -63 -26 -132t-23 -132q-17 3 -31 5t-25 2t-26.5 -2t-33.5 -5q17 63 34 132t31 132zM116 804q-11 9 -22 21t-6 32q5 21 21.5 31t28.5 10q25 0 45 -26
l125 -161h-66z" />
    <glyph glyph-name="Iacute" unicode="&#xcd;" horiz-adv-x="253" 
d="M35 424q14 63 25.5 131.5t22.5 131.5q33 -6 57 -6q23 0 59 6q-17 -63 -33.5 -131.5t-30.5 -131.5l-35 -167q-14 -63 -26 -132t-23 -132q-17 3 -30.5 5t-24.5 2t-26.5 -2t-33.5 -5q17 63 34 132t30 132zM250 872q32 26 57 26q12 0 24 -10t8 -31q-5 -20 -20.5 -32
t-29.5 -21q-42 -23 -84 -46.5t-82 -46.5h-66z" />
    <glyph glyph-name="Icircumflex" unicode="&#xce;" horiz-adv-x="336" 
d="M113 424q13 63 25 131.5t23 131.5q33 -6 56 -6q24 0 60 6q-17 -63 -34 -131.5t-30 -131.5l-36 -167q-14 -63 -25.5 -132t-22.5 -132q-17 3 -31 5t-25 2t-26.5 -2t-33.5 -5q17 63 33.5 132t30.5 132zM245 809q-34 -25 -67.5 -49.5t-65.5 -48.5h-59l172 181h75l96 -181h-60
z" />
    <glyph glyph-name="Idieresis" unicode="&#xcf;" horiz-adv-x="319" 
d="M109 424q13 63 25 131.5t22 131.5q34 -6 57 -6q24 0 59 6q-16 -63 -33 -131.5t-30 -131.5l-36 -167q-14 -63 -25.5 -132t-22.5 -132q-17 3 -31.5 5t-25.5 2t-26 -2t-33 -5q17 63 33.5 132t30.5 132zM83 796q5 24 26.5 42t45.5 18t38 -18t9 -42t-26.5 -41.5t-45.5 -17.5
t-38 17.5t-9 41.5zM275 796q5 24 26 42t45 18t38.5 -18t9.5 -42t-27 -41.5t-46 -17.5t-37.5 17.5t-8.5 41.5z" />
    <glyph glyph-name="Eth" unicode="&#xd0;" horiz-adv-x="780" 
d="M139 424q14 63 25.5 131t22.5 131q35 -2 77 -3.5t78 -1.5q19 0 37 0.5t36 0.5l38 2t37 1q88 0 145.5 -23t88.5 -65.5t36.5 -104t-10.5 -138.5q-21 -100 -70 -168.5t-111.5 -111t-131 -61t-127.5 -18.5q-17 0 -33 0.5t-31 1.5q-16 1 -32.5 2t-32.5 1q-33 0 -70.5 -2
t-71.5 -4q17 63 34 131.5t31 131.5l21 98q-23 0 -48 -0.5t-51 -2.5q4 11 7 19.5t4 11.5q0 2 0.5 11t1.5 19q27 -2 50.5 -2.5t46.5 -0.5zM203 257q-11 -52 -20 -100t-17 -99q20 -4 51 -5.5t65 -1.5q52 0 106 12.5t102.5 46t86.5 92.5t58 152q18 82 9 134.5t-38 83t-75.5 42
t-103.5 11.5q-41 0 -77.5 -2.5t-65.5 -6.5q-13 -45 -24 -93t-22 -99l-3 -14q46 0 97 0.5t94 2.5q-13 -26 -13 -30q-3 -9 -1 -33q-45 2 -93 3.5t-95 1.5z" />
    <glyph glyph-name="Ntilde" unicode="&#xd1;" horiz-adv-x="661" 
d="M496 -18q-77 121 -167 247.5t-180 249.5l-19 27q-7 -28 -16 -69.5t-23 -104.5q-5 -20 -10.5 -50t-12 -64t-13 -69t-12 -66.5t-9.5 -55.5t-5 -36q-14 4 -24.5 6.5t-18.5 2.5q-15 0 -49 -8q5 13 13.5 42t18.5 66.5t22 81.5t23 88t20.5 85t16.5 73q10 46 18.5 87.5
t15.5 76.5t12 62t8 44h30q8 -11 17 -24t17 -25q44 -62 90 -127t90 -126t84 -115t72 -95q13 63 27 129.5t27 131.5t24 126.5t20 115.5q29 -8 42 -8q12 0 44 8q-8 -24 -20.5 -70t-26 -96.5t-25 -98t-17.5 -74.5q-5 -25 -12 -58.5t-15 -71t-15.5 -75t-14.5 -70.5t-12 -57.5
t-7 -35.5h-28zM240 735q8 20 21 41.5t30.5 39t39.5 28.5t48 11q9 0 16.5 -1t15 -4t16.5 -7.5t22 -11.5q23 -12 33.5 -16.5t21.5 -4.5q19 0 33.5 14.5t25.5 33.5h48q-5 -14 -16.5 -34.5t-29.5 -40.5t-42.5 -34t-56.5 -14q-31 0 -70 23q-21 13 -32.5 17.5t-20.5 4.5
q-19 0 -29.5 -9.5t-25.5 -35.5h-48z" />
    <glyph glyph-name="Ograve" unicode="&#xd2;" horiz-adv-x="793" 
d="M3 340q18 85 59.5 151.5t100.5 112.5t132.5 70t156.5 24t146.5 -24t103.5 -70t53 -112.5t-5 -151.5t-59.5 -151.5t-100.5 -112.5t-133 -70t-157 -24t-146 24t-102.5 70t-53 112.5t4.5 151.5zM636 340q17 78 9 135.5t-35 94.5t-70.5 55t-98.5 18t-106 -18t-94 -55
t-75 -94.5t-49 -135.5t-9 -135t35 -94t70.5 -55t98.5 -18t106.5 18t94 55t74.5 94t49 135zM353 804q-11 9 -22 21t-6 32q5 21 21.5 31t28.5 10q25 0 45 -26l125 -161h-66z" />
    <glyph glyph-name="Oacute" unicode="&#xd3;" horiz-adv-x="793" 
d="M0 340q18 85 59 151.5t100 112.5t132.5 70t156.5 24t146.5 -24t103.5 -70t53 -112.5t-5 -151.5t-59.5 -151.5t-100.5 -112.5t-133 -70t-157 -24t-146 24t-102.5 70t-52.5 112.5t5 151.5zM632 340q17 78 9 135.5t-35 94.5t-70.5 55t-98.5 18t-106 -18t-94 -55t-75 -94.5
t-49 -135.5t-9 -135t35 -94t70.5 -55t98.5 -18t106.5 18t94 55t74.5 94t49 135zM555 872q32 26 57 26q12 0 24 -10t8 -31q-5 -20 -20.5 -32t-30.5 -21q-41 -23 -83 -46.5t-82 -46.5h-66z" />
    <glyph glyph-name="Ocircumflex" unicode="&#xd4;" horiz-adv-x="797" 
d="M4 340q18 85 59.5 151.5t100.5 112.5t132.5 70t156.5 24t146.5 -24t103.5 -70t53 -112.5t-5 -151.5t-59.5 -151.5t-100.5 -112.5t-133 -70t-157 -24t-146 24t-102.5 70t-53 112.5t4.5 151.5zM637 340q16 78 8.5 135.5t-34.5 94.5t-71 55t-99 18t-106 -18t-94 -55
t-75 -94.5t-48 -135.5q-17 -78 -9 -135t35 -94t70.5 -55t98.5 -18t106 18t94 55t75 94t49 135zM477 809q-33 -25 -67 -49.5t-66 -48.5h-59l172 181h75l96 -181h-60z" />
    <glyph glyph-name="Otilde" unicode="&#xd5;" horiz-adv-x="797" 
d="M7 340q18 85 60 151.5t101 112.5t132.5 70t156.5 24t146.5 -24t103 -70t52.5 -112.5t-5 -151.5t-59.5 -151.5t-100.5 -112.5t-133 -70t-157 -24t-146 24t-102.5 70t-53 112.5t4.5 151.5zM640 340q17 78 9 135.5t-35 94.5t-70.5 55t-98.5 18t-106 -18t-94 -55t-75 -94.5
t-49 -135.5t-9 -135t35 -94t70.5 -55t98.5 -18t106.5 18t94 55t74.5 94t49 135zM293 735q8 20 21 41.5t30.5 39t39.5 28.5t48 11q9 0 16.5 -1t15 -4t16.5 -7.5t22 -11.5q23 -12 33.5 -16.5t21.5 -4.5q18 0 33 14.5t25 33.5h48q-5 -14 -16.5 -34.5t-29.5 -40.5t-42.5 -34
t-56.5 -14q-30 0 -69 23q-22 13 -33 17.5t-21 4.5q-18 0 -29 -9.5t-25 -35.5h-48z" />
    <glyph glyph-name="Odieresis" unicode="&#xd6;" horiz-adv-x="797" 
d="M8 340q18 85 59.5 151.5t100.5 112.5t132.5 70t156.5 24t146.5 -24t103.5 -70t53 -112.5t-5 -151.5t-59.5 -151.5t-100.5 -112.5t-133 -70t-157 -24t-146 24t-102.5 70t-53 112.5t4.5 151.5zM641 340q16 78 8.5 135.5t-34.5 94.5t-71 55t-99 18t-106 -18t-94 -55
t-75 -94.5t-48 -135.5q-17 -78 -9 -135t35 -94t70.5 -55t98.5 -18t106 18t94 55t75 94t49 135zM515 796q5 24 26 42t45 18t38.5 -18t9.5 -42t-27 -41.5t-46 -17.5t-37.5 17.5t-8.5 41.5zM323 796q5 24 26.5 42t45.5 18t38 -18t9 -42t-26.5 -41.5t-45.5 -17.5t-38 17.5
t-9 41.5z" />
    <glyph glyph-name="multiply" unicode="&#xd7;" horiz-adv-x="518" 
d="M209 256q-34 43 -70 89.5t-70 90.5l59 48l141 -179q52 44 108.5 90t109.5 89l38 -48l-216 -180l140 -179l-59 -50l-142 179l-217 -179l-37 50z" />
    <glyph glyph-name="Oslash" unicode="&#xd8;" horiz-adv-x="809" 
d="M31 340q18 85 59.5 151.5t100.5 112.5t132.5 70t156.5 24q139 0 218 -65q11 10 26.5 24.5t31.5 30t29 29.5t20 23q6 -11 16.5 -22t21.5 -19q-9 -6 -23.5 -17.5t-31 -25t-32.5 -27t-28 -24.5q41 -47 54.5 -113t-4.5 -152q-18 -85 -59.5 -151.5t-100.5 -112.5t-133 -70
t-157 -24q-67 0 -121.5 16.5t-94.5 47.5q-12 -11 -26.5 -24t-29.5 -27.5t-29 -29.5t-25 -29q-12 25 -37 41q10 6 24.5 17.5t30 25.5t31.5 28.5t30 26.5q-86 92 -50 265zM635 576q-27 35 -69.5 51t-97.5 16t-106 -18t-94 -55t-75 -94.5t-48 -135.5q-14 -65 -11 -114.5
t20 -85.5zM176 104q27 -32 69.5 -49t94.5 -17q55 0 106.5 18t94 55t74.5 94t49 135q14 63 11 112.5t-19 86.5z" />
    <glyph glyph-name="Ugrave" unicode="&#xd9;" horiz-adv-x="643" 
d="M522 360q15 69 26.5 122t19 92.5t11.5 67t5 46.5q15 -4 28 -5.5t23 -1.5q14 0 40 8q-10 -34 -23 -83.5t-27.5 -105.5t-29 -115.5t-26.5 -112.5q-15 -67 -46 -120.5t-75.5 -91t-102 -58t-125.5 -20.5q-150 0 -203.5 70.5t-22.5 217.5q5 24 10.5 45t10.5 41q5 17 8.5 34
t7.5 34q14 69 24.5 126t18.5 99q2 8 4 20.5t3 17.5q16 -3 32 -4.5t28 -1.5q9 0 23 1.5t30 5.5q-8 -23 -17.5 -59.5t-21 -82t-23 -97.5t-23.5 -107q-7 -32 -13.5 -66t-7.5 -67t5 -62t24.5 -51t51 -35t84.5 -13q76 0 124 32t77 79.5t44 101.5t24 99zM281 804q-11 9 -22 21
t-6 32q5 21 21.5 31t28.5 10q25 0 45 -26l125 -161h-66z" />
    <glyph glyph-name="Uacute" unicode="&#xda;" horiz-adv-x="642" 
d="M515 360q15 69 26.5 122t19 92.5t11.5 67t5 46.5q15 -4 28 -5.5t23 -1.5q14 0 40 8q-10 -34 -23 -83.5t-27.5 -105.5t-29 -115.5t-26.5 -112.5q-15 -67 -46 -120.5t-75.5 -91t-102 -58t-125.5 -20.5q-150 0 -203.5 70.5t-22.5 217.5q5 24 10.5 45t10.5 41q5 17 8.5 34
t7.5 34q14 69 24.5 126t18.5 99q2 8 4 20.5t3 17.5q16 -3 32 -4.5t28 -1.5q9 0 23 1.5t30 5.5q-8 -23 -17.5 -59.5t-21 -82t-23 -97.5t-23.5 -107q-7 -32 -13.5 -66t-7.5 -67t5 -62t24.5 -51t51 -35t84.5 -13q76 0 124 32t77 79.5t44 101.5t24 99zM480 872q32 26 57 26
q12 0 24 -10t8 -31q-5 -20 -20.5 -32t-30.5 -21q-41 -23 -83 -46.5t-82 -46.5h-66z" />
    <glyph glyph-name="Ucircumflex" unicode="&#xdb;" horiz-adv-x="647" 
d="M522 360q15 69 26 122t18.5 92.5t12 67t5.5 46.5q28 -7 50 -7q6 0 17.5 2t23.5 6q-10 -34 -23 -83.5t-27.5 -105.5t-29.5 -115.5t-27 -112.5q-15 -67 -45.5 -120.5t-75 -91t-102 -58t-125.5 -20.5q-150 0 -203.5 70.5t-22.5 217.5q5 24 10 45t10 41q5 17 9 34l8 34
q14 69 24.5 126t18.5 99q2 8 3.5 20.5t3.5 17.5q16 -3 31.5 -4.5t27.5 -1.5q9 0 23.5 1.5t30.5 5.5q-8 -23 -18 -59.5t-21 -82t-23 -97.5t-24 -107q-7 -32 -13 -66t-7.5 -67t5 -62t25 -51t51 -35t84.5 -13q76 0 124 32t77 79.5t44 101.5t24 99zM404 809q-33 -25 -67 -49.5
t-66 -48.5h-59l172 181h75l96 -181h-60z" />
    <glyph glyph-name="Udieresis" unicode="&#xdc;" horiz-adv-x="648" 
d="M526 360q15 69 26 122t18.5 92.5t12 67t5.5 46.5q28 -7 50 -7q6 0 17.5 2t23.5 6q-10 -34 -23.5 -83.5t-28 -105.5t-29 -115.5t-26.5 -112.5q-15 -67 -46 -120.5t-75.5 -91t-101.5 -58t-125 -20.5q-150 0 -204 70.5t-22 217.5q5 24 10 45t10 41q5 17 9 34l8 34
q14 69 24 126t18 99q2 8 4 20.5t3 17.5q17 -3 32.5 -4.5t27.5 -1.5q9 0 23.5 1.5t30.5 5.5q-8 -23 -18 -59.5t-21.5 -82t-23 -97.5t-23.5 -107q-7 -32 -13 -66t-7.5 -67t5 -62t25 -51t51 -35t84.5 -13q76 0 124 32t77 79.5t44 101.5t24 99zM250 796q5 24 26.5 42t45.5 18
t38 -18t9 -42t-26.5 -41.5t-45.5 -17.5t-38 17.5t-9 41.5zM442 796q5 24 26 42t45 18t38.5 -18t9.5 -42t-27 -41.5t-46 -17.5t-37.5 17.5t-8.5 41.5z" />
    <glyph glyph-name="Yacute" unicode="&#xdd;" horiz-adv-x="582" 
d="M135 -7q21 65 37.5 137.5t32.5 147.5q-6 17 -18.5 50.5t-28 74t-32.5 84.5t-33 84t-28.5 71.5t-19.5 46.5q23 -4 42.5 -6t30.5 -2q14 0 29 1t32 4q24 -83 50.5 -162t58.5 -166q29 34 61 74.5t64 83t63 86t60 85.5q25 -6 42 -6q21 0 60 9q-63 -74 -114 -133.5
t-91.5 -108.5t-71.5 -88t-54 -71q-8 -36 -16 -77t-15.5 -81.5t-14 -76.5t-9.5 -61q-17 3 -31 5t-25 2q-12 0 -27.5 -2t-33.5 -5zM448 862q14 12 28.5 19.5t28.5 7.5q12 0 24 -10.5t8 -30.5q-5 -20 -20.5 -32.5t-30.5 -21.5q-41 -23 -83 -46.5t-82 -46.5h-66z" />
    <glyph glyph-name="Thorn" unicode="&#xde;" horiz-adv-x="474" 
d="M64 424q13 63 24.5 131.5t21.5 131.5q36 -6 58 -6q11 0 26.5 1.5t32.5 4.5q-9 -32 -19 -64.5t-17 -64.5h110q102 0 152 -42.5t30 -136.5q-12 -57 -42 -94t-70.5 -59t-86.5 -31t-91 -9q-26 0 -43 0.5t-37 2.5l-10 -44q-4 -21 -8 -42.5t-7 -41.5t-4.5 -38t-0.5 -31
q-40 8 -60 8q-11 0 -25.5 -2t-33.5 -5q17 63 33.5 132t30.5 132zM124 243q13 -2 30.5 -2h35.5q30 0 59.5 8t54.5 25t43.5 43t26.5 61q5 22 2.5 44.5t-16 40.5t-39 29t-65.5 11h-77z" />
    <glyph glyph-name="germandbls" unicode="&#xdf;" horiz-adv-x="518" 
d="M46 404q7 31 11 54.5t7 40.5q2 8 2.5 13.5t1.5 9.5q13 63 42.5 106.5t65.5 71.5t75.5 40.5t72.5 12.5q24 0 49 -8.5t44 -24t29.5 -37.5t4.5 -49q-10 -45 -39.5 -78t-61.5 -62q-20 -19 -37.5 -36.5t-21.5 -34.5q-5 -26 15.5 -46.5t47.5 -40.5q18 -14 37 -29.5t33 -34.5
t20.5 -42t0.5 -53q-7 -34 -31 -68t-57.5 -61.5t-73.5 -45t-79 -17.5q-34 0 -60 8.5t-45 20.5q12 14 22 34t16 37h19q7 -18 29.5 -31t50.5 -13q18 0 36.5 6.5t34 18.5t27.5 29.5t17 38.5q4 22 -1 39.5t-16.5 33t-27.5 29t-32 26.5q-17 13 -32.5 26t-26.5 28.5t-16 33t0 39.5
q6 29 29.5 54t52.5 51q32 28 60.5 59t36.5 69q8 35 -10 58t-59 23q-62 0 -95 -48t-53 -142l-48 -228q-7 -34 -15 -73.5t-15.5 -79t-14 -76t-10.5 -64.5q-35 8 -52 8q-16 0 -56 -8q9 28 18.5 64.5t18.5 76l18 79t16 73.5z" />
    <glyph glyph-name="agrave" unicode="&#xe0;" horiz-adv-x="463" 
d="M81 428q55 35 97 48t82 13q75 0 112 -42t23 -112q-12 -54 -25.5 -109t-26.5 -117l-4 -22t-1.5 -20t5 -14.5t15.5 -5.5q3 0 9 1.5t24 9.5l-10 -44q-14 -6 -34.5 -12t-40.5 -6q-30 0 -45.5 14t-17.5 37q-40 -32 -76 -47t-84 -15q-26 0 -49 9t-38.5 26t-22 41t-0.5 54
q13 63 59 97.5t115 45.5q52 8 81 14t43.5 12t19 13.5t7.5 18.5q4 22 3.5 42.5t-9 36.5t-24.5 25t-43 9q-36 0 -72 -17.5t-59 -48.5h-26zM281 236q-11 -2 -22.5 -4.5t-23.5 -4.5q-25 -4 -51 -9.5t-48.5 -16t-39 -28t-22.5 -45.5q-9 -41 9.5 -61.5t47.5 -20.5q34 0 65.5 18.5
t52.5 41.5zM174 637q-12 8 -23 20.5t-6 32.5t21.5 30.5t28.5 10.5q14 0 24.5 -7.5t20.5 -18.5l125 -162h-66z" />
    <glyph glyph-name="aacute" unicode="&#xe1;" horiz-adv-x="459" 
d="M66 428q55 35 97 48t82 13q75 0 112 -42t23 -112q-12 -54 -25.5 -109t-26.5 -117l-4 -22t-1.5 -20t5 -14.5t15.5 -5.5q3 0 9 1.5t24 9.5l-10 -44q-14 -6 -34.5 -12t-40.5 -6q-30 0 -45.5 14t-17.5 37q-40 -32 -76 -47t-84 -15q-26 0 -49 9t-38.5 26t-22 41t-0.5 54
q13 63 59 97.5t115 45.5q52 8 81 14t43.5 12t19 13.5t7.5 18.5q4 22 3.5 42.5t-9 36.5t-24.5 25t-43 9q-36 0 -72 -17.5t-59 -48.5h-26zM266 236q-11 -2 -22.5 -4.5t-23.5 -4.5q-25 -4 -51 -9.5t-48.5 -16t-39 -28t-22.5 -45.5q-9 -41 9.5 -61.5t47.5 -20.5q34 0 65.5 18.5
t52.5 41.5zM364 705q14 11 28.5 18.5t28.5 7.5q12 0 24 -10.5t8 -30.5q-5 -20 -20.5 -32.5t-29.5 -20.5q-42 -23 -84 -47t-82 -47h-66z" />
    <glyph glyph-name="acircumflex" unicode="&#xe2;" horiz-adv-x="466" 
d="M77 428q55 35 97 48t82 13q75 0 112 -42t22 -112q-11 -54 -24.5 -109t-27.5 -117l-4 -22t-1 -20t5.5 -14.5t15.5 -5.5q3 0 9 1.5t23 9.5l-9 -44q-15 -6 -35.5 -12t-40.5 -6q-30 0 -45 14t-17 37q-40 -32 -76 -47t-84 -15q-26 0 -49 9t-39 26t-22.5 41t-0.5 54
q14 63 60 97.5t115 45.5q51 8 80 14t44 12t19.5 13.5t6.5 18.5q5 22 4 42.5t-9 36.5t-24.5 25t-43.5 9q-36 0 -71.5 -17.5t-59.5 -48.5h-26zM292 642q-34 -25 -68 -49.5t-66 -49.5h-59l173 182h75l95 -182h-60zM276 236q-10 -2 -21.5 -4.5t-24.5 -4.5q-24 -4 -50 -9.5
t-48.5 -16t-39.5 -28t-23 -45.5q-8 -41 10.5 -61.5t47.5 -20.5q34 0 65.5 18.5t52.5 41.5z" />
    <glyph glyph-name="atilde" unicode="&#xe3;" horiz-adv-x="473" 
d="M85 428q55 35 97 48t82 13q75 0 112 -42t22 -112q-11 -54 -25 -109t-27 -117l-4 -22t-1 -20t5.5 -14.5t15.5 -5.5q3 0 9 1.5t23 9.5l-9 -44q-15 -6 -35.5 -12t-40.5 -6q-30 0 -45 14t-17 37q-40 -32 -76.5 -47t-84.5 -15q-26 0 -49 9t-38.5 26t-22 41t-0.5 54
q14 63 59.5 97.5t114.5 45.5q52 8 81 14t43.5 12t19 13.5t7.5 18.5q5 22 4 42.5t-9 36.5t-24.5 25t-43.5 9q-36 0 -71.5 -17.5t-59.5 -48.5h-26zM284 236q-23 -5 -46 -9q-24 -4 -50 -9.5t-48.5 -16t-39.5 -28t-23 -45.5q-9 -41 9.5 -61.5t47.5 -20.5q34 0 66 18.5t52 41.5z
M112 568q8 20 21 41t30.5 38.5t39.5 28.5t48 11q9 0 16.5 -1t15 -3.5t16.5 -7t22 -11.5q23 -13 33.5 -17t21.5 -4q18 0 33 14.5t26 33.5h47q-5 -14 -16.5 -35t-29.5 -40.5t-42.5 -33.5t-55.5 -14t-70 23q-21 13 -32.5 17t-21.5 4q-18 0 -29 -9t-25 -35h-48z" />
    <glyph glyph-name="adieresis" unicode="&#xe4;" horiz-adv-x="471" 
d="M84 428q55 35 97 48t82 13q75 0 112 -42t22 -112q-11 -54 -24.5 -109t-27.5 -117l-4 -22t-1 -20t5.5 -14.5t15.5 -5.5q3 0 9 1.5t23 9.5l-9 -44q-15 -6 -35.5 -12t-40.5 -6q-30 0 -45 14t-17 37q-40 -32 -76 -47t-84 -15q-26 0 -49 9t-38.5 26t-22 41t-0.5 54
q13 63 59 97.5t115 45.5q51 8 80 14t44 12t19.5 13.5t6.5 18.5q5 22 4 42.5t-9 36.5t-24.5 25t-43.5 9q-36 0 -71.5 -17.5t-59.5 -48.5h-26zM283 236q-10 -2 -21.5 -4.5t-24.5 -4.5q-24 -4 -50 -9.5t-48.5 -16t-39.5 -28t-23 -45.5q-8 -41 10.5 -61.5t47.5 -20.5
q34 0 65.5 18.5t52.5 41.5zM333 629q5 24 26 41.5t45 17.5t38.5 -17.5t9.5 -41.5t-27 -41.5t-46 -17.5t-37.5 17.5t-8.5 41.5zM141 629q5 24 26.5 41.5t45.5 17.5t38 -17.5t9 -41.5t-26.5 -41.5t-45.5 -17.5t-38 17.5t-9 41.5z" />
    <glyph glyph-name="aring" unicode="&#xe5;" horiz-adv-x="465" 
d="M75 428q55 35 97 48t82 13q75 0 112 -42t22 -112q-11 -54 -24.5 -109t-27.5 -117l-4 -22t-1 -20t5.5 -14.5t15.5 -5.5q3 0 9 1.5t23 9.5l-9 -44q-15 -6 -35.5 -12t-40.5 -6q-30 0 -45 14t-17 37q-40 -32 -76 -47t-84 -15q-26 0 -49 9t-39 26t-22.5 41t-0.5 54
q14 63 60 97.5t115 45.5q51 8 80 14t44 12t19.5 13.5t6.5 18.5q5 22 4 42.5t-9 36.5t-24.5 25t-43.5 9q-36 0 -71.5 -17.5t-59.5 -48.5h-26zM179 637q5 22 17.5 42t30.5 35t40 23.5t45 8.5q22 0 40 -8.5t30 -23.5t16.5 -35t-0.5 -42q-5 -23 -17.5 -42.5t-30.5 -34.5
t-40 -23.5t-45 -8.5q-22 0 -40 8.5t-29.5 23.5t-16.5 34.5t0 42.5zM274 236q-23 -5 -46 -9q-24 -4 -50 -9.5t-48.5 -16t-39.5 -28t-23 -45.5q-8 -41 10.5 -61.5t47.5 -20.5q34 0 65.5 18.5t51.5 41.5zM239 637q-4 -20 7.5 -34.5t31.5 -14.5t38 14.5t22 34.5q5 20 -6.5 34
t-31.5 14t-38 -14t-23 -34z" />
    <glyph glyph-name="ae" unicode="&#xe6;" horiz-adv-x="784" 
d="M118 428q55 35 97 48t82 13q16 0 34 -3t35.5 -10.5t34 -20.5t28.5 -33q34 32 74.5 49.5t87.5 17.5q54 0 90 -16.5t56 -45t25 -66.5t-4 -80q-2 -10 -6.5 -24t-6.5 -24q-17 0 -40 0.5t-40 0.5q-35 1 -68.5 1.5t-68.5 0.5q-21 0 -42 -0.5t-43 -1.5q-11 0 -17 -0.5t-17 -0.5
l-4 -17q-8 -36 -4 -67t19.5 -54t42.5 -36t65 -13q18 0 39 5.5t42.5 15.5t42 23.5t37.5 29.5l12 -15l-18 -55q-38 -26 -88.5 -45.5t-97.5 -19.5q-65 0 -111.5 27.5t-64.5 75.5q-14 -20 -33 -38.5t-43.5 -33t-55.5 -23t-69 -8.5q-26 0 -49 9t-39 26t-22.5 41t-0.5 54
q13 63 59.5 97.5t115.5 45.5q51 8 80 14t44 12t19.5 13.5t6.5 18.5q5 22 4 42.5t-9 36.5t-24.5 25t-43.5 9q-36 0 -71.5 -17.5t-59.5 -48.5h-26zM582 438q-32 0 -57 -14t-44.5 -35.5t-33.5 -48t-22 -50.5q8 0 14 -0.5t14 -0.5q21 -1 43.5 -1.5t43.5 -0.5q22 0 45 0.5t46 1.5
q11 0 15.5 0.5t14.5 0.5q4 24 5 50t-6.5 48t-26 36t-51.5 14zM110 128q-8 -37 9.5 -59.5t55.5 -22.5q18 0 36.5 6t35 17.5t29.5 29t19 40.5q4 14 7.5 32.5t7.5 33.5q2 11 3.5 15.5t3.5 15.5q-10 -2 -21.5 -4.5t-24.5 -4.5q-24 -4 -50 -9.5t-48.5 -16t-39.5 -28t-23 -45.5z
" />
    <glyph glyph-name="ccedilla" unicode="&#xe7;" horiz-adv-x="473" 
d="M116 -148q12 -6 30.5 -10t41.5 -4q20 0 35.5 7.5t19.5 23.5q3 16 -7 22.5t-27 6.5q-29 0 -44 -10l-13 17l49 83q-39 4 -73 20.5t-57 47t-31 75t5 106.5q14 66 46 113.5t75 78t92.5 45.5t98.5 15q55 0 97.5 -15.5t59.5 -35.5q-25 -36 -41 -75h-22q-4 12 -12.5 25.5
t-21.5 24.5t-30 18t-38 7q-42 0 -74.5 -15t-57 -42t-41.5 -63.5t-26 -79.5q-20 -95 10.5 -143.5t108.5 -48.5q18 0 38.5 5.5t41.5 15.5t41.5 23.5t37.5 29.5l14 -15l-10 -28t-9 -27q-16 -12 -36.5 -22.5t-42.5 -19t-44.5 -14.5t-43.5 -8q-6 -11 -8.5 -15.5t-9.5 -17.5h12
q43 0 62.5 -21.5t11.5 -56.5q-5 -23 -19 -40.5t-33.5 -29t-44 -17.5t-49.5 -6q-29 0 -53 7.5t-41 14.5z" />
    <glyph glyph-name="egrave" unicode="&#xe8;" horiz-adv-x="475" 
d="M-7 224q13 61 38.5 110t62.5 83.5t84 53t103 18.5q54 0 90 -16.5t56 -45t25 -66.5t-4 -80q-2 -10 -6 -24t-7 -24q-18 0 -40.5 0.5t-39.5 0.5q-35 1 -68 1.5t-68 0.5q-21 0 -42.5 -0.5t-43.5 -1.5q-11 0 -17 -0.5t-17 -0.5l-4 -17q-8 -36 -4 -67t19.5 -54t42.5 -36t65 -13
q18 0 38.5 5.5t42 15.5t42.5 23.5t38 29.5l13 -15l-20 -55q-37 -26 -87.5 -45.5t-97.5 -19.5q-55 0 -96 18t-66.5 50.5t-34 76t2.5 94.5zM273 438q-32 0 -57.5 -14t-45 -35.5t-33.5 -48t-22 -50.5q8 0 14 -0.5t13 -0.5q23 -1 45 -1.5t43 -0.5q22 0 45 0.5t46 1.5
q11 0 15.5 0.5t13.5 0.5q5 24 6.5 50t-6 48t-26 36t-51.5 14zM193 637q-11 8 -22.5 20.5t-6.5 32.5t22 30.5t29 10.5q14 0 24.5 -7.5t20.5 -18.5l125 -162h-66z" />
    <glyph glyph-name="eacute" unicode="&#xe9;" horiz-adv-x="477" 
d="M-18 224q13 61 38.5 110t62.5 83.5t84 53t103 18.5q54 0 90 -16.5t56 -45t25 -66.5t-4 -80q-2 -10 -6 -24t-7 -24q-18 0 -40.5 0.5t-39.5 0.5q-35 1 -68 1.5t-68 0.5q-21 0 -42.5 -0.5t-43.5 -1.5q-11 0 -17 -0.5t-17 -0.5l-4 -17q-8 -36 -4 -67t19.5 -54t42.5 -36
t65 -13q18 0 38.5 5.5t42 15.5t42.5 23.5t38 29.5l13 -15l-20 -55q-37 -26 -87.5 -45.5t-97.5 -19.5q-55 0 -96 18t-66.5 50.5t-34 76t2.5 94.5zM262 438q-32 0 -57.5 -14t-45 -35.5t-33.5 -48t-22 -50.5q8 0 14 -0.5t13 -0.5q23 -1 45 -1.5t43 -0.5q22 0 45 0.5t46 1.5
q11 0 15.5 0.5t13.5 0.5q5 24 6.5 50t-6 48t-26 36t-51.5 14zM388 705q14 11 28.5 18.5t27.5 7.5t25 -10.5t8 -30.5q-5 -20 -20.5 -32.5t-30.5 -20.5q-42 -23 -83.5 -47t-82.5 -47h-66z" />
    <glyph glyph-name="ecircumflex" unicode="&#xea;" horiz-adv-x="481" 
d="M-9 224q12 61 38 110t62.5 83.5t84 53t103.5 18.5q54 0 90 -16.5t56 -45t25 -66.5t-4 -80q-2 -10 -6.5 -24t-6.5 -24q-18 0 -40.5 0.5t-39.5 0.5q-35 1 -68.5 1.5t-68.5 0.5q-21 0 -42 -0.5t-43 -1.5q-11 0 -17 -0.5t-17 -0.5l-4 -17q-8 -36 -4 -67t19.5 -54t42.5 -36
t65 -13q18 0 38.5 5.5t42 15.5t42.5 23.5t38 29.5l12 -15l-19 -55q-38 -26 -88 -45.5t-97 -19.5q-55 0 -96 18t-66.5 50.5t-34 76t2.5 94.5zM270 438q-32 0 -57 -14t-44.5 -35.5t-33.5 -48t-22 -50.5q8 0 13.5 -0.5t12.5 -0.5q23 -1 45.5 -1.5t43.5 -0.5q22 0 44.5 0.5
t45.5 1.5q11 0 16 0.5t14 0.5q5 24 6 50t-6.5 48t-26 36t-51.5 14zM314 642q-34 -25 -68 -49.5t-66 -49.5h-59l173 182h75l95 -182h-61z" />
    <glyph glyph-name="edieresis" unicode="&#xeb;" horiz-adv-x="488" 
d="M-2 224q12 61 38 110t62.5 83.5t84 53t103.5 18.5q54 0 90 -16.5t56 -45t25 -66.5t-4 -80q-2 -10 -6.5 -24t-6.5 -24q-18 0 -40.5 0.5t-39.5 0.5q-35 1 -68.5 1.5t-68.5 0.5q-21 0 -42 -0.5t-43 -1.5q-11 0 -17 -0.5t-17 -0.5l-4 -17q-8 -36 -4 -67t19.5 -54t42.5 -36
t65 -13q18 0 38.5 5.5t42 15.5t42.5 23.5t38 29.5l12 -15l-19 -55q-38 -26 -88 -45.5t-97 -19.5q-55 0 -96 18t-66.5 50.5t-34 76t2.5 94.5zM277 438q-32 0 -57 -14t-44.5 -35.5t-33.5 -48t-22 -50.5q8 0 14 -0.5t13 -0.5q22 -1 44.5 -1.5t43.5 -0.5q22 0 45 0.5t46 1.5
q11 0 15.5 0.5t13.5 0.5q5 24 6 50t-6.5 48t-26 36t-51.5 14zM355 629q5 24 26 41.5t45 17.5t38 -17.5t9 -41.5t-26.5 -41.5t-45.5 -17.5t-37.5 17.5t-8.5 41.5zM163 629q5 24 26 41.5t45 17.5t38.5 -17.5t9.5 -41.5t-27 -41.5t-46 -17.5t-37.5 17.5t-8.5 41.5z" />
    <glyph glyph-name="igrave" unicode="&#xec;" horiz-adv-x="251" 
d="M101 288q10 45 19 95.5t14 98.5q35 -8 53 -8q17 0 55 8q-14 -48 -26.5 -98.5t-22.5 -95.5l-21 -101q-10 -46 -19.5 -97t-14.5 -98q-35 8 -52 8q-18 0 -56 -8q14 47 27 98t23 97zM99 637q-11 8 -21.5 20.5t-6.5 32.5q5 20 21.5 30.5t28.5 10.5q14 0 25 -7.5t21 -18.5
l124 -162h-66z" />
    <glyph glyph-name="iacute" unicode="&#xed;" horiz-adv-x="251" 
d="M24 288q10 45 19 95.5t14 98.5q35 -8 53 -8q17 0 55 8q-14 -48 -26.5 -98.5t-22.5 -95.5l-21 -101q-10 -46 -19.5 -97t-14.5 -98q-35 8 -52 8t-55 -8q14 47 27 98t22 97zM229 705q14 11 28 18.5t28 7.5q12 0 24 -10.5t8 -30.5t-19.5 -32.5t-30.5 -20.5q-41 -23 -83 -47
t-83 -47h-66z" />
    <glyph glyph-name="icircumflex" unicode="&#xee;" horiz-adv-x="333" 
d="M105 288q9 45 18 95.5t15 98.5q35 -8 52 -8q18 0 56 8q-15 -48 -27.5 -98.5t-21.5 -95.5l-22 -101q-10 -46 -19 -97t-14 -98q-35 8 -53 8q-17 0 -55 -8q14 47 26.5 98t22.5 97zM226 642q-33 -25 -67 -49.5t-66 -49.5h-59l173 182h75l95 -182h-60z" />
    <glyph glyph-name="idieresis" unicode="&#xef;" horiz-adv-x="330" 
d="M106 288q10 45 19 95.5t15 98.5q35 -8 52 -8q18 0 56 8q-15 -48 -27.5 -98.5t-22.5 -95.5l-21 -101q-10 -46 -19 -97t-14 -98q-35 8 -53 8q-17 0 -55 -8q14 47 26.5 98t22.5 97zM70 629q5 24 26.5 41.5t45.5 17.5t38 -17.5t9 -41.5t-26.5 -41.5t-45.5 -17.5t-38 17.5
t-9 41.5zM262 629q5 24 26 41.5t45 17.5t38.5 -17.5t9.5 -41.5t-27 -41.5t-46 -17.5t-37.5 17.5t-8.5 41.5z" />
    <glyph glyph-name="eth" unicode="&#xf0;" horiz-adv-x="537" 
d="M-1 237q15 69 47 117t73 78t88 43.5t91 13.5h12.5t11.5 -1q-18 26 -38.5 52.5t-40.5 50.5q-33 -11 -68.5 -22.5t-70.5 -22.5q-3 12 -8.5 25t-11.5 28q32 8 62.5 15.5t62.5 17.5q-20 23 -44.5 46.5t-56.5 52.5l96 23q30 -25 57 -48.5t49 -45.5q71 22 135 45q6 -24 22 -53
q-33 -6 -64 -14t-57 -16q94 -100 129.5 -194t14.5 -191q-15 -69 -47 -117t-73 -78t-88 -43.5t-91 -13.5t-85 13.5t-69.5 43.5t-40.5 78t3 117zM385 237q9 39 9.5 75.5t-10 64t-34 44.5t-63.5 17t-70.5 -17t-53 -44.5t-37 -64t-23.5 -75.5q-8 -39 -8.5 -75.5t10 -64t34 -44.5
t63.5 -17t70.5 17t53 44.5t37 64t22.5 75.5z" />
    <glyph glyph-name="ntilde" unicode="&#xf1;" horiz-adv-x="472" 
d="M334 281q14 67 -4.5 102.5t-62.5 35.5q-63 0 -100.5 -39t-53.5 -111l-17 -82q-10 -46 -19 -97t-14 -98q-37 8 -53 8q-17 0 -55 -8q15 47 28 98t22 97l21 101q10 45 18.5 95.5t13.5 98.5q35 -8 53 -8q13 0 51 8q-5 -15 -8 -25t-6 -22q-1 -4 -1.5 -7.5t-0.5 -8.5
q35 34 74.5 52t87.5 18q29 0 56.5 -8t47 -28.5t27 -55t-3.5 -87.5q-9 -41 -20.5 -86t-21.5 -94q-7 -32 -14.5 -69t-12.5 -69q-35 8 -49 8q-15 0 -52 -8l23 92q8 34 16.5 68t16.5 70l13 59v0zM113 568q8 20 21 41t30 38.5t39 28.5t48 11q18 0 31 -4.5t38 -18.5q24 -13 35 -17
t22 -4q18 0 33 14.5t24 33.5h48q-5 -14 -16.5 -35t-29 -40.5t-42 -33.5t-56.5 -14q-14 0 -31.5 5.5t-37.5 17.5q-23 13 -34 17t-21 4q-18 0 -29 -9t-25 -35h-47z" />
    <glyph glyph-name="ograve" unicode="&#xf2;" horiz-adv-x="528" 
d="M-2 237q14 69 46 117t73 78t88 43.5t91 13.5t85.5 -13.5t70 -43.5t40.5 -78t-3 -117t-47 -117t-73.5 -78t-88.5 -43.5t-91 -13.5t-85 13.5t-69.5 43.5t-40 78t3.5 117zM102 237q-8 -39 -9 -75.5t9.5 -64t34 -44.5t63.5 -17t70.5 17t53 44.5t37.5 64t23 75.5t9 75.5
t-9.5 64t-34 44.5t-63.5 17t-70.5 -17t-53 -44.5t-37.5 -64t-23 -75.5zM206 637q-11 8 -22 20.5t-6 32.5t21.5 30.5t28.5 10.5q14 0 24.5 -7.5t20.5 -18.5l125 -162h-66z" />
    <glyph glyph-name="oacute" unicode="&#xf3;" horiz-adv-x="527" 
d="M-13 237q14 69 46 117t73 78t88 43.5t91 13.5t85.5 -13.5t70 -43.5t40.5 -78t-3 -117t-47 -117t-73.5 -78t-88.5 -43.5t-91 -13.5t-85 13.5t-69.5 43.5t-40 78t3.5 117zM91 237q-8 -39 -9 -75.5t9.5 -64t34 -44.5t63.5 -17t70.5 17t53 44.5t37.5 64t23 75.5t9 75.5
t-9.5 64t-34 44.5t-63.5 17t-70.5 -17t-53 -44.5t-37.5 -64t-23 -75.5zM401 705q14 11 28.5 18.5t28.5 7.5q12 0 24 -10.5t8 -30.5q-5 -20 -20.5 -32.5t-30.5 -20.5q-41 -23 -83 -47t-82 -47h-66z" />
    <glyph glyph-name="ocircumflex" unicode="&#xf4;" horiz-adv-x="532" 
d="M-5 237q15 69 47 117t73 78t88 43.5t91 13.5t85.5 -13.5t70 -43.5t40 -78t-3.5 -117t-47 -117t-73 -78t-88 -43.5t-91 -13.5t-85 13.5t-69.5 43.5t-40.5 78t3 117zM99 237q-8 -39 -8.5 -75.5t10 -64t34 -44.5t63.5 -17t70.5 17t53 44.5t37 64t22.5 75.5q9 39 9.5 75.5
t-10 64t-34 44.5t-63.5 17t-70.5 -17t-53 -44.5t-37 -64t-23.5 -75.5zM327 642q-34 -25 -68 -49.5t-66 -49.5h-59l173 182h75l95 -182h-60z" />
    <glyph glyph-name="otilde" unicode="&#xf5;" horiz-adv-x="537" 
d="M0 237q15 69 47 117t73.5 78t88.5 43.5t91 13.5t85 -13.5t69.5 -43.5t40.5 -78t-3 -117t-47 -117t-73.5 -78t-88.5 -43.5t-91 -13.5t-85 13.5t-69.5 43.5t-40 78t2.5 117zM105 237q-8 -39 -9 -75.5t9.5 -64t34 -44.5t63.5 -17t70.5 17t53 44.5t37.5 64t23 75.5t9 75.5
t-9.5 64t-34 44.5t-63.5 17t-70.5 -17t-53 -44.5t-37.5 -64t-23 -75.5zM145 568q8 20 21 41t30.5 38.5t39.5 28.5t48 11q9 0 16.5 -1t15 -3.5t16.5 -7t22 -11.5q23 -13 33.5 -17t21.5 -4q18 0 33 14.5t25 33.5h48q-5 -14 -16.5 -35t-29.5 -40.5t-42.5 -33.5t-56.5 -14
q-30 0 -69 23q-22 13 -33 17t-21 4q-18 0 -29 -9t-25 -35h-48z" />
    <glyph glyph-name="odieresis" unicode="&#xf6;" horiz-adv-x="537" 
d="M0 237q15 69 47 117t73.5 78t88.5 43.5t91 13.5t85.5 -13.5t70 -43.5t40 -78t-3.5 -117t-47 -117t-73 -78t-88 -43.5t-91 -13.5t-85 13.5t-70 43.5t-40.5 78t2.5 117zM105 237q-8 -39 -8.5 -75.5t10 -64t34 -44.5t63.5 -17t70.5 17t53 44.5t37 64t22.5 75.5
q9 39 9.5 75.5t-10 64t-34 44.5t-63.5 17t-70.5 -17t-53 -44.5t-37 -64t-23.5 -75.5zM367 629q5 24 26 41.5t45 17.5t38.5 -17.5t9.5 -41.5t-27 -41.5t-46 -17.5t-37.5 17.5t-8.5 41.5zM175 629q5 24 26.5 41.5t45.5 17.5t38 -17.5t9 -41.5t-26.5 -41.5t-45.5 -17.5
t-38 17.5t-9 41.5z" />
    <glyph glyph-name="divide" unicode="&#xf7;" horiz-adv-x="516" 
d="M9 291h512l-15 -70h-511zM152 65q6 26 29.5 45.5t49.5 19.5t41.5 -19.5t9.5 -45.5q-3 -13 -10.5 -25t-18.5 -21t-24 -14t-26 -5q-26 0 -41 19.5t-10 45.5zM233 446q6 26 29.5 45.5t49.5 19.5t41.5 -19.5t9.5 -45.5q-3 -13 -10.5 -25t-18.5 -21t-24 -14t-26 -5
q-26 0 -41 19.5t-10 45.5z" />
    <glyph glyph-name="oslash" unicode="&#xf8;" horiz-adv-x="581" 
d="M49 237q15 69 47 117t73.5 78t88.5 43.5t91 13.5q38 0 74.5 -10.5t65.5 -33.5q26 23 49.5 46t37.5 40q5 -14 13.5 -22.5t19.5 -15.5q-16 -12 -41.5 -32.5t-51.5 -43.5q22 -32 30 -75.5t-5 -104.5q-15 -69 -47 -117t-73.5 -78t-88 -43.5t-90.5 -13.5q-42 0 -79.5 11
t-66.5 37q-27 -24 -53.5 -48.5t-40.5 -37.5q-3 11 -11.5 20.5t-19.5 14.5q6 4 16.5 13t24 20t28 24t28.5 26q-19 31 -25 72.5t6 99.5zM157 89q11 -23 34 -38t61 -15q40 0 70.5 17t53 44.5t37.5 64t23 75.5q7 30 8.5 59.5t-2.5 53.5zM429 391q-11 20 -34 33.5t-57 13.5
q-40 0 -70.5 -17t-53 -44.5t-37.5 -64t-23 -75.5q-5 -26 -7.5 -53t-1.5 -50z" />
    <glyph glyph-name="ugrave" unicode="&#xf9;" horiz-adv-x="457" 
d="M-14 155q6 28 11 51t10 43q9 34 15 66q8 35 17 80.5t17 86.5q34 -8 48 -8q16 0 53 8q-8 -29 -17.5 -63t-19 -71t-18.5 -75t-16 -74q-11 -49 -8 -73.5t11 -37.5q11 -14 27.5 -23.5t42.5 -9.5q38 0 66.5 17t44.5 40q10 14 16.5 26t12.5 32t13.5 52.5t19.5 87.5q4 20 9 43
t9.5 46t8.5 44.5t7 38.5q16 -4 28 -6t22 -2q18 0 52 8q-21 -76 -39 -153t-35 -155q-9 -43 -18 -91.5t-15 -90.5q-30 8 -47 8q-16 0 -50 -8q4 16 8 26t6 22q1 4 1 8t2 9q-34 -34 -76 -53t-84 -19q-81 0 -116.5 44.5t-18.5 125.5zM172 637q-11 8 -22 20.5t-6 32.5t21.5 30.5
t28.5 10.5q14 0 24.5 -7.5t20.5 -18.5l125 -162h-66z" />
    <glyph glyph-name="uacute" unicode="&#xfa;" horiz-adv-x="457" 
d="M-28 155q6 28 11.5 51t10.5 43q5 17 8 33.5t6 32.5q8 35 17 80.5t17 86.5q34 -8 48 -8q16 0 53 8q-8 -29 -17.5 -63t-19 -71t-18.5 -75t-16 -74q-11 -49 -8 -73.5t11 -37.5q11 -14 27.5 -23.5t42.5 -9.5q38 0 66.5 17t44.5 40q10 14 16.5 26t12.5 32t13.5 52.5t19.5 87.5
q4 20 9 43t9.5 46t8.5 44.5t7 38.5q16 -4 28 -6t22 -2q18 0 52 8q-21 -76 -39 -153t-35 -155q-9 -43 -18 -91.5t-15 -90.5q-30 8 -47 8q-16 0 -50 -8q4 16 8 26t6 22q1 4 1 8t2 9q-34 -34 -76 -53t-84 -19q-81 0 -116.5 44.5t-18.5 125.5zM364 705q14 11 28.5 18.5t28.5 7.5
q12 0 24 -10.5t8 -30.5q-5 -20 -20.5 -32.5t-30.5 -20.5q-41 -23 -83 -47t-82 -47h-66z" />
    <glyph glyph-name="ucircumflex" unicode="&#xfb;" horiz-adv-x="465" 
d="M-16 155q6 28 11 51t10 43q9 34 15 66q8 35 16.5 80.5t16.5 86.5q34 -8 49 -8t52 8q-8 -29 -17.5 -63t-18.5 -71t-18 -75t-17 -74q-10 -49 -7 -73.5t11 -37.5q11 -14 27.5 -23.5t42.5 -9.5q38 0 66 17t45 40q10 14 16.5 26t12.5 32t13.5 52.5t19.5 87.5q4 20 8.5 43l9 46
t8.5 44.5t7 38.5q34 -8 51 -8t51 8q-20 -76 -38 -153t-35 -155q-9 -43 -18 -91.5t-16 -90.5q-30 8 -46 8q-17 0 -51 -8q5 16 8.5 26t6.5 22q1 4 1 8t1 9q-33 -34 -75 -53t-84 -19q-81 0 -116.5 44.5t-18.5 125.5zM293 642q-34 -25 -68 -49.5t-66 -49.5h-59l173 182h75
l95 -182h-60z" />
    <glyph glyph-name="udieresis" unicode="&#xfc;" horiz-adv-x="471" 
d="M-9 155q6 28 11 51t10 43q9 34 15 66q8 35 17 80.5t17 86.5q32 -8 48 -8q15 0 53 8q-9 -29 -18 -63t-18.5 -71t-18.5 -75t-17 -74q-10 -49 -7 -73.5t11 -37.5q11 -14 27.5 -23.5t42.5 -9.5q38 0 66 17t45 40q10 14 16.5 26t12.5 32t13.5 52.5t19.5 87.5q4 20 9 43t9.5 46
t8.5 44.5t7 38.5q32 -8 50 -8q17 0 52 8q-21 -76 -39 -153t-35 -155q-9 -43 -18 -91.5t-16 -90.5q-30 8 -46 8q-17 0 -51 -8q5 16 8.5 26t6.5 22q1 4 1 8t1 9q-33 -34 -75 -53t-84 -19q-81 0 -116.5 44.5t-18.5 125.5zM142 629q5 24 26.5 41.5t45.5 17.5t38 -17.5t9 -41.5
t-26.5 -41.5t-45.5 -17.5t-38 17.5t-9 41.5zM334 629q5 24 26 41.5t45 17.5t38.5 -17.5t9.5 -41.5t-27 -41.5t-46 -17.5t-37.5 17.5t-8.5 41.5z" />
    <glyph glyph-name="yacute" unicode="&#xfd;" horiz-adv-x="471" 
d="M-48 -267q60 75 109 142t89 130q-5 29 -13.5 72t-18.5 91t-20 97.5t-19.5 92.5t-16.5 76.5t-10 48.5q19 -4 34 -6.5t25 -2.5t23.5 2t29.5 5q10 -84 25.5 -170t32.5 -174q1 -5 1.5 -6.5t1 -2.5t1 -2.5t1.5 -5.5q54 80 108.5 174t105.5 188q26 -8 37 -8q14 0 52 11
q-13 -18 -48.5 -71t-83.5 -124.5t-102 -153.5t-103.5 -159.5t-89 -141t-57.5 -98.5q-12 3 -22 5t-15 2q-6 0 -21 -3t-36 -8zM407 705q14 11 28.5 18.5t28.5 7.5q12 0 24 -10.5t8 -30.5q-5 -20 -20.5 -32.5t-29.5 -20.5q-42 -23 -84 -47t-82 -47h-66z" />
    <glyph glyph-name="thorn" unicode="&#xfe;" horiz-adv-x="500" 
d="M91 461q7 33 15 72.5t15.5 79.5t14 76.5t9.5 63.5q17 -3 30.5 -5t22.5 -2t23.5 2t32.5 5q-8 -27 -17.5 -63.5t-19 -76.5t-18.5 -79.5t-16 -72.5l-8 -51q13 15 30 29t38 25t46.5 18t55.5 7q39 0 73.5 -14.5t57 -45t30.5 -77.5t-6 -112t-43 -112.5t-67 -79.5t-80.5 -47.5
t-82.5 -15.5q-48 0 -79.5 18t-50.5 52l-5 -26q-7 -33 -15 -72.5t-15.5 -79.5t-13.5 -76.5t-9 -63.5q-18 3 -31 5t-22 2t-23.5 -2t-31.5 -5q8 27 17 63.5t18.5 76.5t18 79.5t15.5 72.5zM396 241q12 55 8.5 91.5t-17 58t-33.5 30t-42 8.5q-37 0 -66 -15.5t-50.5 -42.5
t-36.5 -62.5t-24 -75.5q-20 -95 3 -143.5t88 -48.5q33 0 60 15.5t48.5 42.5t37 63.5t24.5 78.5z" />
    <glyph glyph-name="ydieresis" unicode="&#xff;" horiz-adv-x="474" 
d="M-39 -267q60 75 108.5 142t89.5 130q-5 29 -13.5 72t-18.5 91t-20 97.5t-19.5 92.5t-16.5 76.5t-10 48.5q18 -4 33.5 -6.5t25.5 -2.5t23 2t30 5q10 -84 25.5 -170t32.5 -174q1 -5 1.5 -6.5t0.5 -2.5t0.5 -2.5t1.5 -5.5q54 80 109 174t105 188q26 -8 38 -8q13 0 52 11
q-13 -18 -49 -71t-83.5 -124.5t-101.5 -153.5t-103.5 -159.5t-89 -141t-57.5 -98.5q-12 3 -22.5 5t-15.5 2q-6 0 -21 -3t-35 -8zM175 629q5 24 26.5 41.5t45.5 17.5t38 -17.5t9 -41.5t-26.5 -41.5t-45.5 -17.5t-38 17.5t-9 41.5zM367 629q5 24 26 41.5t45 17.5t38.5 -17.5
t9.5 -41.5t-27 -41.5t-46 -17.5t-37.5 17.5t-8.5 41.5z" />
    <glyph glyph-name="dotlessi" unicode="&#x131;" horiz-adv-x="173" 
d="M49 288q10 45 19 95.5t15 98.5q35 -8 52 -8q18 0 56 8q-15 -48 -27.5 -98.5t-22.5 -95.5l-21 -101q-10 -46 -19 -97t-15 -98q-35 8 -52 8q-18 0 -55 -8q15 47 27 98t22 97z" />
    <glyph glyph-name="Lslash" unicode="&#x141;" horiz-adv-x="486" 
d="M132 424q14 63 25.5 131.5t21.5 131.5q17 -3 31.5 -4.5t25.5 -1.5q22 0 60 6q-16 -63 -33.5 -131.5t-31.5 -131.5l-4 -22q25 14 53 29.5t56 32.5q2 -13 6.5 -26t10.5 -27q-23 -10 -60 -29t-79 -40l-17 -81q-11 -54 -19 -94l-15 -75q-2 -11 -3 -16t-3 -16h64.5t64.5 1.5
t69 4.5t78 9q-16 -30 -19 -41q-1 -6 -0.5 -16t1.5 -24q-44 2 -95 4t-96 2q-46 0 -95.5 -2t-95.5 -4q17 63 33.5 131.5t30.5 131.5l5 24q-29 -15 -50.5 -28.5t-33.5 -23.5q-3 17 -8.5 30.5t-10.5 26.5q29 14 59 28.5t57 28.5z" />
    <glyph glyph-name="lslash" unicode="&#x142;" horiz-adv-x="270" 
d="M75 309q-17 -10 -33.5 -19t-24.5 -14q-4 -2 -8 -5.5t-5 -4.5q-3 12 -6.5 23.5t-13.5 23.5q21 12 49.5 27t54.5 29l19 92q7 33 15 72.5t15.5 79.5t14 76.5t9.5 63.5q17 -3 30.5 -5t22.5 -2t23.5 2t31.5 5q-8 -27 -17 -63.5t-18.5 -76.5t-18.5 -79.5t-16 -72.5l-7 -33
q22 12 44 26t37 22q-3 -14 0.5 -27.5t11.5 -21.5q-5 -3 -16.5 -10t-19.5 -11q-14 -7 -30 -14.5t-39 -20.5l-18 -86q-7 -34 -15 -73.5t-15.5 -79t-14 -76t-9.5 -64.5q-35 8 -53 8q-17 0 -55 -8q8 28 17 64.5t18.5 76t18.5 79t16 73.5z" />
    <glyph glyph-name="OE" unicode="&#x152;" horiz-adv-x="1006" 
d="M709 241q-15 -72 -27 -144q-2 -9 -3 -17.5t-3 -19.5q100 0 159 4.5t89 9.5q-16 -30 -19 -41q-1 -6 -0.5 -15.5t1.5 -23.5q-41 2 -88 4t-88 2q-42 0 -88.5 -2t-89.5 -4q6 22 12.5 44t10.5 41q-21 -17 -47.5 -34.5t-59.5 -31.5t-73.5 -22.5t-89.5 -8.5q-72 0 -129.5 24
t-94.5 69t-50.5 109t3.5 145q19 89 61 158t100.5 116t129.5 71t149 24q51 0 87.5 -9t62.5 -22t42.5 -28.5t26.5 -28.5q3 20 5.5 39.5t5.5 36.5q41 -2 85.5 -3.5t84.5 -1.5q39 0 85 1.5t87 3.5q-7 -13 -11.5 -23.5t-5.5 -16.5q-2 -6 -2 -17.5t2 -25.5q-17 3 -34 6.5
t-42.5 5.5t-63 3.5t-94.5 1.5q-2 -7 -4.5 -16t-4.5 -17v1q-8 -32 -15.5 -64t-14.5 -64l-15 -70q49 0 82 0.5t55 1.5t36 2t25 2q3 0 12.5 0.5t12.5 0.5q-6 -11 -9.5 -20.5t-5.5 -16.5q-2 -8 -2.5 -17.5t1.5 -19.5q-3 0 -12.5 0.5t-12.5 0.5q-11 1 -24.5 2t-35 2t-54 1.5
t-81.5 0.5zM152 340q-17 -78 -9.5 -135t33 -94t65.5 -55t90 -18q56 0 106 21.5t90 61.5t68.5 95.5t43.5 123.5q17 83 11.5 140.5t-29 93.5t-62.5 52.5t-88 16.5q-53 0 -103.5 -18t-93 -55t-74.5 -94.5t-48 -135.5z" />
    <glyph glyph-name="oe" unicode="&#x153;" horiz-adv-x="897" 
d="M701 489q54 0 90 -16.5t56 -45t25 -66.5t-4 -80q-2 -10 -6.5 -24t-6.5 -24q-17 0 -39.5 0.5t-39.5 0.5q-35 1 -69 1.5t-68 0.5q-22 0 -43 -0.5t-42 -1.5q-11 0 -17 -0.5t-17 -0.5l-4 -17q-8 -36 -4 -67t19 -54t42 -36t65 -13q18 0 39 5.5t42.5 15.5t42 23.5t37.5 29.5
l13 -15l-19 -55q-19 -13 -41.5 -24.5t-47 -20.5t-49 -14.5t-47.5 -5.5q-58 0 -101.5 22.5t-69.5 58.5q-43 -41 -99 -61t-108 -20q-44 0 -85 13.5t-69.5 43.5t-40.5 78t3 117t47 117t73 78t88 43.5t91 13.5q53 0 98 -18t71 -60q76 78 195 78zM426 237q8 39 8.5 75.5t-10 64
t-34.5 44.5t-64 17t-70.5 -17t-53 -44.5t-37 -64t-22.5 -75.5q-9 -39 -9.5 -75.5t10 -64t34 -44.5t63.5 -17t71 17t53.5 44.5t37 64t23.5 75.5zM692 438q-31 0 -56 -14t-44.5 -35.5t-33.5 -48t-22 -50.5q8 0 13.5 -0.5t13.5 -0.5q21 -1 43.5 -1.5t43.5 -0.5q23 0 46 0.5
t46 1.5q11 0 15 0.5t14 0.5q4 24 5 50t-6.5 48t-25.5 36t-52 14z" />
    <glyph glyph-name="Scaron" unicode="&#x160;" horiz-adv-x="460" 
d="M4 144q4 -17 13.5 -35t24.5 -32.5t37 -24t51 -9.5q30 0 56.5 10.5t47 28t34.5 41.5t20 51q6 29 -1 49t-22 35t-36.5 26t-45.5 22q-29 13 -57 27.5t-48 36.5t-28.5 54.5t1.5 80.5q9 42 32 77.5t57.5 61t78 40t94.5 14.5q48 0 82.5 -13t63.5 -40q-16 -22 -28 -43t-23 -51
h-27q-2 13 -7 29.5t-15 30t-26.5 23t-41.5 9.5q-51 0 -89 -31t-49 -80q-7 -30 0.5 -51t23.5 -36t38.5 -26.5t46.5 -21.5q28 -12 55 -26t46.5 -35t28 -51t-1.5 -74q-10 -47 -35.5 -88.5t-64 -72.5t-88.5 -49.5t-108 -18.5q-32 0 -56 5.5t-42.5 14.5t-33 20t-26.5 23
q8 13 14 24.5t10.5 22.5t8.5 23.5t9 28.5h26zM448 892h60l-172 -181h-75l-96 181h60l91 -98z" />
    <glyph glyph-name="scaron" unicode="&#x161;" horiz-adv-x="370" 
d="M18 108q3 -10 10.5 -21.5t19 -21.5t26.5 -17t34 -7q33 0 63 20t38 58q4 18 -1.5 30t-16.5 20.5t-27 14.5t-33 11q-23 7 -45 16t-38.5 24t-23.5 38t1 59q7 34 24.5 63t44 50t61 32.5t75.5 11.5q27 0 47.5 -6.5t37.5 -13.5l1 -1l2 -1t8.5 -2.5t20.5 -5.5q-7 -9 -15 -21
t-14.5 -24t-12 -23t-7.5 -18h-28q-2 23 -19 42t-46 19q-12 0 -26 -4t-26.5 -13t-22 -22.5t-13.5 -32.5t1.5 -32t17 -21.5t27.5 -14.5t33 -12q22 -7 44 -15.5t38 -23t23 -37t0 -57.5q-6 -30 -25.5 -59t-48 -52.5t-66 -38t-79.5 -14.5q-48 0 -78 12t-51 26q4 7 10 18t12 23
t10.5 23.5t6.5 20.5h26zM376 725h59l-173 -182h-75l-95 182h60l91 -98z" />
    <glyph glyph-name="Ydieresis" unicode="&#x178;" horiz-adv-x="583" 
d="M141 -7q20 65 36.5 137.5t32.5 147.5q-6 17 -18.5 50.5t-28 74t-32.5 84.5t-32.5 84t-28 71.5t-19.5 46.5q23 -4 42 -6t30 -2q14 0 29 1t32 4q25 -83 51 -162t58 -166q30 34 61.5 74.5t64 83t63.5 86t59 85.5q27 -6 42 -6q22 0 61 9q-64 -74 -115 -133.5t-91 -108.5
t-71 -88t-54 -71q-8 -36 -16.5 -77t-16 -81.5t-13.5 -76.5t-9 -61q-17 3 -31.5 5t-25.5 2q-12 0 -27 -2t-33 -5zM225 796q5 24 26 42t45 18q25 0 39 -18t9 -42t-26.5 -41.5t-46.5 -17.5q-24 0 -37.5 17.5t-8.5 41.5zM417 796q5 24 26 42t45 18t38 -18t9 -42t-26.5 -41.5
t-45.5 -17.5t-37.5 17.5t-8.5 41.5z" />
    <glyph glyph-name="Zcaron" unicode="&#x17d;" horiz-adv-x="597" 
d="M-71 24q49 52 104 111.5t109.5 119t106.5 117t95.5 106t76 85.5t48.5 56q-14 1 -27 1h-24q-35 0 -78.5 -1.5t-89 -3.5t-88 -5t-74.5 -6q6 13 11 24t7 18q1 6 1 16.5t-2 23.5q24 -2 68 -3t96 -1q51 -1 115 -1h139q41 0 83 3q6 0 16.5 0.5t15.5 0.5l-7 -31
q-22 -20 -64.5 -64t-95 -100t-110 -119t-110.5 -122t-96 -108.5t-67 -78.5q17 -1 32.5 -1.5t30.5 -0.5q37 0 87 1.5t101 4.5t97.5 6.5t75.5 7.5q-7 -14 -11 -25t-6 -19q-1 -5 -0.5 -15.5t0.5 -25.5q-70 2 -127.5 3.5t-113.5 1.5q-38 0 -87.5 -0.5t-97.5 -1.5t-87.5 -2
t-58.5 -2zM510 892h59l-173 -181h-75l-95 181h60l91 -98z" />
    <glyph glyph-name="zcaron" unicode="&#x17e;" horiz-adv-x="470" 
d="M-52 22q44 43 91.5 91t94 96t89.5 93t79 83l11 11l7 7l6.5 6.5t8.5 9.5q-20 -1 -54 -2.5t-71.5 -4t-73.5 -5t-61 -4.5q6 14 9 23.5t5 14.5q2 7 2 16.5t1 22.5q36 -4 99.5 -5t154.5 -1q40 0 70 1t68 5l-6 -28q-50 -51 -107.5 -109.5t-111.5 -114t-98 -102t-68 -71.5
q37 0 69 0.5t66 2t74 4.5t93 8q-6 -12 -10 -22.5t-5 -15.5q-1 -4 -1.5 -14.5t0.5 -22.5q-15 0 -36.5 0.5t-36.5 1.5q-43 2 -90.5 2.5t-91.5 0.5q-65 0 -129 -3h1q-11 -1 -27 -1.5t-27 -0.5zM429 725h59l-173 -182h-75l-95 182h60l91 -98z" />
    <glyph glyph-name="florin" unicode="&#x192;" horiz-adv-x="497" 
d="M-15 -94q7 -5 16 -10t18 -5q31 0 52 32t38 77q4 10 14.5 37t24 62.5t28.5 74.5t29 74.5t24.5 62.5t14.5 38q-28 0 -58 -0.5t-49 -2.5q8 13 15 30.5t11 33.5q18 -2 47 -4t55 -2q5 11 10 21.5t9 20.5q17 36 42 76t56 73.5t67.5 55.5t77.5 22q6 0 19 -2t23 -7
q-9 -18 -18.5 -44t-14.5 -49l-28 -7q-5 11 -15.5 20t-23.5 9q-17 0 -33 -13t-30 -48q-14 -34 -24.5 -64t-24.5 -64q18 0 32.5 1t29.5 2q11 1 27 1.5t23 0.5q-8 -13 -16.5 -30.5t-11.5 -32.5q-20 2 -48.5 2.5t-57.5 0.5q-20 -51 -40 -102.5t-40 -102.5q-43 -108 -86 -174
t-85 -102.5t-82.5 -48.5t-76.5 -12q14 28 23.5 51t13.5 42z" />
    <glyph glyph-name="circumflex" unicode="&#x2c6;" horiz-adv-x="354" 
d="M177 642q-33 -25 -67 -49.5t-66 -49.5h-58l172 182h75l95 -182h-60z" />
    <glyph glyph-name="caron" unicode="&#x2c7;" horiz-adv-x="350" 
d="M306 725h59l-173 -182h-75l-95 182h60l92 -99z" />
    <glyph glyph-name="breve" unicode="&#x2d8;" horiz-adv-x="342" 
d="M92 717q-2 -45 15.5 -69.5t60.5 -24.5q46 0 71 24.5t47 69.5h49q-8 -35 -23.5 -66.5t-39 -55.5t-54 -38t-66.5 -14q-37 0 -61.5 14t-38 38t-16 55.5t5.5 66.5h50z" />
    <glyph glyph-name="dotaccent" unicode="&#x2d9;" horiz-adv-x="164" 
d="M22 626q5 24 26 41.5t45 17.5t38 -17.5t9 -41.5t-26.5 -41.5t-45.5 -17.5t-37.5 17.5t-8.5 41.5z" />
    <glyph glyph-name="ring" unicode="&#x2da;" horiz-adv-x="266" 
d="M23 637q4 22 17 42t31 35t40 23.5t45 8.5q22 0 40 -8.5t29.5 -23.5t16 -35t0.5 -42q-5 -23 -18 -42.5t-31 -34.5t-40 -23.5t-45 -8.5q-22 0 -40 8.5t-29.5 23.5t-16 34.5t0.5 42.5zM83 637q-5 -20 6.5 -34.5t31.5 -14.5t38 14.5t23 34.5q4 20 -7.5 34t-31.5 14t-38 -14
t-22 -34z" />
    <glyph glyph-name="ogonek" unicode="&#x2db;" horiz-adv-x="220" 
d="M219 19q-39 -30 -63.5 -51t-38.5 -36t-20.5 -26t-8.5 -21q-5 -27 11 -37t36 -10q8 0 18.5 2.5t20.5 4.5l5 -48q-19 -8 -35.5 -11.5t-36.5 -3.5q-23 0 -43.5 6t-34.5 17.5t-20.5 29t-1.5 40.5q12 59 146 144h66z" />
    <glyph glyph-name="tilde" unicode="&#x2dc;" horiz-adv-x="393" 
d="M11 568q8 20 21 41t30 38.5t39 28.5t48 11q9 0 16.5 -1t15 -3.5t16.5 -7t22 -11.5q23 -13 33.5 -17t21.5 -4q18 0 33 14.5t25 33.5h48q-5 -14 -16.5 -35t-29 -40.5t-42 -33.5t-56.5 -14q-31 0 -70 23q-22 13 -33 17t-21 4q-18 0 -28.5 -9t-24.5 -35h-48z" />
    <glyph glyph-name="hungarumlaut" unicode="&#x2dd;" horiz-adv-x="468" 
d="M175 705q14 11 28 18.5t27 7.5t25.5 -10.5t8.5 -30.5q-5 -20 -20.5 -32.5t-30.5 -20.5q-41 -23 -83 -47t-83 -47h-65zM369 705q14 11 28 18.5t28 7.5q12 0 25 -10.5t9 -30.5q-5 -20 -21 -32.5t-30 -20.5q-42 -23 -83.5 -47t-82.5 -47h-66z" />
    <glyph glyph-name="endash" unicode="&#x2013;" horiz-adv-x="587" 
d="M47 266h506l-14 -65h-506z" />
    <glyph glyph-name="emdash" unicode="&#x2014;" horiz-adv-x="1086" 
d="M54 266h992l-14 -65h-992z" />
    <glyph glyph-name="quoteleft" unicode="&#x2018;" 
d="M74 442q-8 -14 -23 -28.5t-39 -14.5q-14 0 -27.5 9.5t-8.5 32.5q2 12 9 22.5t15 20.5q0 3 2 4l-2 -1q42 51 86 106.5t85 106.5l32 -13z" />
    <glyph glyph-name="quoteright" unicode="&#x2019;" 
d="M101 654q8 15 23.5 29.5t39.5 14.5q14 0 27 -10t8 -33q-2 -11 -8.5 -21.5t-14.5 -21.5l-4 -4l3 2q-42 -51 -86 -106.5t-85 -106.5l-32 12z" />
    <glyph glyph-name="quotesinglbase" unicode="&#x201a;" 
d="M101 86q8 14 23.5 28.5t39.5 14.5q14 0 27 -10t9 -32q-3 -12 -9.5 -22.5t-13.5 -20.5q-2 -1 -2.5 -2t-2.5 -3l3 2q-42 -51 -86 -106.5t-85 -106.5l-32 13z" />
    <glyph glyph-name="quotedblleft" unicode="&#x201c;" horiz-adv-x="376" 
d="M258 442q-8 -14 -22.5 -28.5t-38.5 -14.5q-15 0 -28.5 9.5t-8.5 32.5q2 12 9 22.5t15 20.5q1 1 1 2t2 2l-2 -1q42 51 85.5 106.5t85.5 106.5l32 -13zM91 442q-8 -14 -22.5 -28.5t-38.5 -14.5q-15 0 -28 9.5t-8 32.5q2 12 8.5 22.5t13.5 20.5q1 1 1 2t2 2l-2 -1
q42 51 86 106.5t86 106.5l32 -13z" />
    <glyph glyph-name="quotedblright" unicode="&#x201d;" horiz-adv-x="377" 
d="M285 654q8 15 23 29.5t39 14.5q15 0 28 -10t8 -33q-2 -11 -9 -21.5t-15 -21.5q-1 0 -1 -1q-1 -1 -1 -1.5t-1 -1.5l3 2q-42 -51 -86 -106.5t-85 -106.5l-33 12zM118 654q7 15 22.5 29.5t39.5 14.5q15 0 28 -10t8 -33q-2 -11 -9 -21.5t-15 -21.5l-4 -4l3 2
q-42 -51 -85.5 -106.5t-84.5 -106.5l-32 12z" />
    <glyph glyph-name="quotedblbase" unicode="&#x201e;" horiz-adv-x="377" 
d="M285 86q8 14 23 28.5t39 14.5q15 0 28 -10t9 -32q-3 -12 -10 -22.5t-14 -20.5q-1 -1 -1.5 -2t-2.5 -3l3 2q-42 -51 -86 -106.5t-85 -106.5l-33 13zM118 86q7 14 22.5 28.5t39.5 14.5q15 0 28 -10t9 -32q-3 -12 -10 -22.5t-14 -20.5q-2 -1 -2.5 -2t-2.5 -3l3 2
q-42 -51 -85.5 -106.5t-84.5 -106.5l-32 13z" />
    <glyph glyph-name="dagger" unicode="&#x2020;" horiz-adv-x="473" 
d="M46 466q48 -8 89.5 -9t81.5 -1q6 28 12.5 60t12 63.5t9.5 60t5 48.5q16 -4 29 -5.5t23 -1.5q22 0 54 7q-8 -20 -16 -48t-15.5 -59.5t-14.5 -64t-13 -60.5q40 0 82 1.5t93 8.5q-7 -17 -12 -28.5t-7 -19.5q-3 -20 -2 -47q-48 7 -90 8.5t-80 1.5q-14 -68 -26.5 -133
t-24.5 -133q-5 -28 -11.5 -62t-11.5 -61q-35 8 -50 8q-14 0 -52 -8q6 27 14 61t15 62q17 69 32 133t29 133q-40 0 -82 -1.5t-93 -8.5q8 17 12.5 28.5t6.5 18.5q3 13 1 48z" />
    <glyph glyph-name="daggerdbl" unicode="&#x2021;" horiz-adv-x="476" 
d="M198 340q2 13 4 24t5 24q1 9 3 21t4 20q-41 0 -83 -1t-93 -9q16 34 19 47q2 9 2.5 21t-0.5 26q48 -6 90 -7.5t80 -1.5q6 28 13.5 70t16.5 114q31 -7 51 -7q19 0 53 7q-20 -70 -31 -112.5t-17 -71.5q40 0 82 1.5t93 7.5q-7 -16 -12 -28t-7 -19q-2 -9 -2.5 -21t0.5 -26
q-48 7 -90.5 8.5t-80.5 1.5q-2 -11 -4.5 -21t-4.5 -20q-4 -13 -6.5 -24t-4.5 -24q-3 -12 -5.5 -24.5t-4.5 -24.5q-3 -13 -4 -20t-3 -19q41 0 83 1t93 9q-8 -17 -12.5 -28.5t-6.5 -19.5q-2 -9 -2.5 -21t0.5 -26q-48 7 -90 8.5t-80 1.5q-6 -29 -13.5 -71t-16.5 -114
q-35 8 -51 8q-9 0 -22 -2t-31 -6q21 71 31.5 113.5t16.5 71.5q-40 0 -81.5 -1.5t-92.5 -8.5q7 17 11.5 28.5t6.5 18.5q3 22 2 48q48 -7 90.5 -8.5t80.5 -1.5q2 11 4 20t5 20l12 48v0z" />
    <glyph glyph-name="bullet" unicode="&#x2022;" horiz-adv-x="400" 
d="M25 340q7 36 27.5 68t49.5 56t64 37.5t71 13.5t65 -13.5t48 -37.5t25.5 -56t-0.5 -68q-8 -36 -28.5 -68t-49.5 -56t-64 -37.5t-71 -13.5t-65 13.5t-47.5 37.5t-25.5 56t1 68z" />
    <glyph glyph-name="ellipsis" unicode="&#x2026;" horiz-adv-x="862" 
d="M42 53q3 13 10.5 25t18.5 21t24 14.5t26 5.5q26 0 41 -20t10 -46q-6 -26 -29.5 -45.5t-49.5 -19.5t-41.5 19.5t-9.5 45.5zM690 53q3 13 10.5 25t18.5 21t24 14.5t26 5.5q26 0 41 -20t10 -46q-6 -26 -29.5 -45.5t-49.5 -19.5t-41.5 19.5t-9.5 45.5zM366 53q3 13 10.5 25
t18.5 21t24 14.5t26 5.5q26 0 41 -20t10 -46q-6 -26 -29.5 -45.5t-49.5 -19.5t-41.5 19.5t-9.5 45.5z" />
    <glyph glyph-name="perthousand" unicode="&#x2030;" horiz-adv-x="980" 
d="M317 150q10 48 30.5 79.5t46 50.5t53 27t51.5 8t48 -8t41.5 -27t24.5 -50.5t-3 -79.5q-11 -48 -31.5 -80t-46 -51t-53 -27t-51.5 -8t-48 8t-41.5 27t-24.5 51t4 80zM72 507q10 48 30.5 80t46 51t53 27t51.5 8t48 -8t41.5 -27t24.5 -51t-3 -80t-31 -79.5t-46.5 -50.5
t-53 -27t-51.5 -8t-48 8t-41 27t-24 50.5t3 79.5zM632 150q10 48 30.5 79.5t46 50.5t53 27t51.5 8t48 -8t41.5 -27t24.5 -50.5t-3 -79.5q-11 -48 -31.5 -80t-46 -51t-53 -27t-51.5 -8t-48 8t-41.5 27t-24.5 51t4 80zM580 697q8 -3 14.5 -5t11.5 -2q9 0 46 14l-551 -744
q-8 3 -14 5t-11 2q-10 0 -47 -14zM718 150q-11 -54 -6 -88.5t40 -34.5t55 34.5t31 88.5t6 88t-40 34t-55 -34t-31 -88zM158 507q-11 -53 -6 -87.5t40 -34.5t55 34.5t31 87.5q11 54 6 88.5t-40 34.5t-55 -34.5t-31 -88.5zM403 150q-11 -54 -6 -88.5t40 -34.5t55 34.5t31 88.5
t6 88t-40 34t-55 -34t-31 -88z" />
    <glyph glyph-name="guilsinglleft" unicode="&#x2039;" horiz-adv-x="197" 
d="M174 437q5 -14 16 -25t28 -13l-148 -164q17 -39 35 -84t35 -84q-15 -2 -32 -13t-26 -25l-85 207z" />
    <glyph glyph-name="guilsinglright" unicode="&#x203a;" horiz-adv-x="195" 
d="M53 403q16 2 33 13t26 25l86 -207l-178 -200q-5 14 -15.5 25t-27.5 13l147 163z" />
    <glyph glyph-name="fraction" unicode="&#x2044;" horiz-adv-x="329" 
d="M347 687q17 -7 26 -7t42 11l-433 -721q-19 8 -26 8q-5 0 -15.5 -3.5l-25.5 -8.5z" />
    <glyph glyph-name="Euro" unicode="&#x20ac;" horiz-adv-x="577" 
d="M603 611q-10 -18 -20 -39t-20 -44l-29 -1q-14 40 -46.5 62.5t-65.5 22.5q-57 0 -112 -50t-93 -149h150q26 0 54.5 1t67.5 9q-11 -18 -23 -42.5t-18 -38.5q-26 5 -52 6.5t-48 1.5h-151q-3 -8 -5.5 -20t-4.5 -21h129q26 0 54.5 1t67.5 9q-11 -18 -23 -42.5t-18 -38.5
q-26 5 -52 6.5t-48 1.5h-119q-5 -91 29.5 -143.5t94.5 -52.5q36 0 80 20t89 61l11 -27q-7 -16 -12.5 -31.5t-10.5 -30.5q-15 -12 -37.5 -22t-47.5 -17.5t-51.5 -11.5t-48.5 -4q-101 0 -157 67.5t-48 191.5q-42 -2 -79 -10q11 21 21 42t17 40q10 -3 24 -5t26 -3l2 10
q2 8 3.5 15t3.5 15q-19 -1 -38 -3.5t-38 -6.5q13 22 22.5 42.5t16.5 38.5q11 -2 26.5 -4t31.5 -3q24 55 59.5 102.5t78 82.5t91.5 54.5t100 19.5q44 0 90 -14.5t75 -35.5z" />
    <glyph glyph-name="trademark" unicode="&#x2122;" horiz-adv-x="870" 
d="M629 462q42 54 88.5 114.5t85.5 114.5h23l-16 -132q-3 -33 -7 -72.5t-7 -79.5t-6 -78t-5 -66q-11 4 -20.5 6.5t-15.5 2.5q-5 0 -15 -2.5t-24 -6.5q8 42 15.5 93.5t12.5 113.5q1 13 1.5 21.5t0.5 16t0.5 16t1.5 21.5q-8 -11 -17.5 -24t-18.5 -24q-22 -28 -45.5 -59.5
t-45 -61.5t-39.5 -57l-30 -45h-19q-8 32 -19.5 68.5t-23.5 74.5q-5 15 -9.5 30t-9.5 30q-4 11 -6.5 17.5t-4.5 12.5t-4.5 12.5t-5.5 17.5q-6 -20 -12.5 -38t-12.5 -37q-16 -46 -30 -95t-27 -104q-9 5 -17 7t-13 2t-15 -2.5t-24 -7.5q13 29 26.5 63.5t27.5 71t27.5 73.5
t25.5 72t26 75t25 74h24q13 -52 31.5 -111t38.5 -116q8 -21 13.5 -37.5t13.5 -37.5zM187 635q-31 0 -67.5 -2t-65.5 -4q7 11 11.5 18t5.5 11q1 3 -1 10.5t-4 17.5q37 -2 82.5 -3.5t83.5 -1.5t83.5 1.5t84.5 3.5q-16 -21 -18 -28q-1 -4 1 -11t5 -18q-31 2 -65 4t-66 2
l-27 -128q-9 -43 -17.5 -86t-16.5 -87q-2 -14 -6 -35.5t-6 -35.5q-13 4 -22.5 6.5t-16.5 2.5q-6 0 -17 -2.5t-25 -6.5l6 27q9 37 21.5 87.5t28.5 122.5z" />
    <glyph glyph-name="minus" unicode="&#x2212;" horiz-adv-x="593" 
d="M47 291h512l-15 -70h-512z" />
    <glyph glyph-name="fi" unicode="&#xfb01;" horiz-adv-x="507" 
d="M348 649q-20 16 -50 16q-38 0 -59.5 -26.5t-29.5 -61.5q-3 -16 -6 -45.5t-5 -58.5h41q12 0 30.5 0.5t31.5 0.5q-4 -10 -7 -18.5t-3 -10.5q-2 -10 -2 -29q-8 0 -22.5 0.5t-22.5 0.5q-17 1 -28.5 1.5t-28.5 0.5q-22 -104 -44.5 -213t-41.5 -214q-35 8 -51 8t-53 -8
q29 108 52 214t46 213q-10 0 -18 -0.5t-18 -1.5q-6 0 -18 -0.5t-17 -0.5q2 9 5 17t4 12q0 2 0.5 10.5t2.5 18.5q8 0 23.5 -0.5t23.5 -0.5h24q7 29 20.5 61.5t31.5 64t39.5 59.5t45.5 48q23 19 54.5 33t61.5 14q5 0 12.5 -1t15.5 -4q-2 -13 -5 -23t-5 -17q-3 -11 -7 -25.5
t-6 -25.5zM351 288q9 45 18 95.5t15 98.5q35 -8 52 -8t57 8q-16 -48 -28.5 -98.5t-21.5 -95.5l-22 -101q-10 -46 -18.5 -97t-13.5 -98q-37 8 -54 8t-55 -8q14 47 26.5 98t22.5 97zM412 639q5 24 26.5 41.5t45.5 17.5t37.5 -17.5t8.5 -41.5t-26.5 -42t-45.5 -18t-37.5 18
t-8.5 42z" />
    <glyph glyph-name="fl" unicode="&#xfb02;" horiz-adv-x="513" 
d="M348 649q-20 16 -50 16q-38 0 -59.5 -26.5t-29.5 -61.5q-3 -16 -6 -45.5t-5 -58.5h41q12 0 30.5 0.5t31.5 0.5q-4 -10 -7 -18.5t-3 -10.5q-2 -10 -2 -29q-8 0 -22.5 0.5t-22.5 0.5q-17 1 -28.5 1.5t-28.5 0.5q-22 -104 -44.5 -213t-41.5 -214q-35 8 -51 8t-53 -8
q29 108 52.5 214t46.5 213q-11 0 -19 -0.5t-18 -1.5q-6 0 -18 -0.5t-17 -0.5q3 9 5.5 17t3.5 12q0 2 1 10.5t2 18.5q8 0 23.5 -0.5t23.5 -0.5h25q7 29 20 61.5t31 64t39.5 59.5t45.5 48q23 19 54.5 33t61.5 14q5 0 12.5 -1t15.5 -4q-2 -13 -5 -23t-5 -17q-3 -11 -7 -25.5
t-6 -25.5zM393 461q7 33 15 72.5t15.5 79.5t14 76.5t9.5 63.5q17 -3 30.5 -5t22.5 -2t23.5 2t31.5 5q-8 -27 -17 -63.5t-18.5 -76.5t-18.5 -79.5t-16 -72.5l-37 -176q-7 -34 -15 -73.5t-15.5 -79t-14 -76t-9.5 -64.5q-35 8 -53 8q-17 0 -55 -8q8 28 17 64.5t18.5 76t18.5 79
t16 73.5z" />
    <glyph glyph-name="LDO" horiz-adv-x="720" 
d="M343 162q0 -2 -1.5 -6t-1.5 -5v-7h-4v10q4 4 7 8zM288 144q4 7 4 18h15q-7 0 -7 -8q0 -25 3 -32h4q2 5 7 14h4v-14h-11q-1 0 -2.5 1t-2.5 3t-2 3h-8q0 1 -2 6t-2 9zM374 110v15q3 0 5 1.5t3 2.5v-13q2 -1 4 -2.5t6 -3.5l1 -16q-6 7 -19 16zM89 627q24 7 64 7q25 0 37 -7
q10 -7 34 -7q19 9 22 18q29 0 33 24l9 4q2 3 7 5q5 0 5 2q5 2 7.5 6.5t10.5 4.5q1 3 7 6q7 2 7 5q32 0 32 18q8 0 13 6q4 7 12 7q1 2 9.5 5t8.5 6q7 0 10 3q12 8 16 8l9 4q7 2 7 7q11 0 22 4q11 3 19 3q0 4 7 8q7 2 8 3l89 19l42 -4l15 -8q7 -3 11 -7q10 -7 31 -18l7 -42
q-42 0 -42 5q-5 0 -14 4t-11 4q0 4 -1.5 5.5t-6.5 4.5h-68q-3 -3 -7 -10q-7 0 -21 -4t-21 -4q-13 -9 -18.5 -9t-14.5 -3q-4 0 -8 -6l-6 -6q-10 -3 -8 -3h-4q-1 -3 -8.5 -5l-7.5 -2q-3 0 -5.5 -2t-6.5 -5t-6 -5q-11 0 -15 -10q-5 0 -6 -2.5t-1 -9.5q-6 0 -13.5 -3.5t-8 -3.5
t-6.5 -4.5t-14 -4.5q-2 -1 -7 -2t-8 -6q-2 -1 -4 -4q-2 -5 -3 -6q-11 0 -11 -8q-4 0 -7 -1.5t-6 -4.5l-5 -5q-15 0 -15 -11q-5 0 -13 -7v-11q-4 -3 -6.5 -4t-4.5 -5v-15q6 -7 11 -7v-48q-6 0 -11 -9v-11q-2 -2 -4 -3q-3 -2 -7 -4v-22q-6 -3 -7 -4.5t-1 -10.5q0 -11 -3 -11
l-7 -7q-9 -4 -10.5 -6t-1.5 -10q-9 -4 -15 -8t-8 -11q-11 -11 -44 -11q-17 11 -35 11q-2 3 -7 11h-15q-3 0 -9 4q-7 4 -13 4q0 11 -11 16q0 7 -4 11q-10 0 -21 -1l-11 -1q-4 0 -11 7q-3 2 -6 2v55q2 3 5 5l6 4l4 83q1 0 2.5 1t2.5 3t2 3v15q5 2 6 6t5 4q0 1 10 4.5t10 7.5
q21 7 26 7zM385 132q-4 5 -7 7q-4 1 -15 1v18q6 -6 18 -14q0 -8 4 -12zM400 132q3 -3 3 -7q-3 3 -10 7h7zM403 125h7q5 2 12 10q6 9 10 9q-1 -4 -3.5 -6t-6.5 -6v-14l6 -4t4 -4q-4 0 -10 -7v-13l7 -7h17q1 -6 4 -10q2 -6 18 -12q3 11 3 22q-9 11 -22 11v31q3 0 11 7l-6 6
q-3 2 -5 6q2 -1 12 -5q6 -2 17 -5q6 -2 19 -2v-22q3 -2 6.5 -3.5t4.5 -3.5q0 -16 4 -20h9q3 3 3 14v6q9 0 13 1.5t9 5.5q-7 8 -11 8v14q3 0 11 8v26q-3 2 -6 3.5t-5 5.5q0 8 -1.5 10t-9.5 5q7 0 12.5 5t6.5 5v-10q0 -8 7 -8q3 -10 4 -11.5t7 -4.5q0 -15 8 -22h3q2 2 4 8t3 6
q20 7 20 24q5 0 18 8v-58h-7q-3 -3 -3 -14q-4 -1 -14 -8q10 -7 32 -7q0 -5 -2 -6.5t-5 -6.5v-36q-4 2 -5.5 3.5t-2 3.5t-3.5 7h-20q0 -2 -2 -6q-2 -6 -2 -8q-4 0 -11 -8q7 0 11 -3v-7q-2 -2 -5 -3.5t-6 -4.5v-16q-19 0 -22 -8v-7l1 -1q0 1 -4 1q0 3 -2 8t-2 7q-18 0 -23 -8
v-7q11 -11 22 -11v-7h-7q-12 -5 -21 -7q-4 -1 -10 -1v15q7 0 7 7q0 35 -3 43h-3q-8 -8 -8 -39q-7 0 -11 -4v-14h-26l-4 -8v-38q-10 0 -24 -4q9 -7 14 -7v-18q-6 2 -6 6q0 3 -7 5h-4q-5 -2 -6 -5q-2 -4 -5 -6v18q3 0 11 7q0 57 -7 64h-4q-1 -1 -3 -2l-1 -1l4 3q-4 4 -11 4
q0 31 -7 39h-4q-6 -3 -5 -21q1 -34 1 -31v-55q0 -1 4 -3t4 -4v-7q0 -1 -3.5 -4.5t-3.5 -6.5h-29v25q0 2 -1 3l-4 2q-2 1 -5 3q-2 7 -7 16h-4q-7 -7 -7 -24q3 -2 7 -3l4 -4v-7q-5 -4 -15 -11q3 0 11 11v7q0 7 -18 7q-15 0 -18 -7v-11q0 4 -7 4q0 10 -5 15q-5 4 -16 7v16l-7 4
h-15v14q-6 8 -11 8q-4 12 -22 18v31q11 3 11 15q2 0 5.5 1.5t5.5 1.5q0 19 -4 22h-7q-3 -3 -3 -14q-5 0 -19 -8v44q4 0 7 2t4 2v38h18v-14q-5 0 -7 -4q-2 -2 -3 -4q29 0 36 8v7l-4 4l4 -4h17q0 -31 3 -35h-9l-7 -7v-15q-6 -2 -7 -3.5t-4 -10.5q-4 0 -11 -8h35v-10
q-9 -4 -13 -8q0 -11 7 -24q10 4 21 17v22h7q1 -12 3 -31h8q4 3 4 16q18 0 21 8v7l-7 7l7 4v14q3 -2 8 -3.5t7 -3.5q0 -8 1 -9.5t5 -8.5q27 0 32 11v9h-1q1 -2 5 -2q6 8 6.5 11t0.5 11q3 0 11 7v20q-7 8 -11 8q0 2 -2 4t-2 3zM617 129q2 -1 3 -2l1 -2h8q0 -3 -4 -7h-3
q-5 4 -5 11zM629 125q0 4 3 7q0 -2 -1 -3q-2 -3 -2 -4zM632 132v50q4 0 11 8v10h15l4 8v22h7v-90q-1 -2 -5 -3q-3 -2 -6 -5v-14l-14 -8q0 19 -8 22h-4zM456 -67q2 -1 3 -2l1 -2v3q-1 1 -4 1zM460 -71q4 -1 9 -8l6 -6q0 7 -7 14h-8zM468 -67q3 9 3 31h15q2 -2 3 -4q0 -4 4 -6
q2 -1 4 -1q-2 -2 -5 -3.5t-6 -3.5v-9q0 -5 -3 -5q-3 1 -6 1h-9zM414 -10q-1 -5 -1 -15v-12q0 -20 -2 -26h-4v49q3 0 7 4zM307 -89l3 -4q0 3 -1 4h-2zM310 -93q4 0 8 -3q-8 0 -8 3zM264 129q-3 0 -7 3v12l-7 7h-15v15q11 0 11 9v7q-1 3 -5.5 5t-5.5 3v10q-6 8 -11 8
q3 0 7 2.5t4 4.5v7q0 3 -4 4q-5 2 -7 4v34h8v-16l3 -7h15v-33q-8 0 -8 -8v-7q0 -3 8 -3v-24q2 -1 6 -4t5 -4v-26zM296 90q4 4 4 20h13q-2 -1 -3.5 -3t-2.5 -4v-31q-1 1 -3 2.5t-4 1.5q0 7 -4 14zM307 72l4.5 -2t6.5 -2h-8q-1 1 -1 2zM318 68q1 7 7 15v-15h-7zM531 237
q2 -2 3 -4l4 -2q2 -1 4 -1l1 -15h-18q0 8 -1.5 10t-11.5 5q0 34 -4 42h-3q-4 -2 -5 -8q-2 -6 -3 -7h-4v15h15q1 6 4 14h9v-14q8 -8 11 -8zM511 305q0 7 -6 7q-8 -7 -12 -7v14h15q0 -3 1.5 -8t1.5 -6zM300 290h-12q0 -2 -1.5 -6t-1.5 -5q-27 -7 -28 -7v25h15l7 8v14
q27 0 31 20q18 5 22 22h15q0 -29 7 -34h4q6 5 6 20q7 4 10 7v15q9 -8 11 -8h8q-1 0 7 8q0 -18 7 -22h4l3.5 7l3.5 7h15q1 -5 4 -11q1 -1 9 -3q-14 0 -14 -8v-7q4 -5 36 -5v-15h-39q-2 2 -3 8q-3 6 -4 7h-4q-2 -5 -7 -15h-4q-2 3 -7 15h-15q0 -6 -3 -15h-8q0 4 -3 15h-28
q-2 -6 -7 -15q-10 0 -20 -8z" />
    </font>
</defs>
</svg>
