<?xml version="1.0" standalone="no"?>
<!DOCTYPE svg PUBLIC "-//W3C//DTD SVG 1.1//EN" "http://www.w3.org/Graphics/SVG/1.1/DTD/svg11.dtd" >
<svg xmlns="http://www.w3.org/2000/svg" xmlns:xlink="http://www.w3.org/1999/xlink" version="1.1">
<metadata>
Created by FontForge 20170731 at Mon Apr 12 07:35:12 2004
 By Aleksey,,,
Copyright (c) LDO Fonts, 2004. All rights reserved.
</metadata>
<defs>
<font id="OregonLDOExtraBold-Oblique" horiz-adv-x="176" >
  <font-face 
    font-family="Oregon LDO ExtraBold"
    font-weight="800"
    font-style="oblique"
    font-stretch="normal"
    units-per-em="1000"
    panose-1="2 11 9 3 6 4 2 2 2 4"
    ascent="800"
    descent="-200"
    x-height="491"
    cap-height="691"
    bbox="-106 -285 1084 904"
    underline-thickness="50"
    underline-position="-150"
    slope="-12"
    unicode-range="U+0020-FB02"
  />
<missing-glyph horiz-adv-x="278" 
 />
    <glyph glyph-name=".notdef" horiz-adv-x="278" 
 />
    <glyph glyph-name=".null" horiz-adv-x="0" 
 />
    <glyph glyph-name="nonmarkingreturn" horiz-adv-x="278" 
 />
    <glyph glyph-name="space" unicode=" " horiz-adv-x="278" 
 />
    <glyph glyph-name="space" unicode="&#xa0;" horiz-adv-x="278" 
 />
    <glyph glyph-name="exclam" unicode="!" horiz-adv-x="174" 
d="M16 160q3 23 8 64t11 89t12.5 99.5t12 95.5t10.5 77t7 44q8 38 33 53.5t51 15.5t44 -15.5t10 -53.5q-1 -6 -8 -31t-18 -62.5t-24.5 -84.5t-28.5 -96.5t-30 -100t-28 -94.5h-62zM-50 65q7 32 34 54.5t59 22.5t49.5 -22.5t10.5 -54.5t-34 -54t-59 -22q-31 0 -49 22t-11 54z
" />
    <glyph glyph-name="quotedbl" unicode="&#x22;" horiz-adv-x="289" 
d="M59 698h96l-67 -315h-95zM198 698h96l-67 -315h-96z" />
    <glyph glyph-name="numbersign" unicode="#" horiz-adv-x="442" 
d="M140 403h-79q9 13 18.5 30t17.5 34t14 32.5t8 26.5h73q21 52 31.5 77t14 36.5t4 15.5t2.5 14q34 -10 41 -10q5 0 65 16q-10 -16 -18.5 -29.5t-17.5 -30t-19 -38t-23 -51.5h60q21 52 31.5 77t14 36.5t4 15.5t2.5 14q34 -10 41 -10q5 0 65 16q-10 -16 -18.5 -29.5
t-17.5 -30t-19 -38t-23 -51.5h77q-8 -12 -17 -28.5t-17 -34t-14 -33.5t-8 -27h-72q-9 -20 -16 -37.5t-14.5 -34.5t-15.5 -35t-17 -40h77q-8 -13 -16.5 -29.5t-16.5 -34t-14 -33t-9 -26.5h-72q-28 -58 -40 -92.5t-16 -43.5q-12 0 -25 0.5t-13 2.5q0 -1 -6 -1.5t-14 -1
t-18 -0.5h-17q7 11 13.5 21.5t14 25.5t17 36t23.5 53h-59q-28 -58 -40 -92.5t-16 -43.5q-12 0 -25 0.5t-13 2.5q0 -1 -5.5 -1.5t-14 -1t-18 -0.5h-16.5q7 11 13.5 21.5t14 25.5t17 36t22.5 53h-78q9 13 18.5 29.5t17.5 33.5t13.5 33t7.5 27h73zM280 403h-59
q-9 -20 -16 -37.5t-14.5 -34.5t-15.5 -35t-17 -40h60z" />
    <glyph glyph-name="dollar" unicode="$" horiz-adv-x="442" 
d="M178 291q-38 17 -64.5 35t-42 40t-19.5 50t4 65q15 73 69 123.5t134 64.5q2 16 2.5 36.5t-3.5 52.5q22 -8 37 -13t19 -5q5 0 21 4.5t39 12.5q-15 -33 -23 -53.5t-10 -30.5q54 -5 85.5 -23.5t51.5 -35.5q-18 -23 -31 -47t-28 -57h-45q-4 21 -15 45.5t-36 32.5l-41 -195
q37 -16 65 -33t44.5 -38t22 -48t-2.5 -64q-8 -36 -27 -70t-47 -62.5t-63.5 -50.5t-76.5 -33q-5 -22 -7.5 -49.5t-4.5 -69.5q-20 7 -33.5 11.5t-18.5 4.5q-4 0 -19 -4.5t-38 -11.5q13 34 22.5 62.5t14.5 47.5h-2q-48 0 -89 16t-78 51q18 29 28 52.5t21 57.5h45q17 -49 42 -69
t51 -25zM216 82q27 14 44.5 39t24.5 55q2 10 3 19.5t-2 19t-10.5 19.5t-22.5 21zM240 582q-23 -11 -39 -30.5t-21 -45.5q-6 -26 1.5 -46t25.5 -33z" />
    <glyph glyph-name="percent" unicode="%" horiz-adv-x="851" 
d="M61 496q8 38 27.5 70.5t47.5 56.5t63 37.5t74 13.5t68.5 -13.5t47 -37.5t23 -56.5t-2.5 -70.5t-27.5 -71t-47.5 -57t-63 -37.5t-74 -13.5t-68 13.5t-47 37.5t-23.5 57t2.5 71zM441 163q8 38 27.5 71t47.5 57t63 37.5t74 13.5t68 -13.5t46.5 -37.5t23 -57t-2.5 -71
t-27.5 -70.5t-47 -56.5t-62.5 -37.5t-74 -13.5t-68.5 13.5t-47 37.5t-23 56.5t2.5 70.5zM644 701q21 -10 31 -10q3 0 22.5 6t51.5 17l-545 -756q-23 10 -31 10q-4 0 -23.5 -6t-51.5 -17zM177 496q-5 -21 -5.5 -41t3.5 -35.5t13 -24.5t24 -9t28 9t23 24.5t17.5 35.5t12.5 41
q4 21 5 41t-3 35t-13 24t-24 9t-28 -9t-23 -24t-18 -35t-12 -41zM557 163q-5 -21 -5.5 -41t3.5 -35t13 -24t24 -9t28 9t23 24t17.5 35t12.5 41q4 21 5 41t-2.5 35.5t-12.5 24.5t-24 9t-28 -9t-23.5 -24.5t-18.5 -35.5t-12 -41z" />
    <glyph glyph-name="ampersand" unicode="&#x26;" horiz-adv-x="641" 
d="M168 511q7 34 26 64t46 52t60 34.5t70 12.5q32 0 57 -8.5t41 -24.5t22 -40t0 -55q-6 -27 -21.5 -52t-36.5 -46.5t-45.5 -39.5t-48.5 -32q0 -3 2 -7v1q13 -24 24 -43t21.5 -37t21 -35.5t24.5 -37.5q38 42 75.5 89.5t80.5 113.5q10 -37 23 -56t27 -30q-45 -52 -84.5 -96.5
t-81.5 -84.5l26 -39t29 -42.5t28.5 -41.5t23.5 -35h-36t-20 0.5t-10 1t-4 0.5h1q-20 3 -41 3q-8 0 -19.5 -1t-22.5 -3q-2 0 -12.5 -0.5t-13.5 -0.5q-6 15 -15 34t-18 34q-48 -35 -100 -57.5t-117 -22.5q-41 0 -74.5 11.5t-56 34.5t-31.5 57t0 78q6 32 24.5 62.5t45.5 57.5
t60.5 50.5t71.5 40.5q-15 36 -22 69t0 67zM114 181q-4 -21 0.5 -40t16.5 -34t30.5 -24t43.5 -9q35 0 65.5 12t59.5 33q-29 48 -56 94.5t-53 98.5q-42 -25 -69.5 -55.5t-37.5 -75.5zM395 547q5 24 -5.5 39t-33.5 15q-26 0 -45 -18.5t-25 -45.5q-5 -21 0.5 -48.5t18.5 -53.5
q36 25 60.5 55.5t29.5 56.5z" />
    <glyph glyph-name="quotesingle" unicode="'" horiz-adv-x="144" 
d="M54 698h96l-67 -315h-95z" />
    <glyph glyph-name="parenleft" unicode="(" horiz-adv-x="215" 
d="M299 660q-48 -48 -81 -93t-55.5 -90.5t-37 -92.5t-25.5 -98q-11 -52 -16.5 -99t-2 -92.5t17.5 -90.5t41 -93l-60 -48q-66 93 -87 202t3 221q11 53 33.5 108t56 109.5t76.5 106t96 97.5z" />
    <glyph glyph-name="parenright" unicode=")" horiz-adv-x="215" 
d="M-85 -89q47 48 80 93t55.5 90.5t37.5 92.5t26 99q11 51 16 98t1.5 92.5t-17.5 90.5t-41 93l60 48q66 -93 87.5 -201.5t-1.5 -220.5q-11 -53 -34 -108.5t-56.5 -110t-77 -106t-95.5 -97.5z" />
    <glyph glyph-name="asterisk" unicode="*" horiz-adv-x="366" 
d="M172 695q23 -8 34 -11t16 -3q6 0 18.5 3t37.5 11l-40 -128q31 20 65.5 42t57.5 36q-2 -27 8 -52.5t30 -42.5l-136 -56q27 -14 58 -29t51 -26q-22 -14 -43 -39t-31 -55l-91 75q-4 -32 -8 -66t-8 -58q-16 4 -29.5 7.5t-18.5 3.5q-2 0 -19 -3.5t-37 -6.5l38 123
q-31 -20 -64.5 -41.5t-56.5 -35.5q2 29 -7.5 54t-27.5 41l132 55q-29 14 -58.5 29t-49.5 26q18 14 39 40.5t28 59.5l96 -81z" />
    <glyph glyph-name="plus" unicode="+" horiz-adv-x="512" 
d="M7 307h211l45 212h96l-45 -212h211l-20 -95h-211l-46 -212h-96l46 212h-210z" />
    <glyph glyph-name="comma" unicode="," 
d="M89 100q9 17 27.5 34.5t47.5 17.5q19 0 35.5 -13t10.5 -42q-3 -14 -11.5 -26t-17.5 -25q-1 -1 -1.5 -2t-2.5 -2l5 4l-42 -52.5t-44.5 -55.5t-44.5 -55.5t-41 -51.5l-52 21z" />
    <glyph glyph-name="hyphen" unicode="-" horiz-adv-x="336" 
d="M39 291h279l-23 -104h-279z" />
    <glyph glyph-name="period" unicode="." 
d="M10 65q6 32 33.5 54.5t59.5 22.5t49.5 -22.5t11.5 -54.5q-7 -32 -34.5 -54t-59.5 -22t-49.5 22t-10.5 54z" />
    <glyph glyph-name="slash" unicode="/" horiz-adv-x="334" 
d="M336 708q28 -10 35 -10q3 0 21 5.5t47 14.5l-441 -745q-28 10 -36 10q-3 0 -20.5 -5t-46.5 -14z" />
    <glyph glyph-name="zero" unicode="0" horiz-adv-x="534" 
d="M25 329q15 71 41 133.5t64 109.5t90 74.5t120 27.5q75 0 116 -27.5t58 -74.5t13.5 -109.5t-18.5 -133.5q-15 -68 -42.5 -130.5t-67.5 -110t-91.5 -75.5t-114.5 -28q-74 0 -115 27.5t-57.5 74t-13.5 109t18 133.5zM148 329q-12 -57 -16.5 -106t2 -84.5t25 -56t51.5 -20.5
t60 20.5t49 56t38.5 84.5t28.5 106t16 106t-2.5 85t-25 56.5t-51.5 20.5t-60 -19t-48 -54t-37.5 -84.5t-29.5 -110.5z" />
    <glyph glyph-name="one" unicode="1" horiz-adv-x="278" 
d="M169 551q-28 -14 -57.5 -28.5t-51.5 -25.5q-5 16 -14 28.5t-18 20.5l8 35q60 23 128 51t131 57l26 -17q-16 -61 -32.5 -128.5t-30.5 -129.5l-33 -155q-6 -30 -12.5 -65t-13 -70.5t-12 -69.5t-10.5 -64q-23 5 -40.5 7.5t-26.5 2.5q-8 0 -26.5 -2.5t-44.5 -7.5
q9 30 18 64.5t18 69.5t17 70t14 65z" />
    <glyph glyph-name="two" unicode="2" horiz-adv-x="480" 
d="M99 557q50 60 104 88.5t119 28.5q42 0 76 -11t56.5 -34t30.5 -58.5t-2 -85.5q-8 -35 -22 -64.5t-35.5 -58t-50.5 -56.5t-67 -60q-8 -6 -16.5 -13.5t-17.5 -15.5q-21 -18 -39 -31.5t-34 -26t-31 -26t-30 -29.5h40q33 0 67.5 1t67 2.5t60 3t47.5 3.5q-10 -20 -16 -36.5
t-8 -24.5t-2.5 -23.5t0.5 -35.5q-24 1 -53.5 2t-60 2t-60 1.5t-54.5 0.5q-51 0 -112.5 -2t-112.5 -4l11 49q79 64 137 113.5t100 88t69.5 69t45.5 58t27.5 53.5t16.5 56q12 57 -6.5 84.5t-51.5 27.5q-24 0 -43.5 -10.5t-35 -26.5t-26 -33.5t-16.5 -31.5l-39 -2z" />
    <glyph glyph-name="three" unicode="3" horiz-adv-x="459" 
d="M103 600q15 13 34.5 26t42 23.5t48 17.5t54.5 7q42 0 76.5 -9.5t57.5 -30t32.5 -51t0.5 -72.5q-11 -53 -43.5 -90t-69.5 -59q19 -7 36.5 -19.5t29.5 -31t15.5 -44.5t-3.5 -61q-10 -47 -37.5 -87.5t-68 -70t-92.5 -46.5t-111 -17q-53 0 -91.5 13.5t-69.5 30.5
q10 14 21 39.5t16 42.5l37 19q7 -11 17 -23t23.5 -22t30 -16.5t35.5 -6.5q59 0 100.5 37t54.5 95q7 32 3.5 54.5t-15 36t-30 19.5t-42.5 6q-10 0 -31 -4t-41 -9q5 17 10 32l6 18q1 2 2 16t3 32q20 -4 40 -6.5t28 -2.5q25 0 43.5 11.5t31.5 29.5t20.5 39t11.5 40q5 24 2 41
t-11.5 28.5t-21 16.5t-27.5 5q-30 0 -58 -22.5t-44 -51.5l-41 -2z" />
    <glyph glyph-name="four" unicode="4" horiz-adv-x="508" 
d="M-29 215q53 58 113.5 123.5t117.5 128t105.5 116.5t78.5 89q27 -8 40 -8q7 0 22 3.5t36 9.5q-11 -41 -23 -91t-24.5 -104t-25 -108.5t-22.5 -103.5q23 2 51.5 5t52.5 8q-12 -24 -19 -40t-8 -21q-3 -14 0 -60q-27 5 -52 8t-45 4l-4 -16q-7 -32 -12 -65.5t-9 -58.5
q0 -2 -1.5 -8.5t-3 -14t-2.5 -14t-1 -7.5q-23 5 -39 7.5t-24 2.5q-6 0 -24.5 -3t-45.5 -8q4 13 10.5 34.5t13 45.5t12.5 47.5t10 41.5l4 16q-28 0 -70.5 -1t-86 -2.5t-81 -2.5t-54.5 -2zM317 487q-25 -27 -52.5 -57t-53.5 -59t-49.5 -55t-40.5 -47h152z" />
    <glyph glyph-name="five" unicode="5" horiz-adv-x="461" 
d="M180 410q15 5 34 7.5t47 2.5q46 0 80 -16t54.5 -43.5t27.5 -63.5t-2 -76q-10 -49 -38 -92t-68.5 -75t-91.5 -50.5t-108 -18.5q-45 0 -86.5 11t-75.5 37l6 25q8 13 17 34t15 39h40q5 -17 16 -30t25.5 -21.5t31 -13t32.5 -4.5q23 0 46.5 9t43.5 27.5t36 46.5t24 66
q7 33 3 56.5t-16 38.5t-29.5 21.5t-38.5 6.5q-17 0 -33 -4.5t-29.5 -10t-24 -11.5t-16.5 -9l-32 23q18 48 29 89.5t19 79.5q8 37 15.5 81.5t10.5 83.5l33 20q13 -2 27 -4t30 -4q39 -3 112 -3h43.5t40 0.5t33.5 1t24 0.5l16 -19q-16 -32 -22 -60q0 -2 -0.5 -4t-0.5 -6.5
t-0.5 -13t-0.5 -22.5q-27 5 -61.5 8.5t-70 6t-69 3.5t-57.5 1z" />
    <glyph glyph-name="six" unicode="6" horiz-adv-x="491" 
d="M463 612l-30 -24q-27 9 -55 9q-38 0 -71.5 -20t-61 -51.5t-48.5 -71t-35 -77.5q24 17 57.5 29t71.5 12q28 0 62 -8.5t61.5 -30.5t41.5 -60.5t1 -99.5q-11 -52 -36.5 -95t-62.5 -74t-83.5 -48t-98.5 -17q-45 0 -82.5 15.5t-62 50.5t-32 90.5t9.5 135.5q1 1 1 3
q17 81 52 152.5t84 125.5t110.5 85t133.5 31h6q19 0 30 -1.5t24 -3.5zM324 200q13 60 -2.5 98.5t-63.5 38.5q-23 0 -44.5 -10t-39.5 -28.5t-32 -43.5t-20 -55q-13 -61 7.5 -99.5t64.5 -38.5q48 0 82.5 38.5t47.5 99.5z" />
    <glyph glyph-name="seven" unicode="7" horiz-adv-x="464" 
d="M530 614q-57 -71 -118.5 -149t-123 -158t-121.5 -160t-114 -155q-16 3 -27.5 5.5t-19.5 2.5q-6 0 -28.5 -5t-57.5 -13q39 47 82 99t86.5 105.5t86 106t80.5 99.5t70 87t55 69q-52 -1 -132.5 -3.5t-183.5 -7.5q8 20 14.5 39t8.5 28t3 27.5t3 38.5q18 -2 39.5 -3t42 -2.5
t39 -2.5t31.5 -1q15 0 38 -0.5t47.5 -1t48 -0.5h41.5q14 0 27 0.5t25 0.5h67z" />
    <glyph glyph-name="eight" unicode="8" horiz-adv-x="505" 
d="M-8 190q11 55 45.5 102.5t97.5 78.5q-25 19 -40.5 52t-5.5 79q7 34 28 65t52.5 55t71 38t84.5 14q52 0 87 -13.5t55.5 -36t26 -51.5t-0.5 -60q-8 -39 -35 -75.5t-69 -61.5q17 -8 32.5 -21.5t26 -33.5t14 -47t-3.5 -62q-11 -51 -38 -93t-65 -72t-83.5 -46t-93.5 -16
q-49 0 -88 13.5t-64.5 40t-35 64.5t1.5 87zM326 195q13 59 -6.5 96.5t-67.5 37.5t-83.5 -37.5t-48.5 -96.5q-12 -58 7.5 -95.5t67.5 -37.5t83.5 37.5t47.5 95.5zM366 501q8 39 -4 67.5t-53 28.5q-40 0 -64.5 -28.5t-32.5 -67.5t4.5 -67.5t52.5 -28.5q41 0 65 28.5t32 67.5z
" />
    <glyph glyph-name="nine" unicode="9" horiz-adv-x="498" 
d="M43 109q20 -22 41 -34.5t42 -12.5q37 0 68.5 18t58 49t46.5 70.5t34 83.5q-27 -18 -61.5 -29.5t-71.5 -11.5q-94 0 -137.5 54.5t-22.5 154.5q10 48 35 88.5t61.5 70.5t82.5 47t99 17q46 0 84.5 -15.5t63.5 -50.5t32 -90.5t-10 -135.5q-18 -83 -53.5 -155.5t-85 -126
t-112 -84.5t-132.5 -31q-26 0 -50.5 6.5t-38.5 13.5q-1 14 -4 35.5t-10 41.5zM376 475q11 54 -9.5 88t-66.5 34q-44 0 -81 -39.5t-51 -106.5q-14 -68 4 -98t61 -30q27 0 50 13t41.5 34t32 48.5t19.5 56.5z" />
    <glyph glyph-name="colon" unicode=":" horiz-adv-x="185" 
d="M50 407q7 32 34 54t59 22t50 -22t11 -54t-34.5 -54.5t-59.5 -22.5t-49.5 22.5t-10.5 54.5zM-22 65q7 32 34 54.5t59 22.5t49.5 -22.5t10.5 -54.5t-34 -54t-59 -22q-31 0 -49 22t-11 54z" />
    <glyph glyph-name="semicolon" unicode=";" horiz-adv-x="192" 
d="M58 100q8 17 26.5 34.5t47.5 17.5q19 0 36 -13t11 -42q-3 -14 -11 -26t-18 -25q-3 -3 -3 -4l4 4q-20 -25 -41.5 -52.5t-44 -55.5t-44.5 -55.5t-41 -51.5l-53 21zM99 407q7 32 34 54t59 22t50 -22t11 -54t-34.5 -54.5t-59.5 -22.5t-49.5 22.5t-10.5 54.5z" />
    <glyph glyph-name="less" unicode="&#x3c;" horiz-adv-x="549" 
d="M4 300l570 242l-22 -101l-432 -182q88 -45 178 -91t177 -91l-21 -100l-466 244z" />
    <glyph glyph-name="equal" unicode="=" horiz-adv-x="559" 
d="M564 302h-518l20 96h518zM525 121h-518l21 96h518z" />
    <glyph glyph-name="greater" unicode="&#x3e;" horiz-adv-x="548" 
d="M-4 77l432 182q-88 45 -178.5 91.5t-177.5 90.5l22 101l466 -244l-17 -80l-568 -241z" />
    <glyph glyph-name="question" unicode="?" horiz-adv-x="286" 
d="M69 655q29 16 61.5 29.5t68.5 13.5q39 0 67 -12t44.5 -32t21 -46.5t-1.5 -55.5q-7 -31 -21 -57t-33 -47.5t-40.5 -40.5t-43.5 -37q-32 -26 -57.5 -51.5t-31.5 -51.5q-2 -11 2 -21.5t17 -10.5q8 0 17.5 4.5t15.5 6.5l38 -22q-11 -11 -22.5 -26t-13.5 -24q-16 -5 -30 -8.5
t-28 -3.5t-33.5 7t-36 22t-25 39t-1.5 59q6 28 19 52t30.5 44t38 37.5t41.5 34.5q31 26 57.5 52t32.5 55q5 24 -9.5 38.5t-35.5 14.5q-20 0 -52 -21.5t-67 -55.5zM-12 65q7 32 33.5 54.5t58.5 22.5t49.5 -22.5t10.5 -54.5t-34 -54t-59 -22t-49 22t-10 54z" />
    <glyph glyph-name="at" unicode="@" horiz-adv-x="685" 
d="M400 543q17 0 32.5 -4t26.5 -14l3 9h97q-20 21 -54 33t-87 12q-51 0 -99 -21t-87 -57.5t-67 -86t-40 -106.5q-11 -50 -3 -87.5t30.5 -63t58.5 -38t81 -12.5q31 0 65.5 9.5t69 24.5t67.5 33.5t61 36.5l-28 -92q-17 -12 -44 -28.5t-63 -30.5t-78.5 -24t-88.5 -10
q-50 0 -97.5 19t-81.5 57.5t-49 97.5t2 139q13 60 49 116.5t90 101t123.5 71.5t148.5 27q83 0 133.5 -21.5t76 -56t30 -78.5t-5.5 -89q-12 -56 -40.5 -102t-65 -78.5t-76 -50.5t-73.5 -18q-35 0 -50 10t-19 28q-22 -17 -45.5 -27.5t-50.5 -10.5q-124 0 -92 149q11 51 35 94
t56.5 74t71 48t77.5 17zM408 420q4 20 0 33.5t-25 13.5t-40.5 -16t-35.5 -40t-27.5 -52t-16.5 -53q-7 -32 -3 -47.5t24 -15.5q21 0 41.5 19.5t37 47t28.5 58t17 52.5zM578 391q10 45 6.5 80.5t-25.5 61.5q-40 -95 -63 -149.5t-34.5 -83.5t-15.5 -39.5t-5 -16.5q-2 -10 6 -10
q15 0 34.5 12t38.5 33t35 49.5t23 62.5z" />
    <glyph glyph-name="A" unicode="A" horiz-adv-x="662" 
d="M436 698q8 -38 18 -88t19 -96q10 -48 21 -100.5t22.5 -104.5t22.5 -102t20.5 -92t17.5 -75t13 -52q-32 5 -54.5 8.5t-32.5 3.5q-9 0 -27 -2.5t-41 -5.5q-3 51 -12 105t-20 106q-3 15 -4.5 24.5t-4.5 18.5q-27 1 -53 1h-53h-49.5t-48.5 -1q-41 -65 -79.5 -133.5
t-64.5 -121.5q-17 4 -29.5 6.5t-18.5 2.5q-10 0 -30.5 -4t-48.5 -10q54 82 114 172.5t120.5 183t120 183t112.5 173.5h50zM345 490q-25 -40 -48 -75t-52 -81h16q13 -1 25 -1h25h20.5h14t14 0.5t20.5 0.5z" />
    <glyph glyph-name="B" unicode="B" horiz-adv-x="520" 
d="M58 422q6 30 12.5 64t13 69t12 69t10.5 64q34 -3 65 -5t57 -2q12 0 24 0.5t24 1.5q14 1 26.5 2t25.5 1q45 0 83 -7.5t64.5 -25.5t37.5 -48.5t1 -76.5q-11 -57 -43 -94.5t-82 -61.5q51 -17 72 -57t7 -109q-12 -58 -44.5 -98.5t-75.5 -65.5t-91.5 -36t-92.5 -11
q-11 0 -23.5 0.5t-23.5 1.5t-21.5 2t-21.5 1q-20 0 -49.5 -2t-64.5 -5q7 30 16 64.5t17.5 70t16.5 69.5t14 64zM144 246q-7 -32 -12.5 -62.5t-10.5 -62.5q-2 -8 -4 -19t-4 -23q16 -2 33.5 -2h35.5q25 0 50 8.5t46 25.5t36.5 42t22.5 57q7 33 -1.5 54t-29.5 33t-54 16.5
t-74 4.5h-19zM203 399q29 0 58 5.5t53.5 18.5t42.5 34.5t25 53.5q6 30 -1.5 48.5t-24 28.5t-39 13.5t-44.5 3.5h-27t-22 -2q-3 -20 -9 -39q-8 -29 -15.5 -59t-13.5 -59l-10 -47h27z" />
    <glyph glyph-name="C" unicode="C" horiz-adv-x="655" 
d="M541 47q-12 -9 -35.5 -20t-53.5 -20.5t-66 -16.5t-73 -7q-79 0 -140.5 24t-100.5 70t-52 112.5t5 151.5t59.5 151t100.5 112t132.5 70t156.5 24q65 0 122.5 -16t101.5 -39q-20 -26 -30 -46.5t-17 -35.5q0 -3 -3 -13.5t-3 -11.5l-40 -2q-8 11 -21 25.5t-32 27t-43 21.5
t-53 9q-50 0 -96.5 -16.5t-85 -50t-67.5 -85.5t-44 -124t-8.5 -124.5t31 -86t64 -50t89.5 -16.5q31 0 61 9t57.5 22t51 28t40.5 26l20 -26z" />
    <glyph glyph-name="D" unicode="D" horiz-adv-x="706" 
d="M65 421q6 30 12.5 64t12.5 69.5t12 69.5t11 64q17 -1 38.5 -2.5t43.5 -2.5t43 -1.5t39 -0.5q17 0 34.5 0.5t34.5 1.5q18 1 37 2t36 1q88 0 146 -23t88.5 -65.5t36 -104t-10.5 -139.5q-21 -100 -70 -168.5t-111.5 -111t-130.5 -61t-127 -18.5q-16 0 -32 0.5t-30 1.5
q-16 1 -31 2t-31 1t-35.5 -0.5t-39.5 -1.5t-39.5 -2.5t-34.5 -2.5q7 30 15.5 64.5t17 69.5t16.5 69t14 64zM153 260q-5 -25 -9.5 -46.5t-8.5 -42.5t-7.5 -43t-6.5 -46q18 -3 44 -4t55 -1q47 0 96.5 11t93.5 42t78.5 84.5t52.5 139.5q16 74 8 122t-34 75.5t-68.5 38
t-94.5 10.5q-33 0 -65 -2t-59 -4q-11 -41 -21 -84.5t-19 -88.5z" />
    <glyph glyph-name="E" unicode="E" horiz-adv-x="416" 
d="M55 422q6 30 12.5 64t13 69t12 68.5t10.5 63.5q42 -2 95 -4t95 -2q21 0 46.5 0.5t52 1.5t51.5 2.5t46 2.5q-8 -21 -12.5 -34.5t-6.5 -18.5q-2 -12 -3 -54q-6 0 -17 1t-22.5 2t-22 2t-16.5 1q-36 4 -74 6t-96 2q-2 -6 -3.5 -11t-3.5 -12v1q-4 -17 -8 -34.5t-8 -38.5
q-5 -22 -9 -43t-8 -39l-4 -18q37 0 69 1t60.5 3t54.5 4t52 5q-11 -23 -15.5 -37t-5.5 -19q-1 -4 -2 -18t-1 -37q-33 4 -66 6t-63.5 3.5t-56.5 2.5t-45 1l-24 -112q-11 -53 -16 -76.5t-7 -40.5q59 0 128 3t135 16q-18 -43 -22 -59q-2 -6 -3 -19.5t0 -33.5q-21 1 -46 2.5
t-51.5 2.5t-52 1.5t-46.5 0.5q-43 0 -97 -2t-97 -4q8 31 16.5 65t17 69t16.5 69t14 64z" />
    <glyph glyph-name="F" unicode="F" horiz-adv-x="413" 
d="M56 421q6 30 12.5 64t12.5 69t11.5 69t10.5 64q21 -1 45.5 -2t50 -2t50 -1.5t45.5 -0.5t46.5 0.5t53 1.5t55.5 2t53 2q-8 -21 -13 -34t-7 -18q-1 -4 -1.5 -17.5t0.5 -36.5q-27 3 -62 5t-71.5 4t-70.5 3.5t-60 1.5q-7 -26 -12.5 -50t-10.5 -48q-4 -17 -6.5 -32t-5.5 -30
l-7 -33q58 0 117 2.5t132 9.5q-8 -20 -14 -36t-7 -18t-1 -18.5t-1 -35.5q-57 6 -122 8t-122 2l-12 -56q-6 -30 -12.5 -64.5t-13 -70t-12.5 -70t-11 -64.5q-23 4 -41 6.5t-28 2.5t-27 -2.5t-43 -6.5q8 30 16.5 64.5t17.5 70t17 70t14 64.5z" />
    <glyph glyph-name="G" unicode="G" horiz-adv-x="713" 
d="M650 525q-11 17 -27.5 33.5t-38.5 29.5t-49.5 21t-60.5 8q-53 0 -102.5 -16.5t-90 -50t-70.5 -85.5t-45 -124q-27 -126 24.5 -199t171.5 -73q33 0 70 5.5t61 15.5q6 24 11.5 48.5t10.5 50.5q6 26 10 52t9 51q1 3 2.5 10.5t3 16t3 16t2.5 10.5q18 -5 36 -7.5t29 -2.5
q8 0 23.5 3t44.5 11q-3 -11 -8.5 -32.5t-12.5 -51t-15.5 -65t-16.5 -73.5l-8 -37q-2 -10 -5 -27.5t-5 -27.5q-24 -8 -59 -17.5t-73 -17t-75 -12.5t-65 -5q-89 0 -155 23t-106 68t-52.5 112t5.5 155q18 85 60 151t102.5 112t137.5 70t165 24q49 0 88 -6.5t69.5 -16.5
t54.5 -22t42 -23q-7 -10 -15 -23t-15 -27.5t-13.5 -28.5t-10.5 -26h-42z" />
    <glyph glyph-name="H" unicode="H" horiz-adv-x="683" 
d="M530 421q6 30 12.5 64.5t13 70t12 70.5t10.5 65q24 -5 41 -7.5t27 -2.5t28.5 2.5t43.5 7.5q-8 -30 -16.5 -65t-17 -70.5t-17 -70t-14.5 -64.5l-35 -161q-6 -30 -12.5 -64.5t-13 -70t-12.5 -70t-11 -64.5q-23 4 -40.5 6.5t-27.5 2.5t-28 -2.5t-44 -6.5q8 30 17 64.5
t17.5 70t17 70t14.5 64.5l13 62q-43 1 -85 1h-86h-45h-41t-41 -0.5t-46 -0.5l-13 -62q-6 -30 -12.5 -64.5t-13 -70t-12 -70t-10.5 -64.5q-24 4 -41 6.5t-27 2.5t-28 -2.5t-43 -6.5q7 30 16 64.5t17.5 70t16.5 70t14 64.5l35 161q6 30 12.5 64.5t13 70t12.5 70.5t11 65
q23 -5 40.5 -7.5t27.5 -2.5t28 2.5t44 7.5q-8 -30 -17 -65t-17.5 -70.5t-17 -70t-14.5 -64.5l-2 -9q11 0 20.5 -0.5t20.5 -0.5q32 -1 64.5 -1.5t65.5 -0.5t65 0.5t64 1.5h12.5t9 0.5t9.5 0.5h13z" />
    <glyph glyph-name="I" unicode="I" horiz-adv-x="181" 
d="M44 421q6 30 13 64.5t13 70t12 70.5t11 65q24 -5 41 -7.5t27 -2.5t28 2.5t44 7.5q-8 -30 -16.5 -65t-17.5 -70.5t-17 -70t-14 -64.5l-35 -161q-6 -30 -13 -64.5t-13 -70t-12 -70t-11 -64.5q-24 4 -41 6.5t-27 2.5t-27.5 -2.5t-43.5 -6.5q8 30 16.5 64.5t17 70t16.5 70
t14 64.5z" />
    <glyph glyph-name="J" unicode="J" horiz-adv-x="286" 
d="M-76 -185q42 0 70.5 16.5t47.5 46.5t31 71.5t23 91.5l86 380q6 30 12.5 64.5t13 70t12.5 70.5t11 65q23 -5 40.5 -7.5t27.5 -2.5t28 2.5t44 7.5q-8 -30 -17 -65t-17.5 -70.5t-17 -70t-14.5 -64.5q-5 -22 -11 -51t-13 -62t-15 -68t-15 -70q-5 -23 -11.5 -53l-13 -60
t-12 -55t-8.5 -37q-10 -47 -35 -87.5t-62 -70.5t-83 -47.5t-98 -17.5z" />
    <glyph glyph-name="K" unicode="K" horiz-adv-x="581" 
d="M-31 20q16 60 30.5 120t27.5 120l34 161q6 30 12.5 64.5t13 70t12 70.5t10.5 65q24 -5 41 -7.5t27 -2.5t28.5 2.5t43.5 7.5q-8 -30 -16.5 -65t-17 -70.5t-17 -70t-14.5 -64.5l-4 -16q37 28 78.5 62.5t84 71.5t84.5 75t82 74q12 -3 23 -5t22 -2q9 0 44 6t86 15
q-48 -35 -107.5 -80t-118 -91t-110 -88t-84.5 -72q26 -40 53.5 -80t54.5 -82q3 -5 14.5 -22.5t27 -40.5t33 -48.5t33 -48.5t27 -40.5t15.5 -22.5q-42 6 -71.5 10t-42.5 4q-12 0 -28 -2t-34 -5q-22 36 -48 78.5t-51.5 84.5t-49 79t-39.5 62l-8 -37q-6 -30 -13 -64.5
t-13.5 -70t-12.5 -70t-11 -64.5q-23 4 -40.5 6.5t-27.5 2.5q-9 0 -19.5 -1.5t-22.5 -3.5z" />
    <glyph glyph-name="L" unicode="L" horiz-adv-x="411" 
d="M55 421q6 30 12.5 64.5t13 70t12.5 70.5t11 65q23 -5 40.5 -7.5t27.5 -2.5t28 2.5t44 7.5q-8 -30 -17 -65t-17.5 -70.5t-17 -70t-14.5 -64.5q-19 -91 -33.5 -162.5t-26.5 -130.5l-3 -13.5t-1.5 -8.5t-1.5 -8.5t-2 -11.5q29 0 58 0.5t61 2.5t69.5 5t82.5 9
q-11 -20 -18 -35.5t-8 -20.5q-2 -6 -1.5 -20t2.5 -34q-21 1 -47 2.5t-53.5 2.5t-54 1.5t-47.5 0.5q-22 0 -47.5 -0.5t-51.5 -1.5t-51.5 -2t-46.5 -2q8 30 16.5 64.5l17 69t16.5 68.5t14 64z" />
    <glyph glyph-name="M" unicode="M" horiz-adv-x="863" 
d="M257 698q18 -66 35 -125.5t35 -118.5t37 -118.5t41 -125.5q24 32 58 76.5t76 99.5q28 37 59 78t61.5 82t59.5 80t54 72h47q-6 -63 -13 -133t-14 -128q-5 -53 -11 -110.5t-11 -115.5t-10 -114.5t-8 -107.5q-26 5 -44 8t-25 3q-10 0 -27.5 -2.5t-40.5 -6.5q14 107 28 218.5
t24 217.5q-78 -103 -154 -207t-151 -220h-39q-20 78 -44 162.5t-49 165.5l-9 30t-5 18t-5.5 18t-9.5 30q-18 -54 -36.5 -112.5t-36 -115.5t-32 -110.5t-24.5 -96.5q-19 5 -32.5 8t-20.5 3q-8 0 -24.5 -3.5t-39.5 -8.5q28 77 62 170t67.5 188t64.5 186.5t54 165.5h53z" />
    <glyph glyph-name="N" unicode="N" horiz-adv-x="677" 
d="M506 -17q-74 115 -162.5 239.5t-174.5 242.5h-1q-6 -24 -13 -56t-16 -76q-4 -20 -10 -49t-12 -62.5t-12.5 -69t-12 -67.5t-9.5 -58t-5 -40q-20 6 -35 9.5t-23 3.5q-7 0 -23.5 -3.5t-40.5 -8.5q5 14 14 43.5t19.5 68l22.5 82.5t23.5 88t21 84t16.5 71q9 44 17.5 86
t15.5 78.5t12.5 64.5t7.5 44h51q8 -11 18 -25.5t18 -25.5q42 -60 83 -118.5t79.5 -112.5t74 -102t65.5 -87q13 58 25.5 120.5t24.5 123.5t22 118t18 104q19 -5 33.5 -8.5t20.5 -3.5t21.5 3.5t38.5 9.5q-8 -26 -21.5 -73t-27 -98.5t-25.5 -99t-18 -73.5q-5 -24 -12 -57.5
t-14.5 -70.5t-15 -75t-14 -71t-11.5 -58l-7 -35h-47z" />
    <glyph glyph-name="O" unicode="O" horiz-adv-x="811" 
d="M33 341q18 85 59.5 151t100.5 112t132.5 70t155.5 24t145.5 -24t103.5 -70t53 -112t-5 -151t-59.5 -151.5t-100.5 -112.5t-133 -70t-156 -24t-145.5 24t-103 70t-52.5 112.5t5 151.5zM640 341q15 72 8 124t-31.5 85.5t-64 50t-89.5 16.5t-96 -16.5t-84.5 -50t-67.5 -85.5
t-44 -124t-8.5 -124.5t30.5 -86t63.5 -50t89.5 -16.5t96.5 16.5t85 50t68 86t44.5 124.5z" />
    <glyph glyph-name="P" unicode="P" horiz-adv-x="489" 
d="M58 421q6 30 12.5 64.5t13 69.5t12 69.5t10.5 64.5q35 -4 64 -6t49 -2q12 0 28 1t34 2q14 1 30 1.5t25 0.5q15 0 38 -1t47.5 -6t47 -16t38.5 -31.5t22 -51t-3 -75.5q-15 -69 -53.5 -112t-86 -66.5t-96.5 -32t-86 -8.5h-28h-10t-14 1l-6 -27q-6 -30 -12.5 -64.5t-13 -70
t-12.5 -70t-11 -64.5q-23 4 -40.5 6.5t-27.5 2.5t-27.5 -2.5t-43.5 -6.5q8 30 16.5 64.5t17.5 70t17 70t14 64.5zM170 370q10 -2 21 -2.5t21 -0.5q25 0 52.5 5.5t53 20t45 40t28.5 66.5q7 33 2.5 53.5t-19.5 32t-38.5 16t-54.5 4.5h-61z" />
    <glyph glyph-name="Q" unicode="Q" horiz-adv-x="830" 
d="M45 341q18 85 59.5 151t100.5 112t132.5 70t155.5 24t145.5 -24t103.5 -70t53 -112t-5 -151q-27 -127 -105.5 -211.5t-186.5 -121.5q26 -24 61 -55.5t71 -63.5t68.5 -60t53.5 -46q-26 -1 -49.5 -6.5t-43 -13.5t-33 -17t-20.5 -17q-21 24 -52.5 57.5t-66.5 69.5
t-68.5 69.5l-57.5 57.5h-20q-82 0 -145.5 24t-103 70t-52.5 112.5t5 151.5zM652 341q15 72 8 124t-31.5 85.5t-64 50t-89.5 16.5t-96 -16.5t-84.5 -50t-67.5 -85.5t-44 -124t-8.5 -124.5t30.5 -86t63.5 -50t89.5 -16.5t96.5 16.5t85 50t68 86t44.5 124.5z" />
    <glyph glyph-name="R" unicode="R" horiz-adv-x="571" 
d="M61 421q6 30 13 64t13 69.5t12 69.5t11 64q13 -1 29.5 -2.5t34.5 -2.5t35 -1.5t30 -0.5q14 0 26.5 0.5t26.5 1.5q13 1 27 2t28 1q44 0 81.5 -8.5t63 -28.5t35.5 -53t0 -81q-9 -43 -32 -75.5t-53 -56t-64 -39t-64 -23.5q5 -10 11.5 -20t12.5 -22q18 -31 44 -74.5t52 -86.5
t48.5 -79t33.5 -53q-42 6 -71 10t-42 4q-10 0 -27.5 -2t-39.5 -5q-9 22 -29 62t-44.5 85t-51 89.5t-49.5 75.5h-2l-10 -45q-6 -30 -12.5 -64.5t-13 -70t-12 -70t-10.5 -64.5q-24 4 -41 6.5t-27 2.5t-28 -2.5t-43 -6.5q8 30 16.5 64.5t17 70t16.5 70t14 64.5zM177 387
q8 -1 19 -1h21q25 0 53.5 5.5t54 19.5t45.5 37t27 58q6 30 -1.5 49t-23 30t-36 15.5t-40.5 4.5q-41 0 -68 -3q-12 -45 -23 -90.5t-21 -90.5z" />
    <glyph glyph-name="S" unicode="S" horiz-adv-x="469" 
d="M50 166q4 -17 12.5 -34t22 -31t32.5 -23t45 -9q25 0 47.5 9t40 24t29.5 35.5t17 43.5q5 24 -1 41.5t-20 30.5t-33.5 23t-40.5 19q-29 13 -57 28t-48.5 37.5t-29 55.5t2.5 82q9 44 33 81t59 63.5t80 41t97 14.5q49 0 86 -14.5t69 -46.5q-18 -25 -31.5 -49t-28.5 -59h-45
q-2 13 -6.5 28.5t-13 28.5t-22.5 22t-35 9q-42 0 -75.5 -25.5t-41.5 -66.5q-6 -26 1 -44t21.5 -31t34.5 -23t42 -19q29 -13 56.5 -27t47 -35.5t27.5 -52t-2 -76.5q-10 -48 -36 -90.5t-65 -74.5t-89.5 -50.5t-110.5 -18.5q-32 0 -57 6t-45 15.5t-36 22t-29 24.5q9 15 15.5 28
t12 26t10.5 28l11 33h47z" />
    <glyph glyph-name="T" unicode="T" horiz-adv-x="536" 
d="M223 421q5 24 9.5 44.5t8.5 40t8 40.5t9 45q-46 -1 -104 -5t-109 -10q11 20 17.5 35.5t8.5 22.5q1 5 0.5 19t-2.5 34q30 -1 65 -2t71 -2t70.5 -1.5t64.5 -0.5t65 0.5t71 1.5t71.5 2t65.5 2q-10 -20 -16.5 -34.5t-7.5 -19.5q-2 -6 -1 -21.5t3 -35.5q-51 6 -107.5 10
t-99.5 5q-10 -43 -19 -85t-18 -85l-34 -161q-6 -30 -13 -64.5t-13 -70t-12 -70t-11 -64.5q-24 4 -41.5 6.5t-27.5 2.5t-27.5 -2.5t-43.5 -6.5q8 30 16.5 64.5t17.5 70t17 70t14 64.5z" />
    <glyph glyph-name="U" unicode="U" horiz-adv-x="664" 
d="M529 359q14 65 24.5 115t17.5 89.5t11.5 71t6.5 58.5q20 -5 36.5 -8.5t27.5 -3.5q5 0 20 4t38 11q-10 -33 -24 -83.5t-29 -108.5t-29.5 -118t-26.5 -111q-15 -67 -46 -121t-76 -92t-103 -58.5t-126 -20.5q-151 0 -205.5 71.5t-24.5 218.5q5 23 10.5 43.5t10.5 40.5
q9 32 16 64q14 66 23.5 120t17.5 96q1 3 2.5 11t3 17t3 16.5t2.5 10.5q23 -5 42 -8t27 -3q9 0 28 3.5t42 8.5q-9 -28 -19.5 -67.5t-22.5 -85.5t-24 -96.5t-23 -100.5q-9 -44 -16.5 -91.5t1.5 -87t41 -65t101 -25.5q68 0 111 29.5t69 72.5t39.5 92.5t22.5 90.5z" />
    <glyph glyph-name="V" unicode="V" horiz-adv-x="664" 
d="M205 10q-6 38 -15 89t-20 109t-23.5 121l-25 126t-25 123.5t-23.5 114.5q30 -5 52.5 -8.5t31.5 -3.5t26 2.5t40 6.5q15 -125 37 -251.5t51 -268.5q25 39 53 85t56.5 94t57 96.5t54 93.5t47 84t37.5 68q16 -5 28.5 -7.5t19.5 -2.5t28.5 4.5t51.5 11.5
q-54 -80 -112.5 -170.5t-117 -182.5t-114 -182.5t-103.5 -170.5q-14 4 -25.5 6.5t-17.5 2.5q-5 0 -11.5 -1t-11.5 -3z" />
    <glyph glyph-name="W" unicode="W" horiz-adv-x="1028" 
d="M169 12q-2 25 -7 78.5t-11.5 121t-14 142t-14.5 141.5t-13 120t-10 78q27 -5 47.5 -8.5t31.5 -3.5q9 0 26 2.5t40 6.5q2 -47 3.5 -86.5t4 -76t5.5 -72t6.5 -75.5t8.5 -87t11 -106q5 8 10.5 17.5t10.5 19.5q31 56 68 123t71.5 132.5t64 122t45.5 90.5q31 -11 44 -11
q12 0 50 11q2 -25 5.5 -66t8.5 -89t10.5 -100.5t11 -100.5t10.5 -88t9 -64q19 36 43.5 82t50.5 96t51.5 100.5t48 95t39.5 79.5t25 54q16 -5 28 -7.5t20 -2.5q7 0 27 4t49 11q-14 -22 -45 -75.5t-70.5 -124t-83.5 -148.5t-83.5 -149.5t-70.5 -127t-44 -80.5q-15 4 -26.5 6.5
t-18.5 2.5t-20 -2.5t-30 -6.5q-6 65 -12 124t-12 117t-13 119t-16 130q-26 -47 -60.5 -109t-71.5 -129t-73.5 -133t-65.5 -119q-16 4 -27.5 6.5t-18.5 2.5t-14 -1t-14 -3z" />
    <glyph glyph-name="X" unicode="X" horiz-adv-x="600" 
d="M254 689q19 -66 38.5 -122.5t42.5 -116.5q48 56 94 112.5t101 127.5q14 -4 25.5 -6.5t18.5 -2.5q8 0 33 5.5t60 13.5q-8 -8 -23 -24.5t-31.5 -34.5t-31.5 -34.5t-23 -25.5q-26 -28 -50 -53.5t-47.5 -50.5t-47 -51t-47.5 -55q16 -44 36 -93.5t40.5 -100t40.5 -99.5t37 -91
q-35 5 -60.5 9t-34.5 4q-11 0 -28 -2t-39 -5l-18 56q-9 29 -16.5 54l-15 50t-17 50.5t-22.5 55.5q-111 -129 -213 -267q-16 3 -27.5 5.5t-18.5 2.5q-8 0 -32 -5t-60 -14q36 40 77.5 86t83.5 93.5t82.5 93.5t75.5 87q-15 40 -33.5 85.5t-37.5 92.5t-37.5 92t-34.5 83
q33 -5 58.5 -9t36.5 -4t27.5 2t37.5 6z" />
    <glyph glyph-name="Y" unicode="Y" horiz-adv-x="595" 
d="M149 -10q23 72 40 143t32 143q-7 18 -20 52t-29 75.5t-33.5 87t-33.5 86t-28.5 72t-19.5 46.5q37 -6 63 -10t35 -4q10 0 27.5 2t38.5 6q12 -40 23.5 -77t23.5 -73.5t25.5 -74t28.5 -79.5q53 63 111 142.5t115 162.5q16 -4 28.5 -6.5t20.5 -2.5t33 4.5t58 12.5
q-68 -80 -122.5 -143.5t-96 -113.5t-71.5 -87.5t-50 -64.5q-7 -33 -15 -73t-15.5 -80.5t-13.5 -78.5t-10 -67q-26 5 -44 7.5t-26 2.5t-27 -2.5t-48 -7.5z" />
    <glyph glyph-name="Z" unicode="Z" horiz-adv-x="609" 
d="M-47 42q47 50 98.5 106t102 111t98 107.5t87 97.5t69.5 79t46 52h-23q-33 0 -77 -1.5t-90 -3.5t-90.5 -5.5t-78.5 -6.5q22 43 26 56q1 6 0.5 20.5t-2.5 34.5q22 -2 63.5 -3.5t96.5 -2.5t121.5 -1.5t138.5 -0.5q31 0 59.5 2.5t64.5 2.5l-11 -49q-21 -19 -59 -58
t-85.5 -89.5t-99.5 -108t-101.5 -112t-92 -103t-69.5 -80.5q3 0 6 -0.5t6 -0.5q6 0 11.5 0.5t12.5 0.5q34 0 83.5 1.5t101.5 4.5t100 7t81 8q-10 -22 -16.5 -37t-8.5 -21q-1 -6 -1 -20.5t2 -34.5q-67 2 -131 4t-118 2q-36 0 -86 -0.5t-98.5 -1.5t-89 -2.5t-57.5 -2.5z" />
    <glyph glyph-name="bracketleft" unicode="[" horiz-adv-x="207" 
d="M54 403q7 33 14 69.5t14 74t13.5 73.5t11.5 68q24 -4 42 -5.5t29 -1.5q22 0 51 1t49 2l35 -2q-7 -13 -11.5 -23t-4.5 -11q-1 -2 -1 -13.5v-25.5q-20 0 -45 1.5t-47 1.5q-13 -51 -25.5 -104t-23.5 -105l-50 -235q-6 -29 -11.5 -54.5t-10.5 -50.5t-9.5 -50.5t-8.5 -53.5
q23 1 50.5 1.5t43.5 1.5q-6 -13 -10.5 -24t-5.5 -14q0 -1 -0.5 -12.5t-0.5 -24.5h-33q-20 1 -48.5 2t-50.5 1q-11 0 -29 -1.5t-44 -5.5l17 68t18 73.5t17 74t15 69.5z" />
    <glyph glyph-name="backslash" unicode="\" horiz-adv-x="335" 
d="M55 718q24 -9 39.5 -14.5t18.5 -5.5q5 0 15 2.5t26 7.5l124 -744q-24 9 -40 14t-19 5q-5 0 -14.5 -2.5t-25.5 -7.5z" />
    <glyph glyph-name="bracketright" unicode="]" horiz-adv-x="209" 
d="M102 403q6 29 11 54.5t10 50.5t9 50t9 54q-23 -1 -50 -1.5t-44 -1.5q6 13 11 24t5 14v12t1 25h32q20 -1 49.5 -2t51.5 -1q11 0 29 1.5t44 5.5l-17 -68t-18 -73.5t-17 -74t-15 -69.5l-50 -235q-7 -33 -14.5 -69.5t-14.5 -74t-13.5 -73.5t-11.5 -68q-24 4 -41.5 5.5
t-28.5 1.5q-22 0 -51.5 -1t-49.5 -2l-34 2l6 12t5 11q3 5 6 11v40q20 -1 45 -2.5t46 -1.5q14 51 26.5 104t23.5 105z" />
    <glyph glyph-name="asciicircum" unicode="^" horiz-adv-x="555" 
d="M289 659h76l144 -470h-101l-107 351q-63 -85 -129 -175.5t-126 -175.5h-100z" />
    <glyph glyph-name="underscore" unicode="_" horiz-adv-x="587" 
d="M26 -121l19 93h514l-19 -93h-514z" />
    <glyph glyph-name="grave" unicode="`" horiz-adv-x="284" 
d="M55 613q-13 9 -25 23.5t-7 40.5q3 13 10.5 22.5t17.5 16.5t20 10.5t18 3.5q17 0 29.5 -8t22.5 -21l140 -179h-103z" />
    <glyph glyph-name="a" unicode="a" horiz-adv-x="476" 
d="M101 431q60 39 103.5 52.5t83.5 13.5q78 0 117 -44t24 -117q-11 -52 -24.5 -104.5t-25.5 -112.5q-4 -16 -5.5 -31t8.5 -15q2 0 10 2.5t37 17.5l-16 -76q-17 -7 -41 -14t-47 -7q-26 0 -42.5 11t-23.5 28q-35 -25 -68.5 -37t-78.5 -12q-28 0 -52 9.5t-40.5 27.5t-23.5 43.5
t0 57.5q14 67 62 103.5t120 47.5q45 7 70.5 11.5t38 9t15.5 9.5t5 12q4 19 3.5 36.5t-7.5 30.5t-20 20.5t-35 7.5q-31 0 -63 -17t-55 -47h-47zM287 224l-26 -6q-22 -4 -45 -8.5t-42.5 -13.5t-34 -23t-19.5 -36q-7 -32 8 -48.5t37 -16.5q27 0 53 14t47 34z" />
    <glyph glyph-name="b" unicode="b" horiz-adv-x="507" 
d="M481 255q-12 -59 -40.5 -108.5t-68 -85t-86.5 -55.5t-97 -20q-43 0 -76 17t-51 42q-15 -11 -29.5 -22t-29.5 -23h-51q9 30 18.5 66.5t18.5 75.5t17.5 76.5t15.5 68.5l36 169q7 32 14.5 70.5t14.5 78.5t13.5 78.5t10.5 71.5q25 -5 42 -8t24 -3q10 0 29.5 2.5t46.5 6.5
q-9 -25 -19 -61.5t-20.5 -78.5t-21 -86t-19.5 -84q35 29 70 41.5t76 12.5q54 0 90 -20t55.5 -53t23 -77t-6.5 -92zM353 258q8 37 5.5 66t-13 48.5t-27 29.5t-35.5 10q-25 0 -49.5 -9.5t-45.5 -31.5t-38 -57.5t-28 -86.5q-35 -164 78 -164q24 0 47.5 14t43.5 39.5t36.5 61.5
t25.5 80z" />
    <glyph glyph-name="c" unicode="c" horiz-adv-x="484" 
d="M25 242q14 66 46.5 114.5t75.5 79.5t93 46t100 15q56 0 101 -17.5t65 -40.5q-14 -20 -26.5 -42.5t-23.5 -48.5h-40q-4 12 -11.5 25t-19 23.5t-26 17.5t-32.5 7q-36 0 -64.5 -13.5t-50.5 -37.5t-36.5 -56.5t-22.5 -70.5q-18 -85 9 -128t94 -43q16 0 35.5 6t40 16t41 24
t38.5 31l25 -30q-8 -21 -14 -37.5t-9 -27.5q-20 -13 -43.5 -25.5t-49 -22t-51 -15t-49.5 -5.5q-45 0 -86.5 14t-70.5 45t-40.5 79.5t2.5 117.5z" />
    <glyph glyph-name="d" unicode="d" horiz-adv-x="506" 
d="M276 37q-28 -23 -62 -37t-82 -14q-40 0 -75 15t-58 45.5t-31 78.5t6 114q13 65 43 113.5t68.5 80.5t81.5 48t84 16q76 0 114 -42q8 40 16.5 83t16 82.5t14 74.5t11.5 59q1 0 7 -1t13 -2.5t12.5 -2.5t7.5 -1q12 -3 25 -3q8 0 23 3q2 0 9 1t15 2t15 2t9 1q-8 -26 -18 -63
t-21 -80.5t-22.5 -92t-22.5 -96.5t-21 -93.5t-18 -84.5q-10 -43 -17 -79.5t-14 -72.5q-2 -9 -4.5 -22t-5.5 -27.5t-5.5 -28.5t-4.5 -23q-2 0 -7.5 1t-12 2.5t-12 2.5t-8.5 2l2 -1q-5 1 -16 2t-10 1q-5 0 -15 -2h1q-1 0 -7 -1.5t-13.5 -3t-14 -3t-7.5 -1.5zM100 233
q-10 -49 -7.5 -81t14 -51t28.5 -26.5t35 -7.5q30 0 55.5 16t45 42t33.5 59t21 67q17 78 -3 119.5t-76 41.5q-28 0 -51 -14t-41.5 -38t-32 -57t-21.5 -70z" />
    <glyph glyph-name="e" unicode="e" horiz-adv-x="496" 
d="M18 229q13 62 39.5 111.5t64 84.5t85.5 53.5t105 18.5q55 0 92 -17t58 -46t26 -68t-4 -82q-1 -5 -3.5 -13t-5 -17t-5 -17.5t-3.5 -12.5q-17 0 -45 0.5t-45 0.5q-33 1 -65 1.5t-65 0.5q-20 0 -41 -0.5t-41 -1.5h-19l-1 -4q-7 -32 -3.5 -59t17 -47t37 -31.5t56.5 -11.5
q16 0 35.5 6t40.5 16t41 24t38 31l25 -29l-22 -67q-20 -13 -43.5 -25t-49 -21.5t-51.5 -15t-50 -5.5q-56 0 -97.5 18.5t-67.5 51t-35 77t2 96.5zM298 421q-24 0 -44 -10.5t-36.5 -27t-28.5 -37.5t-20 -41h10q21 -1 43 -1.5t42 -0.5q21 0 42.5 0.5t43.5 1.5h14q3 20 2.5 41
t-7 37.5t-21.5 27t-40 10.5z" />
    <glyph glyph-name="f" unicode="f" horiz-adv-x="302" 
d="M324 622q-23 16 -47 16q-29 0 -45.5 -21t-21.5 -49q-3 -12 -5.5 -36t-4.5 -49h27h76q-6 -14 -10.5 -27t-4.5 -15q-1 -2 -1.5 -14.5t-0.5 -27.5h-12.5t-18 0.5t-18 0.5h-12.5q-8 0 -12.5 0.5t-8 1t-7.5 0.5h-12q-10 -48 -21 -100.5t-21.5 -105.5t-21 -105.5t-19.5 -100.5
q-20 5 -36.5 7.5t-25.5 2.5q-8 0 -26 -2.5t-41 -7.5q27 103 50.5 206t45.5 206q-5 0 -10 -1t-10 -1h-10.5t-15.5 -0.5t-15 -0.5h-10q5 15 9.5 27.5t5.5 14.5q0 2 0.5 15t2.5 27h62h10q8 28 21 59t30.5 60t38 55t43.5 45q24 20 57 34.5t65 14.5q5 0 16 -2t25 -7
q-5 -18 -8 -30t-5 -19q-3 -11 -7.5 -28.5t-6.5 -27.5z" />
    <glyph glyph-name="g" unicode="g" horiz-adv-x="507" 
d="M80 322q9 45 32 77.5t55.5 54.5t71.5 32.5t80 10.5h24t26 -1q6 -1 12 -1t14 -1q5 0 8.5 -0.5t6.5 -0.5q33 -3 48 -3q27 0 55.5 3t51.5 8q-7 -17 -12 -32t-6 -17q0 -1 -1 -15.5t-2 -31.5q-4 0 -12 1t-17 2.5t-17 2.5t-11 1q-8 0 -8 1h3h-11q9 -20 11.5 -45t-2.5 -48
q-9 -41 -29.5 -73t-51.5 -54t-69.5 -34t-83.5 -12q-7 0 -14 0.5t-13 0.5q-7 1 -12.5 1h-10.5q-9 0 -17 -5.5t-10 -13.5q-3 -13 3 -18.5t24 -6.5q13 0 25 -0.5t25 -0.5q13 -1 25.5 -1h26.5q48 -2 80 -13t50 -30t23 -44.5t-1 -55.5q-8 -36 -30 -74t-58 -68.5t-86.5 -50.5
t-115.5 -20q-101 0 -150 42.5t-33 115.5q10 45 36 76.5t61 50.5q-11 13 -15.5 32t0.5 41q6 26 21 46t37 34q-27 23 -37.5 56.5t0.5 80.5zM326 -80q9 42 -15 61t-86 19q-57 0 -94 -18.5t-47 -66.5q-5 -26 0 -43.5t17.5 -29t32.5 -16.5t44 -5t48 6t44.5 18t35.5 30.5t20 44.5z
M362 327q10 46 -6.5 71.5t-51.5 25.5q-39 0 -66.5 -27.5t-37.5 -74.5q-11 -48 3 -76t56 -28q21 0 38 9t30 24t21.5 35t13.5 41z" />
    <glyph glyph-name="h" unicode="h" horiz-adv-x="460" 
d="M56 456q7 32 14.5 70.5t15 78.5t14 78.5t10.5 71.5q25 -5 42 -8t24 -3q8 0 26 3t44 8q-10 -33 -20 -71.5t-20 -78t-18.5 -77t-14.5 -67.5l-1 -9q62 45 137 45q30 0 59 -8t49.5 -29t29 -57t-3.5 -91q-9 -40 -19.5 -82.5t-21.5 -90.5l-7 -35l-8 -40t-7 -39.5t-6 -34.5
q-22 5 -38 7.5t-25 2.5q-8 0 -24.5 -2.5t-39.5 -7.5l27 105q8 33 15.5 65t15.5 67l12 57q12 57 -3 87.5t-50 30.5q-54 0 -85.5 -33.5t-45.5 -95.5q-5 -26 -12 -61.5t-14 -74t-13.5 -77t-10.5 -71.5q-24 5 -41 8t-25 3q-7 0 -25 -3t-44 -8q10 33 20 71.5t19.5 78.5t18 78
t14.5 70z" />
    <glyph glyph-name="i" unicode="i" horiz-adv-x="157" 
d="M8 290q9 40 17.5 92t15.5 113q24 -5 41 -8.5t25 -3.5q7 0 26 3.5t46 8.5q-19 -61 -32.5 -113t-22.5 -92l-20 -97q-9 -40 -17.5 -92t-15.5 -112q-24 5 -41.5 8t-24.5 3t-25.5 -3t-45.5 -8q19 60 32.5 112t22.5 92zM67 627q6 29 31.5 50t54.5 21t45.5 -21t10.5 -50
t-31.5 -50t-54.5 -21t-45.5 21t-10.5 50z" />
    <glyph glyph-name="j" unicode="j" horiz-adv-x="246" 
d="M115 253q12 54 23 117.5t18 124.5q24 -5 41 -8.5t25 -3.5q7 0 26 3.5t46 8.5q-19 -61 -32.5 -113t-22.5 -92l-20 -97q-6 -27 -12 -58.5t-11 -63.5q-6 -33 -12 -65t-11 -58q-9 -42 -21 -78.5t-44 -72.5q-31 -33 -81 -56.5t-113 -25.5l10 87q14 -4 24.5 -6.5t12.5 -2.5
q19 0 34 14t26 36t18.5 49t13.5 53zM182 627q6 29 31.5 50t54.5 21t45.5 -21t10.5 -50t-31.5 -50t-54.5 -21t-45.5 21t-10.5 50z" />
    <glyph glyph-name="k" unicode="k" horiz-adv-x="472" 
d="M45 456q7 32 14.5 70.5t14.5 78.5t13.5 78.5t10.5 71.5q25 -5 42 -8t24 -3t25.5 3t44.5 8q-9 -33 -19 -71.5t-20 -78.5t-18.5 -78.5t-15.5 -70.5l-33 -155q2 0 5 3l2 2q11 7 36 27t56.5 46t65.5 56t63 56q26 -8 41 -8q4 0 14 1t23 3h13t26 0.5t26 0.5h13
q-92 -62 -168 -116.5t-128 -96.5q20 -32 45 -70t51 -76t51 -75t46 -67q-45 5 -73 9t-37 4q-8 0 -23.5 -2t-35.5 -5q-14 25 -31.5 53.5t-35.5 57t-35 55t-31 46.5l-4 -22q-8 -38 -15.5 -85t-15.5 -109q-23 5 -41 8t-25 3q-6 0 -24.5 -3t-45.5 -8q10 33 20 71.5t20 78.5
t18.5 78t14.5 70z" />
    <glyph glyph-name="l" unicode="l" horiz-adv-x="167" 
d="M41 456q7 32 14.5 70.5t15 78.5t13.5 78.5t11 71.5q24 -5 41.5 -8t24.5 -3t25.5 3t44.5 8q-10 -33 -20 -71.5t-20 -78.5t-18.5 -78.5t-15.5 -70.5l-36 -169q-6 -32 -13.5 -70t-15 -78t-14 -78.5t-10.5 -71.5q-24 5 -41.5 8t-24.5 3q-6 0 -24.5 -3t-44.5 -8q10 33 20 71.5
t19.5 78.5t18 78t14.5 70z" />
    <glyph glyph-name="m" unicode="m" horiz-adv-x="777" 
d="M58 290q9 40 17.5 92t15.5 113q25 -5 42 -8.5t25 -3.5q11 0 63 11l-5 -15l-2 -6q0 -2 -0.5 -5.5t-1.5 -11.5q56 41 123 41q42 0 76.5 -19t49.5 -49q35 36 74.5 52t87.5 16q35 0 63.5 -9.5t46.5 -30t24 -52.5t-4 -78q-2 -13 -5.5 -27t-8.5 -31q-8 -27 -16.5 -62t-19.5 -87
q-3 -12 -6 -28.5t-6 -34t-5.5 -35t-4.5 -32.5q-21 5 -37 7.5t-26 2.5q-11 0 -29 -2.5t-41 -7.5q11 36 33.5 118.5t48.5 205.5q8 37 -3.5 62.5t-53.5 25.5q-27 0 -48 -10t-34 -24v1q-8 -9 -13 -17.5t-11 -28t-14 -56t-22 -100.5q-8 -41 -16 -87t-15 -90q-23 5 -39.5 7.5
t-24.5 2.5q-6 0 -24.5 -3t-44.5 -8q7 26 15.5 57.5t17 64t16 63.5t13.5 57q8 40 12.5 64t6 38t1 22t-3.5 16q-5 13 -19.5 22t-31.5 9q-48 0 -79 -33.5t-44 -95.5l-17 -80q-8 -40 -17 -92t-15 -112q-25 5 -42.5 8t-24.5 3q-8 0 -26 -3t-44 -8q17 60 31 112t22 92z" />
    <glyph glyph-name="n" unicode="n" horiz-adv-x="484" 
d="M342 284q12 57 -3 87.5t-50 30.5q-54 0 -85.5 -33.5t-44.5 -95.5l-17 -80q-8 -40 -17 -92t-15 -112q-24 5 -41.5 8t-25.5 3t-26 -3t-44 -8q19 60 32 112t21 92l20 97q9 40 18 92t15 113q25 -5 42 -8.5t25 -3.5q11 0 63 11q-4 -12 -5 -15.5t-2 -7.5q-2 -5 -3 -17
q32 25 62.5 34t72.5 9q30 0 59 -8t49.5 -29t29 -57t-3.5 -91q-8 -40 -19 -82.5t-22 -90.5l-7 -35t-7.5 -40t-7 -39.5t-5.5 -34.5q-23 5 -38.5 7.5t-24.5 2.5q-8 0 -24.5 -2.5t-39.5 -7.5l26 105q8 33 15.5 65t15.5 67l12 57v0z" />
    <glyph glyph-name="o" unicode="o" horiz-adv-x="549" 
d="M24 242q15 70 47.5 118.5t74.5 79t89.5 44t92.5 13.5t86.5 -13.5t70.5 -44t41.5 -79t-2.5 -118.5t-48 -119t-75 -79.5t-89.5 -44t-92.5 -13.5t-86.5 13.5t-70.5 44t-41 79.5t3 119zM153 242q-8 -35 -8.5 -67.5t8 -57t28.5 -39.5t55 -15q34 0 60.5 15t46 39.5t32 57
t20.5 67.5q7 34 8 66.5t-8 57.5t-29 40t-54 15q-35 0 -61 -15t-45.5 -40t-32.5 -57.5t-20 -66.5z" />
    <glyph glyph-name="p" unicode="p" horiz-adv-x="508" 
d="M55 193q7 32 14.5 70.5t15 78.5t13.5 79.5t11 73.5q25 -5 42 -8.5t24 -3.5q8 0 26 3t41 8q-5 -13 -6 -17t-2 -6q-1 -3 -0.5 -6.5t-1.5 -14.5q26 20 60.5 33.5t79.5 13.5q40 0 75.5 -14.5t58.5 -45.5t31.5 -78.5t-5.5 -113.5t-44 -114.5t-69 -80.5t-82.5 -48t-84.5 -16
q-76 0 -115 45q-7 -32 -14.5 -69t-14.5 -75t-13 -75.5t-10 -68.5q-23 5 -40.5 8.5t-24.5 3.5t-25 -3.5t-45 -8.5q10 33 20 71.5t19.5 78.5t18 78.5t15.5 70.5zM403 245q10 49 7.5 81.5t-13.5 51.5t-28 26.5t-35 7.5q-32 0 -57 -14t-43.5 -38t-32 -55.5t-20.5 -66.5
q-36 -171 76 -171q28 0 51 14t41.5 38t32 56.5t21.5 69.5z" />
    <glyph glyph-name="q" unicode="q" horiz-adv-x="507" 
d="M450 42q-7 -32 -14.5 -70.5t-15 -78.5t-14 -78.5t-10.5 -71.5q-24 5 -41 8.5t-24 3.5t-26 -3.5t-45 -8.5q10 33 20 71.5t20 78.5t18.5 78.5t15.5 70.5q-33 -27 -70 -41.5t-73 -14.5q-39 0 -75 13t-61 42.5t-34.5 78t5.5 119.5q14 67 44.5 116t68.5 80.5t80.5 46.5
t80.5 15q80 0 115 -41q2 10 2 19t1 20q24 -5 42 -8.5t26 -3.5q7 0 25.5 3.5t44.5 8.5q-10 -34 -20 -73.5t-20 -79.5t-18.5 -78.5t-15.5 -70.5zM378 251q7 31 7 60t-8.5 51.5t-26.5 36t-48 13.5q-19 0 -40 -8t-41.5 -28t-38 -55.5t-29.5 -89.5q-8 -35 -8 -65t8.5 -52
t24.5 -34.5t42 -12.5q29 0 55 16t46.5 42t35 59t21.5 67z" />
    <glyph glyph-name="r" unicode="r" horiz-adv-x="291" 
d="M281 359q-5 8 -15 14.5t-20 6.5q-34 0 -59.5 -31t-35.5 -76q-13 -60 -21.5 -101.5t-14.5 -72.5t-10 -56.5t-7 -53.5q-21 5 -37 8t-25 3q-5 0 -22.5 -3t-43.5 -8q9 30 16.5 59t14 59.5t13.5 63.5t15 71l7 30q4 18 9 43.5t10.5 55t11 61.5t10.5 62q46 -11 62 -11
q9 0 27.5 3.5t42.5 9.5q-7 -17 -12 -29.5l-7 -17.5q30 26 56.5 37t52.5 11q11 0 23 -2.5t35 -12.5q-16 -24 -23 -51.5t-12 -49.5z" />
    <glyph glyph-name="s" unicode="s" horiz-adv-x="369" 
d="M61 132q3 -10 9.5 -21.5t16.5 -21t23 -16t29 -6.5q26 0 50 15.5t30 45.5q3 13 -1.5 22.5t-14.5 16.5t-23.5 12t-28.5 10q-24 7 -47 16t-39.5 25t-23.5 40.5t1 62.5q7 35 25.5 65t46 52t63.5 34.5t79 12.5q28 0 48.5 -6.5t37.5 -13.5q2 -1 1.5 -1t2.5 -1t12.5 -3.5
t30.5 -8.5q-10 -12 -19.5 -27t-18 -30t-15 -28t-9.5 -20h-48q-2 23 -16 40.5t-37 17.5q-20 0 -41 -13t-27 -42q-3 -14 2 -24t15.5 -17.5t24 -12.5t28.5 -9q23 -7 45.5 -16t39 -24.5t24 -39.5t-0.5 -61q-7 -31 -27 -61.5t-50 -55t-69 -39.5t-83 -15q-47 0 -81 14t-59 31
q6 8 12.5 21t13 27t12 28t7.5 25h49z" />
    <glyph glyph-name="t" unicode="t" horiz-adv-x="283" 
d="M219 613h34q-11 -35 -20 -69t-18 -69q19 0 47 1t56 3q-9 -25 -11.5 -32.5t-3.5 -11.5q-1 -5 -1.5 -12t-2.5 -32q-25 2 -55.5 2.5t-47.5 0.5l-10.5 -42l-14 -56t-14.5 -61t-12 -55q-5 -22 -8.5 -43t-2 -37.5t10 -26.5t27.5 -10q7 0 27 4t41 10l-15 -70q-25 -9 -52 -15
t-47 -6q-70 0 -96 37t-12 103q5 23 11 48.5t14 55.5q4 19 8.5 36t9 35.5t9.5 41t12 51.5h-68q5 14 9.5 27t5.5 16q-1 -2 0 12.5t3 31.5q21 -2 37.5 -3.5t26.5 -1.5l2 7q2 17 6.5 43t8.5 46z" />
    <glyph glyph-name="u" unicode="u" horiz-adv-x="485" 
d="M13 162l11 49.5t10 42.5q5 17 8 32t7 30q3 16 7.5 38.5t9 47t9 48.5t8.5 44q44 -11 62 -11q19 0 66 11q-8 -27 -17.5 -63t-19.5 -74.5t-19.5 -78t-16.5 -73.5q-9 -43 -7.5 -64.5t9.5 -32.5q8 -12 22.5 -19.5t35.5 -7.5q31 0 54.5 13.5t37.5 33.5q9 13 15 24t11.5 29
t12.5 48t18 83q4 19 9 43.5t10 49.5t9 48.5t7 40.5q44 -11 61 -11q9 0 26.5 3.5t40.5 8.5q-20 -73 -40 -156t-36 -158q-5 -21 -9.5 -46t-9.5 -51t-9 -51t-7 -44q-21 5 -36.5 8t-23.5 3t-24 -2.5t-37 -7.5q4 12 5 16l2 8q1 3 1.5 7.5t2.5 12.5q-65 -48 -134 -48
q-85 0 -122 45.5t-20 130.5z" />
    <glyph glyph-name="v" unicode="v" horiz-adv-x="491" 
d="M141 11q-2 8 -3 16.5t-2 16.5l1 -1q-9 51 -19.5 109t-22.5 117t-24.5 117t-25.5 110q30 -6 51.5 -9.5t32.5 -3.5q9 0 24 2.5t35 6.5q9 -89 22 -172t31 -163q19 28 39 61.5t41 68.5t41 70.5t39 67.5q3 6 8 15.5t10.5 19l11 19t8.5 15.5q14 -5 25.5 -8t16.5 -3q6 0 26 5
t48 13q-5 -7 -14.5 -21.5t-20 -31t-20 -31t-13.5 -21.5q-65 -98 -132 -203.5t-123 -202.5q-14 4 -25.5 7t-16.5 3t-11 -1t-12 -3z" />
    <glyph glyph-name="w" unicode="w" horiz-adv-x="794" 
d="M143 12q-3 37 -10.5 93.5t-18 122t-22.5 135.5t-25 134q29 -6 50 -10t29 -4q7 0 23.5 2.5t38.5 7.5q5 -88 13.5 -166.5t19.5 -155.5q19 32 41.5 71.5t46 82.5t46.5 86.5t43 82.5q14 -5 25 -8t16 -3t16.5 3t27.5 8q4 -88 13.5 -165.5t21.5 -155.5q20 34 44 74.5t49 83.5
t49 84.5t44 77.5q15 -5 25.5 -7.5t16.5 -2.5q5 0 26 6t51 16q-92 -135 -172 -262t-149 -248q-2 0 -13 0.5t-13 0.5q-10 4 -15 4q-3 0 -16.5 -3.5t-25.5 -6.5q-5 81 -14.5 160t-22.5 153q-19 -32 -41.5 -70.5t-45.5 -79.5t-45 -81.5t-40 -76.5q-2 0 -13 0.5t-13 0.5
q-10 4 -16 4q-2 0 -7.5 -1t-10.5 -3q-2 0 -4.5 -0.5t-4.5 -0.5z" />
    <glyph glyph-name="x" unicode="x" horiz-adv-x="517" 
d="M213 491q33 -86 72 -162q38 39 79 81.5t76 80.5q26 -8 40 -8q7 0 34 6t69 16q-28 -26 -62.5 -57.5t-70 -64.5t-69 -64.5t-59.5 -56.5q15 -30 34 -66.5t38.5 -73.5t39 -72.5t36.5 -64.5q-38 7 -64 11t-37 4q-9 0 -24.5 -2t-35.5 -5q-21 47 -39 88t-42 89q-40 -44 -82 -90
t-77 -88q-14 3 -24.5 5.5t-15.5 2.5q-8 0 -33 -5.5t-66 -16.5q28 27 62 60.5t69.5 69l69.5 69.5l61 61q-15 29 -33.5 63t-37.5 69t-38 68t-34 60q39 -7 65.5 -11t35.5 -4t25.5 2t37.5 6z" />
    <glyph glyph-name="y" unicode="y" horiz-adv-x="487" 
d="M-30 -265q68 83 119.5 153t90.5 131q-5 29 -13.5 72t-18.5 91.5t-20.5 98.5t-20 93t-17 76t-10.5 47q30 -6 51.5 -10t28.5 -4q9 0 25 2.5t36 6.5q8 -77 22.5 -162t30.5 -166q49 74 99 159.5t94 170.5q35 -11 45 -11q5 0 25.5 5t52.5 13q-10 -14 -33 -48t-55 -81.5
t-70.5 -105t-78.5 -118t-79 -121.5t-73 -114.5t-60 -97t-40 -70.5q-15 5 -26.5 7.5t-18.5 2.5q-6 0 -28.5 -5.5t-57.5 -14.5z" />
    <glyph glyph-name="z" unicode="z" horiz-adv-x="486" 
d="M-28 40q43 42 90 89t93 94.5t88.5 92t76.5 80.5l-1 -1q-1 0 0 1l4 4q-24 -1 -55 -2.5t-63.5 -3.5t-63.5 -4.5t-54 -4.5q16 40 19 53q1 3 2 16.5t1 36.5q48 -5 111.5 -6.5t149.5 -1.5q18 0 34.5 0.5t33 1.5t36 2.5t43.5 3.5l-10 -49q-48 -48 -100.5 -101.5t-100.5 -103
t-88 -90.5t-62 -66q28 0 56 1t60.5 3t72 4.5t89.5 7.5q-7 -16 -12.5 -30.5t-7.5 -21.5q-1 -5 -1.5 -19.5t0.5 -30.5h-19t-24.5 0.5l-25 1t-19.5 0.5q-42 2 -86.5 2.5t-86.5 0.5q-62 0 -125 -3h1q-11 -1 -32.5 -1.5t-32.5 -0.5z" />
    <glyph glyph-name="braceleft" unicode="{" horiz-adv-x="243" 
d="M1 329q34 0 54.5 17.5t26.5 46.5l34 159q8 38 20.5 63.5t29 40.5t37.5 21.5t47 6.5h77l-17 -81h-53q-13 0 -21 -9.5t-15 -41.5l-32 -153q-9 -42 -29.5 -68.5t-49.5 -44.5q20 -18 29.5 -46t1.5 -67l-33 -153q-7 -32 -3 -42t17 -10h53l-17 -81h-77q-26 0 -44 6.5t-28.5 22
t-12 41t6.5 63.5l34 158q6 29 -7 47t-46 18z" />
    <glyph glyph-name="bar" unicode="|" horiz-adv-x="144" 
d="M125 747h96l-209 -980h-95z" />
    <glyph glyph-name="braceright" unicode="}" horiz-adv-x="243" 
d="M241 243q-34 0 -55 -18t-27 -47l-34 -158q-8 -38 -20.5 -63.5t-29 -41t-37.5 -22t-46 -6.5h-77l17 81h53q12 0 20 10t15 42l33 153q8 41 28.5 67.5t50.5 45.5q-20 17 -30 45t-1 68l32 153q7 32 3 41.5t-17 9.5h-53l17 81h77q25 0 43.5 -6.5t29 -21.5t12 -40.5t-6.5 -63.5
l-34 -159q-6 -29 7.5 -46.5t47.5 -17.5z" />
    <glyph glyph-name="asciitilde" unicode="~" horiz-adv-x="520" 
d="M15 237q38 47 75.5 74.5t87.5 27.5q33 0 53 -7.5t39 -17.5h-1q7 -4 14.5 -8t13.5 -7q17 -9 32.5 -16.5t33.5 -7.5q10 0 23 9t27.5 23t28.5 30.5t25 31.5l39 -86q-17 -18 -35.5 -36.5t-39 -33.5t-43 -24t-46.5 -9q-29 0 -54.5 10t-54.5 27q-20 11 -37 19t-32 8
q-16 0 -31 -9.5t-29.5 -23.5t-27 -31t-22.5 -33z" />
    <glyph glyph-name="exclamdown" unicode="&#xa1;" horiz-adv-x="175" 
d="M156 327q-2 -13 -4 -30t-4.5 -35t-4.5 -35t-4 -31q-6 -44 -13.5 -100t-14 -107.5t-11.5 -89t-6 -42.5q-8 -38 -33 -53.5t-51 -15.5t-43.5 15.5t-9.5 53.5q1 7 10.5 39.5t23 79.5t30.5 104.5t34 115.5q4 14 9.5 31.5t10.5 35.5t10 34.5t9 29.5h62zM68 421q7 32 34 54
t59 22t50 -22t11 -54t-34.5 -54.5t-59.5 -22.5t-49.5 22.5t-10.5 54.5z" />
    <glyph glyph-name="cent" unicode="&#xa2;" horiz-adv-x="480" 
d="M23 242q12 56 37.5 99t59.5 74t74.5 49.5t82.5 26.5q8 40 15 112q20 -7 32.5 -11.5t15.5 -4.5t18 4.5t38 11.5q-12 -35 -19.5 -61t-12.5 -45q48 -5 84.5 -21.5t55.5 -36.5q-14 -20 -26 -42.5t-23 -48.5h-40q-8 20 -24.5 42t-42.5 28q-19 -89 -35 -170.5t-35 -172.5
q30 6 66 26.5t65 47.5l25 -30q-17 -44 -23 -64q-32 -23 -73.5 -41t-80.5 -24q-4 -21 -8 -51.5t-8 -63.5q-20 7 -32 11t-17 4q-4 0 -18 -4t-36 -11q10 30 18.5 61.5t14.5 54.5q-38 6 -70.5 23.5t-54 48t-28.5 75t5 104.5zM259 408q-47 -17 -70.5 -60t-37.5 -105
q-13 -61 -1.5 -101t41.5 -57z" />
    <glyph glyph-name="sterling" unicode="&#xa3;" horiz-adv-x="507" 
d="M-5 102q32 0 54 9.5t37 26.5t24.5 41.5t15.5 54.5q4 18 6.5 37t4.5 37q-25 -1 -54 -1h-46q11 26 13.5 33t3.5 12q1 3 1 11t-2 40q38 -8 57 -10t33 -3q2 11 3.5 20t3.5 20q15 71 45 118t67 75t77 39.5t75 11.5q20 0 40 -4.5t38 -14t32.5 -23.5t23.5 -33
q-16 -14 -35.5 -35.5t-43.5 -51.5l-23 28q-1 26 -14.5 39.5t-34.5 13.5q-40 0 -70.5 -29.5t-39.5 -73.5q-7 -30 -11 -53.5t-7 -45.5v2v-1v-2q27 0 43.5 0.5t38.5 2.5h-1q4 0 13.5 0.5t20 1.5t20.5 1.5t15 0.5q-5 -15 -10 -28t-6 -17q-1 -3 -2 -16t-2 -29h-37q-16 0 -28 0.5
t-23 1t-23.5 0.5h-29.5l-4 -20q-12 -57 -39 -104t-61 -81q50 1 99.5 3t97.5 4q8 0 20.5 0.5t26 1.5t25.5 1.5t20 0.5q-9 -23 -13.5 -38.5t-6.5 -23.5t-3 -22.5t-2 -35.5h-18t-23 0.5t-23.5 1t-17.5 0.5q-40 2 -82 2.5t-82 0.5q-80 0 -159 -3q-8 0 -19 -0.5t-23 -1
t-22.5 -0.5h-16.5q5 16 10 31t7 23q2 9 3.5 23t3.5 30h39z" />
    <glyph glyph-name="currency" unicode="&#xa4;" horiz-adv-x="574" 
d="M539 595l52 -68l-64 -54q15 -30 19 -66t-5 -78q-17 -79 -74 -141l41 -53l-82 -69l-42 53q-35 -21 -74 -32.5t-78 -11.5q-81 0 -134 44q-6 -5 -15.5 -12.5t-19.5 -15.5t-18.5 -15t-12.5 -10l-51 69l64 54q-14 31 -18 66.5t4 73.5q9 42 27.5 77.5t47.5 66.5q-9 13 -22 30
t-19 25l80 67l43 -56q35 21 74.5 33t77.5 12t73 -12t60 -32zM446 329q7 34 1.5 64t-22.5 52.5t-43.5 35.5t-60.5 13t-66 -13t-58 -35.5t-45 -52.5t-26 -64t-1 -63.5t22.5 -52t43 -35.5t60.5 -13t66 13t58 35.5t45 52t26 63.5z" />
    <glyph glyph-name="yen" unicode="&#xa5;" horiz-adv-x="549" 
d="M199 309q-18 0 -42 -0.5t-42 -1.5q-14 0 -40 -0.5t-40 -0.5q5 15 9.5 27.5t5.5 15.5q1 4 1.5 16.5t1.5 27.5q38 -1 67.5 -2t67.5 -1q-8 17 -14.5 33.5t-14.5 33.5q-10 24 -23 55t-27 63.5t-27.5 63.5t-24.5 55q35 -5 60 -9t37 -4q11 0 27.5 2t37.5 6q3 -18 12.5 -48
t21.5 -65.5t26 -73t27 -70.5q54 62 106 127t103 131q13 -4 23.5 -6.5t17.5 -2.5q6 0 31.5 6t66.5 17q-24 -24 -59 -62t-74.5 -80.5t-79 -86.5t-72.5 -81h1l-1 -1q-2 -2 -2 -3q0 2 1 3q-1 0 -1 -1q-1 -1 -1 -2v-1l1 1q34 1 70 1.5t65 1.5q-5 -15 -9.5 -27.5t-5.5 -16.5
q-1 -3 -1.5 -15.5t-1.5 -27.5h-18t-23 0.5t-23.5 0.5h-17.5q-14 0 -23.5 0.5t-18.5 1t-18.5 0.5h-22.5l-8 -35q39 0 85 0.5t82 1.5q-5 -14 -10 -27t-6 -17q-1 -3 -1.5 -16t-1.5 -27q-41 1 -82.5 2.5t-82.5 1.5q-5 -26 -10 -53t-9.5 -54t-8.5 -51.5t-6 -45.5q-25 5 -42.5 8
t-24.5 3q-9 0 -27.5 -2.5t-42.5 -7.5q14 50 27 101.5t24 101.5q-19 0 -40.5 -0.5t-43.5 -1.5t-42.5 -1.5t-37.5 -0.5q5 14 9.5 27t5.5 16q1 4 2 17t2 27q39 -1 80.5 -1.5t81.5 -0.5z" />
    <glyph glyph-name="brokenbar" unicode="&#xa6;" horiz-adv-x="130" 
d="M11 210h96l-80 -373h-95zM110 677h96l-80 -374h-96z" />
    <glyph glyph-name="section" unicode="&#xa7;" horiz-adv-x="437" 
d="M367 539q-2 31 -18.5 54.5t-46.5 23.5q-15 0 -30.5 -5t-29 -14t-23.5 -22t-13 -29q-4 -19 2.5 -32.5t19.5 -24.5t31 -19.5t38 -16.5q26 -12 51.5 -24.5t44.5 -31t27.5 -45t0.5 -64.5q-8 -35 -30 -67t-42 -53q10 -16 12 -35.5t-4 -48.5q-8 -39 -30 -76t-56 -65.5
t-78.5 -45.5t-97.5 -17q-19 0 -39.5 4.5t-40 12t-36.5 17t-30 20.5q10 21 21 54t16 58h49q2 -11 8 -25.5t18 -28t31 -22.5t46 -9q20 0 39.5 7.5t35 20t27 28t14.5 31.5q4 17 -2.5 29.5t-20 23t-32 19t-39.5 16.5q-29 12 -57.5 26t-49 34t-30 49t-0.5 72q8 42 33 72.5
t50 49.5q-5 14 -6 32t6 50q7 33 25.5 65t47.5 56.5t67.5 39.5t85.5 15q26 0 47 -7t38.5 -19t30.5 -26.5t23 -29.5q-15 -12 -31.5 -34.5t-22.5 -42.5h-50zM321 248q5 25 -7.5 40.5t-45.5 31.5q-52 26 -82.5 42.5t-42.5 24.5q-8 -8 -14.5 -17.5t-8.5 -20.5q-5 -26 11 -43.5
t58 -37.5q44 -21 71 -34.5t44 -23.5q5 8 10 17.5t7 20.5z" />
    <glyph glyph-name="dieresis" unicode="&#xa8;" horiz-adv-x="376" 
d="M208 618q6 29 31.5 50t54.5 21q30 0 46 -21t10 -50q-7 -29 -32 -50t-55 -21q-29 0 -45.5 21t-9.5 50zM25 618q6 29 31 50t55 21q29 0 45 -21t10 -50q-7 -29 -32 -50t-54 -21q-30 0 -46 21t-9 50z" />
    <glyph glyph-name="copyright" unicode="&#xa9;" horiz-adv-x="775" 
d="M30 341q16 74 57.5 139t100.5 113.5t130 76.5t145 28t133 -28t97.5 -76.5t52.5 -113.5t-2 -139t-57.5 -139.5t-100.5 -114t-130 -76.5t-145 -28t-133 28t-97 76.5t-52 114t1 139.5zM659 341q13 60 0.5 112t-44.5 90q-11 -17 -21 -37t-16 -41l-36 -2q-5 6 -13 14t-19 15.5
t-26 13t-35 5.5q-28 0 -56.5 -7.5t-53 -27t-44 -53t-30.5 -85.5q-8 -35 -4.5 -65t17 -51.5t37.5 -34t59 -12.5q17 0 35 5t35.5 12.5t32 17t25.5 17.5l50 -2q-17 -27 -24 -45.5t-9 -28.5q-13 -7 -32 -15t-41.5 -15.5t-47.5 -12.5t-49 -5q-54 0 -95 16.5t-66.5 47.5t-34 74.5
t2.5 97.5q13 61 42.5 107t70 76.5t90 46t102.5 15.5q48 0 86 -10t64 -27q-29 32 -71 51t-95 19q-57 0 -111 -22t-99 -59.5t-76.5 -87.5t-43.5 -107t-2 -107.5t39 -88t74 -59.5t102 -22t111 22t99 59.5t77 88t44 107.5z" />
    <glyph glyph-name="ordfeminine" unicode="&#xaa;" horiz-adv-x="341" 
d="M73 636q28 12 60 25t73 13q19 0 40 -4.5t36 -16.5t22 -34t0 -57q-4 -19 -10 -42t-11 -43q-3 -17 -6.5 -29.5t-5.5 -21.5q-1 -9 -4 -9q1 0 6 2t12 5t14 6.5l13 6.5l-15 -68q-13 -7 -32.5 -14t-38.5 -7t-30 7t-17 18q-20 -12 -41.5 -18.5t-46.5 -6.5q-18 0 -36.5 4.5
t-32 15.5t-20 28.5t-1.5 44.5q4 21 12.5 37t23.5 28t38.5 20.5t58.5 14.5h-1q25 5 38.5 6.5t20.5 3.5q8 1 10 2q7 31 -3.5 39.5t-28.5 8.5q-20 0 -37.5 -12.5t-25.5 -24.5h-49zM189 489q-3 -1 -8 -1.5t-8 -1.5q-22 -3 -41.5 -10.5t-24.5 -29.5q-3 -13 4 -19t18 -6
q14 0 26.5 7t23.5 16z" />
    <glyph glyph-name="guillemotleft" unicode="&#xab;" horiz-adv-x="361" 
d="M195 459q6 -18 22.5 -32.5t40.5 -18.5l-153 -167q8 -19 18 -42.5l20 -47t19.5 -46t16.5 -38.5q-21 -3 -44.5 -19.5t-37.5 -36.5l-95 230zM331 459q6 -18 22.5 -32.5t39.5 -18.5l-152 -167q8 -19 18 -42.5l20 -47t19.5 -46t16.5 -38.5q-21 -3 -45 -19.5t-37 -36.5l-96 230
z" />
    <glyph glyph-name="logicalnot" unicode="&#xac;" horiz-adv-x="552" 
d="M430 302h-423l20 96h518l-63 -297h-95z" />
    <glyph glyph-name="registered" unicode="&#xae;" horiz-adv-x="775" 
d="M30 341q16 74 57.5 139t100.5 113.5t130 76.5t145 28t133 -28t97.5 -76.5t52.5 -113.5t-2 -139t-57.5 -139.5t-100.5 -114t-130 -76.5t-145 -28t-133 28t-97 76.5t-52 114t1 139.5zM547 152q42 38 71 86t41 103q12 57 1.5 107t-39.5 87.5t-74 59.5t-102 22
q-38 0 -75.5 -10.5t-71.5 -28.5q24 -2 45.5 -3.5t38.5 -1.5q9 0 17 0.5t18 1.5t20.5 2t20.5 1q30 0 54 -7t40 -21.5t22 -36.5t0 -52q-6 -28 -20.5 -49.5t-33 -37.5t-40.5 -27t-43 -17q5 -8 9 -16t9 -16q10 -19 22.5 -40.5t24.5 -41.5t24 -36.5t21 -25.5v-2zM115 341
q-15 -71 3 -130t63 -97q2 6 4.5 14l5 16t4.5 14l3 9q8 26 14.5 52t11.5 50l34 159q6 29 11.5 66.5t9.5 72.5q-61 -37 -105.5 -96.5t-58.5 -129.5zM240 119q-5 0 -18.5 -2.5t-33.5 -7.5q57 -45 140 -45q46 0 89.5 14t82.5 40q-6 1 -10.5 1h-8.5q-8 0 -20.5 -1.5t-28.5 -5.5
q-23 47 -50 98t-54 99l-8 -36q-7 -33 -13.5 -74.5t-13.5 -92.5q-20 7 -34 10t-19 3zM344 384q2 0 2.5 -0.5t1.5 -0.5q2 0 4.5 0.5t7.5 0.5q38 0 69.5 16t39.5 55q5 25 -10 39.5t-43 14.5h-21.5t-21.5 -2q-5 -17 -9.5 -34t-7.5 -33z" />
    <glyph glyph-name="macron" unicode="&#xaf;" horiz-adv-x="360" 
d="M39 659h301l-20 -95h-301z" />
    <glyph glyph-name="degree" unicode="&#xb0;" horiz-adv-x="350" 
d="M15 515q7 33 25.5 62t44.5 50.5t57.5 34t64.5 12.5t59.5 -12.5t43.5 -34t23.5 -50.5t-0.5 -62t-25.5 -62t-45 -50t-58 -33.5t-64.5 -12.5t-59 12.5t-43 33.5t-23.5 50t0.5 62zM97 515q-8 -32 10 -54.5t50 -22.5q16 0 31.5 6t28 16.5t21.5 24.5t13 30q7 32 -11 55t-50 23
q-16 0 -31.5 -6t-28 -16.5t-21.5 -25t-12 -30.5z" />
    <glyph glyph-name="plusminus" unicode="&#xb1;" horiz-adv-x="522" 
d="M-32 95h210l33 159h-211l21 95h211l36 170h96l-36 -170h211l-21 -95h-211l-33 -159h211l-21 -95h-517z" />
    <glyph glyph-name="twosuperior" unicode="&#xb2;" horiz-adv-x="337" 
d="M63 596q37 42 74 60t82 18q31 0 55.5 -7t41 -22t22.5 -38t-1 -55q-5 -24 -15 -44.5t-31.5 -44.5t-58.5 -54.5t-96 -75.5q21 0 43.5 0.5t44.5 1t41 1.5t34 2q-17 -36 -19 -48q-1 -4 -1 -15t3 -34q-17 1 -38 2t-43 2t-43.5 1.5t-37.5 0.5t-36 -0.5t-41 -1.5t-40.5 -2
t-35.5 -2l10 49q11 9 25.5 20.5t25.5 19.5q42 33 76.5 61t60 53.5t41.5 50.5t22 54t-4 42.5t-29 13.5q-14 0 -25 -6t-20 -15t-15.5 -19.5t-9.5 -18.5l-35 -2z" />
    <glyph glyph-name="threesuperior" unicode="&#xb3;" horiz-adv-x="325" 
d="M2 343h33q8 -11 24 -21.5t39 -10.5q33 0 56.5 18.5t29.5 47.5q4 16 2 27.5t-8 18t-14.5 9.5t-18.5 3q-9 0 -32.5 -5.5t-46.5 -12.5q26 49 27 52t-1 18.5t-5 43.5q30 -15 45 -21t19 -6q13 0 22.5 5.5t16.5 14.5t11 19.5t6 20.5q5 21 -5 31t-25 10q-17 0 -34.5 -12.5
t-26.5 -27.5l-34 -1l-16 59q22 17 56 34t82 17q55 0 87.5 -26t21.5 -80q-6 -29 -23 -51t-37 -37q20 -12 34.5 -35.5t6.5 -60.5q-14 -64 -70.5 -103t-137.5 -39q-38 0 -66 9t-50 21z" />
    <glyph glyph-name="acute" unicode="&#xb4;" horiz-adv-x="282" 
d="M171 701q16 13 32.5 21t33.5 8q8 0 16.5 -3.5t15.5 -10.5t10 -16.5t0 -22.5t-9.5 -23t-14.5 -17.5t-17 -13.5t-17 -10q-39 -22 -81 -45.5t-82 -45.5h-101z" />
    <glyph glyph-name="mu" unicode="&#xb5;" horiz-adv-x="461" 
d="M182 -14q-17 0 -31.5 2t-28.5 7q-12 -56 -22 -115t-18 -136q-44 11 -64 11q-11 0 -27 -2.5t-37 -7.5q3 16 7.5 36.5t9.5 41t9.5 39.5t7.5 33q9 42 19 85.5t21 96.5q28 134 47 232l9 45l10 50t10 48.5t9 40.5q20 -5 35.5 -7.5t25.5 -2.5q19 0 66 11q-8 -27 -17.5 -63
t-19.5 -74.5t-19.5 -78t-16.5 -73.5q-9 -43 -7.5 -64.5t9.5 -32.5q8 -12 22 -19.5t35 -7.5q31 0 54.5 13.5t37.5 33.5q9 13 15 24t12 29t13 48t18 83q4 19 9 43.5t10 49.5t9 48.5t7 40.5q44 -11 61 -11q9 0 26 3.5t40 8.5q-20 -73 -39.5 -156t-35.5 -158q-5 -21 -9.5 -46
t-9.5 -51t-9 -51t-7 -44q-21 5 -36.5 8t-23.5 3t-24.5 -2.5t-36.5 -7.5q3 12 4.5 16t2.5 8q1 3 1 7.5t2 12.5q-63 -48 -135 -48z" />
    <glyph glyph-name="paragraph" unicode="&#xb6;" horiz-adv-x="496" 
d="M394 592q-2 -1 -6 -1t-7 -1l-148 -697h-81l81 380q-58 3 -98 20t-63 44.5t-29.5 65.5t3.5 83q21 99 87 147t163 48h267l-14 -66l-72 -11l-151 -711h-80z" />
    <glyph glyph-name="periodcentered" unicode="&#xb7;" horiz-adv-x="183" 
d="M11 309q7 33 34.5 56t60.5 23t51.5 -23t11.5 -56q-8 -33 -35.5 -56t-60.5 -23t-51.5 23t-10.5 56z" />
    <glyph glyph-name="cedilla" unicode="&#xb8;" horiz-adv-x="246" 
d="M17 -110q14 -7 35.5 -12.5t41.5 -5.5q14 0 24 4t12 12t-5 11t-17 3q-11 0 -23 -4t-23 -10l-23 31l76 128h81l-35 -64q44 -2 63 -26t11 -63q-5 -26 -20 -45t-36 -32t-47 -19.5t-53 -6.5q-31 0 -59 9t-48 17z" />
    <glyph glyph-name="onesuperior" unicode="&#xb9;" horiz-adv-x="229" 
d="M137 570q-18 -9 -39.5 -19.5t-34.5 -15.5q-5 11 -11.5 20.5t-14.5 13.5l9 41q45 14 90 30.5t78 33.5h42q-5 -18 -11 -40t-11.5 -44.5t-11 -44.5t-9.5 -40l-19 -93q-4 -18 -8.5 -41t-8 -47t-7 -47t-6.5 -42q-19 6 -33.5 9t-21.5 3t-23 -3t-38 -9q6 19 12 42.5t12.5 47.5
t12 46.5t9.5 40.5z" />
    <glyph glyph-name="ordmasculine" unicode="&#xba;" horiz-adv-x="395" 
d="M24 511q9 45 31 76t50.5 50.5t61.5 28t65 8.5q31 0 60 -8.5t49.5 -28t29 -50.5t-0.5 -76q-10 -45 -32 -76t-50.5 -50.5t-61 -28t-63.5 -8.5q-32 0 -61 8.5t-49.5 28t-29 50.5t0.5 76zM133 511q-4 -18 -4 -34.5t4.5 -30t15.5 -21.5t29 -8t31.5 8t24 21.5t17 30t10.5 34.5
q3 17 3.5 34t-4.5 30.5t-15 21.5t-28 8t-32.5 -8t-24.5 -21.5t-17 -30.5t-10 -34z" />
    <glyph glyph-name="guillemotright" unicode="&#xbb;" horiz-adv-x="362" 
d="M181 412q21 2 44.5 19t37.5 37l95 -230l-193 -218q-6 18 -22.5 32.5t-40.5 18.5l153 167zM45 412q21 2 45 19t37 37l96 -230l-194 -218q-6 18 -22 32.5t-39 18.5l151 167z" />
    <glyph glyph-name="onequarter" unicode="&#xbc;" horiz-adv-x="762" 
d="M359 148q31 32 65.5 67.5t69.5 71l70 71t67 67.5q9 -3 17.5 -5.5t13.5 -2.5t20 3.5t32 8.5q-17 -60 -32 -122.5t-27 -122.5q14 2 30 5t35 8q-9 -18 -15.5 -34t-7.5 -20t-1 -18.5t1 -31.5q-10 2 -26.5 4.5t-33.5 2.5q-5 -28 -9.5 -58t-8.5 -54q-19 5 -33 8.5t-20 3.5
t-21.5 -3.5t-37.5 -8.5q8 26 16.5 56t14.5 57q-26 0 -54.5 -0.5t-54.5 -1.5t-47.5 -1.5t-33.5 -1.5zM523 692q12 -5 20 -8.5t11 -3.5q5 0 22 6t45 15l-442 -734q-13 5 -21.5 8.5t-10.5 3.5q-3 0 -20.5 -6t-46.5 -16zM173 570q-20 -9 -41 -19.5t-34 -15.5q-5 11 -11.5 20.5
t-13.5 13.5l8 41q45 14 90.5 30.5t78.5 33.5h42q-5 -18 -11.5 -40t-12.5 -44.5t-11 -44.5t-9 -40l-20 -93q-4 -18 -8 -41t-7.5 -47t-7 -47t-5.5 -42q-20 6 -34.5 9t-21.5 3t-23 -3t-37 -9q5 19 11.5 42.5t12.5 47.5t11.5 46.5t9.5 40.5zM575 275q-25 -23 -47.5 -46.5
t-42.5 -46.5h70zM467 160q-1 -1 0 -1v1z" />
    <glyph glyph-name="onehalf" unicode="&#xbd;" horiz-adv-x="749" 
d="M447 349q37 41 74 59.5t81 18.5q31 0 56 -7.5t41.5 -22.5t22.5 -38t-1 -55q-5 -24 -14.5 -44t-31 -44t-58.5 -55t-96 -75q42 0 87 1.5t76 3.5q-10 -20 -14.5 -31.5t-5.5 -16.5q-2 -5 -1.5 -16t2.5 -34q-16 1 -36.5 2.5t-42.5 2.5t-43.5 1.5t-37.5 0.5t-36 -0.5t-41 -1.5
t-41.5 -2.5t-36.5 -2.5l11 50q11 9 26 20.5t25 19.5q43 33 77.5 61t60 53.5t41.5 50.5t22 53q6 30 -5 43t-29 13q-14 0 -25 -6t-19.5 -15t-15 -19t-9.5 -18l-35 -2zM519 692q13 -5 21 -8.5t11 -3.5q5 0 22 6t45 15l-442 -734q-14 5 -22 8.5t-11 3.5q-2 0 -20 -6t-46 -16z
M172 570q-19 -9 -40 -19.5t-35 -15.5q-4 11 -10.5 20.5t-13.5 13.5l8 41q45 14 90 30.5t78 33.5h42q-5 -18 -11 -40t-12 -44.5t-11 -44.5t-9 -40l-20 -93q-4 -18 -8 -41t-7.5 -47t-7 -47t-6.5 -42q-39 12 -55 12q-8 0 -23.5 -3t-36.5 -9q5 19 11 42.5t12 47.5t11.5 46.5
t9.5 40.5z" />
    <glyph glyph-name="threequarters" unicode="&#xbe;" horiz-adv-x="803" 
d="M397 148q31 32 65.5 67.5t70 71t70 71t66.5 67.5q9 -3 17.5 -5.5t13.5 -2.5t20 3.5t32 8.5q-16 -60 -31 -122.5t-27 -122.5q29 3 64 13q-8 -18 -15 -34t-8 -20t-0.5 -18.5t0.5 -31.5q-10 2 -26 4.5t-33 2.5q-5 -28 -9.5 -58t-9.5 -54q-19 5 -32.5 8.5t-20.5 3.5
q-6 0 -21 -3.5t-38 -8.5q8 26 16.5 56t14.5 57q-26 0 -54.5 -0.5t-54.5 -1.5t-47.5 -1.5t-33.5 -1.5zM36 343h33q8 -11 24.5 -21.5t39.5 -10.5q33 0 56.5 18.5t29.5 47.5q7 33 -7 45.5t-34 12.5q-9 0 -32 -5.5t-46 -12.5q13 24 20 37t7 15q2 6 -6 62q30 -15 45 -21t20 -6
q13 0 22.5 5.5t16 14.5t10.5 19.5t6 20.5q5 21 -5 31t-25 10q-18 0 -34.5 -12.5t-26.5 -27.5l-34 -1l-16 59q23 17 57 34t82 17q55 0 87 -26t20 -80q-6 -29 -22 -51t-37 -37q20 -12 34.5 -35.5t6.5 -60.5q-14 -64 -70.5 -103t-137.5 -39q-38 0 -66.5 9t-50.5 21zM572 692
q13 -5 21 -8.5t11 -3.5q4 0 21.5 6t44.5 15l-441 -734q-14 5 -22 8.5t-11 3.5q-2 0 -20 -6t-46 -16zM613 275q-24 -23 -46.5 -46.5t-43.5 -46.5h70zM505 160q-1 -1 0 -1v1z" />
    <glyph glyph-name="questiondown" unicode="&#xbf;" horiz-adv-x="286" 
d="M91 262q11 11 22.5 26.5t14.5 24.5q15 5 29 8t28 3t33.5 -7t36 -22t25 -39t1.5 -59q-6 -29 -19 -52t-30.5 -43.5t-38 -38t-41.5 -34.5q-31 -26 -57.5 -51.5t-32.5 -54.5q-5 -25 9.5 -39.5t35.5 -14.5q20 0 52 21.5t67 55.5l-11 -115q-29 -15 -61.5 -29t-68.5 -14
q-39 0 -66.5 12t-43.5 32t-20.5 46.5t1.5 56.5q6 31 20 56.5t32.5 47.5t40 41t43.5 37q32 26 58 51t31 51q2 11 -1.5 21.5t-16.5 10.5q-7 0 -18 -4.5t-18 -8.5zM144 421q7 32 33.5 54t58.5 22t50 -22t11 -54t-34.5 -54.5t-59.5 -22.5t-49 22.5t-10 54.5z" />
    <glyph glyph-name="Agrave" unicode="&#xc0;" horiz-adv-x="662" 
d="M383 698l-101 76q-14 9 -25.5 23.5t-6.5 39.5q3 13 10.5 23t17.5 16.5t20 10t18 3.5q17 0 29.5 -8t22.5 -21l139 -179h-84q8 -37 17 -82t18 -86q10 -48 21 -100.5t22.5 -104.5t22.5 -102t20.5 -92t17.5 -75t13 -52q-32 5 -55 8.5t-33 3.5q-9 0 -26.5 -2.5t-40.5 -5.5
q-4 51 -12.5 105t-19.5 106q-3 15 -5 24.5t-4 18.5q-27 1 -53 1h-53h-49.5t-48.5 -1q-42 -65 -80.5 -133.5t-64.5 -121.5q-16 4 -28.5 6.5t-19.5 2.5q-10 0 -30.5 -4t-48.5 -10q55 82 115 172.5t120.5 183t120 183t112.5 173.5h12zM330 490q-13 -20 -25 -38t-24 -37
t-24.5 -38.5t-27.5 -42.5h16q13 -1 25 -1h25h20.5h14t14 0.5t20.5 0.5z" />
    <glyph glyph-name="Aacute" unicode="&#xc1;" horiz-adv-x="663" 
d="M472 861q16 13 32.5 21t33.5 8q8 0 16.5 -3.5t15.5 -10t10 -16.5t0 -23q-5 -25 -23 -39.5t-35 -23.5q-32 -19 -66.5 -38.5t-67.5 -37.5h24q8 -38 18 -88t19 -96q10 -48 21 -100.5t22.5 -104.5t22.5 -102t20.5 -92t17.5 -75t13 -52q-32 5 -55 8.5t-33 3.5q-9 0 -26.5 -2.5
t-40.5 -5.5q-4 51 -12.5 105t-19.5 106q-3 15 -5 24.5t-4 18.5q-27 1 -53 1h-53h-49.5t-48.5 -1q-42 -65 -80.5 -133.5t-64.5 -121.5q-16 4 -28.5 6.5t-19.5 2.5q-10 0 -30.5 -4t-48.5 -10q53 80 111.5 168t118 178.5t117.5 179.5t111 170h-94zM321 490q-13 -20 -25 -38
t-24 -37t-24.5 -38.5t-27.5 -42.5h16q13 -1 25 -1h25h20.5h14t14 0.5t20.5 0.5z" />
    <glyph glyph-name="Acircumflex" unicode="&#xc2;" horiz-adv-x="668" 
d="M419 698q8 -38 18 -88t19 -96q10 -48 21 -100.5t22.5 -104.5t22.5 -102t20.5 -92t17.5 -75t13 -52q-32 5 -54.5 8.5t-32.5 3.5q-9 0 -27 -2.5t-41 -5.5q-3 51 -12 105t-20 106q-3 15 -4.5 24.5t-4.5 18.5q-26 1 -52 1h-53h-49.5t-49.5 -1q-41 -65 -79.5 -133.5
t-64.5 -121.5q-17 4 -29 6.5t-19 2.5q-10 0 -30.5 -4t-48.5 -10q54 82 114 172.5t121 183t120 183t112 173.5h50zM405 772q-30 -23 -61.5 -46t-60.5 -44h-90l192 203h87l106 -203h-89zM328 490q-25 -40 -48 -75t-52 -81h16q13 -1 25 -1h25h20.5h14t14 0.5t20.5 0.5z" />
    <glyph glyph-name="Atilde" unicode="&#xc3;" horiz-adv-x="662" 
d="M420 698q8 -38 18 -88t19 -96q10 -48 21 -100.5t22.5 -104.5t22.5 -102t20.5 -92t17.5 -75t13 -52q-32 5 -55 8.5t-33 3.5q-9 0 -26.5 -2.5t-40.5 -5.5q-4 51 -12.5 105t-19.5 106q-3 15 -5 24.5t-4 18.5q-27 1 -53 1h-53h-49.5t-48.5 -1q-42 -65 -80.5 -133.5
t-63.5 -121.5q-17 4 -29.5 6.5t-19.5 2.5q-10 0 -30.5 -4t-48.5 -10q55 82 115 172.5t120.5 183t120 183t112.5 173.5h50zM210 706q9 24 24 49.5t34.5 46t44 33.5t52.5 13q19 0 33 -5t40 -19q20 -11 29.5 -15t18.5 -4q13 0 24.5 14.5t21.5 32.5h72q-6 -17 -19 -41.5t-33 -48
t-47.5 -40t-61.5 -16.5q-15 0 -33.5 5.5t-39.5 18.5q-19 11 -28.5 15t-17.5 4q-11 0 -19.5 -9.5t-21.5 -33.5h-73zM329 490q-13 -20 -25 -38t-24 -37t-24.5 -38.5t-27.5 -42.5h16q13 -1 25 -1h25h20.5h14t14 0.5t20.5 0.5z" />
    <glyph glyph-name="Adieresis" unicode="&#xc4;" horiz-adv-x="661" 
d="M420 698q8 -38 18 -88t19 -96q10 -48 21 -100.5t22.5 -104.5t22.5 -102t20.5 -92t17.5 -75t13 -52q-32 5 -54.5 8.5t-32.5 3.5q-9 0 -27 -2.5t-41 -5.5q-3 51 -12 105t-20 106q-3 15 -4.5 24.5t-4.5 18.5q-27 1 -53 1h-53h-49.5t-48.5 -1q-41 -65 -79.5 -133.5
t-64.5 -121.5q-17 4 -29 6.5t-19 2.5q-10 0 -30.5 -4t-48.5 -10q54 82 114 172.5t120.5 183t120 183t112.5 173.5h50zM244 778q7 30 31.5 50.5t54.5 20.5q29 0 45.5 -20.5t9.5 -50.5q-6 -29 -31 -50t-54 -21q-30 0 -46 21t-10 50zM427 778q7 30 32 50.5t54 20.5
q30 0 46.5 -20.5t9.5 -50.5q-6 -29 -31 -50t-55 -21q-29 0 -45.5 21t-10.5 50zM329 490q-25 -40 -48 -75t-52 -81h16q13 -1 25 -1h25h20.5h14t14 0.5t20.5 0.5z" />
    <glyph glyph-name="Aring" unicode="&#xc5;" horiz-adv-x="667" 
d="M286 786q5 24 19 45.5t34 37.5t43.5 25.5t48.5 9.5q24 0 43.5 -9.5t32.5 -25.5t17.5 -37.5t-0.5 -45.5q-8 -38 -36 -68.5t-66 -43.5q8 -37 16 -79t16 -81q10 -48 21 -100.5t22.5 -104.5t22.5 -102t20.5 -92t17.5 -75t13 -52q-32 5 -54.5 8.5t-32.5 3.5q-9 0 -27 -2.5
t-41 -5.5q-3 51 -12 105t-20 106q-3 15 -4.5 24.5t-4.5 18.5q-27 1 -53 1h-53h-49.5t-48.5 -1q-41 -65 -79.5 -133.5t-64.5 -121.5q-17 4 -29 6.5t-19 2.5q-10 0 -30.5 -4t-48.5 -10q52 78 109 164.5t115.5 175t116 176.5t109.5 169q-36 10 -54.5 41.5t-9.5 73.5zM326 490
q-25 -40 -48 -75t-52 -81h16q13 -1 25 -1h25h20.5h14t14 0.5t20.5 0.5zM372 786q-3 -14 4.5 -23.5t21.5 -9.5t26 9.5t15 23.5t-4.5 23.5t-21.5 9.5t-26 -9.5t-15 -23.5z" />
    <glyph glyph-name="AE" unicode="&#xc6;" horiz-adv-x="829" 
d="M238 235q-89 -109 -180 -242q-17 3 -28.5 5t-22.5 2q-8 0 -33.5 -4.5t-63.5 -11.5q37 40 83.5 93.5t99.5 113.5t109 125t111 130t107.5 126.5t97.5 114.5q38 -2 83 -4t85 -2q20 0 45 0.5t50.5 1.5t49.5 2.5t43 2.5q-9 -20 -16 -34.5t-8 -19.5q-2 -7 -1 -23t3 -38
q-21 4 -40.5 8t-44.5 7t-59.5 5t-84.5 2q-2 -5 -3.5 -9t-2.5 -9v1q-8 -31 -15 -61t-14 -62l-11 -53q63 0 96.5 1t53 2.5t33.5 2.5t37 1q-10 -19 -16.5 -32t-8.5 -18q-1 -4 0.5 -17t3.5 -32h-8t-14.5 0.5t-14.5 0.5h-8q-10 1 -22.5 2t-31.5 1.5t-47.5 1t-71.5 0.5l-15 -71
q-7 -34 -13.5 -68t-12.5 -69q0 -10 -3 -22q95 1 152 5.5t92 10.5q-11 -20 -18 -35.5t-8 -20.5q-3 -11 2 -53q-20 1 -45 2.5t-51 2.5t-50.5 1.5t-44.5 0.5t-44 -0.5t-49 -1.5t-49 -2.5t-44 -2.5q21 70 35 129t25 109zM480 526q-23 -27 -43.5 -51.5l-41 -49t-42.5 -50.5
t-47 -56q32 -1 62 -1t67 -2z" />
    <glyph glyph-name="Ccedilla" unicode="&#xc7;" horiz-adv-x="629" 
d="M248 -13q-62 11 -108.5 40t-74.5 74t-36 105.5t7 134.5q18 85 59.5 151t100.5 112t132.5 70t156.5 24q65 0 122.5 -16t101.5 -39q-20 -26 -30 -46.5t-16 -35.5q-1 -3 -4 -13.5t-3 -11.5l-40 -2q-8 11 -21 25.5t-32 27t-43 21.5t-53 9q-50 0 -96.5 -16.5t-85 -50
t-67.5 -85.5t-44 -124t-8.5 -124.5t31 -86t64 -50t89.5 -16.5q31 0 61 9t57.5 22t51 28t40.5 26l20 -26l-28 -76q-12 -9 -35 -19.5t-52.5 -20.5t-64.5 -16.5t-71 -7.5q-3 -3 -3 -5q44 -2 63.5 -26.5t10.5 -63.5q-5 -25 -20 -44.5t-36 -32.5t-47 -19.5t-53 -6.5q-30 0 -59 9
t-49 17l46 73q15 -7 36 -12t41 -5q13 0 23 3.5t12 11.5t-4.5 11t-16.5 3q-24 0 -46 -14l-24 31z" />
    <glyph glyph-name="Egrave" unicode="&#xc8;" horiz-adv-x="402" 
d="M159 774q-12 9 -23.5 23.5t-6.5 39.5q3 13 10 23t16.5 16.5t20 10t18.5 3.5q16 0 29 -8t24 -21l137 -177q21 1 41.5 2t37.5 2q-8 -21 -13 -34.5t-6 -18.5q-2 -10 -4 -54q-6 0 -17 1t-22.5 2t-22 2t-15.5 1q-36 4 -74.5 6t-96.5 2q-1 -6 -2.5 -11t-3.5 -11
q-4 -17 -8 -34.5t-9 -38.5q-5 -22 -8.5 -43t-7.5 -39l-4 -18q75 0 129 4t107 9q-11 -23 -15.5 -37t-5.5 -19q-1 -4 -2 -18t-1 -37q-33 4 -66.5 6t-63.5 3.5t-56 2.5t-45 1l-24 -112q-6 -27 -9.5 -45t-6.5 -31.5l-5 -22.5t-3 -18q59 0 128 3t135 16q-9 -21 -14.5 -36.5
t-6.5 -22.5q-2 -6 -3 -19.5t-1 -33.5q-20 1 -45 2.5t-51.5 2.5t-52 1.5t-46.5 0.5q-43 0 -97 -2t-98 -4q8 31 17 65t17.5 69t16.5 69t14 64l33 161q6 30 13 64t13 69t12 68.5t11 63.5q21 -1 45 -2t49.5 -2t50 -1.5t45.5 -0.5h29.5t32.5 1h-46z" />
    <glyph glyph-name="Eacute" unicode="&#xc9;" horiz-adv-x="401" 
d="M17 422q6 30 13 64t13 69t12 68.5t11 63.5q16 -1 33 -2t36 -2l213 178q15 13 32 21t33 8q17 0 32.5 -13.5t10.5 -39.5q-5 -25 -23 -39.5t-35 -23.5q-39 -22 -81 -46t-81 -46h-55q20 -1 39 -1h36q21 0 46.5 0.5t51.5 1.5t51.5 2.5t46.5 2.5q-8 -21 -13 -34.5t-6 -18.5
q-2 -10 -4 -54q-6 0 -17 1t-22.5 2t-22 2t-15.5 1q-36 4 -74.5 6t-96.5 2q-1 -6 -3 -11t-4 -12l1 1q-4 -17 -8 -34.5t-9 -38.5q-5 -22 -8.5 -43t-7.5 -39l-4 -18q75 0 129 4t107 9q-11 -23 -15.5 -37t-5.5 -19q-1 -4 -2 -18t-1 -37q-33 4 -66.5 6t-63.5 3.5t-56 2.5t-45 1
l-24 -112q-6 -27 -9.5 -45t-6.5 -31.5l-5 -22.5t-3 -18q59 0 128 3t135 16q-9 -21 -14.5 -36.5t-6.5 -22.5q-2 -6 -3 -19.5t-1 -33.5q-20 1 -45 2.5t-51.5 2.5t-52 1.5t-46.5 0.5q-43 0 -97 -2t-98 -4q8 31 17 65t17.5 69t16.5 69t14 64z" />
    <glyph glyph-name="Ecircumflex" unicode="&#xca;" horiz-adv-x="408" 
d="M27 422q12 59 24.5 129.5t22.5 130.5h-4l192 203h87l104 -198q2 0 4 0.5t4 0.5q-8 -21 -12.5 -34.5t-6.5 -18.5q-2 -6 -2 -19.5t-1 -34.5q-6 0 -17 1t-22.5 2t-22 2t-16.5 1q-37 4 -74.5 6t-95.5 2q-2 -6 -3.5 -11t-3.5 -12v1q-5 -17 -9 -34.5t-9 -38.5q-5 -22 -8.5 -43
t-7.5 -39l-4 -18q38 0 69.5 1t60 3t54.5 4t53 5q-11 -23 -16 -37t-6 -19q-2 -10 -2 -55q-33 4 -66 6t-63.5 3.5t-57 2.5t-45.5 1l-24 -112q-6 -27 -9.5 -45t-6.5 -31.5l-5 -22.5t-3 -18q60 0 129.5 3t135.5 16q-18 -43 -22 -59q-2 -6 -3 -19.5t0 -33.5q-21 1 -46 2.5
t-51.5 2.5t-52 1.5t-46.5 0.5q-43 0 -96.5 -2t-97.5 -4q8 31 16.5 65t17.5 69t17 69t14 64zM265 681q21 0 47 0.5t52 1.5l-82 89q-29 -23 -60.5 -45.5t-59.5 -43.5q27 -2 53.5 -2h49.5z" />
    <glyph glyph-name="Edieresis" unicode="&#xcb;" horiz-adv-x="407" 
d="M31 422q6 30 12.5 64t13 69t12 68.5t10.5 63.5q21 -1 45 -2t49.5 -2t50 -1.5t45.5 -0.5t46.5 0.5t52 1.5t51.5 2.5t46 2.5q-8 -21 -13 -34.5t-6 -18.5q-3 -12 -3 -54q-6 0 -17 1t-22.5 2t-22 2t-16.5 1q-36 4 -74.5 6t-96.5 2q-1 -6 -2.5 -11t-3.5 -12v1q-4 -17 -8 -34.5
t-9 -38.5q-5 -22 -8.5 -43t-7.5 -39l-4 -18q75 0 129 4t107 9q-11 -23 -15.5 -37t-5.5 -19q-1 -4 -2 -18t-1 -37q-33 4 -66.5 6t-63.5 3.5t-56 2.5t-45 1l-24 -112q-6 -27 -9.5 -45t-6.5 -31.5l-5 -22.5t-3 -18q59 0 128.5 3t134.5 16q-9 -21 -14 -36.5t-7 -22.5
q-2 -6 -3 -19.5t0 -33.5q-21 1 -46 2.5t-51.5 2.5t-52 1.5t-46.5 0.5q-43 0 -97 -2t-97 -4q8 31 16.5 65t17 69t16.5 69t14 64zM124 778q7 30 32 50.5t54 20.5t46 -20.5t10 -50.5q-6 -29 -31.5 -50t-54.5 -21t-45.5 21t-10.5 50zM308 778q7 30 32 50.5t54 20.5t46 -20.5
t10 -50.5q-6 -29 -31.5 -50t-54.5 -21t-45.5 21t-10.5 50z" />
    <glyph glyph-name="Igrave" unicode="&#xcc;" horiz-adv-x="254" 
d="M95 421q6 30 13 64.5t13 70t12 70.5t11 65q24 -5 41 -7.5t27 -2.5h8.5t9.5 1l-123 92q-12 9 -24 23.5t-7 39.5q3 13 10.5 23t17 16.5t19.5 10t18 3.5q17 0 30 -8t23 -21l140 -179h-53q-8 -30 -16 -63.5t-16.5 -68t-16.5 -67.5t-14 -62l-34 -161q-6 -30 -12.5 -64.5
t-13 -70t-12.5 -70t-11 -64.5q-23 4 -40.5 6.5t-27.5 2.5t-28 -2.5t-43 -6.5q7 30 16 64.5t17.5 70t17 70t14.5 64.5z" />
    <glyph glyph-name="Iacute" unicode="&#xcd;" horiz-adv-x="253" 
d="M237 861q16 13 32 21t33 8q16 0 32 -13.5t11 -39.5q-5 -25 -23.5 -39.5t-35.5 -23.5q-39 -22 -81 -46t-81 -46q6 -1 10 -1h8q10 0 28 2.5t44 7.5q-8 -30 -17 -65t-18 -70.5t-17.5 -70t-14.5 -64.5l-34 -161q-6 -30 -12.5 -64.5t-13 -70t-12 -70t-10.5 -64.5
q-24 4 -41 6.5t-26 2.5q-10 0 -28.5 -2.5t-43.5 -6.5q8 30 16.5 64.5t17.5 70t17 70t14 64.5l33 161q6 29 12.5 62t13 67.5t12 68t10.5 63.5h-50z" />
    <glyph glyph-name="Icircumflex" unicode="&#xce;" horiz-adv-x="336" 
d="M101 421q6 30 13 64.5t13 70t12 70.5t11 65q24 -5 41 -7.5t27 -2.5t28 2.5t44 7.5q-8 -30 -16.5 -65t-17.5 -70.5t-17 -70t-14 -64.5l-34 -161q-6 -30 -13 -64.5t-13.5 -70t-12.5 -70t-11 -64.5q-23 4 -40.5 6.5t-27.5 2.5t-28 -2.5t-44 -6.5q8 30 17 64.5t17.5 70t17 70
t14.5 64.5zM238 772q-30 -23 -61.5 -46t-60.5 -44h-90l193 203h87l105 -203h-89z" />
    <glyph glyph-name="Idieresis" unicode="&#xcf;" horiz-adv-x="319" 
d="M97 421q6 30 13 64.5t13 70t12 70.5t11 65q24 -5 41 -7.5t27 -2.5t28 2.5t44 7.5q-8 -30 -16.5 -65t-17.5 -70.5t-17 -70t-14 -64.5l-35 -161q-6 -30 -13 -64.5t-13 -70t-12 -70t-11 -64.5q-24 4 -41 6.5t-27 2.5t-28 -2.5t-43 -6.5q7 30 16 64.5t17.5 70t16.5 70
t14 64.5zM73 778q6 30 31 50.5t55 20.5q29 0 45 -20.5t10 -50.5q-7 -29 -31.5 -50t-53.5 -21q-30 0 -46.5 21t-9.5 50zM256 778q6 30 31.5 50.5t54.5 20.5q30 0 46 -20.5t10 -50.5q-7 -29 -31.5 -50t-54.5 -21q-29 0 -46 21t-10 50z" />
    <glyph glyph-name="Eth" unicode="&#xd0;" horiz-adv-x="780" 
d="M41 426q19 -2 45 -3t49 -1q6 30 12.5 64t12.5 69t12 69t11 64q17 -1 38.5 -2.5t43.5 -2.5t43 -1.5t39 -0.5q17 0 34.5 0.5t34.5 1.5q18 1 36.5 2t36.5 1q88 0 146 -23t88.5 -65.5t36 -104t-10.5 -139.5q-21 -100 -70 -168.5t-111.5 -111t-130.5 -61t-127 -18.5
q-16 0 -32 0.5t-30 1.5q-16 1 -31 2t-31 1q-32 0 -75 -2.5t-75 -4.5q7 30 16 64.5t17.5 69.5t16.5 69t14 64l18 81q-23 -1 -49 -1.5t-47 -2.5q5 15 9 27.5t5 17.5q1 3 2.5 16t2.5 28zM223 260q-5 -25 -9.5 -46.5t-8.5 -42.5t-7.5 -43t-6.5 -46q18 -3 44 -4t55 -1
q47 0 96.5 11t93.5 42t78.5 84.5t52.5 139.5q16 74 8 122t-34 75.5t-68.5 38t-94.5 10.5q-34 0 -65.5 -2t-58.5 -4q-11 -41 -21 -84.5t-19 -87.5q22 0 47 0.5l50 1t48.5 1t42.5 1.5q-11 -20 -15 -30.5t-5 -13.5q-1 -5 -1.5 -16.5t0.5 -30.5q-42 2 -90.5 4t-93.5 2z" />
    <glyph glyph-name="Ntilde" unicode="&#xd1;" horiz-adv-x="661" 
d="M481 -17q-36 57 -77.5 117.5t-84.5 122t-87.5 122.5t-86.5 120h-1q-6 -24 -13 -56t-16 -76q-4 -20 -10 -49t-12.5 -62.5t-12.5 -69t-11.5 -67.5t-9.5 -58t-5 -40q-20 6 -35 9.5t-22 3.5t-24 -3.5t-42 -8.5q5 14 14 43.5t20 68t23 82.5t23 88t20.5 84t16.5 71q9 44 18 86
t16 78.5t12 64.5t7 44h51q8 -11 18 -25.5t18 -25.5q42 -60 83 -118.5t79.5 -112.5t74 -102t66.5 -87q12 58 25 120.5t24.5 123.5t21.5 118t18 104q20 -5 34.5 -8.5t20.5 -3.5t21 3.5t38 9.5q-8 -26 -21 -73t-27 -98.5t-26 -99t-18 -73.5q-5 -24 -12 -57.5t-14.5 -70.5
t-15 -75t-14 -71t-11.5 -58l-7 -35h-47zM225 706q9 24 24 49.5t34.5 46t44 33.5t52.5 13q19 0 33 -5t40 -19q20 -11 29 -15t19 -4q12 0 24.5 14.5t21.5 32.5h72q-6 -17 -19 -41.5t-33 -48t-47.5 -40t-61.5 -16.5q-15 0 -34 5.5t-39 18.5q-19 11 -28.5 15t-17.5 4
q-11 0 -19 -9.5t-22 -33.5h-73z" />
    <glyph glyph-name="Ograve" unicode="&#xd2;" horiz-adv-x="793" 
d="M5 341q18 84 59 150t99 111.5t130 70t153 25.5l-101 76q-13 9 -24.5 23.5t-6.5 39.5q3 13 10.5 23t17 16.5t19.5 10t18 3.5q17 0 29.5 -8t23.5 -21l137 -178q110 -29 160 -116.5t21 -225.5q-18 -85 -59.5 -151.5t-100.5 -112.5t-133 -70t-156 -24t-145 24t-102.5 70
t-53 112.5t4.5 151.5zM612 341q15 72 8.5 124t-31 85.5t-64 50t-89.5 16.5t-96 -16.5t-85 -50t-68 -85.5t-44 -124t-8.5 -124.5t30.5 -86t63.5 -50t89.5 -16.5t96.5 16.5t85 50t68 86t44.5 124.5z" />
    <glyph glyph-name="Oacute" unicode="&#xd3;" horiz-adv-x="793" 
d="M1 341q15 69 45 125.5t72 100t95.5 73t114.5 44.5l213 177q15 13 31.5 21t33.5 8q16 0 32 -13.5t11 -39.5q-5 -25 -23.5 -39.5t-35.5 -23.5q-32 -19 -66.5 -38.5t-67.5 -37.5q81 -1 143 -25.5t101 -70t51.5 -111.5t-5.5 -150q-18 -85 -59.5 -151.5t-100.5 -112.5
t-133 -70t-156 -24t-145 24t-102.5 70t-53 112.5t4.5 151.5zM608 341q15 72 8.5 124t-31 85.5t-64 50t-89.5 16.5t-96 -16.5t-85 -50t-68 -85.5t-44 -124t-8.5 -124.5t30.5 -86t63.5 -50t89.5 -16.5t96.5 16.5t85 50t68 86t44.5 124.5z" />
    <glyph glyph-name="Ocircumflex" unicode="&#xd4;" horiz-adv-x="797" 
d="M6 341q29 137 114 223.5t206 117.5h-68l192 203h87l106 -203h-69q53 -15 93 -45t63 -73t29 -99t-8 -124q-18 -85 -59.5 -151.5t-100.5 -112.5t-133 -70t-156 -24t-145.5 24t-103 70t-52.5 112.5t5 151.5zM613 341q15 72 8 124t-31.5 85.5t-64 50t-89.5 16.5t-96 -16.5
t-84.5 -50t-67.5 -85.5t-44 -124t-8.5 -124.5t30.5 -86t63.5 -50t89.5 -16.5t96.5 16.5t85 50t68 86t44.5 124.5zM454 698q26 0 48.5 -2.5t45.5 -6.5l-78 83q-28 -21 -57 -42t-55 -41q23 4 46.5 6.5t49.5 2.5z" />
    <glyph glyph-name="Otilde" unicode="&#xd5;" horiz-adv-x="797" 
d="M9 341q18 85 59.5 151t100.5 112t132.5 70t155.5 24t145.5 -24t103.5 -70t53 -112t-5 -151t-59.5 -151.5t-100.5 -112.5t-133 -70t-156 -24t-145 24t-102.5 70t-53 112.5t4.5 151.5zM616 341q15 72 8.5 124t-31 85.5t-64 50t-89.5 16.5t-96 -16.5t-85 -50t-68 -85.5
t-44 -124t-8 -124.5t31 -86t63 -50t89 -16.5t96.5 16.5t85.5 50t68 86t44 124.5zM278 706q9 24 24 49.5t34.5 46t44 33.5t52.5 13q19 0 33 -5t40 -19q20 -11 29.5 -15t18.5 -4q13 0 25 14.5t21 32.5h72q-6 -17 -19 -41.5t-33 -48t-47.5 -40t-61.5 -16.5q-15 0 -33.5 5.5
t-39.5 18.5q-19 11 -28.5 15t-17.5 4q-11 0 -19 -9.5t-22 -33.5h-73z" />
    <glyph glyph-name="Odieresis" unicode="&#xd6;" horiz-adv-x="797" 
d="M10 341q18 85 59.5 151t100 112t132 70t155.5 24t146 -24t103.5 -70t53 -112t-4.5 -151t-60 -151.5t-101 -112.5t-133 -70t-156 -24t-145 24t-102.5 70t-52.5 112.5t5 151.5zM617 341q15 72 8 124t-31.5 85.5t-64 50t-89.5 16.5t-96 -16.5t-84.5 -50t-67.5 -85.5
t-44 -124t-8.5 -124.5t30.5 -86t63.5 -50t89.5 -16.5t96.5 16.5t85 50t68 86t44.5 124.5zM495 778q7 30 32.5 50.5t54.5 20.5q30 0 46 -20.5t9 -50.5q-6 -29 -31 -50t-55 -21q-29 0 -45.5 21t-10.5 50zM312 778q7 30 32 50.5t55 20.5q29 0 45 -20.5t9 -50.5q-6 -29 -31 -50
t-54 -21q-30 0 -46 21t-10 50z" />
    <glyph glyph-name="multiply" unicode="&#xd7;" horiz-adv-x="518" 
d="M191 259q-34 42 -69 87t-67 86l83 67l135 -171q51 42 105.5 86t104.5 85l52 -67l-208 -173l135 -171l-81 -68l-137 171l-208 -171l-53 68z" />
    <glyph glyph-name="Oslash" unicode="&#xd8;" horiz-adv-x="809" 
d="M32 341q18 85 59.5 151t100.5 112t132.5 70t155.5 24q130 0 208 -58q12 11 27 25.5t29.5 29.5t27 29.5t20.5 25.5q11 -18 27.5 -36t31.5 -29q-35 -21 -63.5 -45.5t-51.5 -44.5q35 -46 46.5 -110.5t-5.5 -143.5q-18 -85 -59.5 -151.5t-100.5 -112.5t-133 -70t-156 -24
q-63 0 -114.5 15t-90.5 42q-23 -22 -54.5 -52.5t-54.5 -59.5q-20 39 -57 61q12 8 27 19.5t31 25t31.5 27t28.5 24.5q-77 93 -43 256zM605 566q-24 29 -59 40t-83 11q-50 0 -96 -16.5t-85 -50t-68 -85.5t-44 -124q-11 -53 -10.5 -94.5t11.5 -73.5zM206 114q24 -26 58.5 -38
t80.5 -12q50 0 96.5 16.5t85 50t68 86t44.5 124.5q11 49 9.5 91.5t-9.5 74.5z" />
    <glyph glyph-name="Ugrave" unicode="&#xd9;" horiz-adv-x="643" 
d="M500 359q14 65 24.5 115t18 89.5t11.5 71t6 58.5q21 -5 37.5 -8.5t27.5 -3.5q5 0 20 4t38 11q-10 -33 -24 -83.5t-29.5 -108.5t-30 -118t-26.5 -111q-15 -67 -46 -121t-76 -92t-103 -58.5t-126 -20.5q-151 0 -205.5 71.5t-22.5 218.5q5 23 10 43.5t10 40.5q4 17 8 32
t7 32q14 66 24 120t17 96q1 3 2.5 11t3 17t3 16.5t2.5 10.5q23 -5 42.5 -8t27.5 -3q9 0 28 3.5t41 8.5q-9 -28 -19.5 -67.5t-22.5 -85.5t-24 -96.5t-22 -100.5q-9 -44 -16.5 -91.5t1.5 -87t41 -65t101 -25.5q45 0 79 13.5t59 36.5t42 52t28.5 61t19 63.5t13.5 58.5zM273 774
q-13 9 -24.5 23.5t-6.5 39.5q3 13 10.5 23t17 16.5t19.5 10t18 3.5q17 0 29.5 -8t23.5 -21l139 -179h-102z" />
    <glyph glyph-name="Uacute" unicode="&#xda;" horiz-adv-x="642" 
d="M493 359q14 65 24.5 115t18 89.5t11.5 71t6 58.5q21 -5 37.5 -8.5t27.5 -3.5q5 0 20 4t38 11q-10 -33 -24 -83.5t-29.5 -108.5t-30 -118t-26.5 -111q-15 -67 -46 -121t-76 -92t-103 -58.5t-126 -20.5q-151 0 -205.5 71.5t-22.5 218.5q5 23 10 43.5t10 40.5q4 17 8 32
t7 32q14 66 24 120t17 96q1 3 2.5 11t3 17t3 16.5t2.5 10.5q23 -5 42.5 -8t27.5 -3q9 0 28 3.5t41 8.5q-9 -28 -19.5 -67.5t-22.5 -85.5t-24 -96.5t-22 -100.5q-9 -44 -16.5 -91.5t1.5 -87t41 -65t101 -25.5q45 0 79 13.5t59 36.5t42 52t28.5 61t19 63.5t13.5 58.5zM466 861
q15 13 31.5 21t33.5 8q16 0 32 -13.5t11 -39.5q-5 -25 -23.5 -39.5t-35.5 -23.5q-39 -22 -81 -46t-81 -46h-101z" />
    <glyph glyph-name="Ucircumflex" unicode="&#xdb;" horiz-adv-x="647" 
d="M150 681q6 0 15.5 1t23.5 4l188 199h87l102 -194q19 -5 33.5 -7.5t24.5 -2.5q5 0 20 4t38 11q-10 -33 -24 -83.5t-29 -108.5t-29.5 -118t-26.5 -111q-15 -67 -46 -121t-76 -92t-103 -58.5t-126 -20.5q-151 0 -205.5 71.5t-23.5 218.5q5 23 10 43.5t10 40.5q9 32 16 64
q14 66 23.5 120t17.5 96q1 3 2.5 11t3 17t3 16.5t1.5 10.5q24 -5 43 -8t27 -3zM397 772q-30 -23 -61.5 -46t-60.5 -44h-58q-9 -29 -20 -67.5t-22 -83t-22.5 -92.5t-21.5 -96q-9 -44 -16.5 -91.5t1.5 -87t41 -65t101 -25.5q68 0 111 29.5t69 72.5t39.5 92.5t22.5 90.5
q13 62 23 110t17 86.5t11.5 69t6.5 57.5h-77z" />
    <glyph glyph-name="Udieresis" unicode="&#xdc;" horiz-adv-x="648" 
d="M503 359q14 65 24.5 115t18 89.5t11.5 71t6 58.5q21 -5 37.5 -8.5t27.5 -3.5q5 0 20 4t38 11q-10 -33 -24 -83.5t-29 -108.5t-29.5 -118t-26.5 -111q-15 -67 -46.5 -121t-76.5 -92t-103 -58.5t-126 -20.5q-151 0 -205.5 71.5t-22.5 218.5q5 23 10 43.5t10 40.5
q9 32 16 64q14 66 23.5 120t16.5 96q1 3 2.5 11t3 17t3 16.5t2.5 10.5q24 -5 43 -8t27 -3q9 0 28 3.5t41 8.5q-8 -28 -19 -67.5t-23 -85.5t-24 -96.5t-22 -100.5q-9 -44 -16.5 -91.5t1.5 -87t41 -65t101 -25.5q45 0 79 13.5t59 36.5t42 52t28.5 61t19 63.5t13.5 58.5z
M239 778q7 30 32 50.5t55 20.5q29 0 45.5 -20.5t9.5 -50.5q-6 -29 -31.5 -50t-54.5 -21q-30 0 -46 21t-10 50zM423 778q7 30 32 50.5t54 20.5q30 0 46 -20.5t9 -50.5q-6 -29 -31 -50t-55 -21q-29 0 -45 21t-10 50z" />
    <glyph glyph-name="Yacute" unicode="&#xdd;" horiz-adv-x="582" 
d="M122 -10q23 72 39.5 143t32.5 143q-7 18 -20 52t-29 75.5t-33.5 87t-33.5 86t-29 72t-19 46.5q37 -6 63 -10t35 -4q10 0 27 2t38 6q12 -40 23.5 -77t23.5 -73.5t25.5 -74t29.5 -79.5q53 63 111 142.5t115 162.5q16 -4 28.5 -6.5t20.5 -2.5t32.5 4.5t57.5 12.5
q-68 -80 -122 -143.5t-96 -113.5t-72 -87.5t-50 -64.5q-7 -33 -14.5 -73t-15 -80.5t-14 -78.5t-9.5 -67q-26 5 -44 7.5t-26 2.5t-27.5 -2.5t-47.5 -7.5zM434 852q16 13 32 21t33 8q16 0 32 -13.5t11 -39.5t-23.5 -40t-35.5 -24q-39 -22 -81 -45.5t-81 -45.5h-101z" />
    <glyph glyph-name="Thorn" unicode="&#xde;" horiz-adv-x="474" 
d="M57 421q6 30 13 64.5t13 70t12 70.5t11 65q24 -5 41 -7.5t27 -2.5q16 0 74 11q-9 -31 -19.5 -64t-17.5 -64h91q106 0 156 -44.5t30 -141.5q-12 -58 -43 -96.5t-72 -61.5t-88.5 -32.5t-92.5 -9.5h-20.5h-14t-12.5 0.5t-16 1.5l-5 -27q-9 -41 -15.5 -85.5t-4.5 -78.5
q-29 5 -48 8t-27 3q-10 0 -27.5 -2.5t-43.5 -6.5q8 30 16.5 64.5t17 70t16.5 70t14 64.5zM146 260q11 -1 23.5 -1h25.5q25 0 51 7t47.5 21.5t38 37t22.5 52.5q4 19 2 38t-13.5 34t-33 24.5t-56.5 9.5h-59z" />
    <glyph glyph-name="germandbls" unicode="&#xdf;" horiz-adv-x="518" 
d="M41 402q6 29 10 51.5t7 38.5q2 8 2.5 14t1.5 9q13 64 43 109t67.5 73t77.5 41t75 13q25 0 51 -9t46 -26t31 -40.5t5 -52.5q-11 -48 -41 -82t-61 -62q-20 -17 -35 -32t-17 -27q-2 -9 2.5 -18t12.5 -18t19 -18t22 -17q19 -14 38.5 -30t33.5 -35.5t20 -44t-1 -55.5
q-7 -35 -31.5 -70t-59 -63.5t-76 -46.5t-81.5 -18q-34 0 -64 10.5t-53 25.5q14 18 26.5 42.5t18.5 44.5h40q7 -17 26.5 -29.5t42.5 -12.5q15 0 30 5.5t27.5 15t22 23.5t13.5 32t-1 33t-15.5 28.5t-24.5 25.5t-29 23q-17 13 -33 27t-27.5 29.5t-16 34.5t0.5 43q7 32 30.5 58
t54.5 52q29 26 54.5 53.5t32.5 60.5q6 28 -8.5 46t-46.5 18q-51 0 -79.5 -43t-45.5 -125l-47 -220q-7 -32 -14.5 -70t-15 -78t-13.5 -78.5t-10 -71.5q-25 5 -42 8t-24 3q-8 0 -25.5 -3t-43.5 -8q9 33 19 71.5t20 78.5t18.5 78t14.5 70z" />
    <glyph glyph-name="agrave" unicode="&#xe0;" horiz-adv-x="463" 
d="M75 431q60 39 103.5 52.5t83.5 13.5q78 0 117 -44t24 -117q-11 -52 -24.5 -104.5t-25.5 -112.5q-4 -16 -5.5 -31t8.5 -15q2 0 10 2.5t37 17.5l-16 -76q-17 -7 -40.5 -14t-46.5 -7q-26 0 -43 11t-24 28q-35 -25 -68.5 -37t-78.5 -12q-28 0 -52 9.5t-40.5 27.5t-23.5 43.5
t0 57.5q14 67 62 103.5t120 47.5q45 7 70.5 11.5t38 9t15.5 9.5t5 12q4 19 3.5 36.5t-7 30.5t-20 20.5t-35.5 7.5q-31 0 -63 -17t-55 -47h-47zM166 613q-14 9 -25.5 23.5t-6.5 40.5q3 13 10.5 22.5t17.5 16.5t20 10.5t18 3.5q17 0 29.5 -8t22.5 -21l140 -179h-103zM261 224
l-26 -6q-22 -4 -45 -8.5t-42.5 -13.5t-34 -23t-18.5 -36q-4 -16 -1.5 -28t9 -20.5t16 -12.5t20.5 -4q27 0 53 14t47 34z" />
    <glyph glyph-name="aacute" unicode="&#xe1;" horiz-adv-x="459" 
d="M60 431q60 39 103.5 52.5t83.5 13.5q78 0 117 -44t24 -117q-11 -52 -24.5 -104.5t-25.5 -112.5q-4 -16 -5.5 -31t8.5 -15q2 0 10 2.5t37 17.5l-16 -76q-17 -7 -40.5 -14t-46.5 -7q-26 0 -43 11t-24 28q-35 -25 -68.5 -37t-78.5 -12q-27 0 -51.5 9.5t-41 27.5t-23.5 43.5
t0 57.5q14 67 62 103.5t120 47.5q45 7 70.5 11.5t38 9t15.5 9.5t5 12q4 19 3.5 36.5t-7 30.5t-20 20.5t-35.5 7.5q-31 0 -63 -17t-55 -47h-47zM350 701q16 13 32.5 21t33.5 8q8 0 16.5 -3.5t15.5 -10.5t10 -16.5t0 -22.5q-5 -26 -23 -40.5t-35 -23.5q-38 -22 -80.5 -45.5
t-82.5 -45.5h-101zM246 224l-26 -6q-22 -4 -45 -8.5t-42.5 -13.5t-34 -23t-18.5 -36q-4 -16 -1.5 -28t9 -20.5t16 -12.5t20.5 -4q27 0 53 14t47 34z" />
    <glyph glyph-name="acircumflex" unicode="&#xe2;" horiz-adv-x="466" 
d="M71 431q60 39 103.5 52.5t83.5 13.5q78 0 117 -44t23 -117q-11 -52 -24 -104.5t-26 -112.5q-3 -16 -4.5 -31t8.5 -15q2 0 10 2.5t37 17.5l-16 -76q-17 -7 -41 -14t-47 -7q-26 0 -42.5 11t-24.5 28q-35 -25 -68 -37t-78 -12q-28 0 -52 9.5t-41 27.5t-24 43.5t0 57.5
q14 67 62 103.5t120 47.5q45 7 70.5 11.5t38 9t15.5 9.5t5 12q4 19 3.5 36.5t-7 30.5t-19.5 20.5t-35 7.5q-31 0 -63 -17t-55 -47h-47zM286 611q-29 -23 -61 -45.5t-61 -43.5h-90l192 202h87l106 -202h-89zM257 224l-27 -6q-22 -4 -44.5 -8.5t-42 -13.5t-34 -23t-19.5 -36
q-7 -32 7.5 -48.5t36.5 -16.5q27 0 53.5 14t47.5 34z" />
    <glyph glyph-name="atilde" unicode="&#xe3;" horiz-adv-x="473" 
d="M78 431q60 39 103.5 52.5t83.5 13.5q78 0 117 -44t24 -117q-11 -52 -24 -104.5t-26 -112.5q-4 -16 -5.5 -31t8.5 -15q2 0 10 2.5t37 17.5l-16 -76q-17 -7 -40.5 -14t-46.5 -7q-26 0 -43 11t-24 28q-35 -25 -68.5 -37t-78.5 -12q-28 0 -52 9.5t-40.5 27.5t-23.5 43.5
t0 57.5q14 67 62 103.5t120 47.5q45 7 70.5 11.5t38 9t15.5 9.5t5 12q4 19 3.5 36.5t-7 30.5t-20 20.5t-35.5 7.5q-31 0 -63 -17t-55 -47h-47zM97 545q9 24 24.5 49.5t35.5 46.5t44 34t52 13q19 0 32.5 -5.5t41.5 -18.5q19 -11 28.5 -15t18.5 -4q13 0 24.5 14t21.5 33h72
q-6 -17 -19 -42t-33.5 -48t-48 -40t-61.5 -17q-30 0 -73 24q-18 11 -27.5 15t-17.5 4q-11 0 -19.5 -9t-22.5 -34h-73zM264 224l-26 -6q-22 -4 -45 -8.5t-42.5 -13.5t-34 -23t-18.5 -36q-4 -16 -1.5 -28t9 -20.5t16 -12.5t20.5 -4q27 0 53 14t47 34z" />
    <glyph glyph-name="adieresis" unicode="&#xe4;" horiz-adv-x="471" 
d="M77 431q61 39 104.5 52.5t83.5 13.5q78 0 117 -44t23 -117q-11 -52 -24 -104.5t-26 -112.5q-3 -16 -5 -31t8 -15q2 0 10 2.5t38 17.5l-17 -76q-16 -7 -40 -14t-47 -7q-26 0 -42.5 11t-24.5 28q-35 -25 -68 -37t-78 -12q-28 0 -52 9.5t-41 27.5t-24 43.5t0 57.5
q14 67 62 103.5t120 47.5q45 7 70.5 11.5t38 9t15.5 9.5t5 12q4 19 3.5 36.5t-7 30.5t-20 20.5t-35.5 7.5q-31 0 -62.5 -17t-54.5 -47h-47zM263 224l-26 -6q-22 -4 -44.5 -8.5t-42 -13.5t-34 -23t-19.5 -36q-7 -32 7.5 -48.5t36.5 -16.5q27 0 53 14t44 34zM315 618
q7 29 31.5 50t54.5 21q29 0 46 -21t10 -50q-6 -29 -31.5 -50t-54.5 -21q-30 0 -46 21t-10 50zM131 618q7 29 32 50t54 21t46 -21t10 -50q-6 -29 -31.5 -50t-54.5 -21t-45.5 21t-10.5 50z" />
    <glyph glyph-name="aring" unicode="&#xe5;" horiz-adv-x="465" 
d="M69 431q60 39 103.5 52.5t83.5 13.5q78 0 117 -44t23 -117q-11 -52 -24 -104.5t-26 -112.5q-3 -16 -5 -31t8 -15q2 0 10 2.5t38 17.5l-16 -76q-17 -7 -41 -14t-47 -7q-26 0 -42.5 11t-24.5 28q-35 -25 -68 -37t-78 -12q-28 0 -52 9.5t-41 27.5t-24 43.5t0 57.5
q14 67 62 103.5t120 47.5q45 7 70.5 11.5t38 9t15.5 9.5t5 12q4 19 3.5 36.5t-7 30.5t-20 20.5t-35.5 7.5q-31 0 -62.5 -17t-54.5 -47h-47zM168 625q5 25 19 46.5t33.5 37.5t43 25.5t48.5 9.5q24 0 44 -9.5t32.5 -25.5t17.5 -37.5t0 -46.5q-5 -24 -19 -45.5t-34 -37.5
t-43.5 -25.5t-48.5 -9.5q-24 0 -43.5 9.5t-32.5 25.5t-17.5 37.5t0.5 45.5zM255 224l-27 -6q-22 -4 -44.5 -8.5t-42 -13.5t-34 -23t-19.5 -36q-7 -32 7.5 -48.5t36.5 -16.5q27 0 53 14t44 34zM254 625q-3 -13 4 -22.5t21 -9.5t26 9.5t15 22.5q3 14 -4.5 23.5t-21.5 9.5
t-25.5 -9.5t-14.5 -23.5z" />
    <glyph glyph-name="ae" unicode="&#xe6;" horiz-adv-x="784" 
d="M117 431q60 39 103.5 52.5t83.5 13.5q15 0 32 -2t34 -8.5t33 -17.5t29 -29q69 57 154 57q55 0 92 -17t58 -46t26 -68t-4 -82q-1 -5 -3.5 -13t-5 -17t-5 -17.5t-3.5 -12.5h-21t-24.5 0.5t-24.5 0.5h-21q-33 1 -65 1.5t-64 0.5q-20 0 -41.5 -0.5t-41.5 -1.5h-18l-1 -4
q-7 -32 -3.5 -59t17 -47t37 -31.5t56.5 -11.5q16 0 35.5 6t40.5 16t41 24t38 31l25 -29l-23 -67q-20 -13 -43.5 -25t-48.5 -21.5t-51 -15t-50 -5.5q-59 0 -103.5 22.5t-67.5 62.5q-29 -38 -74.5 -61.5t-116.5 -23.5q-28 0 -52.5 9.5t-41 27.5t-23.5 43.5t-1 57.5
q14 67 62.5 103.5t121.5 47.5q45 7 70 11.5t38 9t16 9.5t5 12q4 19 3.5 36.5t-7.5 30.5t-20 20.5t-35 7.5q-31 0 -63 -17t-55 -47h-47zM572 421q-24 0 -44.5 -10.5t-36.5 -27t-28.5 -37.5t-20.5 -41h11q21 -1 42.5 -1.5t42.5 -0.5t42 0.5t43 1.5h14q3 20 3 41t-6.5 37.5
t-21.5 27t-40 10.5zM136 137q-6 -29 8 -47t43 -18q14 0 29 5t28.5 14.5t24 23.5t16.5 33q4 14 7.5 31t6.5 32l3 12q-7 -2 -13.5 -2.5t-11.5 -2.5q-22 -4 -45 -8.5t-42.5 -13.5t-34 -23t-19.5 -36z" />
    <glyph glyph-name="ccedilla" unicode="&#xe7;" horiz-adv-x="473" 
d="M117 -110q14 -7 35 -12.5t41 -5.5q14 0 24 4t12 12t-4.5 11t-17.5 3t-22.5 -4t-22.5 -10l-24 31l43 73q-36 7 -67.5 25t-52 48.5t-27.5 74t5 102.5q14 66 46.5 114.5t76 79.5t93.5 46t100 15q56 0 101 -17.5t64 -40.5q-14 -20 -26 -42.5t-23 -48.5h-40q-4 12 -11.5 25
t-19 23.5t-26.5 17.5t-33 7q-36 0 -64.5 -13.5t-50 -37.5t-36 -56.5t-22.5 -70.5q-18 -85 8.5 -128t93.5 -43q16 0 35.5 6t40 16t41.5 24t39 31l24 -30q-8 -21 -13.5 -37t-8.5 -27q-35 -24 -79.5 -43t-85.5 -24q-1 -1 -1 -2t-2 -3q45 -2 63.5 -26t10.5 -63q-5 -26 -20 -45
t-36 -32t-47 -19.5t-53 -6.5q-31 0 -59.5 9t-48.5 17z" />
    <glyph glyph-name="egrave" unicode="&#xe8;" horiz-adv-x="475" 
d="M-11 229q13 62 39 111.5t63.5 84.5t85.5 53.5t105 18.5q55 0 92 -17t58 -46t26 -68t-4 -82q-1 -5 -3.5 -13t-5 -17t-5 -17.5t-3.5 -12.5q-17 0 -45 0.5t-45 0.5q-33 1 -65 1.5t-65 0.5q-20 0 -41 -0.5t-41 -1.5h-19l-1 -4q-6 -32 -3 -59t16.5 -47t37 -31.5t56.5 -11.5
q16 0 35.5 6t40.5 16t41 24t38 31l25 -29l-22 -67q-20 -13 -43.5 -25t-49 -21.5t-51.5 -15t-50 -5.5q-56 0 -97.5 18.5t-67.5 51t-34.5 77t2.5 96.5zM185 613q-14 9 -25.5 23.5t-6.5 40.5q3 13 10.5 22.5t17.5 16.5t20 10.5t18 3.5q17 0 29.5 -8t22.5 -21l139 -179h-102z
M268 421q-24 0 -44 -10.5t-36.5 -27t-28.5 -37.5t-20 -41h10q21 -1 43 -1.5t42 -0.5q21 0 42.5 0.5t43.5 1.5h14q3 20 2.5 41t-7 37.5t-21.5 27t-40 10.5z" />
    <glyph glyph-name="eacute" unicode="&#xe9;" horiz-adv-x="477" 
d="M-22 229q13 62 39 111.5t63.5 84.5t85.5 53.5t105 18.5q55 0 92 -17t58 -46t26 -68t-4 -82q-1 -5 -3.5 -13t-5 -17t-5 -17.5t-3.5 -12.5q-17 0 -45 0.5t-45 0.5q-33 1 -65 1.5t-65 0.5q-20 0 -41 -0.5t-41 -1.5h-19l-1 -4q-6 -32 -3 -59t16.5 -47t37 -31.5t56.5 -11.5
q16 0 35.5 6t40.5 16t41 24t38 31l25 -29l-22 -67q-20 -13 -43.5 -25t-49 -21.5t-51.5 -15t-50 -5.5q-56 0 -97.5 18.5t-67.5 51t-34.5 77t2.5 96.5zM373 701q16 13 32.5 21t33.5 8q8 0 16.5 -3.5t15.5 -10.5t10 -16.5t0 -22.5q-5 -26 -23 -40.5t-35 -23.5
q-39 -22 -81 -45.5t-82 -45.5h-101zM257 421q-24 0 -44 -10.5t-36.5 -27t-28.5 -37.5t-20 -41h10q21 -1 43 -1.5t42 -0.5q21 0 42.5 0.5t43.5 1.5h14q3 20 2.5 41t-7 37.5t-21.5 27t-40 10.5z" />
    <glyph glyph-name="ecircumflex" unicode="&#xea;" horiz-adv-x="481" 
d="M-13 229q13 62 39 111.5t63.5 84.5t85.5 53.5t105 18.5q55 0 92 -17t58 -46t25.5 -68t-4.5 -82q-1 -5 -3 -13t-4.5 -17t-5 -17.5t-3.5 -12.5q-17 0 -45 0.5t-45 0.5q-33 1 -65.5 1.5t-65.5 0.5q-20 0 -40.5 -0.5t-40.5 -1.5h-19l-1 -4q-7 -32 -3.5 -59t16.5 -47
t36.5 -31.5t56.5 -11.5q16 0 35.5 6t40.5 16t41.5 24t38.5 31l25 -29l-23 -67q-19 -13 -42.5 -25t-49 -21.5t-51.5 -15t-50 -5.5q-56 0 -97.5 18.5t-67.5 51t-34.5 77t2.5 96.5zM307 611q-30 -23 -61.5 -45.5t-60.5 -43.5h-90l192 202h87l106 -202h-89zM266 421
q-24 0 -44.5 -10.5t-36.5 -27t-28.5 -37.5t-19.5 -41h10q21 -1 42.5 -1.5t41.5 -0.5q21 0 43 0.5t44 1.5h14q3 20 2.5 41t-7.5 37.5t-21.5 27t-39.5 10.5z" />
    <glyph glyph-name="edieresis" unicode="&#xeb;" horiz-adv-x="488" 
d="M-6 229q13 62 39 111.5t63.5 84.5t85.5 53.5t105 18.5q55 0 92 -17t58 -46t25.5 -68t-4.5 -82q-1 -5 -3 -13t-4.5 -17t-5.5 -17.5t-4 -12.5q-17 0 -44.5 0.5t-44.5 0.5q-33 1 -65.5 1.5t-65.5 0.5q-20 0 -40.5 -0.5t-40.5 -1.5h-19l-1 -4q-7 -32 -3.5 -59t16.5 -47
t36.5 -31.5t56.5 -11.5q16 0 35.5 6t40.5 16t41.5 24t38.5 31l24 -29l-22 -67q-19 -13 -42.5 -25t-49 -21.5t-51.5 -15t-50 -5.5q-56 0 -97.5 18.5t-67.5 51t-34.5 77t2.5 96.5zM272 421q-24 0 -44 -10.5t-36.5 -27t-28.5 -37.5t-19 -41h10q20 -1 42 -1.5t42 -0.5
q21 0 42.5 0.5t44.5 1.5h14q3 20 2 41t-7.5 37.5t-21.5 27t-40 10.5zM336 618q7 29 31.5 50t54.5 21q29 0 45.5 -21t9.5 -50q-6 -29 -31 -50t-54 -21q-30 0 -46 21t-10 50zM152 618q7 29 31.5 50t54.5 21q29 0 46 -21t10 -50q-6 -29 -31.5 -50t-54.5 -21q-30 0 -46 21
t-10 50z" />
    <glyph glyph-name="igrave" unicode="&#xec;" horiz-adv-x="251" 
d="M89 290q8 40 17 92t15 113q25 -5 42 -8.5t25 -3.5t26.5 3.5t44.5 8.5q-19 -61 -32.5 -113t-21.5 -92l-21 -97q-8 -40 -16.5 -92t-15.5 -112q-24 5 -41.5 8t-25.5 3t-26.5 -3t-44.5 -8q20 60 33 112t21 92zM91 613q-12 9 -24 23.5t-7 40.5q3 13 10.5 22.5t17 16.5
t19.5 10.5t18 3.5q17 0 30 -8t23 -21l140 -179h-103z" />
    <glyph glyph-name="iacute" unicode="&#xed;" horiz-adv-x="251" 
d="M14 290q8 40 16.5 92t15.5 113q24 -5 41.5 -8.5t25.5 -3.5q7 0 26 3.5t45 8.5q-20 -61 -33 -113t-21 -92l-21 -97q-8 -40 -17 -92t-15 -112q-25 5 -42.5 8t-24.5 3q-8 0 -26 -3t-44 -8q19 60 32.5 112t21.5 92zM216 701q16 13 32 21t33 8q16 0 32 -13.5t11 -39.5
t-24 -40.5t-35 -23.5q-39 -22 -81 -45.5t-81 -45.5h-102z" />
    <glyph glyph-name="icircumflex" unicode="&#xee;" horiz-adv-x="333" 
d="M93 290q9 40 17.5 92t15.5 113q25 -5 41.5 -8.5t24.5 -3.5q7 0 26.5 3.5t45.5 8.5q-19 -61 -32.5 -113t-22.5 -92l-20 -97q-8 -40 -17 -92t-16 -112q-24 5 -41.5 8t-24.5 3q-8 0 -26.5 -3t-45.5 -8q19 60 33 112t22 92zM221 611q-31 -23 -62 -45.5t-60 -43.5h-90l192 202
h87l106 -202h-89z" />
    <glyph glyph-name="idieresis" unicode="&#xef;" horiz-adv-x="330" 
d="M95 290q8 40 16.5 92t16.5 113q24 -5 41 -8.5t25 -3.5q7 0 26 3.5t46 8.5q-20 -61 -33.5 -113t-21.5 -92l-21 -97q-8 -40 -16.5 -92t-15.5 -112q-25 5 -42.5 8t-24.5 3q-8 0 -26.5 -3t-44.5 -8q19 60 32.5 112t21.5 92zM61 618q6 29 31 50t55 21q29 0 45 -21t10 -50
t-31 -50t-54 -21q-30 0 -46 21t-10 50zM244 618q6 29 31.5 50t54.5 21q30 0 46 -21t10 -50t-31 -50t-55 -21q-29 0 -45.5 21t-10.5 50z" />
    <glyph glyph-name="eth" unicode="&#xf0;" horiz-adv-x="537" 
d="M-4 242q14 68 45 116t72 78.5t87 45t90 15.5q-11 17 -24 33.5t-29 35.5q-30 -10 -68.5 -22.5t-68.5 -22.5q-5 14 -12 34t-19 43q30 8 57 13.5t59 14.5q-19 20 -43 42.5t-58 52.5l129 32q28 -24 54 -46t48 -43q34 10 68 21.5t67 22.5q8 -37 31 -76q-32 -7 -57 -13t-54 -14
q44 -48 73 -93t44 -89.5t17 -89t-8 -91.5q-15 -70 -48 -119t-75 -79.5t-89.5 -44t-92.5 -13.5t-86.5 13.5t-71 44t-41 79.5t3.5 119zM367 242q7 34 8 66.5t-8 57.5t-29 40t-54 15q-35 0 -61.5 -15t-46 -40t-32.5 -57.5t-20 -66.5q-8 -35 -9 -67.5t8 -57t29 -39.5t55 -15
q34 0 60.5 15t46 39.5t32.5 57t21 67.5z" />
    <glyph glyph-name="ntilde" unicode="&#xf1;" horiz-adv-x="472" 
d="M316 284q12 57 -3 87.5t-50 30.5q-54 0 -85.5 -33.5t-45.5 -95.5l-17 -80q-8 -40 -16.5 -92t-15.5 -112q-24 5 -41.5 8t-25.5 3t-26 -3t-44 -8q20 60 33 112t21 92l20 97q8 40 17 92t15 113q25 -5 42 -8.5t25 -3.5q13 0 63 11q-3 -12 -4.5 -15.5t-2.5 -7.5q0 -2 -0.5 -6
t-1.5 -11q32 25 62.5 34t72.5 9q30 0 59 -8t49.5 -29t29 -57t-3.5 -91q-9 -40 -20 -82.5t-21 -90.5l-7 -35l-8 -40t-7 -39.5t-6 -34.5q-23 5 -38.5 7.5t-24.5 2.5q-8 0 -24.5 -2.5t-39.5 -7.5l26 105q8 33 16 65t15 67l13 57v0zM98 545q9 24 24 49.5t34.5 46.5t44 34
t52.5 13q19 0 33 -5t40 -19q20 -11 29 -15t19 -4q12 0 24.5 14t21.5 33h72q-6 -17 -19 -42t-33 -48t-47.5 -40t-61.5 -17q-31 0 -73 24q-19 11 -28.5 15t-17.5 4q-11 0 -19 -9t-22 -34h-73z" />
    <glyph glyph-name="ograve" unicode="&#xf2;" horiz-adv-x="528" 
d="M-5 242q14 70 46.5 118.5t74.5 79t89.5 44t92.5 13.5t86.5 -13.5t70.5 -44t41.5 -79t-2.5 -118.5t-48 -119t-75 -79.5t-89.5 -44t-92.5 -13.5t-86.5 13.5t-70.5 44t-40.5 79.5t3.5 119zM123 242q-8 -35 -8.5 -67.5t8 -57t28.5 -39.5t55 -15q34 0 60.5 15t46 39.5t32 57
t20.5 67.5q7 34 8 66.5t-8 57.5t-29 40t-54 15q-35 0 -61 -15t-45.5 -40t-32.5 -57.5t-20 -66.5zM199 613q-14 9 -25.5 23.5t-6.5 40.5q3 13 10.5 22.5t17.5 16.5t20 10.5t18 3.5q17 0 29.5 -8t22.5 -21l139 -179h-102z" />
    <glyph glyph-name="oacute" unicode="&#xf3;" horiz-adv-x="527" 
d="M-16 242q14 70 46.5 118.5t74.5 79t89.5 44t92.5 13.5t86.5 -13.5t70.5 -44t41.5 -79t-2.5 -118.5t-48 -119t-75 -79.5t-89.5 -44t-92.5 -13.5t-86.5 13.5t-70.5 44t-40.5 79.5t3.5 119zM112 242q-8 -35 -8.5 -67.5t8 -57t28.5 -39.5t55 -15q34 0 60.5 15t46 39.5t32 57
t20.5 67.5q7 34 8 66.5t-8 57.5t-29 40t-54 15q-35 0 -61 -15t-45.5 -40t-32.5 -57.5t-20 -66.5zM387 701q16 13 32.5 21t33.5 8q8 0 16.5 -3.5t15.5 -10.5t10 -16.5t0 -22.5q-5 -26 -23 -40.5t-35 -23.5q-39 -22 -81 -45.5t-82 -45.5h-101z" />
    <glyph glyph-name="ocircumflex" unicode="&#xf4;" horiz-adv-x="532" 
d="M-8 242q15 70 47.5 118.5t74.5 79t89.5 44t92.5 13.5t86.5 -13.5t70.5 -44t41 -79t-3 -118.5t-47.5 -119t-74.5 -79.5t-89.5 -44t-92.5 -13.5t-86.5 13.5t-70.5 44t-41 79.5t3 119zM120 242q-7 -35 -8 -67.5t8 -57t28.5 -39.5t54.5 -15q34 0 60.5 15t46 39.5t32.5 57
t20 67.5q7 34 8.5 66.5t-7.5 57.5t-29 40t-54 15q-35 0 -61.5 -15t-46 -40t-32.5 -57.5t-20 -66.5zM321 611q-30 -23 -61.5 -45.5t-60.5 -43.5h-90l192 202h87l106 -202h-89z" />
    <glyph glyph-name="otilde" unicode="&#xf5;" horiz-adv-x="537" 
d="M-2 242q14 70 46.5 118.5t74.5 79t89.5 44t92.5 13.5t86.5 -13.5t70.5 -44t41.5 -79t-2.5 -118.5t-48 -119t-75 -79.5t-89.5 -44t-92.5 -13.5t-86.5 13.5t-70.5 44t-40.5 79.5t3.5 119zM126 242q-8 -35 -8.5 -67.5t8 -57t28.5 -39.5t55 -15q34 0 60.5 15t46 39.5t32 57
t20.5 67.5q7 34 8 66.5t-8 57.5t-29 40t-54 15q-35 0 -61 -15t-45.5 -40t-32.5 -57.5t-20 -66.5zM130 545q9 24 24 49.5t35 46.5t44.5 34t52.5 13q19 0 32.5 -5t40.5 -19q20 -11 29.5 -15t18.5 -4q13 0 24.5 14t21.5 33h72q-6 -17 -19.5 -42t-33.5 -48t-47.5 -40t-61.5 -17
q-30 0 -73 24q-18 11 -28 15t-18 4q-11 0 -19 -9t-22 -34h-73z" />
    <glyph glyph-name="odieresis" unicode="&#xf6;" horiz-adv-x="537" 
d="M-2 242q15 70 47.5 118.5t74.5 79t89.5 44t92.5 13.5t86.5 -13.5t70.5 -44t41 -79t-3 -118.5t-47.5 -119t-74.5 -79.5t-89.5 -44t-92.5 -13.5t-86.5 13.5t-70.5 44t-41 79.5t3 119zM126 242q-7 -35 -8 -67.5t8 -57t28.5 -39.5t54.5 -15q34 0 60.5 15t46 39.5t32.5 57
t20 67.5q7 34 8 66.5t-7.5 57.5t-29 40t-54.5 15q-35 0 -61 -15t-45.5 -40t-32.5 -57.5t-20 -66.5zM348 618q7 29 32 50t54 21q30 0 46.5 -21t9.5 -50q-6 -29 -31 -50t-55 -21q-29 0 -45.5 21t-10.5 50zM165 618q7 29 31.5 50t54.5 21q29 0 45.5 -21t9.5 -50q-6 -29 -31 -50
t-54 -21q-30 0 -46 21t-10 50z" />
    <glyph glyph-name="divide" unicode="&#xf7;" horiz-adv-x="516" 
d="M9 307h518l-20 -95h-517zM142 77q7 32 34 54t59 22t50 -22t11 -54t-34.5 -54.5t-59.5 -22.5t-49.5 22.5t-10.5 54.5zM219 442q7 32 34.5 54.5t59.5 22.5t49.5 -22.5t10.5 -54.5t-34 -54t-59 -22t-50 22t-11 54z" />
    <glyph glyph-name="oslash" unicode="&#xf8;" horiz-adv-x="581" 
d="M44 242q15 70 47.5 118.5t75 79t90 44t92.5 13.5q35 0 69.5 -8.5t62.5 -28.5q23 20 46.5 44t40.5 45q19 -38 54 -58q-20 -14 -46.5 -35.5t-49.5 -42.5q19 -32 25 -73t-6 -98q-15 -70 -47.5 -119t-74.5 -79.5t-89.5 -44t-92.5 -13.5q-38 0 -74 9.5t-65 32.5
q-13 -12 -27 -25.5t-27 -25.5t-23.5 -22t-16.5 -15q-14 33 -53 52q7 6 20.5 16t28.5 22t29.5 24t25.5 23q-17 31 -21.5 70.5t6.5 94.5zM180 98q11 -17 29 -26t48 -9q34 0 60.5 15t46 39.5t32 57t20.5 67.5q5 22 7.5 42t1.5 38zM406 390q-11 14 -30 22.5t-43 8.5
q-35 0 -61.5 -15t-46 -40t-32.5 -57.5t-20 -66.5q-4 -19 -6.5 -36t-2.5 -33z" />
    <glyph glyph-name="ugrave" unicode="&#xf9;" horiz-adv-x="457" 
d="M-18 162q5 27 10.5 49.5t9.5 42.5q5 17 8 32t7 30q3 16 7.5 38.5t9 47t9 48.5t8.5 44q44 -11 62 -11q19 0 66 11q-8 -27 -17.5 -63t-19.5 -74.5t-19.5 -78t-16.5 -73.5q-9 -43 -7.5 -64.5t9.5 -32.5q8 -12 22.5 -19.5t35.5 -7.5q31 0 54.5 13.5t37.5 33.5q9 13 15 24
t11.5 29t12.5 48t18 83q4 19 9 43.5t10 49.5t9 48.5t7 40.5q44 -11 61 -11q9 0 26.5 3.5t40.5 8.5q-20 -73 -40 -156t-36 -158q-5 -21 -9.5 -46t-9.5 -51t-9 -51t-7 -44q-21 5 -36.5 8t-23.5 3t-24 -2.5t-37 -7.5q4 12 5 16l2 8q1 3 1.5 7.5t2.5 12.5q-65 -48 -135 -48
q-85 0 -121.5 45.5t-18.5 130.5zM165 613q-14 9 -25.5 23.5t-6.5 40.5q3 13 10.5 22.5t17.5 16.5t20 10.5t18 3.5q17 0 29.5 -8t22.5 -21l139 -179h-102z" />
    <glyph glyph-name="uacute" unicode="&#xfa;" horiz-adv-x="457" 
d="M-32 162q5 27 10.5 49.5t10.5 42.5q5 17 8 32l6 30q3 16 7.5 38.5t9 47t9 48.5t8.5 44q44 -11 62 -11q19 0 66 11q-8 -27 -17.5 -63t-19.5 -74.5t-19.5 -78t-16.5 -73.5q-9 -43 -7.5 -64.5t9.5 -32.5q8 -12 22.5 -19.5t35.5 -7.5q31 0 54.5 13.5t37.5 33.5q9 13 15 24
t11.5 29t12.5 48t18 83q4 19 9 43.5t10 49.5t9 48.5t7 40.5q44 -11 61 -11q9 0 26.5 3.5t40.5 8.5q-20 -73 -40 -156t-36 -158q-5 -21 -9.5 -46t-9.5 -51t-9 -51t-7 -44q-21 5 -36.5 8t-23.5 3t-24 -2.5t-37 -7.5q4 12 5 16l2 8q1 3 1.5 7.5t2.5 12.5q-65 -48 -135 -48
q-84 0 -121 45.5t-19 130.5zM350 701q16 13 32.5 21t33.5 8q8 0 16.5 -3.5t15.5 -10.5t10 -16.5t0 -22.5q-5 -26 -23 -40.5t-35 -23.5q-39 -22 -81 -45.5t-82 -45.5h-101z" />
    <glyph glyph-name="ucircumflex" unicode="&#xfb;" horiz-adv-x="465" 
d="M-21 162q6 27 11.5 49.5t9.5 42.5q5 17 8 32l6 30q4 16 8.5 38.5t9 47t9 48.5t8.5 44q44 -11 62 -11q19 0 66 11q-8 -27 -17.5 -63t-19.5 -74.5t-19.5 -78t-16.5 -73.5q-9 -43 -7.5 -64.5t9.5 -32.5q8 -12 22 -19.5t35 -7.5q31 0 54.5 13.5t37.5 33.5q9 13 15 24t12 29
t12.5 48t17.5 83q4 19 9 43.5t10 49.5t9.5 48.5t7.5 40.5q44 -11 61 -11q9 0 26 3.5t40 8.5q-20 -73 -39.5 -156t-35.5 -158q-5 -21 -9.5 -46t-9.5 -51t-9 -51t-7 -44q-21 5 -36.5 8t-23.5 3t-24.5 -2.5t-36.5 -7.5q3 12 4.5 16t2.5 8q1 3 1 7.5t2 12.5q-63 -48 -134 -48
q-85 0 -121.5 45.5t-19.5 130.5zM287 611q-30 -23 -61.5 -45.5t-60.5 -43.5h-90l192 202h87l106 -202h-89z" />
    <glyph glyph-name="udieresis" unicode="&#xfc;" horiz-adv-x="471" 
d="M-14 162l11 49.5t10 42.5q5 17 8 32l6 30q3 16 7.5 38.5t9.5 47t9.5 48.5t8.5 44q42 -11 62 -11q17 0 66 11q-8 -27 -18 -63t-20 -74.5t-19.5 -78t-16.5 -73.5q-9 -43 -7 -64.5t10 -32.5q8 -12 22 -19.5t35 -7.5q31 0 54.5 13.5t37.5 33.5q9 13 15 24t11.5 29t12.5 48
t18 83q4 19 9 43.5t10 49.5t9.5 48.5t7.5 40.5q42 -11 61 -11q9 0 26 3.5t40 8.5q-20 -73 -40 -156t-36 -158q-4 -21 -9 -46t-9.5 -51t-8.5 -51t-7 -44q-21 5 -36.5 8t-23.5 3t-24.5 -2.5t-36.5 -7.5q3 12 4.5 16t2.5 8q1 3 1 7.5t2 12.5q-63 -48 -134 -48q-85 0 -122 45.5
t-19 130.5zM132 618q7 29 31.5 50t54.5 21q29 0 46 -21t10 -50q-6 -29 -31.5 -50t-54.5 -21q-30 0 -46 21t-10 50zM316 618q7 29 31.5 50t53.5 21q30 0 46.5 -21t9.5 -50q-6 -29 -31 -50t-55 -21q-29 0 -45 21t-10 50z" />
    <glyph glyph-name="yacute" unicode="&#xfd;" horiz-adv-x="471" 
d="M-70 -265q68 83 119.5 153t90.5 131q-5 29 -13.5 72t-18.5 91.5t-20.5 98.5t-20 93t-17 76t-10.5 47q30 -6 51.5 -10t28.5 -4q9 0 25 2.5t36 6.5q8 -77 22.5 -162t30.5 -166q49 74 98.5 159.5t94.5 170.5q35 -11 45 -11q5 0 25.5 5t52.5 13q-10 -14 -33 -48t-55 -81.5
t-70.5 -105t-78.5 -118t-79 -121.5t-73 -114.5t-60 -97t-40 -70.5q-15 5 -26.5 7.5t-18.5 2.5q-6 0 -28.5 -5.5t-57.5 -14.5zM393 701q16 13 32 21t33 8q16 0 32 -13.5t11 -39.5t-23.5 -40.5t-35.5 -23.5q-39 -22 -81 -45.5t-81 -45.5h-101z" />
    <glyph glyph-name="thorn" unicode="&#xfe;" horiz-adv-x="500" 
d="M84 456q7 32 15 70.5t15 78.5t13.5 78.5t10.5 71.5q25 -5 42 -8t24 -3t25.5 3t44.5 8l-19.5 -71.5t-20 -78.5t-18.5 -78.5t-16 -70.5l-2 -11q27 22 63 37t84 15q40 0 75.5 -14.5t59 -45.5t32 -78.5t-5.5 -113.5t-44.5 -114.5t-69 -80.5t-82 -48t-84.5 -16q-76 0 -116 45
q-7 -32 -14 -69t-14 -75t-13 -75.5t-10 -68.5q-24 5 -41.5 8.5t-23.5 3.5q-7 0 -25.5 -3.5t-44.5 -8.5q9 33 19 71.5t20 78.5t19 78.5t16 70.5zM377 245q10 49 7.5 81.5t-14 51.5t-28.5 26.5t-35 7.5q-32 0 -57 -14t-43.5 -38t-32 -55.5t-20.5 -66.5q-36 -171 77 -171
q28 0 51 14t41.5 38t32 56.5t21.5 69.5z" />
    <glyph glyph-name="ydieresis" unicode="&#xff;" horiz-adv-x="474" 
d="M-62 -265q68 83 119.5 153t90.5 131q-5 29 -13.5 72t-18.5 91.5t-20.5 98.5t-20 93t-17 76t-10.5 47q30 -6 51.5 -10t28.5 -4q9 0 25 2.5t36 6.5q8 -77 22.5 -162t30.5 -166q49 74 99 159.5t94 170.5q35 -11 45 -11q5 0 25.5 5t52.5 13q-10 -14 -33 -48t-55 -81.5
t-70.5 -105t-78.5 -118t-79 -121.5t-73 -114.5t-60 -97t-40 -70.5q-14 5 -26 7.5t-19 2.5q-6 0 -28.5 -5.5t-57.5 -14.5zM165 618q6 29 31 50t55 21q29 0 45.5 -21t10.5 -50t-31.5 -50t-54.5 -21q-30 0 -46 21t-10 50zM349 618q6 29 31 50t54 21q30 0 46 -21t10 -50t-31 -50
t-55 -21q-29 0 -45 21t-10 50z" />
    <glyph glyph-name="dotlessi" unicode="&#x131;" horiz-adv-x="173" 
d="M37 290q8 40 16.5 92t15.5 113q25 -5 42 -8.5t25 -3.5q7 0 26 3.5t45 8.5q-19 -61 -32.5 -113t-21.5 -92l-21 -97q-8 -40 -16.5 -92t-15.5 -112q-25 5 -42.5 8t-24.5 3q-8 0 -26 -3t-44 -8q19 60 32 112t21 92z" />
    <glyph glyph-name="Lslash" unicode="&#x141;" horiz-adv-x="486" 
d="M122 421q6 30 12.5 64.5t13 70t12.5 70.5t12 65q23 -5 40.5 -7.5t27.5 -2.5t28 2.5t44 7.5q-8 -30 -17 -63.5t-17.5 -68.5t-17 -69t-14.5 -64q23 13 49.5 28.5t46.5 27.5q5 -20 10.5 -39t14.5 -40q-42 -18 -75 -35t-65 -34l-15 -70q-11 -51 -18.5 -89.5t-13.5 -71.5
l-4 -17q29 0 58.5 0.5t61.5 2.5t69.5 5t82.5 9q-11 -20 -18 -35.5t-8 -20.5q-2 -6 -1 -20t2 -34q-21 1 -47 2.5t-53 2.5t-53.5 1.5t-47.5 0.5q-44 0 -99 -2t-99 -4q7 30 15.5 63.5t17 68t16.5 68.5t15 64q-22 -13 -40.5 -25.5t-30.5 -21.5q-5 23 -12 42.5t-17 38.5
q28 14 60.5 29.5t58.5 29.5z" />
    <glyph glyph-name="lslash" unicode="&#x142;" horiz-adv-x="270" 
d="M-14 -11q9 32 19 70.5t19.5 78t18 77.5t15.5 70q-8 -5 -15 -9t-12 -6q-1 -1 -5.5 -4.5t-9.5 -8t-9.5 -8l-4.5 -3.5q-5 16 -11.5 32t-23.5 39q10 6 24.5 13t29.5 15.5t30 16.5t27 15l16 79q7 32 14.5 70.5t15 78.5t13.5 78.5t11 71.5q24 -5 41.5 -8t24.5 -3t25.5 3t44.5 8
q-10 -33 -20 -71.5t-20 -78.5t-18.5 -78.5t-15.5 -70.5l-1 -5q24 14 44.5 26.5t32.5 19.5q-5 -23 0.5 -43.5t15.5 -31.5q-22 -13 -34 -19t-20 -11h1q-7 -3 -12.5 -6t-12 -6t-14.5 -7.5t-20 -10.5l-16 -75q-6 -32 -13.5 -70t-15 -78t-14 -78.5t-10.5 -71.5q-24 5 -41.5 8
t-24.5 3t-25.5 -3t-43.5 -8zM30 270l-4 -2q2 0 4 2z" />
    <glyph glyph-name="OE" unicode="&#x152;" horiz-adv-x="1006" 
d="M715 245q-7 -34 -13.5 -68t-12.5 -69q0 -5 -0.5 -10.5t-1.5 -11.5q95 1 151 5.5t91 10.5q-11 -20 -18 -35.5t-8 -20.5q-2 -6 -0.5 -19.5t3.5 -33.5q-20 1 -44.5 2.5t-50 2.5t-50 1.5t-43.5 0.5q-20 0 -44 -0.5t-48.5 -1.5t-48.5 -2t-45 -2l5 15t3.5 11t3 9.5t3.5 11.5
q1 4 1.5 7.5t1.5 8.5q-41 -29 -99 -51.5t-140 -22.5q-72 0 -129.5 24t-95 68.5t-51 108.5t3.5 145q19 89 61 158t100.5 116t129.5 71t149 24q40 0 71.5 -6t55.5 -15t41.5 -21t30.5 -24q2 17 3.5 29.5t3.5 25.5q19 -1 42.5 -2l47 -2t46 -1.5t41.5 -0.5t43 0.5t49 1.5t49 2.5
t43 2.5q-9 -20 -16 -34.5t-8 -19.5q-2 -7 -1 -23t3 -38q-21 4 -40.5 8t-44.5 7t-59.5 5t-84.5 2q-2 -5 -3.5 -9t-2.5 -9v1q-8 -31 -15 -61t-14 -62l-11 -53q43 0 72 0.5t48 1.5t31.5 2t23.5 2h8t15 0.5t14.5 0.5h7.5q-10 -19 -16.5 -32t-7.5 -18q-2 -4 -0.5 -17t3.5 -32h-8
t-14.5 0.5t-14.5 0.5h-8q-10 1 -22.5 2t-31.5 1.5t-47.5 1t-71.5 0.5zM181 341q-15 -72 -8.5 -124.5t29 -86t59 -50t81.5 -16.5q51 0 95.5 20t80.5 56.5t62 87.5t40 113q16 75 11 127.5t-26 85.5t-56 48t-80 15q-48 0 -93.5 -16.5t-84 -50t-67 -85.5t-43.5 -124z" />
    <glyph glyph-name="oe" unicode="&#x153;" horiz-adv-x="897" 
d="M694 497q55 0 92 -17t58 -46t26 -68t-4 -82q-1 -5 -3.5 -13t-5 -17t-5 -17.5t-3.5 -12.5q-17 0 -45 0.5t-45 0.5q-33 1 -65 1.5t-65 0.5q-20 0 -41 -0.5t-41 -1.5h-19l-1 -4q-7 -32 -3.5 -59t17 -47t37 -31.5t56.5 -11.5q16 0 35.5 6t40.5 16t41 24t38 31l25 -29l-22 -67
q-20 -13 -43.5 -25t-49 -21.5t-51.5 -15t-50 -5.5q-56 0 -98 18t-68 52q-43 -38 -94.5 -54t-102.5 -16q-45 0 -86.5 13.5t-70.5 44t-41 79.5t3 119t47.5 118.5t74.5 79t89.5 44t92.5 13.5q48 0 92 -17t72 -51q38 32 85 50t101 18zM413 242q7 34 8 66.5t-8 57.5t-29.5 40
t-55.5 15t-61 -15t-45.5 -40t-32.5 -57.5t-20 -66.5q-8 -35 -8.5 -67.5t8 -57t28.5 -39.5t55 -15t62 15t46.5 39.5t32 57t20.5 67.5zM680 421q-24 0 -44 -10.5t-36.5 -27t-28.5 -37.5t-20 -41h10q21 -1 43 -1.5t42 -0.5q21 0 42.5 0.5t43.5 1.5h14q3 20 2.5 41t-7 37.5
t-21.5 27t-40 10.5z" />
    <glyph glyph-name="Scaron" unicode="&#x160;" horiz-adv-x="460" 
d="M437 885h90l-179 -190q36 -4 65 -18.5t55 -39.5q-18 -25 -31.5 -49t-28.5 -59h-45q-2 13 -6.5 28.5t-13 28.5t-22.5 22t-35 9q-42 0 -75.5 -25.5t-41.5 -66.5q-6 -26 1 -44t21.5 -31t34.5 -23t42 -19q29 -13 56.5 -27t47 -35.5t27.5 -52t-2 -76.5q-10 -48 -36 -90.5
t-65 -74.5t-89.5 -50.5t-110.5 -18.5q-32 0 -57 6t-45 15.5t-36 22t-29 24.5q9 15 15.5 28t12 26t11 28t11.5 33h46q4 -17 12.5 -34t22 -31t32.5 -23t45 -9q25 0 47.5 9t40 24t29.5 35.5t17 43.5q5 24 -1 41.5t-20 30.5t-33.5 23t-40.5 19q-29 13 -57 28t-48.5 37.5
t-29 55.5t2.5 82q16 73 69 124.5t131 68.5l-102 194h89l84 -90z" />
    <glyph glyph-name="scaron" unicode="&#x161;" horiz-adv-x="370" 
d="M36 132q3 -10 9.5 -21.5t16.5 -21t23 -16t29 -6.5q26 0 50 15.5t30 45.5q3 13 -1.5 22.5t-14.5 16.5t-23 12t-28 10q-24 7 -47 16t-39.5 25t-23.5 40.5t1 62.5q7 35 25.5 65t46 52t63 34.5t78.5 12.5q28 0 48 -6.5t37 -13.5l2 -1l3 -1t12 -3.5t30 -8.5q-9 -12 -19 -27
t-18 -30t-14.5 -28t-8.5 -20h-49q-2 23 -16 40.5t-37 17.5q-20 0 -40.5 -13t-26.5 -42q-3 -14 2 -24t15 -17.5t23.5 -12.5t27.5 -9q23 -7 45.5 -16t39 -24.5t24 -39.5t-0.5 -61q-6 -31 -26 -61.5t-50 -55t-68.5 -39.5t-82.5 -15q-48 0 -81.5 14t-59.5 31q6 8 13 21t14 27
t12.5 28t7.5 25h47zM366 724h90l-192 -202h-87l-106 202h89l84 -89z" />
    <glyph glyph-name="Ydieresis" unicode="&#x178;" horiz-adv-x="583" 
d="M127 -10q23 72 40 143t32 143q-7 18 -20 52t-29 75.5t-33.5 87t-33.5 86t-28.5 72t-19.5 46.5q37 -6 63 -10t35 -4q10 0 27.5 2t38.5 6q12 -40 23.5 -77t23.5 -73.5t25.5 -74t28.5 -79.5q53 63 111 142.5t115 162.5q16 -4 28.5 -6.5t20.5 -2.5t33 4.5t58 12.5
q-68 -80 -122.5 -143.5t-96 -113.5t-71.5 -87.5t-50 -64.5q-7 -33 -15 -73t-15.5 -80.5t-13.5 -78.5t-10 -67q-26 5 -44 7.5t-26 2.5t-27 -2.5t-48 -7.5zM214 778q6 30 31.5 50.5t54.5 20.5t45.5 -20.5t10.5 -50.5q-6 -29 -31.5 -50t-54.5 -21t-45.5 21t-10.5 50zM398 778
q6 30 31.5 50.5t54.5 20.5t45.5 -20.5t10.5 -50.5q-6 -29 -31.5 -50t-54.5 -21t-45.5 21t-10.5 50z" />
    <glyph glyph-name="Zcaron" unicode="&#x17d;" horiz-adv-x="597" 
d="M-68 42q47 50 98.5 106t102 111t98 107.5t87.5 97.5t70 79t46 52h-23q-33 0 -77 -1.5t-90.5 -3.5t-91 -5.5t-78.5 -6.5q22 43 26 56q1 5 0.5 19.5t-2.5 34.5q11 -1 30.5 -2t43.5 -2t50.5 -1.5t51.5 -0.5q49 -1 110 -1h134q31 0 59.5 2.5t64.5 2.5l-10 -49
q-21 -19 -59 -58t-85.5 -89.5t-100 -108t-102 -112t-92 -103t-69.5 -80.5q3 0 6 -0.5t6 -0.5q6 0 11.5 0.5t12.5 0.5q34 0 83.5 1.5t101.5 4.5t100.5 7t80.5 8q-10 -22 -16.5 -37t-7.5 -21q-2 -6 -1.5 -20.5t1.5 -34.5q-66 2 -130.5 4t-118.5 2q-36 0 -86 -0.5t-98.5 -1.5
t-89 -2.5t-57.5 -2.5zM499 885h90l-192 -203h-87l-106 203h90l83 -90z" />
    <glyph glyph-name="zcaron" unicode="&#x17e;" horiz-adv-x="470" 
d="M-53 40q43 42 89.5 89t92.5 94.5t88.5 92t76.5 80.5l-1 -1q-1 0 0 1l4 4q-24 -1 -55 -2.5t-63.5 -3.5t-63.5 -4.5t-54 -4.5q9 20 13 32.5t6 20.5q1 3 2 16.5t2 36.5q47 -5 110.5 -6.5t149.5 -1.5q18 0 34.5 0.5t33.5 1.5t36 2.5t44 3.5l-11 -49q-48 -48 -100 -101.5
t-100.5 -103t-88.5 -90.5t-62 -66q28 0 56.5 1t61 3t71.5 4.5t90 7.5q-8 -16 -13 -30.5t-7 -21.5q-2 -5 -2 -19.5v-30.5h-19t-24.5 0.5t-24.5 1t-19 0.5q-42 2 -87 2.5t-87 0.5q-63 0 -124 -3h1q-11 -1 -33 -1.5t-33 -0.5zM419 724h90l-192 -202h-87l-106 202h89l84 -89z
" />
    <glyph glyph-name="florin" unicode="&#x192;" horiz-adv-x="497" 
d="M1 -63q7 -4 15.5 -9t14.5 -5q24 0 39.5 25.5t31.5 67.5q4 10 13.5 34.5t21.5 57t25.5 68t26 68t22 57t13.5 34.5q-28 -1 -59.5 -2t-46.5 -3q10 20 21.5 45.5t16.5 48.5q16 -2 45 -5t56 -3q4 8 7 15t6 15q17 37 42 77t57 73.5t69.5 55.5t79.5 22q7 0 24 -4t33 -10
q-11 -22 -22.5 -52t-16.5 -56l-47 -13q-5 12 -14 21t-18 9q-11 0 -22 -9.5t-22 -36.5q-12 -32 -20 -53.5t-20 -53.5q11 1 21 1.5t21 1.5q6 0 16.5 0.5l21 1t20 0.5h12.5q-13 -20 -24.5 -45t-16.5 -45q-32 3 -56 3.5t-47 0.5q-19 -47 -36.5 -92t-35.5 -93
q-43 -107 -88.5 -173t-90.5 -102t-89.5 -48t-84.5 -12q18 35 29.5 62.5t16.5 50.5z" />
    <glyph glyph-name="circumflex" unicode="&#x2c6;" horiz-adv-x="354" 
d="M174 611q-30 -23 -61.5 -45.5t-60.5 -43.5h-89l191 202h87l106 -202h-89z" />
    <glyph glyph-name="caron" unicode="&#x2c7;" horiz-adv-x="350" 
d="M298 724h90l-192 -202h-87l-106 202h89l85 -90z" />
    <glyph glyph-name="breve" unicode="&#x2d8;" horiz-adv-x="342" 
d="M109 716q-2 -43 12 -66.5t50 -23.5q38 0 60 23.5t43 66.5h71q-8 -39 -25 -74.5t-42 -62t-57 -42t-71 -15.5t-65 15.5t-39.5 42t-15.5 62t6 74.5h73z" />
    <glyph glyph-name="dotaccent" unicode="&#x2d9;" horiz-adv-x="164" 
d="M10 615q6 29 31.5 50t54.5 21t45.5 -21t10.5 -50q-7 -29 -32.5 -50t-54.5 -21t-45.5 21t-9.5 50z" />
    <glyph glyph-name="ring" unicode="&#x2da;" horiz-adv-x="266" 
d="M13 625q5 25 19 46.5t34 37.5t43.5 25.5t48.5 9.5q24 0 43.5 -9.5t32.5 -25.5t17.5 -37.5t-0.5 -46.5q-5 -24 -19 -45.5t-34 -37.5t-43.5 -25.5t-48.5 -9.5q-24 0 -43.5 9.5t-32 25.5t-17.5 37.5t0 45.5zM99 625q-3 -13 4.5 -22.5t21.5 -9.5t26 9.5t15 22.5q2 14 -5 23.5
t-21 9.5t-26.5 -9.5t-14.5 -23.5z" />
    <glyph glyph-name="ogonek" unicode="&#x2db;" horiz-adv-x="220" 
d="M255 47q-46 -35 -74.5 -59t-45 -40t-23 -26.5t-8.5 -17.5q-4 -17 7.5 -24.5t26.5 -7.5q5 0 18.5 3.5t27.5 8.5l8 -73q-47 -20 -87 -20q-25 0 -47 6.5t-37 19.5t-21.5 32t-1.5 45q12 63 152 153h105z" />
    <glyph glyph-name="tilde" unicode="&#x2dc;" horiz-adv-x="393" 
d="M-1 545q9 24 23.5 49.5t34 46.5t44 34t52.5 13q19 0 33 -5t40 -19q20 -11 29.5 -15t18.5 -4q13 0 25 14t21 33h72q-6 -17 -19 -42t-33 -48t-47.5 -40t-61.5 -17q-30 0 -73 24q-19 11 -28.5 15t-17.5 4q-11 0 -19 -9t-22 -34h-72z" />
    <glyph glyph-name="hungarumlaut" unicode="&#x2dd;" horiz-adv-x="468" 
d="M167 701q16 13 33 21t33 8q8 0 17 -3.5t15.5 -10.5t9.5 -16.5t0 -22.5q-5 -26 -23 -40.5t-34 -23.5q-39 -22 -81.5 -45.5t-81.5 -45.5h-101zM354 701q16 13 32.5 21t33.5 8q8 0 16.5 -3.5t15.5 -10.5t10 -16.5t0 -22.5q-5 -26 -23 -40.5t-35 -23.5q-39 -22 -81 -45.5
t-82 -45.5h-101z" />
    <glyph glyph-name="endash" unicode="&#x2013;" horiz-adv-x="587" 
d="M45 284h514l-19 -91h-514z" />
    <glyph glyph-name="emdash" unicode="&#x2014;" horiz-adv-x="1086" 
d="M62 284h980l-19 -91h-980z" />
    <glyph glyph-name="quoteleft" unicode="&#x2018;" 
d="M86 435q-8 -17 -27 -34.5t-48 -17.5q-18 0 -34.5 13t-10.5 42q3 14 11 26t18 25q1 1 1 1.5t2 2.5l-4 -4q19 24 41 51.5t44.5 55.5t44 55.5t41.5 52.5l53 -21z" />
    <glyph glyph-name="quoteright" unicode="&#x2019;" 
d="M89 646q9 17 27.5 34.5t47.5 17.5q19 0 35.5 -13t10.5 -42q-3 -14 -11.5 -26t-17.5 -25q-1 -1 -1.5 -2t-2.5 -2l5 4l-42 -52.5t-44.5 -55.5t-44.5 -55.5t-41 -51.5l-52 21z" />
    <glyph glyph-name="quotesinglbase" unicode="&#x201a;" 
d="M89 100q9 17 27.5 34.5t47.5 17.5q19 0 35.5 -13t10.5 -42q-3 -14 -11.5 -26t-17.5 -25q-1 -1 -1.5 -2t-2.5 -2l5 4l-42 -52.5t-44.5 -55.5t-44.5 -55.5t-41 -51.5l-52 21z" />
    <glyph glyph-name="quotedblleft" unicode="&#x201c;" horiz-adv-x="376" 
d="M268 435q-9 -17 -28 -34.5t-48 -17.5q-19 0 -35.5 13t-10.5 42q3 14 11.5 26t17.5 25q1 1 1 1.5t2 2.5l-4 -4q19 24 41 51.5t44.5 55.5t44.5 55.5l42 52.5l53 -21zM107 435q-8 -17 -27 -34.5t-48 -17.5q-19 0 -35 13t-10 42q3 14 10.5 26t17.5 25l2 4l-3 -4
q19 24 41 51.5t44.5 55.5t44.5 55.5l42 52.5l53 -21z" />
    <glyph glyph-name="quotedblright" unicode="&#x201d;" horiz-adv-x="377" 
d="M270 646q8 17 26.5 34.5t47.5 17.5q19 0 35.5 -13t10.5 -42q-3 -14 -11 -26t-18 -25q-1 -1 -1.5 -2t-1.5 -2l4 4q-39 -50 -85.5 -108t-86.5 -107l-53 21zM109 646q9 17 27 34.5t48 17.5q19 0 35.5 -13t10.5 -42q-3 -14 -11.5 -26t-17.5 -25q-1 -1 -1.5 -2t-2.5 -2l5 4
l-42 -52.5t-44.5 -55.5t-44.5 -55.5t-41 -51.5l-52 21z" />
    <glyph glyph-name="quotedblbase" unicode="&#x201e;" horiz-adv-x="377" 
d="M270 100q8 17 26.5 34.5t47.5 17.5q19 0 35.5 -13t10.5 -42q-3 -14 -11 -26t-18 -25q-1 -1 -1.5 -2t-1.5 -2l4 4q-39 -50 -85.5 -108t-86.5 -107l-53 21zM109 100q9 17 27 34.5t48 17.5q19 0 35.5 -13t10.5 -42q-3 -14 -11.5 -26t-17.5 -25q-1 -1 -1.5 -2t-2.5 -2l5 4
l-42 -52.5t-44.5 -55.5t-44.5 -55.5t-41 -51.5l-52 21z" />
    <glyph glyph-name="dagger" unicode="&#x2020;" horiz-adv-x="473" 
d="M40 478q54 -8 93 -10t74 -2q6 26 11.5 55.5t10.5 59t8 58.5t4 54q23 -5 40.5 -8.5t26.5 -3.5t27.5 3.5t43.5 8.5q-10 -25 -18.5 -53.5t-16.5 -58.5t-14.5 -59.5t-12.5 -55.5q34 0 74 2t99 10q-11 -22 -17.5 -38.5t-8.5 -24.5t-2.5 -23.5t1.5 -37.5q-54 8 -93.5 10
t-73.5 2q-13 -60 -24 -120.5t-22 -120.5q-3 -13 -6 -31t-7 -37t-7 -36.5t-6 -30.5q-20 5 -36 7.5t-25 2.5t-26 -2.5t-39 -7.5q3 13 7 30.5t8.5 36.5t9 37t7.5 31q8 33 15 62.5t14 58t13.5 58t13.5 62.5q-35 0 -75 -2t-98 -10q22 45 25 61q2 8 2.5 24.5t-0.5 38.5z" />
    <glyph glyph-name="daggerdbl" unicode="&#x2021;" horiz-adv-x="476" 
d="M186 341q2 12 4 23l4 22q1 6 2 12.5t3 13.5q-35 0 -75.5 -2.5t-98.5 -10.5q22 45 25 62q2 8 2.5 24.5t-1.5 38.5q54 -8 94 -10.5t74 -2.5q5 26 11.5 66.5t16.5 114.5q44 -11 63 -11q20 0 67 11q-20 -68 -31 -110t-17 -71q34 0 74 2.5t98 10.5q-11 -22 -17 -38.5t-8 -24.5
t-2.5 -24t1.5 -38q-54 8 -93.5 10.5t-74.5 2.5q-2 -7 -3.5 -13.5t-3.5 -12.5q-5 -20 -10 -45q-3 -12 -5.5 -24t-4.5 -24q-1 -6 -1.5 -8t-0.5 -3.5t-0.5 -3.5t-1.5 -8q35 0 75.5 2t98.5 10q-22 -45 -25 -63q-2 -8 -2.5 -23.5t1.5 -37.5q-54 8 -94 10t-74 2q-3 -13 -5.5 -29
t-6 -37t-7.5 -49t-9 -65q-21 5 -37 7.5t-26 2.5t-27 -2.5t-40 -7.5q20 67 31 109.5t17 70.5q-35 0 -74.5 -2t-96.5 -10q11 22 17 37.5t8 23.5q1 8 1.5 24.5t-1.5 38.5q54 -8 93.5 -10t74.5 -2q2 7 3.5 12t3.5 12q2 9 5.5 23.5t5.5 23.5z" />
    <glyph glyph-name="bullet" unicode="&#x2022;" horiz-adv-x="400" 
d="M18 341q8 37 29 70.5t51 58t66 39t74 14.5t68 -14.5t49.5 -39t27 -58t-0.5 -70.5q-8 -38 -29.5 -71t-51.5 -58t-66 -39t-74 -14t-68 14t-49.5 39t-26.5 58t1 71z" />
    <glyph glyph-name="ellipsis" unicode="&#x2026;" horiz-adv-x="862" 
d="M44 65q6 32 33 54.5t59 22.5t49.5 -22.5t11.5 -54.5q-7 -32 -34.5 -54t-59.5 -22t-49 22t-10 54zM665 65q6 32 33.5 54.5t59.5 22.5t49 -22.5t11 -54.5q-7 -32 -34 -54t-59 -22t-49.5 22t-10.5 54zM354 65q6 32 33.5 54.5t59.5 22.5t49.5 -22.5t11.5 -54.5
q-7 -32 -34.5 -54t-59.5 -22t-49.5 22t-10.5 54z" />
    <glyph glyph-name="perthousand" unicode="&#x2030;" horiz-adv-x="980" 
d="M310 158q10 49 32 82.5t48.5 53t55.5 28t55 8.5q22 0 45 -6.5t41 -22t28 -41t8 -63.5q14 38 35.5 63.5t46 41t50 22t48.5 6.5q25 0 50.5 -8.5t44 -28t25.5 -53t-3 -82.5q-11 -50 -32.5 -83t-48 -53t-56 -28.5t-54.5 -8.5q-23 0 -45.5 6.5t-40.5 22.5t-28.5 41t-7.5 63
q-14 -38 -35.5 -63t-46 -41t-50.5 -22.5t-48 -6.5q-26 0 -51 8.5t-43.5 28.5t-26 53t3.5 83zM75 501q10 50 32 83t48.5 53t55.5 28.5t55 8.5q25 0 50.5 -8.5t44 -28.5t25.5 -53t-3 -83q-11 -50 -32 -83t-48 -52.5t-56 -28t-54 -8.5q-26 0 -51.5 8.5t-43.5 28t-26 52.5t3 83z
M574 701q21 -10 31 -10q3 0 24 6.5t53 17.5l-562 -757q-11 5 -19.5 7.5t-10.5 2.5q-5 0 -25 -6.5t-52 -17.5zM722 158q-10 -45 -7 -74.5t29 -29.5t41 29.5t25 74.5t7 74t-29 29t-41 -29t-25 -74zM420 158q-10 -45 -7 -74.5t29 -29.5t41 29.5t25 74.5q10 44 6.5 73.5
t-28.5 29.5q-26 0 -41 -29t-25 -74zM185 501q-10 -45 -7 -74t29 -29t41 29t25 74t7 74.5t-29 29.5t-41 -29.5t-25 -74.5z" />
    <glyph glyph-name="guilsinglleft" unicode="&#x2039;" horiz-adv-x="197" 
d="M177 459q6 -18 22.5 -32.5t40.5 -18.5l-153 -167q8 -19 18 -42.5t20.5 -47t20 -46t16.5 -38.5q-22 -3 -45.5 -19.5t-36.5 -36.5l-95 230z" />
    <glyph glyph-name="guilsinglright" unicode="&#x203a;" horiz-adv-x="195" 
d="M32 413q21 2 45 18.5t37 37.5l96 -230l-193 -218q-6 18 -22 32.5t-40 18.5l151 167z" />
    <glyph glyph-name="fraction" unicode="&#x2044;" horiz-adv-x="329" 
d="M336 692q13 -5 21 -8.5t11 -3.5q4 0 21.5 6t44.5 15l-440 -734q-14 5 -22 8.5t-11 3.5t-20.5 -6t-45.5 -16z" />
    <glyph glyph-name="Euro" unicode="&#x20ac;" horiz-adv-x="577" 
d="M602 595q-10 -16 -20.5 -38.5t-22.5 -49.5l-47 -1q-14 38 -42 59.5t-57 21.5q-48 0 -94 -39.5t-80 -122.5h127h25t30 1.5t38 4.5t50 8q-20 -30 -34.5 -57.5t-22.5 -44.5q2 1 4 1t4 1q-24 -35 -40 -66.5t-22 -45.5q-31 5 -58 7t-48 2h-97q-2 -75 28 -117.5t80 -42.5
q32 0 75 21.5t94 66.5l16 -48q-7 -16 -12.5 -32.5t-12.5 -36.5q-17 -13 -40.5 -23.5t-49.5 -18.5t-53 -12.5t-49 -4.5q-100 0 -157 64t-53 183q-19 -2 -39 -4.5t-48 -8.5q17 29 29.5 55.5t21.5 50.5q-8 -2 -15 -3t-14 -3q18 32 31.5 60t21.5 51q8 -2 22.5 -4t35.5 -2
q24 53 59.5 98t78 78t91 52t98.5 19q43 0 88.5 -15t76.5 -36zM317 325q19 0 41.5 0.5t58.5 5.5q-22 3 -40.5 4t-34.5 1h-132l-3 -11h110v0zM76 334q-6 -1 -13.5 -1.5t-15.5 -2.5q6 -1 13 -1t14 -1q0 1 0.5 2t1.5 4z" />
    <glyph glyph-name="trademark" unicode="&#x2122;" horiz-adv-x="870" 
d="M611 464q41 53 87 114t86 114h43l-17 -140q-4 -32 -7.5 -73.5t-7 -84.5t-6 -82.5t-4.5 -66.5q-43 16 -51 16q-14 0 -53 -12q8 48 16.5 104t13.5 110q1 12 1 14.5v2.5l0.5 2t1.5 13q-4 -5 -4 -5.5t-4 -5.5q-20 -25 -42 -55t-43.5 -60t-40 -58t-31.5 -48h-38
q-9 39 -20 74.5t-22 70.5q-5 14 -9.5 28.5t-9.5 29.5q-2 5 -2.5 7t-1.5 3v2q0 2 -1 4t-2 6q-2 -8 -5 -16.5t-5 -16.5q-15 -47 -30 -98t-29 -111q-33 15 -40 15q-3 0 -18.5 -4.5t-38.5 -12.5q12 28 26.5 65t29 76.5l29 79t26.5 72.5q6 16 12.5 36.5t14 41t14 40.5t12.5 37h45
q14 -60 31.5 -115.5t36.5 -110.5l-1 1l6 -16.5t3.5 -10l3.5 -10.5t6 -16zM179 609q-32 0 -70 -2.5t-67 -4.5q13 18 21.5 30t8.5 14q1 2 -2.5 13.5t-8.5 28.5q18 -1 42 -2.5t49 -2.5t49 -1.5t42 -0.5t42.5 0.5t49.5 1.5t49.5 2.5t42.5 2.5q-13 -17 -20.5 -28.5t-8.5 -13.5
q0 -7 11 -43q-29 2 -66.5 4t-67.5 2l-22 -108q-9 -42 -17.5 -82.5t-16.5 -82.5q-1 -8 -3 -20.5t-4.5 -25t-4 -24.5t-2.5 -18q-19 6 -32 9.5t-19 3.5q-5 0 -20 -3.5t-35 -9.5l9 44q9 36 20.5 84.5t26.5 117.5z" />
    <glyph glyph-name="minus" unicode="&#x2212;" horiz-adv-x="593" 
d="M47 307h518l-20 -95h-518z" />
    <glyph glyph-name="fi" unicode="&#xfb01;" horiz-adv-x="507" 
d="M340 622q-23 16 -48 16q-29 0 -45.5 -21t-21.5 -49q-3 -12 -5 -36t-4 -49h27h75q-5 -14 -9.5 -27t-4.5 -15q-1 -2 -1.5 -14.5t-1.5 -27.5h-12.5t-17.5 0.5t-17.5 0.5h-12.5q-8 0 -12.5 0.5t-8 1t-8 0.5h-12.5q-10 -48 -21 -100.5t-21.5 -105.5t-20.5 -105.5t-19 -100.5
q-21 5 -37 7.5t-25 2.5q-8 0 -26.5 -2.5t-41.5 -7.5q28 103 51.5 206t45.5 206q-5 0 -10.5 -1t-10.5 -1h-10t-15.5 -0.5t-15.5 -0.5h-10q5 15 9.5 27.5t5.5 14.5q0 2 1 15t3 27h61h11q7 28 20.5 59t30.5 60t37.5 55t43.5 45q25 20 57.5 34.5t64.5 14.5q6 0 17 -2t24 -7
q-5 -18 -7.5 -30t-4.5 -19q-3 -11 -7.5 -28.5t-6.5 -27.5zM332 290q9 40 18 92t15 113q25 -5 42 -8.5t25 -3.5t26.5 3.5t44.5 8.5q-19 -61 -32.5 -113t-22.5 -92l-20 -97q-8 -40 -17 -92t-15 -112q-24 5 -41.5 8t-25.5 3t-26.5 -3t-44.5 -8q19 60 32.5 112t21.5 92zM391 627
q6 29 31.5 50t54.5 21t45.5 -21t10.5 -50t-31.5 -50t-54.5 -21t-45.5 21t-10.5 50z" />
    <glyph glyph-name="fl" unicode="&#xfb02;" horiz-adv-x="513" 
d="M340 622q-12 8 -24 12t-23 4q-29 0 -46 -21t-23 -49q-2 -12 -4.5 -36t-4.5 -49h27h75q-5 -14 -9 -27t-5 -15q0 -2 -1 -14.5t-2 -27.5h-12.5t-17.5 0.5t-17.5 0.5h-12.5q-8 0 -12 0.5t-7.5 1t-7.5 0.5h-12q-11 -48 -22 -100.5t-21.5 -105.5t-21 -105.5t-19.5 -100.5
q-20 5 -36.5 7.5t-25.5 2.5q-8 0 -26 -2.5t-41 -7.5q27 103 51 206t46 206q-5 0 -11 -1t-11 -1h-10t-15.5 -0.5t-15.5 -0.5h-10q5 15 10 27.5t5 14.5q1 2 2 15t2 27h61h11q7 28 20.5 59t31 60t38.5 55t44 45q23 20 56.5 34.5t65.5 14.5q5 0 16 -2t24 -7q-7 -35 -12 -49
q-3 -11 -7.5 -28.5t-6.5 -27.5zM373 456q7 32 14.5 70.5t15 78.5t13.5 78.5t11 71.5q24 -5 41.5 -8t24.5 -3t25.5 3t44.5 8q-10 -33 -20 -71.5t-20 -78.5t-18.5 -78.5t-15.5 -70.5l-36 -169q-6 -32 -13.5 -70t-15 -78t-14 -78.5t-10.5 -71.5q-25 5 -42 8t-24 3t-25.5 -3
t-44.5 -8q10 33 20 71.5t20 78.5t18.5 78t14.5 70z" />
    <glyph glyph-name="LDO" horiz-adv-x="720" 
d="M343 162q0 -2 -1.5 -6t-1.5 -5v-7h-4v10q4 4 7 8zM288 144q4 7 4 18h15q-7 0 -7 -8q0 -25 3 -32h4q2 5 7 14h4v-14h-11q-1 0 -2.5 1t-2.5 3t-2 3h-8q0 1 -2 6t-2 9zM374 110v15q3 0 5 1.5t3 2.5v-13q2 -1 4 -2.5t6 -3.5l1 -16q-6 7 -19 16zM89 627q24 7 64 7q25 0 37 -7
q10 -7 34 -7q19 9 22 18q29 0 33 24l9 4q2 3 7 5q5 0 5 2q5 2 7.5 6.5t10.5 4.5q1 3 7 6q7 2 7 5q32 0 32 18q8 0 13 6q4 7 12 7q1 2 9.5 5t8.5 6q7 0 10 3q12 8 16 8l9 4q7 2 7 7q11 0 22 4q11 3 19 3q0 4 7 8q7 2 8 3l89 19l42 -4l15 -8q7 -3 11 -7q10 -7 31 -18l7 -42
q-42 0 -42 5q-5 0 -14 4t-11 4q0 4 -1.5 5.5t-6.5 4.5h-68q-3 -3 -7 -10q-7 0 -21 -4t-21 -4q-13 -9 -18.5 -9t-14.5 -3q-4 0 -8 -6l-6 -6q-10 -3 -8 -3h-4q-1 -3 -8.5 -5l-7.5 -2q-3 0 -5.5 -2t-6.5 -5t-6 -5q-11 0 -15 -10q-5 0 -6 -2.5t-1 -9.5q-6 0 -13.5 -3.5t-8 -3.5
t-6.5 -4.5t-14 -4.5q-2 -1 -7 -2t-8 -6q-2 -1 -4 -4q-2 -5 -3 -6q-11 0 -11 -8q-4 0 -7 -1.5t-6 -4.5l-5 -5q-15 0 -15 -11q-5 0 -13 -7v-11q-4 -3 -6.5 -4t-4.5 -5v-15q6 -7 11 -7v-48q-6 0 -11 -9v-11q-2 -2 -4 -3q-3 -2 -7 -4v-22q-6 -3 -7 -4.5t-1 -10.5q0 -11 -3 -11
l-7 -7q-9 -4 -10.5 -6t-1.5 -10q-9 -4 -15 -8t-8 -11q-11 -11 -44 -11q-17 11 -35 11q-2 3 -7 11h-15q-3 0 -9 4q-7 4 -13 4q0 11 -11 16q0 7 -4 11q-10 0 -21 -1l-11 -1q-4 0 -11 7q-3 2 -6 2v55q2 3 5 5l6 4l4 83q1 0 2.5 1t2.5 3t2 3v15q5 2 6 6t5 4q0 1 10 4.5t10 7.5
q21 7 26 7zM385 132q-4 5 -7 7q-4 1 -15 1v18q6 -6 18 -14q0 -8 4 -12zM400 132q3 -3 3 -7q-3 3 -10 7h7zM403 125h7q5 2 12 10q6 9 10 9q-1 -4 -3.5 -6t-6.5 -6v-14l6 -4t4 -4q-4 0 -10 -7v-13l7 -7h17q1 -6 4 -10q2 -6 18 -12q3 11 3 22q-9 11 -22 11v31q3 0 11 7l-6 6
q-3 2 -5 6q2 -1 12 -5q6 -2 17 -5q6 -2 19 -2v-22q3 -2 6.5 -3.5t4.5 -3.5q0 -16 4 -20h9q3 3 3 14v6q9 0 13 1.5t9 5.5q-7 8 -11 8v14q3 0 11 8v26q-3 2 -6 3.5t-5 5.5q0 8 -1.5 10t-9.5 5q7 0 12.5 5t6.5 5v-10q0 -8 7 -8q3 -10 4 -11.5t7 -4.5q0 -15 8 -22h3q2 2 4 8t3 6
q20 7 20 24q5 0 18 8v-58h-7q-3 -3 -3 -14q-4 -1 -14 -8q10 -7 32 -7q0 -5 -2 -6.5t-5 -6.5v-36q-4 2 -5.5 3.5t-2 3.5t-3.5 7h-20q0 -2 -2 -6q-2 -6 -2 -8q-4 0 -11 -8q7 0 11 -3v-7q-2 -2 -5 -3.5t-6 -4.5v-16q-19 0 -22 -8v-7l1 -1q0 1 -4 1q0 3 -2 8t-2 7q-18 0 -23 -8
v-7q11 -11 22 -11v-7h-7q-12 -5 -21 -7q-4 -1 -10 -1v15q7 0 7 7q0 35 -3 43h-3q-8 -8 -8 -39q-7 0 -11 -4v-14h-26l-4 -8v-38q-10 0 -24 -4q9 -7 14 -7v-18q-6 2 -6 6q0 3 -7 5h-4q-5 -2 -6 -5q-2 -4 -5 -6v18q3 0 11 7q0 57 -7 64h-4q-1 -1 -3 -2l-1 -1l4 3q-4 4 -11 4
q0 31 -7 39h-4q-6 -3 -5 -21q1 -34 1 -31v-55q0 -1 4 -3t4 -4v-7q0 -1 -3.5 -4.5t-3.5 -6.5h-29v25q0 2 -1 3l-4 2q-2 1 -5 3q-2 7 -7 16h-4q-7 -7 -7 -24q3 -2 7 -3l4 -4v-7q-5 -4 -15 -11q3 0 11 11v7q0 7 -18 7q-15 0 -18 -7v-11q0 4 -7 4q0 10 -5 15q-5 4 -16 7v16l-7 4
h-15v14q-6 8 -11 8q-4 12 -22 18v31q11 3 11 15q2 0 5.5 1.5t5.5 1.5q0 19 -4 22h-7q-3 -3 -3 -14q-5 0 -19 -8v44q4 0 7 2t4 2v38h18v-14q-5 0 -7 -4q-2 -2 -3 -4q29 0 36 8v7l-4 4l4 -4h17q0 -31 3 -35h-9l-7 -7v-15q-6 -2 -7 -3.5t-4 -10.5q-4 0 -11 -8h35v-10
q-9 -4 -13 -8q0 -11 7 -24q10 4 21 17v22h7q1 -12 3 -31h8q4 3 4 16q18 0 21 8v7l-7 7l7 4v14q3 -2 8 -3.5t7 -3.5q0 -8 1 -9.5t5 -8.5q27 0 32 11v9h-1q1 -2 5 -2q6 8 6.5 11t0.5 11q3 0 11 7v20q-7 8 -11 8q0 2 -2 4t-2 3zM617 129q2 -1 3 -2l1 -2h8q0 -3 -4 -7h-3
q-5 4 -5 11zM629 125q0 4 3 7q0 -2 -1 -3q-2 -3 -2 -4zM632 132v50q4 0 11 8v10h15l4 8v22h7v-90q-1 -2 -5 -3q-3 -2 -6 -5v-14l-14 -8q0 19 -8 22h-4zM456 -67q2 -1 3 -2l1 -2v3q-1 1 -4 1zM460 -71q4 -1 9 -8l6 -6q0 7 -7 14h-8zM468 -67q3 9 3 31h15q2 -2 3 -4q0 -4 4 -6
q2 -1 4 -1q-2 -2 -5 -3.5t-6 -3.5v-9q0 -5 -3 -5q-3 1 -6 1h-9zM414 -10q-1 -5 -1 -15v-12q0 -20 -2 -26h-4v49q3 0 7 4zM307 -89l3 -4q0 3 -1 4h-2zM310 -93q4 0 8 -3q-8 0 -8 3zM264 129q-3 0 -7 3v12l-7 7h-15v15q11 0 11 9v7q-1 3 -5.5 5t-5.5 3v10q-6 8 -11 8
q3 0 7 2.5t4 4.5v7q0 3 -4 4q-5 2 -7 4v34h8v-16l3 -7h15v-33q-8 0 -8 -8v-7q0 -3 8 -3v-24q2 -1 6 -4t5 -4v-26zM296 90q4 4 4 20h13q-2 -1 -3.5 -3t-2.5 -4v-31q-1 1 -3 2.5t-4 1.5q0 7 -4 14zM307 72l4.5 -2t6.5 -2h-8q-1 1 -1 2zM318 68q1 7 7 15v-15h-7zM531 237
q2 -2 3 -4l4 -2q2 -1 4 -1l1 -15h-18q0 8 -1.5 10t-11.5 5q0 34 -4 42h-3q-4 -2 -5 -8q-2 -6 -3 -7h-4v15h15q1 6 4 14h9v-14q8 -8 11 -8zM511 305q0 7 -6 7q-8 -7 -12 -7v14h15q0 -3 1.5 -8t1.5 -6zM300 290h-12q0 -2 -1.5 -6t-1.5 -5q-27 -7 -28 -7v25h15l7 8v14
q27 0 31 20q18 5 22 22h15q0 -29 7 -34h4q6 5 6 20q7 4 10 7v15q9 -8 11 -8h8q-1 0 7 8q0 -18 7 -22h4l3.5 7l3.5 7h15q1 -5 4 -11q1 -1 9 -3q-14 0 -14 -8v-7q4 -5 36 -5v-15h-39q-2 2 -3 8q-3 6 -4 7h-4q-2 -5 -7 -15h-4q-2 3 -7 15h-15q0 -6 -3 -15h-8q0 4 -3 15h-28
q-2 -6 -7 -15q-10 0 -20 -8z" />
    </font>
</defs>
</svg>
