<?xml version="1.0" standalone="no"?>
<!DOCTYPE svg PUBLIC "-//W3C//DTD SVG 1.1//EN" "http://www.w3.org/Graphics/SVG/1.1/DTD/svg11.dtd" >
<svg xmlns="http://www.w3.org/2000/svg" xmlns:xlink="http://www.w3.org/1999/xlink" version="1.1">
<metadata>
Created by FontForge 20170731 at Fri Mar 26 00:58:58 2004
 By Aleksey,,,
Copyright (c) Luke Owens, 2004. All rights reserved.
</metadata>
<defs>
<font id="OregonLDOExtended-BoldOblique" horiz-adv-x="215" >
  <font-face 
    font-family="Oregon LDO Extended"
    font-weight="700"
    font-style="oblique"
    font-stretch="normal"
    units-per-em="1000"
    panose-1="2 1 6 3 0 0 0 2 0 4"
    ascent="800"
    descent="-200"
    x-height="487"
    cap-height="690"
    bbox="-129 -266 1345 907"
    underline-thickness="50"
    underline-position="-150"
    slope="-12"
    unicode-range="U+0020-FB02"
  />
<missing-glyph horiz-adv-x="278" 
 />
    <glyph glyph-name=".notdef" horiz-adv-x="278" 
 />
    <glyph glyph-name=".null" horiz-adv-x="0" 
 />
    <glyph glyph-name="nonmarkingreturn" horiz-adv-x="278" 
 />
    <glyph glyph-name="space" unicode=" " horiz-adv-x="278" 
 />
    <glyph glyph-name="space" unicode="&#xa0;" horiz-adv-x="278" 
 />
    <glyph glyph-name="exclam" unicode="!" horiz-adv-x="202" 
d="M25 162q10 70 21.5 149.5t21.5 149t17.5 118.5t10.5 59q9 31 34.5 45.5t52.5 14.5q16 0 29.5 -4t23 -12t13 -21.5t-1.5 -32.5q-2 -7 -10.5 -33t-22 -65t-30.5 -87t-35 -99q-16 -43 -33.5 -92.5t-31.5 -89.5h-59zM-55 66q3 14 12.5 26.5t23 21.5t29 14.5t32.5 5.5
q38 0 59 -22.5t13 -54.5q-3 -14 -12.5 -26.5t-23 -21.5t-30 -14.5t-32.5 -5.5q-37 0 -58 22.5t-13 54.5z" />
    <glyph glyph-name="quotedbl" unicode="&#x22;" horiz-adv-x="338" 
d="M69 698h99l-77 -310h-99zM245 698h99l-77 -310h-99z" />
    <glyph glyph-name="numbersign" unicode="#" horiz-adv-x="545" 
d="M181 409h-100q12 14 24 30t21.5 32t16 30t9.5 23h89l38.5 77t18.5 38l-1 -1q5 11 16 26q22 -6 32 -6q4 0 24 4t55 12q-14 -15 -25 -27.5t-21.5 -28t-23 -38t-29.5 -56.5h94q23 46 36 73t18 40v-1q2 5 7.5 15t7.5 13q27 -6 34 -6q4 0 24 4t52 12q-12 -14 -22 -26.5
t-20.5 -28.5t-23.5 -38.5t-29 -56.5h94q-9 -12 -19.5 -28t-19.5 -32.5t-16 -31t-10 -23.5h-89q-11 -23 -20.5 -41.5l-19 -37t-19.5 -38t-21 -42.5h98q-11 -13 -22 -29.5t-20.5 -32.5t-16.5 -30.5t-9 -23.5h-90l-30 -60t-19.5 -39.5t-11.5 -24t-7 -13.5q-2 0 -12 0.5t-12 0.5
q-8 2 -11 2t-7 -0.5t-9 -1.5h-8t-15.5 -0.5t-15.5 -0.5h-8q9 13 17 24t16.5 25t19.5 35t28 53h-92q-17 -34 -28 -56.5t-18.5 -37.5t-11.5 -24.5t-8 -18.5q-2 0 -12.5 0.5t-12.5 0.5q-10 2 -13 2q-2 0 -5 -0.5t-8 -1.5h-8.5t-16.5 -0.5t-16.5 -0.5h-8.5q9 12 17 23t17 25.5
t20.5 35t28.5 53.5h-97q11 13 22 29t20.5 32t16 30.5t9.5 24.5h89zM359 409h-94q-11 -23 -20.5 -42l-18.5 -37t-18.5 -37.5t-21.5 -42.5h94z" />
    <glyph glyph-name="dollar" unicode="$" horiz-adv-x="579" 
d="M249 294q-83 29 -124.5 62t-41.5 89q0 9 1.5 20t5.5 22q9 36 31.5 67t55.5 55t75 40t90 22q3 15 3.5 34t-1.5 48q18 -6 31.5 -9t19.5 -3q8 0 25.5 3.5t43.5 9.5q-17 -32 -26 -50.5t-12 -30.5q34 -2 60.5 -8t47.5 -14.5t37.5 -17.5t29.5 -18q-24 -23 -39 -45.5t-30 -53.5
h-40q-3 11 -8.5 24t-16 25t-25 21.5t-35.5 13.5q-14 -57 -26.5 -105t-26.5 -105q42 -14 74.5 -28.5t54 -32t33 -39t11.5 -50.5q0 -16 -6 -37q-9 -35 -33 -68.5t-58.5 -61.5t-79 -49.5t-95.5 -31.5q-5 -23 -9 -50t-6 -63q-17 5 -29.5 7.5t-18.5 2.5q-8 0 -24.5 -3.5
t-40.5 -9.5q17 38 27.5 63.5t15.5 45.5h-7q-60 0 -111 16t-97 51q12 15 19.5 27t13.5 24t11 24.5t10 27.5h40q13 -28 29 -46.5t34 -29t37.5 -15.5t39.5 -6zM275 71q43 14 72.5 43t37.5 65l-1 -1q2 7 3 13t1 10q0 14 -14.5 31t-49.5 35zM323 594q-37 -11 -64.5 -35t-35.5 -56
l1 1q-2 -7 -3 -13.5t-1 -9.5q0 -43 58 -66z" />
    <glyph glyph-name="percent" unicode="%" horiz-adv-x="1052" 
d="M74 502q9 37 31.5 68.5t55 54.5t73.5 36t88 13q83 0 129 -38.5t46 -101.5q0 -20 -6 -41q-9 -37 -32 -68.5t-55.5 -54t-73.5 -35.5t-87 -13q-84 0 -129.5 38t-45.5 101q0 11 1.5 20.5t3.5 19.5zM561 166q9 37 32 68t55.5 54t73.5 36t87 13q84 0 129.5 -38.5t45.5 -100.5
q0 -18 -6 -42q-9 -37 -31.5 -68t-55 -54t-74 -36t-87.5 -13q-83 0 -129 38.5t-46 100.5q0 18 6 41v1zM797 698q20 -7 34 -7q6 0 28 5t56 14l-664 -750q-22 8 -32 8q-8 0 -30 -5.5t-56 -14.5zM198 493q-6 -23 -6 -45q0 -28 13 -47t44 -19q22 0 41 10t34 26.5t26 38.5t17 45
l-1 -1q3 13 5 24.5t2 21.5q0 29 -13 47.5t-44 18.5q-23 0 -42 -10t-34 -26.5t-25.5 -38.5t-16.5 -45zM686 157q-3 -13 -5 -24.5t-2 -20.5q0 -29 13 -48t44 -19q23 0 42 10t34 27t25.5 38.5t16.5 45.5q6 22 6 44q0 29 -13 47.5t-44 18.5q-23 0 -42 -10t-34 -26.5t-25.5 -38
t-16.5 -45.5z" />
    <glyph glyph-name="ampersand" unicode="&#x26;" horiz-adv-x="791" 
d="M208 517q8 33 30 61.5t53 49.5t70 33.5t82 12.5q40 0 71 -8.5t51.5 -25t28 -41t-0.5 -55.5q-7 -27 -27 -51.5t-47 -46t-58 -39.5t-61 -31q1 -2 2.5 -3.5t2.5 -3.5l-1 1q62 -91 126 -167q48 43 94.5 91t97.5 109q10 -28 25.5 -45.5t34.5 -28.5q-52 -48 -102 -93t-105 -88
q15 -17 32 -37.5t34.5 -41t34 -40t29.5 -34.5q-32 0 -44 0.5t-17 1.5h1q-29 3 -55 3q-12 0 -27 -1t-29 -3q-3 0 -11.5 -0.5t-10.5 -0.5q-8 12 -20.5 33t-28.5 41q-61 -39 -126 -62.5t-149 -23.5q-44 0 -82 9t-66 27t-44 45t-16 62q0 17 6 40q7 31 30 61.5t56.5 58t76 50.5
t90.5 40q-20 36 -29.5 71t-1.5 70zM122 174q-5 -21 1 -40.5t22 -35t41 -24.5t58 -9q51 0 93 14t84 40q-40 51 -76 100t-70 100q-63 -29 -101.5 -61.5t-51.5 -83.5zM495 554q6 24 -9 39.5t-47 15.5q-39 0 -68.5 -22t-37.5 -53q-5 -20 3.5 -50.5t25.5 -56.5q59 28 92 62t41 65
z" />
    <glyph glyph-name="quotesingle" unicode="'" horiz-adv-x="156" 
d="M64 698h99l-77 -310h-99z" />
    <glyph glyph-name="parenleft" unicode="(" horiz-adv-x="261" 
d="M360 661q-60 -49 -101 -95t-69 -92.5t-46 -94t-31 -99.5q-11 -44 -17.5 -82.5t-6.5 -76.5q0 -52 18 -105t62 -113l-57 -38q-63 68 -93.5 145t-30.5 158q0 29 3.5 59.5t11.5 61.5q13 53 40 108t66 108.5t90 103.5t112 94z" />
    <glyph glyph-name="parenright" unicode=")" horiz-adv-x="261" 
d="M-99 -93q56 46 96.5 93.5t69.5 95.5t48 96t32 97q11 42 17 81.5t6 76.5q0 53 -18 106t-62 114l57 38q64 -69 94.5 -147t30.5 -159q0 -29 -3.5 -58t-11.5 -61q-14 -53 -40.5 -108t-65.5 -108.5t-90 -103.5t-112 -93z" />
    <glyph glyph-name="asterisk" unicode="*" horiz-adv-x="449" 
d="M217 690q17 -5 27.5 -7t21.5 -2q10 0 25 2.5t40 9.5l-50 -135q40 20 82.5 42.5t76.5 38.5q-5 -26 7 -50t36 -38l-173 -56q37 -16 73 -30.5t66 -27.5q-23 -13 -46 -34t-32 -45l-122 79q-4 -32 -8.5 -67t-6.5 -63q-1 0 -12 0.5t-12 0.5q-8 2 -13.5 2.5t-13.5 0.5
q-9 0 -26.5 -3t-37.5 -6l47 130q-38 -19 -78.5 -40t-72.5 -37q2 26 -11 48.5t-34 36.5l169 58q-36 14 -74.5 29t-67.5 26q10 6 22.5 15.5t24 20.5t20 23.5t11.5 25.5l124 -86z" />
    <glyph glyph-name="plus" unicode="+" horiz-adv-x="638" 
d="M12 302h267q13 51 27 107.5t27 106.5h100l-53 -214h267l-22 -87h-268q-13 -51 -27 -108t-27 -107h-99l53 215h-266z" />
    <glyph glyph-name="comma" unicode="," 
d="M116 100q9 15 27.5 30t49.5 15q11 0 22.5 -3t20 -10t12.5 -17.5t0 -25.5t-13 -26t-20 -22q-50 -51 -102.5 -104.5t-101.5 -103.5l-56 17z" />
    <glyph glyph-name="hyphen" unicode="-" horiz-adv-x="398" 
d="M44 286h332l-24 -97h-332z" />
    <glyph glyph-name="period" unicode="." horiz-adv-x="204" 
d="M15 65q6 29 35.5 49t63.5 20q38 0 59 -22.5t13 -54.5q-3 -14 -13 -26.5t-23.5 -21.5t-30 -14.5t-32.5 -5.5q-38 0 -58.5 22.5t-12.5 54.5z" />
    <glyph glyph-name="slash" unicode="/" horiz-adv-x="416" 
d="M418 706q24 -8 37 -8q8 0 28 4.5t49 11.5l-534 -739q-24 8 -38 8q-8 0 -27.5 -4.5t-48.5 -11.5z" />
    <glyph glyph-name="zero" unicode="0" horiz-adv-x="651" 
d="M31 334q17 69 47.5 131t76 108.5t108 73.5t143.5 27q67 0 112 -15t72.5 -42.5t39 -65.5t11.5 -83q0 -32 -5.5 -68.5t-15.5 -75.5q-17 -67 -49.5 -128.5t-80 -108t-109 -74.5t-136.5 -28q-67 0 -112 15t-72.5 42t-39 65t-11.5 83q0 33 5.5 69.5t15.5 74.5zM164 324
q-9 -39 -15 -74t-6 -66q0 -60 25 -95.5t84 -35.5q45 0 82 22t66 60t51 89t37 110q8 35 14 72.5t6 66.5q0 60 -25 96t-84 36q-47 0 -83.5 -20t-65 -56.5t-49.5 -88.5t-37 -116z" />
    <glyph glyph-name="one" unicode="1" horiz-adv-x="336" 
d="M224 563q-35 -14 -73 -29.5t-68 -27.5q-5 15 -14.5 27t-20.5 18l2 32q36 11 77 24t82 27t81 28t74 26l27 -16q-19 -63 -39.5 -131t-36.5 -130q-9 -38 -19.5 -79.5t-18.5 -78.5q-16 -62 -30 -131t-25 -130q-46 8 -68 8q-11 0 -33.5 -2.5t-51.5 -6.5q10 30 21 65t21.5 70.5
t20 70.5t17.5 65z" />
    <glyph glyph-name="two" unicode="2" horiz-adv-x="588" 
d="M120 564q59 57 123 83.5t142 26.5q44 0 82 -8.5t66 -26t44 -45t16 -64.5q0 -21 -6 -48q-9 -35 -26 -64.5t-43 -57t-62 -55.5t-82 -59q-11 -8 -23 -15.5t-25 -15.5q-53 -36 -94 -61t-78 -58h60q42 0 85 1t83 2t75 2.5t60 3.5q-12 -20 -21.5 -37t-11.5 -24q-2 -5 -1.5 -19
t2.5 -31q-31 1 -66 2t-70.5 2t-70.5 1.5t-66 0.5q-64 0 -139 -2t-139 -4l10 46q97 63 169 113t124.5 89.5t88 72t58.5 61t36 55t21 56.5q5 20 5 38q0 38 -24 57t-62 19q-34 0 -61.5 -11t-47.5 -26.5t-33.5 -33.5t-20.5 -32l-32 -2z" />
    <glyph glyph-name="three" unicode="3" horiz-adv-x="561" 
d="M125 606q18 12 39.5 24t47.5 21.5t56.5 16t65.5 6.5q45 0 84 -7.5t67.5 -23.5t45 -40.5t16.5 -58.5q0 -8 -1 -17t-3 -18q-16 -55 -57.5 -92.5t-89.5 -57.5q22 -6 42.5 -16t36.5 -24.5t25.5 -34.5t9.5 -47q0 -16 -6 -37q-12 -46 -44.5 -85.5t-81.5 -68t-111 -45
t-133 -16.5q-63 0 -112 14t-88 30q6 7 12 17t12 21t11 22t8 20l30 10q8 -10 20.5 -21.5t30 -21.5t39 -16.5t47.5 -6.5q40 0 75.5 10.5t63 30t46 45.5t26.5 58l-1 -1q3 13 5 23t2 17q0 42 -33 60t-87 18q-11 0 -36 -4t-49 -8q7 17 13.5 31.5t7.5 18.5q1 2 1 12.5v23.5
q19 -2 37 -4t34 -2q37 0 63.5 12.5t44.5 31.5t28.5 42.5t16.5 44.5q3 12 3 26q0 35 -25.5 50.5t-58.5 15.5q-21 0 -42 -6t-39.5 -16.5t-34 -24t-25.5 -28.5l-33 -2z" />
    <glyph glyph-name="four" unicode="4" horiz-adv-x="629" 
d="M-31 215q67 58 140.5 123.5t143 127t128.5 115t97 89.5q14 -3 25.5 -5t19.5 -2q9 0 26.5 3t39.5 8q-13 -41 -27.5 -91.5t-29 -104.5t-29 -109.5t-26.5 -105.5q29 2 63.5 5.5t65.5 7.5q-12 -20 -21 -37.5t-11 -22.5l1 1q-2 -8 -2 -22v-29q-28 5 -58.5 7.5t-58.5 2.5
q-5 -12 -8 -26q-5 -23 -11 -52.5t-10 -55.5q-2 -9 -5 -26t-5 -24q-40 8 -66 8q-11 0 -32.5 -2.5t-50.5 -6.5q1 1 3.5 8t5.5 14.5t5.5 14.5t3.5 9q9 28 20.5 61.5t18.5 61.5l-1 -1q1 5 1.5 8.5t1.5 8.5q-23 0 -55 -0.5t-68 -1.5t-73 -1.5t-70.5 -1.5t-60.5 -2t-42 -1z
M411 510q-33 -29 -71.5 -62.5t-76 -67t-71 -64.5t-56.5 -53h215z" />
    <glyph glyph-name="five" unicode="5" horiz-adv-x="564" 
d="M205 403q20 5 46 9t62 4q50 0 88.5 -12.5t65 -34.5t40 -51t13.5 -63q0 -17 -5 -40q-12 -48 -45 -89.5t-81.5 -73t-110 -49.5t-129.5 -18q-55 0 -106 10t-92 36l2 25q11 14 21 33.5t17 33.5h33q14 -35 53.5 -52.5t83.5 -17.5q32 0 64 10t60 30.5t49.5 50.5t32.5 70
q5 20 5 38q0 23 -9.5 39.5t-25 27t-36.5 15.5t-45 5q-23 0 -43.5 -4t-37.5 -9.5t-29.5 -11t-18.5 -8.5l-36 18q22 50 35 92.5t24 81.5q9 38 17.5 80.5t11.5 82.5l26 13q10 -1 27 -2.5t42 -3.5q51 -3 143 -3q55 0 103.5 0.5t70.5 1.5l22 -21q-24 -38 -28 -60q-1 -3 -1.5 -11
t-0.5 -23q-32 5 -76 8.5t-90 5.5t-88 2.5t-70 0.5z" />
    <glyph glyph-name="six" unicode="6" horiz-adv-x="600" 
d="M555 611l-26 -13q-24 7 -63 7q-54 0 -100 -23t-83 -58.5t-65 -78.5t-45 -84q32 21 75.5 37t98.5 16q30 0 67.5 -6.5t70 -24t54.5 -47t22 -75.5q0 -21 -7 -48q-13 -51 -43 -93t-73.5 -72t-99 -46.5t-118.5 -16.5q-47 0 -87.5 11t-70.5 35t-47.5 62t-17.5 92q0 44 13 96
q21 80 63 152t102 126t136 85t163 30q21 0 34.5 -1.5t28.5 -3.5zM409 202q3 13 4.5 26.5t1.5 25.5q0 40 -23.5 63.5t-73.5 23.5q-31 0 -61 -11.5t-55 -31.5t-44 -47t-28 -58q-2 -9 -3 -19.5t-1 -21.5q0 -45 27.5 -72t75.5 -27q68 0 115.5 41.5t64.5 107.5z" />
    <glyph glyph-name="seven" unicode="7" horiz-adv-x="572" 
d="M644 617q-71 -72 -146 -150t-150.5 -157.5t-149.5 -160t-141 -156.5q-14 3 -26 5t-23 2q-10 0 -37 -4.5t-65 -11.5q73 71 155.5 153t161 160.5t145.5 146t109 111.5q-65 -1 -169.5 -3.5t-232.5 -7.5q22 46 27 67q3 10 4.5 25.5t1.5 32.5q47 -3 96 -5.5t81 -3.5
q20 0 49 -0.5t60 -1t61 -0.5h53q20 0 35.5 0.5t30.5 0.5h80z" />
    <glyph glyph-name="eight" unicode="8" horiz-adv-x="617" 
d="M-10 193q14 55 58.5 102.5t125.5 76.5q-29 15 -48.5 41.5t-19.5 63.5q0 7 1 15.5t3 17.5v-1q8 33 32 62.5t60.5 52.5t84 36.5t101.5 13.5q64 0 108 -13.5t69 -36.5t32.5 -52.5t0.5 -60.5q-11 -40 -44.5 -76.5t-87.5 -59.5q18 -7 35.5 -18t31.5 -26.5t22.5 -36t8.5 -47.5
q0 -9 -0.5 -20t-4.5 -22q-14 -48 -47 -88t-77.5 -69.5t-98.5 -46t-110 -16.5q-54 0 -98.5 11t-76.5 32t-49.5 51.5t-17.5 69.5q0 20 6 44zM415 198q5 22 5 39q0 43 -28 69.5t-80 26.5q-33 0 -62.5 -11t-53 -30.5t-40.5 -46t-25 -57.5q-5 -22 -5 -41q0 -43 27.5 -68.5
t79.5 -25.5q68 0 116.5 41t65.5 104zM460 507q2 7 3 15.5t1 17.5q0 29 -19 47t-64 18q-59 0 -93.5 -31.5t-45.5 -74.5q-2 -7 -3 -14.5t-1 -17.5q0 -29 19 -47.5t63 -18.5q60 0 94.5 31.5t45.5 75.5v-1z" />
    <glyph glyph-name="nine" unicode="9" horiz-adv-x="610" 
d="M44 96q23 -20 49.5 -31.5t55.5 -11.5q51 0 95 20.5t79.5 54.5t62 78t43.5 91q-35 -23 -79.5 -37.5t-98.5 -14.5q-99 0 -153.5 40.5t-54.5 115.5q0 13 1.5 27t6.5 29q12 45 41.5 85t73 69t98.5 46t118 17q48 0 89.5 -11t72 -35t48.5 -62t18 -92q0 -21 -3 -45.5t-10 -51.5
q-23 -77 -67 -148t-104 -125t-134 -86.5t-156 -32.5q-33 0 -62.5 6t-46.5 12q-1 15 -5 36.5t-13 39.5zM475 481q4 16 4 35q0 41 -28 65t-79 24q-31 0 -60 -11t-53 -31.5t-41.5 -50t-26.5 -65.5q-4 -14 -5.5 -27t-1.5 -25q0 -41 25.5 -59t71.5 -18q37 0 69 14t57.5 36.5
t42.5 52t25 60.5z" />
    <glyph glyph-name="colon" unicode=":" horiz-adv-x="213" 
d="M63 412q8 28 36.5 48.5t62.5 20.5q19 0 34 -6t24.5 -16.5t13.5 -25t0 -30.5q-8 -28 -36.5 -48t-62.5 -20q-38 0 -59 22.5t-13 54.5zM-22 66q8 28 36 48t62 20q38 0 59 -22.5t13 -54.5q-8 -28 -36.5 -48t-62.5 -20q-38 0 -58.5 22.5t-12.5 54.5z" />
    <glyph glyph-name="semicolon" unicode=";" horiz-adv-x="234" 
d="M78 100q9 15 27.5 30t48.5 15q11 0 22.5 -3t20 -10t12.5 -17.5t0 -25.5t-13 -26t-20 -22q-49 -51 -102 -104.5t-102 -103.5l-55 17zM125 411q3 14 13 27t23.5 22.5t29.5 15t33 5.5q19 0 34 -6t25 -16.5t14 -25t0 -30.5q-3 -14 -13 -26.5t-24 -21.5t-30.5 -14.5
t-32.5 -5.5q-36 0 -57.5 22.5t-13.5 54.5z" />
    <glyph glyph-name="less" unicode="&#x3c;" horiz-adv-x="674" 
d="M10 298l696 237l-22 -91l-553 -188q118 -47 231 -92.5t228 -92.5l-21 -87l-576 239z" />
    <glyph glyph-name="equal" unicode="=" horiz-adv-x="685" 
d="M688 306h-636l22 88h636zM643 123h-636l22 87h635z" />
    <glyph glyph-name="greater" unicode="&#x3e;" horiz-adv-x="674" 
d="M-10 73l552 187q-118 48 -231 93t-228 93l21 87l577 -240l-18 -74l-696 -238z" />
    <glyph glyph-name="question" unicode="?" horiz-adv-x="348" 
d="M87 660q32 14 68 26t79 12q48 0 81.5 -12t54 -32.5t27 -47t-0.5 -56.5q-8 -29 -25.5 -54t-40.5 -47t-49 -41.5t-52 -36.5q-42 -28 -75 -54.5t-40 -55.5v1q-3 -11 3.5 -22t25.5 -11q12 0 24.5 4t18.5 6l42 -21q-13 -10 -26 -23.5t-16 -21.5q-29 -8 -58 -8q-18 0 -41.5 7
t-43.5 22t-31 39.5t-2 59.5q7 27 23 50t37 43t46 37.5t49 34.5q40 27 74.5 55t42.5 58q3 12 -1 22t-13 17t-22 11t-27 4q-29 0 -67.5 -18.5t-76.5 -48.5zM-6 66q7 28 35.5 48t62.5 20q38 0 59 -22.5t13 -54.5q-8 -28 -36.5 -48t-62.5 -20q-19 0 -34 6t-24.5 16.5t-13.5 24.5
t0 29z" />
    <glyph glyph-name="at" unicode="@" horiz-adv-x="841" 
d="M577 532h105q-50 -98 -78.5 -154t-43 -85.5t-18.5 -39.5t-5 -16q-4 -9 12 -9q21 0 48 13t53.5 36t48 53.5t31.5 65.5q3 16 5.5 31t2.5 31q0 29 -11.5 52.5t-37 40.5t-67.5 26t-103 9q-69 0 -132 -21.5t-114 -60t-87.5 -90t-51.5 -111.5l1 1q-4 -16 -6 -29t-2 -24
q0 -38 16.5 -66.5t46.5 -47.5t72 -28.5t93 -9.5q41 0 84 9t84.5 23t79.5 31t70 34l-26 -81q-19 -12 -51.5 -27.5t-75 -29t-94 -23t-108.5 -9.5q-54 0 -107 14.5t-94.5 44.5t-67.5 76t-26 108q0 34 10 73q14 59 57.5 115t109 100t150 71t181.5 27q86 0 144 -15.5t93.5 -42
t50.5 -61t15 -72.5q0 -14 -1.5 -28.5t-6.5 -29.5q-15 -53 -48.5 -97.5t-76.5 -76.5t-90 -50t-87 -18q-42 0 -60 12t-22 33q-26 -19 -58.5 -32t-68.5 -13q-121 0 -121 102q0 21 7 48q12 50 40.5 91.5t67 71.5t83.5 47t92 17q27 0 49 -6.5t35 -21.5zM512 425q2 7 3 13.5t1 9.5
q0 12 -8.5 18.5t-31.5 6.5q-30 0 -57 -17t-49.5 -42.5t-38 -55.5t-22.5 -57q-5 -20 -5 -36q0 -14 8.5 -21.5t29.5 -7.5q31 0 59 21t51 51t39 62.5t22 55.5z" />
    <glyph glyph-name="A" unicode="A" horiz-adv-x="820" 
d="M519 698q8 -26 17.5 -62t17.5 -67q21 -77 44 -159.5t45.5 -160t43 -145t37.5 -113.5q-29 4 -52.5 6.5t-37.5 2.5t-34.5 -2t-46.5 -6q-6 59 -19 113.5t-27 106.5q-3 11 -5.5 19t-4.5 19q-35 1 -70 1h-70q-37 0 -68 -0.5t-67 -1.5q-56 -73 -103.5 -141t-76.5 -116
q-35 8 -50 8q-9 0 -32.5 -4t-57.5 -9q67 83 140 173t147 181.5t146 182t138 174.5h46zM427 512q-19 -24 -36 -45.5t-34 -43.5t-34.5 -44.5t-37.5 -48.5q6 0 12.5 -0.5t12.5 -0.5q12 0 31.5 -0.5t31.5 -0.5h29h25t24.5 0.5t28.5 0.5z" />
    <glyph glyph-name="B" unicode="B" horiz-adv-x="632" 
d="M67 428q13 50 22.5 99t19.5 99l11 61q31 -2 70 -4t70 -2q15 0 30.5 0.5t31.5 1.5q17 1 33 2t32 1q49 0 93 -5.5t76 -20t51 -38.5t19 -60q0 -8 -1 -16.5t-4 -19.5q-14 -57 -56.5 -95.5t-105.5 -61.5q60 -14 88 -43.5t28 -81.5q0 -22 -7 -44q-15 -55 -54 -94t-90.5 -63.5
t-109.5 -36t-111 -11.5q-14 0 -29 0.5t-29 1.5l-28 2t-28 1t-32.5 -0.5t-38 -1.5t-38 -2.5t-33.5 -2.5q10 31 20.5 66t21 70.5t20 70.5t17.5 65zM155 240q-6 -27 -11.5 -54t-10.5 -54l-13 -61q20 -2 43.5 -2.5t48.5 -0.5q34 0 68 10.5t63 29t50.5 45.5t30.5 60q2 7 3 13.5
t1 14.5q0 24 -15 40t-43 25.5t-67.5 13t-87.5 3.5h-38zM234 395q38 0 76.5 6.5t72 21.5t58.5 38t35 56q3 12 3 26q0 22 -13.5 36t-34.5 21.5t-47.5 10t-53.5 2.5q-24 0 -42 -0.5t-34 -2.5q-4 -12 -7 -23.5t-6 -22.5q-10 -31 -18.5 -61t-15.5 -60l-13 -48h40z" />
    <glyph glyph-name="C" unicode="C" horiz-adv-x="803" 
d="M670 43q-14 -8 -41.5 -18.5t-64 -19.5t-79.5 -15.5t-89 -6.5q-85 0 -154.5 18t-118.5 53.5t-75.5 86.5t-26.5 117q0 20 2.5 42t8.5 45q22 82 72.5 147.5t122.5 111.5t161.5 70t189.5 24q79 0 151 -16t127 -39q-23 -26 -37 -49.5t-22 -39.5q0 -1 -4 -5.5t-5 -5.5l-25 -2
q-9 11 -26 25.5t-41.5 27.5t-56 22t-70.5 9q-66 0 -127.5 -17t-112.5 -52.5t-88.5 -90t-56.5 -129.5q-12 -47 -12 -89q0 -50 18 -86t50 -59t77.5 -34.5t99.5 -11.5q40 0 78 9t72.5 21.5t63 27t48.5 25.5l24 -24z" />
    <glyph glyph-name="D" unicode="D" horiz-adv-x="863" 
d="M73 427q14 60 27.5 129.5t26.5 130.5q43 -2 95 -4t97 -2q23 0 44.5 0.5t44.5 1.5l46 2t45 1q90 0 155.5 -16t107.5 -46.5t62 -74.5t20 -100q0 -45 -15 -100q-17 -66 -49.5 -117.5t-75.5 -91t-94 -67t-105 -45t-107.5 -25.5t-101.5 -8q-20 0 -39.5 0.5t-39.5 1.5
q-19 1 -38.5 2t-39.5 1t-44 -0.5t-49 -1.5t-49 -2.5t-44 -2.5q10 31 20.5 65.5t21 70t20 70.5t17.5 65zM164 254q-6 -25 -11 -47t-9.5 -43t-8.5 -43t-8 -46q26 -3 59.5 -5t70.5 -2q62 0 126.5 13t122 46t103 89t68.5 143q6 24 8.5 45.5t2.5 41.5q0 48 -19.5 79t-54 49.5
t-82.5 26t-105 7.5q-46 0 -90.5 -2.5t-79.5 -5.5q-14 -44 -27 -89.5t-25 -93.5z" />
    <glyph glyph-name="E" unicode="E" horiz-adv-x="506" 
d="M66 428q13 50 22.5 99t19.5 99l12 61q53 -2 112 -4t113 -2q27 0 58.5 0.5t64.5 1.5t64.5 2t58.5 2q-14 -23 -19 -33l-6.5 -13t-0.5 -3t0 -3q-2 -7 -2.5 -16.5t1.5 -28.5q-8 0 -19.5 1t-23 1.5t-22 1.5t-17.5 1q-25 2 -47.5 3.5t-49 3t-59 2t-77.5 0.5q-3 -9 -5 -17
t-5 -17q-6 -17 -11 -34.5t-10 -37.5q-8 -28 -14 -55t-11 -47q97 0 172.5 4t126.5 8q-8 -18 -15 -33t-8 -17q-3 -10 -3.5 -23t-0.5 -27q-34 3 -75 5.5t-81 3.5t-75.5 1.5t-59.5 0.5q-3 -12 -7 -28.5t-12 -50.5v1q-2 -10 -5 -21t-7 -24q-6 -26 -11 -44.5t-8.5 -32t-6 -23
t-3.5 -18.5q38 0 80.5 0.5t86 2t85.5 5t79 9.5q-8 -18 -15.5 -35.5t-8.5 -22.5q-2 -5 -1.5 -9t-0.5 -9q0 -4 -0.5 -13.5t-0.5 -11.5q-52 2 -113.5 4t-115.5 2q-27 0 -58 -0.5t-63 -1.5t-63 -2t-58 -2q10 31 20.5 66t21 70.5t19.5 70t17 64.5z" />
    <glyph glyph-name="F" unicode="F" horiz-adv-x="505" 
d="M66 427q15 60 28.5 129.5t25.5 130.5q53 -2 112 -4t113 -2t124 2t135 4q-11 -22 -16.5 -35t-7.5 -19l1 2q-3 -15 -3 -46q-32 3 -76.5 5.5t-92 4.5t-91 3.5t-72.5 1.5q-8 -29 -15 -56.5t-15 -53.5l1 1q-5 -23 -9.5 -42t-9.5 -39q-1 -5 -1 -6t-0.5 -2t-0.5 -2t-1 -6
q37 0 77.5 1.5t82 3t81 3.5t74.5 5q-9 -17 -16 -32t-8 -19q-3 -9 -3.5 -22t-0.5 -27q-35 3 -73.5 5t-78.5 3t-79.5 1.5t-76.5 0.5q-5 -17 -8.5 -33.5t-7.5 -33.5q-15 -60 -29 -130.5t-26 -131.5q-23 4 -41 6t-30 2q-14 0 -36 -2.5t-50 -6.5q9 31 20 66t21.5 71t20 71
t17.5 65z" />
    <glyph glyph-name="G" unicode="G" horiz-adv-x="875" 
d="M818 533q-14 17 -35.5 33.5t-50 29.5t-64 21t-77.5 8q-71 0 -135.5 -17t-118 -52.5t-92.5 -90t-58 -129.5q-5 -20 -7.5 -40t-2.5 -39q0 -93 68.5 -144.5t200.5 -51.5q23 0 48 1.5t49 4.5t45.5 7.5t38.5 10.5l4 14t4 13q5 20 10.5 39.5t10.5 39.5q7 24 14 65.5t14 82.5
q20 -4 39.5 -6.5t32.5 -2.5t25 1t22 3l22 -27q-1 -1 -0.5 -1t-0.5 -2q-8 -24 -21 -69t-30 -116q-2 -5 -2.5 -10t-2.5 -10l1 1q-3 -14 -8 -34t-9 -34q-30 -8 -72 -16.5t-87 -16t-89.5 -12t-78.5 -4.5q-96 0 -170.5 17.5t-126 51.5t-78.5 85t-27 117q0 20 2.5 42.5t9.5 48.5
q21 84 71 149.5t123.5 111t168 69t202.5 23.5q61 0 110.5 -6.5t88 -16.5t68 -22t52.5 -23q-9 -10 -18.5 -22.5t-18.5 -25.5t-16 -26t-11 -23h-37z" />
    <glyph glyph-name="H" unicode="H" horiz-adv-x="833" 
d="M665 427q15 60 29 130.5t26 131.5q23 -4 40.5 -6t30.5 -2t35 2.5t52 6.5q-10 -31 -21 -66t-21.5 -70.5t-20.5 -70.5t-17 -66l-41 -163q-14 -60 -28 -130.5t-26 -131.5q-25 4 -43 6t-29 2q-14 0 -36.5 -2.5t-50.5 -6.5q9 31 20 66t22 71t20.5 71t17.5 65q5 19 7.5 30.5
t7.5 31.5q-56 1 -110.5 1h-111.5q-63 0 -116.5 -0.5t-116.5 -1.5q-4 -17 -8.5 -35t-9.5 -36q-15 -61 -29 -130.5t-26 -131.5q-24 4 -42 6t-30 2q-14 0 -36 -2.5t-50 -6.5q10 31 21 66t21.5 71t20 71t17.5 65l41 163q14 60 28 130.5t26 131.5q23 -4 41 -6t30 -2
q13 0 35.5 2.5t51.5 6.5q-9 -31 -20 -66t-21.5 -70.5t-20.5 -70.5t-17 -66l-3 -9q14 0 29.5 -0.5t29.5 -0.5q41 -1 81 -1.5t82 -0.5t83 0.5t83 1.5q20 0 34 0.5t34 0.5z" />
    <glyph glyph-name="I" unicode="I" horiz-adv-x="204" 
d="M56 427q15 60 28.5 130.5t26.5 131.5q23 -4 40.5 -6t29.5 -2q14 0 37 2.5t50 6.5q-9 -31 -20 -66t-22 -70.5t-21 -70.5t-17 -66l-41 -163q-14 -60 -28 -130.5t-26 -131.5q-23 4 -41 6t-30 2q-14 0 -36.5 -2.5t-49.5 -6.5q9 31 20 66t21.5 71t20 71t17.5 65z" />
    <glyph glyph-name="J" unicode="J" horiz-adv-x="309" 
d="M-102 -72q51 0 86.5 19t60 51.5t41 76t29.5 91.5q15 64 32 130.5t32 130.5q16 61 30 130.5t25 131.5q23 -4 41.5 -6t30.5 -2q13 0 34.5 2.5t49.5 6.5q-1 -4 -3.5 -12.5t-5 -18t-5 -17.5t-3.5 -12q-17 -54 -32.5 -106.5t-29.5 -106.5q-11 -45 -22 -92t-22 -93h1
q-9 -42 -18.5 -81t-17.5 -71q-11 -45 -41 -84.5t-73 -68.5t-97.5 -46t-115.5 -17z" />
    <glyph glyph-name="K" unicode="K" horiz-adv-x="710" 
d="M-40 20q20 61 38 122t32 122l41 163q15 60 29 130.5t26 131.5q23 -4 41 -6t30 -2q13 0 35 2.5t52 6.5q-10 -31 -21 -66t-21.5 -70.5t-20 -70.5t-16.5 -66v1q-1 -6 -2.5 -12t-3.5 -12q48 29 101.5 64.5t108.5 73.5t109.5 78t105.5 78q14 -3 27 -5t23 -2q27 0 63 6l11 -32
q-47 -28 -106 -65t-120 -76t-117.5 -77t-96.5 -68q37 -44 75 -89t76 -91q17 -20 39 -46t45 -53.5t45 -53.5t39 -46q-38 5 -67 7.5t-47 2.5q-34 0 -76 -6q-30 40 -67.5 88.5t-73.5 94.5t-67 84t-49 57l-16 -64q-15 -61 -29 -130.5t-26 -131.5q-24 4 -42.5 6t-29.5 2
q-12 0 -26 -1.5t-30 -3.5zM184 335q2 4 2 6z" />
    <glyph glyph-name="L" unicode="L" horiz-adv-x="503" 
d="M62 427q15 60 29 130.5t26 131.5q23 -4 41 -6t30 -2q14 0 36.5 2.5t50.5 6.5q-10 -31 -21 -66t-22 -70.5t-21 -70.5t-17 -66q-18 -73 -32.5 -134t-26.5 -112q-4 -15 -7 -26.5t-5 -22t-4.5 -21t-5.5 -23.5q40 0 76.5 0.5t76 2t85 4.5t102.5 9q-11 -20 -18 -33.5t-9 -17.5
q-3 -9 -3 -21.5t2 -27.5q-54 2 -118 4t-118 2q-27 0 -59 -0.5t-64.5 -1.5t-64 -2t-58.5 -2q9 31 19.5 65.5t21 70t20 70t17.5 64.5z" />
    <glyph glyph-name="M" unicode="M" horiz-adv-x="1055" 
d="M286 698q24 -67 47.5 -129.5t48.5 -124t51 -124t55 -128.5q29 32 76.5 83.5t102.5 111.5q35 38 72.5 78.5l75 81t73.5 79t66 72.5h46q-3 -29 -6.5 -61l-7 -64t-7 -63t-6.5 -58q-13 -112 -25.5 -232t-20.5 -228q-21 4 -39.5 6t-32.5 2q-12 0 -32 -2.5t-47 -6.5
q10 64 19 120.5t16.5 111.5t14 110t11.5 115l-4 -3q-100 -108 -200.5 -218.5t-193.5 -226.5h-33q-27 83 -61.5 172.5t-68.5 174.5q-7 18 -11.5 29.5t-8.5 22t-9 23t-13 30.5q-2 -5 -4.5 -11.5t-4.5 -11.5h1q-22 -56 -45.5 -116.5t-45 -119t-39.5 -110.5t-28 -92
q-19 4 -32 6.5t-20 2.5q-9 0 -28.5 -3t-46.5 -8q35 78 75.5 170.5t80.5 187t77 185.5t65 166h47z" />
    <glyph glyph-name="N" unicode="N" horiz-adv-x="827" 
d="M640 -17q-92 114 -201.5 235t-218.5 238l-9 10.5t-5 6t-5 5.5t-9 10q-8 -26 -18 -64.5t-24 -95.5q-8 -30 -19.5 -79t-22 -100t-19 -95t-10.5 -63q-17 4 -31.5 6.5t-25.5 2.5q-10 0 -29.5 -2.5t-46.5 -7.5q7 14 17.5 43.5t23.5 68t27 83t27.5 88.5t25.5 85t20 72
q5 20 9.5 40t9.5 37q14 61 26 113.5t17 77.5h44q56 -63 117.5 -131.5t121.5 -134.5t115 -125t98 -103q15 61 30.5 125.5t29.5 127.5t27 122.5t22 110.5q17 -4 31 -6.5t23 -2.5q8 0 26 3t44 8q-7 -17 -16.5 -44.5t-20.5 -60t-22 -68t-21 -68t-18 -60.5t-12 -46
q-6 -24 -14 -57t-17 -70l-18 -74t-16.5 -69.5t-13.5 -56.5t-8 -35h-41z" />
    <glyph glyph-name="O" unicode="O" horiz-adv-x="999" 
d="M38 345q21 84 71 149.5t122 111t161.5 69t190.5 23.5q89 0 161 -18t122.5 -53.5t78 -87t27.5 -117.5q0 -20 -3 -41.5t-8 -44.5q-21 -84 -71.5 -149.5t-122.5 -110.5t-162 -69t-191 -24q-89 0 -160.5 18t-122 53.5t-77.5 87t-27 117.5q0 20 2.5 41t8.5 45zM808 345
q6 23 9 45.5t3 42.5q0 50 -18 86t-50.5 59.5t-77.5 35t-99 11.5q-66 0 -127.5 -17t-112 -52.5t-88 -90t-56.5 -129.5q-12 -47 -12 -89q0 -50 18 -86t50 -59t77 -34.5t98 -11.5q67 0 128.5 17t112.5 52.5t88.5 90t56.5 129.5z" />
    <glyph glyph-name="P" unicode="P" horiz-adv-x="599" 
d="M67 427q15 60 28.5 129.5t25.5 130.5q28 -2 64 -4t65 -2q14 0 34.5 1t42.5 2q19 1 39.5 1.5t31.5 0.5q26 0 67.5 -2.5t80.5 -15.5t67 -41t28 -79q0 -21 -6 -46q-12 -43 -37 -75.5t-58 -56.5t-72 -39.5t-77.5 -24.5t-75 -13t-65.5 -4h-43t-38 2q-3 -9 -5.5 -18.5
t-4.5 -18.5q-15 -61 -29 -130.5t-26 -131.5q-23 4 -41 6t-30 2q-14 0 -36 -2.5t-50 -6.5q9 31 20 66t21.5 71t20 71t17.5 65zM186 366q15 -2 30.5 -3t29.5 -1q34 0 72 6t72.5 22t61 44t37.5 72q5 20 5 36q0 22 -11 35.5t-31 21.5t-48.5 11t-63.5 3h-91z" />
    <glyph glyph-name="Q" unicode="Q" horiz-adv-x="984" 
d="M48 345q21 84 71 149.5t122 111t161.5 69t190.5 23.5q89 0 161 -18t122.5 -53.5t78 -87t27.5 -117.5q0 -20 -3 -41.5t-8 -44.5q-17 -65 -50.5 -119t-81 -96t-107.5 -72t-129 -46q27 -20 58 -42t63.5 -44.5t63.5 -43.5t57 -39q-58 -2 -101.5 -17.5t-59.5 -30.5
q-54 48 -111 98.5t-119 98.5q-8 -1 -15.5 -0.5t-14.5 0.5q-89 0 -160.5 18t-122 53.5t-77.5 87t-27 117.5q0 20 2.5 41t8.5 45zM818 345q6 23 9 45.5t3 42.5q0 50 -18 86t-50.5 59.5t-77.5 35t-99 11.5q-66 0 -127.5 -17t-112 -52.5t-88 -90t-56.5 -129.5q-12 -47 -12 -88
q0 -50 18 -86t50.5 -59.5t77 -35t98.5 -11.5q66 0 127.5 17t112.5 52.5t88.5 90t56.5 129.5z" />
    <glyph glyph-name="R" unicode="R" horiz-adv-x="697" 
d="M67 427q15 60 28.5 129.5t25.5 130.5q32 -2 73.5 -4t74.5 -2q17 0 33.5 0.5t33.5 1.5t35 2t35 1q48 0 90.5 -7t74 -22.5t49.5 -41.5t18 -63q0 -16 -5 -39q-11 -45 -41 -78t-68.5 -56t-81 -37t-79.5 -20q7 -8 10 -15q24 -32 58.5 -78.5t70.5 -93t67 -86.5t47 -59
q-38 5 -67.5 7.5t-47.5 2.5q-14 0 -35 -2t-45 -5q-12 22 -38 62.5t-57.5 86.5t-66 91t-63.5 76h-24q-4 -13 -7 -27.5t-6 -27.5q-15 -60 -29 -130.5t-26 -131.5q-23 4 -41 6t-30 2q-14 0 -36 -2.5t-50 -6.5q9 31 20 66t21.5 71t20 71t17.5 65zM192 384q12 -2 25 -2h29
q34 0 73 6t74 21t61.5 40.5t36.5 63.5q2 5 2 11.5v12.5q0 22 -12.5 37t-32.5 23.5t-44.5 12t-48.5 3.5q-20 0 -34.5 -0.5t-26 -1t-20.5 -1t-19 -1.5q0 -1 -1 -1.5t-1 -1.5v1q-14 -48 -28 -95t-26 -95z" />
    <glyph glyph-name="S" unicode="S" horiz-adv-x="578" 
d="M45 159q6 -17 17 -34.5t29 -31.5t43.5 -23t59.5 -9q36 0 67 9.5t55.5 26t41 39t22.5 48.5q6 24 -2 41t-26 30t-43.5 23t-52.5 20q-32 11 -63.5 24t-56 31t-40 43.5t-15.5 63.5q0 21 7 45q11 42 39 77.5t69.5 61t95 40t114.5 14.5q60 0 105.5 -15t85.5 -45
q-22 -25 -36.5 -47.5t-31.5 -54.5h-41q-3 13 -9 28.5t-17 29t-29.5 22.5t-45.5 9q-30 0 -57.5 -7.5t-49.5 -21t-37 -33t-21 -42.5q-3 -11 -3 -22q0 -18 11.5 -32t30 -25t42 -20t47.5 -17q31 -11 62 -23.5t55.5 -30t39.5 -42t15 -58.5q0 -10 -1 -20t-5 -21
q-12 -45 -43.5 -86.5t-78.5 -72.5t-107.5 -49.5t-130.5 -18.5q-39 0 -70 6t-56 15.5t-45 22t-36 25.5q11 16 19 28.5t14 24.5t11 25t11 29h41z" />
    <glyph glyph-name="T" unicode="T" horiz-adv-x="665" 
d="M291 427q8 32 15 64.5t14 64.5q2 8 3 13t2.5 8.5t2.5 8.5t3 13q-30 0 -63.5 -1.5t-68.5 -3t-70 -4t-66 -5.5q11 18 20 34.5t11 22.5l-1 -1q2 7 1.5 18.5t-2.5 27.5q77 -2 162.5 -4t162.5 -2q38 0 83.5 0.5t92.5 1.5t93 2t84 2l-4 -4.5t-9.5 -9.5t-10.5 -11t-8 -9
q-3 -5 -5.5 -9.5t-2.5 -6.5q-3 -9 -3 -23t2 -28q-29 3 -62 5.5t-66.5 4t-66.5 2.5t-61 1q-14 -46 -26 -91t-23 -91l-41 -163q-15 -60 -29 -130.5t-26 -131.5q-23 4 -41 6t-30 2q-14 0 -36.5 -2.5t-50.5 -6.5q10 31 21 66t21.5 71t20.5 71t17 65z" />
    <glyph glyph-name="U" unicode="U" horiz-adv-x="812" 
d="M669 364q17 66 29.5 117t21 90t13.5 68t6 51q20 -4 37 -6.5t28 -2.5q9 0 26.5 3.5t40.5 8.5q-12 -33 -29 -84t-35 -109t-35.5 -118t-31.5 -112q-18 -65 -55.5 -118t-91.5 -90.5t-124 -58t-152 -20.5q-156 0 -229 49.5t-73 152.5q0 41 13 92q6 26 12.5 46t11.5 38
q6 17 11 33t9 33q10 39 18.5 77t15.5 72.5t12.5 63t9.5 49.5q23 -4 43.5 -6t32.5 -2q11 0 33 3t49 8q-11 -28 -24 -68t-27.5 -87t-28.5 -98t-27 -101q-8 -33 -15.5 -68t-7.5 -69q0 -28 8.5 -52.5t30.5 -43t59.5 -29.5t96.5 -11q61 0 106 14.5t78 38t55.5 54.5t37.5 64
t24.5 66.5t16.5 61.5z" />
    <glyph glyph-name="V" unicode="V" horiz-adv-x="822" 
d="M272 10q-12 58 -32.5 141.5t-44.5 176t-49.5 187t-47.5 176.5q29 -5 51.5 -7.5t34.5 -2.5t33 2t46 6q22 -136 54.5 -272t67.5 -268q48 60 104 135t110 150t101 142.5t77 112.5q34 -8 50 -8q9 0 34 4t59 10q-67 -81 -138 -170.5t-141 -180t-137.5 -180t-126.5 -171.5
q-13 3 -24 5t-22 2q-9 0 -18.5 -1t-17.5 -3z" />
    <glyph glyph-name="W" unicode="W" horiz-adv-x="1272" 
d="M220 12q-3 25 -9.5 77t-15.5 117.5t-19 138t-19.5 139t-18.5 121.5t-15 85q26 -4 46.5 -6.5t35.5 -2.5q14 0 34 2t45 6q5 -74 10.5 -136.5t12.5 -124.5t16 -127t21 -143q13 20 26 40.5t32 47.5q37 55 81 122t85.5 129.5t74.5 114t47 77.5q29 -8 46 -8q8 0 23 2.5t35 6.5
q2 -26 8 -68.5t13.5 -94t16 -106.5t16.5 -106t15 -93t12 -66q20 31 49.5 77t62.5 98.5t67.5 107t64.5 103.5t53 88t34 59q17 -4 29 -6t21 -2q8 0 32 4t57 10q-13 -17 -38 -51.5t-57 -81.5t-70 -102t-77 -111.5t-76.5 -112.5t-69.5 -103.5t-56.5 -84t-37.5 -55.5
q-13 3 -25.5 5t-23.5 2q-8 0 -23 -2.5t-34 -6.5q-9 66 -18 129t-18.5 125.5t-20 127t-23.5 134.5q-29 -43 -72 -106.5t-91 -135l-96 -143t-87 -130.5q-35 8 -48 8q-9 0 -19 -1.5t-21 -3.5z" />
    <glyph glyph-name="X" unicode="X" horiz-adv-x="734" 
d="M294 688q25 -69 51 -128t58 -122q33 29 63.5 58t60.5 59.5t61.5 63t65.5 69.5q14 -3 26.5 -5t21.5 -2t39 5t73 13l-118 -103q-66 -57 -130 -112.5t-127 -115.5q22 -44 46.5 -92.5t50 -97.5t51 -96.5t48.5 -90.5q-33 4 -57.5 6.5t-40.5 2.5q-15 0 -35 -2t-45 -5
q-2 7 -8 20.5t-9 19.5q-23 62 -47.5 121.5t-56.5 116.5q-74 -69 -143.5 -139t-132.5 -139q-14 3 -26.5 5t-20.5 2q-10 0 -39 -4.5t-70 -12.5q45 40 96 86t102.5 93.5t101.5 93.5t94 87q-3 5 -5.5 10.5t-5.5 10.5q-18 37 -39.5 79t-43.5 85t-44 85t-42 78q32 -5 57.5 -7.5
t38.5 -2.5q15 0 35.5 2t44.5 5z" />
    <glyph glyph-name="Y" unicode="Y" horiz-adv-x="737" 
d="M204 -9q29 72 49 144.5t38 144.5q-9 19 -24.5 51t-34.5 71t-40 81.5t-41 81.5t-37.5 72t-29.5 54q34 -5 60 -7.5t39 -2.5q14 0 35 2t45 5q30 -82 63.5 -159t71.5 -158q35 34 73 73.5t76 80.5t75 82.5t69 80.5q16 -3 28.5 -5t22.5 -2t38.5 4.5t70.5 11.5
q-86 -80 -153 -144t-119 -114.5t-89.5 -88.5t-62.5 -66q-8 -33 -17 -72.5t-17 -79t-15.5 -76t-11.5 -64.5q-23 4 -41 6t-31 2q-12 0 -35.5 -2.5t-54.5 -6.5z" />
    <glyph glyph-name="Z" unicode="Z" horiz-adv-x="750" 
d="M-56 40q59 51 124 107.5t128.5 113t123.5 110t110.5 99t88 80.5t57.5 54h-38q-43 0 -98 -1.5t-113 -4t-112.5 -5.5t-95.5 -7q13 22 21 36.5t10 20.5l-1 -2q2 8 2 20.5v25.5q28 -2 76.5 -3t114.5 -2t146.5 -1h172.5q25 0 49.5 1t49.5 3h-1q7 1 21.5 1h31.5l-10 -47
q-26 -19 -74.5 -59t-108 -91.5t-125.5 -110t-128 -114t-115 -104.5t-87 -81q15 -1 27.5 -1h26.5q45 0 107.5 1.5t127.5 4.5t125 6.5t99 7.5q-12 -20 -21.5 -36.5t-11.5 -21.5l1 1q-2 -8 -1.5 -19.5t2.5 -27.5q-85 2 -157 4t-140 2q-46 0 -108.5 -0.5t-123.5 -1.5t-111.5 -2
t-73.5 -2z" />
    <glyph glyph-name="bracketleft" unicode="[" horiz-adv-x="248" 
d="M66 409q16 66 32 139.5t29 137.5q21 -2 39.5 -3.5t34.5 -1.5q28 0 65 1t62 2h39q-19 -32 -19 -34q-1 -3 -1 -6v-5t-0.5 -8.5t-0.5 -8v-4.5q-25 1 -55 2t-57 1q-18 -55 -33.5 -110.5t-29.5 -111.5q-15 -59 -30 -119t-30 -119q-26 -102 -44 -212q28 0 62.5 1t56.5 2
q-11 -19 -16 -27t-5 -9q-1 -3 -1 -5t-0.5 -13.5t-0.5 -12.5q-11 0 -30.5 0.5t-41 1t-42.5 1t-36 0.5t-37 -1.5t-49 -3.5q10 32 20.5 68.5t21 74t20 74.5t17.5 70z" />
    <glyph glyph-name="backslash" unicode="\" horiz-adv-x="416" 
d="M74 711q20 -5 34 -9t20 -4q9 0 20.5 2.5t27.5 6.5l165 -737q-20 5 -34 9t-21 4q-8 0 -19 -2.5t-27 -6.5z" />
    <glyph glyph-name="bracketright" unicode="]" horiz-adv-x="249" 
d="M136 409q26 102 44 212q-28 0 -62.5 -1t-56.5 -2q11 16 15 25.5t6 11.5v-2q0 2 0.5 2.5t0.5 2.5t1 6.5t6 19.5q11 0 29.5 -0.5t39 -1t40.5 -1t35 -0.5q34 0 87 6q-10 -32 -20.5 -69t-21 -74.5t-20.5 -74.5t-18 -70l-60 -238q-16 -66 -32 -139.5t-29 -137.5q-20 2 -39 3
t-35 1q-28 0 -64 -1t-61 -1h-40q8 14 13.5 23t5.5 12v-2q0 2 0.5 2.5t0.5 2.5t1 7.5t6 20.5q24 -1 51.5 -2t53.5 -1q18 55 33.5 110t29.5 111z" />
    <glyph glyph-name="asciicircum" unicode="^" horiz-adv-x="685" 
d="M354 658h83l184 -466h-103l-144 367q-81 -91 -164 -183.5t-164 -183.5h-111z" />
    <glyph glyph-name="underscore" unicode="_" horiz-adv-x="712" 
d="M30 -123l21 85h629l-21 -85h-629z" />
    <glyph glyph-name="grave" unicode="`" horiz-adv-x="298" 
d="M53 621q-17 9 -31.5 23.5t-8.5 41.5q3 10 10.5 18t17.5 14t19.5 9t17.5 3q17 0 33.5 -7.5t27.5 -20.5h-1q18 -17 40.5 -40t45.5 -46.5t45.5 -46.5t39.5 -40h-99z" />
    <glyph glyph-name="a" unicode="a" horiz-adv-x="582" 
d="M122 434q68 35 119 48t101 13q84 0 132 -34.5t48 -94.5q0 -8 -1 -17t-4 -18q-6 -24 -13 -50t-14 -51q-8 -28 -16.5 -59.5t-16.5 -60.5q-2 -8 -3.5 -16.5t-1.5 -16.5q0 -13 16 -13q4 0 12 2t37 13l-11 -65q-20 -5 -46.5 -11.5t-50.5 -6.5q-34 0 -54.5 13t-27.5 32
q-23 -15 -44.5 -25t-44 -17t-46.5 -10t-53 -3q-34 0 -64 10t-51 28t-29.5 44t-0.5 58q15 63 71.5 98t141.5 46q62 7 97 12.5t52.5 10.5t22.5 12t8 17v-1q1 7 2 14.5t1 16.5q0 29 -19.5 47t-67.5 18q-43 0 -85 -16.5t-71 -47.5h-45zM362 228q-11 -2 -21 -3.5t-21 -3.5
q-30 -4 -61 -9.5t-57.5 -15t-46 -25.5t-25.5 -41q-8 -33 12 -50t50 -17q39 0 76.5 17t62.5 40z" />
    <glyph glyph-name="b" unicode="b" horiz-adv-x="621" 
d="M583 249q-15 -57 -48.5 -105.5t-80 -83.5t-103 -54.5t-117.5 -19.5q-54 0 -95.5 18.5t-64.5 44.5q-20 -11 -40.5 -24t-39.5 -25h-54q11 31 22.5 69t22.5 77t21 76.5t18 68.5l42 172q8 32 17 70t17.5 77t15.5 75.5t11 66.5q43 -8 68 -8q13 0 35 2.5t53 6.5
q-11 -28 -23.5 -66.5t-25 -82t-25.5 -88.5t-24 -87q88 66 194 66q56 0 96 -14t66 -39t38 -58t12 -71q0 -34 -7 -63zM443 261q6 25 6 51q0 52 -29.5 78.5t-73.5 26.5q-34 0 -67 -10.5t-62 -33.5t-52 -60.5t-36 -92.5q-9 -35 -9 -66q0 -100 116 -100q33 0 65.5 15t60 42
t48.5 65t33 85z" />
    <glyph glyph-name="c" unicode="c" horiz-adv-x="583" 
d="M26 245q16 65 55 112t91 78t112.5 45.5t120.5 14.5q69 0 124 -18t81 -41q-14 -17 -28 -37.5t-28 -45.5h-34q-5 12 -15 25t-25.5 24t-35.5 18t-44 7q-49 0 -87.5 -15t-67.5 -41t-49 -60.5t-30 -74.5q-3 -15 -5 -30t-2 -30q0 -113 145 -113q22 0 47.5 6t51.5 15.5t51 23
t46 28.5l26 -23q-7 -14 -12 -26.5t-10 -24.5q-1 -1 -3 -6.5t-3 -7.5q-22 -12 -49.5 -23.5t-57 -20t-60 -13.5t-59.5 -5q-48 0 -94 11t-81.5 34.5t-57 60.5t-21.5 89q0 14 1.5 29.5t6.5 34.5z" />
    <glyph glyph-name="d" unicode="d" horiz-adv-x="620" 
d="M367 48q-33 -26 -79 -44t-112 -18q-42 0 -80.5 10.5t-67 33t-45.5 57t-17 82.5q0 17 2 35t8 38q18 59 54.5 106t82.5 79.5t96.5 50t97.5 17.5q108 0 155 -63q11 42 22 87.5t20.5 88.5t17.5 80.5t13 64.5q5 -1 17.5 -3t17.5 -3q16 -3 32 -3q15 0 33 3q3 0 10.5 1.5t16 2.5
t15 2.5t8.5 1.5q-14 -38 -33 -101t-39.5 -135.5t-40 -147.5t-34.5 -135q-11 -50 -21.5 -94.5t-20.5 -86.5q-3 -11 -7 -31t-7 -32q-5 1 -17 2.5t-17 2.5h1q-8 1 -20.5 2t-10.5 1q-10 0 -25 -3h1q-2 0 -8.5 -1t-13.5 -2.5t-13.5 -2.5t-7.5 -1zM114 227q-9 -38 -9 -68
q0 -29 9 -48.5t24 -31t34 -16t39 -4.5q42 0 76.5 17t61.5 45t45.5 62.5t27.5 70.5q8 34 8 62q0 49 -29 75t-87 26q-39 0 -71.5 -14.5t-57.5 -40t-43 -60.5t-28 -75z" />
    <glyph glyph-name="e" unicode="e" horiz-adv-x="619" 
d="M30 232q15 61 46 109.5t76 82.5t103 52.5t127 18.5q57 0 98.5 -12.5t68.5 -35t40 -53t13 -65.5q0 -12 -1 -25t-5 -27l-15 -50q-22 0 -50.5 0.5t-50.5 0.5q-42 1 -83 1.5t-83 0.5q-26 0 -51.5 -0.5t-51.5 -1.5q-13 0 -19.5 -0.5t-19.5 -0.5q-2 -4 -2.5 -7t-1.5 -5
q-2 -10 -3 -20t-1 -20q0 -49 37 -80.5t111 -31.5q22 0 47.5 6t51.5 15.5t51 23t46 28.5l24 -22l-24 -66q-23 -12 -50 -23.5t-57 -20t-61 -13.5t-60 -5q-60 0 -107.5 14.5t-80.5 40t-50.5 61t-17.5 78.5q0 12 1 25t5 27zM376 427q-37 0 -66 -11.5t-51 -29.5t-37.5 -40.5
t-24.5 -45.5h18q27 -1 54.5 -1.5t53.5 -0.5q27 0 54 0.5t54 1.5q12 0 17 0.5t17 0.5q2 10 3.5 20t1.5 21q0 16 -4.5 31.5t-15 27.5t-28.5 19t-46 7z" />
    <glyph glyph-name="f" unicode="f" horiz-adv-x="372" 
d="M411 630q-31 17 -61 17q-45 0 -70 -24.5t-33 -55.5q-3 -12 -6 -36t-6 -51q11 0 21 0.5t21 0.5h89q-6 -13 -10.5 -24t-4.5 -13q-2 -8 -3 -18t-1 -21q-10 0 -29.5 0.5t-29.5 0.5q-20 1 -33.5 1.5t-34.5 0.5q-25 -102 -50 -208.5t-46 -208.5q-20 4 -37 6.5t-28 2.5
q-12 0 -32.5 -2.5t-46.5 -6.5q32 105 60.5 209t54.5 208q-11 0 -16.5 -0.5l-16.5 -1.5h-11.5t-18 -0.5t-18 -0.5h-11.5q2 6 5.5 11.5t5.5 10.5l5 10l2 9q1 5 2.5 17.5t2.5 17.5q11 0 30 -0.5t30 -0.5h28q9 28 25 60t37.5 62.5t47.5 57.5t54 46q27 18 65.5 32t75.5 14
q16 0 45 -9q-1 -5 -3 -12t-4 -15t-4.5 -15.5t-3.5 -11.5q-3 -8 -6 -19.5t-7 -29.5z" />
    <glyph glyph-name="g" unicode="g" horiz-adv-x="619" 
d="M99 326q11 43 38 75t65 53t84 31t95 10q16 0 30.5 -0.5t31.5 -1.5q8 -1 16.5 -1t17.5 -1q5 0 10 -0.5t10 -0.5q40 -3 62 -3q34 0 67.5 3t60.5 8q-8 -17 -13.5 -30.5t-5.5 -14.5q-2 -5 -3.5 -16.5t-3.5 -24.5q-8 1 -25.5 2t-25.5 2q-11 1 -14.5 1.5t-6.5 1t-7.5 0.5h-17.5
q23 -30 23 -72q0 -7 -1.5 -15.5t-3.5 -16.5q-10 -39 -34 -69.5t-60 -52t-82 -33t-99 -11.5q-8 0 -16.5 0.5t-16.5 0.5q-8 1 -15.5 1h-15.5q-17 0 -32 -8t-19 -21v1q-3 -13 5.5 -19t34.5 -7q20 -1 39 -1h39q10 0 25.5 -0.5t25.5 -0.5q59 -2 99 -13.5t62.5 -31t29 -45.5
t-0.5 -55q-10 -35 -37 -71.5t-70 -66.5t-103 -49t-136 -19q-125 0 -187 42.5t-44 117.5q11 44 46.5 75.5t78.5 48.5q-34 28 -23 78q7 24 28.5 44.5t45.5 33.5q-26 18 -41.5 44.5t-15.5 59.5q0 16 6 37v1zM417 -81q2 5 2.5 12t0.5 12q0 30 -33 43.5t-104 13.5
q-81 0 -131.5 -21.5t-63.5 -74.5q-3 -11 -3 -25q0 -19 9.5 -32t27 -21.5t41 -12.5t51.5 -4q33 0 66.5 6.5t61.5 20t48 34t27 49.5zM457 331q3 16 3 31q0 32 -22.5 49.5t-62.5 17.5q-57 0 -95.5 -30.5t-51.5 -81.5q-5 -20 -5 -37q0 -32 21.5 -50t66.5 -18q30 0 54 10t43 26.5
t31 38t18 44.5z" />
    <glyph glyph-name="h" unicode="h" horiz-adv-x="560" 
d="M65 463q8 32 16.5 70t17 77t15.5 75.5t11 66.5q21 -4 38.5 -6t30.5 -2q12 0 33.5 2.5t50.5 7.5q-13 -35 -25.5 -74.5t-24 -79t-21.5 -76t-17 -66.5l1 1q-2 -9 -2 -9.5t0 0.5t0 0.5t-2 -9.5q39 27 82.5 40.5t97.5 13.5q32 0 63 -6t56 -21.5t40 -41.5t15 -66
q0 -11 -1.5 -25t-6.5 -29q-5 -17 -10 -35.5t-11 -36.5q-7 -25 -14 -50.5t-14 -52.5q-8 -31 -16.5 -70t-13.5 -69q-21 4 -37 6t-27 2q-10 0 -29.5 -2.5t-45.5 -6.5q2 9 6 22.5t8.5 28.5t8.5 29t7 23q22 68 39 136l14 58q3 11 4 22t1 22q0 37 -21 56.5t-59 19.5
q-76 0 -120 -37t-61 -104q-6 -26 -14 -61t-16 -72.5t-15 -74.5t-11 -67q-21 4 -38 6t-30 2q-11 0 -33 -2.5t-51 -6.5q13 34 25.5 73.5t23.5 79t21 77.5t18 70z" />
    <glyph glyph-name="i" unicode="i" horiz-adv-x="196" 
d="M21 294q11 42 20 93t16 102q46 -8 68 -8q25 0 82 9q-20 -55 -36.5 -109t-26.5 -96q-6 -23 -12.5 -49l-12.5 -50q-11 -42 -20.5 -92.5t-16.5 -101.5q-43 8 -68 8q-13 0 -34.5 -2.5t-47.5 -6.5q20 57 37.5 111t26.5 94zM89 636q7 26 32.5 44t57.5 18q34 0 54 -21t13 -51
q-6 -26 -33 -44t-58 -18q-35 0 -54 21t-12 51z" />
    <glyph glyph-name="j" unicode="j" horiz-adv-x="270" 
d="M122 256q14 55 26.5 116.5t17.5 115.5q22 -4 39.5 -5.5t29.5 -1.5q14 0 36.5 2t48.5 7q-23 -60 -38.5 -112.5t-26.5 -92.5q-5 -23 -12 -49t-12 -50q-7 -25 -12 -48.5t-11 -48.5h1q-7 -30 -13.5 -60t-14.5 -60q-11 -41 -26 -77.5t-52 -71.5q-37 -32 -93.5 -53.5
t-126.5 -23.5l1 75q13 -2 23.5 -4t12.5 -2q28 0 50 15t37.5 38.5t26.5 52.5t18 57zM200 636q7 26 32.5 44t56.5 18q17 0 31 -5.5t23.5 -15.5t13 -23t-0.5 -28q-6 -26 -33 -44t-57 -18q-35 0 -54 21t-12 51z" />
    <glyph glyph-name="k" unicode="k" horiz-adv-x="565" 
d="M66 463q8 31 16.5 69t17 77t15 76t11.5 67q21 -4 38 -6t30 -2q14 0 36 2.5t48 7.5q-12 -35 -24.5 -75t-24.5 -80t-22 -78t-18 -68l-41 -164q9 4 26 14q3 3 8 3q12 7 42.5 26.5t68.5 45t79 54.5t75 55q28 -6 48 -6q17 0 49 3q2 0 10 0.5t10 0.5l9 -30q-86 -48 -161 -92
t-149 -92q26 -32 56 -68t61.5 -73t62.5 -72.5t58 -66.5q-39 4 -66.5 6.5t-44.5 2.5q-13 0 -31 -2t-40 -5q-20 28 -46 61t-52 65.5t-49.5 60.5t-39.5 46l-12 -50q-11 -40 -19 -86t-15 -99q-23 4 -40 6.5t-28 2.5t-32 -2.5t-50 -6.5q11 32 23 71t23.5 79t22 79t18.5 71z" />
    <glyph glyph-name="l" unicode="l" horiz-adv-x="191" 
d="M53 463q8 31 17 69t17 77t15 76.5t12 67.5q22 -4 39.5 -6.5t28.5 -2.5t32 2.5t50 7.5q-12 -32 -24 -71t-23.5 -79.5t-22 -79.5t-18.5 -71l-42 -171q-8 -32 -17 -70t-17 -77t-15.5 -76t-11.5 -67q-43 8 -67 8q-12 0 -34 -2.5t-48 -6.5q11 32 23 71t23.5 79t22 79t18.5 71z
" />
    <glyph glyph-name="m" unicode="m" horiz-adv-x="951" 
d="M66 294q10 40 20 89t16 105q21 -4 38.5 -5.5t30.5 -1.5q9 0 29.5 2t46.5 7q-3 -10 -5.5 -15t-4 -9t-3 -9t-2.5 -14q73 52 164 52q56 0 99.5 -21.5t60.5 -56.5q42 38 93.5 58t110.5 20q75 0 122.5 -29.5t47.5 -96.5q0 -20 -7 -47q-3 -12 -6.5 -25t-8.5 -28
q-8 -27 -19.5 -66.5t-24.5 -89.5v-1q-3 -12 -5.5 -22.5t-5.5 -23t-6 -30t-7 -44.5q-43 8 -66 8q-11 0 -32.5 -2.5t-50.5 -7.5q14 35 40.5 118t57.5 210l-1 -1q5 22 5 33q0 25 -18.5 41.5t-64.5 16.5q-39 0 -68 -12t-48 -28q-11 -10 -18 -20t-15 -31t-18.5 -57.5t-26.5 -99.5
q-10 -41 -17.5 -82.5t-15.5 -85.5q-21 4 -38 6t-28 2q-12 0 -33 -2.5t-47 -6.5q9 26 19 57.5t20 64t19 64t15 57.5q13 52 18.5 77.5t5.5 39.5q0 6 -2 12.5t-4 12.5q-7 13 -27 22.5t-43 9.5q-70 0 -113 -37t-60 -104l-20 -81q-10 -41 -19.5 -90.5t-15.5 -103.5q-21 4 -38.5 6
t-31.5 2q-11 0 -32 -2.5t-50 -7.5q23 61 38 113t26 93z" />
    <glyph glyph-name="n" unicode="n" horiz-adv-x="585" 
d="M429 288q6 22 6 45q0 37 -21.5 56t-59.5 19q-76 0 -120 -37t-61 -104l-19 -81q-11 -41 -20.5 -90.5t-14.5 -103.5q-46 8 -69 8q-14 0 -36 -2.5t-48 -6.5q23 60 38 113.5t26 91.5q5 23 12 49t12 49q11 40 20.5 89t15.5 105q21 -4 38.5 -5.5t31.5 -1.5q8 0 28.5 2t49.5 7
q-7 -17 -11.5 -30.5t-6.5 -18.5q39 27 81.5 40.5t96.5 13.5q32 0 63 -6t56 -21.5t40 -41.5t15 -66q0 -11 -1.5 -25t-6.5 -29q-5 -19 -10.5 -40.5t-12.5 -42.5q-6 -22 -12.5 -44t-12.5 -48l1 1q-1 -3 -2 -6.5t-2 -7.5q-6 -25 -12 -51.5t-14 -74.5q-46 8 -66 8q-11 0 -30 -2.5
t-45 -6.5l28 97q11 35 21 70t20 72l14 58v0z" />
    <glyph glyph-name="o" unicode="o" horiz-adv-x="679" 
d="M33 245q17 69 55.5 116.5t89.5 77t108.5 43t111.5 13.5q48 0 94 -10.5t81.5 -33.5t57.5 -59.5t22 -89.5q0 -15 -2 -32t-7 -34q-19 -65 -59 -112t-90.5 -78t-107 -45.5t-108.5 -14.5q-48 0 -94 10.5t-81.5 34t-57.5 60t-22 88.5q0 15 2 30.5t7 35.5zM173 236
q-4 -18 -6.5 -36t-2.5 -35q0 -24 6.5 -44t20.5 -35t37.5 -23.5t58.5 -8.5q48 0 84.5 16t63 42.5t43.5 61t26 71.5v-1q4 20 6.5 37t2.5 33q0 24 -6.5 44.5t-20.5 35.5t-38 24t-58 9q-48 0 -85 -16t-63 -42.5t-43 -61t-26 -71.5z" />
    <glyph glyph-name="p" unicode="p" horiz-adv-x="622" 
d="M63 196q8 31 17 69t17 77t15.5 77t12.5 69q20 -4 37.5 -5.5t30.5 -1.5t34.5 2t47.5 7q-5 -12 -8.5 -18.5t-6 -11t-4 -10t-3.5 -16.5q32 23 79 42t110 19q42 0 80.5 -11t68 -33.5t46.5 -57t17 -82.5q0 -17 -2.5 -35t-8.5 -38q-18 -59 -55 -106t-83 -79.5t-97 -49.5
t-98 -17q-55 0 -94.5 16.5t-63.5 46.5l-2 -8l-2 -8q-8 -31 -16.5 -69t-16.5 -77t-15.5 -76.5t-11.5 -67.5q-22 3 -39.5 5.5t-28.5 2.5t-32 -2.5t-50 -6.5q11 32 23.5 71t24 79.5t21.5 79.5t18 71zM503 249q5 18 7.5 35t2.5 33q0 29 -9 48t-24 30.5t-34 16.5t-39 5
q-43 0 -77.5 -15.5t-60.5 -41t-43.5 -59t-27.5 -69.5q-5 -19 -7.5 -36t-2.5 -34q0 -103 116 -103q39 0 71.5 14.5t57.5 40t42.5 60.5t27.5 75z" />
    <glyph glyph-name="q" unicode="q" horiz-adv-x="621" 
d="M556 33q-8 -32 -17 -69.5t-17 -76.5t-15.5 -76t-11.5 -67q-20 3 -37.5 5t-30.5 2q-14 0 -35.5 -2.5t-47.5 -6.5q12 33 24 72t23.5 79t22 78.5t18.5 70.5l2 10q-45 -35 -91.5 -50.5t-96.5 -15.5q-41 0 -80 9.5t-69.5 31.5t-49 57t-18.5 86q0 15 2 33t7 38q17 66 52.5 114
t81 79t96 46t96.5 15q60 0 99.5 -18t61.5 -44q2 13 3 26.5t3 29.5q46 -8 69 -8q25 0 82 9q-11 -32 -23.5 -71.5t-24.5 -80.5t-22.5 -80.5t-18.5 -71.5zM485 254q3 15 5 29.5t2 26.5q0 45 -25.5 76t-86.5 31q-26 0 -55.5 -9t-57.5 -31t-52 -59t-39 -93q-7 -29 -7 -62
q0 -47 24 -75.5t76 -28.5q42 0 77.5 17t63.5 44.5t47.5 62.5t28.5 71h-1z" />
    <glyph glyph-name="r" unicode="r" horiz-adv-x="351" 
d="M349 367q-6 7 -20 12.5t-28 5.5q-51 0 -87 -33.5t-48 -83.5q-15 -61 -25.5 -102.5t-17.5 -72.5t-11.5 -54.5t-7.5 -47.5q-20 4 -36.5 6.5t-25.5 2.5q-11 0 -31 -2.5t-46 -6.5q15 44 27.5 90.5t26.5 102.5q4 14 7 29t8 32l-1 -1q2 8 4 15.5t4 14.5q9 38 22.5 95.5
t25.5 118.5q20 -4 36 -5.5t27 -1.5t32 2.5t48 7.5q-8 -17 -14.5 -34t-8.5 -22q38 30 75 45t71 15q12 0 25.5 -3t42.5 -12q-17 -23 -26.5 -50.5t-14.5 -49.5z" />
    <glyph glyph-name="s" unicode="s" horiz-adv-x="445" 
d="M57 124q4 -10 12.5 -21.5t22 -21t31 -16t38.5 -6.5q19 0 38 4.5t35.5 13.5t28 22.5t16.5 30.5q3 13 -3.5 22.5t-19 16.5t-30 12t-36.5 10q-26 7 -51.5 14.5t-45.5 20t-33 31.5t-13 49q0 7 1 15t4 17q10 33 31.5 61.5t54 49.5t74 33.5t90.5 12.5q35 0 59 -6.5t45 -12.5
q3 -1 11 -3.5t17 -5.5t17 -5.5t11 -3.5q-11 -11 -22 -24.5t-20 -27t-15.5 -25t-9.5 -18.5h-44q-4 23 -23 41t-51 18q-15 0 -31 -4t-30 -12t-25 -20t-16 -29q-3 -15 4 -25t20 -17.5t31 -12.5t37 -10q25 -6 50.5 -13.5t45.5 -19.5t32.5 -30.5t12.5 -46.5q0 -8 -1 -16t-4 -17
q-10 -28 -34 -57t-59.5 -52.5t-80 -38.5t-95.5 -15q-57 0 -99.5 14t-73.5 30q7 9 15.5 21t16.5 25t14 26t8 22h42z" />
    <glyph glyph-name="t" unicode="t" horiz-adv-x="350" 
d="M266 612h35l-24 -70t-22 -70q24 1 61 1.5t69 2.5q-7 -16 -11 -26t-5 -14l-2.5 -12.5t-4.5 -27.5q-15 1 -33 1.5t-35.5 1t-33 0.5h-26.5q-4 -12 -11.5 -38.5t-16.5 -59t-18 -67t-16 -61.5q-5 -19 -9 -38t-4 -36q0 -20 11.5 -32.5t42.5 -12.5q9 0 33 4t49 9l-16 -63
q-29 -8 -58.5 -13t-52.5 -5q-72 0 -105.5 27t-33.5 76q0 17 6 38q5 23 12.5 48.5t15.5 55.5q6 19 11 36.5t10.5 37t11.5 42l14 52.5q-20 -1 -45.5 -1.5t-44.5 -2.5q11 20 16.5 33t6.5 15t1 11.5v22.5q27 -2 48 -3t34 -1q5 20 9.5 47.5t9.5 53.5z" />
    <glyph glyph-name="u" unicode="u" horiz-adv-x="585" 
d="M17 165q8 31 15 56.5t13 48.5q4 14 7.5 26t6.5 25q4 16 9 37t10 43.5t10 44.5t10 42q20 -4 36 -5.5t27 -1.5q9 0 29.5 2.5t47.5 7.5q-23 -71 -47 -148.5t-40 -143.5v1q-3 -17 -5 -31t-2 -26q0 -17 3 -26.5t9 -15.5q11 -12 30 -20t48 -8q45 0 79 15.5t54 38.5h-1
q12 15 19.5 26t14 29.5t14.5 49t22 84.5q5 19 10.5 42t10.5 46t10 45t9 39q35 -7 63 -7q12 0 32 2.5t45 7.5q-24 -74 -47 -158t-41 -159q-11 -42 -22 -92.5t-18 -90.5q-20 4 -36 6.5t-25 2.5q-10 0 -29.5 -2.5t-46.5 -7.5q5 14 10.5 25.5t8.5 26.5q-39 -27 -85 -41.5
t-91 -14.5q-88 0 -135.5 34.5t-47.5 99.5q0 10 1 21t5 24z" />
    <glyph glyph-name="v" unicode="v" horiz-adv-x="604" 
d="M188 10q-26 114 -54.5 231t-69.5 249q29 -5 51 -7t34 -2t29 1.5t40 5.5q14 -96 33.5 -182t42.5 -170q57 67 113 145.5t108 153.5h-1q7 11 18.5 27t19.5 26q13 -4 24 -5.5t18 -1.5q9 0 31.5 4t53.5 12q-4 -5 -13 -17t-19 -24.5t-19 -24.5t-13 -17q-85 -104 -169 -210.5
t-156 -210.5q-12 3 -23.5 5t-20.5 2q-8 0 -16 -1.5t-19 -3.5z" />
    <glyph glyph-name="w" unicode="w" horiz-adv-x="999" 
d="M195 12q-5 38 -15 94.5t-23.5 121t-29.5 132.5t-33 130q26 -5 47.5 -7t33.5 -2q13 0 31.5 1.5t40.5 5.5q9 -92 22 -175.5t31 -164.5q23 32 53 75t61 89t61 92t53 84q14 -4 25 -5.5t19 -1.5q10 0 51 9q7 -93 21.5 -174.5t31.5 -166.5q24 33 54.5 75.5t62.5 87.5t63.5 90.5
l58.5 84.5q25 -6 46 -6q10 0 32.5 4t54.5 12q-115 -137 -211.5 -261.5t-177.5 -240.5h-12.5t-10.5 2q-4 1 -7.5 2t-9.5 1q-5 0 -20 -3.5t-28 -5.5q-9 89 -23.5 172.5t-32.5 160.5q-23 -32 -51.5 -72.5t-59 -84.5t-60 -88.5t-53.5 -83.5h-12t-10 2l1 -1q-6 2 -12 3t-10 1
t-11 -1t-14 -3q-2 0 -4.5 -0.5t-4.5 -0.5z" />
    <glyph glyph-name="x" unicode="x" horiz-adv-x="629" 
d="M241 487q23 -45 48 -86.5t52 -83.5q50 42 100.5 85t98.5 85q28 -6 44 -6q15 0 47 6l13 -31q-70 -52 -132.5 -100t-128.5 -99q19 -30 42 -65t47 -70t48 -69.5t45 -63.5q-34 5 -60.5 8t-40.5 3q-13 0 -30.5 -2t-39.5 -5q-27 49 -54 93t-57 93q-54 -48 -104.5 -93.5
t-101.5 -92.5q-12 3 -23.5 5t-20.5 2q-8 0 -19.5 -2t-25.5 -5l-13 31q70 55 134.5 107t131.5 107q-19 28 -41.5 61t-46 66.5t-46.5 66t-43 60.5q35 -5 62.5 -8t40.5 -3q27 0 74 6z" />
    <glyph glyph-name="y" unicode="y" horiz-adv-x="601" 
d="M-27 -266q85 83 148 153.5t111 130.5q-7 30 -18.5 72.5t-24 90t-26.5 96t-25.5 91t-21 75t-13.5 47.5q26 -5 46.5 -7t32.5 -2t30.5 1.5t41.5 5.5q15 -98 35 -180t43 -165q64 77 128 166.5t121 177.5q25 -6 48 -6q8 0 31.5 3.5t58.5 11.5q-12 -14 -40.5 -48t-67.5 -81.5
t-86 -105t-96 -118t-96.5 -121t-89 -113.5t-73.5 -96t-48 -69q-14 3 -26.5 5t-21.5 2t-36 -4.5t-65 -12.5z" />
    <glyph glyph-name="z" unicode="z" horiz-adv-x="594" 
d="M-30 39q49 38 101.5 81t104.5 86.5t101.5 85t91.5 77.5q12 10 17 14.5t8 7t6 5.5t12 11q-30 -1 -71.5 -3t-83.5 -4t-81 -4.5t-64 -3.5q10 20 14 32l7 21l-1 -2q2 8 3 19t3 25q36 -3 118.5 -4.5t192.5 -1.5q103 0 180 6l-10 -44q-60 -50 -125.5 -104.5t-126.5 -105.5
t-111.5 -93t-78.5 -67q79 1 164 4.5t192 11.5q-9 -17 -16 -31.5t-9 -20.5q-3 -14 0 -42q-19 0 -48 0.5t-48 1.5q-53 2 -110 2.5t-110 0.5q-79 0 -157 -3q-7 0 -17.5 -0.5t-22 -1t-21 -0.5h-15.5z" />
    <glyph glyph-name="braceleft" unicode="{" horiz-adv-x="296" 
d="M7 324q41 0 68.5 22t36.5 52q11 38 21.5 80.5t19.5 80.5q19 68 56.5 96.5t93.5 28.5h91l-18 -73h-52q-23 0 -38 -11.5t-24 -49.5l-39 -156q-11 -42 -36 -68.5t-64 -43.5q25 -14 36 -33t11 -48q0 -8 -1 -16.5t-4 -18.5q-8 -36 -19 -78.5t-19 -77.5q-5 -20 -5 -33
q0 -12 7.5 -15.5t21.5 -3.5h62l-18 -72h-83q-49 0 -75.5 18t-26.5 66q0 11 1.5 23.5t6.5 26.5q10 38 20.5 80.5t20.5 80.5q1 5 1.5 11.5t0.5 11.5q0 20 -18 31t-55 11z" />
    <glyph glyph-name="bar" unicode="|" horiz-adv-x="156" 
d="M148 747h99l-244 -983h-99z" />
    <glyph glyph-name="braceright" unicode="}" horiz-adv-x="297" 
d="M288 246q-41 0 -68.5 -22t-36.5 -53q-11 -38 -21.5 -80.5t-19.5 -80.5q-19 -67 -56.5 -95.5t-92.5 -28.5h-91l18 72h52q23 0 37.5 12t23.5 50l39 155q11 42 36 69t64 44q-25 14 -36 33t-11 48q0 8 1 16.5t4 18.5q8 35 19 77.5t19 77.5q5 20 5 33q0 11 -7.5 15t-21.5 4
h-62l18 73h83q49 0 75.5 -18t26.5 -66q0 -11 -1.5 -23.5t-6.5 -26.5q-10 -38 -20.5 -80.5t-20.5 -80.5q-1 -6 -1.5 -12t-0.5 -12q0 -19 18 -30t55 -11z" />
    <glyph glyph-name="asciitilde" unicode="~" horiz-adv-x="634" 
d="M18 239q22 22 42.5 39.5t43 30t47 19t53.5 6.5q40 0 65.5 -7.5t48.5 -17.5h-1q9 -3 17.5 -7t16.5 -8q23 -10 44 -17t47 -7q14 0 31.5 8t34.5 20.5t33.5 27t29.5 28.5l45 -76q-18 -17 -39.5 -33.5t-45 -30.5t-49.5 -22.5t-54 -8.5q-36 0 -67 10t-67 26q-26 13 -49.5 20.5
t-44.5 7.5q-23 0 -43 -8t-37 -21t-31 -28t-26 -29z" />
    <glyph glyph-name="exclamdown" unicode="&#xa1;" horiz-adv-x="201" 
d="M173 322q-2 -12 -4 -27.5t-4.5 -32t-4.5 -32.5t-4 -29q-9 -60 -17.5 -121t-16 -110.5t-12.5 -83.5t-7 -40q-9 -32 -34.5 -46.5t-52.5 -14.5q-15 0 -29 4t-23 12t-12.5 21.5t1.5 32.5q2 8 18.5 56.5t40.5 117.5t51 147t51 146h59zM85 427q4 14 13.5 26.5t23 21.5t29 14.5
t32.5 5.5q38 0 59 -23t13 -55q-3 -14 -12.5 -26.5t-23 -21.5t-30 -14.5t-32.5 -5.5q-19 0 -34 6t-24.5 16.5t-13.5 25t0 30.5z" />
    <glyph glyph-name="cent" unicode="&#xa2;" horiz-adv-x="546" 
d="M11 245q15 56 46.5 99t74 73t93 48t103.5 25q5 19 9.5 46t7.5 60q16 -5 28 -7.5t19 -2.5q15 0 61 11q-11 -28 -20 -55.5t-16 -47.5q60 -4 107.5 -20.5t71.5 -37.5q-14 -17 -28 -37.5t-28 -45.5h-34q-9 23 -36.5 45.5t-69.5 27.5q-23 -92 -45.5 -181.5t-45.5 -180.5
q43 5 91 24.5t86 47.5l26 -23q-7 -14 -12 -26.5t-10 -24.5q-1 -1 -2.5 -6t-2.5 -7q-40 -22 -91.5 -39.5t-103.5 -20.5q-5 -23 -9.5 -52.5t-7.5 -57.5q-33 9 -46 9q-7 0 -23 -3t-38 -9q4 13 9 28.5t10 31.5t10 30.5t8 24.5q-41 5 -77.5 18.5t-63.5 37t-43 57t-16 78.5
q0 15 2 30t5 32zM310 416q-66 -18 -103.5 -66t-54.5 -114v1q-3 -16 -5 -31.5t-2 -30.5q0 -85 79 -104z" />
    <glyph glyph-name="sterling" unicode="&#xa3;" horiz-adv-x="623" 
d="M-17 94q45 0 76.5 10t52.5 29t33.5 45t20.5 59q4 16 6 36.5t4 38.5q-30 -1 -66 -1h-59q13 26 16.5 34t4.5 12q1 3 1 9.5t-7 28.5q29 -4 60 -6.5t57 -2.5q1 11 3 24t6 26q17 69 52.5 115t79.5 73.5t91.5 38.5t89.5 11q48 0 95 -18.5t70 -56.5q-21 -15 -41 -33t-43 -39
l-21 21q-2 26 -21 39.5t-47 13.5q-29 0 -54.5 -9t-46 -24t-35 -36t-20.5 -45q-7 -26 -11 -49t-7 -43q-1 -4 -1 -4.5v-0.5v0l-1 -4q32 0 57 0.5t51 2.5q7 0 17.5 0.5t21.5 1t20.5 1t15.5 0.5q0 -2 -1.5 -7t-3.5 -11t-3.5 -11.5t-1.5 -6.5v1q-2 -8 -3 -11v1q-1 -4 -1.5 -12
t-0.5 -24h-28q-42 1 -75.5 1.5t-76.5 0.5q-2 -6 -3 -13.5t-3 -15.5q-15 -59 -49.5 -106.5t-76.5 -81.5q65 0 130 2.5t126 4.5q11 0 26 0.5t31 1.5t30.5 1.5t24.5 0.5q-10 -23 -16.5 -39t-8.5 -24v1q-2 -7 -3 -19t-1 -31h-19.5t-24 0.5t-24 1t-20.5 0.5q-49 2 -103 2.5
t-105 0.5q-101 0 -201 -3q-9 0 -22.5 -0.5l-27 -1t-25.5 -0.5h-20q0 1 2 6t4.5 11t4.5 11t2 7q2 7 3.5 11t2.5 8v1l2 15q1 5 3 13l4 16h31z" />
    <glyph glyph-name="currency" unicode="&#xa4;" horiz-adv-x="698" 
d="M656 588l63 -62l-81 -54q13 -20 21 -45.5t8 -51.5t-7 -51q-10 -39 -34 -76t-58 -67l52 -51l-84 -58l-52 52q-45 -23 -94 -35.5t-100 -12.5t-95.5 13t-76.5 36q-19 -12 -42 -27t-40 -26l-57 63l78 54q-26 44 -26 94q0 26 7 51q10 39 34.5 76.5t57.5 66.5
q-13 12 -29.5 29.5t-24.5 26.5l82 55l54 -54q44 23 94 36t101 13t94 -12.5t77 -35.5zM562 333q5 22 5 35q0 28 -12 52.5t-34.5 42t-54 27.5t-70.5 10q-47 0 -90 -13.5t-78 -37.5t-59.5 -56t-33.5 -69q-4 -15 -4 -35q0 -57 46 -94t124 -37q46 0 89 13.5t78.5 37.5t60.5 56
t34 69z" />
    <glyph glyph-name="yen" unicode="&#xa5;" horiz-adv-x="680" 
d="M260 313q-28 0 -55.5 -0.5t-55.5 -1.5h-21.5t-25.5 -0.5t-25.5 -0.5h-21.5q4 11 7 21.5t5 13.5l2 4t2 5v5q0 2 0.5 7t5.5 22q24 0 45 -0.5t41 -1t41.5 -0.5h45.5q-5 8 -10 17.5t-9 17.5q-16 29 -35 64t-38.5 71t-39 70.5t-35.5 64.5q31 -5 55 -7.5t41 -2.5q16 0 35.5 2
t43.5 5q5 -20 17.5 -51.5t29 -68.5t35.5 -75l36 -72q70 67 140 135.5t128 131.5q12 -3 23.5 -5t21.5 -2q7 0 19.5 2t27.5 5l14 -30q-56 -46 -129 -112t-148 -135q-8 -7 -10.5 -9t-3.5 -3.5t-3.5 -3.5t-9.5 -9q44 0 91 0.5t85 1.5l-15 -30q-1 -3 -3 -8.5t0 2.5
q-2 -10 -2.5 -20.5t-0.5 -21.5h-20.5t-24 0.5t-24 0.5h-19.5q-35 1 -61 1.5t-61 0.5q-3 -13 -5 -20t-7 -24h109.5t104.5 1l-6 -12t-5 -11l-5 -10q-4 -6 -4 -10l-2 -9q0 -2 -0.5 -13.5t-0.5 -13.5q-51 2 -104.5 3.5t-105.5 1.5q-12 -51 -22 -105.5t-17 -98.5q-21 4 -38.5 6
t-29.5 2q-11 0 -33.5 -2.5t-51.5 -6.5q17 51 34 102.5t29 102.5q-24 0 -52 -0.5t-55.5 -1.5t-54.5 -1.5t-49 -1.5q0 1 2.5 6l5.5 11l5.5 11t2.5 6q1 2 2 3.5t2 3.5l2 4v4q0 2 0.5 7.5t4.5 22.5q51 -1 101.5 -1h101.5z" />
    <glyph glyph-name="brokenbar" unicode="&#xa6;" horiz-adv-x="150" 
d="M10 203h99l-91 -369h-99zM127 676h99l-92 -369h-99z" />
    <glyph glyph-name="section" unicode="&#xa7;" horiz-adv-x="533" 
d="M461 547q-3 30 -25 54t-64 24q-22 0 -44.5 -5.5t-41.5 -16t-33 -25t-19 -33.5q-5 -18 3.5 -32t25.5 -25t40 -19.5t48 -17.5q34 -12 66.5 -24.5t56 -31.5t34.5 -45.5t2 -65.5q-4 -18 -13.5 -35t-22.5 -32.5t-27 -29t-27 -23.5q8 -11 13 -24t5 -29q0 -8 -1 -16.5t-4 -17.5
q-11 -38 -37 -73.5t-66 -63t-92.5 -44.5t-115.5 -17q-24 0 -49.5 4.5t-49.5 11.5t-45.5 16.5t-37.5 20.5q6 10 12 23.5t12 28t10.5 29t7.5 25.5h45q3 -11 11 -25.5t23.5 -28t40.5 -23t61 -9.5q28 0 55.5 8.5t50 22t38 31t19.5 35.5q4 17 -4.5 30t-26 23t-41 18.5t-49.5 17.5
q-33 11 -65 23t-58 29.5t-42 41t-16 57.5q0 8 1 16t4 18q6 21 17.5 39.5t25.5 34t30 27t30 19.5q-4 8 -6.5 17.5t-2.5 20.5q0 9 1.5 21.5t6.5 26.5q9 31 31 61.5t56 54.5t79 38.5t100 14.5q31 0 57.5 -7t47.5 -18.5t37.5 -26t28.5 -29.5q-19 -12 -37 -32.5t-26 -37.5h-44z
M408 252q6 25 -9.5 40t-60.5 32q-41 16 -70 27.5t-49 20t-31.5 14.5t-17.5 10q-14 -10 -26 -23.5t-16 -28.5q-5 -26 15.5 -43.5t74.5 -37.5q64 -25 100.5 -39t55.5 -24q11 10 20.5 22.5t13.5 29.5z" />
    <glyph glyph-name="dieresis" unicode="&#xa8;" horiz-adv-x="450" 
d="M262 625q3 13 11.5 24.5t21 20.5t27.5 14t31 5q35 0 53.5 -21.5t12.5 -50.5q-7 -26 -33 -44.5t-57 -18.5q-17 0 -31 5.5t-23 15.5t-12.5 23t0.5 28zM29 625q6 26 32 45t58 19q17 0 31 -6t23 -15.5t12.5 -22.5t0.5 -28q-6 -26 -33 -44.5t-58 -18.5q-35 0 -53.5 21
t-11.5 51z" />
    <glyph glyph-name="copyright" unicode="&#xa9;" horiz-adv-x="962" 
d="M39 345q18 73 68.5 137.5t121.5 112.5t158 75.5t178 27.5q81 0 148.5 -22.5t116 -61.5t75 -92t26.5 -115q0 -34 -9 -71q-18 -73 -69 -137.5t-122 -112.5t-158 -75.5t-177 -27.5q-82 0 -149.5 22t-115.5 61t-74.5 92t-26.5 115q0 34 9 72zM837 345q6 28 6 57
q0 48 -20.5 89t-58 70.5t-90.5 46.5t-117 17q-76 0 -147 -22.5t-129.5 -62t-99.5 -92t-56 -112.5q-6 -29 -6 -58q0 -48 20.5 -88.5t58 -70.5t90 -46.5t116.5 -16.5q76 0 147 22.5t129.5 62t100 92t56.5 112.5zM201 343q15 60 49.5 105t83.5 75t108 45t123 15q61 0 109 -10.5
t80 -28.5q-13 -17 -24.5 -35.5t-16.5 -37.5l-30 -2q-6 6 -16 14.5t-24.5 16t-34 13t-46.5 5.5q-38 0 -76.5 -8t-72 -29t-59.5 -57t-40 -91q-5 -25 -5 -45q0 -53 38.5 -86.5t114.5 -33.5q23 0 47 5t46.5 13t41.5 17t33 17l49 -1q-22 -29 -29.5 -45.5t-9.5 -24.5
q-15 -7 -37 -15t-48 -14.5t-55 -11t-58 -4.5q-57 0 -103 13t-78.5 37t-50 58t-17.5 77q0 13 1.5 26.5t6.5 27.5z" />
    <glyph glyph-name="ordfeminine" unicode="&#xaa;" horiz-adv-x="412" 
d="M90 639q31 12 67 23.5t85 11.5q24 0 49 -4.5t43.5 -17t27.5 -34.5t0 -58v1q-5 -23 -11.5 -44t-12.5 -39q-5 -17 -9.5 -31.5t-6.5 -24.5q-3 -9 0 -9q4 0 18 5t30 11l-12 -59q-13 -5 -33.5 -11t-41.5 -6t-35 8.5t-20 19.5q-53 -28 -115 -28q-23 0 -45 4.5t-39 15.5
t-25 28.5t-2 44.5q5 20 15 35t27.5 26t44 18.5t65.5 13.5q35 5 55.5 8t30.5 5t13 3.5t4 4.5q7 31 -8 40t-40 9q-32 0 -55.5 -13t-33.5 -25h-47zM241 496q-8 -2 -14.5 -2.5t-14.5 -1.5q-16 -2 -32 -5.5t-29.5 -8.5t-23.5 -13.5t-14 -21.5q-2 -12 8 -19t27 -7q22 0 43.5 10
t37.5 20z" />
    <glyph glyph-name="guillemotleft" unicode="&#xab;" horiz-adv-x="438" 
d="M403 448q6 -15 25.5 -28t48.5 -16l-190 -168q22 -39 48 -86.5t46 -83.5q-24 -2 -49 -14.5t-36 -28.5l-117 220zM232 448q6 -15 25 -28t48 -16l-190 -168q11 -20 23.5 -42t25 -44.5t24.5 -44t22 -39.5q-25 -3 -50 -15t-37 -26l-117 217z" />
    <glyph glyph-name="logicalnot" unicode="&#xac;" horiz-adv-x="678" 
d="M552 306h-536l22 88h635l-73 -292h-99z" />
    <glyph glyph-name="registered" unicode="&#xae;" horiz-adv-x="962" 
d="M39 345q18 73 68.5 137.5t121.5 112.5t158 75.5t178 27.5q81 0 148.5 -22.5t116 -61.5t75 -92t26.5 -115q0 -34 -9 -71q-18 -73 -69 -137.5t-122 -112.5t-158 -75.5t-177 -27.5q-82 0 -149.5 22t-115.5 61t-74.5 92t-26.5 115q0 34 9 72zM125 336q-6 -29 -6 -58
q0 -48 20.5 -88.5t58 -70.5t90 -46.5t116.5 -16.5t124.5 16t114.5 45q-11 2 -19.5 3t-13.5 1q-11 0 -25.5 -2t-31.5 -5q-63 102 -140 205h-14q-4 -13 -7 -26t-7 -26q-8 -31 -14.5 -69t-14.5 -85q-17 3 -30 5.5t-22 2.5q-8 0 -26.5 -3t-44.5 -8q1 3 4 11t6 17t6 17t4 11v-1
q10 29 19.5 58t14.5 48l41 163q7 31 13.5 71t11.5 73q33 -3 61 -5t50 -2q12 0 23.5 0.5t24.5 1.5q11 1 25 2t25 1q36 0 65.5 -7t49.5 -22t27.5 -37t0.5 -52q-7 -27 -26 -48.5t-44 -37.5t-53 -26.5t-52 -15.5q7 -9 13.5 -18.5t14.5 -20.5h-1q28 -41 59 -80.5t57 -61.5l-1 -15
q62 40 105 94t60 117q6 28 6 57q0 48 -20.5 89t-58 70.5t-90.5 46.5t-117 17q-76 0 -147 -22.5t-129.5 -62t-99.5 -92t-56 -112.5zM414 379h25q27 0 53 4.5t47 14.5t35.5 25.5t19.5 37.5q7 26 -13.5 40.5t-58.5 14.5q-18 0 -36 -0.5t-33 -2.5q-8 -22 -14.5 -42t-10.5 -35z
" />
    <glyph glyph-name="macron" unicode="&#xaf;" horiz-adv-x="428" 
d="M44 658h360l-22 -87h-360z" />
    <glyph glyph-name="degree" unicode="&#xb0;" horiz-adv-x="422" 
d="M22 522q7 31 28.5 58.5t52 48.5t67.5 33t75 12q40 0 72.5 -12.5t53.5 -34.5t29 -51.5t0 -62.5q-8 -32 -29.5 -59.5t-52 -48t-67.5 -32.5t-75 -12q-36 0 -65 10t-50 27t-32.5 41t-11.5 51q0 9 1 16.5t3 14.5zM101 513q-8 -33 16.5 -56t67.5 -23q23 0 45 7t40.5 19t31.5 28
t19 34q3 16 -2 30.5t-16.5 25t-28.5 17t-38 6.5q-24 0 -46 -7t-40.5 -19t-31.5 -28t-17 -34z" />
    <glyph glyph-name="plusminus" unicode="&#xb1;" horiz-adv-x="648" 
d="M-38 87h267l42 170h-267l22 87h266q11 40 23.5 87t21.5 85h99l-43 -172h268l-21 -87h-269q-10 -41 -21 -86.5t-22 -83.5h269l-22 -87h-634z" />
    <glyph glyph-name="twosuperior" unicode="&#xb2;" horiz-adv-x="407" 
d="M77 602q42 38 85 55t95 17q37 0 67.5 -7.5t50 -23t27.5 -39t1 -54.5q-6 -23 -18.5 -43t-40 -44.5t-74.5 -56.5t-123 -78q27 0 56 1t57.5 1.5t54.5 1.5t46 3q-9 -17 -16 -29.5t-8 -16.5q-2 -8 -2 -19t2 -25q-42 2 -93 4t-93 2t-94 -2t-94 -4l10 45q15 11 32.5 22.5
t31.5 19.5q53 34 96.5 62t75.5 54.5t52 52.5t28 55q7 30 -8 43.5t-40 13.5q-21 0 -38 -6t-30 -15t-21 -19.5t-12 -19.5l-27 -2z" />
    <glyph glyph-name="threesuperior" unicode="&#xb3;" horiz-adv-x="393" 
d="M2 339h24q10 -11 31.5 -22t53.5 -11q48 0 82.5 22t42.5 54q4 17 1 28.5t-11.5 18t-21 9.5t-25.5 3q-14 0 -40.5 -5t-50.5 -10q15 23 21.5 34t7.5 14q1 5 0.5 13.5t-4.5 31.5q46 -18 63 -18q20 0 35 6.5t25.5 17t17 23t9.5 23.5q3 20 -10.5 31t-35.5 11q-27 0 -50.5 -12.5
t-35.5 -28.5l-29 -1l-18 58q24 15 61.5 30t93.5 15q33 0 59.5 -7t44.5 -20.5t26 -33.5t3 -46q-9 -26 -30.5 -50.5t-45.5 -37.5q15 -6 27.5 -14.5t21 -20.5t11 -28t-2.5 -37q-8 -30 -29.5 -54.5t-53.5 -42.5t-73.5 -27.5t-88.5 -9.5q-45 0 -79.5 9t-63.5 21z" />
    <glyph glyph-name="acute" unicode="&#xb4;" horiz-adv-x="298" 
d="M190 705q17 11 34.5 18t34.5 7q9 0 19.5 -3.5t18 -10.5t11 -17t0.5 -23q-5 -21 -25.5 -34.5t-38.5 -21.5q-48 -23 -99.5 -46t-100.5 -45h-114z" />
    <glyph glyph-name="mu" unicode="&#xb5;" horiz-adv-x="562" 
d="M225 -14q-26 0 -48.5 4t-41.5 13q-16 -63 -29.5 -125.5t-21.5 -134.5q-20 3 -37 5.5t-27 2.5t-30 -2.5t-46 -6.5q3 10 7 25l8 30t8 29t6 24q15 54 29 107.5t31 121.5q14 54 25.5 105t22.5 94q13 53 26.5 108.5t24.5 101.5q18 -4 34.5 -5.5t27.5 -1.5t30.5 2t45.5 7
q-11 -33 -22.5 -70t-23 -74.5t-21.5 -75t-19 -71.5q-8 -35 -8 -57q0 -16 4 -25t9 -16q10 -12 29 -20t49 -8q45 0 79 15.5t53 38.5q12 14 19.5 25t14 29t14.5 49.5t22 85.5q5 19 10.5 42t10.5 46.5t10 45.5t9 39q20 -4 36 -6t27 -2t30.5 2.5t46.5 7.5q-23 -74 -46.5 -158
t-42.5 -159q-5 -21 -10.5 -45t-10.5 -48t-10 -47.5t-8 -42.5q-20 4 -36 6.5t-24 2.5q-10 0 -29.5 -2.5t-46.5 -7.5q5 15 8.5 27.5t7.5 24.5q-39 -27 -84.5 -41.5t-91.5 -14.5zM417 99q-2 -4 -2 -6q1 2 1 3t1 3z" />
    <glyph glyph-name="paragraph" unicode="&#xb6;" horiz-adv-x="612" 
d="M505 602q-18 -3 -39 -6q-43 -175 -88 -353t-88 -352h-81l96 384q-129 4 -188.5 49.5t-59.5 119.5q0 22 7 49q12 47 38 82.5t64.5 59t87.5 35t107 11.5h332l-14 -59l-91 -11l-180 -720h-80z" />
    <glyph glyph-name="periodcentered" unicode="&#xb7;" horiz-adv-x="212" 
d="M16 313q4 15 13.5 27.5t23.5 22.5t30.5 15.5t34.5 5.5q19 0 35 -6.5t26.5 -17t14.5 -25.5t0 -31q-8 -29 -38 -50t-65 -21q-39 0 -61.5 23.5t-13.5 56.5z" />
    <glyph glyph-name="cedilla" unicode="&#xb8;" horiz-adv-x="298" 
d="M17 -124q16 -5 40 -10t49 -5q23 0 41 6t21 19q2 8 -8 11.5t-24 3.5q-17 0 -31.5 -3.5t-22.5 -8.5l-30 29l88 120h87l-43 -64q55 -1 80 -25.5t16 -65.5q-6 -24 -22.5 -41.5t-41 -29.5t-54.5 -18t-61 -6q-38 0 -73 9t-58 17z" />
    <glyph glyph-name="onesuperior" unicode="&#xb9;" horiz-adv-x="243" 
d="M132 575q-22 -7 -44 -15.5t-39 -14.5q-5 9 -12.5 17t-15.5 12l2 36q50 12 104.5 28.5t99.5 35.5h46q-19 -54 -32.5 -97t-21.5 -75l-24 -94q-8 -32 -15.5 -73.5t-15.5 -92.5q-17 4 -31.5 6.5t-24.5 2.5q-7 0 -25.5 -3.5t-44.5 -8.5q12 33 20.5 58.5t14.5 46.5t10.5 38.5
t8.5 34.5z" />
    <glyph glyph-name="ordmasculine" unicode="&#xba;" horiz-adv-x="464" 
d="M25 517q10 43 35 73t58.5 48.5t72.5 27t77 8.5q33 0 65 -7t57 -22t40 -39.5t15 -58.5q0 -18 -6 -39q-11 -43 -36.5 -72.5t-59.5 -48t-72 -26.5t-74 -8q-35 0 -67 7t-56.5 22t-39.5 38.5t-15 57.5q0 10 1.5 19t3.5 19zM138 508q-2 -8 -3 -17.5t-1 -17.5q0 -25 15.5 -42.5
t53.5 -17.5q27 0 47 9t35 23.5t25 33t15 38.5l-1 -1q4 19 4 35q0 26 -14.5 44t-51.5 18q-28 0 -49 -9t-36 -24t-24.5 -34t-14.5 -38z" />
    <glyph glyph-name="guillemotright" unicode="&#xbb;" horiz-adv-x="437" 
d="M56 410q24 2 49 14.5t36 28.5l117 -219l-224 -207q-6 16 -26 29t-48 16l190 168zM227 410q24 2 49 14.5t36 28.5l118 -219l-225 -207q-6 16 -25 29t-48 16l189 168z" />
    <glyph glyph-name="onequarter" unicode="&#xbc;" horiz-adv-x="941" 
d="M457 148q78 66 162.5 135.5t165.5 135.5q8 -2 17 -4t18 -2q6 0 23.5 3t37.5 8q-20 -61 -38.5 -124.5t-33.5 -123.5q17 2 40 5t46 8q-13 -20 -21 -33t-8 -14q-2 -8 -1.5 -20t1.5 -26q-25 3 -41.5 4t-33.5 2q-4 -15 -6.5 -29t-5.5 -29q-1 -9 -5.5 -26.5t-6.5 -26.5
q-16 4 -28.5 6.5t-21.5 2.5q-8 0 -26 -3t-44 -8q10 27 20 56.5t18 56.5q-33 0 -69 -0.5t-69 -1.5t-59.5 -1.5t-41.5 -1.5zM646 688q24 -8 33 -8q6 0 27 6t50 14l-536 -729q-11 3 -19.5 5t-14.5 2t-27 -5.5t-50 -14.5zM213 579q-22 -8 -47 -17.5t-45 -16.5q-5 8 -14.5 17
t-20.5 14l11 35q48 11 101 27.5t98 35.5h45q-6 -18 -13 -40.5t-14 -45.5t-13.5 -45t-11.5 -41l-24 -94q-8 -32 -15 -73.5t-15 -92.5q-19 4 -33 6.5t-23 2.5q-10 0 -28.5 -3.5t-40.5 -8.5q19 57 31.5 100t20.5 78zM733 292q-9 -6 -16 -13q-32 -26 -63 -52t-60 -52h110z" />
    <glyph glyph-name="onehalf" unicode="&#xbd;" horiz-adv-x="926" 
d="M567 351q42 38 84.5 55t94.5 17q38 0 68.5 -7.5t50.5 -22.5t28 -38.5t0 -55.5q-6 -24 -18 -44t-39 -44t-74.5 -55.5t-123.5 -77.5q25 0 53 0.5t55 1.5t52 1.5t45 2.5q0 -1 -2 -6.5t-4.5 -12t-4.5 -12t-2 -6.5q-4 -8 -5 -12t-1 -6.5v-4.5t-0.5 -14.5t-0.5 -15.5
q-41 2 -90.5 4t-91.5 2q-20 0 -44.5 -0.5t-50 -1.5t-50 -2t-45.5 -2l11 46q14 9 31 20t30 19h-1q54 34 98 62.5t76.5 55t53 53t28.5 56.5q7 29 -8 42.5t-41 13.5q-21 0 -37.5 -6t-28.5 -15t-20 -19.5t-12 -18.5l-29 -2zM642 688q26 -8 34 -8q6 0 27 6t50 14l-535 -729
q-11 3 -20 5t-14 2q-6 0 -27 -5.5t-50 -14.5zM213 579q-22 -8 -47 -17.5t-45 -16.5q-5 8 -14.5 17t-20.5 14l12 35q48 11 101 27.5t97 35.5h46q-6 -18 -13 -40.5t-14 -45.5t-13.5 -45t-11.5 -41l-24 -94q-8 -32 -15.5 -72t-15.5 -94q-19 4 -33 6.5t-22 2.5q-9 0 -27.5 -3.5
t-42.5 -8.5q19 57 31.5 100t20.5 78z" />
    <glyph glyph-name="threequarters" unicode="&#xbe;" horiz-adv-x="994" 
d="M504 148q79 66 163 135.5t165 135.5q9 -2 18.5 -4t17.5 -2q5 0 22 3t37 8q-20 -61 -37.5 -124.5t-32.5 -123.5q16 2 37 5t43 8q0 -1 -3.5 -7t-7 -13.5t-7 -13.5l-3.5 -6q-4 -10 -4 -11q-2 -5 -1.5 -8t0.5 -7v-27q-23 3 -39.5 4t-32.5 2q-6 -26 -11.5 -57t-10.5 -54
q-17 4 -30.5 6.5t-21.5 2.5t-26.5 -3t-44.5 -8q10 27 21 56.5t18 56.5q-34 0 -70 -0.5t-68.5 -1.5t-59.5 -1.5t-42 -1.5zM41 339h24q10 -11 31.5 -22t53.5 -11q49 0 83 22t42 54q8 34 -11 46.5t-46 12.5q-14 0 -40.5 -5t-50.5 -10q17 27 23.5 36.5t7.5 12.5t1 16v27
q20 -9 34 -13t22 -4q20 0 35 6.5t25.5 17t17 23t9.5 23.5q3 20 -10.5 31t-35.5 11q-27 0 -50.5 -12.5t-34.5 -28.5l-30 -1l-18 58q24 15 61.5 30t93.5 15q33 0 60.5 -6.5t46 -20t26 -33.5t0.5 -47q-8 -31 -28.5 -52.5t-46.5 -35.5q28 -12 46.5 -36t8.5 -64q-8 -30 -29 -54.5
t-53.5 -42.5t-73.5 -27.5t-89 -9.5q-44 0 -79 9t-63 21zM707 688q26 -8 34 -8q6 0 27 6t50 14l-536 -729q-11 3 -19.5 5t-13.5 2q-6 0 -27 -5.5t-50 -14.5zM781 293l-17 -14q-32 -26 -63 -52t-60 -52h111z" />
    <glyph glyph-name="questiondown" unicode="&#xbf;" horiz-adv-x="348" 
d="M118 266q13 9 26 22.5t16 21.5q14 4 28.5 6.5t29.5 2.5q18 0 41.5 -7t43.5 -22t31 -39.5t2 -60.5q-7 -27 -23 -50t-37 -43t-46 -37.5t-49 -33.5q-40 -27 -74.5 -55t-42.5 -59q-3 -12 1 -22t13 -17t22 -11t27 -4q29 0 67.5 19t76.5 48l-12 -102q-32 -14 -68 -26t-79 -12
q-83 0 -124 33.5t-41 84.5q0 9 1 16l2 14q7 30 24.5 55t40.5 47t50 41t53 37q42 27 74.5 53.5t39.5 55.5v-1q3 11 -3.5 22t-25.5 11q-12 0 -24.5 -3.5t-18.5 -6.5zM182 427q8 28 36.5 48t62.5 20q38 0 58.5 -23t12.5 -55q-7 -28 -35.5 -48t-62.5 -20q-19 0 -34 6t-24.5 16.5
t-13.5 25t0 30.5z" />
    <glyph glyph-name="Agrave" unicode="&#xc0;" horiz-adv-x="820" 
d="M501 691q9 -33 20 -74t22 -77q21 -76 44 -160t45 -160.5t40.5 -137.5t29.5 -91q-29 4 -52 6.5t-36 2.5q-14 0 -35 -2t-47 -6q-5 54 -17.5 108.5t-26.5 106.5q-4 14 -6.5 21.5t-6.5 21.5q-35 1 -69 1h-70t-67.5 -0.5t-67.5 -1.5q-54 -70 -101.5 -138.5t-76.5 -118.5
q-35 8 -51 8q-10 0 -34 -4t-58 -9q68 83 141 173t147 181.5t146.5 182t138.5 174.5h37l-146 85q-17 10 -31.5 24.5t-8.5 41.5q3 10 10.5 18t17.5 14t19.5 9t17.5 3q17 0 32 -8t28 -20l171 -174h-99v0zM406 512q-19 -24 -36 -46t-33.5 -43.5t-34.5 -44t-38 -48.5
q7 0 13.5 -0.5t12.5 -0.5q12 0 31 -0.5t31 -0.5h29h24.5t24 0.5t29.5 0.5z" />
    <glyph glyph-name="Aacute" unicode="&#xc1;" horiz-adv-x="821" 
d="M583 867v-1q17 12 35 19.5t34 7.5q9 0 19.5 -3.5t18 -10.5t11 -17t0.5 -23q-5 -21 -25.5 -35t-38.5 -22q-45 -20 -92.5 -41.5t-92.5 -42.5h38q10 -33 21.5 -76.5t22.5 -81.5q14 -51 29 -105.5t30.5 -109t30.5 -106t28 -95.5t23.5 -78.5t18.5 -54.5q-30 4 -53 6.5t-36 2.5
q-14 0 -35 -2t-47 -6q-5 54 -17.5 108.5t-26.5 106.5q-4 14 -6.5 21.5t-5.5 21.5q-35 1 -69.5 1h-69.5q-37 0 -68 -0.5t-68 -1.5q-54 -70 -101.5 -138.5t-75.5 -118.5q-37 8 -52 8q-10 0 -34 -4t-58 -9q67 82 140 171.5t146 180t144.5 180.5t137.5 173q-1 0 -1 -0.5t-1 -0.5
h-115zM398 512q-19 -24 -36 -46t-34 -43.5t-34.5 -44t-38.5 -48.5q7 0 13.5 -0.5t12.5 -0.5q12 0 31.5 -0.5t30.5 -0.5h29h25t24.5 0.5t29.5 0.5z" />
    <glyph glyph-name="Acircumflex" unicode="&#xc2;" horiz-adv-x="826" 
d="M497 698q8 -26 17.5 -62t17.5 -67q21 -77 44 -159.5t45.5 -160t43 -145t37.5 -113.5q-29 4 -52.5 6.5t-37.5 2.5t-34.5 -2t-46.5 -6q-6 59 -19 113.5t-27 106.5q-3 11 -5.5 19t-4.5 19q-35 1 -70 1h-70q-37 0 -68 -0.5t-67 -1.5q-54 -70 -101.5 -138.5t-76.5 -118.5
q-35 8 -52 8q-9 0 -32.5 -4t-57.5 -9q67 83 140 173t147 181.5t146 182t138 174.5h46zM495 786q-40 -24 -80 -47.5t-79 -47.5h-99l229 196h96l132 -196h-86zM405 512q-19 -24 -36 -45.5t-34 -43.5t-34.5 -44.5t-37.5 -48.5q6 0 12.5 -0.5t12.5 -0.5q12 0 31.5 -0.5
t31.5 -0.5h29h25t24.5 0.5t28.5 0.5z" />
    <glyph glyph-name="Atilde" unicode="&#xc3;" horiz-adv-x="820" 
d="M500 698q9 -33 20.5 -76.5t22.5 -81.5q21 -76 44.5 -160t45.5 -160.5t40.5 -137.5t29.5 -91q-30 4 -53 6.5t-36 2.5q-14 0 -34.5 -2t-46.5 -6q-7 59 -19.5 113.5t-26.5 106.5q-3 11 -5.5 19t-5.5 19q-35 1 -69.5 1h-69.5q-36 0 -67.5 -0.5t-67.5 -1.5
q-54 -70 -101.5 -138.5t-76.5 -118.5q-37 8 -51 8q-10 0 -34 -4t-59 -9q68 83 141.5 173t147.5 181.5t146 182t138 174.5h47zM257 715q11 23 28 47t39.5 43.5t50 32t59.5 12.5q23 0 39.5 -5t48.5 -18q27 -12 39.5 -16t25.5 -4q21 0 39 14.5t30 32.5h73q-7 -15 -21.5 -39
t-37.5 -46t-54 -38t-70 -16q-19 0 -40 5t-48 19q-26 12 -38.5 16t-24.5 4q-23 0 -35.5 -9.5t-29.5 -34.5h-73zM407 512q-19 -24 -36 -46t-34 -43.5t-34.5 -44t-38.5 -48.5q8 0 14 -0.5t13 -0.5q12 0 31 -0.5t30 -0.5h29.5h24.5t24.5 0.5t29.5 0.5z" />
    <glyph glyph-name="Adieresis" unicode="&#xc4;" horiz-adv-x="819" 
d="M499 698q9 -32 20 -72.5t21 -76.5q21 -75 43 -156t44 -156t42 -139t35 -107q-29 4 -52.5 6.5t-37.5 2.5t-34.5 -2t-46.5 -6q-5 50 -16.5 102t-24.5 99q-5 17 -8 28.5t-7 28.5q-35 1 -70 1h-70q-37 0 -68 -0.5t-67 -1.5q-27 -35 -53 -70t-49 -68.5t-42.5 -63.5t-33.5 -55
q-35 8 -52 8q-9 0 -32.5 -4t-57.5 -9q67 83 140 173t147 181.5t146 182t138 174.5h46zM407 512q-19 -24 -36 -46t-34 -43.5t-34.5 -44t-38.5 -48.5q7 0 13.5 -0.5t12.5 -0.5q12 0 31.5 -0.5t31.5 -0.5h29h24.5t24 0.5t28.5 0.5zM531 789q7 26 33 44t57 18q35 0 54.5 -21
t11.5 -51q-6 -26 -32.5 -44t-56.5 -18q-35 0 -54.5 21t-12.5 51zM299 789q6 26 31.5 44t57.5 18q34 0 54 -21t13 -51q-7 -26 -33.5 -44t-57.5 -18q-35 0 -54 21t-11 51z" />
    <glyph glyph-name="Aring" unicode="&#xc5;" horiz-adv-x="826" 
d="M350 796q6 23 22 43t38.5 35t49.5 24t55 9q30 0 53.5 -9.5t39.5 -26t21.5 -38t-0.5 -46.5q-5 -19 -17 -36.5t-29 -32t-38.5 -25t-44.5 -14.5q9 -31 19 -68t20 -71q21 -76 44 -160t45 -160.5t40.5 -137.5t29.5 -91q-29 4 -52 6.5t-36 2.5q-14 0 -35 -2t-47 -6
q-5 54 -17.5 108.5t-26.5 106.5q-4 14 -6.5 21.5t-6.5 21.5q-35 1 -69 1h-70t-67.5 -0.5t-67.5 -1.5q-54 -70 -101.5 -138.5t-76.5 -118.5q-35 8 -51 8q-10 0 -34 -4t-58 -9q66 80 137 167.5t143 176.5t142.5 177.5t135.5 170.5q-47 9 -71 41.5t-13 75.5zM402 512
q-19 -24 -36 -46t-33.5 -43.5t-34.5 -44t-38 -48.5q7 0 13.5 -0.5t12.5 -0.5q12 0 31 -0.5t31 -0.5h29h24.5t24 0.5t29.5 0.5zM436 787q-2 -14 9 -23.5t30 -9.5q24 0 44 12.5t24 29.5q3 14 -8 24t-30 10q-25 0 -44.5 -12.5t-24.5 -30.5z" />
    <glyph glyph-name="AE" unicode="&#xc6;" horiz-adv-x="1027" 
d="M291 238q-63 -61 -118.5 -121t-109.5 -124q-17 3 -30 5t-23 2q-11 0 -41 -4t-74 -10q46 41 104 93.5t122 112.5t132.5 124.5t136 128.5t132 125.5t120.5 115.5q49 -2 101.5 -3.5t103.5 -1.5q25 0 56 0.5t62.5 1.5t62 2.5t54.5 2.5q-14 -20 -21.5 -32.5t-8.5 -17.5
q-2 -8 -2 -22t2 -30q-21 3 -42.5 6.5t-52.5 6t-77 4t-117 1.5q-4 -13 -5 -21q-11 -32 -20 -65.5t-17 -65.5l1 1q-2 -9 -4 -15.5t-3.5 -12t-3.5 -11.5t-4 -16q58 0 96 0.5t63 1.5t40.5 2t29.5 2h9.5t16 0.5t16 0.5h9.5q-17 -25 -23 -36t-8 -15l1 2q-1 -5 0 -16t5 -26
q-4 0 -19.5 0.5t-19.5 0.5q-14 1 -28.5 2t-39 2t-63.5 1.5t-103 0.5q-5 -20 -10.5 -41t-10.5 -41q-9 -33 -15.5 -66.5t-14.5 -66.5q-1 -6 -1.5 -8.5t-0.5 -5t-1 -5.5t-2 -9q121 1 195 5.5t115 9.5q-16 -23 -23 -34.5t-8 -16.5q-3 -9 -3 -21t2 -27q-51 2 -111.5 4t-110.5 2
q-25 0 -54.5 -0.5t-60 -1.5t-60.5 -2t-56 -2q26 71 42.5 128t30.5 111zM609 550q-32 -32 -61.5 -60l-59 -56t-60 -57t-64.5 -62q48 -1 92.5 -1.5t93.5 -2.5z" />
    <glyph glyph-name="Ccedilla" unicode="&#xc7;" horiz-adv-x="777" 
d="M323 -13q-65 9 -118 31t-90.5 56.5t-57.5 81t-20 103.5q0 20 3 41.5t8 44.5q21 84 71 149.5t122 111t162 69t191 23.5q79 0 151.5 -16t128.5 -39q-26 -26 -36.5 -44t-18.5 -32q-2 -4 -5.5 -12.5t-5.5 -11.5l-28 -2q-9 11 -26 25.5t-41.5 27.5t-56 22t-70.5 9
q-67 0 -128.5 -17t-112.5 -52.5t-88.5 -90t-56.5 -129.5q-12 -47 -12 -87q0 -50 18 -86.5t50.5 -60t78 -35t99.5 -11.5q39 0 77.5 9t72.5 21.5t62.5 27t49.5 25.5l23 -23l-32 -73q-14 -8 -41.5 -18.5t-64 -19.5t-79.5 -15.5t-89 -6.5h-5q-6 -8 -11 -15q56 0 81.5 -25
t16.5 -66q-6 -23 -23 -40.5t-41.5 -29.5t-54 -18.5t-60.5 -6.5q-38 0 -73 9t-60 17l49 61q16 -5 39.5 -9.5t49.5 -4.5q24 0 42 7t21 19q2 8 -8 11t-25 3q-18 0 -32.5 -3t-23.5 -7l-28 27z" />
    <glyph glyph-name="Egrave" unicode="&#xc8;" horiz-adv-x="491" 
d="M33 428q14 60 27.5 129.5t24.5 129.5q54 -2 113.5 -4t113.5 -2q27 0 58.5 0.5t63.5 1.5t63.5 2t57.5 2q-9 -19 -14.5 -31.5t-7.5 -16.5q-3 -10 -4 -22.5t-1 -26.5q-17 1 -41 2.5t-38 2.5q-25 2 -47.5 3.5t-49 3t-59 2t-77.5 0.5q-6 -18 -10 -34q-6 -17 -11 -34.5
t-10 -37.5q-8 -28 -14 -55t-11 -47q97 0 172.5 4t126.5 8q-8 -19 -15.5 -34t-8.5 -20l-1 -1q-2 -6 -1.5 -9t-0.5 -8q0 -6 -0.5 -16.5t-0.5 -11.5q-34 3 -74.5 5.5t-80.5 3.5t-75.5 1.5t-59.5 0.5q-4 -15 -11 -42l-21 -81q-7 -27 -11.5 -45.5t-7.5 -32l-5 -22.5t-3 -18
q38 0 80.5 0.5t85.5 2t85 5t79 9.5q-8 -18 -15.5 -35.5t-8.5 -22.5q-2 -5 -1.5 -9t-0.5 -9q0 -4 -0.5 -13.5t-0.5 -11.5q-52 2 -114 4t-116 2q-27 0 -57.5 -0.5t-62 -1.5l-63 -2t-58.5 -2q10 31 20.5 66t21 70.5t20 70t17.5 64.5zM191 783q-8 5 -16.5 11t-14.5 13.5
t-8.5 17.5t0.5 24q3 10 10.5 18t17 14t19 9t17.5 3q18 0 33 -8t28 -20l171 -174h-100z" />
    <glyph glyph-name="Eacute" unicode="&#xc9;" horiz-adv-x="491" 
d="M23 428q15 60 28.5 129.5t24.5 129.5q54 -2 113 -4t113 -2q27 0 58.5 0.5t63.5 1.5t63.5 2t57.5 2q-9 -19 -14.5 -31.5t-7.5 -16.5q-3 -10 -4 -22.5t-1 -26.5q-8 0 -18.5 1t-21.5 1.5t-21.5 1.5t-17.5 1q-25 2 -47.5 3.5t-49 3t-59 2t-77.5 0.5q-3 -9 -5 -17t-5 -17
q-6 -17 -11 -34.5t-10 -37.5q-7 -28 -13.5 -55t-11.5 -47q97 0 172.5 4t126.5 8q-8 -19 -15 -34t-9 -20l-1 -1q-2 -6 -1.5 -9t-0.5 -8q0 -6 -0.5 -16.5t-0.5 -11.5q-34 3 -74.5 5.5t-80.5 3.5t-75.5 1.5t-59.5 0.5q-4 -15 -11 -42l-21 -81q-7 -27 -11.5 -45.5t-7.5 -32
l-5 -22.5t-3 -18q38 0 80.5 0.5t85.5 2t85 5t79 9.5q-8 -18 -15.5 -35.5t-8.5 -22.5q-2 -5 -1.5 -9t-0.5 -9v-25q-53 2 -114.5 4t-115.5 2q-27 0 -58 -0.5t-62.5 -1.5l-63 -2t-58.5 -2q10 31 20.5 66t21 70.5t20 70t17.5 64.5zM428 867q17 12 35 19t35 7q9 0 19.5 -3.5
t18 -10.5t11.5 -17t1 -23q-6 -21 -26.5 -35t-38.5 -22q-48 -22 -99.5 -45t-99.5 -46h-116z" />
    <glyph glyph-name="Ecircumflex" unicode="&#xca;" horiz-adv-x="498" 
d="M33 428q14 60 27.5 129.5t24.5 129.5q53 -2 113 -4t114 -2q27 0 58 0.5t63.5 1.5t63.5 2t58 2q-9 -19 -14.5 -31.5t-7.5 -16.5q-3 -10 -4 -22.5t-1 -26.5q-8 0 -18.5 1t-21.5 1.5t-21.5 1.5t-17.5 1q-25 2 -47.5 3.5t-49 3t-59 2t-77.5 0.5q-3 -11 -6 -21t-6 -19
q-5 -16 -9.5 -31.5t-9.5 -34.5q-8 -28 -14 -55t-11 -47q97 0 172 4t126 8q0 -1 -2.5 -6l-5.5 -11l-5.5 -11l-2.5 -5q-2 -4 -2.5 -7.5t-2.5 -7.5t-3 -8q-2 -6 -1.5 -8.5t-0.5 -7.5q0 -6 -0.5 -16.5t-0.5 -11.5q-34 3 -75 5.5t-81 3.5t-75.5 1.5t-59.5 0.5q-3 -12 -7 -28.5
t-13 -50.5l1 1q-2 -10 -5 -21t-7 -24q-13 -51 -19 -76.5t-8 -41.5q38 0 80.5 0.5t85.5 2t85 5t79 9.5q-9 -21 -16 -37t-9 -22l1 2q-2 -7 -2.5 -18.5t-0.5 -25.5q-52 2 -114 4t-116 2q-27 0 -58 -0.5t-62.5 -1.5t-62.5 -2t-58 -2q10 31 20.5 66t21 70.5t20 70t17.5 64.5z
M344 786q-40 -24 -80 -47.5t-79 -47.5h-100l228 196h97l132 -196h-86z" />
    <glyph glyph-name="Edieresis" unicode="&#xcb;" horiz-adv-x="497" 
d="M38 428q14 60 27.5 129.5t25.5 129.5q53 -2 112.5 -4t113.5 -2q27 0 58.5 0.5t64 1.5t64 2t58.5 2q-14 -23 -19 -33l-6.5 -13t-0.5 -3t0 -3q-2 -7 -2.5 -16.5t1.5 -28.5q-8 0 -19.5 1t-23 1.5t-22 1.5t-17.5 1q-25 2 -47.5 3.5t-49 3t-59 2t-77.5 0.5q-2 -9 -5 -19
t-5 -18q-5 -17 -10.5 -33t-10.5 -36q-7 -26 -11.5 -49t-9.5 -43q-2 -9 -1.5 -6.5t-0.5 -3.5q96 1 168.5 4.5t123.5 7.5q0 -1 -2 -6.5t-4 -11.5t-4 -11t-2 -6q-2 -6 -4 -13t-4 -12q-1 -7 -1.5 -16.5t-0.5 -23.5q-34 3 -75 5.5t-81 3.5t-75.5 1.5t-59.5 0.5q-3 -12 -7 -28.5
t-12 -50.5v1q-2 -10 -5 -21t-7 -24q-13 -51 -18.5 -76.5t-8.5 -41.5q78 0 165 2t163 12q-7 -17 -14 -33.5t-9 -21.5l1 1q-2 -7 -2.5 -18.5t-0.5 -25.5q-52 2 -114 4t-116 2q-27 0 -58 -0.5t-62.5 -1.5t-62.5 -2t-58 -2l19 63q15 51 30.5 104t28.5 104zM149 789q7 26 32.5 44
t57.5 18q34 0 54 -21t13 -51q-6 -26 -33 -44t-58 -18q-35 0 -54 21t-12 51zM383 789q6 26 31.5 44t57.5 18q34 0 54 -21t13 -51q-7 -26 -33.5 -44t-57.5 -18q-35 0 -54 21t-11 51z" />
    <glyph glyph-name="Igrave" unicode="&#xcc;" horiz-adv-x="310" 
d="M130 427q15 60 28.5 130.5t24.5 131.5q24 -4 42.5 -6t30.5 -2q11 0 33.5 2.5t52.5 7.5q-1 -3 -3.5 -11t-5.5 -17t-5.5 -17t-3.5 -11q-16 -54 -31.5 -109t-29.5 -109l-41 -163q-13 -51 -23 -102t-21 -102q-2 -10 -5.5 -28.5t-5.5 -29.5q-23 4 -41 6t-30 2q-14 0 -36 -2.5
t-50 -6.5q10 31 20.5 66t21 71t20 71t17.5 65zM139 783q-8 5 -16.5 11t-15 13.5t-9 17.5t0.5 24q3 10 10.5 18t17 14t19 9t17.5 3q18 0 33 -8t28 -20l171 -174h-99z" />
    <glyph glyph-name="Iacute" unicode="&#xcd;" horiz-adv-x="310" 
d="M38 427q15 60 28.5 130.5t24.5 131.5q24 -4 42.5 -6t30.5 -2q11 0 33.5 2.5t52.5 7.5q-1 -3 -3.5 -11t-5.5 -17t-5.5 -17t-3.5 -11q-16 -54 -31.5 -109t-29.5 -109l-41 -163q-13 -51 -23 -102l-20 -102q-2 -10 -6 -28.5t-6 -29.5q-23 4 -41 6t-29 2q-14 0 -36.5 -2.5
t-50.5 -6.5q10 31 21 66t21.5 71t20 71t17.5 65zM295 867v-1q16 12 34.5 19.5t34.5 7.5q9 0 19 -3.5t17.5 -10.5t11.5 -17t1 -23q-6 -21 -26.5 -35t-37.5 -22q-49 -22 -100.5 -45t-99.5 -46h-115z" />
    <glyph glyph-name="Icircumflex" unicode="&#xce;" horiz-adv-x="413" 
d="M138 427q15 60 29 130.5t25 131.5q23 -4 41.5 -6t30.5 -2q14 0 36 2.5t50 6.5q-1 -3 -3.5 -11t-5.5 -17l-5.5 -16.5l-3.5 -10.5q-16 -54 -32 -109t-30 -109l-40 -163q-16 -61 -30 -130.5t-25 -131.5q-23 4 -41.5 6t-30.5 2q-13 0 -34.5 -2.5t-49.5 -6.5q1 4 3.5 12.5
t5 17.5t5 17t3.5 12q16 54 31.5 107t29.5 107zM299 786q-40 -24 -80 -47.5t-79 -47.5h-100l229 196h96l132 -196h-86z" />
    <glyph glyph-name="Idieresis" unicode="&#xcf;" horiz-adv-x="392" 
d="M131 427q13 51 23 102l20 102q2 10 6 28.5t6 29.5q23 -4 41 -6t30 -2q14 0 36 2.5t50 6.5q-10 -31 -20.5 -66t-21 -70.5t-20.5 -70.5t-18 -66l-41 -163q-14 -60 -28 -130.5t-26 -131.5q-23 4 -41 6t-30 2q-14 0 -36.5 -2.5t-49.5 -6.5q1 3 3.5 11t5 17t5 16.5l3.5 10.5
q16 54 32 109t30 109zM326 789q7 26 33 44t57 18q35 0 54.5 -21t12.5 -51q-7 -26 -33.5 -44t-56.5 -18q-35 0 -54.5 21t-12.5 51zM94 789q6 26 31.5 44t57.5 18q34 0 54 -21t13 -51q-7 -26 -33.5 -44t-57.5 -18q-35 0 -54 21t-11 51z" />
    <glyph glyph-name="Eth" unicode="&#xd0;" horiz-adv-x="960" 
d="M168 427q15 60 28.5 129.5t25.5 130.5q45 -2 96.5 -4t96.5 -2q22 0 44 0.5t45 1.5l46 2t46 1q90 0 155 -16t107 -46.5t61.5 -74.5t19.5 -100q0 -23 -3.5 -47.5t-10.5 -52.5q-25 -99 -84.5 -166.5t-135 -109t-158.5 -60t-156 -18.5q-20 0 -40 0.5t-39 1.5q-20 1 -38.5 2
t-38.5 1q-41 0 -93.5 -2.5t-93.5 -4.5q9 31 20 65.5t21.5 70t20 70.5t17.5 65q3 12 6 21.5t5 18.5t4.5 18.5t5.5 22.5q-29 0 -60.5 -0.5t-61.5 -2.5q6 14 11 27t6 16q3 9 3 36q64 -3 120 -3zM261 254q-6 -25 -11.5 -47t-10 -43t-9 -43t-8.5 -46q26 -3 59.5 -5t70.5 -2
q62 0 127 13t122.5 46t103 89t68.5 143q12 48 12 87q0 48 -19.5 79t-54 49.5t-82.5 26t-105 7.5q-48 0 -92 -2.5t-80 -5.5q-14 -44 -26.5 -89t-24.5 -93q28 0 60 0.5l64 1t62.5 1t55.5 1.5q-15 -22 -21.5 -32t-7.5 -13q-1 -2 0 -12t3 -24q-55 2 -116 3t-118 1z" />
    <glyph glyph-name="Ntilde" unicode="&#xd1;" horiz-adv-x="810" 
d="M612 -17q-89 109 -194 224.5t-208 227.5q-8 9 -13.5 15t-10 11.5t-10 11.5t-13.5 15q-8 -26 -19 -66.5t-24 -93.5q-5 -20 -11.5 -49.5t-14 -62.5t-14.5 -67t-13.5 -65t-11 -55.5t-5.5 -37.5q-17 4 -31.5 6.5t-25.5 2.5q-7 0 -27 -3t-49 -8q6 14 17 43.5t24 68t27 83
t27.5 89t25 85.5t19.5 72q11 45 21 86.5t18 76.5t14 62t9 43h44q56 -63 117.5 -131.5t121.5 -134.5t115 -125t98 -103q15 61 30.5 125.5t30 127.5t27 122.5t21.5 110.5q17 -4 31.5 -6.5t23.5 -2.5q8 0 25.5 3t43.5 8q-10 -26 -26 -73.5t-32 -99.5t-30 -99.5t-21 -74.5
q-6 -24 -14.5 -57t-17.5 -70t-17.5 -74t-16.5 -69.5t-13.5 -56.5t-7.5 -35h-40zM277 715q10 23 27 47t39.5 43.5t50 32t59.5 12.5q23 0 40 -4.5t49 -18.5q27 -12 39.5 -16t25.5 -4q22 0 39.5 14.5t28.5 32.5h73q-7 -15 -21.5 -39t-37 -46t-53.5 -38t-70 -16q-36 0 -88 24
q-25 11 -38.5 15.5t-24.5 4.5q-22 0 -34.5 -9.5t-29.5 -34.5h-74z" />
    <glyph glyph-name="Ograve" unicode="&#xd2;" horiz-adv-x="981" 
d="M6 345q20 84 70 149.5t122 111t161.5 69t190.5 23.5h12.5t12.5 -1l-146 86q-9 5 -17.5 11t-15 13.5t-9 17.5t0.5 24q7 22 28 33t37 11q17 0 33.5 -7.5t27.5 -20.5h-1l40.5 -40.5t45.5 -46.5t45.5 -46.5l40.5 -40.5h-34q67 -9 120 -31.5t90.5 -56.5t57.5 -79.5t20 -101.5
q0 -20 -3 -41.5t-8 -44.5q-21 -84 -71.5 -149.5t-122 -110.5t-161.5 -69t-191 -24q-89 0 -160.5 18t-122 53.5t-77.5 86.5t-27 117q0 20 2.5 42t8.5 45zM775 345q6 23 9 45.5t3 42.5q0 50 -18 86t-50.5 59.5t-77.5 35t-99 11.5q-66 0 -127.5 -17t-112 -52.5t-88 -90
t-56.5 -129.5q-12 -47 -12 -88q0 -50 18 -86t50.5 -59.5t77.5 -35t98 -11.5q66 0 127.5 17t112.5 52.5t88.5 90t56.5 129.5z" />
    <glyph glyph-name="Oacute" unicode="&#xd3;" horiz-adv-x="981" 
d="M672 867q17 12 34.5 19t34.5 7q9 0 19.5 -3.5t18 -10.5t11.5 -17t0 -23q-6 -22 -25.5 -35t-37.5 -22l-186 -84h5q89 0 161 -18t122.5 -53.5t78 -87t27.5 -117.5q0 -20 -3 -41.5t-8 -44.5q-21 -84 -71.5 -149.5t-122 -110.5t-161.5 -69t-191 -24q-89 0 -160.5 18
t-122 53.5t-77.5 86.5t-27 117q0 20 2.5 42t8.5 45q18 73 58 132t97.5 103t130.5 72t156 39h-33zM771 345q6 23 9 45.5t3 42.5q0 50 -18 86t-50.5 59.5t-77.5 35t-99 11.5q-66 0 -127.5 -17t-112 -52.5t-88 -90t-56.5 -129.5q-12 -47 -12 -88q0 -50 18 -86t50.5 -59.5
t77.5 -35t98 -11.5q66 0 127.5 17t112.5 52.5t88.5 90t56.5 129.5z" />
    <glyph glyph-name="Ocircumflex" unicode="&#xd4;" horiz-adv-x="985" 
d="M7 345q20 84 70 149.5t122 111t161.5 69t190.5 23.5q89 0 161 -18t122.5 -53.5t78 -87t27.5 -117.5q0 -20 -3 -41.5t-8 -44.5q-21 -84 -71.5 -149.5t-122.5 -110.5t-162 -69t-191 -24q-89 0 -160.5 18t-122 53.5t-77.5 86.5t-27 117q0 40 12 87zM776 345q6 23 9 45.5
t3 42.5q0 50 -18 86t-50.5 59.5t-77.5 35t-99 11.5q-66 0 -127.5 -17t-112 -52.5t-88 -90t-56.5 -129.5q-12 -47 -12 -88q0 -50 18 -86t50.5 -59.5t77 -35t98.5 -11.5q66 0 127.5 17t112.5 52.5t88.5 90t56.5 129.5zM581 786q-40 -24 -79.5 -47.5t-78.5 -47.5h-100l230 196
h96l131 -196h-86z" />
    <glyph glyph-name="Otilde" unicode="&#xd5;" horiz-adv-x="985" 
d="M10 345q21 84 71.5 149.5t122 111t161 69t190.5 23.5q89 0 161 -18t122.5 -53.5t78 -86.5t27.5 -117q0 -20 -2.5 -42t-8.5 -45q-23 -82 -73.5 -147.5t-122.5 -111t-161 -70t-189 -24.5q-89 0 -160.5 18t-122 53.5t-78 87t-27.5 117.5q0 20 3 41.5t8 44.5zM780 345
q6 23 9 45.5t3 42.5q0 50 -18 86t-50.5 59.5t-77.5 35t-99 11.5q-66 0 -127.5 -17t-112 -52.5t-88 -90t-56.5 -129.5q-12 -47 -12 -88q0 -50 18 -86t50.5 -59.5t77 -35t98.5 -11.5q67 0 128.5 17t112 52.5t88 90t56.5 129.5zM346 715q10 23 27 47t39.5 43.5t50 32t59.5 12.5
q23 0 40 -4.5t49 -18.5q27 -12 39.5 -16t25.5 -4q22 0 39.5 14.5t28.5 32.5h73q-7 -15 -21.5 -39t-37 -46t-53 -38t-69.5 -16q-37 0 -88 24q-25 11 -39 15.5t-25 4.5q-22 0 -34.5 -9.5t-29.5 -34.5h-74z" />
    <glyph glyph-name="Odieresis" unicode="&#xd6;" horiz-adv-x="985" 
d="M10 345q21 84 71.5 149.5t122 111t161.5 69t191 23.5q89 0 161 -18t122.5 -53.5t77.5 -86.5t27 -117q0 -20 -2.5 -42t-8.5 -45q-22 -83 -72.5 -148t-122.5 -111t-161.5 -70t-189.5 -24q-89 0 -161 18.5t-122.5 53.5t-77.5 87t-27 118q0 20 3 41t8 44zM780 345
q12 46 12 88q0 49 -18 85.5t-50.5 60t-77.5 35t-99 11.5q-65 0 -126 -17.5t-112 -53.5t-89 -90.5t-57 -127.5q-12 -47 -12 -88q0 -50 18 -86t50.5 -59.5t77 -35t98.5 -11.5q67 0 128.5 17t112 52.5t88 90t56.5 129.5zM388 789q6 26 32 44t58 18q35 0 54 -21t12 -51
q-7 -26 -33 -44t-57 -18q-17 0 -31 5.5t-23 15.5t-12.5 23t0.5 28zM620 789q7 26 33.5 44t57.5 18q35 0 54 -21t12 -51q-7 -26 -33 -44t-56 -18q-35 0 -55 21t-13 51z" />
    <glyph glyph-name="multiply" unicode="&#xd7;" horiz-adv-x="628" 
d="M241 261q-42 42 -88 88.5t-86 86.5l83 56l174 -174q65 43 131.5 87.5t130.5 86.5l62 -62l-260 -176l173 -173l-83 -56l-175 174q-64 -43 -131 -88t-131 -87l-60 64z" />
    <glyph glyph-name="Oslash" unicode="&#xd8;" horiz-adv-x="997" 
d="M37 345q21 84 71.5 149.5t122.5 111t161.5 69t190.5 23.5q81 0 149.5 -16t117.5 -46q13 9 32 23.5t37.5 30t35 30t25.5 23.5q8 -13 27 -28.5t42 -26.5q-46 -21 -82 -46.5t-66 -46.5q34 -34 52.5 -77t18.5 -96q0 -40 -12 -86q-22 -83 -72.5 -148t-122.5 -111t-161.5 -70
t-189.5 -24q-81 0 -148.5 16t-115.5 45q-15 -11 -33 -24.5t-36.5 -28.5t-36 -30t-30.5 -28q-9 17 -26 30.5t-39 23.5q12 6 31 17.5t39.5 25t41 27.5t35.5 26q-34 34 -52 78t-18 98q0 22 2.5 42.5t7.5 42.5zM762 571q-32 29 -79.5 41.5t-108.5 12.5q-66 0 -127 -17
t-112 -52.5t-88.5 -90t-56.5 -129.5q-6 -23 -9 -45t-3 -42q0 -29 4.5 -50.5t14.5 -40.5zM239 108q32 -27 78.5 -39.5t104.5 -12.5q67 0 128.5 17t112 52.5t88 90t56.5 129.5q12 46 12 88q0 52 -18 88z" />
    <glyph glyph-name="Ugrave" unicode="&#xd9;" horiz-adv-x="791" 
d="M634 364q16 67 28.5 118t21.5 90t14 67.5t7 50.5q20 -4 36.5 -6.5t27.5 -2.5t27.5 3t39.5 8q-12 -33 -29 -83.5t-35 -108.5t-36 -118t-32 -112q-18 -65 -55.5 -118t-91.5 -90.5t-123.5 -58t-151.5 -20.5q-155 0 -228.5 49t-73.5 152q0 20 3 43.5t11 49.5q5 23 11.5 45.5
t12.5 41.5q5 14 9 27.5t8 34.5q17 63 28.5 116.5t19.5 94.5q2 9 4.5 26.5t4.5 25.5q21 -4 42 -6t35 -2q12 0 33.5 2.5t48.5 7.5q-11 -28 -24.5 -67.5t-27.5 -86t-28.5 -97.5t-27.5 -102q-8 -33 -15.5 -68t-7.5 -69q0 -28 8.5 -52.5t30.5 -43t59.5 -29.5t96.5 -11
q61 0 106.5 14.5t78.5 38t55.5 54.5t37.5 64t24.5 66.5t16.5 61.5zM339 783q-9 5 -17.5 11t-15 13.5t-9 17.5t0.5 24q7 22 28 33t37 11q17 0 33.5 -7.5t27.5 -20.5h-1q17 -18 39.5 -40.5t46 -46.5t46 -46.5t39.5 -40.5h-99z" />
    <glyph glyph-name="Uacute" unicode="&#xda;" horiz-adv-x="790" 
d="M627 364q16 67 28.5 118t21.5 90t14 67.5t7 50.5q20 -4 36.5 -6.5t27.5 -2.5t27.5 3t39.5 8q-12 -33 -29 -83.5t-35 -108.5t-36 -118t-32 -112q-18 -65 -55.5 -118t-91.5 -90.5t-123.5 -58t-151.5 -20.5q-155 0 -228.5 49t-73.5 152q0 20 3 43.5t11 49.5q5 22 11.5 43.5
t11.5 39.5q5 17 10 33.5t9 33.5q17 63 28 116t19 94q2 9 4.5 26.5t4.5 25.5q21 -4 42 -6t35 -2q12 0 33.5 2.5t48.5 7.5q-11 -28 -24.5 -67.5t-27.5 -86t-28.5 -97.5t-27.5 -102q-8 -33 -15.5 -68t-7.5 -69q0 -28 8.5 -52.5t30.5 -43t59.5 -29.5t96.5 -11q61 0 106.5 14.5
t78.5 38t55.5 54.5t37.5 64t24.5 66.5t16.5 61.5zM579 867q17 12 34.5 19t34.5 7q9 0 19 -3.5t18 -10.5t12 -17t0 -23q-6 -22 -26 -35t-37 -22l-201 -91h-115z" />
    <glyph glyph-name="Ucircumflex" unicode="&#xdb;" horiz-adv-x="795" 
d="M490 786q-40 -24 -80 -47.5t-79 -47.5h-80q-11 -28 -24.5 -67.5t-27.5 -86t-28.5 -97.5t-27.5 -102q-8 -33 -15.5 -68t-7.5 -69q0 -28 8.5 -52.5t30.5 -43t59.5 -29.5t96.5 -11q61 0 106.5 14.5t78.5 38t55.5 54.5t37.5 64t24.5 66.5t16.5 61.5q16 67 28.5 118t21.5 90
t14 67.5t7 50.5q20 -4 36 -6.5t27 -2.5t28 3t40 8q-12 -33 -29 -83.5t-35 -108.5t-36 -118t-32 -112q-18 -65 -55.5 -118t-91.5 -90.5t-124 -58t-152 -20.5q-155 0 -228 49t-73 152q0 20 3 43.5t11 49.5q5 23 11.5 45.5t12.5 41.5q5 14 9 27.5t8 34.5q17 68 29 124t20 98
q2 6 5 20.5t5 20.5q21 -4 41.5 -6t32.5 -2t34 2.5t49 7.5h-19l230 196h95l132 -196h-86z" />
    <glyph glyph-name="Udieresis" unicode="&#xdc;" horiz-adv-x="796" 
d="M638 364q17 66 29.5 117t21 90t13.5 68t6 51q20 -4 37 -6.5t28 -2.5q9 0 26.5 3.5t40.5 8.5q-12 -33 -29 -84t-35 -109t-35.5 -118t-31.5 -112q-18 -65 -55.5 -118t-91.5 -90.5t-124 -58t-152 -20.5q-155 0 -228.5 49t-73.5 152q0 39 14 93v-1q7 31 13.5 51t11.5 39
q5 16 9.5 30.5t8.5 30.5q9 38 17.5 76t16 72.5t13 64t9.5 49.5q23 -4 43.5 -6t32.5 -2q11 0 33 3t49 8q-11 -28 -24 -68t-27.5 -87t-28.5 -98t-27 -101q-8 -33 -15.5 -68t-7.5 -69q0 -28 8.5 -52.5t30.5 -43t59.5 -29.5t96.5 -11q61 0 106 14.5t78 38t55.5 54.5t37.5 64
t24.5 66.5t16.5 61.5zM297 789q6 26 32 44t57 18q35 0 54.5 -21t12.5 -51q-7 -26 -33.5 -44t-56.5 -18q-35 0 -54.5 21t-11.5 51zM529 789q7 26 33 44t58 18q35 0 54 -21t11 -51q-6 -26 -32 -44t-57 -18q-34 0 -54 21t-13 51z" />
    <glyph glyph-name="Yacute" unicode="&#xdd;" horiz-adv-x="724" 
d="M172 -9q26 70 46.5 143.5t38.5 146.5q-9 19 -24.5 51t-35 71.5t-41 82t-41.5 82t-37 72t-28 51.5q34 -5 60 -7.5t39 -2.5q14 0 35 2t45 5q30 -81 62.5 -156.5t72.5 -159.5q36 34 74 73.5t76 80.5t74.5 82.5t68.5 79.5q16 -3 28.5 -5t22.5 -2t38.5 4.5t70.5 11.5
q-86 -80 -153 -144t-119 -114.5t-89.5 -88.5t-62.5 -66q-8 -34 -17 -73.5t-17 -79t-15 -76t-11 -63.5q-24 4 -42.5 6t-30.5 2t-35 -2.5t-53 -6.5zM547 858v-1q17 11 35.5 19t34.5 8q9 0 19 -3.5t17.5 -10.5t11.5 -17t1 -23q-6 -24 -26 -36.5t-39 -20.5l-199 -91h-116z" />
    <glyph glyph-name="Thorn" unicode="&#xde;" horiz-adv-x="582" 
d="M66 427q15 60 29 130.5t26 131.5q24 -4 42 -6t29 -2q14 0 37 2.5t51 6.5l-13 -37q-5 -15 -9.5 -25.5t-8 -20t-7 -20t-6.5 -25.5h121q112 0 175 -34t63 -108q0 -11 -1 -22t-5 -24q-15 -55 -52 -92t-86 -59.5t-105.5 -32t-110.5 -9.5q-32 0 -50.5 0.5t-43.5 2.5
q-2 -9 -5 -19.5t-5 -18.5q-9 -40 -17 -81.5t-5 -73.5q-26 4 -45.5 6.5t-30.5 2.5q-12 0 -34.5 -2.5t-51.5 -6.5q9 31 19.5 66t21 71t20 71t17.5 65zM158 254h69q35 0 70.5 7.5t65 23t51.5 40t30 57.5q3 12 3 25q0 16 -7 31t-23.5 26t-43 18t-65.5 7h-90z" />
    <glyph glyph-name="germandbls" unicode="&#xdf;" horiz-adv-x="620" 
d="M48 408q8 29 12.5 51.5t7.5 38.5v-1q2 8 3 14t2 10q15 63 50 107t79.5 71.5t92.5 40t90 12.5q30 0 61 -10t55.5 -27t38 -41.5t9.5 -52.5q-6 -23 -19 -42t-29.5 -36.5t-36 -32.5t-37.5 -29q-26 -18 -45 -34.5t-24 -30.5q-2 -17 21 -35.5t53 -35.5q24 -14 48 -30t42 -36
t26 -45t1 -57q-8 -33 -36.5 -67t-69.5 -61.5t-89.5 -45t-97.5 -17.5q-41 0 -78.5 10t-65.5 26q17 17 31.5 39.5t20.5 39.5h32q8 -17 34.5 -29.5t57.5 -12.5q22 0 44 6t40.5 17t32 27t18.5 36q4 17 -2.5 32t-20 28.5t-31.5 26t-36 23.5q-21 13 -40.5 27.5t-34 32t-22 37
t-2.5 41.5q9 29 37 54.5t63 51.5q18 13 36.5 27t34.5 29t27 31t16 34q8 27 -12 45.5t-63 18.5q-73 0 -112.5 -47t-62.5 -133q-14 -55 -27.5 -111t-27.5 -111q-8 -31 -17 -69t-17 -77t-15.5 -76.5t-11.5 -68.5q-22 4 -39.5 6.5t-28.5 2.5t-31.5 -2.5t-49.5 -6.5q11 32 23 71
t23.5 79t22 79t18.5 71z" />
    <glyph glyph-name="agrave" unicode="&#xe0;" horiz-adv-x="569" 
d="M90 434q68 35 119 48t101 13q84 0 132 -34.5t48 -94.5q0 -8 -1 -17t-4 -18q-6 -24 -13 -50t-14 -51q-8 -28 -16.5 -59.5t-16.5 -60.5q-2 -8 -3.5 -16.5t-1.5 -16.5q0 -13 16 -13q4 0 12 2t37 13l-11 -65q-20 -5 -46.5 -11.5t-50.5 -6.5q-34 0 -54.5 13t-27.5 32
q-23 -15 -44.5 -25t-43.5 -17t-46 -10t-53 -3q-34 0 -64 10t-51 28t-30 44t-1 58q16 64 72 98.5t141 45.5q62 7 97 12.5t52.5 10.5t22.5 12t8 17v-1q1 7 2 14.5t1 16.5q0 29 -19.5 47t-67.5 18q-43 0 -85 -16.5t-71 -47.5h-45zM202 621q-8 4 -16.5 10t-14.5 13.5t-8.5 17.5
t0.5 24q3 10 10.5 18t17 14t19 9t17.5 3q17 0 32 -8t29 -20l170 -173h-99zM330 228q-11 -2 -21 -3.5t-21 -3.5q-30 -4 -61 -9.5t-57.5 -15t-46 -25.5t-25.5 -41q-8 -33 12 -50t50 -17q39 0 76.5 17t62.5 40z" />
    <glyph glyph-name="aacute" unicode="&#xe1;" horiz-adv-x="565" 
d="M77 434q68 35 119 48t101 13q84 0 132 -34.5t48 -94.5q0 -8 -1 -17t-4 -18q-6 -24 -13 -50t-14 -51q-8 -28 -16 -59.5t-16 -60.5q-2 -8 -4 -16.5t-2 -16.5q0 -13 16 -13q4 0 12.5 2t36.5 13l-11 -65l-46 -11.5t-50 -6.5q-35 0 -55 13t-28 32q-46 -29 -87.5 -42t-99.5 -13
q-34 0 -64 10t-51 28t-30 44t-1 58q16 64 72 98.5t141 45.5q63 7 98 12.5t52 10.5t22 12t8 17v-1q2 7 3 14.5t1 16.5q0 29 -19.5 47t-67.5 18q-44 0 -86 -16.5t-71 -47.5h-45zM437 705v-1q17 11 35.5 18.5t33.5 7.5q9 0 19.5 -3.5t18 -10.5t11.5 -17t1 -23
q-6 -21 -26.5 -34.5t-38.5 -21.5q-48 -23 -99 -46t-99 -45h-117zM317 228q-11 -2 -21 -3.5t-20 -3.5q-30 -4 -61 -9.5t-58 -15t-46.5 -25.5t-25.5 -41q-8 -33 12 -50t50 -17q39 0 76.5 17t62.5 40z" />
    <glyph glyph-name="acircumflex" unicode="&#xe2;" horiz-adv-x="571" 
d="M87 434q68 35 119 48t101 13q84 0 132.5 -34.5t48.5 -94.5q0 -8 -1 -17t-4 -18q-7 -25 -14 -51t-15 -51l-16 -58t-16 -60v1q-5 -18 -5 -34q0 -6 3 -10t14 -4q3 0 12.5 2t41.5 15l-19 -68q-18 -5 -44 -11t-50 -6q-34 0 -54 13.5t-28 32.5q-23 -15 -44.5 -25.5t-44 -17
t-47 -10t-53.5 -3.5q-34 0 -63.5 10t-50.5 28t-29.5 44t-0.5 58q16 64 72 98.5t141 45.5q62 7 97 12.5t52.5 10.5t22.5 12t7 17v-1q2 7 3 14.5t1 16.5q0 29 -19.5 47t-67.5 18q-44 0 -85.5 -16.5t-70.5 -47.5h-45zM352 624q-40 -24 -80.5 -48t-79.5 -47h-99l230 196h96
l131 -196h-86zM328 228q-11 -2 -21.5 -3.5t-20.5 -3.5q-29 -4 -59.5 -10t-57.5 -16.5t-47 -26t-27 -38.5q-3 -16 0.5 -28.5t12.5 -21t22 -13t27 -4.5q39 0 76.5 17t63.5 40z" />
    <glyph glyph-name="atilde" unicode="&#xe3;" horiz-adv-x="578" 
d="M95 434q68 35 119.5 48t101.5 13q84 0 132 -34.5t48 -94.5q0 -8 -1 -17t-4 -18q-7 -24 -13.5 -50t-14.5 -51q-8 -28 -16 -59.5t-16 -60.5q-5 -18 -5 -33q0 -5 3 -9t13 -4q3 0 11.5 2t37.5 13l-12 -65q-19 -5 -45.5 -11.5t-50.5 -6.5q-34 0 -54.5 13t-27.5 32
q-23 -15 -44.5 -25t-44 -17t-47 -10t-53.5 -3q-34 0 -63.5 10t-50.5 28t-29.5 44t-0.5 58q16 64 72 98.5t141 45.5q62 7 97 12.5t52.5 10.5t22.5 12t7 17v-1q2 7 3 14.5t1 16.5q0 29 -19.5 47t-67.5 18q-44 0 -85.5 -16.5t-70.5 -47.5h-45zM120 552q11 23 28 47.5t39.5 44
t50 32t59.5 12.5q23 0 39.5 -5.5t48.5 -18.5q27 -11 39.5 -15.5t25.5 -4.5q22 0 39.5 14.5t29.5 32.5h73q-7 -15 -21.5 -39t-37.5 -46t-54 -38t-70 -16q-36 0 -87 24q-26 11 -39.5 15.5t-24.5 4.5q-21 0 -33.5 -9t-29.5 -35h-75zM336 228q-11 -2 -21.5 -3.5t-20.5 -3.5
q-30 -4 -61 -9.5t-57.5 -15t-46 -25.5t-25.5 -41q-4 -17 -0.5 -29.5t12.5 -20.5t21.5 -12.5t27.5 -4.5q39 0 76.5 17t62.5 40z" />
    <glyph glyph-name="adieresis" unicode="&#xe4;" horiz-adv-x="577" 
d="M95 434q68 35 119 48t101 13q83 0 131 -34.5t48 -94.5q0 -8 -0.5 -17t-3.5 -18v1q-7 -28 -15 -55.5t-16 -56.5q-7 -26 -14 -54t-15 -55v1q-2 -8 -4 -16.5t-2 -17.5q0 -6 3.5 -10t14.5 -4q1 0 4 0.5t8.5 2t15 5t25.5 9.5l-18 -68q-18 -5 -44 -11t-50 -6q-35 0 -54.5 13.5
t-27.5 32.5q-23 -15 -44.5 -25.5t-44 -17t-47 -10t-53.5 -3.5q-34 0 -63.5 10t-50.5 28t-29.5 44t-0.5 58q15 64 71 98.5t142 45.5q62 7 97 12.5t52.5 10.5t22 11.5t6.5 16.5q2 7 3 15t1 17q0 28 -19.5 46t-66.5 18q-44 0 -86 -16.5t-70 -47.5h-46zM336 228q-11 -2 -22 -3.5
t-21 -3.5q-30 -4 -61 -9.5t-57.5 -15.5t-46 -25.5t-25.5 -40.5q-4 -17 -0.5 -29.5t12.5 -20.5t21.5 -12.5t27.5 -4.5q40 0 77.5 17t62.5 40zM394 626q7 26 32.5 44.5t57.5 18.5q34 0 54 -21.5t13 -50.5q-6 -26 -33 -44.5t-58 -18.5q-35 0 -54 21t-12 51zM162 626
q6 26 32 44.5t57 18.5q35 0 54.5 -21.5t12.5 -50.5q-7 -26 -33.5 -44.5t-56.5 -18.5q-35 0 -54.5 21t-11.5 51z" />
    <glyph glyph-name="aring" unicode="&#xe5;" horiz-adv-x="571" 
d="M83 434q68 35 119 48t101 13q84 0 132 -34.5t48 -94.5q0 -8 -1 -17t-4 -18q-6 -24 -13 -50t-14 -51q-8 -28 -16 -59.5t-16 -60.5q-2 -8 -4 -16.5t-2 -16.5q0 -13 16 -13q4 0 12 2t37 13l-11 -65l-46 -11.5t-51 -6.5q-34 0 -54 13t-28 32q-46 -29 -87.5 -42t-99.5 -13
q-34 0 -64 10t-51 28t-30 44t-1 58q16 64 72 98.5t141 45.5q62 7 97 12.5t52.5 10.5t22.5 12t8 17v-1q3 13 3 31q0 29 -19.5 47t-67.5 18q-43 0 -85 -16.5t-71 -47.5h-45zM207 634q6 22 21.5 42t37.5 35t48.5 24t54.5 9q30 0 54.5 -9.5t40 -25.5t21.5 -38t0 -47
q-6 -23 -21.5 -43t-37.5 -35t-49.5 -23.5t-55.5 -8.5q-30 0 -53.5 9.5t-39.5 26t-21.5 38t0.5 46.5zM323 228q-11 -2 -21 -3.5t-21 -3.5q-30 -4 -61 -9.5t-57.5 -15t-46 -25.5t-25.5 -41q-8 -33 12 -50t50 -17q39 0 76.5 17t62.5 40zM292 624q-3 -14 8 -23.5t31 -9.5
q25 0 44 12.5t24 30.5q3 14 -8 23.5t-31 9.5q-24 0 -43.5 -12.5t-24.5 -30.5z" />
    <glyph glyph-name="ae" unicode="&#xe6;" horiz-adv-x="962" 
d="M139 434q68 35 119 48t101 13q19 0 41 -2.5t44 -10t42 -20t36 -31.5q41 30 89.5 47t104.5 17q57 0 99 -12.5t69 -35t40 -53t13 -65.5q0 -12 -1 -25t-5 -27l-15 -50q-22 0 -50.5 0.5t-50.5 0.5q-42 1 -83 1.5t-83 0.5q-26 0 -52 -0.5t-52 -1.5q-10 0 -19.5 -0.5
t-19.5 -0.5q-1 -4 -1.5 -6.5t-1.5 -5.5q-5 -20 -5 -40q0 -49 37 -80.5t111 -31.5q22 0 48 6t52 15.5t51 23t46 28.5l24 -22l-24 -66q-23 -12 -50.5 -23.5t-57.5 -20t-60.5 -13.5t-59.5 -5q-79 0 -136 24t-83 71q-17 -19 -39.5 -36.5t-51.5 -30.5t-66 -20.5t-83 -7.5
q-35 0 -64.5 10t-50.5 28t-30 44t-1 58q16 64 72.5 98.5t142.5 45.5q62 7 96.5 12.5t51.5 10.5t22 12t8 17v-1q2 7 3 14.5t1 16.5q0 28 -19.5 46.5t-66.5 18.5q-44 0 -86.5 -16.5t-70.5 -47.5h-45zM711 427q-37 0 -66.5 -11.5t-51.5 -29.5t-37 -40.5t-24 -45.5h19
q26 -1 53 -1.5t53 -0.5q27 0 54.5 0.5t54.5 1.5q12 0 17.5 0.5t16.5 0.5q2 10 3.5 20t1.5 21q0 16 -4.5 31.5t-15 27.5t-28.5 19t-46 7zM147 130q-8 -30 11.5 -48.5t59.5 -18.5q21 0 42.5 5.5t41 16.5t34.5 27t22 38q5 16 8.5 30.5t8.5 30.5q1 6 1 7v1.5v1.5t2 7
q-11 -2 -21 -3.5t-20 -3.5q-30 -4 -61 -9.5t-57.5 -15t-46 -25.5t-25.5 -41z" />
    <glyph glyph-name="ccedilla" unicode="&#xe7;" horiz-adv-x="564" 
d="M135 -124q16 -5 39.5 -10t49.5 -5q23 0 41.5 6.5t20.5 18.5q2 8 -8 11.5t-25 3.5q-17 0 -31.5 -3t-24.5 -8l-27 28l52 73q-40 6 -75 19.5t-60.5 36.5t-40.5 56t-15 77q0 29 9 65q18 63 57 110t91 78t112 46.5t119 15.5q34 0 66 -5t59 -13.5t48 -19t33 -21.5
q-15 -19 -29.5 -39.5t-27.5 -43.5h-34q-5 12 -15 25t-25.5 24t-35.5 18t-44 7q-49 0 -87.5 -15t-67.5 -40.5t-48.5 -60.5t-30.5 -75q-3 -15 -5 -30t-2 -30q0 -113 145 -113q22 0 47.5 6t51.5 15.5t51 23t46 28.5l26 -23q-7 -14 -12 -26.5t-10 -24.5q-1 -1 -2.5 -6t-2.5 -7
q-41 -23 -95.5 -41t-106.5 -21l-9 -13q54 -1 79 -25.5t16 -65.5q-6 -24 -22.5 -41.5t-41 -29.5t-54.5 -18t-61 -6q-39 0 -74 9t-60 17z" />
    <glyph glyph-name="egrave" unicode="&#xe8;" horiz-adv-x="607" 
d="M-6 232q15 61 45.5 109.5t75.5 82.5t103 52.5t127 18.5q57 0 98.5 -12.5t68.5 -35t40 -53t13 -65.5q0 -26 -7 -55l-3.5 -10.5l-3.5 -10.5q-2 -5 -4 -14.5t-3 -11.5q-22 0 -50.5 0.5t-50.5 0.5q-42 1 -83 1.5t-83 0.5q-26 0 -51.5 -0.5t-51.5 -1.5q-13 0 -19.5 -0.5
t-19.5 -0.5q-2 -4 -2.5 -7t-1.5 -5q-2 -10 -3 -20t-1 -20q0 -49 37 -80.5t111 -31.5q22 0 47.5 6t51.5 15.5t51 23t46 28.5l24 -22l-24 -66q-23 -12 -50 -23.5t-56.5 -20t-60.5 -13.5t-60 -5q-60 0 -108 14.5t-81 40t-50.5 61t-17.5 78.5q0 25 7 52zM339 427
q-37 0 -66 -11.5t-51 -29.5t-37 -40.5t-24 -45.5h16q27 -1 55 -1.5t54 -0.5t53 0.5t54 1.5q13 0 18.5 0.5t17.5 0.5q2 10 3 19.5t1 20.5q0 17 -4.5 32.5t-15 27.5t-28.5 19t-46 7zM235 621q-8 4 -16.5 10t-14.5 13.5t-8.5 17.5t0.5 24q3 10 10.5 18t17 14t19 9t17.5 3
q18 0 32.5 -8t28.5 -20l170 -173h-99z" />
    <glyph glyph-name="eacute" unicode="&#xe9;" horiz-adv-x="607" 
d="M-5 232q15 61 45.5 109.5t75.5 82.5t103 52.5t127 18.5q57 0 99 -12.5t69 -35t40 -53t13 -65.5q0 -12 -2 -25.5t-6 -29.5l-3.5 -10.5l-3.5 -10.5q-2 -5 -4 -14.5t-3 -11.5q-22 0 -50.5 0.5t-49.5 0.5q-42 1 -83.5 1.5t-83.5 0.5q-26 0 -51.5 -0.5t-51.5 -1.5
q-13 0 -19.5 -0.5t-19.5 -0.5q-2 -4 -2.5 -7t-1.5 -5q-2 -10 -3 -20t-1 -20q0 -49 37 -80.5t111 -31.5q22 0 47.5 6t51.5 15.5t51 23t46 28.5l25 -22l-25 -66q-23 -12 -50 -23.5t-56.5 -20t-60.5 -13.5t-60 -5q-60 0 -107.5 14.5t-80.5 40t-50.5 61t-17.5 78.5q0 12 1 25
t5 27zM484 705v-1q17 11 35 18.5t34 7.5q9 0 19.5 -3.5t18 -10.5t11 -17t0.5 -23q-5 -21 -25.5 -34.5t-38.5 -21.5q-48 -23 -99 -46t-99 -45h-117zM340 427q-37 0 -66 -11.5t-51 -29.5t-37 -40.5t-24 -45.5h16q27 -1 55 -1.5t54 -0.5t53 0.5t54 1.5q13 0 18.5 0.5t17.5 0.5
q2 10 3 19.5t1 20.5q0 17 -4.5 32.5t-15 27.5t-28.5 19t-46 7z" />
    <glyph glyph-name="ecircumflex" unicode="&#xea;" horiz-adv-x="613" 
d="M-2 232q15 61 45.5 109.5t75.5 82.5t103 52.5t127 18.5q57 0 99 -12.5t69 -35t40 -53t13 -65.5q0 -25 -7 -52l-15 -50q-21 0 -50 0.5t-50 0.5q-42 1 -83.5 1.5t-83.5 0.5q-26 0 -51.5 -0.5t-51.5 -1.5q-13 0 -19.5 -0.5t-19.5 -0.5l-3 -12q-5 -22 -5 -40q0 -49 37 -80.5
t112 -31.5q22 0 47 5.5t50.5 15t49.5 22t44 27.5l31 -15l-28 -70q-45 -25 -106 -43.5t-121 -18.5t-107.5 14.5t-80.5 40.5t-50.5 61.5t-17.5 78.5q0 24 7 51zM392 624q-40 -24 -80.5 -48t-79.5 -47h-99l230 196h96l131 -196h-86zM343 427q-37 0 -66 -11.5t-51 -29.5
t-37.5 -40.5t-24.5 -45.5h18q27 -1 55 -1.5t54 -0.5q27 0 54 0.5t54 1.5q12 0 17 0.5t17 0.5q2 10 3.5 19.5t1.5 20.5q0 17 -4.5 32.5t-15.5 27.5t-29 19t-46 7z" />
    <glyph glyph-name="edieresis" unicode="&#xeb;" horiz-adv-x="605" 
d="M-1 232q15 61 45.5 109.5t75.5 82.5t103 52.5t127 18.5q57 0 99 -12.5t69 -35t40 -52.5t13 -65q0 -23 -8 -52q-2 -9 -6.5 -25.5t-7.5 -25.5q-21 0 -50 0.5t-50 0.5q-42 1 -84 1.5t-84 0.5q-26 0 -51 -0.5t-51 -1.5q-13 0 -19 -0.5t-20 -0.5l-3 -12q-5 -22 -5 -40
q0 -48 36.5 -80t111.5 -32q22 0 47.5 6t51.5 15.5t50.5 23t45.5 28.5l25 -22l-25 -66q-45 -25 -106 -43.5t-121 -18.5t-107.5 14.5t-80.5 40t-50.5 61t-17.5 78.5q0 25 7 52zM344 427q-37 0 -66 -11.5t-51 -29.5t-37.5 -40.5t-24.5 -45.5h18q27 -1 54.5 -1.5t53.5 -0.5
q27 0 54.5 0.5t54.5 1.5q12 0 17.5 0.5t16.5 0.5q4 17 4 40q0 17 -4.5 32.5t-15 27.5t-28.5 19t-46 7zM427 626q7 26 32.5 44.5t57.5 18.5q34 0 54 -21.5t13 -50.5q-6 -26 -33 -44.5t-58 -18.5q-35 0 -54 21t-12 51zM194 626q7 26 33 44.5t57 18.5q35 0 54 -21.5t12 -50.5
q-6 -26 -32.5 -44.5t-56.5 -18.5q-35 0 -54.5 21t-12.5 51z" />
    <glyph glyph-name="igrave" unicode="&#xec;" horiz-adv-x="306" 
d="M123 294q11 42 20.5 92.5t16.5 102.5q46 -8 68 -8q24 0 83 9q-21 -58 -38 -112.5t-27 -92.5q-6 -23 -12.5 -49l-12.5 -50q-11 -42 -20 -92.5t-16 -101.5q-21 4 -38.5 6t-29.5 2q-11 0 -32.5 -2.5t-50.5 -7.5q22 59 38 112t26 94zM120 621q-17 9 -31.5 24t-8.5 41
q3 10 10.5 18t17 14t19.5 9t17 3q18 0 33 -8t28 -20l169 -173h-98z" />
    <glyph glyph-name="iacute" unicode="&#xed;" horiz-adv-x="306" 
d="M25 294q11 42 20.5 92.5t16.5 102.5q46 -8 68 -8q24 0 83 9q-20 -58 -37.5 -112.5t-27.5 -92.5q-6 -23 -12.5 -49l-12.5 -50q-11 -42 -20 -92.5t-16 -101.5q-21 4 -38.5 6t-29.5 2q-11 0 -32 -2.5t-50 -7.5q21 57 37.5 110.5t25.5 95.5zM270 705v-1q17 11 35 18.5t34 7.5
q9 0 19.5 -3.5t18 -10.5t11 -17t0.5 -23q-5 -23 -25.5 -35.5t-38.5 -20.5l-201 -91h-115z" />
    <glyph glyph-name="icircumflex" unicode="&#xee;" horiz-adv-x="411" 
d="M128 294q10 40 19.5 91.5t17.5 103.5q46 -8 67 -8q26 0 85 9q-24 -62 -40.5 -114.5t-25.5 -90.5q-6 -23 -12.5 -49l-12.5 -50q-10 -41 -19.5 -91.5t-17.5 -102.5q-43 8 -67 8q-14 0 -36.5 -2.5t-48.5 -6.5q24 63 40.5 115t25.5 90zM276 623q-40 -24 -80 -47.5t-79 -46.5
h-99l230 196h95l132 -196h-86z" />
    <glyph glyph-name="idieresis" unicode="&#xef;" horiz-adv-x="403" 
d="M129 294q11 42 20.5 93t15.5 101q21 -4 38 -5.5t30 -1.5t34.5 2t47.5 7q-20 -55 -36.5 -109t-26.5 -96q-5 -23 -12 -49t-12 -50q-11 -42 -21 -92.5t-16 -101.5q-21 4 -38 6t-30 2q-14 0 -36 -2.5t-48 -6.5q22 58 38.5 112t27.5 93zM79 626q7 26 32.5 44.5t57.5 18.5
q17 0 31 -6t23 -15.5t12.5 -22.5t-0.5 -28q-6 -26 -32.5 -44.5t-57.5 -18.5q-35 0 -54 21t-12 51zM312 626q6 26 32.5 44.5t58.5 18.5q35 0 53.5 -21.5t11.5 -50.5q-7 -26 -32.5 -44.5t-56.5 -18.5q-17 0 -31 5.5t-23.5 15.5t-13 23t0.5 28z" />
    <glyph glyph-name="eth" unicode="&#xf0;" horiz-adv-x="678" 
d="M-1 245q17 69 55.5 116.5t89.5 77t108.5 43t111.5 13.5h12q-20 20 -39.5 40.5t-40.5 39.5q-39 -10 -84.5 -22t-86.5 -23q-6 18 -14.5 36t-18.5 35q37 7 70 13.5t75 15.5q-24 20 -54 43t-73 53l137 28q35 -23 68.5 -46.5t61.5 -45.5q43 10 89 22t79 23q5 -15 14 -32.5
t25 -37.5q-40 -8 -73.5 -13.5t-69.5 -14.5q93 -80 136 -153t43 -150q0 -33 -9 -70q-18 -69 -57 -116.5t-89.5 -77t-107.5 -43t-111 -13.5q-48 0 -94 10.5t-81.5 33.5t-57.5 59.5t-22 89.5q0 15 1.5 31t6.5 35zM471 245q4 18 6.5 35t2.5 34q0 24 -6.5 44.5t-21 35.5t-38.5 24
t-58 9q-49 0 -85.5 -16t-62.5 -42.5t-43 -61t-26 -71.5q-4 -18 -6.5 -36t-2.5 -35q0 -24 6.5 -44t20.5 -35t37.5 -23.5t58.5 -8.5q48 0 84.5 16t63 42.5t44 61t26.5 71.5z" />
    <glyph glyph-name="ntilde" unicode="&#xf1;" horiz-adv-x="573" 
d="M399 288q6 22 6 43q0 37 -21.5 57t-60.5 20q-75 0 -118.5 -36.5t-60.5 -104.5l-21 -81q-10 -41 -19.5 -90.5t-15.5 -103.5q-21 4 -39 6t-30 2q-14 0 -36 -2.5t-48 -6.5q24 63 39.5 114.5t24.5 90.5l25 98q10 40 19.5 89t16.5 105q20 -4 38 -5.5t32 -1.5q7 0 27.5 2
t49.5 7q-6 -17 -11 -30.5t-7 -18.5q39 27 81.5 40.5t96.5 13.5q32 0 63 -6t56 -21.5t40 -41.5t15 -66q0 -11 -1.5 -25t-6.5 -29q-5 -19 -10.5 -40.5t-11.5 -42.5q-7 -22 -13 -44t-13 -48l1 1q-1 -3 -2 -6.5t-2 -7.5q-6 -25 -12 -51.5t-14 -74.5q-21 4 -37.5 6t-27.5 2
t-30.5 -2.5t-45.5 -6.5l28 97q11 35 21.5 70t19.5 72l15 58v0zM119 552q10 23 27 47.5t39.5 44t50 32t59.5 12.5q23 0 40 -5t49 -19q27 -12 39.5 -16t25.5 -4q22 0 39.5 14.5t28.5 32.5h73q-7 -15 -21.5 -39t-37 -46t-53 -38t-69.5 -16q-20 0 -41 5t-48 19q-26 12 -39 16
t-24 4q-21 0 -33.5 -9t-29.5 -35h-75z" />
    <glyph glyph-name="ograve" unicode="&#xf2;" horiz-adv-x="669" 
d="M-2 245q17 69 55.5 116.5t89 77t108 43t111.5 13.5q48 0 94 -10.5t81.5 -33.5t57.5 -59.5t22 -89.5q0 -15 -1.5 -32t-6.5 -34q-20 -65 -59.5 -112t-90 -78t-107 -45.5t-108.5 -14.5q-48 0 -94 10.5t-81.5 33t-57.5 59t-22 89.5q0 28 9 67zM137 236q-4 -18 -6.5 -36
t-2.5 -35q0 -24 6.5 -44t20.5 -35t37.5 -23.5t58.5 -8.5q48 0 84.5 16t63 42.5t44 61t26.5 71.5q4 18 6.5 35t2.5 34q0 24 -6.5 44.5t-21 35.5t-38.5 24t-58 9q-49 0 -85.5 -16t-62.5 -42.5t-43 -61t-26 -71.5zM250 621q-17 9 -31.5 23.5t-8.5 41.5q3 10 10.5 18t17.5 14
t19.5 9t17.5 3q17 0 32 -8t28 -20l171 -173h-99z" />
    <glyph glyph-name="oacute" unicode="&#xf3;" horiz-adv-x="670" 
d="M-2 245q17 69 55.5 116.5t89.5 77t108.5 43t111.5 13.5q48 0 94 -10.5t81.5 -33.5t57.5 -59.5t22 -89.5q0 -15 -1.5 -32t-6.5 -34q-20 -65 -59.5 -112t-90 -78t-107 -45.5t-108.5 -14.5q-48 0 -94 10.5t-81.5 33.5t-57.5 59.5t-22 89.5q0 15 1.5 31t6.5 35zM138 236
q-4 -18 -6.5 -36t-2.5 -35q0 -24 6.5 -44t20.5 -35t37.5 -23.5t58.5 -8.5q48 0 84.5 16t63 42.5t44 61t26.5 71.5q4 18 6.5 35t2.5 34q0 24 -6.5 44.5t-21 35.5t-38.5 24t-58 9q-49 0 -85.5 -16t-62.5 -42.5t-43 -61t-26 -71.5zM499 705v-1q17 11 35 18.5t34 7.5
q9 0 19.5 -3.5t18 -10.5t11 -17t0.5 -23q-5 -21 -26 -34.5t-38 -21.5q-49 -23 -100 -46t-100 -45h-115z" />
    <glyph glyph-name="ocircumflex" unicode="&#xf4;" horiz-adv-x="677" 
d="M1 245q18 69 57 116.5t89.5 77t107.5 43t111 13.5q48 0 94 -10.5t82 -34t58 -60t22 -88.5q0 -30 -9 -66q-19 -65 -58.5 -112t-90 -78t-107 -45.5t-109.5 -14.5q-48 0 -94 10.5t-82 34t-57.5 60t-21.5 89.5q0 14 1.5 30t6.5 35zM141 236q-4 -18 -6.5 -35.5t-2.5 -34.5
q0 -48 27.5 -80t96.5 -32q48 0 84.5 16t62.5 42.5t43.5 61t26.5 71.5q4 18 6.5 35t2.5 34q0 24 -6.5 44.5t-21 35.5t-38.5 24t-58 9q-49 0 -85.5 -16t-62.5 -42.5t-43 -61t-26 -71.5zM407 624q-40 -24 -80.5 -48t-79.5 -47h-99l230 196h95l132 -196h-86z" />
    <glyph glyph-name="otilde" unicode="&#xf5;" horiz-adv-x="670" 
d="M4 245q16 69 55 116.5t89.5 77t108 43t111.5 13.5q48 0 94 -10.5t82 -33.5t57.5 -59.5t21.5 -89.5q0 -15 -1.5 -32t-6.5 -34q-19 -65 -59 -112t-90.5 -78t-107 -45.5t-108.5 -14.5q-48 0 -94 10.5t-82 34t-58 60t-22 88.5q0 29 10 66zM144 236q-5 -18 -7.5 -36t-2.5 -35
q0 -24 6.5 -44t21 -35t38 -23.5t57.5 -8.5q48 0 84.5 16t63 42.5t44 61t26.5 71.5l-1 -1q9 39 9 70q0 24 -6.5 44.5t-20.5 35.5t-37.5 24t-57.5 9q-48 0 -85 -16t-63 -42.5t-43 -61t-26 -71.5zM168 552q11 23 28.5 47.5t40 44t49.5 32t59 12.5q12 0 21.5 -1t19 -4t20.5 -7.5
t27 -11.5q27 -12 40 -16t26 -4q21 0 39 14.5t30 32.5h73q-7 -15 -21.5 -39t-37.5 -46t-54 -38t-70 -16q-37 0 -88 24q-25 11 -38.5 15.5t-24.5 4.5q-23 0 -35.5 -9t-29.5 -35h-74z" />
    <glyph glyph-name="odieresis" unicode="&#xf6;" horiz-adv-x="668" 
d="M1 245q17 69 55.5 116.5t89.5 77t108.5 43t111.5 13.5q48 0 94 -10.5t81.5 -33.5t57.5 -59.5t22 -89.5q0 -15 -1.5 -32t-6.5 -34q-19 -65 -58.5 -112t-90 -78t-107 -45.5t-109.5 -14.5q-48 0 -94 10.5t-82 34t-57.5 60t-21.5 89.5q0 14 1.5 30t6.5 35zM141 236
q-4 -18 -6.5 -35.5t-2.5 -34.5q0 -48 27.5 -80t96.5 -32q48 0 84.5 16t62.5 42.5t43.5 61t26.5 71.5q4 18 6.5 35t2.5 34q0 24 -6.5 44.5t-21 35.5t-38.5 24t-58 9q-49 0 -85.5 -16t-62.5 -42.5t-43 -61t-26 -71.5zM441 626q7 26 33 44.5t57 18.5q35 0 54 -21.5t12 -50.5
q-6 -26 -32.5 -44.5t-56.5 -18.5q-35 0 -54.5 21t-12.5 51zM209 626q6 26 31.5 44.5t57.5 18.5q17 0 31 -6t23 -15.5t12.5 -22.5t0.5 -28q-7 -26 -33.5 -44.5t-57.5 -18.5q-35 0 -54 21t-11 51z" />
    <glyph glyph-name="divide" unicode="&#xf7;" horiz-adv-x="643" 
d="M14 302h635l-22 -87h-634zM281 448q8 28 37 48t63 20q38 0 58.5 -22.5t12.5 -54.5v1q-6 -29 -35 -49t-64 -20q-38 0 -59 22.5t-14 53.5zM189 77q6 28 35 48.5t64 20.5q37 0 58 -23t14 -55q-8 -28 -37 -48t-63 -20q-38 0 -58 23t-12 55z" />
    <glyph glyph-name="oslash" unicode="&#xf8;" horiz-adv-x="707" 
d="M55 245q17 69 55.5 116.5t89 77t107.5 43t111 13.5q48 0 92.5 -9.5t80.5 -32.5q31 22 61 46t47 41q8 -17 23.5 -29.5t35.5 -21.5q-7 -4 -20 -11.5t-29.5 -18t-35 -23t-35.5 -25.5q17 -22 26.5 -48.5t9.5 -59.5q0 -15 -2 -32t-7 -35q-18 -65 -57.5 -112t-90 -78
t-107 -45.5t-109.5 -14.5q-51 0 -96 9.5t-82 35.5q-16 -12 -33 -24.5t-32.5 -24t-28.5 -21t-20 -15.5q-14 27 -66 45q14 7 31 17t34.5 21.5t35 24t32.5 23.5q-14 20 -22.5 46.5t-8.5 56.5q0 31 10 65zM206 93q14 -18 39 -28.5t63 -10.5q48 0 84.5 16t63 42.5t43.5 61
t26 71.5q9 36 9 71v19zM509 394q-14 16 -37.5 24.5t-60.5 8.5q-48 0 -84.5 -16t-63 -42.5t-43 -61t-25.5 -71.5q-5 -18 -7.5 -36t-2.5 -35q0 -5 -1 -5q0 -2 1 -3z" />
    <glyph glyph-name="ugrave" unicode="&#xf9;" horiz-adv-x="559" 
d="M-21 165q8 29 14.5 53.5t12.5 46.5v-1q5 15 8.5 29t6.5 28q4 16 9 37t10 43.5l10 45t10 42.5q43 -8 63 -8q11 0 30.5 2t45.5 7q-11 -33 -22.5 -70t-23 -74.5t-21.5 -75t-19 -71.5q-7 -32 -7 -57q0 -29 12 -41q10 -12 29 -20t49 -8q45 0 78.5 15.5t53.5 38.5
q12 14 19.5 25t14 29t14.5 49.5t22 85.5q5 19 10.5 42t10.5 46.5t10 45.5t9 39q20 -4 36 -6t27 -2t30.5 2.5t46.5 7.5q-24 -74 -47 -158t-42 -159q-10 -42 -21 -92.5t-18 -90.5q-20 4 -36 6.5t-25 2.5t-28.5 -2.5t-46.5 -7.5q5 15 8.5 27.5t7.5 24.5q-39 -27 -84 -41.5
t-90 -14.5q-88 0 -136 34.5t-48 98.5q0 10 1.5 22t5.5 24zM203 621q-17 9 -31.5 23.5t-8.5 41.5q3 10 10.5 18t17.5 14t19.5 9t17.5 3q17 0 32 -8t28 -20l171 -173h-99zM346 99q-2 -4 -2 -5q1 2 1 2.5t1 2.5z" />
    <glyph glyph-name="uacute" unicode="&#xfa;" horiz-adv-x="559" 
d="M-35 165q6 25 12.5 45.5t11.5 39.5q5 18 9.5 35.5t8.5 35.5q4 16 9 37t10 43.5l10 45t10 42.5q43 -8 63 -8q11 0 30.5 2t45.5 7q-11 -33 -22.5 -70t-23 -74.5t-21.5 -75t-19 -71.5q-7 -32 -7 -57q0 -29 12 -41q10 -12 29 -20t49 -8q45 0 78.5 15.5t53.5 38.5
q12 14 19.5 25t14 29t14.5 49.5t22 85.5q5 19 10.5 42t10.5 46.5t10 45.5t9 39q20 -4 36 -6t27 -2t30.5 2.5t46.5 7.5q-24 -74 -47 -158t-42 -159q-10 -42 -21 -92.5t-18 -90.5q-20 4 -36 6.5t-25 2.5t-28.5 -2.5t-46.5 -7.5q5 15 8.5 27.5t7.5 24.5q-39 -27 -84 -41.5
t-90 -14.5q-88 0 -136 34.5t-48 98.5q0 10 1.5 22t5.5 24zM437 705v-1q17 11 35 18.5t34 7.5q9 0 19.5 -3.5t18 -10.5t11 -17t0.5 -23q-5 -21 -25.5 -34.5t-38.5 -21.5q-48 -23 -99.5 -46t-100.5 -45h-115zM332 99q-2 -4 -2 -6q1 2 1 3t1 3z" />
    <glyph glyph-name="ucircumflex" unicode="&#xfb;" horiz-adv-x="565" 
d="M-24 165q11 46 22 82q5 20 10 37t10 36q4 16 9 37.5t10 44l10 45t10 42.5q43 -8 63 -8q8 0 28 2.5t49 7.5q-24 -70 -47 -146.5t-40 -145.5q-8 -37 -8 -57q0 -15 3.5 -24.5t8.5 -16.5q11 -11 30.5 -19.5t48.5 -8.5q45 0 78.5 15.5t53.5 38.5q12 14 19.5 25t14 29
t14.5 49.5t22 85.5l11 45q4 14 8 31.5t7.5 35t7 33.5t6.5 28q20 -4 36 -6t27 -2t30.5 2.5t46.5 7.5q-24 -74 -47 -158t-42 -159q-5 -20 -10.5 -44t-10.5 -48.5t-9.5 -47.5t-7.5 -42q-20 4 -35 6t-27 2q-11 0 -30.5 -2.5t-44.5 -7.5q5 15 8.5 27.5t7.5 24.5
q-39 -27 -84.5 -41.5t-90.5 -14.5q-88 0 -135.5 34.5t-47.5 98.5q0 10 1.5 22t5.5 24zM352 624l-80 -48t-79 -47h-100l230 196h96l131 -196h-86zM343 99q-2 -4 -2 -6q1 2 1 3t1 3z" />
    <glyph glyph-name="udieresis" unicode="&#xfc;" horiz-adv-x="572" 
d="M-16 164q6 29 13 54t13 46v-1q5 15 9 29.5t8 28.5q4 16 9 37t10 43.5l10 45t10 42.5q43 -8 62 -8q8 0 28.5 2.5t49.5 7.5q-25 -72 -48 -148t-40 -144v1q-3 -17 -5 -31t-2 -26q0 -17 3 -26.5t9 -15.5q11 -12 30 -20t49 -8q45 0 78.5 15.5t53.5 38.5q12 14 19.5 25t14 29
t14.5 49.5t22 85.5l11 45q4 14 8 31.5t7.5 35t7 33.5t6.5 28q20 -4 35.5 -6t26.5 -2t31 2.5t47 7.5q-24 -74 -47.5 -158t-41.5 -159q-11 -42 -21.5 -92.5t-18.5 -90.5q-20 4 -35.5 6.5t-24.5 2.5q-10 0 -30 -2.5t-47 -7.5q5 16 9.5 28.5t8.5 23.5q-39 -27 -84.5 -41.5
t-90.5 -14.5q-88 0 -135.5 34.5t-47.5 98.5q0 10 1.5 22t5.5 24zM395 626q7 26 33 44.5t57 18.5q35 0 54.5 -21.5t12.5 -50.5q-7 -26 -33.5 -44.5t-56.5 -18.5q-35 0 -54.5 21t-12.5 51zM163 626q6 26 31.5 44.5t57.5 18.5q17 0 31 -6t23 -15.5t12.5 -22.5t0.5 -28
q-7 -26 -33.5 -44.5t-57.5 -18.5q-35 0 -54 21t-11 51z" />
    <glyph glyph-name="yacute" unicode="&#xfd;" horiz-adv-x="585" 
d="M-74 -266q86 85 148.5 155t110.5 130q-8 30 -19 72.5t-24 90t-26.5 96t-25.5 91t-21.5 74.5t-13.5 47q26 -5 46 -7t32 -2q13 0 31.5 1.5t41.5 5.5q8 -51 17 -96t19 -87t20.5 -82t21.5 -81q63 77 127.5 167.5t121.5 177.5q25 -6 47 -6q6 0 30.5 4t61.5 12q-12 -14 -41 -48
t-68 -82t-86 -105.5t-96 -118t-96.5 -121t-89 -113.5t-73.5 -96t-48 -69q-14 3 -26.5 5t-21.5 2q-8 0 -35 -4.5t-65 -12.5zM489 705q17 11 34.5 18t34.5 7q9 0 19.5 -3.5t18 -10.5t11 -17t0.5 -23q-5 -21 -25.5 -34.5t-38.5 -21.5q-48 -23 -99.5 -46t-100.5 -45h-115z" />
    <glyph glyph-name="thorn" unicode="&#xfe;" horiz-adv-x="614" 
d="M97 463q8 31 17 69t17 77t15 76t12 67q43 -8 67 -8q14 0 36 2.5t48 7.5q-12 -35 -24.5 -75t-24.5 -80t-22 -78t-18 -68l-3 -23q32 26 79.5 45.5t113.5 19.5q42 0 80 -11t67.5 -33.5t46.5 -57t17 -82.5q0 -17 -2.5 -35t-8.5 -38q-18 -59 -55 -106t-83 -79.5t-97 -49.5
t-98 -17q-55 0 -94.5 16.5t-63.5 46.5l-2 -8l-2 -8q-8 -31 -16.5 -69t-16.5 -77t-15.5 -76.5t-11.5 -67.5q-22 3 -39 5.5t-27 2.5q-11 0 -33 -2.5t-51 -6.5q11 31 23.5 70t24.5 79.5t22 80t18 71.5zM471 249q9 36 9 66t-9 49.5t-24 31t-34 16.5t-39 5q-44 0 -79 -14.5
t-60.5 -40t-42.5 -59t-26 -71.5q-10 -39 -10 -71q0 -102 116 -102q39 0 71 14.5t57 40t43 60.5t28 75z" />
    <glyph glyph-name="ydieresis" unicode="&#xff;" horiz-adv-x="588" 
d="M-65 -266q85 84 148 154.5t111 130.5q-7 30 -18.5 72.5t-24.5 90t-26.5 96t-25.5 91t-21.5 74.5t-13.5 47q26 -5 46.5 -7t32.5 -2t30.5 1.5t41.5 5.5q15 -98 35 -180t43 -165q64 77 128 166.5t121 177.5q25 -6 48 -6q8 0 31.5 3.5t58.5 11.5q-12 -14 -40.5 -48
t-67.5 -81.5t-86 -105t-96 -118t-96.5 -121t-89 -113.5t-73.5 -96t-48 -69q-14 3 -26 5t-21 2t-36 -4.5t-65 -12.5zM205 626q6 26 32 44.5t58 18.5q34 0 53.5 -21.5t12.5 -50.5q-7 -26 -33.5 -44.5t-57.5 -18.5q-35 0 -54 21t-11 51zM438 626q6 26 32.5 44.5t57.5 18.5
q35 0 54 -21.5t12 -50.5q-7 -26 -33.5 -44.5t-56.5 -18.5q-35 0 -54.5 21t-11.5 51z" />
    <glyph glyph-name="dotlessi" unicode="&#x131;" horiz-adv-x="192" 
d="M44 294q11 42 20.5 92.5t16.5 102.5q46 -8 68 -8q24 0 83 9q-20 -58 -37.5 -112.5t-27.5 -92.5q-6 -23 -12 -49t-12 -50q-11 -42 -20.5 -92.5t-16.5 -101.5q-43 8 -68 8q-14 0 -35 -2.5t-47 -6.5q20 58 37 112.5t27 92.5z" />
    <glyph glyph-name="Lslash" unicode="&#x141;" horiz-adv-x="602" 
d="M155 427q15 61 29 130.5t26 131.5q23 -4 41 -6t30 -2q14 0 36.5 2.5t50.5 6.5q-9 -31 -20 -66t-22 -70.5t-21 -70.5t-17 -66v-1q30 14 61.5 29t62.5 29q5 -18 12 -35.5t17 -35.5q-11 -4 -27.5 -10.5t-36 -14t-40 -16t-38.5 -15.5l1 1q-10 -5 -16 -7.5t-17 -7.5
q-5 -20 -9.5 -37.5t-9.5 -37.5q-13 -50 -21 -88.5t-16 -71.5q-2 -6 -2.5 -8t-0.5 -3v-2.5t-1 -6.5q39 0 76 0.5t76.5 2t85 4.5t102.5 9q-11 -20 -18 -33.5t-9 -17.5q-3 -9 -3 -21.5t2 -27.5q-27 1 -57 2t-61 2t-61.5 1.5t-57.5 0.5q-56 0 -123.5 -2t-123.5 -4q10 31 21 65.5
t21.5 70t20 70t17.5 64.5l-1 -1v1q0 2 1 3q0 -1 -0.5 -2t-0.5 -2v3q0 1 1 1q-27 -12 -53.5 -25.5t-40.5 -21.5q-5 21 -13 38.5t-18 34.5q36 14 74.5 29.5t72.5 29.5z" />
    <glyph glyph-name="lslash" unicode="&#x142;" horiz-adv-x="334" 
d="M83 293q-8 -4 -15.5 -6.5t-14.5 -6.5q-11 -5 -26 -12.5t-20 -9.5q-5 14 -12 28.5t-24 32.5l49 22q23 9 42 17t44 19q5 22 10 43t10 43q8 31 17 69t17 77t15 76.5t12 67.5q22 -4 39.5 -6.5t28.5 -2.5t32 2.5t50 7.5q-12 -32 -24 -71t-23.5 -79.5t-22 -79.5t-18.5 -71
l-1 -10l53 26.5l41 20.5q-5 -20 3 -39t22 -30q-3 -1 -10.5 -4.5t-16 -7t-16.5 -7t-12 -5.5q-17 -7 -36 -14t-48 -21q-5 -19 -10.5 -40t-10.5 -40q-8 -32 -16.5 -70t-17 -77t-15.5 -76t-12 -67q-43 8 -67 8q-14 0 -36 -2.5t-48 -6.5q12 34 24.5 74t24.5 80t22 78t18 68z" />
    <glyph glyph-name="OE" unicode="&#x152;" horiz-adv-x="1242" 
d="M881 239q-9 -33 -15.5 -66.5t-14.5 -66.5q-1 -6 -1.5 -8.5l-1 -5t-1 -5.5l-1.5 -9q121 1 194.5 5.5t115.5 9.5q-16 -23 -23 -34.5t-8 -16.5q-3 -9 -3 -21t2 -27q-50 2 -109 4t-109 2q-25 0 -55 -0.5t-60.5 -1.5l-61 -2t-56.5 -2q8 20 15 38t13 34q-25 -15 -56.5 -30
t-70 -27t-84.5 -19t-100 -7q-78 0 -142.5 18.5t-111.5 53t-73 85t-26 114.5q0 18 2.5 38t7.5 42q24 84 75.5 151.5t122 114.5t156 72.5t178.5 25.5q60 0 104.5 -8t76 -20t52 -27t33.5 -29q2 8 2.5 16.5t2.5 16.5v-1l2.5 12.5t6.5 28.5q49 -2 103.5 -4t102.5 -2q24 0 53 0.5
t60 1.5t60.5 2.5t53.5 2.5q-11 -18 -19 -34t-10 -21q-1 -3 -1 -8.5v-10.5v-28q-21 3 -42.5 6.5t-52 6t-76 4t-115.5 1.5q-2 -5 -3 -10.5t-3 -10.5q-10 -32 -19 -65.5t-17 -65.5l1 1q-2 -9 -4 -15.5t-3.5 -12t-3.5 -11.5t-4 -16q58 0 96 0.5t63 1.5t40.5 2t29.5 2h9t14.5 0.5
t14.5 0.5h9q-10 -17 -17.5 -31.5t-9.5 -19.5l1 2q-2 -7 -1 -18.5t3 -23.5q-4 0 -18 0.5t-18 0.5q-14 1 -28.5 2t-39 2t-64 1.5t-103.5 0.5zM201 336q-5 -23 -8.5 -46.5t-3.5 -43.5q0 -49 17.5 -85t48 -59t72 -34.5t89.5 -11.5q67 0 126 21.5t107 59.5t82 91.5t51 116.5
q7 27 10 53t3 49q0 48 -15.5 82t-44 55.5t-67.5 31t-87 9.5q-65 0 -125 -17t-110.5 -52.5t-88 -90t-56.5 -129.5z" />
    <glyph glyph-name="oe" unicode="&#x153;" horiz-adv-x="1103" 
d="M853 495q57 0 99 -12.5t69 -35t40 -53t13 -65.5q0 -24 -6 -52l-15 -50q-22 0 -50.5 0.5t-50.5 0.5q-42 1 -83 1.5t-83 0.5q-26 0 -52 -0.5t-52 -1.5q-10 0 -19.5 -0.5t-19.5 -0.5q-1 -4 -1.5 -6.5t-1.5 -5.5q-5 -20 -5 -40q0 -49 37 -80.5t111 -31.5q22 0 48 6t52 15.5
t51 23t46 28.5l24 -22l-24 -66q-23 -12 -50.5 -23.5t-57.5 -20t-60.5 -13.5t-59.5 -5q-74 0 -126.5 19.5t-84.5 56.5q-54 -40 -120 -58t-129 -18q-48 0 -94 10.5t-82 34t-57.5 60t-21.5 88.5q0 15 2 31t7 35q18 64 57.5 111.5t90 78t107 45.5t109.5 15q64 0 119.5 -16.5
t90.5 -57.5q91 74 233 74zM517 244q5 20 7.5 37t2.5 33q0 48 -27.5 80.5t-96.5 32.5q-48 0 -85 -16t-63 -42.5t-43 -61t-26 -71.5q-9 -36 -9 -71q0 -24 6.5 -44t20.5 -35t37.5 -23.5t58.5 -8.5q48 0 84.5 16t63.5 42.5t44 61t26 71.5zM848 427q-37 0 -66.5 -11.5
t-51.5 -29.5t-37 -40.5t-24 -45.5h18q27 -1 54 -1.5t53 -0.5q27 0 54.5 0.5t54.5 1.5q12 0 17.5 0.5t16.5 0.5q2 10 3.5 20t1.5 21q0 16 -4.5 31.5t-15 27.5t-28.5 19t-46 7z" />
    <glyph glyph-name="Scaron" unicode="&#x160;" horiz-adv-x="574" 
d="M543 887h100l-224 -191q46 -4 82.5 -18t71.5 -40q-11 -12 -20 -23.5t-17 -23.5t-15.5 -25.5t-16.5 -29.5h-41q-3 13 -9 28.5t-17 29t-29.5 22.5t-45.5 9q-30 0 -57.5 -7.5t-49.5 -21t-37 -33t-21 -42.5q-3 -11 -3 -22q0 -18 11.5 -32t30 -25t42 -20t47.5 -17
q31 -11 62 -23.5t55.5 -30t39.5 -42t15 -58.5q0 -10 -1 -20t-5 -21q-12 -45 -43.5 -86.5t-78.5 -72.5t-107.5 -49.5t-130.5 -18.5q-39 0 -69.5 6t-55.5 15.5t-45 22t-36 25.5q11 15 18.5 27.5t13.5 24.5t11.5 25t11.5 30h42q5 -17 16 -34.5t29 -31.5t43.5 -23t59.5 -9
q36 0 67 9.5t55 26t40.5 39t22.5 48.5q6 24 -2 41t-26 30t-43.5 23t-52.5 20q-32 11 -63.5 24t-56 31t-40 43.5t-15.5 63.5q0 21 7 45q9 36 31 67t55 55.5t75 41.5t91 24l-129 194h87l113 -94z" />
    <glyph glyph-name="scaron" unicode="&#x161;" horiz-adv-x="447" 
d="M29 124q4 -10 12.5 -21.5t21.5 -21t30.5 -16t38.5 -6.5q19 0 38.5 4.5t36 13.5t28 22.5t16.5 30.5q3 13 -3.5 22.5t-19 16.5t-30 12t-36.5 10q-26 7 -51.5 14.5t-45.5 20.5t-32.5 32t-12.5 48q0 7 0.5 15t3.5 18v-1q8 34 29 63t53.5 50t74.5 32.5t92 11.5q35 0 60.5 -7
t45.5 -13l3 -1l4 -1.5t15 -4t35 -7.5q-11 -12 -22.5 -26t-21 -28t-16.5 -26t-9 -18h-44q-4 23 -23 41t-51 18q-14 0 -30 -4t-30.5 -12t-25.5 -20t-16 -29q-3 -15 4 -25t20 -17.5t31 -12.5t37 -10q25 -6 50.5 -13.5t45.5 -19.5t32.5 -30.5t12.5 -46.5q0 -8 -1 -16t-4 -17
q-9 -28 -33.5 -57t-59.5 -52.5t-80 -38.5t-95 -15q-58 0 -101 14t-74 30q7 9 16 21t17 25.5t14.5 26t8.5 21.5h41zM448 725h99l-229 -196h-96l-132 196h87l112 -95z" />
    <glyph glyph-name="Ydieresis" unicode="&#x178;" horiz-adv-x="725" 
d="M178 -9q28 72 47.5 144.5t38.5 144.5q-9 19 -25 51.5t-35.5 71.5t-40.5 81.5t-41 82t-37.5 72t-28.5 52.5q34 -5 60 -7.5t40 -2.5t34.5 2t44.5 5q30 -81 62.5 -157t73.5 -160q35 34 73 73.5t76 80.5t74.5 82.5t68.5 80.5q16 -3 29 -5t23 -2t38 4.5t70 11.5
q-86 -80 -153 -144t-119 -114.5t-89.5 -88.5t-62.5 -66q-8 -34 -17 -73.5t-17 -79t-15 -76t-11 -63.5q-23 4 -41.5 6t-31.5 2q-11 0 -34 -2.5t-54 -6.5zM273 789q7 26 33 44t57 18q17 0 31 -5.5t23.5 -15.5t13 -23t-0.5 -28q-6 -26 -33 -44t-57 -18q-35 0 -54.5 21t-12.5 51
zM506 789q7 26 32.5 44t57.5 18q34 0 54 -21t13 -51q-6 -26 -33 -44t-58 -18q-35 0 -54 21t-12 51z" />
    <glyph glyph-name="Zcaron" unicode="&#x17d;" horiz-adv-x="739" 
d="M-83 40q59 51 123.5 107.5t128 113t123.5 110t110 99t88 80.5t58 54h-36q-44 0 -100.5 -1.5t-115.5 -4t-116 -6t-101 -6.5l5 5l11.5 11.5t12 12.5t7.5 8q2 4 3.5 8.5l3.5 10.5q2 7 2 19t-2 26q15 -1 36.5 -2t48.5 -1.5t57 -1t62 -0.5q62 -1 139 -1h170q25 0 50 1t50 3
q7 0 25 0.5t25 0.5l-9 -47q-27 -19 -75 -59t-107.5 -91.5t-125.5 -110t-128 -114t-115 -104.5t-87 -81q15 -1 27.5 -1h26.5q45 0 107.5 1.5t127.5 4.5t124.5 6.5t98.5 7.5q-14 -23 -22 -38t-10 -20q-1 -5 -0.5 -17.5t2.5 -28.5q-85 2 -157.5 4t-140.5 2q-46 0 -108 -0.5
t-122.5 -1.5t-110.5 -2t-73 -2zM615 887h99l-229 -196h-95l-133 196h86l113 -94zM114 621v1v-1z" />
    <glyph glyph-name="zcaron" unicode="&#x17e;" horiz-adv-x="578" 
d="M-62 39q52 41 108 86.5t110.5 91.5t106 89.5t93.5 79.5q8 7 10 9t3 2.5t2.5 1.5t8.5 7q-32 -1 -73.5 -3t-84.5 -4t-82 -4.5t-64 -3.5q22 40 24 50q2 6 3 17.5t3 28.5q37 -3 119 -4.5t192 -1.5q103 0 180 6l-9 -44q-60 -50 -126 -104.5t-127 -105.5t-111.5 -93t-78.5 -67
q79 1 163 4.5t191 11.5q-2 -3 -5.5 -10.5t-7.5 -16t-7 -15.5t-4 -10q-2 -7 -2 -19v-23h-21t-24.5 0.5t-24.5 1t-21 0.5q-53 2 -111 2.5t-111 0.5q-79 0 -157 -3q-8 0 -18.5 -0.5t-22 -1t-21 -0.5h-15.5zM515 725h99l-230 -196h-95l-132 196h87l112 -95z" />
    <glyph glyph-name="florin" unicode="&#x192;" horiz-adv-x="570" 
d="M-37 -70l12 -6q7 -3 16.5 -7t18.5 -4q19 0 34 7t27 20.5t22.5 32t21.5 42.5l150 325q-18 0 -37.5 -0.5t-37.5 -1t-34 -1t-26 -1.5q12 17 25 40.5t17 41.5q21 -2 57.5 -4t70.5 -2q5 11 10.5 19.5t10.5 18.5q19 36 49 75.5t67.5 72.5t82 54.5t94.5 21.5q8 0 28.5 -3.5
t37.5 -9.5q-13 -20 -26.5 -50t-19.5 -56l-39 -8q-7 12 -19.5 21t-26.5 9q-20 0 -37 -10.5t-34 -46.5l-50 -108q13 1 31.5 1.5t29.5 1.5q7 0 19 0.5l24 1t22 0.5h15q-14 -19 -28.5 -41.5t-19.5 -38.5q-24 2 -58 2.5t-69 0.5q-23 -49 -47 -99t-46 -98q-52 -110 -105.5 -175
t-107 -99.5t-105.5 -45t-100 -10.5q45 70 55 108z" />
    <glyph glyph-name="circumflex" unicode="&#x2c6;" horiz-adv-x="431" 
d="M216 623q-40 -24 -80 -47.5t-79 -46.5h-98l228 196h96l132 -196h-86z" />
    <glyph glyph-name="caron" unicode="&#x2c7;" horiz-adv-x="428" 
d="M371 725h99l-229 -196h-96l-132 196h86l113 -95z" />
    <glyph glyph-name="breve" unicode="&#x2d8;" horiz-adv-x="417" 
d="M118 716q-1 -44 18.5 -67.5t67.5 -23.5q28 0 48.5 6t37 17.5t29.5 28.5t26 39h72q-9 -38 -28.5 -72t-48.5 -59.5t-66.5 -40.5t-82.5 -15q-40 0 -69 10t-47.5 27.5t-27.5 41t-9 50.5q0 12 2 26.5t5 31.5h73z" />
    <glyph glyph-name="dotaccent" unicode="&#x2d9;" horiz-adv-x="213" 
d="M26 622q3 13 11.5 24.5t21 20.5t27.5 14t30 5q35 0 54.5 -21t13.5 -51q-3 -13 -12 -24.5t-21.5 -20t-27.5 -13.5t-30 -5q-35 0 -54.5 21.5t-12.5 50.5v-1z" />
    <glyph glyph-name="ring" unicode="&#x2da;" horiz-adv-x="336" 
d="M28 634q5 22 20.5 42t38 35t49.5 24t56 9t53 -9.5t39.5 -25.5t22 -38t0.5 -47q-6 -23 -21.5 -43t-38 -35t-50 -23.5t-55.5 -8.5q-30 0 -53.5 9.5t-39.5 26t-21.5 38t0.5 46.5zM114 624q-5 -14 7 -23.5t32 -9.5q23 0 42.5 13t25.5 30q2 13 -9.5 23t-30.5 10
q-24 0 -43 -12.5t-24 -30.5z" />
    <glyph glyph-name="ogonek" unicode="&#x2db;" horiz-adv-x="263" 
d="M298 38q-56 -35 -90.5 -58.5t-54.5 -40t-28 -27t-10 -19.5q-5 -18 11.5 -25t36.5 -7q9 0 24 3t31 7l8 -68q-23 -8 -44 -11.5t-46 -3.5q-31 0 -58 6.5t-46 20t-27.5 32.5t-2.5 45q8 32 52.5 68t125.5 78h118z" />
    <glyph glyph-name="tilde" unicode="&#x2dc;" horiz-adv-x="475" 
d="M-1 552q11 23 28.5 47.5t40 44t49.5 32t59 12.5q23 0 41 -5t47 -19q25 -11 39 -15.5t27 -4.5q21 0 39 14.5t30 32.5h72q-6 -15 -21 -39t-37.5 -46t-53.5 -38t-70 -16q-20 0 -40.5 5t-47.5 19q-26 12 -38.5 16t-23.5 4q-23 0 -36 -9t-30 -35h-74z" />
    <glyph glyph-name="hungarumlaut" unicode="&#x2dd;" horiz-adv-x="574" 
d="M446 705q17 11 34.5 18t34.5 7q9 0 19.5 -3.5t18 -10.5t11 -17t0.5 -23q-5 -21 -25.5 -34.5t-38.5 -21.5q-48 -23 -99.5 -46t-99.5 -45h-116zM210 705q17 11 34.5 18t34.5 7q9 0 19 -3.5t18 -10.5t11.5 -17t0.5 -23q-6 -21 -26.5 -34.5t-37.5 -21.5q-49 -23 -100.5 -46
t-99.5 -45h-114z" />
    <glyph glyph-name="endash" unicode="&#x2013;" horiz-adv-x="712" 
d="M49 278h630l-18 -82h-630z" />
    <glyph glyph-name="emdash" unicode="&#x2014;" horiz-adv-x="1336" 
d="M65 278h1223l-18 -82h-1223z" />
    <glyph glyph-name="quoteleft" unicode="&#x2018;" 
d="M98 432v1q-9 -16 -27.5 -30.5t-49.5 -14.5q-10 0 -21 3.5t-19.5 10t-12.5 17t0 25.5q5 15 12.5 25.5t16.5 19.5l3 3q50 50 103 104t102 104l57 -17z" />
    <glyph glyph-name="quoteright" unicode="&#x2019;" 
d="M116 654q9 15 27.5 29.5t49.5 14.5q11 0 22.5 -3t20 -10t12.5 -17.5t0 -25.5t-13 -26t-20 -22q-50 -50 -102.5 -104t-101.5 -104l-56 17z" />
    <glyph glyph-name="quotesinglbase" unicode="&#x201a;" 
d="M116 100q9 15 27.5 30t49.5 15q11 0 22.5 -3t20 -10t12.5 -17.5t0 -25.5t-13 -26t-20 -22q-50 -51 -102.5 -104.5t-101.5 -103.5l-56 17z" />
    <glyph glyph-name="quotedblleft" unicode="&#x201c;" horiz-adv-x="459" 
d="M119 432v1q-10 -16 -28 -30.5t-49 -14.5q-11 0 -22 3.5t-19 10t-12 17t0 25.5q5 15 13 26t17 22l207 208l54 -17zM322 432v1q-9 -16 -27.5 -30.5t-49.5 -14.5q-11 0 -22 3.5t-19.5 10t-12.5 17t0 25.5q5 15 13 25.5t16 19.5l4 3q48 49 102.5 104.5t102.5 103.5l55 -17z
" />
    <glyph glyph-name="quotedblright" unicode="&#x201d;" horiz-adv-x="459" 
d="M339 654v-1q10 16 28 30.5t49 14.5q11 0 22 -3t19.5 -10t12.5 -17.5t0 -25.5t-13 -26t-20 -22q-49 -50 -102 -104t-103 -104l-54 17zM136 654v-1q9 16 27.5 30.5t49.5 14.5q11 0 22 -3t19.5 -10t12.5 -17.5t0 -25.5t-13.5 -26t-20.5 -22q-49 -50 -102.5 -104.5
t-102.5 -104.5l-53 18z" />
    <glyph glyph-name="quotedblbase" unicode="&#x201e;" horiz-adv-x="459" 
d="M339 100v-1q10 16 28 31t49 15q11 0 22 -3t19.5 -10t12.5 -17.5t0 -25.5t-13 -26t-20 -22q-49 -51 -102 -104.5t-103 -103.5l-54 17zM136 100v-1q9 16 27.5 31t49.5 15q11 0 22 -3t19.5 -10t12.5 -17.5t0 -25.5t-13.5 -26t-20.5 -22q-49 -51 -102.5 -105t-102.5 -104
l-53 18z" />
    <glyph glyph-name="dagger" unicode="&#x2020;" horiz-adv-x="530" 
d="M27 473q63 -7 112.5 -8.5t96.5 -1.5q1 2 3 10q6 27 13 57t13 59t10 55t4 46q23 -4 39 -6.5t27 -2.5q10 0 32.5 3t53.5 8q-12 -23 -23 -52t-21 -59.5t-18 -60.5t-14 -57q46 0 96.5 1.5t122.5 9.5q-14 -25 -21.5 -40t-10.5 -23q-3 -12 0 -51q-64 8 -114.5 9.5t-96.5 1.5
q-13 -54 -24.5 -109t-23.5 -109q-8 -36 -17.5 -81t-17.5 -81q-20 4 -36.5 6.5t-25.5 2.5q-12 0 -32.5 -2.5t-46.5 -6.5q4 12 8.5 28.5t9.5 34.5t10 34.5t8 28.5v-1q10 35 19 66t17.5 61.5t16.5 61.5t17 66q-46 0 -96.5 -2t-121.5 -10q14 25 21.5 39.5t9.5 22.5q4 12 1 52z
" />
    <glyph glyph-name="daggerdbl" unicode="&#x2021;" horiz-adv-x="536" 
d="M213 344q2 10 4.5 19.5t4.5 18.5h-1l1.5 10.5t1.5 6.5t2 6.5t3 11.5q-47 0 -98.5 -1.5t-121.5 -9.5q14 23 21 37.5t10 22.5q3 15 0 53q63 -7 114 -8.5t96 -1.5q7 25 15 67t18 114q22 -4 38.5 -6.5t25.5 -2.5q10 0 31 2.5t50 7.5q-14 -39 -24 -68t-17 -50.5t-11.5 -36.5
t-7.5 -27q23 0 47 0.5t50 1.5t56.5 3t66.5 6q-28 -49 -31 -62q-3 -14 0 -51q-65 7 -115.5 8.5t-96.5 1.5q-2 -5 -3 -9.5t-3 -10.5q-5 -15 -8.5 -30t-7.5 -31q-4 -12 -6.5 -24t-4.5 -24q-2 -6 -2.5 -8.5t-0.5 -4t-1 -3.5t-2 -8q47 0 98 1.5t122 9.5q-14 -23 -21.5 -38.5
t-9.5 -23.5q-3 -14 0 -51q-64 7 -114.5 8.5t-96.5 1.5q-6 -25 -14.5 -67t-18.5 -114q-20 4 -36.5 6.5t-26.5 2.5q-13 0 -34.5 -2.5t-47.5 -6.5q15 40 25 69t16.5 50.5t11 36t7.5 25.5q-47 0 -97.5 -1.5t-120.5 -9.5q28 46 31 60q3 15 0 53q63 -7 113.5 -8.5t96.5 -1.5
q4 15 11 34q4 12 6.5 24t6.5 24v-2z" />
    <glyph glyph-name="bullet" unicode="&#x2022;" horiz-adv-x="485" 
d="M23 345q9 36 34 68t60 56t78 37.5t88 13.5q40 0 74 -11.5t58 -31t37.5 -47t13.5 -58.5q0 -9 -1 -18t-4 -18q-10 -36 -35 -67.5t-60.5 -55.5t-77.5 -38t-86 -14q-41 0 -74.5 11t-57.5 31t-37.5 46.5t-13.5 58.5q0 18 4 37z" />
    <glyph glyph-name="ellipsis" unicode="&#x2026;" horiz-adv-x="1057" 
d="M48 65q7 29 36.5 49t64.5 20q37 0 58 -22.5t14 -54.5q-4 -14 -14 -26.5t-23.5 -21.5t-30 -14.5t-32.5 -5.5q-38 0 -59 22.5t-13 54.5zM836 65q7 29 36 49t64 20q38 0 58.5 -22.5t13.5 -54.5q-8 -28 -37 -48t-63 -20q-38 0 -58.5 22.5t-12.5 54.5zM443 65q6 29 35.5 49
t63.5 20q38 0 59 -22.5t13 -54.5q-3 -14 -13 -26.5t-23.5 -21.5t-30 -14.5t-32.5 -5.5q-38 0 -58.5 22.5t-12.5 54.5z" />
    <glyph glyph-name="perthousand" unicode="&#x2030;" horiz-adv-x="1214" 
d="M390 160q12 48 36.5 80t55.5 50.5t65 26.5t64 8q27 0 54 -6t49 -21t36 -39t14 -60q0 -22 -7 -49q-12 -48 -37 -79.5t-56 -50.5t-64.5 -27t-63.5 -8q-27 0 -54.5 6t-49.5 21t-35.5 39t-13.5 60q0 22 7 49zM773 160q12 48 36.5 80t55.5 50.5t65.5 26.5t64.5 8q26 0 53 -6
t49 -21t36 -39t14 -60q0 -22 -7 -49q-12 -48 -37 -79.5t-56 -50.5t-64.5 -27t-63.5 -8q-27 0 -54.5 6t-49 21t-35 39t-13.5 60q0 11 1 23t5 26zM85 508q12 48 37 80t56 51t65 27t64 8q27 0 54.5 -6.5t49 -21t35 -38.5t13.5 -60q0 -22 -6 -49q-12 -48 -37 -80t-56 -51
t-65 -27t-64 -8q-27 0 -54 6t-48.5 21t-35.5 39.5t-14 60.5q0 19 6 48zM704 698q10 -4 19 -5.5t14 -1.5t27.5 5.5t57.5 14.5l-683 -751q-21 8 -32 8q-5 0 -28 -6t-58 -15zM202 499q-4 -17 -6.5 -31.5t-2.5 -27.5q0 -46 44 -46q41 0 64 32.5t35 81.5q4 16 6.5 30.5t2.5 28.5
q0 21 -10.5 33.5t-33.5 12.5q-21 0 -36.5 -8.5t-27.5 -23.5t-20.5 -36t-14.5 -46zM506 150q-3 -16 -5.5 -30.5t-2.5 -27.5q0 -22 10 -34.5t33 -12.5q41 0 64 33t36 82q3 16 5.5 30.5t2.5 28.5q0 22 -10 34t-33 12q-41 0 -64 -32.5t-36 -82.5zM890 150q-4 -16 -6.5 -30.5
t-2.5 -27.5q0 -22 10 -34.5t34 -12.5q40 0 63 33t36 82q8 34 8 59q0 22 -10 34t-33 12q-41 0 -64 -32.5t-35 -82.5z" />
    <glyph glyph-name="guilsinglleft" unicode="&#x2039;" horiz-adv-x="237" 
d="M213 448q6 -15 25 -28t48 -16l-189 -168q22 -39 48 -86.5t46 -83.5q-24 -2 -49 -14.5t-36 -28.5l-118 220z" />
    <glyph glyph-name="guilsinglright" unicode="&#x203a;" horiz-adv-x="235" 
d="M43 411q24 2 49 14.5t36 28.5l118 -219l-225 -207q-6 16 -25 29t-47 16l188 168z" />
    <glyph glyph-name="fraction" unicode="&#x2044;" horiz-adv-x="409" 
d="M417 688q24 -8 34 -8q5 0 26 6t50 14l-535 -729q-11 3 -19.5 5t-14.5 2t-26.5 -5.5t-49.5 -14.5z" />
    <glyph glyph-name="Euro" unicode="&#x20ac;" horiz-adv-x="709" 
d="M742 596q-14 -18 -26 -38.5t-24 -43.5l-42 -1q-9 19 -23.5 34.5t-32.5 26t-38 16t-39 5.5q-66 0 -128.5 -43t-107.5 -131h168h31.5t37 1.5t46.5 4t60 7.5q-11 -12 -21.5 -27t-20 -29t-16 -26t-9.5 -19q-32 5 -65 6.5t-61 1.5h-180q-2 -6 -3.5 -11t-3.5 -10h144h33.5
t37.5 1.5t45.5 4t58.5 7.5q-22 -26 -36.5 -47.5t-19.5 -31.5q-2 -4 -5.5 -9t-8.5 -13q-32 5 -63.5 6t-58.5 1h-140q-1 -5 -1 -9.5v-9.5q0 -73 40.5 -113t104.5 -40q45 0 98 20.5t110 61.5l21 -39q-7 -14 -16 -34t-14 -34q-19 -12 -46.5 -21.5t-58 -17t-62.5 -11.5t-60 -4
q-60 0 -108.5 16t-82.5 46t-52.5 74t-18.5 101q0 8 -0.5 6.5t0.5 6.5q-25 -2 -53.5 -4.5t-57.5 -7.5q46 64 61 102q13 -3 29 -4.5t33 -2.5q1 2 0.5 1.5t-0.5 1.5t1 6.5t3 9.5q-23 -2 -48 -5t-54 -8q25 35 40 60t23 42q13 -2 31 -4t41 -3q28 55 70 101t94 79.5t111.5 52.5
t121.5 19q27 0 55.5 -4t55.5 -10.5t51 -16t43 -19.5z" />
    <glyph glyph-name="trademark" unicode="&#x2122;" horiz-adv-x="1071" 
d="M768 467q52 54 105.5 112t104.5 112h39l-18 -141q-4 -32 -8 -71.5t-7.5 -79.5t-6 -78t-4.5 -66q-17 5 -29 7.5t-20 2.5q-18 0 -60 -11q10 49 20 104.5t14 110.5v-1q1 13 1 17.5t0.5 7t0.5 7t1 17.5l-16 -16t-15 -17q-24 -26 -51.5 -55.5t-53 -59t-48 -56.5t-37.5 -46h-33
q-13 43 -27 78t-28 67q-7 15 -13.5 30t-12.5 30l1 -1q-5 10 -6.5 14.5l-2.5 7.5t-3 7.5t-6 15.5q-6 -17 -12.5 -32t-12.5 -32q-20 -48 -36.5 -96.5t-30.5 -100.5q-14 5 -24 7.5t-15 2.5q-6 0 -24 -4.5t-44 -12.5q42 81 75 154t61 142l62 147h39q20 -64 42.5 -119t45.5 -108
q5 -11 8.5 -18l6.5 -13t6.5 -13.5t8.5 -17.5zM224 618q-20 0 -43.5 -1t-46.5 -2t-45 -2.5t-38 -2.5q13 15 23.5 28t10.5 15q1 2 -2.5 12t-7.5 22q23 -1 50 -2t54.5 -2t54.5 -1.5t50 -0.5t53.5 0.5t62.5 1.5t62.5 2.5t53.5 2.5l-21.5 -21.5t-11 -12t-5 -6t-1.5 -2.5
q0 -3 3.5 -10.5t11.5 -24.5q-38 2 -84 4.5t-84 2.5q-7 -27 -15.5 -60t-14.5 -59q-14 -57 -28 -121.5t-25 -121.5q-17 4 -30 6.5t-21 2.5t-25.5 -3t-40.5 -8q12 38 31.5 104t38.5 142z" />
    <glyph glyph-name="minus" unicode="&#x2212;" horiz-adv-x="719" 
d="M52 302h635l-22 -87h-635z" />
    <glyph glyph-name="fi" unicode="&#xfb01;" horiz-adv-x="618" 
d="M423 631q-32 16 -58 16q-45 0 -70.5 -24.5t-33.5 -55.5q-2 -12 -5 -36t-6 -51h41h20.5t25.5 0.5t25.5 0.5h20.5l-16 -32q-1 -4 -2.5 -8t-1.5 -3q-1 -3 -1 -13v-20q-11 0 -31 0.5t-30 0.5q-20 1 -33 1.5t-33 0.5q-25 -102 -50 -208.5t-47 -208.5q-20 4 -37 6.5t-28 2.5
q-9 0 -30 -2.5t-50 -6.5q34 105 62.5 209t54.5 208q-11 0 -16.5 -0.5l-16.5 -1.5h-11.5t-18 -0.5t-18 -0.5h-12.5l16 32l3 9q1 5 2.5 17.5t2.5 17.5q11 0 30 -0.5t30 -0.5h28q9 28 25 60t37.5 62.5t47 57.5t53.5 46q27 18 65.5 32t76.5 14q11 0 45 -8q-1 -5 -3 -12.5
t-4 -15.5t-4.5 -15.5t-3.5 -11.5q-3 -8 -6.5 -19.5t-6.5 -29.5zM425 294q10 40 20 89t16 105q20 -4 38 -5.5t32 -1.5q25 0 84 9q-24 -62 -40.5 -114.5t-25.5 -90.5q-6 -23 -12.5 -49l-12.5 -50q-10 -41 -19.5 -90.5t-15.5 -103.5q-43 8 -69 8q-12 0 -33.5 -2.5t-50.5 -6.5
q23 60 38.5 111.5t26.5 93.5zM494 636q7 26 33 44t58 18q35 0 54 -21t11 -51q-6 -26 -32 -44t-57 -18q-34 0 -54 21t-13 51z" />
    <glyph glyph-name="fl" unicode="&#xfb02;" horiz-adv-x="625" 
d="M424 631q-32 16 -58 16q-45 0 -70.5 -24.5t-33.5 -55.5q-2 -12 -5 -36t-6 -51h41h20.5t25.5 0.5t25.5 0.5h20.5l-16 -32q-4 -10 -4 -11q-1 -3 -1 -13v-20q-11 0 -31 0.5t-30 0.5q-20 1 -33 1.5t-33 0.5q-25 -102 -50 -208.5t-47 -208.5q-20 4 -37 6.5t-28 2.5
q-9 0 -30 -2.5t-50 -6.5q34 105 62.5 209t54.5 208q-11 0 -16.5 -0.5l-16.5 -1.5h-11.5t-18 -0.5t-18 -0.5h-12.5l16 32l3 9q1 5 2.5 17.5t2.5 17.5q11 0 30 -0.5t30 -0.5h28q9 28 25 60t37.5 62.5t47 57.5t53.5 46q27 18 65.5 32t76.5 14q11 0 45 -8q-1 -5 -3 -12.5
t-4 -15.5t-4.5 -15.5t-3.5 -11.5q-3 -8 -6.5 -19.5t-6.5 -29.5zM476 463q8 32 16.5 70t17 77t15.5 76t11 66q21 -4 38.5 -6t29.5 -2q14 0 35 2.5t47 7.5q-11 -33 -23 -72.5t-23.5 -80t-22 -79t-18.5 -69.5l-42 -171q-8 -32 -17 -70t-17.5 -77t-15.5 -76t-11 -68
q-22 4 -39.5 6.5t-28.5 2.5t-32 -2.5t-50 -6.5q10 30 22.5 69t24.5 80t22.5 80.5t18.5 70.5z" />
    <glyph glyph-name="glyph229" horiz-adv-x="720" 
d="M343 162q0 -2 -1.5 -6t-1.5 -5v-7h-4v10q4 4 7 8zM288 144q4 7 4 18h15q-7 0 -7 -8q0 -25 3 -32h4q2 5 7 14h4v-14h-11q-1 0 -2.5 1t-2.5 3t-2 3h-8q0 1 -2 6t-2 9zM374 110v15q3 0 5 1.5t3 2.5v-13q2 -1 4 -2.5t6 -3.5l1 -16q-6 7 -19 16zM89 627q24 7 64 7q25 0 37 -7
q10 -7 34 -7q19 9 22 18q29 0 33 24l9 4q2 3 7 5q5 0 5 2q5 2 7.5 6.5t10.5 4.5q1 3 7 6q7 2 7 5q32 0 32 18q8 0 13 6q4 7 12 7q1 2 9.5 5t8.5 6q7 0 10 3q12 8 16 8l9 4q7 2 7 7q11 0 22 4q11 3 19 3q0 4 7 8q7 2 8 3l89 19l42 -4l15 -8q7 -3 11 -7q10 -7 31 -18l7 -42
q-42 0 -42 5q-5 0 -14 4t-11 4q0 4 -1.5 5.5t-6.5 4.5h-68q-3 -3 -7 -10q-7 0 -21 -4t-21 -4q-13 -9 -18.5 -9t-14.5 -3q-4 0 -8 -6l-6 -6q-10 -3 -8 -3h-4q-1 -3 -8.5 -5l-7.5 -2q-3 0 -5.5 -2t-6.5 -5t-6 -5q-11 0 -15 -10q-5 0 -6 -2.5t-1 -9.5q-6 0 -13.5 -3.5t-8 -3.5
t-6.5 -4.5t-14 -4.5q-2 -1 -7 -2t-8 -6q-2 -1 -4 -4q-2 -5 -3 -6q-11 0 -11 -8q-4 0 -7 -1.5t-6 -4.5l-5 -5q-15 0 -15 -11q-5 0 -13 -7v-11q-4 -3 -6.5 -4t-4.5 -5v-15q6 -7 11 -7v-48q-6 0 -11 -9v-11q-2 -2 -4 -3q-3 -2 -7 -4v-22q-6 -3 -7 -4.5t-1 -10.5q0 -11 -3 -11
l-7 -7q-9 -4 -10.5 -6t-1.5 -10q-9 -4 -15 -8t-8 -11q-11 -11 -44 -11q-17 11 -35 11q-2 3 -7 11h-15q-3 0 -9 4q-7 4 -13 4q0 11 -11 16q0 7 -4 11q-10 0 -21 -1l-11 -1q-4 0 -11 7q-3 2 -6 2v55q2 3 5 5l6 4l4 83q1 0 2.5 1t2.5 3t2 3v15q5 2 6 6t5 4q0 1 10 4.5t10 7.5
q21 7 26 7zM385 132q-4 5 -7 7q-4 1 -15 1v18q6 -6 18 -14q0 -8 4 -12zM400 132q3 -3 3 -7q-3 3 -10 7h7zM403 125h7q5 2 12 10q6 9 10 9q-1 -4 -3.5 -6t-6.5 -6v-14l6 -4t4 -4q-4 0 -10 -7v-13l7 -7h17q1 -6 4 -10q2 -6 18 -12q3 11 3 22q-9 11 -22 11v31q3 0 11 7l-6 6
q-3 2 -5 6q2 -1 12 -5q6 -2 17 -5q6 -2 19 -2v-22q3 -2 6.5 -3.5t4.5 -3.5q0 -16 4 -20h9q3 3 3 14v6q9 0 13 1.5t9 5.5q-7 8 -11 8v14q3 0 11 8v26q-3 2 -6 3.5t-5 5.5q0 8 -1.5 10t-9.5 5q7 0 12.5 5t6.5 5v-10q0 -8 7 -8q3 -10 4 -11.5t7 -4.5q0 -15 8 -22h3q2 2 4 8t3 6
q20 7 20 24q5 0 18 8v-58h-7q-3 -3 -3 -14q-4 -1 -14 -8q10 -7 32 -7q0 -5 -2 -6.5t-5 -6.5v-36q-4 2 -5.5 3.5t-2 3.5t-3.5 7h-20q0 -2 -2 -6q-2 -6 -2 -8q-4 0 -11 -8q7 0 11 -3v-7q-2 -2 -5 -3.5t-6 -4.5v-16q-19 0 -22 -8v-7l1 -1q0 1 -4 1q0 3 -2 8t-2 7q-18 0 -23 -8
v-7q11 -11 22 -11v-7h-7q-12 -5 -21 -7q-4 -1 -10 -1v15q7 0 7 7q0 35 -3 43h-3q-8 -8 -8 -39q-7 0 -11 -4v-14h-26l-4 -8v-38q-10 0 -24 -4q9 -7 14 -7v-18q-6 2 -6 6q0 3 -7 5h-4q-5 -2 -6 -5q-2 -4 -5 -6v18q3 0 11 7q0 57 -7 64h-4q-1 -1 -3 -2l-1 -1l4 3q-4 4 -11 4
q0 31 -7 39h-4q-6 -3 -5 -21q1 -34 1 -31v-55q0 -1 4 -3t4 -4v-7q0 -1 -3.5 -4.5t-3.5 -6.5h-29v25q0 2 -1 3l-4 2q-2 1 -5 3q-2 7 -7 16h-4q-7 -7 -7 -24q3 -2 7 -3l4 -4v-7q-5 -4 -15 -11q3 0 11 11v7q0 7 -18 7q-15 0 -18 -7v-11q0 4 -7 4q0 10 -5 15q-5 4 -16 7v16l-7 4
h-15v14q-6 8 -11 8q-4 12 -22 18v31q11 3 11 15q2 0 5.5 1.5t5.5 1.5q0 19 -4 22h-7q-3 -3 -3 -14q-5 0 -19 -8v44q4 0 7 2t4 2v38h18v-14q-5 0 -7 -4q-2 -2 -3 -4q29 0 36 8v7l-4 4l4 -4h17q0 -31 3 -35h-9l-7 -7v-15q-6 -2 -7 -3.5t-4 -10.5q-4 0 -11 -8h35v-10
q-9 -4 -13 -8q0 -11 7 -24q10 4 21 17v22h7q1 -12 3 -31h8q4 3 4 16q18 0 21 8v7l-7 7l7 4v14q3 -2 8 -3.5t7 -3.5q0 -8 1 -9.5t5 -8.5q27 0 32 11v9h-1q1 -2 5 -2q6 8 6.5 11t0.5 11q3 0 11 7v20q-7 8 -11 8q0 2 -2 4t-2 3zM617 129q2 -1 3 -2l1 -2h8q0 -3 -4 -7h-3
q-5 4 -5 11zM629 125q0 4 3 7q0 -2 -1 -3q-2 -3 -2 -4zM632 132v50q4 0 11 8v10h15l4 8v22h7v-90q-1 -2 -5 -3q-3 -2 -6 -5v-14l-14 -8q0 19 -8 22h-4zM456 -67q2 -1 3 -2l1 -2v3q-1 1 -4 1zM460 -71q4 -1 9 -8l6 -6q0 7 -7 14h-8zM468 -67q3 9 3 31h15q2 -2 3 -4q0 -4 4 -6
q2 -1 4 -1q-2 -2 -5 -3.5t-6 -3.5v-9q0 -5 -3 -5q-3 1 -6 1h-9zM414 -10q-1 -5 -1 -15v-12q0 -20 -2 -26h-4v49q3 0 7 4zM307 -89l3 -4q0 3 -1 4h-2zM310 -93q4 0 8 -3q-8 0 -8 3zM264 129q-3 0 -7 3v12l-7 7h-15v15q11 0 11 9v7q-1 3 -5.5 5t-5.5 3v10q-6 8 -11 8
q3 0 7 2.5t4 4.5v7q0 3 -4 4q-5 2 -7 4v34h8v-16l3 -7h15v-33q-8 0 -8 -8v-7q0 -3 8 -3v-24q2 -1 6 -4t5 -4v-26zM296 90q4 4 4 20h13q-2 -1 -3.5 -3t-2.5 -4v-31q-1 1 -3 2.5t-4 1.5q0 7 -4 14zM307 72l4.5 -2t6.5 -2h-8q-1 1 -1 2zM318 68q1 7 7 15v-15h-7zM531 237
q2 -2 3 -4l4 -2q2 -1 4 -1l1 -15h-18q0 8 -1.5 10t-11.5 5q0 34 -4 42h-3q-4 -2 -5 -8q-2 -6 -3 -7h-4v15h15q1 6 4 14h9v-14q8 -8 11 -8zM511 305q0 7 -6 7q-8 -7 -12 -7v14h15q0 -3 1.5 -8t1.5 -6zM300 290h-12q0 -2 -1.5 -6t-1.5 -5q-27 -7 -28 -7v25h15l7 8v14
q27 0 31 20q18 5 22 22h15q0 -29 7 -34h4q6 5 6 20q7 4 10 7v15q9 -8 11 -8h8q-1 0 7 8q0 -18 7 -22h4l3.5 7l3.5 7h15q1 -5 4 -11q1 -1 9 -3q-14 0 -14 -8v-7q4 -5 36 -5v-15h-39q-2 2 -3 8q-3 6 -4 7h-4q-2 -5 -7 -15h-4q-2 3 -7 15h-15q0 -6 -3 -15h-8q0 4 -3 15h-28
q-2 -6 -7 -15q-10 0 -20 -8z" />
    </font>
</defs>
</svg>
