<?xml version="1.0" standalone="no"?>
<!DOCTYPE svg PUBLIC "-//W3C//DTD SVG 1.1//EN" "http://www.w3.org/Graphics/SVG/1.1/DTD/svg11.dtd" >
<svg xmlns="http://www.w3.org/2000/svg" xmlns:xlink="http://www.w3.org/1999/xlink" version="1.1">
<metadata>
Created by FontForge 20170731 at Mon Mar 29 00:52:18 2004
 By Aleksey,,,
Copyright (c) Luke Owens, 2004. All rights reserved.
</metadata>
<defs>
<font id="OregonLDOExtendedBlack-Oblique" horiz-adv-x="215" >
  <font-face 
    font-family="Oregon LDO Extended Black"
    font-weight="900"
    font-style="oblique"
    font-stretch="normal"
    units-per-em="1000"
    panose-1="2 1 6 3 0 0 0 2 0 4"
    ascent="800"
    descent="-200"
    x-height="500"
    cap-height="694"
    bbox="-156 -252 1358 896"
    underline-thickness="50"
    underline-position="-150"
    slope="-12"
    unicode-range="U+0020-FB02"
  />
<missing-glyph horiz-adv-x="278" 
 />
    <glyph glyph-name=".notdef" horiz-adv-x="278" 
 />
    <glyph glyph-name=".null" horiz-adv-x="0" 
 />
    <glyph glyph-name="nonmarkingreturn" horiz-adv-x="278" 
 />
    <glyph glyph-name="space" unicode=" " horiz-adv-x="278" 
 />
    <glyph glyph-name="space" unicode="&#xa0;" horiz-adv-x="278" 
 />
    <glyph glyph-name="exclam" unicode="!" horiz-adv-x="202" 
d="M-65 86q6 23 26 43t46 29q4 25 9 59.5t9 60.5q9 59 17 117.5t15 106.5t12.5 82t8.5 43q11 36 40 53.5t60 17.5q19 0 36.5 -5t28.5 -15.5t15.5 -27.5t-1.5 -42l1 1q-1 -6 -7.5 -25.5t-17 -49t-23.5 -67t-28 -79.5q-5 -12 -9 -24.5t-9 -25.5q-10 -26 -20 -55.5t-21 -58.5
q-5 -16 -12.5 -36.5t-12.5 -34.5h-5q23 -12 34 -34.5t4 -50.5q-4 -16 -14.5 -30t-26 -24.5t-33.5 -17t-37 -6.5q-22 0 -40 7.5t-30 20.5t-16 30.5t1 37.5z" />
    <glyph glyph-name="quotedbl" unicode="&#x22;" horiz-adv-x="338" 
d="M60 698h132l-83 -331h-131zM227 698h131l-82 -331h-132z" />
    <glyph glyph-name="numbersign" unicode="#" horiz-adv-x="545" 
d="M156 387h-106q17 19 32.5 40.5t28.5 41.5t22 37t12 28h87q21 42 31.5 63.5t15.5 32.5q2 4 8 14t16 24q30 -8 38 -8q5 1 13 3q6 2 15.5 3.5t21.5 4.5q8 2 31 7t49 12q-20 -23 -36.5 -41t-30.5 -35.5t-26.5 -36.5t-24.5 -43h46q20 39 31.5 63t16.5 35q1 1 3 4.5t4 7.5
t6.5 13.5t5.5 11.5q39 -9 43 -9q3 0 35.5 7.5t88.5 20.5q-18 -21 -33.5 -39t-29 -35.5t-25.5 -36.5t-24 -43h97q-13 -17 -26.5 -38t-25.5 -41.5t-21 -38.5t-13 -29h-86q-8 -18 -16 -34t-16 -30v1l-7.5 -13.5t-4.5 -9t-5 -10.5t-8 -17h102q-14 -18 -29 -39t-27.5 -42
t-21.5 -38.5t-12 -27.5h-88q-23 -46 -35 -70.5t-18 -36.5q-2 -5 -6 -11.5t-6 -11.5h-22q-4 0 -7.5 0.5t-4.5 0.5q-8 2 -10 2q-1 0 -4 -0.5t-8 -1.5q-1 0 -9.5 -0.5t-16.5 -0.5h-58q13 18 23.5 32.5t19.5 29t18.5 30.5t20.5 38h-44l-23.5 -47t-15.5 -32.5t-10.5 -22.5
t-7.5 -16q-1 -1 -5 -6t-5 -6h-20q-4 0 -9 0.5t-6 0.5l-8 2q-3 0 -7 -1q-1 0 -2.5 -0.5t-3.5 -0.5q-1 0 -8 -0.5t-15 -0.5h-62q13 17 23.5 31.5t20.5 29t20 31.5t21 38h-101q16 18 31 39t27.5 41.5t21 38t11.5 28.5h86zM324 387h-47q-4 -8 -7.5 -16t-6.5 -14l-11 -22
t-7.5 -16.5t-8.5 -18.5t-14 -26h46z" />
    <glyph glyph-name="dollar" unicode="$" horiz-adv-x="579" 
d="M228 285q-39 14 -68 29t-47.5 33.5t-28 41t-9.5 51.5q0 10 1.5 21.5t5.5 23.5v-1q9 35 31 66t53.5 55.5t71 41t85.5 24.5q1 5 1 11.5v11.5q0 4 -0.5 12.5t-1 18.5t-1.5 19t-1 14q56 -19 69 -19q8 0 34 5t68 16q-17 -31 -31 -54t-16 -34q57 -8 98.5 -28.5t71.5 -39.5
q-32 -31 -49.5 -56.5t-33.5 -59.5h-66q-5 21 -16 44t-36 31q-5 -22 -10 -41.5t-10 -39.5q-7 -24 -10.5 -40t-9.5 -42q40 -14 70.5 -28.5t50 -32t29.5 -40t10 -53.5q0 -8 -1.5 -18.5t-5.5 -21.5q-10 -34 -33 -67t-56.5 -61.5t-75 -50.5t-89.5 -33q-4 -20 -7 -46.5t-5 -68.5
q-54 16 -63 16q-7 0 -32 -5.5t-63 -15.5q18 40 29.5 67t18.5 46q-54 3 -104 21.5t-100 56.5q15 18 24.5 32.5t16.5 28t12 27.5t11 31h64q22 -48 49.5 -67t56.5 -23zM302 119q48 28 57 72q2 7 3 12t1 6q0 8 -6 15.5t-23 18.5zM293 550q-39 -23 -48 -59l1 1q-2 -7 -3 -12
t-1 -6q0 -10 6.5 -19t17.5 -16z" />
    <glyph glyph-name="percent" unicode="%" horiz-adv-x="1052" 
d="M333 675q88 0 136 -41.5t48 -109.5q0 -9 -1 -20.5t-5 -22.5q-11 -38 -34.5 -70t-56.5 -55.5t-74.5 -37t-87.5 -13.5q-88 0 -136 41t-48 109q0 11 2 22.5t4 24.5zM794 357q88 0 136 -42t48 -109q0 -19 -6 -44q-10 -38 -33.5 -70t-56.5 -55.5t-75 -37t-88 -13.5
q-88 0 -136 41.5t-48 108.5q0 9 1 20.5t5 23.5l-1 -5zM777 702q15 -6 24.5 -8.5t13.5 -2.5q5 0 39.5 9t94.5 25l-677 -767q-32 12 -36 12q-6 0 -42.5 -9.5t-94.5 -24.5zM690 125q0 -20 7.5 -32.5t27.5 -12.5q18 0 33 8.5t27 22.5t20 32t13 38q2 9 3.5 17.5t1.5 19.5
q0 18 -7.5 30.5t-27.5 12.5q-35 0 -59 -30t-35 -69l-31 18zM234 481q-2 -9 -3.5 -18t-1.5 -20q0 -19 7.5 -31.5t27.5 -12.5q16 0 31 8.5t27 22.5t21 32t14 36q5 20 5 38q0 19 -7.5 31.5t-27.5 12.5q-18 0 -33 -8.5t-27 -22t-20.5 -31.5t-12.5 -37z" />
    <glyph glyph-name="ampersand" unicode="&#x26;" horiz-adv-x="791" 
d="M200 513q8 34 30.5 63.5t54.5 51.5t71.5 34.5t83.5 12.5q75 0 120 -28.5t45 -84.5q0 -8 -1 -16t-4 -17q-8 -24 -26 -47.5t-41.5 -44t-51 -38.5t-54.5 -32q26 -38 47.5 -67.5t49.5 -62.5q40 38 86 87t101 114q14 -40 35 -65t47 -39q-49 -46 -99 -91.5t-102 -86.5
q20 -23 42.5 -50t42.5 -50q4 -5 12 -14t16 -18.5t15 -17.5t9 -11h-48t-30 0.5t-16.5 1t-7.5 0.5h2q-27 3 -50 3q-10 0 -23.5 -1t-27.5 -3q-2 0 -6 -0.5t-7 -0.5h-20q-4 5 -7 10t-5 10l1 -1q-5 9 -12.5 20.5t-17.5 24.5q-56 -34 -117.5 -54.5t-137.5 -20.5q-46 0 -85.5 10
t-68.5 29.5t-45.5 48t-16.5 66.5q0 8 1.5 19.5t5.5 23.5q8 30 29 59t51.5 56t69 49.5t80.5 39.5q-25 47 -25 93q0 11 1 18.5t3 15.5zM154 179q-4 -15 1.5 -29.5t18.5 -26t32.5 -18t45.5 -6.5q41 0 72.5 8.5t66.5 28.5q-33 41 -62 81t-55 80q-51 -23 -80 -50.5t-40 -67.5z
M471 548q3 12 -6.5 20t-28.5 8q-30 0 -53 -16.5t-29 -40.5l1 1q-3 -13 1.5 -33t14.5 -40q46 25 70.5 51t29.5 50z" />
    <glyph glyph-name="quotesingle" unicode="'" horiz-adv-x="156" 
d="M50 698h132l-82 -331h-132z" />
    <glyph glyph-name="parenleft" unicode="(" horiz-adv-x="261" 
d="M380 644q-61 -50 -102.5 -95t-69 -89t-44.5 -88.5t-29 -92.5q-11 -40 -16.5 -75.5t-5.5 -70.5q0 -46 18.5 -97t65.5 -115l-85 -54q-68 72 -100.5 151t-32.5 160q0 28 3.5 58t12.5 61q14 50 41.5 104.5t67.5 108.5t90.5 104.5t110.5 93.5z" />
    <glyph glyph-name="parenright" unicode=")" horiz-adv-x="261" 
d="M-120 -70q56 47 97 94t70 93t47.5 91t30.5 89q8 35 14.5 74t6.5 71q0 47 -19 98t-65 116l85 54q69 -74 101.5 -153.5t32.5 -160.5q0 -28 -3.5 -56.5t-12.5 -60.5q-14 -51 -41.5 -105.5t-67 -107.5t-90 -103.5t-111.5 -93.5z" />
    <glyph glyph-name="asterisk" unicode="*" horiz-adv-x="449" 
d="M202 696q26 -8 39.5 -11t22.5 -3q8 0 29 4.5t63 15.5l-44 -116l10 4q13 7 31 16l37 18.5t35.5 18t27.5 13.5q-6 -35 10.5 -68t51.5 -53l-156 -51q10 -3 15.5 -5.5t15.5 -6.5q7 -3 19.5 -8t26 -11t25.5 -11t18 -8q-16 -9 -32 -20.5t-30.5 -25t-26 -29t-17.5 -31.5l-110 71
q0 -1 -0.5 -2t-0.5 -2q-2 -12 -3 -26t-2.5 -28.5t-2.5 -27.5t-2 -23h-30h-11q-3 0 -4 1q-14 3 -22 3q-3 0 -13.5 -1.5t-23.5 -3.5l-51 -8l38 108q-5 -2 -12 -6.5t-12 -6.5q-11 -5 -26 -12.5l-30 -15l-28 -14l-21 -10.5q2 35 -16.5 66t-48.5 51l146 50q-33 13 -67 26t-53 21
q14 9 31 21.5t32 27.5t26.5 32t15.5 35l113 -80z" />
    <glyph glyph-name="plus" unicode="+" horiz-adv-x="638" 
d="M14 324h253q12 48 26 102.5t25 99.5h132l-50 -202h253l-30 -121h-253q-2 -8 -4.5 -16.5t-4.5 -18.5q-5 -20 -11 -42t-11.5 -44t-11 -43t-9.5 -39h-131l50 203h-252z" />
    <glyph glyph-name="comma" unicode="," 
d="M99 124v-1q10 17 31.5 34.5t57.5 17.5q14 0 28.5 -4.5t25.5 -13.5t16 -23.5t0 -35.5q-4 -14 -15.5 -29t-20.5 -25q-23 -24 -48 -49l-51 -51q-23 -24 -51.5 -53t-50.5 -51l-89 26z" />
    <glyph glyph-name="hyphen" unicode="-" horiz-adv-x="398" 
d="M38 308h352l-32 -129h-352z" />
    <glyph glyph-name="period" unicode="." horiz-adv-x="204" 
d="M113 165q23 0 41 -7.5t29.5 -21t16 -31t-0.5 -37.5q-4 -16 -14.5 -30t-26 -24.5t-33.5 -17t-37 -6.5q-46 0 -71 28t-14 68l31 -18z" />
    <glyph glyph-name="slash" unicode="/" horiz-adv-x="416" 
d="M399 709q33 -11 43 -11q6 0 20 3t36 8q1 0 10.5 2.5t20.5 5.5t20 5.5t11 2.5l-543 -752q-17 5 -28 8t-16 3q-7 -2 -16 -4q-8 -2 -17.5 -4t-20.5 -4l1 1q-2 0 -11 -2.5t-19.5 -4.5t-20 -4.5t-11.5 -2.5z" />
    <glyph glyph-name="zero" unicode="0" horiz-adv-x="651" 
d="M29 340q16 68 46 129t76 106.5t108 72.5t143 27q68 0 114.5 -15.5t74.5 -44t40 -67.5t12 -86q0 -32 -5.5 -67.5t-15.5 -73.5q-17 -66 -49 -127t-79.5 -107t-108.5 -73.5t-136 -27.5q-68 0 -114.5 15.5t-74.5 43.5t-40 67.5t-12 86.5q0 32 5.5 67.5t15.5 73.5zM191 322
q-8 -36 -13.5 -68t-5.5 -61q0 -48 19 -76.5t65 -28.5q39 0 70.5 19.5t57 53.5t44.5 80t33 99l-1 -1q8 32 13.5 66.5t5.5 60.5q0 49 -19 77.5t-65 28.5q-41 0 -72.5 -17.5t-56 -50.5t-43 -79.5t-32.5 -103.5v1z" />
    <glyph glyph-name="one" unicode="1" horiz-adv-x="336" 
d="M196 521q-12 -4 -24.5 -9.5t-23.5 -10.5q-7 -3 -16.5 -6.5t-19 -7.5t-18.5 -8t-15 -6q-7 20 -18 35t-23 22l2 55q34 10 76 23.5t84.5 27.5t83.5 28.5t73 26.5l48 -28q-4 -11 -9.5 -28.5t-8.5 -29.5q-16 -51 -31.5 -102.5t-27.5 -99.5q-3 -11 -6.5 -24.5t-5.5 -25.5
q-7 -26 -13 -51t-11 -48q-8 -29 -15.5 -63.5t-14.5 -69.5t-13.5 -69t-11.5 -62q-29 5 -48.5 7.5t-30.5 2.5q-9 0 -38.5 -3.5t-69.5 -8.5q9 28 21 65.5t23.5 76t22 75.5t18.5 66z" />
    <glyph glyph-name="two" unicode="2" horiz-adv-x="588" 
d="M103 554q65 63 131 92t144 29q46 0 85.5 -9t68.5 -28t45.5 -48.5t16.5 -69.5q0 -22 -7 -50q-9 -35 -25.5 -64.5t-42.5 -57t-61.5 -55t-80.5 -57.5l-27 -18l-17 -12q-17 -11 -31 -20.5t-28 -18.5q-13 -8 -19.5 -11t-12 -5.5t-11 -7t-17.5 -14.5h3q39 0 85 1t90.5 2.5
t82.5 3t62 3.5q-17 -31 -31 -54.5t-16 -28.5q-1 -5 0.5 -22.5t3.5 -40.5q-30 1 -66 2.5t-73.5 2.5t-73.5 1.5t-66 0.5t-67.5 -0.5t-76.5 -1.5t-76 -2.5t-67 -2.5l16 75q92 60 160.5 107t118 84.5t83 67t55 56t33.5 50.5t19 51q2 8 3 16t1 16q0 26 -17.5 39.5t-44.5 13.5
q-29 0 -52.5 -10.5t-41 -25.5t-30 -32t-18.5 -30l-53 -2z" />
    <glyph glyph-name="three" unicode="3" horiz-adv-x="561" 
d="M109 601q19 13 43 26t51.5 23.5t59 17.5t66.5 7q46 0 86.5 -8.5t70 -25.5t46.5 -43.5t17 -63.5q0 -8 -1 -18t-4 -21q-13 -45 -43 -78t-67 -56q32 -16 56 -44.5t24 -73.5q0 -19 -7 -40q-14 -45 -47 -84.5t-81.5 -69t-109.5 -46.5t-130 -17q-64 0 -119 16.5t-101 35.5
q8 9 17 22.5t17 27t14 27t9 22.5l51 16q8 -10 20 -21.5t27 -21t34 -16t41 -6.5q71 0 119.5 33.5t61.5 86.5q2 10 3.5 18.5t1.5 15.5q0 30 -26 42.5t-68 12.5q-7 0 -23 -2.5t-35 -5.5q-3 0 -11 -1t-16.5 -2.5t-16 -3t-10.5 -1.5q1 3 5 11.5t8 17.5t7.5 17.5t5.5 11.5v-1
q2 5 4 11.5t3 8.5v50q26 -4 50.5 -6.5t35.5 -2.5q31 0 52.5 10.5t36.5 26.5t24 35.5t14 37.5q2 10 2 20q0 23 -18.5 33t-42.5 10q-36 0 -70 -21.5t-54 -49.5l-54 -2z" />
    <glyph glyph-name="four" unicode="4" horiz-adv-x="629" 
d="M-32 232q63 55 135 118.5t140 124t125.5 113t93.5 86.5q18 -4 30.5 -6.5t17.5 -2.5q6 0 31.5 5t59.5 12q-12 -39 -26.5 -87.5t-29.5 -100.5t-29 -105t-26 -100q16 1 34.5 3l37 4t35 4t28.5 4q-20 -33 -32.5 -56.5t-14.5 -27.5q-1 -9 -1 -28.5v-39.5q-38 7 -66.5 10.5
t-50.5 3.5q-2 -3 -2 -5.5t-1 -4.5l1 1q-5 -23 -11 -50.5t-9 -50.5q0 -5 -2 -14.5t-4 -20.5t-4 -20t-3 -12q-27 5 -47 8t-30 3q-8 0 -25 -2t-40 -5q-4 -1 -11.5 -2t-15.5 -2.5t-14.5 -3t-7.5 -1.5q1 1 6 12.5t11 25t11 25t6 13.5q2 7 5 15.5t6 16.5q5 17 11.5 36t11.5 38
q-37 0 -88.5 -1t-103 -2.5t-95 -2.5t-63.5 -2zM372 448q-2 -2 -6 -5.5t-6 -5.5q-28 -24 -51.5 -44.5t-43.5 -38.5t-38 -34.5t-35 -32.5h141z" />
    <glyph glyph-name="five" unicode="5" horiz-adv-x="564" 
d="M238 426q15 2 34 3.5t39 1.5q52 0 92 -13t67.5 -36.5t41.5 -54.5t14 -67q0 -18 -6 -42q-12 -48 -45 -90.5t-81 -74t-109 -49.5t-129 -18q-55 0 -107.5 11.5t-98.5 40.5l2 41q11 14 23 36t20 39h56q13 -32 46.5 -49t70.5 -17q27 0 54 9.5t51 27t43 43t29 58.5l2 16t1 15
q0 35 -26.5 49.5t-63.5 14.5t-66.5 -10t-44.5 -18q5 2 0 -1t-12 -5l-58 29q24 54 36 92.5t22 72.5v-1q0 3 1 6.5t2 7.5q9 37 17.5 78.5t11.5 83.5l38 19q6 0 12.5 -0.5t9.5 -0.5q10 -1 22 -2t26 -2q49 -3 135 -3h52t49.5 0.5t42 1t28.5 0.5l37 -36q-27 -44 -32 -64
q-1 -2 -1 -13v-38q-35 6 -77.5 10t-85.5 6t-82 3t-67 1z" />
    <glyph glyph-name="six" unicode="6" horiz-adv-x="600" 
d="M563 587l-46 -22q-25 7 -61 7q-39 0 -73.5 -14t-64 -37.5t-54 -53.5t-42.5 -61q26 11 56 17t65 6q32 0 70.5 -7t72.5 -25.5t56.5 -50t22.5 -80.5q0 -10 -1.5 -23t-6.5 -27q-14 -50 -44 -92.5t-73.5 -73t-98.5 -47.5t-118 -17q-48 0 -90 11.5t-73 36.5t-49 64.5t-18 95.5
q0 20 3 44t11 51q20 79 61.5 149.5t100.5 123.5t133.5 83.5t160.5 29.5q21 0 37.5 -1.5t36.5 -4.5zM384 215q5 22 5 44q0 29 -18 46.5t-55 17.5q-26 0 -51 -9.5t-46 -26.5t-37.5 -39.5t-24.5 -48.5q-2 -9 -3 -18.5t-1 -17.5q0 -34 21 -54.5t58 -20.5q57 0 97.5 35t54.5 92z
" />
    <glyph glyph-name="seven" unicode="7" horiz-adv-x="572" 
d="M641 594q-67 -68 -140 -143.5t-146.5 -153.5t-144.5 -156t-135 -150q-18 4 -31.5 6.5t-21.5 2.5q-7 0 -27 -3.5t-51 -8.5q-2 0 -13.5 -2.5t-25 -5t-25.5 -5t-13 -2.5q69 67 149 146t157 155.5t142.5 143t105.5 107.5q-34 -1 -76.5 -2t-90 -2.5t-98.5 -3t-102 -3.5
q17 35 27 58t12 30q2 8 3 26.5t1 43.5q22 -2 48.5 -3.5t52 -3t48.5 -2.5t38 -1q20 0 48.5 -0.5t58 -1t57 -0.5h47.5q10 0 18.5 0.5t16.5 0.5h126z" />
    <glyph glyph-name="eight" unicode="8" horiz-adv-x="617" 
d="M-12 206q14 51 50 95.5t102 74.5q-20 17 -31.5 40t-11.5 54q0 8 1 17t4 18q10 33 35 63.5t62 54t84 38t100 14.5q58 0 100 -11.5t69 -31t39.5 -45.5t12.5 -55q0 -8 -1.5 -17t-3.5 -17q-9 -35 -34.5 -68t-66.5 -56q28 -18 49 -48t21 -73q0 -9 -1 -21.5t-4 -24.5
q-15 -47 -48 -87.5t-78 -70t-98.5 -46.5t-108.5 -17t-100.5 11.5t-78.5 33.5t-51 54.5t-18 74.5q0 19 6 46zM390 210q2 7 3 15t1 18q0 32 -21.5 52t-61.5 20q-29 0 -53.5 -9.5t-44.5 -26t-34 -39t-21 -48.5v1q-2 -7 -3 -16.5t-1 -18.5q0 -32 21 -51t61 -19q58 0 99 34.5
t55 88.5v-1zM436 530q0 18 -13.5 30t-46.5 12q-48 0 -76 -25.5t-37 -60.5l1 1q-2 -6 -3 -13t-1 -13q0 -19 13.5 -31.5t45.5 -12.5q49 0 78 27t37 65l36 -5z" />
    <glyph glyph-name="nine" unicode="9" horiz-adv-x="610" 
d="M62 131q23 -20 47 -31.5t48 -11.5q39 0 72.5 13.5t62 37t51.5 54t41 64.5q-59 -25 -130 -25q-103 0 -159.5 42.5t-56.5 123.5q0 14 2 28.5t7 30.5v-1q12 46 41.5 86t73 69.5t98.5 46.5t118 17q49 0 91.5 -11.5t74 -36.5t50 -64.5t18.5 -95.5q0 -20 -2.5 -44.5
t-10.5 -52.5q-22 -76 -65.5 -145.5t-102.5 -122.5t-132 -84.5t-154 -31.5q-34 0 -67 7t-54 15q-1 17 -6.5 43t-17.5 51zM448 479q3 12 3 28q0 30 -22 47.5t-61 17.5q-53 0 -95.5 -36t-57.5 -99q-3 -11 -4 -22t-1 -22q0 -29 19 -41.5t53 -12.5q32 0 59.5 12t49 31.5
t36.5 44.5t21 52z" />
    <glyph glyph-name="colon" unicode=":" horiz-adv-x="213" 
d="M47 413q4 16 15.5 30.5t26.5 25.5t33 17.5t37 6.5q46 0 70.5 -28.5t15.5 -69.5q-4 -16 -15 -30t-26 -24.5t-33.5 -17t-37.5 -6.5q-45 0 -70 28t-16 68zM-33 86q4 16 14.5 30.5t25.5 25t33.5 17t37.5 6.5q22 0 40 -7.5t30 -21t16 -31t0 -37.5q-5 -16 -16 -30t-26 -24.5
t-33 -17t-37 -6.5q-45 0 -69.5 28t-15.5 68z" />
    <glyph glyph-name="semicolon" unicode=";" horiz-adv-x="234" 
d="M63 124v-1q11 17 32 34.5t56 17.5q15 0 29.5 -4.5t25.5 -13.5t16 -23.5t-1 -35.5q-4 -14 -15 -29t-21 -25q-41 -42 -86 -87.5t-87 -87.5q-5 -5 -13.5 -14.5t-13.5 -14.5l-88 26zM217 493q46 0 71.5 -28.5t15.5 -69.5q-4 -16 -15 -30t-26.5 -24.5t-34 -17t-36.5 -6.5
q-22 0 -39.5 7.5t-29.5 20.5t-16.5 30.5t0.5 37.5l31 -18z" />
    <glyph glyph-name="less" unicode="&#x3c;" horiz-adv-x="674" 
d="M11 315l701 238l-30 -128l-483 -165q83 -32 165.5 -66t163.5 -67h-1q14 -6 36 -14.5t36 -14.5l-29 -120l-580 241z" />
    <glyph glyph-name="equal" unicode="=" horiz-adv-x="685" 
d="M684 289h-639l30 122h640zM642 116h-640l31 120h638z" />
    <glyph glyph-name="greater" unicode="&#x3e;" horiz-adv-x="674" 
d="M-8 102l482 165q-15 6 -29.5 12t-29.5 11q-83 34 -171 69.5t-170 69.5l28 120l581 -242l-23 -95l-700 -240z" />
    <glyph glyph-name="question" unicode="?" horiz-adv-x="348" 
d="M93 162q-17 4 -34 12.5t-31 21.5t-22.5 31.5t-8.5 42.5q0 9 1 15.5t3 14.5q7 28 23 52t37.5 44t46 38t48.5 34q18 12 35 24t31.5 24.5t24 24.5t12.5 23q4 13 -10 20t-31 7q-25 0 -68 -24t-93 -63l18 152q35 14 74.5 28t82.5 14q44 0 77 -10.5t54.5 -28t32.5 -41.5t11 -51
q0 -16 -4 -33q-8 -29 -25.5 -54.5t-40 -48t-48.5 -42t-51 -35.5q-18 -12 -35 -24t-31 -24t-23.5 -23t-12.5 -21q-1 -2 1.5 -5t8.5 -3q8 0 21.5 4.5t19.5 7.5l75 -37q-19 -14 -38 -32.5t-22 -29.5q-17 -4 -32.5 -7t-29.5 -4q26 -11 38 -35t6 -53q-5 -16 -16 -30t-26 -24.5
t-33 -17t-37 -6.5q-23 0 -41 8t-29.5 21.5t-15.5 32t1 38.5z" />
    <glyph glyph-name="at" unicode="@" horiz-adv-x="841" 
d="M822 398q-16 -58 -54 -105.5t-86 -79.5l-31 -98q-20 -12 -52.5 -27.5t-75 -29.5t-93 -23.5t-106.5 -9.5q-55 0 -108.5 15t-95.5 45.5t-68 77t-26 110.5q0 16 2.5 35t7.5 39q16 57 59 113t107 99.5t146.5 70.5t176.5 27q87 0 145.5 -16t94.5 -43.5t51 -63.5t15 -76
q0 -15 -2 -30t-7 -31v1v0zM492 443q0 2 -4 3t-15 1q-24 0 -46.5 -14.5t-41 -36.5t-32.5 -48t-20 -49q-1 -7 -2 -15t-1 -14q0 -9 17 -9q25 0 49 18.5t43 44.5t32.5 54.5t18.5 48.5l32 -18zM702 452q0 17 -4.5 31t-15.5 26q-33 -65 -55.5 -109.5t-37 -74t-22.5 -46t-11 -25.5
q18 4 39 16.5t41 31.5t36 43.5t24 52.5l-1 -1q3 15 5 29t2 26zM195 321q15 57 52 104.5t85 77.5q-60 -35 -103 -87.5t-60 -113.5q-3 -12 -5 -23.5t-2 -22.5q0 -31 14.5 -54.5t40.5 -39t62 -23.5t80 -8q31 0 65 7t69 18q-45 6 -61 31q-23 -14 -52.5 -23t-58.5 -9
q-133 0 -133 116q0 23 7 50zM481 550q20 0 39 -4t33 -12l4 7h69q-42 13 -112 13q-35 0 -73 -8q10 2 20 3t20 1zM550 238q0 1 0.5 2t0.5 2q-1 -2 -1 -4z" />
    <glyph glyph-name="A" unicode="A" horiz-adv-x="820" 
d="M522 698q5 -20 13.5 -53t16.5 -59q2 -7 3.5 -13t2.5 -11q4 -14 7.5 -28t8.5 -28q18 -68 37.5 -138t39.5 -137.5t40 -129.5t39 -113q-40 5 -71 8.5t-43 3.5q-11 0 -35 -2.5t-59 -7.5q-5 63 -17 113.5t-24 97.5q-1 4 -2 7.5t-2 7.5q-1 3 -1.5 5.5t-1.5 5.5q-2 6 -1.5 4.5
t-1.5 5.5q-28 1 -58.5 0.5t-58.5 -0.5q-30 0 -55 -0.5t-53 -0.5h-11q-51 -67 -96.5 -133t-73.5 -113q-22 5 -36.5 7.5t-19.5 2.5t-17.5 -2t-32.5 -6q-4 0 -15.5 -2t-25 -4t-26 -4t-16.5 -3q64 78 139 170.5t152 188t151 188.5t136 172h68zM412 463q-17 -21 -29 -37.5
t-28 -36.5l-16 -20t-16 -21h16h30h24h15h15h23z" />
    <glyph glyph-name="B" unicode="B" horiz-adv-x="632" 
d="M61 429q10 39 17.5 77.5t15.5 77.5l5 31q2 14 7 37t7 37q14 -1 33.5 -2.5t40 -2.5t40 -1.5t34.5 -0.5q14 0 28.5 0.5t29.5 1.5q5 0 10.5 0.5t10.5 0.5q9 1 20.5 1.5t20.5 0.5q51 0 95.5 -6.5t78 -22t52.5 -41.5t19 -66q0 -14 -5 -39q-12 -46 -43 -81.5t-75 -59.5
q41 -17 58 -46.5t17 -74.5q0 -23 -7 -48v1q-16 -56 -55 -95.5t-90 -64.5t-108.5 -36.5t-110.5 -11.5q-14 0 -28 0.5t-28 1.5q-3 0 -9 0.5t-9 0.5q-9 1 -17.5 1.5t-16.5 0.5q-14 0 -35 -1t-44.5 -2.5t-45 -3t-35.5 -2.5q9 30 20.5 67t23 75.5t22 75t17.5 65.5zM180 241l1 1
q-6 -26 -11 -51t-10 -51l-9 -37q15 -1 31.5 -1h33.5q28 0 56.5 9.5t53.5 26t44 39.5t28 50q1 5 2 9t1 11q0 17 -13 28.5t-37 18t-57.5 9.5t-74.5 3h-22zM237 411q33 0 67 5.5t63 18t50.5 32t30.5 47.5v-1q0 3 0.5 9t0.5 11q0 15 -11 24t-28.5 14.5t-39 7t-43.5 1.5h-18.5
h-13.5h-12t-13 -1q-2 -8 -4.5 -16t-4.5 -16q-9 -30 -17.5 -59t-14.5 -55l-6 -22h14z" />
    <glyph glyph-name="C" unicode="C" horiz-adv-x="803" 
d="M672 45q-15 -8 -42.5 -18.5t-64 -20t-79 -16t-87.5 -6.5q-85 0 -154 18.5t-118 54t-75.5 87.5t-26.5 119q0 20 2.5 42t8.5 45q22 81 71.5 145.5t120 109.5t158 69t185.5 24q76 0 153 -18.5t141 -45.5q-32 -35 -47.5 -60t-22.5 -40l1 7q-1 -3 -4 -7t-6 -8.5t-5.5 -7.5
t-3.5 -4l-40 -2q-9 10 -24.5 23.5t-37.5 26t-50.5 21t-62.5 8.5q-60 0 -115 -15t-101 -47t-79.5 -81t-50.5 -116q-5 -20 -7.5 -40.5t-2.5 -38.5q0 -42 15.5 -72.5t43.5 -50.5t67.5 -29.5t86.5 -9.5q35 0 71 9t69 21.5t61.5 27t48.5 25.5l43 -43z" />
    <glyph glyph-name="D" unicode="D" horiz-adv-x="863" 
d="M72 428v-1q9 37 17 78l16 82q5 23 11 52.5t10 49.5q20 -1 45.5 -2.5t52 -2.5t52.5 -1.5t47 -0.5t41.5 0.5t41.5 1.5q8 0 15.5 0.5t15.5 0.5q13 1 28.5 1.5t27.5 0.5q91 0 156.5 -16.5t107.5 -47.5t62 -76t20 -103q0 -22 -4 -47t-12 -53q-27 -92 -86.5 -157.5
t-133.5 -108.5t-153.5 -63t-148.5 -20q-19 0 -38 0.5t-37 1.5q-5 0 -11.5 0.5t-11.5 0.5q-13 1 -25 1.5t-25 0.5q-19 0 -46 -1t-55.5 -2.5t-55.5 -3t-46 -2.5q9 29 21 66t23.5 75.5t22 75t17.5 65.5zM194 254q-6 -24 -10 -41.5t-7.5 -33.5t-6.5 -33t-7 -40q23 -2 48.5 -3
t52.5 -1q55 0 112.5 13.5t109.5 44t93.5 80.5t64.5 123q9 42 9 78q0 39 -17 65t-47 41.5t-72 21.5t-92 6q-38 0 -76 -2t-70 -4q-13 -40 -24 -79t-22 -81z" />
    <glyph glyph-name="E" unicode="E" horiz-adv-x="506" 
d="M59 429q10 39 17.5 77.5t15.5 77.5l6 31l14 74q25 -1 54.5 -2.5t60 -2.5t60 -1.5t54.5 -0.5t60.5 1t72.5 2t72.5 2.5t60.5 2.5q-15 -26 -22.5 -40t-11.5 -20.5t-4 -8v-2.5q-2 -7 -2.5 -19t3.5 -44q-5 0 -14 1t-19.5 1.5t-20.5 1.5t-16 1q-9 1 -16.5 1.5t-12.5 0.5
q-3 0 -6.5 0.5t-6.5 0.5q-21 2 -40.5 3t-42 2t-49.5 1.5t-63 0.5q-1 -4 -1.5 -9.5t-2.5 -9.5q-5 -14 -9.5 -30.5t-9.5 -33.5q-1 -1 -1 -3q-9 -32 -15 -60l1 1q-1 -5 -1.5 -6.5l-0.5 -1.5v-1t-1 -5q43 0 85 1.5t79.5 4t69 4.5t53.5 4q-10 -25 -15 -36.5t-9 -19.5
q-5 -8 -7 -13.5t-3 -7.5q-2 -8 -2 -25.5v-34.5q-34 3 -73 5.5t-77 4t-72 2.5t-58 1q-1 -3 -1 -8q-2 -9 -5 -22t-8 -30l1 1q-2 -5 -3.5 -14.5t-5.5 -20.5q-1 -2 -1.5 -4.5t-1.5 -4.5v1q-5 -22 -9 -38l-7 -28q-2 -8 -3 -10.5t-2 -3.5t-1 -2.5t-1 -5.5q68 0 150 3.5t170 17.5
q-8 -23 -14 -37t-9 -19v1q-9 -21 -11 -29v-5q0 -2 -0.5 -3.5t-0.5 -3.5t-0.5 -7t-0.5 -9v-28q-24 1 -54.5 2.5t-62.5 2.5t-63 1.5t-56 0.5q-26 0 -59 -0.5t-68.5 -1.5t-69 -2.5t-58.5 -2.5q9 30 20.5 66.5t22.5 75t21.5 74.5t17.5 65z" />
    <glyph glyph-name="F" unicode="F" horiz-adv-x="505" 
d="M59 428q12 45 22 95.5t19 99.5q2 13 6 33.5t6 32.5q25 -1 54.5 -2.5t60 -2.5t60 -1.5t54.5 -0.5t60 0.5t73 1.5t75.5 2.5t68.5 2.5q-34 -70 -34 -73q-3 -15 -3 -61q-33 3 -76.5 6t-88 5t-85.5 3.5t-69 1.5q-3 -11 -5.5 -19t-4.5 -18q-4 -14 -7.5 -27t-6.5 -25l1 1
q-6 -27 -12 -51l1 1q-4 -11 -5 -19q35 1 76 2.5t82.5 3.5t80.5 4.5t69 4.5q-15 -28 -26 -49t-11 -22q-3 -9 -3.5 -27.5t-0.5 -38.5q-74 8 -151 10t-145 2q-2 -10 -4 -18t-4 -18q-1 -2 -2 -7t-2 -7q-12 -48 -23.5 -103t-21.5 -107q-2 -10 -4.5 -28t-3.5 -26q-29 5 -51 7.5
t-33 2.5t-40 -3.5t-67 -8.5l14 46q17 57 36.5 121.5t32.5 117.5z" />
    <glyph glyph-name="G" unicode="G" horiz-adv-x="875" 
d="M790 504q-26 33 -78 60t-127 27q-64 0 -122.5 -15t-106.5 -47t-83.5 -81t-51.5 -116l1 1q-5 -20 -7.5 -37.5t-2.5 -33.5q0 -78 60 -122t176 -44q38 0 80.5 5t73.5 13q0 3 3 6v-2l2 6l2 6q1 5 2.5 11t3.5 11q4 13 7 25t5 26q6 22 12.5 55.5t11.5 67.5q0 1 1.5 6.5t3 11.5
t3 11.5t1.5 6.5q27 -5 50 -8.5t31 -3.5q11 0 24.5 1t27.5 5l32 -40l-1 -12q-7 -23 -20 -68.5t-30 -112.5q-1 -2 -1 -3.5t-1 -4.5v-2q-3 -13 -7 -30.5t-8 -31.5q0 -3 -0.5 -8.5t-0.5 -7.5q-31 -8 -73.5 -17t-88.5 -16.5t-89.5 -12.5t-76.5 -5q-191 0 -295 70t-104 205
q0 20 2.5 42.5t9.5 48.5q23 79 73 143t122 109.5t162.5 70.5t194.5 25q60 0 110 -7.5t91.5 -18.5t74 -25t58.5 -26q-12 -13 -24 -28.5t-22.5 -31.5t-19.5 -30.5t-13 -26.5h-58z" />
    <glyph glyph-name="H" unicode="H" horiz-adv-x="833" 
d="M633 427q12 48 23.5 103.5t21.5 108.5q2 9 5 27t4 26q29 -5 51 -7.5t33 -2.5q8 0 27 2.5t43 5.5h6.5t12 0.5t12 0.5h7.5q-9 -29 -21 -66t-23.5 -75.5t-22 -75t-17.5 -65.5q-8 -35 -19 -77.5t-20 -77.5q-11 -46 -21 -99t-20 -104q-1 -6 -3 -14t-3.5 -17t-3 -17t-2.5 -13
q-32 5 -53.5 7.5t-30.5 2.5q-14 0 -42.5 -3.5t-66.5 -8.5q1 5 4.5 15t7 21t6.5 21t5 16q17 53 34 109t28 103q2 9 3 12.5t1.5 5t1 5t2.5 12.5q-50 1 -92.5 1h-93.5t-95.5 -0.5t-92.5 -1.5h-17q-2 -8 -4 -14t-4 -14l1 1q-2 -7 -4 -13t-4 -13q-14 -54 -25.5 -114.5
t-22.5 -116.5l-6 -33q-32 5 -52.5 7.5t-31.5 2.5q-12 0 -41 -3.5t-67 -8.5q9 29 21 66.5t24 76.5t22.5 76t17.5 66q8 35 19 77.5t19 77.5q12 46 22 99t20 104q1 6 3 14t3.5 17t3 17t2.5 13q30 -5 51 -7.5t32 -2.5t40 3.5t69 8.5l-3.5 -10.5l-5.5 -16.5t-5.5 -17t-3.5 -11
q-16 -52 -32.5 -109t-29.5 -107h3h28q38 -1 76.5 -1.5t77.5 -0.5t78.5 0.5t78.5 1.5h33q7 0 7 0.5t11 0.5v3z" />
    <glyph glyph-name="I" unicode="I" horiz-adv-x="204" 
d="M41 428q10 38 18 80.5t17 86.5q2 10 4.5 23t5.5 26.5t5.5 26t4.5 21.5q29 -5 49.5 -7.5t31.5 -2.5q13 0 42 3.5t67 8.5q-2 -6 -5 -16t-6.5 -21.5t-7 -22.5t-5.5 -17q-16 -51 -33 -107t-28 -101q-8 -35 -19 -77.5t-19 -77.5q-12 -46 -22 -99t-20 -104q-1 -6 -3 -14
t-3.5 -17t-3 -17t-2.5 -13q-30 5 -51 7.5t-32 2.5t-40 -3.5t-67 -8.5l14 46q17 57 36.5 121.5t32.5 117.5z" />
    <glyph glyph-name="J" unicode="J" horiz-adv-x="309" 
d="M-109 -30q50 0 84.5 17t58 45.5t38.5 67t27 81.5q7 29 14.5 60t15.5 63q8 31 15.5 62t14.5 62q7 28 15 62t15 69.5t13.5 69.5t11.5 63q29 -5 50.5 -7.5t32.5 -2.5t39 3.5t66 8.5l-4 -16t-7 -26.5t-7.5 -26.5t-4.5 -16q-16 -51 -31 -100t-28 -100q-11 -42 -21 -86.5
t-20 -87.5q-5 -26 -11 -50t-11 -46l1 1q-3 -13 -6.5 -26t-6.5 -24q-11 -45 -42 -85t-76.5 -70t-103.5 -47t-122 -17z" />
    <glyph glyph-name="K" unicode="K" horiz-adv-x="710" 
d="M-39 33q19 61 37 121t32 119l38 155q12 48 23.5 103t21.5 108q2 9 4.5 27t4.5 26q29 -5 51 -7.5t33 -2.5q8 0 26.5 2.5t43.5 5.5h6.5t12 0.5t12 0.5h6.5q-8 -27 -18.5 -60t-21 -68t-20.5 -69.5t-17 -63.5q42 27 88.5 58.5t94 65.5t95 69t92.5 68q17 -4 31 -6.5t20 -2.5
q22 0 73 9l19 -61q-44 -26 -98.5 -60t-111 -70t-109 -71.5t-92.5 -63.5q32 -39 63.5 -76.5t66.5 -78.5q16 -19 41.5 -49.5t53 -63t53 -63t42.5 -49.5q-57 7 -97.5 11t-56.5 4q-14 0 -34 -2t-46 -6q-29 38 -61.5 81t-63.5 83t-58 73t-43 51l-6 -26q-14 -54 -25.5 -114.5
t-22.5 -116.5l-7 -33q-31 5 -52.5 7.5t-30.5 2.5q-8 0 -24 -2t-36 -5zM176 341l34 -5l-34 8v-3z" />
    <glyph glyph-name="L" unicode="L" horiz-adv-x="503" 
d="M52 428q12 48 23 103t21 108q2 9 5 27t5 26q29 -5 50.5 -7.5t32.5 -2.5q10 0 40.5 4t71.5 9q-1 -2 -3.5 -8.5t-5 -14t-5 -14t-3.5 -8.5v1q-9 -29 -18.5 -60t-19.5 -62.5t-18.5 -62t-15.5 -57.5q-17 -69 -30.5 -127t-24.5 -106q-7 -22 -10 -36l-6 -28q33 0 65.5 0.5
t71 2.5t86 6t109.5 10q-17 -31 -28 -51.5t-13 -25.5q-2 -8 -1 -23.5t3 -37.5q-25 1 -57 2.5t-65 2.5t-65 1.5t-57 0.5q-26 0 -60 -0.5t-70 -1.5t-70 -2.5t-59 -2.5q1 5 6 21t7 21q8 28 17.5 59t18.5 62t17.5 61t15.5 56z" />
    <glyph glyph-name="M" unicode="M" horiz-adv-x="1055" 
d="M309 698q22 -63 43.5 -119.5t43.5 -112t45.5 -112t50.5 -119.5q12 12 24.5 25t26.5 29q22 24 47 52t52 57q23 26 49.5 54t51.5 55q46 49 92.5 99.5t83.5 91.5h74q-2 -12 -3.5 -27.5t-3.5 -32l-4 -33t-3 -29.5q-4 -35 -7.5 -68.5t-7.5 -62.5q-6 -52 -12.5 -111.5
t-12.5 -119.5t-11 -118t-9 -107q-30 5 -52 8t-33 3q-6 0 -23 -2.5t-40 -5.5h-6t-11 -0.5t-11 -0.5h-6q1 10 3.5 23.5t4.5 27t4 26.5t4 22q13 80 22.5 151t17.5 149q-88 -94 -175.5 -192t-167.5 -198h-54q-13 39 -28.5 82t-32 87.5t-34 88t-33.5 83.5q-5 13 -8.5 22t-6.5 17
l-6 14q-20 -52 -41 -107t-40.5 -108.5t-36 -102t-26.5 -88.5q-3 1 -15 3t-15 3l1 -1q-14 3 -23 5t-11 2q-5 0 -18 -2t-33 -6l-51 -8q33 74 74 168.5t82.5 192t79 190t64.5 163.5h71z" />
    <glyph glyph-name="N" unicode="N" horiz-adv-x="827" 
d="M618 -16q-43 54 -92 110.5t-101 114.5t-105 115.5t-104 112.5l-5 5q-5 -20 -10.5 -43.5t-13.5 -54.5q-2 -5 -2.5 -10t-2.5 -10q-5 -18 -11.5 -46.5t-13.5 -61t-14 -67t-13 -66t-10.5 -57t-5.5 -39.5q-24 5 -43.5 9t-27.5 4t-35 -4t-69 -11q8 17 19.5 48.5t25.5 71.5
t28.5 85t28.5 88.5t25.5 83t19.5 68.5v-1q4 20 9 38.5t9 35.5q7 29 13.5 58.5t12.5 56t10.5 47.5t6.5 33h66q13 -14 29 -32t30 -33q98 -110 188 -210.5t162 -173.5q13 55 27.5 115t27.5 118.5t24 113t19 99.5q24 -5 42.5 -9t23.5 -4l46 8q2 0 9 1t15.5 2.5t15.5 2.5t10 1
q-11 -29 -28.5 -78.5t-34.5 -103t-31.5 -101.5t-20.5 -73q-6 -23 -14 -55.5t-16.5 -68.5t-17.5 -73t-16.5 -69.5t-13 -56.5t-7.5 -34h-64z" />
    <glyph glyph-name="O" unicode="O" horiz-adv-x="999" 
d="M45 350q20 82 69 147t119.5 109.5t158.5 68t186 23.5q89 0 160.5 -18.5t122 -54t77.5 -88t27 -119.5q0 -20 -2.5 -41t-8.5 -45q-21 -83 -70 -147.5t-119.5 -109t-158.5 -68t-187 -23.5q-89 0 -160 18.5t-121 54t-77 87.5t-27 120q0 20 2 40.5t9 45.5zM773 350
q11 42 11 79q0 42 -15.5 72.5t-44 50.5t-67.5 29.5t-86 9.5q-60 0 -115 -15t-100.5 -47t-79.5 -81t-50 -116q-11 -41 -11 -79q0 -42 15.5 -72.5t43.5 -50.5t67 -29.5t85 -9.5q60 0 115.5 15t101.5 47t79.5 80.5t50.5 116.5z" />
    <glyph glyph-name="P" unicode="P" horiz-adv-x="599" 
d="M61 428q11 45 21 95.5t20 99.5q2 13 6 34t6 33q35 -3 75 -5.5t63 -2.5q8 0 17.5 0.5t21.5 1.5q6 1 17 1h16q17 1 38 1.5t30 0.5q18 0 43.5 -1t53 -5t55 -13.5t49 -26t35 -42t13.5 -62.5q0 -21 -7 -48q-12 -44 -37 -77t-58 -57t-71 -39.5t-76.5 -25t-74.5 -13.5t-65 -4
h-20h-13h-12.5t-16.5 1q-1 -2 -2.5 -7t-2.5 -8v-1q-14 -54 -26 -116.5t-23 -118.5l-7 -33q-29 5 -50 7.5t-32 2.5t-40 -3.5t-67 -8.5l13 46q17 57 36.5 121.5t32.5 117.5zM215 381q11 -1 18 -1h15q30 0 63.5 5t63.5 18.5t53 37.5t32 61q2 8 3 15t1 15q0 29 -34 38.5t-93 9.5
h-72z" />
    <glyph glyph-name="Q" unicode="Q" horiz-adv-x="984" 
d="M55 350q20 82 69 147t119.5 109.5t158.5 68t186 23.5q89 0 160.5 -18.5t122 -54t77.5 -88t27 -119.5q0 -20 -2.5 -41t-8.5 -45q-31 -120 -116 -200.5t-208 -117.5q28 -20 62 -43.5t68 -46.5t65 -43.5t52 -35.5q-41 -1 -75.5 -6.5t-62 -13t-46.5 -16.5t-28 -18
q-51 45 -108.5 96t-116.5 97h-21q-89 0 -160 18.5t-121 54t-77 87.5t-27 120q0 20 2 40.5t9 45.5zM783 350q11 42 11 79q0 42 -15.5 72.5t-44 50.5t-67.5 29.5t-86 9.5q-60 0 -115 -15t-100.5 -47t-79.5 -81t-50 -116q-11 -41 -11 -78q0 -42 15.5 -72.5t44 -51t67 -30
t85.5 -9.5q60 0 115 15t100.5 47t79.5 80.5t51 116.5z" />
    <glyph glyph-name="R" unicode="R" horiz-adv-x="697" 
d="M61 428q11 45 21.5 95.5t19.5 99.5q2 13 6 33.5t6 32.5q15 -1 35.5 -2.5t42.5 -2.5t42.5 -1.5t35.5 -0.5q17 0 32 0.5t31 1.5q5 0 10.5 0.5t10.5 0.5q11 1 23.5 1.5t22.5 0.5q49 0 92.5 -7.5t76 -24.5t51 -45t18.5 -69q0 -14 -5 -42q-11 -41 -36.5 -72.5t-59 -54.5
t-72 -38t-74.5 -24q16 -22 38.5 -51t47 -61.5t50 -65.5t48.5 -62t41 -51.5t28 -33.5q-59 7 -98.5 11t-55.5 4q-11 0 -34 -2.5t-52 -6.5q-12 22 -36.5 60.5t-54 82.5t-61.5 86.5t-59 71.5q-2 -5 -2.5 -10t-2.5 -11l1 1q-1 -4 -2.5 -9t-2.5 -9q-12 -48 -23.5 -103t-21.5 -107
l-2.5 -12.5t-2.5 -15.5t-2 -15t-2 -11q-29 5 -50.5 7.5t-32.5 2.5t-40 -3.5t-67 -8.5l13 46q17 57 36.5 121.5t32.5 117.5zM221 399h27q30 0 64 5t65 18t54 34t31 53q1 2 1 7v11q0 16 -10 26t-26 16t-36 8.5t-39 2.5q-32 0 -50 -0.5t-33 -2.5l-3 -15q-25 -77 -44 -153l1 1z
" />
    <glyph glyph-name="S" unicode="S" horiz-adv-x="578" 
d="M71 188q5 -16 15 -32t25.5 -29.5t37 -22t49.5 -8.5q62 0 104.5 29t53.5 73q4 16 -3.5 28t-23 22t-36.5 18.5t-43 16.5q-32 11 -63.5 24t-57 32t-41 46.5t-15.5 68.5q0 11 1 22.5t6 25.5v-1q11 43 39 79t70 62.5t95.5 41t114.5 14.5q60 0 110 -18t98 -55
q-14 -16 -24.5 -30t-20 -27.5t-18 -28.5t-17.5 -32h-65q-3 12 -8 27t-14 27.5t-23.5 21t-35.5 8.5q-51 0 -90 -23t-48 -61q-1 -4 -1.5 -7.5t-0.5 -8.5q0 -12 10 -22t25.5 -18.5t35.5 -16t41 -14.5q31 -11 62.5 -23.5t56.5 -31.5t40.5 -45t15.5 -64q0 -11 -1 -21.5t-6 -22.5
v1q-12 -46 -43.5 -87.5t-78.5 -73t-107 -50t-130 -18.5q-39 0 -71 7t-59 18.5t-49.5 25.5t-41.5 29q13 19 22.5 34t16.5 29t12.5 28.5t12.5 32.5h66z" />
    <glyph glyph-name="T" unicode="T" horiz-adv-x="665" 
d="M280 428q7 24 12 48t10 49q2 6 3 12.5t2 12.5v-1q0 6 0.5 9.5t1.5 7.5q-54 -2 -123.5 -5.5t-140.5 -10.5q18 28 32 51.5t15 26.5q2 6 0.5 22t-3.5 39q36 -1 78 -2.5t85.5 -2.5t86 -1.5t78.5 -0.5t86.5 0.5t103.5 1.5t103.5 2.5t86.5 2.5l-8.5 -9t-19.5 -20.5t-21 -22
t-13 -13.5l-3 -5q-2 -8 -1 -26t3 -41q-59 6 -127 10t-123 5q-11 -40 -21.5 -79t-20.5 -79q-9 -35 -20 -77.5t-19 -77.5q-12 -48 -23.5 -103t-21.5 -107l-2.5 -12.5t-2.5 -15.5t-2 -15t-2 -11q-29 5 -50.5 7.5t-32.5 2.5q-14 0 -43 -3.5t-67 -8.5q9 29 21 66.5t24 76.5
t22.5 76t17.5 66z" />
    <glyph glyph-name="U" unicode="U" horiz-adv-x="812" 
d="M639 368q16 62 27.5 110t20 86.5t13 69.5t5.5 60q28 -5 49.5 -8.5t30.5 -3.5q7 0 32 5.5t61 13.5q-14 -39 -32.5 -93.5t-37 -114t-36.5 -118.5t-30 -105q-18 -65 -55 -117.5t-90.5 -90t-122 -58t-150.5 -20.5q-157 0 -230.5 51.5t-73.5 158.5q0 20 2.5 43t10.5 49l8 32
t9 28v-1q2 5 3 10.5t2 10.5q5 15 10 29.5t8 31.5q9 37 18 75.5t16.5 74t13.5 65.5t9 50q29 -5 52.5 -7.5t34.5 -2.5q8 0 37.5 5t69.5 11q-12 -33 -26.5 -76t-29.5 -91.5t-29.5 -99t-26.5 -97.5q-8 -29 -14.5 -61.5t-6.5 -63.5q0 -23 7 -43t26 -35t50.5 -23.5t81.5 -8.5
q81 0 132 28t81.5 69t45.5 87.5t24 84.5z" />
    <glyph glyph-name="V" unicode="V" horiz-adv-x="822" 
d="M268 17q-7 37 -19 87.5t-26.5 108.5t-31 121.5t-33 126.5t-33 123t-30.5 112q42 -6 70.5 -10t36.5 -4q10 0 34.5 2.5t56.5 7.5q21 -137 49.5 -256.5t58.5 -234.5q45 58 96 126.5t99 135.5t90 127t69 101q18 -4 32.5 -6.5t22.5 -2.5q5 0 43 6t93 17q-63 -77 -136.5 -169
t-147 -187.5t-143.5 -187.5t-126 -170q-16 4 -28.5 6.5t-23.5 2.5q-8 0 -18 -1.5t-19 -3.5z" />
    <glyph glyph-name="W" unicode="W" horiz-adv-x="1272" 
d="M230 20q-3 24 -9.5 74.5t-15 114t-18.5 135t-20 138.5t-19 123t-16 89q35 -5 61.5 -8.5t40.5 -3.5q12 0 36.5 2.5t56.5 7.5q4 -69 9 -128t11 -114.5t13 -110.5t17 -118q7 10 13.5 20t14.5 21h-1q11 17 23 34t24 36q33 50 69 105t68.5 105t58 90t37.5 60q17 -5 30.5 -7.5
t21.5 -2.5q6 0 25.5 3.5t46.5 8.5q3 -24 7.5 -62.5t11 -84t13.5 -94t14 -93.5t13 -82.5t11 -60.5q22 34 50 78t57.5 90.5t58.5 93.5t54 88.5t44.5 74t29.5 50.5q21 -5 35 -7.5t21 -2.5q8 0 43.5 6t86.5 16q-12 -16 -37 -51t-58.5 -82.5t-72.5 -104t-79 -114.5t-79 -115
t-72 -105.5t-58 -85.5t-37 -55q-16 4 -30 6.5t-25 2.5q-5 0 -25 -3.5t-46 -8.5q-1 7 -2.5 23.5t-2.5 23.5q-14 103 -29.5 203.5t-34.5 209.5q-30 -44 -69.5 -103t-81.5 -121.5t-83 -123.5t-74 -110q-21 5 -35 7.5t-19 2.5t-16 -2t-26 -5z" />
    <glyph glyph-name="X" unicode="X" horiz-adv-x="734" 
d="M314 676q22 -58 44 -108.5t48 -103.5q54 50 107.5 104t116.5 123q18 -4 31.5 -6.5t20.5 -2.5t27.5 3.5t51.5 8.5q4 1 13 3t19 4l14 -29l-118 -103l-60 -52q-42 -35 -87 -75t-86 -79q21 -41 46 -89.5t51 -98t51.5 -97.5t46.5 -87h-8.5t-14 0.5t-14.5 0.5h-8
q-26 3 -47.5 5.5t-32.5 2.5q-13 0 -36 -2.5t-53 -6.5q-5 12 -11.5 29.5t-9.5 23.5q-20 53 -40 103.5t-45 97.5q-66 -62 -129.5 -127.5t-120.5 -126.5q-17 4 -30.5 6.5t-20.5 2.5q-8 0 -53 -7.5t-113 -20.5q42 36 96 85t110 100.5t110 101t96 88.5l-2 6q-18 35 -41 80
t-47.5 92.5t-48 92t-42.5 79.5q49 -7 82.5 -11t43.5 -4q13 0 31.5 2t41.5 5z" />
    <glyph glyph-name="Y" unicode="Y" horiz-adv-x="737" 
d="M201 17q27 68 46 134t34 130q-9 19 -24 50t-33.5 69t-39.5 79.5t-41.5 81t-39.5 75t-34 60.5q48 -6 82.5 -10t47.5 -4q12 0 35.5 2.5t52.5 6.5q29 -78 57.5 -146t63.5 -144q32 32 66 68t68.5 73.5t67.5 75.5t63 73q20 -4 33.5 -6.5t21.5 -2.5q7 0 29 3.5t54 8.5l80 14
q-81 -76 -151.5 -143t-127.5 -121.5t-99 -96.5t-66 -69q-8 -31 -16 -70.5t-16.5 -79t-15.5 -76t-11 -62.5q-29 5 -51 7.5t-33 2.5q-10 0 -32 -2.5t-51 -6.5z" />
    <glyph glyph-name="Z" unicode="Z" horiz-adv-x="750" 
d="M-49 67q50 42 104 89t108 95t106 94.5t98.5 88.5t85 77t65.5 60q-40 0 -93.5 -2t-111 -4.5t-113.5 -6t-102 -7.5q20 35 32 55.5t13 24.5l-1 -2q2 8 2 25v35q26 -2 75 -3.5t115 -2t145 -1t166 -0.5q24 0 46.5 1t45.5 3h-1q7 1 28.5 1h47.5l-15 -74q-24 -17 -65 -51
t-92 -77.5t-108 -94t-113 -100.5t-107.5 -96.5t-89.5 -81.5h4q28 0 66 1t80.5 2.5t87.5 3.5t88 4.5t81.5 5t68.5 5.5q-14 -20 -21 -32t-10 -17q-8 -13 -13.5 -21.5t-5.5 -10.5l1 1q-2 -6 -0.5 -21.5t3.5 -38.5h-14.5t-18 0.5t-18.5 0.5h-14q-66 2 -124 3.5t-113 1.5
q-44 0 -106.5 -0.5t-125 -1.5t-114 -2.5t-73.5 -2.5z" />
    <glyph glyph-name="bracketleft" unicode="[" horiz-adv-x="248" 
d="M53 411q7 31 15 67t16 73t15.5 72.5t13.5 65.5q28 -3 49.5 -5t35.5 -2q23 0 51.5 0.5t51.5 1.5q5 0 9.5 0.5t7.5 0.5h70q-8 -13 -13 -23t-10 -17q-5 -8 -9 -14l-1 -3q0 -2 -0.5 -5.5t-0.5 -8.5v-29q-6 0 -22.5 0.5t-23.5 0.5q-20 0 -33.5 0.5t-31.5 0.5q-16 -49 -29 -97
t-26 -98q-8 -28 -14.5 -56.5t-14.5 -56.5q-7 -29 -13.5 -57t-14.5 -56q-11 -41 -19.5 -83t-17.5 -93q22 1 43 1t38 1h42q-18 -30 -26 -43t-8 -12l-1 -2q0 -2 -0.5 -6t-0.5 -9v-30q-11 0 -32 1t-45 1.5t-47 1t-37 0.5q-16 0 -44 -2t-63 -5q9 31 20.5 69.5t22.5 78.5t21.5 79
t18.5 70z" />
    <glyph glyph-name="backslash" unicode="\" horiz-adv-x="416" 
d="M56 716q1 0 7.5 -1.5t13.5 -3.5t13 -3.5t8 -1.5q12 -3 21 -5.5t13 -2.5q7 0 15.5 2t18.5 4q5 2 12.5 4t13.5 4l167 -746q-2 0 -8 1.5t-13 3.5t-13.5 3.5t-7.5 1.5q-13 3 -22 5.5t-13 2.5q-6 0 -13 -2t-18 -4q-1 0 -5 -1.5t-8.5 -2.5t-8.5 -2.5t-5 -1.5z" />
    <glyph glyph-name="bracketright" unicode="]" horiz-adv-x="249" 
d="M116 411q11 41 19.5 83t17.5 93q-22 -1 -43.5 -1t-38.5 -1h-44q20 29 27.5 42t9.5 15q0 2 1 3q0 4 2.5 12t9.5 29q11 0 30.5 -1t41.5 -1.5t43 -1t35 -0.5q33 0 108 9q-9 -31 -20.5 -70t-23 -79.5t-22 -79.5t-18.5 -70l-57 -226q-7 -31 -15 -67t-15.5 -72.5t-15 -72
t-13.5 -65.5q-20 2 -45.5 3.5t-40.5 1.5h-30t-33 -1q-15 0 -29.5 -0.5t-25.5 -0.5h-71q14 23 23 38t9 14q0 1 0.5 1.5t0.5 1.5q0 3 1.5 11t10.5 34q6 0 19.5 -0.5t21.5 -0.5q17 0 29 -0.5t29 -0.5q16 49 29 96.5t26 97.5z" />
    <glyph glyph-name="asciicircum" unicode="^" horiz-adv-x="685" 
d="M341 660h100l189 -478h-139l-129 330q-30 -35 -60 -67.5t-60 -67.5q-43 -48 -88.5 -98.5t-86.5 -96.5h-156z" />
    <glyph glyph-name="underscore" unicode="_" horiz-adv-x="712" 
d="M24 -116l29 118h633l-29 -118h-633z" />
    <glyph glyph-name="grave" unicode="`" horiz-adv-x="298" 
d="M50 590v-1q-10 6 -20 13t-17.5 16.5t-10.5 23t1 31.5q3 13 12.5 23t21.5 17t24.5 11t21.5 4q21 0 39.5 -9t31.5 -24q20 -19 46 -45.5t51 -51.5q9 -9 22.5 -23t27.5 -28.5t26.5 -27l19.5 -19.5h-144z" />
    <glyph glyph-name="a" unicode="a" horiz-adv-x="582" 
d="M112 442q71 37 123.5 50.5t101.5 13.5q88 0 139 -38t51 -103q0 -8 -1 -18t-5 -21v1q-5 -19 -10 -39.5t-11 -40.5q-5 -12 -5 -15q-4 -16 -8.5 -33t-9.5 -34q-3 -12 -6 -24.5t-7 -23.5q-1 -2 -1 -3.5t-1 -3.5v1q-2 -8 -2 -13q4 2 17 7t50 19l-17 -111q-1 0 -10 -0.5
t-11 -0.5q-20 -5 -44 -10.5t-44 -5.5q-30 0 -51 10t-33 25q-41 -24 -80 -34t-92 -10q-32 0 -61 8.5t-51 24.5t-35 39t-13 52q0 7 1 15t4 18v-1q16 66 73.5 102.5t143.5 47.5q51 6 80.5 9.5t45.5 6.5t21 6.5t7 8.5q0 2 0.5 4.5t0.5 4.5q1 5 1.5 9.5t0.5 9.5q0 18 -14.5 30
t-49.5 12q-37 0 -74.5 -15.5t-64.5 -44.5h-74zM331 210q-3 -1 -6.5 -1h-5.5q-26 -3 -52.5 -8t-49.5 -13t-39.5 -20.5t-22.5 -30.5q-5 -19 8 -29.5t32 -10.5q32 0 63 14t52 32z" />
    <glyph glyph-name="b" unicode="b" horiz-adv-x="621" 
d="M590 259q-15 -60 -50 -110t-83 -86t-106 -56t-119 -20q-50 0 -90 16t-63 39q-17 -10 -34.5 -21t-33.5 -21h-72q10 30 21.5 67t22.5 76.5t21.5 77.5t18.5 69l40 162q7 29 15.5 66t16.5 77.5t15.5 81t13.5 77.5q31 -5 54.5 -8.5t34.5 -3.5t37 2.5t65 8.5
q-26 -63 -49 -141.5t-43 -150.5q76 45 164 45q68 0 112.5 -20t68.5 -54t29 -79t-7 -94zM419 261q8 33 4.5 57.5t-15.5 41.5t-30.5 25.5t-40.5 8.5q-28 0 -54.5 -8.5t-50 -27.5t-42 -50t-29.5 -76q-35 -143 90 -143q27 0 53 12t48.5 34.5t39.5 54.5t27 71z" />
    <glyph glyph-name="c" unicode="c" horiz-adv-x="583" 
d="M24 255q16 65 54.5 112.5t90.5 78t112 45.5t119 15q34 0 67 -6t61.5 -16.5t52 -23.5t39.5 -27q-16 -20 -33 -43.5t-34 -55.5h-57q-5 11 -14 23.5t-21.5 23t-29 17t-35.5 6.5q-42 0 -76 -13t-59 -35.5t-42.5 -53t-26.5 -65.5l1 1q-3 -14 -5 -27.5t-2 -25.5q0 -88 119 -88
q19 0 42.5 6t48.5 16t49.5 23.5t45.5 28.5l47 -40q-9 -19 -15.5 -34.5t-11.5 -28.5q0 -2 -1 -3q-1 -2 -3 -4v-7q-24 -14 -52.5 -26t-59.5 -21t-62 -14.5t-59 -5.5q-49 0 -95.5 11.5t-83 36t-58.5 63t-22 92.5q0 14 2 29.5t7 35.5z" />
    <glyph glyph-name="d" unicode="d" horiz-adv-x="620" 
d="M330 9q-5 0 -8.5 0.5t-7.5 1.5q-26 -11 -58.5 -17.5t-71.5 -6.5q-44 0 -83.5 11t-69 34.5t-47 60t-17.5 86.5q0 17 2 35.5t8 39.5q18 59 54.5 105.5t82.5 79t96.5 50t97.5 17.5q88 0 137 -41q10 39 19.5 80.5t18 80.5t15 73t11.5 57q14 -5 21 -6.5t13 -2.5q5 -1 12.5 -2
t5.5 -1q8 -1 14.5 -1.5t11.5 -0.5t12.5 0.5t16.5 1.5q3 0 14.5 2.5t24.5 5t25 4.5t16 3q-17 -45 -37 -111.5t-41 -139t-40 -144t-33 -127.5l1 1q-8 -32 -14.5 -61t-13.5 -58q-2 -14 -6 -27t-7 -26q-2 -5 -4 -13.5t-4 -17.5h1q-1 -7 -2.5 -15t-8.5 -30q-3 0 -10 1t-15 2.5
t-14.5 2.5t-8.5 1q-3 0 -6.5 0.5t-5.5 0.5q-5 1 -9.5 1.5t-8.5 0.5q-6 0 -15 -3h-3q-1 0 -6 -1l-10 -2q-7 -2 -19.5 -5.5t-34.5 -14.5zM144 229q-4 -16 -6 -30.5t-2 -29.5q0 -22 7 -36.5t18.5 -23t26 -12t29.5 -3.5q36 0 65.5 15t52.5 39t39 54.5t25 61.5q3 12 5 26.5
t2 27.5q0 76 -91 76q-33 0 -61 -12.5t-49.5 -34.5t-36.5 -52.5t-24 -65.5z" />
    <glyph glyph-name="e" unicode="e" horiz-adv-x="619" 
d="M27 243q15 61 46 109.5t76 82.5t103 52.5t126 18.5q59 0 102 -13.5t70.5 -37.5t41 -56t13.5 -69q0 -12 -1 -25.5t-5 -29.5l-18 -60h-63q-13 0 -25 0.5t-22 0.5q-39 1 -78 1.5t-79 0.5q-25 0 -49 -0.5t-48 -1.5q-7 0 -11.5 -0.5t-7.5 -0.5h-5q-2 -8 -2 -15.5v-15.5
q0 -38 30.5 -62.5t90.5 -24.5q19 0 43 6t48.5 16t49 23.5t45.5 28.5l45 -39l-30 -82q-47 -26 -109.5 -44.5t-121.5 -18.5q-62 0 -110.5 15t-82 41.5t-51 63.5t-17.5 82q0 12 1 25t5 29zM373 404q-52 0 -86.5 -25.5t-52.5 -57.5q22 -1 44 -1h44q26 0 51 0.5t51 1.5h18
q1 3 1 9v11q0 25 -14.5 43.5t-55.5 18.5z" />
    <glyph glyph-name="f" unicode="f" horiz-adv-x="372" 
d="M399 594q-17 8 -30.5 13t-25.5 5q-35 0 -54.5 -19t-24.5 -42q-2 -7 -4.5 -23t-4.5 -36q5 0 9.5 0.5t9.5 0.5h114q-10 -22 -17.5 -39t-7.5 -18q-2 -7 -3 -21t-1 -32h-47q-9 0 -16 0.5t-12 0.5t-9.5 0.5t-9.5 0.5q-8 1 -15 1h-16q-11 -47 -23 -98t-23.5 -102.5
t-22.5 -101.5t-21 -96q-28 5 -48.5 8.5t-27.5 3.5q-8 0 -36 -4t-66 -9q29 93 58.5 197.5t52.5 199.5h-6q-4 0 -12 -0.5t-17 -0.5h-55q11 29 17.5 43.5t8.5 19.5q0 2 1 5q1 6 3.5 19t4.5 23q5 0 20 -0.5t23 -0.5h41q10 27 26.5 57t37 58.5t44.5 53t50 42.5q27 18 66.5 32
t77.5 14q8 0 25 -3.5t41 -11.5q-2 -6 -4.5 -16.5t-5.5 -21t-5.5 -19.5t-3.5 -13q-2 -6 -5.5 -18.5t-8.5 -35.5z" />
    <glyph glyph-name="g" unicode="g" horiz-adv-x="619" 
d="M88 324q12 46 40.5 80.5t68.5 57t88.5 33.5t99.5 11q12 0 24 -0.5t25 -1.5h12q4 -1 7.5 -1h6.5t7 -0.5t9 -0.5q2 0 4.5 -0.5t5.5 -0.5h9q18 -2 33 -2h24q30 0 66.5 3.5t72.5 11.5l-18 -45t-9 -22q0 1 -1.5 -19t-3.5 -43q-15 3 -24 4t-14 1.5t-8.5 1t-6.5 0.5
q-6 1 -11.5 1t-10.5 1q5 -17 5.5 -36t-3.5 -36q-11 -43 -36.5 -76.5t-63 -57t-86 -35.5t-103.5 -12q-5 0 -9 0.5t-8 0.5h-17q-8 1 -14.5 1h-13.5q-6 0 -12 -1t-7 -3q-1 -5 5 -6.5t23 -2.5q20 -1 41 -1h41q5 0 10 -0.5t11 -0.5h19q60 -2 100.5 -14t63 -32t29 -47.5
t-1.5 -58.5q-9 -37 -36 -76t-72 -70.5t-107.5 -51.5t-142.5 -20q-62 0 -109 11.5t-77 33t-41 52t-2 68.5q11 40 40 71.5t65 51.5q-17 30 -8 68q11 46 55 77q-27 23 -36 55.5t2 77.5zM390 -62q8 32 -19 47t-98 15q-65 0 -105.5 -15.5t-49.5 -51.5q-5 -21 1 -35.5t21 -23.5
t37.5 -13t49.5 -4t54 5t49.5 15t38.5 25t21 36zM427 327q10 38 -9 58.5t-57 20.5q-43 0 -72 -22t-39 -60q-10 -40 6 -63t62 -23q45 0 73 27t36 62z" />
    <glyph glyph-name="h" unicode="h" horiz-adv-x="560" 
d="M56 462q7 29 15.5 65t16.5 74.5t15 77.5t12 74q61 -11 81 -11q11 0 39 3.5t70 10.5q-29 -78 -51 -152.5t-36 -129.5q61 32 142 32q34 0 66.5 -6.5t58.5 -23.5t42 -45.5t16 -71.5q0 -12 -1.5 -26t-6.5 -30q-2 -7 -4 -13.5t-4 -14.5v1q-3 -10 -5.5 -21t-6.5 -21v1
q-2 -8 -4.5 -15t-4.5 -15q-4 -16 -8.5 -33t-9.5 -34q-7 -27 -15.5 -69.5t-15.5 -79.5q-30 5 -49 8t-26 3q-8 0 -23.5 -2t-38.5 -6h-6t-10.5 -0.5t-10.5 -0.5h-6q2 9 6.5 25.5t9.5 35.5t10 36t8 26q10 30 19.5 62.5t17.5 64.5l-1 -1q3 14 6.5 27.5t6.5 27.5q3 11 4 20.5
t1 17.5q0 26 -15.5 39.5t-41.5 13.5q-46 0 -78 -17.5t-52 -48.5q-6 -27 -9 -33.5t-5 7.5q-2 -6 -4.5 -13t-4.5 -14q-6 -25 -13.5 -58.5t-15.5 -71t-15 -76t-11 -72.5q-30 5 -50.5 8t-29.5 3t-26.5 -2t-42.5 -6h-6.5t-12.5 -0.5t-12.5 -0.5h-6.5q32 83 55 165.5t37 142.5z
M172 444q-2 -25 -3 -45q-1 -17 -0.5 -33.5t3.5 -22.5v101v0z" />
    <glyph glyph-name="i" unicode="i" horiz-adv-x="196" 
d="M6 302q10 38 19 91t17 110q29 -5 50 -7.5t31 -2.5t37.5 3.5t69.5 9.5q-25 -70 -44 -129t-27 -93q-6 -23 -12 -47t-12 -47q-10 -37 -19.5 -89t-17.5 -112q-61 11 -80 11q-10 0 -39 -4t-67 -9q23 63 42 122t28 99zM71 625q8 30 37.5 51.5t65.5 21.5q20 0 36.5 -7.5t28 -20
t16 -29t0.5 -35.5q-5 -14 -15 -27t-24.5 -23t-31 -16t-33.5 -6q-44 0 -67 26t-14 64z" />
    <glyph glyph-name="j" unicode="j" horiz-adv-x="270" 
d="M104 266q12 49 24 111.5t18 125.5q32 -5 52.5 -7.5t30.5 -2.5q11 0 39.5 3.5t70.5 10.5q-29 -76 -46 -131t-27 -92l1 1q-2 -11 -5.5 -22.5t-6.5 -22.5q-3 -13 -6 -25.5t-6 -24.5q-5 -15 -8 -29l-6 -28q-2 -8 -3 -16.5t-3 -17.5q-6 -29 -13 -57t-14 -57q-11 -41 -27 -78
t-53 -73q-37 -32 -98 -54t-141 -24l1 113q20 -3 37 -6t16 -3q22 0 39 13t30 33.5t22.5 45.5t15.5 48zM178 625q8 30 37.5 51.5t64.5 21.5q21 0 37.5 -7.5t27.5 -20t15.5 -29t0.5 -35.5q-5 -14 -15 -27t-24 -23t-30.5 -16t-33.5 -6q-45 0 -67.5 26t-13.5 64z" />
    <glyph glyph-name="k" unicode="k" horiz-adv-x="565" 
d="M58 462q7 28 15 64t16 75t15 78t13 74q61 -11 80 -11q11 0 40 3.5t69 11.5q-16 -44 -30 -88t-26.5 -85t-22.5 -77.5t-17 -63.5q-6 -26 -14 -56t-15 -59q15 9 44.5 28.5t65 43.5t73 50.5t69.5 49.5l30 -5t19 -2q15 0 44 3h12q2 0 11.5 0.5t11.5 0.5l17 -57
q-81 -45 -149.5 -84.5t-137.5 -84.5q25 -32 57.5 -70.5t66.5 -77.5t65.5 -75.5t55.5 -63.5q-3 0 -14 1.5t-23 3t-22.5 3t-13.5 1.5q-28 3 -48 5t-33 2q-9 0 -29 -2.5t-46 -6.5q-18 25 -38.5 52t-42 54t-41.5 51.5t-36 44.5q-1 -3 -2 -6.5t-2 -5.5q-18 -68 -33 -190
q-2 0 -13 0.5t-13 0.5q-40 8 -55 8q-8 0 -24 -2t-39 -5h2q-2 0 -8.5 -1.5t-14 -2.5t-14.5 -2.5t-8 -1.5q13 37 26 79.5t25 84.5t22.5 81t18.5 69z" />
    <glyph glyph-name="l" unicode="l" horiz-adv-x="191" 
d="M37 462q7 28 15.5 64t16.5 75t15.5 78t12.5 74q28 -5 49.5 -8t30.5 -3q11 0 38 3.5t69 10.5q-15 -41 -29 -84t-26 -84.5t-22 -78.5t-17 -66q-11 -40 -20.5 -81t-19.5 -81q-7 -29 -15.5 -65t-16.5 -75t-15.5 -78t-12.5 -74q-61 11 -79 11q-8 0 -37.5 -4t-67.5 -9
q10 30 23 71t25.5 84.5t24 85t19.5 71.5z" />
    <glyph glyph-name="m" unicode="m" horiz-adv-x="951" 
d="M69 302q8 35 17.5 83.5t17.5 117.5q32 -5 52 -7.5t30 -2.5q7 0 33 3.5t67 10.5q-3 -8 -5 -15t-4 -12q55 26 122 26q51 0 92 -17t64 -47q81 64 188 64q40 0 73 -8t57 -24.5t37 -43t13 -62.5q0 -11 -1.5 -23t-6.5 -26v-1q-2 -11 -5.5 -24t-8.5 -26q-8 -26 -19 -64t-23 -84
l1 1q-1 -4 -2 -7t-2 -7l-4 -16t-4.5 -21t-5.5 -32t-7 -49q-61 11 -79 11q-9 0 -38 -4t-69 -10q7 20 19 54.5t26 79.5t29 97t29 107q3 13 3 26q0 16 -13.5 26t-45.5 10q-34 0 -58 -10t-40 -23h1q-9 -9 -15 -18t-13.5 -27.5t-16.5 -51.5t-24 -90q-6 -27 -11 -56l-10 -58
q-2 -11 -6.5 -31.5t-6.5 -31.5q-29 5 -49.5 8t-27.5 3q-9 0 -37 -4t-66 -9q8 25 19 59t22 70t21 70.5t16 58.5l16.5 69t5.5 36q-1 1 -1.5 5t-1.5 6q-1 1 -1 5q-5 8 -18.5 14t-30.5 6q-60 0 -96 -31t-50 -88l1 1q-5 -20 -10 -39t-10 -39q-8 -35 -17 -85t-17 -116q-30 5 -51 8
t-32 3q-9 0 -37.5 -4t-69.5 -10q28 75 45.5 132t26.5 91z" />
    <glyph glyph-name="n" unicode="n" horiz-adv-x="585" 
d="M402 296q5 20 5 38q0 26 -15.5 39t-42.5 13q-65 0 -102 -31t-51 -88l1 1q-5 -20 -9.5 -39t-9.5 -39q-9 -36 -18.5 -86.5t-15.5 -114.5q-32 5 -53 8t-29 3q-11 0 -41 -4t-68 -9q31 83 46.5 135.5t25.5 86.5l-1 -1q2 11 5.5 23t6.5 24l6 24t5 23q10 35 19 85t16 116
q32 -5 52.5 -7.5t31.5 -2.5q6 0 33 3.5t71 9.5q-4 -8 -7 -15t-5 -13q57 28 133 28q34 0 66.5 -6.5t58.5 -23.5t42 -45.5t16 -71.5q0 -12 -1.5 -26t-6.5 -30q-5 -18 -10.5 -38.5t-11.5 -40.5v1q-2 -5 -3.5 -11t-3.5 -13q-4 -14 -7.5 -29t-7.5 -32q-1 -8 -4 -9q0 -2 -0.5 -3
t-0.5 -3v1q0 -6 -2 -12q-2 -8 -4.5 -17.5t-5.5 -23.5t-6.5 -34t-7.5 -49q-29 5 -48.5 7.5t-30.5 2.5q-10 0 -35.5 -3.5t-60.5 -8.5l34 119q10 32 20 65.5t19 68.5l-1 -1q3 14 6.5 27.5t6.5 27.5z" />
    <glyph glyph-name="o" unicode="o" horiz-adv-x="679" 
d="M32 255q17 69 55.5 117t89 77.5t107.5 43t111 13.5q49 0 95.5 -10.5t83 -34.5t59 -62.5t22.5 -93.5q0 -16 -2 -33.5t-8 -35.5q-20 -63 -60 -110t-90 -77.5t-106 -46t-107 -15.5q-49 0 -95.5 11t-83 35.5t-59 62.5t-22.5 92q0 27 10 66v1zM201 238q-4 -17 -6.5 -33
t-2.5 -30q0 -37 21.5 -61.5t76.5 -24.5q41 0 72.5 14t54.5 37t37.5 52.5t22.5 61.5h-1q4 18 6.5 34t2.5 28q0 37 -21.5 62.5t-76.5 25.5q-42 0 -73.5 -14t-54 -37.5t-37 -53.5t-22.5 -62z" />
    <glyph glyph-name="p" unicode="p" horiz-adv-x="622" 
d="M57 209q7 28 15.5 63.5t16.5 74.5t15.5 79.5t13.5 76.5q30 -5 49.5 -7.5t30.5 -2.5t39 3.5t69 10.5q-5 -11 -8 -19.5t-6 -13.5q29 14 63.5 23t78.5 9t83.5 -11.5t69.5 -35t48 -60t18 -86.5q0 -17 -2.5 -35.5t-8.5 -39.5q-18 -59 -54.5 -106t-82.5 -79t-97.5 -49
t-98.5 -17q-45 0 -79 10.5t-60 30.5q-14 -57 -29.5 -132t-25.5 -144l-35 7q-15 2 -27.5 3.5t-17.5 1.5q-8 0 -24 -1.5t-39 -4.5h2q-2 0 -9 -1.5t-14.5 -3t-14.5 -3t-8 -1.5q13 38 27 81t26.5 85.5t22.5 81t17 67.5zM474 259q3 16 5.5 31t2.5 29q0 22 -7 36.5t-18.5 23
t-26 12t-29.5 3.5q-37 0 -66 -13.5t-51.5 -35.5t-38 -51t-24.5 -60q-4 -17 -6.5 -32t-2.5 -30q0 -78 91 -78q33 0 60.5 12.5t49.5 35t37 52.5t24 65z" />
    <glyph glyph-name="q" unicode="q" horiz-adv-x="621" 
d="M563 45q-7 -29 -15.5 -65t-16.5 -74.5t-15 -77.5t-12 -73q-28 5 -49 7t-32 2q-10 0 -39 -3.5t-68 -9.5q11 31 22.5 66.5t22.5 72t21 71t18 64.5q-36 -20 -73 -29t-75 -9q-42 0 -82.5 10t-72 33t-50.5 59.5t-19 90.5q0 15 2 33t7 39q18 64 54.5 112t82 79.5t95.5 47
t95 15.5t79.5 -11t58.5 -28q1 10 1.5 20.5t1.5 16.5q31 -5 53 -8t29 -3q10 0 37 3.5t69 9.5q-13 -37 -27 -79.5t-26.5 -85.5t-23.5 -82t-18 -69zM466 312q0 35 -19.5 58.5t-67.5 23.5q-22 0 -47 -9t-49 -28.5t-45 -51.5t-34 -78q-3 -12 -4.5 -26t-1.5 -28q0 -35 18.5 -57
t57.5 -22q36 0 66.5 14.5t54.5 38.5t41 54.5t25 62.5l18 -24z" />
    <glyph glyph-name="r" unicode="r" horiz-adv-x="351" 
d="M335 343q-7 8 -18.5 14.5t-21.5 6.5q-41 0 -70 -27t-39 -69q-15 -57 -25 -96t-17 -69.5t-11.5 -57t-7.5 -57.5q-27 5 -47.5 8.5t-27.5 3.5q-8 0 -35.5 -4t-65.5 -9q22 63 35.5 112t26.5 99l-1 -1q1 6 2.5 12.5t3.5 13.5q2 8 3.5 15.5t3.5 15.5q1 2 1 4.5t4 12.5l-1 -1
q1 3 2 6.5t2 6.5q4 18 10 43.5t13 55.5t13.5 61t12.5 60q29 -5 47.5 -7.5t26.5 -2.5q11 0 37.5 4t70.5 12q-4 -8 -7 -15t-7 -14q49 26 98 26q12 0 31 -5t65 -19q-26 -33 -37 -64t-17 -54z" />
    <glyph glyph-name="s" unicode="s" horiz-adv-x="445" 
d="M79 155q3 -9 10.5 -19.5t18.5 -20t25 -15.5t31 -6q30 0 58 14t36 39q-1 11 -22.5 19t-48.5 16q-27 7 -53.5 15t-48 21.5t-35 35t-13.5 54.5q0 8 1 17t5 19q10 33 32.5 62.5t55.5 51.5t75 35t91 13q27 0 51 -5.5t42 -10.5l15 -4q4 -2 13 -4t19 -6l10.5 -3.5l15 -5t14 -4.5
t7.5 -2q-14 -14 -28 -31.5t-26 -34t-20.5 -30.5t-11.5 -22h-70q-4 23 -17.5 39.5t-36.5 16.5t-47 -11.5t-32 -36.5l1 2q-2 -7 4.5 -12.5t17 -10.5t24 -9t27.5 -8q26 -7 52.5 -15t47.5 -21t34 -33.5t13 -52.5q0 -8 -1 -18t-4 -20q-10 -29 -34.5 -58.5t-60.5 -53.5t-81.5 -39
t-96.5 -15q-57 0 -106 17t-87 37q9 10 19.5 25t20.5 31t17 31.5t10 26.5h67z" />
    <glyph glyph-name="t" unicode="t" horiz-adv-x="350" 
d="M260 617h61q-1 -4 -3.5 -11.5t-5 -16t-5 -16l-3.5 -10.5q-5 -13 -8.5 -22t-6.5 -17.5l-6 -17t-6 -21.5h8q12 0 28.5 0.5t33.5 1.5t33 1.5t25 0.5q-11 -24 -18 -39.5t-8 -20.5q0 -2 0.5 -3.5t-1.5 -4.5l-4 -20t-5 -27q-14 1 -31 1.5l-34 1t-32.5 0.5h-25.5
q-5 -16 -12 -40.5t-14.5 -52.5l-15 -56t-12.5 -50q-5 -17 -8.5 -34t-3.5 -31q0 -11 7 -17.5t25 -6.5q4 0 14 1.5t24 4t30.5 5.5t34.5 7l-25 -99q-34 -9 -66.5 -15t-53.5 -6q-78 0 -114.5 30t-36.5 86q0 8 1.5 19t5.5 22l-1 -1q4 16 9 33.5t11 37.5q2 7 3.5 13.5t3.5 14.5
q4 12 7 24q8 24 15 49.5t16 60.5q-10 0 -23 -1t-26.5 -1.5t-25.5 -1.5t-18 -2l37 74v45q6 0 21.5 -0.5t20.5 -0.5q18 -1 23.5 -2t14.5 -1q5 20 9 45.5t8 45.5z" />
    <glyph glyph-name="u" unicode="u" horiz-adv-x="585" 
d="M15 180q5 17 9 33.5t8 30.5q3 9 5.5 18t4.5 17q2 5 2.5 9t2.5 8v-2q2 9 4 17l4 16q6 24 13 57t14 64q1 5 3 12.5t4.5 15.5t4.5 15.5t3 11.5q29 -5 47 -7.5t25 -2.5t32.5 4t69.5 12l-24.5 -73.5t-26 -82t-24 -80.5t-18.5 -70l1 1q-3 -15 -5 -28t-2 -22q0 -12 1.5 -18
t4.5 -9q15 -20 61 -20q38 0 65.5 12.5t43.5 31.5q11 13 18 23.5t13 27.5t13.5 45t19.5 76q4 18 10 42.5t11.5 50t10.5 48.5t8 39q53 -10 75 -10q10 0 35.5 4t65.5 12q-11 -35 -24 -77.5t-25.5 -87t-24 -87.5t-19.5 -78q-5 -20 -11 -45t-11.5 -51.5t-10.5 -51t-8 -43.5
q-27 5 -47 8.5t-26 3.5q-8 0 -34.5 -4t-64.5 -10q1 3 4.5 13t6.5 19q-65 -31 -132 -31q-93 0 -142.5 37.5t-49.5 107.5q0 11 1 23t5 26v-1z" />
    <glyph glyph-name="v" unicode="v" horiz-adv-x="604" 
d="M181 18q-2 6 -3.5 16.5t-3.5 16.5h1q-23 102 -53.5 219.5t-67.5 235.5q42 -6 69.5 -9.5t37.5 -3.5q11 0 30.5 2t51.5 7q13 -91 29.5 -169t34.5 -147q47 58 93.5 124.5t90.5 130.5q7 11 21 30t23 31q34 -9 47 -9q8 0 41 7t84 19q-2 -2 -9.5 -13t-17.5 -24.5t-19.5 -26
t-13.5 -18.5q-10 -12 -18 -23t-12 -16q-80 -98 -163.5 -203t-151.5 -204q-14 4 -27 6.5t-22 2.5q-3 0 -13 -2t-24 -5z" />
    <glyph glyph-name="w" unicode="w" horiz-adv-x="999" 
d="M198 21q-4 37 -14 94t-24 123t-31 135.5t-34 132.5q38 -6 64.5 -9.5t37.5 -3.5q10 0 31.5 2.5t53.5 7.5q8 -85 18.5 -159t24.5 -140q22 32 48.5 71t53.5 79t52 78.5t44 69.5q36 -9 50 -9q2 0 18.5 3.5t46.5 9.5q6 -85 18 -158.5t25 -142.5q23 32 50 70t55 77t54.5 77
t49.5 71q16 -3 28.5 -5t22.5 -2q8 0 43.5 7t89.5 20q-128 -152 -230 -282.5t-180 -242.5q-12 0 -21 0.5t-15 2.5h-1q-6 2 -9 2q0 -1 -7.5 -2t-15.5 -3q-10 -2 -20.5 -3t-19.5 -3q-8 81 -19.5 156t-25.5 136q-21 -30 -47 -67t-52 -75t-50.5 -75.5t-43.5 -68.5h-22t-13 1
q-5 2 -10 3t-6 1q-2 0 -7.5 -1t-12.5 -3q-1 0 -3.5 -0.5t-4.5 -0.5h-11z" />
    <glyph glyph-name="x" unicode="x" horiz-adv-x="629" 
d="M262 488q18 -37 38.5 -71.5t43.5 -69.5q45 37 91.5 77.5t87.5 75.5q18 -3 29.5 -5t16.5 -2q11 0 57 8l24 -57q-66 -50 -124.5 -93.5t-120.5 -92.5q19 -29 43.5 -66t50 -74.5t50 -72.5t43.5 -61q-49 6 -86.5 11t-49.5 5q-11 0 -31 -2.5t-46 -6.5q-23 42 -48 84.5t-50 82.5
v1q1 -2 1.5 -1.5t-1.5 2.5q-48 -42 -94 -85t-91 -84q-15 4 -27.5 6.5t-20.5 2.5q-6 0 -20 -2.5t-34 -6.5l-24 56q66 52 126 100t123 100q-19 28 -43.5 63.5t-50 71.5t-49 70t-41.5 58q55 -8 92 -12.5t48 -4.5q23 0 67 6z" />
    <glyph glyph-name="y" unicode="y" horiz-adv-x="601" 
d="M-19 -219q78 75 135.5 139t102.5 121q-8 31 -19.5 74.5t-24.5 90.5t-26.5 95t-25 89.5t-20 72t-12.5 43.5q38 -6 64 -9.5t37 -3.5q22 0 84 9q14 -97 31.5 -169t34.5 -139q54 67 110.5 147t107.5 159q17 -3 30.5 -5t24.5 -2q5 0 40.5 6t96.5 20q-13 -14 -42 -49t-69 -83
t-87.5 -106.5t-97.5 -120.5t-98.5 -123.5t-90.5 -115.5t-74.5 -97.5t-48.5 -68.5q-18 5 -33 7t-21 2q-8 0 -32 -4t-60 -12z" />
    <glyph glyph-name="z" unicode="z" horiz-adv-x="594" 
d="M-30 66q46 36 96.5 77.5l101 83t98 81.5t87.5 74l1 1q-32 -2 -70 -3.5t-74 -3.5t-67.5 -4t-50.5 -3q15 34 21.5 50t9.5 25l-1 -2q2 7 3 14t2 15q0 3 0.5 15t0.5 14q45 -3 127.5 -5t185.5 -2q24 0 50.5 0.5t52.5 1.5t49.5 2.5t41.5 2.5l-16 -71q-56 -47 -113 -94
t-108.5 -90t-94 -78.5t-69.5 -58.5q70 2 152 6.5t168 10.5q-16 -29 -27.5 -51t-12.5 -25l1 1q-3 -9 2 -55h-24t-32 0.5t-32 1t-24 0.5q-48 2 -104 2.5t-103 0.5q-75 0 -148 -3q-9 0 -23 -0.5t-29 -1t-27.5 -0.5h-17.5z" />
    <glyph glyph-name="braceleft" unicode="{" horiz-adv-x="296" 
d="M3 344q38 0 63 17t32 40v-1q11 36 21 76t18 76q20 72 60 102.5t100 30.5h110l-27 -107h-63q-15 0 -24.5 -8t-16.5 -36l-37 -147q-9 -35 -29 -61t-48 -43q28 -27 28 -74q0 -9 -1 -18.5t-5 -20.5q-4 -17 -9.5 -38.5t-9.5 -40.5q-5 -18 -9 -35t-8 -32q-1 -8 -2 -14t-1 -12h8
h82l-26 -106h-93q-56 0 -85.5 21.5t-29.5 77.5q0 11 1.5 24t6.5 29v-1q5 17 9.5 36t9.5 39l9.5 38t9.5 37q1 5 1.5 10.5t0.5 8.5q0 21 -74 21z" />
    <glyph glyph-name="bar" unicode="|" horiz-adv-x="156" 
d="M130 744h131l-240 -967h-131z" />
    <glyph glyph-name="braceright" unicode="}" horiz-adv-x="297" 
d="M292 233q-38 0 -63 -17.5t-32 -40.5v1q-11 -36 -21 -76t-18 -76q-20 -72 -59.5 -102t-99.5 -30h-110l27 106h63q14 0 23.5 8.5t16.5 36.5l37 146q9 35 28.5 61t47.5 43q-27 26 -27 75q0 8 1 18t5 21q4 17 9 39t10 42v-1q3 16 7.5 32.5t8.5 31.5q2 8 3 15t1 12h-8h-82
l26 107h93q56 0 85.5 -21.5t29.5 -77.5q0 -11 -1.5 -24t-6.5 -28q-5 -18 -10 -37.5t-10 -38.5q-5 -20 -9.5 -39.5t-9.5 -36.5l1 3q-1 -6 -1.5 -11t-0.5 -10q0 -20 74 -20z" />
    <glyph glyph-name="asciitilde" unicode="~" horiz-adv-x="634" 
d="M11 248q48 48 93.5 77t105.5 29q40 0 65 -7.5t48 -17.5q20 -8 35 -15h-1q20 -8 38.5 -14.5t39.5 -6.5q11 0 26.5 8.5t32.5 22t34.5 30t31.5 31.5l63 -107q-20 -18 -43 -36.5t-48.5 -34t-53 -25t-56.5 -9.5q-37 0 -68 10t-67 26q-23 11 -43.5 18t-37.5 7q-19 0 -37 -9
t-35 -23t-32 -31t-28 -32z" />
    <glyph glyph-name="exclamdown" unicode="&#xa1;" horiz-adv-x="201" 
d="M68 428q4 16 15 30t26 24.5t33 17t37 6.5q22 0 39.5 -8t29 -21t16.5 -31t1 -37q-8 -24 -28 -43.5t-46 -28.5q-3 -15 -6.5 -40.5t-5.5 -41.5q-2 -14 -3.5 -26t-3.5 -23t-3 -20.5t-3 -20.5q-7 -53 -14 -103.5t-13 -91.5t-11 -68.5t-7 -33.5v1q-11 -38 -40.5 -55t-59.5 -17
q-37 0 -61.5 22.5t-16.5 66.5q5 16 22 66t39.5 116t48 139t47.5 135h4q-22 13 -32.5 35.5t-3.5 50.5z" />
    <glyph glyph-name="cent" unicode="&#xa2;" horiz-adv-x="546" 
d="M5 246q14 56 44 99.5t70.5 75t89.5 51t100 27.5q3 17 6.5 42.5t7.5 67.5q27 -8 46 -12.5t24 -4.5q17 0 80 16q-12 -30 -23.5 -58.5t-16.5 -45.5q55 -5 100 -23t71 -41q-20 -25 -38.5 -51t-33.5 -55h-57q-8 19 -24.5 38.5t-45.5 26.5l-74 -299q35 8 74 26t73 42l47 -27
q-16 -26 -23.5 -45.5t-13.5 -39.5q-40 -23 -88.5 -41t-94.5 -24q-4 -19 -8 -48t-8 -66q-29 9 -46.5 13t-24.5 4q-4 0 -23 -4.5t-51 -12.5q1 3 3.5 11t5.5 16.5t5.5 16t4.5 11.5q8 20 11.5 32.5t8.5 27.5q-45 7 -84 26t-64.5 50t-34.5 75t5 103zM282 387q-41 -20 -67 -56.5
t-38 -83.5q-24 -99 37 -133z" />
    <glyph glyph-name="sterling" unicode="&#xa3;" horiz-adv-x="623" 
d="M0 127q38 0 64.5 9t44.5 24.5t28.5 38t17.5 49.5q2 8 3.5 21t3.5 25h-34.5h-36.5h-33.5h-24.5q10 21 16.5 33.5t9.5 19.5t4.5 10l1.5 3q0 1 0.5 3t-0.5 7t-4 15.5t-9 29.5q35 -4 67.5 -7.5t52.5 -4.5q2 8 3.5 16.5t4.5 17.5v-1q17 70 52.5 116t79.5 73.5t92 38.5t90 11
q24 0 50 -5.5t50.5 -17.5t45.5 -30t35 -42q-27 -20 -52.5 -41.5t-51.5 -47.5l-38 38q-2 20 -15 30t-32 10q-23 0 -44 -7.5t-38 -20t-29 -30t-18 -36.5q-5 -19 -8.5 -36.5t-5.5 -35.5q21 0 39.5 0.5t38.5 2.5q7 0 15.5 0.5t17.5 0.5q6 0 15.5 1t19 1.5t18 1.5t11.5 1
q-1 -3 -3.5 -13t-5.5 -21t-5.5 -20t-2.5 -10v4q-1 -4 -1 -6.5t-1 -4.5l1 2q-1 -3 -1.5 -14t-0.5 -35h-46q-8 0 -15.5 0.5t-14.5 0.5q-25 1 -48 1h-49q-1 -2 -1.5 -5.5t-2.5 -8.5v1q-11 -47 -35 -85t-54 -69q40 1 79.5 2t78.5 3q9 0 18 0.5t17 0.5q12 0 31.5 1t40 1.5t38 1.5
t26.5 1q-14 -32 -23 -54.5l-11 -27.5q-2 -7 -3 -22t-1 -41h-22t-29 0.5t-29.5 1t-22.5 0.5q-45 2 -97 2.5t-99 0.5q-93 0 -189 -3q-10 0 -26 -0.5t-32.5 -1t-30.5 -0.5h-21q0 8 1 15q1 6 1.5 12t2.5 8q5 10 7 17t3 9t1 6q1 2 1 4t1 4q0 2 1 6.5t1 6.5q1 5 4 17.5t8 26.5h43z
" />
    <glyph glyph-name="currency" unicode="&#xa4;" horiz-adv-x="698" 
d="M641 599l88 -85l-81 -54q9 -20 15 -42t6 -44q0 -12 -1.5 -25.5t-6.5 -27.5q-8 -34 -29.5 -69t-48.5 -63q13 -13 27.5 -27t24.5 -23l-111 -77l-51 52q-42 -20 -87 -31t-93 -11q-46 0 -88.5 11.5t-74.5 31.5q-5 -2 -9 -5.5t-9 -7.5q-13 -8 -32.5 -20.5t-29.5 -19.5l-78 87
l76 54q-9 20 -14 40.5t-5 43.5q0 12 1.5 25.5t6.5 27.5q9 35 29 68.5t48 61.5q-14 15 -30.5 32.5t-22.5 24.5l109 73l52 -52q41 20 87.5 30.5t94.5 10.5t89 -10.5t74 -30.5zM536 367q0 46 -38.5 76t-103.5 30q-41 0 -79 -12t-69 -32.5t-52.5 -48t-28.5 -59.5q-3 -12 -3 -29
q0 -45 38.5 -75t103.5 -30q40 0 78 12t69 32.5t53 48.5t30 60l31 -18z" />
    <glyph glyph-name="yen" unicode="&#xa5;" horiz-adv-x="680" 
d="M42 248q0 4 1.5 12t6.5 33h-1q0 1 2 7t3.5 13t3.5 12.5t2 7.5q2 8 3.5 12t2.5 6q0 1 1 3l2 4v1q0 1 1.5 8.5t9.5 37.5q9 0 24.5 -0.5t23.5 -0.5q25 -1 48 -1h49q-2 2 -4 8l2 -3q-13 23 -27.5 50t-29.5 55q-11 20 -24.5 45t-28 50.5t-27.5 49t-22 39.5q48 -7 80 -11t46 -4
t37 2.5t52 6.5q6 -22 17 -51t25 -61.5t30 -66t31 -64.5q63 60 126 123.5t115 119.5q14 -4 27 -6.5t23 -2.5q5 0 20 2.5t35 6.5l25 -55q-23 -19 -50.5 -43t-57.5 -51t-61.5 -55.5t-62.5 -56.5h1q-8 -7 -15.5 -14t-15.5 -13q39 0 81.5 1t68.5 2l-29 -57l1 3q-1 -1 -4 -1.5
t-6 -1.5l7 -1q-2 -6 -2 -21.5v-32.5h5l-8 -16l-10 -20q-6 -11 -12 -25q-1 -1 -1 1l-2 -9q0 -1 -0.5 -4.5t-0.5 -8.5v-31h-13.5h-18t-18 0.5t-14.5 0.5q-37 2 -70 2.5t-69 0.5q-11 -48 -20 -102t-15 -94q-30 5 -50.5 8t-30.5 3q-9 0 -38.5 -3.5t-69.5 -8.5q17 48 35 98.5
t29 98.5q-47 -1 -101 -2t-94 -3q0 19 3 28t6 16q2 5 4.5 9t4.5 7l-2 -2q1 4 5 10zM403 292q41 0 90 0.5t90 0.5q-10 1 -20 1h-16h-41q-7 0 -14 0.5t-13 0.5q-12 0 -20 0.5t-16 0.5h-16.5h-21.5q-1 -1 -1 -2t-1 -2zM242 296q-20 0 -40 -0.5t-40 -1.5q-8 0 -20 -0.5t-25 -0.5
h-67q48 -1 96 -1h96v4zM71 359q0 1 -2 -1l2 1v0z" />
    <glyph glyph-name="brokenbar" unicode="&#xa6;" horiz-adv-x="150" 
d="M-1 230h132l-96 -387h-131zM110 677h131l-96 -387h-132z" />
    <glyph glyph-name="section" unicode="&#xa7;" horiz-adv-x="533" 
d="M433 517q-3 29 -20 51.5t-47 22.5q-18 0 -36 -4.5t-33.5 -12.5t-27 -19.5t-16.5 -24.5q-2 -11 6 -20t22 -17.5t32.5 -15.5t38.5 -13q31 -11 61 -22.5t53.5 -28t38 -39.5t14.5 -56q0 -8 -1 -16t-4 -19q-8 -34 -31 -63t-47 -51q4 -9 7.5 -21.5t3.5 -23.5q0 -8 -1 -18
t-5 -20v1q-11 -38 -37 -74.5t-66.5 -64.5t-93 -45t-115.5 -17q-24 0 -50.5 5t-52.5 13.5t-50.5 20t-43.5 23.5q7 11 14.5 27t14 33.5t12.5 34.5t9 31h72q2 -11 9 -25t20.5 -26.5t34.5 -21.5t50 -9q24 0 47 6.5t41.5 17.5t31.5 25t16 28q3 10 -5 18.5t-22 16t-34 14t-41 13.5
q-33 11 -66 24t-59.5 31t-42.5 43.5t-16 62.5q0 8 1 17.5t4 20.5v-1q11 41 38 70.5t54 46.5q-4 12 -4 28q0 9 2 22t7 29v-1q9 32 31.5 63.5t57 56t80 39.5t100.5 15q32 0 60.5 -9t52.5 -23t43.5 -32t34.5 -36q-24 -15 -46 -39t-30 -42h-71zM382 262q4 14 -9 23t-46 22
q-65 25 -99.5 40t-50.5 24q-8 -8 -15 -15.5t-9 -15.5l1 1q-3 -15 14 -27.5t59 -27.5q11 -5 21 -9t19 -7q41 -16 62.5 -23.5t35.5 -14.5q5 5 9.5 13t6.5 16z" />
    <glyph glyph-name="dieresis" unicode="&#xa8;" horiz-adv-x="450" 
d="M125 690q20 0 37 -7.5t28 -20t15.5 -29.5t0.5 -35q-3 -15 -13.5 -28.5t-24.5 -23.5t-31 -16t-35 -6q-44 0 -66.5 26.5t-13.5 64.5l32 -17zM346 690q43 0 65.5 -27t14.5 -65q-4 -15 -14 -28.5t-24 -23.5t-30.5 -16t-34.5 -6q-21 0 -38 7t-27.5 19.5t-15 29.5t0.5 36
l31 -18z" />
    <glyph glyph-name="copyright" unicode="&#xa9;" horiz-adv-x="962" 
d="M45 350q18 72 67 135.5t119 110.5t155 74.5t174 27.5q81 0 148.5 -22.5t116 -62t75 -93.5t26.5 -116q0 -33 -10 -72q-18 -72 -67.5 -135.5t-119.5 -110.5t-155 -74.5t-173 -27.5q-82 0 -149.5 22.5t-115.5 62t-74.5 93t-26.5 115.5q0 36 10 73zM799 349q3 14 4 26.5
t1 23.5q0 70 -51 121q-14 -18 -24 -37t-14 -37l-51 -2q-6 6 -15.5 13.5t-22 15t-29.5 12.5t-39 5q-33 0 -67 -7t-63 -25t-52 -49.5t-35 -79.5l1 1q-5 -23 -5 -39q0 -42 31.5 -68t94.5 -26q21 0 42.5 5t42 12t38.5 15.5t31 16.5l89 -1q-25 -33 -37.5 -53t-17.5 -31
q57 35 96 83.5t53 105.5zM198 348q15 60 50 105t83 75.5t107 45.5t122 15q28 0 54 -3q-14 2 -29 3.5t-32 1.5q-69 0 -133.5 -20t-117 -55.5t-90 -82.5t-50.5 -101l1 1q-6 -27 -6 -51q0 -41 18 -76t51 -60.5t79.5 -40t102.5 -14.5q35 0 68 4.5t65 15.5q-23 -6 -48 -9.5
t-49 -3.5q-58 0 -105 13.5t-80 39t-51 61t-18 80.5q0 13 1.5 27t6.5 30v-1z" />
    <glyph glyph-name="ordfeminine" unicode="&#xaa;" horiz-adv-x="412" 
d="M78 638q33 13 71.5 25t89.5 12q23 0 47 -4t44 -14.5t32.5 -29t12.5 -48.5q0 -8 -1 -16.5t-3 -17.5q-5 -22 -11.5 -43t-11.5 -37v1q-2 -8 -4 -15l-4 -14q11 4 22.5 8.5t24.5 9.5l-21 -99q-17 -8 -42 -15t-46 -7q-19 0 -33.5 6t-24.5 16q-47 -22 -103 -22q-25 0 -50.5 5.5
t-44 18t-27.5 34t-2 53.5q10 38 35.5 60t82.5 35h-55zM208 576q-22 0 -40.5 -10t-29.5 -21q4 1 7 1.5t8 1.5q44 5 61.5 7.5t20.5 0.5q2 14 -6.5 17t-20.5 3zM214 465q-26 -3 -49 -9t-29 -21q2 -1 5.5 -2t8.5 -1q15 0 31 7t30 15z" />
    <glyph glyph-name="guillemotleft" unicode="&#xab;" horiz-adv-x="438" 
d="M241 475q7 -20 32 -36t64 -23l65 60q9 -21 37 -38.5t70 -22.5l-200 -177q10 -19 23.5 -42.5t27 -47.5t25.5 -45.5t20 -37.5q-32 -3 -65 -20.5t-49 -39.5l-131 246l-14 -13q1 -2 3 -5q9 -18 22 -40.5t26 -45.5t25 -44.5t21 -36.5q-33 -4 -66.5 -20.5t-50.5 -36.5l-130 243
z" />
    <glyph glyph-name="logicalnot" unicode="&#xac;" horiz-adv-x="678" 
d="M517 289h-507l30 122h639l-79 -315h-131z" />
    <glyph glyph-name="registered" unicode="&#xae;" horiz-adv-x="962" 
d="M45 350q18 72 67 135.5t119 110.5t155 74.5t174 27.5q81 0 148.5 -22.5t116 -62t75 -93.5t26.5 -116q0 -33 -10 -72q-18 -72 -67.5 -135.5t-119.5 -110.5t-155 -74.5t-173 -27.5q-82 0 -149.5 22.5t-115.5 62t-74.5 93t-26.5 115.5q0 36 10 73zM553 591q-27 0 -53.5 -3.5
t-52.5 -9.5h18q10 0 19.5 0.5t20.5 1.5h5q3 0 5 0.5t6 0.5q8 1 18 1.5t19 0.5q39 0 71 -8.5t53 -25t29.5 -42.5t-0.5 -60q-7 -25 -23 -45t-37.5 -36t-45.5 -28t-47 -19q1 -5 5 -8l7 -8l-2 2q23 -35 50.5 -70t53.5 -59q48 34 81.5 78.5t46.5 95.5l-1 -1q3 14 4 26.5t1 23.5
q0 42 -18 77t-51 60.5t-79.5 40t-102.5 14.5zM163 333q-6 -27 -6 -51q0 -44 20 -79.5t55 -61.5q3 7 5 12.5t4 9.5q5 17 7 21l-1 -3q10 27 18.5 54t13.5 45q9 35 20 77t19 77l-1 -1q5 22 10 48.5t9 53.5q-66 -35 -112 -88t-62 -115zM314 114q-3 0 -10 -0.5t-17 -2.5
q26 -11 56.5 -15.5t64.5 -4.5q69 0 129 19q-58 94 -121 180l-4 -12t-4 -11q-3 -15 -7 -34.5t-7.5 -41t-7.5 -44.5t-7 -44q-2 0 -7 1t-10.5 2.5t-10 2.5t-5.5 1l1 -1q-12 2 -21.5 3.5t-11.5 1.5zM441 396q23 0 44.5 3.5t39 11t29.5 20t16 29.5q4 14 -10.5 21t-39.5 7h-27.5
t-24.5 -2q0 -1 -0.5 -2.5t-0.5 -2.5q-6 -16 -10.5 -30.5t-7.5 -23.5z" />
    <glyph glyph-name="macron" unicode="&#xaf;" horiz-adv-x="428" 
d="M39 660h378l-30 -120h-378z" />
    <glyph glyph-name="degree" unicode="&#xb0;" horiz-adv-x="422" 
d="M243 675q38 0 69 -10.5t53.5 -29.5t34.5 -45t12 -56q0 -8 -1 -16.5t-3 -18.5q-10 -32 -33 -60.5t-54 -50t-68 -34.5t-75 -13t-69 11t-53.5 30t-34.5 44.5t-12 55.5q0 23 4 38zM125 499q-6 -21 12.5 -36t48.5 -15q19 0 37 5.5t33 15.5t25.5 22.5t15.5 26.5l-1 -2
q5 22 -13.5 37.5t-47.5 15.5q-39 0 -71 -20.5t-39 -49.5z" />
    <glyph glyph-name="plusminus" unicode="&#xb1;" horiz-adv-x="648" 
d="M-34 120h253q4 18 8 32.5t7 28.5t6.5 28.5t8.5 33.5h-253l31 120h251q2 8 4 15t4 15q4 15 9 33t9.5 36t9 34.5t7.5 29.5h131l-40 -163h253l-29 -120h-255q-8 -32 -14.5 -61t-15.5 -62h254l-31 -120h-637z" />
    <glyph glyph-name="twosuperior" unicode="&#xb2;" horiz-adv-x="407" 
d="M58 591q48 45 95 64.5t100 19.5q40 0 73 -8.5t54 -26t29 -44t0 -62.5q-6 -21 -16 -39t-30 -39t-55 -46.5t-90 -60.5q46 2 92.5 4.5t73.5 4.5q-2 -3 -6 -11l-8.5 -17t-9 -16.5t-5.5 -9.5h1q-2 -5 -4 -8t-3 -5q-2 -3 -2 -4q-1 -6 -0.5 -21.5t2.5 -34.5q-20 1 -45.5 2
t-52.5 2t-52.5 1.5t-45.5 0.5t-46.5 -0.5t-54.5 -1.5t-55 -2t-46 -2l15 73q14 10 35 23.5t34 21.5h-1q49 31 89 57t69.5 50t48 46.5t24.5 47.5l-1 -1q4 16 -4 23.5t-22 7.5q-17 0 -31 -6t-24.5 -14.5t-17.5 -18.5t-10 -18l-48 -2z" />
    <glyph glyph-name="threesuperior" unicode="&#xb3;" horiz-adv-x="393" 
d="M0 359h42q9 -11 28 -21.5t44 -10.5q38 0 66 16.5t34 41.5q5 19 -7 25.5t-29 6.5q-5 0 -18 -2t-31 -5.5t-38.5 -8t-39.5 -8.5q7 10 15.5 23t16 25t13 20t5.5 10q0 5 -2 20t-8 49l-25 82q29 18 70.5 35.5t98.5 17.5q36 0 65 -8t49 -23.5t28.5 -38t2.5 -52.5
q-8 -23 -22.5 -43t-31.5 -35q20 -15 31.5 -40.5t3.5 -61.5q-8 -32 -30 -57.5t-55 -44.5t-75 -29t-90 -10q-44 0 -84 11.5t-78 27.5zM91 540q72 -28 84 -28q30 0 45 18t20 35l-1 -3q2 8 -6 13t-19 5q-20 0 -40.5 -12t-31.5 -27z" />
    <glyph glyph-name="acute" unicode="&#xb4;" horiz-adv-x="298" 
d="M175 702q17 11 36.5 18.5t38.5 7.5q12 0 25 -5t23 -14.5t15 -23.5t2 -31q-7 -24 -30 -40.5t-41 -25.5q-45 -20 -96.5 -44t-96.5 -44h-174z" />
    <glyph glyph-name="mu" unicode="&#xb5;" horiz-adv-x="562" 
d="M229 -13q-20 0 -38 2t-35 7q-13 -52 -24 -109t-19 -130q-2 0 -12.5 0.5t-12.5 0.5q-17 3 -31.5 4.5t-21.5 1.5q-8 0 -34.5 -3.5t-62.5 -8.5q3 10 8 28t10 37.5t10 37t7 26.5q14 48 25.5 95.5t26.5 104.5l-1 -2l2 10t3 10v-1q8 30 14.5 59.5t13.5 56.5q5 19 9 37.5t9 35.5
q4 16 7.5 33.5t8.5 34.5q4 16 9 36.5l10 41t10 39.5t8 31q26 -5 44.5 -7.5t27.5 -2.5q8 0 33 3.5t66 10.5q-11 -32 -23 -71t-24.5 -80.5t-24 -81t-19.5 -72.5l1 1q-8 -32 -8 -50q0 -11 2.5 -17t6.5 -10v1q7 -9 21 -14.5t38 -5.5q37 0 65.5 12.5t43.5 31.5q11 13 18 23
t13 26.5t13.5 45t19.5 77.5q8 34 17 76.5t17 75.5l9 28q25 -5 44 -7.5t28 -2.5q19 0 100 15q-11 -35 -23.5 -77.5t-25 -86.5t-24 -87t-20.5 -78q-5 -20 -10.5 -45.5t-11 -51.5t-10.5 -51t-8 -43q-27 5 -47 8.5t-25 3.5q-7 0 -33.5 -4t-68.5 -11q5 11 7.5 19t4.5 15
q-32 -16 -66 -24t-67 -8zM424 107l4 -3v3h-4z" />
    <glyph glyph-name="paragraph" unicode="&#xb6;" horiz-adv-x="612" 
d="M285 261q-118 8 -174 56t-56 122q0 11 1.5 24t6.5 27q13 46 40 81.5t66 60t87.5 37.5t105.5 13h338l-21 -92l-88 -11q-42 -168 -85 -341t-85 -341h-227z" />
    <glyph glyph-name="periodcentered" unicode="&#xb7;" horiz-adv-x="212" 
d="M3 320q4 16 15 31t26.5 26t34 17.5t38.5 6.5q23 0 41.5 -7.5t31 -21t17.5 -31.5t0 -39q-4 -17 -15.5 -32t-27 -26t-34.5 -17.5t-38 -6.5q-48 0 -74 29t-15 71z" />
    <glyph glyph-name="cedilla" unicode="&#xb8;" horiz-adv-x="298" 
d="M16 -77q8 -2 19 -5t24 -6l-29 27l99 135h127l-41 -64q46 -8 65 -36t9 -70q-6 -26 -23.5 -46t-43 -33t-56.5 -19.5t-64 -6.5q-39 0 -81.5 12t-73.5 23z" />
    <glyph glyph-name="onesuperior" unicode="&#xb9;" horiz-adv-x="243" 
d="M107 534q-6 -2 -9.5 -3.5t-8.5 -3.5q-8 -3 -22.5 -8t-21.5 -7q-6 11 -15.5 22t-20.5 16l2 60q51 13 107.5 29.5t101.5 35.5h74q-24 -68 -39 -114.5t-22 -71.5l-22 -89q-7 -26 -14.5 -69.5t-17.5 -106.5q-24 6 -43 9.5t-26 3.5q-5 0 -31.5 -5t-64.5 -13q17 46 27.5 77.5
t17.5 54t11 38t7 29.5z" />
    <glyph glyph-name="ordmasculine" unicode="&#xba;" horiz-adv-x="464" 
d="M266 675q35 0 68.5 -7.5t59.5 -24t42 -43t16 -64.5q0 -9 -1 -19.5t-5 -21.5q-13 -42 -40 -72.5t-61 -50t-72.5 -29t-73.5 -9.5q-36 0 -70 7.5t-60 24t-41.5 42.5t-15.5 63q0 19 6 45zM162 496q-2 -8 -3 -16t-1 -14q0 -15 10.5 -26t36.5 -11q42 0 65 25.5t31 57.5l-1 -1
q2 10 3 17t1 12q0 17 -9.5 28.5t-34.5 11.5q-22 0 -39 -7.5t-29 -19.5t-19.5 -27t-11.5 -31z" />
    <glyph glyph-name="guillemotright" unicode="&#xbb;" horiz-adv-x="437" 
d="M193 424q16 1 33 6.5t32.5 13.5t28.5 18t21 21l132 -247l-244 -225q-8 20 -32.5 36.5t-62.5 23.5l-66 -61q-8 22 -36.5 40t-70.5 23l199 176l-95 175q32 2 65 19.5t49 39.5l131 -246l12 12z" />
    <glyph glyph-name="onequarter" unicode="&#xbc;" horiz-adv-x="941" 
d="M441 168q37 31 78 65.5t83 69t83.5 68.5t79.5 65q9 -3 19.5 -5t18.5 -2q2 0 27.5 5t58.5 12q-20 -57 -39 -119.5t-33 -119.5q17 3 42 8t55 10q-11 -17 -19.5 -31t-15.5 -24l-14 -21q-2 -7 -1.5 -24t2.5 -37q-23 3 -42 5.5t-35 2.5q-2 -6 -2 -12t-1 -12q-1 -4 -1.5 -7
t-1.5 -7q-2 -9 -5 -22t-6 -24q-1 -2 -4 -11t-5 -12q-20 5 -35 8t-23 3q-9 0 -47 -8q-2 0 -9.5 -1.5t-16.5 -2.5t-17 -2.5t-10 -1.5q0 1 3 6.5t6 12t6 12t3 6.5q8 20 15 36t12 39q-31 0 -65 -0.5t-65.5 -1.5t-56.5 -1.5t-38 -1.5zM630 692q33 -11 39 -11q7 1 15 4q7 2 16 4.5
t19 4.5h-1q2 1 12.5 4t23 6t23 6t12.5 4l-546 -744q-16 4 -26.5 6.5t-13.5 2.5q-5 0 -38 -9.5t-84 -25.5zM199 536l-6 -2q-12 -5 -30.5 -12t-28.5 -11q-8 11 -20.5 23t-27.5 19l17 59q48 11 101.5 27.5t99.5 35.5h72q-6 -17 -14 -41.5t-16 -51t-15.5 -51t-12.5 -42.5
q-5 -22 -11 -44.5t-11 -44.5q-8 -29 -15 -72t-16 -99q-2 0 -12 0.5t-12 0.5q-16 3 -28.5 5t-16.5 2q-10 0 -35.5 -5t-57.5 -13q24 74 38 121t21 78zM688 244q-7 -5 -11.5 -9t-10 -8t-11.5 -9.5t-16 -14.5h39z" />
    <glyph glyph-name="onehalf" unicode="&#xbd;" horiz-adv-x="926" 
d="M538 354q49 44 95 64t99 20q36 0 65.5 -6.5t51 -19.5t33.5 -33.5t12 -48.5q0 -7 -1 -15.5t-4 -17.5q-5 -21 -15 -40t-31 -39.5t-56 -45.5t-89 -59q21 0 43.5 1t43.5 2t39.5 2t31.5 2q-12 -23 -16.5 -32t-5 -11.5t0.5 -1t0 -1.5v1q-2 -3 -2.5 -6t-1.5 -5q-1 -3 -1 -5
l-5 -12l1 1q-1 -4 -1 -6v-13q0 -5 -0.5 -19.5t-0.5 -16.5q-19 1 -44 2.5t-51 2.5t-51.5 1.5t-44.5 0.5t-46 -0.5t-55.5 -1.5t-56 -2.5t-46.5 -2.5l17 75q14 8 33.5 20.5t30.5 20.5q50 31 90.5 57t70 50t48.5 47.5t25 49.5v-1q4 16 -5 23t-23 7q-16 0 -29.5 -6t-23.5 -14
t-17 -18t-11 -17l-49 -2zM626 691q16 -5 25.5 -7.5t14.5 -2.5q7 1 15 4q7 2 15.5 4.5t19.5 4.5h-1q2 1 12.5 4t22.5 6t22.5 6t13.5 4l-546 -744q-16 4 -27 6.5t-13 2.5q-4 0 -37.5 -9.5t-84.5 -25.5zM198 536l-5 -2q-12 -5 -31.5 -12t-30.5 -11q-6 11 -19 23.5t-28 19.5
l20 59q51 12 104.5 28.5t94.5 33.5h73q-6 -17 -13.5 -41.5t-16 -51t-16 -51t-11.5 -42.5q-12 -44 -23 -89q-8 -31 -15.5 -76t-15.5 -95q-2 0 -13 0.5t-13 0.5q-16 3 -28.5 5t-13.5 2q-8 0 -33.5 -5t-61.5 -13q24 74 38 121t22 78z" />
    <glyph glyph-name="threequarters" unicode="&#xbe;" horiz-adv-x="994" 
d="M485 170q20 16 41.5 33.5t41.5 33.5q27 23 58 49l62 52t61.5 51t57.5 47q11 -3 22 -5t18 -2q3 0 27.5 4.5t56.5 12.5q-19 -58 -37.5 -119.5t-32.5 -118.5q17 3 39 7t47 9l-6 -12t-11.5 -22.5t-13 -24t-9.5 -16.5l3 4q-3 -6 -3 -4q-1 -4 -1 -10v-51q-22 3 -40 5.5t-32 2.5
q-3 -15 -6 -31.5t-6 -32.5q-1 -3 -2.5 -9.5t-3 -13.5t-2.5 -12.5t-2 -8.5q-23 5 -39.5 8.5t-23.5 3.5q-2 -1 -20 -3.5t-34 -5.5q-4 -1 -10.5 -2t-13.5 -2.5t-12.5 -3t-6.5 -1.5q1 3 4 11.5t7 18.5t7 18.5t5 12.5q4 9 6.5 15t4.5 11.5t4 11.5t4 15q-31 0 -65.5 -0.5
t-65.5 -1.5t-56.5 -1.5t-38.5 -1.5zM54 359h42q9 -11 27.5 -21.5t44.5 -10.5q40 0 67 17t33 41q5 19 -7 25.5t-29 6.5q-6 0 -20 -2t-31.5 -5.5l-37.5 -7.5t-39 -8q3 5 10 15t14 21t13 20l8 12t2.5 5.5t2.5 4.5q1 2 3 4v61q31 -14 48.5 -19.5t23.5 -5.5q15 0 26 5t18.5 13
t12.5 17t7 18l-1 -3q2 8 -5.5 13t-18.5 5q-22 0 -41 -12t-30 -27l-52 -1l-26 82q29 18 71 35.5t99 17.5q36 0 66 -7.5t49.5 -23t27.5 -39t0 -54.5q-6 -26 -20 -45.5t-33 -33.5q20 -17 30.5 -42t4.5 -57q-9 -31 -31 -57t-55 -44.5t-74.5 -29t-89.5 -10.5q-43 0 -84 11.5
t-77 27.5zM687 691q16 -5 25.5 -7.5t14.5 -2.5q7 1 15 4q7 2 15.5 4.5t19.5 4.5h-1q2 1 12.5 4t22.5 6t22.5 6t13.5 4l-547 -744q-16 4 -26.5 6.5t-12.5 2.5q-4 0 -37.5 -9.5t-84.5 -25.5zM732 244q-10 -9 -15 -13t-9.5 -7t-10 -7.5t-15.5 -13.5h40z" />
    <glyph glyph-name="questiondown" unicode="&#xbf;" horiz-adv-x="348" 
d="M162 428q4 16 15.5 30t26.5 24.5t33 17t37 6.5q22 0 39.5 -8t29 -21t16 -31t0.5 -37q-8 -29 -35.5 -51t-60.5 -27q15 -5 30.5 -14t28 -22t20 -30.5t7.5 -39.5q0 -6 -1.5 -14.5t-3.5 -16.5q-8 -29 -24 -52.5t-37 -43.5t-45 -37.5t-48 -33.5q-18 -12 -35 -24t-31.5 -24
t-24 -24t-12.5 -24q-4 -13 10 -20t31 -7q24 0 67 24.5t93 62.5l-17 -152q-35 -15 -74.5 -28.5t-82.5 -13.5q-87 0 -131 37t-44 93q0 9 0.5 13.5t1.5 9.5v1v-1v1q1 2 1 5q8 33 25.5 59t40.5 48.5t49 41t52 36.5q38 24 67 47t34 45q2 7 -10 7q-8 0 -20.5 -4t-20.5 -8l-76 40
q10 7 20 15.5t19 17t15 15.5t8 11q15 5 30 8t29 4q-25 12 -37 35.5t-5 53.5z" />
    <glyph glyph-name="Agrave" unicode="&#xc0;" horiz-adv-x="820" 
d="M514 654l2 -12v1q8 -26 15.5 -54.5t15.5 -54.5q13 -48 28 -102t30.5 -108t31 -106.5t29 -97t24.5 -79t18 -53.5q-40 5 -70.5 8.5t-41.5 3.5t-35.5 -2.5t-59.5 -7.5q-5 63 -16.5 117.5t-25.5 102.5v-1q-2 5 -4.5 12t-2.5 11q-1 -1 -1 0q-1 0 -1 1v3q-30 1 -57.5 1h-59.5
q-29 0 -55 -0.5t-54 -0.5h-9q-25 -33 -49.5 -66.5t-46.5 -65.5t-41 -61t-33 -53q-21 5 -36 7.5t-20 2.5q-6 0 -21.5 -2.5t-37.5 -6.5h-6t-10.5 -1.5t-22 -4.5t-38.5 -8q63 77 137.5 168.5t150.5 185.5t149.5 186t135.5 171l-48 28t-47 28q-10 6 -20 12.5t-17.5 16.5
t-10.5 23t1 31q3 13 12.5 23t21.5 17.5t24.5 11.5t21.5 4q21 0 38.5 -9.5t31.5 -23.5l193 -196h-113zM392 462q-20 -25 -37.5 -47.5t-36.5 -47.5q-4 -5 -7.5 -9.5t-6.5 -9.5h15h29h24h14.5h14.5h24z" />
    <glyph glyph-name="Aacute" unicode="&#xc1;" horiz-adv-x="821" 
d="M556 854l-1 -1q18 13 38.5 21.5t37.5 8.5q12 0 25 -5.5t23 -15t15 -23.5t2 -31q-8 -26 -30 -42t-42 -25q-11 -5 -17 -8t-11 -5q-25 -11 -50 -22.5t-50 -22.5q8 -26 17 -59.5t17 -60.5v1q2 -8 4 -15t4 -15q19 -70 41 -148t44 -152.5t42 -139t36 -106.5q-42 5 -72.5 8.5
t-41.5 3.5t-35.5 -2.5t-59.5 -7.5q-5 63 -16.5 117.5t-25.5 102.5q-1 7 -6 17q-2 5 -1.5 4t-1.5 6q-28 1 -58 0.5t-58 -0.5q-29 0 -54 -0.5t-53 -0.5h-12q-49 -64 -94 -129.5t-74 -116.5q-23 5 -38 7.5t-20 2.5q-6 0 -21.5 -2.5t-37.5 -6.5h-6t-10.5 -1.5t-22 -4.5t-38.5 -8
q64 78 134.5 164t141 174t139.5 174.5t130 164.5h-132zM384 462q-24 -31 -45 -56.5t-45 -57.5h17h28h24h14.5h15h24.5z" />
    <glyph glyph-name="Acircumflex" unicode="&#xc2;" horiz-adv-x="826" 
d="M500 698q5 -20 13.5 -53t16.5 -59q2 -7 3.5 -13t2.5 -11q4 -14 7.5 -28t8.5 -28q18 -68 37.5 -138t39.5 -137.5t40 -129.5t39 -113q-40 5 -71 8.5t-43 3.5q-11 0 -35 -2.5t-59 -7.5q-5 63 -17 113.5t-24 97.5q-1 4 -2 7.5t-2 7.5q-1 3 -1.5 5.5t-1.5 5.5q-2 6 -1.5 4.5
t-1.5 5.5q-28 1 -58.5 0.5t-58.5 -0.5q-30 0 -55 -0.5t-53 -0.5h-10q-25 -33 -49.5 -66.5t-46.5 -65.5t-41 -61t-32 -53q-22 5 -37.5 7.5t-20.5 2.5t-17.5 -2t-32.5 -6q-4 0 -15.5 -2t-25 -4t-26 -4t-16.5 -3q64 78 139 170.5t152 188t151 188.5t136 172h68zM482 740
q-13 -8 -26.5 -16t-25.5 -15q-23 -14 -46.5 -27.5t-44.5 -27.5h-151l261 223h108l151 -223h-124zM390 463q-17 -21 -29 -37.5t-28 -36.5l-16 -20t-16 -21h16h30h24h15h15h23z" />
    <glyph glyph-name="Atilde" unicode="&#xc3;" horiz-adv-x="820" 
d="M230 676q13 28 33 57.5t45.5 53.5t55 39.5t62.5 15.5q12 0 22 -1t19.5 -4t21 -7.5t28.5 -11.5q23 -10 33.5 -13.5t20.5 -3.5q14 0 29 14t26 31h108q-8 -19 -25.5 -48t-43 -56t-59.5 -46.5t-74 -19.5h-12t-12 1q4 -11 7 -24t6 -22q7 -24 13.5 -49t13.5 -48q13 -48 28 -102
t30.5 -108t31 -106.5t29 -97t24.5 -79t18 -53.5q-42 5 -71.5 8.5t-40.5 3.5t-35.5 -2.5t-58.5 -7.5q-8 74 -20 126t-24 99q-2 5 -3 8.5t-3 8.5q-2 4 -1 2t-1 3q-27 1 -57.5 0.5t-58.5 -0.5q-29 0 -55 -0.5t-54 -0.5h-10q-24 -32 -47.5 -65t-45.5 -64.5t-41 -61.5t-34 -55
q-23 5 -38 7.5t-20 2.5q-9 0 -55 -8h1q-3 0 -15 -2t-25.5 -4.5t-25 -4.5t-15.5 -3q64 78 139.5 171t152.5 188.5t151.5 188.5t136.5 172h10q-2 1 -2 1.5t-2 1.5q-22 10 -32 13.5t-19 3.5q-15 0 -25.5 -9t-26.5 -33h-108zM393 462q-23 -31 -44 -56.5t-46 -57.5h17h29h24h15
h15h23z" />
    <glyph glyph-name="Adieresis" unicode="&#xc4;" horiz-adv-x="819" 
d="M502 698q4 -15 9.5 -35t11 -41t11 -41.5t10.5 -37.5q19 -71 42.5 -151.5t46 -157t43 -142t34.5 -104.5q-40 5 -71 8.5t-43 3.5q-11 0 -35 -2.5t-59 -7.5q-5 60 -16.5 111.5t-22.5 95.5v-1q-3 8 -4.5 12.5t-3 8.5t-2.5 8l-3 12q-27 1 -57.5 0.5t-58.5 -0.5q-30 0 -55 -0.5
t-53 -0.5h-10q-24 -32 -48 -65t-46 -65t-41.5 -61.5t-33.5 -54.5q-21 5 -36.5 7.5t-21.5 2.5q-5 0 -17.5 -2t-32.5 -6q-4 0 -15.5 -2t-25 -4t-26 -4t-16.5 -3q64 78 139 170.5t152 188t151 188.5t136 172h68zM280 770q8 30 37 51.5t65 21.5q42 0 66 -27t16 -65
q-4 -15 -14.5 -28.5t-24.5 -23t-31 -15.5t-34 -6q-21 0 -38 7t-28 19.5t-15 29.5t1 36zM500 770q4 15 14 28.5t24 23t30.5 15.5t34.5 6q21 0 37.5 -7.5t27 -20t15 -29.5t0.5 -35q-5 -14 -15 -27t-24 -23.5t-30.5 -16.5t-32.5 -6q-45 0 -68 26.5t-14 64.5zM392 463
q-5 -8 -9 -13.5t-9 -11.5q-17 -21 -34.5 -43.5t-36.5 -46.5h16h30h24h15h15h23z" />
    <glyph glyph-name="Aring" unicode="&#xc5;" horiz-adv-x="826" 
d="M328 777q6 24 23 46t41 38t52.5 25.5t57.5 9.5q31 0 56 -11.5t42 -30.5t24.5 -44t3.5 -51q-11 -36 -43.5 -67t-72.5 -45q2 -11 5.5 -23.5t7.5 -24.5q4 -17 8.5 -33t9.5 -32q13 -48 28 -102t30.5 -108t31 -106.5t29 -97t24.5 -79t18 -53.5q-40 5 -70.5 8.5t-41.5 3.5
t-35.5 -2.5t-59.5 -7.5q-5 63 -16.5 117.5t-25.5 102.5v-1q-2 5 -4.5 12t-2.5 11q-1 -1 -1 0q-1 0 -1 1v3q-30 1 -57.5 1h-59.5q-29 0 -55 -0.5t-54 -0.5h-9q-25 -33 -49.5 -66.5t-46.5 -65.5t-41 -61t-33 -53q-21 5 -36 7.5t-20 2.5q-6 0 -21.5 -2.5t-37.5 -6.5h-6
t-10.5 -1.5t-22 -4.5t-38.5 -8q62 76 132 162t141 173.5t140.5 174t130.5 164.5q-38 17 -57 50.5t-8 75.5zM388 462q-20 -25 -37.5 -47.5t-36.5 -47.5q-4 -5 -7.5 -9.5t-6.5 -9.5h15h29h24h14.5h14.5h24zM446 761q-1 -4 4.5 -7t13.5 -3q17 0 30.5 7t15.5 18q1 3 -4 6t-13 3
q-17 0 -31 -7.5t-17 -18.5z" />
    <glyph glyph-name="AE" unicode="&#xc6;" horiz-adv-x="1027" 
d="M307 225q-57 -57 -110.5 -114t-104.5 -120q-21 4 -35.5 6.5t-21.5 2.5q-8 0 -32 -3t-60 -8h1q-2 0 -14.5 -2.5t-27 -5.5t-27 -5.5t-14.5 -2.5q44 38 103 92t126 116t139.5 129.5t143 134.5t135.5 129t118 113q47 -2 99.5 -3.5t101.5 -1.5q24 0 58.5 1t71.5 2.5t71.5 3
l57.5 2.5q-21 -31 -33 -49t-12 -19q-2 -9 -1.5 -29.5t2.5 -44.5q-1 0 -6.5 1.5t-11.5 2.5t-11.5 2.5t-6.5 1.5l1 -1q-18 3 -37.5 5.5t-47.5 4.5t-66.5 3.5t-93.5 1.5v-3q-12 -34 -20.5 -65t-14.5 -60q-2 -9 -3.5 -14.5t-3.5 -10.5q0 -1 -1 -4q43 0 74 0.5t53 1.5t36.5 2
t26.5 2h26h13.5t19.5 0.5t18 0.5h9q-23 -34 -33 -48.5t-12 -19.5q0 -7 2 -21.5t7 -34.5h-42q-7 0 -11.5 0.5t-6.5 0.5t-4.5 0.5t-4.5 0.5q-12 1 -24.5 2t-33.5 1.5t-54 1t-86 0.5q-1 -2 -1 -4.5t-1 -4.5q-4 -14 -8 -27.5t-7 -27.5q-5 -20 -9 -40.5t-9 -40.5
q-2 -11 -4.5 -21.5t-4.5 -21.5q-1 -2 -1 -4q103 2 179.5 7t130.5 12q-26 -38 -37.5 -55t-12.5 -20q-3 -9 -2 -25t3 -38q-24 1 -54 2.5t-61.5 2.5t-61.5 1.5t-54 0.5t-56 -0.5t-66 -1.5t-66.5 -2.5t-57.5 -2.5q27 76 44 130.5t29 97.5zM568 479q-29 -29 -56.5 -55t-57.5 -54
q-9 -8 -12 -11t-5 -5.5t-5.5 -5.5t-13.5 -12q25 0 53.5 -1t59.5 -2z" />
    <glyph glyph-name="Ccedilla" unicode="&#xc7;" horiz-adv-x="777" 
d="M297 -8q-117 25 -186.5 94t-69.5 178q0 21 3 42t8 43q21 83 70 148t119.5 109.5t158.5 68t187 23.5q77 0 155 -18.5t143 -45.5q-17 -18 -28 -30.5t-18 -21.5t-11 -16t-7 -13q-2 -2 -2.5 -4t-2.5 -4t-3.5 -5.5t-3.5 -7.5q-2 -2 -3.5 -5t-3.5 -6q-3 -4 -5 -7l-43 -2
q-9 10 -24.5 23.5t-38 26t-50.5 21t-62 8.5q-60 0 -115.5 -15t-101 -47t-79.5 -81t-51 -116q-5 -20 -7.5 -40t-2.5 -38q0 -42 15.5 -72.5t44 -51t68 -30t86.5 -9.5q34 0 70 9t69 21.5t61.5 27t49.5 25.5l41 -41l-38 -88q-12 -7 -33 -15t-48 -16.5t-59.5 -15t-68.5 -10.5
q44 -30 31 -90q-7 -25 -25 -44.5t-43.5 -32.5t-56 -20t-62.5 -7q-19 0 -40 3.5t-42 8.5t-40.5 10.5t-35.5 10.5l72 90q9 -3 20 -6.5t24 -5.5l-29 29zM370 -89q0 -1 -1 -1z" />
    <glyph glyph-name="Egrave" unicode="&#xc8;" horiz-adv-x="491" 
d="M26 429q11 50 22 108.5t22 110.5q1 6 3.5 20t4.5 21l103.5 -4.5t106.5 -2.5l-105 62q-9 6 -19 12.5t-17 16.5t-10 23t2 31q3 13 12 23t21 17.5t24 11.5t21 4q22 0 39.5 -9.5t31.5 -23.5l163 -166q33 2 64 2.5t54 2.5q-4 -9 -9.5 -20.5t-11 -22.5t-9 -19t-4.5 -9
q-2 -8 -3 -24.5t-1 -37.5q-4 0 -12.5 1t-18 1.5t-18.5 1.5t-15 1q-9 1 -16.5 1.5t-12.5 0.5q-3 0 -6.5 0.5t-6.5 0.5q-21 2 -40.5 3.5t-42 2t-49.5 1t-63 0.5q-2 -6 -3 -12.5t-3 -11.5q-5 -15 -9.5 -30t-8.5 -32q-9 -32 -15 -60l1 1q-1 -5 -1.5 -6.5l-0.5 -1.5v-1t-1 -5
q43 0 85 1.5t79.5 4t69 4.5t53.5 4q-10 -25 -15.5 -36.5t-8.5 -19.5v1q-5 -9 -7 -15t-4 -10v-4q0 -1 -0.5 -2t-0.5 -3q0 -5 -0.5 -11.5t-0.5 -11.5v-25q-35 3 -74 5.5t-76.5 4t-71 2.5t-57.5 1q-1 -3 -1.5 -5t-0.5 -6q-4 -14 -10 -36.5t-14 -54.5l1 1q-1 -4 -2.5 -9t-2.5 -8
q-5 -21 -8 -32t-4.5 -17.5t-2.5 -11t-2 -11.5q69 0 151 3.5t171 17.5q-6 -14 -12.5 -27t-11.5 -24t-8 -18t-3 -8q-2 -6 -2 -8.5v-3.5q0 -2 -0.5 -3.5t-0.5 -3.5t-0.5 -7t-0.5 -9v-28q-24 1 -54.5 2.5t-62.5 2.5t-63 1.5t-57 0.5q-25 0 -58 -0.5t-67.5 -1.5t-68 -2.5
t-59.5 -2.5q9 30 20.5 66.5t22.5 75t21.5 74.5t17.5 65z" />
    <glyph glyph-name="Eacute" unicode="&#xc9;" horiz-adv-x="491" 
d="M16 429q13 52 24 110.5t21 112.5q1 6 3.5 19t3.5 18q20 -1 42 -2t45 -2l252 170l-1 -1q17 13 37.5 21t39.5 8q12 0 25.5 -5t24 -14.5t15.5 -23.5t1 -32q-4 -13 -12.5 -23t-18.5 -18t-21 -14.5t-20 -10.5h1q-6 -3 -12.5 -5.5t-12.5 -5.5q-26 -12 -53 -24t-54 -25
q26 0 55 1t57.5 2t54.5 2t46 2q-4 -9 -9.5 -20.5t-11 -22.5t-9 -19t-4.5 -9q-2 -8 -3 -24.5t-1 -37.5q-4 0 -12 1t-17.5 1.5t-18 1.5t-14.5 1q-10 1 -17.5 1.5t-13.5 0.5q-3 0 -6.5 0.5t-6.5 0.5q-21 2 -40.5 3t-42 2t-49.5 1.5t-63 0.5q-2 -4 -2 -9.5t-2 -9.5
q-5 -14 -10 -30.5t-9 -33.5q-1 -2 -1 -3t-1 -3l2 4q-2 -7 -3.5 -14t-3.5 -14q-2 -10 -3.5 -15.5t-3 -10t-2.5 -9t-3 -11.5q42 1 84.5 2.5t82 4t72.5 4.5t55 4q-10 -17 -19 -35l-11 -22q-3 -8 -6 -15t-5 -10v-3q0 -1 -0.5 -2t-0.5 -3q0 -5 -0.5 -11.5t-0.5 -11.5v-25
q-35 3 -74 5.5t-76.5 4t-71 2.5t-57.5 1q-1 -3 -1.5 -5t-0.5 -6q-4 -14 -10 -36.5t-14 -54.5q-6 -25 -9.5 -39l-5.5 -22t-3.5 -13.5t-2.5 -13.5q68 0 149.5 3.5t169.5 17.5q-8 -23 -14 -37t-9 -19v1q-9 -21 -11 -29v-5q0 -2 -0.5 -3.5t-0.5 -3.5v-44q-25 1 -55.5 2.5
t-62.5 2.5t-63 1.5t-56 0.5q-26 0 -59 -0.5t-67.5 -1.5t-68 -2.5t-59.5 -2.5q9 30 20.5 66.5t22.5 75t21.5 74.5t17.5 65z" />
    <glyph glyph-name="Ecircumflex" unicode="&#xca;" horiz-adv-x="498" 
d="M26 429q11 50 22 108.5t22 110.5q0 1 0.5 2.5t0.5 3.5h-29l34 29q1 2 1 3t1 3h4l220 188h109l128 -190q8 1 15.5 1t14.5 1q-3 -6 -6 -13t-7 -15l5 -7h-9q-7 -14 -11.5 -24t-5.5 -12q-2 -8 -3 -24.5t-1 -37.5q-4 0 -12 1t-17.5 1.5t-18 1.5t-14.5 1q-10 1 -17.5 1.5
t-13.5 0.5q-3 0 -6.5 0.5t-6.5 0.5q-21 2 -40.5 3.5t-41.5 2t-49 1t-63 0.5q-2 -7 -3.5 -13t-3.5 -11q-10 -29 -18 -62q-9 -32 -15 -60l1 1q-1 -5 -1.5 -6.5l-0.5 -1.5v-1t-1 -5q43 0 86 2t82 4t71.5 4.5t55.5 4.5q-7 -10 -12 -17t-8.5 -12t-2.5 -4q-3 -7 -7 -16t-5 -10
q-2 -3 -2.5 -7t-2.5 -8t-3 -8q-1 -2 -0.5 -2t0.5 -1t-0.5 -2t-0.5 -3q0 -5 -0.5 -11.5t-0.5 -11.5v-25q-35 4 -74 6t-76 3.5t-70.5 2.5t-58.5 1q-2 -10 -6 -24t-9 -36l1 1q-2 -5 -4 -14.5t-5 -20.5q-1 -2 -1.5 -4.5t-1.5 -4.5v1l-9.5 -38t-6 -22.5t-3.5 -14.5t-2 -13
q70 0 152.5 3.5t171.5 17.5q-23 -45 -30.5 -60t-7 -14.5t5 10t6.5 12.5q-6 -11 -8.5 -19.5t-4.5 -11.5l1 1q-2 -6 -2.5 -22t-0.5 -36q-24 1 -54.5 2.5t-62.5 2.5t-63.5 1.5t-56.5 0.5q-26 0 -59 -0.5t-67.5 -1.5t-67.5 -2.5t-59 -2.5q9 30 20.5 66.5t22.5 75t21 74.5t18 65z
M308 682h43.5t51.5 1l-67 57q-12 -8 -26 -16t-26 -15q-23 -15 -44 -26q18 -1 35 -1h33z" />
    <glyph glyph-name="Edieresis" unicode="&#xcb;" horiz-adv-x="497" 
d="M358 770q7 30 36 51.5t66 21.5q42 0 65.5 -27t15.5 -65q-5 -21 -23.5 -39t-41.5 -26q29 1 55.5 2t46.5 2q-15 -26 -22.5 -40t-11.5 -20.5t-4 -8v-2.5q-2 -7 -2.5 -19t3.5 -44q-5 0 -14 1t-19.5 1.5t-20.5 1.5t-16 1q-9 1 -16.5 1.5t-12.5 0.5q-3 0 -6.5 0.5t-6.5 0.5
q-20 2 -39.5 3.5t-42 2t-49.5 1t-62 0.5q-1 -5 -2.5 -11t-3.5 -10v1q-1 -3 -2.5 -7t-2.5 -7q-5 -13 -7.5 -24.5t-7.5 -27.5q-5 -14 -7.5 -27.5t-4.5 -26.5q1 14 -3 14q-2 0 -5 -2l-1 -31h5q-2 -3 -2.5 -7t-1.5 -7q1 5 2 8l2 6q42 1 83.5 2.5t78.5 4t68.5 4.5t54.5 4
q-2 -3 -4.5 -9.5t-5.5 -13.5t-6 -13.5t-4 -9.5q-5 -10 -5 -14l-4 -12t-4 -11q0 -6 -0.5 -18.5t-0.5 -36.5q-35 3 -74 5.5t-77 4t-72 2.5t-58 1q-1 -3 -1 -8q-2 -9 -5 -22t-8 -30l1 1q-2 -5 -3.5 -14.5t-5.5 -20.5q-1 -2 -1.5 -4.5t-1.5 -4.5v1l-9.5 -38t-5.5 -22.5
t-3.5 -14.5t-2.5 -13q70 0 149.5 3t170.5 15q-2 -3 -5.5 -11.5t-8 -18t-8.5 -17.5t-5 -11q-2 -7 -4.5 -12.5t-2.5 -8.5q-2 -6 -2.5 -22t-0.5 -36q-24 1 -54.5 2.5t-62.5 2.5t-63 1.5t-56 0.5q-26 0 -59 -0.5t-67.5 -1.5t-68 -2.5t-58.5 -2.5l25 85q2 6 3.5 13t3.5 15
q13 43 25 84.5t23 83.5l39 155q10 41 19.5 88t17.5 92q4 17 8 41t7 39q22 -2 46.5 -2.5t50.5 -1.5q-26 10 -38.5 32.5t-6.5 51.5l1 1q8 30 37.5 51.5t65.5 21.5q20 0 36.5 -7.5t28 -20t16 -29.5t1.5 -35q-8 -22 -29.5 -41t-47.5 -27q19 -1 36 -1h33h41.5t49.5 1
q-27 9 -40.5 32.5t-5.5 54.5zM197 427q0 -3 -1 -6.5t-2 -8.5q1 4 3 14v1v0zM197 427q1 2 0.5 2t0.5 2q0 -2 -1 -4z" />
    <glyph glyph-name="Igrave" unicode="&#xcc;" horiz-adv-x="310" 
d="M116 428q13 51 24 109.5t21 112.5q2 6 4.5 21.5t4.5 20.5q21 -3 37.5 -5.5t29.5 -3.5l-104 61q-10 6 -20 13t-17.5 16.5t-10.5 22.5t2 31q3 13 12.5 23t21 17.5t24 11.5t21.5 4q21 0 39 -9.5t32 -23.5l193 -196h-81l-2 -6q-4 -10 -6.5 -20.5t-4.5 -14.5v1
q-15 -51 -30 -102.5t-28 -102.5q-8 -35 -19 -77.5t-20 -77.5q-10 -38 -17.5 -76.5t-15.5 -76.5q-2 -10 -3.5 -19t-3.5 -20l-3 -15t-4 -21t-4 -21l-3 -15q-29 5 -50.5 7.5t-32.5 2.5q-13 0 -42 -3.5t-67 -8.5q9 29 21 66.5t24 76.5t22.5 76t17.5 66z" />
    <glyph glyph-name="Iacute" unicode="&#xcd;" horiz-adv-x="310" 
d="M277 854l-1 -1q17 14 38 22t39 8q12 0 25 -5t23.5 -14.5t15 -23.5t0.5 -32q-7 -26 -29 -41.5t-42 -24.5q-26 -12 -55.5 -25t-58.5 -26q9 1 19.5 2t21.5 3q0 -1 -2.5 -7.5t-5 -14.5t-4.5 -15.5t-3 -10.5q-4 -10 -7 -20.5t-5 -14.5v1q-15 -51 -29.5 -102.5t-28.5 -102.5
q-8 -35 -19 -77.5t-19 -77.5q-12 -48 -22 -96t-19 -97q-2 -5 -3.5 -13.5t-3.5 -18.5h1q-2 -6 -4 -20.5t-3 -18.5q-29 5 -50.5 7.5t-32.5 2.5q-13 0 -41.5 -3.5t-66.5 -8.5q9 29 20.5 66.5t23.5 76.5t22.5 76t17.5 66l38 155q13 51 23.5 109.5t20.5 112.5q0 2 1 4h-94z" />
    <glyph glyph-name="Icircumflex" unicode="&#xce;" horiz-adv-x="413" 
d="M367 678q-3 -8 -5.5 -16t-3.5 -11q-3 -11 -6.5 -22.5t-5.5 -15.5v1q-2 -7 -3.5 -13.5t-3.5 -13.5q-14 -43 -27 -89.5t-25 -88.5q-8 -35 -18.5 -77.5t-18.5 -77.5q-8 -29 -15.5 -62.5t-14.5 -69t-13.5 -69.5t-11.5 -63q-30 5 -51.5 7.5t-32.5 2.5t-39 -3.5t-66 -8.5
q1 4 4.5 16t7.5 26t7.5 26t4.5 16v-1q2 8 5 16t5 16q13 43 25 85.5t23 84.5l39 155q6 25 13 55.5t13 62.5t12 63.5t11 59.5q-7 -5 -12.5 -8.5t-11.5 -6.5h-151l261 223h108l150 -223h-124zM264 682q11 0 34 2.5t54 6.5l-57 49q-12 -8 -26 -16t-26 -15q-8 -5 -17.5 -10.5
t-17.5 -10.5q39 -6 56 -6z" />
    <glyph glyph-name="Idieresis" unicode="&#xcf;" horiz-adv-x="392" 
d="M304 770q8 30 38 51.5t65 21.5q22 0 39 -7t28 -19.5t14.5 -29.5t-0.5 -36q-8 -30 -38 -51.5t-65 -21.5q-15 0 -25 3q-9 -29 -20 -65t-22 -73t-21 -72t-17 -62q-8 -35 -19 -77.5t-20 -77.5q-11 -46 -21 -99t-20 -104q-1 -6 -3 -14t-3.5 -17t-3.5 -17t-3 -13q-29 5 -50 7.5
t-32 2.5t-31.5 -2.5t-46.5 -6.5l-21 23q2 6 4.5 16t4.5 16t4 12.5t3 8.5q2 7 3.5 14t3.5 14q14 43 27 89.5t25 88.5l38 155q12 48 21.5 95.5t18.5 96.5q2 5 4 14t4 19h-1q1 3 1.5 10.5t2.5 14.5h-6q-21 0 -38 7t-28 19.5t-15 29.5t1 36q8 30 37 51.5t65 21.5q42 0 66 -27
t16 -65q-6 -20 -22.5 -37.5t-39.5 -26.5q17 -2 29.5 -3.5t20.5 -1.5q10 0 30.5 2.5t48.5 6.5q-20 11 -29 31.5t-3 46.5zM6 14q-2 -5 -2.5 -6.5t1.5 6.5h1v0z" />
    <glyph glyph-name="Eth" unicode="&#xd0;" horiz-adv-x="960" 
d="M50 437q26 -2 59 -3t59 -1q11 44 20.5 93.5t18.5 96.5q2 13 6.5 33.5t6.5 32.5q21 -1 46.5 -2.5t52.5 -2.5t52.5 -1.5t46.5 -0.5q20 0 38.5 0.5t39.5 1.5h7q7 0 13 0.5t13 0.5q14 1 30.5 1.5t30.5 0.5q90 0 155 -16.5t107 -47.5t61.5 -76t19.5 -103q0 -23 -3.5 -47
t-10.5 -53q-25 -97 -83 -163.5t-132 -108t-155.5 -59.5t-152.5 -18q-19 0 -38.5 0.5t-37.5 1.5q-5 0 -12.5 0.5t-12.5 0.5q-12 1 -23 1.5t-24 0.5q-19 0 -46 -1t-55.5 -2.5t-55.5 -3t-46 -2.5q1 4 4 13t6 19t5.5 18.5t4.5 13.5q7 25 16 54t17.5 58t16 56t13.5 50
q1 3 1.5 6.5t1.5 5.5v-1q2 9 3.5 12.5t2 6.5t2 7.5t3.5 15.5q-29 -1 -62.5 -1.5t-57.5 -2.5q9 22 17.5 41.5t8.5 24.5q2 8 2 49zM291 254q-6 -24 -10.5 -41.5t-8.5 -33.5t-7 -33t-7 -40q22 -2 48 -3t53 -1q55 0 112.5 13.5t109.5 44t93.5 80.5t64.5 123q10 40 10 78
q0 39 -17 65t-47 41.5t-72 21.5t-92 6q-39 0 -77.5 -2t-70.5 -4q-11 -36 -20 -65.5t-19 -70.5q28 0 61 0.5t66 1.5t63 1.5t51 1.5q-24 -35 -34 -51t-12 -20q1 -1 2 -3t1 -3.5t1 -4.5q0 -3 0.5 -17t0.5 -17q-52 2 -111.5 3t-113.5 1z" />
    <glyph glyph-name="Ntilde" unicode="&#xd1;" horiz-adv-x="810" 
d="M590 -16q-85 103 -186 215t-199 218q-8 8 -13 14t-10 11q-6 -23 -14 -52.5t-16 -65.5q-7 -30 -17.5 -78t-20.5 -97.5t-18.5 -94t-11.5 -67.5q-23 5 -41 8.5t-26 4.5q1 0 -4 -1t-13 -2t-17.5 -2.5t-17.5 -2.5q-3 0 -11 -1t-17 -2t-16.5 -2t-10.5 -1q8 16 20 47.5t25.5 71
t28.5 84.5t29 89t25.5 83.5t18.5 68.5q10 43 20 84.5t18 77.5t13.5 63.5l8.5 42.5h66q13 -14 29 -32t30 -33q98 -110 188 -210.5t162 -173.5q13 55 27.5 115t27.5 118.5t24 113t19 99.5q24 -5 43 -9t24 -4q3 0 13.5 2t26.5 5q3 0 10.5 1t16.5 2.5t17 2.5t11 1
q-12 -30 -29 -80t-34 -103t-31 -100t-20 -72q-6 -23 -14 -55.5t-16.5 -68.5t-17.5 -73t-16.5 -69.5t-13 -56.5t-7.5 -34h-63zM254 676q12 28 31.5 57.5t45 53.5t55.5 39.5t63 15.5q12 0 21.5 -1t19.5 -4t22 -7.5t29 -11.5q23 -10 33.5 -13.5t20.5 -3.5q15 0 29 14t25 31h108
q-8 -19 -25 -48t-42.5 -56t-59 -46.5t-74.5 -19.5q-35 0 -91 25q-21 9 -32 13t-20 4q-14 0 -24 -9t-26 -33h-109z" />
    <glyph glyph-name="Ograve" unicode="&#xd2;" horiz-adv-x="981" 
d="M13 350q19 78 63.5 140t108.5 106t144.5 69.5t170.5 30.5q-20 12 -39.5 24t-38.5 24q-11 6 -21 13t-17.5 17t-10.5 22.5t1 30.5q4 14 13.5 24.5t21 17.5t23.5 10.5t22 3.5q20 0 39 -9.5t32 -24.5l-1 1l38 -38t43 -44q15 -16 39 -40.5t45 -44.5q115 -26 179 -93t64 -172
q0 -20 -2.5 -41t-8.5 -45q-21 -83 -70 -147.5t-119.5 -109t-158 -68t-186.5 -23.5q-89 0 -160 18.5t-121 54t-77 87.5t-27 119q0 20 2 42t9 45zM740 350q11 42 11 79q0 42 -15.5 72.5t-44 50.5t-67.5 29.5t-86 9.5q-60 0 -115 -15t-100.5 -47t-79.5 -81t-50 -116
q-11 -41 -11 -78q0 -42 16 -72.5t44 -51t67 -30t85 -9.5q60 0 115 15t100.5 47t79.5 80.5t51 116.5z" />
    <glyph glyph-name="Oacute" unicode="&#xd3;" horiz-adv-x="981" 
d="M9 350q18 63 54 117.5t86.5 97.5t113 73t133.5 45l254 172l-1 -1q18 13 37.5 21t39.5 8q12 0 25.5 -5.5t24 -15t15 -23.5t-0.5 -32v1q-8 -26 -29 -41t-41 -25l-104 -48q72 -8 130 -29.5t98.5 -56t62 -82.5t21.5 -108q0 -20 -2.5 -41t-8.5 -45q-21 -83 -70 -147.5
t-119.5 -109t-158 -68t-186.5 -23.5q-89 0 -160 18.5t-121 54t-77 87.5t-27 119q0 20 2 42t9 45zM736 350q11 42 11 79q0 42 -15.5 72.5t-44 50.5t-67.5 29.5t-86 9.5q-60 0 -115 -15t-100.5 -47t-79.5 -81t-50 -116q-11 -41 -11 -78q0 -42 16 -72.5t44 -51t67 -30t85 -9.5
q60 0 115 15t100.5 47t79.5 80.5t51 116.5z" />
    <glyph glyph-name="Ocircumflex" unicode="&#xd4;" horiz-adv-x="985" 
d="M14 350q26 109 100 185.5t181 118.5h-15l262 223h108l149 -223h-19q74 -35 113.5 -94t39.5 -142q0 -20 -2.5 -41t-8.5 -45q-21 -83 -70 -147.5t-119.5 -109t-158.5 -68t-187 -23.5q-89 0 -160 18.5t-121 54t-77 87.5t-27 119q0 20 2.5 42t9.5 45zM741 350q11 42 11 79
q0 42 -15.5 72.5t-44 50.5t-67.5 29.5t-86 9.5q-60 0 -115 -15t-100.5 -47t-79.5 -81t-50 -116q-11 -41 -11 -78q0 -42 15.5 -72.5t44 -51t67 -30t85.5 -9.5q60 0 115 15t100.5 47t79.5 80.5t51 116.5zM546 698q22 0 41.5 -1.5t39.5 -3.5l-54 47q-12 -8 -23.5 -14.5
t-22.5 -14.5q-11 -5 -26 -15q11 1 22.5 1.5t22.5 0.5z" />
    <glyph glyph-name="Otilde" unicode="&#xd5;" horiz-adv-x="985" 
d="M17 350q16 62 48.5 114.5t78 94t103 71t123.5 46.5h-47q13 28 32.5 57.5t44.5 53.5t55 39.5t64 15.5q12 0 21.5 -1t20 -4t22 -7.5t28.5 -11.5q23 -10 33.5 -13.5t20.5 -3.5q15 0 29 14t25 31h108q-7 -16 -19.5 -38.5t-31.5 -46t-43 -44t-53 -31.5q121 -23 189 -91
t68 -176q0 -20 -2 -42t-9 -45q-23 -81 -72.5 -145.5t-119.5 -109.5t-157.5 -69t-184.5 -24q-89 0 -160 18.5t-121.5 54t-77.5 87.5t-27 120q0 44 10 85zM745 350q11 42 11 79q0 42 -15.5 72.5t-44 50.5t-67.5 29.5t-86 9.5q-60 0 -115 -15t-100.5 -47t-79.5 -81t-50 -116
q-11 -41 -11 -78q0 -42 15.5 -73t44 -51t67 -29.5t85.5 -9.5q60 0 115 15t101 47t79.5 80.5t50.5 116.5zM442 691q24 3 49 4.5t51 2.5q-2 1 -3.5 1.5t-3.5 1.5h1q-21 9 -32.5 13t-20.5 4q-12 0 -20.5 -6.5t-20.5 -20.5z" />
    <glyph glyph-name="Odieresis" unicode="&#xd6;" horiz-adv-x="985" 
d="M594 770q8 30 38.5 51.5t65.5 21.5q44 0 66.5 -27t13.5 -65q-6 -24 -27.5 -43t-48.5 -27q111 -26 173 -92.5t62 -169.5q0 -20 -2 -42t-9 -45q-22 -81 -71.5 -145.5t-120 -109.5t-158 -69t-184.5 -24q-89 0 -160.5 18.5t-121.5 54.5t-77 88t-27 120q0 43 10 84l1 1
q17 68 53.5 123.5t88.5 98.5t117 71.5t139 42.5q-25 11 -36.5 33t-3.5 51q7 30 36.5 51.5t66.5 21.5q42 0 65 -27t15 -65q-10 -34 -42 -54q9 0 18 0.5t17 0.5q36 0 69 -3q-17 12 -25 31.5t-2 42.5zM745 350q11 42 11 79q0 42 -16 72.5t-44 50.5t-67.5 29.5t-85.5 9.5
q-58 0 -112.5 -16.5t-100 -49t-80 -81t-52.5 -112.5q-11 -41 -11 -78q0 -42 15.5 -73t44 -51t67 -29.5t85.5 -9.5q60 0 115 15t101 47t79.5 80.5t50.5 116.5z" />
    <glyph glyph-name="multiply" unicode="&#xd7;" horiz-adv-x="628" 
d="M215 270q-17 17 -33.5 33t-33.5 35q-11 10 -23.5 23t-26 26.5t-26 25.5t-21.5 21l110 75l164 -165l44 28t43 29q38 25 81.5 54.5t79.5 53.5l86 -86l-245 -168l163 -162l-110 -75l-165 165q-14 -10 -28.5 -19t-28.5 -19q-22 -15 -47 -31.5t-50 -33.5t-49.5 -33t-45.5 -30
l-83 89z" />
    <glyph glyph-name="Oslash" unicode="&#xd8;" horiz-adv-x="997" 
d="M42 341q21 85 71.5 151.5t122 112.5t161 69.5t190.5 23.5q75 0 138.5 -14.5t111.5 -40.5q14 12 32.5 27t36.5 30t33.5 29t24.5 23q11 -20 38 -41.5t57 -36.5q-48 -23 -86.5 -46.5t-64.5 -41.5q37 -46 51 -108.5t-4 -136.5q-21 -85 -71.5 -151.5t-122 -112t-161.5 -69.5
t-191 -24q-75 0 -137 13.5t-109 40.5q-29 -22 -66 -52t-67 -59q-12 23 -36 41t-53 32q16 10 36 22t39.5 24.5t38 25t33.5 23.5q-39 45 -52.5 106.5t6.5 139.5zM715 554q-58 37 -155 37q-58 0 -111 -14.5t-97 -45.5t-76.5 -78t-48.5 -112q-11 -43 -10.5 -80t10.5 -64z
M284 127q29 -19 67.5 -27.5t84.5 -8.5q58 0 111.5 14.5t98 45.5t77 78t48.5 112q11 44 10 79.5t-10 63.5z" />
    <glyph glyph-name="Ugrave" unicode="&#xd9;" horiz-adv-x="791" 
d="M604 368q15 62 27 110t20 86.5t13.5 69.5t7.5 60q27 -5 48 -8.5t30 -3.5q5 0 19 2.5t31 6.5q2 0 9 2t14.5 4.5l13.5 4.5t7 2q-11 -31 -29 -84.5t-37.5 -115t-39 -123.5t-32.5 -111q-18 -65 -55 -117.5t-90 -90t-121.5 -58t-150.5 -20.5q-157 0 -230.5 50.5t-73.5 158.5
q0 20 3 44t11 50l-1 -2q4 20 10.5 42.5t13.5 44.5q1 2 0.5 2.5t0.5 1.5q3 11 7 20.5t6 23.5q15 60 26.5 113.5t19.5 91.5q1 5 2.5 15t3.5 20.5t3.5 19.5t2.5 13q30 -5 53.5 -8t34.5 -3q10 0 38 4t70 11q-13 -33 -28 -76.5t-30.5 -91.5t-29.5 -98t-26 -97q-8 -30 -14.5 -61.5
t-6.5 -63.5q0 -23 7 -43t26 -35t50.5 -23.5t81.5 -8.5q81 0 132.5 28t82 69t45.5 87.5t24 84.5zM334 744q-11 6 -21 13t-17.5 17t-10.5 22.5t1 30.5q4 14 13.5 24.5t21 17.5t23.5 10.5t22 3.5q20 0 39 -9.5t32 -24.5l-1 1q17 -17 37.5 -38t42.5 -44q11 -11 27 -27.5
t32.5 -33t31.5 -31t23 -22.5h-144z" />
    <glyph glyph-name="Uacute" unicode="&#xda;" horiz-adv-x="790" 
d="M597 368q15 62 27 110t20 86.5t13.5 69.5t7.5 60q27 -5 48 -8.5t30 -3.5q5 0 19 2.5t31 6.5q2 0 9 2t14.5 4.5l13.5 4.5t7 2q-11 -31 -29 -84.5t-37.5 -115t-39 -123.5t-32.5 -111q-18 -65 -55 -117.5t-90 -90t-121.5 -58t-150.5 -20.5q-157 0 -230.5 50.5t-73.5 158.5
q0 20 3 44t11 50v-1q4 17 9 36t10 35l2 8v-1q1 3 2 6.5t2 5.5q4 11 7 22.5t7 28.5q14 54 23.5 99.5t16.5 82.5q1 5 2 8t2 7t2.5 14t3.5 21t3.5 20.5t2.5 13.5q30 -5 53.5 -8t34.5 -3q10 0 38 4t70 11q-4 -9 -7 -18t-8 -20l291 196l-1 -1q18 13 37.5 21t39.5 8
q12 0 25.5 -5.5t24 -15t15 -23.5t-0.5 -32v1q-7 -27 -28.5 -41.5t-41.5 -24.5l-194 -88h-169q-12 -34 -25 -73t-26 -81t-24.5 -84t-21.5 -82q-8 -30 -14.5 -61.5t-6.5 -63.5q0 -23 7 -43t26 -35t50.5 -23.5t81.5 -8.5q81 0 132.5 28t82 69t45.5 87.5t24 84.5z" />
    <glyph glyph-name="Ucircumflex" unicode="&#xdb;" horiz-adv-x="795" 
d="M560 877l123 -186q23 -4 40.5 -6.5t25.5 -2.5q4 0 19.5 3t35.5 6h6.5t12 0.5t12 0.5h6.5q-14 -37 -32 -90t-36.5 -110.5t-36 -115.5t-30.5 -106q-18 -65 -55 -117.5t-90.5 -90t-122 -58t-150.5 -20.5q-157 0 -230.5 50.5t-73.5 158.5q0 20 3.5 44t11.5 50l-1 -2
q4 20 10.5 42.5t13.5 44.5q1 2 0.5 2t0.5 2q3 10 6.5 19.5t6.5 30.5q16 64 27.5 117.5t19.5 92.5q1 4 2.5 9t2.5 10q0 3 1.5 8.5t3.5 11.5t3.5 11t1.5 6q28 -5 50.5 -7.5t32.5 -2.5q8 0 20 1.5l28 3.5l224 190h107zM484 740q-12 -8 -26 -16t-26 -15q-22 -14 -46 -27.5
t-45 -27.5h-68q-11 -29 -23.5 -66.5t-25 -79.5t-25.5 -87t-23 -87q-8 -30 -14.5 -61.5t-6.5 -63.5q0 -23 7 -43t26 -35t50.5 -23.5t81.5 -8.5q79 0 130 27.5t82 68.5t47 88t25 85q21 87 37.5 159.5t24.5 126.5h-80z" />
    <glyph glyph-name="Udieresis" unicode="&#xdc;" horiz-adv-x="796" 
d="M608 368q16 62 27.5 110t20 86.5t13 69.5t5.5 60q28 -5 49.5 -8.5t30.5 -3.5q7 0 32 5.5t61 13.5q-14 -39 -32.5 -93.5t-37 -114t-36.5 -118.5t-30 -105q-18 -65 -55 -117.5t-90.5 -90t-122 -58t-150.5 -20.5q-157 0 -230.5 50.5t-73.5 158.5q0 20 3 43t11 49l-1 -1
q8 37 18 65v-1q2 6 3 11t3 11q5 15 9.5 29t7.5 29q9 36 17.5 74.5t16 74t13.5 66t9 49.5q29 -5 52.5 -7.5t34.5 -2.5q8 0 37.5 5t69.5 11q-12 -33 -26.5 -76t-29.5 -91.5t-29.5 -99t-26.5 -97.5q-8 -29 -14.5 -61.5t-6.5 -63.5q0 -23 7 -43t26 -35t50.5 -23.5t81.5 -8.5
q81 0 132 28t81.5 69t45.5 87.5t24 84.5zM286 770q7 30 36.5 51.5t65.5 21.5q43 0 66 -27t15 -65q-4 -15 -14 -28.5t-24.5 -23t-31 -15.5t-33.5 -6q-22 0 -39 7t-27.5 19.5t-14.5 29.5t1 36zM505 770q4 15 14 28.5t24 23t31 15.5t35 6q21 0 37 -7.5t27 -20t15 -29.5t1 -35
q-5 -14 -15.5 -27t-24.5 -23t-30 -16.5t-33 -6.5q-42 0 -66 26.5t-16 64.5z" />
    <glyph glyph-name="Yacute" unicode="&#xdd;" horiz-adv-x="724" 
d="M169 17q25 66 44 133.5t34 132.5q-9 19 -24.5 51t-35 71t-41 81.5t-42 82t-38.5 73t-30 54.5q48 -6 82.5 -10t46.5 -4t35.5 2.5t52.5 6.5q2 -7 4.5 -13t4.5 -13l269 181q17 11 38 19.5t39 8.5q12 0 25 -5t23 -14.5t15 -23.5t1 -32q-3 -14 -11 -24.5t-18 -18t-21.5 -13.5
t-21.5 -10q-46 -21 -95.5 -43.5t-96.5 -44.5h-138q24 -63 48.5 -121.5t55.5 -121.5q66 64 135.5 141t129.5 148q20 -4 33.5 -6.5t21.5 -2.5q7 0 29 3.5t54 8.5l80 14q-81 -76 -151.5 -143t-127.5 -121.5t-99 -96.5t-66 -69q-7 -31 -15.5 -67.5t-16.5 -75t-15 -75.5t-11 -70
q-31 5 -52.5 7.5t-32.5 2.5q-10 0 -31 -2.5t-50 -6.5z" />
    <glyph glyph-name="Thorn" unicode="&#xde;" horiz-adv-x="582" 
d="M59 428q12 48 23 103t21 108q2 9 5 27t5 26q31 -5 52 -7.5t31 -2.5q14 0 43.5 3.5t67.5 8.5l-22 -63l-6 -16t-5 -14q-3 -7 -4 -9l-2 -4t-2.5 -5.5t-3.5 -13.5h90q115 0 179.5 -36.5t64.5 -116.5q0 -11 -1 -23t-5 -26v1q-15 -56 -52 -93.5t-86 -60.5t-105 -33t-110 -10
h-24h-16t-14.5 0.5t-19.5 1.5q-2 -5 -3 -9.5t-3 -9.5v-1q-8 -38 -15.5 -79.5t-3.5 -85.5q-35 5 -60 8.5t-32 3.5q-10 0 -39 -3.5t-69 -8.5q9 29 20 66.5t22.5 76.5t22 76t17.5 66zM188 278h41q31 0 61.5 6t56 19t44 33.5t25.5 48.5q1 4 1.5 8.5t0.5 10.5q0 23 -24.5 41
t-87.5 18h-71z" />
    <glyph glyph-name="germandbls" unicode="&#xdf;" horiz-adv-x="620" 
d="M40 409q8 27 11.5 48.5t6.5 35.5l2 10t2 9q0 1 1 1q16 64 51 109t79.5 73.5t93 41t90.5 12.5q31 0 64.5 -10.5t59.5 -29.5t41 -45t10 -57q-7 -26 -20.5 -47t-30.5 -39t-36.5 -33t-37.5 -29q-20 -14 -35.5 -27t-21.5 -23q1 -8 19.5 -21.5t41.5 -26.5q25 -14 49.5 -30.5
t43 -38t26.5 -48.5t0 -62q-9 -34 -37.5 -69t-69.5 -63t-90 -45.5t-98 -17.5q-34 0 -71 10t-72 27q-2 -9 -3 -18t-2 -17q-28 5 -50 8t-31 3q-5 0 -21.5 -2t-35.5 -5q-3 -1 -10 -2t-14.5 -2t-14.5 -2t-9 -1q13 37 26.5 79t25.5 84t22.5 81t18.5 69zM166 281
q-11 -41 -22.5 -95.5t-22.5 -110.5q24 32 34 58h56q7 -15 28.5 -27t45.5 -12q18 0 36 4.5t33.5 13t26.5 21t14 28.5q3 11 -2.5 22t-17 21.5t-27 20.5t-31.5 19q-21 13 -42 28.5t-36 34t-22.5 39.5t-2.5 46q11 34 39.5 61t63.5 53q34 23 64 49t38 55q4 16 -10 26.5t-43 10.5
q-61 0 -94.5 -41.5t-53.5 -114.5q-6 -26 -13 -52.5t-13 -52.5q-7 -26 -13 -52.5t-13 -52.5z" />
    <glyph glyph-name="agrave" unicode="&#xe0;" horiz-adv-x="569" 
d="M80 442q71 37 123.5 50.5t101.5 13.5q9 0 17.5 -0.5t16.5 -1.5l-145 86v-1q-10 6 -20 12.5t-17.5 16.5t-10.5 23.5t2 31.5q3 13 12.5 23t21 17t24 11t21.5 4q20 0 37 -9t33 -23l193 -196h-124q60 -12 94.5 -47t34.5 -88q0 -8 -1 -18t-5 -21v1q-5 -19 -10 -39.5t-11 -40.5
q-5 -12 -5 -15q-4 -16 -8.5 -33t-9.5 -34q-3 -12 -6 -24.5t-7 -23.5q-1 -2 -1 -3.5t-1 -3.5v1q-2 -8 -2 -13q4 2 17 7t50 19l-17 -111q-1 0 -10 -0.5t-11 -0.5q-20 -5 -44 -10.5t-44 -5.5q-30 0 -51 10t-33 25q-20 -12 -39.5 -20.5t-39.5 -13.5t-42.5 -7.5t-49.5 -2.5
q-32 0 -61.5 8.5t-51.5 24.5t-35 39t-13 52q0 7 1 15t4 18v-1q17 67 73.5 103t143.5 47q51 6 80.5 9.5t45.5 6.5t21 6.5t7 8.5q0 2 0.5 4.5t0.5 4.5q1 5 1.5 9.5t0.5 9.5q0 18 -14.5 30t-49.5 12q-37 0 -74.5 -15.5t-64.5 -44.5h-74zM299 210q-3 -1 -6.5 -1h-5.5
q-26 -3 -52.5 -8t-49.5 -13t-39.5 -20.5t-22.5 -30.5q-5 -19 8 -29.5t32 -10.5q32 0 63 14t52 32z" />
    <glyph glyph-name="aacute" unicode="&#xe1;" horiz-adv-x="565" 
d="M417 701q17 11 37.5 19t37.5 8q12 0 25.5 -5t24 -14t15 -23t0.5 -32q-7 -26 -29.5 -41.5t-41.5 -24.5h1q-29 -14 -61.5 -28t-63.5 -28q-14 -6 -28 -12.5t-28 -13.5q83 -3 130.5 -40.5t47.5 -100.5q0 -8 -1 -18t-5 -21v1q-5 -19 -10 -39.5t-11 -40.5q-3 -5 -4 -14
q-1 -4 -2 -8.5t-2 -7.5q-7 -24 -13.5 -49.5t-13.5 -49.5q-2 -5 -3.5 -10t-1.5 -10q4 2 17.5 7t49.5 19l-16 -104q-2 -1 -8 -3.5t-8 -3.5q-21 -5 -46 -11t-47 -6q-32 0 -52.5 9.5t-32.5 25.5q-20 -12 -39.5 -20.5t-39.5 -13.5t-42.5 -7.5t-49.5 -2.5q-32 0 -61 8.5t-51 24.5
t-35 39t-13 52q0 16 4 33v-1q17 68 74 103.5t143 46.5q55 6 85.5 10t45.5 7.5t18.5 7.5t5.5 9l-1 -1q2 7 3 13.5t1 12.5q0 18 -14 30t-49 12q-38 0 -75.5 -15.5t-64.5 -44.5h-75l25 108q48 24 86 38t72 20h-109zM288 210q-3 -1 -6 -0.5t-5 -0.5q-26 -3 -53 -8t-50 -13
t-39.5 -20.5t-22.5 -30.5q-5 -19 8 -29.5t33 -10.5q31 0 62 14t52 32z" />
    <glyph glyph-name="acircumflex" unicode="&#xe2;" horiz-adv-x="571" 
d="M79 442q36 18 66.5 30.5t57.5 20t52 10.5t50 3q88 0 139 -38t51 -103q0 -8 -1 -18t-5 -21v1q-6 -23 -13 -48.5t-14 -48.5v1q-6 -20 -11.5 -40.5t-10.5 -41.5l-9 -30v1q-3 -9 -3 -22q3 1 17.5 6.5t57.5 22.5l-30 -111q-21 -6 -50.5 -13t-53.5 -7q-29 0 -50 10.5t-34 25.5
q-41 -24 -80 -34.5t-92 -10.5q-32 0 -61 8.5t-51 24.5t-34.5 39t-12.5 52q0 16 4 33v-1q17 67 74 103t143 47q54 6 84.5 10t45.5 7.5t19 7t5 8.5h-1q2 7 3 13.5t1 12.5q0 18 -14 30t-49 12q-38 0 -75 -15.5t-64 -44.5h-75zM345 586q-41 -25 -80 -48q-15 -8 -32.5 -18.5
t-31.5 -19.5h-150l262 224h108l149 -224h-124zM299 211q-2 0 -2.5 -0.5t-2.5 -0.5t-3.5 -0.5t-3.5 -0.5h1q-26 -3 -53 -8.5t-50 -13.5t-40 -20.5t-23 -30.5l1 2q-5 -20 8 -30.5t32 -10.5q31 0 62 14t53 32z" />
    <glyph glyph-name="atilde" unicode="&#xe3;" horiz-adv-x="578" 
d="M88 442q71 37 124 50.5t102 13.5q88 0 138.5 -38t50.5 -103q0 -8 -1 -18t-4 -21v1q-2 -8 -5 -16.5t-5 -18.5l-8 -30t-9 -30q-3 -10 -5.5 -21.5t-5.5 -22.5q-5 -17 -9.5 -35.5t-9.5 -35.5v1q-2 -5 -3 -10t-1 -10q4 1 17.5 6t50.5 20l-20 -106q-23 -7 -53.5 -14.5
t-53.5 -7.5q-30 0 -51.5 10t-33.5 25q-20 -12 -39.5 -20.5t-40 -13.5t-43 -7.5t-49.5 -2.5q-32 0 -61 8.5t-50.5 24.5t-34.5 39t-13 52q0 7 1 15t4 18v-1q17 67 73.5 103t143.5 47q54 6 84.5 10t45.5 7.5t19 7t5 8.5h-1q2 7 3 13.5t1 12.5q0 18 -14.5 30t-49.5 12
q-38 0 -75 -15.5t-64 -44.5h-74zM99 522q13 28 33 58t45.5 54t55.5 39.5t63 15.5q12 0 21.5 -1.5t20 -4.5t22 -7.5t27.5 -11.5q21 -9 32.5 -13t21.5 -4q15 0 29.5 13.5t25.5 30.5h108q-8 -19 -25.5 -47.5t-43 -55.5t-59 -46.5t-74.5 -19.5q-36 0 -91 25h1q-22 10 -33 13.5
t-20 3.5q-14 0 -23.5 -9t-25.5 -33h-111zM308 211q-2 0 -2.5 -0.5t-2.5 -0.5t-4 -0.5t-4 -0.5h1q-26 -3 -52.5 -8t-49.5 -13t-39.5 -20.5t-22.5 -30.5q-5 -19 7.5 -29.5t31.5 -10.5q32 0 62.5 14t52.5 32z" />
    <glyph glyph-name="adieresis" unicode="&#xe4;" horiz-adv-x="577" 
d="M87 442q71 37 123.5 50.5t101.5 13.5q87 0 137.5 -38t50.5 -103q0 -8 -0.5 -18t-4.5 -21v2q-5 -23 -11 -45.5t-13 -46.5q-2 -3 -3 -9q-2 -7 -4.5 -17t-4.5 -17v1q-5 -19 -10 -37.5t-10 -36.5q-5 -12 -5 -22q3 1 17.5 6t59.5 24l-31 -112q-21 -6 -50.5 -13t-53.5 -7
q-29 0 -50.5 10.5t-33.5 25.5q-41 -24 -79.5 -34.5t-92.5 -10.5q-32 0 -61 8.5t-50.5 24.5t-34.5 39t-13 52q0 7 1 15t4 18v-1q16 67 72.5 103t143.5 47q54 6 84 10t45 7.5t19 7t5 8.5q3 13 3 27q0 17 -14 29t-48 12q-38 0 -75.5 -15.5t-63.5 -44.5h-76zM149 616
q4 15 13.5 28.5t23.5 23.5t30.5 16t34.5 6q43 0 66.5 -27.5t15.5 -64.5q-4 -15 -14.5 -28.5t-24.5 -23.5t-30.5 -16t-33.5 -6q-22 0 -39 7t-28 19.5t-15 29.5t1 36zM369 616q4 15 13.5 28.5t23.5 23.5t31 16t35 6q21 0 37.5 -7.5t27.5 -20.5t15.5 -29.5t0.5 -34.5
q-5 -14 -15 -27t-24.5 -23.5t-31 -17t-33.5 -6.5q-44 0 -67 26.5t-14 64.5zM305 210h-2q-2 0 -4.5 -0.5t-4.5 -0.5q-26 -3 -52.5 -8t-50 -13.5t-40 -20.5t-22.5 -30q-4 -19 8.5 -29.5t31.5 -10.5q32 0 63 14t52 32z" />
    <glyph glyph-name="aring" unicode="&#xe5;" horiz-adv-x="571" 
d="M190 623q6 24 22.5 46t39.5 38t51.5 25.5t57.5 9.5q33 0 59 -11t43 -30t24.5 -44t1.5 -53q-11 -35 -41 -64t-72 -43q53 -15 82.5 -49.5t29.5 -82.5q0 -8 -1 -18t-5 -21v1q-5 -19 -10 -39.5t-11 -40.5q-1 -2 -1 -4t-2 -7q-7 -23 -14.5 -50.5t-13.5 -52.5l1 1l-2.5 -7.5
t-2.5 -8.5q-2 -5 -3.5 -10t-1.5 -10q4 2 17 7t50 19l-16 -104q-2 -1 -8 -3.5t-8 -3.5q-21 -5 -46 -11t-48 -6q-31 0 -51.5 9.5t-32.5 25.5q-20 -12 -39.5 -20.5t-39.5 -13.5t-42.5 -7.5t-49.5 -2.5q-32 0 -61 8.5t-51 24.5t-35 39t-13 52q0 16 4 33v-1q17 67 73.5 103
t143.5 47q54 6 84.5 10t45.5 7.5t19 7.5t6 9l-1 -1q3 13 3 26q0 18 -14 30t-49 12q-38 0 -75.5 -15.5t-63.5 -44.5h-75l25 108q51 26 92.5 40.5t78.5 19.5q-34 17 -49.5 49.5t-4.5 71.5zM292 210q-3 -1 -6.5 -1h-5.5q-26 -3 -52.5 -8t-49.5 -13t-39.5 -20.5t-22.5 -30.5
q-5 -19 8 -29.5t33 -10.5q31 0 62 14t52 32zM307 605q-1 -3 4.5 -5.5t13.5 -2.5q17 0 30.5 7.5t15.5 18.5l-1 -1q2 9 -18 9q-17 0 -30 -7.5t-16 -19.5z" />
    <glyph glyph-name="ae" unicode="&#xe6;" horiz-adv-x="962" 
d="M140 442q71 37 123.5 50.5t101.5 13.5q37 0 80 -10.5t77 -44.5q39 26 84.5 40.5t96.5 14.5q59 0 102 -13.5t71 -37.5t41.5 -56t13.5 -69q0 -12 -1 -25.5t-6 -29.5l-18 -60h-62q-13 0 -25 0.5t-23 0.5q-39 1 -78 1.5t-79 0.5q-25 0 -49 -0.5t-49 -1.5q-5 0 -9.5 -0.5
t-9.5 -0.5h-4q-2 -8 -2 -16v-15q0 -38 30 -62.5t91 -24.5q20 0 43.5 6t48.5 16t49.5 23.5t45.5 28.5l44 -39l-30 -82q-46 -26 -109 -44.5t-122 -18.5q-71 0 -125 20t-85 58q-35 -35 -87.5 -56.5t-136.5 -21.5q-37 0 -69 11t-54 31t-31.5 49t-1.5 65q17 67 74 103t145 47
q54 6 84 10t45 7.5t18.5 7.5t5.5 9l-1 -1q2 7 3 13.5t1 12.5q0 18 -14 30t-49 12q-38 0 -76 -15.5t-64 -44.5h-75zM698 404q-53 0 -87 -25.5t-53 -57.5q22 -1 45 -1h44q26 0 51 0.5t51 1.5q6 0 10 0.5t8 0.5q1 3 1 8.5v10.5q0 25 -14.5 43.5t-55.5 18.5zM183 137
q-5 -17 8.5 -28.5t40.5 -11.5q16 0 34 4.5t34 13t28 21.5t18 30q2 8 4 14.5t4 14.5q1 4 2.5 7.5t1.5 7.5q-2 0 -5 -0.5t-6 -0.5q-26 -3 -53 -7.5t-50 -12.5t-39.5 -20.5t-21.5 -31.5z" />
    <glyph glyph-name="ccedilla" unicode="&#xe7;" horiz-adv-x="564" 
d="M140 -77q8 -2 18.5 -5t22.5 -5l-27 26l41 57q-36 8 -67 23.5t-53 39t-34.5 56t-12.5 74.5q0 30 10 66q18 63 57 110.5t90.5 78.5t110.5 46.5t118 15.5q34 0 67.5 -6t62.5 -16.5t52.5 -23.5t38.5 -27q-20 -24 -37.5 -49t-31.5 -50h-56q-5 11 -14 23.5t-21.5 23t-29 17
t-35.5 6.5q-42 0 -75.5 -13t-59 -35.5t-42.5 -53t-27 -65.5l1 1q-3 -14 -5 -27.5t-2 -25.5q0 -88 119 -88q19 0 42.5 6t48.5 16t49.5 23.5t45.5 28.5l47 -40q-9 -19 -15.5 -34.5t-11.5 -28.5q0 -2 -1 -3l-2 -4v-6q-32 -18 -70 -33.5t-77 -24.5q50 -29 36 -93
q-6 -26 -23.5 -46t-43 -33t-56.5 -19.5t-64 -6.5q-40 0 -83 12t-76 23z" />
    <glyph glyph-name="egrave" unicode="&#xe8;" horiz-adv-x="607" 
d="M-9 243q15 61 45.5 109.5t75.5 82.5t103 52.5t126 18.5q9 0 16.5 -0.5t15.5 -1.5l-145 86q-10 5 -20 12t-17.5 16.5t-10.5 23t2 31.5q3 13 12.5 23t21 17t24 11t21.5 4q21 0 37.5 -9t32.5 -23l193 -196h-114q82 -14 120 -61t38 -109q0 -23 -7 -57q-2 -5 -4 -11t-4 -11
q-1 -2 -1.5 -5t-0.5 -5q-2 -9 -10 -26h-60q-13 0 -25 0.5t-22 0.5q-39 1 -78 1.5t-79 0.5q-25 0 -49 -0.5t-48 -1.5q-7 0 -11.5 -0.5t-7.5 -0.5h-5q-2 -8 -2 -15.5v-15.5q0 -38 30.5 -62.5t90.5 -24.5q19 0 43 6t48.5 16t49 23.5t45.5 28.5l45 -39l-30 -82
q-47 -26 -109 -44.5t-121 -18.5q-62 0 -110.5 15t-82.5 41.5t-51.5 63.5t-17.5 82q0 26 7 54zM336 404q-52 0 -86.5 -25.5t-52.5 -57.5q23 -1 45 -1h43q26 0 50.5 0.5t50.5 1.5q5 0 9.5 0.5t8.5 0.5q1 5 1.5 9.5t0.5 8.5q0 26 -14.5 44.5t-55.5 18.5z" />
    <glyph glyph-name="eacute" unicode="&#xe9;" horiz-adv-x="607" 
d="M463 701q18 11 38.5 19t37.5 8q12 0 25 -5t23 -14.5t15 -23.5t1 -31q-7 -25 -29 -41t-42 -25h1q-29 -14 -61 -28t-63 -28q-27 -12 -55 -26q56 -2 97 -16t67.5 -37.5t39.5 -55t13 -67.5q0 -22 -8 -57q-2 -5 -4 -11t-4 -11q-1 -2 -1.5 -5t-0.5 -5q-2 -9 -10 -26
q-11 0 -29 0.5t-31 0.5h-46q-40 1 -79 1.5t-79 0.5q-25 0 -49 -0.5t-48 -1.5q-7 0 -11.5 -0.5t-7.5 -0.5h-4q-3 -18 -3 -31q0 -38 30.5 -62.5t90.5 -24.5q19 0 43 6t48.5 16t49 23.5t45.5 28.5l46 -39l-31 -82q-47 -26 -109 -44.5t-121 -18.5q-62 0 -110.5 15t-82 41.5
t-51 63.5t-17.5 82q0 12 1 25t5 29q25 105 97 172.5t180 84.5h-105zM338 404q-52 0 -86.5 -25.5t-52.5 -57.5q23 -1 45 -1h43q26 0 50.5 0.5t50.5 1.5q5 0 9.5 0.5t8.5 0.5q1 5 1.5 9.5t0.5 8.5q0 26 -14.5 44.5t-55.5 18.5z" />
    <glyph glyph-name="ecircumflex" unicode="&#xea;" horiz-adv-x="613" 
d="M-4 243q15 61 45.5 109.5t75.5 82.5t102.5 52.5t126.5 18.5q59 0 102 -13.5t71 -37.5t41.5 -56t13.5 -69q0 -27 -7 -55l-18 -60h-62q-13 0 -25 0.5t-22 0.5q-40 1 -79 1.5t-79 0.5q-25 0 -49 -0.5t-48 -1.5q-7 0 -11.5 -0.5t-7.5 -0.5h-4q-3 -14 -3 -31q0 -38 30.5 -62.5
t91.5 -24.5q19 0 42 5.5t47 15t47 22t43 26.5l56 -26l-35 -88q-23 -13 -51.5 -25t-58.5 -21t-61 -14t-60 -5q-62 0 -110 15t-82 42t-51.5 64t-17.5 82q0 25 7 53zM385 586q-41 -25 -80 -48q-15 -8 -32.5 -18.5l-32.5 -19.5h-149l262 224h108l149 -224h-124zM341 404
q-52 0 -86 -25.5t-53 -57.5q23 -1 45 -1h44q26 0 51 0.5t51 1.5h18q1 5 1 9v10q0 26 -15 44.5t-56 18.5z" />
    <glyph glyph-name="edieresis" unicode="&#xeb;" horiz-adv-x="605" 
d="M-3 243q14 61 44.5 109.5t75.5 82.5t103 52.5t127 18.5q59 0 102 -13.5t71 -37t41.5 -55.5t13.5 -69q0 -26 -9 -54q-1 -5 -3.5 -13.5t-5 -18t-5.5 -18t-4 -12.5h-60q-13 0 -25 0.5t-23 0.5q-40 1 -79.5 1.5t-79.5 0.5q-24 0 -48 -0.5t-48 -1.5h-18h-5q-3 -15 -3 -32
q0 -38 30 -62.5t91 -24.5q19 0 43 6t48.5 16t49 23.5t45.5 28.5l45 -39l-30 -80q-23 -13 -51 -25t-58.5 -21t-61.5 -14t-60 -5q-61 0 -109.5 15t-82 41.5t-51.5 63.5t-18 82q0 12 1.5 25.5t6.5 28.5zM402 616q8 30 37 52t66 22q20 0 36.5 -7.5t28 -20.5t16 -29.5t0.5 -34.5
q-5 -14 -15.5 -27t-24.5 -23.5t-31 -17t-33 -6.5q-44 0 -67 26.5t-14 64.5zM181 616q4 15 14 28.5t24 23.5t31 16t34 6q43 0 65.5 -28t15.5 -64q-5 -14 -15.5 -27t-24 -23.5t-30 -17t-33.5 -6.5q-44 0 -67 26.5t-15 64.5zM341 404q-53 0 -86.5 -25.5t-52.5 -57.5
q23 -1 45 -1h44q26 0 51 0.5t51 1.5q5 0 9 0.5t8 0.5q1 4 1 8.5v9.5q0 25 -14.5 44t-55.5 19z" />
    <glyph glyph-name="igrave" unicode="&#xec;" horiz-adv-x="306" 
d="M116 590v-1q-10 6 -20 13t-17.5 17t-10.5 23t1 31q4 13 13.5 23t21 17t23.5 11t21 4q21 0 39 -9t32 -23l191 -196h-78q-26 -72 -44 -128.5t-26 -87.5q-5 -23 -11.5 -47t-12.5 -47q-9 -37 -18 -90.5t-17 -110.5q-30 5 -51 8t-30 3t-38 -4t-70 -10q27 73 45.5 130t26.5 93
l24 93q9 38 19 90t18 112q64 -11 80 -11q8 0 25.5 2t43.5 5h-28z" />
    <glyph glyph-name="iacute" unicode="&#xed;" horiz-adv-x="306" 
d="M254 701q17 11 37.5 19t37.5 8q12 0 25.5 -5t24 -14t15 -23t0.5 -32v1q-3 -14 -11 -24.5t-18 -18.5t-21 -13.5l-21 -10.5l-194 -88h-58q23 -4 38.5 -5.5t22.5 -1.5q10 0 36.5 3.5t69.5 9.5q-9 -27 -20 -58.5t-20.5 -62t-18 -57t-12.5 -44.5q-6 -23 -12.5 -47t-11.5 -47
q-9 -37 -18.5 -90.5t-17.5 -110.5q-30 5 -50.5 8t-29.5 3q-10 0 -38 -4t-69 -10q25 69 43 126.5t27 95.5l24 94q10 38 19 88t17 110h-96z" />
    <glyph glyph-name="icircumflex" unicode="&#xee;" horiz-adv-x="411" 
d="M116 302q4 17 8.5 40.5t9.5 50t10 55t9 55.5q29 -5 49.5 -7.5t29.5 -2.5q11 0 39 3.5t72 9.5q-31 -78 -49 -134t-26 -88q-5 -23 -11.5 -47t-11.5 -47q-9 -35 -18.5 -88t-18.5 -113q-61 11 -80 11q-11 0 -41 -4t-68 -9q29 75 47 131t26 91zM272 585q-18 -11 -37.5 -22
t-38.5 -22q-16 -9 -34 -20t-34 -21h-149l262 224h107l150 -224h-124z" />
    <glyph glyph-name="idieresis" unicode="&#xef;" horiz-adv-x="403" 
d="M118 302q10 39 19 91.5t16 109.5q32 -5 52 -7.5t29 -2.5q11 0 38 3.5t69 10.5q-24 -69 -43.5 -128.5t-27.5 -94.5l1 1q-2 -11 -5.5 -22.5t-6.5 -22.5q-3 -13 -6 -25.5t-6 -24.5q-11 -38 -20.5 -91t-16.5 -110q-30 5 -50.5 8t-29.5 3q-11 0 -41 -4t-68 -9
q26 72 45.5 130.5t28.5 91.5zM291 616q7 30 37 52t67 22q42 0 64.5 -27.5t14.5 -64.5q-4 -15 -13.5 -28.5t-23.5 -23.5t-30.5 -16t-34.5 -6q-21 0 -38.5 7t-28.5 19.5t-15 29.5t1 36zM70 616q8 30 37.5 52t65.5 22q21 0 37.5 -7.5t27.5 -20.5t15.5 -29.5t0.5 -34.5
q-5 -14 -15.5 -27t-24.5 -23.5t-30.5 -17t-32.5 -6.5q-44 0 -67 26.5t-15 64.5z" />
    <glyph glyph-name="eth" unicode="&#xf0;" horiz-adv-x="678" 
d="M-2 255q15 64 49.5 110t80 76t98 45.5t103.5 18.5l-37 37q-21 -5 -42 -10.5t-44 -11.5q-17 -4 -42.5 -11t-41.5 -11q-8 26 -21 52t-27 52q18 3 32 5.5t27.5 5t28.5 5.5l35 7q-26 21 -59.5 46t-63.5 45l180 37q29 -18 64 -43t61 -45q38 8 81.5 21t83.5 25
q6 -19 20.5 -44.5t40.5 -58.5q-6 -1 -16.5 -3t-22 -4t-21.5 -3.5t-15 -2.5l-16.5 -3t-10.5 -1.5t-11.5 -1.5t-18.5 -4q77 -71 113 -138.5t36 -138.5q0 -32 -10 -71q-18 -69 -56.5 -116.5t-89 -77t-107 -43t-110.5 -13.5q-49 0 -95.5 10.5t-83 34.5t-59 62.5t-22.5 93.5
q0 14 2 30.5t7 36.5zM443 254q4 17 6.5 32.5t2.5 29.5q0 37 -22 62.5t-77 25.5q-42 0 -73 -14t-53.5 -37.5t-37.5 -53.5t-23 -62l1 1q-4 -17 -6.5 -33t-2.5 -30q0 -37 21.5 -61.5t76.5 -24.5q41 0 72.5 14t54.5 37t38 53t23 62z" />
    <glyph glyph-name="ntilde" unicode="&#xf1;" horiz-adv-x="573" 
d="M374 296q2 9 3 18.5t1 17.5q0 26 -15 40t-43 14q-63 0 -100.5 -31t-51.5 -88l-20 -77q-8 -35 -17 -86t-17 -115q-29 5 -51 8t-31 3q-11 0 -41 -4t-68 -9q30 78 47 132t25 89l24 94q8 36 18 88.5t18 112.5q30 -5 50.5 -7.5t31.5 -2.5q5 0 31 3.5t69 9.5l-9 -28
q59 28 133 28q34 0 67 -6.5t59 -23.5t42 -45.5t16 -71.5q0 -12 -2 -26t-7 -30q-4 -18 -9.5 -38.5t-10.5 -40.5q-7 -20 -12.5 -38.5t-10.5 -41.5q0 -6 -1 -8.5t-3 -4.5q0 -2 -0.5 -3t-0.5 -3v1q-1 -3 -1.5 -6.5t-1.5 -5.5q-2 -8 -4 -17t-5 -23t-6.5 -34.5t-7.5 -50.5
q-30 5 -50 8t-28 3q-11 0 -36.5 -3.5t-60.5 -8.5l34 119q11 32 20.5 65.5t17.5 68.5l15 55v0zM97 522q13 28 32.5 58t44.5 54t55 39.5t64 15.5q24 0 41.5 -5.5t50.5 -19.5q23 -10 33.5 -13.5t20.5 -3.5q15 0 29 13.5t25 30.5h108q-8 -19 -25 -47.5t-42.5 -55.5t-59 -46.5
t-73.5 -19.5q-20 0 -42.5 5.5t-50.5 19.5q-21 10 -31.5 13.5t-19.5 3.5q-14 0 -23.5 -9t-25.5 -33h-111z" />
    <glyph glyph-name="ograve" unicode="&#xf2;" horiz-adv-x="669" 
d="M-3 255q17 69 55.5 117t88.5 77.5t107 43t111 13.5q7 0 14.5 -0.5t14.5 -0.5l-145 85v-1q-10 6 -20 13t-17 16.5t-10.5 23t0.5 31.5q4 13 13.5 23t21.5 17t24.5 11t21.5 4q20 0 38 -9t32 -23l193 -196h-110q38 -7 72.5 -21.5t60.5 -38t41 -57t15 -78.5q0 -16 -2 -33.5
t-7 -35.5q-20 -65 -59.5 -112t-89.5 -77.5t-106 -45t-108 -14.5q-49 0 -95.5 10.5t-83 34.5t-59 62t-22.5 93q0 28 10 67v1zM165 238q-4 -17 -6.5 -33t-2.5 -30q0 -37 21.5 -61.5t76.5 -24.5q41 0 72.5 14t54.5 37t38 53t23 62l-1 -1q4 17 6.5 32.5t2.5 29.5q0 37 -22 62.5
t-77 25.5q-42 0 -73 -14t-53.5 -37.5t-37.5 -53.5t-23 -62z" />
    <glyph glyph-name="oacute" unicode="&#xf3;" horiz-adv-x="670" 
d="M478 701q18 11 38.5 19t37.5 8q12 0 25 -5t23 -14.5t15 -23.5t1 -31q-6 -24 -29 -40.5t-42 -25.5q-43 -19 -90 -40.5t-90 -41.5q48 -1 93.5 -12t81 -35t57 -62t21.5 -92q0 -16 -2 -33.5t-7 -35.5q-20 -65 -59.5 -112t-89.5 -77.5t-106 -45t-108 -14.5q-49 0 -95.5 10.5
t-83 34.5t-59 62.5t-22.5 93.5q0 14 2 30.5t7 36.5q14 58 43.5 100.5t68.5 72.5t85.5 47.5t93.5 24.5h-109zM166 238q-4 -17 -6.5 -33t-2.5 -30q0 -37 21.5 -61.5t76.5 -24.5q41 0 72.5 14t54.5 37t38 53t23 62l-1 -1q4 17 6.5 32.5t2.5 29.5q0 37 -22 62.5t-77 25.5
q-42 0 -73 -14t-53.5 -37.5t-37.5 -53.5t-23 -62z" />
    <glyph glyph-name="ocircumflex" unicode="&#xf4;" horiz-adv-x="677" 
d="M0 255q18 69 56.5 117t89 77.5t107 43t110.5 13.5q49 0 95.5 -11t83.5 -35.5t59.5 -62.5t22.5 -92q0 -32 -10 -69q-19 -65 -58.5 -112t-89.5 -77.5t-106.5 -45t-108.5 -14.5q-49 0 -96 11t-83.5 35.5t-58.5 63t-22 92.5q0 14 2 30t7 36zM169 238q-4 -17 -6.5 -32.5
t-2.5 -29.5q0 -38 22 -62.5t77 -24.5q41 0 72.5 14t54 37t37.5 53t23 62l-1 -1q4 17 6.5 32.5t2.5 29.5q0 37 -22 62.5t-77 25.5q-42 0 -73 -14t-53.5 -37.5t-37.5 -53.5t-23 -62zM400 586q-22 -13 -41 -24.5t-40 -23.5q-15 -8 -32 -18.5t-32 -19.5h-149l262 224h106
l151 -224h-124z" />
    <glyph glyph-name="otilde" unicode="&#xf5;" horiz-adv-x="670" 
d="M3 255q17 69 55.5 117t89 77.5t107.5 43t111 13.5q49 0 96 -10.5t83.5 -34.5t58.5 -62.5t22 -93.5q0 -15 -1.5 -32.5t-7.5 -36.5q-20 -63 -60 -110t-90 -77.5t-106 -46t-107 -15.5q-50 0 -96.5 11t-83.5 35.5t-59 62.5t-22 92q0 28 10 67zM172 237q-4 -15 -6.5 -31
t-2.5 -31q0 -37 22 -61.5t76 -24.5q41 0 72.5 14t54.5 37t37.5 52.5t22.5 61.5q4 16 5.5 31.5t1.5 30.5q0 37 -21 62.5t-75 25.5q-42 0 -73.5 -14t-54.5 -37.5t-37.5 -53.5t-21.5 -62zM146 522q14 28 34 58t45.5 54t55.5 39.5t63 15.5q12 0 22 -1.5t19.5 -4.5t21 -7.5
t28.5 -11.5q23 -10 33 -13.5t21 -3.5q14 0 29 13.5t26 30.5h108q-8 -19 -25.5 -47.5t-43 -55.5t-59 -46.5t-73.5 -19.5q-20 0 -43 6.5t-49 18.5h1q-22 9 -33 13t-19 4q-15 0 -25 -9t-26 -33h-111z" />
    <glyph glyph-name="odieresis" unicode="&#xf6;" horiz-adv-x="668" 
d="M0 255q17 69 55.5 117t89 77.5t107.5 43t111 13.5q49 0 95.5 -10.5t83 -34.5t59 -62.5t22.5 -93.5q0 -16 -2 -33.5t-7 -35.5q-19 -65 -58.5 -112t-89.5 -77.5t-106.5 -45t-108.5 -14.5q-49 0 -96 11t-83.5 35.5t-58.5 63t-22 92.5q0 14 2 30t7 36zM169 238
q-4 -17 -6.5 -32.5t-2.5 -29.5q0 -38 22 -62.5t77 -24.5q41 0 72.5 14t54 37t37.5 53t23 62l-1 -1q4 17 6.5 32.5t2.5 29.5q0 37 -22 62.5t-77 25.5q-42 0 -73 -14t-53.5 -37.5t-37.5 -53.5t-23 -62zM196 616q8 30 37 52t65 22q42 0 66 -27.5t16 -64.5q-4 -15 -14.5 -28.5
t-24.5 -23.5t-31 -16t-34 -6q-21 0 -38 7t-28 19.5t-15 29.5t1 36zM416 616q8 30 38 52t65 22q43 0 65.5 -28t14.5 -64q-5 -14 -15 -27t-23.5 -23.5t-30 -17t-33.5 -6.5q-45 0 -68 26.5t-14 64.5z" />
    <glyph glyph-name="divide" unicode="&#xf7;" horiz-adv-x="643" 
d="M16 324h639l-30 -121h-638zM378 526q22 0 40 -8t29.5 -21t15.5 -30.5t0 -36.5l1 1q-4 -17 -14.5 -31.5t-26 -25t-34.5 -17t-38 -6.5q-23 0 -40.5 8t-29.5 21.5t-16.5 31.5t-0.5 38zM290 176q22 0 40 -7.5t29.5 -21t16 -31t0.5 -37.5q-4 -16 -15 -30.5t-26.5 -25t-34 -17
t-37.5 -6.5q-45 0 -69.5 28.5t-14.5 68.5l31 -18z" />
    <glyph glyph-name="oslash" unicode="&#xf8;" horiz-adv-x="707" 
d="M53 255q17 69 55.5 117t88.5 77.5t106.5 43t110.5 13.5q43 0 85.5 -8t77.5 -28q28 20 57 44.5t52 47.5q13 -27 37 -46.5t56 -33.5q-12 -6 -28 -15.5t-34 -20t-36 -21.5t-32 -21q26 -40 26 -98q0 -16 -2 -33.5t-7 -36.5v1q-18 -65 -57.5 -112t-90 -78t-107 -45.5
t-108.5 -14.5q-45 0 -88.5 8.5t-79.5 30.5q-15 -11 -32.5 -24t-33 -25.5t-28.5 -22.5t-19 -15q-11 18 -37.5 36t-68.5 33q48 23 85.5 46.5t63.5 41.5q-11 20 -17 43.5t-6 49.5q0 14 2.5 31t8.5 36v-1zM497 255q2 11 4 21.5t3 21.5l-261 -193q24 -16 67 -16q41 0 72.5 14
t54 37.5t37.5 53t23 61.5zM221 237q-5 -15 -6 -31l255 187q-22 11 -62 11q-42 0 -73.5 -14t-54 -37.5t-37 -53.5t-22.5 -62z" />
    <glyph glyph-name="ugrave" unicode="&#xf9;" horiz-adv-x="559" 
d="M198 590v-1q-10 6 -20 13t-17.5 16.5t-11 23t0.5 31.5q4 13 13.5 23t21.5 17t24.5 11t21.5 4q20 0 38 -9t32 -23l194 -196h-64q20 -3 35 -5t23 -2t33 4t68 12q-11 -35 -24 -77.5t-25.5 -87t-24 -87.5t-20.5 -78q-5 -20 -10.5 -45t-11 -51.5t-10.5 -51t-8 -43.5
q-27 5 -47 8.5t-26 3.5q-5 0 -29.5 -4t-59.5 -9q2 7 2 10.5t-1 6.5t-1.5 5.5t1.5 8.5q-32 -16 -66 -23.5t-66 -7.5q-93 0 -143 37.5t-50 106.5q0 11 1.5 23.5t5.5 26.5v-1q6 23 11.5 43t10.5 38l-1 -1q1 2 2 5q1 2 1.5 4.5t1.5 4.5q4 11 6.5 23.5t6.5 28.5q6 23 13 53.5
t15 60.5q2 12 6.5 32.5t6.5 31.5q61 -11 74 -11q8 0 33.5 3.5t66.5 10.5q-11 -32 -23 -71t-24.5 -80.5t-24 -81t-19.5 -72.5l1 1q-7 -29 -7 -50q0 -19 12 -31q5 -6 18 -10.5t37 -4.5q38 0 66 12.5t44 31.5q11 12 17.5 22t12.5 26.5t13.5 45t19.5 78.5q8 34 17 76.5t17 75.5
l8 25h-65z" />
    <glyph glyph-name="uacute" unicode="&#xfa;" horiz-adv-x="559" 
d="M417 701q18 11 38.5 19t37.5 8q12 0 25 -5t23 -14.5t15 -23.5t1 -31q-6 -24 -29 -40.5t-42 -25.5q-45 -20 -96.5 -44t-96.5 -44h-79q-10 -32 -22 -70.5t-24 -78.5t-23 -78.5t-19 -70.5l1 1q-7 -29 -7 -50q0 -19 12 -31q5 -6 18 -10.5t37 -4.5q38 0 66 12.5t44 31.5
q11 12 17.5 22t12.5 26.5t13.5 45t19.5 78.5q8 34 17 76.5t17 75.5l9 28q25 -5 44 -7.5t28 -2.5q8 0 33 4t68 12q-11 -35 -24 -77.5t-25.5 -87t-24 -87.5t-20.5 -78q-5 -20 -10.5 -45t-11 -51.5t-10.5 -51t-8 -43.5q-27 5 -47 8.5t-26 3.5q-5 0 -29.5 -4t-59.5 -9
q2 7 2 10.5t-1 6.5t-1.5 5.5t1.5 8.5q-32 -16 -66 -23.5t-66 -7.5q-93 0 -143 37.5t-50 106.5q0 11 1.5 23.5t5.5 26.5l-1 -2q4 16 8.5 30t7.5 27q5 13 8 24q5 17 8.5 33t7.5 33q6 23 13 53.5t15 60.5q2 12 6.5 32.5t6.5 31.5q61 -11 74 -11q6 0 21.5 1.5t38.5 5.5h-59z
M342 107l3 -3v3h-3z" />
    <glyph glyph-name="ucircumflex" unicode="&#xfb;" horiz-adv-x="565" 
d="M-26 180q6 23 11 42t10 36q2 8 4 14t4 13v-1l11 42q7 26 14.5 61.5t15.5 69.5h-1q2 6 5 20.5t5 22.5h-1l1 1q0 1 0.5 1.5t0.5 1.5l2 -1l258 221h108l145 -219q5 1 10 1.5t10 2.5q-11 -35 -24 -77.5t-25.5 -87t-24 -87.5t-20.5 -78q-5 -19 -10.5 -44.5t-11 -52t-9.5 -51
t-7 -42.5q-27 5 -46 8t-29 3q-8 0 -32 -4t-57 -9q2 7 2 10.5t-1 6.5t-1.5 5.5t1.5 8.5q-32 -16 -66.5 -23.5t-66.5 -7.5q-93 0 -142.5 37.5t-49.5 106.5q0 11 1.5 23.5t5.5 26.5v-1zM346 586q-26 -15 -51.5 -30t-51.5 -31q-8 -5 -17 -10.5t-17 -10.5q5 1 10 1.5t11 2.5
q-29 -82 -53 -162t-40 -144l1 1q-8 -34 -8 -50q0 -19 8 -27l-1 2q8 -9 23 -15t38 -6q38 0 66 12.5t44 31.5q11 12 17.5 22t12.5 26.5t13.5 45t19.5 78.5l-1 -1q2 11 5 21t5 21q6 22 12 49.5t11 50.5q1 3 1.5 5.5t1.5 6.5t2 10.5t2 17.5q27 -5 47.5 -8t28.5 -3q5 0 19 1.5
t37 5.5h-95zM128 493q5 0 20 1.5t39 5.5h-114q21 -4 35.5 -5.5t19.5 -1.5zM353 107l3 -3v3h-3z" />
    <glyph glyph-name="udieresis" unicode="&#xfc;" horiz-adv-x="572" 
d="M6 270q1 1 2 3.5t3 4.5l-5 -7q1 4 2 6t2 6q4 11 7 22l6 22q3 15 7.5 34t9.5 39.5t10 41.5t9 39q1 2 3.5 11t3.5 11q26 -5 44.5 -7.5t26.5 -2.5q16 0 103 15q-32 -89 -56 -168t-39 -137l1 1q-3 -15 -5 -28t-2 -22q0 -12 1.5 -18t4.5 -9q8 -9 22.5 -14.5t39.5 -5.5
q38 0 66 12.5t44 31.5q11 12 17.5 22t12.5 26.5t13.5 45t19.5 78.5l-1 -1q2 11 5 21t5 21q6 22 12 49.5t11 50.5q1 3 1.5 5.5t1.5 6.5t2 10.5t2 17.5q27 -5 47 -8t28 -3q19 0 102 16q-11 -35 -24 -77.5t-26 -87t-24.5 -87.5t-19.5 -78q-5 -20 -11 -45t-11.5 -51.5t-10.5 -51
t-8 -43.5q-27 5 -47 8.5t-25 3.5q-6 0 -33 -4t-69 -11q2 5 5 14t6 19q-31 -16 -64.5 -23.5t-65.5 -7.5q-93 0 -142.5 37.5t-49.5 106.5q0 11 1.5 23.5t5.5 26.5l32 -19zM371 616q4 15 14 28.5t24 23.5t31 16t34 6q43 0 66.5 -27.5t15.5 -64.5q-4 -15 -14.5 -28.5
t-24.5 -23.5t-31 -16t-34 -6q-44 0 -67 26.5t-15 64.5zM152 616q7 30 36.5 52t65.5 22q21 0 37.5 -7.5t28 -20t15.5 -29.5t0 -35q-8 -30 -38.5 -52t-65.5 -22q-21 0 -38 7t-27.5 19.5t-14.5 29.5t1 36z" />
    <glyph glyph-name="yacute" unicode="&#xfd;" horiz-adv-x="585" 
d="M469 702q17 11 37 18.5t39 7.5q12 0 25 -5t23 -14.5t15 -23.5t1 -31q-6 -24 -29 -40.5t-42 -25.5q-45 -20 -96.5 -44t-96.5 -44h-117q8 -51 16 -93t16.5 -78.5t16.5 -69.5t16 -65q57 72 113.5 151.5t106.5 154.5q17 -3 29.5 -5t23.5 -2q5 0 41.5 6.5t97.5 19.5
q-13 -14 -42.5 -49t-69.5 -84t-88 -107.5t-98 -120t-98.5 -123t-90.5 -115.5t-74 -97t-48 -68q-18 5 -33 7t-21 2q-7 0 -31 -4t-60 -12l-17 33q79 78 136.5 141.5t101.5 119.5q-8 33 -20 76.5t-25 90.5t-26.5 95t-25 88.5t-20 70.5t-12.5 43q38 -6 63.5 -9.5t36.5 -3.5
q10 0 28.5 1.5t44.5 5.5h-46z" />
    <glyph glyph-name="thorn" unicode="&#xfe;" horiz-adv-x="614" 
d="M88 462q7 28 15 64t16 75t15.5 78t12.5 74q29 -6 49.5 -8.5t30.5 -2.5q11 0 40 3.5t69 11.5q-29 -81 -51.5 -157.5t-37.5 -132.5q29 17 67.5 28t87.5 11q43 0 82.5 -11.5t69.5 -35t48 -60t18 -86.5q0 -17 -2.5 -35.5t-8.5 -39.5q-18 -59 -54.5 -106t-82.5 -79t-97.5 -49
t-98.5 -17q-45 0 -79 10.5t-60 30.5q-7 -29 -14.5 -63t-15 -70t-14 -72t-11.5 -69q-5 1 -18.5 3t-18.5 3q-14 2 -25 3t-16 1q-9 0 -26.5 -1.5t-43.5 -5.5h-6.5t-12 -0.5t-12 -0.5h-6.5q13 36 26.5 78t26 83.5t22.5 79.5t17 67zM442 259q3 15 5 29.5t2 28.5q0 22 -7 37
t-18.5 24t-26 12.5t-29.5 3.5q-38 0 -67.5 -12.5t-52 -34.5t-37 -51t-22.5 -62q-9 -35 -9 -63q0 -77 91 -77q33 0 60.5 12.5t49 35t37 52.5t24.5 65z" />
    <glyph glyph-name="ydieresis" unicode="&#xff;" horiz-adv-x="588" 
d="M-57 -219q77 75 135.5 140t102.5 121q-8 32 -19.5 75t-24.5 90t-26.5 95t-25.5 89t-20.5 71.5t-12.5 43.5q38 -6 64 -9.5t37 -3.5t32.5 2t51.5 7q14 -97 31.5 -169t34.5 -139q54 67 110.5 147t107.5 159q17 -3 30.5 -5t24.5 -2q5 0 40.5 6t96.5 20q-13 -14 -42 -49
t-69 -83t-87.5 -106.5t-97.5 -120.5t-98.5 -123.5t-90.5 -115.5t-74.5 -97.5t-48.5 -68.5q-18 5 -32.5 7t-20.5 2q-8 0 -32 -4t-60 -12zM414 616q4 15 14 28.5t24 23.5t30.5 16t34.5 6q44 0 66.5 -27.5t14.5 -64.5q-4 -15 -14.5 -28.5t-24.5 -23.5t-31 -16t-34 -6
q-21 0 -38 7t-28 19.5t-15 29.5t1 36zM194 616q3 15 13 28.5t24 23.5t31 16t35 6q21 0 38 -7.5t27.5 -20t14.5 -29.5t0 -35q-8 -30 -38.5 -52t-65.5 -22q-21 0 -38 7t-27.5 19.5t-14.5 29.5t1 36z" />
    <glyph glyph-name="dotlessi" unicode="&#x131;" horiz-adv-x="192" 
d="M29 302q9 38 19 90t18 112q64 -11 80 -11q10 0 36.5 3.5t70.5 9.5q-10 -27 -20.5 -58.5t-20.5 -62t-18.5 -57t-12.5 -44.5q-3 -12 -6 -25t-6 -27q-3 -11 -5.5 -21.5t-5.5 -20.5q-9 -37 -19 -90.5t-18 -110.5q-29 5 -49.5 8t-30.5 3q-9 0 -38.5 -4t-67.5 -9q25 69 44 128
t27 94z" />
    <glyph glyph-name="Lslash" unicode="&#x141;" horiz-adv-x="602" 
d="M143 428q14 54 26 114.5t23 116.5l6 33q30 -5 51 -7.5t32 -2.5q13 0 41.5 3.5t66.5 8.5q-2 -6 -5 -16t-6.5 -21.5t-6.5 -22.5t-5 -17q-8 -25 -14.5 -46t-13 -41t-12 -40.5t-11.5 -43.5q9 5 16.5 8.5t17.5 8.5q6 3 15.5 7t19 8.5t18.5 9l15 7.5q6 -26 17 -51.5t26 -53.5
q-10 -4 -29 -11t-41 -16t-44 -17.5t-39 -15.5q-3 -2 -9 -4q-3 -2 -8.5 -4t-7.5 -3q-1 -7 -2.5 -13.5t-3.5 -12.5q-2 -8 -4.5 -16.5t-4.5 -18.5q-8 -34 -15 -61.5t-12 -52.5q-2 -8 -3.5 -16t-3.5 -16q33 0 65.5 0.5t71.5 2.5t86.5 6t109.5 10q-17 -31 -28.5 -51.5
t-12.5 -25.5q-2 -8 -1.5 -23.5t2.5 -37.5q-25 1 -57 2.5t-65 2.5t-65 1.5t-58 0.5t-60 -0.5t-70 -1.5t-70 -2.5t-60 -2.5q8 25 17.5 56t20 63.5t20 65t17.5 60.5q-20 -10 -39.5 -20.5t-34.5 -19.5q-8 33 -19 59t-25 49q10 4 24 9.5t29 11.5t29 12t25 10l-1 -1q14 6 23 10
t22 9z" />
    <glyph glyph-name="lslash" unicode="&#x142;" horiz-adv-x="334" 
d="M-23 -13q13 36 25 73t23 73t20 69t17 62l-15 -7.5t-17.5 -9t-15 -7.5t-8.5 -4q-7 19 -17 40t-39 51l71 32q17 6 33 12.5t32 14.5q5 2 3.5 1.5t3.5 1.5q2 8 4.5 16t4.5 16l-1 -1q2 10 4.5 20t4.5 21q7 30 15.5 67t17 76t16 77.5t12.5 71.5q27 -5 49 -8t31 -3q10 0 38 3.5
t69 10.5q-27 -74 -49.5 -149.5t-37.5 -134.5q5 2 8.5 4.5t8.5 4.5q6 3 16.5 8t21.5 10.5t21 9.5t13 6q-4 -15 -1 -31.5t10.5 -32t18.5 -29.5t24 -24h-29.5t-15.5 -0.5t-6.5 -0.5h-1.5q-9 -3 -25 -10t-21 -10q-4 -2 -12 -4h1q-14 -6 -26 -10t-35 -15q-5 -17 -9.5 -34
t-7.5 -33q-7 -27 -15 -63t-16.5 -75t-15.5 -79t-13 -75q-61 11 -79 11q-11 0 -40.5 -4t-67.5 -9z" />
    <glyph glyph-name="OE" unicode="&#x152;" horiz-adv-x="1242" 
d="M888 240q-6 -20 -10 -40.5t-8 -40.5q-2 -11 -5 -22t-5 -22q-1 -1 -0.5 -1.5t-0.5 -1.5q103 2 180 7t131 12q-26 -38 -38 -55t-13 -20q-2 -9 -1.5 -25t2.5 -38q-23 1 -52.5 2.5t-60.5 2.5t-60.5 1.5t-53.5 0.5t-56 -0.5t-66.5 -1.5t-67.5 -2.5t-58 -2.5q3 9 8 21.5
t10 26.5q-47 -23 -110 -40t-148 -17q-78 0 -142.5 18.5t-111.5 53.5t-73 86.5t-26 116.5q0 17 2.5 37t8.5 44q24 82 74.5 148.5t119.5 113t152.5 71.5t174.5 25q95 0 151 -18.5t87 -41.5q1 4 3.5 15t9.5 36q23 -1 50 -2.5t54.5 -2.5t54.5 -1.5t50 -0.5q22 0 55 1t68 2.5
t68.5 3t56.5 2.5q-16 -27 -28.5 -50t-14.5 -28v-63q-2 0 -7 1t-10.5 2.5t-11 2.5t-6.5 1l2 -1q-18 3 -37 5.5t-46 4.5t-65 3.5t-94 1.5q-2 -4 -2 -6q-9 -31 -17.5 -62t-15.5 -60q-2 -9 -3.5 -14.5t-3.5 -10.5q0 -1 -1 -4q44 0 74.5 0.5t52.5 1.5t36.5 2t26.5 2h24h12t18 0.5
t16.5 0.5h8.5q-15 -26 -26.5 -47t-12.5 -23l1 1q-1 -5 1 -21t4 -34h-39q-6 0 -10.5 0.5t-6.5 0.5t-4.5 0.5t-4.5 0.5q-12 1 -26 2t-36 1.5t-54.5 1t-81.5 0.5zM245 333q-5 -22 -8 -43t-3 -38q0 -42 15 -72t41 -50t62 -29.5t78 -9.5q59 0 112 19.5t95.5 54t73.5 82t47 103.5
q6 23 8.5 47t2.5 45q0 41 -13.5 69.5t-37.5 46t-57.5 25.5t-74.5 8q-58 0 -112.5 -15t-99.5 -47t-79 -81t-51 -116z" />
    <glyph glyph-name="oe" unicode="&#x153;" horiz-adv-x="1103" 
d="M837 506q59 0 102 -13.5t71 -37.5t41.5 -56t13.5 -69q0 -14 -1.5 -26t-3.5 -23l-20 -66h-62q-13 0 -25 0.5t-22 0.5q-40 1 -79 1.5t-78 0.5q-26 0 -50 -0.5t-49 -1.5q-5 0 -9.5 -0.5t-9.5 -0.5h-4q-1 -8 -1.5 -16t-0.5 -15q0 -38 30 -62.5t91 -24.5q20 0 43.5 6t48.5 16
t49.5 23.5t45.5 28.5l44 -39l-30 -82q-46 -26 -109 -44.5t-122 -18.5q-133 0 -201 66q-52 -35 -113.5 -50.5t-120.5 -15.5q-49 0 -96 11t-83.5 35.5t-58.5 62.5t-22 92q0 15 2 31t8 36q18 65 57.5 112.5t89.5 78t106 45.5t109 15q58 0 111 -14.5t89 -48.5q44 30 98.5 46.5
t120.5 16.5zM510 316q0 38 -22 63t-77 25q-42 0 -73.5 -14t-54 -37.5t-37 -53.5t-22.5 -62q-8 -30 -8 -62q0 -37 21.5 -61.5t76.5 -24.5q41 0 72.5 14t54.5 37t38 53t23 62l31 -18zM832 404q-53 0 -87 -25.5t-53 -57.5q23 -1 45.5 -1h43.5q26 0 51 0.5t51 1.5q6 0 10 0.5
t8 0.5q1 3 1 8.5v10.5q0 25 -14.5 43.5t-55.5 18.5z" />
    <glyph glyph-name="Scaron" unicode="&#x160;" horiz-adv-x="574" 
d="M525 877h150l-218 -186q33 -8 64.5 -24.5t64.5 -41.5q-15 -16 -26 -30t-20.5 -28t-18 -28.5t-17.5 -31.5h-64q-3 12 -8.5 27t-14.5 27.5t-23.5 21t-35.5 8.5q-51 0 -89.5 -23t-48.5 -61q-1 -4 -1.5 -7.5t-0.5 -8.5q0 -12 10 -22t25.5 -18.5t35.5 -16t41 -14.5
q31 -11 62.5 -23.5t56.5 -31.5t40.5 -45t15.5 -64q0 -11 -1 -21.5t-6 -22.5v1q-12 -46 -43.5 -87.5t-78 -73t-107 -50t-129.5 -18.5q-38 0 -70 7t-59 18.5t-49.5 25.5t-41.5 29q13 19 21.5 33.5t15.5 28.5t13 28.5t14 33.5h67q5 -16 14.5 -32t25 -29.5t37 -22t49.5 -8.5
q30 0 56.5 8t47 21.5t34.5 32t19 40.5q4 16 -3.5 28t-23 22t-36.5 18.5t-43 16.5q-32 11 -63.5 24t-57 32t-41.5 46.5t-16 68.5q0 11 1.5 22.5t6.5 25.5v-1q8 33 28.5 63t50 54.5t66.5 42.5t79 28q-14 21 -31 46t-34 50.5t-33 49t-28 42.5h125l102 -85z" />
    <glyph glyph-name="scaron" unicode="&#x161;" horiz-adv-x="447" 
d="M433 724h149l-260 -223q14 -2 24.5 -5.5t21.5 -6.5q2 -1 4 -1t4 -1l2 -1h2q1 -1 3 -1.5l10 -2.5t24.5 -6t46.5 -10q-14 -15 -29 -33.5t-27.5 -35.5t-21.5 -32t-11 -22h-72q-4 23 -17.5 39.5t-36.5 16.5q-22 0 -46.5 -11.5t-31.5 -36.5l1 2q-2 -7 4 -12.5t16.5 -10t24 -9
t27.5 -8.5q26 -7 52.5 -15t47.5 -21t34.5 -33.5t13.5 -52.5q0 -8 -1 -17.5t-5 -19.5q-10 -28 -35 -57.5t-61 -54t-80.5 -40t-94.5 -15.5q-59 0 -108 17t-87 37q8 10 18.5 24.5t20.5 30.5t17.5 31.5t9.5 27.5h68q4 -9 11.5 -19.5t18 -20t24 -15.5t30.5 -6q30 0 58.5 14
t36.5 39q-1 11 -22.5 19.5t-48.5 15.5t-53.5 15.5t-47.5 22t-34 34.5t-13 54q0 8 0.5 16.5t3.5 19.5v-1q14 60 65 102.5t129 55.5l-149 223h125l101 -86z" />
    <glyph glyph-name="Ydieresis" unicode="&#x178;" horiz-adv-x="725" 
d="M175 17q25 64 43 126t32 122q2 5 2 8t2 9q-10 21 -26.5 54.5t-37 73.5t-42 83t-42 82t-37.5 71t-27 50q48 -6 82.5 -10t47.5 -4q12 0 35 2.5t52 6.5q29 -78 58.5 -147t63.5 -143q32 32 66 68t68 73.5t67 75.5t63 73q19 -4 33.5 -6.5t22.5 -2.5q5 0 25.5 3t49.5 8
q3 0 15 2t26 3.5t26.5 3.5t15.5 2q-81 -76 -151 -142t-126 -120.5t-97.5 -95.5t-65.5 -68q-7 -31 -15.5 -67.5t-16.5 -75t-15 -75.5t-11 -70q-30 5 -52 7.5t-33 2.5q-9 0 -30.5 -2.5t-50.5 -6.5zM265 770q4 15 14 28.5t24 23t30.5 15.5t34.5 6q21 0 37.5 -7.5t27.5 -20
t15.5 -29.5t0.5 -35q-5 -14 -15 -27t-24.5 -23.5t-31 -16.5t-32.5 -6q-45 0 -68 26.5t-14 64.5zM485 770q8 30 37.5 51.5t65.5 21.5q20 0 36.5 -7.5t28 -20t16 -29.5t0.5 -35q-5 -14 -15 -27t-24.5 -23.5t-31 -16.5t-33.5 -6q-43 0 -66 26.5t-15 64.5z" />
    <glyph glyph-name="Zcaron" unicode="&#x17d;" horiz-adv-x="739" 
d="M596 877h149l-228 -195h102q24 0 47.5 1t46.5 3h25h10t14.5 0.5t14 0.5h8.5l-14 -74q-24 -17 -65 -50.5t-92.5 -77.5t-108.5 -94.5t-112.5 -100.5t-106.5 -96.5t-89 -81.5h3q43 0 105.5 2t130 5t131 7t107.5 8q-18 -24 -25 -33t-8 -11.5t0.5 -0.5t1.5 1q-9 -16 -15 -25.5
t-7 -13.5l1 3q-1 -4 0.5 -20.5t3.5 -39.5q-11 0 -32 0.5t-31 0.5q-67 2 -125.5 3.5t-114.5 1.5q-29 0 -67 -0.5t-79.5 -1l-83 -1t-78 -1.5t-65 -1.5t-42.5 -1.5l14 73q75 64 157 136.5t159.5 142t143 129t106.5 97.5q-42 0 -93.5 1.5t-105 2.5t-104.5 1t-91 -3q-2 0 -1.5 5
t3 12t6.5 14.5t8 13.5q1 2 1 1.5t1 1.5q0 2 1 4q2 4 3 7q2 4 0 20t-4 37q14 -1 38 -2t53.5 -2t61.5 -1.5t62 -0.5q8 0 15 -0.5t15 -0.5l-131 195h124l103 -85z" />
    <glyph glyph-name="zcaron" unicode="&#x17e;" horiz-adv-x="578" 
d="M-59 67q46 37 96.5 77.5t100 82t96.5 81t87 74.5q-33 -2 -72 -3.5t-75.5 -3.5t-68.5 -4t-51 -3q20 36 28.5 53.5t9.5 19.5v2q-1 -1 0.5 8.5t3.5 19.5q0 6 0.5 17t0.5 12q47 -3 129 -5t184 -2q24 0 50.5 0.5t52.5 1.5t50 2.5t42 2.5l-15 -71q-57 -47 -114.5 -94t-109 -90
t-93.5 -78.5t-69 -58.5q69 2 150 6.5t166 10.5q-3 -6 -9 -17.5t-11.5 -23.5t-10.5 -22t-6 -14q-1 -8 -1 -23v-30h-22.5t-30.5 0.5t-30.5 1t-22.5 0.5q-24 1 -51 1.5t-54.5 1t-54 0.5h-49.5q-75 0 -148 -3q-9 0 -23.5 -0.5t-29.5 -1t-27.5 -0.5h-17.5zM498 724h149l-262 -224
h-107l-150 224h125l101 -86z" />
    <glyph glyph-name="florin" unicode="&#x192;" horiz-adv-x="570" 
d="M-19 -26l19 -10l-2 1l14 -6t12 -3q29 0 46 23t37 63v-1q32 69 64.5 139.5t64.5 141.5q-16 -1 -36.5 -2t-40 -2t-36 -2t-23.5 -2q18 26 37.5 60t25.5 60q20 -2 56 -4t68 -2q2 2 4 5.5t4 6.5q2 4 4 7t4 7l-1 -1q19 36 49 75.5t67.5 72t82.5 53.5t95 21q9 0 36.5 -5
t55.5 -15q-9 -14 -18 -30t-17 -33t-14 -34t-9 -31l-62 -11q-7 12 -16 21t-18 9q-14 0 -25.5 -8t-24.5 -35q-8 -18 -17 -37t-18 -37h15t12 1q7 0 24 0.5t36 1t35 0.5h20q-11 -14 -21.5 -29.5t-20.5 -31t-17.5 -29.5t-10.5 -24q-23 2 -55.5 3t-65.5 1q-4 -8 -7 -15t-7 -15
q-18 -37 -35 -74t-34 -72q-51 -107 -106.5 -171t-113.5 -98t-115.5 -44t-112.5 -10q62 96 72 136z" />
    <glyph glyph-name="circumflex" unicode="&#x2c6;" horiz-adv-x="431" 
d="M212 585q-18 -11 -37.5 -22t-38.5 -22q-16 -9 -34 -20t-34 -21h-148l260 224h108l150 -224h-124z" />
    <glyph glyph-name="caron" unicode="&#x2c7;" horiz-adv-x="428" 
d="M360 724h149l-261 -224h-108l-150 224h124l102 -86z" />
    <glyph glyph-name="breve" unicode="&#x2d8;" horiz-adv-x="417" 
d="M143 715q-1 -42 13 -64t49 -22q46 0 72.5 22.5t50.5 63.5h103q-11 -44 -32 -83t-51.5 -68t-69.5 -46.5t-85 -17.5q-42 0 -73 11t-51.5 30t-30 45t-9.5 55q0 13 2.5 32t7.5 42h104z" />
    <glyph glyph-name="dotaccent" unicode="&#x2d9;" horiz-adv-x="213" 
d="M115 687q42 0 66 -27t17 -65q-4 -15 -14.5 -28.5t-25 -23.5t-31 -16t-33.5 -6q-21 0 -38 7.5t-28 20.5t-15 30.5t0 36.5l36 -4z" />
    <glyph glyph-name="ring" unicode="&#x2da;" horiz-adv-x="336" 
d="M18 623q6 24 22 46t39.5 38t52.5 25.5t59 9.5q32 0 58 -10.5t43.5 -29.5t24 -44t0.5 -54q-6 -24 -22.5 -45.5t-40 -37.5t-52.5 -25.5t-59 -9.5q-33 0 -59.5 11t-43.5 29.5t-23 43.5t1 53zM135 604q-1 -3 4.5 -5t14.5 -2q16 0 28 7t17 18q0 9 -19 9q-17 0 -29.5 -7.5
t-15.5 -19.5z" />
    <glyph glyph-name="ogonek" unicode="&#x2db;" horiz-adv-x="263" 
d="M357 74q-68 -43 -110.5 -71t-66.5 -46t-33.5 -28t-10.5 -17q-2 -4 7.5 -5t20.5 -1q9 0 28 4.5t41 9.5l10 -101q-31 -10 -55.5 -15t-49.5 -5q-34 0 -63.5 8t-50 23.5t-29.5 38t-2 52.5q8 35 54 72.5t128 80.5h182z" />
    <glyph glyph-name="tilde" unicode="&#x2dc;" horiz-adv-x="475" 
d="M-19 522q14 28 34 58t45.5 54t55.5 39.5t63 15.5q23 0 42 -5.5t49 -19.5q38 -17 55 -17q14 0 29 13.5t26 30.5h107q-8 -19 -25 -47.5t-42.5 -55.5t-59 -46.5t-74.5 -19.5q-20 0 -42 5.5t-50 19.5q-21 10 -31.5 13.5t-18.5 3.5q-15 0 -25 -9t-27 -33h-111z" />
    <glyph glyph-name="hungarumlaut" unicode="&#x2dd;" horiz-adv-x="574" 
d="M201 702q17 11 36.5 18.5t39.5 7.5q12 0 25 -5t23.5 -14t15 -23t0.5 -32q-1 -4 -5 -12l88 60q17 11 37 18.5t39 7.5q12 0 25 -5t23 -14.5t15 -23.5t1 -31q-6 -24 -29 -40.5t-42 -25.5q-39 -17 -81.5 -37.5t-82.5 -37.5h1q-6 -3 -14 -6.5t-14 -6.5h-177l101 69
q-27 -14 -55.5 -26.5t-54.5 -24.5q-9 -3 -20 -8.5t-18 -9.5h-175z" />
    <glyph glyph-name="endash" unicode="&#x2013;" horiz-adv-x="712" 
d="M50 301h635l-25 -116h-635z" />
    <glyph glyph-name="emdash" unicode="&#x2014;" horiz-adv-x="1336" 
d="M82 301h1196l-25 -116h-1196z" />
    <glyph glyph-name="quoteleft" unicode="&#x2018;" 
d="M115 418v1q-10 -19 -31 -35.5t-58 -16.5q-13 0 -27.5 4.5t-25 14t-15.5 24t0 34.5q6 17 14 28.5t18 22.5l3 3q66 65 136 136q14 15 33 34.5t33 33.5l90 -26z" />
    <glyph glyph-name="quoteright" unicode="&#x2019;" 
d="M99 648v-1q11 18 32 34.5t57 16.5q14 0 28.5 -4.5t25.5 -13.5t16 -23.5t0 -35.5q-5 -17 -15 -29.5t-21 -23.5q-29 -29 -59 -60t-59 -62q-20 -19 -42.5 -41.5t-40.5 -41.5l-89 26z" />
    <glyph glyph-name="quotesinglbase" unicode="&#x201a;" 
d="M99 124v-1q10 17 31.5 34.5t57.5 17.5q14 0 28.5 -4.5t25.5 -13.5t16 -23.5t0 -35.5q-4 -14 -15.5 -29t-20.5 -25q-23 -24 -48 -49l-51 -51q-23 -24 -51.5 -53t-50.5 -51l-89 26z" />
    <glyph glyph-name="quotedblleft" unicode="&#x201c;" horiz-adv-x="459" 
d="M334 418v1q-11 -19 -32 -35.5t-57 -16.5q-14 0 -28.5 4.5t-25.5 14t-15.5 24t0.5 34.5q5 19 14 30t17 21l5 3q22 22 45.5 46t47.5 49q26 26 55.5 56t52.5 53l88 -26zM142 418q-11 -18 -32.5 -34.5t-56.5 -16.5q-14 0 -28.5 4.5t-25 14t-15.5 24t1 34.5q5 17 14 29l18 24
l204 205l87 -26z" />
    <glyph glyph-name="quotedblright" unicode="&#x201d;" horiz-adv-x="459" 
d="M316 647q11 18 32.5 34.5t56.5 16.5q14 0 28.5 -4.5t25.5 -13.5t15.5 -23.5t-0.5 -35.5q-4 -17 -14 -29.5t-22 -23.5q-14 -14 -28.5 -29.5t-29.5 -31.5l-73 -73t-70 -71l-87 26zM124 647v-1q11 19 32 35.5t57 16.5q14 0 28.5 -4.5t25.5 -13.5t15.5 -23.5t-0.5 -35.5
q-5 -19 -14.5 -31t-22.5 -23v1q-23 -24 -47.5 -49t-49.5 -51t-53.5 -54.5t-51.5 -52.5l-84 29z" />
    <glyph glyph-name="quotedblbase" unicode="&#x201e;" horiz-adv-x="459" 
d="M316 123q12 18 33 35t56 17q14 0 28.5 -4.5t25.5 -13.5t15.5 -23.5t-0.5 -35.5q-3 -14 -14.5 -29t-21.5 -25q-22 -23 -48 -49t-52.5 -53t-52.5 -53.5t-48 -48.5l-87 26zM124 123v-1q11 19 32.5 36t56.5 17q14 0 28.5 -4.5t25.5 -13.5t15.5 -23.5t-0.5 -35.5
q-5 -19 -14.5 -31t-22.5 -23q-40 -42 -85 -87.5t-87 -87.5l-30 -31l-84 29z" />
    <glyph glyph-name="dagger" unicode="&#x2020;" horiz-adv-x="530" 
d="M43 485q55 -6 98 -7.5t83 -1.5q12 51 24 109t13 112q1 0 6 -1.5t10 -2.5t10 -2.5t6 -1.5q17 -3 29.5 -5t19.5 -2q5 0 22.5 2.5t40.5 6.5q3 0 11.5 1.5l17 3t16 3t9.5 1.5q-33 -63 -52.5 -121t-31.5 -103q20 0 40.5 0.5t45.5 2t56.5 4t74.5 7.5q-20 -35 -31 -57t-15 -31
q0 -8 0.5 -26t2.5 -38q-68 8 -118 10.5t-88 2.5q-7 -28 -12 -57t-12 -58l-17 -76q-4 -17 -8 -37t-9 -40q-2 -10 -5 -23t-5.5 -26.5t-5 -25.5t-4.5 -20q-27 5 -47.5 8.5t-26.5 3.5q-7 0 -35.5 -4t-66.5 -9q3 9 8 25.5t10.5 36t11 37.5t8.5 30l6 18q16 57 30.5 106.5
t29.5 110.5q-19 0 -40 -0.5t-47 -2.5t-58 -5t-72 -8q21 40 32.5 61.5t13.5 26.5q3 9 0 41z" />
    <glyph glyph-name="daggerdbl" unicode="&#x2021;" horiz-adv-x="536" 
d="M205 383q1 5 1 7v4q-39 0 -89.5 -2.5t-128.5 -11.5q21 38 32 57t13 27q3 14 -2 67q66 -8 115 -10t91 -2q5 24 12.5 64t16.5 110q28 -5 48.5 -8t28.5 -3t36.5 4t69.5 10q-27 -74 -40.5 -114.5t-20.5 -62.5q37 1 90 4t128 11q-43 -74 -46 -86q-3 -9 2 -66q-72 8 -120.5 10
t-86.5 2q-5 -14 -9 -31t-8 -32q-5 -17 -10 -43q20 0 41.5 0.5t48 2t58 4t71.5 7.5q-43 -73 -46 -87l1 2q-2 -6 -1.5 -22.5t2.5 -44.5q-69 8 -119 10.5t-87 2.5q-5 -23 -12.5 -64.5t-16.5 -110.5q-28 5 -48.5 8.5t-27.5 3.5q-9 0 -39 -4t-68 -9q28 75 42 115t20 61
q-21 0 -42 -0.5t-46 -2t-56.5 -4.5l-73.5 -7q46 71 47 83q3 11 -2 68q68 -8 118 -10t87 -2q2 8 3.5 11.5t3.5 7.5v-1l5 22q2 10 4.5 18.5t4.5 12.5l35 -6zM325 272l-1 -1z" />
    <glyph glyph-name="bullet" unicode="&#x2022;" horiz-adv-x="485" 
d="M17 350q9 37 34.5 70t61.5 57.5t79.5 38.5t88.5 14q42 0 77.5 -12t61 -33.5t39.5 -50.5t14 -63q0 -10 -1 -20t-5 -20v1q-10 -36 -35.5 -69t-61.5 -57.5t-79 -39t-87 -14.5q-43 0 -78 12t-60.5 33t-39.5 50t-14 63q0 22 4 39z" />
    <glyph glyph-name="ellipsis" unicode="&#x2026;" horiz-adv-x="1057" 
d="M169 165q22 0 40 -7.5t30 -21t16.5 -31t0.5 -37.5q-5 -16 -16 -30t-26.5 -24.5t-34 -17t-36.5 -6.5q-46 0 -70.5 28t-15.5 68l31 -18zM541 165q23 0 41 -7.5t29.5 -21t16 -31t-0.5 -37.5q-4 -16 -14.5 -30t-26 -24.5t-33.5 -17t-37 -6.5q-46 0 -71 28t-14 68l31 -18z
M914 165q22 0 40 -7.5t29.5 -21t16 -31t0.5 -37.5q-4 -16 -15 -30t-26.5 -24.5t-34 -17t-37.5 -6.5q-45 0 -69.5 28t-15.5 68l32 -18z" />
    <glyph glyph-name="perthousand" unicode="&#x2030;" horiz-adv-x="1214" 
d="M93 504q13 50 38.5 83t57.5 52.5t66.5 27.5t65.5 8q29 0 58 -7t52.5 -23t38 -42.5t14.5 -65.5q0 -10 -1.5 -23t-5.5 -28q-2 -8 -5 -16t-5 -15l225 247q15 -6 24 -8.5t12 -2.5t40 9.5t96 25.5l-368 -406q28 14 57.5 19.5t55.5 5.5q25 0 51 -5.5t48 -17.5t38.5 -32.5
t22.5 -50.5q18 30 42.5 50.5t51.5 33t55 17.5t54 5q28 0 56.5 -7t52 -23t38.5 -42.5t15 -65.5q0 -11 -1 -24t-6 -27q-14 -46 -40 -78.5t-57.5 -52.5t-65.5 -29.5t-64 -9.5q-27 0 -54 5.5t-49 18.5t-38 34.5t-20 52.5q-18 -30 -43 -51t-52 -34.5t-54.5 -19.5t-51.5 -6
q-30 0 -59 7t-52.5 23t-38 42.5t-14.5 65.5q0 23 7 51q2 8 4.5 15t4.5 14l-223 -246q-14 5 -23 8.5t-12 3.5t-14.5 -3t-30.5 -8h1q-3 -1 -16 -4t-28.5 -6.5t-29 -6.5t-18.5 -4l368 403q-29 -14 -59 -20t-56 -6q-29 0 -58 7t-52 23t-38 42.5t-15 66.5q0 22 6 49zM604 251
q-30 0 -47.5 -25.5t-28.5 -65.5q0 -1 -0.5 -3t-0.5 -3q-6 -29 -6 -48q0 -12 4.5 -19t16.5 -7q29 0 47.5 28t29.5 67v2q3 14 5 26.5t2 22.5q0 25 -22 25zM890 156q-2 -14 -4.5 -26.5t-2.5 -23.5q0 -26 23 -26q28 0 46 28t29 67q3 12 5 25.5t2 25.5q0 25 -22 25
q-31 0 -48 -26.5t-28 -68.5zM241 487q-4 -16 -6.5 -29.5t-2.5 -22.5q0 -24 23 -24q29 0 47 28t28 65q3 14 5.5 26.5t2.5 24.5q0 25 -23 25q-30 0 -47.5 -26.5t-27.5 -67.5z" />
    <glyph glyph-name="guilsinglleft" unicode="&#x2039;" horiz-adv-x="237" 
d="M217 475q8 -20 35.5 -37.5t70.5 -22.5l-200 -177q11 -19 24 -42.5t26.5 -47.5t25.5 -45.5t21 -37.5q-16 -2 -33 -7t-32.5 -13.5t-28.5 -18.5t-21 -21l-132 248z" />
    <glyph glyph-name="guilsinglright" unicode="&#x203a;" horiz-adv-x="235" 
d="M14 425q16 1 33 6.5t32.5 13.5t28.5 18t21 21l132 -248l-244 -224q-8 22 -35.5 39.5t-69.5 22.5l198 176z" />
    <glyph glyph-name="fraction" unicode="&#x2044;" horiz-adv-x="409" 
d="M398 692q31 -11 39 -11q7 2 15 4q7 2 15.5 4t17.5 4q3 1 13.5 4t22.5 6.5t22.5 6.5t13.5 4l-546 -744q-16 4 -26.5 6.5t-13.5 2.5q-4 0 -37 -9.5t-84 -25.5z" />
    <glyph glyph-name="Euro" unicode="&#x20ac;" horiz-adv-x="709" 
d="M741 579q-15 -21 -28.5 -44.5t-27.5 -48.5l-63 -1q-17 37 -49.5 57.5t-64.5 20.5q-51 0 -101 -31.5t-90 -95.5h126q13 0 29 0.5t39.5 2t58.5 5.5t87 12q-20 -23 -39.5 -48.5t-34.5 -48.5q10 0 15 1q-37 -44 -58.5 -73t-26.5 -38q-2 -4 -8 -14.5t-10 -16.5q-39 5 -70 6.5
t-55 1.5h-115q0 -60 33 -92.5t85 -32.5q40 0 92 22t112 64l35 -64q-8 -15 -18 -38t-16 -40q-20 -12 -48 -22.5t-59.5 -18t-63.5 -11.5t-60 -4q-60 0 -108.5 15.5t-83.5 45.5t-54.5 73.5t-20.5 99.5q-23 -2 -55 -5.5t-72 -10.5q21 30 38 55.5t29 45.5q-11 -2 -22 -3.5
t-23 -3.5q38 54 59.5 89t32.5 56q15 -3 32.5 -5.5t34.5 -3.5q28 53 69 96.5t91.5 75t108 49t118.5 17.5q53 0 111 -15.5t100 -38.5z" />
    <glyph glyph-name="trademark" unicode="&#x2122;" horiz-adv-x="1071" 
d="M216 585q-21 -1 -47.5 -2.5t-52 -3t-48 -3t-35.5 -2.5q21 25 39 44.5t18 18.5l2 8q-4 -5 -4 -4t-1 6q-2 4 -7.5 19t-8.5 24q21 -1 51 -2.5t61.5 -2.5t61.5 -2t52 -1q19 0 48 0.5t62 1.5t66 2.5t59 2.5l1 2h65q23 -72 44 -125t42 -101v1q5 -10 8 -17t6 -13q1 -3 1 -2.5
t-1 1.5t-1 0.5t3 -5.5l41 44q42 44 84.5 90t84.5 91v-1q7 8 17 18.5t18 18.5h67l-20 -155q-4 -30 -8 -70.5t-7.5 -82.5t-6.5 -81t-4 -66q-24 7 -40 11t-24 4q-17 0 -82 -17q0 1 1.5 7t3 13t3 13t1.5 7l-1 -1q9 43 17.5 91.5t12.5 93.5q-22 -23 -46.5 -50.5t-48 -55.5
t-45 -53.5t-37.5 -45.5h-55q-15 50 -28.5 85t-26.5 63q-5 13 -12.5 27.5t-11.5 27.5q-2 -5 -3.5 -9t-2.5 -8q-18 -43 -34.5 -92.5t-32.5 -110.5q-21 7 -34.5 11t-15.5 4q-5 0 -33 -8l-70 -20q53 101 88 177.5t61 139.5l16 38q-35 2 -72.5 4.5t-64.5 2.5q-3 -15 -7 -26
q-5 -19 -9.5 -37.5t-8.5 -35.5q-7 -27 -14 -59t-13.5 -65.5t-13 -65.5t-12.5 -59q-24 6 -41.5 10t-21.5 4t-29.5 -5t-60.5 -12q6 18 15 47.5t19.5 65.5t21.5 75t20 75zM500 627q0 -1 1 -2.5t2 -3.5l8 17q-2 -2 -4 -3.5t-4 -3.5t-3 -4z" />
    <glyph glyph-name="minus" unicode="&#x2212;" horiz-adv-x="719" 
d="M54 324h639l-30 -121h-639z" />
    <glyph glyph-name="fi" unicode="&#xfb01;" horiz-adv-x="618" 
d="M415 595q-16 8 -29 12.5t-24 4.5q-35 0 -54 -19t-26 -42h1q-2 -10 -4 -23.5t-5 -35.5h62h17t22 0.5t21 0.5h14l-27 -54q-1 -8 -5 -15v-41h-8.5t-14 0.5t-15 0.5h-11.5h-27q-6 0 -10.5 0.5t-9.5 0.5q-7 1 -14 1h-14q-12 -47 -24 -98t-23.5 -102.5t-22.5 -101.5t-21 -96
q-27 5 -48 8.5t-29 3.5q-5 0 -20 -2t-37 -5q-3 -1 -10 -2t-14.5 -2.5t-14 -2.5t-8.5 -1q15 46 30.5 96.5t30 102t28.5 102.5t26 98h-7h-27h-14t-18 -0.5t-16.5 -0.5h-9.5l26 58q0 2 1 4q0 1 -0.5 1.5t1.5 4.5q1 6 3.5 19t5.5 23h41q9 0 16.5 -0.5t13.5 -0.5h13q10 27 26 57
t36.5 58.5t44.5 53t50 42.5q27 18 66 32t79 14q6 0 23.5 -3.5t41.5 -8.5q-2 -7 -5 -18t-6 -22.5t-5 -20.5t-3 -12q-3 -7 -6 -18.5t-7 -35.5zM401 302q9 35 18 83.5t17 117.5q30 -5 51 -7.5t32 -2.5t38.5 3.5t71.5 9.5q-31 -78 -49 -134t-26 -88q-5 -23 -11.5 -47t-11.5 -47
q-9 -35 -18 -86t-16 -115q-61 11 -83 11q-8 0 -25 -2t-40 -5q-4 -1 -11 -2t-14.5 -2.5t-13 -3t-6.5 -1.5q33 86 49 138.5t25 86.5zM466 625q4 15 14 28.5t24.5 23t31.5 15.5t35 6q41 0 63.5 -27t15.5 -65q-5 -14 -15.5 -26.5t-24 -23t-30 -16.5t-32.5 -6q-21 0 -38 7
t-28.5 19t-16 28.5t0.5 35.5v1z" />
    <glyph glyph-name="fl" unicode="&#xfb02;" horiz-adv-x="625" 
d="M418 595q-17 8 -29.5 12.5t-23.5 4.5q-35 0 -54.5 -19t-26.5 -42h1q-2 -10 -4 -23.5t-4 -35.5h61h17t22 0.5t21 0.5h14l-28 -58v3q-1 -4 -2.5 -8t-0.5 -2v-45h-9.5t-14 0.5t-15 0.5h-11.5h-27q-6 0 -10.5 0.5t-9.5 0.5q-7 1 -14 1h-14q-11 -47 -23 -98t-24 -102.5
t-23 -101.5t-21 -96q-27 5 -48 8.5t-29 3.5q-5 0 -20 -2t-36 -5q-3 -1 -10.5 -2t-15 -2.5t-14 -2.5t-8.5 -1q15 46 30.5 96.5t30.5 102t28.5 102.5t25.5 98h-7h-27h-14t-18 -0.5t-16.5 -0.5h-9.5l27 58v4q0 1 1 6q1 6 3.5 19t5.5 23h42q8 0 15.5 -0.5t13.5 -0.5h13
q10 27 26 57t36.5 58.5t44.5 53t50 42.5q27 18 66 32t79 14q6 0 23.5 -3.5t41.5 -8.5q-2 -7 -5 -18t-6 -22.5t-5 -20.5t-3 -12q-3 -7 -5.5 -18.5t-7.5 -35.5zM451 462q7 29 15 65t16 75t15 78t12 73q30 -5 50.5 -8t30.5 -3q11 0 39.5 3.5t66.5 11.5q-11 -32 -24 -74
t-26 -85.5t-24.5 -84.5t-18.5 -70q-10 -40 -20 -81t-20 -81q-7 -30 -15.5 -66t-16.5 -74t-15 -77t-12 -75q-28 5 -49.5 8t-31.5 3q-5 0 -24 -2.5t-43 -5.5h-6.5t-12 -0.5t-12 -0.5h-6.5q10 29 23 69.5t25.5 83.5t24 84t19.5 71z" />
    <glyph glyph-name="glyph222" horiz-adv-x="720" 
d="M343 162q0 -2 -1.5 -6t-1.5 -5v-7h-4v10q4 4 7 8zM288 144q4 7 4 18h15q-7 0 -7 -8q0 -25 3 -32h4q2 5 7 14h4v-14h-11q-1 0 -2.5 1t-2.5 3t-2 3h-8q0 1 -2 6t-2 9zM374 110v15q3 0 5 1.5t3 2.5v-13q2 -1 4 -2.5t6 -3.5l1 -16q-6 7 -19 16zM89 627q24 7 64 7q25 0 37 -7
q10 -7 34 -7q19 9 22 18q29 0 33 24l9 4q2 3 7 5q5 0 5 2q5 2 7.5 6.5t10.5 4.5q1 3 7 6q7 2 7 5q32 0 32 18q8 0 13 6q4 7 12 7q1 2 9.5 5t8.5 6q7 0 10 3q12 8 16 8l9 4q7 2 7 7q11 0 22 4q11 3 19 3q0 4 7 8q7 2 8 3l89 19l42 -4l15 -8q7 -3 11 -7q10 -7 31 -18l7 -42
q-42 0 -42 5q-5 0 -14 4t-11 4q0 4 -1.5 5.5t-6.5 4.5h-68q-3 -3 -7 -10q-7 0 -21 -4t-21 -4q-13 -9 -18.5 -9t-14.5 -3q-4 0 -8 -6l-6 -6q-10 -3 -8 -3h-4q-1 -3 -8.5 -5l-7.5 -2q-3 0 -5.5 -2t-6.5 -5t-6 -5q-11 0 -15 -10q-5 0 -6 -2.5t-1 -9.5q-6 0 -13.5 -3.5t-8 -3.5
t-6.5 -4.5t-14 -4.5q-2 -1 -7 -2t-8 -6q-2 -1 -4 -4q-2 -5 -3 -6q-11 0 -11 -8q-4 0 -7 -1.5t-6 -4.5l-5 -5q-15 0 -15 -11q-5 0 -13 -7v-11q-4 -3 -6.5 -4t-4.5 -5v-15q6 -7 11 -7v-48q-6 0 -11 -9v-11q-2 -2 -4 -3q-3 -2 -7 -4v-22q-6 -3 -7 -4.5t-1 -10.5q0 -11 -3 -11
l-7 -7q-9 -4 -10.5 -6t-1.5 -10q-9 -4 -15 -8t-8 -11q-11 -11 -44 -11q-17 11 -35 11q-2 3 -7 11h-15q-3 0 -9 4q-7 4 -13 4q0 11 -11 16q0 7 -4 11q-10 0 -21 -1l-11 -1q-4 0 -11 7q-3 2 -6 2v55q2 3 5 5l6 4l4 83q1 0 2.5 1t2.5 3t2 3v15q5 2 6 6t5 4q0 1 10 4.5t10 7.5
q21 7 26 7zM385 132q-4 5 -7 7q-4 1 -15 1v18q6 -6 18 -14q0 -8 4 -12zM400 132q3 -3 3 -7q-3 3 -10 7h7zM403 125h7q5 2 12 10q6 9 10 9q-1 -4 -3.5 -6t-6.5 -6v-14l6 -4t4 -4q-4 0 -10 -7v-13l7 -7h17q1 -6 4 -10q2 -6 18 -12q3 11 3 22q-9 11 -22 11v31q3 0 11 7l-6 6
q-3 2 -5 6q2 -1 12 -5q6 -2 17 -5q6 -2 19 -2v-22q3 -2 6.5 -3.5t4.5 -3.5q0 -16 4 -20h9q3 3 3 14v6q9 0 13 1.5t9 5.5q-7 8 -11 8v14q3 0 11 8v26q-3 2 -6 3.5t-5 5.5q0 8 -1.5 10t-9.5 5q7 0 12.5 5t6.5 5v-10q0 -8 7 -8q3 -10 4 -11.5t7 -4.5q0 -15 8 -22h3q2 2 4 8t3 6
q20 7 20 24q5 0 18 8v-58h-7q-3 -3 -3 -14q-4 -1 -14 -8q10 -7 32 -7q0 -5 -2 -6.5t-5 -6.5v-36q-4 2 -5.5 3.5t-2 3.5t-3.5 7h-20q0 -2 -2 -6q-2 -6 -2 -8q-4 0 -11 -8q7 0 11 -3v-7q-2 -2 -5 -3.5t-6 -4.5v-16q-19 0 -22 -8v-7l1 -1q0 1 -4 1q0 3 -2 8t-2 7q-18 0 -23 -8
v-7q11 -11 22 -11v-7h-7q-12 -5 -21 -7q-4 -1 -10 -1v15q7 0 7 7q0 35 -3 43h-3q-8 -8 -8 -39q-7 0 -11 -4v-14h-26l-4 -8v-38q-10 0 -24 -4q9 -7 14 -7v-18q-6 2 -6 6q0 3 -7 5h-4q-5 -2 -6 -5q-2 -4 -5 -6v18q3 0 11 7q0 57 -7 64h-4q-1 -1 -3 -2l-1 -1l4 3q-4 4 -11 4
q0 31 -7 39h-4q-6 -3 -5 -21q1 -34 1 -31v-55q0 -1 4 -3t4 -4v-7q0 -1 -3.5 -4.5t-3.5 -6.5h-29v25q0 2 -1 3l-4 2q-2 1 -5 3q-2 7 -7 16h-4q-7 -7 -7 -24q3 -2 7 -3l4 -4v-7q-5 -4 -15 -11q3 0 11 11v7q0 7 -18 7q-15 0 -18 -7v-11q0 4 -7 4q0 10 -5 15q-5 4 -16 7v16l-7 4
h-15v14q-6 8 -11 8q-4 12 -22 18v31q11 3 11 15q2 0 5.5 1.5t5.5 1.5q0 19 -4 22h-7q-3 -3 -3 -14q-5 0 -19 -8v44q4 0 7 2t4 2v38h18v-14q-5 0 -7 -4q-2 -2 -3 -4q29 0 36 8v7l-4 4l4 -4h17q0 -31 3 -35h-9l-7 -7v-15q-6 -2 -7 -3.5t-4 -10.5q-4 0 -11 -8h35v-10
q-9 -4 -13 -8q0 -11 7 -24q10 4 21 17v22h7q1 -12 3 -31h8q4 3 4 16q18 0 21 8v7l-7 7l7 4v14q3 -2 8 -3.5t7 -3.5q0 -8 1 -9.5t5 -8.5q27 0 32 11v9h-1q1 -2 5 -2q6 8 6.5 11t0.5 11q3 0 11 7v20q-7 8 -11 8q0 2 -2 4t-2 3zM617 129q2 -1 3 -2l1 -2h8q0 -3 -4 -7h-3
q-5 4 -5 11zM629 125q0 4 3 7q0 -2 -1 -3q-2 -3 -2 -4zM632 132v50q4 0 11 8v10h15l4 8v22h7v-90q-1 -2 -5 -3q-3 -2 -6 -5v-14l-14 -8q0 19 -8 22h-4zM456 -67q2 -1 3 -2l1 -2v3q-1 1 -4 1zM460 -71q4 -1 9 -8l6 -6q0 7 -7 14h-8zM468 -67q3 9 3 31h15q2 -2 3 -4q0 -4 4 -6
q2 -1 4 -1q-2 -2 -5 -3.5t-6 -3.5v-9q0 -5 -3 -5q-3 1 -6 1h-9zM414 -10q-1 -5 -1 -15v-12q0 -20 -2 -26h-4v49q3 0 7 4zM307 -89l3 -4q0 3 -1 4h-2zM310 -93q4 0 8 -3q-8 0 -8 3zM264 129q-3 0 -7 3v12l-7 7h-15v15q11 0 11 9v7q-1 3 -5.5 5t-5.5 3v10q-6 8 -11 8
q3 0 7 2.5t4 4.5v7q0 3 -4 4q-5 2 -7 4v34h8v-16l3 -7h15v-33q-8 0 -8 -8v-7q0 -3 8 -3v-24q2 -1 6 -4t5 -4v-26zM296 90q4 4 4 20h13q-2 -1 -3.5 -3t-2.5 -4v-31q-1 1 -3 2.5t-4 1.5q0 7 -4 14zM307 72l4.5 -2t6.5 -2h-8q-1 1 -1 2zM318 68q1 7 7 15v-15h-7zM531 237
q2 -2 3 -4l4 -2q2 -1 4 -1l1 -15h-18q0 8 -1.5 10t-11.5 5q0 34 -4 42h-3q-4 -2 -5 -8q-2 -6 -3 -7h-4v15h15q1 6 4 14h9v-14q8 -8 11 -8zM511 305q0 7 -6 7q-8 -7 -12 -7v14h15q0 -3 1.5 -8t1.5 -6zM300 290h-12q0 -2 -1.5 -6t-1.5 -5q-27 -7 -28 -7v25h15l7 8v14
q27 0 31 20q18 5 22 22h15q0 -29 7 -34h4q6 5 6 20q7 4 10 7v15q9 -8 11 -8h8q-1 0 7 8q0 -18 7 -22h4l3.5 7l3.5 7h15q1 -5 4 -11q1 -1 9 -3q-14 0 -14 -8v-7q4 -5 36 -5v-15h-39q-2 2 -3 8q-3 6 -4 7h-4q-2 -5 -7 -15h-4q-2 3 -7 15h-15q0 -6 -3 -15h-8q0 4 -3 15h-28
q-2 -6 -7 -15q-10 0 -20 -8z" />
    </font>
</defs>
</svg>
