<?xml version="1.0" standalone="no"?>
<!DOCTYPE svg PUBLIC "-//W3C//DTD SVG 1.1//EN" "http://www.w3.org/Graphics/SVG/1.1/DTD/svg11.dtd" >
<svg xmlns="http://www.w3.org/2000/svg" xmlns:xlink="http://www.w3.org/1999/xlink" version="1.1">
<metadata>
Created by FontForge 20170731 at Mon Apr 12 07:35:26 2004
 By Aleksey,,,
Copyright (c) LDO Fonts, 2004. All rights reserved.
</metadata>
<defs>
<font id="OregonLDODemiBoldSinistral" horiz-adv-x="176" >
  <font-face 
    font-family="Oregon LDO DemiBold Sinistral"
    font-weight="600"
    font-style="italic"
    font-stretch="normal"
    units-per-em="1000"
    panose-1="2 11 7 3 6 4 2 2 2 4"
    ascent="800"
    descent="-200"
    x-height="480"
    cap-height="687"
    bbox="-91 -296 1053 913"
    underline-thickness="50"
    underline-position="-150"
    slope="-12"
    unicode-range="U+0020-FB02"
  />
<missing-glyph horiz-adv-x="278" 
 />
    <glyph glyph-name=".notdef" horiz-adv-x="278" 
 />
    <glyph glyph-name=".null" horiz-adv-x="0" 
 />
    <glyph glyph-name="nonmarkingreturn" horiz-adv-x="278" 
 />
    <glyph glyph-name="space" unicode=" " horiz-adv-x="278" 
 />
    <glyph glyph-name="space" unicode="&#xa0;" horiz-adv-x="278" 
 />
    <glyph glyph-name="exclam" unicode="!" horiz-adv-x="174" 
d="M105 166q-6 19 -17.5 58.5t-26.5 88t-30.5 101.5t-29 99.5t-23.5 81t-12 46.5q-7 31 8 44t36 13q22 0 42 -13t27 -44q1 -6 4.5 -31t8.5 -62.5t11 -85t12.5 -98t13 -102t12.5 -96.5h-36zM82 53q-5 26 10 46t41 20q13 0 26 -5.5t24 -14.5t18.5 -21t10.5 -25
q6 -26 -9.5 -45.5t-41.5 -19.5t-49.5 19.5t-29.5 45.5z" />
    <glyph glyph-name="quotedbl" unicode="&#x22;" horiz-adv-x="289" 
d="M4 698h70l63 -299h-70zM149 698h70l63 -299h-70z" />
    <glyph glyph-name="numbersign" unicode="#" horiz-adv-x="442" 
d="M121 420h-77q5 20 6.5 50t-2.5 49h73q-1 45 -1.5 71t-1 40t-1 21t-1.5 13q24 -7 31 -7t36 9q-3 -11 -5 -19.5t-2.5 -23.5t-0.5 -39t1 -65h91q-2 60 -2 87.5t-1 40.5l1 -1q-1 1 -2 9t-1 9q24 -7 31 -7q6 0 36 9q-3 -11 -5 -19.5t-2.5 -23.5t-0.5 -39t1 -65h74
q-2 -10 -3.5 -23t-2.5 -27t0 -27t3 -22h-72q-1 -49 -1 -91t1 -92h75q-2 -10 -3 -23t-1.5 -27t0.5 -27t3 -22h-72q1 -36 1 -60v-40.5v-25.5v-15q-11 0 -18.5 1.5t-10.5 1.5q-4 0 -13.5 -1.5t-20.5 -1.5q2 8 3 15.5t1.5 22t1 38.5t0.5 65h-90q1 -36 1 -60v-40.5v-25.5v-15
q-10 0 -18 1.5t-11 1.5q-4 0 -13.5 -1.5t-20.5 -1.5q2 8 3 15.5t2 22t1 38.5v65h-75q5 20 6 50t-4 49h73v183zM267 420h-92q-1 -49 -1 -91t1 -92h91z" />
    <glyph glyph-name="dollar" unicode="$" horiz-adv-x="442" 
d="M201 298q-47 17 -83 35t-61.5 39.5t-42 49t-23.5 64.5q-15 72 20.5 121.5t110.5 62.5q-4 16 -11 35t-21 47q14 -5 25 -7.5t19 -2.5q7 0 16 2.5t21 7.5q-2 -27 0 -45.5t5 -33.5q62 -2 100 -19t63 -33q-6 -19 -9 -39.5t-3 -50.5h-27q-6 12 -16.5 25.5t-24.5 26t-32 21.5
t-39 12l49 -231q46 -17 82.5 -33.5t63.5 -37.5t44 -47.5t25 -62.5q8 -38 4 -72t-20.5 -62.5t-45 -48.5t-69.5 -29q5 -25 12.5 -51t21.5 -64q-13 4 -22.5 6.5t-17.5 2.5t-16.5 -2.5t-19.5 -6.5q0 27 -3 55.5t-8 51.5h-17q-47 0 -92.5 14.5t-92.5 46.5q5 25 4.5 45t-4.5 50h27
q22 -29 43.5 -48t42 -30.5t40 -16t37.5 -5.5zM309 49q36 13 50 46t5 74q-3 14 -8 27t-16.5 26t-30 26.5t-48.5 27.5zM134 613q-32 -9 -47 -36t-7 -65q16 -75 98 -107z" />
    <glyph glyph-name="percent" unicode="%" horiz-adv-x="851" 
d="M-12 502q-8 37 -3 68t22 54t44.5 36t65.5 13q37 0 70.5 -13t60.5 -36t45.5 -54t26.5 -68t2.5 -68.5t-22.5 -54t-45 -35.5t-65 -13q-38 0 -71 13t-60 35.5t-45.5 54t-25.5 68.5zM530 156q-8 37 -2.5 68t22.5 54t44.5 36t65.5 13q37 0 70.5 -13t60.5 -36t45.5 -54t26.5 -68
t2.5 -68.5t-22.5 -54.5t-45 -36t-65 -13q-38 0 -71 13t-60 36t-45.5 54.5t-26.5 68.5zM499 697q9 -3 17 -5t13 -2t15 3.5t25 9.5l-221 -743q-9 3 -16.5 5t-12.5 2q-10 0 -41 -13zM79 502q5 -25 14.5 -48.5t22.5 -41.5t29 -28.5t36 -10.5q19 0 31 10.5t17.5 28.5t5 41.5
t-5.5 48.5q-6 25 -15.5 48t-22.5 41t-29.5 28.5t-35.5 10.5q-20 0 -31.5 -10.5t-17 -28.5t-5 -41t6.5 -48zM621 156q6 -26 15.5 -49t22 -41t29 -28.5t35.5 -10.5t31.5 10.5t18 28.5t5 41t-6.5 49q-5 25 -14.5 48t-22.5 41t-29.5 28.5t-35.5 10.5t-31 -10.5t-17.5 -28.5
t-5 -41t5.5 -48z" />
    <glyph glyph-name="ampersand" unicode="&#x26;" horiz-adv-x="641" 
d="M94 517q-7 33 -1 61.5t22.5 49.5t43.5 33t62 12q61 0 106.5 -30t57.5 -89q6 -28 -0.5 -53.5t-20.5 -47.5t-33 -40.5t-37 -31.5q5 -5 9 -9.5t9 -9.5q46 -48 90 -91t88 -83q24 47 42 94t33 105q15 -23 31 -36.5t30 -21.5q-21 -51 -43 -96.5t-49 -87.5q38 -35 84 -75.5
t82 -74.5q-22 0 -28.5 0.5t-10.5 1.5h1q-24 3 -47 3q-10 0 -21 -1t-22 -3q-3 0 -9 -0.5t-9 -0.5q-11 14 -30.5 35.5t-42.5 42.5q-17 -21 -35.5 -38t-41 -28.5t-50 -18t-62.5 -6.5q-39 0 -77 11t-69.5 33t-54 55t-31.5 76q-7 32 -0.5 63t23.5 59t44 51t60 39q-36 40 -60.5 76
t-32.5 72zM155 174q5 -24 20 -47t36 -40.5t48 -28t56 -10.5q44 0 73.5 16t54.5 45q-58 56 -111.5 108.5t-108.5 111.5q-40 -29 -59.5 -65t-8.5 -90zM315 555q-7 31 -29 51t-54 20q-34 0 -48.5 -23.5t-7.5 -58.5q6 -26 28.5 -61t51.5 -66q39 29 53 66t6 72z" />
    <glyph glyph-name="quotesingle" unicode="'" horiz-adv-x="144" 
d="M2 698h70l63 -299h-70z" />
    <glyph glyph-name="parenleft" unicode="(" horiz-adv-x="215" 
d="M121 672q-27 -48 -40.5 -94t-16.5 -93t3 -97t18 -105q12 -56 27 -105.5t38 -97t56 -93t80 -93.5l-25 -30q-103 89 -167.5 197t-88.5 222q-11 54 -12.5 110t8 110t29.5 104.5t51 94.5z" />
    <glyph glyph-name="parenright" unicode=")" horiz-adv-x="215" 
d="M92 -106q27 48 40.5 93.5t16.5 93t-2.5 97t-17.5 105.5q-12 55 -27.5 105t-38.5 97t-55.5 93t-79.5 94l25 30q102 -89 166.5 -197t89.5 -222q11 -54 12.5 -110t-8 -110t-30 -104.5t-51.5 -94.5z" />
    <glyph glyph-name="asterisk" unicode="*" horiz-adv-x="366" 
d="M104 688q14 -5 23 -6t17 -1t16.5 1t21.5 6l15 -144q24 22 50.5 45t49.5 42q8 -21 22 -40t34 -30l-122 -61q33 -15 74 -31.5t72 -30.5q-12 -10 -19.5 -27.5t-5.5 -39.5l-136 82q11 -34 22.5 -71.5t20.5 -68.5q-11 2 -20.5 4.5t-17.5 2.5q-5 0 -15 -2.5t-23 -4.5l-17 141
q-23 -20 -49 -43t-48 -42q-8 23 -22.5 40.5t-31.5 28.5l118 62q-36 14 -74.5 30t-71.5 30q10 11 17.5 30t2.5 42l140 -88z" />
    <glyph glyph-name="plus" unicode="+" horiz-adv-x="512" 
d="M-7 291h220l-47 220h70l47 -220h221l15 -70h-221l47 -221h-70l-47 221h-221z" />
    <glyph glyph-name="comma" unicode="," 
d="M56 86q2 14 10.5 28.5t32.5 14.5q14 0 31.5 -9.5t22.5 -32.5q3 -12 1 -22.5t-6 -20.5q0 -1 -0.5 -2t-0.5 -3l1 2q-19 -51 -40 -106.5t-41 -106.5l-37 13z" />
    <glyph glyph-name="hyphen" unicode="-" horiz-adv-x="336" 
d="M28 274h261l17 -80h-261z" />
    <glyph glyph-name="period" unicode="." 
d="M22 53q-6 26 9 46t41 20t50 -20t30 -46q5 -26 -10.5 -45.5t-41.5 -19.5q-13 0 -26 5t-23.5 14t-18 21t-10.5 25z" />
    <glyph glyph-name="slash" unicode="/" horiz-adv-x="334" 
d="M192 705q11 -3 18 -5t14 -2q8 0 17.5 2.5t21.5 7.5l-122 -732q-21 6 -32 6q-17 0 -39 -9z" />
    <glyph glyph-name="zero" unicode="0" horiz-adv-x="534" 
d="M29 329q-14 70 -15 132.5t17 109.5t57 74.5t105 27.5q73 0 125 -27.5t88 -74.5t59 -109.5t38 -132.5q15 -68 14 -130.5t-19.5 -110t-57.5 -76t-100 -28.5q-73 0 -125 27.5t-88.5 74.5t-59.5 109.5t-38 133.5zM128 329q13 -63 31.5 -116.5t43.5 -93t56 -62t70 -22.5
t60.5 22.5t29 62t3 93t-17.5 116.5q-13 62 -31.5 115.5t-43 93t-55.5 62t-70 22.5t-61 -21t-30 -59t-3.5 -92t18.5 -121z" />
    <glyph glyph-name="one" unicode="1" horiz-adv-x="278" 
d="M86 583q-23 -14 -49 -30t-47 -30q-9 13 -20.5 23t-22.5 17l-4 18q52 23 106 51t101 54l19 -9q11 -64 22.5 -130t25.5 -130l34 -162q14 -63 30.5 -131t33.5 -131q-17 3 -30.5 5t-26.5 2q-12 0 -26 -2t-29 -5q-10 63 -22 131t-26 131z" />
    <glyph glyph-name="two" unicode="2" horiz-adv-x="480" 
d="M11 567q22 55 62.5 80.5t104.5 25.5q40 0 78 -10.5t69 -33t53.5 -56.5t32.5 -82q7 -34 5.5 -63.5t-11.5 -57.5t-27 -56.5t-41 -60.5q-6 -7 -11.5 -14.5t-11.5 -15.5q-12 -16 -26.5 -34.5t-29.5 -38t-28 -38t-22 -33.5h73q70 0 130 3t101 5q-1 -14 -0.5 -26t2.5 -20
t6.5 -20.5t11.5 -26.5q-53 2 -112 4t-111 2q-53 0 -109 -1.5t-109 -3.5l-6 28q54 67 93 118.5t65.5 92t41.5 73t21.5 61.5t5 57t-8.5 61q-7 34 -20 58.5t-30 40.5t-37 24t-40 8q-29 0 -47 -11t-28.5 -27.5t-14 -34.5t-2.5 -33l-20 -2z" />
    <glyph glyph-name="three" unicode="3" horiz-adv-x="459" 
d="M-4 608q9 11 21 22.5t28.5 21t38.5 15.5t50 6q40 0 77.5 -9t68.5 -28t52.5 -48.5t30.5 -69.5q7 -32 2.5 -57.5t-15.5 -45.5t-28 -34.5t-35 -23.5q25 -5 52.5 -15t52 -28.5t43 -46.5t27.5 -67q10 -46 0 -85.5t-38 -68.5t-72 -45.5t-102 -16.5q-52 0 -93.5 12.5t-74.5 26.5
q2 11 2.5 31.5t-1.5 37.5l15 11q11 -11 27 -22.5t34.5 -22t39.5 -17t42 -6.5q69 0 98.5 42.5t15.5 110.5q-16 75 -57 105t-98 30q-9 0 -24.5 -3t-29.5 -7q-1 11 -1.5 20t-2.5 14q-1 4 -4 13t-6 19q16 -2 31 -4t26 -2q31 0 47.5 13.5t23.5 33.5t5.5 44.5t-6.5 47.5
q-6 29 -18.5 49.5t-28.5 34t-34.5 20t-35.5 6.5q-37 0 -59.5 -24t-25.5 -54l-20 -2z" />
    <glyph glyph-name="four" unicode="4" horiz-adv-x="508" 
d="M26 204q30 60 63.5 126.5t64 129.5t56.5 118t42 91q12 -3 22 -5t16 -2q7 0 17 2.5t23 6.5q7 -42 16.5 -93.5t20 -107t22.5 -111.5t23 -108q26 0 50 3t46 8q-2 -32 1 -45q2 -8 6.5 -19t11.5 -26q-23 5 -49 7t-52 2l7 -31q7 -33 16 -68.5t17 -61.5q1 -4 3 -13.5t3 -13.5
q-17 3 -30 5t-24 2q-17 0 -51 -8q-2 14 -5 33.5t-6.5 41t-7 43.5t-7.5 40l-7 31q-26 0 -69.5 -1t-88.5 -2t-84.5 -2t-58.5 -2zM257 538q-15 -30 -34.5 -69.5t-38.5 -79t-36 -76.5t-27 -62h199z" />
    <glyph glyph-name="five" unicode="5" horiz-adv-x="461" 
d="M131 390q15 8 36 13t59 5q45 0 84.5 -15.5t70.5 -42t52.5 -61t29.5 -73.5q10 -48 0.5 -90.5t-36 -74t-69 -49.5t-98.5 -18q-44 0 -88.5 10t-86.5 34l-3 15q3 12 3.5 30.5t-1.5 33.5h22q26 -36 68 -54t79 -18q27 0 50 10t38 31t19.5 53t-4.5 76q-8 39 -24.5 66t-38 44
t-46 25t-48.5 8q-19 0 -34.5 -4t-27 -10t-19 -11.5t-11.5 -8.5l-25 14q-2 42 -9.5 84.5t-15.5 84.5q-8 38 -19.5 82.5t-24.5 82.5l15 12q11 -2 26 -3.5t33 -3.5q20 -2 50 -2.5t68 -0.5q45 0 83.5 0.5t56.5 1.5l14 -12q-1 -16 0.5 -30.5t3.5 -25.5q2 -5 3 -10t6 -19
q-26 4 -62.5 7t-75 4.5t-74 2.5t-59.5 1z" />
    <glyph glyph-name="six" unicode="6" horiz-adv-x="491" 
d="M328 627l-12 -14q-14 4 -27.5 6.5t-26.5 2.5q-49 0 -78.5 -28t-44.5 -71t-17 -93t4 -94q17 27 47.5 48.5t83.5 21.5q27 0 63.5 -8t72.5 -29.5t65.5 -59t41.5 -95.5q11 -51 4 -93.5t-30 -72.5t-61.5 -47t-89.5 -17q-44 0 -88 15.5t-82 50t-68.5 90t-47.5 134.5q0 2 -1 3
q-17 81 -13 153t29.5 126t73.5 85.5t119 31.5h6q17 0 27 -1t21 -3zM399 193q-15 70 -52 114t-95 44q-26 0 -47 -11.5t-33.5 -32.5t-16.5 -50t4 -64q7 -35 22.5 -64t36.5 -50t45 -32.5t50 -11.5q57 0 79 44t7 114z" />
    <glyph glyph-name="seven" unicode="7" horiz-adv-x="464" 
d="M400 630q-56 -149 -113 -314t-103 -323q-14 3 -25 5t-20 2q-15 0 -53 -11q30 73 62.5 156.5t63 163t56.5 148.5t42 114q-48 0 -133.5 -2t-197.5 -9q-1 15 -2 30.5t-3 23.5t-7 23t-11 31q40 -3 78.5 -5.5t65.5 -3.5q16 0 40.5 -0.5t50.5 -1t51 -0.5h43q15 0 28 0.5t25 0.5
h56z" />
    <glyph glyph-name="eight" unicode="8" horiz-adv-x="505" 
d="M55 184q-12 59 7.5 108t85.5 77q-20 7 -40 19.5t-37.5 30t-31 40t-19.5 49.5q-7 33 0.5 62.5t28 52.5t53 36.5t76.5 13.5q51 0 90.5 -13t68 -34t46 -48.5t23.5 -57.5q9 -44 -6.5 -84t-57.5 -61q21 -6 45.5 -17.5t47.5 -31.5t41.5 -49.5t27.5 -70.5q11 -50 2 -91
t-33.5 -70t-62.5 -45t-85 -16q-48 0 -92.5 13.5t-80.5 39t-61.5 62.5t-35.5 85zM403 189q-7 33 -21.5 61.5t-34.5 48.5t-45 31.5t-53 11.5q-57 0 -80.5 -43t-9.5 -110q7 -34 21.5 -62t35 -48.5t45.5 -32t53 -11.5q57 0 80 43t9 111zM309 507q-5 24 -14.5 44.5t-24.5 36.5
t-35 25t-45 9t-40.5 -9t-24 -25t-9.5 -36.5t4 -44.5q5 -23 15 -44t25 -36.5t34.5 -24.5t44.5 -9t41 9t24.5 24.5t9 36.5t-4.5 44z" />
    <glyph glyph-name="nine" unicode="9" horiz-adv-x="498" 
d="M137 79q26 -20 53.5 -32t52.5 -12q46 0 75 24.5t43 64t15 90.5t-9 105q-18 -32 -50 -49.5t-83 -17.5q-92 0 -156.5 53t-84.5 150q-10 46 -3 86t30.5 69.5t61.5 46t89 16.5q45 0 90 -15.5t83.5 -50t69 -90t47.5 -134.5q18 -83 13 -156t-31.5 -127t-75 -85t-118.5 -31
q-26 0 -51 6t-39 11q-5 14 -16 32.5t-22 32.5zM331 480q-7 31 -21 57.5t-33.5 45t-44 29t-51.5 10.5q-53 0 -77 -45t-7 -122q17 -78 53.5 -113t87.5 -35q31 0 52.5 14.5t32.5 39t13 55.5t-5 64z" />
    <glyph glyph-name="colon" unicode=":" horiz-adv-x="185" 
d="M-11 409q-6 26 9 45.5t41 19.5t49.5 -19.5t29.5 -45.5q5 -26 -10.5 -45.5t-41.5 -19.5t-49 19.5t-28 45.5zM63 53q-5 26 10 46t41 20q13 0 26 -5.5t24 -14.5t18.5 -21t10.5 -25q6 -26 -9.5 -45.5t-41.5 -19.5t-49.5 19.5t-29.5 45.5z" />
    <glyph glyph-name="semicolon" unicode=";" horiz-adv-x="192" 
d="M96 86q2 14 11 28.5t33 14.5q14 0 32 -9.5t23 -32.5q3 -12 0 -22.5t-6 -20.5q-1 -1 -1 -2t-1 -3l2 2q-20 -51 -40.5 -106.5t-39.5 -106.5l-38 13zM4 409q-5 26 10 45.5t41 19.5t49.5 -19.5t29.5 -45.5q5 -26 -10.5 -45.5t-41.5 -19.5q-13 0 -26 5t-23.5 14t-18 21
t-10.5 25z" />
    <glyph glyph-name="less" unicode="&#x3c;" horiz-adv-x="549" 
d="M-8 288l461 239l15 -72l-391 -199q118 -49 238 -99.5t238 -100.5l15 -72l-563 242z" />
    <glyph glyph-name="equal" unicode="=" horiz-adv-x="559" 
d="M539 315h-512l-15 70h512zM579 126h-512l-15 70h512z" />
    <glyph glyph-name="greater" unicode="&#x3e;" horiz-adv-x="548" 
d="M79 56l390 200q-118 49 -237 99.5t-237 99.5l-15 72l562 -241l13 -62l-461 -240z" />
    <glyph glyph-name="question" unicode="?" horiz-adv-x="286" 
d="M-54 661q19 14 42.5 25.5t59.5 11.5q37 0 68 -11t54.5 -30t38.5 -44t21 -53q6 -30 3 -54.5t-12.5 -46.5t-23.5 -41t-28 -37q-11 -14 -21 -28.5t-17.5 -29t-10.5 -29.5t1 -31q3 -16 16.5 -31.5t33.5 -15.5q10 0 18 4l12 6l25 -12q-5 -8 -8 -18.5t-2 -18.5q-19 -8 -42 -8
q-13 0 -34 6t-42 20t-38.5 36.5t-24.5 55.5q-6 27 -2.5 49.5t12.5 42.5t22 37.5t27 34.5q22 28 39 57.5t10 64.5q-8 32 -35 51t-54 19q-23 0 -44.5 -17t-38.5 -43zM118 53q-5 26 10.5 46t41.5 20q13 0 26 -5.5t24 -14.5t18.5 -21t10.5 -25q6 -26 -9.5 -45.5t-41.5 -19.5
t-50 19.5t-30 45.5z" />
    <glyph glyph-name="at" unicode="@" horiz-adv-x="685" 
d="M397 527h72q0 -96 0.5 -151t1 -83.5t1.5 -38.5t2 -15q5 -24 27 -24q18 0 35.5 13.5t30 37.5t17 56.5t-3.5 70.5q-10 46 -29 84.5t-50.5 66.5t-77.5 43.5t-110 15.5q-56 0 -99 -23t-69.5 -63t-34.5 -94.5t6 -116.5q12 -56 38 -97.5t63 -69.5t83 -42t96 -14q34 0 65 8
t58 21t49.5 29.5t40.5 32.5l8 -57q-11 -12 -30.5 -27.5t-49 -29.5t-67.5 -23.5t-85 -9.5q-50 0 -105 18.5t-105.5 57t-89.5 97t-56 138.5q-12 60 0 116.5t47 100.5t93 71t137 27q82 0 141.5 -21t99 -54.5t62.5 -77t32 -88.5q12 -55 3 -100t-31 -77t-52.5 -49.5t-63.5 -17.5
q-38 0 -56 14t-28 40q-14 -23 -35.5 -38.5t-52.5 -15.5q-56 0 -93 35t-52 105q-11 50 -5 92t24.5 72.5t48.5 47.5t68 17q23 0 45 -9t37 -26zM389 423q-6 27 -19.5 45t-43.5 18q-26 0 -41.5 -18t-22.5 -45t-7 -59t6 -60q8 -39 22.5 -59.5t43.5 -20.5q26 0 41 22t21.5 53
t5.5 65.5t-6 58.5z" />
    <glyph glyph-name="A" unicode="A" horiz-adv-x="662" 
d="M276 698q26 -40 56 -87.5t59 -95.5q47 -75 98 -155t97.5 -152t84.5 -129.5t58 -86.5q-46 8 -69 8q-11 0 -26 -2t-33 -5q-24 51 -56.5 105t-64.5 105q-9 16 -17 27.5t-17 25.5q-29 1 -60 1.5t-60 0.5q-30 0 -56 -0.5t-56 -1.5q-14 -72 -24 -140.5t-14 -122.5q-14 3 -25 5
t-19 2q-9 0 -22 -2.5t-29 -6.5q42 172 84 353t80 354h31zM272 533q-12 -57 -23 -106.5t-23 -106.5q10 0 19.5 -0.5t19.5 -0.5q13 -1 26 -1h26h47.5t47.5 1z" />
    <glyph glyph-name="B" unicode="B" horiz-adv-x="520" 
d="M27 425q-13 63 -30 131t-33 130q31 -3 60 -4t54 -1q13 0 25 0.5t26 0.5q13 1 25.5 2t25.5 1q43 0 84 -7t74 -24t56.5 -45.5t32.5 -72.5q14 -63 -11 -104t-76 -64q71 -12 118 -52t63 -116q12 -56 -3 -95t-46.5 -63.5t-74.5 -35.5t-87 -11q-12 0 -24.5 0.5t-25.5 1.5
q-11 1 -22.5 2t-23.5 1q-49 0 -104 -6q-11 64 -22 132.5t-25 131.5zM165 242q8 -33 16 -65.5t16 -65.5q2 -11 6 -27.5t7 -29.5q39 -3 88 -3q30 0 54.5 10t40 29.5t21.5 48t-2 65.5q-8 39 -27.5 63.5t-49.5 39t-69.5 20t-85.5 5.5h-34zM178 387q33 0 63 6t51.5 21t31.5 40
t2 63q-8 36 -26.5 58t-42.5 34.5t-51 16.5t-53 4q-40 0 -65 -3q2 -13 5.5 -27t5.5 -26l10 -62t12 -62l14 -63h43z" />
    <glyph glyph-name="C" unicode="C" horiz-adv-x="655" 
d="M665 43q-8 -8 -26.5 -18.5t-44 -20t-58 -16t-69.5 -6.5q-79 0 -151 24t-130 70t-99.5 112.5t-59.5 151.5t-5 151.5t52.5 112.5t103 70t146.5 24q63 0 124.5 -15t110.5 -36q-5 -17 -6 -38.5t-1 -36.5q1 -3 1.5 -8t0.5 -6l-18 -2q-13 11 -33.5 26t-46.5 28.5t-56.5 23
t-63.5 9.5q-55 0 -99 -18t-71 -55t-34.5 -94.5t9.5 -135.5q16 -78 48.5 -135t75 -94t94 -55t106.5 -18q33 0 61 9t50.5 22t39.5 27.5t29 25.5l17 -14z" />
    <glyph glyph-name="D" unicode="D" horiz-adv-x="706" 
d="M32 424q-14 63 -30 131t-33 131q37 -2 78.5 -3.5t78.5 -1.5q18 0 36 0.5t36 0.5q19 1 37 2t36 1q88 0 155.5 -23t117 -65.5t81 -104t48.5 -138.5q21 -100 1 -168.5t-64.5 -111t-105 -61t-119.5 -18.5q-17 0 -33 0.5t-33 1.5q-16 1 -32.5 2t-32.5 1q-33 0 -70.5 -2
t-69.5 -4q-11 63 -22 131.5t-25 131.5zM166 257q11 -52 22 -100t25 -99q23 -4 55 -5.5t65 -1.5q52 0 101 12.5t83 46t47 92.5t-6 152q-18 82 -49 134.5t-73 83t-93.5 42t-108.5 11.5q-41 0 -75.5 -2.5t-63.5 -6.5q7 -45 16 -93t20 -99z" />
    <glyph glyph-name="E" unicode="E" horiz-adv-x="416" 
d="M26 425q-13 63 -29.5 131t-32.5 130q45 -2 92.5 -3.5t91.5 -1.5t93 1.5t92 3.5q0 -14 0.5 -24t1.5 -15q2 -5 5.5 -15.5t9.5 -24.5q-14 1 -34 2.5t-31 2.5q-21 1 -41.5 2.5t-43.5 3t-50.5 2t-61.5 0.5q2 -11 3 -19t3 -19v1q3 -17 6 -35.5t8 -40.5q5 -23 10 -45t9 -41
l7 -33q83 0 137.5 3t99.5 8q1 -15 1.5 -25.5t2.5 -15.5q1 -5 4.5 -15.5t8.5 -24.5q-28 3 -62 5t-68 3t-63.5 1.5t-48.5 0.5q2 -5 2.5 -11.5t2.5 -14.5q3 -16 8.5 -40t14.5 -66q12 -56 18.5 -86.5t11.5 -49.5q32 0 67 0.5t70 2t67.5 4.5t59.5 9q-1 -13 0 -24.5t3 -18.5
q1 -9 14 -39q-45 2 -94.5 4t-94.5 2t-93 -2t-93 -4q-11 64 -22.5 132.5t-25.5 131.5z" />
    <glyph glyph-name="F" unicode="F" horiz-adv-x="413" 
d="M26 424q-13 63 -29.5 131t-32.5 131q44 -2 92 -3.5t92 -1.5q45 0 95 1.5t103 3.5q0 -14 0.5 -24t1.5 -15q2 -5 5 -15.5t10 -24.5q-28 3 -65 5t-76 3.5t-75 3t-62 1.5l1 -4q10 -59 22 -113q4 -18 7.5 -33.5t6.5 -31.5l11 -48q63 0 125.5 2t125.5 9q0 -14 0.5 -24.5
t1.5 -15.5t5.5 -16.5t9.5 -23.5q-56 6 -124 7.5t-132 1.5l16 -73q14 -63 31 -132t34 -132q-18 3 -33 5t-26 2t-26 -2t-32 -5q-11 63 -22 132t-25 132z" />
    <glyph glyph-name="G" unicode="G" horiz-adv-x="713" 
d="M583 547q-19 18 -44 35t-54.5 30.5t-63 22t-68.5 8.5q-58 0 -104.5 -18t-75.5 -55t-38 -94.5t8 -135.5q15 -69 45.5 -124t74.5 -93.5t100.5 -59t122.5 -20.5q40 0 79 6.5t61 20.5q-5 27 -10.5 55.5t-11.5 56.5q-12 55 -27 108q-1 5 -4 18.5t-5 19.5q16 -4 32 -6t26 -2
q11 0 22.5 2t28.5 7q3 -23 13 -77.5t27 -133.5l8 -39q2 -11 5.5 -23.5t5.5 -23.5q-20 -8 -50.5 -16.5t-64.5 -16t-68.5 -12.5t-63.5 -5q-89 0 -165 23t-136 68t-101 112t-59 155q-18 85 -4.5 151.5t54.5 112.5t107.5 70t155.5 24q50 0 91.5 -6t75.5 -15t61 -20t48 -21
q-6 -17 -9 -42t0 -47h-25z" />
    <glyph glyph-name="H" unicode="H" horiz-adv-x="683" 
d="M516 424q-14 63 -31 131.5t-33 131.5q36 -6 59 -6q24 0 57 6q10 -63 22 -131.5t26 -131.5l35 -167q14 -63 30.5 -132t33.5 -132q-18 3 -33 5t-26 2t-25.5 -2t-31.5 -5q-11 63 -22.5 132t-25.5 132l-16 77q-48 1 -97 1.5t-97 0.5q-51 0 -96 -0.5t-96 -1.5l16 -77
q14 -63 30.5 -132t33.5 -132q-18 3 -33 5t-26 2t-25.5 -2t-31.5 -5q-11 63 -22.5 132t-25.5 132l-35 167q-14 63 -31 131.5t-32 131.5q36 -6 58 -6q24 0 57 6q10 -63 22 -131.5t26 -131.5l5 -24q14 0 29 -0.5t29 -0.5q34 -1 67 -1.5t68 -0.5t68 0.5t67 1.5q17 0 29 0.5
t29 0.5z" />
    <glyph glyph-name="I" unicode="I" horiz-adv-x="181" 
d="M21 424q-14 63 -30.5 131.5t-32.5 131.5q36 -6 58 -6q24 0 57 6q10 -63 22 -131.5t26 -131.5l35 -167q14 -63 30.5 -132t33.5 -132q-18 3 -33 5t-26 2t-25.5 -2t-31.5 -5q-11 63 -22.5 132t-25.5 132z" />
    <glyph glyph-name="J" unicode="J" horiz-adv-x="286" 
d="M112 -222q44 0 65.5 18t27.5 51t0 79t-18 102l-79 396q-14 63 -31 131.5t-34 131.5q36 -6 59 -6t58 6q11 -63 22 -131.5t25 -131.5q10 -46 25 -117t29 -145q5 -23 12 -54.5t13.5 -62.5t11.5 -57.5t8 -38.5q9 -45 2 -85t-29.5 -69t-58.5 -46t-85 -17z" />
    <glyph glyph-name="K" unicode="K" horiz-adv-x="581" 
d="M111 5l-22 126t-25 126l-35 167q-14 63 -30.5 131.5t-32.5 131.5q36 -6 58 -6q24 0 57 6q11 -63 22.5 -131.5t25.5 -131.5l10 -48l1 3q28 30 58 67t59.5 77t58.5 82t55 81q12 -3 23 -4t22 -1t31.5 3t47.5 8q-31 -33 -68 -75.5t-74 -87t-69 -86t-53 -71.5
q47 -44 95.5 -87.5t97.5 -90.5q24 -22 52.5 -48t57.5 -53t57.5 -53.5t53.5 -48.5q-27 4 -49 6.5t-36 2.5q-26 0 -57 -6q-29 29 -63.5 62.5t-70 68t-70 67.5t-64 61t-52.5 48.5t-35 30.5l16 -75q14 -63 31 -132t33 -132q-17 3 -32.5 5t-26.5 2t-22 -1.5t-23 -3.5z" />
    <glyph glyph-name="L" unicode="L" horiz-adv-x="411" 
d="M27 424q-14 63 -31 131.5t-33 131.5q37 -6 59 -6q11 0 25.5 1.5t31.5 4.5q10 -63 21.5 -131.5t25.5 -131.5q20 -96 36 -170t30 -135q5 -19 7.5 -30.5t6.5 -28.5h65.5t63.5 1.5t66.5 4.5t74.5 9q-1 -14 -1.5 -25t1.5 -16q1 -6 5.5 -16t11.5 -24q-46 2 -97.5 4t-96.5 2
t-94.5 -2t-94.5 -4q-11 63 -22.5 131.5t-25.5 131.5z" />
    <glyph glyph-name="M" unicode="M" horiz-adv-x="863" 
d="M86 698q48 -69 94.5 -133.5t94 -128.5t96 -129t100.5 -133q10 32 27.5 85t40.5 122q26 78 53.5 163t49.5 154h27q23 -66 44 -132.5t41 -127.5q35 -109 72.5 -224.5t75.5 -221.5q-20 4 -34.5 6t-24.5 2q-11 0 -24.5 -2t-28.5 -5q-19 65 -36.5 125t-35.5 118.5t-36.5 117.5
t-40.5 121l-9 -26q-36 -109 -72 -222.5t-61 -226.5h-20q-56 81 -116.5 165t-121.5 167q-14 20 -26.5 37t-24.5 33.5t-24.5 34t-27.5 37.5q5 -59 12 -125.5t14.5 -131.5t15.5 -123.5t17 -101.5q-32 8 -45 8q-7 0 -18 -2.5t-26 -6.5q-5 81 -10.5 172.5t-12.5 184.5t-14.5 183
t-15.5 167h31z" />
    <glyph glyph-name="N" unicode="N" horiz-adv-x="677" 
d="M674 -18q-128 121 -272 247.5t-287 249.5l-31 27q5 -28 13 -69.5t22 -104.5q4 -20 11 -50t15 -64t16.5 -69t16.5 -66.5t14.5 -55.5t10.5 -36q-16 4 -28 6.5t-20 2.5q-17 0 -47 -8q-1 13 -4.5 42t-9 66.5t-12 81.5t-14 88t-15 85t-14.5 73q-10 46 -19 87.5t-16.5 76.5
t-14 62t-11.5 44h29q14 -11 28 -24t28 -25q70 -62 144 -127t143.5 -126t132.5 -115t112 -95q-14 63 -28 129.5t-29 131.5t-29.5 126.5t-29.5 115.5q32 -8 46 -8q11 0 40 8q3 -24 10 -70t15 -96.5t16 -98t14 -74.5q5 -25 12.5 -58.5t15.5 -71t16.5 -75t16 -70.5t13 -57.5
t8.5 -35.5h-28z" />
    <glyph glyph-name="O" unicode="O" horiz-adv-x="811" 
d="M32 340q-18 85 -5 151.5t52.5 112.5t102.5 70t146 24t157 -24t133 -70t101 -112.5t60 -151.5t5 -151.5t-53 -112.5t-103.5 -70t-146.5 -24t-156.5 24t-132.5 70t-100.5 112.5t-59.5 151.5zM665 340q-17 78 -49 135.5t-75 94.5t-94.5 55t-106.5 18t-98.5 -18t-70.5 -55
t-34.5 -94.5t9.5 -135.5q16 -78 48 -135t75 -94t94 -55t106 -18t99 18t71 55t34.5 94t-8.5 135z" />
    <glyph glyph-name="P" unicode="P" horiz-adv-x="489" 
d="M27 424q-13 63 -30 131t-33 131q29 -3 55.5 -4t49.5 -1q13 0 30 0.5t34 1.5t31 1.5t25 0.5q23 0 61 -3t78 -19.5t73.5 -52t47.5 -99.5q9 -45 3 -78t-23 -57t-42.5 -39t-54 -24t-57.5 -12.5t-53 -3.5h-35.5t-33.5 2l9 -42q14 -63 31 -132t34 -132q-18 3 -33 5t-26 2
t-26 -2t-32 -5q-11 63 -22 132t-25 132zM140 359q31 -6 62 -6q28 0 57 6.5t50.5 23.5t31.5 46.5t0 76.5q-8 39 -24 63t-39 37.5t-52.5 18.5t-64.5 5h-78z" />
    <glyph glyph-name="Q" unicode="Q" horiz-adv-x="830" 
d="M-13 340q-18 85 -5 151.5t53 112.5t103 70t146 24t157 -24t133 -70t100.5 -112.5t59.5 -151.5q28 -134 -19 -221.5t-153 -119.5q33 -22 80 -53t96.5 -63t95.5 -61.5t78 -49.5q-37 -2 -61.5 -17t-30.5 -29q-32 24 -78.5 58t-97 69.5t-99 69.5t-84.5 59h-25
q-83 0 -156.5 24t-133 70t-100.5 112.5t-59 151.5zM619 340q-17 78 -48.5 135.5t-74.5 94.5t-94 55t-106 18t-98.5 -18t-70.5 -55t-35 -94.5t9 -135.5t49 -135t74.5 -94t93.5 -55t106 -18t98.5 18t70.5 55t35 94t-9 135z" />
    <glyph glyph-name="R" unicode="R" horiz-adv-x="571" 
d="M28 424q-13 63 -30 131t-32 131q26 -2 59.5 -3.5t61.5 -1.5q14 0 26.5 0.5t26.5 0.5q14 1 28.5 2t28.5 1q43 0 83 -8t73 -27t56.5 -50.5t33.5 -77.5q10 -48 -1.5 -82t-35 -57t-54.5 -36t-59 -17q13 -12 28 -27.5t35 -35.5q32 -32 73 -72.5t81.5 -80t74.5 -72.5t53 -51
q-27 4 -49 6.5t-36 2.5q-27 0 -58 -6q-20 22 -58 63.5t-84 88.5t-93.5 93t-85.5 79h-24l13 -61q14 -63 31 -132t34 -132q-18 3 -33.5 5t-26.5 2t-25 -2t-31 -5q-11 63 -22.5 132t-25.5 132zM137 376q13 -2 27 -2.5t30 -0.5q28 0 58 6.5t52.5 22.5t33.5 42.5t3 67.5
q-8 36 -26.5 58.5t-42 36t-49.5 18.5t-49 5q-27 0 -48.5 -1t-36.5 -3q9 -51 18 -101.5t20 -100.5z" />
    <glyph glyph-name="S" unicode="S" horiz-adv-x="469" 
d="M113 144q12 -17 28.5 -35t38 -32.5t47.5 -24t55 -9.5q30 0 52 10.5t35 28t17 41.5t-2 51q-6 29 -21.5 49t-37 35t-48 26t-54.5 22q-34 13 -68.5 27.5t-64 36.5t-52 54.5t-32.5 80.5q-9 42 -1 77.5t31.5 61t61 40t88.5 14.5q48 0 88 -13t81 -40q-7 -22 -10 -43t-1 -51h-27
q-8 13 -19.5 29.5t-27.5 30t-36.5 23t-45.5 9.5q-50 0 -76 -31t-15 -80q6 -30 22 -51t38.5 -36t49.5 -26.5t56 -21.5q33 -12 66.5 -26t61.5 -35t49.5 -51t30.5 -74q10 -47 2 -88.5t-33 -72.5t-67.5 -49.5t-100.5 -18.5q-63 0 -107.5 20t-78.5 43q3 13 4 24.5t0.5 22.5
t-1.5 23.5t-3 28.5h27z" />
    <glyph glyph-name="T" unicode="T" horiz-adv-x="536" 
d="M199 424q-11 51 -21 95.5t-22 95.5q-24 0 -51.5 -1t-55 -2.5t-53.5 -3.5t-48 -5q1 13 1 24t-2 19q-1 4 -5.5 14.5l-10.5 24.5q63 -2 132 -3t132 -1t132 1t131 3q0 -14 -0.5 -24.5t0.5 -15.5q2 -7 7 -18t10 -24q-48 6 -106.5 9t-107.5 3q10 -49 19 -95.5t19 -95.5l36 -167
q14 -63 30.5 -132t33.5 -132q-18 3 -33 5t-26 2t-25.5 -2t-31.5 -5q-11 63 -22.5 132t-25.5 132z" />
    <glyph glyph-name="U" unicode="U" horiz-adv-x="664" 
d="M542 360q-15 69 -26 122t-20.5 92.5t-17 67t-14.5 46.5q32 -7 54 -7q6 0 16 2t21 6q4 -34 12 -83.5t17.5 -105.5t20 -115.5t21.5 -112.5q13 -67 5 -120.5t-36.5 -91t-77 -58t-116.5 -20.5q-150 0 -234 70.5t-116 217.5q-5 24 -8 45t-7 41l-6 34l-6 34q-15 69 -28 126
t-24 99q-2 8 -5 20.5t-4 17.5q17 -3 33 -4.5t28 -1.5q9 0 22.5 1.5t27.5 5.5q3 -23 8.5 -59.5t13.5 -82t18 -97.5t22 -107q10 -48 24.5 -100t43 -95t76.5 -71t126 -28q51 0 82.5 15t48.5 39.5t22.5 57t3.5 67t-8.5 69t-12.5 64.5z" />
    <glyph glyph-name="V" unicode="V" horiz-adv-x="664" 
d="M359 2q-23 40 -53.5 91t-65.5 108.5t-74 120l-78 125t-78 124t-74 117.5q20 -4 37.5 -5.5t28.5 -1.5q13 0 27 1t29 4q71 -130 156.5 -271.5t179.5 -290.5q13 60 27.5 137t27.5 156t23 150.5t15 119.5q27 -6 44 -6q19 0 52 9q-40 -168 -77.5 -348t-66.5 -349
q-12 3 -21.5 5t-17.5 2t-15.5 -1t-12.5 -3z" />
    <glyph glyph-name="W" unicode="W" horiz-adv-x="1028" 
d="M314 2q-14 26 -42 80t-63 122t-73.5 142.5t-74 141.5t-64 120.5t-43.5 79.5q20 -4 36 -5.5t27 -1.5q21 0 56 6q34 -74 63.5 -135t61 -123.5t68.5 -133t87 -162.5q2 18 5 37t5 44q7 57 15.5 125.5t16 134.5t12.5 123t7 91q14 -4 24 -5.5t16 -1.5q5 0 15 1.5t23 5.5
q13 -26 36 -71t51.5 -98.5t59.5 -112t60 -112t53 -97.5t39 -69q3 31 8 79t10 103t10.5 112.5t9.5 109.5t7 93t3 62q25 -6 42 -6t49 9q-4 -23 -12 -76t-17.5 -122t-20 -146t-19.5 -147t-16 -125t-10 -81q-12 3 -22 5t-18 2q-11 0 -38 -8q-36 68 -70.5 134t-69.5 132.5
t-72.5 135t-77.5 140.5q-5 -41 -13.5 -107t-18 -141t-19.5 -152.5t-18 -140.5q-12 3 -22.5 5t-17.5 2q-14 0 -32 -5z" />
    <glyph glyph-name="X" unicode="X" horiz-adv-x="600" 
d="M93 686q43 -60 92 -122.5t109 -136.5q29 62 53 123t49 137q27 -6 42 -6q9 0 24 2.5t33 7.5q-4 -9 -10 -21t-13 -24.5t-13.5 -24.5t-10.5 -21q-28 -58 -56 -112.5t-53 -114.5q74 -92 155.5 -191t158.5 -190q-23 4 -42 6t-33 2q-28 0 -59 -6l-38 50q-45 62 -88.5 120.5
t-94.5 117.5q-31 -70 -57.5 -143t-52.5 -146q-13 3 -23.5 5t-18.5 2q-19 0 -57 -11q41 83 83 174t79 176q-68 84 -143 175.5t-145 174.5q25 -4 43.5 -6t29.5 -2q13 0 27 1t30 4z" />
    <glyph glyph-name="Y" unicode="Y" horiz-adv-x="595" 
d="M312 -7q-7 65 -21 137.5t-30 147.5q-14 17 -40.5 50.5t-59 74t-68 84.5t-68 84t-58.5 71.5t-39 46.5q25 -4 44 -6t30 -2q14 0 28.5 1t30.5 4q60 -83 120 -162t129 -166q15 34 29.5 74.5t28.5 83t26.5 86t23.5 85.5q28 -6 44 -6q22 0 57 9q-32 -74 -57.5 -133.5
t-45 -108.5t-34 -88t-23.5 -71q7 -36 16.5 -77t18.5 -81.5t18 -76.5t17 -61q-17 3 -32.5 5t-26.5 2q-12 0 -26.5 -2t-31.5 -5z" />
    <glyph glyph-name="Z" unicode="Z" horiz-adv-x="609" 
d="M85 24q27 52 57 111.5t59 119t56.5 117t50 106t39.5 85.5t25 56q-14 1 -27 1h-24q-35 0 -78 -1.5t-87.5 -3.5t-85.5 -5t-72 -6q3 27 0 42q-1 6 -5.5 16.5t-11.5 23.5q48 -3 158 -4t261 -1q42 0 81 3q6 0 16.5 0.5t15.5 0.5l7 -31q-14 -20 -38 -64t-52.5 -100t-59.5 -119
t-58.5 -122t-50 -108.5t-33.5 -78.5q17 -1 33 -1.5t31 -0.5q37 0 86 1.5t99.5 4.5t95 6.5t72.5 7.5q-2 -30 1 -44q2 -5 6.5 -15.5t11.5 -25.5q-72 2 -129.5 3.5t-113.5 1.5q-38 0 -87.5 -0.5t-97.5 -1.5t-87.5 -2t-57.5 -2z" />
    <glyph glyph-name="bracketleft" unicode="[" horiz-adv-x="207" 
d="M12 405q-14 69 -30.5 141.5t-33.5 138.5q18 -2 33.5 -3t26.5 -1h25t28 0.5t27.5 1t23.5 0.5l16 -1q0 -8 0.5 -14t0.5 -8q2 -8 8 -24q-20 1 -44 1.5t-47 0.5q8 -57 19 -116t23 -117l52 -245q13 -60 26.5 -116t30.5 -116q23 0 47 0.5t43 1.5q0 -14 2 -24l9 -24h-15
q-21 1 -52 2t-54 1q-12 0 -27 -1.5t-32 -3.5q-12 67 -25.5 139.5t-28.5 140.5z" />
    <glyph glyph-name="backslash" unicode="\" horiz-adv-x="335" 
d="M-86 708q14 -5 24.5 -7.5t18.5 -2.5q7 0 14 2t16 5l433 -732q-30 9 -43 9q-12 0 -30 -6z" />
    <glyph glyph-name="bracketright" unicode="]" horiz-adv-x="209" 
d="M65 405q-13 61 -26 117t-30 116q-22 0 -46 -0.5t-44 -1.5q-1 8 -1 14t-1 10l-8 23h15q10 0 23.5 -0.5t28 -1t28.5 -0.5h25q12 0 26.5 1t32.5 3q11 -66 25 -138.5t28 -141.5l52 -245q15 -68 32 -140.5t34 -139.5q-19 2 -34 3.5t-27 1.5q-23 0 -53.5 -1t-50.5 -2l-17 2v14
t-1 8q-1 4 -3.5 10t-4.5 14q21 -1 45 -1.5t47 -0.5q-8 57 -19 116t-24 116z" />
    <glyph glyph-name="asciicircum" unicode="^" horiz-adv-x="555" 
d="M198 657h62l335 -460h-73l-278 382q-28 -94 -57.5 -190.5t-58.5 -191.5h-73z" />
    <glyph glyph-name="underscore" unicode="_" horiz-adv-x="587" 
d="M47 -126l-15 68h506l15 -68h-506z" />
    <glyph glyph-name="grave" unicode="`" horiz-adv-x="284" 
d="M61 637q-15 8 -30.5 20.5t-20.5 32.5q-2 10 0.5 17.5t7.5 13t12 8t13 2.5q14 0 28 -7.5t28 -18.5l193 -162h-66z" />
    <glyph glyph-name="a" unicode="a" horiz-adv-x="476" 
d="M27 428q40 35 76.5 48t76.5 13q37 0 70 -11t59.5 -31t44.5 -48.5t26 -63.5q11 -54 20.5 -109t23.5 -117q2 -11 5 -22t7.5 -20t11.5 -14.5t18 -5.5q3 0 8.5 1.5t19.5 9.5l9 -44q-12 -6 -30 -12t-38 -6q-30 0 -51.5 14t-32.5 37q-26 -32 -56.5 -47t-77.5 -15q-26 0 -53 9
t-50.5 26t-40.5 41t-23 54q-13 63 18.5 97.5t96.5 45.5q48 8 75 14t39 12t13 13.5t-1 18.5q-5 22 -14.5 42.5t-24.5 36.5t-35 25t-47 9q-36 0 -64 -17.5t-39 -48.5h-26zM308 236q-20 -5 -42 -9q-23 -4 -46.5 -9.5t-41.5 -16t-27.5 -28t-3.5 -45.5q4 -20 13.5 -35.5t22.5 -26
t27.5 -15.5t28.5 -5q34 0 57.5 18.5t34.5 41.5z" />
    <glyph glyph-name="b" unicode="b" horiz-adv-x="507" 
d="M526 251q12 -58 5 -107t-30.5 -84t-61.5 -55t-87 -20q-45 0 -87.5 20.5t-69.5 46.5q-12 -11 -24.5 -24.5t-23.5 -27.5h-32q-3 25 -9 60t-13.5 74t-15.5 78t-15 73l-37 176q-7 33 -16 72.5t-18 79.5t-18 76.5t-17 63.5q18 -3 32 -5t22 -2q11 0 25.5 2t32.5 4
q2 -22 8.5 -62t15.5 -88t19 -99t19 -95q23 38 58 59.5t80 21.5q53 0 96 -19.5t75.5 -52.5t54.5 -76t32 -90zM420 254q-9 42 -26 75t-38.5 55t-46 33.5t-47.5 11.5q-29 0 -52.5 -11t-37.5 -35.5t-16.5 -64t9.5 -96.5q20 -92 63.5 -139t107.5 -47q28 0 48.5 15.5t32 44
t12.5 68.5t-9 90z" />
    <glyph glyph-name="c" unicode="c" horiz-adv-x="484" 
d="M30 237q-14 66 -2 113.5t41.5 78t72.5 45.5t92 15q27 0 53.5 -4t50 -11t43 -16.5t32.5 -19.5q-5 -17 -7.5 -36t-1.5 -39h-22q-9 12 -23.5 25.5t-32 24.5t-37.5 18t-41 7q-42 0 -68 -15t-39.5 -42t-14.5 -63.5t8 -79.5q20 -95 71 -143.5t129 -48.5q35 0 71 21t57 53
l21 -15q0 -14 1 -28t3 -27q-27 -26 -69 -45.5t-89 -19.5q-44 0 -91 14t-88.5 44t-73.5 78t-46 116z" />
    <glyph glyph-name="d" unicode="d" horiz-adv-x="506" 
d="M431 64q-8 -14 -20 -28t-29 -25t-39 -18.5t-49 -7.5q-39 0 -79 14.5t-75.5 45t-63.5 77.5t-42 112q-13 64 -4 112t33 80t59.5 47.5t75.5 15.5q95 0 157 -71q-9 44 -19.5 91.5t-20.5 92t-19.5 84t-16.5 67.5q4 -1 14 -2t13 -2q7 -2 15 -2.5t14 -0.5q11 0 26 3q4 1 13.5 2
t13.5 1q4 -33 14.5 -94t24.5 -133.5t29.5 -148t28.5 -138.5q10 -45 18.5 -82.5t17.5 -74.5q4 -19 9.5 -43.5t9.5 -44.5q-4 1 -13.5 2t-12.5 2h1q-3 0 -7.5 0.5t-9.5 1.5t-10 1q-10 0 -19 -3q-3 -1 -12 -2.5t-11 -2.5zM140 228q12 -55 31 -91t41.5 -57.5t46 -30t45.5 -8.5
q35 0 57 18t32 47t10 66t-8 75q-18 88 -61.5 135t-108.5 47q-33 0 -53.5 -15.5t-30.5 -43t-10 -64t9 -78.5z" />
    <glyph glyph-name="e" unicode="e" horiz-adv-x="496" 
d="M28 224q-12 61 -7 110t27.5 83.5t61.5 53t95 18.5q54 0 97 -16.5t75 -45t53 -66.5t30 -80q2 -10 4 -24t3 -24q-18 0 -40.5 0.5t-39.5 0.5q-35 1 -68.5 1.5t-68.5 0.5q-21 0 -42 -0.5t-43 -1.5q-11 0 -17 -0.5t-17 -0.5l4 -17q7 -36 24.5 -67t42.5 -54t57.5 -36t70.5 -13
q18 0 36 5.5t35.5 15.5t32 23.5t25.5 29.5l20 -15l3 -55q-26 -26 -68 -45.5t-89 -19.5q-55 0 -104 18t-88.5 50.5t-66.5 76t-38 94.5zM218 438q-32 0 -51.5 -14t-30 -35.5t-13 -48t-0.5 -50.5q8 0 14 -0.5t13 -0.5q23 -1 46 -1.5t44 -0.5q22 0 44.5 0.5t44.5 1.5
q11 0 15.5 0.5t13.5 0.5q-5 24 -15 50t-26.5 48t-41 36t-57.5 14z" />
    <glyph glyph-name="f" unicode="f" horiz-adv-x="302" 
d="M218 649q-28 16 -57 16q-19 0 -31 -7.5t-17.5 -19.5t-6 -28t3.5 -33q3 -16 12.5 -45.5t20.5 -58.5h40q13 0 31.5 0.5t31.5 0.5q1 -10 1.5 -18.5t0.5 -10.5q1 -4 4 -12t6 -17q-8 0 -22.5 0.5t-22.5 0.5q-17 1 -28.5 1.5t-28.5 0.5q22 -104 45.5 -213t47.5 -214
q-37 8 -52 8q-16 0 -53 -8q-16 108 -36.5 214t-43.5 213q-10 0 -18 -0.5t-19 -1.5q-6 0 -17.5 -0.5t-16.5 -0.5q0 19 -2 29q0 2 -3 10.5t-7 18.5q9 0 23.5 -0.5t23.5 -0.5h24q-5 29 -5 61.5t4.5 64t14.5 59.5t25 48q14 19 40 33t56 14q5 0 12.5 -1t17.5 -4q4 -24 6 -40
q2 -11 4.5 -25.5t4.5 -25.5z" />
    <glyph glyph-name="g" unicode="g" horiz-adv-x="507" 
d="M0 321q-9 43 0 74.5t31 52.5t55 31t73 10q13 0 25 -0.5t26 -1.5q7 -1 14 -1t15 -1q4 0 9 -0.5t8 -0.5q17 -2 30 -2.5t21 -0.5q58 0 90 8q1 -11 1 -19.5t2 -13.5q0 -3 3 -12t7 -19q-8 1 -22 2t-22 2q-14 2 -20 2.5t-17 0.5h-12q25 -22 44.5 -53t26.5 -60
q16 -77 -26.5 -121t-129.5 -44q-6 0 -13 0.5t-14 0.5q-8 1 -14 1h-13q-14 0 -23.5 -10.5t-6.5 -24.5q5 -21 17 -30t39 -10q14 -1 27.5 -1.5t26.5 -0.5q14 -1 27 -1h27q47 -1 83 -11.5t61 -28.5t39.5 -42t20.5 -52q8 -36 2 -72.5t-28.5 -66.5t-64.5 -49t-106 -19
q-49 0 -90.5 10.5t-73 29.5t-52.5 46.5t-28 62.5q-5 24 -2.5 44t11.5 36.5t22 28.5t29 21q-26 11 -41 31.5t-20 46.5q-7 29 5 50.5t32 33.5q-44 22 -72 57t-39 86zM433 -98q-11 52 -48 75t-109 23q-67 0 -100.5 -23t-21.5 -80q14 -62 57 -87.5t100 -25.5q28 0 53 7
t42.5 21.5t25.5 37t1 52.5zM291 326q-12 56 -44.5 85.5t-76.5 29.5q-48 0 -67.5 -32.5t-8.5 -87.5q12 -56 43.5 -89.5t82.5 -33.5q25 0 41.5 10.5t24.5 28.5t9 41t-4 48z" />
    <glyph glyph-name="h" unicode="h" horiz-adv-x="460" 
d="M27 461q-7 33 -16 72.5t-18 79.5t-18.5 76.5t-17.5 63.5q17 -3 31.5 -5t22.5 -2q9 0 22.5 2t31.5 5q3 -27 9 -63.5t13.5 -75.5l15 -78t14.5 -70l11 -46q20 32 52.5 50.5t79.5 18.5q29 0 60 -8t59 -28.5t50 -55t34 -87.5q8 -41 15.5 -86t18.5 -94q7 -32 15.5 -69t16.5 -69
q-38 8 -52 8q-15 0 -49 -8l-16 92l-12 68t-14 70l-12 59q-14 67 -47.5 102.5t-77.5 35.5q-63 0 -84.5 -39t-6.5 -111q6 -28 14.5 -64t17.5 -74.5t18.5 -74.5t17.5 -64q-40 8 -56 8q-18 0 -53 -8q-3 28 -9 64.5t-13.5 76t-15.5 79t-15 73.5z" />
    <glyph glyph-name="i" unicode="i" horiz-adv-x="157" 
d="M44 288q-10 45 -22.5 95.5t-26.5 98.5q37 -8 55 -8q17 0 52 8q6 -48 15 -98.5t19 -95.5l21 -101q10 -46 22.5 -97t27.5 -98q-40 8 -56 8q-18 0 -52 -8q-6 47 -15 98t-19 97zM-43 639q-5 24 8.5 41.5t36.5 17.5q24 0 45.5 -17.5t26.5 -41.5t-8.5 -42t-37.5 -18
q-23 0 -44.5 18t-26.5 42z" />
    <glyph glyph-name="j" unicode="j" horiz-adv-x="246" 
d="M109 249q-13 60 -28 123t-30 110q40 -8 56 -8q18 0 53 8q5 -48 13.5 -98.5t18.5 -95.5l21 -101q7 -29 14.5 -62t16.5 -67q8 -34 16.5 -66.5t14.5 -60.5q9 -42 12.5 -78t-13.5 -71q-16 -32 -51.5 -54t-89.5 -24l-19 56q18 -5 25 -5q25 0 37 16t15 40.5t-0.5 55.5t-9.5 61z
M12 639q-5 24 9.5 41.5t38.5 17.5t45 -17.5t26 -41.5t-8.5 -42t-37.5 -18t-46 18t-27 42z" />
    <glyph glyph-name="k" unicode="k" horiz-adv-x="472" 
d="M13 461q-7 33 -15.5 72.5t-18 79.5t-19 76.5t-17.5 63.5q18 -3 32.5 -5t23.5 -2q8 0 21.5 2t30.5 5q3 -27 9 -63.5t13.5 -76.5t15.5 -79.5t15 -72.5l37 -177q1 -9 4 -9q4 0 10 4.5t14 11.5q2 1 2 2t2 3q7 6 23 25.5t36.5 45.5t42 56.5t39.5 57.5q13 -3 24 -5t19 -2t16 1
t22 3h6.5t12 0.5t12 0.5h6.5q-57 -55 -106 -106.5t-88 -99.5q34 -33 72.5 -68.5t78 -72t79 -72t75.5 -68.5q-28 4 -47.5 6t-33.5 2q-24 0 -52 -6q-27 27 -61.5 60.5t-69 66t-66 61t-53.5 47.5q-3 2 -5.5 4.5t-3.5 2.5l13 -60q10 -45 21.5 -90.5t26.5 -93.5q-38 8 -55 8
t-54 -8q-3 28 -9 64.5t-13.5 76t-15.5 79t-15 73.5z" />
    <glyph glyph-name="l" unicode="l" horiz-adv-x="167" 
d="M17 461q-7 33 -15.5 72.5t-18 79.5t-18.5 76.5t-17 63.5q17 -3 31.5 -5t22.5 -2q9 0 22.5 2t30.5 5q3 -27 9.5 -63.5t14 -76.5t15.5 -79.5t15 -72.5l37 -176q7 -34 16 -73.5t18.5 -79t18.5 -76t17 -64.5q-38 8 -55 8q-18 0 -53 -8q-3 28 -9.5 64.5t-14 76t-15.5 79
t-15 73.5z" />
    <glyph glyph-name="m" unicode="m" horiz-adv-x="777" 
d="M39 288q-9 45 -22 95.5t-27 98.5q37 -8 55 -8q13 0 48 8q2 -13 5 -31t5 -28q37 66 122 66q48 0 92.5 -23t69.5 -61q17 42 52 63t86 21q34 0 64.5 -9t56 -29t44 -51t27.5 -74q4 -18 7 -37.5t7.5 -44.5t10.5 -57.5t15 -75.5q5 -26 12.5 -57t16.5 -62q-37 8 -53 8
q-19 0 -54 -8q-3 32 -16 112t-40 208q-9 44 -36.5 75.5t-79.5 31.5q-31 0 -51.5 -12.5t-28.5 -29.5q-4 -9 -6 -19.5t0.5 -32.5t10 -61t21.5 -105q9 -42 19 -82t21 -85q-38 8 -54 8q-17 0 -52 -8q-8 55 -18.5 117.5t-22.5 116.5q-9 44 -14.5 69.5t-10.5 40.5t-10 23.5
t-13 19.5q-13 17 -36 28.5t-45 11.5q-58 0 -78 -39t-5 -111l18 -82q10 -46 22.5 -97t27.5 -98q-40 8 -56 8q-18 0 -53 -8q-5 47 -13.5 98t-18.5 97z" />
    <glyph glyph-name="n" unicode="n" horiz-adv-x="484" 
d="M344 281q-14 67 -48 102.5t-78 35.5q-63 0 -84 -39t-6 -111l18 -82q10 -46 22.5 -97t27.5 -98q-40 8 -56 8q-18 0 -53 -8q-5 47 -13.5 98t-18.5 97l-22 101q-9 45 -22 95.5t-27 98.5q37 -8 55 -8q13 0 48 8q2 -15 3 -25t3 -22q1 -4 1.5 -7.5t2.5 -8.5q20 34 52.5 52
t80.5 18q29 0 60 -8t59 -28.5t50 -55t34 -87.5q8 -41 15.5 -86t18.5 -94q7 -32 15.5 -69t16.5 -69q-38 8 -52 8q-15 0 -49 -8l-16 92l-12 68t-14 70l-12 59v0z" />
    <glyph glyph-name="o" unicode="o" horiz-adv-x="549" 
d="M28 237q-15 69 -3 117t40.5 78t69.5 43.5t85 13.5t91 -13.5t88.5 -43.5t73.5 -78t47 -117t3 -117t-40.5 -78t-70 -43.5t-85.5 -13.5t-91 13.5t-88 43.5t-73 78t-47 117zM133 237q8 -39 22.5 -75.5t37 -64t53 -44.5t70.5 -17t63.5 17t34 44.5t10 64t-8.5 75.5
q-9 39 -23.5 75.5t-37 64t-53 44.5t-70.5 17t-63.5 -17t-34 -44.5t-10 -64t9.5 -75.5z" />
    <glyph glyph-name="p" unicode="p" horiz-adv-x="508" 
d="M29 187q-7 33 -16 72.5t-18 79.5t-18.5 77t-17.5 66q38 -8 55 -8q18 0 53 8q2 -20 4 -39.5t4 -33.5q6 15 17.5 29t28 25.5t39.5 18.5t53 7q39 0 79.5 -14.5t76 -45t63.5 -77.5t42 -112q13 -65 4 -112.5t-33 -79.5t-60 -47.5t-76 -15.5q-48 0 -88 18t-72 52l5 -26
q7 -33 16 -72.5t18.5 -79.5t19 -76.5t17.5 -63.5q-18 3 -32.5 5t-23.5 2t-22.5 -2t-30.5 -5q-3 27 -9.5 63.5t-14 76.5t-15.5 79.5t-15 72.5zM368 241q-12 55 -30.5 91.5t-41 58t-46.5 30t-46 8.5q-37 0 -59 -15.5t-32.5 -42.5t-10.5 -62.5t9 -75.5q20 -95 64 -143.5
t109 -48.5q33 0 53.5 15.5t30 42.5t9.5 63.5t-9 78.5z" />
    <glyph glyph-name="q" unicode="q" horiz-adv-x="507" 
d="M479 29q7 -33 16 -72.5t18.5 -79.5t18.5 -76.5t17 -63.5q-17 3 -31.5 5t-23.5 2t-22.5 -2t-31.5 -5q-3 27 -9 63.5t-13.5 76.5t-15.5 79.5t-15 72.5l-9 38q-20 -45 -53 -63.5t-78 -18.5q-38 0 -79 13t-78 42.5t-66 77t-43 116.5q-14 66 -5.5 114.5t32.5 79.5t59 46t73 15
q53 0 93.5 -20.5t69.5 -52.5l-10.5 31.5l-11.5 34.5q40 -8 58 -8q17 0 52 8q4 -29 10.5 -66t14 -77t15.5 -79.5t15 -72.5zM341 247q-8 35 -22 68t-35 58.5t-49 40.5t-63 15q-22 0 -43 -9t-34.5 -31.5t-17.5 -61.5t9 -100q9 -39 23.5 -73t35 -59t46 -39.5t55.5 -14.5
q34 0 56.5 18t33.5 47t12 66t-7 75z" />
    <glyph glyph-name="r" unicode="r" horiz-adv-x="291" 
d="M234 377q-8 7 -22 13t-27 6q-21 0 -35.5 -10t-22 -27t-9 -40t4.5 -49q13 -64 22.5 -107.5t16.5 -74.5t13 -53t12 -43q-35 8 -51 8q-15 0 -50 -8q-6 45 -17.5 103.5t-29.5 141.5l-6 31q-8 38 -21 94.5t-29 119.5q37 -8 52 -8q17 0 49 8q3 -31 5.5 -47t4.5 -27
q18 40 45 60.5t58 20.5q8 0 17 -2t28 -9q-3 -17 1 -42.5t9 -45.5z" />
    <glyph glyph-name="s" unicode="s" horiz-adv-x="369" 
d="M99 108q7 -10 19.5 -21.5t28 -21.5t33.5 -17t37 -7q33 0 54.5 20t14.5 58q-4 18 -14.5 30t-25.5 20.5t-33.5 14.5t-37.5 11q-26 7 -52 16t-48.5 24t-39.5 38t-25 59q-7 34 -1.5 63t23 50t46.5 32.5t70 11.5q28 0 51 -6.5t43 -13.5l2 -1l2.5 -1t9.5 -2.5t22 -5.5
q-3 -9 -5.5 -21t-4 -24t-2 -23t0.5 -18h-28q-13 23 -37.5 42t-53.5 19q-12 0 -24.5 -4t-21 -13t-12.5 -22.5t0 -32.5t15 -32t26.5 -21.5t34 -14.5t37.5 -12q25 -7 50.5 -15.5t47.5 -23t38.5 -37t24.5 -57.5q6 -30 -0.5 -59t-25.5 -52.5t-50 -38t-73 -14.5q-48 0 -83.5 12
t-62.5 26q1 7 2.5 18t2.5 23t0.5 23.5t-2.5 20.5h27z" />
    <glyph glyph-name="t" unicode="t" horiz-adv-x="283" 
d="M89 610h17q5 -37 10.5 -73t11.5 -71q14 0 43.5 1t60.5 3q1 -16 1.5 -22t2.5 -10q1 -4 2.5 -9.5t6.5 -21.5q-26 2 -57.5 2.5t-49.5 0.5q3 -16 8 -45t12 -63t13.5 -68.5t12.5 -60.5q5 -26 11.5 -50.5t17 -43.5t27 -31t42.5 -12q6 0 21.5 3t29.5 8l9 -44q-19 -8 -40 -13
t-41 -5q-66 0 -105 35t-52 97q-5 23 -9.5 49.5t-10.5 57.5q-7 39 -15.5 82.5t-20.5 103.5h-67q0 11 -0.5 19.5t-1.5 10.5q-2 8 -4.5 15t-4.5 16q22 -2 37.5 -3t26.5 -1q-1 5 -2.5 10.5t-2.5 11.5q-5 17 -10.5 40.5t-10.5 42.5z" />
    <glyph glyph-name="u" unicode="u" horiz-adv-x="485" 
d="M52 155q-6 28 -10 51t-8 43q-3 17 -6 33.5t-7 32.5q-8 35 -17.5 80.5t-18.5 86.5q35 -8 50 -8q16 0 50 8q4 -29 9 -63t11.5 -71t13.5 -75t15 -74q11 -49 24 -73.5t26 -37.5q17 -14 37.5 -23.5t46.5 -9.5q38 0 59.5 17t27.5 40q4 14 5.5 26t-1 32t-8.5 52.5t-18 87.5
q-4 20 -9 43t-10.5 46t-10.5 44.5t-9 38.5q17 -4 30 -6t23 -2q19 0 49 8q11 -76 25.5 -153t31.5 -155q9 -43 21 -91.5t23 -90.5q-34 8 -50 8q-17 0 -47 -8q-3 16 -3.5 26t-2.5 22q-4 9 -5 17q-20 -34 -53.5 -53t-75.5 -19q-81 0 -136 44.5t-72 125.5z" />
    <glyph glyph-name="v" unicode="v" horiz-adv-x="491" 
d="M253 2q-5 9 -10 17t-10 17l1 -1q-65 108 -135.5 223t-142.5 224q20 -4 36 -6t29 -2q10 0 22 2t27 5q51 -97 105 -188t112 -180q17 69 30.5 150.5t24.5 159.5q2 12 4.5 29.5t4.5 29.5q26 -8 36 -8q7 0 19 3t27 8q-4 -15 -9.5 -40.5t-9.5 -41.5q-23 -102 -46 -206t-37 -205
q-27 8 -38 8q-7 0 -13 -1.5l-14 -3.5z" />
    <glyph glyph-name="w" unicode="w" horiz-adv-x="794" 
d="M248 2q-20 39 -52 96.5t-69.5 123t-78 133t-77.5 127.5q19 -4 34 -6t27 -2q11 0 24 2t28 5q47 -95 93.5 -183t98.5 -176q5 30 11.5 73t12.5 91.5t12 99.5t10 96q26 -8 37 -8q9 0 33 8q45 -95 91.5 -179t95.5 -171l5 -9q6 34 13.5 78.5t15.5 92.5t15 96.5t13 90.5
q12 -3 21.5 -5t16.5 -2q16 0 44 11q-33 -128 -58.5 -250t-42.5 -240q-2 0 -7 0.5t-7 0.5q-5 2 -10 3t-8 1q-4 0 -13 -3t-17 -5q-45 91 -92 175.5t-100 172.5q-6 -30 -12.5 -71.5t-12.5 -87.5t-12 -94.5t-10 -91.5q-2 0 -8.5 0.5t-8.5 0.5q-5 2 -10.5 3t-8.5 1t-8 -1t-10 -3
q-2 0 -4.5 -0.5t-4.5 -0.5z" />
    <glyph glyph-name="x" unicode="x" horiz-adv-x="517" 
d="M97 480q37 -46 76 -89.5t80 -87.5q23 44 47 89t46 89q12 -3 22 -5t17 -2t22.5 3.5t36.5 9.5q-35 -54 -75 -114.5t-72 -113.5q28 -32 60 -66t65.5 -69t66.5 -69t64 -65q-26 5 -45.5 7.5t-29.5 2.5q-24 0 -52 -6q-43 50 -85 96.5t-88 96.5q-23 -48 -47.5 -97.5t-45.5 -96.5
q-11 3 -21 5t-16 2q-7 0 -22 -3.5t-35 -9.5q17 28 35.5 59.5t37 63.5t36.5 63t34 59q-27 28 -58 60.5t-63 65.5t-63.5 65t-58.5 60q24 -4 43 -6.5t33 -2.5q25 0 55 6z" />
    <glyph glyph-name="y" unicode="y" horiz-adv-x="487" 
d="M153 -267q29 75 49.5 142t34.5 130q-18 29 -44.5 72t-56.5 91t-61.5 97.5t-59 92.5t-48.5 76.5t-31 48.5q20 -4 36.5 -6.5t26.5 -2.5q9 0 21.5 2t27.5 5q45 -84 97.5 -170t107.5 -174q3 -5 4 -6.5t1.5 -2.5t1.5 -2.5t4 -5.5q20 80 35 174t25 188q29 -8 41 -8q13 0 48 11
q-5 -18 -18.5 -71t-31 -124.5t-36.5 -153.5t-36 -159.5t-29 -141t-15 -98.5q-14 3 -25 5t-16 2q-6 0 -20 -3t-33 -8z" />
    <glyph glyph-name="z" unicode="z" horiz-adv-x="486" 
d="M65 22q27 43 54 91t53 96t50 93t44 83q7 13 10 18t9 16q-20 -1 -53 -2.5t-69.5 -4t-72 -5t-59.5 -4.5v23.5t-2 14.5q-2 7 -5 16.5t-8 22.5q38 -4 101.5 -5t154.5 -1h37t33 1l32 2t34 3l6 -28q-29 -51 -61.5 -109.5t-62.5 -114t-55 -102t-38 -71.5q37 0 68.5 0.5t65.5 2
t72.5 4.5t89.5 8q-1 -12 -0.5 -22.5t1.5 -15.5q1 -4 5.5 -14.5t9.5 -22.5q-15 0 -36.5 0.5t-36.5 1.5q-45 2 -92.5 2.5t-91.5 0.5q-65 0 -128 -3h1q-11 -1 -27 -1.5t-27 -0.5z" />
    <glyph glyph-name="braceleft" unicode="{" horiz-adv-x="243" 
d="M-5 313q35 0 47.5 22.5t4.5 59.5l-35 165q-14 71 5 97t65 26h66l12 -55h-41q-20 0 -28 -12.5t1 -55.5l34 -159q10 -45 -4 -73.5t-43 -45.5q40 -17 63.5 -43.5t33.5 -73.5l34 -159q4 -22 10 -35t12.5 -20.5t15 -10t18.5 -2.5h41l12 -56h-66q-46 0 -77 26.5t-46 97.5
l-35 165q-8 37 -30.5 59.5t-57.5 22.5z" />
    <glyph glyph-name="bar" unicode="|" horiz-adv-x="144" 
d="M-71 749h70l210 -992h-70z" />
    <glyph glyph-name="braceright" unicode="}" horiz-adv-x="243" 
d="M247 253q-35 0 -48.5 -22.5t-5.5 -59.5l35 -165q15 -71 -4 -97.5t-65 -26.5h-66l-12 56h41q10 0 17 2.5t10.5 10t3 20.5t-4.5 35l-34 159q-9 45 4.5 73.5t42.5 45.5q-40 16 -63 42.5t-34 74.5l-34 159q-9 43 -21.5 55.5t-32.5 12.5h-41l-12 55h66q45 0 75.5 -26t45.5 -97
l35 -165q8 -37 31 -59.5t58 -22.5z" />
    <glyph glyph-name="asciitilde" unicode="~" horiz-adv-x="520" 
d="M31 234q16 42 39.5 66t71.5 24q29 0 53.5 -8.5t46.5 -17.5q8 -3 17.5 -7t16.5 -7q24 -11 45 -18.5t42 -7.5q12 0 23.5 7.5t20.5 19.5t15.5 26.5t10.5 27.5l54 -60q-8 -16 -17.5 -32.5t-22.5 -29.5t-30 -21t-40 -8q-29 0 -58.5 10t-65.5 27q-28 12 -50.5 20.5t-39.5 8.5
q-20 0 -33 -8t-22 -20.5t-14.5 -27.5t-8.5 -28z" />
    <glyph glyph-name="exclamdown" unicode="&#xa1;" horiz-adv-x="175" 
d="M66 311q8 -27 18.5 -60t18.5 -62t19 -65t22 -74.5t22 -75t19.5 -66t14 -49t6.5 -22.5q7 -32 -8 -45t-37 -13t-42 13t-27 45q-2 7 -6.5 40t-11 82.5t-14.5 109.5t-15 120q-4 29 -8 62.5t-7 59.5h36zM-40 424q-6 26 9 45.5t41 19.5t49.5 -19.5t29.5 -45.5q5 -26 -10 -45.5
t-41 -19.5q-13 0 -26 5t-23.5 14t-18 21t-10.5 25z" />
    <glyph glyph-name="cent" unicode="&#xa2;" horiz-adv-x="480" 
d="M27 237q-12 57 -4.5 100.5t30 74.5t56.5 49t75 24q-4 20 -11 47t-18 59q13 -4 22.5 -6.5t16.5 -2.5t15.5 2.5t19.5 6.5q2 -30 6 -56t8 -46q52 -2 97 -16.5t70 -34.5q-5 -17 -7.5 -36t-1.5 -39h-22q-9 12 -22 24.5t-29.5 23t-35 18t-38.5 9.5q23 -101 43.5 -196t42.5 -196
q35 3 67.5 24t52.5 50l20 -15l2 -28t3 -27q-23 -23 -58 -41t-77 -21q5 -23 13 -54t16 -57q-11 3 -21 5.5t-16 2.5q-7 0 -15.5 -2.5t-20.5 -5.5q-2 27 -6.5 59t-9.5 52q-41 5 -82.5 21.5t-77 46.5t-63 75t-40.5 106zM195 432q-48 -20 -63 -72t0 -122q16 -76 53 -122.5
t91 -62.5z" />
    <glyph glyph-name="sterling" unicode="&#xa3;" horiz-adv-x="507" 
d="M89 77q39 0 60.5 11t31 30.5t8.5 47.5t-8 63q-5 23 -12.5 47t-15.5 45q-23 -1 -50 -1h-48q0 14 -0.5 20.5t-1.5 11.5q-1 4 -3.5 10.5t-10.5 23.5q25 -5 48 -7t46 -2q-9 30 -15 57q-15 70 -5 116t34 73.5t58 38.5t68 11q19 0 40 -4t41 -11.5t38.5 -19t32.5 -27.5
q-8 -14 -17 -31t-16 -37l-19 15q-14 29 -38 44t-50 15q-48 0 -70 -35t-11 -86q7 -30 13 -54t12 -46q2 -5 3 -10t2 -9q30 0 52.5 0.5t45.5 2.5q11 1 26.5 1.5t26.5 1.5q1 -11 1.5 -19.5t1.5 -11.5q1 -6 3.5 -14.5t5.5 -17.5h-21q-34 1 -61.5 1.5t-63.5 0.5q3 -9 4.5 -18
t3.5 -17q15 -69 3 -121.5t-38 -86.5q62 0 119 2.5t115 5.5q17 0 39.5 1t36.5 2q3 -35 6 -49q2 -9 6 -20.5t9 -25.5q-14 0 -35 0.5t-35 1.5h1q-86 3 -173 3q-83 0 -165 -3h1q-14 -1 -33 -1.5t-33 -0.5q-2 10 -3 20.5t-3 20.5l-5 17.5t-7 23.5h24z" />
    <glyph glyph-name="currency" unicode="&#xa4;" horiz-adv-x="574" 
d="M437 583l59 -48l-43 -55q32 -30 53.5 -68.5t31.5 -82.5q18 -86 -19 -151q15 -13 32 -26.5t32 -25.5l-39 -50l-65 52q-26 -24 -61.5 -37t-77.5 -13q-44 0 -86 13t-77 38q-11 -12 -22.5 -27t-20.5 -26l-59 50l41 54q-62 62 -80 149q-10 43 -4.5 81t23.5 69q-16 14 -34 28.5
t-32 27.5l38 48l65 -55q54 51 141 51q42 0 83.5 -13.5t77.5 -36.5zM468 329q-8 38 -29.5 72t-51 59t-66 39.5t-74.5 14.5t-68 -14.5t-49 -39.5t-25.5 -59t1.5 -72t29 -72t50.5 -59.5t66 -40t74.5 -14.5t68 14.5t49 40t26 59.5t-1 72z" />
    <glyph glyph-name="yen" unicode="&#xa5;" horiz-adv-x="549" 
d="M223 322q-25 0 -50.5 -0.5t-50.5 -1.5q-14 0 -34 -0.5t-34 -0.5q0 10 -0.5 19t-1.5 11t-4 11t-6 19q40 -1 76.5 -1.5t75.5 -0.5q-19 23 -39 47t-40 47q-42 50 -91 108.5t-93 109.5q24 -4 42 -6t29 -2q13 0 27 1t29 4q11 -18 35 -50t55 -70.5t64.5 -80t62.5 -77.5
q29 68 56 136.5t51 142.5q24 -6 39 -6q6 0 21 3t35 9q-14 -25 -31 -59.5t-36 -73t-38 -79.5t-36 -79q-5 -10 -6.5 -12t-6.5 -13q39 0 77.5 0.5t76.5 1.5q0 -10 0.5 -19t1.5 -11t4 -11t6 -19q-14 0 -34 0.5t-34 0.5q-29 1 -51.5 1.5t-51.5 0.5l14 -65h86t84 1q1 -11 1.5 -20
t1.5 -11q0 -2 3 -10.5t7 -19.5q-42 2 -86 3t-86 1q12 -54 25.5 -109t27.5 -100q-40 8 -58 8t-53 -8q-8 52 -17 104.5t-20 104.5q-41 0 -85 -1t-83 -3q-1 11 -1.5 19.5t-0.5 10.5q-1 2 -4 11t-7 20q43 -1 85.5 -1h84.5z" />
    <glyph glyph-name="brokenbar" unicode="&#xa6;" horiz-adv-x="130" 
d="M47 190h70l76 -360h-70zM-55 676h69l76 -360h-70z" />
    <glyph glyph-name="section" unicode="&#xa7;" horiz-adv-x="437" 
d="M270 562q-15 32 -45 56.5t-67 24.5q-18 0 -35 -6t-28.5 -17.5t-17 -27.5t-0.5 -37q5 -23 19 -39.5t34.5 -29t44.5 -22.5t50 -20q31 -11 61.5 -23.5t56 -30t44.5 -42.5t27 -61q8 -42 -2 -74.5t-24 -52.5q19 -15 31.5 -34.5t19.5 -51.5q8 -38 1.5 -73.5t-28 -63
t-57.5 -44.5t-88 -17q-19 0 -40.5 4t-43 10.5t-41 15t-34.5 17.5q1 20 -1 48.5t-7 47.5h28q7 -11 20.5 -26.5t32.5 -29t44.5 -23t56.5 -9.5q24 0 43.5 9t32 24t18 33.5t1.5 38.5q-5 21 -18.5 37t-34 28t-45.5 22t-52 19q-34 12 -67.5 25.5t-62.5 33.5t-50 47.5t-30 68.5
q-5 22 -3 41.5t8.5 35.5t15 27.5t17.5 18.5q-15 17 -25 35t-18 54q-6 32 -1 62.5t23 54t49 38t76 14.5q51 0 91 -21.5t67 -47.5q-8 -11 -14 -30.5t-5 -36.5h-28zM358 244q-3 16 -9.5 28t-18 22t-28.5 19t-42 19q-47 19 -77.5 32t-49.5 21.5t-28.5 13.5t-15.5 9
q-8 -11 -13 -26.5t-1 -32.5q7 -32 35 -54t84 -44q63 -25 101 -41t56 -25q5 11 8 25t-1 34z" />
    <glyph glyph-name="dieresis" unicode="&#xa8;" horiz-adv-x="376" 
d="M224 629q-5 24 8.5 41.5t37.5 17.5t46 -17.5t27 -41.5t-9.5 -41.5t-38.5 -17.5t-45 17.5t-26 41.5zM32 629q-5 24 9 41.5t38 17.5t45.5 -17.5t26.5 -41.5t-9 -41.5t-38 -17.5t-45.5 17.5t-26.5 41.5z" />
    <glyph glyph-name="copyright" unicode="&#xa9;" horiz-adv-x="775" 
d="M29 340q-16 75 -2 140t52.5 113.5t97.5 76.5t133 28t145.5 -28t130.5 -76.5t101 -113.5t58 -140q16 -74 1.5 -139.5t-52.5 -114t-97.5 -76.5t-133.5 -28t-145.5 28t-130 76.5t-100.5 114t-58 139.5zM684 340q-14 63 -48.5 118t-83.5 96t-108.5 65t-121.5 24t-111.5 -24
t-81 -65t-43 -96t2.5 -118q13 -62 48 -117t84 -96t108.5 -65t121.5 -24t111 24t80.5 65t43 96t-1.5 117zM162 338q-13 60 -3 105.5t37 75.5t69.5 45t94.5 15q49 0 88.5 -8.5t68.5 -24.5q-10 -28 -4 -62l-17 -2q-8 6 -19.5 15t-27.5 17t-35 13.5t-42 5.5q-32 0 -60.5 -8.5
t-47 -31t-24.5 -60.5t6 -96q8 -39 26 -72.5t44.5 -58t60 -38.5t73.5 -14q19 0 37 5t33 13t27 17.5t20 17.5l24 -2q-3 -16 -2 -30.5t3 -23.5q-18 -13 -55.5 -28.5t-86.5 -15.5q-53 0 -100 16.5t-85 46.5t-65 72.5t-38 95.5z" />
    <glyph glyph-name="ordfeminine" unicode="&#xaa;" horiz-adv-x="341" 
d="M30 639q20 11 44.5 22.5t64.5 11.5q18 0 38.5 -4t39.5 -15.5t34 -31.5t22 -51q5 -20 8.5 -43.5t7.5 -44.5q3 -17 5 -31t4 -23q3 -14 8.5 -19t9.5 -5q3 0 11.5 4.5t13.5 7.5l8 -39q-8 -5 -21.5 -10t-31.5 -5q-17 0 -31.5 10t-22.5 23q-33 -33 -86 -33q-17 0 -35.5 4
t-35 13t-29 24.5t-17.5 39.5q-8 40 9 60t76 31q28 5 43.5 8t23 5.5t9 5.5t0.5 7q-8 41 -27.5 53t-44.5 12q-27 0 -42 -13t-17 -26h-28zM211 513q-15 -4 -32 -6q-13 -2 -25.5 -5.5t-21.5 -9.5t-13 -16t-1 -26q4 -20 19 -30.5t34 -10.5q20 0 33 11t22 22z" />
    <glyph glyph-name="guillemotleft" unicode="&#xab;" horiz-adv-x="361" 
d="M102 437q11 -14 27 -25t33 -13l-78 -164q33 -39 71 -84t72 -84q-16 -2 -28 -13t-15 -25l-174 207zM243 437q11 -14 27 -25t33 -13l-78 -164q33 -39 71 -84t71 -84q-15 -2 -27 -13t-15 -25l-174 207z" />
    <glyph glyph-name="logicalnot" unicode="&#xac;" horiz-adv-x="552" 
d="M426 315h-441l-15 70h511l59 -280h-70z" />
    <glyph glyph-name="registered" unicode="&#xae;" horiz-adv-x="775" 
d="M29 340q-16 75 -2 140t52.5 113.5t97.5 76.5t133 28t145.5 -28t130.5 -76.5t101 -113.5t58 -140q16 -74 1.5 -139.5t-52.5 -114t-97.5 -76.5t-133.5 -28t-145.5 28t-130 76.5t-100.5 114t-58 139.5zM89 340q13 -62 48 -117t84 -96t108.5 -65t121.5 -24t111 24t80.5 65
t43 96t-1.5 117q-14 63 -48.5 118t-83.5 96t-108.5 65t-121.5 24t-111.5 -24t-81 -65t-43 -96t2.5 -118zM228 432q-7 33 -17.5 72t-20.5 70q48 -6 92 -6q9 0 18 0.5t20 1.5q8 1 18.5 2t20.5 1q28 0 53.5 -6.5t46.5 -19.5t35.5 -33.5t20.5 -47.5q6 -29 -1.5 -51t-22.5 -37.5
t-35 -26t-39 -14.5q12 -11 24 -23.5t26 -26.5q21 -21 43 -43.5t42 -42.5t38 -36t32 -26l5 -22q-16 4 -28 5.5t-20 1.5q-10 0 -20 -1.5t-21 -3.5q-47 52 -97.5 104t-104.5 105h-16l13 -59q8 -35 17.5 -73.5t21.5 -79.5q-34 8 -44 8q-12 0 -42 -8q-1 7 -2.5 21t-2.5 21
q-3 26 -7.5 53.5t-10.5 53.5zM311 372q6 -2 13 -2h18q23 0 42.5 5t32.5 15.5t18.5 27.5t0.5 41q-7 34 -34 52.5t-62 18.5q-34 0 -57 -4q2 -20 5 -41.5t8 -41.5z" />
    <glyph glyph-name="macron" unicode="&#xaf;" horiz-adv-x="360" 
d="M29 657h285l15 -70h-285z" />
    <glyph glyph-name="degree" unicode="&#xb0;" horiz-adv-x="350" 
d="M23 522q-7 31 -1 59t22 48t40.5 32t56.5 12q31 0 61.5 -12t55.5 -32t42.5 -48t24.5 -59q6 -32 0 -59.5t-22 -47.5t-41 -32t-56 -12q-32 0 -62 12t-54.5 32t-42.5 47.5t-24 59.5zM79 522q4 -20 15 -37t26.5 -30t34.5 -20.5t39 -7.5q39 0 61 28t14 67q-5 20 -16 37.5
t-27 30t-35 20t-38 7.5q-40 0 -61.5 -27.5t-12.5 -67.5z" />
    <glyph glyph-name="plusminus" unicode="&#xb1;" horiz-adv-x="522" 
d="M-11 334h220l-38 177h70l38 -177h221l15 -70h-221l37 -177h-70l-37 177h-221zM44 70h512l15 -70h-512z" />
    <glyph glyph-name="twosuperior" unicode="&#xb2;" horiz-adv-x="337" 
d="M14 606q17 35 44.5 51t69.5 16q59 0 103 -26.5t57 -86.5q5 -24 3.5 -45t-15.5 -47t-43 -61t-78 -89q45 0 97 1t90 3v-20.5t1 -13.5q2 -5 5 -13t11 -23q-35 2 -75.5 4t-75.5 2q-34 0 -72.5 -2t-71.5 -4l-6 29q8 10 16.5 19.5t16.5 18.5q30 35 54 65t39.5 57.5t21 55.5
t-1.5 60q-8 38 -29.5 55.5t-46.5 17.5q-18 0 -29 -6.5t-18 -15.5t-9 -19.5t-2 -19.5l-18 -2z" />
    <glyph glyph-name="threesuperior" unicode="&#xb3;" horiz-adv-x="325" 
d="M61 329h16q13 -11 36 -22.5t51 -11.5q41 0 60 24t11 59q-9 43 -34 59t-51 16q-10 0 -24.5 -3.5t-26.5 -7.5q1 12 1.5 19.5t-0.5 11.5q-2 6 -5.5 15t-11.5 22q35 -14 51 -14q17 0 27 7t14.5 18.5t4.5 25t-3 26.5q-6 29 -25.5 43t-42.5 14q-22 0 -36.5 -12.5t-17.5 -29.5
l-17 -1l-30 43q13 14 37 28.5t69 14.5q51 0 91 -23t51 -73q8 -35 -4.5 -58.5t-34.5 -37.5q16 -4 32 -11t29.5 -18.5t24 -28t15.5 -38.5q13 -60 -26.5 -96.5t-116.5 -36.5q-37 0 -65.5 7t-51.5 18z" />
    <glyph glyph-name="acute" unicode="&#xb4;" horiz-adv-x="282" 
d="M153 705q10 11 21 18.5t25 7.5q12 0 28 -10.5t21 -30.5q2 -10 0 -18t-6 -14.5t-10 -11.5t-11 -9q-32 -23 -64 -47t-63 -47h-66z" />
    <glyph glyph-name="mu" unicode="&#xb5;" horiz-adv-x="461" 
d="M236 -15q-23 0 -43.5 4t-40.5 15q14 -66 29 -129t40 -138q-17 3 -31 5t-24 2q-8 0 -20 -2t-28 -5q-8 34 -15 71.5t-13 67.5q-8 40 -17.5 89.5t-20.5 100.5q-15 71 -28.5 129.5t-24.5 111.5q-5 20 -10 43.5l-10 47t-9.5 45.5t-8.5 39q37 -8 51 -8q15 0 49 8q4 -29 9 -63
t11.5 -71t13.5 -75t15 -74q11 -49 24 -73.5t27 -37.5q17 -14 37.5 -23.5t46.5 -9.5q38 0 59 17t28 40q4 14 5.5 26t-1 32t-8.5 52.5t-18 87.5q-4 20 -9 43t-10.5 46t-11 44.5t-9.5 38.5q37 -8 54 -8q18 0 48 8q12 -76 26.5 -153t31.5 -155q9 -43 20.5 -91.5t22.5 -90.5
q-34 8 -49 8q-18 0 -48 -8q-2 16 -2.5 26t-3.5 22l-2 8t-2 9q-20 -34 -54 -53t-76 -19z" />
    <glyph glyph-name="paragraph" unicode="&#xb6;" horiz-adv-x="496" 
d="M276 620q-11 -2 -20 -4t-21 -4l154 -724h-54l-84 395q-63 1 -112 16.5t-84.5 43t-57.5 65.5t-32 84q-20 95 23.5 142t138.5 47h263l9 -42l-70 -12l157 -739h-54z" />
    <glyph glyph-name="periodcentered" unicode="&#xb7;" horiz-adv-x="183" 
d="M22 307q-6 28 9 48t44 20q28 0 52.5 -20t30.5 -48q6 -29 -10 -48.5t-44 -19.5q-29 0 -52.5 19.5t-29.5 48.5z" />
    <glyph glyph-name="cedilla" unicode="&#xb8;" horiz-adv-x="246" 
d="M39 -148q14 -6 34.5 -10t42.5 -4q21 0 33.5 7.5t8.5 23.5q-3 16 -16 22.5t-30 6.5q-28 0 -41 -10l-20 17l21 114h52l-8 -67q5 1 13 1q43 0 71.5 -21.5t36.5 -56.5q5 -23 -1.5 -40.5t-21.5 -29t-36.5 -17.5t-46.5 -6q-29 0 -56.5 7.5t-47.5 14.5z" />
    <glyph glyph-name="onesuperior" unicode="&#xb9;" horiz-adv-x="229" 
d="M88 596q-16 -8 -31.5 -17t-29.5 -17q-5 8 -13.5 14.5t-16.5 10.5l-5 24q37 12 73.5 28.5t62.5 33.5h24q6 -38 13.5 -80.5t15.5 -81.5l20 -97q8 -37 19.5 -82t22.5 -83q-16 4 -27.5 6.5t-17.5 2.5t-17.5 -2.5t-24.5 -6.5q-5 39 -13.5 83.5t-16.5 81.5z" />
    <glyph glyph-name="ordmasculine" unicode="&#xba;" horiz-adv-x="395" 
d="M32 517q-9 43 -1 72.5t27.5 48t47.5 27t59 8.5q30 0 61 -8.5t58 -27t48 -48t30 -72.5q9 -42 0.5 -71.5t-28 -48t-47 -26.5t-57.5 -8q-31 0 -62.5 8t-58.5 26.5t-47.5 48t-29.5 71.5zM115 517q4 -21 12.5 -41t22 -35.5t31.5 -25.5t41 -10q22 0 35.5 10t19.5 25.5t6 35.5
t-4 41q-5 21 -13.5 41.5t-21 36.5t-30.5 25.5t-40 9.5q-23 0 -37 -9.5t-20.5 -25.5t-6.5 -36.5t5 -41.5z" />
    <glyph glyph-name="guillemotright" unicode="&#xbb;" horiz-adv-x="362" 
d="M133 402q16 2 28 13t15 25l174 -207l-92 -200q-11 14 -27 25t-33 13l78 163zM-7 402q15 2 27 13t15 25l174 -207l-92 -200q-11 14 -27 25t-33 13l78 163z" />
    <glyph glyph-name="onequarter" unicode="&#xbc;" horiz-adv-x="762" 
d="M454 135q36 68 76 138.5t78 137.5l16 -4t13 -2t15 2.5t19 5.5q10 -62 22.5 -126t25.5 -127q13 1 27.5 3.5t31.5 7.5q-1 -11 -1.5 -21.5t1.5 -15.5q1 -3 5.5 -13t9.5 -22q-19 3 -33.5 4t-28.5 2q6 -27 14 -57.5t15 -56.5q-15 4 -27 6.5t-18 2.5q-5 0 -15.5 -2.5
t-24.5 -6.5q-6 60 -18 114q-28 0 -57 -0.5t-55.5 -1.5t-48.5 -1.5t-35 -1.5zM379 687q20 -7 30 -7q9 0 36 11l-126 -721q-22 8 -30 8q-5 0 -14 -3.5t-23 -8.5zM58 596q-16 -8 -32 -17t-28 -17q-12 16 -32 25l-5 24q38 12 74.5 28.5t62.5 33.5h24q5 -38 13 -80.5t16 -81.5
l20 -97q8 -37 19 -82t22 -83q-15 4 -27.5 6.5t-17.5 2.5q-6 0 -17 -2.5t-25 -6.5q-5 39 -13 83.5t-16 81.5zM612 314q-4 -7 -8 -13t-8 -13q-18 -31 -34 -63.5t-30 -64.5h113z" />
    <glyph glyph-name="onehalf" unicode="&#xbd;" horiz-adv-x="749" 
d="M459 348q17 35 44 51t69 16q59 0 103 -26.5t57 -86.5q5 -24 3.5 -45t-15.5 -47t-43 -61t-78 -89h47t50 0.5t48.5 1.5t42.5 2q-2 -25 1 -34q1 -7 15 -36q-35 2 -75.5 4t-75.5 2q-34 0 -72 -2t-72 -4l-6 29q8 10 17 20t16 18q30 36 54.5 65.5t40 57t21 55.5t-1.5 60
q-8 38 -30 55.5t-47 17.5q-18 0 -29 -6.5t-18 -15.5t-9 -19.5t-2 -19.5l-17 -2zM376 687q10 -4 17.5 -5.5t12.5 -1.5q8 0 36 11l-126 -721q-22 8 -30 8q-5 0 -14 -3.5t-23 -8.5zM57 596q-15 -8 -31 -17t-29 -17q-5 8 -13.5 14.5t-17.5 10.5l-5 24q38 12 74.5 28.5t62.5 33.5
h24q5 -38 12.5 -80.5t15.5 -81.5l20 -97q8 -37 19.5 -82t22.5 -83q-15 4 -27.5 6.5t-18.5 2.5q-5 0 -16 -2.5t-25 -6.5q-5 39 -13.5 83.5t-16.5 81.5z" />
    <glyph glyph-name="threequarters" unicode="&#xbe;" horiz-adv-x="803" 
d="M493 135q37 68 76.5 138.5t77.5 137.5q8 -2 16.5 -4t13.5 -2t14.5 2.5t19.5 5.5q10 -62 22.5 -126t25.5 -127q23 1 58 11q-1 -11 -1.5 -21.5t1.5 -15.5q1 -3 5.5 -13t9.5 -22q-18 3 -32.5 4t-28.5 2q6 -27 14 -57.5t15 -56.5q-16 4 -27.5 6.5t-17.5 2.5t-16.5 -2.5
t-24.5 -6.5q-6 60 -18 114q-28 0 -57 -0.5t-55.5 -1.5t-48.5 -1.5t-35 -1.5zM29 329h16q13 -11 36.5 -22.5t51.5 -11.5q41 0 60 24t11 59q-9 43 -34 59t-51 16q-10 0 -25 -3.5t-27 -7.5q3 25 2 31q-2 6 -6 15t-11 22q19 -8 31.5 -11t18.5 -3q18 0 28 7t14.5 18.5t4 25
t-3.5 26.5q-6 29 -25.5 43t-42.5 14q-22 0 -36 -12.5t-18 -29.5l-17 -1l-29 43q13 14 36.5 28.5t68.5 14.5q51 0 91 -23t51 -73q8 -35 -4.5 -58.5t-33.5 -37.5q16 -4 32 -11t29.5 -18.5t23.5 -28t15 -38.5q13 -60 -26 -96.5t-116 -36.5q-37 0 -66 7t-52 18zM430 687
q20 -7 30 -7q9 0 36 11l-126 -721q-22 8 -30 8q-5 0 -14 -3.5t-23 -8.5zM651 314q-4 -7 -8 -13t-8 -13q-18 -31 -34 -63.5t-30 -64.5h113z" />
    <glyph glyph-name="questiondown" unicode="&#xbf;" horiz-adv-x="286" 
d="M58 263q4 8 7.5 19t2.5 18q19 8 42 8q13 0 33.5 -6t41.5 -20t38.5 -36.5t24.5 -54.5q6 -27 2.5 -50t-12.5 -43t-22 -37.5t-26 -34.5q-11 -14 -21.5 -28.5t-18 -29t-10.5 -30.5t1 -33q8 -33 35 -51.5t54 -18.5q24 0 45.5 16t37.5 42l26 -77q-19 -13 -43 -25t-60 -12
q-37 0 -68 11t-54.5 30t-38.5 44t-21 53q-6 30 -3 55t12.5 46.5t23.5 40.5t28 37q11 14 21.5 28.5t17.5 29t10 29.5t-1 31q-3 16 -17 32t-34 16q-10 0 -18 -4t-12 -7zM35 424q-6 26 9.5 45.5t41.5 19.5t49.5 -19.5t29.5 -45.5q5 -26 -10 -45.5t-41 -19.5q-13 0 -26 5t-24 14
t-18.5 21t-10.5 25z" />
    <glyph glyph-name="Agrave" unicode="&#xc0;" horiz-adv-x="662" 
d="M303 698q26 -40 55.5 -87.5t58.5 -95.5q48 -75 99 -155t97.5 -152t84 -129.5t58.5 -86.5q-46 8 -70 8q-11 0 -25.5 -2t-33.5 -5q-24 51 -56 105t-64 105q-10 16 -18 27.5t-17 25.5q-29 1 -60 1.5t-60 0.5q-30 0 -56 -0.5t-56 -1.5q-13 -72 -23.5 -140.5t-14.5 -122.5
q-13 3 -24.5 5t-19.5 2q-9 0 -21.5 -2.5t-29.5 -6.5q42 172 84.5 353t80.5 354h31zM299 533q-12 -57 -23 -106.5t-24 -106.5q10 0 19.5 -0.5t19.5 -0.5q13 -1 26 -1h26h47.5t47.5 1zM136 804q-15 9 -30.5 21t-19.5 32q-2 10 0.5 18t7.5 13t11.5 7.5t12.5 2.5q14 0 28 -7
t29 -19l193 -161h-66z" />
    <glyph glyph-name="Aacute" unicode="&#xc1;" horiz-adv-x="663" 
d="M294 698q26 -40 55.5 -87.5t58.5 -95.5q48 -75 99 -155t97.5 -152t84 -129.5t58.5 -86.5q-46 8 -70 8q-11 0 -25.5 -2t-33.5 -5q-24 51 -56 105t-64 105q-10 16 -18 27.5t-17 25.5q-29 1 -60 1.5t-60 0.5q-30 0 -56 -0.5t-56 -1.5q-13 -72 -23.5 -140.5t-14.5 -122.5
q-13 3 -24.5 5t-19.5 2q-9 0 -21.5 -2.5t-29.5 -6.5q42 172 84.5 353t80.5 354h31zM290 533q-12 -57 -23 -106.5t-24 -106.5q10 0 19.5 -0.5t19.5 -0.5q13 -1 26 -1h26h47.5t47.5 1zM305 872q19 26 45 26q12 0 28.5 -10t21.5 -31q4 -20 -7 -32t-22 -21q-31 -23 -63 -46.5
t-62 -46.5h-66z" />
    <glyph glyph-name="Acircumflex" unicode="&#xc2;" horiz-adv-x="668" 
d="M300 698q26 -40 55.5 -87.5t59.5 -95.5q47 -75 98 -155t97.5 -152t84 -129.5t58.5 -86.5q-46 8 -70 8q-11 0 -25.5 -2t-32.5 -5q-25 51 -57 105t-64 105q-9 16 -17 27.5t-17 25.5q-29 1 -60.5 1.5t-60.5 0.5q-30 0 -55.5 -0.5t-55.5 -1.5q-14 -72 -24 -140.5t-14 -122.5
q-14 3 -25.5 5t-19.5 2q-9 0 -21.5 -2.5t-29.5 -6.5q42 172 84.5 353t80.5 354h31zM254 809q-23 -25 -46 -49.5t-45 -48.5h-59l96 181h75l172 -181h-60zM296 533q-12 -57 -23 -106.5t-24 -106.5q10 0 19.5 -0.5t19.5 -0.5q14 -1 27 -1h26h47.5t46.5 1z" />
    <glyph glyph-name="Atilde" unicode="&#xc3;" horiz-adv-x="662" 
d="M293 698q26 -40 56 -87.5t59 -95.5q47 -75 98 -155t97.5 -152t84.5 -129.5t58 -86.5q-46 8 -69 8q-11 0 -26 -2t-33 -5q-24 51 -56.5 105t-64.5 105q-9 16 -17 27.5t-17 25.5q-29 1 -60 1.5t-60 0.5q-30 0 -56 -0.5t-56 -1.5q-14 -72 -24 -140.5t-14 -122.5q-14 3 -25 5
t-19 2q-9 0 -22 -2.5t-29 -6.5q42 172 84 353t80 354h31zM92 735q0 20 4 41.5t14 39t27 28.5t43 11q9 0 16.5 -1t16.5 -4t20 -7.5t27 -11.5q28 -12 40.5 -16.5t23.5 -4.5q18 0 27 14.5t10 33.5h48q1 -14 -1.5 -34.5t-12 -40.5t-28 -34t-50.5 -14q-31 0 -78 23
q-28 13 -41 17.5t-23 4.5q-18 0 -25 -9.5t-10 -35.5h-48zM289 533q-12 -57 -23 -106.5t-23 -106.5q10 0 19.5 -0.5t19.5 -0.5q13 -1 26 -1h26h47.5t47.5 1z" />
    <glyph glyph-name="Adieresis" unicode="&#xc4;" horiz-adv-x="661" 
d="M293 698q26 -40 56 -87.5t59 -95.5q47 -75 98 -155t97.5 -152t84.5 -129.5t58 -86.5q-46 8 -70 8q-11 0 -25.5 -2t-32.5 -5q-25 51 -57 105t-64 105q-9 16 -17 27.5t-17 25.5q-29 1 -60 1.5t-60 0.5q-30 0 -56 -0.5t-56 -1.5q-14 -72 -24 -140.5t-14 -122.5
q-14 3 -25.5 5t-19.5 2q-9 0 -21.5 -2.5t-29.5 -6.5q42 172 84.5 353t80.5 354h31zM289 533q-12 -57 -23 -106.5t-24 -106.5q10 0 20 -0.5t20 -0.5q13 -1 26 -1h26h47.5t47.5 1zM287 796q-5 24 8.5 42t37.5 18t46 -18t27 -42t-9 -41.5t-38 -17.5t-45.5 17.5t-26.5 41.5z
M95 796q-5 24 9 42t38 18t45.5 -18t26.5 -42t-8.5 -41.5t-37.5 -17.5t-46 17.5t-27 41.5z" />
    <glyph glyph-name="Aring" unicode="&#xc5;" horiz-adv-x="667" 
d="M149 804q-5 22 -0.5 42t16.5 35t30 23.5t41 8.5q22 0 43.5 -8.5t39.5 -23.5t31 -35t18 -42q8 -39 -10.5 -69t-55.5 -38q26 -40 56 -87t59 -95q47 -75 98 -155t97.5 -152t84.5 -129.5t58 -86.5q-46 8 -69 8q-11 0 -26 -2t-33 -5q-24 51 -56.5 105t-64.5 105
q-9 16 -17 27.5t-17 25.5q-29 1 -60 1.5t-60 0.5q-30 0 -56 -0.5t-56 -1.5q-14 -72 -24 -140.5t-14 -122.5q-14 3 -25 5t-19 2q-9 0 -22 -2.5t-30 -6.5q42 171 84.5 351.5t80.5 352.5q-21 2 -41 11.5t-36.5 24t-28.5 33.5t-16 40zM298 533q-12 -57 -23 -106.5t-23 -106.5
q10 0 19.5 -0.5t19.5 -0.5q13 -1 26 -1h26h47.5t47.5 1zM209 804q4 -20 21.5 -34.5t37.5 -14.5t32 14.5t8 34.5q-5 20 -22.5 34.5t-37.5 14.5t-32 -14.5t-7 -34.5z" />
    <glyph glyph-name="AE" unicode="&#xc6;" horiz-adv-x="829" 
d="M266 245q-25 -65 -45.5 -127t-37.5 -125q-15 3 -27 5t-19 2q-11 0 -27 -2.5t-38 -7.5q31 63 70 148.5t80.5 179t82 189t75.5 178.5q41 -2 84.5 -3t85.5 -1q41 0 87.5 1.5t86.5 3.5q-2 -13 -2.5 -23.5t1.5 -16.5t6.5 -17.5t12.5 -25.5q-18 3 -36.5 6.5t-45 5.5t-65 3.5
t-95.5 1.5q1 -7 2.5 -16t3.5 -17l-1 1q6 -32 11.5 -64t13.5 -64l14 -70q49 0 82 0.5t54.5 1.5t35 2t24.5 2q3 0 12 0.5t12 0.5q-3 -23 0 -37q3 -16 16 -37q-3 0 -13 0.5t-13 0.5q-11 1 -25 2t-36 2t-54.5 1.5t-81.5 0.5l19 -89q8 -36 16.5 -72t17.5 -72q2 -9 4 -17.5
t5 -19.5q101 0 157.5 4.5t84.5 9.5q-1 -14 -1.5 -25t0.5 -16q2 -6 6.5 -15.5t10.5 -23.5q-43 2 -91.5 4t-89.5 2q-42 0 -88 -2t-87 -4q-8 67 -20 126t-24 119zM403 583q-30 -72 -57.5 -138.5t-58.5 -139.5q45 -2 87.5 -3t89.5 -3z" />
    <glyph glyph-name="Ccedilla" unicode="&#xc7;" horiz-adv-x="629" 
d="M376 -16q-69 10 -131 38t-112 73t-85.5 106.5t-51.5 138.5q-18 85 -5 151.5t52.5 112.5t103 70t146.5 24q63 0 124 -15t110 -36q-5 -17 -6 -38.5t-1 -36.5q1 -3 1.5 -8t0.5 -6l-18 -2q-13 11 -33.5 26t-46.5 28.5t-56.5 23t-63.5 9.5q-55 0 -99 -18t-71 -55t-34.5 -94.5
t9.5 -135.5q16 -78 48.5 -135t75 -94t94 -55t106.5 -18q33 0 61 9t50.5 22t39.5 27.5t29 25.5l17 -14l3 -65q-8 -8 -26.5 -18.5t-44 -20t-58 -16t-69.5 -6.5h-6q-2 -11 -2 -16.5t-2 -18.5h13q43 0 71.5 -21.5t36.5 -56.5q5 -23 -2 -40.5t-22 -29t-36.5 -17.5t-46.5 -6
q-29 0 -56 7.5t-47 14.5l11 48q14 -5 35 -9.5t43 -4.5q21 0 33 7.5t9 23.5t-16 22.5t-30 6.5q-28 0 -41 -10l-21 18z" />
    <glyph glyph-name="Egrave" unicode="&#xc8;" horiz-adv-x="402" 
d="M44 425q-14 63 -30.5 131t-32.5 130q45 -2 93 -3.5t92 -1.5t92.5 1.5t91.5 3.5q2 -31 3 -39q1 -10 14 -40q-14 1 -34 2.5t-31 2.5q-21 1 -41.5 2.5t-43 3t-50 2t-61.5 0.5q2 -11 3 -19t2 -18q3 -17 6.5 -35.5t8.5 -40.5q5 -23 10 -45t9 -41l7 -33q83 0 137.5 3t98.5 8
q2 -15 2.5 -25.5t1.5 -15.5q3 -9 14 -40q-28 3 -62 5t-68 3t-63.5 1.5t-48.5 0.5q1 -5 1.5 -11.5t2.5 -14.5q4 -16 9.5 -40t14.5 -66q11 -56 18 -86.5t12 -49.5q32 0 67 0.5t69.5 2t67 4.5t59.5 9q0 -13 0.5 -24.5t2.5 -18.5q3 -11 15 -39q-45 2 -95 4t-95 2t-92.5 -2
t-92.5 -4q-11 64 -23 132.5t-26 131.5zM15 804q-14 9 -29.5 21t-20.5 32q-2 10 0.5 18t7.5 13t12 7.5t13 2.5q26 0 55 -26l194 -161h-67z" />
    <glyph glyph-name="Eacute" unicode="&#xc9;" horiz-adv-x="401" 
d="M33 425q-14 63 -30 131t-33 130q45 -2 93 -3.5t92 -1.5t92.5 1.5t91.5 3.5q2 -31 3 -39q1 -10 14 -40q-14 1 -34 2.5t-31 2.5q-21 1 -41.5 2.5t-43 3t-50 2t-61.5 0.5q2 -11 3 -19t2 -18q3 -17 6.5 -35.5t8.5 -40.5q5 -23 10 -45t9 -41l7 -33q83 0 137.5 3t98.5 8
q2 -15 2.5 -25.5t1.5 -15.5q3 -9 14 -40q-28 3 -62 5t-68 3t-63.5 1.5t-48.5 0.5q1 -5 1.5 -11.5t2.5 -14.5q4 -16 9.5 -40t14.5 -66q11 -56 18 -86.5t12 -49.5q32 0 67 0.5t69.5 2t67 4.5t59.5 9q0 -13 0.5 -24.5t2.5 -18.5q3 -11 15 -39q-45 2 -95 4t-95 2t-92.5 -2
t-92.5 -4q-11 64 -23 132.5t-26 131.5zM181 872q10 12 20.5 19t24.5 7q12 0 29 -10t22 -31q5 -20 -6.5 -32t-22.5 -21q-31 -23 -63 -46.5t-63 -46.5h-66z" />
    <glyph glyph-name="Ecircumflex" unicode="&#xca;" horiz-adv-x="408" 
d="M41 425q-13 63 -29.5 131t-32.5 130q44 -2 92 -3.5t92 -1.5t92.5 1.5t92.5 3.5q0 -14 0.5 -24t1.5 -15q2 -5 5.5 -15.5t9.5 -24.5q-15 1 -34.5 2.5t-30.5 2.5q-21 1 -41.5 2.5t-43.5 3t-50.5 2t-61.5 0.5q2 -11 3 -19t3 -19v1q3 -17 6 -35.5t8 -40.5q5 -23 10 -45t9 -41
l7 -33q83 0 137.5 3t99.5 8q1 -15 1.5 -25.5t2.5 -15.5q1 -5 4.5 -15.5t8.5 -24.5q-28 3 -62 5t-68 3t-63.5 1.5t-48.5 0.5q1 -5 1.5 -11.5t2.5 -14.5q4 -16 9.5 -40t14.5 -66q12 -56 18.5 -86.5t11.5 -49.5q32 0 67 0.5t70 2t67.5 4.5t59.5 9q-1 -13 0 -24.5t3 -18.5
q1 -9 14 -39q-45 2 -94.5 4t-94.5 2t-93 -2t-93 -4q-11 64 -22.5 132.5t-25.5 131.5zM133 809q-23 -25 -46 -49.5t-45 -48.5h-58l94 181h75l173 -181h-60z" />
    <glyph glyph-name="Edieresis" unicode="&#xcb;" horiz-adv-x="407" 
d="M38 425q-14 63 -30.5 131t-32.5 130q45 -2 92.5 -3.5t91.5 -1.5t93 1.5t92 3.5q0 -14 0.5 -24t1.5 -15q2 -5 5.5 -15.5t9.5 -24.5q-14 1 -34 2.5t-31 2.5q-21 1 -41.5 2.5t-43.5 3t-50.5 2t-61.5 0.5q2 -11 3 -19t3 -19v1q3 -17 6 -35.5t8 -40.5q5 -23 10 -45t9 -41
l7 -33q83 0 137.5 3t99.5 8q1 -15 1.5 -25.5t2.5 -15.5q1 -5 4.5 -15.5t8.5 -24.5q-28 3 -62 5t-67.5 3t-63.5 1.5t-49 0.5q2 -5 2.5 -11.5t2.5 -14.5q3 -16 8.5 -40t14.5 -66q12 -56 18.5 -86.5t11.5 -49.5q32 0 67 0.5t70 2t67.5 4.5t59.5 9q-1 -13 0 -24.5t3 -18.5
q1 -9 14 -39q-45 2 -94.5 4t-94.5 2t-93 -2t-93 -4q-11 64 -22.5 132.5t-25.5 131.5zM-21 796q-5 24 8.5 42t36.5 18q24 0 45.5 -18t26.5 -42t-9 -41.5t-38 -17.5t-44.5 17.5t-25.5 41.5zM169 796q-5 24 8.5 42t37.5 18t46 -18t27 -42t-9.5 -41.5t-38.5 -17.5t-45 17.5
t-26 41.5z" />
    <glyph glyph-name="Igrave" unicode="&#xcc;" horiz-adv-x="254" 
d="M116 424q-14 63 -30.5 131.5t-33.5 131.5q36 -6 59 -6q24 0 57 6q11 -63 22.5 -131.5t25.5 -131.5l35 -167q14 -63 31 -132t34 -132q-18 3 -33.5 5t-26.5 2t-25 -2t-31 -5q-11 63 -23 132t-26 132zM-36 804q-14 9 -29.5 21t-20.5 32q-2 10 0.5 18t7.5 13t11.5 7.5
t12.5 2.5q14 0 28 -7t28 -19l193 -161h-66z" />
    <glyph glyph-name="Iacute" unicode="&#xcd;" horiz-adv-x="253" 
d="M44 424q-14 63 -30.5 131.5t-32.5 131.5q34 -6 58 -6t57 6q11 -63 22.5 -131.5t25.5 -131.5l35 -167q14 -63 31 -132t34 -132q-18 3 -33.5 5t-26.5 2t-25 -2t-31 -5q-11 63 -23 132t-26 132zM69 872q19 26 45 26q12 0 28.5 -10t21.5 -31q5 -20 -6 -32t-22 -21
q-31 -23 -63 -46.5t-63 -46.5h-65z" />
    <glyph glyph-name="Icircumflex" unicode="&#xce;" horiz-adv-x="336" 
d="M120 424q-13 63 -30 131.5t-34 131.5q36 -6 60 -6q23 0 56 6q11 -63 23 -131.5t25 -131.5l36 -167q14 -63 30.5 -132t33.5 -132q-18 3 -33.5 5t-26.5 2t-25 -2t-31 -5q-11 63 -22.5 132t-25.5 132zM88 809q-22 -25 -45 -49.5t-45 -48.5h-59l95 181h75l172 -181h-60z" />
    <glyph glyph-name="Idieresis" unicode="&#xcf;" horiz-adv-x="319" 
d="M109 424q-14 63 -31 131.5t-33 131.5q34 -6 59 -6q22 0 57 6q10 -63 22 -131.5t26 -131.5l35 -167q14 -63 30.5 -132t33.5 -132q-18 3 -33 5t-26 2t-25.5 -2t-31.5 -5q-11 63 -22.5 132t-25.5 132zM-75 796q-5 24 9.5 42t38.5 18q12 0 23.5 -5t21 -13t16.5 -19t9 -23
q5 -24 -8.5 -41.5t-36.5 -17.5q-24 0 -46 17.5t-27 41.5zM116 796q-5 24 9 42t38 18t45.5 -18t26.5 -42t-9 -41.5t-38 -17.5t-45.5 17.5t-26.5 41.5z" />
    <glyph glyph-name="Eth" unicode="&#xd0;" horiz-adv-x="780" 
d="M104 424q-14 63 -30.5 131t-33.5 131q37 -2 79 -3.5t78 -1.5q19 0 37 0.5t36 0.5q19 1 37 2t36 1q88 0 155.5 -23t117 -65.5t81 -104t48.5 -138.5q21 -100 1 -168.5t-64.5 -111t-105 -61t-119.5 -18.5q-17 0 -33 0.5t-33 1.5q-16 1 -32.5 2t-32.5 1q-33 0 -70.5 -2
t-69.5 -4q-11 63 -22 131.5t-25 131.5l-21 98q-46 0 -97 -3q-1 11 -1.5 19.5t-1.5 11.5q0 2 -3 11t-7 19q54 -3 99 -3zM238 257q11 -52 22 -100t25 -99q23 -4 54.5 -5.5t65.5 -1.5q52 0 101 12.5t83 46t47 92.5t-6 152q-18 82 -49 134.5t-73 83t-93.5 42t-108.5 11.5
q-41 0 -76 -2.5t-63 -6.5q7 -45 16 -93t20 -99l3 -14q46 0 96 0.5t93 2.5q-2 -12 -1.5 -19.5t0.5 -10.5q3 -9 13 -33q-45 2 -94 3.5t-96 1.5z" />
    <glyph glyph-name="Ntilde" unicode="&#xd1;" horiz-adv-x="661" 
d="M683 -18q-128 121 -272 247.5t-287 249.5l-31 27q5 -28 13 -69.5t22 -104.5q4 -20 11 -50t15 -64t16.5 -69t16.5 -66.5t14.5 -55.5t10.5 -36q-16 4 -28 6.5t-20 2.5q-17 0 -47 -8q-1 13 -4.5 42t-9 66.5t-12 81.5t-14 88t-15 85t-14.5 73q-10 46 -19 87.5t-16.5 76.5
t-14 62t-11.5 44h29q14 -11 28 -24t28 -25q70 -62 144 -127t143.5 -126t132.5 -115t112 -95q-14 63 -28 129.5t-29 131.5t-29.5 126.5t-29.5 115.5q32 -8 46 -8q11 0 40 8q3 -24 10 -70t15 -96.5t16 -98t14 -74.5q5 -25 12.5 -58.5t15.5 -71t16.5 -75t16 -70.5t13 -57.5
t8.5 -35.5h-28zM107 735q-1 20 3 41.5t14 39t27 28.5t43 11q9 0 16.5 -1t16.5 -4t20 -7.5t27 -11.5q29 -12 41.5 -16.5t23.5 -4.5q19 0 27 14.5t10 33.5h48q1 -14 -1.5 -34.5t-11.5 -40.5t-27.5 -34t-50.5 -14q-14 0 -34.5 5.5t-45.5 17.5q-27 13 -40.5 17.5t-22.5 4.5
q-19 0 -25.5 -9.5t-9.5 -35.5h-48z" />
    <glyph glyph-name="Ograve" unicode="&#xd2;" horiz-adv-x="793" 
d="M46 340q-18 85 -4.5 151.5t53 112.5t102.5 70t146 24t157 -24t133 -70t100.5 -112.5t59.5 -151.5t5 -151.5t-53 -112.5t-103.5 -70t-146.5 -24t-156.5 24t-132.5 70t-100.5 112.5t-59.5 151.5zM679 340q-17 78 -49 135.5t-75 94.5t-94.5 55t-106.5 18t-98.5 -18
t-70.5 -55t-34.5 -94.5t9.5 -135.5q16 -78 48 -135t75 -94t94 -55t106 -18t99 18t71 55t34.5 94t-8.5 135zM198 804q-14 9 -29.5 21t-20.5 32q-2 10 0.5 18t7.5 13t11.5 7.5t12.5 2.5q14 0 28 -7t29 -19l193 -161h-66z" />
    <glyph glyph-name="Oacute" unicode="&#xd3;" horiz-adv-x="793" 
d="M42 340q-18 85 -4.5 151.5t53 112.5t102.5 70t146 24t157 -24t133 -70t100.5 -112.5t59.5 -151.5t5 -151.5t-53 -112.5t-103.5 -70t-146.5 -24t-156.5 24t-132.5 70t-100.5 112.5t-59.5 151.5zM675 340q-17 78 -49 135.5t-75 94.5t-94.5 55t-106.5 18t-98.5 -18
t-70.5 -55t-34.5 -94.5t9.5 -135.5q16 -78 48 -135t75 -94t94 -55t106 -18t99 18t71 55t34.5 94t-8.5 135zM372 872q19 26 45 26q12 0 28.5 -10t21.5 -31q5 -20 -6 -32t-23 -21q-30 -23 -62 -46.5t-63 -46.5h-66z" />
    <glyph glyph-name="Ocircumflex" unicode="&#xd4;" horiz-adv-x="797" 
d="M45 340q-18 85 -4.5 151.5t53 112.5t102.5 70t146 24t157 -24t133 -70t100.5 -112.5t59.5 -151.5t5 -151.5t-53 -112.5t-103.5 -70t-146.5 -24t-156.5 24t-132.5 70t-100.5 112.5t-59.5 151.5zM678 340q-17 78 -49 135.5t-74.5 94.5t-94 55t-106.5 18t-98.5 -18
t-70.5 -55t-35 -94.5t9 -135.5t49 -135t74.5 -94t93.5 -55t106 -18t99 18t71 55t35 94t-9 135zM318 809q-23 -25 -46 -49.5t-45 -48.5h-59l96 181h75l172 -181h-60z" />
    <glyph glyph-name="Otilde" unicode="&#xd5;" horiz-adv-x="797" 
d="M42 340q-18 85 -5 151.5t52.5 112.5t102.5 70t146 24t157 -24t133 -70t101 -112.5t60 -151.5t5 -151.5t-53 -112.5t-103.5 -70t-146.5 -24t-156.5 24t-132.5 70t-100.5 112.5t-59.5 151.5zM675 340q-17 78 -49 135.5t-75 94.5t-94.5 55t-106.5 18t-98.5 -18t-70.5 -55
t-34.5 -94.5t9.5 -135.5q16 -78 48 -135t75 -94t94 -55t106 -18t99 18t71 55t34.5 94t-8.5 135zM160 735q-1 20 3 41.5t14 39t27 28.5t43 11q9 0 16.5 -1t16.5 -4t20 -7.5t27 -11.5q29 -12 41.5 -16.5t23.5 -4.5q18 0 26.5 14.5t9.5 33.5h48q1 -14 -1.5 -34.5t-11.5 -40.5
t-27.5 -34t-50.5 -14q-14 0 -34 5.5t-45 17.5q-28 13 -41 17.5t-23 4.5q-18 0 -25 -9.5t-9 -35.5h-48z" />
    <glyph glyph-name="Odieresis" unicode="&#xd6;" horiz-adv-x="797" 
d="M41 340q-18 85 -4.5 151.5t53 112.5t102.5 70t146 24t157 -24t133 -70t100.5 -112.5t59.5 -151.5t5 -151.5t-53 -112.5t-103.5 -70t-146.5 -24t-156.5 24t-132.5 70t-100.5 112.5t-59.5 151.5zM674 340q-17 78 -49 135.5t-74.5 94.5t-94 55t-106.5 18t-98.5 -18
t-70.5 -55t-35 -94.5t9 -135.5t49 -135t74.5 -94t93.5 -55t106 -18t99 18t71 55t35 94t-9 135zM354 796q-5 24 9 42t38 18t45.5 -18t26.5 -42t-9 -41.5t-38 -17.5t-45.5 17.5t-26.5 41.5zM162 796q-5 24 9.5 42t38.5 18t45 -18t26 -42t-8.5 -41.5t-37.5 -17.5t-46 17.5
t-27 41.5z" />
    <glyph glyph-name="multiply" unicode="&#xd7;" horiz-adv-x="518" 
d="M208 256q-52 43 -108 89.5t-107 90.5l38 48l217 -179q34 44 70.5 90t71.5 89l58 -48l-140 -180l216 -179l-37 -50l-218 179l-141 -179l-60 50z" />
    <glyph glyph-name="Oslash" unicode="&#xd8;" horiz-adv-x="809" 
d="M30 340q-18 85 -4.5 151.5t53 112.5t102.5 70t146 24q69 0 131 -16.5t115 -48.5q7 10 16 24.5t18 30t16.5 29.5t10.5 23q11 -11 26.5 -22t29.5 -19q-7 -6 -16.5 -17.5t-20 -25t-20.5 -27t-18 -24.5q60 -47 102 -113t60 -152q18 -85 5 -151.5t-53 -112.5t-103.5 -70
t-146.5 -24q-67 0 -128.5 16.5t-113.5 47.5q-15 -21 -34 -51.5t-30 -58.5q-26 26 -56 41q8 6 17.5 17.5t19.5 25.5t19.5 28.5t18.5 26.5q-60 45 -102 112t-60 153zM534 576q-42 35 -91 51t-104 16t-98.5 -18t-70.5 -55t-35 -94.5t9 -135.5q14 -65 38 -114.5t57 -85.5z
M275 104q41 -32 90.5 -49t101.5 -17q55 0 99 18t71 55t34.5 94t-8.5 135q-14 63 -37.5 112.5t-54.5 86.5z" />
    <glyph glyph-name="Ugrave" unicode="&#xd9;" horiz-adv-x="643" 
d="M557 360q-15 69 -26.5 122t-20.5 92.5t-16.5 67t-14.5 46.5q31 -7 53 -7q6 0 16.5 2t21.5 6q4 -34 12 -83.5t17 -105.5t19.5 -115.5t21.5 -112.5q13 -67 5 -120.5t-36.5 -91t-77 -58t-116.5 -20.5q-150 0 -234 70.5t-115 217.5q-5 24 -8.5 45t-7.5 41q-3 17 -5.5 34
t-6.5 34q-14 69 -27.5 126t-24.5 99q-2 8 -5 20.5t-4 17.5q17 -3 33 -4.5t28 -1.5q9 0 23 1.5t28 5.5q2 -23 7.5 -59.5t13.5 -82t18 -97.5t22 -107q10 -48 24.5 -100t43 -95t76.5 -71t126 -28q51 0 82.5 15t49 39.5t22.5 57t3.5 67t-8 69t-12.5 64.5zM126 804
q-14 9 -29.5 21t-20.5 32q-2 10 0.5 18t7.5 13t11.5 7.5t12.5 2.5q14 0 28 -7t29 -19l193 -161h-66z" />
    <glyph glyph-name="Uacute" unicode="&#xda;" horiz-adv-x="642" 
d="M550 360q-15 69 -26.5 122t-20.5 92.5t-16.5 67t-14.5 46.5q31 -7 53 -7q6 0 16.5 2t21.5 6q4 -34 12 -83.5t17 -105.5t19.5 -115.5t21.5 -112.5q13 -67 5 -120.5t-36.5 -91t-77 -58t-116.5 -20.5q-150 0 -234 70.5t-115 217.5q-5 24 -8.5 45t-7.5 41q-3 17 -5.5 34
t-6.5 34q-14 69 -27.5 126t-24.5 99q-2 8 -5 20.5t-4 17.5q17 -3 33 -4.5t28 -1.5q9 0 23 1.5t28 5.5q2 -23 7.5 -59.5t13.5 -82t18 -97.5t22 -107q10 -48 24.5 -100t43 -95t76.5 -71t126 -28q51 0 82.5 15t49 39.5t22.5 57t3.5 67t-8 69t-12.5 64.5zM297 872q19 26 45 26
q12 0 28.5 -10t21.5 -31q5 -20 -6 -32t-23 -21q-30 -23 -62 -46.5t-63 -46.5h-66z" />
    <glyph glyph-name="Ucircumflex" unicode="&#xdb;" horiz-adv-x="647" 
d="M555 360q-15 69 -26 122t-20.5 92.5t-17 67t-14.5 46.5q17 -4 30.5 -5.5t23.5 -1.5q6 0 16 2t21 6q4 -34 12 -83.5t17.5 -105.5t20 -115.5t21.5 -112.5q13 -67 5 -120.5t-37 -91t-77.5 -58t-116.5 -20.5q-150 0 -234 70.5t-115 217.5q-5 24 -8.5 45t-6.5 41l-6 34t-7 34
q-14 69 -27.5 126t-24.5 99q-2 8 -4.5 20.5t-4.5 17.5q17 -3 33.5 -4.5t28.5 -1.5q9 0 22.5 1.5t27.5 5.5q2 -23 7.5 -59.5t14 -82t18.5 -97.5t22 -107q10 -48 24 -100t42.5 -95t76.5 -71t126 -28q51 0 82.5 15t49 39.5t22.5 57t3.5 67t-8 69t-12.5 64.5zM245 809
q-23 -25 -46 -49.5t-45 -48.5h-59l96 181h75l172 -181h-60z" />
    <glyph glyph-name="Udieresis" unicode="&#xdc;" horiz-adv-x="648" 
d="M551 360q-15 69 -26 122t-20.5 92.5t-17 67t-14.5 46.5q17 -4 30.5 -5.5t23.5 -1.5q6 0 16 2t21 6q4 -34 12 -83.5t17.5 -105.5t20 -115.5t21.5 -112.5q13 -67 5 -120.5t-36.5 -91t-77.5 -58t-117 -20.5q-150 0 -233.5 70.5t-115.5 217.5q-5 24 -8.5 45t-6.5 41l-6 34
t-7 34q-14 69 -27 126t-24 99q-2 8 -5 20.5t-4 17.5q17 -3 33 -4.5t28 -1.5q9 0 22.5 1.5t27.5 5.5q3 -23 8.5 -59.5t13.5 -82t18 -97.5t22 -107q10 -48 24 -100t42.5 -95t76.5 -71t126 -28q51 0 82.5 15t49 39.5t22.5 57t3.5 67t-8 69t-12.5 64.5zM89 796q-5 24 9.5 42
t38.5 18t45 -18t26 -42t-8.5 -41.5t-37.5 -17.5t-46 17.5t-27 41.5zM281 796q-5 24 9 42t38 18t45.5 -18t26.5 -42t-9 -41.5t-38 -17.5t-45.5 17.5t-26.5 41.5z" />
    <glyph glyph-name="Yacute" unicode="&#xdd;" horiz-adv-x="582" 
d="M326 -7q-8 65 -22 137.5t-30 147.5q-14 17 -40 50.5t-59 74t-68.5 84.5t-68 84t-58.5 71.5t-39 46.5q25 -4 44 -6t30 -2q14 0 28.5 1t30.5 4q60 -83 120.5 -162.5t128.5 -165.5q15 34 30 74.5t28.5 83t26 86t23.5 85.5q28 -6 44 -6q22 0 58 9q-33 -74 -58.5 -133.5
t-45 -108.5t-33.5 -88t-24 -71q7 -36 16.5 -77t19 -81.5t18.5 -76.5t17 -61q-18 3 -33.5 5t-26.5 2q-12 0 -26 -2t-31 -5zM269 862q10 12 20.5 19.5t24.5 7.5q12 0 28.5 -10.5t21.5 -30.5t-6 -32.5t-23 -21.5q-30 -23 -62 -46.5t-63 -46.5h-66z" />
    <glyph glyph-name="Thorn" unicode="&#xde;" horiz-adv-x="474" 
d="M27 424q-13 63 -30 131.5t-33 131.5q36 -6 59 -6q22 0 57 6q3 -32 7 -64.5t11 -64.5h110q102 0 170 -42.5t88 -136.5q12 -57 -2.5 -94t-45 -59t-73 -31t-87.5 -9q-26 0 -43.5 0.5t-38.5 2.5l10 -44q8 -41 20 -84t24 -69q-43 8 -62 8q-11 0 -26 -2t-32 -5q-11 63 -22 132
t-25 132zM165 243q13 -2 30.5 -2h35.5q30 0 56 8t44 25t25.5 43t0.5 61q-5 22 -17 44.5t-32.5 40.5t-50.5 29t-70 11h-77z" />
    <glyph glyph-name="germandbls" unicode="&#xdf;" horiz-adv-x="518" 
d="M31 404q-7 31 -12 54.5t-10 40.5q-2 8 -3.5 13.5t-2.5 9.5q-13 63 -2.5 106.5t35 71.5t58.5 40.5t67 12.5q24 0 52.5 -8.5t54.5 -24t45 -37.5t25 -49q5 -22 3 -41.5t-8.5 -36.5t-16 -32.5t-19.5 -29.5q-13 -19 -23 -36.5t-6 -34.5q3 -13 12 -24.5t23 -22t31 -20.5t35 -20
q24 -14 49.5 -29.5t47.5 -34.5t38 -42t22 -53q7 -34 -2 -68t-31 -61.5t-54.5 -45t-71.5 -17.5q-34 0 -64 8.5t-53 20.5q6 14 8 34t0 37h19q14 -18 42 -31t56 -13q18 0 34 6.5t26.5 18.5t15 29.5t-0.5 38.5q-5 22 -17.5 39.5t-30.5 33t-39.5 29t-43.5 26.5t-43 26t-38.5 28.5
t-30 33t-17.5 39.5q-6 29 7 54t31 51q20 28 35.5 59t7.5 69q-8 35 -35 58t-68 23q-31 0 -49 -12.5t-25.5 -36.5t-5.5 -59.5t12 -81.5l48 -228q7 -34 16 -73.5t18.5 -79t19 -76t17.5 -64.5q-38 8 -56 8q-16 0 -53 -8q-3 28 -9.5 64.5t-14 76t-15.5 79t-15 73.5z" />
    <glyph glyph-name="agrave" unicode="&#xe0;" horiz-adv-x="463" 
d="M52 428q40 35 76.5 48t76.5 13q37 0 70 -11t59.5 -31t44.5 -48.5t25 -63.5q12 -54 21.5 -109t22.5 -117q2 -11 5 -22t8 -20t12 -14.5t18 -5.5q3 0 8 1.5t19 9.5l10 -44q-13 -6 -31 -12t-38 -6q-30 0 -51 14t-32 37q-26 -32 -56.5 -47t-77.5 -15q-26 0 -53 9t-50.5 26
t-40.5 41t-23 54q-13 63 18.5 97.5t96.5 45.5q48 8 74.5 14t38.5 12t13.5 13.5t-1.5 18.5q-5 22 -14 42.5t-24 36.5t-35.5 25t-47.5 9q-36 0 -64 -17.5t-39 -48.5h-26zM332 236q-18 -5 -42 -9q-23 -4 -46.5 -9.5t-41.5 -16t-27.5 -28t-3.5 -45.5q9 -41 36.5 -61.5
t56.5 -20.5q34 0 57.5 18.5t34.5 41.5zM55 637q-15 8 -30.5 20.5t-20.5 32.5q-4 20 8 30.5t24 10.5q14 0 28.5 -7.5t28.5 -18.5l193 -162h-66z" />
    <glyph glyph-name="aacute" unicode="&#xe1;" horiz-adv-x="459" 
d="M37 428q40 35 76.5 48t76.5 13q37 0 70 -11t59.5 -31t44.5 -48.5t25 -63.5q12 -54 21.5 -109t22.5 -117q2 -11 5 -22t8 -20t12 -14.5t18 -5.5q3 0 8 1.5t19 9.5l10 -44q-13 -6 -31 -12t-38 -6q-30 0 -51 14t-32 37q-26 -32 -56.5 -47t-77.5 -15q-26 0 -53 9t-50.5 26
t-40.5 41t-23 54q-13 63 18.5 97.5t96.5 45.5q48 8 74.5 14t38.5 12t13.5 13.5t-1.5 18.5q-5 22 -14 42.5t-24 36.5t-35.5 25t-47.5 9q-36 0 -64 -17.5t-39 -48.5h-26zM317 236q-18 -5 -42 -9q-23 -4 -46.5 -9.5t-41.5 -16t-27.5 -28t-3.5 -45.5q9 -41 36.5 -61.5
t56.5 -20.5q34 0 57.5 18.5t34.5 41.5zM217 705q10 11 20.5 18.5t24.5 7.5q12 0 28.5 -10.5t21.5 -30.5t-6 -32.5t-22 -20.5q-31 -23 -63 -47t-63 -47h-66z" />
    <glyph glyph-name="acircumflex" unicode="&#xe2;" horiz-adv-x="466" 
d="M46 428q40 35 76.5 48t76.5 13q37 0 70 -11t59.5 -31t44.5 -48.5t26 -63.5q11 -54 20.5 -109t23.5 -117q2 -11 5 -22t7.5 -20t11.5 -14.5t18 -5.5q3 0 8.5 1.5t19.5 9.5l9 -44q-12 -6 -30 -12t-38 -6q-30 0 -51.5 14t-32.5 37q-26 -32 -56.5 -47t-77.5 -15q-26 0 -53 9
t-50 26t-40 41t-23 54q-14 62 17.5 97t96.5 46q48 8 75 14t39 12t13 13.5t-1 18.5q-5 22 -14.5 42.5t-24.5 36.5t-35 25t-47 9q-36 0 -64 -17.5t-39 -48.5h-26zM169 642q-22 -25 -45 -49.5t-45 -49.5h-59l95 182h75l173 -182h-60zM327 236q-20 -5 -42 -9q-23 -4 -46.5 -9.5
t-41.5 -16t-27.5 -28t-3.5 -45.5q4 -20 13.5 -35.5t22.5 -26t27.5 -15.5t28.5 -5q34 0 57.5 18.5t34.5 41.5z" />
    <glyph glyph-name="atilde" unicode="&#xe3;" horiz-adv-x="473" 
d="M46 428q40 35 76.5 48t76.5 13q37 0 70 -11t59.5 -31t44.5 -48.5t26 -63.5q11 -54 21 -109t23 -117q2 -11 5 -22t7.5 -20t11.5 -14.5t18 -5.5q3 0 8.5 1.5t19.5 9.5l9 -44q-12 -6 -30 -12t-38 -6q-30 0 -51 14t-33 37q-26 -32 -56 -47t-77 -15q-26 0 -53 9t-50.5 26
t-40.5 41t-23 54q-14 62 18 97t97 46q48 8 74.5 14t38.5 12t13.5 13.5t-1.5 18.5q-5 22 -14.5 42.5t-24.5 36.5t-35 25t-47 9q-36 0 -64 -17.5t-39 -48.5h-26zM327 236q-9 -2 -20 -4.5t-22 -4.5q-23 -4 -46.5 -9.5t-41.5 -16t-27.5 -28t-3.5 -45.5q9 -41 36.5 -61.5
t56.5 -20.5q34 0 57.5 18.5t34.5 41.5zM15 568q-1 20 3 41t14 38.5t27 28.5t43 11q9 0 16.5 -1t16.5 -3.5t20 -7t27 -11.5q28 -13 41 -17t24 -4q18 0 26.5 14.5t10.5 33.5h47q1 -14 -1.5 -35t-11.5 -40.5t-27.5 -33.5t-49.5 -14q-15 0 -35 5.5t-45 17.5q-27 13 -40.5 17
t-23.5 4q-18 0 -25 -9t-9 -35h-48z" />
    <glyph glyph-name="adieresis" unicode="&#xe4;" horiz-adv-x="471" 
d="M45 428q40 35 76.5 48t76.5 13q37 0 70 -11t59.5 -31t44.5 -48.5t26 -63.5q11 -54 20.5 -109t23.5 -117q2 -11 5 -22t7.5 -20t11.5 -14.5t18 -5.5q3 0 8.5 1.5t19.5 9.5l9 -44q-12 -6 -30 -12t-38 -6q-30 0 -51.5 14t-32.5 37q-26 -32 -56.5 -47t-77.5 -15q-26 0 -53 9
t-50.5 26t-40.5 41t-23 54q-13 63 18.5 97.5t96.5 45.5q48 8 75 14t39 12t13 13.5t-1 18.5q-5 22 -14.5 42.5t-24.5 36.5t-35 25t-47 9q-36 0 -64 -17.5t-39 -48.5h-26zM326 236q-20 -5 -42 -9q-23 -4 -46.5 -9.5t-41.5 -16t-27.5 -28t-3.5 -45.5q4 -20 13.5 -35.5t22.5 -26
t27.5 -15.5t28.5 -5q34 0 57.5 18.5t34.5 41.5zM208 629q-5 24 9 41.5t38 17.5t45.5 -17.5t26.5 -41.5t-9 -41.5t-38 -17.5t-45.5 17.5t-26.5 41.5zM16 629q-5 24 9.5 41.5t38.5 17.5t45 -17.5t26 -41.5t-8.5 -41.5t-37.5 -17.5t-46 17.5t-27 41.5z" />
    <glyph glyph-name="aring" unicode="&#xe5;" horiz-adv-x="465" 
d="M48 428q40 35 76.5 48t76.5 13q37 0 70 -11t59.5 -31t44.5 -48.5t26 -63.5q11 -54 20.5 -109t23.5 -117q2 -11 5 -22t7.5 -20t11.5 -14.5t18 -5.5q3 0 8.5 1.5t19.5 9.5l9 -44q-12 -6 -30 -12t-38 -6q-30 0 -51.5 14t-32.5 37q-26 -32 -56.5 -47t-77.5 -15q-26 0 -53 9
t-50 26t-40 41t-23 54q-14 62 17.5 97t96.5 46q48 8 75 14t39 12t13 13.5t-1 18.5q-5 22 -14.5 42.5t-24.5 36.5t-35 25t-47 9q-36 0 -64 -17.5t-39 -48.5h-26zM64 637q-5 22 -0.5 42t16.5 35t30 23.5t41 8.5q22 0 43.5 -8.5t39.5 -23.5t31 -35t18 -42q4 -23 0 -42.5
t-16 -34.5t-30 -23.5t-41 -8.5q-22 0 -44 8.5t-40 23.5t-31 34.5t-17 42.5zM329 236q-9 -2 -20 -4.5t-22 -4.5q-23 -4 -46.5 -9.5t-41.5 -16t-27.5 -28t-3.5 -45.5q4 -20 13.5 -35.5t22.5 -26t27.5 -15.5t28.5 -5q34 0 58 18.5t35 41.5zM124 637q4 -20 21.5 -34.5
t37.5 -14.5t32 14.5t8 34.5q-5 20 -22.5 34t-37.5 14t-32 -14t-7 -34z" />
    <glyph glyph-name="ae" unicode="&#xe6;" horiz-adv-x="784" 
d="M37 428q40 35 76.5 48t76.5 13q32 0 75 -13t85 -54q20 32 53.5 49.5t80.5 17.5q54 0 97 -16.5t75 -45t53 -66.5t30 -80q2 -10 4 -24t3 -24q-17 0 -40 0.5t-40 0.5q-35 1 -68.5 1.5t-68.5 0.5q-21 0 -42 -0.5t-43 -1.5q-11 0 -17 -0.5t-17 -0.5l4 -17q7 -36 24.5 -67
t42.5 -54t57.5 -36t70.5 -13q36 0 72 21t57 53l20 -15l4 -55q-27 -26 -69 -45.5t-89 -19.5q-65 0 -123 27.5t-97 75.5q-6 -20 -17 -38.5t-29.5 -33t-45.5 -23t-65 -8.5q-26 0 -53 9t-50.5 26t-40.5 41t-23 54q-13 63 18.5 97.5t96.5 45.5q48 8 75 14t39 12t13 13.5t-1 18.5
q-5 22 -14.5 42.5t-24.5 36.5t-35 25t-47 9q-36 0 -64 -17.5t-39 -48.5h-26zM497 438q-32 0 -51.5 -14t-30 -35.5t-13 -48t-0.5 -50.5q8 0 14 -0.5t14 -0.5q23 -1 45.5 -1.5t43.5 -0.5q22 0 44.5 0.5t44.5 1.5q11 0 15.5 0.5t14.5 0.5q-5 24 -15.5 50t-27 48t-41 36
t-57.5 14zM157 128q8 -37 34.5 -59.5t64.5 -22.5q18 0 34 6t27 17.5t16.5 29t2.5 40.5q-2 14 -5.5 32.5t-7.5 33.5q-2 11 -2.5 15.5t-2.5 15.5q-20 -5 -42 -9q-23 -4 -46.5 -9.5t-41.5 -16t-27.5 -28t-3.5 -45.5z" />
    <glyph glyph-name="ccedilla" unicode="&#xe7;" horiz-adv-x="473" 
d="M237 -148q14 -6 34.5 -10t43.5 -4q20 0 32.5 7.5t8.5 23.5q-3 16 -16 22.5t-30 6.5q-28 0 -40 -10l-21 17l15 83q-41 4 -82 20.5t-76.5 47t-63 75t-40.5 106.5q-14 66 -2 113.5t41.5 78t72.5 45.5t92 15q27 0 53.5 -4t50 -11t43 -16.5t32.5 -19.5q-5 -17 -7.5 -36
t-1.5 -39h-22q-9 12 -23.5 25.5t-32 24.5t-37.5 18t-41 7q-42 0 -68 -15t-39.5 -42t-14 -63.5t8.5 -79.5q20 -95 70.5 -143.5t128.5 -48.5q18 0 36 5.5t35.5 15.5t32 23.5t25.5 29.5l20 -15l2 -28t3 -27q-12 -12 -28 -22.5t-34.5 -19t-38.5 -14.5t-40 -8q-2 -11 -2 -15.5
t-2 -17.5h12q43 0 71.5 -21.5t36.5 -56.5q5 -23 -1.5 -40.5t-21 -29t-36.5 -17.5t-47 -6q-29 0 -56.5 7.5t-47.5 14.5z" />
    <glyph glyph-name="egrave" unicode="&#xe8;" horiz-adv-x="475" 
d="M49 224q-13 61 -8 110t27.5 83.5t62 53t95.5 18.5q54 0 97 -16.5t75 -45t53 -66.5t30 -80q2 -10 3.5 -24t3.5 -24q-18 0 -40.5 0.5t-39.5 0.5q-35 1 -69 1.5t-69 0.5q-21 0 -41.5 -0.5t-42.5 -1.5q-11 0 -17 -0.5t-17 -0.5l4 -17q7 -36 24.5 -67t42.5 -54t57.5 -36
t70.5 -13q18 0 36 5.5t35.5 15.5t32 23.5t25.5 29.5l19 -15l4 -55q-26 -26 -68 -45.5t-89 -19.5q-55 0 -104 18t-88.5 50.5t-66.5 76t-38 94.5zM238 438q-32 0 -51 -14t-29.5 -35.5t-13 -48t-0.5 -50.5q8 0 14 -0.5t13 -0.5q23 -1 46 -1.5t44 -0.5q22 0 44 0.5t45 1.5
q11 0 15.5 0.5t13.5 0.5q-5 24 -15.5 50t-27 48t-41 36t-57.5 14zM74 637q-14 8 -30 20.5t-21 32.5q-2 10 0.5 17.5t7.5 13t12 8t13 2.5q14 0 28.5 -7.5t28.5 -18.5l193 -162h-66z" />
    <glyph glyph-name="eacute" unicode="&#xe9;" horiz-adv-x="477" 
d="M38 224q-13 61 -8 110t27.5 83.5t62 53t95.5 18.5q54 0 97 -16.5t75 -45t53 -66.5t30 -80q2 -10 3.5 -24t3.5 -24q-18 0 -40.5 0.5t-39.5 0.5q-35 1 -69 1.5t-69 0.5q-21 0 -41.5 -0.5t-42.5 -1.5q-11 0 -17 -0.5t-17 -0.5l4 -17q7 -36 24.5 -67t42.5 -54t57.5 -36
t70.5 -13q18 0 36 5.5t35.5 15.5t32 23.5t25.5 29.5l19 -15l4 -55q-26 -26 -68 -45.5t-89 -19.5q-55 0 -104 18t-88.5 50.5t-66.5 76t-38 94.5zM227 438q-32 0 -51 -14t-29.5 -35.5t-13 -48t-0.5 -50.5q8 0 14 -0.5t13 -0.5q23 -1 46 -1.5t44 -0.5q22 0 44 0.5t45 1.5
q11 0 15.5 0.5t13.5 0.5q-5 24 -15.5 50t-27 48t-41 36t-57.5 14zM241 705q9 11 20 18.5t24 7.5t29.5 -10.5t21.5 -30.5t-6 -32.5t-23 -20.5q-31 -23 -62.5 -47t-63.5 -47h-66z" />
    <glyph glyph-name="ecircumflex" unicode="&#xea;" horiz-adv-x="481" 
d="M45 224q-13 61 -8 110t27.5 83.5t62 53t95.5 18.5q54 0 97 -16.5t75 -45t53 -66.5t30 -80q2 -10 4 -24t3 -24q-18 0 -40.5 0.5t-39.5 0.5q-35 1 -68.5 1.5t-68.5 0.5q-21 0 -42 -0.5t-43 -1.5q-11 0 -17 -0.5t-17 -0.5l4 -17q7 -36 24.5 -67t42.5 -54t57.5 -36t70.5 -13
q18 0 36 5.5t35.5 15.5t32 23.5t25.5 29.5l20 -15l3 -55q-26 -26 -68 -45.5t-89 -19.5q-55 0 -104 18t-88.5 50.5t-66.5 76t-38 94.5zM235 438q-32 0 -51 -14t-29.5 -35.5t-13.5 -48t-1 -50.5q8 0 14.5 -0.5t13.5 -0.5q23 -1 45.5 -1.5t43.5 -0.5q22 0 44.5 0.5t45.5 1.5
q11 0 15 0.5t13 0.5q-5 24 -15 50t-26.5 48t-41 36t-57.5 14zM191 642q-22 -25 -45 -49.5t-45 -49.5h-59l95 182h75l173 -182h-61z" />
    <glyph glyph-name="edieresis" unicode="&#xeb;" horiz-adv-x="488" 
d="M44 224q-13 61 -8 110t27.5 83.5t62 53t95.5 18.5q54 0 97 -16.5t75 -45t53 -66.5t30 -80q2 -10 4 -24t3 -24q-18 0 -40.5 0.5t-39.5 0.5q-35 1 -68.5 1.5t-68.5 0.5q-21 0 -42 -0.5t-43 -1.5q-11 0 -17 -0.5t-17 -0.5l4 -17q7 -36 24.5 -67t42.5 -54t57.5 -36t70.5 -13
q18 0 36 5.5t35.5 15.5t32 23.5t25.5 29.5l20 -15l3 -55q-26 -26 -68 -45.5t-89 -19.5q-55 0 -104 18t-88.5 50.5t-66.5 76t-38 94.5zM234 438q-32 0 -51.5 -14t-30 -35.5t-13 -48t-0.5 -50.5q8 0 14 -0.5t13 -0.5q23 -1 46 -1.5t44 -0.5q22 0 44.5 0.5t44.5 1.5
q11 0 15.5 0.5t13.5 0.5q-5 24 -15 50t-26.5 48t-41 36t-57.5 14zM230 629q-5 24 9 41.5t38 17.5t45 -17.5t26 -41.5t-8.5 -41.5t-37.5 -17.5t-45.5 17.5t-26.5 41.5zM38 629q-5 24 9 41.5t38 17.5t45.5 -17.5t26.5 -41.5t-9 -41.5t-38 -17.5t-45.5 17.5t-26.5 41.5z" />
    <glyph glyph-name="igrave" unicode="&#xec;" horiz-adv-x="251" 
d="M132 288q-10 45 -22.5 95.5t-26.5 98.5q38 -8 55 -8q18 0 53 8q5 -48 14 -98.5t19 -95.5l21 -101q10 -46 23 -97t27 -98q-38 8 -56 8q-17 0 -52 -8q-5 47 -14.5 98t-19.5 97zM-17 637q-15 8 -30.5 20.5t-19.5 32.5q-2 10 0.5 17.5t7.5 13t11.5 8t12.5 2.5q14 0 27.5 -7.5
t27.5 -18.5l194 -162h-66z" />
    <glyph glyph-name="iacute" unicode="&#xed;" horiz-adv-x="251" 
d="M55 288q-10 45 -22.5 95.5t-26.5 98.5q38 -8 55 -8q18 0 53 8q5 -48 14 -98.5t19 -95.5l21 -101q10 -46 23 -97t27 -98q-38 8 -56 8q-17 0 -52 -8q-5 47 -14.5 98t-19.5 97zM82 705q10 11 21 18.5t25 7.5q12 0 28.5 -10.5t21.5 -30.5q4 -20 -6.5 -32.5t-21.5 -20.5
q-32 -23 -64 -47t-62 -47h-65z" />
    <glyph glyph-name="icircumflex" unicode="&#xee;" horiz-adv-x="333" 
d="M134 288q-9 45 -21.5 95.5t-27.5 98.5q38 -8 56 -8q17 0 52 8q6 -48 15 -98.5t18 -95.5l22 -101q10 -46 22.5 -97t26.5 -98q-38 8 -55 8q-18 0 -53 -8q-5 47 -14 98t-19 97zM105 642q-23 -25 -46 -49.5t-45 -49.5h-58l94 182h75l173 -182h-60z" />
    <glyph glyph-name="idieresis" unicode="&#xef;" horiz-adv-x="330" 
d="M129 288q-10 45 -22.5 95.5t-27.5 98.5q38 -8 56 -8q17 0 52 8q6 -48 15 -98.5t19 -95.5l21 -101q10 -46 22.5 -97t26.5 -98q-38 8 -55 8q-18 0 -53 -8q-5 47 -14 98t-19 97zM-52 629q-5 24 9.5 41.5t38.5 17.5q23 0 44 -17.5t26 -41.5t-8.5 -41.5t-37.5 -17.5
q-23 0 -45 17.5t-27 41.5zM139 629q-5 24 9 41.5t38 17.5t45.5 -17.5t26.5 -41.5t-9 -41.5t-38 -17.5t-45.5 17.5t-26.5 41.5z" />
    <glyph glyph-name="eth" unicode="&#xf0;" horiz-adv-x="537" 
d="M55 237q-15 69 -3.5 117t40 78t70 43.5t85.5 13.5h12.5t11.5 -1q-29 26 -60.5 52.5t-62.5 50.5q-29 -11 -59 -22.5t-60 -22.5q-9 12 -19.5 25t-21.5 28q26 8 53.5 15.5t56.5 17.5q-31 23 -65 46.5t-77 52.5l85 23q41 -25 77.5 -48.5t68.5 -45.5q30 11 59.5 22.5
t55.5 22.5q8 -12 19 -25t25 -28q-30 -6 -57.5 -14t-49.5 -16q136 -100 211.5 -194t96.5 -191q15 -69 3 -117t-40.5 -78t-70 -43.5t-85.5 -13.5t-91 13.5t-88 43.5t-73 78t-47 117zM442 237q-9 39 -23.5 75.5t-37 64t-53 44.5t-70.5 17t-63.5 -17t-34 -44.5t-10 -64
t9.5 -75.5q8 -39 22.5 -75.5t37 -64t53 -44.5t70.5 -17t63.5 17t34 44.5t10 64t-8.5 75.5z" />
    <glyph glyph-name="ntilde" unicode="&#xf1;" horiz-adv-x="472" 
d="M359 281q-14 67 -47.5 102.5t-77.5 35.5q-63 0 -84.5 -39t-5.5 -111l17 -82q10 -46 23 -97t28 -98q-40 8 -57 8t-52 -8q-5 47 -14 98t-19 97l-21 101q-10 45 -22.5 95.5t-26.5 98.5q37 -8 54 -8q5 0 18.5 2t30.5 6q2 -15 2.5 -25t3.5 -22q1 -4 1.5 -7.5t2.5 -8.5
q40 70 132 70q29 0 60 -8t59 -28.5t50.5 -55t33.5 -87.5q9 -41 16.5 -86t17.5 -94q7 -32 16 -69t17 -69q-38 8 -53 8q-14 0 -48 -8l-17 92q-5 34 -11 68t-14 70l-13 59v0zM16 568q0 20 4 41t14 38.5t27 28.5t43 11q18 0 33 -5t46 -18q28 -13 41 -17t24 -4q18 0 26.5 14.5
t10.5 33.5h48q1 -14 -1.5 -35t-12 -40.5t-28 -33.5t-50.5 -14q-30 0 -79 23q-27 13 -40 17t-23 4q-18 0 -25 -9t-11 -35h-47z" />
    <glyph glyph-name="ograve" unicode="&#xf2;" horiz-adv-x="528" 
d="M48 237q-15 69 -3 117t40.5 78t70 43.5t85.5 13.5t91 -13.5t88 -43.5t73 -78t47 -117t3 -117t-40.5 -78t-69.5 -43.5t-85 -13.5t-91 13.5t-88.5 43.5t-73.5 78t-47 117zM153 237q8 -39 23 -75.5t37.5 -64t53 -44.5t70.5 -17t63.5 17t34 44.5t9.5 64t-9 75.5t-23 75.5
t-37.5 64t-53 44.5t-70.5 17t-63.5 -17t-34 -44.5t-9.5 -64t9 -75.5zM87 637q-14 8 -29.5 20.5t-20.5 32.5q-2 10 0.5 17.5t7.5 13t11.5 8t12.5 2.5q14 0 28.5 -7.5t28.5 -18.5l193 -162h-66z" />
    <glyph glyph-name="oacute" unicode="&#xf3;" horiz-adv-x="527" 
d="M37 237q-14 69 -2.5 117t40.5 78t70 43.5t85 13.5t91 -13.5t88 -43.5t73 -78t47 -117t3 -117t-40.5 -78t-69.5 -43.5t-85 -13.5t-91 13.5t-88.5 43.5t-73.5 78t-47 117zM142 237q8 -39 23 -75.5t37.5 -64t53 -44.5t70.5 -17t63.5 17t34 44.5t9.5 64t-9 75.5t-23 75.5
t-37.5 64t-53 44.5t-70.5 17t-63.5 -17t-34 -44.5t-9.5 -64t9 -75.5zM254 705q10 11 20.5 18.5t24.5 7.5q12 0 28.5 -10.5t21.5 -30.5t-6 -32.5t-23 -20.5q-30 -23 -62 -47t-63 -47h-66z" />
    <glyph glyph-name="ocircumflex" unicode="&#xf4;" horiz-adv-x="532" 
d="M45 237q-15 69 -3.5 117t40 78t70 43.5t85.5 13.5t91 -13.5t88.5 -43.5t73.5 -78t47 -117t3 -117t-40.5 -78t-70 -43.5t-85.5 -13.5t-91 13.5t-88 43.5t-73 78t-47 117zM150 237q8 -39 22.5 -75.5t37 -64t53 -44.5t70.5 -17t63.5 17t34 44.5t10 64t-8.5 75.5
q-9 39 -23.5 75.5t-37 64t-53 44.5t-70.5 17t-63.5 -17t-34 -44.5t-10 -64t9.5 -75.5zM204 642q-22 -25 -45 -49.5t-45 -49.5h-59l95 182h75l173 -182h-60z" />
    <glyph glyph-name="otilde" unicode="&#xf5;" horiz-adv-x="537" 
d="M43 237q-15 69 -3 117t40.5 78t69.5 43.5t85 13.5t91 -13.5t88.5 -43.5t73.5 -78t47 -117t3 -117t-40.5 -78t-69.5 -43.5t-85 -13.5t-91 13.5t-88.5 43.5t-73.5 78t-47 117zM148 237q8 -39 23 -75.5t37.5 -64t53 -44.5t70.5 -17t63.5 17t34 44.5t9.5 64t-9 75.5t-23 75.5
t-37.5 64t-53 44.5t-70.5 17t-63.5 -17t-34 -44.5t-9.5 -64t9 -75.5zM48 568q-1 20 3 41t14 38.5t27 28.5t43 11q9 0 16.5 -1t16.5 -3.5t20 -7t27 -11.5q28 -13 41 -17t24 -4q18 0 26.5 14.5t9.5 33.5h48q1 -14 -1.5 -35t-11.5 -40.5t-27.5 -33.5t-50.5 -14q-14 0 -34 5.5
t-45 17.5q-28 13 -41 17t-23 4q-18 0 -25 -9t-9 -35h-48z" />
    <glyph glyph-name="odieresis" unicode="&#xf6;" horiz-adv-x="537" 
d="M43 237q-15 69 -3.5 117t40 78t70 43.5t85.5 13.5t91 -13.5t88.5 -43.5t73.5 -78t47 -117t3 -117t-40.5 -78t-70 -43.5t-85.5 -13.5t-91 13.5t-88 43.5t-73 78t-47 117zM148 237q8 -39 22.5 -75.5t37 -64t53 -44.5t70.5 -17t63.5 17t34 44.5t10 64t-8.5 75.5
q-9 39 -23.5 75.5t-37 64t-53 44.5t-70.5 17t-63.5 -17t-34 -44.5t-10 -64t9.5 -75.5zM242 629q-5 24 9 41.5t38 17.5t45.5 -17.5t26.5 -41.5t-9 -41.5t-38 -17.5t-45.5 17.5t-26.5 41.5zM50 629q-5 24 9.5 41.5t38.5 17.5t45 -17.5t26 -41.5t-8.5 -41.5t-37.5 -17.5
t-46 17.5t-27 41.5z" />
    <glyph glyph-name="divide" unicode="&#xf7;" horiz-adv-x="516" 
d="M-5 291h511l15 -70h-512zM233 65q-6 26 9.5 45.5t41.5 19.5t49.5 -19.5t29.5 -45.5q5 -26 -10 -45.5t-41 -19.5q-13 0 -26 5t-24 14t-18.5 21t-10.5 25zM152 446q-6 26 9.5 45.5t41.5 19.5t49.5 -19.5t29.5 -45.5q5 -26 -10 -45.5t-41 -19.5q-13 0 -26 5t-24 14t-18.5 21
t-10.5 25z" />
    <glyph glyph-name="oslash" unicode="&#xf8;" horiz-adv-x="581" 
d="M50 237q-15 69 -3 117t40.5 78t69.5 43.5t85 13.5q38 0 79 -10.5t81 -33.5q16 23 29.5 46t19.5 40q11 -14 24 -22.5t27 -15.5q-11 -12 -28 -32.5t-33 -43.5q35 -32 61.5 -75.5t39.5 -104.5q15 -69 3 -117t-41 -78t-70 -43.5t-85 -13.5q-42 0 -83.5 11t-82.5 37
q-17 -24 -32.5 -48.5t-23.5 -37.5q-10 11 -22 20.5t-26 14.5q4 4 11.5 13t16 20t17.5 24t17 26q-31 31 -55 72.5t-36 99.5zM220 89q21 -23 51 -38t68 -15q40 0 63.5 17t34 44.5t9.5 64t-9 75.5q-7 30 -17.5 59.5t-24.5 53.5zM364 391q-20 20 -48.5 33.5t-62.5 13.5
q-40 0 -63.5 -17t-34 -44.5t-9.5 -64t9 -75.5q5 -26 14.5 -53t20.5 -50z" />
    <glyph glyph-name="ugrave" unicode="&#xf9;" horiz-adv-x="457" 
d="M72 155q-6 28 -10.5 51t-7.5 43q-3 17 -6.5 33.5t-6.5 32.5q-8 35 -18 80.5t-20 86.5q37 -8 52 -8t49 8q4 -29 9 -63t11.5 -71t13.5 -75t15 -74q11 -49 24 -73.5t27 -37.5q17 -14 37.5 -23.5t46.5 -9.5q38 0 59 17t28 40q4 14 5.5 26t-1 32t-8.5 52.5t-18 87.5
q-5 20 -10 43l-10 46t-10.5 44.5t-9.5 38.5q37 -8 54 -8q18 0 48 8q12 -76 26.5 -153t31.5 -155q9 -43 20.5 -91.5t22.5 -90.5q-34 8 -49 8q-18 0 -48 -8q-2 16 -3 26t-3 22l-2 8t-3 9q-19 -34 -52.5 -53t-75.5 -19q-81 0 -136 44.5t-72 125.5zM53 637q-14 8 -29.5 20.5
t-20.5 32.5q-4 20 8 30.5t24 10.5q14 0 28.5 -7.5t28.5 -18.5l193 -162h-66z" />
    <glyph glyph-name="uacute" unicode="&#xfa;" horiz-adv-x="457" 
d="M58 155q-6 28 -10.5 51t-7.5 43q-3 17 -6.5 33.5t-6.5 32.5q-8 35 -18 80.5t-19 86.5q35 -8 51 -8q15 0 49 8q4 -29 9 -63t11.5 -71t13.5 -75t15 -74q11 -49 24 -73.5t27 -37.5q17 -14 37.5 -23.5t46.5 -9.5q38 0 59 17t28 40q4 14 5.5 26t-1 32t-8.5 52.5t-18 87.5
q-5 20 -10 43l-10 46t-10.5 44.5t-9.5 38.5q37 -8 54 -8q18 0 48 8q12 -76 26.5 -153t31.5 -155q9 -43 20.5 -91.5t22.5 -90.5q-34 8 -49 8q-18 0 -48 -8q-2 16 -3 26t-3 22l-2 8t-3 9q-19 -34 -52.5 -53t-75.5 -19q-81 0 -136 44.5t-72 125.5zM217 705q10 11 20.5 18.5
t24.5 7.5q12 0 28.5 -10.5t21.5 -30.5t-6 -32.5t-23 -20.5q-30 -23 -62 -47t-63 -47h-66z" />
    <glyph glyph-name="ucircumflex" unicode="&#xfb;" horiz-adv-x="465" 
d="M68 155q-6 28 -10 51t-8 43q-3 17 -6.5 33.5t-6.5 32.5q-8 35 -18 80.5t-19 86.5q37 -8 51 -8q16 0 50 8q4 -29 9 -63t11.5 -71t13.5 -75t15 -74q10 -49 23.5 -73.5t26.5 -37.5q17 -14 37.5 -23.5t46.5 -9.5q38 0 59.5 17t27.5 40q4 14 5.5 26t-1 32t-8.5 52.5t-18 87.5
q-4 20 -9 43t-10.5 46t-10.5 44.5t-9 38.5q17 -4 30 -6t23 -2q19 0 49 8q11 -76 25.5 -153t31.5 -155q9 -43 21 -91.5t23 -90.5q-34 8 -50 8q-17 0 -47 -8q-3 16 -3.5 26t-3.5 22l-2 8t-2 9q-20 -34 -53.5 -53t-75.5 -19q-81 0 -136 44.5t-72 125.5zM170 642
q-22 -25 -45 -49.5t-45 -49.5h-59l95 182h75l173 -182h-60z" />
    <glyph glyph-name="udieresis" unicode="&#xfc;" horiz-adv-x="471" 
d="M67 155q-6 28 -10 51t-8 43q-3 17 -6.5 33.5t-6.5 32.5q-8 35 -18 80.5t-19 86.5q37 -8 51 -8q17 0 49 8q4 -29 9.5 -63t12 -71t13.5 -75t15 -74q10 -49 23.5 -73.5t26.5 -37.5q17 -14 37.5 -23.5t46.5 -9.5q38 0 59.5 17t27.5 40q4 14 5.5 26t-1 32t-8.5 52.5t-18 87.5
q-4 20 -9 43t-10.5 46t-11 44.5t-9.5 38.5q18 -4 31 -6t23 -2q19 0 48 8q12 -76 26.5 -153t31.5 -155q9 -43 21 -91.5t23 -90.5q-34 8 -50 8q-17 0 -47 -8q-3 16 -3.5 26t-3.5 22l-2 8t-2 9q-20 -34 -53.5 -53t-75.5 -19q-81 0 -136 44.5t-72 125.5zM17 629q-5 24 9.5 41.5
t38.5 17.5t45 -17.5t26 -41.5t-8.5 -41.5t-37.5 -17.5t-46 17.5t-27 41.5zM209 629q-5 24 9 41.5t38 17.5t45.5 -17.5t26.5 -41.5t-9 -41.5t-38 -17.5t-45.5 17.5t-26.5 41.5z" />
    <glyph glyph-name="yacute" unicode="&#xfd;" horiz-adv-x="471" 
d="M164 -267q29 75 49 142t34 130q-18 29 -44.5 72t-56.5 91t-61.5 97.5t-59 92.5t-48.5 76.5t-31 48.5q20 -4 36.5 -6.5t25.5 -2.5q10 0 22.5 2t28.5 5q45 -84 97 -170t107 -174q3 -5 4 -6.5t1.5 -2.5t1.5 -2.5t4 -5.5q20 80 35 174t25 188q29 -8 41 -8q13 0 48 11
q-5 -18 -18.5 -71t-31 -124.5t-36.5 -153.5t-36 -159.5t-29 -141t-15 -98.5q-14 3 -25 5t-16 2q-6 0 -20 -3t-32 -8zM206 705q10 11 20.5 18.5t24.5 7.5q12 0 28.5 -10.5t21.5 -30.5t-6 -32.5t-22 -20.5q-31 -23 -63 -47t-63 -47h-66z" />
    <glyph glyph-name="thorn" unicode="&#xfe;" horiz-adv-x="500" 
d="M0 461q-7 33 -15.5 72.5t-18 79.5t-18.5 76.5t-17 63.5q17 -3 31.5 -5t23.5 -2t22 2t31 5q3 -27 9 -63.5t13.5 -76.5t15.5 -79.5t15 -72.5l12 -51q7 15 18 29t27.5 25t39.5 18t53 7q39 0 79.5 -14.5t76 -45t63.5 -77.5t42 -112q13 -65 4 -112.5t-33 -79.5t-60 -47.5
t-76 -15.5q-48 0 -88 18t-72 52l5 -26q7 -33 16 -72.5t18.5 -79.5t19 -76.5t17.5 -63.5q-18 3 -32.5 5t-23.5 2t-22.5 -2t-30.5 -5q-3 27 -9.5 63.5t-14 76.5t-15.5 79.5t-15 72.5zM397 241q-12 55 -30.5 91.5t-41 58t-46.5 30t-46 8.5q-37 0 -59 -15.5t-32.5 -42.5
t-10.5 -62.5t9 -75.5q20 -95 64 -143.5t109 -48.5q33 0 53.5 15.5t30 42.5t9.5 63.5t-9 78.5z" />
    <glyph glyph-name="ydieresis" unicode="&#xff;" horiz-adv-x="474" 
d="M163 -267q29 75 49 142t34 130q-18 29 -44.5 72t-56.5 91t-61.5 97.5t-59 92.5t-48.5 76.5t-31 48.5q21 -4 37 -6.5t25 -2.5q10 0 23 2t28 5q45 -84 97 -170t107 -174q3 -5 4 -6.5t2 -2.5t2 -2.5t4 -5.5q20 80 34.5 174t25.5 188q29 -8 40 -8q6 0 19 3t29 8
q-5 -18 -18.5 -71t-30.5 -124.5t-36.5 -153.5t-36 -159.5t-29 -141t-15.5 -98.5q-14 3 -24.5 5t-15.5 2q-6 0 -20 -3t-33 -8zM-3 629q-5 24 9 41.5t38 17.5t45 -17.5t26 -41.5t-8.5 -41.5t-37.5 -17.5t-45.5 17.5t-26.5 41.5zM188 629q-5 24 9 41.5t38 17.5t45.5 -17.5
t26.5 -41.5t-9 -41.5t-38 -17.5t-45.5 17.5t-26.5 41.5z" />
    <glyph glyph-name="dotlessi" unicode="&#x131;" horiz-adv-x="173" 
d="M28 288q-10 45 -22 95.5t-27 98.5q37 -8 55 -8q17 0 52 8q6 -48 15 -98.5t19 -95.5l21 -101q10 -46 22.5 -97t27.5 -98q-38 8 -56 8q-17 0 -52 -8q-6 47 -15 98t-19 97z" />
    <glyph glyph-name="Lslash" unicode="&#x141;" horiz-adv-x="486" 
d="M97 424q-14 63 -31.5 131.5t-33.5 131.5q36 -6 59 -6t58 6q10 -63 21.5 -131.5t25.5 -131.5l4 -22q19 14 41 29.5t42 32.5q8 -13 17.5 -26t21.5 -27q-18 -10 -47.5 -29t-61.5 -40l17 -81q11 -54 20.5 -94t17.5 -75q2 -11 4 -16t4 -16h64.5t63.5 1.5t67 4.5t75 9
q-2 -14 -2.5 -25t1.5 -16q1 -6 5.5 -16t11.5 -24q-45 2 -96.5 4t-96.5 2q-46 0 -95 -2t-94 -4q-11 63 -22.5 131.5t-25.5 131.5l-5 24q-23 -15 -38.5 -28.5t-23.5 -23.5q-20 32 -44 57q24 14 48 28.5t45 28.5z" />
    <glyph glyph-name="lslash" unicode="&#x142;" horiz-adv-x="270" 
d="M102 309q-13 -10 -25.5 -19t-18.5 -14q-2 -2 -5 -5.5t-4 -4.5q-8 12 -17.5 23.5t-23.5 23.5q17 12 39 27t42 29l-19 92q-7 33 -16 72.5t-18.5 79.5t-18.5 76.5t-17 63.5q17 -3 31.5 -5t23.5 -2t22.5 2t30.5 5q3 -27 9.5 -63.5t14 -76.5t15.5 -79.5t15 -72.5l7 -33
q16 12 32 26t27 22q3 -14 13 -27.5t21 -21.5q-4 -3 -13 -10t-15 -11q-11 -7 -23.5 -14.5t-29.5 -20.5l18 -86q7 -34 16 -73.5t18.5 -79t18.5 -76t17 -64.5q-38 8 -55 8q-18 0 -53 -8q-3 28 -9.5 64.5t-14 76t-15.5 79t-15 73.5z" />
    <glyph glyph-name="OE" unicode="&#x152;" horiz-adv-x="1006" 
d="M752 241q15 -72 33 -144q3 -9 5.5 -17.5t4.5 -19.5q100 0 156.5 4.5t85.5 9.5q-2 -14 -2.5 -25t1.5 -16q1 -6 5.5 -15.5t11.5 -23.5q-42 2 -89.5 4t-88.5 2q-42 0 -88 -2t-88 -4l-6 44t-7 41q-14 -17 -33 -34.5t-46 -31.5t-63.5 -22.5t-85.5 -8.5q-72 0 -140 24t-124 69
t-97 109t-58 145q-19 89 -6.5 158t51 116t99 71t138.5 24q51 0 91.5 -9t72 -22t55 -28.5t38.5 -28.5q-5 20 -10.5 39.5t-10.5 36.5q42 -2 87 -3.5t85 -1.5q39 0 85 1.5t85 3.5q-1 -13 -1.5 -23.5t0.5 -16.5q2 -6 7 -17.5t13 -25.5q-18 3 -36.5 6.5t-45.5 5.5t-65 3.5
t-95 1.5q2 -7 3 -16t2 -17v1q5 -32 11 -64t13 -64l15 -70q49 0 82 0.5t54.5 1.5t35 2t24.5 2q3 0 11.5 0.5t11.5 0.5q-2 -11 -1.5 -20.5t2.5 -16.5q2 -8 5.5 -17.5t9.5 -19.5q-3 0 -12.5 0.5t-12.5 0.5q-12 1 -26 2t-35.5 2t-54 1.5t-81.5 0.5zM152 340q16 -78 48 -135
t73 -94t89 -55t98 -18q56 0 96.5 21.5t63.5 61.5t28 95.5t-9 123.5q-18 83 -48 140.5t-69 93.5t-85 52.5t-95 16.5q-53 0 -96 -18t-69.5 -55t-34 -94.5t9.5 -135.5z" />
    <glyph glyph-name="oe" unicode="&#x153;" horiz-adv-x="897" 
d="M594 489q54 0 97 -16.5t75 -45t53 -66.5t30 -80q2 -10 4 -24t3 -24q-17 0 -39.5 0.5t-39.5 0.5q-35 1 -69 1.5t-68 0.5q-22 0 -43 -0.5t-42 -1.5q-11 0 -17 -0.5t-17 -0.5l4 -17q7 -36 24 -67t42 -54t57.5 -36t70.5 -13q36 0 72 21t57 53l21 -15l3 -55q-27 -26 -69 -45.5
t-88 -19.5q-58 0 -111 22.5t-94 58.5q-26 -41 -73.5 -61t-99.5 -20q-44 0 -91 13.5t-88 43.5t-73 78t-47 117t-3 117t40.5 78t69.5 43.5t85 13.5q53 0 106 -18t97 -60q20 39 61 58.5t100 19.5zM426 237q-9 39 -23.5 75.5t-37 64t-53.5 44.5t-71 17t-63.5 -17t-34 -44.5
t-10 -64t9.5 -75.5q8 -39 22.5 -75.5t37 -64t53 -44.5t70.5 -17t64 17t34.5 44.5t10 64t-8.5 75.5zM607 438q-31 0 -50.5 -14t-30 -35.5t-13 -48t-0.5 -50.5q8 0 13.5 -0.5t13.5 -0.5q23 -1 45.5 -1.5t43.5 -0.5q23 0 45.5 0.5t44.5 1.5q11 0 15 0.5t14 0.5q-5 24 -15 50
t-27 48t-41 36t-58 14z" />
    <glyph glyph-name="Scaron" unicode="&#x160;" horiz-adv-x="460" 
d="M129 144q12 -17 28.5 -35t38 -32.5t47 -24t54.5 -9.5q30 0 52 10.5t35 28t17 41.5t-2 51q-6 29 -21.5 49t-37 35t-48 26t-54.5 22q-34 13 -68.5 27.5t-63.5 36.5t-51.5 54.5t-32.5 80.5q-9 42 -1 77.5t31.5 61t61 40t88.5 14.5q48 0 88 -13t80 -40q-7 -22 -9.5 -43
t-1.5 -51h-27q-8 13 -19 29.5t-27 30t-36.5 23t-45.5 9.5q-50 0 -76.5 -31t-15.5 -80q7 -30 23 -51t38.5 -36t49.5 -26.5t56 -21.5q33 -12 66 -26t61.5 -35t49.5 -51t31 -74q10 -47 2 -88.5t-33.5 -72.5t-68 -49.5t-100.5 -18.5q-63 0 -107.5 20t-77.5 43q2 13 3 24.5
t1 22.5t-1 23.5t-3 28.5h27zM255 892h60l-96 -181h-75l-171 181h59l133 -98z" />
    <glyph glyph-name="scaron" unicode="&#x161;" horiz-adv-x="370" 
d="M123 108q7 -10 19.5 -21.5t28 -21.5t33.5 -17t37 -7q33 0 55 20t14 58q-4 18 -14.5 30t-25.5 20.5t-33 14.5t-37 11q-26 7 -52.5 16t-49 24t-39.5 38t-25 59q-7 34 -1.5 63t23 50t47 32.5t70.5 11.5q27 0 50 -6.5t43 -13.5l2 -1l2.5 -1t9.5 -2.5t22 -5.5q-3 -9 -5.5 -21
t-4 -24t-2 -23t0.5 -18h-28q-13 23 -37.5 42t-53.5 19q-12 0 -24.5 -4t-21 -13t-12.5 -22.5t0 -32.5t15 -32t26.5 -21.5t34 -14.5t37.5 -12q25 -7 50.5 -15.5t47.5 -23t38.5 -37t24.5 -57.5q6 -30 -0.5 -59t-25.5 -52.5t-50 -38t-73 -14.5q-48 0 -83.5 12t-62.5 26
q1 7 2.5 18t2.5 23t0.5 23.5t-2.5 20.5h27zM219 725h59l-95 -182h-75l-172 182h60l132 -98z" />
    <glyph glyph-name="Ydieresis" unicode="&#x178;" horiz-adv-x="583" 
d="M324 -7q-7 65 -21 137.5t-30 147.5q-14 17 -40.5 50.5t-59 74t-68.5 84.5t-68.5 84t-58.5 71.5t-39 46.5q25 -4 44.5 -6t30.5 -2q14 0 28.5 1t30.5 4q60 -83 120 -162t129 -166q15 34 29.5 74.5t28.5 83t26.5 86t23.5 85.5q27 -6 44 -6q21 0 57 9q-32 -74 -57.5 -133.5
t-45.5 -108.5t-34 -88t-24 -71q8 -36 17 -77t18.5 -81.5t18.5 -76.5t17 -61q-18 3 -33 5t-26 2q-12 0 -26.5 -2t-31.5 -5zM66 796q-5 24 9 42t38 18q25 0 46 -18t26 -42t-8.5 -41.5t-38.5 -17.5q-24 0 -45.5 17.5t-26.5 41.5zM258 796q-5 24 9 42t38 18t45 -18t26 -42
t-8.5 -41.5t-37.5 -17.5t-45.5 17.5t-26.5 41.5z" />
    <glyph glyph-name="Zcaron" unicode="&#x17d;" horiz-adv-x="597" 
d="M107 24q27 52 56.5 111.5l59 119t56.5 117t50 106t40 85.5t25 56q-14 1 -27 1h-24q-35 0 -78 -1.5t-87.5 -3.5t-86 -5t-72.5 -6q3 27 0 42q-1 6 -6 16.5t-11 23.5q24 -2 69 -3t97 -1q51 -1 115 -1h139q42 0 81 3q6 0 16.5 0.5t15.5 0.5l7 -31q-14 -20 -38 -64t-52.5 -100
t-59.5 -119t-58.5 -122t-50 -108.5t-34.5 -78.5q18 -1 34 -1.5t31 -0.5q37 0 86 1.5t99.5 4.5t95 6.5t72.5 7.5q-2 -30 1 -44q1 -5 5.5 -15.5t12.5 -25.5q-72 2 -129.5 3.5t-113.5 1.5q-38 0 -87.5 -0.5t-97.5 -1.5t-87.5 -2t-57.5 -2zM319 892h59l-95 -181h-75l-173 181h60
l133 -98z" />
    <glyph glyph-name="zcaron" unicode="&#x17e;" horiz-adv-x="470" 
d="M90 22q27 43 54 91t53 96t50 93t44 83q7 13 10 18t9 16q-20 -1 -53 -2.5t-69.5 -4t-72 -5t-59.5 -4.5v23.5t-2 14.5q-2 7 -5 16.5t-8 22.5q38 -4 101.5 -5t154.5 -1h37t33 1l32 2t34 3l6 -28q-28 -51 -60.5 -109.5t-63 -114t-55.5 -102t-38 -71.5q37 0 68.5 0.5t65.5 2
t72.5 4.5t89.5 8v-22.5t1 -15.5q1 -4 5.5 -14.5t9.5 -22.5q-15 0 -36.5 0.5t-36.5 1.5q-45 2 -92.5 2.5t-91.5 0.5q-65 0 -128 -3h1q-11 -1 -27 -1.5t-27 -0.5zM274 725h59l-95 -182h-75l-172 182h59l133 -98z" />
    <glyph glyph-name="florin" unicode="&#x192;" horiz-adv-x="497" 
d="M125 -94q10 -5 22 -10t21 -5q15 0 24.5 8.5t14 23.5t5.5 34.5t0 42.5q0 10 -1.5 37t-3 62.5t-3.5 74.5t-3.5 74.5t-2.5 62.5t-1 38q-28 0 -57 -0.5t-48 -2.5q2 13 2 30.5t-4 33.5q20 -2 50 -4t56 -2v21.5t1 20.5q1 36 8.5 76t24.5 73.5t44 55.5t68 22q6 0 20.5 -2
t25.5 -7q-2 -18 0 -44t7 -49l-24 -7q-11 11 -25.5 20t-27.5 9q-17 0 -27.5 -13t-9.5 -48q2 -34 3.5 -64t3.5 -64q18 0 31.5 1t28.5 2q11 1 27 1.5t23 0.5q-4 -13 -4.5 -30.5t2.5 -32.5q-20 2 -49.5 2.5t-58.5 0.5q2 -51 4 -102.5t4 -102.5q3 -108 -12 -174t-41.5 -102.5
t-61.5 -48.5t-72 -12q2 28 1.5 51t-4.5 42z" />
    <glyph glyph-name="circumflex" unicode="&#x2c6;" horiz-adv-x="354" 
d="M174 642q-23 -25 -46 -49.5t-45 -49.5h-59l95 182h75l173 -182h-60z" />
    <glyph glyph-name="caron" unicode="&#x2c7;" horiz-adv-x="350" 
d="M267 725h59l-95 -182h-75l-172 182h59l134 -99z" />
    <glyph glyph-name="breve" unicode="&#x2d8;" horiz-adv-x="342" 
d="M55 717q17 -45 45 -69.5t71 -24.5q46 0 61 24.5t17 69.5h49q7 -35 5 -66.5t-15.5 -55.5t-38 -38t-60.5 -14q-37 0 -67.5 14t-54 38t-39.5 55.5t-23 66.5h50z" />
    <glyph glyph-name="dotaccent" unicode="&#x2d9;" horiz-adv-x="164" 
d="M22 626q-5 24 8.5 41.5t37.5 17.5t45.5 -17.5t26.5 -41.5t-9 -41.5t-38 -17.5t-45 17.5t-26 41.5z" />
    <glyph glyph-name="ring" unicode="&#x2da;" horiz-adv-x="266" 
d="M23 637q-5 22 -0.5 42t16 35t29.5 23.5t41 8.5q22 0 44 -8.5t40 -23.5t31 -35t18 -42q4 -23 0 -42.5t-16 -34.5t-30 -23.5t-41 -8.5q-22 0 -44 8.5t-40 23.5t-31 34.5t-17 42.5zM83 637q4 -20 21.5 -34.5t37.5 -14.5t32 14.5t8 34.5q-5 20 -22.5 34t-37.5 14t-32 -14
t-7 -34z" />
    <glyph glyph-name="ogonek" unicode="&#x2db;" horiz-adv-x="220" 
d="M168 19q-26 -30 -41.5 -51t-23 -36t-9 -26t0.5 -21q5 -27 26 -37t41 -10q8 0 17.5 2.5t17.5 4.5l25 -48q-14 -8 -29 -11.5t-35 -3.5q-23 0 -46 6t-42.5 17.5t-33 29t-18.5 40.5q-12 60 84 144h66z" />
    <glyph glyph-name="tilde" unicode="&#x2dc;" horiz-adv-x="393" 
d="M36 568q0 20 4 41t14 38.5t27 28.5t43 11q9 0 16.5 -1t16.5 -3.5t20 -7t27 -11.5q28 -13 41 -17t24 -4q18 0 26.5 14.5t9.5 33.5h48q1 -14 -1.5 -35t-12 -40.5t-28 -33.5t-50.5 -14q-31 0 -78 23q-28 13 -41 17t-23 4q-18 0 -25 -9t-10 -35h-48z" />
    <glyph glyph-name="hungarumlaut" unicode="&#x2dd;" horiz-adv-x="468" 
d="M146 705q9 11 20.5 18.5t24.5 7.5t29 -10.5t21 -30.5t-6 -32.5t-22 -20.5q-31 -23 -63 -47t-64 -47h-66zM340 705q10 11 21 18.5t25 7.5q12 0 28.5 -10.5t21.5 -30.5q2 -10 0 -18t-6.5 -14.5t-10.5 -11.5t-11 -9q-32 -23 -63.5 -47t-63.5 -47h-66z" />
    <glyph glyph-name="endash" unicode="&#x2013;" horiz-adv-x="587" 
d="M32 266h506l14 -65h-506z" />
    <glyph glyph-name="emdash" unicode="&#x2014;" horiz-adv-x="1086" 
d="M39 266h992l14 -65h-992z" />
    <glyph glyph-name="quoteleft" unicode="&#x2018;" 
d="M119 442q-2 -14 -11 -28.5t-33 -14.5q-14 0 -32 9.5t-23 32.5q-2 12 0.5 22.5t5.5 20.5q1 1 1 4v-1q19 51 40 106.5t39 106.5l38 -13z" />
    <glyph glyph-name="quoteright" unicode="&#x2019;" 
d="M56 654q2 15 10.5 29.5t32.5 14.5q14 0 32 -10t23 -33q2 -11 0 -21.5t-5 -21.5q-2 0 -2 -4l1 2q-19 -51 -40 -106.5t-41 -106.5l-37 12z" />
    <glyph glyph-name="quotesinglbase" unicode="&#x201a;" 
d="M56 86q2 14 10.5 28.5t32.5 14.5q14 0 31.5 -9.5t22.5 -32.5q3 -12 1 -22.5t-6 -20.5q0 -1 -0.5 -2t-0.5 -3l1 2q-19 -51 -40 -106.5t-41 -106.5l-37 13z" />
    <glyph glyph-name="quotedblleft" unicode="&#x201c;" horiz-adv-x="376" 
d="M303 442q-2 -14 -10.5 -28.5t-32.5 -14.5q-15 0 -32.5 9.5t-22.5 32.5q-2 12 0.5 22.5t5.5 20.5q1 1 1 4v-1q19 51 39.5 106.5t39.5 106.5l38 -13zM136 442q-2 -14 -10.5 -28.5t-32.5 -14.5q-15 0 -32.5 9.5t-22.5 32.5q-2 12 0.5 22.5t4.5 20.5q1 1 1 4v-1
q19 51 40 106.5t40 106.5l38 -13z" />
    <glyph glyph-name="quotedblright" unicode="&#x201d;" horiz-adv-x="377" 
d="M240 654q2 15 10 29.5t32 14.5q15 0 33 -10t23 -33q2 -11 -0.5 -21.5t-5.5 -21.5q-1 0 -1 -1v-3l1 2q-19 -51 -40 -106.5t-41 -106.5l-37 12zM73 654q1 15 9.5 29.5t32.5 14.5q15 0 33 -10t23 -33q2 -11 -0.5 -21.5t-5.5 -21.5q-2 0 -2 -4l1 2q-19 -51 -39.5 -106.5
t-40.5 -106.5l-37 12z" />
    <glyph glyph-name="quotedblbase" unicode="&#x201e;" horiz-adv-x="377" 
d="M240 86q1 14 9.5 28.5t32.5 14.5q15 0 32.5 -9.5t22.5 -32.5q3 -12 0.5 -22.5t-6.5 -20.5v-5l1 2q-19 -51 -40 -106.5t-41 -106.5l-37 13zM73 86q1 14 9.5 28.5t32.5 14.5q15 0 32.5 -9.5t22.5 -32.5q3 -12 0.5 -22.5t-6.5 -20.5q0 -1 -0.5 -2t-0.5 -3l1 2
q-19 -51 -39.5 -106.5t-40.5 -106.5l-37 13z" />
    <glyph glyph-name="dagger" unicode="&#x2020;" horiz-adv-x="473" 
d="M-6 466q51 -8 92.5 -9t81.5 -1q-6 28 -13 60t-15 63.5t-16 60t-15 48.5q32 -7 54 -7q10 0 23 1.5t29 5.5q0 -20 4 -48t10 -59.5t12.5 -64t12.5 -60.5q40 0 81.5 1.5t89.5 8.5q-2 -35 1 -48q2 -9 6.5 -21t11.5 -26q-51 7 -93.5 8.5t-80.5 1.5q14 -68 29 -133t32 -133
q7 -28 15 -62t14 -61q-38 8 -52 8q-15 0 -50 -8q-5 27 -11.5 61t-11.5 62q-12 69 -24.5 133t-26.5 133q-40 0 -81.5 -1.5t-89.5 -8.5q0 17 0.5 28.5t-1.5 18.5q-2 8 -7 19.5t-11 28.5z" />
    <glyph glyph-name="daggerdbl" unicode="&#x2021;" horiz-adv-x="476" 
d="M198 340q-3 13 -6 24t-6 24q-2 9 -4.5 21t-4.5 20q-41 0 -82.5 -1t-89.5 -9q0 16 0.5 28t-1.5 19q-2 9 -6 21t-11 26q49 -6 92 -7.5t81 -1.5q-6 28 -16.5 70t-31.5 114q34 -7 53 -7q20 0 51 7q8 -70 16 -112.5t14 -71.5q40 0 81 1.5t90 7.5q-1 -16 -1 -28t2 -19
q2 -9 6.5 -21t11.5 -26q-51 7 -94 8.5t-81 1.5q2 -11 3.5 -21t3.5 -20q2 -13 4.5 -24t5.5 -24q2 -12 5 -24.5t6 -24.5q3 -13 5 -20t4 -19q41 0 82.5 1t89.5 9q0 -17 -0.5 -28.5t1.5 -19.5q5 -19 18 -47q-51 7 -93.5 8.5t-80.5 1.5q3 -14 7 -31.5t9.5 -39.5t13 -50t18.5 -64
q-18 4 -31 6t-22 2q-16 0 -51 -8q-9 71 -16.5 113.5t-13.5 71.5q-40 0 -81.5 -1.5t-89.5 -8.5q2 35 -1 47q-2 10 -6.5 22t-11.5 26q51 -7 94 -8.5t81 -1.5q-2 11 -3.5 20t-3.5 20q-2 9 -4.5 24t-4.5 24z" />
    <glyph glyph-name="bullet" unicode="&#x2022;" horiz-adv-x="400" 
d="M25 340q-8 36 -1 68t25.5 56t47.5 37.5t65 13.5t71 -13.5t64 -37.5t49.5 -56t28.5 -68q7 -36 0.5 -68t-25.5 -56t-48 -37.5t-65 -13.5t-71 13.5t-64 37.5t-49.5 56t-27.5 68z" />
    <glyph glyph-name="ellipsis" unicode="&#x2026;" horiz-adv-x="862" 
d="M42 53q-6 26 9 46t41 20t50 -20t30 -46q5 -26 -10.5 -45.5t-41.5 -19.5q-13 0 -26 5t-23.5 14t-18 21t-10.5 25zM690 53q-6 26 9 46t41 20t50 -20t30 -46q5 -26 -10.5 -45.5t-41.5 -19.5q-13 0 -26 5t-23.5 14t-18 21t-10.5 25zM366 53q-6 26 9 46t41 20t50 -20t30 -46
q5 -26 -10.5 -45.5t-41.5 -19.5q-13 0 -26 5t-23.5 14t-18 21t-10.5 25z" />
    <glyph glyph-name="perthousand" unicode="&#x2030;" horiz-adv-x="980" 
d="M392 150q-10 48 -3 79.5t24.5 50.5t41.5 27t48 8t51.5 -8t53 -27t46 -50.5t30.5 -79.5t3.5 -80t-24 -51t-41.5 -27t-48 -8t-51.5 8t-53 27t-46.5 51t-31 80zM-4 507q-10 48 -3 80t24 51t41 27t48 8t51.5 -8t53 -27t46 -51t30.5 -80t3 -79.5t-24 -50.5t-41 -27t-48 -8
t-51.5 8t-53 27t-46 50.5t-30.5 79.5zM707 150q-10 48 -3 79.5t24.5 50.5t41.5 27t48 8t51.5 -8t53 -27t46 -50.5t30.5 -79.5t3.5 -80t-24 -51t-41.5 -27t-48 -8t-51.5 8t-53 27t-46.5 51t-31 80zM423 697q10 -3 17.5 -5t12.5 -2q6 0 40 14l-235 -744q-10 3 -17 5t-12 2
q-10 0 -41 -14zM793 150q11 -54 31 -88.5t55 -34.5t40 34.5t-6 88.5t-31 88t-55 34t-40 -34t6 -88zM81 507q11 -53 31 -87.5t55 -34.5t40 34.5t-6 87.5q-11 54 -31 88.5t-55 34.5t-40 -34.5t6 -88.5zM478 150q11 -54 31 -88.5t55 -34.5t40 34.5t-6 88.5t-31 88t-55 34
t-40 -34t6 -88z" />
    <glyph glyph-name="guilsinglleft" unicode="&#x2039;" horiz-adv-x="197" 
d="M87 437q11 -14 27 -25t33 -13l-78 -164q33 -39 71 -84t71 -84q-15 -2 -27 -13t-15 -25l-173 207z" />
    <glyph glyph-name="guilsinglright" unicode="&#x203a;" horiz-adv-x="195" 
d="M-17 403q15 2 27 13t15 25l174 -207l-92 -200q-11 14 -27 25t-33 13l78 163z" />
    <glyph glyph-name="fraction" unicode="&#x2044;" horiz-adv-x="329" 
d="M194 687q20 -7 30 -7q9 0 36 11l-126 -721q-22 8 -30 8q-5 0 -14 -3.5t-23 -8.5z" />
    <glyph glyph-name="Euro" unicode="&#x20ac;" horiz-adv-x="577" 
d="M484 611q-4 -36 -6 -83l-27 -1q-32 40 -73.5 62.5t-74.5 22.5q-57 0 -91 -50t-30 -149h150q26 0 54 1t64 9q-4 -18 -5.5 -42.5t-1.5 -38.5q-29 5 -55.5 6.5t-48.5 1.5h-151q2 -8 4 -20t4 -21h129q26 0 54 1t64 9q-4 -18 -5.5 -42.5t-1.5 -38.5q-28 5 -55 6.5t-49 1.5
h-119q17 -45 40.5 -81.5t51 -62t57 -39t59.5 -13.5q36 0 71 20t64 61l23 -27q-2 -32 3 -62q-11 -12 -29 -22t-40.5 -17.5t-47 -11.5t-46.5 -4q-50 0 -97.5 17.5t-88.5 50.5t-74 81t-55 110q-41 -2 -76 -10q4 21 5 42t0 40q11 -3 26.5 -5t27.5 -3l-2 10q-2 8 -3.5 15t-3.5 15
q-19 -1 -37 -3.5t-35 -6.5q4 22 5 42.5t0 38.5q12 -2 28.5 -4t33.5 -3q0 55 15 102.5t43.5 82.5t69 54.5t91.5 19.5q22 0 46.5 -4t49 -10.5t47.5 -16t42 -19.5z" />
    <glyph glyph-name="trademark" unicode="&#x2122;" horiz-adv-x="870" 
d="M634 462q20 54 40.5 114.5t37.5 114.5h23l40 -132q10 -33 23.5 -72.5t27 -79.5t27 -78t23.5 -66q-12 4 -23 6.5t-17 2.5q-5 0 -14 -2.5t-21 -6.5q-11 42 -25.5 93.5t-34.5 113.5q-5 13 -8 21.5t-6 16t-6.5 16t-7.5 21.5q-4 -11 -7.5 -24t-8.5 -24q-10 -28 -20 -59.5
t-19 -61.5t-16 -57t-11 -45h-19q-20 32 -47 68.5t-56 74.5l-22 30t-23 30q-8 11 -13 17.5t-9.5 12.5t-9.5 12.5t-13 17.5q2 -20 2.5 -38t2.5 -37q4 -46 11 -95t18 -104q-24 9 -34 9q-7 0 -35 -10q0 29 -1 63.5t-3 71t-4 73.5t-5 72t-6 75t-5 74h24q34 -52 77.5 -111
t88.5 -116q17 -21 29.5 -37.5t29.5 -37.5zM120 635q-31 0 -67 -2t-63 -4q2 11 4 18t1 11q-1 3 -5.5 10.5t-11.5 17.5q38 -2 83.5 -3.5t83.5 -1.5t83 1.5t83 3.5q-3 -10 -5 -17.5t-1 -10.5q1 -4 5.5 -11t12.5 -18q-32 2 -66.5 4t-66.5 2l27 -128q9 -43 19 -86t21 -87
q4 -14 9 -35.5t9 -35.5q-14 4 -25 6.5t-18 2.5q-6 0 -16 -2.5t-22 -6.5l-6 27q-6 37 -15 87.5t-25 122.5z" />
    <glyph glyph-name="minus" unicode="&#x2212;" horiz-adv-x="593" 
d="M32 291h512l15 -70h-512z" />
    <glyph glyph-name="fi" unicode="&#xfb01;" horiz-adv-x="507" 
d="M231 649q-29 16 -58 16q-19 0 -30.5 -7.5t-17.5 -19.5t-6.5 -28t3.5 -33q3 -16 12.5 -45.5t20.5 -58.5h41q12 0 30.5 0.5t31.5 0.5q1 -10 1.5 -18.5t0.5 -10.5q1 -4 4 -12t6 -17q-8 0 -22.5 0.5t-22.5 0.5q-17 1 -28.5 1.5t-28.5 0.5q22 -104 45.5 -213t48.5 -214
q-38 8 -53 8q-17 0 -52 -8q-16 108 -37 214t-44 213q-10 0 -18 -0.5t-18 -1.5q-6 0 -18 -0.5t-17 -0.5q-1 9 -1.5 17t-1.5 12q0 2 -2.5 10.5t-5.5 18.5q8 0 23 -0.5t23 -0.5h24q-5 29 -5 61.5t4.5 64t14.5 59.5t25 48q14 19 40 33t56 14q5 0 12.5 -1t17.5 -4q4 -24 6 -40
q2 -11 4.5 -25.5t4.5 -25.5zM386 288q-9 45 -21.5 95.5t-27.5 98.5q38 -8 56 -8q16 0 53 8q5 -48 14 -98.5t18 -95.5l22 -101q10 -46 22.5 -97t27.5 -98q-40 8 -56 8q-18 0 -53 -8q-5 47 -14 98t-19 97zM299 639q-5 24 8.5 41.5t37.5 17.5t45.5 -17.5t26.5 -41.5t-8.5 -42
t-37.5 -18t-45.5 18t-26.5 42z" />
    <glyph glyph-name="fl" unicode="&#xfb02;" horiz-adv-x="513" 
d="M231 649q-29 16 -58 16q-19 0 -30.5 -7.5t-17.5 -19.5t-6.5 -28t3.5 -33q3 -16 12.5 -45.5t20.5 -58.5h41q12 0 30.5 0.5t31.5 0.5q1 -10 1.5 -18.5t0.5 -10.5q1 -4 4 -12t6 -17q-8 0 -22.5 0.5t-22.5 0.5q-17 1 -28.5 1.5t-28.5 0.5q22 -104 45.5 -213t48.5 -214
q-38 8 -53 8q-17 0 -52 -8q-16 108 -36.5 214t-43.5 213q-11 0 -19 -0.5t-18 -1.5q-6 0 -18 -0.5t-17 -0.5q0 9 -1 17t-2 12q0 2 -2 10.5t-6 18.5q8 0 23 -0.5t23 -0.5h25q-5 29 -5.5 61.5t4 64t14.5 59.5t25 48q14 19 40 33t56 14q5 0 12.5 -1t17.5 -4q4 -24 6 -40
q2 -11 4.5 -25.5t4.5 -25.5zM356 461q-7 33 -16 72.5t-18.5 79.5t-18.5 76.5t-17 63.5q17 -3 31.5 -5t23.5 -2t22.5 2t30.5 5q3 -27 9.5 -63.5t14 -76.5t15.5 -79.5t15 -72.5l37 -176q7 -34 16 -73.5t18.5 -79t18.5 -76t17 -64.5q-38 8 -55 8q-18 0 -53 -8q-3 28 -9.5 64.5
t-14 76t-15.5 79t-15 73.5z" />
    <glyph glyph-name="LDO" horiz-adv-x="720" 
d="M343 162q0 -2 -1.5 -6t-1.5 -5v-7h-4v10q4 4 7 8zM288 144q4 7 4 18h15q-7 0 -7 -8q0 -25 3 -32h4q2 5 7 14h4v-14h-11q-1 0 -2.5 1t-2.5 3t-2 3h-8q0 1 -2 6t-2 9zM374 110v15q3 0 5 1.5t3 2.5v-13q2 -1 4 -2.5t6 -3.5l1 -16q-6 7 -19 16zM89 627q24 7 64 7q25 0 37 -7
q10 -7 34 -7q19 9 22 18q29 0 33 24l9 4q2 3 7 5q5 0 5 2q5 2 7.5 6.5t10.5 4.5q1 3 7 6q7 2 7 5q32 0 32 18q8 0 13 6q4 7 12 7q1 2 9.5 5t8.5 6q7 0 10 3q12 8 16 8l9 4q7 2 7 7q11 0 22 4q11 3 19 3q0 4 7 8q7 2 8 3l89 19l42 -4l15 -8q7 -3 11 -7q10 -7 31 -18l7 -42
q-42 0 -42 5q-5 0 -14 4t-11 4q0 4 -1.5 5.5t-6.5 4.5h-68q-3 -3 -7 -10q-7 0 -21 -4t-21 -4q-13 -9 -18.5 -9t-14.5 -3q-4 0 -8 -6l-6 -6q-10 -3 -8 -3h-4q-1 -3 -8.5 -5l-7.5 -2q-3 0 -5.5 -2t-6.5 -5t-6 -5q-11 0 -15 -10q-5 0 -6 -2.5t-1 -9.5q-6 0 -13.5 -3.5t-8 -3.5
t-6.5 -4.5t-14 -4.5q-2 -1 -7 -2t-8 -6q-2 -1 -4 -4q-2 -5 -3 -6q-11 0 -11 -8q-4 0 -7 -1.5t-6 -4.5l-5 -5q-15 0 -15 -11q-5 0 -13 -7v-11q-4 -3 -6.5 -4t-4.5 -5v-15q6 -7 11 -7v-48q-6 0 -11 -9v-11q-2 -2 -4 -3q-3 -2 -7 -4v-22q-6 -3 -7 -4.5t-1 -10.5q0 -11 -3 -11
l-7 -7q-9 -4 -10.5 -6t-1.5 -10q-9 -4 -15 -8t-8 -11q-11 -11 -44 -11q-17 11 -35 11q-2 3 -7 11h-15q-3 0 -9 4q-7 4 -13 4q0 11 -11 16q0 7 -4 11q-10 0 -21 -1l-11 -1q-4 0 -11 7q-3 2 -6 2v55q2 3 5 5l6 4l4 83q1 0 2.5 1t2.5 3t2 3v15q5 2 6 6t5 4q0 1 10 4.5t10 7.5
q21 7 26 7zM385 132q-4 5 -7 7q-4 1 -15 1v18q6 -6 18 -14q0 -8 4 -12zM400 132q3 -3 3 -7q-3 3 -10 7h7zM403 125h7q5 2 12 10q6 9 10 9q-1 -4 -3.5 -6t-6.5 -6v-14l6 -4t4 -4q-4 0 -10 -7v-13l7 -7h17q1 -6 4 -10q2 -6 18 -12q3 11 3 22q-9 11 -22 11v31q3 0 11 7l-6 6
q-3 2 -5 6q2 -1 12 -5q6 -2 17 -5q6 -2 19 -2v-22q3 -2 6.5 -3.5t4.5 -3.5q0 -16 4 -20h9q3 3 3 14v6q9 0 13 1.5t9 5.5q-7 8 -11 8v14q3 0 11 8v26q-3 2 -6 3.5t-5 5.5q0 8 -1.5 10t-9.5 5q7 0 12.5 5t6.5 5v-10q0 -8 7 -8q3 -10 4 -11.5t7 -4.5q0 -15 8 -22h3q2 2 4 8t3 6
q20 7 20 24q5 0 18 8v-58h-7q-3 -3 -3 -14q-4 -1 -14 -8q10 -7 32 -7q0 -5 -2 -6.5t-5 -6.5v-36q-4 2 -5.5 3.5t-2 3.5t-3.5 7h-20q0 -2 -2 -6q-2 -6 -2 -8q-4 0 -11 -8q7 0 11 -3v-7q-2 -2 -5 -3.5t-6 -4.5v-16q-19 0 -22 -8v-7l1 -1q0 1 -4 1q0 3 -2 8t-2 7q-18 0 -23 -8
v-7q11 -11 22 -11v-7h-7q-12 -5 -21 -7q-4 -1 -10 -1v15q7 0 7 7q0 35 -3 43h-3q-8 -8 -8 -39q-7 0 -11 -4v-14h-26l-4 -8v-38q-10 0 -24 -4q9 -7 14 -7v-18q-6 2 -6 6q0 3 -7 5h-4q-5 -2 -6 -5q-2 -4 -5 -6v18q3 0 11 7q0 57 -7 64h-4q-1 -1 -3 -2l-1 -1l4 3q-4 4 -11 4
q0 31 -7 39h-4q-6 -3 -5 -21q1 -34 1 -31v-55q0 -1 4 -3t4 -4v-7q0 -1 -3.5 -4.5t-3.5 -6.5h-29v25q0 2 -1 3l-4 2q-2 1 -5 3q-2 7 -7 16h-4q-7 -7 -7 -24q3 -2 7 -3l4 -4v-7q-5 -4 -15 -11q3 0 11 11v7q0 7 -18 7q-15 0 -18 -7v-11q0 4 -7 4q0 10 -5 15q-5 4 -16 7v16l-7 4
h-15v14q-6 8 -11 8q-4 12 -22 18v31q11 3 11 15q2 0 5.5 1.5t5.5 1.5q0 19 -4 22h-7q-3 -3 -3 -14q-5 0 -19 -8v44q4 0 7 2t4 2v38h18v-14q-5 0 -7 -4q-2 -2 -3 -4q29 0 36 8v7l-4 4l4 -4h17q0 -31 3 -35h-9l-7 -7v-15q-6 -2 -7 -3.5t-4 -10.5q-4 0 -11 -8h35v-10
q-9 -4 -13 -8q0 -11 7 -24q10 4 21 17v22h7q1 -12 3 -31h8q4 3 4 16q18 0 21 8v7l-7 7l7 4v14q3 -2 8 -3.5t7 -3.5q0 -8 1 -9.5t5 -8.5q27 0 32 11v9h-1q1 -2 5 -2q6 8 6.5 11t0.5 11q3 0 11 7v20q-7 8 -11 8q0 2 -2 4t-2 3zM617 129q2 -1 3 -2l1 -2h8q0 -3 -4 -7h-3
q-5 4 -5 11zM629 125q0 4 3 7q0 -2 -1 -3q-2 -3 -2 -4zM632 132v50q4 0 11 8v10h15l4 8v22h7v-90q-1 -2 -5 -3q-3 -2 -6 -5v-14l-14 -8q0 19 -8 22h-4zM456 -67q2 -1 3 -2l1 -2v3q-1 1 -4 1zM460 -71q4 -1 9 -8l6 -6q0 7 -7 14h-8zM468 -67q3 9 3 31h15q2 -2 3 -4q0 -4 4 -6
q2 -1 4 -1q-2 -2 -5 -3.5t-6 -3.5v-9q0 -5 -3 -5q-3 1 -6 1h-9zM414 -10q-1 -5 -1 -15v-12q0 -20 -2 -26h-4v49q3 0 7 4zM307 -89l3 -4q0 3 -1 4h-2zM310 -93q4 0 8 -3q-8 0 -8 3zM264 129q-3 0 -7 3v12l-7 7h-15v15q11 0 11 9v7q-1 3 -5.5 5t-5.5 3v10q-6 8 -11 8
q3 0 7 2.5t4 4.5v7q0 3 -4 4q-5 2 -7 4v34h8v-16l3 -7h15v-33q-8 0 -8 -8v-7q0 -3 8 -3v-24q2 -1 6 -4t5 -4v-26zM296 90q4 4 4 20h13q-2 -1 -3.5 -3t-2.5 -4v-31q-1 1 -3 2.5t-4 1.5q0 7 -4 14zM307 72l4.5 -2t6.5 -2h-8q-1 1 -1 2zM318 68q1 7 7 15v-15h-7zM531 237
q2 -2 3 -4l4 -2q2 -1 4 -1l1 -15h-18q0 8 -1.5 10t-11.5 5q0 34 -4 42h-3q-4 -2 -5 -8q-2 -6 -3 -7h-4v15h15q1 6 4 14h9v-14q8 -8 11 -8zM511 305q0 7 -6 7q-8 -7 -12 -7v14h15q0 -3 1.5 -8t1.5 -6zM300 290h-12q0 -2 -1.5 -6t-1.5 -5q-27 -7 -28 -7v25h15l7 8v14
q27 0 31 20q18 5 22 22h15q0 -29 7 -34h4q6 5 6 20q7 4 10 7v15q9 -8 11 -8h8q-1 0 7 8q0 -18 7 -22h4l3.5 7l3.5 7h15q1 -5 4 -11q1 -1 9 -3q-14 0 -14 -8v-7q4 -5 36 -5v-15h-39q-2 2 -3 8q-3 6 -4 7h-4q-2 -5 -7 -15h-4q-2 3 -7 15h-15q0 -6 -3 -15h-8q0 4 -3 15h-28
q-2 -6 -7 -15q-10 0 -20 -8z" />
    </font>
</defs>
</svg>
