<?xml version="1.0" standalone="no"?>
<!DOCTYPE svg PUBLIC "-//W3C//DTD SVG 1.1//EN" "http://www.w3.org/Graphics/SVG/1.1/DTD/svg11.dtd" >
<svg xmlns="http://www.w3.org/2000/svg" xmlns:xlink="http://www.w3.org/1999/xlink" version="1.1">
<metadata>
Created by FontForge 20170731 at Mon Apr 12 07:35:57 2004
 By Aleksey,,,
Copyright (c) LDO Fonts, 2004. All rights reserved.
</metadata>
<defs>
<font id="OregonLDOBlackSinistral" horiz-adv-x="176" >
  <font-face 
    font-family="Oregon LDO Black Sinistral"
    font-weight="900"
    font-style="italic"
    font-stretch="normal"
    units-per-em="1000"
    panose-1="2 11 10 3 6 4 2 2 2 4"
    ascent="800"
    descent="-200"
    x-height="495"
    cap-height="692"
    bbox="-110 -281 1053 902"
    underline-thickness="50"
    underline-position="-150"
    slope="-12"
    unicode-range="U+0020-FB02"
  />
<missing-glyph horiz-adv-x="278" 
 />
    <glyph glyph-name=".notdef" horiz-adv-x="278" 
 />
    <glyph glyph-name=".null" horiz-adv-x="0" 
 />
    <glyph glyph-name="nonmarkingreturn" horiz-adv-x="278" 
 />
    <glyph glyph-name="space" unicode=" " horiz-adv-x="278" 
 />
    <glyph glyph-name="space" unicode="&#xa0;" horiz-adv-x="278" 
 />
    <glyph glyph-name="exclam" unicode="!" horiz-adv-x="174" 
d="M90 157q-7 22 -19 62t-26 87.5t-29 98.5t-28 95.5t-22 78t-12 46.5q-9 40 10 56.5t46 16.5q28 0 54 -16t35 -57q2 -7 5.5 -32t8.5 -62.5t10.5 -84t12 -96t12.5 -99.5t12 -94h-70zM64 69q-3 16 0 30.5t12 25.5t22 17.5t29 6.5t32 -6.5t29.5 -17.5t23 -25.5t12.5 -30.5
t0 -30.5t-12 -25.5t-22 -17.5t-29 -6.5t-32 6.5t-29.5 17.5t-23 25.5t-12.5 30.5z" />
    <glyph glyph-name="quotedbl" unicode="&#x22;" horiz-adv-x="289" 
d="M-11 698h102l69 -320h-103zM125 698h104l69 -320h-104z" />
    <glyph glyph-name="numbersign" unicode="#" horiz-adv-x="442" 
d="M109 398h-79q4 14 6 31.5t3 35.5t0 35t-4 29h73q0 56 -1.5 81t-3 35t-2.5 12.5t-2 13.5q45 -12 49 -12t65 19q-3 -16 -6 -30.5t-5.5 -31.5t-4 -38t-1.5 -49h50q0 56 -1.5 81t-3 35t-2.5 12.5t-2 13.5q45 -12 49 -12t65 19q-3 -16 -6 -30.5t-5.5 -31.5t-3.5 -38t-1 -49h77
q-3 -14 -5 -31.5t-3 -36t0 -35.5t4 -28h-73v-34v-32t-0.5 -32.5t-0.5 -37.5h79q-3 -14 -5 -31.5t-2.5 -36t0.5 -35.5t3 -28h-73q0 -55 1.5 -89.5t2.5 -44.5q-15 0 -28.5 1.5t-15.5 1.5l-5.5 -0.5t-14.5 -1t-19.5 -1t-19.5 -0.5q2 12 4 24.5t3.5 27.5t2 34.5t0.5 47.5h-49
q0 -55 1.5 -89.5t2.5 -44.5q-14 0 -28 1.5t-17 1.5q1 0 -4.5 -0.5t-14 -1t-19.5 -1t-20 -0.5q2 12 4 24.5t3.5 27.5t2 34.5t0.5 47.5h-78q3 14 5.5 31.5t3 35.5t0 35t-3.5 29h73v136zM248 398h-51v-34t-0.5 -32t-0.5 -32.5v-37.5h51z" />
    <glyph glyph-name="dollar" unicode="$" horiz-adv-x="442" 
d="M186 288q-45 16 -79 34t-58.5 40.5t-40.5 50.5t-23 66q-16 74 14 124.5t105 65.5q-10 27 -40 90q28 -9 46.5 -14t23.5 -5t20.5 5t38.5 13q-1 -32 -1.5 -53.5t1.5 -31.5q28 -2 51.5 -8.5t43.5 -15t37 -18t31 -18.5q-9 -25 -12.5 -49.5t-3.5 -60.5h-52q-13 20 -31 43
t-44 32l39 -182q40 -15 74.5 -32.5t61 -39.5t44.5 -49.5t26 -62.5q7 -36 3 -70t-19.5 -62.5t-41.5 -49.5t-63 -33q5 -21 14 -50t25 -72q-25 8 -41 12.5t-21 4.5t-19.5 -4.5t-37.5 -12.5q0 35 -2.5 62t-5.5 48q-46 1 -94 17t-102 53q5 30 5 54.5t-3 59.5h52q35 -48 66 -68
t58 -25zM316 94q15 14 21 37t1 48q-4 17 -14.5 33.5t-40.5 34.5zM126 571q-14 -11 -19.5 -28.5t-0.5 -38.5q5 -22 17.5 -39.5t30.5 -29.5z" />
    <glyph glyph-name="percent" unicode="%" horiz-adv-x="851" 
d="M-8 494q-8 39 -2.5 72t23.5 57t47 37.5t69 13.5t75.5 -13.5t63.5 -37.5t47.5 -57t27.5 -72t2.5 -72t-23 -57t-47 -38t-69.5 -14t-75.5 14t-63.5 38t-47.5 57t-27.5 72zM506 166q-8 39 -2.5 72t23.5 57t47.5 37.5t69.5 13.5t75 -13.5t63.5 -37.5t48 -57t27.5 -72t2.5 -72
t-23 -57t-47 -38t-69.5 -14t-75.5 14t-63.5 38t-48 57t-28 72zM480 703q17 -6 27 -9t12 -3t21.5 7.5t51.5 19.5l-225 -761q-17 5 -26.5 8.5t-11.5 3.5q-3 0 -22.5 -7.5t-50.5 -20.5zM115 494q4 -20 11.5 -39t16.5 -33t20.5 -22.5t25.5 -8.5q13 0 21.5 8.5t12 22.5t2.5 33
t-5 39t-11 38.5t-16.5 33t-21.5 23t-25 8.5q-14 0 -22 -8.5t-11.5 -23t-2.5 -33t5 -38.5zM629 166q4 -20 11.5 -39t17 -33t21 -22.5t25.5 -8.5q13 0 21.5 8.5t11.5 22.5t2 33t-5 39t-11 38.5t-16.5 33t-21.5 23t-25 8.5q-14 0 -22 -8.5t-11.5 -23t-2.5 -33t5 -38.5z" />
    <glyph glyph-name="ampersand" unicode="&#x26;" horiz-adv-x="641" 
d="M89 508q-8 35 -1.5 65t24 52.5t46 35.5t66.5 13q65 0 114.5 -33t63.5 -98q6 -27 1 -51t-16.5 -45.5t-28 -39.5t-34.5 -32q1 -1 1.5 -2t1.5 -2l-1 1q23 -23 41 -41.5t34.5 -35l33.5 -33.5t39 -36q20 41 36.5 89t33.5 114q26 -40 49.5 -61.5t42.5 -32.5q-22 -51 -43 -95
t-44 -83q19 -18 43.5 -40t49 -44.5t47 -42.5t37.5 -35h-51t-28 2q-11 2 -23 2.5t-20 0.5t-17.5 -1t-20.5 -3q-2 0 -14 -0.5t-15 -0.5q-12 14 -27.5 32.5t-31.5 33.5q-32 -35 -74 -56.5t-105 -21.5q-41 0 -80.5 11.5t-72.5 35t-57 58t-33 79.5q-14 64 16.5 119.5t92.5 90.5
q-30 35 -49 66.5t-27 64.5zM183 183q4 -20 16 -38t29.5 -32t39 -22.5t45.5 -8.5q34 0 56.5 10t41.5 30q-25 24 -47.5 46t-44 44t-43.5 45t-46 49q-24 -23 -39.5 -53.5t-7.5 -69.5zM299 544q-5 22 -20.5 35.5t-37.5 13.5q-23 0 -32.5 -17t-4.5 -42q4 -18 19.5 -44t37.5 -51
q24 24 33.5 52t4.5 53z" />
    <glyph glyph-name="quotesingle" unicode="'" horiz-adv-x="144" 
d="M-17 698h103l69 -320h-104z" />
    <glyph glyph-name="parenleft" unicode="(" horiz-adv-x="215" 
d="M145 656q-27 -48 -41 -92.5t-17.5 -89t1.5 -91t16 -97.5q10 -51 25 -97t37.5 -90.5t55.5 -89t80 -92.5l-45 -54q-106 93 -174 202t-91 221q-11 53 -11.5 108.5t10 110t32 106.5t54.5 98z" />
    <glyph glyph-name="parenright" unicode=")" horiz-adv-x="215" 
d="M68 -83q27 48 41 92.5t17.5 89t-1.5 90.5t-15 97q-11 51 -25.5 97.5t-37.5 91t-55.5 89t-79.5 92.5l45 54q106 -93 173.5 -202.5t91.5 -221.5q11 -53 11 -108t-10.5 -109.5t-32 -106.5t-54.5 -98z" />
    <glyph glyph-name="asterisk" unicode="*" horiz-adv-x="366" 
d="M83 696q26 -8 39.5 -11t20.5 -3q6 0 18.5 3t36.5 12l13 -123q24 20 47 40.5t40 34.5q11 -29 32.5 -57t50.5 -45l-108 -54q33 -14 69 -30t59 -26q-16 -14 -27.5 -41t-9.5 -58l-120 72l20 -64t18 -55q-20 5 -36.5 8.5t-22.5 3.5t-21.5 -3.5t-33.5 -6.5l-14 116
q-23 -20 -46.5 -40t-38.5 -34q-11 33 -33 59.5t-46 42.5l103 54q-35 14 -69 28.5t-59 24.5q14 15 24.5 43.5t3.5 64.5l126 -80z" />
    <glyph glyph-name="plus" unicode="+" horiz-adv-x="512" 
d="M-16 312h208l-44 209h104l44 -209h209l22 -103h-209l45 -209h-104l-45 209h-209z" />
    <glyph glyph-name="comma" unicode="," 
d="M38 105l1 -1q1 19 12.5 37t42.5 18q10 0 21.5 -3.5t22 -10.5t19 -18t11.5 -27q4 -15 1 -27t-7 -23q0 -3 -2 -5l2 3q-18 -49 -40.5 -107.5t-40.5 -107.5l-69 23z" />
    <glyph glyph-name="hyphen" unicode="-" horiz-adv-x="336" 
d="M12 297h285l24 -113h-285z" />
    <glyph glyph-name="period" unicode="." 
d="M7 69q-7 32 11.5 56t50.5 24q16 0 32 -6.5t29.5 -17.5t23 -25.5t13.5 -30.5q3 -16 0 -30.5t-12 -25.5t-22 -17.5t-29 -6.5t-32 6.5t-29.5 17.5t-23 25.5t-12.5 30.5z" />
    <glyph glyph-name="slash" unicode="/" horiz-adv-x="334" 
d="M175 709q16 -5 26.5 -8t15.5 -3t22.5 5.5t43.5 15.5l-125 -747q-35 11 -43 11q-5 0 -22 -5.5t-43 -15.5z" />
    <glyph glyph-name="zero" unicode="0" horiz-adv-x="534" 
d="M23 330q-15 70 -15.5 133t18 109.5t59 74t108.5 27.5q75 0 128 -27.5t90 -74t60 -109.5t38 -133q15 -69 14 -131.5t-20.5 -110t-59.5 -75.5t-103 -28q-75 0 -128.5 27.5t-90 74.5t-60 109.5t-38.5 133.5zM154 330q12 -56 28 -103.5t36.5 -82t46 -54.5t57.5 -20
q31 0 48.5 20t23 54.5t1 82t-16.5 103.5q-12 55 -27.5 102.5t-36 82t-46.5 54.5t-57 20q-32 0 -49.5 -18.5t-23.5 -52t-1 -81.5t17 -107z" />
    <glyph glyph-name="one" unicode="1" horiz-adv-x="278" 
d="M76 540q-21 -14 -44 -27.5t-38 -24.5q-13 19 -28 32.5t-26 21.5l-9 39q51 23 106 51.5t106 57.5l40 -19q10 -61 22 -129t25 -128l33 -154q6 -30 14 -64.5t17 -70.5t18 -71t17 -64q-25 5 -44.5 7.5t-30.5 2.5t-29.5 -2.5t-41.5 -7.5q-5 30 -10.5 64.5t-11.5 70.5
t-12.5 70.5t-12.5 64.5z" />
    <glyph glyph-name="two" unicode="2" horiz-adv-x="480" 
d="M2 554q24 62 66.5 91t108.5 29q42 0 81.5 -11t72 -34t56 -59t34.5 -86q7 -35 5.5 -64.5t-11 -58t-27 -56.5t-41.5 -60q-9 -11 -21 -29q-14 -18 -25 -30t-20.5 -23t-18 -23t-16.5 -29h30q33 0 67.5 1t67 3t60 3.5t46.5 3.5q-1 -24 -1.5 -41t1.5 -24q2 -6 9 -23t18 -40
q-25 1 -55.5 2t-62 2t-62 1.5t-55.5 0.5t-53.5 -0.5t-58 -1.5t-58.5 -2t-53 -2l-12 54q76 95 122 158t68 109t24.5 83t-6.5 81q-12 55 -40 80.5t-59 25.5q-22 0 -36 -10.5t-22 -26t-10.5 -33t-2.5 -31.5l-44 -1z" />
    <glyph glyph-name="three" unicode="3" horiz-adv-x="459" 
d="M-15 599q10 13 24 26t32 24t41.5 18t52.5 7q42 0 81 -9.5t71.5 -30t55 -51.5t31.5 -74q11 -51 -3.5 -87.5t-41.5 -58.5q22 -8 44 -20.5t40.5 -31.5t32.5 -44.5t21 -58.5q10 -48 0 -88.5t-38 -70.5t-72.5 -47t-103.5 -17q-52 0 -98.5 14.5t-86.5 31.5q3 15 3.5 41.5
t-2.5 45.5l36 20q11 -11 26.5 -22.5t32.5 -22t36 -17t37 -6.5q56 0 80 35t13 91q-13 61 -47 85.5t-79 24.5q-8 0 -29 -5l-42 -10q-2 20 -2.5 36.5t-1.5 19.5q-1 1 -6.5 17t-13.5 36q26 -4 48 -6.5t29 -2.5q24 0 36.5 11t17.5 27.5t3.5 36.5t-5.5 38q-9 45 -36 65t-53 20
q-28 0 -45.5 -22t-21.5 -51l-45 -2z" />
    <glyph glyph-name="four" unicode="4" horiz-adv-x="508" 
d="M19 217q29 57 61.5 122.5t63 128t55.5 116.5t40 89q17 -4 28.5 -6.5t16.5 -2.5t20.5 4.5t35.5 10.5q6 -40 15 -90t19.5 -103t21.5 -107.5t22 -103.5q22 2 49 6t49 8q-1 -26 -2 -43t0 -22q2 -6 9.5 -23t19.5 -42q-13 2 -28.5 4t-30.5 3.5t-26.5 3t-17.5 1.5l2 -11
q7 -31 15 -63.5t15 -57.5q0 -2 2 -9.5t4 -16t4 -15.5t2 -8q-24 5 -42 7.5t-29 2.5q-9 0 -26.5 -3t-41.5 -8q-2 13 -5 35t-6.5 46.5t-7.5 48.5t-8 41l-2 11q-28 0 -70 -1l-84 -2t-78 -2t-53 -2zM250 472q-12 -25 -25.5 -52t-26 -53.5t-23 -50.5t-17.5 -42h136z" />
    <glyph glyph-name="five" unicode="5" horiz-adv-x="461" 
d="M150 415q13 4 30.5 6.5t41.5 2.5q46 0 87.5 -16t73.5 -44t54 -64.5t31 -76.5q10 -50 0.5 -93t-36.5 -75.5t-70 -51t-100 -18.5q-44 0 -91.5 11.5t-94.5 38.5l-6 28q3 11 3 33t-2 42h49q25 -34 61.5 -51t66.5 -17q22 0 40.5 8.5t30.5 26t15.5 44.5t-4.5 64q-13 63 -49 90
t-76 27q-16 0 -30 -4.5t-25.5 -10.5t-20 -12t-12.5 -9l-46 27q-2 46 -8.5 88t-14.5 80t-20 82.5t-26 83.5l27 20q8 -2 25 -3t37 -3q39 -3 111 -3q43 0 82.5 1t55.5 2l32 -25q-3 -35 2 -59q2 -6 4.5 -14t13.5 -36q-30 5 -66.5 8.5t-72.5 6t-68.5 3.5t-55.5 1z" />
    <glyph glyph-name="six" unicode="6" horiz-adv-x="491" 
d="M347 609l-25 -30q-16 5 -30.5 7.5t-26.5 2.5q-35 0 -58.5 -18t-37 -47.5t-18.5 -65.5t-4 -72q18 16 43.5 26t62.5 10q28 0 66 -8.5t75 -31t67 -61.5t43 -100q11 -53 4 -96t-30.5 -74.5t-62.5 -48.5t-92 -17q-45 0 -90 15.5t-84.5 50.5t-70.5 91t-48 136v3
q-17 81 -13 152.5t30.5 125t74.5 84.5t120 31q20 0 34 -1.5t29 -3.5zM372 202q-12 57 -41.5 93.5t-75.5 36.5q-42 0 -63.5 -36.5t-9.5 -93.5q13 -59 48 -95.5t76 -36.5q45 0 62 36.5t4 95.5z" />
    <glyph glyph-name="seven" unicode="7" horiz-adv-x="464" 
d="M409 611q-26 -70 -54 -148t-56 -158t-53.5 -160t-47.5 -154q-18 4 -30.5 6.5t-20.5 2.5q-6 0 -29.5 -5.5t-58.5 -14.5q28 69 60 149.5t62 157.5t55.5 144t40.5 110q-53 -1 -132.5 -3.5t-170.5 -7.5q-2 21 -3.5 41.5t-3.5 29.5q-2 8 -8.5 28t-14.5 42q19 -1 41.5 -2.5
t44 -3t41 -3t32.5 -1.5q15 0 38 -0.5t47.5 -1t48 -0.5h40.5q14 0 26.5 0.5t23.5 0.5h71z" />
    <glyph glyph-name="eight" unicode="8" horiz-adv-x="505" 
d="M48 192q-11 54 2.5 100.5t61.5 77.5q-33 20 -60.5 52.5t-37.5 77.5q-7 34 0.5 65.5t28.5 55.5t55 38.5t80 14.5q53 0 94.5 -13.5t71.5 -36t48 -52t25 -61.5q8 -38 -1.5 -73.5t-38.5 -60.5q19 -9 39.5 -23t38.5 -34t32.5 -46t21.5 -60q11 -52 1.5 -94t-34.5 -72t-64 -46.5
t-87 -16.5q-50 0 -95.5 14t-82.5 40.5t-63 65t-36 87.5zM377 197q-12 56 -45.5 91.5t-78.5 35.5t-63.5 -35.5t-6.5 -91.5q11 -57 45 -92t79 -35t63 35t7 92zM288 499q-8 37 -30.5 63.5t-60.5 26.5q-19 0 -31 -7t-18 -19.5t-6.5 -29t3.5 -34.5q8 -37 30 -63.5t60 -26.5
t49.5 26.5t3.5 63.5z" />
    <glyph glyph-name="nine" unicode="9" horiz-adv-x="498" 
d="M136 118q29 -23 56 -35.5t47 -12.5q34 0 56.5 17t35 45t16 65t0.5 77q-19 -17 -45.5 -26t-63.5 -9q-47 0 -88.5 14t-74 41t-55 66t-32.5 89q-10 48 -2.5 89t31 71.5t62.5 47.5t92 17q46 0 92 -15.5t85.5 -50.5t70.5 -91t48 -136q18 -83 13 -155t-32 -125.5t-76 -84.5
t-119 -31q-26 0 -54.5 7t-46.5 14q-7 14 -20 37t-30 44zM308 473q-11 52 -44 84t-76 32q-42 0 -60.5 -37.5t-4.5 -102.5q14 -64 43 -92.5t69 -28.5q25 0 42 12t26 32.5t10 46.5t-5 54z" />
    <glyph glyph-name="colon" unicode=":" horiz-adv-x="185" 
d="M-24 406q-4 16 -0.5 30.5t12 25.5t21.5 17.5t29 6.5t32 -6.5t29 -17.5t22.5 -25.5t13.5 -30.5q3 -16 0 -30.5t-12 -25.5t-22 -17.5t-29 -6.5t-32 6.5t-29 17.5t-22.5 25.5t-12.5 30.5zM46 69q-3 16 0 30.5t12 25.5t22 17.5t29 6.5t32 -6.5t29.5 -17.5t23 -25.5
t12.5 -30.5t0 -30.5t-12 -25.5t-22 -17.5t-29 -6.5t-32 6.5t-29.5 17.5t-23 25.5t-12.5 30.5z" />
    <glyph glyph-name="semicolon" unicode=";" horiz-adv-x="192" 
d="M77 105v-1q1 9 4 19t9.5 18t17 13t26.5 5q20 0 43 -13.5t30 -45.5q3 -15 0 -27t-5 -23q-1 -1 -3 -5l2 3q-18 -49 -40.5 -107.5t-39.5 -107.5l-70 23zM-10 406q-3 16 0 30.5t11.5 25.5t21.5 17.5t30 6.5q16 0 32 -6.5t29.5 -17.5t23 -25.5t12.5 -30.5t0 -30.5t-12 -25.5
t-22 -17.5t-29 -6.5q-17 0 -32.5 6.5t-29 17.5t-23 25.5t-12.5 30.5z" />
    <glyph glyph-name="less" unicode="&#x3c;" horiz-adv-x="549" 
d="M-15 303l470 243l23 -109l-348 -176q102 -43 212.5 -89.5t210.5 -87.5l23 -109l-574 245z" />
    <glyph glyph-name="equal" unicode="=" horiz-adv-x="559" 
d="M549 298h-522l-22 104h522zM586 120h-522l-21 103h522z" />
    <glyph glyph-name="greater" unicode="&#x3e;" horiz-adv-x="548" 
d="M69 84l347 177q-102 42 -212 88t-209 88l-23 109l573 -245l17 -83l-470 -243z" />
    <glyph glyph-name="question" unicode="?" horiz-adv-x="286" 
d="M-66 655q23 16 50 29.5t65 13.5q40 0 73 -12t58.5 -32.5t42 -47.5t22.5 -57q6 -31 2.5 -56.5t-13 -47.5t-23.5 -41t-28 -37q-19 -26 -33.5 -50t-9.5 -49q2 -9 9 -18t17 -9q6 0 14.5 5t13.5 7l55 -26q-8 -11 -13 -27.5t-4 -27.5q-14 -5 -28 -8.5t-28 -3.5t-37 7t-46.5 22
t-43 40t-26.5 61q-6 28 -3 52t12 44t21.5 38t26.5 35q20 25 35 49.5t9 52.5q-5 22 -24 35t-38 13t-41.5 -23t-43.5 -60zM102 69q-3 16 0 30.5t11.5 25.5t21.5 17.5t30 6.5q16 0 32 -6.5t29.5 -17.5t23 -25.5t12.5 -30.5t0 -30.5t-12 -25.5t-22 -17.5t-29 -6.5
q-17 0 -32.5 6.5t-29 17.5t-23 25.5t-12.5 30.5z" />
    <glyph glyph-name="at" unicode="@" horiz-adv-x="685" 
d="M644 409q13 -59 2 -106.5t-36 -80.5l11 -101q-11 -13 -32 -29.5t-50.5 -31t-68 -24.5t-84.5 -10q-50 0 -106 18.5t-106.5 57t-90 97.5t-56.5 140q-12 60 0 117t47.5 101.5t93.5 71.5t137 27q83 0 143 -21.5t100 -56.5t63 -79t33 -90zM313 545q16 0 32 -3t30 -11v5h84
q-26 17 -60 26t-80 9q-50 0 -87.5 -20.5t-61 -55.5t-30.5 -83t5 -103q10 -48 33.5 -84.5t55.5 -60.5t72 -36.5t84 -12.5q38 0 75.5 15t70.5 37q-21 -8 -44 -8q-33 0 -52.5 8.5t-31.5 25.5q-14 -15 -33.5 -24.5t-45.5 -9.5q-62 0 -102.5 38t-56.5 113q-11 52 -4.5 95.5
t26 74.5t51 48t70.5 17zM368 419q-4 18 -12 30t-25 12q-20 0 -31.5 -15t-17 -38t-4.5 -50t6 -51q6 -29 14.5 -43.5t25.5 -14.5q20 0 31 19t15.5 45.5t3 55.5t-5.5 50zM549 391q-8 39 -24.5 72t-44.5 57q0 -91 0.5 -143.5t1 -80t1.5 -37t2 -14.5q2 -5 4 -5q14 0 28 11.5
t23 31.5t12.5 48t-3.5 60z" />
    <glyph glyph-name="A" unicode="A" horiz-adv-x="662" 
d="M287 698q12 -19 26.5 -42t30 -47t31 -48.5t29.5 -46.5q30 -47 63.5 -99.5l67 -105t66 -103t60.5 -93t50 -76t35 -51.5q-39 6 -65.5 10t-35.5 4q-11 0 -28 -2.5t-40 -5.5q-26 54 -58 107.5t-64 104.5q-9 15 -12.5 20.5t-12.5 18.5q-25 1 -50 1h-51h-25h-21.5t-21.5 -0.5
t-25 -0.5q-12 -66 -21.5 -132t-13.5 -121q-20 5 -35 7.5t-21 2.5t-27.5 -4.5t-51.5 -12.5q20 81 41.5 172.5t43.5 185t42.5 185t38.5 172.5h55zM285 477q-8 -35 -14.5 -65t-15.5 -73h10q12 -1 24 -1h24q17 0 23.5 -0.5t14.5 -0.5q5 0 10.5 0.5t13.5 0.5z" />
    <glyph glyph-name="B" unicode="B" horiz-adv-x="520" 
d="M21 421q-6 30 -14 64.5t-16.5 70t-17.5 70t-16 63.5q39 -4 71.5 -5.5t55.5 -1.5h23.5t23.5 1q13 1 25 2t25 1q45 0 87 -7.5t76 -25.5t58.5 -49t34.5 -78q11 -54 -2.5 -91t-48.5 -62q54 -19 90.5 -59t50.5 -106q12 -59 -3 -99.5t-47.5 -65.5t-76.5 -36.5t-89 -11.5
q-11 0 -23.5 0.5t-23.5 1.5q-12 1 -22 2t-21 1q-23 0 -53 -2t-65 -5q-5 30 -10.5 64.5t-12 70t-13 70t-12.5 64.5zM189 248q7 -32 15 -62t16 -62q2 -7 3.5 -16.5t4.5 -20.5q15 -2 31.5 -2h32.5q24 0 44.5 8.5t33.5 24.5t17.5 39.5t-1.5 54.5q-7 31 -23.5 51t-42 31
t-58.5 15.5t-73 4.5h-14zM178 403q27 0 52.5 5t44 17t27 32.5t2.5 50.5q-6 28 -21 45.5t-34.5 27.5t-42 13t-43.5 3h-24h-8t-10 -2q2 -9 3 -17t3 -17q5 -29 9.5 -58t10.5 -58l9 -42h22z" />
    <glyph glyph-name="C" unicode="C" horiz-adv-x="655" 
d="M666 49q-9 -9 -27.5 -20t-45.5 -21.5t-60 -17.5t-70 -7q-79 0 -150.5 24t-130 70t-100 112.5t-59.5 151.5t-4.5 151t53 112t102.5 70t146 24q63 0 129.5 -17t122.5 -40q-10 -30 -11 -51t-1 -35q1 -5 2.5 -15t1.5 -11l-44 -2q-12 10 -31 24.5t-42.5 27t-51 21.5t-56.5 9
q-48 0 -86.5 -16t-61.5 -49t-30 -83.5t8 -119.5t43 -119.5t65.5 -83.5t82.5 -49t93 -16q29 0 54.5 9t47.5 22.5t39 28t30 25.5l38 -31z" />
    <glyph glyph-name="D" unicode="D" horiz-adv-x="706" 
d="M31 420q-6 30 -14.5 64.5t-17 69.5t-17.5 69.5t-17 64.5q17 -1 39 -2t45 -2t45.5 -1.5t39.5 -0.5h34t34 1t35 2t35 1q88 0 156 -23t117.5 -65.5t81 -104t48.5 -139.5q21 -100 1 -168.5t-64.5 -111t-104.5 -61t-119 -18.5q-16 0 -32 0.5t-31 1.5q-16 1 -31 2t-31 1
q-15 0 -35 -0.5t-40.5 -1.5t-40.5 -2t-36 -2q-5 30 -10.5 64t-11.5 69.5t-12.5 70t-12.5 64.5zM194 262q5 -25 9.5 -46t9.5 -41.5l10 -41t12 -44.5q19 -2 44 -3t52 -1q46 0 89 11t73 41t41.5 82t-5.5 135q-15 72 -42.5 118t-64.5 72.5t-82 37t-96 10.5q-30 0 -60 -2t-55 -4
q6 -39 14.5 -81t17.5 -85z" />
    <glyph glyph-name="E" unicode="E" horiz-adv-x="416" 
d="M18 421q-6 30 -14 64.5t-16.5 69.5t-17.5 69.5t-16 63.5q20 -1 45 -2t51.5 -2t51.5 -1.5t46 -0.5t47 0.5t52.5 1.5t52 2t45.5 2q0 -47 3 -57q1 -5 6.5 -19.5t14.5 -37.5q-6 0 -18.5 1t-25.5 1.5t-24.5 1.5t-16.5 1q-21 2 -36.5 3.5t-32.5 3t-39.5 2t-57.5 0.5
q2 -6 1 -9.5t1 -9.5v1q3 -17 5.5 -34t7.5 -38t9.5 -42t8.5 -39l3 -13q72 1 126 4.5t102 7.5q0 -46 3 -59l7 -21t15 -38q-33 3 -66 5.5t-64 3.5t-57.5 2t-46.5 1l23 -106q5 -26 8.5 -43.5t6.5 -29.5l5 -20t4 -17q58 1 125 4.5t129 14.5q-1 -24 0 -41t2 -22q2 -5 6.5 -18.5
t15.5 -37.5q-20 1 -46.5 2t-54 2t-54 1.5t-47.5 0.5t-46 -0.5t-51.5 -1.5t-51.5 -2t-46 -2q-5 30 -11 64.5t-12 70t-13 69.5t-13 64z" />
    <glyph glyph-name="F" unicode="F" horiz-adv-x="413" 
d="M18 420q-6 30 -14 64.5t-17 69.5t-17.5 69.5t-16.5 64.5q21 -1 46.5 -2t51.5 -2t51.5 -1.5t46.5 -0.5t46.5 0.5t53.5 1.5t55.5 2t52.5 2q0 -23 0.5 -37.5t1.5 -19.5q3 -14 23 -59q-29 3 -65 5.5t-72.5 4.5t-71 3.5t-59.5 2.5q5 -26 9 -48t9 -45q4 -17 7.5 -32t6.5 -29
l6 -28q53 1 112.5 3.5t128.5 9.5q1 -20 1 -36.5t2 -22.5t8.5 -23t14.5 -36q-63 6 -127.5 8.5t-119.5 2.5l11 -50q6 -30 14.5 -65t17.5 -71t18 -71t17 -65q-28 5 -47 7.5t-29 2.5t-29 -2.5t-44 -7.5q-5 30 -11 65t-12 71t-13 71l-13 65z" />
    <glyph glyph-name="G" unicode="G" horiz-adv-x="713" 
d="M566 519q-18 17 -41 33t-50 29t-57 20.5t-61 7.5q-51 0 -92 -16t-66.5 -49t-33.5 -83.5t7 -119.5q13 -61 40 -110t66 -83t88.5 -52.5t108.5 -18.5q31 0 63.5 5t52.5 15q-4 23 -9 46t-10 48q-5 26 -11.5 51.5t-13.5 50.5q0 3 -2 11t-4 18t-4 18.5t-3 11.5q24 -6 44.5 -9
t29.5 -3q8 0 22.5 3t43.5 13q2 -11 6 -33.5t9 -53t12 -66.5t15 -73l8 -37q2 -10 6.5 -28.5t6.5 -28.5q-21 -8 -52.5 -17.5t-66.5 -17.5t-70 -13t-63 -5q-88 0 -164 23t-135 68t-100 112t-60 155q-18 85 -4.5 151t54.5 112t107.5 70t154.5 24q49 0 91 -6.5t78 -17t65.5 -22.5
t53.5 -24q-7 -20 -10.5 -51.5t-0.5 -57.5h-49z" />
    <glyph glyph-name="H" unicode="H" horiz-adv-x="683" 
d="M489 420q-6 30 -14.5 65t-17.5 71t-18.5 71t-16.5 65q27 -5 46.5 -7.5t29.5 -2.5t28.5 2.5t44.5 7.5q5 -30 11 -65t12 -71t13 -71l13 -65l33 -158q6 -30 14.5 -65t17.5 -71t18 -71t17 -65q-27 5 -47 7.5t-30 2.5t-28 -2.5t-44 -7.5q-5 30 -11 65t-12.5 71t-13 71
t-12.5 65l-12 56q-42 1 -82.5 1h-82.5h-43.5h-38.5t-39 -0.5t-44 -0.5l12 -56q6 -30 14.5 -65t17.5 -71t18 -71t17 -65q-27 5 -46.5 7.5t-29.5 2.5t-28.5 -2.5t-44.5 -7.5q-5 30 -11 65t-12 71t-13 71l-13 65l-33 158q-6 30 -14.5 65t-17 71t-17.5 71t-17 65
q27 -5 46.5 -7.5t29.5 -2.5t28 2.5t44 7.5q5 -30 11 -65t12.5 -71t13 -71t12.5 -65l1 -5q10 0 18.5 -0.5t18.5 -0.5q32 0 64 -0.5t64 -0.5t63.5 0.5t63.5 0.5h12t7 0.5t7 0.5h12z" />
    <glyph glyph-name="I" unicode="I" horiz-adv-x="181" 
d="M7 420q-6 30 -14.5 65t-17.5 71t-18 71t-17 65q27 -5 46.5 -7.5t29.5 -2.5t28.5 2.5t44.5 7.5q5 -30 10.5 -65t12 -71t13 -71t12.5 -65l33 -158q6 -30 14.5 -65t18 -71t18.5 -71t17 -65q-27 5 -47 7.5t-30 2.5t-28.5 -2.5t-44.5 -7.5q-5 30 -10.5 65t-12 71t-13 71
t-12.5 65z" />
    <glyph glyph-name="J" unicode="J" horiz-adv-x="286" 
d="M89 -173q42 0 63.5 16t28 44.5t1 69t-15.5 88.5l-75 375q-6 30 -14.5 65t-17.5 71t-18 71t-17 65q27 -5 47 -7.5t30 -2.5t28 2.5t44 7.5q5 -30 11 -65t12.5 -71t13 -71t12.5 -65q4 -22 10 -50.5t13 -61t14 -67.5t14 -69q5 -22 11.5 -52t12.5 -59t11 -53.5t7 -36.5
q10 -47 2 -88t-32.5 -71.5t-64.5 -48t-94 -17.5z" />
    <glyph glyph-name="K" unicode="K" horiz-adv-x="581" 
d="M105 24q-10 60 -20.5 119t-23.5 119l-34 158q-6 30 -14 65t-16.5 71t-17.5 71t-17 65q27 -5 46.5 -7.5t29.5 -2.5t28 2.5t44 7.5q5 -30 11 -65t12 -71t12.5 -71t12.5 -65l1 -5q24 28 50 61.5t51.5 69t50.5 72t48 71.5q15 -4 28 -5.5t22 -1.5q11 0 46.5 6t86.5 16
q-34 -37 -74.5 -82.5t-80 -91.5t-73.5 -88t-53 -71q41 -38 84.5 -77.5t85.5 -78.5q23 -22 56 -52.5t68.5 -63t69 -63t57.5 -52.5q-49 8 -83 12t-46 4q-10 0 -25.5 -2t-35.5 -5q-35 34 -77 75t-83.5 81t-79.5 76t-65 61l5 -24q6 -30 14.5 -65t17.5 -71t18 -71t17 -65
q-28 5 -47 7.5t-29 2.5q-15 0 -40 -5z" />
    <glyph glyph-name="L" unicode="L" horiz-adv-x="411" 
d="M20 420q-6 30 -14.5 65t-17.5 71t-18 71t-16 65q53 -10 75 -10q10 0 29 2.5t44 7.5q5 -30 11 -65t12 -71t13 -71l13 -65q20 -91 34.5 -161t28.5 -128q1 -9 2 -13t2 -7t1.5 -6.5t2.5 -10.5q28 0 56.5 0.5t60 2.5t67 5t79.5 9q-2 -24 -3 -40.5t0 -19.5q1 -5 8.5 -20.5
t18.5 -36.5q-22 1 -49.5 2t-56 2t-56 1.5t-48.5 0.5t-47 -0.5t-52 -1.5t-51.5 -2t-46.5 -2q-5 30 -11 64t-12 69.5t-12.5 70t-12.5 64.5z" />
    <glyph glyph-name="M" unicode="M" horiz-adv-x="863" 
d="M112 698q45 -65 87 -123.5t83.5 -115.5t84.5 -115.5t92 -122.5q11 32 25 74.5t31 92.5q12 36 25.5 77t26.5 82t25.5 80t23.5 71h53q10 -31 21 -65t22 -68.5t22 -67.5t20 -61q17 -53 35.5 -110t38 -115t39 -114.5t37.5 -107.5q-28 5 -48.5 8t-31.5 3t-28 -2.5t-38 -6.5
q-30 103 -62 210t-66 210q-32 -94 -62 -192t-57 -219h-44q-52 76 -113 161t-118 164q-15 20 -20 28t-9 13.5t-9.5 13t-20.5 27.5q5 -52 11 -108t12.5 -110.5t14.5 -106t17 -94.5q-23 5 -39 8.5t-24 3.5q-7 0 -23.5 -4t-39.5 -10q-4 76 -10 169.5t-12.5 189.5t-14.5 188
t-15 165h58z" />
    <glyph glyph-name="N" unicode="N" horiz-adv-x="677" 
d="M650 -17q-59 56 -123.5 114.5t-132 118t-135.5 119t-134 116.5q7 -41 24 -118q6 -29 17.5 -78t25 -101.5t25.5 -99t20 -69.5q-26 7 -44.5 11t-23.5 4q-8 0 -25.5 -4t-41.5 -9q-1 15 -4 45t-8.5 68.5t-12 83t-13.5 88t-14.5 83t-13.5 69.5q-9 43 -18.5 85.5t-18 79.5
t-15 65.5t-10.5 43.5h55q12 -11 29 -26t30 -26q134 -119 252.5 -224t212.5 -183q-13 58 -26.5 119t-27 120.5t-27 115t-25.5 101.5q25 -6 41.5 -9.5t22.5 -3.5q8 0 58 14q2 -26 8.5 -73t15 -98.5t16.5 -99.5t14 -75q5 -23 12.5 -56.5t15.5 -71t16.5 -75.5t16 -71t13 -58
t8.5 -35h-55z" />
    <glyph glyph-name="O" unicode="O" horiz-adv-x="811" 
d="M32 341q-18 85 -4.5 151t53 112t102.5 70t145 24t156 -24t133 -70t100.5 -112t59.5 -151t5 -151.5t-52.5 -112.5t-103.5 -70t-146 -24t-155.5 24t-132.5 70t-100.5 112.5t-59.5 151.5zM631 341q-15 69 -43 119.5t-65.5 83.5t-82.5 49t-93 16t-86 -16t-61.5 -49
t-30.5 -83.5t8 -119.5t43 -119.5t65.5 -83.5t82.5 -49t93 -16t86.5 16t62 49t30 83.5t-8.5 119.5z" />
    <glyph glyph-name="P" unicode="P" horiz-adv-x="489" 
d="M21 420q-6 30 -14.5 64.5t-17 70t-17.5 70t-16 64.5q35 -4 66 -5.5t54 -1.5q10 0 25.5 0.5t31 1.5t30.5 1.5t26 0.5q16 0 39 -1t49.5 -6t54 -16.5t52.5 -31.5t44 -51.5t29 -76.5q10 -46 3.5 -80.5t-23.5 -59t-42.5 -40.5t-54 -25t-58 -12.5t-53.5 -3.5h-25h-8.5t-14.5 1
l5 -21q6 -30 14.5 -65t17.5 -71t18 -71t17 -65q-28 5 -47.5 7.5t-29.5 2.5q-9 0 -28 -2.5t-44 -7.5q-5 30 -11 65t-12.5 71t-13 71t-12.5 65zM162 374q19 -3 39 -3q24 0 48 5t42 19t26.5 38.5t0.5 63.5q-7 31 -20 50.5t-31.5 30.5t-43 15t-53.5 4h-55z" />
    <glyph glyph-name="Q" unicode="Q" horiz-adv-x="830" 
d="M-7 341q-18 85 -5 151t52 112t102.5 70t145.5 24t156 -24t133 -70t100.5 -112t59.5 -151q26 -126 -13 -209t-130 -121q37 -25 86.5 -57t99 -63.5l93.5 -59.5t71 -44q-56 -3 -91.5 -21.5t-43.5 -35.5q-30 23 -76 57t-96 69.5t-97.5 69.5t-81.5 57h-18q-82 0 -155.5 24
t-132.5 70t-100 112.5t-59 151.5zM591 341q-15 69 -43 119.5t-65.5 83.5t-82.5 49t-93 16t-86 -16t-62 -49t-30.5 -83.5t8.5 -119.5t43 -119.5t65.5 -83.5t82 -49t92.5 -16t86.5 16t62 49t30.5 83.5t-8 119.5z" />
    <glyph glyph-name="R" unicode="R" horiz-adv-x="571" 
d="M25 420q-6 30 -14.5 64.5t-17 70t-17.5 70t-17 64.5q13 -1 31.5 -2.5t37 -2.5t36.5 -1.5t31 -0.5h25t25 1q14 1 27 2t27 1q45 0 86.5 -8.5t75.5 -29t58.5 -53.5t35.5 -82q9 -42 0.5 -74t-27.5 -55.5t-45 -39t-53 -24.5q11 -12 37 -38t59.5 -58.5t71 -69t72 -70t62 -60.5
t42.5 -40q-49 8 -83 12t-46 4q-11 0 -28 -2t-38 -5q-19 21 -54.5 59.5t-77.5 82.5t-85.5 87.5t-79.5 74.5l7 -35q6 -30 14.5 -65t17.5 -71t18 -71t17 -65q-27 5 -46.5 7.5t-29.5 2.5t-28.5 -2.5t-44.5 -7.5q-5 30 -11 65t-12 71t-13 71l-13 65zM162 391h34q24 0 49 5
t44.5 18t29 35t2.5 55q-6 28 -21 46t-34 28.5t-40.5 14.5t-40.5 4h-25h-15t-10.5 -0.5t-11.5 -1.5q8 -45 15.5 -87.5t17.5 -87.5z" />
    <glyph glyph-name="S" unicode="S" horiz-adv-x="469" 
d="M127 173q11 -16 26.5 -33t34 -31t41 -23t46.5 -9q48 0 69.5 31t12.5 75q-5 23 -18 39.5t-31.5 28.5t-41 21.5t-46.5 18.5q-35 13 -69.5 28t-64.5 37.5t-52.5 56t-33.5 83.5q-9 45 -1 82t32 63.5t62.5 41.5t90.5 15q50 0 94 -15.5t92 -47.5q-9 -26 -11.5 -52t-2.5 -61h-52
q-8 13 -18.5 28t-24.5 28t-31 22t-36 9q-40 0 -60 -24.5t-12 -62.5q5 -24 18.5 -40.5t33 -29t43 -22t47.5 -18.5q34 -13 68 -27t62.5 -35.5t50 -53t31.5 -78.5q10 -48 2 -90.5t-33.5 -74.5t-68.5 -51t-103 -19q-32 0 -60 6.5t-52.5 16.5t-46.5 23t-41 26q5 33 4.5 57.5
t-3.5 60.5h53z" />
    <glyph glyph-name="T" unicode="T" horiz-adv-x="536" 
d="M185 420q-5 24 -9.5 43.5t-8.5 38t-8.5 38t-10.5 43.5q-45 -1 -99.5 -5t-104.5 -11q2 24 2.5 41t-1.5 22q-2 9 -25 57q30 -1 65.5 -2t72 -1.5t71.5 -1t65 -0.5t65 0.5t71.5 1t72 1.5t64.5 2q-1 -23 -1.5 -38t1.5 -20q1 -5 8.5 -21.5t19.5 -40.5q-56 8 -113.5 11.5
t-99.5 4.5q8 -41 16.5 -81.5t16.5 -81.5l34 -158q6 -30 14.5 -65t17.5 -71t18 -71t17 -65q-27 5 -47 7.5t-30 2.5t-28.5 -2.5t-44.5 -7.5q-5 30 -10.5 65t-11.5 71t-12.5 71t-12.5 65z" />
    <glyph glyph-name="U" unicode="U" horiz-adv-x="664" 
d="M513 359q-14 64 -24.5 113.5t-20 89t-18.5 71.5t-20 61q27 -5 46.5 -8.5t28.5 -3.5q7 0 21.5 4t34.5 11q4 -32 11.5 -82.5t17 -109t20 -118.5t20.5 -111q13 -67 5 -121t-37 -92.5t-78 -59t-118 -20.5q-152 0 -236.5 71.5t-115.5 219.5q-5 23 -8.5 43.5t-7.5 38.5
q-3 17 -5.5 32t-6.5 32q-14 66 -25.5 119t-22.5 94q-1 3 -3 11.5t-4 18t-4 18t-2 11.5q25 -5 45.5 -7.5t30.5 -2.5q8 0 26.5 3.5t41.5 8.5q3 -27 9 -66t14 -85.5t17.5 -97.5t20.5 -102q9 -43 21.5 -89t37 -84.5t66 -63t107.5 -24.5q43 0 70.5 13t42 35t19 50.5t2.5 59.5
t-7.5 61.5t-11.5 57.5z" />
    <glyph glyph-name="V" unicode="V" horiz-adv-x="664" 
d="M342 14q-33 57 -84 141t-109.5 177.5t-118 188.5t-109.5 174q38 -6 63 -9.5t33 -3.5q21 0 64 8q34 -61 68.5 -121.5t71.5 -123t77 -127t84 -134.5q12 58 24.5 128.5t23.5 140t19.5 132.5t13.5 107q19 -5 34 -7.5t21 -2.5t27 4.5t51 12.5q-19 -80 -39 -170.5t-39.5 -184
t-37 -184.5t-30.5 -170q-18 5 -30.5 7.5t-18.5 2.5t-12 -0.5t-10 -2.5z" />
    <glyph glyph-name="W" unicode="W" horiz-adv-x="1028" 
d="M308 15q-13 25 -40.5 78.5t-63 120.5t-74 141.5t-74 141.5t-64 120t-42.5 77q34 -5 57.5 -8.5t32.5 -3.5q18 0 65 9q32 -70 57 -122.5t51 -105t58.5 -114t79.5 -148.5q1 4 1 12.5t1 13.5q7 53 15 117.5t15 128.5t12 122t6 98q41 -11 52 -11q12 0 48 11q12 -25 32.5 -64.5
t45 -86.5t51.5 -97.5t52 -97t46 -85.5t35 -63q4 36 8.5 81.5t9 94t8.5 97t7.5 91.5t5.5 76.5t2 52.5q20 -5 33.5 -7.5t20.5 -2.5q8 0 28 4t49 12q-5 -21 -13 -75.5t-18 -125t-21 -149.5t-20.5 -150.5t-16.5 -127.5l-10 -80q-18 5 -31.5 7.5t-20.5 2.5q-5 0 -17 -3t-29 -8
q-34 64 -64 121.5t-60 114t-61.5 115.5t-69.5 127q-6 -47 -14.5 -109t-16.5 -127t-15.5 -128t-13.5 -113q-20 5 -34 7.5t-19 2.5q-7 0 -12.5 -1t-12.5 -3z" />
    <glyph glyph-name="X" unicode="X" horiz-adv-x="600" 
d="M109 690q45 -63 87.5 -118.5t90.5 -113.5q25 55 46.5 110t43.5 122q34 -8 49 -8q8 0 33 5.5t62 15.5q-5 -8 -14 -26t-18.5 -37.5t-18.5 -37t-13 -25.5l-26.5 -53t-24.5 -49.5t-24 -50t-24 -53.5q35 -43 76.5 -93.5t84 -101.5t83.5 -100t76 -90q-41 6 -70 10t-41 4
t-28.5 -2t-36.5 -5l-45 59q-22 30 -39 53.5t-33.5 46t-35.5 46t-44 53.5q-29 -63 -52 -127.5t-45 -132.5q-17 4 -31 6.5t-19 2.5q-8 0 -33 -5.5t-62 -15.5q19 39 41 85.5t44.5 94.5t44 95t39.5 87q-32 39 -70 85.5t-77 93.5t-77 92.5t-70 83.5q42 -7 70 -10.5t38 -3.5
q9 0 25.5 2t37.5 6z" />
    <glyph glyph-name="Y" unicode="Y" horiz-adv-x="595" 
d="M296 -11q-8 78 -21 148t-28 140q-15 19 -43 53.5t-62 76t-71 87t-70 85.5t-59.5 71.5t-38.5 45.5q42 -7 71.5 -10.5t40.5 -3.5q9 0 26 2t38 6q28 -39 54.5 -75t53.5 -72t55.5 -73t61.5 -78q12 32 24 68.5t24 75t23.5 77.5t21.5 77q35 -8 54 -8q7 0 31.5 5.5t60.5 13.5
q-34 -78 -61 -141t-48 -113.5t-35.5 -89.5t-23.5 -69q7 -34 16.5 -74t19 -80.5t19.5 -78t19 -66.5q-29 5 -49.5 8t-28.5 3t-28 -3t-47 -8z" />
    <glyph glyph-name="Z" unicode="Z" horiz-adv-x="609" 
d="M77 48q39 75 80 158t78 159t64.5 136t39.5 87h-15q-32 0 -75 -1.5t-88.5 -4t-89 -6t-77.5 -7.5q2 24 2.5 40t-0.5 21q-1 4 -8.5 20t-18.5 39q22 -2 64.5 -3.5t98 -2t122 -1t137.5 -0.5q39 0 77 3h10t14.5 0.5t14.5 0.5h10l12 -54q-13 -19 -34 -57t-46 -86.5t-52 -104
t-53 -109t-48 -101t-36 -80.5q3 0 5.5 -0.5t4.5 -0.5q5 0 8.5 0.5t10.5 0.5q34 0 82.5 2t99 5t97.5 7t79 8q-1 -25 -1.5 -41.5t1.5 -22.5q1 -4 8 -19t18 -39l-134 4t-120 2q-36 0 -86 -0.5t-98.5 -1.5t-89 -2t-57.5 -2z" />
    <glyph glyph-name="bracketleft" unicode="[" horiz-adv-x="207" 
d="M1 402q-6 32 -14.5 69t-17.5 75t-18.5 74.5t-17.5 68.5q29 -4 48 -5.5t29 -1.5q21 0 49.5 0.5t48.5 1.5l40 -2q-1 -14 -1 -25v-13q1 -2 5.5 -15t12.5 -28q-20 0 -46 1.5t-47 1.5q15 -101 37 -202l49 -232q6 -29 11.5 -53t11 -47.5t12 -48t14.5 -52.5q23 1 49.5 1.5
t40.5 0.5q0 -13 0.5 -24t1.5 -16q0 -1 5 -14.5t11 -27.5h-38q-20 0 -49 1t-50 1q-11 0 -30 -1.5t-45 -5.5q-5 31 -11.5 68t-13.5 74.5t-14 74.5t-14 69z" />
    <glyph glyph-name="backslash" unicode="\" horiz-adv-x="335" 
d="M-110 719q31 -10 50 -15.5t24 -5.5t14 3t23 8l443 -747q-31 10 -50.5 15.5t-24.5 5.5q-9 0 -37 -11z" />
    <glyph glyph-name="bracketright" unicode="]" horiz-adv-x="209" 
d="M48 402q-6 29 -11.5 53.5t-11 48t-12 48t-13.5 52.5q-23 -1 -49.5 -1.5t-40.5 -1.5q0 13 -0.5 24.5t-1.5 16.5q-1 1 -5.5 14.5t-10.5 27.5h37q10 0 22.5 -0.5t26 -1t26.5 -0.5h23q11 0 30.5 1.5t45.5 5.5q5 -32 11.5 -68.5t13.5 -74.5t14 -75t14 -69l49 -232
q7 -32 15.5 -69t17.5 -74.5t18.5 -74.5t17.5 -68q-28 4 -48 5.5t-31 1.5q-21 0 -49.5 -1t-48.5 -1l-39 1q1 14 1 25.5t-1 13.5q0 2 -5 14.5t-12 28.5q20 -1 46 -2t47 -1q-8 51 -17 100.5t-20 100.5z" />
    <glyph glyph-name="asciicircum" unicode="^" horiz-adv-x="555" 
d="M185 659h83l345 -472h-111l-248 340q-25 -85 -52 -171.5t-50 -168.5h-111z" />
    <glyph glyph-name="underscore" unicode="_" horiz-adv-x="587" 
d="M45 -120l-21 102h516l21 -102h-516z" />
    <glyph glyph-name="grave" unicode="`" horiz-adv-x="284" 
d="M60 606q-17 10 -35.5 24.5t-24.5 41.5q-3 14 1 25t11 18t16 10.5t18 3.5q17 0 33.5 -8t33.5 -22l221 -184h-112z" />
    <glyph glyph-name="a" unicode="a" horiz-adv-x="476" 
d="M18 433q44 39 82 53t79 14q39 0 74.5 -11.5t63 -33t47 -52t27.5 -67.5q5 -25 9.5 -50.5t9.5 -51.5q5 -25 11.5 -55.5t11.5 -56.5q3 -14 7 -27.5t10 -13.5q1 0 2.5 0.5t5.5 2.5t12 7t22 14l18 -87q-15 -7 -37 -14.5t-45 -7.5q-28 0 -48 10t-35 27q-23 -23 -52 -35t-71 -12
q-28 0 -57 10t-54 28t-43.5 44t-25.5 59q-14 68 19 105t101 49q40 6 62.5 10.5t33 8.5t12 8t0.5 10q-8 35 -30 61.5t-63 26.5q-29 0 -53 -16.5t-34 -45.5h-53zM289 220q-2 -1 -7.5 -2t-9.5 -2q-20 -4 -39.5 -8.5t-35 -12.5t-23.5 -21t-4 -34q7 -30 26 -45t39 -15q25 0 44 13
t28 31z" />
    <glyph glyph-name="b" unicode="b" horiz-adv-x="507" 
d="M531 256q12 -59 4.5 -108.5t-31.5 -85.5t-63 -56t-89 -20q-43 0 -81.5 15.5t-68.5 40.5q-8 -9 -17 -19t-20 -23h-59q-3 29 -8.5 66t-12.5 76t-14.5 76.5t-14.5 69.5l-36 167q-6 30 -14.5 67.5t-18 77.5t-20 79.5t-20.5 74.5q26 -5 44.5 -8t28.5 -3q9 0 28.5 2.5t48.5 7.5
q1 -26 6 -61.5t12 -76t15 -82.5t16 -81q23 26 51.5 37t67.5 11q54 0 98.5 -20t78.5 -53.5t56 -78t33 -92.5zM394 259q-8 36 -21.5 63.5t-31 46t-37 28t-38.5 9.5q-24 0 -42.5 -9.5t-30 -30.5t-13.5 -55t9 -83q34 -157 140 -157q45 0 64 51.5t1 136.5z" />
    <glyph glyph-name="c" unicode="c" horiz-adv-x="484" 
d="M23 243q-14 67 -2 115.5t42 80t74 46.5t94 15q27 0 55 -5t53.5 -13.5t47.5 -20t38 -23.5q-11 -44 -11 -94h-46q-9 12 -22.5 24.5t-28.5 23t-32 17t-34 6.5q-35 0 -56.5 -13t-32.5 -36t-11.5 -54t7.5 -68q17 -81 60 -122.5t107 -41.5q31 0 64.5 22.5t55.5 55.5l43 -34
q0 -17 2 -34l4 -34q-29 -28 -73.5 -49t-92.5 -21q-45 0 -92.5 14t-90 45t-75 80t-47.5 118z" />
    <glyph glyph-name="d" unicode="d" horiz-adv-x="506" 
d="M413 31q-19 -19 -47.5 -32t-70.5 -13q-40 0 -81.5 15t-78.5 46t-65.5 79t-42.5 114t-4 114.5t35 81t61.5 48.5t77.5 16q71 0 124 -38q-9 40 -18.5 82t-18.5 81t-16.5 72.5t-13.5 56.5q1 0 8.5 -1.5t16.5 -3t16 -3t9 -1.5l-2 1q15 -3 25 -3q5 0 10.5 0.5t10.5 1.5
q1 0 8.5 1.5t15.5 3t15.5 3t9.5 1.5q4 -39 14.5 -101t24 -133.5t28.5 -144t27 -131.5q9 -42 17 -78t16 -71q2 -9 5 -23t6.5 -29.5t7 -30.5t5.5 -24q-2 0 -8.5 1.5t-14 3t-14.5 3t-8 1.5q-3 0 -7.5 0.5t-9.5 1.5t-10 1q-7 0 -11 -2q-2 -1 -8.5 -2.5t-14 -3.5t-14 -3.5
t-7.5 -1.5zM164 235q10 -47 25.5 -77.5t33.5 -48.5t37 -25.5t37 -7.5q29 0 46.5 15.5t25.5 40.5t8 56.5t-7 63.5q-16 75 -52 114.5t-88 39.5q-26 0 -42.5 -13t-24 -36.5t-7.5 -54.5t8 -67z" />
    <glyph glyph-name="e" unicode="e" horiz-adv-x="496" 
d="M22 230q-13 62 -7.5 112t28 85t63 54t97.5 19q55 0 99.5 -17t78 -46.5t55.5 -68.5t31 -83q1 -5 2.5 -13.5t3 -18.5t3 -19t1.5 -13h-21t-26.5 0.5t-26 0.5h-20.5q-33 1 -65 1.5t-64 0.5q-20 0 -40 -0.5t-40 -1.5h-14q6 -30 20.5 -56t35 -45t47.5 -30t59 -11q31 0 64 22.5
t56 55.5l43 -34l6 -68q-29 -28 -73.5 -49t-92.5 -21q-56 0 -106 18.5t-90 51.5t-68 77.5t-39 96.5zM223 415q-23 0 -37.5 -9t-23.5 -24t-12 -34t-3 -38h5q21 -1 42.5 -1h41.5h41.5t42.5 1h10q-6 18 -15 37t-22 34t-30.5 24.5t-39.5 9.5z" />
    <glyph glyph-name="f" unicode="f" horiz-adv-x="302" 
d="M217 612q-30 18 -53 18q-26 0 -32.5 -19.5t-1.5 -44.5q2 -11 9.5 -34.5t14.5 -46.5h23h17t23 0.5t23 0.5h17q2 -17 2.5 -31t1.5 -15q0 -2 5.5 -15.5t10.5 -30.5h-13t-19.5 0.5t-19.5 0.5h-13q-8 0 -11.5 0.5t-6 1t-6 0.5h-11.5q10 -48 21.5 -100t23 -105t23.5 -104.5
t23 -98.5q-25 5 -43.5 8t-27.5 3q-8 0 -25.5 -3t-42.5 -8q-14 102 -34.5 204t-41.5 203q-4 0 -7.5 -0.5t-7.5 -0.5h-11t-17 -0.5t-16.5 -0.5h-10.5q-1 17 -1.5 30.5t-0.5 15.5q-1 1 -6 15t-10 31h13t19.5 -0.5t19.5 -0.5h13h5q-3 28 -2.5 58.5t6 59t15 54t23.5 43.5
q17 20 44 35.5t59 15.5q10 0 48 -11q5 -25 6.5 -35t2.5 -18v1q2 -11 5.5 -29t5.5 -29z" />
    <glyph glyph-name="g" unicode="g" horiz-adv-x="507" 
d="M-4 322q-9 45 0 78.5t31.5 55.5t57 33t75.5 11q12 0 24.5 -0.5t26.5 -1.5q6 -1 13 -1t15 -1h14q17 -2 29.5 -2.5t18.5 -0.5q26 0 54 3.5t51 9.5q2 -20 3 -36.5t2 -19.5q1 -4 5.5 -18.5t11.5 -31.5q-4 0 -13 1t-19.5 2t-19.5 2t-13 1h-6v1h-1q34 -40 43 -86
q18 -83 -26 -129t-135 -46h-28q-7 1 -12.5 1h-11.5t-10.5 -4t-3.5 -10q2 -10 8.5 -14.5t23.5 -5.5q13 -1 26 -1.5t25 -0.5h50q100 -3 151.5 -44t64.5 -102q8 -37 2 -75t-29 -69t-65.5 -51t-107.5 -20q-50 0 -93 11t-76 32t-55 50.5t-30 67.5q-10 44 3 74.5t38 50.5
q-16 14 -27 32.5t-16 39.5q-5 25 1 45t20 34q-35 23 -58 56.5t-32 78.5zM407 -75q-9 40 -39 57.5t-89 17.5q-55 0 -82.5 -17.5t-18.5 -61.5q11 -48 46 -68.5t81 -20.5q23 0 43.5 5.5t35 17t21.5 29t2 41.5zM271 327q-9 44 -34.5 67.5t-57.5 23.5q-37 0 -51.5 -26t-5.5 -70
q10 -45 34 -71t63 -26q19 0 31 8.5t18 22.5t6.5 32.5t-3.5 38.5z" />
    <glyph glyph-name="h" unicode="h" horiz-adv-x="460" 
d="M20 455q-7 30 -15.5 67.5t-18 77.5t-20 79.5t-21.5 74.5q26 -5 45 -8t29 -3t28.5 3t42.5 8q4 -35 10.5 -74.5t13.5 -79t14.5 -76t13.5 -64.5q20 19 48 29.5t65 10.5q30 0 63 -8.5t63 -29.5t53.5 -57.5t35.5 -92.5q8 -39 15 -81.5t17 -88.5q3 -15 8 -35.5t10 -41.5t10 -41
t9 -35q-27 5 -45.5 8t-26.5 3t-24.5 -3t-38.5 -8l-20 110q-5 32 -11 63.5t-13 65.5l-12 57q-12 54 -37.5 83t-58.5 29q-51 0 -67 -32t-4 -91q6 -26 14 -60.5t17.5 -72.5t19.5 -77.5t21 -74.5q-26 5 -46 8t-30 3t-28 -3t-42 -8q-4 35 -10.5 74.5t-13.5 79.5t-14.5 77.5
l-13.5 67.5z" />
    <glyph glyph-name="i" unicode="i" horiz-adv-x="157" 
d="M27 291q-9 41 -21.5 93.5t-32.5 112.5q25 -5 44.5 -8t29.5 -3t28.5 3t42.5 8q6 -60 15 -112.5t18 -93.5l20 -96q8 -41 21.5 -94t33.5 -112q-26 5 -46 8t-30 3t-28.5 -3t-41.5 -8q-6 59 -15.5 112t-17.5 94zM-56 624q-7 30 10.5 52t47.5 22q31 0 57.5 -22t33.5 -52
q6 -31 -11 -53t-48 -22q-15 0 -30 6t-27 16t-21 24t-12 29z" />
    <glyph glyph-name="j" unicode="j" horiz-adv-x="246" 
d="M92 254q-12 55 -28 119t-35 124q26 -5 45 -8t29 -3t28.5 3t42.5 8q7 -60 15.5 -112.5t17.5 -93.5l20 -96q6 -27 13.5 -57.5t15.5 -62.5q8 -33 16 -64.5t14 -57.5q9 -42 11.5 -78t-14.5 -73q-16 -35 -57.5 -58t-106.5 -25l-31 96q16 -5 29.5 -7.5t16.5 -2.5q18 0 26 13
t9.5 34t-2 47t-9.5 51zM0 624q-5 30 11.5 52t46.5 22q15 0 30 -6t27.5 -16t21.5 -23.5t12 -28.5q7 -31 -10.5 -53t-48.5 -22q-15 0 -29.5 6t-27 16t-21.5 24t-12 29z" />
    <glyph glyph-name="k" unicode="k" horiz-adv-x="472" 
d="M7 455q-6 30 -14 67.5t-18 77.5t-20.5 79.5t-20.5 74.5q26 -5 45.5 -8t28.5 -3t27.5 3t42.5 8q4 -35 10.5 -74.5t13.5 -79.5t14.5 -77.5l13.5 -67.5l31 -145l3 3q6 6 21.5 25t35 45t41 55.5t39.5 56.5q14 -4 26.5 -6.5t20.5 -2.5q4 0 12.5 1t21.5 3h15t30 0.5t29.5 0.5
h14.5q-66 -64 -117.5 -116t-89.5 -99q34 -32 75 -69.5t83 -76.5t83 -76t75 -68q-50 6 -82 10t-43 4q-9 0 -23.5 -2t-32.5 -5q-23 23 -50.5 50t-56 54t-56.5 52.5t-51 46.5l3 -11q8 -40 20.5 -87.5t31.5 -108.5q-26 5 -45.5 8t-28.5 3q-10 0 -28.5 -3t-42.5 -8
q-4 35 -10.5 74.5t-13.5 79.5t-14.5 77.5l-13.5 67.5z" />
    <glyph glyph-name="l" unicode="l" horiz-adv-x="167" 
d="M2 455q-6 30 -14.5 67.5t-18 77.5t-20 79.5t-21.5 74.5q26 -5 45.5 -8t28.5 -3q10 0 28.5 3t42.5 8q4 -35 10.5 -74.5t13.5 -79.5t14.5 -77.5t14.5 -67.5l35 -167q6 -30 14.5 -67.5t18.5 -77.5t20.5 -79.5t21.5 -74.5q-26 5 -46 8t-30 3t-28.5 -3t-41.5 -8
q-4 35 -10.5 74.5t-14 79.5t-15 77.5l-13.5 67.5z" />
    <glyph glyph-name="m" unicode="m" horiz-adv-x="777" 
d="M39 291q-9 41 -22.5 93.5t-31.5 112.5q25 -5 44.5 -8t29.5 -3q6 0 23.5 3t41.5 8q1 -8 1.5 -16t2.5 -16q36 35 101 35q42 0 82.5 -18t69.5 -47q41 65 132 65q36 0 68.5 -9.5t59.5 -30.5t47 -54t30 -79q2 -13 5 -27t5 -31q5 -26 11 -60.5t17 -85.5q3 -12 7 -29t8.5 -35.5
t9 -36.5t9.5 -33q-25 5 -43.5 8t-29.5 3q-8 0 -26.5 -3.5t-42.5 -8.5q-3 36 -16.5 118.5t-39.5 207.5q-8 35 -28 59t-59 24q-26 0 -41.5 -9.5t-21.5 -22.5l1 1q-5 -8 -6.5 -16.5t0.5 -28t9 -55t20 -97.5q9 -40 22 -88.5t24 -91.5q-26 5 -45.5 8t-27.5 3q-9 0 -27 -3t-41 -8
q-3 26 -8 57.5t-10.5 64.5t-11.5 64.5t-11 56.5q-9 40 -14 63.5t-9 37t-8.5 21t-10.5 15.5v-1q-8 12 -25 20.5t-33 8.5q-46 0 -61.5 -32t-3.5 -91l17 -79q8 -41 22 -94t33 -112q-26 5 -45.5 8t-29.5 3t-28.5 -3t-41.5 -8q-7 59 -16 112t-17 94z" />
    <glyph glyph-name="n" unicode="n" horiz-adv-x="484" 
d="M319 285q-12 54 -37.5 83t-58.5 29q-51 0 -67 -32t-4 -91l17 -79q8 -41 22 -94t33 -112q-26 5 -46 8t-30 3t-28 -3t-42 -8q-6 59 -15 112t-17 94l-20 96q-9 41 -22 93.5t-33 112.5q26 -5 45 -8t29 -3q7 0 24 3t41 8q2 -10 3 -19t2 -17q20 19 47.5 29t63.5 10
q30 0 63 -8.5t63 -29.5t53.5 -57.5t35.5 -92.5q8 -39 15 -81.5t17 -88.5q3 -15 8 -35.5t10 -41.5t10 -41t9 -35q-27 5 -45.5 8t-26.5 3t-24.5 -3t-38.5 -8l-20 110q-5 32 -11 63.5t-13 65.5l-12 57v0z" />
    <glyph glyph-name="o" unicode="o" horiz-adv-x="549" 
d="M23 243q-15 70 -3 119t41.5 80t71 44.5t86.5 13.5t93 -13.5t90 -44.5t75 -80t48 -119q15 -71 2.5 -119.5t-41.5 -79.5t-71 -44.5t-87 -13.5t-93 13.5t-90 44.5t-74.5 79.5t-47.5 119.5zM159 243q7 -33 19 -64t30.5 -55t43.5 -38.5t58 -14.5t52 14.5t27 38.5t7.5 55
t-7.5 64t-19.5 64t-31 55t-43.5 38.5t-58 14.5t-52 -14.5t-27 -38.5t-7 -55t8 -64z" />
    <glyph glyph-name="p" unicode="p" horiz-adv-x="508" 
d="M23 195q-7 32 -15.5 71t-18 79.5t-20 79.5t-20.5 72q26 -5 44.5 -8t28.5 -3q11 0 28 2.5t39 7.5q1 -9 1.5 -12.5t0.5 -5.5l1.5 -3t4.5 -15q19 18 46 29t68 11q40 0 82 -14.5t79 -45.5t65.5 -79t42.5 -115q14 -66 5 -114.5t-34.5 -81t-62.5 -48.5t-78 -16q-71 0 -128 40
q6 -30 14.5 -65.5t17.5 -72t18.5 -73t19.5 -68.5q-26 5 -45.5 8t-29.5 3t-28 -3t-42 -8q-4 35 -10.5 74.5t-13.5 79.5t-14.5 77.5l-13.5 67.5zM344 247q-10 47 -25.5 77.5t-33.5 48.5t-37 25.5t-37 7.5q-30 0 -48 -13t-26.5 -36t-8 -53.5t8.5 -64.5q35 -163 141 -163
q26 0 42.5 13t24.5 36.5t7.5 54.5t-8.5 67z" />
    <glyph glyph-name="q" unicode="q" horiz-adv-x="507" 
d="M484 46q6 -30 14.5 -67.5t18.5 -77.5t20.5 -79.5t20.5 -74.5q-26 5 -45 8t-29 3t-28.5 -3t-42.5 -8q-4 33 -10 71t-13 75.5t-14 74t-13 66.5q-44 -48 -113 -48q-39 0 -81.5 13t-80.5 43t-67.5 78.5t-44.5 119.5q-15 68 -5.5 117t34 81t60.5 47t75 15q38 0 67.5 -8
t56.5 -26q-2 7 -5.5 15t-6.5 16q26 -5 46 -8t31 -3q9 0 27 3t42 8q4 -33 10.5 -72t14 -79.5t15 -79.5t14.5 -71zM317 252q-6 30 -18 58t-29.5 49t-40 34t-50.5 13q-18 0 -34.5 -7.5t-27.5 -27t-13.5 -53t8.5 -85.5q7 -33 19 -62t28.5 -50t37 -33t44.5 -12q28 0 46 15.5
t27 40t9.5 56t-6.5 64.5z" />
    <glyph glyph-name="r" unicode="r" horiz-adv-x="291" 
d="M230 354q-8 8 -20.5 14.5t-20.5 6.5q-32 0 -43.5 -29t-2.5 -72q12 -58 21 -98t16.5 -71t14.5 -58t17 -59q-25 5 -43.5 8.5t-27.5 3.5t-26 -3t-41 -8q-8 59 -19.5 118t-27.5 136l-7 30q-4 18 -9.5 44t-12.5 56t-14.5 62t-15.5 62q26 -5 43.5 -8t26.5 -3q6 0 24 4t41 9
q1 -11 2 -20.5t2 -17.5q37 39 83 39q12 0 26.5 -3.5t44.5 -13.5q-7 -27 -3 -55t9 -49z" />
    <glyph glyph-name="s" unicode="s" horiz-adv-x="369" 
d="M112 139q7 -9 18 -20t24 -20.5t28 -16t29 -6.5q25 0 40.5 14t9.5 41q-5 23 -30.5 34.5t-56.5 20.5q-27 7 -54.5 16.5t-51 25t-41 41t-26.5 64.5q-7 36 -1.5 66.5t23.5 53t49 35t74 12.5q29 0 52.5 -6.5t43.5 -13.5q3 -2 4 -2.5t5.5 -2t15 -4t32.5 -7.5q-5 -12 -8.5 -27.5
t-5.5 -31.5t-3 -29.5t0 -21.5h-56q-11 22 -31 39.5t-42 17.5q-17 0 -31 -12t-9 -38q6 -26 32 -38t58 -20q26 -7 53 -16t50.5 -25t41 -40.5t25.5 -62.5q7 -31 0 -62t-27 -55.5t-52.5 -40t-76.5 -15.5q-48 0 -89.5 15t-75.5 32q2 9 4 22t2.5 28t0 29.5t-2.5 26.5h56z" />
    <glyph glyph-name="t" unicode="t" horiz-adv-x="283" 
d="M84 614h40q5 -35 9.5 -68.5t10.5 -67.5q22 1 50.5 2.5t50.5 2.5q2 -29 2.5 -37.5t1.5 -11.5q0 -2 1 -4.5t2.5 -7.5t4.5 -13.5t8 -23.5q-12 1 -27 1.5t-29.5 1t-27.5 1t-21 0.5q2 -15 6.5 -39.5t10 -53t11.5 -59t12 -55.5q4 -21 9 -40.5t13 -35.5t19.5 -25.5t28.5 -9.5
q5 0 25 4.5t41 11.5l17 -79q-24 -9 -49.5 -15.5t-44.5 -6.5q-72 0 -114.5 38t-56.5 105q-5 24 -10 50t-10.5 56.5t-12.5 68t-16 85.5h-66q-2 16 -3 30t-1 16q-2 2 -6.5 17t-10.5 32q21 -2 39 -3t25 -1v1q-2 9 -5 21t-6 24.5l-6 25t-5 21.5z" />
    <glyph glyph-name="u" unicode="u" horiz-adv-x="485" 
d="M44 165q-6 26 -10 48t-7 42q-3 17 -6 32l-6 30q-4 16 -9 39t-10.5 48t-11.5 49.5t-10 43.5q25 -5 43.5 -8t26.5 -3q9 0 25.5 3t39.5 8q3 -27 8.5 -63t12.5 -75t14.5 -78.5t14.5 -73.5q9 -42 19.5 -62.5t21.5 -30.5q12 -11 28 -18t36 -7q30 0 46.5 13t21.5 31q3 13 4 23
t-1 27.5t-7.5 47t-16.5 81.5q-4 19 -10 44t-12 51t-12 49.5t-10 40.5q26 -5 43.5 -8t27.5 -3q9 0 26 3.5t39 8.5q5 -36 12 -76t14.5 -81t15.5 -81t16 -77q4 -20 10 -46t12.5 -52.5t13 -52t11.5 -44.5q-24 5 -42 8.5t-26 3.5q-34 0 -48 1t-15 3q0 3 14 6q0 1 -0.5 2t-0.5 2
q-1 7 -4 7q-2 0 -4 -2t-4 -2q-5 0 -7 10q-20 -20 -48 -30.5t-59 -10.5q-85 0 -143.5 47t-76.5 132z" />
    <glyph glyph-name="v" unicode="v" horiz-adv-x="491" 
d="M237 15q-8 15 -19 32l1 -2q-30 51 -65.5 109.5t-72.5 118t-74.5 118t-71.5 109.5q38 -6 62.5 -10t32.5 -4q11 0 25.5 2.5t32.5 6.5q47 -90 93.5 -170t94.5 -155q14 60 24 125.5t20 130.5q0 6 1.5 15.5t3 20t3 20t2.5 15.5q17 -5 30 -8t17 -3q5 0 25 6t49 15q-2 -7 -6 -23
t-8 -33.5t-7.5 -34t-4.5 -23.5q-23 -97 -45.5 -202.5t-36.5 -201.5q-18 5 -30.5 8t-17.5 3t-10 -1t-11 -3z" />
    <glyph glyph-name="w" unicode="w" horiz-adv-x="794" 
d="M240 16q-18 36 -49 91.5t-69.5 121t-81 135.5t-82.5 135q32 -5 55.5 -9t35.5 -4q9 0 24.5 2.5t35.5 7.5q42 -87 81 -160.5t83 -148.5q4 32 9.5 71t10.5 80t9.5 82t7.5 78q18 -5 31.5 -8.5t16.5 -3.5q4 0 15 3.5t28 8.5q42 -89 82 -163t81 -146q6 34 12.5 73.5t13 80
t12 80t10.5 73.5q17 -5 30 -7.5t19 -2.5q5 0 25.5 6.5t49.5 16.5q-35 -136 -62 -264t-45 -250q-2 0 -14.5 0.5t-14.5 0.5q-5 2 -9 3t-6 1q-4 0 -17 -3.5t-24 -7.5q-41 81 -80.5 156t-81.5 145q-5 -30 -10.5 -66.5t-10.5 -75.5t-9.5 -78t-8.5 -75h-5t-10.5 0.5t-10 0.5h-5.5
q-5 2 -10 3t-7 1t-6 -1t-9 -3q-2 0 -4.5 -0.5t-4.5 -0.5z" />
    <glyph glyph-name="x" unicode="x" horiz-adv-x="517" 
d="M110 494q69 -86 136 -157q21 38 42.5 79.5t39.5 78.5q16 -4 27.5 -6.5t18.5 -2.5q8 0 36 7t70 18q-17 -25 -38.5 -57.5t-44 -66.5t-44 -66.5t-36.5 -57.5q28 -30 63 -67t71.5 -75t72 -74.5t63.5 -64.5q-48 9 -78.5 13.5t-38.5 4.5q-11 0 -25.5 -2t-33.5 -5
q-20 23 -38 43.5l-36 41t-37 41t-41 44.5q-21 -42 -42 -87.5l-39 -84.5q-17 4 -28 6.5t-16 2.5q-6 0 -33 -7t-69 -20q16 27 37 62t42.5 71.5t41.5 71t35 61.5q-27 29 -61 64t-68.5 70.5t-68 69.5t-58.5 60q47 -8 77.5 -12.5t39.5 -4.5q11 0 26 2t35 6z" />
    <glyph glyph-name="y" unicode="y" horiz-adv-x="487" 
d="M124 -264q35 89 57.5 159.5t35.5 127.5q-18 30 -44.5 73t-56.5 91t-61.5 98t-59 93t-48.5 75.5t-30 46.5q33 -6 57 -10t34 -4q11 0 26 2.5t33 6.5q40 -74 89 -156.5t97 -160.5q17 72 30 155t21 164q20 -5 33 -8t18 -3q4 0 24.5 6t52.5 15q-5 -19 -18.5 -72.5
t-31.5 -126.5t-37 -156.5t-36 -161.5t-29.5 -143t-15.5 -100q-20 5 -33.5 8t-18.5 3t-28.5 -6t-59.5 -16z" />
    <glyph glyph-name="z" unicode="z" horiz-adv-x="486" 
d="M55 45q25 41 51.5 87t52 92.5t48.5 90t42 79.5q3 6 2 6l-5 -9l1 1q0 -1 2 3q-24 -2 -54 -3.5t-60.5 -3.5t-59.5 -4.5t-51 -4.5q0 25 -0.5 38.5t-1.5 19.5q-2 9 -22 58q54 -5 118.5 -7t147.5 -2q19 0 36 0.5t34 1.5t36 2.5t42 3.5l11 -54q-27 -48 -56 -99.5t-55 -99.5
t-47.5 -88t-33.5 -64q26 0 52.5 1t57 3t68.5 5t87 8v-35.5t1 -21.5q2 -5 8 -21t14 -33h-19.5t-26.5 0.5t-27 1t-20 0.5q-42 2 -86 2.5t-86 0.5q-61 0 -121 -3q-5 0 -14.5 -0.5t-20 -1t-20 -0.5h-14.5z" />
    <glyph glyph-name="braceleft" unicode="{" horiz-adv-x="243" 
d="M-20 333q32 0 45 16.5t8 42.5l-33 157q-8 39 -6.5 65t12 41.5t29.5 22t45 6.5h81l19 -89h-57q-11 0 -14 -8.5t4 -37.5l32 -151q8 -41 1 -67t-28 -45q29 -18 47.5 -44.5t26.5 -66.5l32 -151q6 -29 12.5 -37.5t17.5 -8.5h57l19 -89h-81q-52 0 -86.5 28.5t-51.5 106.5
l-33 157q-6 26 -26.5 42t-52.5 16z" />
    <glyph glyph-name="bar" unicode="|" horiz-adv-x="144" 
d="M-86 746h103l207 -976h-104z" />
    <glyph glyph-name="braceright" unicode="}" horiz-adv-x="243" 
d="M262 239q-33 0 -46.5 -16t-7.5 -42l33 -157q8 -39 6.5 -65t-12 -41.5t-29.5 -22t-45 -6.5h-81l-19 89h57q11 0 13.5 8.5t-3.5 37.5l-32 151q-8 41 -1.5 67t28.5 44q-29 18 -47.5 44.5t-26.5 67.5l-32 151q-7 29 -13 37.5t-16 8.5h-57l-19 89h81q51 0 85.5 -28.5
t51.5 -106.5l33 -157q5 -26 26 -42.5t54 -16.5z" />
    <glyph glyph-name="asciitilde" unicode="~" horiz-adv-x="520" 
d="M21 239q9 24 19.5 43.5t25 33t33 21t44.5 7.5q33 0 57 -7.5t48 -18.5h-1q8 -4 16.5 -7t16.5 -7q20 -9 38.5 -16t35.5 -7q9 0 17.5 9t17 23.5t15 31.5t11.5 32l82 -94q-8 -19 -19 -37.5t-25.5 -33.5t-33.5 -24.5t-44 -9.5q-31 0 -60.5 10t-65.5 27q-24 11 -44 18t-33 7
q-15 0 -25.5 -9.5t-18.5 -24t-13.5 -31.5t-9.5 -33z" />
    <glyph glyph-name="exclamdown" unicode="&#xa1;" horiz-adv-x="175" 
d="M81 332q4 -13 9 -30.5t10 -35.5t10.5 -35.5t9.5 -31.5q8 -27 18 -61.5t21 -70.5t21 -71t18.5 -63t13.5 -47t6 -22q4 -20 1 -34t-11 -22.5t-20.5 -12.5t-26.5 -4q-28 0 -54 16t-35 57q-2 7 -6 39t-10 79t-13.5 103.5t-14.5 113.5l-4.5 31.5t-4.5 36t-4.5 35.5t-3.5 30h70z
M-52 420q-3 16 0 30.5t11.5 25.5t21.5 17.5t29 6.5t32 -6.5t29.5 -17.5t23 -25.5t12.5 -30.5t0 -30.5t-12 -25.5t-22 -17.5t-29 -6.5t-32 6.5t-29 17.5t-22.5 25.5t-12.5 30.5z" />
    <glyph glyph-name="cent" unicode="&#xa2;" horiz-adv-x="480" 
d="M20 243q-12 56 -5 99t27.5 73.5t52.5 50t71 27.5q-5 19 -13 46.5t-21 65.5q23 -8 39 -12t21 -4q11 0 54 16q6 -72 13 -107q48 -5 91.5 -22t71.5 -38q-11 -44 -11 -94h-45q-15 19 -39 39.5t-50 28.5q9 -43 18 -83t18 -79.5t18 -80l19 -85.5q24 9 49.5 29t42.5 45l43 -34
q1 -17 2.5 -34t4.5 -34q-23 -22 -55.5 -40t-70.5 -25q6 -23 15 -53t18 -62q-23 7 -38 11t-20 4q-10 0 -53 -16q-4 31 -8 62.5t-9 54.5q-40 7 -79.5 25t-73.5 48.5t-60 74.5t-38 103zM185 400q-29 -20 -34.5 -61t5.5 -95q24 -113 94 -148z" />
    <glyph glyph-name="sterling" unicode="&#xa3;" horiz-adv-x="507" 
d="M93 110q31 0 48.5 9t25 25.5t6 39.5t-7.5 52q-3 16 -8.5 33.5t-11.5 34.5q-25 -1 -53.5 -1h-45.5q1 28 0.5 36t-1.5 13q0 1 -1 3.5t-3.5 8t-7 15.5t-13.5 27q41 -7 61 -9t34 -3q-3 10 -5 17.5t-4 17.5q-15 72 -5 119t35.5 75t61 39.5t70.5 11.5q20 0 42.5 -5t45 -14.5
t44 -24.5t39.5 -35q-11 -18 -23 -40.5t-23 -50.5l-41 33q-11 23 -28.5 35.5t-36.5 12.5q-38 0 -54.5 -28t-7.5 -69q6 -29 12 -51t12 -43q21 0 38.5 0.5t34.5 2.5q6 0 16 0.5t21 1.5t20.5 1.5t14.5 0.5q1 -17 2.5 -31.5t2.5 -17.5q-1 1 4 -14.5t11 -34.5h-41q-16 0 -27 0.5
t-21.5 1t-22 0.5h-28.5l3 -15q11 -51 4 -98t-21 -81q48 1 93 3.5t89 4.5q8 0 21 0.5t27 1.5t26.5 1.5t19.5 0.5q2 -26 3.5 -42.5t3.5 -23.5q2 -8 7 -23t15 -39h-19t-25.5 0.5t-26 1t-18.5 0.5q-81 3 -163 3q-77 0 -155 -3h1q-7 0 -18.5 -0.5t-24 -1t-24 -0.5h-18.5
q-2 19 -3.5 35.5t-3.5 21.5q-1 5 -6 21.5t-11 36.5h43z" />
    <glyph glyph-name="currency" unicode="&#xa4;" horiz-adv-x="574" 
d="M423 597l87 -72l-41 -53q26 -29 46 -66.5t28 -75.5q16 -78 -13 -140l62 -52l-56 -74l-63 52q-52 -42 -132 -42q-81 0 -151 43q-11 -14 -23 -29t-19 -24l-88 74l41 54q-26 29 -44 64t-26 74q-8 38 -5 74.5t17 66.5q-16 14 -34 29l-30 25l56 72l64 -54q27 23 59.5 33
t73.5 10q77 0 149 -43zM440 330q-7 32 -25 60.5t-43.5 50t-56 34t-62.5 12.5q-33 0 -58 -12.5t-41 -34t-21.5 -50t1.5 -60.5q7 -33 24.5 -61.5t42.5 -50t55.5 -34t63.5 -12.5q32 0 57.5 12.5t41.5 34t22 50t-1 61.5z" />
    <glyph glyph-name="yen" unicode="&#xa5;" horiz-adv-x="549" 
d="M212 305q-20 0 -38.5 -0.5t-38.5 -1.5h-17.5t-24.5 -0.5t-24.5 -0.5h-17.5q-2 17 -2.5 31t-1.5 16t-6 16.5t-10 31.5q37 -1 65.5 -2t65.5 -1q-14 15 -25.5 30t-24.5 30q-20 24 -47 55.5t-55.5 65.5t-55.5 65.5t-48 55.5q42 -7 69.5 -10.5t38.5 -3.5q10 0 27 2t38 6
q12 -19 33 -48t47 -63t54.5 -69.5t55.5 -68.5q26 60 49.5 121.5t45.5 128.5q34 -9 47 -9q5 0 31.5 6.5t65.5 17.5q-13 -23 -32.5 -61t-41 -81.5t-42.5 -88t-37 -81.5q32 1 68 1.5t62 1.5q1 -17 1.5 -31.5t1.5 -16.5t5.5 -16t11.5 -31h-19t-24.5 0.5t-24.5 0.5h-19
q-14 0 -22.5 0.5l-17 1t-17.5 0.5h-22l6 -25q39 0 84.5 0.5t79.5 1.5q1 -17 2 -31.5t2 -16.5q0 -3 5 -17.5t12 -31.5q-41 2 -83.5 4t-82.5 2q6 -26 12.5 -53t13 -53.5t13.5 -51t13 -44.5q-26 5 -46 8t-30 3t-28 -3t-42 -8q-7 49 -14.5 100.5t-18.5 101.5q-19 0 -40.5 -0.5
t-43 -1.5t-41.5 -1.5t-36 -1.5q-2 17 -3 31.5t-1 16.5q-1 2 -6.5 16.5t-10.5 31.5q40 -1 81.5 -1.5t81.5 -0.5z" />
    <glyph glyph-name="brokenbar" unicode="&#xa6;" horiz-adv-x="130" 
d="M25 216h104l81 -377h-104zM-72 677h103l81 -378h-104z" />
    <glyph glyph-name="section" unicode="&#xa7;" horiz-adv-x="437" 
d="M257 532q-14 30 -38.5 53.5t-53.5 23.5q-14 0 -26.5 -4.5t-21.5 -13t-13 -20.5t-1 -27q3 -17 15 -29.5t29 -23t38 -18.5l42 -16q32 -12 63.5 -24.5t58 -31.5t46 -45.5t28.5 -65.5q8 -38 0.5 -67.5t-19.5 -51.5q31 -31 41 -83q9 -39 2.5 -76t-28.5 -66t-59.5 -46.5
t-91.5 -17.5q-19 0 -41.5 4.5t-46 12t-45.5 18t-40 21.5q1 22 -2 56.5t-9 60.5h58q6 -11 18 -25t29 -27.5t38.5 -22.5t47.5 -9q19 0 34.5 7t25.5 18.5t14 26t1 29.5q-3 16 -14.5 28t-29 21.5t-39 17.5t-44.5 16q-34 13 -68.5 27t-64 34.5t-51.5 50t-31 72.5q-8 41 3 71.5
t27 49.5q-11 14 -19 31.5t-14 47.5q-7 34 -2 66.5t24 57.5t51.5 40t80.5 15q26 0 51 -7.5t47.5 -19.5t43 -27.5t37.5 -31.5q-11 -13 -19 -36.5t-6 -43.5h-56zM332 250q-5 23 -23.5 37.5t-54.5 29.5q-120 48 -149 64q-3 -7 -4.5 -15t0.5 -17q5 -23 27.5 -39.5t70.5 -35.5
q36 -14 58 -22.5t36.5 -14t23 -9.5t16.5 -9q3 14 -1 31z" />
    <glyph glyph-name="dieresis" unicode="&#xa8;" horiz-adv-x="376" 
d="M204 614q-7 31 10.5 53t47.5 22q31 0 57.5 -22t33.5 -53q6 -30 -11.5 -52t-48.5 -22q-30 0 -56.5 22t-32.5 52zM22 614q-7 31 10.5 53t48.5 22q15 0 29.5 -6t27 -16t21.5 -24t12 -29q6 -30 -11.5 -52t-47.5 -22q-31 0 -57.5 22t-32.5 52z" />
    <glyph glyph-name="copyright" unicode="&#xa9;" horiz-adv-x="775" 
d="M29 341q-15 74 -1 139t52 113.5t97 76.5t133 28t145 -28t130 -76.5t100.5 -113.5t57.5 -139t2 -139.5t-52.5 -114t-97.5 -76.5t-133 -28t-145 28t-130 76.5t-100.5 114t-57.5 139.5zM649 341q-11 56 -42.5 105.5t-76.5 85.5q-8 -35 -2 -73l-42 -2q-8 6 -18.5 14
t-24.5 15.5t-30.5 13t-35.5 5.5q-27 0 -50.5 -7.5t-39.5 -26t-21 -51t6 -82.5q7 -33 22.5 -61.5t37.5 -49.5t50 -33t61 -12t61 17.5t42 33.5l58 -2q-6 -29 -5.5 -49t3.5 -31q-10 -7 -26 -16t-36 -16.5t-43 -12.5t-47 -5q-54 0 -102.5 17t-87 48t-65.5 75t-39 98
q-13 61 -3.5 107.5t37.5 77.5t71 46.5t96 15.5q34 0 66.5 -6t61.5 -15q-36 20 -76 32t-80 12q-55 0 -98.5 -21t-71.5 -57.5t-38 -85.5t2 -104q12 -56 43 -104.5t74 -85t95.5 -57.5t107.5 -21t98.5 21t71.5 57.5t38 85t-2 104.5z" />
    <glyph glyph-name="ordfeminine" unicode="&#xaa;" horiz-adv-x="341" 
d="M17 636q22 13 49 25.5t70 12.5q20 0 43 -4.5t44 -17t38 -35t25 -58.5q4 -19 7.5 -41.5t7.5 -42.5q3 -16 5 -28.5t4 -21.5l1 -1q6 3 15.5 8.5t17.5 10.5l16 -77q-11 -8 -28.5 -15t-37.5 -7q-34 0 -56 22q-29 -22 -76 -22q-20 0 -41 4.5t-39.5 15.5t-33 29.5t-20.5 45.5
q-9 45 9.5 69t82.5 35q25 5 37 7t17 2t6 -1q-6 27 -18.5 34.5t-27.5 7.5q-19 0 -30 -12.5t-14 -24.5h-56zM194 481q-1 -1 -4.5 -0.5t-4.5 -0.5l-18 -4t-16 -6t-10.5 -10t-1.5 -15q5 -20 27 -20q11 0 20 6.5t16 14.5z" />
    <glyph glyph-name="guillemotleft" unicode="&#xab;" horiz-adv-x="361" 
d="M100 467q15 -20 39.5 -36.5t52.5 -19.5l-82 -170q16 -19 36 -42t40 -46.5t38.5 -45.5t33.5 -40q-21 -2 -39.5 -20t-23.5 -41l-198 236zM233 467q16 -20 40 -36.5t52 -19.5l-82 -170q17 -19 36.5 -42t39.5 -46.5t39 -45.5t34 -40q-22 -2 -40.5 -20t-23.5 -41l-199 236z
" />
    <glyph glyph-name="logicalnot" unicode="&#xac;" horiz-adv-x="552" 
d="M401 298h-417l-22 104h521l65 -303h-104z" />
    <glyph glyph-name="registered" unicode="&#xae;" horiz-adv-x="775" 
d="M29 341q-15 74 -1 139t52 113.5t97 76.5t133 28t145 -28t130 -76.5t100.5 -113.5t57.5 -139t2 -139.5t-52.5 -114t-97.5 -76.5t-133 -28t-145 28t-130 76.5t-100.5 114t-57.5 139.5zM475 301q17 -18 37 -38t39.5 -38.5t37.5 -35t32 -27.5q24 36 31.5 82t-3.5 97
q-12 55 -42.5 104t-74 85.5t-96 57.5t-107.5 21q-65 0 -115 -31q42 -3 70 -3q9 0 16.5 0.5t17.5 1.5q9 0 19 1t20 1q30 0 58 -7t50.5 -22t38.5 -37.5t22 -52.5q6 -27 1 -48.5t-16.5 -37.5t-27.5 -27t-34 -18q6 -6 13 -13.5t13 -14.5zM123 341q14 -66 54 -122t97 -93
q-2 14 -4 27t-2 17v-1q-4 26 -8 51.5t-9 49.5l-33 157q-5 26 -14.5 60t-20.5 69q-42 -37 -58 -93t-2 -122zM335 118q-6 0 -35 -8q68 -37 143 -37q41 0 76 11.5t61 32.5q-3 1 -7 1q-7 0 -19 -2.5t-28 -5.5q-42 46 -86.5 95.5t-92.5 97.5l7 -29q6 -30 17 -72t28 -98
q-25 6 -41.5 10t-22.5 4zM329 388h11q36 0 58.5 15t15.5 50q-5 23 -23.5 36t-44.5 13h-18h-8.5t-11.5 -2q2 -16 4.5 -31.5t6.5 -30.5z" />
    <glyph glyph-name="macron" unicode="&#xaf;" horiz-adv-x="360" 
d="M14 659h307l22 -103h-307z" />
    <glyph glyph-name="degree" unicode="&#xb0;" horiz-adv-x="350" 
d="M13 513q-7 33 -0.5 62.5t23.5 51.5t43.5 34.5t59.5 12.5t65.5 -12.5t59 -34.5t45.5 -51.5t26 -62.5t0.5 -62.5t-24 -51.5t-44 -34.5t-59.5 -12.5t-65.5 12.5t-59 34.5t-45 51.5t-25.5 62.5zM102 513q6 -30 31.5 -51t55.5 -21t46.5 21t10.5 51q-7 30 -32.5 51t-55.5 21
t-46.5 -21t-9.5 -51z" />
    <glyph glyph-name="plusminus" unicode="&#xb1;" horiz-adv-x="522" 
d="M33 103h209l-32 148h-209l-20 103h208l-36 167h104l36 -167h209l21 -103h-209l32 -148h209l22 -103h-522z" />
    <glyph glyph-name="twosuperior" unicode="&#xb2;" horiz-adv-x="337" 
d="M0 592q20 43 50.5 62.5t75.5 19.5q31 0 59.5 -7.5t51.5 -22.5t39.5 -38.5t23.5 -56.5q5 -24 4 -44t-11.5 -43t-32.5 -52.5t-60 -71.5q20 0 41.5 0.5t41.5 1.5t38 1.5t31 1.5q0 -23 -0.5 -35.5t0.5 -16.5q1 -3 7 -14.5t20 -39.5q-17 1 -39 2t-46 2t-46.5 2t-38.5 1
t-36 -0.5t-41 -1.5t-41 -2t-35 -2l-12 54q8 9 18.5 21t16.5 20q28 33 50 60t36 51.5t19.5 49t-0.5 52.5q-5 26 -19.5 38.5t-30.5 12.5q-12 0 -20 -6t-12.5 -15t-5.5 -19t-1 -18l-42 -2z" />
    <glyph glyph-name="threesuperior" unicode="&#xb3;" horiz-adv-x="325" 
d="M47 348h38q12 -11 32.5 -21.5t41.5 -10.5q31 0 45.5 17.5t8.5 43.5q-6 29 -23.5 40.5t-34.5 11.5q-8 0 -30.5 -6t-45.5 -14q4 26 5 40t0 18q-2 11 -35 69q39 -16 58 -22.5t24 -6.5q22 0 26 18t0 36q-4 19 -15.5 27.5t-25.5 8.5q-15 0 -26 -12.5t-14 -27.5l-39 -1l-44 64
q16 18 43.5 36t75.5 18q28 0 54 -6.5t47 -20t35.5 -34t20.5 -47.5q6 -29 0.5 -50t-19.5 -36q27 -13 48.5 -35.5t29.5 -61.5q14 -65 -27 -104.5t-123 -39.5q-37 0 -71 9.5t-63 22.5z" />
    <glyph glyph-name="acute" unicode="&#xb4;" horiz-adv-x="282" 
d="M135 699q11 14 24.5 22t30.5 8q9 0 19.5 -3.5t21 -10.5t18.5 -18t11 -25q6 -27 -6.5 -41.5t-25.5 -24.5q-29 -22 -62 -46t-62 -45h-110z" />
    <glyph glyph-name="mu" unicode="&#xb5;" horiz-adv-x="461" 
d="M240 -14q-15 0 -29.5 1.5t-28.5 6.5q12 -57 27 -115.5t38 -132.5q-26 5 -45 8.5t-27 3.5t-25 -3t-40 -8q-3 16 -7.5 37t-9 42.5t-8 41t-6.5 33.5q-8 42 -16.5 84.5t-19.5 95.5q-14 67 -26 122.5t-23 105.5q-5 20 -10.5 45t-11 50.5t-10.5 50t-9 42.5q25 -5 42.5 -8
t25.5 -3q9 0 26 3t40 8q3 -27 8.5 -63t12 -75t14 -78.5t14.5 -73.5q9 -42 19.5 -62.5t21.5 -30.5q12 -11 28.5 -18t36.5 -7q30 0 46 13t21 31q3 13 4.5 23t-0.5 27.5t-8 47t-17 81.5q-4 19 -10 44t-12 51t-11.5 49.5t-9.5 40.5q25 -5 42.5 -8t27.5 -3q9 0 26 3.5t40 8.5
q5 -36 12 -76t14.5 -81t15.5 -81t16 -77q4 -20 10 -46t12.5 -52.5t13 -52t11.5 -44.5q-25 5 -43 8.5t-26 3.5q-34 0 -48 1t-14 3q-1 2 13 6q0 3 -1 4q-1 7 -3 7t-4 -2t-4 -2q-6 0 -7 10q-21 -20 -49 -30.5t-60 -10.5z" />
    <glyph glyph-name="paragraph" unicode="&#xb6;" horiz-adv-x="496" 
d="M261 583h-4l146 -689h-88l-79 375q-60 3 -106.5 20t-80.5 45t-55.5 66.5t-31.5 83.5q-21 100 24.5 149t142.5 49h268l15 -73l-66 -12l149 -703h-88z" />
    <glyph glyph-name="periodcentered" unicode="&#xb7;" horiz-adv-x="183" 
d="M7 309q-7 35 11.5 59t53.5 24t64 -24t37 -59q7 -35 -12 -58.5t-54 -23.5t-64 23.5t-36 58.5z" />
    <glyph glyph-name="cedilla" unicode="&#xb8;" horiz-adv-x="246" 
d="M26 -98q20 -8 43.5 -13.5t42.5 -5.5q11 0 19 3t7 8q-3 9 -22 9q-11 0 -21 -4t-18 -10l-43 35l23 131h89l-8 -62q44 -4 73.5 -29t37.5 -64q5 -26 -2 -46t-23 -33.5t-39.5 -20t-50.5 -6.5q-32 0 -66 9.5t-59 17.5z" />
    <glyph glyph-name="onesuperior" unicode="&#xb9;" horiz-adv-x="229" 
d="M76 554q-14 -8 -26.5 -15.5t-20.5 -12.5q-9 11 -20.5 21.5t-21.5 15.5l-10 47q38 14 76.5 30.5t64.5 33.5h48q3 -18 6 -40t7 -45t8 -45.5t8 -40.5l19 -92q4 -18 9.5 -41.5t12.5 -48.5t13.5 -49t11.5 -42q-51 14 -64 14q-14 0 -59 -14q-3 19 -7 43t-8.5 48.5t-8.5 48
t-8 41.5z" />
    <glyph glyph-name="ordmasculine" unicode="&#xba;" horiz-adv-x="395" 
d="M22 508q-9 46 -0.5 77.5t28.5 51t49.5 28.5t62.5 9q31 0 64 -9t62.5 -28.5t51.5 -51t32 -77.5q9 -45 0.5 -76.5t-29.5 -51t-50 -28t-60 -8.5q-33 0 -66.5 8.5t-62.5 28t-51 51t-31 76.5zM138 508q3 -16 9.5 -31.5t16 -28t22.5 -20t30 -7.5q16 0 25.5 7.5t14 20t4 28
t-3.5 31.5q-4 17 -10.5 33t-16 28.5t-22 20t-28.5 7.5q-17 0 -27 -7.5t-14.5 -20t-4 -28.5t4.5 -33z" />
    <glyph glyph-name="guillemotright" unicode="&#xbb;" horiz-adv-x="362" 
d="M102 414q21 3 39 21t23 41l200 -237l-105 -224q-14 20 -38.5 36t-53.5 20l83 169zM-31 414q22 3 39.5 21t22.5 41l200 -237l-105 -224q-15 20 -39 36t-53 20l83 169z" />
    <glyph glyph-name="onequarter" unicode="&#xbc;" horiz-adv-x="762" 
d="M430 153q18 32 37.5 67t39.5 71t40 70.5t38 66.5q10 -2 20 -4.5t15 -2.5q3 0 18.5 4t32.5 10q9 -60 20.5 -122t24.5 -121q13 2 28 5t33 8q-2 -20 -2 -38t1 -21q1 -5 7.5 -21t15.5 -34q-11 2 -28.5 5t-34.5 3q6 -28 15 -60.5t15 -52.5q-26 6 -42 10t-21 4q-6 0 -21.5 -4
t-37.5 -10q-5 42 -8.5 67.5t-7.5 45.5q-26 0 -54 -0.5t-53 -1.5t-45.5 -1.5t-32.5 -1.5zM364 694q17 -7 27.5 -10t12.5 -3t19 6.5t45 18.5l-130 -740q-37 13 -40 13q-2 0 -19 -6.5t-45 -18.5zM63 554q-14 -8 -26.5 -15.5t-21.5 -12.5q-8 11 -20 21.5t-22 15.5l-10 47
q38 14 76.5 30.5t65.5 33.5h48q2 -18 5 -40t7 -45t8 -45.5t8 -40.5l19 -92q4 -18 9.5 -41.5t12.5 -48.5t13.5 -49t12.5 -42q-53 14 -65 14t-59 -14q-3 19 -6.5 43t-8 48.5t-8.5 48t-8 41.5zM593 262q-10 -17 -19.5 -35t-19.5 -38h54z" />
    <glyph glyph-name="onehalf" unicode="&#xbd;" horiz-adv-x="749" 
d="M432 348q20 43 50.5 62.5t75.5 19.5q31 0 59.5 -7.5t51.5 -22.5t39.5 -38.5t23.5 -56.5q5 -24 4 -44t-11.5 -43t-32.5 -52.5t-59 -71.5q40 1 83 2t70 3q-3 -43 -1 -52q1 -3 6.5 -14.5t19.5 -39.5q-16 1 -38.5 2t-45.5 2t-45.5 2t-38.5 1t-36.5 -0.5t-41.5 -1.5t-41.5 -2
t-35.5 -2l-12 54q8 9 18.5 21l17.5 20q27 33 49 60t36.5 51.5t19.5 49t-1 52.5q-5 26 -19 38.5t-30 12.5q-12 0 -20 -6t-12.5 -15t-6 -19t-1.5 -18l-42 -2zM361 694q17 -7 27.5 -10t12.5 -3q5 0 64 25l-130 -740q-18 6 -28 9.5t-12 3.5t-19 -6.5t-45 -18.5zM62 554
q-14 -8 -26 -15.5t-21 -12.5q-9 11 -20.5 21.5t-21.5 15.5l-10 47q38 14 76.5 30.5t64.5 33.5h48q3 -18 6 -40t7 -45t8 -45.5t8 -40.5l19 -92q4 -18 9.5 -41.5t12.5 -48.5t13.5 -49t11.5 -42q-51 14 -64 14q-14 0 -59 -14q-3 19 -6.5 43t-8 48.5t-9 48t-8.5 41.5z" />
    <glyph glyph-name="threequarters" unicode="&#xbe;" horiz-adv-x="803" 
d="M468 153q18 32 37.5 67t39.5 71t40 70.5t38 66.5q10 -2 20 -4.5t15 -2.5q3 0 18.5 4t32.5 10q9 -60 20.5 -122t24.5 -121q13 2 28 5t33 8q-2 -20 -2 -38t1 -21q1 -5 8 -21t15 -34q-11 2 -28.5 5t-34.5 3q6 -28 15 -60.5t15 -52.5q-26 6 -42 10t-21 4q-6 0 -21 -4t-38 -10
q-5 42 -8 67.5t-7 45.5q-26 0 -54 -0.5t-53.5 -1.5t-46 -1.5t-32.5 -1.5zM31 348h38q12 -11 32 -21.5t41 -10.5q31 0 45.5 17.5t9.5 43.5q-7 29 -24.5 40.5t-34.5 11.5q-8 0 -30 -6t-45 -14q6 50 4 58q-2 10 -34 69q38 -16 57 -22.5t24 -6.5q11 0 17.5 5t9 13t2 17.5
t-2.5 18.5q-4 19 -15.5 27.5t-25.5 8.5q-15 0 -26 -12.5t-14 -27.5l-39 -1l-44 64q17 18 44 36t75 18q28 0 54 -6.5t47 -20t35.5 -34t20.5 -47.5q7 -29 1.5 -50t-19.5 -36q26 -13 47.5 -35.5t29.5 -61.5q14 -65 -27 -104.5t-123 -39.5q-37 0 -71 9.5t-63 22.5zM413 694
q35 -13 40 -13q2 0 19 6.5t45 18.5l-130 -740q-37 13 -40 13q-2 0 -19 -6.5t-45 -18.5zM632 262q-20 -32 -40 -73h55z" />
    <glyph glyph-name="questiondown" unicode="&#xbf;" horiz-adv-x="286" 
d="M35 262q7 11 12.5 27.5t3.5 27.5q14 5 27.5 8.5t27.5 3.5q15 0 38 -7t46.5 -22t43 -40t27.5 -61q6 -29 3 -52.5t-12 -43.5t-22 -38t-26 -35q-20 -25 -35 -49.5t-9 -52.5q5 -22 24 -35t38 -13q18 0 40.5 22.5t44.5 59.5l44 -128q-23 -16 -50.5 -29.5t-65.5 -13.5
q-40 0 -73 12t-58.5 32.5t-42 47.5t-22.5 57q-6 31 -3 56.5t12.5 47.5t23.5 41t28 37q20 26 34 50t9 49q-2 9 -8.5 18t-16.5 9q-5 0 -14.5 -5t-14.5 -9zM22 420q-3 16 0 30.5t12 25.5t22 17.5t29 6.5t32 -6.5t29.5 -17.5t23 -25.5t12.5 -30.5t0 -30.5t-12 -25.5t-22 -17.5
t-29 -6.5t-32 6.5t-29.5 17.5t-23 25.5t-12.5 30.5z" />
    <glyph glyph-name="Agrave" unicode="&#xc0;" horiz-adv-x="662" 
d="M140 764q-17 10 -36 25t-25 42q-3 14 0.5 25t11 18t16.5 10.5t18 3.5q17 0 34 -8.5t34 -22.5l221 -184h-86q23 -36 49.5 -78.5t51.5 -80.5q30 -47 63.5 -99.5l67 -105t66 -103t60.5 -93t50 -76t35 -51.5q-39 6 -65.5 10t-35.5 4q-11 0 -28 -2.5t-39 -5.5
q-27 54 -59 107.5t-63 104.5q-10 15 -13.5 20.5t-12.5 18.5q-25 1 -50 1h-51h-25h-21.5t-21.5 -0.5t-25 -0.5q-12 -66 -21 -132t-14 -121q-20 5 -35 7.5t-21 2.5t-27.5 -4.5t-50.5 -12.5q20 81 41.5 172.5t43.5 185t42.5 185t38.5 172.5zM311 477q-8 -35 -15 -65t-16 -73h10
q12 -1 24 -1h24q17 0 23.5 -0.5t14.5 -0.5q5 0 10.5 0.5t13.5 0.5z" />
    <glyph glyph-name="Aacute" unicode="&#xc1;" horiz-adv-x="663" 
d="M289 857q11 14 24 22.5t30 8.5q9 0 19.5 -3.5t21 -10.5t18.5 -18t11 -25q6 -27 -5.5 -42t-25.5 -25q-44 -32 -89 -66h11q12 -19 26 -42t29.5 -47t31 -48.5t29.5 -46.5q30 -47 63.5 -99.5l67 -105t66 -103t60.5 -93t50 -76t35 -51.5q-39 6 -65.5 10t-35.5 4
q-11 0 -28 -2.5t-39 -5.5q-27 54 -59 107.5t-63 104.5q-10 15 -13.5 20.5t-12.5 18.5q-25 1 -50 1h-51h-25h-21.5t-21.5 -0.5t-25 -0.5q-12 -66 -21 -132t-14 -121q-20 5 -35 7.5t-21 2.5t-27.5 -4.5t-50.5 -12.5q19 78 39.5 165.5t41.5 177.5t41 178.5t38 168.5h-96z
M302 477q-8 -35 -15 -65t-16 -73h10q12 -1 24 -1h24q17 0 23.5 -0.5t14.5 -0.5q5 0 10.5 0.5t13.5 0.5z" />
    <glyph glyph-name="Acircumflex" unicode="&#xc2;" horiz-adv-x="668" 
d="M310 698q12 -19 26.5 -42t29.5 -47t30.5 -48.5t29.5 -46.5q30 -47 63.5 -99.5l67 -105t66 -103t60.5 -93t50 -76t35 -51.5q-38 6 -65 10t-36 4q-11 0 -28 -2.5t-39 -5.5q-26 54 -58.5 107.5t-63.5 104.5q-9 15 -13 20.5t-12 18.5q-26 1 -51 1h-51h-25h-21.5t-21 -0.5
t-24.5 -0.5q-13 -66 -22 -132t-14 -121q-20 5 -35 7.5t-21 2.5t-27 -4.5t-51 -12.5q20 81 41.5 172.5t43.5 185t42.5 185t38.5 172.5h55zM263 761q-20 -23 -41 -45t-40 -43h-100l111 209h89l199 -209h-100zM308 477q-8 -35 -15 -65t-16 -73h10q12 -1 24 -1h24q17 0 24 -0.5
t15 -0.5q5 0 10 0.5t13 0.5z" />
    <glyph glyph-name="Atilde" unicode="&#xc3;" horiz-adv-x="662" 
d="M86 696q-1 25 3.5 52t15.5 48.5t30 35.5t48 14q20 0 36 -5t48 -19q24 -11 34.5 -14.5t18.5 -3.5q10 0 14.5 14t6.5 32h80q1 -17 -1 -43.5t-12.5 -51t-30.5 -42t-55 -17.5h-9t-9 1q23 -38 55 -88t61 -95q30 -47 63.5 -99.5l67 -105t66 -103t60.5 -93t50 -76t35 -51.5
q-39 6 -65.5 10t-35.5 4q-11 0 -28 -2.5t-39 -5.5q-27 54 -59 107.5t-63 104.5q-10 15 -13.5 20.5t-12.5 18.5q-25 1 -50 1h-51h-25h-21.5t-21.5 -0.5t-25 -0.5q-12 -66 -21 -132t-14 -121q-20 5 -35 7.5t-21 2.5t-27.5 -4.5t-50.5 -12.5q20 81 41.5 172.5t43.5 185
t42.5 185t38.5 172.5h52q-13 2 -29 7.5t-35 15.5q-21 11 -32 14.5t-19 3.5q-9 0 -13 -9t-7 -34h-80zM302 477q-8 -35 -15 -65t-16 -73h10q12 -1 24 -1h24q17 0 23.5 -0.5t14.5 -0.5q5 0 10.5 0.5t13.5 0.5z" />
    <glyph glyph-name="Adieresis" unicode="&#xc4;" horiz-adv-x="661" 
d="M303 698q12 -19 26.5 -42t29.5 -47t30.5 -48.5t29.5 -46.5q30 -47 63.5 -99.5t67.5 -105t66.5 -103t60.5 -93t50 -76t35 -51.5q-39 6 -65.5 10t-35.5 4q-11 0 -28 -2.5t-40 -5.5q-26 54 -58 107.5t-64 104.5q-9 15 -12.5 20.5t-12.5 18.5q-25 1 -50 1h-51h-25h-21.5
t-21.5 -0.5t-25 -0.5q-12 -66 -21.5 -132t-13.5 -121q-20 5 -35 7.5t-21 2.5t-27.5 -4.5t-51.5 -12.5q20 81 41.5 172.5t43.5 185t42.5 185t38.5 172.5h55zM88 773q-6 30 11.5 52t48.5 22q30 0 56.5 -22t32.5 -52q7 -31 -10.5 -53t-47.5 -22q-31 0 -57.5 22t-33.5 53z
M270 773q-6 30 11.5 52t47.5 22q31 0 57.5 -22t32.5 -52q7 -31 -10.5 -53t-48.5 -22q-15 0 -29.5 6t-27 16t-21.5 24t-12 29zM301 477q-8 -35 -14.5 -65t-15.5 -73h10q12 -1 24 -1h24q17 0 23.5 -0.5t14.5 -0.5q5 0 10.5 0.5t13.5 0.5z" />
    <glyph glyph-name="Aring" unicode="&#xc5;" horiz-adv-x="667" 
d="M139 780q-5 25 0 47t18 38.5t33 26.5t46 10q25 0 49 -10t44.5 -26.5t35 -38.5t19.5 -47q8 -38 -7 -68t-46 -44q22 -35 48 -76t49 -78q30 -47 63.5 -99.5t67.5 -105t66.5 -103t60 -93t49.5 -76t35 -51.5q-38 6 -65 10t-36 4q-11 0 -28 -2.5t-39 -5.5q-26 54 -58.5 107.5
t-63.5 104.5q-9 15 -13 20.5t-12 18.5q-25 1 -50 1h-51h-25h-21.5t-21.5 -0.5t-25 -0.5q-13 -66 -22 -132t-13 -121q-20 5 -35.5 7.5t-21.5 2.5t-27 -4.5t-51 -12.5q18 77 38.5 163t41.5 174.5t41 176t37 167.5q-20 6 -38 17t-32.5 26.5t-25 34t-14.5 38.5zM310 477
q-8 -35 -15 -65t-16 -73h10q13 -1 25 -1h24q17 0 23.5 -0.5t14.5 -0.5q5 0 10.5 0.5t13.5 0.5zM233 780q2 -12 12 -20t22 -8t18.5 8t4.5 20q-3 11 -13 19.5t-21 8.5q-12 0 -19 -8.5t-4 -19.5z" />
    <glyph glyph-name="AE" unicode="&#xc6;" horiz-adv-x="829" 
d="M286 232q-22 -57 -41.5 -117.5t-36.5 -122.5q-18 3 -32 5.5t-22 2.5q-10 0 -36.5 -5t-63.5 -13q19 40 43.5 93t52 114t56 126.5t56.5 130.5t54.5 126.5t48.5 114.5q39 -2 85.5 -3.5t85.5 -1.5q19 0 44.5 0.5t51.5 1.5t50.5 2t42.5 2q-1 -22 -2 -37.5t0 -20.5t9.5 -22.5
t20.5 -41.5l-44 8t-49 7t-62 5t-83 2q1 -4 1 -7.5v-5.5q5 -31 10.5 -60.5t12.5 -60.5l10 -48q40 0 67.5 0.5t46 1.5t30.5 2t22 2h9t16.5 0.5t16 0.5h9.5q-3 -20 -4 -34.5t0 -19.5q2 -5 8.5 -19t18.5 -34h-9.5t-17 0.5t-17.5 0.5h-9q-11 1 -23 1.5t-30.5 1.5t-46 1.5
t-67.5 0.5l14 -65q8 -34 15.5 -67.5t16.5 -68.5q1 -5 2 -6.5t1.5 -2t1 -1.5t1.5 -7q88 1 145.5 6.5t89.5 10.5q-2 -25 -3 -41.5t0 -19.5q3 -12 27 -56q-20 1 -46 2t-53 2t-53 1.5t-45 0.5q-20 0 -44 -0.5t-49 -1.5t-49.5 -2t-44.5 -2q-8 70 -18 126t-21 107zM398 507
q-20 -45 -37 -87t-41 -96q29 -1 55.5 -1.5t61.5 -1.5z" />
    <glyph glyph-name="Ccedilla" unicode="&#xc7;" horiz-adv-x="629" 
d="M349 -11q-65 12 -123 41t-104.5 73.5t-79.5 104t-48 133.5q-18 85 -5 151t52.5 112t102.5 70t146 24q63 0 129 -17t122 -40q-10 -30 -11 -51t-1 -35q1 -5 2.5 -15t2.5 -11l-45 -2q-12 10 -31 24.5t-42.5 27t-50.5 21.5t-56 9q-48 0 -86.5 -16t-62 -49t-30 -83.5
t8.5 -119.5t43 -119.5t65.5 -83.5t82.5 -49t93 -16q29 0 54.5 9t47.5 22.5t39 28t30 25.5l37 -31l5 -78q-8 -8 -24.5 -18t-39.5 -19.5t-52 -17t-61 -10.5q36 -7 60.5 -31t32.5 -59q6 -26 -1 -46t-23 -33.5t-39.5 -20t-51.5 -6.5q-31 0 -64.5 10t-59.5 18l16 81q20 -8 44 -14
t42 -6q11 0 19 3t7 9q-3 9 -21 9q-11 0 -21.5 -4.5t-18.5 -10.5l-44 36z" />
    <glyph glyph-name="Egrave" unicode="&#xc8;" horiz-adv-x="402" 
d="M35 421q-6 30 -14 64.5t-17 69.5t-17.5 69.5t-16.5 63.5q21 -1 46 -2t51 -2t51 -1.5t46 -0.5h2l-147 82q-17 10 -35.5 25t-23.5 42q-3 14 0.5 25t10.5 18t16 10.5t17 3.5q17 0 34.5 -8.5t33.5 -22.5l208 -173q23 1 43.5 1.5t37.5 2.5q0 -23 1 -37.5t2 -19.5q2 -5 7 -19.5
t14 -37.5q-6 0 -18.5 1t-25.5 1.5t-24.5 1.5t-16.5 1q-21 2 -36.5 3.5t-32.5 3t-39.5 2t-57.5 0.5q2 -6 1.5 -9.5t0.5 -8.5q3 -17 5.5 -34t7.5 -38l10 -42t9 -39l2 -13q72 1 126 4.5t102 7.5q0 -46 3 -59l7 -21t15 -38q-33 3 -66 5.5t-63.5 3.5t-57.5 2t-47 1l23 -106
q6 -26 9.5 -43.5t6 -29.5t4.5 -20t4 -17q58 1 125 4.5t129 14.5q-1 -24 0 -41t3 -22q2 -9 22 -56q-21 1 -47 2t-54 2t-54.5 1.5t-47.5 0.5t-46 -0.5t-51 -1.5t-51 -2t-46 -2q-5 30 -11 64.5t-12.5 70t-13 69.5t-12.5 64z" />
    <glyph glyph-name="Eacute" unicode="&#xc9;" horiz-adv-x="401" 
d="M24 421q-6 30 -14 64.5t-17 69.5t-17.5 69.5t-16.5 63.5q16 -1 35 -2t40 -2l133 173q11 14 24 22.5t30 8.5q9 0 20 -3.5t21.5 -10.5t18.5 -18t11 -25q5 -27 -7 -42t-25 -25q-28 -19 -57 -40.5t-56 -41.5h6q21 0 47 0.5t52.5 1.5t52 2t45.5 2q0 -23 1 -37.5t2 -19.5
q2 -5 7 -19.5t14 -37.5q-6 0 -18.5 1t-25.5 1.5t-24.5 1.5t-16.5 1q-21 2 -36.5 3.5t-32.5 3t-39.5 2t-57.5 0.5q2 -6 1.5 -9.5t0.5 -8.5q3 -17 5.5 -34t7.5 -38l10 -42t9 -39l2 -13q72 1 126 4.5t102 7.5q0 -46 3 -59l7 -21t15 -38q-33 3 -66 5.5t-63.5 3.5t-57.5 2t-47 1
l23 -106q6 -26 9.5 -43.5t6 -29.5t4.5 -20t4 -17q58 1 125 4.5t129 14.5q-1 -24 0 -41t3 -22q2 -9 22 -56q-21 1 -47 2t-54 2t-54.5 1.5t-47.5 0.5t-46 -0.5t-51 -1.5t-51 -2t-46 -2q-5 30 -11 64.5t-12.5 70t-13 69.5t-12.5 64z" />
    <glyph glyph-name="Ecircumflex" unicode="&#xca;" horiz-adv-x="408" 
d="M32 421q-6 28 -13.5 60t-16 65t-16.5 65.5t-15 61.5h-8l5 10l-1 5h2l103 194h89l186 -195q4 0 6 0.5t5 0.5v-13l3 -2h-3q2 -35 3 -42q2 -5 7 -19.5t15 -37.5q-7 0 -19 1t-25 1.5t-24.5 1.5t-17.5 1q-21 2 -36.5 3.5t-32.5 3t-39.5 2t-57.5 0.5q1 -6 1 -9.5t2 -9.5l-1 1
l6 -34t8 -38t9.5 -42t8.5 -39l3 -13q72 1 125.5 4.5t101.5 7.5q0 -23 1 -37.5t3 -21.5q2 -13 21 -59q-67 7 -130 9t-103 3l22 -106q6 -26 9.5 -43.5t6.5 -29.5l5 -20t4 -17q57 1 124.5 4.5t129.5 14.5q-2 -24 -1.5 -41t2.5 -22q1 -5 6.5 -18.5t16.5 -37.5q-21 1 -47.5 2
t-53.5 2t-53.5 1.5t-47.5 0.5t-46.5 -0.5t-51.5 -1.5t-51 -2t-46 -2q-5 30 -11 64.5t-12.5 70t-13 69.5t-12.5 64zM248 682l-106 79q-18 -20 -36.5 -39.5t-35.5 -38.5q26 -1 49 -1h43h86z" />
    <glyph glyph-name="Edieresis" unicode="&#xcb;" horiz-adv-x="407" 
d="M28 421q-6 30 -14 64.5t-16.5 69.5t-17.5 69.5t-16 63.5q20 -1 45 -2t51.5 -2t51.5 -1.5t46 -0.5t47 0.5t52.5 1.5t52 2t45.5 2q0 -47 3 -57q2 -13 21 -57q-6 0 -18.5 1t-25.5 1.5t-24.5 1.5t-16.5 1q-21 2 -36.5 3.5t-32.5 3t-39.5 2t-57.5 0.5q1 -6 0.5 -9.5t1.5 -9.5
v1q4 -31 13 -72q5 -21 9.5 -42t8.5 -39l3 -13q72 1 125.5 4.5t101.5 7.5q1 -23 1.5 -37.5t2.5 -21.5q3 -13 21 -59q-33 3 -66 5.5t-63.5 3.5t-57 2t-46.5 1l22 -106q6 -26 9.5 -43.5t6.5 -29.5l5 -20t4 -17q58 1 125 4.5t129 14.5q-1 -24 0 -41t2 -22q2 -9 22 -56
q-20 1 -46.5 2t-54 2t-54 1.5t-47.5 0.5t-46 -0.5t-51.5 -1.5t-51.5 -2t-46 -2q-5 30 -11 64.5t-12 70t-13 69.5t-13 64zM-28 773q-6 30 11.5 52t46.5 22q31 0 57.5 -22t32.5 -52q7 -31 -10.5 -53t-48.5 -22q-30 0 -56 22t-33 53zM152 773q-6 30 11.5 52t48.5 22
q30 0 56.5 -22t32.5 -52q7 -31 -10.5 -53t-47.5 -22q-31 0 -57.5 22t-33.5 53z" />
    <glyph glyph-name="Igrave" unicode="&#xcc;" horiz-adv-x="254" 
d="M100 420q-6 30 -14.5 65t-17.5 71t-18.5 71t-16.5 65q27 -5 46.5 -7.5t29.5 -2.5h5l-147 82q-17 10 -35.5 25t-24.5 42q-3 14 0.5 25t11 18t16.5 10.5t18 3.5q17 0 34 -8.5t33 -22.5l221 -184h-56q4 -29 9.5 -62t11.5 -66.5t12.5 -65.5t12.5 -59l33 -158q6 -30 14.5 -65
t17.5 -71t18 -71t17 -65q-27 5 -47 7.5t-30 2.5t-28 -2.5t-44 -7.5q-5 30 -11 65t-12.5 71t-13 71t-12.5 65z" />
    <glyph glyph-name="Iacute" unicode="&#xcd;" horiz-adv-x="253" 
d="M55 857q11 14 24 22.5t30 8.5q9 0 19.5 -3.5t21 -10.5t18.5 -18t11 -25q6 -27 -6 -42t-26 -25q-26 -19 -55.5 -40.5t-56.5 -41.5h4q10 0 28 2.5t44 7.5q5 -30 11 -65t12.5 -71t13 -71t12.5 -65l33 -158q6 -30 14.5 -65t17.5 -71t18 -71t17 -65q-27 5 -46.5 7.5t-29.5 2.5
t-28.5 -2.5t-44.5 -7.5q-5 30 -11 65t-12 71t-13 71l-13 65l-33 158q-6 27 -13.5 59t-15.5 65.5t-16.5 66.5t-15.5 62h-54z" />
    <glyph glyph-name="Icircumflex" unicode="&#xce;" horiz-adv-x="336" 
d="M105 420q-6 30 -14.5 65t-18 71t-18.5 71t-17 65q28 -5 47.5 -7.5t29.5 -2.5t29 2.5t44 7.5q5 -30 10.5 -65t12 -71t13 -71t12.5 -65l33 -158q6 -30 15 -65t18 -71t18 -71t17 -65q-27 5 -47 7.5t-30 2.5t-28.5 -2.5t-44.5 -7.5q-5 30 -10.5 65t-11.5 71t-13 71l-13 65z
M97 761q-20 -23 -40.5 -45t-39.5 -43h-99l110 209h89l199 -209h-101z" />
    <glyph glyph-name="Idieresis" unicode="&#xcf;" horiz-adv-x="319" 
d="M93 420q-6 30 -14.5 65t-18 71t-18.5 71t-17 65q28 -5 47.5 -7.5t29.5 -2.5t29 2.5t44 7.5q5 -30 10.5 -65t12 -71t13 -71t12.5 -65l34 -158q6 -30 14.5 -65t17.5 -71t18 -71t17 -65q-27 5 -47 7.5t-30 2.5t-28.5 -2.5t-44.5 -7.5q-5 30 -10.5 65t-11.5 71t-12.5 71
t-12.5 65zM-81 773q-6 30 11 52t48 22q15 0 29.5 -6t26.5 -16t21 -23.5t12 -28.5q7 -31 -10.5 -53t-47.5 -22q-15 0 -29.5 6t-27 16t-21.5 24t-12 29zM100 773q-6 30 11 52t47 22q15 0 30 -6t27.5 -16t21.5 -23.5t12 -28.5q7 -31 -10.5 -53t-48.5 -22q-15 0 -29.5 6t-27 16
t-21.5 24t-12 29z" />
    <glyph glyph-name="Eth" unicode="&#xd0;" horiz-adv-x="780" 
d="M3 429q19 -2 45.5 -2.5t49.5 -0.5q-6 29 -14.5 63t-17 68.5t-17 68t-15.5 62.5q17 -1 39 -2t45.5 -2t45.5 -1.5t39 -0.5h34t34 1t35 2t35 1q88 0 156 -23t117.5 -65.5t81 -104t48.5 -139.5q21 -100 1 -168.5t-64.5 -111t-104.5 -61t-119 -18.5q-16 0 -31.5 0.5t-31.5 1.5
t-31 2t-30 1q-16 0 -36 -0.5t-40.5 -1.5t-40.5 -2t-35 -2q-5 30 -11 64t-12 69.5t-12.5 70t-12.5 64.5l-15 74q-23 -1 -49 -1.5t-46 -2.5q-1 17 -2 32t-2 17t-5.5 16.5t-10.5 31.5zM264 262q5 -25 9.5 -46t9 -41.5t10 -41t11.5 -44.5q19 -2 44 -3t52 -1q46 0 89 11t73 41
t41.5 82t-5.5 135q-15 72 -42.5 118t-64.5 72.5t-82 37t-96 10.5q-30 0 -59.5 -2t-55.5 -4q7 -38 15 -78t16 -82h47t49.5 0.5t48 1t41.5 1.5q-2 -21 -2.5 -33t0.5 -15t6 -15.5t16 -34.5q-43 2 -92 3.5t-94 1.5z" />
    <glyph glyph-name="Ntilde" unicode="&#xd1;" horiz-adv-x="661" 
d="M659 -17q-59 56 -124 114.5t-132.5 118t-135.5 119t-134 116.5q4 -22 10 -51t14 -67q6 -29 18 -78t25 -101.5t25 -99t20 -69.5q-26 7 -44.5 11t-23.5 4q-8 0 -25.5 -4t-41.5 -9q0 15 -3.5 45t-9 68.5t-12 83t-13.5 88t-14.5 83t-13.5 69.5q-9 43 -18.5 85.5t-17.5 79.5
t-14.5 65.5t-10.5 43.5h55q12 -11 29 -26t30 -26q134 -119 252 -224t212 -183q-13 58 -26.5 119t-27 120.5t-27 115t-25.5 101.5q25 -6 41.5 -9.5t22.5 -3.5q8 0 58 14q2 -26 8.5 -73t15 -98.5t17 -99.5t14.5 -75q5 -23 12.5 -56.5t15.5 -71t16.5 -75.5t16 -71t13 -58
t8.5 -35h-55zM100 696q-1 25 3.5 52t15.5 48.5t30 35.5t48 14q20 0 36.5 -5t48.5 -19q24 -11 34 -14.5t18 -3.5q10 0 15 14t7 32h80q1 -17 -1.5 -43.5t-13 -51t-30.5 -42t-55 -17.5q-15 0 -36.5 6t-47.5 19q-22 11 -32.5 14.5t-18.5 3.5q-9 0 -13 -9t-8 -34h-80z" />
    <glyph glyph-name="Ograve" unicode="&#xd2;" horiz-adv-x="793" 
d="M45 341q-17 82 -5 147t49 110.5t96 70.5t136 28l-118 67q-18 10 -36.5 25t-24.5 42q-3 14 0.5 25t11 18t16.5 10.5t18 3.5q17 0 34 -8.5t33 -22.5l209 -174q61 -15 114.5 -44.5t95.5 -73t72 -100t44 -124.5q18 -85 5 -151.5t-52.5 -112.5t-103 -70t-145.5 -24t-155.5 24
t-132.5 70t-101 112.5t-60 151.5zM644 341q-15 69 -42.5 119.5t-65 83.5t-82.5 49t-93 16t-86 -16t-62 -49t-31 -83.5t8 -119.5t43 -119.5t65.5 -83.5t82.5 -49t93 -16t86.5 16t62 49t30 83.5t-8.5 119.5z" />
    <glyph glyph-name="Oacute" unicode="&#xd3;" horiz-adv-x="793" 
d="M41 341q-14 69 -8 125.5t30 100t64.5 73t95.5 44.5l134 173q11 14 24 22.5t30 8.5q9 0 19.5 -3.5t21 -10.5t18.5 -18t11 -25q6 -27 -6 -42t-25 -25q-22 -16 -44.5 -33t-45.5 -34q79 -3 149 -28.5t125.5 -71t95 -110t56.5 -146.5q18 -85 5 -151.5t-52.5 -112.5t-103 -70
t-145.5 -24t-155.5 24t-132.5 70t-101 112.5t-60 151.5zM640 341q-15 69 -42.5 119.5t-65 83.5t-82.5 49t-93 16t-86 -16t-62 -49t-31 -83.5t8 -119.5t43 -119.5t65.5 -83.5t82.5 -49t93 -16t86.5 16t62 49t30 83.5t-8.5 119.5z" />
    <glyph glyph-name="Ocircumflex" unicode="&#xd4;" horiz-adv-x="797" 
d="M45 341q-27 127 13.5 211.5t134.5 120.5h-46l111 209h89l199 -209h-47q108 -36 186 -121t105 -211q18 -85 5 -151.5t-53 -112.5t-103.5 -70t-145.5 -24t-155.5 24t-132.5 70t-100.5 112.5t-59.5 151.5zM644 341q-15 69 -43 119.5t-65.5 83.5t-82.5 49t-93 16t-86 -16
t-61.5 -49t-30.5 -83.5t8 -119.5t43 -119.5t65.5 -83.5t82.5 -49t93 -16t86.5 16t61.5 49t30 83.5t-8 119.5zM341 698q20 0 39.5 -2t38.5 -4l-91 69q-17 -17 -32.5 -34.5t-31.5 -34.5q36 6 77 6z" />
    <glyph glyph-name="Otilde" unicode="&#xd5;" horiz-adv-x="797" 
d="M41 341q-18 85 -4.5 151t53 112t103 70t145.5 24t156 -24t132.5 -70t100 -112t59.5 -151t5 -151.5t-52.5 -112.5t-103 -70t-145.5 -24t-155.5 24t-132.5 70t-101 112.5t-60 151.5zM640 341q-15 69 -43 119.5t-65.5 83.5t-82.5 49t-93 16t-86 -16t-61.5 -49t-30.5 -83.5
t8 -119.5t43 -119.5t65.5 -83.5t82.5 -49t93 -16t86.5 16t62 49t30 83.5t-8.5 119.5zM154 696q-1 25 3.5 52t15.5 48.5t30 35.5t48 14q19 0 35.5 -5t48.5 -19q24 -11 34.5 -14.5t18.5 -3.5q10 0 14.5 14t6.5 32h80q1 -17 -1 -43.5t-12.5 -51t-30.5 -42t-55 -17.5
q-32 0 -85 25q-22 11 -32.5 14.5t-18.5 3.5q-9 0 -13 -9t-7 -34h-80z" />
    <glyph glyph-name="Odieresis" unicode="&#xd6;" horiz-adv-x="797" 
d="M41 341q-18 85 -4.5 151t53 112t102.5 70t145 24t156 -24t133 -70t100.5 -112t59.5 -151t5 -151.5t-53 -112.5t-103.5 -70t-145.5 -24t-155.5 24t-132.5 70t-100.5 112.5t-59.5 151.5zM640 341q-15 69 -43 119.5t-65.5 83.5t-82.5 49t-93 16t-86 -16t-61.5 -49
t-30.5 -83.5t8 -119.5t43 -119.5t65.5 -83.5t82.5 -49t93 -16t86.5 16t62 49t30 83.5t-8.5 119.5zM338 773q-6 30 11.5 52t47.5 22q31 0 57.5 -22t32.5 -52q7 -31 -10.5 -53t-48.5 -22q-15 0 -29.5 6t-27 16t-21.5 24t-12 29zM156 773q-6 30 11.5 52t48.5 22q30 0 56.5 -22
t32.5 -52q7 -31 -10.5 -53t-47.5 -22q-31 0 -57.5 22t-33.5 53z" />
    <glyph glyph-name="multiply" unicode="&#xd7;" horiz-adv-x="518" 
d="M185 261q-49 40 -104 86t-100 84l57 72l205 -170q31 41 68 86.5t66 83.5l87 -72l-133 -170l205 -170l-56 -73l-206 170l-133 -170l-89 73z" />
    <glyph glyph-name="Oslash" unicode="&#xd8;" horiz-adv-x="809" 
d="M31 341q-18 85 -4.5 151t53 112t102.5 70t145 24q63 0 120.5 -13.5t108.5 -41.5q7 11 15 26l16 30t15 29t10 25q19 -19 46 -39t50 -32q-11 -9 -22 -20.5t-22 -23.5t-20.5 -24t-15.5 -21q55 -46 93 -109t55 -143q18 -85 5 -151.5t-53 -112.5t-103.5 -70t-145.5 -24
q-61 0 -118 14.5t-108 40.5q-13 -20 -29 -48.5t-31 -65.5q-21 24 -45 41.5t-47 28.5q23 22 43 47.5t35 46.5q-55 46 -93 109t-55 144zM502 562q-33 23 -73.5 35t-82.5 12q-48 0 -86 -16t-61.5 -49t-30.5 -83.5t8 -119.5q11 -49 28 -89.5t40 -70.5zM308 119
q34 -23 72.5 -34.5t79.5 -11.5q48 0 86.5 16t62 49t30.5 83.5t-8 119.5q-21 95 -65 156z" />
    <glyph glyph-name="Ugrave" unicode="&#xd9;" horiz-adv-x="643" 
d="M526 359q-14 64 -24.5 113.5t-20.5 89t-19 71.5t-20 61q27 -5 46.5 -8.5t28.5 -3.5q7 0 21.5 4t34.5 11q4 -32 11.5 -82.5t17 -109t20 -118.5t20.5 -111q13 -67 5 -121t-36.5 -92.5t-77.5 -59t-118 -20.5q-152 0 -237 71.5t-116 219.5q-5 23 -8.5 43.5t-7.5 38.5
q-3 17 -5.5 32t-5.5 32q-14 66 -26 119t-23 94q0 3 -2 11.5t-4 18t-4 18t-3 11.5q24 -5 45 -7.5t31 -2.5q8 0 26.5 3.5t41.5 8.5q3 -27 9 -66t14 -85.5t17.5 -97.5t20.5 -102q9 -43 21.5 -89t37.5 -84.5t66.5 -63t107.5 -24.5q65 0 94.5 28.5t36.5 70.5t-0.5 90t-15.5 88z
M131 764q-17 10 -36 25t-25 42q-3 14 0.5 25t11 18t16.5 10.5t18 3.5q17 0 34 -8.5t34 -22.5l221 -184h-112z" />
    <glyph glyph-name="Uacute" unicode="&#xda;" horiz-adv-x="642" 
d="M519 359q-14 64 -24.5 113.5t-20.5 89t-19 71.5t-20 61q27 -5 46.5 -8.5t28.5 -3.5q7 0 21.5 4t34.5 11q4 -32 11.5 -82.5t17 -109t20 -118.5t20.5 -111q13 -67 5 -121t-36.5 -92.5t-77.5 -59t-118 -20.5q-152 0 -237 71.5t-116 219.5q-5 23 -8.5 43.5t-7.5 38.5
q-3 17 -5.5 32t-5.5 32q-14 66 -26 119t-23 94q0 3 -2 11.5t-4 18t-4 18t-3 11.5q25 -5 45.5 -7.5t30.5 -2.5q8 0 26.5 3.5t41.5 8.5q3 -27 9 -66t14 -85.5t17.5 -97.5t20.5 -102q9 -43 21.5 -89t37.5 -84.5t66.5 -63t107.5 -24.5q65 0 94.5 28.5t36.5 70.5t-0.5 90
t-15.5 88zM283 857q10 14 23 22.5t30 8.5q9 0 19.5 -3.5t21 -10.5t18.5 -18t11 -25q6 -27 -5.5 -42t-25.5 -25q-29 -21 -61.5 -45t-61.5 -46h-112z" />
    <glyph glyph-name="Ucircumflex" unicode="&#xdb;" horiz-adv-x="647" 
d="M47 682q5 0 14 1t20 3l104 196h89l181 -191q43 -9 60 -9q7 0 21.5 4t34.5 11q4 -32 11.5 -82.5t17.5 -109t20.5 -118.5t20.5 -111q13 -67 5 -121t-37 -92.5t-78 -59t-118 -20.5q-152 0 -237 71.5t-116 219.5q-5 23 -8 43.5t-7 38.5q-3 17 -5.5 32t-6.5 32q-14 66 -26 119
t-22 94q-1 3 -3 11.5t-4 18t-4 18t-3 11.5q25 -5 45.5 -7.5t30.5 -2.5zM255 761q-20 -23 -41 -45t-40 -43h-57q4 -29 10 -66.5t13.5 -80.5t16.5 -90t19 -93q9 -43 22 -89t37.5 -84.5t66 -63t107.5 -24.5q43 0 70.5 13t42 35t19 50.5t2.5 59.5t-7.5 61.5t-11.5 57.5
q-12 58 -22 104t-19 83.5t-17.5 68.5t-17.5 58h-75z" />
    <glyph glyph-name="Udieresis" unicode="&#xdc;" horiz-adv-x="648" 
d="M520 359q-14 64 -24.5 113.5t-20 89t-18.5 71.5t-20 61q27 -5 46.5 -8.5t28.5 -3.5q7 0 21.5 4t34.5 11q4 -32 11.5 -82.5t17 -109t20 -118.5t20.5 -111q13 -67 5 -121t-37 -92.5t-78 -59t-118 -20.5q-152 0 -237 71.5t-116 219.5q-5 23 -8 43.5t-7 38.5q-3 17 -5.5 32
t-6.5 32q-14 66 -25.5 119t-22.5 94q-1 3 -3 11.5t-4 18t-4 18t-2 11.5q24 -5 45 -7.5t31 -2.5q8 0 26.5 3.5t41.5 8.5q3 -27 9 -66t14 -85.5t17.5 -97.5t20.5 -102q9 -43 21.5 -89t37 -84.5t66 -63t107.5 -24.5q43 0 70.5 13t42 35t19 50.5t2.5 59.5t-7.5 61.5t-11.5 57.5z
M83 773q-6 30 11.5 52t48.5 22q30 0 56.5 -22t32.5 -52q7 -31 -10.5 -53t-47.5 -22q-31 0 -57.5 22t-33.5 53zM265 773q-6 30 11.5 52t47.5 22q31 0 57.5 -22t32.5 -52q7 -31 -10.5 -53t-48.5 -22q-15 0 -29.5 6t-27 16t-21.5 24t-12 29z" />
    <glyph glyph-name="Yacute" unicode="&#xdd;" horiz-adv-x="582" 
d="M307 -11q-8 78 -21 148t-28 140q-15 19 -43 53.5t-62 76t-71 87t-70 85.5t-59.5 71.5t-38.5 45.5q42 -7 71 -10.5t41 -3.5q9 0 26 2t38 6q28 -39 54.5 -75t53.5 -72t55 -73t61 -78q12 32 24.5 68.5t24.5 75t23.5 77.5t21.5 77q35 -8 54 -8q7 0 31.5 5.5t60.5 13.5
q-34 -78 -61 -141t-48 -113.5t-35.5 -89.5t-23.5 -69q7 -34 16.5 -74t19 -80.5t19.5 -78t19 -66.5q-29 5 -49.5 8t-28.5 3t-28 -3t-47 -8zM254 848q11 14 24 22.5t30 8.5q9 0 19.5 -3.5t21 -11t18.5 -18t11 -24.5q6 -27 -6 -42t-26 -25q-29 -21 -61.5 -45t-61.5 -46h-111z
" />
    <glyph glyph-name="Thorn" unicode="&#xde;" horiz-adv-x="474" 
d="M21 420q-6 30 -14 65t-17 71t-18 71t-17 65q27 -5 46.5 -7.5t29.5 -2.5q8 0 27.5 3t45.5 8q5 -31 7.5 -64t8.5 -63h86q106 0 176.5 -45.5t90.5 -142.5q13 -59 -1.5 -98t-46 -62t-75 -32.5t-89.5 -9.5h-32h-10.5t-15.5 1l5 -21q8 -40 21.5 -85t30.5 -83q-32 5 -54 8.5
t-30 3.5q-10 0 -28.5 -2.5t-44.5 -7.5q-5 30 -10.5 65t-12 71t-13 71t-12.5 65zM184 266q10 -1 21.5 -1h23.5q24 0 46 6.5t37 20.5t21.5 35t0.5 50q-4 18 -14 35.5t-26.5 32t-41 23t-57.5 8.5h-55z" />
    <glyph glyph-name="germandbls" unicode="&#xdf;" horiz-adv-x="518" 
d="M24 402q-6 29 -11 51t-9 37q-2 8 -3 13.5t-2 9.5q-14 64 -3.5 109.5t36 74t60.5 41.5t70 13q25 0 55.5 -9.5t58.5 -27t49 -41.5t27 -54q5 -24 3 -44.5t-8.5 -38t-16 -33t-19.5 -29.5q-11 -16 -19 -30t-5 -25q3 -17 28.5 -33.5t54.5 -32.5q24 -14 50 -30t48.5 -36.5
t39.5 -45t23 -55.5q7 -35 -2.5 -70.5t-32 -64.5t-56 -47t-74.5 -18q-31 0 -64.5 10t-64.5 24q3 -8 5.5 -15.5t4.5 -15.5q-26 5 -45.5 8t-29.5 3t-28.5 -3t-42.5 -8q-5 35 -11 74.5t-13 79.5t-14.5 77.5l-13.5 67.5zM173 288q11 -51 26.5 -117.5t32.5 -129.5q5 18 5.5 39
t-0.5 37h45q14 -17 37.5 -29t45.5 -12q28 0 46 18.5t11 51.5q-4 17 -15 31t-26.5 27t-34 24.5t-37.5 22.5q-23 13 -45 26.5t-40 29.5t-31 35.5t-18 44.5q-7 33 6 59t32 52q17 25 31 51.5t7 58.5q-5 25 -25.5 41.5t-50.5 16.5q-47 0 -56.5 -41t7.5 -120l47 -217v0z" />
    <glyph glyph-name="agrave" unicode="&#xe0;" horiz-adv-x="463" 
d="M41 433q44 39 82 53t79 14q39 0 74.5 -11.5t63 -33t47 -52t27.5 -67.5q5 -25 10 -50.5t10 -51.5q5 -25 11 -55.5t11 -56.5q3 -14 7 -27.5t10 -13.5q1 0 2.5 0.5t5.5 2.5t12 7t22 14l19 -87q-16 -7 -38 -14.5t-45 -7.5q-28 0 -48 10t-35 27q-23 -23 -52 -35t-71 -12
q-28 0 -57 10t-54 28t-43.5 44t-25.5 59q-14 68 19 105t102 49q40 6 62 10.5t32.5 8.5t12 8t0.5 10q-8 35 -30 61.5t-63 26.5q-29 0 -53 -16.5t-34 -45.5h-53zM58 606q-17 10 -36 24.5t-23 41.5q-3 14 0 25t10 18t16 10.5t18 3.5q17 0 34 -8t34 -22l221 -184h-112zM313 220
q-8 -2 -18 -4q-19 -4 -39 -8.5t-35 -12.5t-23.5 -21t-3.5 -34q6 -30 25 -45t39 -15q25 0 44 13t28 31z" />
    <glyph glyph-name="aacute" unicode="&#xe1;" horiz-adv-x="459" 
d="M26 433q44 39 82 53t79 14q39 0 74.5 -11.5t63 -33t47 -52t27.5 -67.5q5 -25 10 -50.5t10 -51.5q5 -25 11 -55.5t11 -56.5q3 -14 7 -27.5t10 -13.5q1 0 2.5 0.5t5.5 2.5t12 7t22 14l19 -87q-16 -7 -38 -14.5t-45 -7.5q-28 0 -48 10t-35 27q-23 -23 -52 -35t-71 -12
q-28 0 -57 10t-54 28t-43.5 44t-25.5 59q-14 68 19 105t102 49q40 6 62 10.5t32.5 8.5t12 8t0.5 10q-8 35 -30 61.5t-63 26.5q-29 0 -53 -16.5t-34 -45.5h-53zM202 699q10 14 23 22t30 8q9 0 19.5 -3.5t21 -10.5t19 -18t11.5 -25q5 -27 -6.5 -41.5t-25.5 -24.5
q-29 -22 -61.5 -46t-61.5 -45h-112zM298 220q-8 -2 -18 -4q-19 -4 -39 -8.5t-35 -12.5t-23.5 -21t-3.5 -34q6 -30 25 -45t39 -15q25 0 44 13t28 31z" />
    <glyph glyph-name="acircumflex" unicode="&#xe2;" horiz-adv-x="466" 
d="M36 433q44 39 82 53t79 14q39 0 74 -11.5t63 -33t47.5 -52t27.5 -67.5q5 -25 9.5 -50.5t9.5 -51.5q5 -25 11.5 -55.5t11.5 -56.5q3 -14 7 -27.5t10 -13.5q1 0 2.5 0.5t5.5 2.5t12 7t22 14l18 -87q-15 -7 -37 -14.5t-45 -7.5q-28 0 -48 10t-35 27q-24 -23 -52.5 -35
t-70.5 -12q-28 0 -57 10t-54 28t-43.5 44t-25.5 59q-14 68 19 105t101 49q40 6 62.5 10.5t33 8.5t11.5 8t0 10q-8 35 -29.5 61.5t-62.5 26.5q-29 0 -53 -16.5t-34 -45.5h-53zM178 602q-20 -22 -40.5 -44.5t-40.5 -42.5h-99l110 209h89l199 -209h-100zM307 220q-3 -1 -8 -2
t-9 -2q-20 -4 -39.5 -8.5t-35 -12.5t-23.5 -21t-4 -34q7 -30 26 -45t39 -15q25 0 44 13t28 31z" />
    <glyph glyph-name="atilde" unicode="&#xe3;" horiz-adv-x="473" 
d="M37 433q43 39 81 53t79 14q39 0 74.5 -11.5t63 -33t47 -52t27.5 -67.5q5 -25 10 -50.5t10 -51.5q5 -25 11 -55.5t12 -56.5q3 -14 6.5 -27.5t9.5 -13.5q1 0 2.5 0.5t5.5 2.5t12 7t22 14l19 -87q-15 -7 -37.5 -14.5t-45.5 -7.5q-28 0 -48 10t-34 27q-24 -23 -52.5 -35
t-70.5 -12q-28 0 -57 10t-54 28t-43.5 44t-25.5 59q-15 68 18 105t102 49q40 6 62 10.5t32.5 8.5t12 8t0.5 10q-8 35 -30 61.5t-63 26.5q-29 0 -53 -16.5t-34 -45.5h-53zM8 538q-1 25 3.5 52t15.5 48.5t30 35.5t48 14q10 0 18.5 -1t18 -4t20.5 -7.5t27 -11.5
q26 -11 35.5 -14.5t17.5 -3.5q10 0 15 14t6 32h80q1 -17 -1 -43.5t-12.5 -51t-30.5 -42t-55 -17.5q-15 0 -36 5.5t-48 19.5q-22 11 -32.5 14t-18.5 3q-9 0 -13.5 -9t-7.5 -33h-80zM308 220q-3 -1 -8.5 -2t-8.5 -2q-20 -4 -40 -8.5t-35 -12.5t-23.5 -21t-3.5 -34
q6 -30 25.5 -45t39.5 -15q25 0 43.5 13t27.5 31z" />
    <glyph glyph-name="adieresis" unicode="&#xe4;" horiz-adv-x="471" 
d="M35 433q44 39 82 53t79 14q39 0 74.5 -11.5t63 -33t47 -52t27.5 -67.5q5 -25 9.5 -50.5t9.5 -51.5q5 -25 11.5 -55.5t11.5 -56.5q3 -14 7 -27.5t10 -13.5q1 0 2.5 0.5t5.5 2.5t12 7t22 14l18 -87q-15 -7 -37 -14.5t-45 -7.5q-28 0 -48 10t-35 27q-24 -23 -52.5 -35
t-70.5 -12q-28 0 -57 10t-54 28t-43.5 44t-25.5 59q-14 68 19 105t101 49q40 6 62.5 10.5t33 8.5t12 8t0.5 10q-8 35 -30 61.5t-63 26.5q-29 0 -53 -16.5t-34 -45.5h-53zM10 614q-7 31 10.5 53t48.5 22q15 0 30 -6t27.5 -16t21.5 -24t12 -29q6 -30 -12 -52t-48 -22
q-31 0 -57.5 22t-32.5 52zM192 614q-7 31 10.5 53t47.5 22q31 0 57.5 -22t33.5 -53q6 -30 -11.5 -52t-48.5 -22q-30 0 -56.5 22t-32.5 52zM306 220q-2 -1 -7.5 -2t-9.5 -2q-20 -4 -39.5 -8.5t-35 -12.5t-23.5 -21t-4 -34q7 -30 26 -45t39 -15q25 0 44 13t28 31z" />
    <glyph glyph-name="aring" unicode="&#xe5;" horiz-adv-x="465" 
d="M55 622q-5 25 -0.5 47t17.5 38.5t33 26t46 9.5q25 0 49 -9.5t44.5 -26t35 -38.5t19.5 -47q5 -24 0.5 -46t-17 -38.5t-32 -26.5t-43.5 -11q38 -2 71.5 -14t60.5 -33.5t45 -51t26 -65.5q5 -25 10 -50.5t10 -51.5q5 -25 11 -55.5t12 -56.5q3 -14 7 -27.5t10 -13.5
q1 0 2.5 0.5t5.5 2.5t12 7t22 14l18 -87q-15 -7 -37 -14.5t-45 -7.5q-28 0 -48 10t-35 27q-24 -23 -52.5 -35t-70.5 -12q-28 0 -57 10t-54 28t-43.5 44t-25.5 59q-14 68 19 105t101 49q40 6 62.5 10.5t33 8.5t11.5 8t0 10q-8 35 -29.5 61.5t-62.5 26.5q-29 0 -53.5 -16.5
t-33.5 -45.5h-53l-19 89q43 38 80.5 52t78.5 15q-24 1 -47.5 11t-43 26.5t-33 38.5t-18.5 46zM309 220q-3 -1 -8 -2t-9 -2q-20 -4 -40 -8.5t-35 -12.5t-23.5 -21t-3.5 -34q7 -30 26 -45t39 -15q25 0 44 13t28 31zM149 622q2 -12 12 -20t21 -8q12 0 18.5 8t4.5 20
q-2 11 -12.5 19t-21.5 8q-12 0 -18 -8t-4 -19z" />
    <glyph glyph-name="ae" unicode="&#xe6;" horiz-adv-x="784" 
d="M35 433q44 39 82.5 53t79.5 14q30 0 70 -11t79 -43q45 54 129 54q55 0 100 -17t78 -46.5t55 -68.5t31 -83q1 -5 2.5 -13.5t3 -18.5t3 -19t1.5 -13h-21t-26.5 0.5t-26 0.5h-20.5q-32 1 -64.5 1.5t-64.5 0.5q-20 0 -40 -0.5t-40 -1.5h-14q6 -30 20.5 -56t35 -45t47.5 -30
t59 -11q31 0 64 22.5t56 55.5l43 -34l6 -68q-29 -28 -73.5 -49t-92.5 -21q-60 0 -111.5 19.5t-92.5 60.5q-15 -34 -51 -57t-102 -23q-29 0 -58 10t-53.5 28t-43 44t-25.5 59q-14 68 18.5 105t100.5 49q41 6 63.5 10.5t33 8.5t12 8t0.5 10q-8 35 -30.5 61.5t-62.5 26.5
q-30 0 -53.5 -16.5t-34.5 -45.5h-53zM495 415q-23 0 -37.5 -9t-23.5 -24t-12 -34t-3 -38h5q21 -1 42.5 -1h41.5h41.5t43.5 1h9q-6 18 -15 37t-22 34t-30.5 24.5t-39.5 9.5zM187 140q6 -27 25.5 -43.5t46.5 -16.5t46.5 18t15.5 53q-2 14 -5.5 30.5t-6.5 31.5l-2 7
q-3 -1 -8 -2l-10 -2q-19 -4 -39 -8.5t-35.5 -12.5t-23.5 -21t-4 -34z" />
    <glyph glyph-name="ccedilla" unicode="&#xe7;" horiz-adv-x="473" 
d="M221 -98q20 -8 43.5 -13.5t42.5 -5.5q11 0 19 3t6 8q-1 5 -7.5 7t-14.5 2q-11 0 -20.5 -4t-18.5 -10l-42 35l11 69q-39 7 -77.5 25.5t-71.5 49t-57.5 74t-36.5 101.5q-14 67 -2 115.5t42 80t73.5 46.5t93.5 15q27 0 55 -5t54 -13.5t48 -20t38 -23.5q-5 -21 -8.5 -44.5
t-2.5 -49.5h-46q-9 12 -22.5 24.5t-28.5 23t-32 17t-34 6.5q-35 0 -56.5 -13t-32.5 -36t-11.5 -54t7.5 -68q17 -81 60 -122.5t107 -41.5q31 0 64.5 22.5t54.5 55.5l43 -34q1 -17 2.5 -34t4.5 -34q-23 -21 -55.5 -39t-68.5 -26q39 -7 65 -31t34 -60q6 -26 -1 -46t-23 -33.5
t-39.5 -20t-50.5 -6.5q-32 0 -66.5 9.5t-58.5 17.5z" />
    <glyph glyph-name="egrave" unicode="&#xe8;" horiz-adv-x="475" 
d="M41 230q-13 62 -8 112t28 85t63.5 54t97.5 19q55 0 99.5 -17t78 -46.5t55.5 -68.5t31 -83q1 -5 2.5 -13.5t3 -18.5t3 -19t1.5 -13h-21t-26.5 0.5t-26 0.5h-20.5q-33 1 -65 1.5t-64 0.5q-20 0 -40 -0.5t-40 -1.5h-14q6 -30 20.5 -56t35 -45t47.5 -30t59 -11q31 0 64 22.5
t56 55.5l43 -34l6 -68q-29 -28 -73.5 -49t-92.5 -21q-56 0 -106 18.5t-90 51.5t-68 77.5t-39 96.5zM77 606q-18 10 -36.5 24.5t-23.5 41.5q-3 14 0 25t10.5 18t16.5 10.5t18 3.5q17 0 34 -8t33 -22l222 -184h-113zM242 415q-23 0 -37.5 -9t-23 -24t-12 -34t-3.5 -38h5
q22 -1 43.5 -1h41.5h41.5t41.5 1h10q-6 18 -15 37t-22 34t-30.5 24.5t-39.5 9.5z" />
    <glyph glyph-name="eacute" unicode="&#xe9;" horiz-adv-x="477" 
d="M30 230q-13 62 -7.5 112t28 85t63 54t97.5 19q55 0 99.5 -17t78 -46.5t55.5 -68.5t31 -83q1 -5 2.5 -13.5t3 -18.5t3 -19t1.5 -13h-21t-26.5 0.5t-26 0.5h-20.5q-33 1 -65 1.5t-64 0.5q-20 0 -40 -0.5t-40 -1.5h-14q6 -30 20.5 -56t35 -45t47.5 -30t59 -11q31 0 64 22.5
t56 55.5l43 -34l6 -68q-29 -28 -73.5 -49t-92.5 -21q-56 0 -106 18.5t-90 51.5t-68 77.5t-39 96.5zM224 699q11 14 24 22t30 8q9 0 19.5 -3.5t21 -10.5t19 -18t11.5 -25q5 -27 -7 -41.5t-25 -24.5q-29 -22 -61.5 -46t-62.5 -45h-111zM231 415q-23 0 -37.5 -9t-23 -24
t-12 -34t-3.5 -38h5q22 -1 43.5 -1h41.5h41.5t41.5 1h10q-6 18 -15 37t-22 34t-30.5 24.5t-39.5 9.5z" />
    <glyph glyph-name="ecircumflex" unicode="&#xea;" horiz-adv-x="481" 
d="M38 230q-13 62 -8 112t28 85t63.5 54t97.5 19q55 0 99.5 -17t78 -46.5t55 -68.5t30.5 -83q1 -5 2.5 -13.5t3 -18.5t3 -19t2.5 -13h-21t-26.5 0.5t-26 0.5h-20.5q-33 1 -65.5 1.5t-64.5 0.5q-20 0 -39.5 -0.5t-39.5 -1.5h-14q6 -30 20.5 -56t35 -45t47.5 -30t59 -11
q31 0 64 22.5t55 55.5l44 -34l6 -68q-29 -28 -73.5 -49t-92.5 -21q-56 0 -106 18.5t-90.5 51.5t-68 77.5t-38.5 96.5zM199 602q-20 -22 -41 -44.5t-41 -42.5h-99l111 209h89l199 -209h-101zM239 415q-23 0 -37.5 -9t-23.5 -24t-12 -34t-3 -38h5q21 -1 42.5 -1h41.5h41.5
t42.5 1h10q-6 18 -15 37t-22 34t-30.5 24.5t-39.5 9.5z" />
    <glyph glyph-name="edieresis" unicode="&#xeb;" horiz-adv-x="488" 
d="M37 230q-13 62 -8 112t28 85t63.5 54t97.5 19q55 0 99.5 -17t78 -46.5t55.5 -68.5t31 -83q1 -5 2.5 -13.5t3 -18.5t3 -19t1.5 -13h-21t-26.5 0.5t-26 0.5h-20.5q-33 1 -65 1.5t-64 0.5q-20 0 -40 -0.5t-40 -1.5h-14q6 -30 20.5 -56t35 -45t47.5 -30t59 -11q31 0 64 22.5
t56 55.5l43 -34l6 -68q-29 -28 -73.5 -49t-92.5 -21q-56 0 -106 18.5t-90 51.5t-68 77.5t-39 96.5zM31 614q-7 31 10.5 53t48.5 22q15 0 29.5 -6t27 -16t21.5 -24t12 -29q6 -30 -11.5 -52t-47.5 -22q-31 0 -57.5 22t-32.5 52zM213 614q-7 31 10.5 53t47.5 22q31 0 57.5 -22
t33.5 -53q6 -30 -11.5 -52t-48.5 -22q-30 0 -56.5 22t-32.5 52zM238 415q-23 0 -37.5 -9t-23.5 -24t-12 -34t-3 -38h5q21 -1 42.5 -1h41.5h41.5t42.5 1h10q-6 18 -15 37t-22 34t-30.5 24.5t-39.5 9.5z" />
    <glyph glyph-name="igrave" unicode="&#xec;" horiz-adv-x="251" 
d="M114 291q-9 41 -22 93.5t-33 112.5q26 -5 46 -8t30 -3t28 3t42 8q7 -60 15.5 -112.5t17.5 -93.5l20 -96q9 -41 23 -94t32 -112q-26 5 -45.5 8t-29.5 3t-28 -3t-43 -8q-5 59 -14.5 112t-18.5 94zM-15 606q-17 10 -35.5 24.5t-24.5 41.5q-3 14 0.5 25t11 18t16.5 10.5
t18 3.5q17 0 33 -8t33 -22l221 -184h-112z" />
    <glyph glyph-name="iacute" unicode="&#xed;" horiz-adv-x="251" 
d="M39 291q-9 41 -22.5 93.5t-31.5 112.5q25 -5 45 -8t30 -3t27.5 3t42.5 8q6 -60 15 -112.5t18 -93.5l20 -96q9 -41 22.5 -94t32.5 -112q-26 5 -45.5 8t-29.5 3t-28.5 -3t-42.5 -8q-6 59 -15 112t-18 94zM67 699q11 14 24.5 22t30.5 8q9 0 19.5 -3.5t21 -10.5t18.5 -18
t11 -25q6 -27 -6.5 -41.5t-25.5 -24.5q-29 -22 -62 -46t-62 -45h-110z" />
    <glyph glyph-name="icircumflex" unicode="&#xee;" horiz-adv-x="333" 
d="M117 291q-8 41 -21.5 93.5t-32.5 112.5q26 -5 45.5 -8t29.5 -3t28.5 3t42.5 8q5 -60 14.5 -112.5t17.5 -93.5l21 -96q8 -41 21.5 -94t33.5 -112q-26 5 -46 8t-30 3t-28.5 -3t-41.5 -8q-6 59 -15.5 112t-17.5 94zM113 602q-20 -22 -40.5 -44.5t-39.5 -42.5h-99l109 209h89
l200 -209h-101z" />
    <glyph glyph-name="idieresis" unicode="&#xef;" horiz-adv-x="330" 
d="M112 291q-9 41 -22 93.5t-33 112.5q26 -5 45.5 -8t29.5 -3t28.5 3t42.5 8q6 -60 15 -112.5t18 -93.5l20 -96q9 -41 22 -94t33 -112q-26 5 -45.5 8t-29.5 3t-28.5 -3t-42.5 -8q-6 59 -15 112t-18 94zM-59 614q-7 31 10.5 53t48.5 22q15 0 29.5 -6t26.5 -16t21 -24t12 -29
q7 -30 -10.5 -52t-47.5 -22t-56.5 22t-33.5 52zM122 614q-7 31 10.5 53t47.5 22q31 0 57.5 -22t33.5 -53q7 -30 -10.5 -52t-48.5 -22q-30 0 -56.5 22t-33.5 52z" />
    <glyph glyph-name="eth" unicode="&#xf0;" horiz-adv-x="537" 
d="M47 243q-14 67 -4 114.5t36.5 78t65 46t80.5 17.5q-17 14 -33.5 28t-36.5 30q-28 -10 -60 -22t-58 -22q-13 19 -29.5 40t-37.5 44q26 7 47.5 12.5t49.5 14.5q-25 18 -59 41.5t-80 52.5l124 34q38 -23 73 -44.5t65 -42.5q28 10 57.5 21.5t58.5 23.5q13 -20 30.5 -41
t40.5 -44q-28 -7 -50.5 -12t-47.5 -13q62 -47 108.5 -91t79.5 -87.5t53 -88t30 -90.5q15 -71 3 -119.5t-41.5 -79.5t-71.5 -44.5t-87 -13.5t-93 13.5t-90 44.5t-75 79.5t-48 119.5zM413 243q-7 33 -19 64t-30.5 55t-43.5 38.5t-58 14.5t-52 -14.5t-27.5 -38.5t-7.5 -55
t8 -64t19.5 -64t31 -55t43.5 -38.5t58 -14.5t52 14.5t27 38.5t7 55t-8 64z" />
    <glyph glyph-name="ntilde" unicode="&#xf1;" horiz-adv-x="472" 
d="M333 285q-11 54 -37 83t-59 29q-51 0 -67 -32t-3 -91l16 -79q9 -41 23 -94t32 -112q-26 5 -45.5 8t-29.5 3t-28 -3t-43 -8q-5 59 -14 112t-18 94l-20 96q-9 41 -22.5 93.5t-32.5 112.5q26 -5 45 -8t29 -3q7 0 24 3t41 8q2 -10 3 -19t3 -17q20 19 47 29t63 10
q30 0 63 -8.5t63 -29.5t53.5 -57.5t35.5 -92.5q9 -39 16 -81.5t17 -88.5q3 -15 7.5 -35.5t9.5 -41.5t10 -41t9 -35q-26 5 -44.5 8t-26.5 3t-24.5 -3t-39.5 -8l-19 110q-10 62 -25 129l-12 57v0zM9 538q-1 25 3.5 52t16 48.5t30.5 35.5t48 14q19 0 35.5 -5.5t48.5 -18.5
q24 -11 34 -14.5t18 -3.5q9 0 14.5 14t7.5 32h80q1 -17 -1.5 -43.5t-13 -51t-31 -42t-55.5 -17.5q-15 0 -36 5.5t-48 19.5q-22 11 -32.5 14t-18.5 3q-9 0 -12.5 -9t-7.5 -33h-80z" />
    <glyph glyph-name="ograve" unicode="&#xf2;" horiz-adv-x="528" 
d="M42 243q-15 70 -3 119t41 80t71 44.5t87 13.5t93 -13.5t90 -44.5t75 -80t48 -119q15 -71 3 -119.5t-41.5 -79.5t-71.5 -44.5t-87 -13.5t-92.5 13.5t-90 44.5t-75 79.5t-47.5 119.5zM178 243q7 -33 19 -64t30.5 -55t43.5 -38.5t58 -14.5t52 14.5t27.5 38.5t7.5 55t-8 64
t-19.5 64t-31 55t-43.5 38.5t-58 14.5t-52 -14.5t-27 -38.5t-7 -55t8 -64zM91 606q-18 10 -36.5 24.5t-23.5 41.5q-3 14 0 25t10.5 18t16.5 10.5t18 3.5q17 0 34 -8t33 -22l222 -184h-113z" />
    <glyph glyph-name="oacute" unicode="&#xf3;" horiz-adv-x="527" 
d="M31 243q-15 70 -3 119t41.5 80t71 44.5t86.5 13.5t93 -13.5t90 -44.5t75 -80t48 -119q15 -71 3 -119.5t-41.5 -79.5t-71.5 -44.5t-87 -13.5t-92.5 13.5t-90 44.5t-75 79.5t-47.5 119.5zM167 243q7 -33 19 -64t30.5 -55t43.5 -38.5t58 -14.5t52 14.5t27.5 38.5t7.5 55
t-8 64t-19.5 64t-31 55t-43.5 38.5t-58 14.5t-52 -14.5t-27 -38.5t-7 -55t8 -64zM238 699q11 14 24 22t30 8q9 0 19.5 -3.5t21 -10.5t19 -18t11.5 -25q5 -27 -7 -41.5t-25 -24.5q-29 -22 -61.5 -46t-62.5 -45h-111z" />
    <glyph glyph-name="ocircumflex" unicode="&#xf4;" horiz-adv-x="532" 
d="M38 243q-15 70 -2.5 119t41.5 80t71 44.5t87 13.5t92.5 -13.5t90 -44.5t75 -80t47.5 -119q15 -71 3 -119.5t-41 -79.5t-71 -44.5t-87 -13.5t-93 13.5t-90 44.5t-75 79.5t-48 119.5zM174 243q7 -33 19.5 -64t31 -55t43.5 -38.5t58 -14.5t51.5 14.5t27 38.5t7.5 55t-8 64
t-19.5 64t-30.5 55t-43 38.5t-58 14.5t-52 -14.5t-27.5 -38.5t-7.5 -55t8 -64zM213 602q-20 -22 -40.5 -44.5t-40.5 -42.5h-100l111 209h89l199 -209h-101z" />
    <glyph glyph-name="otilde" unicode="&#xf5;" horiz-adv-x="537" 
d="M37 243q-15 70 -3 119t41.5 80t71 44.5t86.5 13.5t93 -13.5t90 -44.5t75 -80t48 -119q15 -71 3 -119.5t-41 -79.5t-71 -44.5t-87 -13.5t-93 13.5t-90 44.5t-75 79.5t-48 119.5zM173 243q7 -33 19 -64t30.5 -55t43.5 -38.5t58 -14.5t52 14.5t27.5 38.5t7.5 55t-8 64
t-19.5 64t-31 55t-43.5 38.5t-58 14.5t-52 -14.5t-27 -38.5t-7 -55t8 -64zM41 538q-1 25 3.5 52t15.5 48.5t30 35.5t48 14q10 0 18.5 -1t17.5 -4t20.5 -7.5t27.5 -11.5q25 -11 35 -14.5t18 -3.5q10 0 15 14t6 32h80q1 -17 -1 -43.5t-12.5 -51t-30.5 -42t-55 -17.5
q-16 0 -36.5 5.5t-48.5 19.5q-21 11 -32 14t-19 3q-9 0 -13 -9t-7 -33h-80z" />
    <glyph glyph-name="odieresis" unicode="&#xf6;" horiz-adv-x="537" 
d="M36 243q-14 70 -2 119t41 80t71 44.5t87 13.5t93 -13.5t90 -44.5t74.5 -80t47.5 -119q15 -71 3 -119.5t-41 -79.5t-71 -44.5t-87 -13.5t-93 13.5t-90 44.5t-75 79.5t-48 119.5zM172 243q7 -33 19.5 -64t31 -55t43.5 -38.5t58 -14.5t51.5 14.5t27 38.5t7.5 55t-8 64
t-19 64t-30.5 55t-43.5 38.5t-58 14.5t-52 -14.5t-27.5 -38.5t-7.5 -55t8 -64zM226 614q-7 31 10.5 53t47.5 22q31 0 57.5 -22t33.5 -53q6 -30 -11.5 -52t-48.5 -22q-30 0 -56.5 22t-32.5 52zM44 614q-7 31 10.5 53t48.5 22q15 0 29.5 -6t27 -16t21.5 -24t12 -29
q6 -30 -11.5 -52t-47.5 -22q-31 0 -57.5 22t-32.5 52z" />
    <glyph glyph-name="divide" unicode="&#xf7;" horiz-adv-x="516" 
d="M-14 312h521l22 -103h-522zM216 80q-3 16 0 30.5t12 25.5t22 17.5t29 6.5t32 -6.5t29.5 -17.5t23 -25.5t12.5 -30.5t0 -30.5t-12 -25.5t-22 -17.5t-29 -6.5t-32 6.5t-29.5 17.5t-23 25.5t-12.5 30.5zM139 441q-3 16 0 30.5t12 25.5t22 17.5t29 6.5t32 -6.5t29.5 -17.5
t23 -25.5t12.5 -30.5t0 -30.5t-12 -25.5t-22 -17.5t-29 -6.5t-32 6.5t-29.5 17.5t-23 25.5t-12.5 30.5z" />
    <glyph glyph-name="oslash" unicode="&#xf8;" horiz-adv-x="581" 
d="M44 243q-15 70 -3 119t42 80t72 44.5t87 13.5q35 0 71 -8t74 -28q13 20 26.5 45t21.5 46q38 -42 90 -66q-18 -17 -37.5 -40t-29.5 -36q31 -32 54.5 -73.5t34.5 -96.5q15 -71 3 -119.5t-41.5 -79.5t-71 -44.5t-86.5 -13.5q-37 0 -76.5 9t-77.5 31q-17 -24 -34 -50.5
t-23 -37.5q-14 17 -35.5 32t-47.5 24q6 6 14.5 16.5t18 22.5t19 24.5t17.5 23.5q-29 31 -50 69.5t-32 92.5zM248 102q17 -15 37.5 -23t47.5 -8q33 0 51.5 14.5t27 38.5t7.5 55t-8 64q-4 18 -9 35.5t-13 33.5zM336 389q-14 12 -33.5 19t-42.5 7q-33 0 -52.5 -14.5t-28 -38.5
t-7.5 -55t8 -64q3 -15 8 -30t10 -29z" />
    <glyph glyph-name="ugrave" unicode="&#xf9;" horiz-adv-x="457" 
d="M61 165q-5 26 -9 48t-8 42q-2 17 -5.5 32t-6.5 30q-3 16 -8.5 39t-11 48t-11 49.5t-9.5 43.5q24 -5 42.5 -8t26.5 -3q9 0 26 3t40 8q3 -27 8.5 -63t12 -75t14 -78.5t14.5 -73.5q9 -42 19.5 -62.5t21.5 -30.5q12 -11 28 -18t36 -7q30 0 46.5 13t21.5 31q3 13 4.5 23
t-0.5 27.5t-8 47t-17 81.5q-4 19 -10 44t-12 51t-11.5 49.5t-9.5 40.5q25 -5 42.5 -8t27.5 -3q9 0 26 3.5t40 8.5q5 -36 12 -76t14.5 -81t15 -81t15.5 -77q4 -20 10.5 -46t13 -52.5t13 -52t11.5 -44.5q-25 5 -43 8.5t-26 3.5q-34 0 -48 1t-14 3q-1 2 13 6q0 3 -1 4
q-1 7 -3 7t-4 -2t-4 -2q-6 0 -7 10q-21 -20 -49 -30.5t-59 -10.5q-85 0 -143.5 47t-76.5 132zM57 606q-17 10 -36 24.5t-23 41.5q-3 14 0 25t10 18t16 10.5t18 3.5q17 0 34 -8t34 -22l221 -184h-112z" />
    <glyph glyph-name="uacute" unicode="&#xfa;" horiz-adv-x="457" 
d="M47 165q-5 26 -9 48t-8 42q-2 17 -5.5 32t-6.5 30q-3 16 -8 39t-10.5 48t-11.5 49.5t-10 43.5q24 -5 42.5 -8t26.5 -3q9 0 26 3t40 8q3 -27 8.5 -63t12 -75t14 -78.5t14.5 -73.5q9 -42 19.5 -62.5t21.5 -30.5q12 -11 28 -18t36 -7q30 0 46.5 13t21.5 31q3 13 4.5 23
t-0.5 27.5t-8 47t-17 81.5q-4 19 -10 44t-12 51t-11.5 49.5t-9.5 40.5q25 -5 42.5 -8t27.5 -3q9 0 26 3.5t40 8.5q5 -36 12 -76t14.5 -81t15 -81t15.5 -77q4 -20 10.5 -46t13 -52.5t13 -52t11.5 -44.5q-25 5 -43 8.5t-26 3.5q-34 0 -48 1t-14 3q-1 2 13 6q0 3 -1 4
q-1 7 -3 7t-4 -2t-4 -2q-6 0 -7 10q-21 -20 -49 -30.5t-59 -10.5q-85 0 -143.5 47t-76.5 132zM201 699q11 14 24 22t30 8q9 0 19.5 -3.5t21 -10.5t19 -18t11.5 -25q5 -27 -6.5 -41.5t-25.5 -24.5q-29 -22 -61.5 -46t-62.5 -45h-111z" />
    <glyph glyph-name="ucircumflex" unicode="&#xfb;" horiz-adv-x="465" 
d="M58 165q-6 26 -10 48t-7 42q-3 17 -6 32l-6 30q-4 16 -9 39t-10.5 48t-11.5 49.5t-10 43.5q25 -5 43.5 -8t26.5 -3q9 0 25.5 3t39.5 8q3 -27 8.5 -63t12.5 -75t14.5 -78.5t14.5 -73.5q9 -42 19.5 -62.5t21.5 -30.5q12 -11 28 -18t36 -7q30 0 46.5 13t21.5 31q3 13 4 23
t-1 27.5t-7.5 47t-16.5 81.5q-4 19 -10 44t-12 51t-12 49.5t-10 40.5q26 -5 43.5 -8t27.5 -3q9 0 26 3.5t39 8.5q6 -36 12.5 -76t14 -81t15.5 -81t16 -77q4 -20 10 -46t12.5 -52.5t13 -52t12.5 -44.5q-25 5 -43 8.5t-26 3.5q-34 0 -48 1t-15 3q0 3 14 6q0 1 -0.5 2t-0.5 2
q-1 7 -4 7q-2 0 -4 -2t-4 -2q-5 0 -7 10q-20 -20 -48 -30.5t-59 -10.5q-85 0 -143.5 47t-76.5 132zM179 602q-20 -22 -40.5 -44.5t-40.5 -42.5h-99l110 209h89l199 -209h-100z" />
    <glyph glyph-name="udieresis" unicode="&#xfc;" horiz-adv-x="471" 
d="M57 165q-5 26 -9.5 48t-7.5 42q-3 17 -6 32l-6 30q-3 16 -8.5 39t-11 48t-11.5 49.5t-10 43.5q25 -5 43.5 -8t26.5 -3q9 0 25.5 3t39.5 8q4 -27 9.5 -63t12 -75t14 -78.5t14.5 -73.5q9 -42 19.5 -62.5t21.5 -30.5q12 -11 28 -18t36 -7q30 0 46.5 13t21.5 31q3 13 4.5 23
t-0.5 27.5t-8 47t-17 81.5q-4 19 -10 44t-12 51t-12 49.5t-10 40.5q26 -5 43.5 -8t27.5 -3q9 0 26 3.5t39 8.5q6 -36 12.5 -76t14 -81t15.5 -81t16 -77q4 -20 10.5 -46t13 -52.5t13 -52t11.5 -44.5q-25 5 -43 8.5t-26 3.5q-34 0 -48 1t-15 3q0 3 14 6q0 1 -0.5 2t-0.5 2
q-1 7 -3 7t-4 -2t-4 -2q-6 0 -8 10q-20 -20 -48 -30.5t-59 -10.5q-85 0 -143.5 47t-76.5 132zM11 614q-7 31 10.5 53t48.5 22q15 0 29.5 -6t27 -16t21.5 -24t12 -29q6 -30 -11.5 -52t-47.5 -22q-31 0 -57.5 22t-32.5 52zM193 614q-7 31 10.5 53t47.5 22q31 0 57.5 -22
t33.5 -53q6 -30 -11.5 -52t-48.5 -22q-30 0 -56.5 22t-32.5 52z" />
    <glyph glyph-name="yacute" unicode="&#xfd;" horiz-adv-x="471" 
d="M132 -264q35 89 57.5 159.5t35.5 127.5q-18 30 -44.5 73t-57 91t-62 98t-58.5 93t-48 75.5t-30 46.5q32 -6 56 -10t35 -4t26 2.5t33 6.5q39 -74 88.5 -156.5t97.5 -160.5q17 72 29.5 155t20.5 164q20 -5 33.5 -8t18.5 -3q4 0 24.5 6t52.5 15q-5 -19 -18.5 -72.5
t-31.5 -126.5t-37 -156.5t-36 -161.5t-29.5 -143t-15.5 -100q-20 5 -34 8t-19 3t-28.5 -6t-58.5 -16zM191 699q10 14 23.5 22t30.5 8q9 0 19.5 -3.5t21 -10.5t18.5 -18t11 -25q6 -27 -6 -41.5t-26 -24.5q-29 -22 -61.5 -46t-61.5 -45h-112z" />
    <glyph glyph-name="thorn" unicode="&#xfe;" horiz-adv-x="500" 
d="M-3 455q-6 30 -15 67.5t-18.5 77.5t-20.5 79.5t-21 74.5q26 -5 45.5 -8t29.5 -3q9 0 27.5 3t41.5 8q4 -35 10.5 -74.5t14 -79.5t15 -77.5l13.5 -67.5v-2q18 20 46.5 33.5t73.5 13.5q40 0 82 -14.5t79 -45.5t65.5 -79t42.5 -115q14 -66 5 -114.5t-34.5 -81t-62.5 -48.5
t-78 -16q-71 0 -128 40q6 -30 14.5 -65.5t17.5 -72t18.5 -73t19.5 -68.5q-26 5 -45.5 8t-29.5 3t-28 -3t-42 -8q-4 35 -10.5 74.5t-13.5 79.5t-14.5 77.5l-13.5 67.5zM372 247q-10 47 -25.5 77.5t-33.5 48.5t-37 25.5t-37 7.5q-30 0 -48 -13t-26.5 -36t-8 -53.5t8.5 -64.5
q35 -163 141 -163q26 0 42.5 13t24.5 36.5t7.5 54.5t-8.5 67z" />
    <glyph glyph-name="ydieresis" unicode="&#xff;" horiz-adv-x="474" 
d="M132 -264q35 89 57.5 159.5t35.5 127.5q-18 30 -44.5 73t-57 91t-62 98t-59 93t-48.5 75.5t-30 46.5q33 -6 56.5 -10t34.5 -4t26 2.5t33 6.5q40 -74 89.5 -156.5t97.5 -160.5q16 72 29 155t21 164q20 -5 33 -8t18 -3q4 0 25 6t53 15q-5 -19 -19 -72.5t-31.5 -126.5
t-37 -156.5t-36.5 -161.5t-29.5 -143t-15.5 -100q-20 5 -33.5 8t-18.5 3t-28.5 -6t-58.5 -16zM-9 614q-7 31 10 53t48 22q15 0 30 -6t27.5 -16t21.5 -24t12 -29q7 -30 -11 -52t-48 -22q-31 0 -57 22t-33 52zM172 614q-7 31 10.5 53t47.5 22q31 0 57.5 -22t33.5 -53
q7 -30 -10.5 -52t-48.5 -22q-30 0 -56.5 22t-33.5 52z" />
    <glyph glyph-name="dotlessi" unicode="&#x131;" horiz-adv-x="173" 
d="M12 291q-8 41 -21 93.5t-32 112.5q26 -5 45 -8t29 -3t28.5 3t42.5 8q5 -60 14.5 -112.5t17.5 -93.5l21 -96q8 -41 21.5 -94t32.5 -112q-26 5 -45.5 8t-29.5 3t-28.5 -3t-42.5 -8q-5 59 -14.5 112t-17.5 94z" />
    <glyph glyph-name="Lslash" unicode="&#x141;" horiz-adv-x="486" 
d="M86 420q-6 30 -14.5 65t-17.5 71t-18 71t-17 65q28 -5 47.5 -7.5t29.5 -2.5t28.5 2.5t43.5 7.5q5 -28 10.5 -61t11.5 -67t12 -67.5t12 -62.5q19 13 37.5 27t32.5 25q14 -20 29 -41t34 -43q-8 -5 -21 -12.5t-28 -17t-31 -20t-31 -20.5l14 -67q11 -51 19.5 -89t16.5 -70
l2 -12q55 0 116.5 3t147.5 14q-2 -24 -3 -40.5t0 -19.5q1 -5 8 -20.5t18 -36.5q-21 1 -48.5 2t-56 2t-56 1.5t-48.5 0.5t-47 -0.5t-52.5 -1.5t-52 -2t-46.5 -2q-9 57 -21 127t-25 130q-14 -12 -26.5 -24t-21.5 -23q-15 26 -32.5 48t-36.5 42q23 14 49 30t46 30z" />
    <glyph glyph-name="lslash" unicode="&#x142;" horiz-adv-x="270" 
d="M143 -11q-4 33 -10 70.5t-13 76t-14 75t-14 66.5q-5 -4 -9 -7.5t-8 -5.5q-4 -5 -11.5 -14t-8.5 -10q-13 18 -28 37t-41 42q16 10 41.5 28t43.5 32l-16 76q-7 30 -15.5 67.5t-18 77.5t-20 79.5t-20.5 74.5q25 -5 44.5 -8t29.5 -3t28.5 3t42.5 8q4 -35 10.5 -74t13.5 -78
t14.5 -76t13.5 -67q17 14 32.5 27t23.5 20q6 -28 22 -51.5t31 -35.5q-2 -2 -8 -6t-13.5 -9.5t-14 -10t-9.5 -5.5q-10 -7 -18 -12t-25 -17l15 -71q6 -30 15 -67.5t18.5 -77.5t20 -79.5t21.5 -74.5q-26 5 -46 8t-30 3t-28.5 -3t-41.5 -8z" />
    <glyph glyph-name="OE" unicode="&#x152;" horiz-adv-x="1006" 
d="M757 247q8 -34 15.5 -67.5t15.5 -68.5q1 -5 2 -6.5t1.5 -2t1 -1.5t1.5 -7q88 1 146 6.5t90 10.5q-2 -25 -3.5 -41.5t-0.5 -19.5q2 -5 9 -20t18 -36q-20 1 -45 2t-52 2t-52.5 1.5t-44.5 0.5q-20 0 -44 -0.5t-49 -1.5t-49 -2t-44 -2q-1 9 -1.5 14.5t-0.5 10t-0.5 9
t-2.5 11.5q0 3 -2 13q-14 -14 -32.5 -26.5t-43 -22t-55.5 -15t-71 -5.5q-72 0 -139.5 24t-124 68.5t-97 109t-57.5 145.5q-19 89 -6.5 157.5t51 115.5t99 71t137.5 24q78 0 131 -18t88 -41q-4 14 -8 27t-6 22q19 -1 43 -2t48.5 -2t48 -1.5t42.5 -0.5q18 0 42.5 0.5t50 1.5
t50 2t43.5 2q-2 -22 -3 -37.5t0 -20.5t9 -22.5t20 -41.5l-44 8t-49 7t-62 5t-83 2q1 -4 1 -7.5t1 -5.5q5 -31 11 -60.5t12 -60.5l10 -48q40 0 67 0.5t45.5 1.5t30.5 2t22 2h9t16.5 0.5t16 0.5h9.5q-2 -20 -3.5 -34.5t-0.5 -19.5q2 -5 9 -19t18 -34h-9.5t-16.5 0.5t-16.5 0.5
h-8.5q-11 1 -23.5 1.5t-31.5 1.5t-46 1.5t-67 0.5zM189 341q15 -69 42.5 -119.5t63.5 -83.5t78 -49t85 -16q49 0 84 19.5t55 54.5t24.5 84.5t-8.5 109.5q-15 73 -41.5 124t-60 83t-73.5 46.5t-83 14.5q-47 0 -84 -16t-60.5 -49t-30 -83.5t8.5 -119.5z" />
    <glyph glyph-name="oe" unicode="&#x153;" horiz-adv-x="897" 
d="M583 500q55 0 99.5 -17t78 -46.5t55.5 -68.5t31 -83q1 -5 2 -13.5t2.5 -18.5t3 -19t1.5 -13h-21t-26.5 0.5t-26 0.5h-20.5q-32 1 -64 1.5t-65 0.5q-20 0 -40 -0.5t-40 -1.5h-14q6 -30 20.5 -56t35 -45t47.5 -30t59 -11t65 22.5t56 55.5l42 -34l6 -68q-29 -28 -73 -49
t-92 -21q-54 0 -103.5 18.5t-88.5 49.5q-29 -36 -72.5 -52t-94.5 -16q-45 0 -92.5 13.5t-90 44.5t-75 79.5t-47.5 119.5q-15 70 -3 119t41.5 80t71 44.5t86.5 13.5q47 0 97.5 -16t92.5 -48q48 64 156 64zM408 243q-7 33 -19.5 64t-31 55t-44 38.5t-58.5 14.5t-52 -14.5
t-27 -38.5t-7 -55t8 -64t19 -64t30.5 -55t43.5 -38.5t58 -14.5t52.5 14.5t27.5 38.5t7.5 55t-7.5 64zM603 415q-23 0 -37.5 -9t-23.5 -24t-12.5 -34t-2.5 -38h5q20 -1 41.5 -1h41.5h42.5t42.5 1h9q-5 18 -14 37t-22 34t-30.5 24.5t-39.5 9.5z" />
    <glyph glyph-name="Scaron" unicode="&#x160;" horiz-adv-x="460" 
d="M243 882h100l-99 -188q35 -5 69 -19.5t71 -39.5q-8 -26 -11 -52t-3 -61h-52q-8 13 -18.5 28t-24 28t-30.5 22t-36 9q-40 0 -60.5 -24.5t-12.5 -62.5q5 -24 19 -40.5t33.5 -29t43 -22t47.5 -18.5q34 -13 67.5 -27t62.5 -35.5t50.5 -53t31.5 -78.5q10 -48 2 -90.5
t-33.5 -74.5t-68.5 -51t-103 -19q-64 0 -113 23t-87 49q5 33 4.5 57.5t-3.5 60.5h53q11 -16 26.5 -33t34 -31t41 -23t46.5 -9q48 0 69.5 31t11.5 75q-5 23 -18 39.5t-31 28.5t-41 21.5t-47 18.5q-35 13 -69.5 28t-64 37.5t-52.5 56t-33 83.5q-15 72 14.5 123.5t98.5 69.5
l-183 193h99l118 -87z" />
    <glyph glyph-name="scaron" unicode="&#x161;" horiz-adv-x="370" 
d="M134 139q7 -9 18 -20t24.5 -20.5t28.5 -16t30 -6.5q24 0 39.5 14t9.5 41q-5 23 -30.5 34.5t-57.5 20.5q-27 7 -54 16.5t-50.5 25t-41.5 41t-26 64.5q-8 36 -2 66.5t24.5 53t49.5 35t74 12.5q29 0 52 -6.5t43 -13.5q3 -2 4 -2.5t5 -2t14.5 -4t32.5 -7.5q-4 -12 -7.5 -27.5
t-5.5 -31.5t-2.5 -29.5t0.5 -21.5h-57q-11 22 -31 39.5t-41 17.5q-17 0 -31.5 -12t-9.5 -38q6 -26 32 -38t58 -20q27 -7 53.5 -16t50 -25t41 -40.5t25.5 -62.5q7 -31 0 -62t-26.5 -55.5t-52 -40t-77.5 -15.5q-48 0 -89.5 15t-75.5 32q2 9 4 22t2.5 28t0 29.5t-3.5 26.5h56z
M206 724h100l-111 -209h-89l-198 209h99l119 -88z" />
    <glyph glyph-name="Ydieresis" unicode="&#x178;" horiz-adv-x="583" 
d="M306 -11q-8 78 -21.5 148t-28.5 140q-15 19 -43 53.5t-62 76t-71 87t-70 85.5t-59.5 71.5t-38.5 45.5q42 -7 71 -10.5t41 -3.5q9 0 26.5 2t38.5 6q28 -39 54.5 -75t53.5 -72t55 -73t61 -78q12 32 24.5 68.5t24.5 75t23.5 77.5t21.5 77q35 -8 53 -8q7 0 32 5.5t60 13.5
q-34 -78 -61 -141t-47.5 -113.5t-35.5 -89.5t-24 -69q7 -34 16.5 -74t19.5 -80.5t20 -78t19 -66.5q-30 5 -50.5 8t-28.5 3t-28 -3t-46 -8zM59 773q-6 30 11 52t48 22q15 0 30 -6t27.5 -16t21.5 -23.5t12 -28.5q7 -31 -10.5 -53t-48.5 -22t-57.5 22t-33.5 53zM241 773
q-6 30 11 52t47 22q15 0 30 -6t27.5 -16t21.5 -23.5t12 -28.5q7 -31 -10.5 -53t-48.5 -22q-15 0 -29.5 6t-27 16t-21.5 24t-12 29z" />
    <glyph glyph-name="Zcaron" unicode="&#x17d;" horiz-adv-x="597" 
d="M308 882h99l-106 -200h111q38 0 77 3h10t14.5 0.5t14.5 0.5h10l11 -54q-13 -19 -34 -57t-46 -86.5t-52 -104t-52.5 -109t-47.5 -101t-36 -80.5q3 0 5.5 -0.5t4.5 -0.5q5 0 8.5 0.5t10.5 0.5q34 0 82.5 2t99 5t97.5 7t79 8q-1 -25 -1.5 -41.5t1.5 -22.5q1 -4 8 -19t18 -39
q-68 2 -134.5 4t-119.5 2q-36 0 -86 -0.5t-98.5 -1.5t-89 -2t-57.5 -2l-12 54q39 75 80.5 158t78 159t64.5 136t40 87h-15q-32 0 -75 -1.5t-88.5 -4t-89.5 -6t-78 -7.5q2 24 2.5 40t-0.5 21q-2 5 -9 21t-17 38q11 -1 32 -2t46 -2t52.5 -2t51.5 -1h28l-192 200h101l118 -87z
" />
    <glyph glyph-name="zcaron" unicode="&#x17e;" horiz-adv-x="470" 
d="M78 45q25 41 51.5 87t52 92.5t48.5 90t42 79.5q3 6 2 6l-4 -9v1q0 -1 2 3q-24 -2 -53.5 -3.5t-60.5 -3.5t-60 -4.5t-51 -4.5v38.5t-2 19.5q-1 6 -21 58q54 -5 118.5 -7t147.5 -2q19 0 36 0.5t34 1.5t35.5 2.5t41.5 3.5l11 -54q-27 -48 -56 -99.5t-55 -99.5t-47.5 -88
t-33.5 -64q27 0 53 1t57 3t68.5 5t86.5 8q1 -19 0.5 -35.5t0.5 -21.5q2 -5 8 -21t14 -33h-19.5t-26 0.5t-26.5 1t-21 0.5q-42 2 -86 2.5t-86 0.5q-61 0 -121 -3q-5 0 -14 -0.5t-19.5 -1t-20.5 -0.5h-15zM261 724h100l-111 -209h-89l-198 209h100l118 -88z" />
    <glyph glyph-name="florin" unicode="&#x192;" horiz-adv-x="497" 
d="M132 -53q8 -4 19 -8.5t17 -4.5q19 0 23 24.5t3 62.5q-1 42 -2.5 80t-3 75t-3.5 75t-4 80q-12 0 -27.5 -1t-30.5 -1.5t-27 -1.5t-18 -1q2 20 3 47t-5 54q8 0 20 -1.5t26.5 -2.5t29.5 -2t28 -1q0 6 0.5 12.5t0.5 13.5q1 37 9 77t25.5 73.5t46.5 55.5t72 22q7 0 26.5 -4
t40.5 -11q-2 -23 0 -54t8 -60l-47 -14q-11 12 -23.5 21.5t-20.5 9.5q-9 0 -14.5 -8.5t-5.5 -34.5l5 -98q8 1 17.5 1.5t17.5 0.5q6 0 17.5 0.5l23 1t21 0.5h12.5q-5 -21 -6 -48.5t4 -50.5q-38 4 -61 4.5t-44 0.5q2 -45 3.5 -89.5t3.5 -89.5q3 -107 -15 -172.5t-49 -101.5
t-71.5 -48t-82.5 -12q3 36 3 65t-5 53z" />
    <glyph glyph-name="circumflex" unicode="&#x2c6;" horiz-adv-x="354" 
d="M179 602q-20 -22 -40.5 -44.5t-39.5 -42.5h-99l109 209h89l200 -209h-101z" />
    <glyph glyph-name="caron" unicode="&#x2c7;" horiz-adv-x="350" 
d="M251 724h100l-110 -209h-89l-199 209h99l120 -88z" />
    <glyph glyph-name="breve" unicode="&#x2d8;" horiz-adv-x="342" 
d="M72 716q17 -43 39.5 -66t55.5 -23q35 0 46.5 23t13.5 66h78q9 -41 7 -77t-15.5 -64t-39.5 -44t-65 -16t-72.5 16t-59 44t-43 64t-25.5 77h80z" />
    <glyph glyph-name="dotaccent" unicode="&#x2d9;" horiz-adv-x="164" 
d="M5 612q-5 30 12 52t48 22t57.5 -22t32.5 -52q7 -31 -10.5 -53t-48.5 -22t-57.5 22t-33.5 53z" />
    <glyph glyph-name="ring" unicode="&#x2da;" horiz-adv-x="266" 
d="M9 622q-5 25 0 47t18.5 38.5t33.5 26t46 9.5q25 0 49 -9.5t43.5 -26t34 -38.5t19.5 -47q6 -25 1 -47.5t-18 -39t-33.5 -26t-45.5 -9.5t-49 9.5t-44 26t-34.5 39t-20.5 47.5zM103 622q3 -12 12.5 -20t21.5 -8t19 8t4 20q-2 11 -12 19t-21 8q-12 0 -19 -8t-5 -19z" />
    <glyph glyph-name="ogonek" unicode="&#x2db;" horiz-adv-x="220" 
d="M210 55q-32 -36 -51.5 -60.5t-29.5 -41t-13 -26.5t-1 -17q4 -16 16 -21.5t25 -5.5q5 0 18 4t26 9l41 -80q-22 -12 -41.5 -17t-39.5 -5q-26 0 -51.5 6.5t-46.5 20t-36.5 33.5t-20.5 46q-13 65 89 155h116z" />
    <glyph glyph-name="tilde" unicode="&#x2dc;" horiz-adv-x="393" 
d="M27 538q-1 25 3 52t15.5 48.5t30.5 35.5t48 14q19 0 35.5 -5.5t48.5 -18.5q24 -11 34.5 -14.5t18.5 -3.5q10 0 14.5 14t6.5 32h80q1 -17 -1 -43.5t-12.5 -51t-30.5 -42t-55 -17.5q-16 0 -37 5.5t-48 19.5q-21 11 -32 14t-19 3q-9 0 -13 -9t-7 -33h-80z" />
    <glyph glyph-name="hungarumlaut" unicode="&#x2dd;" horiz-adv-x="468" 
d="M133 699q11 14 24.5 22t30.5 8q9 0 19.5 -3.5t21 -10.5t18.5 -18t11 -25q6 -27 -6.5 -41.5t-25.5 -24.5q-29 -22 -62 -46t-62 -45h-110zM317 699q11 14 24.5 22t30.5 8q9 0 19.5 -3.5t21 -10.5t18.5 -18t11 -25q6 -27 -6.5 -41.5t-25.5 -24.5q-29 -22 -61.5 -46
t-62.5 -45h-111z" />
    <glyph glyph-name="endash" unicode="&#x2013;" horiz-adv-x="587" 
d="M24 289h516l21 -98h-516z" />
    <glyph glyph-name="emdash" unicode="&#x2014;" horiz-adv-x="1086" 
d="M44 289h976l21 -98h-976z" />
    <glyph glyph-name="quoteleft" unicode="&#x2018;" 
d="M137 432l-1 1q-2 -19 -13 -37t-42 -18q-10 0 -21.5 3.5t-22 10.5t-19 18t-11.5 27q-4 15 -1 27t6 23q1 0 1 1.5t2 3.5l-2 -3q18 49 40.5 107.5t40.5 107.5l69 -23z" />
    <glyph glyph-name="quoteright" unicode="&#x2019;" 
d="M38 644l1 -1q1 19 12.5 37t42.5 18q10 0 21.5 -3.5t22 -10.5t19 -18t11.5 -27q4 -15 1 -27t-7 -23q0 -3 -2 -5l2 3q-18 -49 -40.5 -107.5t-40.5 -107.5l-69 23z" />
    <glyph glyph-name="quotesinglbase" unicode="&#x201a;" 
d="M38 105l1 -1q1 19 12.5 37t42.5 18q10 0 21.5 -3.5t22 -10.5t19 -18t11.5 -27q4 -15 1 -27t-7 -23q0 -3 -2 -5l2 3q-18 -49 -40.5 -107.5t-40.5 -107.5l-69 23z" />
    <glyph glyph-name="quotedblleft" unicode="&#x201c;" horiz-adv-x="376" 
d="M317 432l-1 1q-1 -19 -12.5 -37t-42.5 -18q-10 0 -21.5 3.5t-22 10.5t-19 18t-11.5 27q-4 15 -1 27t7 23v2q0 1 0.5 1.5t0.5 1.5v-3q17 49 39.5 107.5t40.5 107.5l69 -23zM159 432l-1 1q-1 -9 -4 -19t-9 -18t-16.5 -13t-26.5 -5q-20 0 -43 13.5t-30 45.5q-4 15 -1 27
t6 23q1 1 1 2q0 2 1 3l-1 -3q18 49 40.5 107.5t39.5 107.5l70 -23z" />
    <glyph glyph-name="quotedblright" unicode="&#x201d;" horiz-adv-x="377" 
d="M217 644l1 -1q1 9 4 19t9 18t16.5 13t26.5 5q20 0 43 -13.5t30 -45.5q4 -15 1 -27t-6 -23q-1 -1 -1 -2t-2 -3l2 3q-18 -49 -40.5 -107.5t-39.5 -107.5l-70 23zM59 644l1 -1q1 19 12.5 37t42.5 18q10 0 21.5 -3.5t22 -10.5t19 -18t11.5 -27q4 -15 1 -27t-7 -23
q-1 -1 -1 -2t-1 -3l1 3q-17 -49 -39.5 -107.5t-40.5 -107.5l-69 23z" />
    <glyph glyph-name="quotedblbase" unicode="&#x201e;" horiz-adv-x="377" 
d="M217 105l1 -1q1 9 4 19t9 18t16.5 13t26.5 5q20 0 43 -13.5t30 -45.5q4 -15 1 -27t-6 -23q-1 -1 -1 -2t-2 -3l2 3q-18 -49 -40.5 -107.5t-39.5 -107.5l-70 23zM59 105l1 -1q1 19 12.5 37t42.5 18q10 0 21.5 -3.5t22 -10.5t19 -18t11.5 -27q4 -15 1 -27t-7 -23
q-1 -1 -1 -2t-1 -3l1 3q-17 -49 -39.5 -107.5t-40.5 -107.5l-69 23z" />
    <glyph glyph-name="dagger" unicode="&#x2020;" horiz-adv-x="473" 
d="M-21 482q58 -8 97.5 -10.5t72.5 -2.5q-11 53 -26.5 114.5t-35.5 110.5q27 -6 47 -9t29 -3t27.5 3t42.5 9q2 -49 12.5 -110.5t21.5 -114.5q33 0 71.5 2.5t95.5 10.5q-1 -25 -1 -42.5t2 -25.5q2 -7 9 -24.5t18 -42.5q-63 9 -102.5 11.5t-69.5 2.5q12 -57 26 -116t29 -117
q3 -13 7 -31.5t8.5 -38t9 -38t7.5 -31.5q-24 5 -42 8t-27 3t-25.5 -3t-39.5 -8q-2 13 -5.5 31.5t-7 38t-7 38t-6.5 31.5q-6 33 -11 61.5t-10.5 55.5t-11 55t-12.5 61q-33 0 -71 -2.5t-95 -10.5q1 25 1 42.5t-2 23.5q-2 8 -8.5 25.5t-17.5 42.5z" />
    <glyph glyph-name="daggerdbl" unicode="&#x2021;" horiz-adv-x="476" 
d="M182 341q-3 11 -5.5 21.5t-5.5 22.5q-4 10 -5 21q-33 0 -72 -2.5t-95 -10.5q1 25 1 42.5t-2 24.5q-2 8 -9 25.5t-18 42.5q62 -9 101.5 -11.5t69.5 -2.5q-6 26 -17 68t-31 111q50 -11 71 -11q20 0 67 11q9 -68 16 -110.5t12 -68.5q33 0 71 2.5t95 10.5q-1 -25 -1 -42.5
t2 -24.5t9 -24.5t18 -42.5q-60 8 -99.5 10.5t-73.5 2.5l4 -20q2 -12 4 -23t5 -22q2 -12 4.5 -23.5t5.5 -22.5l5 -20q31 1 73.5 3t94.5 10q-1 -25 -1 -42.5t2 -24.5t9 -24.5t18 -42.5q-63 9 -102.5 11.5t-69.5 2.5q6 -26 17 -68t31 -111q-24 5 -42.5 8t-28.5 3t-27 -3t-40 -8
q-9 67 -16 110t-12 69q-33 0 -71 -2.5t-95 -10.5q1 25 1 42.5t-2 23.5q-2 8 -9 25.5t-18 42.5q63 -9 102.5 -11.5t70.5 -2.5q-2 7 -2.5 10.5l-1.5 10.5l-4 22t-4 23z" />
    <glyph glyph-name="bullet" unicode="&#x2022;" horiz-adv-x="400" 
d="M16 341q-8 38 -1 71.5t26.5 58.5t50 39.5t68.5 14.5t75 -14.5t67 -39.5t52 -58.5t30 -71.5t0.5 -71.5t-27 -58.5t-50 -39.5t-68.5 -14.5t-75 14.5t-67 39.5t-51.5 58.5t-29.5 71.5z" />
    <glyph glyph-name="ellipsis" unicode="&#x2026;" horiz-adv-x="862" 
d="M44 69q-4 16 -0.5 30.5t12 25.5t21.5 17.5t29 6.5t32 -6.5t29.5 -17.5t23 -25.5t13.5 -30.5q3 -16 0 -30.5t-11.5 -25.5t-22 -17.5t-29.5 -6.5t-32 6.5t-29.5 17.5t-23 25.5t-12.5 30.5zM658 69q-4 16 -1 30.5t11.5 25.5t21.5 17.5t30 6.5q16 0 32 -6.5t29.5 -17.5
t23 -25.5t13.5 -30.5q3 -16 0 -30.5t-12 -25.5t-22 -17.5t-29 -6.5q-17 0 -32.5 6.5t-29 17.5t-23 25.5t-12.5 30.5zM351 69q-4 16 -0.5 30.5t12 25.5t21.5 17.5t29 6.5t32 -6.5t29.5 -17.5t23 -25.5t13.5 -30.5q3 -16 0 -30.5t-12 -25.5t-22 -17.5t-29 -6.5t-32 6.5
t-29.5 17.5t-23 25.5t-12.5 30.5z" />
    <glyph glyph-name="perthousand" unicode="&#x2030;" horiz-adv-x="980" 
d="M379 160q-11 51 -3 84.5t26.5 53.5t44.5 28.5t52 8.5q21 0 45 -5.5t47.5 -18.5t44.5 -35t36 -54q1 32 13 54t29.5 35t39.5 18.5t43 5.5q26 0 55.5 -8.5t57 -28.5t49 -53.5t32.5 -84.5q11 -50 3.5 -84t-26 -54t-44.5 -28.5t-52 -8.5q-21 0 -45.5 5.5t-47.5 19t-44 35
t-36 53.5q-2 -32 -13.5 -53.5t-29.5 -35t-39.5 -19t-42.5 -5.5q-26 0 -55.5 8.5t-57 28.5t-49.5 54t-33 84zM3 499q-10 51 -2.5 84.5t26.5 53.5t44.5 28.5t51.5 8.5t55.5 -8.5t56.5 -28.5t48.5 -53.5t32.5 -84.5q11 -50 3.5 -84t-26 -54t-44 -28.5t-51.5 -8.5t-55.5 8.5
t-57 28.5t-49.5 54t-33 84zM412 703q17 -6 27 -9t12 -3t22 7.5t53 20.5l-241 -762q-16 5 -26 8.5t-12 3.5q-3 0 -23 -7.5t-52 -21.5zM795 160q10 -43 23.5 -70t36.5 -27t25.5 27t-7.5 70q-9 43 -22.5 70.5t-36.5 27.5t-25.5 -27.5t6.5 -70.5zM497 160q10 -43 23.5 -70
t36.5 -27t25 27t-8 70q-9 43 -22 70.5t-36 27.5t-25.5 -27.5t6.5 -70.5zM121 499q9 -43 23 -70t37 -27t24.5 27t-7.5 70t-22 70.5t-36 27.5t-25.5 -27.5t6.5 -70.5z" />
    <glyph glyph-name="guilsinglleft" unicode="&#x2039;" horiz-adv-x="197" 
d="M81 467q16 -20 40 -36.5t52 -19.5l-82 -170q16 -19 36 -42t40 -46.5t39 -45.5t34 -40q-22 -2 -40.5 -20t-23.5 -41l-198 236z" />
    <glyph glyph-name="guilsinglright" unicode="&#x203a;" horiz-adv-x="195" 
d="M-45 415q22 3 39.5 21t22.5 41l200 -237l-105 -224q-15 20 -39 36t-53 20l83 169z" />
    <glyph glyph-name="fraction" unicode="&#x2044;" horiz-adv-x="329" 
d="M177 694q17 -7 27.5 -10t12.5 -3t19 6.5t45 18.5l-130 -740q-37 13 -40 13q-2 0 -19 -6.5t-45 -18.5z" />
    <glyph glyph-name="Euro" unicode="&#x20ac;" horiz-adv-x="577" 
d="M491 590q-2 -17 -3 -39.5t-2 -50.5l-52 -1q-30 38 -66.5 59t-63.5 21q-44 0 -72 -37t-27 -114h120h26.5t30.5 1.5t38 4.5t48 9q-8 -31 -11 -56.5t-5 -43.5q2 0 4.5 0.5t4.5 0.5q-11 -41 -13.5 -74t-2.5 -47q-36 6 -64.5 8t-48.5 2h-91q30 -72 75 -110.5t93 -38.5
q31 0 64.5 22.5t65.5 68.5l40 -54q1 -14 2 -31.5t3 -39.5q-12 -13 -31 -24.5t-42 -19.5t-48 -13t-48 -5q-48 0 -94 17.5t-87 50t-75 77.5t-57 99q-19 -2 -40 -5.5t-45 -8.5q5 29 7.5 55.5t0.5 49.5q-11 -3 -29 -6q11 71 9 121q16 -2 31.5 -4.5t29.5 -3.5q4 51 20.5 95.5
t45 77.5t68 52t87.5 19q22 0 46.5 -4t49 -10.5t47.5 -16t43 -19.5zM318 330h24t27 1q-9 1 -16.5 1h-13.5h-125q1 -1 0 -2h104v0z" />
    <glyph glyph-name="trademark" unicode="&#x2122;" horiz-adv-x="870" 
d="M120 601q-16 0 -35 -1t-37.5 -2.5t-35 -2.5t-27.5 -2q6 21 9.5 34t3.5 15q0 1 -9 13.5t-24 33.5q18 -1 43 -2.5t51.5 -2.5t51.5 -1.5t43 -0.5t43 0.5t51 1.5t50.5 2.5t42.5 2.5v3h51q38 -57 80.5 -115t82.5 -110l10.5 -13.5t6.5 -7.5t6.5 -7.5t11.5 -14.5l15 41
q18 52 39 113.5t38 113.5h47l44 -142q10 -32 24.5 -74t29.5 -85t29 -83t24 -67q-24 8 -41.5 12.5t-22.5 4.5t-17.5 -4t-32.5 -10q-11 46 -26 102t-35 115q-3 7 -6 18q-9 -25 -18.5 -55t-18 -60t-15.5 -57t-11 -47h-44q-28 43 -53 77.5t-51 67.5q-11 15 -21 29t-21 28l-6 10
q1 -6 1 -9.5t1 -9.5q5 -46 12 -97.5t20 -114.5q-22 8 -36 12.5t-16 4.5q-3 0 -17 -5.5t-37 -14.5q0 28 -1.5 65.5t-3.5 78t-4 80.5t-5 73q-2 13 -2.5 28t-2.5 32q-30 2 -64.5 4t-60.5 2l21 -102q9 -41 17.5 -81t19.5 -82q2 -8 5.5 -21.5l7 -27t6.5 -26t5 -18.5
q-23 6 -40 10.5t-22 4.5t-18.5 -4.5t-33.5 -10.5l-11 50q-6 35 -15 83t-23 116zM348 613q-2 20 -3.5 39.5t-3.5 35.5q-5 -21 -8.5 -33t-3.5 -13q0 -4 19 -29z" />
    <glyph glyph-name="minus" unicode="&#x2212;" horiz-adv-x="593" 
d="M23 312h522l22 -103h-522z" />
    <glyph glyph-name="fi" unicode="&#xfb01;" horiz-adv-x="507" 
d="M234 612q-15 9 -29 13.5t-25 4.5q-26 0 -32 -19.5t-1 -44.5q2 -11 9 -34.5t15 -46.5h23h17t23 0.5t23 0.5h17q1 -17 2 -31t2 -15q0 -2 5 -15.5t11 -30.5h-13t-19.5 0.5t-19.5 0.5h-13q-8 0 -11.5 0.5t-6 1t-6 0.5h-11.5q10 -48 21.5 -100t23 -105t23 -104.5t22.5 -98.5
q-24 5 -42.5 8t-27.5 3q-8 0 -26 -3t-42 -8q-15 102 -35 204t-41 203q-4 0 -7.5 -0.5t-7.5 -0.5h-11t-17 -0.5t-17 -0.5h-11q0 17 -0.5 30.5t-0.5 15.5q-1 1 -6 15t-11 31h13.5t19.5 -0.5t19.5 -0.5h13.5h5q-3 28 -2.5 58.5t6 59t15 54t23.5 43.5q16 20 43.5 35.5t59.5 15.5
q10 0 48 -11q5 -25 6.5 -35t2.5 -18v1q2 -11 5 -29t5 -29zM360 291q-8 41 -22 93.5t-32 112.5q26 -5 45.5 -8t29.5 -3t28.5 3t42.5 8q5 -60 14.5 -112.5t17.5 -93.5l21 -96q8 -41 21.5 -94t32.5 -112q-26 5 -45.5 8t-29.5 3t-28.5 -3t-42.5 -8q-6 59 -15 112t-17 94z
M277 624q-7 30 10.5 52t48.5 22q15 0 30 -6t27.5 -16t21.5 -23.5t12 -28.5q6 -31 -12 -53t-48 -22q-31 0 -57.5 22t-32.5 53z" />
    <glyph glyph-name="fl" unicode="&#xfb02;" horiz-adv-x="513" 
d="M234 612q-15 9 -29 13.5t-24 4.5q-26 0 -32.5 -19.5t-1.5 -44.5q2 -11 9 -34.5t15 -46.5h23h17t23 0.5t23 0.5h17q2 -17 3 -31t1 -15q0 -2 5 -15.5t12 -30.5h-13.5t-20 0.5t-19.5 0.5h-13q-8 0 -11.5 0.5t-6 1t-6 0.5h-11.5q10 -48 21.5 -100t23 -105t23.5 -104.5
t23 -98.5q-25 5 -43.5 8t-27.5 3q-8 0 -26 -3t-41 -8q-15 102 -35 204t-42 203q-4 0 -7.5 -0.5t-7.5 -0.5h-11t-17 -0.5t-16.5 -0.5h-10.5q-1 17 -1.5 30.5t-0.5 15.5q0 1 -5.5 15t-11.5 31h13.5t19.5 -0.5t19.5 -0.5h13.5h5q-3 28 -2 58.5t6 59t15 54t24 43.5
q15 20 42.5 35.5t59.5 15.5q12 0 48 -11q5 -25 6.5 -35t2.5 -18v1q2 -11 5 -29t5 -29zM332 455q-7 30 -15.5 67.5t-18.5 77.5t-20.5 79.5t-20.5 74.5q26 -5 45.5 -8t29.5 -3t28 3t42 8q4 -35 10.5 -74.5t13.5 -79.5t14.5 -77.5t14.5 -67.5l35 -167q6 -30 15 -67.5
t18.5 -77.5t20 -79.5t21.5 -74.5q-26 5 -45.5 8t-29.5 3t-28.5 -3t-41.5 -8q-5 35 -11 74.5t-13.5 79.5t-15 77.5l-13.5 67.5z" />
    <glyph glyph-name="LDO" horiz-adv-x="720" 
d="M343 162q0 -2 -1.5 -6t-1.5 -5v-7h-4v10q4 4 7 8zM288 144q4 7 4 18h15q-7 0 -7 -8q0 -25 3 -32h4q2 5 7 14h4v-14h-11q-1 0 -2.5 1t-2.5 3t-2 3h-8q0 1 -2 6t-2 9zM374 110v15q3 0 5 1.5t3 2.5v-13q2 -1 4 -2.5t6 -3.5l1 -16q-6 7 -19 16zM89 627q24 7 64 7q25 0 37 -7
q10 -7 34 -7q19 9 22 18q29 0 33 24l9 4q2 3 7 5q5 0 5 2q5 2 7.5 6.5t10.5 4.5q1 3 7 6q7 2 7 5q32 0 32 18q8 0 13 6q4 7 12 7q1 2 9.5 5t8.5 6q7 0 10 3q12 8 16 8l9 4q7 2 7 7q11 0 22 4q11 3 19 3q0 4 7 8q7 2 8 3l89 19l42 -4l15 -8q7 -3 11 -7q10 -7 31 -18l7 -42
q-42 0 -42 5q-5 0 -14 4t-11 4q0 4 -1.5 5.5t-6.5 4.5h-68q-3 -3 -7 -10q-7 0 -21 -4t-21 -4q-13 -9 -18.5 -9t-14.5 -3q-4 0 -8 -6l-6 -6q-10 -3 -8 -3h-4q-1 -3 -8.5 -5l-7.5 -2q-3 0 -5.5 -2t-6.5 -5t-6 -5q-11 0 -15 -10q-5 0 -6 -2.5t-1 -9.5q-6 0 -13.5 -3.5t-8 -3.5
t-6.5 -4.5t-14 -4.5q-2 -1 -7 -2t-8 -6q-2 -1 -4 -4q-2 -5 -3 -6q-11 0 -11 -8q-4 0 -7 -1.5t-6 -4.5l-5 -5q-15 0 -15 -11q-5 0 -13 -7v-11q-4 -3 -6.5 -4t-4.5 -5v-15q6 -7 11 -7v-48q-6 0 -11 -9v-11q-2 -2 -4 -3q-3 -2 -7 -4v-22q-6 -3 -7 -4.5t-1 -10.5q0 -11 -3 -11
l-7 -7q-9 -4 -10.5 -6t-1.5 -10q-9 -4 -15 -8t-8 -11q-11 -11 -44 -11q-17 11 -35 11q-2 3 -7 11h-15q-3 0 -9 4q-7 4 -13 4q0 11 -11 16q0 7 -4 11q-10 0 -21 -1l-11 -1q-4 0 -11 7q-3 2 -6 2v55q2 3 5 5l6 4l4 83q1 0 2.5 1t2.5 3t2 3v15q5 2 6 6t5 4q0 1 10 4.5t10 7.5
q21 7 26 7zM385 132q-4 5 -7 7q-4 1 -15 1v18q6 -6 18 -14q0 -8 4 -12zM400 132q3 -3 3 -7q-3 3 -10 7h7zM403 125h7q5 2 12 10q6 9 10 9q-1 -4 -3.5 -6t-6.5 -6v-14l6 -4t4 -4q-4 0 -10 -7v-13l7 -7h17q1 -6 4 -10q2 -6 18 -12q3 11 3 22q-9 11 -22 11v31q3 0 11 7l-6 6
q-3 2 -5 6q2 -1 12 -5q6 -2 17 -5q6 -2 19 -2v-22q3 -2 6.5 -3.5t4.5 -3.5q0 -16 4 -20h9q3 3 3 14v6q9 0 13 1.5t9 5.5q-7 8 -11 8v14q3 0 11 8v26q-3 2 -6 3.5t-5 5.5q0 8 -1.5 10t-9.5 5q7 0 12.5 5t6.5 5v-10q0 -8 7 -8q3 -10 4 -11.5t7 -4.5q0 -15 8 -22h3q2 2 4 8t3 6
q20 7 20 24q5 0 18 8v-58h-7q-3 -3 -3 -14q-4 -1 -14 -8q10 -7 32 -7q0 -5 -2 -6.5t-5 -6.5v-36q-4 2 -5.5 3.5t-2 3.5t-3.5 7h-20q0 -2 -2 -6q-2 -6 -2 -8q-4 0 -11 -8q7 0 11 -3v-7q-2 -2 -5 -3.5t-6 -4.5v-16q-19 0 -22 -8v-7l1 -1q0 1 -4 1q0 3 -2 8t-2 7q-18 0 -23 -8
v-7q11 -11 22 -11v-7h-7q-12 -5 -21 -7q-4 -1 -10 -1v15q7 0 7 7q0 35 -3 43h-3q-8 -8 -8 -39q-7 0 -11 -4v-14h-26l-4 -8v-38q-10 0 -24 -4q9 -7 14 -7v-18q-6 2 -6 6q0 3 -7 5h-4q-5 -2 -6 -5q-2 -4 -5 -6v18q3 0 11 7q0 57 -7 64h-4q-1 -1 -3 -2l-1 -1l4 3q-4 4 -11 4
q0 31 -7 39h-4q-6 -3 -5 -21q1 -34 1 -31v-55q0 -1 4 -3t4 -4v-7q0 -1 -3.5 -4.5t-3.5 -6.5h-29v25q0 2 -1 3l-4 2q-2 1 -5 3q-2 7 -7 16h-4q-7 -7 -7 -24q3 -2 7 -3l4 -4v-7q-5 -4 -15 -11q3 0 11 11v7q0 7 -18 7q-15 0 -18 -7v-11q0 4 -7 4q0 10 -5 15q-5 4 -16 7v16l-7 4
h-15v14q-6 8 -11 8q-4 12 -22 18v31q11 3 11 15q2 0 5.5 1.5t5.5 1.5q0 19 -4 22h-7q-3 -3 -3 -14q-5 0 -19 -8v44q4 0 7 2t4 2v38h18v-14q-5 0 -7 -4q-2 -2 -3 -4q29 0 36 8v7l-4 4l4 -4h17q0 -31 3 -35h-9l-7 -7v-15q-6 -2 -7 -3.5t-4 -10.5q-4 0 -11 -8h35v-10
q-9 -4 -13 -8q0 -11 7 -24q10 4 21 17v22h7q1 -12 3 -31h8q4 3 4 16q18 0 21 8v7l-7 7l7 4v14q3 -2 8 -3.5t7 -3.5q0 -8 1 -9.5t5 -8.5q27 0 32 11v9h-1q1 -2 5 -2q6 8 6.5 11t0.5 11q3 0 11 7v20q-7 8 -11 8q0 2 -2 4t-2 3zM617 129q2 -1 3 -2l1 -2h8q0 -3 -4 -7h-3
q-5 4 -5 11zM629 125q0 4 3 7q0 -2 -1 -3q-2 -3 -2 -4zM632 132v50q4 0 11 8v10h15l4 8v22h7v-90q-1 -2 -5 -3q-3 -2 -6 -5v-14l-14 -8q0 19 -8 22h-4zM456 -67q2 -1 3 -2l1 -2v3q-1 1 -4 1zM460 -71q4 -1 9 -8l6 -6q0 7 -7 14h-8zM468 -67q3 9 3 31h15q2 -2 3 -4q0 -4 4 -6
q2 -1 4 -1q-2 -2 -5 -3.5t-6 -3.5v-9q0 -5 -3 -5q-3 1 -6 1h-9zM414 -10q-1 -5 -1 -15v-12q0 -20 -2 -26h-4v49q3 0 7 4zM307 -89l3 -4q0 3 -1 4h-2zM310 -93q4 0 8 -3q-8 0 -8 3zM264 129q-3 0 -7 3v12l-7 7h-15v15q11 0 11 9v7q-1 3 -5.5 5t-5.5 3v10q-6 8 -11 8
q3 0 7 2.5t4 4.5v7q0 3 -4 4q-5 2 -7 4v34h8v-16l3 -7h15v-33q-8 0 -8 -8v-7q0 -3 8 -3v-24q2 -1 6 -4t5 -4v-26zM296 90q4 4 4 20h13q-2 -1 -3.5 -3t-2.5 -4v-31q-1 1 -3 2.5t-4 1.5q0 7 -4 14zM307 72l4.5 -2t6.5 -2h-8q-1 1 -1 2zM318 68q1 7 7 15v-15h-7zM531 237
q2 -2 3 -4l4 -2q2 -1 4 -1l1 -15h-18q0 8 -1.5 10t-11.5 5q0 34 -4 42h-3q-4 -2 -5 -8q-2 -6 -3 -7h-4v15h15q1 6 4 14h9v-14q8 -8 11 -8zM511 305q0 7 -6 7q-8 -7 -12 -7v14h15q0 -3 1.5 -8t1.5 -6zM300 290h-12q0 -2 -1.5 -6t-1.5 -5q-27 -7 -28 -7v25h15l7 8v14
q27 0 31 20q18 5 22 22h15q0 -29 7 -34h4q6 5 6 20q7 4 10 7v15q9 -8 11 -8h8q-1 0 7 8q0 -18 7 -22h4l3.5 7l3.5 7h15q1 -5 4 -11q1 -1 9 -3q-14 0 -14 -8v-7q4 -5 36 -5v-15h-39q-2 2 -3 8q-3 6 -4 7h-4q-2 -5 -7 -15h-4q-2 3 -7 15h-15q0 -6 -3 -15h-8q0 4 -3 15h-28
q-2 -6 -7 -15q-10 0 -20 -8z" />
    </font>
</defs>
</svg>
