<?xml version="1.0" standalone="no"?>
<!DOCTYPE svg PUBLIC "-//W3C//DTD SVG 1.1//EN" "http://www.w3.org/Graphics/SVG/1.1/DTD/svg11.dtd" >
<svg xmlns="http://www.w3.org/2000/svg" xmlns:xlink="http://www.w3.org/1999/xlink" version="1.1">
<metadata>
Created by FontForge 20170731 at Mon Apr 12 07:35:05 2004
 By Aleksey,,,
Copyright (c) LDO Fonts, 2004. All rights reserved.
</metadata>
<defs>
<font id="OregonLDOExtraBold" horiz-adv-x="176" >
  <font-face 
    font-family="Oregon LDO ExtraBold"
    font-weight="800"
    font-stretch="normal"
    units-per-em="1000"
    panose-1="2 11 9 3 6 4 2 2 2 4"
    ascent="800"
    descent="-200"
    x-height="491"
    cap-height="691"
    bbox="-33 -285 1033 904"
    underline-thickness="50"
    underline-position="-150"
    unicode-range="U+0020-FB02"
  />
<missing-glyph horiz-adv-x="278" 
 />
    <glyph glyph-name=".notdef" horiz-adv-x="278" 
 />
    <glyph glyph-name=".null" horiz-adv-x="0" 
 />
    <glyph glyph-name="nonmarkingreturn" horiz-adv-x="278" 
 />
    <glyph glyph-name="space" unicode=" " horiz-adv-x="278" 
 />
    <glyph glyph-name="space" unicode="&#xa0;" horiz-adv-x="278" 
 />
    <glyph glyph-name="exclam" unicode="!" horiz-adv-x="174" 
d="M55 160q-2 23 -5.5 64t-8 89t-8.5 99.5t-7.5 95.5t-6 77t-2.5 44q0 38 21.5 53.5t47.5 15.5t47.5 -15.5t21.5 -53.5q0 -6 -1.5 -31t-4.5 -62.5t-7 -84.5t-8 -96.5t-8.5 -100t-8.5 -94.5h-62zM9 65q0 32 22.5 54.5t54.5 22.5t54.5 -22.5t22.5 -54.5t-22.5 -54t-54.5 -22
t-54.5 22t-22.5 54z" />
    <glyph glyph-name="quotedbl" unicode="&#x22;" horiz-adv-x="289" 
d="M26 698h96v-315h-96v315zM165 698h96v-315h-96v315z" />
    <glyph glyph-name="numbersign" unicode="#" horiz-adv-x="442" 
d="M126 403h-79q6 13 12 30t10.5 34t7 32.5t2.5 26.5h73q10 52 15 77t6.5 36.5t1 15.5t-0.5 14q36 -10 43 -10q6 0 61 16q-7 -16 -12.5 -29.5t-11 -30t-11 -38t-11.5 -51.5h60q10 52 15 77t6.5 36.5t1 15.5t-0.5 14q36 -10 43 -10q6 0 61 16q-7 -16 -12.5 -29.5t-11 -30
t-11 -38t-11.5 -51.5h77q-5 -12 -10.5 -28.5t-10 -34t-7 -33.5t-2.5 -27h-72l-7.5 -37.5t-7.5 -34.5t-8 -35t-8 -40h77q-5 -13 -10.5 -29.5t-10 -34t-7 -33t-2.5 -26.5h-72q-16 -58 -20.5 -92.5t-6.5 -43.5q-12 0 -25.5 0.5t-13.5 2.5q0 -1 -5.5 -1.5t-14 -1t-18 -0.5h-16.5
q4 11 8.5 21.5t9 25.5t9.5 36t12 53h-59q-16 -58 -20.5 -92.5t-6.5 -43.5q-12 0 -25.5 0.5t-13.5 2.5q0 -1 -5.5 -1.5t-14 -1t-18 -0.5h-16.5q4 11 8.5 21.5t9 25.5t9.5 36t12 53h-79q6 13 12 29.5t10.5 33.5t7 33t2.5 27h73zM266 403h-59l-7.5 -37.5t-7.5 -34.5t-8 -35
t-8 -40h60z" />
    <glyph glyph-name="dollar" unicode="$" horiz-adv-x="442" 
d="M184 291q-42 17 -72.5 35t-50.5 40t-30 50t-10 65q0 73 43.5 123.5t119.5 64.5q-1 16 -5 36.5t-14 52.5q23 -8 39 -13t20 -5q5 0 20 4.5t37 12.5q-8 -33 -11.5 -53.5t-3.5 -30.5q54 -5 89.5 -23.5t59.5 -35.5q-13 -23 -21 -47t-16 -57h-45q-4 10 -10 22t-14 23t-19 20
t-24 13v-195q40 -16 71.5 -33t53 -38t32.5 -48t11 -64q0 -36 -12 -70t-33.5 -62.5t-52.5 -50.5t-70 -33q0 -22 2.5 -49.5t10.5 -69.5q-22 7 -36 11.5t-19 4.5q-4 0 -18 -4.5t-36 -11.5q12 70 14 110h-2q-48 0 -92.5 16t-89.5 51q11 29 16 52.5t9 57.5h46q27 -49 56.5 -69
t56.5 -25v223zM266 82q24 14 36.5 39t12.5 55q0 20 -7 38.5t-42 40.5v-173zM184 582q-21 -11 -32.5 -30.5t-11.5 -45.5q0 -52 44 -79v155z" />
    <glyph glyph-name="percent" unicode="%" horiz-adv-x="851" 
d="M26 496q0 38 12.5 70.5t35.5 56.5t55 37.5t71 13.5t71.5 -13.5t55 -37.5t35 -56.5t12.5 -70.5t-12.5 -71t-35 -57t-55 -37.5t-71.5 -13.5t-71 13.5t-55 37.5t-35.5 57t-12.5 71zM477 163q0 38 12.5 71t35 57t55 37.5t71.5 13.5t71 -13.5t54.5 -37.5t35 -57t12.5 -71
t-12.5 -70.5t-35 -56.5t-54.5 -37.5t-71 -13.5t-71.5 13.5t-55 37.5t-35 56.5t-12.5 70.5zM565 701q24 -10 34 -10q3 0 21.5 6t47.5 17l-385 -756q-13 5 -21.5 7.5t-11.5 2.5q-4 0 -22.5 -6t-47.5 -17zM142 496q0 -21 3.5 -41t10.5 -35.5t18 -24.5t26 -9t26 9t18 24.5
t10.5 35.5t3.5 41t-3.5 41t-10.5 35t-18 24t-26 9t-26 -9t-18 -24t-10.5 -35t-3.5 -41zM593 163q0 -21 3.5 -41t10.5 -35t18 -24t26 -9t26 9t18 24t10.5 35t3.5 41t-3.5 41t-10.5 35.5t-18 24.5t-26 9t-26 -9t-18 -24.5t-10.5 -35.5t-3.5 -41z" />
    <glyph glyph-name="ampersand" unicode="&#x26;" horiz-adv-x="641" 
d="M130 511q0 34 12.5 64t34.5 52t52.5 34.5t67.5 12.5q64 0 105.5 -32.5t41.5 -95.5q0 -27 -10.5 -52t-27 -46.5t-37 -39.5t-41.5 -32q1 -5 4 -7v1q18 -24 33 -43t29 -37t28.5 -35.5t32.5 -37.5q29 42 56.5 89.5t56.5 113.5q17 -37 34.5 -56t33.5 -30q-33 -52 -64 -96.5
t-63 -84.5q15 -18 34 -39t38 -42.5t37 -41.5t31 -35h-36t-20 0.5t-10 1t-4 0.5h1q-21 3 -42 3q-8 0 -19 -1t-22 -3q-2 0 -12.5 -0.5t-13.5 -0.5q-9 15 -22 34t-25 34q-41 -35 -88 -57.5t-112 -22.5q-41 0 -77.5 11.5t-64 34.5t-44 57t-16.5 78q0 32 12 62.5t33.5 57.5
t50.5 50.5t63 40.5q-23 36 -37 69t-14 67zM146 181q0 -21 8.5 -40t23.5 -34t35.5 -24t45.5 -9q35 0 63 12t53 33q-39 48 -76 94.5t-74 98.5q-36 -25 -57.5 -55.5t-21.5 -75.5zM349 547q0 24 -14 39t-37 15q-26 0 -41 -18.5t-15 -45.5q0 -21 11 -48.5t30 -53.5
q31 25 48.5 55.5t17.5 56.5z" />
    <glyph glyph-name="quotesingle" unicode="'" horiz-adv-x="144" 
d="M21 698h96v-315h-96v315z" />
    <glyph glyph-name="parenleft" unicode="(" horiz-adv-x="215" 
d="M220 660q-38 -48 -61 -93t-36.5 -90.5t-18 -92.5t-4.5 -98q0 -52 4.5 -99t18 -92.5t36.5 -90.5t61 -93l-50 -48q-86 93 -130.5 202t-44.5 221q0 53 11 108t33 109.5t54.5 106t75.5 97.5z" />
    <glyph glyph-name="parenright" unicode=")" horiz-adv-x="215" 
d="M-6 -89q37 48 60.5 93t37 90.5t18 92.5t4.5 99q0 51 -4.5 98t-18 92.5t-37 90.5t-60.5 93l50 48q86 -93 130.5 -201.5t44.5 -220.5q0 -53 -11 -108.5t-33 -110t-54.5 -106t-75.5 -97.5z" />
    <glyph glyph-name="asterisk" unicode="*" horiz-adv-x="366" 
d="M130 695q24 -8 36 -11t17 -3q6 0 18 3t35 11l-13 -128q27 20 57 42t50 36q3 -27 18.5 -52.5t39.5 -42.5l-124 -56q30 -14 63.5 -29t56.5 -26q-19 -14 -34.5 -39t-19.5 -55l-107 75q3 -32 6 -66t5 -58q-17 4 -31.5 7.5t-19.5 3.5q-2 0 -18 -3.5t-35 -6.5l11 123
q-26 -20 -55 -41.5t-49 -35.5q-4 29 -19.5 54t-36.5 41l121 55q-32 14 -65 29t-56 26q16 14 31.5 40.5t15.5 59.5l113 -81z" />
    <glyph glyph-name="plus" unicode="+" horiz-adv-x="512" 
d="M-3 307h211v212h96v-212h211v-95h-211v-212h-96v212h-211v95z" />
    <glyph glyph-name="comma" unicode="," 
d="M66 100q5 17 20 34.5t44 17.5q19 0 38.5 -13t19.5 -42q0 -14 -6 -26t-12 -25q-1 -1 -1.5 -2t-1.5 -2l4 4q-29 -50 -63 -108t-63 -107l-58 21z" />
    <glyph glyph-name="hyphen" unicode="-" horiz-adv-x="336" 
d="M28 291h279v-104h-279v104z" />
    <glyph glyph-name="period" unicode="." 
d="M10 65q0 32 22.5 54.5t54.5 22.5t54.5 -22.5t22.5 -54.5t-22.5 -54t-54.5 -22t-54.5 22t-22.5 54z" />
    <glyph glyph-name="slash" unicode="/" horiz-adv-x="334" 
d="M258 708q14 -5 23.5 -7.5t14.5 -2.5q3 0 20 5.5t43 14.5l-283 -745q-14 5 -23.5 7.5t-14.5 2.5q-8 0 -63 -19z" />
    <glyph glyph-name="zero" unicode="0" horiz-adv-x="534" 
d="M25 329q0 71 12.5 133.5t41 109.5t74.5 74.5t114 27.5q75 0 122 -27.5t73.5 -74.5t36.5 -109.5t10 -133.5q0 -68 -14.5 -130.5t-44 -110t-75 -75.5t-108.5 -28q-75 0 -122 27.5t-73.5 74t-36.5 109t-10 133.5zM148 329q0 -57 6 -106t20 -84.5t37 -56t56 -20.5t56 20.5
t37 56t20 84.5t6 106t-6 106t-20 85t-37 56.5t-56 20.5t-56 -19t-37 -54t-20 -84.5t-6 -110.5z" />
    <glyph glyph-name="one" unicode="1" horiz-adv-x="278" 
d="M124 551q-25 -14 -51 -28.5t-46 -25.5q-8 16 -19.5 28.5t-22.5 20.5v35q56 23 117.5 51t118.5 57l30 -17q-3 -61 -5.5 -128.5t-2.5 -129.5v-155q0 -30 1 -65t2 -70.5t2.5 -69.5t3.5 -64q-24 5 -42 7.5t-27 2.5q-8 0 -26 -2.5t-43 -7.5q2 30 4 64.5t3.5 69.5t2 70t0.5 65
v292z" />
    <glyph glyph-name="two" unicode="2" horiz-adv-x="480" 
d="M52 557q37 60 85 88.5t113 28.5q42 0 78.5 -11t63.5 -34t43 -58.5t16 -85.5q0 -35 -7.5 -64.5t-23 -58t-39 -56.5t-54.5 -60q-6 -6 -13 -13.5t-15 -15.5q-18 -18 -32.5 -31.5t-28 -26t-25.5 -26t-24 -29.5h40q33 0 67.5 1t66.5 2.5t59 3t47 3.5q-11 -42 -11 -61
q0 -17 11 -59q-25 1 -54.5 2t-60.5 2t-60.5 1.5t-54.5 0.5q-51 0 -112 -2t-112 -4v49q98 97 158 160.5t92.5 110t43 84.5t10.5 83q0 57 -24.5 84.5t-57.5 27.5q-24 0 -41.5 -10.5t-29.5 -26.5t-18.5 -33.5t-9.5 -31.5l-38 -2z" />
    <glyph glyph-name="three" unicode="3" horiz-adv-x="459" 
d="M46 600q13 13 29 26t36.5 23.5t44.5 17.5t53 7q42 0 78.5 -9.5t64 -30t43.5 -51t16 -72.5q0 -53 -25 -90t-57 -59q21 -7 41.5 -19.5t36 -31t25 -44.5t9.5 -61q0 -47 -19 -87.5t-53.5 -70t-82.5 -46.5t-107 -17q-53 0 -95 13.5t-77 30.5q7 14 13 39.5t7 42.5l34 19
q9 -11 22 -23t28.5 -22t33 -16.5t36.5 -6.5q59 0 93 37t34 95q0 64 -30.5 90t-77.5 26q-10 0 -30 -4t-40 -9q2 17 4 32t2 18q0 2 -2 16t-4 32q22 -4 42 -6.5t28 -2.5q25 0 41 11.5t25 29.5t12.5 39t3.5 40q0 48 -24 69.5t-53 21.5q-30 0 -53.5 -22.5t-33.5 -51.5l-40 -2z
" />
    <glyph glyph-name="four" unicode="4" horiz-adv-x="508" 
d="M-4 215q41 58 87.5 123.5t90.5 128t81 116.5t59 89q30 -8 42 -8q7 0 21 3.5t34 9.5q-2 -41 -3.5 -91t-2.5 -104t-1.5 -108.5t-0.5 -103.5q23 2 50.5 5t50.5 8q-14 -50 -14 -61q0 -7 3.5 -22.5t9.5 -37.5q-29 5 -54.5 8t-45.5 4v-16q0 -32 1.5 -65.5t3.5 -58.5v-8.5
t0.5 -14t0.5 -14v-7.5q-23 5 -40 7.5t-25 2.5q-6 0 -23.5 -3t-43.5 -8q1 13 3 34.5t3.5 45.5t2.5 47.5t1 41.5v16q-28 0 -70 -1t-85.5 -2.5t-80.5 -2.5t-55 -2v49zM285 487q-20 -27 -41 -57t-41 -59t-37.5 -55t-30.5 -47h152z" />
    <glyph glyph-name="five" unicode="5" horiz-adv-x="461" 
d="M163 410q14 5 32.5 7.5t46.5 2.5q46 0 83.5 -16t64 -43.5t41 -63.5t14.5 -76q0 -49 -19 -92t-52.5 -75t-80.5 -50.5t-104 -18.5q-45 0 -89.5 11t-83.5 37v25q6 13 10.5 34t6.5 39h41q9 -17 22.5 -30t29.5 -21.5t33.5 -13t33.5 -4.5q23 0 44.5 9t38 27.5t26.5 46.5t10 66
q0 33 -9 56.5t-24 38.5t-34 21.5t-40 6.5q-17 0 -32 -4.5t-28 -10t-22 -11.5t-14 -9l-37 23q8 48 10 89.5t2 79.5q0 37 -2 81.5t-7 83.5l29 20l28 -4t31 -4q39 -3 112 -3h43.5t40 0.5t33.5 1t24 0.5l20 -19q-9 -35 -9 -60v-4t1 -6.5t2 -13t4 -22.5q-28 5 -63 8.5t-71 6
t-70 3.5t-58 1z" />
    <glyph glyph-name="six" unicode="6" horiz-adv-x="491" 
d="M403 612l-25 -24q-29 9 -56 9q-38 0 -67 -20t-50 -51.5t-34 -71t-19 -77.5q21 17 52 29t69 12q28 0 64 -8.5t68 -30.5t54 -60.5t22 -99.5q0 -52 -16.5 -95t-46.5 -74t-73 -48t-95 -17q-45 0 -86 15.5t-73 50.5t-51 90.5t-19 135.5v3q0 81 19.5 152.5t57 125.5t92.5 85
t127 31h6q19 0 30.5 -1.5t24.5 -3.5zM352 200q0 60 -23.5 98.5t-71.5 38.5q-23 0 -42.5 -10t-33.5 -28.5t-22.5 -43.5t-8.5 -55q0 -61 28.5 -99.5t72.5 -38.5q48 0 74.5 38.5t26.5 99.5z" />
    <glyph glyph-name="seven" unicode="7" horiz-adv-x="464" 
d="M469 614q-42 -71 -86.5 -149t-89.5 -158t-88 -160t-81 -155q-16 3 -28 5.5t-20 2.5q-7 0 -29 -5t-54 -13q44 70 93.5 151.5t96 159t86 145t64.5 110.5q-51 -1 -131.5 -3.5t-181.5 -7.5q3 20 5.5 39t2.5 28t-2.5 27.5t-5.5 38.5q19 -2 40.5 -3t42.5 -2.5t39.5 -2.5
t31.5 -1q16 0 38.5 -0.5t47.5 -1t48.5 -0.5h41.5q14 0 27 0.5t25 0.5h67v-46z" />
    <glyph glyph-name="eight" unicode="8" horiz-adv-x="505" 
d="M21 190q0 55 24.5 102.5t81.5 78.5q-29 19 -51.5 52t-22.5 79q0 34 14 65t40.5 55t63 38t81.5 14q52 0 90 -13.5t63 -36t37 -51.5t12 -60q0 -39 -19 -75.5t-55 -61.5q18 -8 36.5 -21.5t33.5 -33.5t24 -47t9 -62q0 -51 -18 -93t-49.5 -72t-73.5 -46t-90 -16
q-49 0 -91.5 13.5t-73.5 40t-48.5 64.5t-17.5 87zM355 195q0 59 -27.5 96.5t-75.5 37.5t-75.5 -37.5t-27.5 -96.5q0 -58 27.5 -95.5t75.5 -37.5t75.5 37.5t27.5 95.5zM330 501q0 39 -18 67.5t-59 28.5q-40 0 -58.5 -28.5t-18.5 -67.5t18.5 -67.5t58.5 -28.5q41 0 59 28.5
t18 67.5z" />
    <glyph glyph-name="nine" unicode="9" horiz-adv-x="498" 
d="M90 109q25 -22 48.5 -34.5t44.5 -12.5q37 0 65 18t47.5 49t31 70.5t16.5 83.5q-23 -18 -55 -29.5t-69 -11.5q-94 0 -149 54.5t-55 154.5q0 48 16 88.5t46 70.5t72.5 47t95.5 17q46 0 88 -15.5t74 -50.5t51 -90.5t19 -135.5q0 -83 -20 -155.5t-58.5 -126t-94 -84.5
t-125.5 -31q-26 0 -52 6.5t-42 13.5q-3 14 -11 35.5t-19 41.5zM345 475q0 54 -27.5 88t-73.5 34q-45 0 -73 -39.5t-28 -106.5q0 -68 24.5 -98t67.5 -30q27 0 47.5 13t34.5 34t21 48.5t7 56.5z" />
    <glyph glyph-name="colon" unicode=":" horiz-adv-x="185" 
d="M14 407q0 32 22.5 54t54.5 22t54.5 -22t22.5 -54t-22.5 -54.5t-54.5 -22.5t-54.5 22.5t-22.5 54.5zM14 65q0 32 22.5 54.5t54.5 22.5t54.5 -22.5t22.5 -54.5t-22.5 -54t-54.5 -22t-54.5 22t-22.5 54z" />
    <glyph glyph-name="semicolon" unicode=";" horiz-adv-x="192" 
d="M71 100q4 17 19 34.5t44 17.5q19 0 38.5 -13t19.5 -42q0 -14 -5.5 -26t-12.5 -25q-2 -2 -2 -4l3 4q-14 -25 -30 -52.5t-32.5 -55.5t-32.5 -55.5t-31 -51.5l-58 21zM46 407q0 32 22.5 54t54.5 22t54.5 -22t22.5 -54t-22.5 -54.5t-54.5 -22.5t-54.5 22.5t-22.5 54.5z" />
    <glyph glyph-name="less" unicode="&#x3c;" horiz-adv-x="549" 
d="M-4 300l518 242v-101l-394 -182q97 -45 197.5 -91t196.5 -91v-100l-518 244v79z" />
    <glyph glyph-name="equal" unicode="=" horiz-adv-x="559" 
d="M555 302h-518v96h518v-96zM555 121h-518v96h518v-96z" />
    <glyph glyph-name="greater" unicode="&#x3e;" horiz-adv-x="548" 
d="M34 77l394 182q-97 45 -197.5 91.5t-196.5 90.5v101l518 -244v-80l-518 -241v100z" />
    <glyph glyph-name="question" unicode="?" horiz-adv-x="286" 
d="M3 655q26 16 55.5 29.5t65.5 13.5q39 0 69.5 -12t51 -32t31 -46.5t10.5 -55.5q0 -31 -8.5 -57t-23 -47.5t-32 -40.5t-35.5 -37q-26 -26 -46.5 -51.5t-20.5 -51.5q0 -11 6 -21.5t19 -10.5q8 0 17 4.5t14 6.5l43 -22q-9 -11 -17 -26t-9 -24q-14 -5 -27.5 -8.5t-27.5 -3.5
t-35 7t-40.5 22t-33.5 39t-14 59q0 28 8 52t21.5 44t30 37.5t33.5 34.5q26 26 47 52t21 55q0 24 -18 38.5t-39 14.5q-20 0 -47 -21.5t-55 -55.5zM47 65q0 32 22 54.5t54 22.5t54.5 -22.5t22.5 -54.5t-22.5 -54t-54.5 -22t-54 22t-22 54z" />
    <glyph glyph-name="at" unicode="@" horiz-adv-x="685" 
d="M357 543q17 0 33.5 -4t29.5 -14l1 9h97q-24 21 -60.5 33t-89.5 12q-51 0 -94.5 -21t-75 -57.5t-49 -86t-17.5 -106.5q0 -50 16 -87.5t44 -63t66.5 -38t83.5 -12.5q31 0 63.5 9.5t64 24.5t60.5 33.5t53 36.5l-9 -92q-14 -12 -38 -28.5t-56.5 -30.5t-73 -24t-86.5 -10
q-50 0 -101.5 19t-94 57.5t-69.5 97.5t-27 139q0 60 24 116.5t69 101t108.5 71.5t142.5 27q83 0 138 -21.5t88 -56t46.5 -78.5t13.5 -89q0 -56 -19 -102t-48.5 -78.5t-65 -50.5t-69.5 -18q-35 0 -52.5 10t-25.5 28q-18 -17 -39 -27.5t-48 -10.5q-124 0 -124 149q0 51 15 94
t40.5 74t60.5 48t74 17zM391 420q0 20 -6.5 33.5t-27.5 13.5t-37 -16t-27 -40t-16.5 -52t-5.5 -53q0 -32 7 -47.5t27 -15.5q21 0 37.5 19.5t27 47t16 58t5.5 52.5zM568 391q0 45 -11 80.5t-39 61.5q-20 -95 -31 -149.5t-16.5 -83.5t-7 -39.5t-1.5 -16.5q0 -10 8 -10
q15 0 32 12t32 33t24.5 49.5t9.5 62.5z" />
    <glyph glyph-name="A" unicode="A" horiz-adv-x="662" 
d="M361 698q16 -38 36.5 -88t39.5 -96q20 -48 42.5 -100.5t45 -104.5t44 -102t40 -92t33.5 -75t24 -52q-33 5 -56.5 8.5t-33.5 3.5q-9 0 -26 -2.5t-40 -5.5q-14 51 -34.5 105t-42.5 106q-6 15 -9.5 24.5t-8.5 18.5q-27 1 -53 1h-53h-49.5t-48.5 -1q-27 -65 -51.5 -133.5
t-38.5 -121.5q-17 4 -30.5 6.5t-20.5 2.5q-10 0 -30 -4t-46 -10q37 82 78 172.5t82.5 183t81 183t75.5 173.5h50zM314 490q-17 -40 -32 -75t-35 -81h16q13 -1 25 -1h25h20.5h14t14 0.5t20.5 0.5z" />
    <glyph glyph-name="B" unicode="B" horiz-adv-x="520" 
d="M41 422q0 30 -1 64t-2 69t-2.5 69t-2.5 64q34 -3 65.5 -5t57.5 -2q12 0 24 0.5t24 1.5q13 1 25.5 2t25.5 1q45 0 85 -7.5t70 -25.5t47.5 -48.5t17.5 -76.5q0 -57 -23.5 -94.5t-68.5 -61.5q54 -17 84 -57t30 -109q0 -58 -24 -98.5t-61.5 -65.5t-83.5 -36t-90 -11
q-11 0 -24 0.5t-24 1.5t-21.5 2t-21.5 1q-20 0 -49.5 -2t-64.5 -5q1 30 2.5 64.5t2.5 70t2 69.5t1 64v161zM164 246q0 -32 1 -62.5t3 -62.5v-19t1 -23q16 -2 33.5 -2h35.5q25 0 48.5 8.5t40.5 25.5t27.5 42t10.5 57q0 33 -13 54t-37 33t-57.5 16.5t-74.5 4.5h-19v-72z
M191 399q29 0 57 5.5t49.5 18.5t35 34.5t13.5 53.5q0 30 -11.5 48.5t-30.5 28.5t-42 13.5t-45 3.5h-26.5t-21.5 -2v-19.5t-1 -19.5q-2 -29 -3 -59t-1 -59v-47h27z" />
    <glyph glyph-name="C" unicode="C" horiz-adv-x="655" 
d="M604 47q-11 -9 -31.5 -20t-49 -20.5t-63 -16.5t-71.5 -7q-79 0 -145.5 24t-115 70t-76 112.5t-27.5 151.5t27.5 151t76.5 112t117.5 70t151.5 24q65 0 126.5 -16t109.5 -39q-14 -26 -20 -46.5t-9 -35.5q0 -3 -0.5 -13.5t-0.5 -11.5l-40 -2q-10 11 -26 25.5t-37.5 27
t-47.5 21.5t-55 9q-50 0 -93 -16.5t-74.5 -50t-49.5 -85.5t-18 -124t18 -124.5t49.5 -86t74.5 -50t93 -16.5q31 0 59 9t53 22t45 28t35 26l26 -26z" />
    <glyph glyph-name="D" unicode="D" horiz-adv-x="706" 
d="M48 421q0 30 -1 64t-2 69.5t-2.5 69.5t-2.5 64q17 -1 38.5 -2.5t43.5 -2.5t43.5 -1.5t39.5 -0.5q17 0 34.5 0.5t34.5 1.5t36 2t36 1q88 0 151 -23t103 -65.5t58.5 -104t18.5 -139.5q0 -100 -34.5 -168.5t-88 -111t-117.5 -61t-123 -18.5q-16 0 -32 0.5t-31 1.5
q-16 1 -31 2t-31 1q-32 0 -74.5 -2.5t-74.5 -4.5q1 30 2.5 64.5t2.5 69.5t2 69t1 64v161zM171 260v-46.5t1 -42.5t1.5 -43t2.5 -46q19 -3 45 -4t55 -1q47 0 94 11t84.5 42t61 84.5t23.5 139.5q0 74 -18 122t-50.5 75.5t-77 38t-96.5 10.5q-33 0 -64.5 -2t-57.5 -4
q-2 -41 -3 -84.5t-1 -88.5v-161z" />
    <glyph glyph-name="E" unicode="E" horiz-adv-x="416" 
d="M38 422q0 30 -0.5 64t-2 69t-3 68.5t-2.5 63.5q21 -1 45.5 -2t50 -2t50 -1.5t45.5 -0.5t46.5 0.5t51.5 1.5t51 2.5t46 2.5q-4 -21 -6 -34.5t-2 -18.5q0 -6 2 -19.5t6 -34.5q-6 0 -17 1t-23 2t-22.5 2t-16.5 1q-37 4 -75.5 6t-96.5 2q0 -6 -0.5 -11t-1.5 -12v1
q0 -17 -0.5 -34.5t-0.5 -38.5q0 -22 0.5 -43t0.5 -39v-18q37 0 68.5 1t59.5 3t53.5 4t51.5 5q-5 -23 -7 -37t-2 -19q0 -4 2 -18t7 -37q-34 4 -67.5 6t-64.5 3.5t-57 2.5t-45 1v-112v-76.5t1 -40.5q59 0 127.5 3t131.5 16q-5 -21 -7 -36.5t-2 -22.5q0 -6 1.5 -19.5t6.5 -33.5
q-21 1 -46 2.5t-51.5 2.5t-52.5 1.5t-47 0.5q-43 0 -97 -2t-97 -4q1 31 2.5 65t3 69t2 69t0.5 64v161z" />
    <glyph glyph-name="F" unicode="F" horiz-adv-x="413" 
d="M39 421q0 30 -1 64t-2 69t-3 69t-3 64q21 -1 45.5 -2t50 -2t50.5 -1.5t46 -0.5t46.5 0.5t53 1.5l55 2t52.5 2q-9 -42 -9 -52q0 -4 2.5 -17.5t7.5 -36.5q-28 3 -63.5 5t-72 4t-71 3.5t-60.5 1.5q-1 -26 -1.5 -50t-0.5 -48q0 -17 0.5 -32t0.5 -30v-33q58 0 116.5 2.5
t130.5 9.5q-4 -20 -7 -36t-3 -18t3 -18.5t7 -35.5q-59 6 -124.5 8t-122.5 2v-56q0 -30 1 -64.5t2 -70t2.5 -70t2.5 -64.5q-24 4 -42 6.5t-28 2.5t-27.5 -2.5t-42.5 -6.5q1 30 3 64.5t3 70t2 70t1 64.5v161z" />
    <glyph glyph-name="G" unicode="G" horiz-adv-x="713" 
d="M611 525q-14 17 -34 33.5t-45 29.5t-54 21t-62 8q-53 0 -99 -16.5t-79.5 -50t-52.5 -85.5t-19 -124q0 -63 17 -113.5t50 -85.5t80 -54t107 -19q33 0 68.5 5.5t58.5 15.5q1 24 1 48.5v50.5t-1 52t-2 51v10.5t-0.5 16t-0.5 16v10.5q20 -5 38.5 -7.5t29.5 -2.5q8 0 22.5 3
t42.5 11q-1 -11 -2 -32.5t-2 -51t-1.5 -65t-0.5 -73.5v-37q0 -10 0.5 -27.5t0.5 -27.5q-23 -8 -55.5 -17.5t-69 -17t-72.5 -12.5t-64 -5q-89 0 -160 23t-120.5 68t-76.5 112t-27 155q0 85 27.5 151t78.5 112t123 70t160 24q49 0 89.5 -6.5t73.5 -16.5t59 -22t47 -23
q-11 -20 -20 -50.5t-12 -54.5h-42z" />
    <glyph glyph-name="H" unicode="H" horiz-adv-x="683" 
d="M513 421q0 30 -1 64.5t-2 70t-3 70.5t-3 65q25 -5 42.5 -7.5t27.5 -2.5t28 2.5t42 7.5q-1 -30 -2.5 -65t-2.5 -70.5t-2 -70t-1 -64.5v-161q0 -30 1 -64.5t2 -70t2.5 -70t2.5 -64.5q-24 4 -42 6.5t-28 2.5t-27.5 -2.5t-42.5 -6.5q1 30 3 64.5t3 70t2 70t1 64.5v62
q-44 1 -86 1h-86h-45h-41t-40.5 -0.5t-45.5 -0.5v-62q0 -30 1 -64.5t2 -70t2.5 -70t3.5 -64.5q-25 4 -42.5 6.5t-27.5 2.5t-28 -2.5t-42 -6.5q1 30 2.5 64.5t2.5 70t2 70t1 64.5v161q0 30 -1 64.5t-2 70t-2.5 70.5t-2.5 65q24 -5 42 -7.5t28 -2.5t27.5 2.5t42.5 7.5
q-2 -30 -3.5 -65t-2.5 -70.5t-2 -70t-1 -64.5v-9q11 0 21 -0.5t21 -0.5q32 -1 64.5 -1.5t65.5 -0.5t65 0.5t64 1.5h12.5t8.5 0.5t9 0.5h13v9z" />
    <glyph glyph-name="I" unicode="I" horiz-adv-x="181" 
d="M27 421q0 30 -0.5 64.5t-2 70t-3 70.5t-2.5 65q25 -5 42.5 -7.5t27.5 -2.5t27.5 2.5t42.5 7.5q-2 -30 -3 -65t-2.5 -70.5t-2 -70t-0.5 -64.5v-161q0 -30 0.5 -64.5t2 -70t2.5 -70t3 -64.5q-25 4 -42.5 6.5t-27.5 2.5t-27.5 -2.5t-42.5 -6.5q1 30 2.5 64.5t3 70t2 70
t0.5 64.5v161z" />
    <glyph glyph-name="J" unicode="J" horiz-adv-x="286" 
d="M9 -185q43 0 67.5 16.5t37.5 46.5t16.5 71.5t3.5 91.5l5 380q0 30 -1 64.5t-2 70t-2.5 70.5t-2.5 65q24 -5 42 -7.5t28 -2.5t27.5 2.5t42.5 7.5q-2 -30 -3.5 -65t-2.5 -70.5t-2 -70t-1 -64.5v-51v-62t-0.5 -68t-0.5 -70v-53t-0.5 -60t-0.5 -55v-37q0 -47 -16.5 -87.5
t-47 -70.5t-73.5 -47.5t-95 -17.5z" />
    <glyph glyph-name="K" unicode="K" horiz-adv-x="581" 
d="M37 20q3 60 5.5 120t2.5 120v161q0 30 -1 64.5t-2 70t-3 70.5t-3 65q25 -5 42.5 -7.5t27.5 -2.5t28 2.5t42 7.5q-1 -30 -2.5 -65t-2.5 -70.5t-2 -70t-1 -64.5v-16q31 28 65 62.5t68.5 71.5t68.5 75t66 74q13 -3 24.5 -5t22.5 -2q9 0 42.5 6t82.5 15q-41 -35 -90.5 -80
t-98 -91t-91 -88t-69.5 -72q35 -40 71 -80t71 -82q5 -5 20 -22.5t35.5 -40.5t43.5 -48.5t43.5 -48.5t35.5 -40.5t20 -22.5q-43 6 -73.5 10t-43.5 4q-12 0 -28 -2t-33 -5q-29 36 -64 78.5t-70 84.5t-66 79t-53 62v-37q0 -30 1 -64.5t2 -70t2.5 -70t2.5 -64.5q-24 4 -42 6.5
t-28 2.5q-9 0 -19.5 -1.5t-22.5 -3.5z" />
    <glyph glyph-name="L" unicode="L" horiz-adv-x="411" 
d="M39 421q0 30 -1 64.5t-2 70t-3 70.5t-3 65q25 -5 42.5 -7.5t27.5 -2.5t28 2.5t42 7.5q-1 -30 -2.5 -65t-2.5 -70.5t-2 -70t-1 -64.5q0 -91 0.5 -162.5t1.5 -130.5v-13.5t0.5 -8.5t0.5 -8.5v-11.5q29 0 57.5 0.5t60.5 2.5t68.5 5t80.5 9q-7 -20 -10.5 -35.5t-3.5 -20.5
q0 -6 3.5 -20t9.5 -34q-21 1 -47.5 2.5t-54.5 2.5t-54.5 1.5t-47.5 0.5q-44 0 -98.5 -2t-98.5 -4q1 30 3 64.5t3 69t2 68.5t1 64v161z" />
    <glyph glyph-name="M" unicode="M" horiz-adv-x="863" 
d="M182 698q32 -66 62 -125.5t60.5 -118.5t62 -118.5t67.5 -125.5q17 32 41.5 76.5t54.5 99.5q20 37 42.5 78t44.5 82t42.5 80t38.5 72h47q8 -63 15.5 -133t13.5 -128q6 -53 12.5 -110.5t13.5 -115.5t14 -114.5t15 -107.5q-27 5 -46 8t-26 3q-10 0 -27 -2.5t-39 -6.5
q-8 107 -17.5 218.5t-22.5 217.5q-56 -103 -110 -207t-105 -220h-39q-36 78 -78 162.5t-84 165.5q-11 20 -16 30l-9 18l-9 18t-16 30q-6 -54 -12 -112.5t-11.5 -115.5t-9 -110.5t-3.5 -96.5q-20 5 -34.5 8t-21.5 3q-8 0 -24 -3.5t-38 -8.5q12 77 26 170t27.5 188t25 186.5
t19.5 165.5h53z" />
    <glyph glyph-name="N" unicode="N" horiz-adv-x="677" 
d="M582 -17q-49 57 -103 117.5t-110 122t-113.5 122.5t-112.5 120h-1q-1 -24 -1 -56v-76q0 -29 1 -78.5t3 -102t4 -98t5 -67.5q-22 6 -37.5 9.5t-23.5 3.5q-7 0 -23.5 -3.5t-39.5 -8.5q2 14 5 43.5t5.5 68t5 82.5l5 88t3.5 84t1 71q0 44 -0.5 86t-1 78.5t-1.5 64.5t-2 44h51
q10 -11 23 -25.5t24 -25.5q55 -60 108.5 -118.5t103.5 -112.5t95.5 -102t84.5 -87q0 58 -0.5 120.5t-2 123.5t-3 118t-4.5 104q20 -5 35.5 -8.5t21.5 -3.5t20.5 3.5t36.5 9.5q-3 -26 -6 -73t-6 -98.5t-5 -99t-2 -73.5v-57.5t0.5 -70.5t1 -75t1 -71t1 -58t0.5 -35h-47z" />
    <glyph glyph-name="O" unicode="O" horiz-adv-x="811" 
d="M33 341q0 85 27.5 151t76.5 112t117.5 70t150.5 24t151 -24t118 -70t76.5 -112t27.5 -151t-27.5 -151.5t-76.5 -112.5t-118 -70t-151 -24t-150.5 24t-117.5 70t-76.5 112.5t-27.5 151.5zM640 341q0 72 -18 124t-49.5 85.5t-74.5 50t-93 16.5t-92.5 -16.5t-74 -50
t-49.5 -85.5t-18 -124t18 -124.5t49.5 -86t74 -50t92.5 -16.5t93 16.5t74.5 50t49.5 86t18 124.5z" />
    <glyph glyph-name="P" unicode="P" horiz-adv-x="489" 
d="M41 421q0 30 -1 64.5t-2 69.5t-3 69.5t-3 64.5q36 -4 65.5 -6t49.5 -2q12 0 28 1t33 2q14 1 30 1.5t25 0.5q15 0 38 -1t48.5 -6t50.5 -16t45.5 -31.5t33 -51t12.5 -75.5q0 -69 -29 -112t-71.5 -66.5t-90 -32t-84.5 -8.5h-28h-10t-14 1v-27q0 -30 1 -64.5t2 -70t2.5 -70
t2.5 -64.5q-24 4 -42 6.5t-28 2.5t-27.5 -2.5t-42.5 -6.5q1 30 3 64.5t3 70t2 70t1 64.5v161zM164 370q21 -3 43 -3q25 0 51.5 5.5t48.5 20t36.5 40t14.5 66.5q0 33 -9.5 53.5t-26.5 32t-41.5 16t-55.5 4.5h-61v-235z" />
    <glyph glyph-name="Q" unicode="Q" horiz-adv-x="830" 
d="M18 341q0 85 27.5 151t76.5 112t117.5 70t150.5 24t151 -24t118 -70t76.5 -112t27.5 -151q0 -63 -15.5 -116.5t-44.5 -95.5t-70 -72.5t-91 -48.5q31 -24 73 -55.5t84.5 -63.5t81.5 -60t63 -46q-26 -1 -48.5 -6.5t-40 -13.5t-29.5 -17t-17 -17q-26 24 -64.5 57.5t-81 69.5
t-83.5 69.5t-70 57.5h-20q-82 0 -150.5 24t-117.5 70t-76.5 112.5t-27.5 151.5zM625 341q0 72 -18 124t-49.5 85.5t-74.5 50t-93 16.5t-92.5 -16.5t-74 -50t-49.5 -85.5t-18 -124t18 -124.5t49.5 -86t74 -50t92.5 -16.5t93 16.5t74.5 50t49.5 86t18 124.5z" />
    <glyph glyph-name="R" unicode="R" horiz-adv-x="571" 
d="M44 421q0 30 -0.5 64t-2 69.5t-3 69.5t-2.5 64q13 -1 30 -2.5t35 -2.5t35 -1.5t30 -0.5q14 0 26.5 0.5t26.5 1.5q13 1 26.5 2t27.5 1q44 0 83.5 -8.5t69 -28.5t47 -53t17.5 -81q0 -43 -16 -75.5t-41.5 -56t-56 -39t-58.5 -23.5l16 -20t17 -22q25 -31 60 -74.5t70 -86.5
t65 -79t45 -53q-43 6 -73 10t-43 4q-10 0 -27 -2t-38 -5q-14 22 -42.5 62t-62.5 85t-70 89.5t-66 75.5h-2v-45q0 -30 1 -64.5t2 -70t2.5 -70t3.5 -64.5q-25 4 -42.5 6.5t-27.5 2.5t-28 -2.5t-42 -6.5q1 30 2.5 64.5t3 70t2 70t0.5 64.5v161zM167 387q8 -1 19 -1h21
q25 0 52 5.5t50 19.5t38 37t15 58q0 30 -11.5 49t-29.5 30t-39.5 15.5t-41.5 4.5q-41 0 -68 -3q-2 -45 -3.5 -90.5t-1.5 -90.5v-34z" />
    <glyph glyph-name="S" unicode="S" horiz-adv-x="469" 
d="M87 166q8 -17 20 -34t28.5 -31t37.5 -23t47 -9q51 0 80.5 32.5t29.5 79.5q0 24 -10 41.5t-26.5 30.5t-38 23t-44.5 19q-32 13 -63 28t-56 37.5t-40.5 55.5t-15.5 82q0 44 16 81t45.5 63.5t71 41t93.5 14.5q49 0 89.5 -14.5t78.5 -46.5q-13 -25 -21 -49t-16 -59h-45
q-5 13 -12.5 28.5t-19 28.5t-27 22t-36.5 9q-42 0 -70 -25.5t-28 -66.5q0 -26 10.5 -44t28 -31t39.5 -23t46 -19q31 -13 61.5 -27t54.5 -35.5t39 -52t15 -76.5q0 -48 -17 -90.5t-49.5 -74.5t-79 -50.5t-106.5 -18.5q-64 0 -107 21.5t-75 46.5q6 15 9.5 28t6.5 26t5 28t4 33
h47z" />
    <glyph glyph-name="T" unicode="T" horiz-adv-x="536" 
d="M206 421v44.5v40t-0.5 40.5t-0.5 45q-46 -1 -103.5 -5t-106.5 -10q6 20 10 35.5t4 22.5q0 5 -3.5 19t-9.5 34q30 -1 65 -2t71 -2t71 -1.5t65 -0.5t65 0.5t71 1.5t71 2t65 2q-6 -20 -9.5 -34.5t-3.5 -19.5q0 -6 4 -21.5t10 -35.5q-53 6 -110 10t-100 5q-1 -43 -1 -85v-85
v-161q0 -30 0.5 -64.5t2 -70t2.5 -70t3 -64.5q-25 4 -42.5 6.5t-27.5 2.5t-27.5 -2.5t-42.5 -6.5q1 30 2.5 64.5t3 70t2 70t0.5 64.5v161z" />
    <glyph glyph-name="U" unicode="U" horiz-adv-x="664" 
d="M525 359v115t-1 89.5t-3.5 71t-6.5 58.5q22 -5 39 -8.5t28 -3.5q5 0 19.5 4t35.5 11q-3 -33 -6 -83.5t-6 -108.5t-5 -118t-3 -111q-1 -67 -20.5 -121t-56.5 -92t-90.5 -58.5t-121.5 -20.5q-151 0 -221 71.5t-70 218.5q0 23 1 43.5t2 40.5q1 17 1.5 32t0.5 32
q0 66 -1.5 120t-3.5 96v11t-0.5 17t-0.5 16.5v10.5q25 -5 44.5 -8t27.5 -3q9 0 27.5 3.5t39.5 8.5q-3 -28 -5.5 -67.5t-4.5 -85.5t-3 -96.5t-1 -100.5q0 -44 3 -91.5t20 -87t54.5 -65t106.5 -25.5q45 0 76 13.5t51 36.5t31 52t16 61t6 63.5t1 58.5z" />
    <glyph glyph-name="V" unicode="V" horiz-adv-x="664" 
d="M276 10q-21 58 -54.5 141.5t-71.5 177.5t-77.5 189t-73.5 175q32 -5 55 -8.5t32 -3.5t25.5 2.5t38.5 6.5q42 -125 90.5 -251.5t107.5 -268.5q25 59 53 131t55 144t50 137t37 109q17 -5 30 -7.5t20 -2.5t27 4.5t49 11.5q-36 -80 -75.5 -170.5t-78 -182.5t-75 -182.5
t-67.5 -170.5q-16 4 -27.5 6.5t-17.5 2.5q-5 0 -11.5 -1t-11.5 -3z" />
    <glyph glyph-name="W" unicode="W" horiz-adv-x="1028" 
d="M240 12q-8 25 -24 78.5t-37 121t-44 142t-44.5 141.5t-39 120t-26.5 78q29 -5 50 -8.5t32 -3.5q9 0 25.5 2.5t38.5 6.5q12 -47 22 -86.5t20 -76t20.5 -72t22.5 -75.5t27 -87t34 -106q3 8 6.5 17.5t6.5 19.5q19 56 41.5 123t43.5 132.5t38 122t26 90.5q35 -11 47 -11
t47 11q7 -25 19.5 -66t27.5 -89t32 -100.5t33 -100.5t29 -88t22 -64q11 36 26 82t30 96t30.5 100.5t28.5 95t22.5 79.5t13.5 54q17 -5 29.5 -7.5t20.5 -2.5q7 0 26 4t46 11q-9 -22 -28.5 -75.5t-44.5 -124t-52 -148.5t-51.5 -149.5t-43.5 -127t-27 -80.5q-16 4 -28 6.5
t-19 2.5t-19 -2.5t-29 -6.5q-20 65 -38.5 124t-37 117t-38 119t-43.5 130q-16 -47 -37 -109t-44 -129t-45.5 -133t-40.5 -119q-17 4 -29 6.5t-19 2.5t-13.5 -1t-13.5 -3z" />
    <glyph glyph-name="X" unicode="X" horiz-adv-x="600" 
d="M180 689q33 -66 64.5 -122.5t67.5 -116.5q36 56 70 112.5t74 127.5q15 -4 27 -6.5t19 -2.5q8 0 31.5 5.5t57.5 13.5q-6 -8 -17.5 -24.5t-24.5 -34.5t-24.5 -34.5t-17.5 -25.5q-20 -28 -38.5 -53.5t-36.5 -50.5t-36 -51t-36 -55q26 -44 56 -93.5t61.5 -100t62 -99.5
t56.5 -91q-37 5 -63 9t-35 4q-11 0 -28 -2t-38 -5l-30 56q-15 29 -27.5 54t-25.5 50t-28 50.5t-34 55.5q-42 -65 -81 -131.5t-76 -135.5q-16 3 -28 5.5t-19 2.5q-8 0 -31.5 -5t-57.5 -14q28 40 59.5 86t63.5 93.5t63 93.5t57 87q-24 40 -51.5 85.5t-56.5 92.5t-57.5 92
t-52.5 83q35 -5 61 -9t37 -4q20 0 63 8z" />
    <glyph glyph-name="Y" unicode="Y" horiz-adv-x="595" 
d="M225 -10q8 72 9.5 143t1.5 143q-11 18 -31 52t-45 75.5t-52 87t-51.5 86t-44 72t-29.5 46.5q38 -6 65 -10t36 -4q21 0 64 8q20 -40 39.5 -77t39.5 -73.5t41.5 -74t45.5 -79.5q39 63 80.5 142.5t80.5 162.5q17 -4 30 -6.5t21 -2.5t31.5 4.5t55.5 12.5q-103 -159 -164 -257
t-89 -152q0 -33 0.5 -73t2 -80.5t3 -78.5t4.5 -67q-27 5 -45.5 7.5t-26.5 2.5t-27 -2.5t-46 -7.5z" />
    <glyph glyph-name="Z" unicode="Z" horiz-adv-x="609" 
d="M16 42q37 50 76.5 106t78.5 111t75 107.5t66.5 97.5t53.5 79t35 52h-23q-33 0 -76.5 -1.5t-89.5 -3.5t-90 -5.5t-77 -6.5q6 20 10 35.5t4 20.5q0 6 -4 20.5t-9 34.5q22 -2 63.5 -3.5t97 -2.5t122 -1.5t138.5 -0.5q31 0 59 2.5t64 2.5v-49q-17 -19 -47 -58t-66.5 -89.5
t-76.5 -108t-77.5 -112t-70 -103t-52.5 -80.5q3 0 6 -0.5t6 -0.5q6 0 11.5 0.5t12.5 0.5q34 0 83 1.5t100.5 4.5t98.5 7t79 8q-5 -22 -8.5 -37t-3.5 -21t3.5 -20.5t8.5 -34.5q-67 2 -131.5 4t-118.5 2q-36 0 -86 -0.5t-98.5 -1.5t-89 -2.5t-57.5 -2.5v49z" />
    <glyph glyph-name="bracketleft" unicode="[" horiz-adv-x="207" 
d="M29 403q0 33 -0.5 69.5t-1.5 74t-2.5 73.5t-2.5 68q25 -4 43 -5.5t29 -1.5q22 0 51 1t49 2l35 -2q-4 -13 -6.5 -23t-2.5 -11q0 -2 2.5 -13.5t5.5 -25.5q-20 0 -45.5 1.5t-47.5 1.5q-2 -51 -3.5 -104t-1.5 -105v-235v-54.5t1 -50.5t1.5 -50.5t2.5 -53.5q23 1 50 1.5
t43 1.5q-3 -13 -5.5 -24t-2.5 -14q0 -1 2 -12.5t5 -24.5h-33q-20 1 -49 2t-51 1q-11 0 -29 -1.5t-43 -5.5q1 32 2.5 68t2.5 73.5t1.5 74t0.5 69.5v235z" />
    <glyph glyph-name="backslash" unicode="\" horiz-adv-x="335" 
d="M-25 718q26 -9 43 -14.5t20 -5.5q5 0 14.5 2.5t23.5 7.5l283 -744q-55 19 -63 19q-5 0 -14.5 -2.5t-23.5 -7.5z" />
    <glyph glyph-name="bracketright" unicode="]" horiz-adv-x="209" 
d="M77 403v54.5t-1 50.5l-2 50t-2 54q-23 -1 -50 -1.5t-43 -1.5q3 13 5.5 24t2.5 14q-1 1 -3 12t-4 25h32q20 -1 49.5 -2t51.5 -1q11 0 29 1.5t43 5.5q-2 -32 -3 -68t-2 -73.5t-1.5 -74t-0.5 -69.5v-235q0 -33 0.5 -69.5t1.5 -74t2 -73.5t3 -68q-25 4 -43 5.5t-29 1.5
q-22 0 -51.5 -1t-49.5 -2l-34 2q2 6 3 12t3 11t3 11q0 2 -2.5 14t-5.5 26q20 -1 45.5 -2.5t47.5 -1.5q2 51 3.5 104t1.5 105v235z" />
    <glyph glyph-name="asciicircum" unicode="^" horiz-adv-x="555" 
d="M240 659h76l243 -470h-101l-181 351q-45 -85 -91.5 -175.5t-89.5 -175.5h-101z" />
    <glyph glyph-name="underscore" unicode="_" horiz-adv-x="587" 
d="M36 -121v93h514v-93h-514z" />
    <glyph glyph-name="grave" unicode="`" horiz-adv-x="284" 
d="M58 613q-14 9 -29.5 23.5t-15.5 40.5q0 13 5.5 22.5t13.5 16.5t17.5 10.5t17.5 3.5q17 0 31.5 -8t27.5 -21l178 -179h-103z" />
    <glyph glyph-name="a" unicode="a" horiz-adv-x="476" 
d="M61 431q52 39 92.5 52.5t80.5 13.5q39 0 71 -11.5t55.5 -32.5t36 -51t12.5 -66q0 -52 -2 -104.5t-2 -112.5q0 -16 1.5 -31t11.5 -15q2 0 9.5 2.5t33.5 17.5v-76q-15 -7 -37.5 -14t-45.5 -7q-26 0 -45 11t-30 28q-29 -25 -60 -37t-76 -12q-28 0 -54.5 9.5t-47 27.5
t-33 43.5t-12.5 57.5q0 67 40.5 103.5t110.5 47.5q44 7 68 11.5t35.5 9t14 9.5t2.5 12q0 38 -17.5 66.5t-61.5 28.5q-31 0 -59 -17t-45 -47h-47v83zM291 224l-25 -6q-21 -4 -43 -8.5t-39.5 -13.5t-29 -23t-11.5 -36q0 -32 18 -48.5t40 -16.5q27 0 50 14t40 34v104z" />
    <glyph glyph-name="b" unicode="b" horiz-adv-x="507" 
d="M506 255q0 -59 -18 -108.5t-49.5 -85t-74.5 -55.5t-93 -20q-43 0 -79.5 17t-59.5 42q-13 -11 -25 -22t-25 -23h-52q3 30 4.5 66.5t3 75.5t2 76.5t0.5 68.5v169q0 32 -0.5 70.5t-2 78.5t-3 78.5t-4.5 71.5q26 -5 43.5 -8t24.5 -3q10 0 29 2.5t45 6.5q-3 -25 -5.5 -61.5
t-4.5 -78.5t-3 -86t-1 -84q29 29 61.5 41.5t73.5 12.5q54 0 94.5 -20t66.5 -53t39 -77t13 -92zM377 258q0 37 -8.5 66t-23 48.5t-33 29.5t-37.5 10q-25 0 -47.5 -9.5t-39 -31.5t-26 -57.5t-9.5 -86.5q0 -164 113 -164q24 0 44.5 14t35 39.5t23 61.5t8.5 80z" />
    <glyph glyph-name="c" unicode="c" horiz-adv-x="484" 
d="M25 242q0 66 22 114.5t59 79.5t83.5 46t96.5 15q56 0 105 -17.5t73 -40.5q-9 -20 -17 -42.5t-13 -48.5h-40q-6 12 -16.5 25t-24 23.5t-30 17.5t-34.5 7q-36 0 -62 -13.5t-42.5 -37.5t-24 -56.5t-7.5 -70.5q0 -85 36 -128t103 -43q32 0 71 22t68 55l31 -30
q-4 -21 -6 -37.5t-3 -27.5q-17 -13 -38 -25.5t-44.5 -22t-47.5 -15t-48 -5.5q-45 0 -89.5 14t-80.5 45t-58 79.5t-22 117.5z" />
    <glyph glyph-name="d" unicode="d" horiz-adv-x="506" 
d="M347 37q-23 -23 -54 -37t-79 -14q-40 0 -78 15t-68 45.5t-48.5 78.5t-18.5 114q0 65 20 113.5t51.5 80.5t71.5 48t81 16q75 0 122 -42q0 40 -0.5 83t-1.5 82.5t-1.5 74.5t-1.5 59q1 0 7.5 -1t13 -2.5t12.5 -2.5t8 -1q13 -3 26 -3q8 0 22 3q2 0 8.5 1t14.5 2t15 2t9 1
q-4 -39 -7 -101.5t-4.5 -134t-2.5 -144t-1 -130.5q0 -43 0.5 -79.5t1.5 -72.5v-22t0.5 -27.5t0.5 -28.5v-23q-2 0 -7.5 1t-12 2.5t-12.5 2.5t-9 2l2 -1q-5 1 -16.5 2t-10.5 1q-6 0 -14 -2h1q-1 0 -7 -1.5t-13 -3t-13.5 -3t-7.5 -1.5zM130 233q0 -49 9.5 -81t24.5 -51
t34 -26.5t37 -7.5q30 0 52 16t36.5 42t21 59t6.5 67q0 78 -28.5 119.5t-84.5 41.5q-28 0 -48 -14t-33.5 -38t-20 -57t-6.5 -70z" />
    <glyph glyph-name="e" unicode="e" horiz-adv-x="496" 
d="M21 229q0 62 15.5 111.5t46 84.5t74.5 53.5t101 18.5q55 0 96 -17t68 -46t40 -68t13 -82q0 -5 -0.5 -13t-1 -17t-1.5 -17.5t-1 -12.5q-17 0 -45 0.5t-45 0.5q-33 1 -65.5 1.5t-65.5 0.5q-20 0 -40.5 -0.5t-40.5 -1.5h-19v-4q0 -32 9 -59t26.5 -47t43.5 -31.5t59 -11.5
q16 0 34.5 6t37 16t36 24t31.5 31l31 -29l-8 -67q-17 -13 -37.5 -25t-44 -21.5t-48.5 -15t-49 -5.5q-56 0 -102 18.5t-79 51t-51 77t-18 96.5zM260 421q-24 0 -42 -10.5t-30.5 -27t-20.5 -37.5t-11 -41h10q21 -1 43 -1.5t42 -0.5q21 0 42.5 0.5t43.5 1.5h14q-2 20 -6.5 41
t-15 37.5t-27.5 27t-42 10.5z" />
    <glyph glyph-name="f" unicode="f" horiz-adv-x="302" 
d="M271 622q-26 16 -50 16q-29 0 -41 -21t-12 -49q0 -12 2 -36t6 -49h27h76q-2 -14 -4 -27t-2 -15t2 -14.5t5 -27.5h-12.5t-18 0.5t-18 0.5h-12.5q-8 0 -12.5 0.5t-8 1t-7.5 0.5h-12v-100.5t0.5 -105.5t1.5 -105.5t2 -100.5q-21 5 -38 7.5t-26 2.5q-8 0 -25.5 -2.5
t-40.5 -7.5q6 103 8 206t2 206q-5 0 -10 -1t-10 -1h-10.5t-15.5 -0.5t-15.5 -0.5h-10.5q2 15 4.5 27.5t2.5 14.5t-2 15t-4 27h62h10q2 28 8.5 59t18 60t26.5 55t34 45q20 20 50 34.5t62 14.5q5 0 16.5 -2t25.5 -7q0 -18 -0.5 -30t-1.5 -19q-1 -11 -1.5 -28.5t-0.5 -27.5z
" />
    <glyph glyph-name="g" unicode="g" horiz-adv-x="507" 
d="M38 322q0 45 16 77.5t43.5 54.5t64.5 32.5t78 10.5h24t26 -1q7 -1 13 -1t14 -1q5 0 8.5 -0.5t6.5 -0.5q33 -3 49 -3q27 0 54.5 3t49.5 8q-3 -17 -5 -32t-2 -17q0 -1 2 -15.5t5 -31.5q-4 0 -12.5 1t-17.5 2.5t-17.5 2.5t-11.5 1q-8 0 -8 1h3h-11q14 -20 21.5 -45t7.5 -48
q0 -41 -14 -73t-40 -54t-62 -34t-81 -12q-7 0 -14.5 0.5t-13.5 0.5q-7 1 -12.5 1h-10.5q-9 0 -16 -5.5t-7 -13.5q0 -13 7 -18.5t26 -6.5q13 0 25 -0.5t25 -0.5q13 -1 25.5 -1h26.5q49 -2 83.5 -13t56.5 -30t32 -44.5t10 -55.5q0 -36 -13.5 -74t-43 -68.5t-76 -50.5
t-111.5 -20q-101 0 -159.5 42.5t-58.5 115.5q0 45 20 76.5t51 50.5q-30 27 -30 73q0 26 11 46t30 34q-32 23 -49.5 56.5t-17.5 80.5zM370 -80q0 42 -28 61t-90 19q-57 0 -90 -18.5t-33 -66.5q0 -51 32.5 -72.5t81.5 -21.5q24 0 46.5 6t40.5 18t29 30.5t11 44.5zM319 327
q0 46 -21.5 71.5t-56.5 25.5q-39 0 -61 -27.5t-22 -74.5q0 -48 20 -76t62 -28q21 0 35.5 9t24.5 24t14.5 35t4.5 41z" />
    <glyph glyph-name="h" unicode="h" horiz-adv-x="460" 
d="M39 456q0 32 -0.5 70.5t-1.5 78.5t-3 78.5t-5 71.5q26 -5 43.5 -8t24.5 -3q8 0 25.5 3t42.5 8q-3 -33 -4.5 -71.5t-3 -78t-2 -77t-0.5 -67.5v-9q53 45 128 45q30 0 61 -8t55.5 -29t40.5 -57t16 -91q0 -40 -2 -82.5t-2 -90.5q0 -15 0.5 -35l1 -40t1 -39.5t1.5 -34.5
q-23 5 -39.5 7.5t-25.5 2.5q-8 0 -24 -2.5t-38 -7.5l4 105q1 33 2 65t1 67v57q0 57 -21.5 87.5t-56.5 30.5q-54 0 -78.5 -33.5t-24.5 -95.5q0 -26 0.5 -61.5t2 -74l3 -77t4.5 -71.5q-25 5 -42.5 8t-25.5 3q-7 0 -24.5 -3t-43.5 -8q3 33 5 71.5t3 78.5t1.5 78t0.5 70v169z
" />
    <glyph glyph-name="i" unicode="i" horiz-adv-x="157" 
d="M20 290q0 40 -2.5 92t-8.5 113q26 -5 43.5 -8.5t25.5 -3.5q7 0 25 3.5t44 8.5q-6 -61 -8.5 -113t-2.5 -92v-97q0 -40 2.5 -92t8.5 -112q-26 5 -44 8t-25 3q-8 0 -25.5 -3t-43.5 -8q6 60 8.5 112t2.5 92v97zM7 627q0 29 21 50t50 21t50 -21t21 -50t-21 -50t-50 -21t-50 21
t-21 50z" />
    <glyph glyph-name="j" unicode="j" horiz-adv-x="246" 
d="M106 253q0 54 -2.5 117.5t-8.5 124.5q26 -5 43.5 -8.5t25.5 -3.5q7 0 25 3.5t44 8.5q-6 -61 -8.5 -113t-2.5 -92v-97q0 -27 0.5 -58.5t2.5 -63.5q2 -33 2.5 -65t0.5 -58q0 -42 -4.5 -78.5t-28.5 -72.5q-23 -33 -68.5 -56.5t-108.5 -25.5l-9 87q14 -4 25.5 -6.5t13.5 -2.5
q20 0 32 14t18.5 36t8.5 49t2 53zM93 627q0 29 21 50t50 21t50 -21t21 -50t-21 -50t-50 -21t-50 21t-21 50z" />
    <glyph glyph-name="k" unicode="k" horiz-adv-x="472" 
d="M27 456q0 32 -0.5 70.5t-2 78.5t-3 78.5t-4.5 71.5q26 -5 43.5 -8t24.5 -3t25 3t43 8q-3 -33 -4.5 -71.5t-3 -78.5t-2 -78.5t-0.5 -70.5v-155q2 0 5 3l1 2q9 7 30 27t47.5 46t54 56t50.5 56q27 -8 43 -8q4 0 13.5 1t22.5 3h13t26 0.5t26 0.5h13q-79 -62 -143.5 -116.5
t-107.5 -96.5q27 -32 60 -70t67 -76t67 -75t60 -67q-46 5 -75 9t-38 4q-8 0 -23 -2t-34 -5q-19 25 -42.5 53.5t-47.5 57t-47 55t-41 46.5v-22q0 -38 2.5 -85t8.5 -109q-25 5 -43.5 8t-25.5 3t-24.5 -3t-43.5 -8q3 33 4.5 71.5t3 78.5t2 78t0.5 70v169z" />
    <glyph glyph-name="l" unicode="l" horiz-adv-x="167" 
d="M24 456q0 32 -0.5 70.5t-2 78.5t-3 78.5t-4.5 71.5q25 -5 43 -8t25 -3t25 3t43 8q-3 -33 -4.5 -71.5t-3 -78.5t-2 -78.5t-0.5 -70.5v-169q0 -32 0.5 -70t2 -78t3 -78.5t4.5 -71.5q-25 5 -43 8t-25 3t-25 -3t-43 -8q3 33 4.5 71.5t3 78.5t2 78t0.5 70v169z" />
    <glyph glyph-name="m" unicode="m" horiz-adv-x="777" 
d="M49 290q0 40 -2.5 92t-8.5 113q26 -5 43.5 -8.5t25.5 -3.5q12 0 61 11q-1 -12 -1.5 -15t-0.5 -6v-5.5t1 -11.5q47 41 115 41q42 0 80 -19t60 -49q27 36 63.5 52t84.5 16q35 0 65.5 -9.5t53 -30t35 -52.5t12.5 -78q0 -13 -0.5 -27t-1.5 -31q-2 -27 -3 -62t-1 -87
q0 -12 0.5 -28.5t1 -34t1.5 -35t2 -32.5q-22 5 -38.5 7.5t-26.5 2.5q-11 0 -28.5 -2.5t-39.5 -7.5q4 36 8.5 118.5t4.5 205.5q0 37 -16.5 62.5t-58.5 25.5q-27 0 -46 -10t-29 -24v1q-6 -9 -9 -17.5t-5 -28t-2.5 -56t-0.5 -100.5q0 -41 2 -87t4 -90q-23 5 -40.5 7.5
t-25.5 2.5q-6 0 -24 -3t-43 -8q2 26 4 57.5t3.5 64t2.5 63.5t1 57q0 40 -0.5 64t-2 38t-4.5 22t-7 16q-7 13 -23.5 22t-33.5 9q-48 0 -72 -33.5t-24 -95.5v-80q0 -40 2.5 -92t8.5 -112q-26 5 -44 8t-25 3q-8 0 -25.5 -3t-43.5 -8q6 60 8.5 112t2.5 92v97z" />
    <glyph glyph-name="n" unicode="n" horiz-adv-x="484" 
d="M334 284q0 57 -21.5 87.5t-56.5 30.5q-54 0 -78.5 -33.5t-24.5 -95.5v-80q0 -40 2.5 -92t8.5 -112q-25 5 -43 8t-26 3t-25.5 -3t-43.5 -8q7 60 9 112t2 92v97q0 40 -2 92t-9 113q26 -5 43.5 -8.5t25.5 -3.5q12 0 61 11q-1 -12 -1.5 -15.5t-0.5 -7.5v-6t1 -11
q27 25 55.5 34t70.5 9q30 0 61 -8t55.5 -29t40.5 -57t16 -91q0 -40 -2 -82.5t-2 -90.5q0 -15 0.5 -35l1 -40t1 -39.5t1.5 -34.5q-23 5 -39.5 7.5t-25.5 2.5q-8 0 -24 -2.5t-38 -7.5l4 105q1 33 2 65t1 67v57v0z" />
    <glyph glyph-name="o" unicode="o" horiz-adv-x="549" 
d="M24 242q0 70 22.5 118.5t58 79t80 44t89.5 13.5t89.5 -13.5t80 -44t58 -79t22.5 -118.5t-22.5 -119t-58 -79.5t-80 -44t-89.5 -13.5t-89.5 13.5t-80 44t-58 79.5t-22.5 119zM153 242q0 -35 6 -67.5t20 -57t37 -39.5t58 -15q34 0 57.5 15t37.5 39.5t20 57t6 67.5
q0 34 -6 66.5t-20 57.5t-37.5 40t-57.5 15q-35 0 -58 -15t-37 -40t-20 -57.5t-6 -66.5z" />
    <glyph glyph-name="p" unicode="p" horiz-adv-x="508" 
d="M40 193q0 32 -0.5 70.5t-2 78.5t-3 79.5t-4.5 73.5q26 -5 43.5 -8.5t24.5 -3.5q8 0 25 3t40 8q-2 -13 -2.5 -17t-0.5 -6q0 -3 0.5 -6.5t1.5 -14.5q22 20 53.5 33.5t76.5 13.5q40 0 78.5 -14.5t68.5 -45.5t48.5 -78.5t18.5 -113.5t-20 -114.5t-52 -80.5t-72 -48t-81 -16
q-75 0 -125 45q0 -32 0.5 -69t2 -75t3 -75.5t4.5 -68.5q-25 5 -43 8.5t-25 3.5t-24.5 -3.5t-43.5 -8.5q3 33 4.5 71.5t3 78.5t2 78.5t0.5 70.5v151zM377 245q0 49 -9.5 81.5t-24.5 51.5t-34 26.5t-37 7.5q-32 0 -54 -14t-35.5 -38t-20 -55.5t-6.5 -66.5q0 -171 113 -171
q28 0 48 14t33.5 38t20 56.5t6.5 69.5z" />
    <glyph glyph-name="q" unicode="q" horiz-adv-x="507" 
d="M467 42q0 -32 0.5 -70.5t2 -78.5t3 -78.5t4.5 -71.5q-26 5 -43.5 8.5t-24.5 3.5t-25 -3.5t-43 -8.5q3 33 4.5 71.5t3 78.5t2 78.5t0.5 70.5q-27 -27 -61 -41.5t-70 -14.5q-39 0 -78 13t-70.5 42.5t-51 78t-19.5 119.5q0 67 20 116t51.5 80.5t70.5 46.5t77 15
q80 0 124 -41q-1 10 -2 19t-3 20q25 -5 43.5 -8.5t26.5 -3.5q7 0 24.5 3.5t43.5 8.5q-3 -34 -4.5 -73.5t-3 -79.5t-2 -78.5t-0.5 -70.5v-151zM351 251q0 31 -6 60t-19.5 51.5t-34.5 36t-51 13.5q-19 0 -38.5 -8t-35.5 -28t-26 -55.5t-10 -89.5q0 -35 6.5 -65t19 -52
t31.5 -34.5t45 -12.5q29 0 51.5 16t37.5 42t22.5 59t7.5 67z" />
    <glyph glyph-name="r" unicode="r" horiz-adv-x="291" 
d="M257 359q-7 8 -18.5 14.5t-21.5 6.5q-34 0 -53 -31t-19 -76v-101.5t1 -72.5t2 -56.5t4 -53.5q-22 5 -38.5 8t-25.5 3q-5 0 -22 -3t-43 -8q3 30 4 59t2 59.5t1 63.5v71v30q0 18 -0.5 43.5t-1 55t-2 61.5t-2.5 62q49 -11 64 -11q9 0 27 3.5t41 9.5q-4 -17 -6.5 -29.5
t-2.5 -17.5q24 26 48.5 37t50.5 11q11 0 23 -2.5t38 -12.5q-11 -24 -12.5 -51.5t-1.5 -49.5z" />
    <glyph glyph-name="s" unicode="s" horiz-adv-x="369" 
d="M85 132q5 -10 14 -21.5t21 -21t26 -16t30 -6.5q26 0 47 15.5t21 45.5q0 13 -7 22.5t-18 16.5t-25.5 12t-30.5 10q-25 7 -50 16t-45 25t-32.5 40.5t-12.5 62.5q0 35 12 65t35 52t56 34.5t76 12.5q28 0 49.5 -6.5t40.5 -13.5l2 -1l3 -1t13 -3.5t32 -8.5q-7 -12 -13.5 -27
t-12 -30t-9 -28t-4.5 -20h-48q-8 23 -25.5 40.5t-40.5 17.5q-20 0 -38 -13t-18 -42q0 -14 7 -24t19 -17.5t27 -12.5t30 -9q24 -7 49 -16t44.5 -24.5t32 -39.5t12.5 -61q0 -31 -13.5 -61.5t-38.5 -55t-60.5 -39.5t-79.5 -15q-47 0 -84.5 14t-66.5 31q4 8 8 21t8 27t6.5 28
t2.5 25h49z" />
    <glyph glyph-name="t" unicode="t" horiz-adv-x="283" 
d="M153 613h34q-6 -69 -9 -138q19 0 47 1t55 3q-4 -25 -4.5 -32t-0.5 -12t0.5 -12t4.5 -32q-25 2 -56 2.5t-48 0.5q-1 -16 -2 -42t-1.5 -56t-1 -61t-0.5 -55q0 -22 1 -43t6 -37.5t15.5 -26.5t29.5 -10q7 0 26 4t39 10v-70q-23 -9 -49 -15t-46 -6q-70 0 -104 37t-34 103
q0 23 1 48.5t2 55.5q1 19 1.5 36t1 35.5t1 41t0.5 51.5h-68q2 14 4 27t2 16q0 -2 -2 12.5t-4 31.5q21 -2 38 -3.5t27 -1.5v7q-1 17 -2 43t-2 46z" />
    <glyph glyph-name="u" unicode="u" horiz-adv-x="485" 
d="M30 162q0 27 0.5 49.5t1.5 42.5q1 17 1 32v30q0 16 -0.5 38.5t-1 47t-1 48.5t-0.5 44q46 -11 64 -11t64 11q-2 -27 -4.5 -63t-4 -74.5t-2.5 -78t-1 -73.5q0 -43 6.5 -64.5t16.5 -32.5q11 -12 26.5 -19.5t36.5 -7.5q31 0 51.5 13.5t30.5 33.5q6 13 10 24t5.5 29t2 48
t0.5 83v43.5t-0.5 49.5t-1 48.5t-1.5 40.5q46 -11 63 -11q9 0 25.5 3.5t38.5 8.5q-5 -73 -7 -156t-2 -158q0 -21 0.5 -46t1.5 -51t2 -51t2 -44q-22 5 -38 8t-24 3t-23.5 -2.5t-35.5 -7.5q1 12 1.5 16t0.5 8q0 3 -0.5 7.5t-0.5 12.5q-54 -48 -124 -48q-85 0 -132 45.5
t-47 130.5z" />
    <glyph glyph-name="v" unicode="v" horiz-adv-x="491" 
d="M191 11l-12 33l1 -1q-20 51 -43 109t-47 117t-49 117t-49 110q32 -6 54 -9.5t33 -3.5q9 0 23.5 2.5t33.5 6.5q56 -178 124 -335q13 28 26 61.5t26.5 68.5t26 70.5t24.5 67.5l11.5 34.5t12.5 34.5q15 -5 27 -8t17 -3q6 0 25 5t45 13q-3 -7 -9.5 -21.5t-13.5 -31t-13.5 -31
t-9.5 -21.5q-44 -98 -88.5 -203.5t-79.5 -202.5q-15 4 -27 7t-17 3t-11 -1t-12 -3z" />
    <glyph glyph-name="w" unicode="w" horiz-adv-x="794" 
d="M193 12q-11 37 -30.5 93.5t-43.5 122t-51.5 135.5t-53.5 134q31 -6 52.5 -10t29.5 -4q7 0 23 2.5t37 7.5q23 -88 48.5 -166.5t53.5 -155.5q12 32 26 71.5t28.5 82.5t28 86.5t25.5 82.5q15 -5 26.5 -8t16.5 -3t16 3t26 8q23 -88 48.5 -165.5t54.5 -155.5q13 34 28.5 74.5
t31 83.5t30.5 84.5t28 77.5q16 -5 27 -7.5t17 -2.5q5 0 24.5 6t48.5 16q-63 -135 -116.5 -262t-96.5 -248q-2 0 -13 0.5t-13 0.5q-5 2 -9.5 3t-6.5 1q-3 0 -16 -3.5t-24 -6.5q-23 81 -49 160t-54 153q-12 -32 -26.5 -70.5t-28.5 -79.5t-27.5 -81.5t-24.5 -76.5q-2 0 -13 0.5
t-13 0.5q-5 2 -10 3t-7 1t-7 -1t-10 -3q-2 0 -4.5 -0.5t-4.5 -0.5z" />
    <glyph glyph-name="x" unicode="x" horiz-adv-x="517" 
d="M160 491q26 -43 52.5 -83.5t54.5 -78.5q30 39 61.5 81.5t58.5 80.5q27 -8 42 -8q7 0 33 6t65 16q-23 -26 -50.5 -57.5t-56 -64.5t-55 -64.5t-47.5 -56.5q21 -30 48 -66.5t54.5 -73.5t54.5 -72.5t50 -64.5q-39 7 -66 11t-38 4q-9 0 -24 -2t-35 -5q-31 47 -57.5 88
t-60.5 89q-31 -44 -63 -90t-59 -88q-14 3 -25 5.5t-16 2.5q-8 0 -33 -5.5t-63 -16.5q22 27 49.5 60.5t56 69t55 69.5t47.5 61q-21 29 -46.5 63t-52.5 69t-52.5 68t-46.5 60q41 -7 68 -11t36 -4q18 0 61 8z" />
    <glyph glyph-name="y" unicode="y" horiz-adv-x="487" 
d="M51 -265q51 83 88 153t63 131q-12 29 -29.5 72t-38 91.5t-41.5 98.5t-39.5 93t-33 76t-20.5 47q32 -6 54 -10t29 -4q9 0 24.5 2.5t34.5 6.5q25 -77 57.5 -162t65.5 -166q33 74 65 159.5t58 170.5q36 -11 47 -11q5 0 24.5 5t49.5 13q-7 -14 -23 -48t-37.5 -81.5
t-47.5 -105t-53 -118t-53.5 -121.5t-49 -114.5t-39.5 -97t-25 -70.5q-16 5 -28 7.5t-19 2.5q-6 0 -28 -5.5t-55 -14.5z" />
    <glyph glyph-name="z" unicode="z" horiz-adv-x="486" 
d="M15 40q34 42 71 89t73 94.5t69 92t60 80.5l-1 -1v1q0 1 3 4q-24 -1 -54.5 -2.5t-62.5 -3.5t-62.5 -4.5t-53.5 -4.5q5 20 6.5 32.5t1.5 20.5q0 3 -1.5 16.5t-6.5 36.5q48 -5 112 -6.5t150 -1.5q18 0 34.5 0.5t33 1.5t35.5 2.5t43 3.5v-49q-38 -48 -79 -101.5t-78.5 -103
t-68.5 -90.5t-48 -66q28 0 56 1t60 3t70.5 4.5t88.5 7.5q-4 -16 -6.5 -30.5t-2.5 -21.5q0 -5 2.5 -19.5t6.5 -30.5h-19t-24.5 0.5l-25 1t-19.5 0.5q-42 2 -87 2.5t-87 0.5q-63 0 -124 -3h1q-11 -1 -33 -1.5t-33 -0.5v45z" />
    <glyph glyph-name="braceleft" unicode="{" horiz-adv-x="243" 
d="M-8 329q34 0 51 17.5t17 46.5v159q0 38 7 63.5t20.5 40.5t33 21.5t45.5 6.5h77v-81h-53q-13 0 -19 -9.5t-6 -41.5v-153q0 -42 -14.5 -68.5t-40.5 -44.5q24 -18 39.5 -46t15.5 -67v-153q0 -32 6 -42t19 -10h53v-81h-77q-26 0 -45.5 6.5t-33 22t-20.5 41t-7 63.5v158
q0 29 -17 47t-51 18v86z" />
    <glyph glyph-name="bar" unicode="|" horiz-adv-x="144" 
d="M21 747h96v-980h-96v980z" />
    <glyph glyph-name="braceright" unicode="}" horiz-adv-x="243" 
d="M250 243q-34 0 -51 -18t-17 -47v-158q0 -38 -7 -63.5t-20.5 -41t-33.5 -22t-45 -6.5h-77v81h53q13 0 19 10t6 42v153q0 41 14.5 67.5t40.5 45.5q-24 17 -39.5 45t-15.5 68v153q0 32 -6 41.5t-19 9.5h-53v81h77q25 0 45 -6.5t33.5 -21.5t20.5 -40.5t7 -63.5v-159
q0 -29 17 -46.5t51 -17.5v-86z" />
    <glyph glyph-name="asciitilde" unicode="~" horiz-adv-x="520" 
d="M20 237q28 47 59.5 74.5t81.5 27.5q33 0 55 -7.5t43 -17.5h-1l16 -8t15 -7q19 -9 36 -16.5t35 -7.5q10 0 21 9t22.5 23t22 30.5t18.5 31.5l57 -86q-12 -18 -27 -36.5t-32 -33.5t-38 -24t-45 -9q-29 0 -56.5 10t-60.5 27q-22 11 -41 19t-34 8q-16 0 -29 -9.5t-24.5 -23.5
t-20 -31t-15.5 -33z" />
    <glyph glyph-name="exclamdown" unicode="&#xa1;" horiz-adv-x="175" 
d="M117 327q1 -13 2.5 -30t3 -35t3 -35t2.5 -31q3 -44 8 -100t9 -107.5t7 -89t3 -42.5q0 -38 -21.5 -53.5t-47.5 -15.5t-47.5 15.5t-21.5 53.5q0 7 2.5 39.5t6 79.5t8.5 104.5t10 115.5q1 14 2.5 31.5t3 35.5t3 34.5t2.5 29.5h62zM9 421q0 32 22.5 54t54.5 22t54.5 -22
t22.5 -54t-22.5 -54.5t-54.5 -22.5t-54.5 22.5t-22.5 54.5z" />
    <glyph glyph-name="cent" unicode="&#xa2;" horiz-adv-x="480" 
d="M23 242q0 56 16 99t43.5 74t64 49.5t77.5 26.5q-1 20 -2.5 47.5t-6.5 64.5q22 -7 35.5 -11.5t16.5 -4.5t17 4.5t35 11.5q-5 -35 -6.5 -61t-2.5 -45q48 -5 88.5 -21.5t63.5 -36.5q-9 -20 -17 -42.5t-13 -48.5h-40q-12 20 -33 42t-49 28q1 -89 1.5 -170.5t1.5 -172.5
q29 6 60.5 26.5t55.5 47.5l31 -30q-7 -41 -9 -64q-28 -23 -65.5 -41t-75.5 -24q1 -21 3.5 -51.5t5.5 -63.5q-21 7 -34 11t-18 4q-4 0 -17.5 -4t-33.5 -11q3 30 5 61.5t3 54.5q-39 6 -75.5 23.5t-64 48t-44.5 75t-17 104.5zM224 408q-44 -17 -58.5 -60.5t-14.5 -104.5
t19.5 -101t53.5 -57v323z" />
    <glyph glyph-name="sterling" unicode="&#xa3;" horiz-adv-x="507" 
d="M44 102q32 0 52.5 9.5t32 26.5t15.5 41.5t4 54.5q0 18 -1.5 37t-3.5 37q-25 -1 -54 -1h-46q6 26 7 33t1 12q0 3 -1.5 11t-10.5 40q39 -8 58.5 -10t34.5 -3q-1 11 -1.5 20t-0.5 20q0 71 20 118t51 75t68.5 39.5t72.5 11.5q40 0 82 -18.5t68 -56.5q-13 -14 -28 -35.5
t-32 -51.5l-29 28q-7 26 -23.5 39.5t-37.5 13.5q-40 0 -64 -29.5t-24 -73.5q0 -30 0.5 -53.5t2.5 -45.5v2v-1q0 -1 0.5 -1t0.5 -1q27 0 43 0.5t38 2.5h-1q4 0 13.5 0.5t20 1.5t20 1.5t14.5 0.5q-2 -15 -4 -28t-2 -17q0 -3 1.5 -16t3.5 -29h-37q-16 0 -28 0.5t-23 1
t-23.5 0.5h-29.5v-20q0 -57 -17 -104t-44 -81q50 1 99.5 3t96.5 4q8 0 20.5 0.5t25.5 1.5t25 1.5t20 0.5q-4 -23 -5.5 -38.5t-1.5 -23.5t2 -22.5t6 -35.5h-18.5t-23.5 0.5t-23.5 1t-17.5 0.5q-40 2 -82.5 2.5t-82.5 0.5q-79 0 -158 -3q-8 0 -19.5 -0.5l-23 -1t-22 -0.5
h-16.5q2 16 3.5 31t1.5 23q0 9 -1 23t-3 30h39z" />
    <glyph glyph-name="currency" unicode="&#xa4;" horiz-adv-x="574" 
d="M483 595l67 -68l-53 -54q45 -62 45 -144q0 -79 -44 -141l52 -53l-67 -69l-54 53q-31 -21 -67 -32.5t-75 -11.5q-41 0 -77.5 11.5t-66.5 32.5q-5 -5 -13 -12.5t-16 -15.5l-15 -15l-10 -10l-67 69l53 54q-20 31 -31.5 66.5t-11.5 73.5q0 84 44 144q-6 6 -13.5 14t-15 15.5
t-14 14.5t-10.5 11l66 67l55 -56q30 21 67.5 33t75.5 12t75.5 -12t66.5 -32zM447 329q0 34 -12.5 64t-34 52.5t-50.5 35.5t-63 13t-63.5 -13t-51 -35.5t-33.5 -52.5t-12 -64t12 -63.5t33.5 -52t51 -35.5t63.5 -13t63 13t50.5 35.5t34 52t12.5 63.5z" />
    <glyph glyph-name="yen" unicode="&#xa5;" horiz-adv-x="549" 
d="M207 309q-18 0 -41.5 -0.5t-41.5 -1.5q-14 0 -40 -0.5t-40 -0.5q2 15 4 27.5t2 15.5q0 4 -2 16.5t-4 27.5q38 -1 67.5 -2t67.5 -1q-11 17 -21.5 33.5t-21.5 33.5q-15 24 -34.5 55t-40.5 63.5t-41 63.5t-36 55q35 -5 61 -9t38 -4q21 0 64 8q7 -18 22.5 -48t35 -65.5
t41.5 -73t42 -70.5q41 62 79.5 127t74.5 131q14 -4 25 -6.5t18 -2.5q6 0 30.5 6t62.5 17q-18 -24 -45.5 -62t-57.5 -80.5t-60.5 -86.5t-55.5 -81h1l-2 -4q0 2 1 3q-1 0 -1 -1q-1 -1 -1 -2v-1l1 1q34 1 70 1.5t65 1.5q-2 -15 -4 -27.5t-2 -16.5q0 -3 2 -15.5t4 -27.5h-18
t-23 0.5t-23.5 0.5h-17.5q-14 0 -23.5 0.5t-18.5 1t-19 0.5h-23v-35q39 0 85 0.5t81 1.5q-2 -14 -4 -27t-2 -17q0 -3 2 -16t4 -27q-41 1 -83 2.5t-83 1.5q1 -51 3 -106.5t6 -97.5q-26 5 -44 8t-25 3q-9 0 -27 -2.5t-41 -7.5q4 50 6 101.5t2 101.5q-38 -1 -83 -2t-80 -2
q2 14 4 27t2 16q0 4 -2 17t-4 27q40 -1 81.5 -1.5t81.5 -0.5v35z" />
    <glyph glyph-name="brokenbar" unicode="&#xa6;" horiz-adv-x="130" 
d="M21 210h96v-373h-96v373zM21 677h96v-374h-96v374z" />
    <glyph glyph-name="section" unicode="&#xa7;" horiz-adv-x="437" 
d="M314 539q-8 31 -29.5 54.5t-51.5 23.5q-15 0 -29.5 -5t-26 -14t-18.5 -22t-7 -29q0 -19 9.5 -32.5t24.5 -24.5t35 -19.5t41 -16.5q29 -12 57.5 -24.5t51 -31t36.5 -45t14 -64.5q0 -35 -15 -67t-31 -53q13 -16 19.5 -35.5t6.5 -48.5q0 -39 -14.5 -76t-42 -65.5
t-68.5 -45.5t-94 -17q-19 0 -40.5 4.5t-42.5 12t-40.5 17t-34.5 20.5q5 21 9 54t4 58h50q4 -11 13.5 -25.5t24 -28t35.5 -22.5t48 -9q20 0 37.5 7.5t31 20t21.5 28t8 31.5q0 17 -9.5 29.5t-25 23t-36 19t-42.5 16.5q-32 12 -63.5 26t-56.5 34t-40.5 49t-15.5 72
q0 42 18.5 72.5t38.5 49.5q-8 14 -12.5 32t-4.5 50q0 33 12 65t35.5 56.5t59 39.5t82.5 15q52 0 91 -26t65 -56q-13 -12 -24.5 -34.5t-13.5 -42.5h-50zM330 248q0 25 -16 40.5t-52 31.5q-57 26 -91 42.5t-48 24.5q-15 -18 -15 -38q0 -26 20 -43.5t66 -37.5q48 -21 78 -34.5
t49 -23.5q4 8 6.5 17.5t2.5 20.5z" />
    <glyph glyph-name="dieresis" unicode="&#xa8;" horiz-adv-x="376" 
d="M208 618q0 29 21 50t50 21q30 0 50.5 -21t20.5 -50t-20.5 -50t-50.5 -21q-29 0 -50 21t-21 50zM25 618q0 29 20.5 50t50.5 21q29 0 49.5 -21t20.5 -50t-20.5 -50t-49.5 -21q-30 0 -50.5 21t-20.5 50z" />
    <glyph glyph-name="copyright" unicode="&#xa9;" horiz-adv-x="775" 
d="M30 341q0 74 28 139t76.5 113.5t113.5 76.5t139 28t139 -28t113.5 -76.5t76.5 -113.5t28 -139t-28 -139.5t-76.5 -114t-113.5 -76.5t-139 -28t-139 28t-113.5 76.5t-76.5 114t-28 139.5zM659 341q0 60 -23.5 112t-63.5 90q-8 -17 -13 -37t-7 -41l-36 -2q-6 6 -15.5 14
t-22.5 15.5t-29 13t-36 5.5q-28 0 -54.5 -7.5t-47 -27t-33 -53t-12.5 -85.5q0 -35 9.5 -65t28 -51.5t45 -34t61.5 -12.5q17 0 34 5t32.5 12.5t28.5 17t22 17.5l50 -2q-11 -27 -14 -45.5t-3 -28.5q-12 -7 -29 -15t-38 -15.5t-45 -12.5t-48 -5q-54 0 -98.5 16.5t-76.5 47.5
t-50 74.5t-18 97.5q0 61 19.5 107t54 76.5t80.5 46t99 15.5q48 0 88 -10t70 -27q-36 32 -82 51t-99 19q-57 0 -106.5 -22t-86.5 -59.5t-58 -87.5t-21 -107t21 -107.5t58 -88t86.5 -59.5t106.5 -22t106.5 22t86.5 59.5t58 88t21 107.5z" />
    <glyph glyph-name="ordfeminine" unicode="&#xaa;" horiz-adv-x="341" 
d="M47 636q26 12 55 25t70 13q19 0 40.5 -4.5t39.5 -16.5t30 -34t12 -57q0 -19 -1 -42t-2 -43q0 -17 -0.5 -29.5t-0.5 -21.5t-3 -9q1 0 6 2t11 5t12.5 6.5t11.5 6.5v-68q-11 -7 -29.5 -14t-37.5 -7t-31.5 7t-20.5 18q-18 -12 -38 -18.5t-45 -6.5q-18 0 -37.5 4.5t-35.5 15.5
t-26.5 28.5t-10.5 44.5q0 21 5 37t17.5 28t34.5 20.5t55 14.5h-1q24 5 37 6.5t20 3.5q8 1 10 2q0 31 -12.5 39.5t-30.5 8.5q-20 0 -34.5 -12.5t-20.5 -24.5h-49v72zM194 489q-3 -1 -7.5 -1.5t-7.5 -1.5q-21 -3 -39.5 -10.5t-18.5 -29.5q0 -13 8.5 -19t19.5 -6q14 0 25 7
t20 16v45z" />
    <glyph glyph-name="guillemotleft" unicode="&#xab;" horiz-adv-x="361" 
d="M148 459q10 -18 29.5 -32.5t44.5 -18.5l-118 -167q12 -19 27 -42.5l30 -47t29 -46t25 -38.5q-20 -3 -40.5 -19.5t-29.5 -36.5l-144 230zM284 459q10 -18 29.5 -32.5t43.5 -18.5l-117 -167q12 -19 27 -42.5l30 -47t29 -46t25 -38.5q-20 -3 -41 -19.5t-29 -36.5l-145 230z
" />
    <glyph glyph-name="logicalnot" unicode="&#xac;" horiz-adv-x="552" 
d="M419 302h-423v96h518v-297h-95v201z" />
    <glyph glyph-name="registered" unicode="&#xae;" horiz-adv-x="775" 
d="M30 341q0 74 28 139t76.5 113.5t113.5 76.5t139 28t139 -28t113.5 -76.5t76.5 -113.5t28 -139t-28 -139.5t-76.5 -114t-113.5 -76.5t-139 -28t-139 28t-113.5 76.5t-76.5 114t-28 139.5zM587 152q34 38 53 86t19 103q0 57 -21 107t-58 87.5t-86.5 59.5t-106.5 22
q-38 0 -73.5 -10.5t-65.5 -28.5q25 -2 46.5 -3.5t38.5 -1.5q9 0 17 0.5t18 1.5q9 1 19.5 2t20.5 1q30 0 55.5 -7t44.5 -21.5t30 -36.5t11 -52q0 -28 -9.5 -49.5t-25.5 -37.5t-35.5 -27t-38.5 -17q7 -8 12.5 -16t11.5 -16q15 -19 31.5 -40.5t33 -41.5t32 -36.5t26.5 -25.5v-2
zM115 341q0 -71 31 -130t84 -97l2.5 30t2.5 23q2 26 3.5 52t1.5 50v159q0 29 -2.5 66.5t-6.5 72.5q-53 -37 -84.5 -96.5t-31.5 -129.5zM287 119q-5 0 -18 -2.5t-31 -7.5q32 -22 69.5 -33.5t79.5 -11.5q46 0 86.5 14t74.5 40q-7 1 -11.5 1h-8.5q-8 0 -20 -1.5t-27 -5.5
q-32 47 -70 98t-76 99v-36q0 -33 2 -74.5t6 -92.5q-22 7 -36.5 10t-19.5 3zM335 384q2 0 2.5 -0.5t1.5 -0.5q2 0 4.5 0.5t7.5 0.5q38 0 66 16t28 55q0 25 -18 39.5t-46 14.5h-21.5t-21.5 -2l-2 -34t-1 -33v-56z" />
    <glyph glyph-name="macron" unicode="&#xaf;" horiz-adv-x="360" 
d="M29 659h301v-95h-301v95z" />
    <glyph glyph-name="degree" unicode="&#xb0;" horiz-adv-x="350" 
d="M15 515q0 33 12.5 62t34 50.5t50.5 34t62 12.5t62 -12.5t50.5 -34t34 -50.5t12.5 -62t-12.5 -62t-34 -50t-50.5 -33.5t-62 -12.5t-62 12.5t-50.5 33.5t-34 50t-12.5 62zM97 515q0 -32 22.5 -54.5t54.5 -22.5t54.5 22.5t22.5 54.5t-22.5 55t-54.5 23t-54.5 -23t-22.5 -55z
" />
    <glyph glyph-name="plusminus" unicode="&#xb1;" horiz-adv-x="522" 
d="M2 95h211v159h-211v95h211v170h96v-170h211v-95h-211v-159h211v-95h-518v95z" />
    <glyph glyph-name="twosuperior" unicode="&#xb2;" horiz-adv-x="337" 
d="M34 596q28 42 61 60t78 18q31 0 57 -7t45.5 -22t30.5 -38t11 -55q0 -24 -5.5 -44.5t-22 -44.5t-46.5 -54.5t-80 -75.5q21 0 43.5 0.5t44 1t40.5 1.5t34 2q-5 -19 -7 -31t-2 -17q0 -4 2 -15t10 -34q-17 1 -38 2t-43.5 2t-44 1.5t-37.5 0.5t-36 -0.5t-40.5 -1.5t-40.5 -2
t-36 -2v49q9 9 22 20.5t21 19.5q36 33 64.5 61t48.5 53.5t30.5 50.5t10.5 54t-13 42.5t-32 13.5q-14 0 -24 -6t-16.5 -15t-11 -19.5t-5.5 -18.5l-35 -2z" />
    <glyph glyph-name="threesuperior" unicode="&#xb3;" horiz-adv-x="325" 
d="M27 343h33q10 -11 28.5 -21.5t41.5 -10.5q33 0 52.5 18.5t19.5 47.5q0 33 -16 45.5t-36 12.5q-9 0 -31 -5.5t-44 -12.5q8 24 12 37t4 15q0 3 -5 18.5t-14 43.5q33 -15 49.5 -21t20.5 -6q13 0 21 5.5t13 14.5t7 19.5t2 20.5q0 21 -12 31t-27 10q-17 0 -31.5 -12.5
t-20.5 -27.5l-34 -1l-29 59q19 17 49.5 34t78.5 17q55 0 93 -26t38 -80q0 -29 -12 -51t-29 -37q23 -12 42 -35.5t19 -60.5q0 -32 -13 -58t-36 -45t-56 -29t-73 -10q-38 0 -68.5 9t-54.5 21z" />
    <glyph glyph-name="acute" unicode="&#xb4;" horiz-adv-x="282" 
d="M156 701q13 13 27.5 21t31.5 8q8 0 17.5 -3.5t17.5 -10.5t13.5 -16.5t5.5 -22.5q0 -26 -15.5 -40.5t-29.5 -23.5q-35 -22 -71.5 -45.5t-71.5 -45.5h-102z" />
    <glyph glyph-name="mu" unicode="&#xb5;" horiz-adv-x="461" 
d="M211 -14q-17 0 -32 2t-30 7q0 -56 2.5 -115t10.5 -136q-46 11 -66 11q-11 0 -27 -2.5t-36 -7.5v36.5t0.5 41t1 39.5t0.5 33q1 42 1.5 85.5t0.5 96.5q0 69 -0.5 125t-1.5 107q0 20 -0.5 45t-0.5 50v48.5v40.5q20 -5 36.5 -7.5t26.5 -2.5q18 0 64 11q-2 -27 -4.5 -63
t-4 -74.5t-2.5 -78t-1 -73.5q0 -43 6.5 -64.5t16.5 -32.5q11 -12 26.5 -19.5t36.5 -7.5q31 0 51.5 13.5t30.5 33.5q6 13 10 24t5.5 29t2 48t0.5 83v43.5t-0.5 49.5t-1 48.5t-1.5 40.5q46 -11 63 -11q9 0 25.5 3.5t38.5 8.5q-5 -73 -7 -156t-2 -158q0 -21 0.5 -46t1.5 -51
t2 -51t2 -44q-22 5 -38 8t-24 3t-23.5 -2.5t-35.5 -7.5q1 12 1.5 16t0.5 8q0 3 -0.5 7.5t-0.5 12.5q-54 -48 -125 -48z" />
    <glyph glyph-name="paragraph" unicode="&#xb6;" horiz-adv-x="496" 
d="M330 592q-2 -1 -6 -1t-7 -1v-697h-81v380q-116 6 -174 64.5t-58 148.5q0 99 56 147t153 48h267v-66l-70 -11v-711h-80v699z" />
    <glyph glyph-name="periodcentered" unicode="&#xb7;" horiz-adv-x="183" 
d="M11 309q0 33 23 56t56 23t56 -23t23 -56t-23 -56t-56 -23t-56 23t-23 56z" />
    <glyph glyph-name="cedilla" unicode="&#xb8;" horiz-adv-x="246" 
d="M24 -110q16 -7 38 -12.5t42 -5.5q14 0 23.5 4t9.5 12t-7.5 11t-17.5 3q-11 0 -22 -4t-21 -10l-30 31l49 128h81l-21 -64q45 -2 69 -26t24 -63q0 -26 -11 -45t-29 -32t-42.5 -19.5t-51.5 -6.5q-31 0 -61.5 9t-52.5 17z" />
    <glyph glyph-name="onesuperior" unicode="&#xb9;" horiz-adv-x="229" 
d="M113 570q-17 -9 -36 -19.5t-31 -15.5q-7 11 -16 20.5t-17 13.5v41q42 14 84 30.5t71 33.5h42q-2 -18 -3 -40t-2 -44.5t-1.5 -44.5t-0.5 -40v-93q0 -18 0.5 -41t2 -47t2.5 -47t3 -42q-20 6 -35.5 9t-22.5 3t-22.5 -3t-35.5 -9q1 19 2.5 42.5t3 47.5t2 46.5t0.5 40.5z" />
    <glyph glyph-name="ordmasculine" unicode="&#xba;" horiz-adv-x="395" 
d="M24 511q0 45 15 76t40 50.5t56 28t63 8.5q31 0 61.5 -8.5t55 -28t40 -50.5t15.5 -76t-15.5 -76t-40 -50.5t-55 -28t-61.5 -8.5q-32 0 -63 8.5t-56 28t-40 50.5t-15 76zM133 511q0 -18 3.5 -34.5t11 -30t20 -21.5t30.5 -8t30 8t19.5 21.5t10.5 30t3 34.5q0 17 -3 34
t-10.5 30.5t-19.5 21.5t-30 8t-30.5 -8t-20 -21.5t-11 -30.5t-3.5 -34z" />
    <glyph glyph-name="guillemotright" unicode="&#xbb;" horiz-adv-x="362" 
d="M146 412q20 2 40.5 19t29.5 37l144 -230l-147 -218q-10 18 -29.5 32.5t-44.5 18.5l118 167zM10 412q20 2 41 19t29 37l145 -230l-148 -218q-10 18 -29.5 32.5t-43.5 18.5l117 167z" />
    <glyph glyph-name="onequarter" unicode="&#xbc;" horiz-adv-x="762" 
d="M398 148q49 65 105.5 138.5t107.5 138.5q10 -3 19 -5.5t14 -2.5t19 3.5t30 8.5q-4 -60 -5.5 -122.5t-1.5 -122.5q14 2 29.5 5t33.5 8q-5 -18 -8.5 -34t-3.5 -20t3 -18.5t8 -31.5q-11 2 -28 4.5t-34 2.5q1 -28 2.5 -58t3.5 -54q-20 5 -35 8.5t-21 3.5t-21 -3.5t-35 -8.5
q2 26 4.5 56t2.5 57q-26 0 -54.5 -0.5t-54.5 -1.5t-47 -1.5t-33 -1.5v52zM446 692q14 -5 22.5 -8.5t11.5 -3.5q5 0 20.5 6t41.5 15l-286 -734q-14 5 -23 8.5t-11 3.5q-3 0 -19.5 -6t-42.5 -16zM122 570q-17 -9 -36.5 -19.5t-30.5 -15.5q-7 11 -16 20.5t-17 13.5v41
q42 14 84 30.5t71 33.5h42q-2 -18 -3 -40t-2.5 -44.5t-2 -44.5t-0.5 -40v-93q0 -18 1 -41t2 -47t2.5 -47t3.5 -42q-20 6 -35.5 9t-22.5 3t-22.5 -3t-35.5 -9q1 19 2.5 42.5t3 47.5t2 46.5t0.5 40.5zM587 275q-39 -47 -70 -93h70v93zM503 160q0 -1 1 -1z" />
    <glyph glyph-name="onehalf" unicode="&#xbd;" horiz-adv-x="749" 
d="M443 349q29 41 62 59.5t77 18.5q31 0 57.5 -7.5t46 -22.5t30.5 -38t11 -55q0 -24 -5.5 -44t-22 -44t-46.5 -55t-80 -75q42 0 87 1.5t75 3.5q-10 -37 -10 -48q0 -5 2.5 -16t9.5 -34q-16 1 -37 2.5t-43.5 2.5t-44 1.5t-37.5 0.5t-36 -0.5t-40.5 -1.5t-40.5 -2.5t-36 -2.5
v50q9 9 22 20.5t21 19.5q36 33 64.5 61t48.5 53.5t30.5 50.5t10.5 53q0 30 -13.5 43t-31.5 13q-14 0 -24 -6t-16.5 -15t-11 -19t-5.5 -18l-35 -2zM442 692q14 -5 23 -8.5t12 -3.5q5 0 20.5 6t41.5 15l-286 -734q-14 5 -23 8.5t-12 3.5q-2 0 -18.5 -6t-42.5 -16zM121 570
q-17 -9 -36 -19.5t-31 -15.5q-6 11 -15 20.5t-17 13.5v41q42 14 83.5 30.5t70.5 33.5h42q-1 -18 -2.5 -40t-2.5 -44.5t-1.5 -44.5t-0.5 -40v-93q0 -18 1 -41t2 -47t2.5 -47t2.5 -42q-41 12 -57 12q-8 0 -23 -3t-35 -9q1 19 2.5 42.5t2.5 47.5t1.5 46.5t0.5 40.5z" />
    <glyph glyph-name="threequarters" unicode="&#xbe;" horiz-adv-x="803" 
d="M436 148q50 65 106 138.5t107 138.5q10 -3 19 -5.5t14 -2.5t19 3.5t30 8.5q-3 -60 -4.5 -122.5t-1.5 -122.5q28 3 62 13q-5 -18 -8.5 -34t-3.5 -20t3.5 -18.5t7.5 -31.5q-11 2 -27.5 4.5t-33.5 2.5q1 -28 2.5 -58t2.5 -54q-20 5 -34.5 8.5t-21.5 3.5q-6 0 -20.5 -3.5
t-35.5 -8.5q2 26 4.5 56t2.5 57q-26 0 -54.5 -0.5t-54.5 -1.5t-47 -1.5t-33 -1.5v52zM34 343h33q10 -11 28.5 -21.5t41.5 -10.5q33 0 52.5 18.5t19.5 47.5q0 33 -16.5 45.5t-36.5 12.5q-9 0 -30.5 -5.5t-43.5 -12.5q8 24 12 37t4 15q0 3 -5 18.5t-14 43.5q33 -15 49 -21
t21 -6q13 0 21 5.5t13 14.5t7 19.5t2 20.5q0 21 -12 31t-27 10q-18 0 -32 -12.5t-21 -27.5l-33 -1l-29 59q19 17 49.5 34t78.5 17q55 0 92.5 -26t37.5 -80q0 -29 -11.5 -51t-29.5 -37q23 -12 42.5 -35.5t19.5 -60.5q0 -32 -13 -58t-36 -45t-56 -29t-73 -10q-38 0 -68.5 9
t-54.5 21zM495 692q14 -5 23 -8.5t12 -3.5q4 0 20 6t41 15l-285 -734q-14 5 -23 8.5t-12 3.5q-2 0 -18.5 -6t-42.5 -16zM625 275q-37 -46 -70 -93h70v93zM541 160q0 -1 1 -1z" />
    <glyph glyph-name="questiondown" unicode="&#xbf;" horiz-adv-x="286" 
d="M66 262q8 11 16.5 26.5t9.5 24.5q14 5 27.5 8t27.5 3t35 -7t40.5 -22t33.5 -39t14 -59q0 -29 -8 -52t-21.5 -43.5t-30 -38t-33.5 -34.5q-26 -26 -47 -51.5t-21 -54.5q0 -25 18 -39.5t39 -14.5q20 0 47 21.5t55 55.5l14 -115q-26 -15 -55.5 -29t-65.5 -14q-39 0 -69.5 12
t-51 32t-31 46.5t-10.5 56.5q0 31 8.5 56.5t23 47.5t32 41t35.5 37q26 26 46.5 51t20.5 51q0 11 -6 21.5t-19 10.5q-7 0 -17 -4.5t-16 -8.5zM85 421q0 32 22 54t54 22t54.5 -22t22.5 -54t-22.5 -54.5t-54.5 -22.5t-54 22.5t-22 54.5z" />
    <glyph glyph-name="Agrave" unicode="&#xc0;" horiz-adv-x="662" 
d="M328 698l-117 76q-15 9 -30 23.5t-15 39.5q0 13 5.5 23t13.5 16.5t17.5 10t17.5 3.5q17 0 31.5 -8t27.5 -21l177 -179h-84q16 -37 34.5 -82t35.5 -86q20 -48 42.5 -100.5t45 -104.5t44 -102t40 -92t33.5 -75t24 -52q-33 5 -56.5 8.5t-33.5 3.5q-9 0 -26 -2.5t-40 -5.5
q-14 51 -34.5 105t-42.5 106q-6 15 -9.5 24.5t-8.5 18.5q-27 1 -53 1h-53h-49.5t-48.5 -1q-27 -65 -51.5 -133.5t-38.5 -121.5q-17 4 -30.5 6.5t-20.5 2.5q-10 0 -30 -4t-46 -10q37 82 78 172.5t82.5 183t81 183t75.5 173.5h12zM319 490q-17 -40 -32 -75t-35 -81h16
q13 -1 25 -1h25h20.5h14t14 0.5t20.5 0.5z" />
    <glyph glyph-name="Aacute" unicode="&#xc1;" horiz-adv-x="663" 
d="M383 861q13 13 27.5 21t31.5 8q8 0 17.5 -3.5t17.5 -10t13.5 -16.5t5.5 -23q0 -25 -15 -39.5t-30 -23.5q-28 -19 -58.5 -38.5t-59.5 -37.5h24q16 -38 36.5 -88t39.5 -96q20 -48 42.5 -100.5t45 -104.5t44 -102t40 -92t33.5 -75t24 -52q-33 5 -56.5 8.5t-33.5 3.5
q-9 0 -26 -2.5t-40 -5.5q-14 51 -34.5 105t-42.5 106q-6 15 -9.5 24.5t-8.5 18.5q-27 1 -53 1h-53h-49.5t-48.5 -1q-27 -65 -51.5 -133.5t-38.5 -121.5q-17 4 -30.5 6.5t-20.5 2.5q-10 0 -30 -4t-46 -10q36 80 76 168t80.5 178.5t80 179.5t74.5 170h-94zM310 490
q-17 -40 -32 -75t-35 -81h16q13 -1 25 -1h25h20.5h14t14 0.5t20.5 0.5z" />
    <glyph glyph-name="Acircumflex" unicode="&#xc2;" horiz-adv-x="668" 
d="M364 698q16 -38 36.5 -88t39.5 -96q20 -48 42.5 -100.5t45 -104.5t44 -102t40 -92t33.5 -75t24 -52q-33 5 -56.5 8.5t-33.5 3.5q-9 0 -26 -2.5t-40 -5.5q-14 51 -34.5 105t-42.5 106q-6 15 -9.5 24.5t-8.5 18.5q-27 1 -53 1h-53h-49.5t-48.5 -1q-27 -65 -51.5 -133.5
t-38.5 -121.5q-17 4 -30.5 6.5t-20.5 2.5q-10 0 -30 -4t-46 -10q37 82 78 172.5t82.5 183t81 183t75.5 173.5h50zM334 772q-26 -23 -52.5 -46t-50.5 -44h-90l149 203h87l149 -203h-89zM317 490q-17 -40 -32 -75t-35 -81h16q13 -1 25 -1h25h20.5h14t14 0.5t20.5 0.5z" />
    <glyph glyph-name="Atilde" unicode="&#xc3;" horiz-adv-x="662" 
d="M361 698q16 -38 36.5 -88t39.5 -96q20 -48 42.5 -100.5t45 -104.5t44 -102t40 -92t33.5 -75t24 -52q-33 5 -56.5 8.5t-33.5 3.5q-9 0 -26 -2.5t-40 -5.5q-14 51 -34.5 105t-42.5 106q-6 15 -9.5 24.5t-8.5 18.5q-27 1 -53 1h-53h-49.5t-48.5 -1q-27 -65 -51.5 -133.5
t-38.5 -121.5q-17 4 -30.5 6.5t-20.5 2.5q-10 0 -30 -4t-46 -10q37 82 78 172.5t82.5 183t81 183t75.5 173.5h50zM149 706q4 24 13.5 49.5t25 46t37 33.5t49.5 13q9 0 17 -1t16.5 -4t19 -7.5t25.5 -11.5q23 -11 33 -15t19 -4q13 0 22 14.5t14 32.5h72q-3 -17 -10.5 -41.5
t-22.5 -48t-39 -40t-58 -16.5q-15 0 -34.5 5.5t-43.5 18.5q-21 11 -31.5 15t-18.5 4q-11 0 -17.5 -9.5t-14.5 -33.5h-73zM314 490q-17 -40 -32 -75t-35 -81h16q13 -1 25 -1h25h20.5h14t14 0.5t20.5 0.5z" />
    <glyph glyph-name="Adieresis" unicode="&#xc4;" horiz-adv-x="661" 
d="M361 698q16 -38 36.5 -88t39.5 -96q20 -48 42.5 -100.5t45 -104.5t44 -102t40 -92t33.5 -75t24 -52q-33 5 -56.5 8.5t-33.5 3.5q-9 0 -26 -2.5t-40 -5.5q-14 51 -34.5 105t-42.5 106q-6 15 -9.5 24.5t-8.5 18.5q-27 1 -53 1h-53h-49.5t-48.5 -1q-27 -65 -51.5 -133.5
t-38.5 -121.5q-17 4 -30.5 6.5t-20.5 2.5q-10 0 -30 -4t-46 -10q37 82 78 172.5t82.5 183t81 183t75.5 173.5h50zM168 778q0 30 20.5 50.5t50.5 20.5q29 0 49.5 -20.5t20.5 -50.5q0 -29 -20.5 -50t-49.5 -21q-30 0 -50.5 21t-20.5 50zM351 778q0 30 21 50.5t50 20.5
q30 0 50.5 -20.5t20.5 -50.5q0 -29 -20.5 -50t-50.5 -21q-29 0 -50 21t-21 50zM314 490q-17 -40 -32 -75t-35 -81h16q13 -1 25 -1h25h20.5h14t14 0.5t20.5 0.5z" />
    <glyph glyph-name="Aring" unicode="&#xc5;" horiz-adv-x="667" 
d="M214 786q0 24 9.5 45.5t26 37.5t38 25.5t46.5 9.5q24 0 45.5 -9.5t37.5 -25.5t25.5 -37.5t9.5 -45.5q0 -38 -21.5 -68.5t-56.5 -43.5q15 -37 32.5 -79t33.5 -81q20 -48 42.5 -100.5t45 -104.5t44 -102t40 -92t33.5 -75t24 -52q-33 5 -56.5 8.5t-33.5 3.5q-9 0 -26 -2.5
t-40 -5.5q-14 51 -34.5 105t-42.5 106q-6 15 -9.5 24.5t-8.5 18.5q-27 1 -53 1h-53h-49.5t-48.5 -1q-27 -65 -51.5 -133.5t-38.5 -121.5q-17 4 -30.5 6.5t-20.5 2.5q-10 0 -30 -4t-46 -10q36 78 75 164.5t78.5 175t78 176.5t73.5 169q-38 10 -63 41.5t-25 73.5zM317 490
q-17 -40 -32 -75t-35 -81h16q13 -1 25 -1h25h20.5h14t14 0.5t20.5 0.5zM300 786q0 -14 9.5 -23.5t23.5 -9.5t24 9.5t10 23.5t-9.5 23.5t-23.5 9.5t-24 -9.5t-10 -23.5z" />
    <glyph glyph-name="AE" unicode="&#xc6;" horiz-adv-x="829" 
d="M260 235q-33 -54 -65 -115t-64 -127q-17 3 -29 5t-23 2q-9 0 -34 -4.5t-61 -11.5q28 40 64 93.5t76 113.5t82 125l84 130t81 126.5t73 114.5q39 -2 84 -4t85 -2q20 0 44.5 0.5t50 1.5t49.5 2.5t43 2.5q-5 -20 -9 -34.5t-4 -19.5q0 -7 4.5 -23t10.5 -38q-22 4 -42.5 8
t-46 7t-60.5 5t-85 2q0 -5 -1 -9t-1 -9v1q-3 -62 -3 -123v-53q63 0 96.5 1t53 2.5t33 2.5t36.5 1q-6 -19 -10 -32t-4 -18q0 -4 4 -17t10 -32h-8t-14.5 0.5t-14.5 0.5h-8q-11 1 -23 2t-31.5 1.5t-48 1t-71.5 0.5v-71q0 -68 3 -137q1 -5 1.5 -10.5t0.5 -11.5q95 1 150.5 5.5
t89.5 10.5q-7 -20 -10.5 -35.5t-3.5 -20.5q0 -6 3.5 -19.5t9.5 -33.5q-20 1 -45 2.5t-51 2.5t-51 1.5t-45 0.5t-44 -0.5t-48.5 -1.5t-48.5 -2.5t-44 -2.5q7 70 8.5 129t1.5 109zM440 526q-17 -27 -32.5 -51.5l-31 -49t-31.5 -50.5t-35 -56q32 -1 62 -1t68 -2v210z" />
    <glyph glyph-name="Ccedilla" unicode="&#xc7;" horiz-adv-x="629" 
d="M302 -13q-64 11 -116.5 40t-90.5 74t-59 105.5t-21 134.5q0 85 27.5 151t76.5 112t117.5 70t151.5 24q65 0 126.5 -16t109.5 -39q-14 -26 -20 -46.5t-9 -35.5q0 -3 -0.5 -13.5t-0.5 -11.5l-40 -2q-10 11 -26 25.5t-37.5 27t-47.5 21.5t-55 9q-50 0 -93 -16.5t-74.5 -50
t-49.5 -85.5t-18 -124t18 -124.5t49.5 -86t74.5 -50t93 -16.5q31 0 59 9t53 22t45 28t35 26l26 -26l-12 -76q-11 -9 -31 -19.5t-48 -20.5t-61.5 -16.5t-69.5 -7.5q-2 -4 -2 -5q45 -2 69.5 -26.5t24.5 -63.5q0 -25 -11 -44.5t-29.5 -32.5t-43 -19.5t-51.5 -6.5q-30 0 -60.5 9
t-52.5 17l30 73q17 -7 39 -12t42 -5q13 0 22.5 3.5t9.5 11.5t-7 11t-17 3q-24 0 -43 -14l-31 31z" />
    <glyph glyph-name="Egrave" unicode="&#xc8;" horiz-adv-x="402" 
d="M89 774q-14 9 -29 23.5t-15 39.5q0 13 5.5 23t13.5 16.5t17.5 10t17.5 3.5q16 0 31 -8t28 -21l175 -177q21 1 41 2t37 2q-4 -21 -6 -34.5t-2 -18.5q0 -6 2 -19.5t6 -34.5q-6 0 -17 1t-23 2t-22.5 2t-16.5 1q-37 4 -75.5 6t-96.5 2q0 -6 -0.5 -11t-1.5 -11
q0 -17 -0.5 -34.5t-0.5 -38.5q0 -22 0.5 -43t0.5 -39v-18q37 0 68.5 1t59.5 3t53.5 4t51.5 5q-5 -23 -7 -37t-2 -19q0 -4 2 -18t7 -37q-34 4 -67.5 6t-64.5 3.5t-57 2.5t-45 1v-112v-76.5t1 -40.5q59 0 127.5 3t131.5 16q-5 -21 -7 -36.5t-2 -22.5q0 -6 1.5 -19.5t6.5 -33.5
q-21 1 -46 2.5t-51.5 2.5t-52.5 1.5t-47 0.5q-43 0 -97 -2t-97 -4q1 31 2.5 65t3 69t2 69t0.5 64v161q0 30 -0.5 64t-2 69t-3 68.5t-2.5 63.5q21 -1 45.5 -2t50 -2t50 -1.5t45.5 -0.5h29.5t32.5 1h-46z" />
    <glyph glyph-name="Eacute" unicode="&#xc9;" horiz-adv-x="401" 
d="M22 422q0 30 -0.5 64t-2 69t-3 68.5t-2.5 63.5q16 -1 33.5 -2t36.5 -2l175 178q13 13 28 21t31 8q8 0 17.5 -3.5t17.5 -10t13.5 -16.5t5.5 -23q0 -25 -15 -39.5t-29 -23.5q-35 -22 -71.5 -46t-71.5 -46h-55q20 -1 39 -1h36q21 0 46.5 0.5t51.5 1.5t51 2.5t46 2.5
q-4 -21 -6 -34.5t-2 -18.5q0 -6 2 -19.5t6 -34.5q-6 0 -17 1t-23 2t-22.5 2t-16.5 1q-37 4 -75.5 6t-96.5 2q0 -6 -0.5 -11t-1.5 -12v1q0 -17 -0.5 -34.5t-0.5 -38.5q0 -22 0.5 -43t0.5 -39v-18q37 0 68.5 1t59.5 3t53.5 4t51.5 5q-5 -23 -7 -37t-2 -19q0 -4 2 -18t7 -37
q-34 4 -67.5 6t-64.5 3.5t-57 2.5t-45 1v-112v-76.5t1 -40.5q59 0 127.5 3t131.5 16q-5 -21 -7 -36.5t-2 -22.5q0 -6 1.5 -19.5t6.5 -33.5q-21 1 -46 2.5t-51.5 2.5t-52.5 1.5t-47 0.5q-43 0 -97 -2t-97 -4q1 31 2.5 65t3 69t2 69t0.5 64v161z" />
    <glyph glyph-name="Ecircumflex" unicode="&#xca;" horiz-adv-x="408" 
d="M31 422q0 59 -2.5 129.5t-5.5 130.5h-4l149 203h87l146 -198q2 0 4 0.5t4 0.5q-4 -21 -6 -34.5t-2 -18.5q0 -6 2 -19.5t6 -34.5q-6 0 -17 1t-23 2t-22.5 2t-16.5 1q-19 2 -37.5 3.5t-38.5 2.5t-43.5 1.5t-52.5 0.5q0 -6 -0.5 -11t-1.5 -12v1q-1 -17 -1.5 -34.5
t-0.5 -38.5q0 -22 0.5 -43t0.5 -39v-18q38 0 69.5 1t59.5 3t53.5 4t51.5 5q-5 -23 -7.5 -37t-2.5 -19q0 -4 2.5 -18t7.5 -37q-34 4 -67.5 6t-64.5 3.5t-57.5 2.5t-45.5 1v-112v-76.5t1 -40.5q60 0 128.5 3t131.5 16q-5 -21 -7 -36.5t-2 -22.5q0 -6 1.5 -19.5t6.5 -33.5
q-21 1 -46 2.5t-51.5 2.5t-52.5 1.5t-47 0.5q-43 0 -97 -2t-97 -4q1 31 2.5 65t3 69t2 69t0.5 64v161zM214 681q21 0 47 0.5t52 1.5l-101 89q-25 -23 -51.5 -45.5t-49.5 -43.5q27 -2 53.5 -2h49.5z" />
    <glyph glyph-name="Edieresis" unicode="&#xcb;" horiz-adv-x="407" 
d="M31 422q0 30 -0.5 64t-2 69t-3 68.5t-2.5 63.5q21 -1 45.5 -2t50 -2t50 -1.5t45.5 -0.5t46.5 0.5t51.5 1.5t51 2.5t46 2.5q-4 -21 -6 -34.5t-2 -18.5q0 -6 2 -19.5t6 -34.5q-6 0 -17 1t-23 2t-22.5 2t-16.5 1q-37 4 -75.5 6t-96.5 2q0 -6 -0.5 -11t-1.5 -12v1
q0 -17 -0.5 -34.5t-0.5 -38.5q0 -22 0.5 -43t0.5 -39v-18q37 0 68.5 1t59.5 3t53.5 4t51.5 5q-5 -23 -7 -37t-2 -19q0 -4 2 -18t7 -37q-34 4 -67.5 6t-64.5 3.5t-57 2.5t-45 1v-112v-76.5t1 -40.5q59 0 127.5 3t131.5 16q-5 -21 -7 -36.5t-2 -22.5q0 -6 1.5 -19.5t6.5 -33.5
q-21 1 -46 2.5t-51.5 2.5t-52.5 1.5t-47 0.5q-43 0 -97 -2t-97 -4q1 31 2.5 65t3 69t2 69t0.5 64v161zM49 778q0 30 21 50.5t50 20.5t50 -20.5t21 -50.5q0 -29 -21 -50t-50 -21t-50 21t-21 50zM233 778q0 30 21 50.5t50 20.5t50 -20.5t21 -50.5q0 -29 -21 -50t-50 -21
t-50 21t-21 50z" />
    <glyph glyph-name="Igrave" unicode="&#xcc;" horiz-adv-x="254" 
d="M100 421q0 30 -1 64.5t-2 70t-3 70.5t-3 65q25 -5 42.5 -7.5t27.5 -2.5h8.5t9.5 1l-142 92q-14 9 -29.5 23.5t-15.5 39.5q0 13 5.5 23t13.5 16.5t17.5 10t17.5 3.5q17 0 31.5 -8t27.5 -21l178 -179h-53q-1 -30 -2.5 -63.5t-2.5 -68t-1.5 -67.5t-0.5 -62v-161
q0 -30 1 -64.5t2 -70t2.5 -70t2.5 -64.5q-24 4 -42 6.5t-28 2.5t-27.5 -2.5t-42.5 -6.5q1 30 3 64.5t3 70t2 70t1 64.5v161z" />
    <glyph glyph-name="Iacute" unicode="&#xcd;" horiz-adv-x="253" 
d="M148 861q13 13 27.5 21t31.5 8q8 0 17.5 -3.5t17.5 -10t13.5 -16.5t5.5 -23q0 -25 -15.5 -39.5t-29.5 -23.5q-35 -22 -71.5 -46t-71.5 -46q6 -1 10 -1h8q10 0 27.5 2.5t42.5 7.5q-2 -30 -3.5 -65t-2.5 -70.5t-2 -70t-1 -64.5v-161q0 -30 1 -64.5t2 -70t2.5 -70t3.5 -64.5
q-25 4 -42.5 6.5t-27.5 2.5t-28 -2.5t-42 -6.5q1 30 2.5 64.5t3 70t2 70t0.5 64.5v161q0 29 -0.5 62t-2 67.5t-3 68t-2.5 63.5h-50z" />
    <glyph glyph-name="Icircumflex" unicode="&#xce;" horiz-adv-x="336" 
d="M105 421q0 30 -0.5 64.5t-2 70t-3 70.5t-2.5 65q25 -5 42.5 -7.5t27.5 -2.5t27.5 2.5t42.5 7.5q-2 -30 -3 -65t-2.5 -70.5t-2 -70t-0.5 -64.5v-161q0 -30 0.5 -64.5t2 -70t2.5 -70t3 -64.5q-25 4 -42.5 6.5t-27.5 2.5t-27.5 -2.5t-42.5 -6.5q1 30 2.5 64.5t3 70t2 70
t0.5 64.5v161zM168 772q-26 -23 -52.5 -46t-50.5 -44h-90l149 203h87l149 -203h-89z" />
    <glyph glyph-name="Idieresis" unicode="&#xcf;" horiz-adv-x="319" 
d="M97 421q0 30 -0.5 64.5t-2 70t-3 70.5t-2.5 65q25 -5 42.5 -7.5t27.5 -2.5t27.5 2.5t42.5 7.5q-2 -30 -3 -65t-2.5 -70.5t-2 -70t-0.5 -64.5v-161q0 -30 0.5 -64.5t2 -70t2.5 -70t3 -64.5q-25 4 -42.5 6.5t-27.5 2.5t-27.5 -2.5t-42.5 -6.5q1 30 2.5 64.5t3 70t2 70
t0.5 64.5v161zM-3 778q0 30 20.5 50.5t50.5 20.5q29 0 49.5 -20.5t20.5 -50.5q0 -29 -20.5 -50t-49.5 -21q-30 0 -50.5 21t-20.5 50zM180 778q0 30 21 50.5t50 20.5q30 0 50.5 -20.5t20.5 -50.5q0 -29 -20.5 -50t-50.5 -21q-29 0 -50 21t-21 50z" />
    <glyph glyph-name="Eth" unicode="&#xd0;" horiz-adv-x="780" 
d="M23 426q20 -2 46 -3t49 -1q0 30 -1 64t-2 69t-2.5 69t-2.5 64q17 -1 38.5 -2.5t43.5 -2.5t43.5 -1.5t39.5 -0.5q17 0 34.5 0.5t34.5 1.5t35.5 2t36.5 1q88 0 151 -23t103 -65.5t58.5 -104t18.5 -139.5q0 -100 -34.5 -168.5t-88 -111t-117.5 -61t-123 -18.5q-16 0 -32 0.5
t-31 1.5q-16 1 -31 2t-31 1q-32 0 -74.5 -2.5t-74.5 -4.5q1 30 2.5 64.5t2.5 69.5t2 69t1 64v81q-23 -1 -48.5 -1.5t-46.5 -2.5q2 15 3.5 27.5t1.5 17.5q0 3 -1.5 16t-3.5 28zM241 260v-46.5t1 -42.5t1.5 -43t2.5 -46q19 -3 45 -4t55 -1q47 0 94 11t84.5 42t61 84.5
t23.5 139.5q0 74 -18 122t-50.5 75.5t-77 38t-96.5 10.5q-34 0 -65 -2t-57 -4q-2 -41 -3 -84.5t-1 -87.5q45 0 97 1t90 3q-6 -20 -8 -30.5t-2 -13.5q0 -5 2 -16.5t7 -30.5q-43 2 -92 4t-94 2v-81z" />
    <glyph glyph-name="Ntilde" unicode="&#xd1;" horiz-adv-x="661" 
d="M574 -17q-49 57 -103 117.5t-110 122t-113.5 122.5t-112.5 120h-1q-1 -24 -1 -56v-76q0 -29 1 -78.5t3 -102t4 -98t5 -67.5q-22 6 -37.5 9.5t-23.5 3.5q-7 0 -23.5 -3.5t-39.5 -8.5q2 14 5 43.5t5.5 68t5 82.5l5 88t3.5 84t1 71q0 44 -0.5 86t-1 78.5t-1.5 64.5t-2 44h51
q10 -11 23 -25.5t24 -25.5q55 -60 108.5 -118.5t103.5 -112.5t95.5 -102t84.5 -87q0 58 -0.5 120.5t-2 123.5t-3 118t-4.5 104q20 -5 35.5 -8.5t21.5 -3.5t20.5 3.5t36.5 9.5q-3 -26 -6 -73t-6 -98.5t-5 -99t-2 -73.5v-57.5t0.5 -70.5t1 -75t1 -71t1 -58t0.5 -35h-47z
M164 706q4 24 13.5 49.5t25 46t37 33.5t49.5 13q9 0 17 -1t16.5 -4t19 -7.5t25.5 -11.5q23 -11 32.5 -15t19.5 -4q12 0 21.5 14.5t14.5 32.5h72q-3 -17 -10.5 -41.5t-22.5 -48t-39 -40t-58 -16.5q-15 0 -35 5.5t-43 18.5q-21 11 -31.5 15t-18.5 4q-11 0 -17.5 -9.5
t-14.5 -33.5h-73z" />
    <glyph glyph-name="Ograve" unicode="&#xd2;" horiz-adv-x="793" 
d="M26 341q0 84 27 150t75 111.5t115 70t148 25.5l-117 76q-15 9 -30 23.5t-15 39.5q0 13 5.5 23t13.5 16.5t17.5 10t17.5 3.5q17 0 31.5 -8t27.5 -21l175 -178q58 -15 105 -44.5t80 -72.5t51 -99.5t18 -125.5q0 -85 -27.5 -151.5t-76.5 -112.5t-118 -70t-151 -24t-150.5 24
t-117.5 70t-76.5 112.5t-27.5 151.5zM633 341q0 72 -18 124t-49.5 85.5t-74.5 50t-93 16.5t-92.5 -16.5t-74 -50t-49.5 -85.5t-18 -124t18 -124.5t49.5 -86t74 -50t92.5 -16.5t93 16.5t74.5 50t49.5 86t18 124.5z" />
    <glyph glyph-name="Oacute" unicode="&#xd3;" horiz-adv-x="793" 
d="M22 341q0 69 18 125.5t51 100t80 73t105 44.5l175 177q13 13 27.5 21t31.5 8q8 0 17.5 -3.5t17.5 -10t13.5 -16.5t5.5 -23q0 -25 -15 -39.5t-30 -23.5q-29 -19 -59 -38.5t-59 -37.5q81 -1 148.5 -25.5t115.5 -70t75 -111.5t27 -150q0 -85 -27.5 -151.5t-76.5 -112.5
t-118 -70t-151 -24t-150.5 24t-117.5 70t-76.5 112.5t-27.5 151.5zM629 341q0 72 -18 124t-49.5 85.5t-74.5 50t-93 16.5t-92.5 -16.5t-74 -50t-49.5 -85.5t-18 -124t18 -124.5t49.5 -86t74 -50t92.5 -16.5t93 16.5t74.5 50t49.5 86t18 124.5z" />
    <glyph glyph-name="Ocircumflex" unicode="&#xd4;" horiz-adv-x="797" 
d="M26 341q0 68 17.5 124t50 99t78 73t102.5 45h-68l149 203h87l149 -203h-69q57 -15 103 -45t78.5 -73t50 -99t17.5 -124q0 -85 -27.5 -151.5t-76.5 -112.5t-118 -70t-151 -24t-150.5 24t-117.5 70t-76.5 112.5t-27.5 151.5zM633 341q0 72 -18 124t-49.5 85.5t-74.5 50
t-93 16.5t-92.5 -16.5t-74 -50t-49.5 -85.5t-18 -124t18 -124.5t49.5 -86t74 -50t92.5 -16.5t93 16.5t74.5 50t49.5 86t18 124.5zM398 698q26 0 49.5 -2.5t46.5 -6.5l-95 83q-23 -21 -47.5 -42t-47.5 -41q23 4 45.5 6.5t48.5 2.5z" />
    <glyph glyph-name="Otilde" unicode="&#xd5;" horiz-adv-x="797" 
d="M26 341q0 85 27.5 151t76.5 112t117.5 70t150.5 24t151 -24t118 -70t76.5 -112t27.5 -151t-27.5 -151.5t-76.5 -112.5t-118 -70t-151 -24t-150.5 24t-117.5 70t-76.5 112.5t-27.5 151.5zM633 341q0 72 -18 124t-49.5 85.5t-74.5 50t-93 16.5t-92.5 -16.5t-74 -50
t-49.5 -85.5t-18 -124t18 -124.5t49.5 -86t74 -50t92.5 -16.5t93 16.5t74.5 50t49.5 86t18 124.5zM217 706q4 24 13.5 49.5t25 46t37 33.5t49.5 13q9 0 17 -1t16.5 -4t19 -7.5t25.5 -11.5q23 -11 33 -15t19 -4q13 0 22 14.5t14 32.5h72q-3 -17 -10.5 -41.5t-22.5 -48
t-39 -40t-58 -16.5q-15 0 -34.5 5.5t-43.5 18.5q-21 11 -31.5 15t-18.5 4q-11 0 -17.5 -9.5t-14.5 -33.5h-73z" />
    <glyph glyph-name="Odieresis" unicode="&#xd6;" horiz-adv-x="797" 
d="M26 341q0 85 27.5 151t76.5 112t117.5 70t150.5 24t151 -24t118 -70t76.5 -112t27.5 -151t-27.5 -151.5t-76.5 -112.5t-118 -70t-151 -24t-150.5 24t-117.5 70t-76.5 112.5t-27.5 151.5zM633 341q0 72 -18 124t-49.5 85.5t-74.5 50t-93 16.5t-92.5 -16.5t-74 -50
t-49.5 -85.5t-18 -124t18 -124.5t49.5 -86t74 -50t92.5 -16.5t93 16.5t74.5 50t49.5 86t18 124.5zM419 778q0 30 21 50.5t50 20.5q30 0 50.5 -20.5t20.5 -50.5q0 -29 -20.5 -50t-50.5 -21q-29 0 -50 21t-21 50zM236 778q0 30 20.5 50.5t50.5 20.5q29 0 49.5 -20.5
t20.5 -50.5q0 -29 -20.5 -50t-49.5 -21q-30 0 -50.5 21t-20.5 50z" />
    <glyph glyph-name="multiply" unicode="&#xd7;" horiz-adv-x="518" 
d="M191 259q-42 42 -86.5 87t-85.5 86l68 67l172 -171q42 42 87 86t86 85l67 -67l-172 -173l172 -171l-67 -68l-173 171l-172 -171l-68 68z" />
    <glyph glyph-name="Oslash" unicode="&#xd8;" horiz-adv-x="809" 
d="M32 341q0 85 27.5 151t76.5 112t117.5 70t150.5 24q129 0 221 -58q9 11 21 25.5t23 29.5t21 29.5t15 25.5q14 -18 35 -36t38 -29q-30 -21 -54 -45.5t-42 -44.5q45 -46 70 -110.5t25 -143.5q0 -85 -27.5 -151.5t-76.5 -112.5t-118 -70t-151 -24q-63 0 -117.5 15t-99.5 42
q-19 -22 -43.5 -52.5t-41.5 -59.5q-27 37 -71 61q10 8 23 19.5t26 25l26 27t23 24.5q-48 46 -72.5 110t-24.5 146zM557 566q-30 29 -67.5 40t-85.5 11q-50 0 -92.5 -16.5t-74 -50t-49.5 -85.5t-18 -124q0 -53 10 -94.5t27 -73.5zM254 114q30 -26 67 -38t83 -12q50 0 93 16.5
t74.5 50t49.5 86t18 124.5q0 49 -10 91.5t-25 74.5z" />
    <glyph glyph-name="Ugrave" unicode="&#xd9;" horiz-adv-x="643" 
d="M517 359v115t-1 89.5t-3.5 71t-6.5 58.5q22 -5 39 -8.5t28 -3.5q5 0 19.5 4t35.5 11q-3 -33 -6 -83.5t-6 -108.5t-5 -118t-3 -111q-1 -67 -20.5 -121t-56.5 -92t-90.5 -58.5t-121.5 -20.5q-151 0 -221 71.5t-70 218.5q0 23 1 43.5t2 40.5q1 17 1.5 32t0.5 32
q0 66 -1.5 120t-3.5 96v11t-0.5 17t-0.5 16.5v10.5q25 -5 44.5 -8t27.5 -3q9 0 27.5 3.5t39.5 8.5q-3 -28 -5.5 -67.5t-4.5 -85.5t-3 -96.5t-1 -100.5q0 -44 3 -91.5t20 -87t54.5 -65t106.5 -25.5q45 0 76 13.5t51 36.5t31 52t16 61t6 63.5t1 58.5zM202 774q-15 9 -30 23.5
t-15 39.5q0 13 5.5 23t13.5 16.5t17.5 10t17.5 3.5q17 0 31.5 -8t27.5 -21l177 -179h-102z" />
    <glyph glyph-name="Uacute" unicode="&#xda;" horiz-adv-x="642" 
d="M510 359v115t-1 89.5t-3.5 71t-6.5 58.5q22 -5 39 -8.5t28 -3.5q5 0 19.5 4t35.5 11q-3 -33 -6 -83.5t-6 -108.5t-5 -118t-3 -111q-1 -67 -20.5 -121t-56.5 -92t-90.5 -58.5t-121.5 -20.5q-151 0 -221 71.5t-70 218.5q0 23 1 43.5t2 40.5q1 17 1.5 32t0.5 32
q0 66 -1.5 120t-3.5 96v11t-0.5 17t-0.5 16.5v10.5q25 -5 44.5 -8t27.5 -3q9 0 27.5 3.5t39.5 8.5q-3 -28 -5.5 -67.5t-4.5 -85.5t-3 -96.5t-1 -100.5q0 -44 3 -91.5t20 -87t54.5 -65t106.5 -25.5q45 0 76 13.5t51 36.5t31 52t16 61t6 63.5t1 58.5zM376 861q13 13 27.5 21
t31.5 8q8 0 17.5 -3.5t17.5 -10t13.5 -16.5t5.5 -23q0 -25 -15 -39.5t-30 -23.5q-35 -22 -71.5 -46t-71.5 -46h-101z" />
    <glyph glyph-name="Ucircumflex" unicode="&#xdb;" horiz-adv-x="647" 
d="M98 681q6 0 15.5 1t22.5 4l146 199h87l143 -194q20 -5 35 -7.5t25 -2.5q5 0 19.5 4t35.5 11q-3 -33 -6 -83.5t-6 -108.5t-5 -118t-3 -111q-1 -67 -20.5 -121t-56.5 -92t-90.5 -58.5t-121.5 -20.5q-151 0 -221 71.5t-70 218.5q0 23 1 43.5t2 40.5q1 17 1.5 32t0.5 32
q0 66 -1.5 120t-3.5 96v11t-0.5 17t-0.5 16.5v10.5q25 -5 44.5 -8t27.5 -3zM326 772q-26 -23 -52.5 -46t-50.5 -44h-58q-3 -29 -5.5 -67.5t-4.5 -83t-3 -92.5t-1 -96q0 -44 3 -91.5t20 -87t54.5 -65t106.5 -25.5q45 0 76 13.5t51 36.5t31 52t16 61t6 63.5t1 58.5v110
t-1 86.5t-3 69t-6 57.5h-77z" />
    <glyph glyph-name="Udieresis" unicode="&#xdc;" horiz-adv-x="648" 
d="M516 359v115t-1 89.5t-3.5 71t-6.5 58.5q22 -5 39 -8.5t28 -3.5q5 0 19.5 4t35.5 11q-3 -33 -6 -83.5t-6 -108.5t-5 -118t-3 -111q-1 -67 -20.5 -121t-56.5 -92t-90.5 -58.5t-121.5 -20.5q-151 0 -221 71.5t-70 218.5q0 23 1 43.5t2 40.5q1 17 1.5 32t0.5 32
q0 66 -1.5 120t-3.5 96v11t-0.5 17t-0.5 16.5v10.5q25 -5 44.5 -8t27.5 -3q9 0 27.5 3.5t39.5 8.5q-3 -28 -5.5 -67.5t-4.5 -85.5t-3 -96.5t-1 -100.5q0 -44 3 -91.5t20 -87t54.5 -65t106.5 -25.5q45 0 76 13.5t51 36.5t31 52t16 61t6 63.5t1 58.5zM163 778q0 30 20.5 50.5
t50.5 20.5q29 0 50 -20.5t21 -50.5q0 -29 -21 -50t-50 -21q-30 0 -50.5 21t-20.5 50zM347 778q0 30 20.5 50.5t49.5 20.5q30 0 50.5 -20.5t20.5 -50.5q0 -29 -20.5 -50t-50.5 -21q-29 0 -49.5 21t-20.5 50z" />
    <glyph glyph-name="Yacute" unicode="&#xdd;" horiz-adv-x="582" 
d="M217 -10q8 72 9.5 143t1.5 143q-11 18 -31 52t-45 75.5t-52 87t-51.5 86t-44 72t-29.5 46.5q38 -6 65 -10t36 -4q21 0 64 8q20 -40 39.5 -77t39.5 -73.5t41.5 -74t45.5 -79.5q39 63 80.5 142.5t80.5 162.5q17 -4 30 -6.5t21 -2.5t31.5 4.5t55.5 12.5q-103 -159 -164 -257
t-89 -152q0 -33 0.5 -73t2 -80.5t3 -78.5t4.5 -67q-27 5 -45.5 7.5t-26.5 2.5t-27 -2.5t-46 -7.5zM346 852q13 13 27.5 21t31.5 8q8 0 17.5 -3.5t17.5 -10.5t13.5 -16.5t5.5 -22.5q0 -26 -15 -40t-30 -24q-35 -22 -71.5 -45.5t-71.5 -45.5h-101z" />
    <glyph glyph-name="Thorn" unicode="&#xde;" horiz-adv-x="474" 
d="M40 421q0 30 -0.5 64.5t-2 70t-3 70.5t-2.5 65q25 -5 42.5 -7.5t27.5 -2.5q8 0 26.5 3t45.5 8q-3 -31 -6.5 -64t-3.5 -64h91q106 0 165.5 -44.5t59.5 -141.5q0 -58 -22.5 -96.5t-58.5 -61.5t-81.5 -32.5t-90.5 -9.5h-20.5h-14t-12.5 0.5t-16 1.5v-27q0 -41 3 -85.5
t12 -78.5q-29 5 -49 8t-28 3q-10 0 -27.5 -2.5t-42.5 -6.5q1 30 2.5 64.5t3 70t2 70t0.5 64.5v161zM164 260q11 -1 23.5 -1h25.5q25 0 49.5 7t43 21.5t30 37t11.5 52.5q0 19 -6.5 38t-21 34t-38 24.5t-58.5 9.5h-59v-223z" />
    <glyph glyph-name="germandbls" unicode="&#xdf;" horiz-adv-x="518" 
d="M34 402q0 29 -0.5 51.5t-1.5 38.5q0 8 -0.5 14t-0.5 9q0 64 20.5 109t51.5 73t68.5 41t72.5 13q25 0 53 -9t52 -26t39.5 -40.5t15.5 -52.5q0 -24 -6.5 -44.5t-16.5 -38t-23 -32.5t-25 -29q-16 -17 -28 -32t-12 -27q0 -9 6.5 -18t17 -18t23 -18t25.5 -17q22 -14 44.5 -30
t40.5 -35.5t29.5 -44t11.5 -55.5q0 -35 -17 -70t-45.5 -63.5t-66 -46.5t-77.5 -18q-34 0 -66.5 10.5t-58.5 25.5q11 18 18 42.5t9 44.5h40q10 -17 32 -29.5t45 -12.5q29 0 53 20.5t24 55.5q0 18 -8 33t-21 28.5t-30 25.5t-34 23q-20 13 -39 27t-33.5 29.5t-23.5 34.5t-9 43
q0 32 18.5 58t43.5 52q23 26 43 53.5t20 60.5q0 28 -18.5 46t-50.5 18q-51 0 -70 -43t-19 -125v-220q0 -32 0.5 -70t1.5 -78t3 -78.5t5 -71.5q-26 5 -43.5 8t-24.5 3q-8 0 -25.5 -3t-42.5 -8q3 33 4.5 71.5t3 78.5t2 78t0.5 70v115z" />
    <glyph glyph-name="agrave" unicode="&#xe0;" horiz-adv-x="463" 
d="M60 431q52 39 92.5 52.5t80.5 13.5q39 0 71 -11.5t55.5 -32.5t36 -51t12.5 -66q0 -52 -2 -104.5t-2 -112.5q0 -16 1.5 -31t11.5 -15q2 0 9.5 2.5t33.5 17.5v-76q-15 -7 -37.5 -14t-45.5 -7q-26 0 -45 11t-30 28q-29 -25 -60 -37t-76 -12q-28 0 -54.5 9.5t-47 27.5
t-33 43.5t-12.5 57.5q0 67 40.5 103.5t110.5 47.5q44 7 68 11.5t35.5 9t14 9.5t2.5 12q0 38 -17.5 66.5t-61.5 28.5q-31 0 -59 -17t-45 -47h-47v83zM112 613q-15 9 -30 23.5t-15 40.5q0 13 5.5 22.5t13.5 16.5t17.5 10.5t17.5 3.5q17 0 31.5 -8t27.5 -21l178 -179h-103z
M290 224l-25 -6q-21 -4 -43 -8.5t-39.5 -13.5t-29 -23t-11.5 -36q0 -32 18 -48.5t40 -16.5q27 0 50 14t40 34v104z" />
    <glyph glyph-name="aacute" unicode="&#xe1;" horiz-adv-x="459" 
d="M45 431q52 39 92.5 52.5t80.5 13.5q39 0 71 -11.5t55.5 -32.5t36 -51t12.5 -66q0 -52 -2 -104.5t-2 -112.5q0 -16 1.5 -31t11.5 -15q2 0 9.5 2.5t33.5 17.5v-76q-15 -7 -37.5 -14t-45.5 -7q-26 0 -45 11t-30 28q-29 -25 -60 -37t-76 -12q-28 0 -54.5 9.5t-47 27.5
t-33 43.5t-12.5 57.5q0 67 40.5 103.5t110.5 47.5q44 7 68 11.5t35.5 9t14 9.5t2.5 12q0 38 -17.5 66.5t-61.5 28.5q-31 0 -59 -17t-45 -47h-47v83zM278 701q13 13 27.5 21t31.5 8q8 0 17.5 -3.5t17.5 -10.5t13.5 -16.5t5.5 -22.5q0 -26 -15 -40.5t-30 -23.5
q-34 -22 -71 -45.5t-72 -45.5h-101zM275 224l-25 -6q-21 -4 -43 -8.5t-39.5 -13.5t-29 -23t-11.5 -36q0 -32 18 -48.5t40 -16.5q27 0 50 14t40 34v104z" />
    <glyph glyph-name="acircumflex" unicode="&#xe2;" horiz-adv-x="466" 
d="M55 431q52 39 92.5 52.5t80.5 13.5q39 0 71 -11.5t55.5 -32.5t36 -51t12.5 -66q0 -52 -2 -104.5t-2 -112.5q0 -16 1.5 -31t11.5 -15q2 0 9.5 2.5t33.5 17.5v-76q-15 -7 -37.5 -14t-45.5 -7q-26 0 -45 11t-30 28q-29 -25 -60 -37t-76 -12q-28 0 -54.5 9.5t-47 27.5
t-33 43.5t-12.5 57.5q0 67 40.5 103.5t110.5 47.5q44 7 68 11.5t35.5 9t14 9.5t2.5 12q0 38 -17.5 66.5t-61.5 28.5q-31 0 -59 -17t-45 -47h-47v83zM232 611q-25 -23 -52 -45.5t-51 -43.5h-90l149 202h87l149 -202h-89zM285 224l-25 -6q-21 -4 -43 -8.5t-39.5 -13.5t-29 -23
t-11.5 -36q0 -32 18 -48.5t40 -16.5q27 0 50 14t40 34v104z" />
    <glyph glyph-name="atilde" unicode="&#xe3;" horiz-adv-x="473" 
d="M59 431q52 39 92.5 52.5t80.5 13.5q39 0 71 -11.5t55.5 -32.5t36 -51t12.5 -66q0 -52 -2 -104.5t-2 -112.5q0 -16 1.5 -31t11.5 -15q2 0 9.5 2.5t33.5 17.5v-76q-15 -7 -37.5 -14t-45.5 -7q-26 0 -45 11t-30 28q-29 -25 -60 -37t-76 -12q-28 0 -54.5 9.5t-47 27.5
t-33 43.5t-12.5 57.5q0 67 40.5 103.5t110.5 47.5q44 7 68 11.5t35.5 9t14 9.5t2.5 12q0 38 -17.5 66.5t-61.5 28.5q-31 0 -59 -17t-45 -47h-47v83zM54 545q4 24 13.5 49.5t25 46.5t37 34t49.5 13q19 0 34 -5t45 -19q22 -11 32 -15t19 -4q13 0 22 14t14 33h72
q-2 -17 -10 -42t-23 -48t-39 -40t-58 -17q-30 0 -78 24q-21 11 -31 15t-18 4q-11 0 -18 -9t-15 -34h-73zM289 224l-25 -6q-21 -4 -43 -8.5t-39.5 -13.5t-29 -23t-11.5 -36q0 -32 18 -48.5t40 -16.5q27 0 50 14t40 34v104z" />
    <glyph glyph-name="adieresis" unicode="&#xe4;" horiz-adv-x="471" 
d="M58 431q52 39 92.5 52.5t80.5 13.5q39 0 71 -11.5t55.5 -32.5t36 -51t12.5 -66q0 -52 -2 -104.5t-2 -112.5q0 -16 1.5 -31t11.5 -15q2 0 9.5 2.5t33.5 17.5v-76q-15 -7 -37.5 -14t-45.5 -7q-26 0 -45 11t-30 28q-29 -25 -60 -37t-76 -12q-28 0 -54.5 9.5t-47 27.5
t-33 43.5t-12.5 57.5q0 67 40.5 103.5t110.5 47.5q44 7 68 11.5t35.5 9t14 9.5t2.5 12q0 38 -17.5 66.5t-61.5 28.5q-31 0 -59 -17t-45 -47h-47v83zM288 224l-25 -6q-21 -4 -43 -8.5t-39.5 -13.5t-29 -23t-11.5 -36q0 -32 18 -48.5t40 -16.5q27 0 50 14t37 34zM256 618
q0 29 20.5 50t50.5 21q29 0 50 -21t21 -50t-21 -50t-50 -21q-30 0 -50.5 21t-20.5 50zM72 618q0 29 21 50t50 21t50 -21t21 -50t-21 -50t-50 -21t-50 21t-21 50z" />
    <glyph glyph-name="aring" unicode="&#xe5;" horiz-adv-x="465" 
d="M55 431q52 39 92.5 52.5t80.5 13.5q39 0 71 -11.5t55.5 -32.5t36 -51t12.5 -66q0 -52 -2 -104.5t-2 -112.5q0 -16 1.5 -31t11.5 -15q2 0 9.5 2.5t33.5 17.5v-76q-15 -7 -37.5 -14t-45.5 -7q-26 0 -45 11t-30 28q-29 -25 -60 -37t-76 -12q-28 0 -54.5 9.5t-47 27.5
t-33 43.5t-12.5 57.5q0 67 40.5 103.5t110.5 47.5q44 7 68 11.5t35.5 9t14 9.5t2.5 12q0 38 -17.5 66.5t-61.5 28.5q-31 0 -59 -17t-45 -47h-47v83zM113 625q0 25 9.5 46.5t25.5 37.5t37.5 25.5t46.5 9.5q24 0 46 -9.5t38 -25.5t25.5 -37.5t9.5 -46.5q0 -24 -9.5 -45.5
t-26 -37.5t-38 -25.5t-46.5 -9.5q-24 0 -45.5 9.5t-37.5 25.5t-25.5 37.5t-9.5 45.5zM285 224l-25 -6q-21 -4 -43 -8.5t-39.5 -13.5t-29 -23t-11.5 -36q0 -32 18 -48.5t40 -16.5q27 0 50 14t37 34zM199 625q0 -13 9 -22.5t23 -9.5t24 9.5t10 22.5q0 14 -9.5 23.5t-23.5 9.5
t-23.5 -9.5t-9.5 -23.5z" />
    <glyph glyph-name="ae" unicode="&#xe6;" horiz-adv-x="784" 
d="M77 431q52 39 92.5 52.5t80.5 13.5q30 0 68 -10.5t72 -46.5q57 57 142 57q55 0 96 -17t68 -46t40 -68t13 -82q0 -5 -0.5 -13t-1 -17t-1.5 -17.5t-1 -12.5h-21t-24.5 0.5t-24.5 0.5h-21q-33 1 -65.5 1.5t-64.5 0.5q-20 0 -41 -0.5t-41 -1.5h-18v-4q0 -32 9 -59t26.5 -47
t43.5 -31.5t59 -11.5q16 0 34.5 6t37 16t36 24t31.5 31l31 -29l-9 -67q-17 -13 -37.5 -25t-44 -21.5t-48 -15t-48.5 -5.5q-59 0 -108.5 22.5t-80.5 62.5q-22 -38 -62 -61.5t-111 -23.5q-28 0 -54.5 9.5t-47.5 27.5t-33.5 43.5t-12.5 57.5q0 67 40.5 103.5t111.5 47.5
q43 7 67.5 11.5t36 9t14 9.5t2.5 12q0 38 -17.5 66.5t-61.5 28.5q-31 0 -59 -17t-45 -47h-47v83zM534 421q-24 0 -42 -10.5t-31 -27t-20.5 -37.5t-11.5 -41h11q21 -1 42.5 -1.5t42.5 -0.5t42 0.5t43 1.5h14q-1 20 -5.5 41t-15 37.5t-27.5 27t-42 10.5zM159 137
q0 -29 17.5 -47t46.5 -18q28 0 53.5 19t28.5 57q1 14 1 31v32v12q-6 -2 -12.5 -2.5t-11.5 -2.5q-21 -4 -43 -8.5t-39.5 -13.5t-29 -23t-11.5 -36z" />
    <glyph glyph-name="ccedilla" unicode="&#xe7;" horiz-adv-x="473" 
d="M171 -110q16 -7 38 -12.5t42 -5.5q14 0 23.5 4t9.5 12t-7 11t-18 3t-22 -4t-20 -10l-31 31l28 73q-38 7 -73 25t-62 48.5t-43.5 74t-16.5 102.5q0 66 22 114.5t59 79.5t83.5 46t96.5 15q56 0 105 -17.5t73 -40.5q-9 -20 -17 -42.5t-13 -48.5h-40q-6 12 -16.5 25t-24 23.5
t-30 17.5t-34.5 7q-36 0 -62 -13.5t-42.5 -37.5t-24 -56.5t-7.5 -70.5q0 -85 36 -128t103 -43q32 0 71 22t68 55l31 -30q-7 -41 -9 -64q-29 -24 -70 -43t-80 -24q-1 -1 -1 -2t-1 -3q45 -2 69 -26t24 -63q0 -26 -11 -45t-29 -32t-42.5 -19.5t-51.5 -6.5q-31 0 -61.5 9
t-52.5 17z" />
    <glyph glyph-name="egrave" unicode="&#xe8;" horiz-adv-x="475" 
d="M16 229q0 62 15.5 111.5t46 84.5t74.5 53.5t101 18.5q55 0 96 -17t68 -46t40 -68t13 -82q0 -5 -0.5 -13t-1 -17t-1.5 -17.5t-1 -12.5q-17 0 -45 0.5t-45 0.5q-33 1 -65.5 1.5t-65.5 0.5q-20 0 -40.5 -0.5t-40.5 -1.5h-19v-4q0 -32 9 -59t26.5 -47t43.5 -31.5t59 -11.5
q16 0 34.5 6t37 16t36 24t31.5 31l31 -29l-8 -67q-17 -13 -37.5 -25t-44 -21.5t-48.5 -15t-49 -5.5q-56 0 -102 18.5t-79 51t-51 77t-18 96.5zM131 613q-15 9 -30 23.5t-15 40.5q0 13 5.5 22.5t13.5 16.5t17.5 10.5t17.5 3.5q17 0 31.5 -8t27.5 -21l177 -179h-102zM255 421
q-24 0 -42 -10.5t-30.5 -27t-20.5 -37.5t-11 -41h10q21 -1 43 -1.5t42 -0.5q21 0 42.5 0.5t43.5 1.5h14q-2 20 -6.5 41t-15 37.5t-27.5 27t-42 10.5z" />
    <glyph glyph-name="eacute" unicode="&#xe9;" horiz-adv-x="477" 
d="M5 229q0 62 15.5 111.5t46 84.5t74.5 53.5t101 18.5q55 0 96 -17t68 -46t40 -68t13 -82q0 -5 -0.5 -13t-1 -17t-1.5 -17.5t-1 -12.5q-17 0 -45 0.5t-45 0.5q-33 1 -65.5 1.5t-65.5 0.5q-20 0 -40.5 -0.5t-40.5 -1.5h-19v-4q0 -32 9 -59t26.5 -47t43.5 -31.5t59 -11.5
q16 0 34.5 6t37 16t36 24t31.5 31l31 -29l-8 -67q-17 -13 -37.5 -25t-44 -21.5t-48.5 -15t-49 -5.5q-56 0 -102 18.5t-79 51t-51 77t-18 96.5zM301 701q13 13 27.5 21t31.5 8q8 0 17.5 -3.5t17.5 -10.5t13.5 -16.5t5.5 -22.5q0 -26 -15 -40.5t-30 -23.5q-35 -22 -71.5 -45.5
t-71.5 -45.5h-101zM244 421q-24 0 -42 -10.5t-30.5 -27t-20.5 -37.5t-11 -41h10q21 -1 43 -1.5t42 -0.5q21 0 42.5 0.5t43.5 1.5h14q-2 20 -6.5 41t-15 37.5t-27.5 27t-42 10.5z" />
    <glyph glyph-name="ecircumflex" unicode="&#xea;" horiz-adv-x="481" 
d="M13 229q0 62 15.5 111.5t46 84.5t74.5 53.5t101 18.5q55 0 96 -17t68 -46t40 -68t13 -82q0 -5 -0.5 -13t-1 -17t-1.5 -17.5t-1 -12.5q-17 0 -45 0.5t-45 0.5q-33 1 -65.5 1.5t-65.5 0.5q-20 0 -40.5 -0.5t-40.5 -1.5h-19v-4q0 -32 9 -59t26.5 -47t43.5 -31.5t59 -11.5
q16 0 34.5 6t37 16t36 24t31.5 31l31 -29l-8 -67q-17 -13 -37.5 -25t-44 -21.5t-48.5 -15t-49 -5.5q-56 0 -102 18.5t-79 51t-51 77t-18 96.5zM253 611q-26 -23 -52.5 -45.5t-50.5 -43.5h-90l149 202h87l149 -202h-89zM252 421q-24 0 -42 -10.5t-30.5 -27t-20.5 -37.5
t-11 -41h10q21 -1 43 -1.5t42 -0.5q21 0 42.5 0.5t43.5 1.5h14q-2 20 -6.5 41t-15 37.5t-27.5 27t-42 10.5z" />
    <glyph glyph-name="edieresis" unicode="&#xeb;" horiz-adv-x="488" 
d="M16 229q0 62 15.5 111.5t46 84.5t74.5 53.5t101 18.5q55 0 96 -17t68 -46t40 -68t13 -82q0 -5 -0.5 -13t-1 -17t-1.5 -17.5t-1 -12.5q-17 0 -45 0.5t-45 0.5q-33 1 -65.5 1.5t-65.5 0.5q-20 0 -40.5 -0.5t-40.5 -1.5h-19v-4q0 -32 9 -59t26.5 -47t43.5 -31.5t59 -11.5
q16 0 34.5 6t37 16t36 24t31.5 31l31 -29l-8 -67q-17 -13 -37.5 -25t-44 -21.5t-48.5 -15t-49 -5.5q-56 0 -102 18.5t-79 51t-51 77t-18 96.5zM255 421q-24 0 -42 -10.5t-30.5 -27t-20.5 -37.5t-11 -41h10q21 -1 43 -1.5t42 -0.5q21 0 42.5 0.5t43.5 1.5h14q-2 20 -6.5 41
t-15 37.5t-27.5 27t-42 10.5zM277 618q0 29 20.5 50t50.5 21q29 0 49.5 -21t20.5 -50t-20.5 -50t-49.5 -21q-30 0 -50.5 21t-20.5 50zM93 618q0 29 20.5 50t50.5 21q29 0 50 -21t21 -50t-21 -50t-50 -21q-30 0 -50.5 21t-20.5 50z" />
    <glyph glyph-name="igrave" unicode="&#xec;" horiz-adv-x="251" 
d="M104 290q0 40 -2 92t-9 113q26 -5 43.5 -8.5t25.5 -3.5t26 3.5t43 8.5q-6 -61 -8.5 -113t-2.5 -92v-97q0 -40 2.5 -92t8.5 -112q-25 5 -43 8t-26 3t-25.5 -3t-43.5 -8q7 60 9 112t2 92v97zM38 613q-14 9 -29.5 23.5t-15.5 40.5q0 13 5.5 22.5t13.5 16.5t17.5 10.5
t17.5 3.5q17 0 31.5 -8t27.5 -21l178 -179h-103z" />
    <glyph glyph-name="iacute" unicode="&#xed;" horiz-adv-x="251" 
d="M29 290q0 40 -2.5 92t-8.5 113q25 -5 43 -8.5t26 -3.5q7 0 25 3.5t44 8.5q-7 -61 -9 -113t-2 -92v-97q0 -40 2 -92t9 -112q-26 5 -44 8t-25 3q-8 0 -26 -3t-43 -8q6 60 8.5 112t2.5 92v97zM144 701q13 13 27.5 21t31.5 8q8 0 17.5 -3.5t17.5 -10.5t13.5 -16.5t5.5 -22.5
q0 -26 -15.5 -40.5t-29.5 -23.5q-35 -22 -71.5 -45.5t-71.5 -45.5h-102z" />
    <glyph glyph-name="icircumflex" unicode="&#xee;" horiz-adv-x="333" 
d="M108 290q0 40 -2.5 92t-8.5 113q26 -5 43.5 -8.5t25.5 -3.5q7 0 25 3.5t44 8.5q-6 -61 -8.5 -113t-2.5 -92v-97q0 -40 2.5 -92t8.5 -112q-26 5 -44 8t-25 3q-8 0 -25.5 -3t-43.5 -8q6 60 8.5 112t2.5 92v97zM167 611q-26 -23 -52.5 -45.5t-50.5 -43.5h-90l149 202h87
l149 -202h-89z" />
    <glyph glyph-name="idieresis" unicode="&#xef;" horiz-adv-x="330" 
d="M106 290q0 40 -2.5 92t-8.5 113q26 -5 43.5 -8.5t25.5 -3.5q7 0 25 3.5t44 8.5q-6 -61 -8.5 -113t-2.5 -92v-97q0 -40 2.5 -92t8.5 -112q-26 5 -44 8t-25 3q-8 0 -25.5 -3t-43.5 -8q6 60 8.5 112t2.5 92v97zM2 618q0 29 20.5 50t50.5 21q29 0 49.5 -21t20.5 -50
t-20.5 -50t-49.5 -21q-30 0 -50.5 21t-20.5 50zM185 618q0 29 21 50t50 21q30 0 50.5 -21t20.5 -50t-20.5 -50t-50.5 -21q-29 0 -50 21t-21 50z" />
    <glyph glyph-name="eth" unicode="&#xf0;" horiz-adv-x="537" 
d="M22 242q0 68 21.5 116t55.5 78.5t77 45t87 15.5q-15 17 -31 33.5t-36 35.5q-29 -10 -64.5 -22.5t-63.5 -22.5q-8 14 -19 34t-28 43q29 8 54.5 13.5t55.5 14.5q-23 20 -52 42.5t-69 52.5l122 32q33 -24 64 -46t57 -43q32 10 63.5 21.5t61.5 22.5q16 -37 48 -76
q-30 -7 -54.5 -13t-51.5 -14q54 -48 92.5 -93t63 -89.5t36 -89t11.5 -91.5q0 -70 -22.5 -119t-58 -79.5t-80 -44t-89.5 -13.5t-90 13.5t-80.5 44t-58 79.5t-22.5 119zM394 242q0 34 -6 66.5t-20 57.5t-37.5 40t-57.5 15q-35 0 -58.5 -15t-37.5 -40t-20 -57.5t-6 -66.5
q0 -35 6 -67.5t20 -57t37.5 -39.5t58.5 -15q34 0 57.5 15t37.5 39.5t20 57t6 67.5z" />
    <glyph glyph-name="ntilde" unicode="&#xf1;" horiz-adv-x="472" 
d="M328 284q0 57 -21.5 87.5t-56.5 30.5q-54 0 -78.5 -33.5t-24.5 -95.5v-80q0 -40 2.5 -92t8.5 -112q-25 5 -43 8t-26 3t-25.5 -3t-43.5 -8q7 60 9 112t2 92v97q0 40 -2 92t-9 113q26 -5 43.5 -8.5t25.5 -3.5q12 0 61 11q-1 -12 -1.5 -15.5t-0.5 -7.5v-6t1 -11
q27 25 55.5 34t70.5 9q30 0 61 -8t55.5 -29t40.5 -57t16 -91q0 -40 -2 -82.5t-2 -90.5q0 -15 0.5 -35l1 -40t1 -39.5t1.5 -34.5q-23 5 -39.5 7.5t-25.5 2.5q-8 0 -24 -2.5t-38 -7.5l4 105q1 33 2 65t1 67v57v0zM55 545q4 24 13.5 49.5t25 46.5t37 34t49.5 13q19 0 34 -5
t44 -19q23 -11 32.5 -15t19.5 -4q12 0 21.5 14t14.5 33h72q-3 -17 -10.5 -42t-22.5 -48t-39 -40t-58 -17q-32 0 -78 24q-21 11 -31.5 15t-18.5 4q-11 0 -17.5 -9t-14.5 -34h-73z" />
    <glyph glyph-name="ograve" unicode="&#xf2;" horiz-adv-x="528" 
d="M19 242q0 70 22.5 118.5t58 79t80 44t89.5 13.5t89.5 -13.5t80 -44t58 -79t22.5 -118.5t-22.5 -119t-58 -79.5t-80 -44t-89.5 -13.5t-89.5 13.5t-80 44t-58 79.5t-22.5 119zM148 242q0 -35 6 -67.5t20 -57t37 -39.5t58 -15q34 0 57.5 15t37.5 39.5t20 57t6 67.5
q0 34 -6 66.5t-20 57.5t-37.5 40t-57.5 15q-35 0 -58 -15t-37 -40t-20 -57.5t-6 -66.5zM145 613q-15 9 -30 23.5t-15 40.5q0 13 5.5 22.5t13.5 16.5t17.5 10.5t17.5 3.5q17 0 31.5 -8t27.5 -21l177 -179h-102z" />
    <glyph glyph-name="oacute" unicode="&#xf3;" horiz-adv-x="527" 
d="M8 242q0 70 22.5 118.5t58 79t80 44t89.5 13.5t89.5 -13.5t80 -44t58 -79t22.5 -118.5t-22.5 -119t-58 -79.5t-80 -44t-89.5 -13.5t-89.5 13.5t-80 44t-58 79.5t-22.5 119zM137 242q0 -35 6 -67.5t20 -57t37 -39.5t58 -15q34 0 57.5 15t37.5 39.5t20 57t6 67.5
q0 34 -6 66.5t-20 57.5t-37.5 40t-57.5 15q-35 0 -58 -15t-37 -40t-20 -57.5t-6 -66.5zM315 701q13 13 27.5 21t31.5 8q8 0 17.5 -3.5t17.5 -10.5t13.5 -16.5t5.5 -22.5q0 -26 -15 -40.5t-30 -23.5q-35 -22 -71.5 -45.5t-71.5 -45.5h-101z" />
    <glyph glyph-name="ocircumflex" unicode="&#xf4;" horiz-adv-x="532" 
d="M16 242q0 70 22.5 118.5t58 79t80 44t89.5 13.5t89.5 -13.5t80 -44t58 -79t22.5 -118.5t-22.5 -119t-58 -79.5t-80 -44t-89.5 -13.5t-89.5 13.5t-80 44t-58 79.5t-22.5 119zM145 242q0 -35 6 -67.5t20 -57t37 -39.5t58 -15q34 0 57.5 15t37.5 39.5t20 57t6 67.5
q0 34 -6 66.5t-20 57.5t-37.5 40t-57.5 15q-35 0 -58 -15t-37 -40t-20 -57.5t-6 -66.5zM267 611q-26 -23 -52.5 -45.5t-50.5 -43.5h-90l149 202h87l149 -202h-89z" />
    <glyph glyph-name="otilde" unicode="&#xf5;" horiz-adv-x="537" 
d="M18 242q0 70 22.5 118.5t58 79t80 44t89.5 13.5t89.5 -13.5t80 -44t58 -79t22.5 -118.5t-22.5 -119t-58 -79.5t-80 -44t-89.5 -13.5t-89.5 13.5t-80 44t-58 79.5t-22.5 119zM147 242q0 -35 6 -67.5t20 -57t37 -39.5t58 -15q34 0 57.5 15t37.5 39.5t20 57t6 67.5
q0 34 -6 66.5t-20 57.5t-37.5 40t-57.5 15q-35 0 -58 -15t-37 -40t-20 -57.5t-6 -66.5zM87 545q4 24 13.5 49.5t25 46.5t37 34t49.5 13q19 0 34 -5t44 -19q23 -11 33 -15t19 -4q13 0 22 14t14 33h72q-3 -17 -10.5 -42t-22.5 -48t-39 -40t-58 -17q-30 0 -78 24
q-21 11 -31.5 15t-18.5 4q-11 0 -17.5 -9t-14.5 -34h-73z" />
    <glyph glyph-name="odieresis" unicode="&#xf6;" horiz-adv-x="537" 
d="M18 242q0 70 22.5 118.5t58 79t80 44t89.5 13.5t89.5 -13.5t80 -44t58 -79t22.5 -118.5t-22.5 -119t-58 -79.5t-80 -44t-89.5 -13.5t-89.5 13.5t-80 44t-58 79.5t-22.5 119zM147 242q0 -35 6 -67.5t20 -57t37 -39.5t58 -15q34 0 57.5 15t37.5 39.5t20 57t6 67.5
q0 34 -6 66.5t-20 57.5t-37.5 40t-57.5 15q-35 0 -58 -15t-37 -40t-20 -57.5t-6 -66.5zM289 618q0 29 21 50t50 21q30 0 50.5 -21t20.5 -50t-20.5 -50t-50.5 -21q-29 0 -50 21t-21 50zM106 618q0 29 20.5 50t50.5 21q29 0 49.5 -21t20.5 -50t-20.5 -50t-49.5 -21
q-30 0 -50.5 21t-20.5 50z" />
    <glyph glyph-name="divide" unicode="&#xf7;" horiz-adv-x="516" 
d="M-1 307h518v-95h-518v95zM181 77q0 32 22.5 54t54.5 22t54.5 -22t22.5 -54t-22.5 -54.5t-54.5 -22.5t-54.5 22.5t-22.5 54.5zM181 442q0 32 22.5 54.5t54.5 22.5t54.5 -22.5t22.5 -54.5t-22.5 -54t-54.5 -22t-54.5 22t-22.5 54z" />
    <glyph glyph-name="oslash" unicode="&#xf8;" horiz-adv-x="581" 
d="M45 242q0 70 22.5 118.5t58 79t80.5 44t90 13.5q35 0 71.5 -8.5t68.5 -28.5q18 20 37 44t31 45q26 -38 66 -58q-17 -14 -38.5 -35.5t-40.5 -42.5q26 -32 40.5 -73t14.5 -98q0 -70 -22.5 -119t-58 -79.5t-80 -44t-89.5 -13.5q-38 0 -76 9.5t-72 32.5q-11 -12 -22 -25.5
t-21 -25.5t-18.5 -22t-13.5 -15q-11 16 -27.5 29.5t-37.5 22.5q6 6 17.5 16t24 22t24.5 24t21 23q-23 31 -36.5 70.5t-13.5 94.5zM212 98q14 -17 34 -26t50 -9q34 0 57.5 15t37.5 39.5t20 57t6 67.5q0 22 -1.5 42t-6.5 38zM375 390q-14 14 -34.5 22.5t-44.5 8.5
q-35 0 -58.5 -15t-37.5 -40t-20 -57.5t-6 -66.5q0 -19 1 -36t5 -33z" />
    <glyph glyph-name="ugrave" unicode="&#xf9;" horiz-adv-x="457" 
d="M23 162q0 27 0.5 49.5t1.5 42.5q1 17 1 32v30q0 16 -0.5 38.5t-1 47t-1 48.5t-0.5 44q46 -11 64 -11t64 11q-2 -27 -4.5 -63t-4 -74.5t-2.5 -78t-1 -73.5q0 -43 6.5 -64.5t16.5 -32.5q11 -12 26.5 -19.5t36.5 -7.5q31 0 51.5 13.5t30.5 33.5q6 13 10 24t5.5 29t2 48
t0.5 83v43.5t-0.5 49.5t-1 48.5t-1.5 40.5q46 -11 63 -11q9 0 25.5 3.5t38.5 8.5q-5 -73 -7 -156t-2 -158q0 -21 0.5 -46t1.5 -51t2 -51t2 -44q-22 5 -38 8t-24 3t-23.5 -2.5t-35.5 -7.5q1 12 1.5 16t0.5 8q0 3 -0.5 7.5t-0.5 12.5q-54 -48 -124 -48q-85 0 -132 45.5
t-47 130.5zM111 613q-15 9 -30 23.5t-15 40.5q0 13 5.5 22.5t13.5 16.5t17.5 10.5t17.5 3.5q17 0 31.5 -8t27.5 -21l177 -179h-102z" />
    <glyph glyph-name="uacute" unicode="&#xfa;" horiz-adv-x="457" 
d="M9 162q0 27 0.5 49.5t1.5 42.5q1 17 1 32v30q0 16 -0.5 38.5t-1 47t-1 48.5t-0.5 44q46 -11 64 -11t64 11q-2 -27 -4.5 -63t-4 -74.5t-2.5 -78t-1 -73.5q0 -43 6.5 -64.5t16.5 -32.5q11 -12 26.5 -19.5t36.5 -7.5q31 0 51.5 13.5t30.5 33.5q6 13 10 24t5.5 29t2 48
t0.5 83v43.5t-0.5 49.5t-1 48.5t-1.5 40.5q46 -11 63 -11q9 0 25.5 3.5t38.5 8.5q-5 -73 -7 -156t-2 -158q0 -21 0.5 -46t1.5 -51t2 -51t2 -44q-22 5 -38 8t-24 3t-23.5 -2.5t-35.5 -7.5q1 12 1.5 16t0.5 8q0 3 -0.5 7.5t-0.5 12.5q-54 -48 -124 -48q-85 0 -132 45.5
t-47 130.5zM278 701q13 13 27.5 21t31.5 8q8 0 17.5 -3.5t17.5 -10.5t13.5 -16.5t5.5 -22.5q0 -26 -15 -40.5t-30 -23.5q-35 -22 -71.5 -45.5t-71.5 -45.5h-101z" />
    <glyph glyph-name="ucircumflex" unicode="&#xfb;" horiz-adv-x="465" 
d="M20 162q0 27 0.5 49.5t1.5 42.5q1 17 1 32v30q0 16 -0.5 38.5t-1 47t-1 48.5t-0.5 44q46 -11 64 -11t64 11q-2 -27 -4.5 -63t-4 -74.5t-2.5 -78t-1 -73.5q0 -43 6.5 -64.5t16.5 -32.5q11 -12 26.5 -19.5t36.5 -7.5q31 0 51.5 13.5t30.5 33.5q6 13 10 24t5.5 29t2 48
t0.5 83v43.5t-0.5 49.5t-1 48.5t-1.5 40.5q46 -11 63 -11q9 0 25.5 3.5t38.5 8.5q-5 -73 -7 -156t-2 -158q0 -21 0.5 -46t1.5 -51t2 -51t2 -44q-22 5 -38 8t-24 3t-23.5 -2.5t-35.5 -7.5q1 12 1.5 16t0.5 8q0 3 -0.5 7.5t-0.5 12.5q-54 -48 -124 -48q-85 0 -132 45.5
t-47 130.5zM233 611q-26 -23 -52.5 -45.5t-50.5 -43.5h-90l149 202h87l149 -202h-89z" />
    <glyph glyph-name="udieresis" unicode="&#xfc;" horiz-adv-x="471" 
d="M23 162q0 27 0.5 49.5t1.5 42.5q1 17 1 32v30q0 16 -0.5 38.5t-1 47t-1 48.5t-0.5 44q46 -11 64 -11t64 11q-2 -27 -4.5 -63t-4 -74.5t-2.5 -78t-1 -73.5q0 -43 6.5 -64.5t16.5 -32.5q11 -12 26.5 -19.5t36.5 -7.5q31 0 51.5 13.5t30.5 33.5q6 13 10 24t5.5 29t2 48
t0.5 83v43.5t-0.5 49.5t-1 48.5t-1.5 40.5q46 -11 63 -11q9 0 25.5 3.5t38.5 8.5q-5 -73 -7 -156t-2 -158q0 -21 0.5 -46t1.5 -51t2 -51t2 -44q-22 5 -38 8t-24 3t-23.5 -2.5t-35.5 -7.5q1 12 1.5 16t0.5 8q0 3 -0.5 7.5t-0.5 12.5q-54 -48 -124 -48q-85 0 -132 45.5
t-47 130.5zM73 618q0 29 20.5 50t50.5 21q29 0 50 -21t21 -50t-21 -50t-50 -21q-30 0 -50.5 21t-20.5 50zM257 618q0 29 20.5 50t49.5 21q30 0 50.5 -21t20.5 -50t-20.5 -50t-50.5 -21q-29 0 -49.5 21t-20.5 50z" />
    <glyph glyph-name="yacute" unicode="&#xfd;" horiz-adv-x="471" 
d="M35 -265q51 83 88 153t63 131q-11 29 -29 72t-38 91.5t-41.5 98.5t-40 93t-33 76t-20.5 47q32 -6 54 -10t29 -4q9 0 24.5 2.5t34.5 6.5q25 -77 57.5 -162t65.5 -166q33 74 65 159.5t58 170.5q36 -11 47 -11q5 0 24.5 5t49.5 13q-7 -14 -23 -48t-37.5 -81.5t-47.5 -105
t-53 -118t-53.5 -121.5t-49 -114.5t-39.5 -97t-25 -70.5q-16 5 -28 7.5t-19 2.5q-6 0 -28 -5.5t-55 -14.5zM294 701q13 13 27.5 21t31.5 8q8 0 17.5 -3.5t17.5 -10.5t13.5 -16.5t5.5 -22.5q0 -26 -15 -40.5t-30 -23.5q-35 -22 -71.5 -45.5t-71.5 -45.5h-101z" />
    <glyph glyph-name="thorn" unicode="&#xfe;" horiz-adv-x="500" 
d="M41 456q0 32 -0.5 70.5t-2 78.5t-3 78.5t-4.5 71.5q26 -5 43.5 -8t24.5 -3t25 3t43 8q-3 -33 -4.5 -71.5t-3 -78.5t-2 -78.5t-0.5 -70.5v-11q23 22 55.5 37t80.5 15q40 0 78.5 -14.5t68.5 -45.5t48.5 -78.5t18.5 -113.5t-20 -114.5t-52 -80.5t-72 -48t-81 -16
q-75 0 -125 45q0 -32 0.5 -69t2 -75t3 -75.5t4.5 -68.5q-25 5 -43 8.5t-25 3.5t-24.5 -3.5t-43.5 -8.5q3 33 4.5 71.5t3 78.5t2 78.5t0.5 70.5v414zM378 245q0 49 -9.5 81.5t-24.5 51.5t-34 26.5t-37 7.5q-32 0 -54 -14t-35.5 -38t-20 -55.5t-6.5 -66.5q0 -171 113 -171
q28 0 48 14t33.5 38t20 56.5t6.5 69.5z" />
    <glyph glyph-name="ydieresis" unicode="&#xff;" horiz-adv-x="474" 
d="M39 -265q51 83 88 153t63 131q-11 29 -29 72t-38 91.5t-41.5 98.5t-40 93t-33 76t-20.5 47q32 -6 54 -10t29 -4q9 0 24.5 2.5t34.5 6.5q25 -77 57.5 -162t65.5 -166q33 74 65 159.5t58 170.5q36 -11 47 -11q5 0 24.5 5t49.5 13q-7 -14 -23 -48t-37.5 -81.5t-47.5 -105
t-53 -118t-53.5 -121.5t-49 -114.5t-39.5 -97t-25 -70.5q-16 5 -28 7.5t-19 2.5q-6 0 -28 -5.5t-55 -14.5zM79 618q0 29 20.5 50t50.5 21q29 0 50 -21t21 -50t-21 -50t-50 -21q-30 0 -50.5 21t-20.5 50zM263 618q0 29 20.5 50t49.5 21q30 0 50.5 -21t20.5 -50t-20.5 -50
t-50.5 -21q-29 0 -49.5 21t-20.5 50z" />
    <glyph glyph-name="dotlessi" unicode="&#x131;" horiz-adv-x="173" 
d="M27 290q0 40 -2.5 92t-8.5 113q26 -5 43.5 -8.5t25.5 -3.5q7 0 25 3.5t44 8.5q-6 -61 -8.5 -113t-2.5 -92v-97q0 -40 2.5 -92t8.5 -112q-26 5 -44 8t-25 3q-8 0 -25.5 -3t-43.5 -8q6 60 8.5 112t2.5 92v97z" />
    <glyph glyph-name="Lslash" unicode="&#x141;" horiz-adv-x="486" 
d="M106 421q0 30 -1 64.5t-2 70t-2.5 70.5t-2.5 65q24 -5 42 -7.5t28 -2.5t27.5 2.5t42.5 7.5q-2 -30 -3.5 -63.5t-2.5 -68.5t-2 -69t-1 -64q20 13 43 28.5t41 27.5q8 -20 18 -39t24 -40q-38 -18 -67.5 -35t-58.5 -34v-70q0 -51 0.5 -89.5t1.5 -71.5v-17q29 0 58 0.5t61 2.5
t68.5 5t80.5 9q-6 -20 -10 -35.5t-4 -20.5q0 -6 4 -20t9 -34q-21 1 -47.5 2.5t-54 2.5t-54 1.5t-47.5 0.5q-44 0 -98.5 -2t-98.5 -4q1 30 2.5 63.5t2.5 68t2 68.5t1 64q-19 -13 -34.5 -25.5t-26.5 -21.5q-19 45 -47 81q26 14 55.5 29.5t52.5 29.5v70z" />
    <glyph glyph-name="lslash" unicode="&#x142;" horiz-adv-x="270" 
d="M67 -11q3 32 4.5 70.5t3 78t2 77.5t0.5 70q-7 -5 -13 -9t-11 -6l-24 -24q-8 16 -18 32t-33 39q19 11 48 28.5t51 31.5v79q0 32 -0.5 70.5t-2 78.5t-3 78.5t-4.5 71.5q25 -5 43 -8t25 -3t25 3t43 8q-3 -33 -4.5 -71.5t-3 -78.5t-2 -78.5t-0.5 -70.5v-5q21 14 38.5 26.5
t28.5 19.5q0 -23 10 -43.5t22 -31.5q-20 -13 -30 -19t-18 -11h1q-12 -7 -22 -12t-30 -18v-75q0 -32 0.5 -70t2 -78t3 -78.5t4.5 -71.5q-25 5 -43 8t-25 3t-25 -3t-43 -8zM52 270l-3 -2q1 0 3 2z" />
    <glyph glyph-name="OE" unicode="&#x152;" horiz-adv-x="1006" 
d="M736 245q0 -68 3 -137q1 -5 1.5 -10.5t0.5 -11.5q95 1 150.5 5.5t88.5 10.5q-6 -20 -10 -35.5t-4 -20.5q0 -6 4 -19.5t10 -33.5q-20 1 -44.5 2.5t-50 2.5t-50.5 1.5t-44 0.5q-20 0 -43.5 -0.5t-48.5 -1.5t-49 -2t-44 -2q1 19 3 26t2 21v16q-35 -29 -88.5 -51.5
t-135.5 -22.5q-72 0 -134.5 24t-109.5 68.5t-74 108.5t-27 145q0 89 27.5 158t75.5 116t114 71t144 24q80 0 131.5 -21t81.5 -45q-1 17 -2 29.5t-2 25.5q19 -1 42.5 -2t47.5 -2t46.5 -1.5t41.5 -0.5t43 0.5t48.5 1.5t48.5 2.5t43 2.5q-5 -20 -9 -34.5t-4 -19.5q0 -7 4 -23
t11 -38q-22 4 -42.5 8t-46 7t-60.5 5t-85 2q0 -5 -1 -9t-1 -9v1q-3 -62 -3 -123v-53q43 0 72 0.5t48 1.5t31 2t23 2h8t15 0.5t14.5 0.5h7.5q-6 -19 -10 -32t-4 -18q0 -4 4 -17t10 -32h-8t-14.5 0.5t-14.5 0.5h-8q-11 1 -23 2t-31.5 1.5t-48 1t-71.5 0.5v-71zM181 341
q0 -72 17.5 -124.5t47.5 -86t70 -50t85 -16.5q51 0 91.5 20t69 56.5t43.5 87.5t15 113q0 75 -16 127.5t-43.5 85.5t-66 48t-83.5 15q-48 0 -90 -16.5t-73 -50t-49 -85.5t-18 -124z" />
    <glyph glyph-name="oe" unicode="&#x153;" horiz-adv-x="897" 
d="M640 497q55 0 96 -17t68 -46t40 -68t13 -82q0 -5 -0.5 -13t-1 -17t-1.5 -17.5t-1 -12.5q-17 0 -45 0.5t-45 0.5q-33 1 -65.5 1.5t-65.5 0.5q-20 0 -40.5 -0.5t-40.5 -1.5h-19v-4q0 -32 9 -59t26.5 -47t43.5 -31.5t59 -11.5q16 0 34.5 6t37 16t36 24t31.5 31l31 -29
l-8 -67q-17 -13 -37.5 -25t-44 -21.5t-48.5 -15t-49 -5.5q-56 0 -102 18t-79 52q-35 -38 -83 -54t-99 -16q-45 0 -89.5 13.5t-80 44t-58 79.5t-22.5 119t22.5 118.5t58 79t80 44t89.5 13.5q48 0 96 -17t83 -51q31 32 74 50t97 18zM413 242q0 34 -6 66.5t-20.5 57.5t-38 40
t-58.5 15t-58 -15t-37 -40t-20 -57.5t-6 -66.5q0 -35 6 -67.5t20 -57t37 -39.5t58 -15t58.5 15t38 39.5t20.5 57t6 67.5zM642 421q-24 0 -42 -10.5t-30.5 -27t-20.5 -37.5t-11 -41h10q21 -1 43 -1.5t42 -0.5q21 0 42.5 0.5t43.5 1.5h14q-2 20 -6.5 41t-15 37.5t-27.5 27
t-42 10.5z" />
    <glyph glyph-name="Scaron" unicode="&#x160;" horiz-adv-x="460" 
d="M342 885h90l-139 -190q37 -4 68.5 -18.5t63.5 -39.5q-13 -25 -21 -49t-16 -59h-45q-5 13 -12.5 28.5t-19 28.5t-27 22t-36.5 9q-42 0 -70 -25.5t-28 -66.5q0 -26 10.5 -44t28 -31t39.5 -23t46 -19q31 -13 61.5 -27t54.5 -35.5t39 -52t15 -76.5q0 -48 -17 -90.5
t-49.5 -74.5t-79 -50.5t-106.5 -18.5q-64 0 -107 21.5t-75 46.5q6 15 9.5 28t6.5 26t5 28t4 33h47q8 -17 20 -34t28.5 -31t37.5 -23t47 -9q51 0 80.5 32.5t29.5 79.5q0 24 -10 41.5t-26.5 30.5t-38 23t-44.5 19q-32 13 -63 28t-56 37.5t-40.5 55.5t-15.5 82q0 73 42 124.5
t117 68.5l-143 194h89l103 -90z" />
    <glyph glyph-name="scaron" unicode="&#x161;" horiz-adv-x="370" 
d="M84 132q5 -10 14 -21.5t21 -21t26.5 -16t30.5 -6.5q26 0 46.5 15.5t20.5 45.5q0 27 -24 39t-56 22q-26 7 -51 16t-44.5 25t-32 40.5t-12.5 62.5q0 35 12 65t34.5 52t55.5 34.5t76 12.5q28 0 49.5 -6.5t40.5 -13.5l2 -1l3 -1t13 -3.5t32 -8.5q-7 -12 -13.5 -27t-12 -30
t-8.5 -28t-4 -20h-49q-7 23 -24.5 40.5t-40.5 17.5q-20 0 -38 -13t-18 -42q0 -14 7 -24t19 -17.5t26.5 -12.5t29.5 -9q24 -7 49 -16t44.5 -24.5t32 -39.5t12.5 -61q0 -31 -13.5 -61.5t-38 -55t-60 -39.5t-79.5 -15q-48 0 -85.5 14t-66.5 31q4 8 8.5 21t8.5 27t6.5 28t2.5 25
h48zM288 724h90l-149 -202h-87l-149 202h89l103 -89z" />
    <glyph glyph-name="Ydieresis" unicode="&#x178;" horiz-adv-x="583" 
d="M219 -10q8 72 9.5 143t1.5 143q-11 18 -31 52t-45 75.5t-52 87t-51.5 86t-44 72t-29.5 46.5q38 -6 65 -10t36 -4q21 0 64 8q20 -40 39.5 -77t39.5 -73.5t41.5 -74t45.5 -79.5q39 63 80.5 142.5t80.5 162.5q17 -4 30 -6.5t21 -2.5t31.5 4.5t55.5 12.5q-103 -159 -164 -257
t-89 -152q0 -33 0.5 -73t2 -80.5t3 -78.5t4.5 -67q-27 5 -45.5 7.5t-26.5 2.5t-27 -2.5t-46 -7.5zM138 778q0 30 21 50.5t50 20.5t50 -20.5t21 -50.5q0 -29 -21 -50t-50 -21t-50 21t-21 50zM322 778q0 30 21 50.5t50 20.5t50 -20.5t21 -50.5q0 -29 -21 -50t-50 -21t-50 21
t-21 50z" />
    <glyph glyph-name="Zcaron" unicode="&#x17d;" horiz-adv-x="597" 
d="M16 42q37 50 76.5 106t78.5 111t75 107.5t66.5 97.5t53.5 79t35 52h-23q-33 0 -76.5 -1.5t-89.5 -3.5t-90 -5.5t-77 -6.5q6 20 10 35.5t4 20.5t-4 19.5t-9 34.5q11 -1 31 -2t44 -2t50.5 -1.5t51.5 -0.5q49 -1 110 -1h134q31 0 59 2.5t64 2.5v-49q-17 -19 -47 -58
t-66.5 -89.5t-76.5 -108t-77.5 -112t-70 -103t-52.5 -80.5q3 0 6 -0.5t6 -0.5q6 0 11.5 0.5t12.5 0.5q34 0 83 1.5t100.5 4.5t98.5 7t79 8q-5 -22 -8.5 -37t-3.5 -21t3.5 -20.5t8.5 -34.5q-67 2 -131.5 4t-118.5 2q-36 0 -86 -0.5t-98.5 -1.5t-89 -2.5t-57.5 -2.5v49z
M405 885h90l-149 -203h-87l-149 203h90l102 -90z" />
    <glyph glyph-name="zcaron" unicode="&#x17e;" horiz-adv-x="470" 
d="M14 40q34 42 71 89t73 94.5t69 92t60 80.5l-1 -1v1q0 1 3 4q-24 -1 -54.5 -2.5t-62.5 -3.5t-62.5 -4.5t-53.5 -4.5q5 20 6.5 32.5t1.5 20.5q0 3 -1.5 16.5t-6.5 36.5q48 -5 112 -6.5t150 -1.5q18 0 34.5 0.5t33 1.5t35.5 2.5t43 3.5v-49q-38 -48 -79 -101.5t-78.5 -103
t-68.5 -90.5t-48 -66q28 0 56 1t60 3t70.5 4.5t88.5 7.5q-4 -16 -6.5 -30.5t-2.5 -21.5q0 -5 2.5 -19.5t6.5 -30.5h-19t-24.5 0.5l-25 1t-19.5 0.5q-42 2 -87 2.5t-87 0.5q-63 0 -124 -3h1q-11 -1 -33 -1.5t-33 -0.5v45zM342 724h90l-149 -202h-87l-149 202h89l103 -89z" />
    <glyph glyph-name="florin" unicode="&#x192;" horiz-adv-x="497" 
d="M67 -63q8 -4 17.5 -9t15.5 -5q24 0 34 25.5t17 67.5q2 10 6 34.5t9.5 57t11.5 68t11.5 68t9.5 57t6 34.5q-28 -1 -59 -2t-46 -3q6 20 12 45.5t6 48.5q17 -2 46.5 -5t56.5 -3q4 14 7 30q9 37 25.5 77t41 73.5t57.5 55.5t75 22q7 0 25 -4t35 -10q-7 -22 -11.5 -52t-4.5 -56
l-44 -13q-8 12 -19 21t-20 9q-11 0 -20 -9.5t-14 -36.5q-5 -32 -8.5 -53.5t-8.5 -53.5q11 1 20.5 1.5t20.5 1.5q6 0 16.5 0.5l21 1t20 0.5h12.5q-9 -20 -15.5 -45t-6.5 -45q-32 3 -56.5 3.5t-47.5 0.5q-9 -47 -17 -92t-16 -93q-20 -107 -51.5 -173t-69 -102t-79 -48
t-82.5 -12q11 35 16.5 62.5t5.5 50.5z" />
    <glyph glyph-name="circumflex" unicode="&#x2c6;" horiz-adv-x="354" 
d="M177 611q-26 -23 -52.5 -45.5t-50.5 -43.5h-90l149 202h87l149 -202h-89z" />
    <glyph glyph-name="caron" unicode="&#x2c7;" horiz-adv-x="350" 
d="M277 724h90l-149 -202h-87l-149 202h89l104 -90z" />
    <glyph glyph-name="breve" unicode="&#x2d8;" horiz-adv-x="342" 
d="M89 716q8 -43 26.5 -66.5t54.5 -23.5q38 0 55 23.5t29 66.5h71q0 -39 -9.5 -74.5t-29 -62t-48 -42t-67.5 -15.5t-68 15.5t-48.5 42t-29 62t-9.5 74.5h73z" />
    <glyph glyph-name="dotaccent" unicode="&#x2d9;" horiz-adv-x="164" 
d="M10 615q0 29 21 50t50 21t50 -21t21 -50t-21 -50t-50 -21t-50 21t-21 50z" />
    <glyph glyph-name="ring" unicode="&#x2da;" horiz-adv-x="266" 
d="M13 625q0 25 9.5 46.5t26 37.5t38 25.5t46.5 9.5q24 0 45.5 -9.5t37.5 -25.5t25.5 -37.5t9.5 -46.5q0 -24 -9.5 -45.5t-25.5 -37.5t-37.5 -25.5t-46.5 -9.5q-24 0 -46 9.5t-38 25.5t-25.5 37.5t-9.5 45.5zM99 625q0 -13 9.5 -22.5t23.5 -9.5t24 9.5t10 22.5
q0 14 -9.5 23.5t-23.5 9.5t-24 -9.5t-10 -23.5z" />
    <glyph glyph-name="ogonek" unicode="&#x2db;" horiz-adv-x="220" 
d="M228 47q-38 -35 -61.5 -59t-36.5 -40t-17.5 -26.5t-4.5 -17.5q0 -17 12.5 -24.5t27.5 -7.5q5 0 17.5 3.5t26.5 8.5l23 -73q-23 -11 -42 -15.5t-40 -4.5q-25 0 -48.5 6.5t-41.5 19.5t-29 32t-11 45q0 63 120 153h105z" />
    <glyph glyph-name="tilde" unicode="&#x2dc;" horiz-adv-x="393" 
d="M14 545q4 24 13.5 49.5t25 46.5t37 34t49.5 13q19 0 34 -5t44 -19q23 -11 33 -15t19 -4q13 0 22 14t14 33h72q-3 -17 -10.5 -42t-22.5 -48t-39 -40t-58 -17q-30 0 -78 24q-21 11 -31.5 15t-18.5 4q-11 0 -17.5 -9t-14.5 -34h-73z" />
    <glyph glyph-name="hungarumlaut" unicode="&#x2dd;" horiz-adv-x="468" 
d="M152 701q13 13 28 21t31 8q8 0 17.5 -3.5t17.5 -10.5t13.5 -16.5t5.5 -22.5q0 -26 -15 -40.5t-29 -23.5q-35 -22 -72 -45.5t-71 -45.5h-102zM339 701q13 13 27.5 21t31.5 8q8 0 17.5 -3.5t17.5 -10.5t13.5 -16.5t5.5 -22.5q0 -26 -15 -40.5t-30 -23.5
q-35 -22 -71.5 -45.5t-71.5 -45.5h-101z" />
    <glyph glyph-name="endash" unicode="&#x2013;" horiz-adv-x="587" 
d="M36 284h514v-91h-514v91z" />
    <glyph glyph-name="emdash" unicode="&#x2014;" horiz-adv-x="1086" 
d="M53 284h980v-91h-980v91z" />
    <glyph glyph-name="quoteleft" unicode="&#x2018;" 
d="M109 435q-2 -9 -7 -18t-12.5 -16.5t-18 -12.5t-25.5 -5q-19 0 -38.5 13t-19.5 42q0 14 5.5 26t12.5 25l2 4l-3 -4q29 49 63 107t63 108l58 -21z" />
    <glyph glyph-name="quoteright" unicode="&#x2019;" 
d="M66 646q5 17 20 34.5t44 17.5q19 0 38.5 -13t19.5 -42q0 -14 -6 -26t-12 -25q-1 -1 -1.5 -2t-1.5 -2l4 4q-29 -50 -63 -108t-63 -107l-58 21z" />
    <glyph glyph-name="quotesinglbase" unicode="&#x201a;" 
d="M66 100q5 17 20 34.5t44 17.5q19 0 38.5 -13t19.5 -42q0 -14 -6 -26t-12 -25q-1 -1 -1.5 -2t-1.5 -2l4 4q-29 -50 -63 -108t-63 -107l-58 21z" />
    <glyph glyph-name="quotedblleft" unicode="&#x201c;" horiz-adv-x="376" 
d="M291 435q-5 -17 -20 -34.5t-44 -17.5q-19 0 -38.5 13t-19.5 42q0 14 6 26t12 25l2 4l-3 -4q29 49 63 107t63 108l58 -21zM130 435q-2 -9 -7 -18t-12.5 -16.5t-18 -12.5t-25.5 -5q-19 0 -38.5 13t-19.5 42q0 14 5.5 26t12.5 25q1 1 1 4l-2 -4q29 49 63 107t63 108l58 -21z
" />
    <glyph glyph-name="quotedblright" unicode="&#x201d;" horiz-adv-x="377" 
d="M247 646q4 17 19 34.5t44 17.5q19 0 38.5 -13t19.5 -42q0 -14 -5.5 -26t-12.5 -25q-2 -2 -2 -4l3 4q-14 -25 -30 -52.5t-32.5 -55.5t-32.5 -55.5t-31 -51.5l-58 21zM86 646q5 17 19.5 34.5t44.5 17.5q19 0 38.5 -13t19.5 -42q0 -14 -6 -26t-12 -25q-1 -1 -1.5 -2t-1.5 -2
l4 4q-29 -50 -63 -108t-63 -107l-58 21z" />
    <glyph glyph-name="quotedblbase" unicode="&#x201e;" horiz-adv-x="377" 
d="M247 100q4 17 19 34.5t44 17.5q19 0 38.5 -13t19.5 -42q0 -14 -5.5 -26t-12.5 -25q-2 -2 -2 -4l3 4q-14 -25 -30 -52.5t-32.5 -55.5t-32.5 -55.5t-31 -51.5l-58 21zM86 100q5 17 19.5 34.5t44.5 17.5q19 0 38.5 -13t19.5 -42q0 -14 -6 -26t-12 -25q-1 -1 -1.5 -2t-1.5 -2
l4 4q-29 -50 -63 -108t-63 -107l-58 21z" />
    <glyph glyph-name="dagger" unicode="&#x2020;" horiz-adv-x="473" 
d="M11 478q57 -8 96 -10t74 -2q0 53 -2.5 114.5t-11.5 112.5q24 -5 42 -8.5t27 -3.5t27 3.5t42 8.5q-5 -25 -7.5 -53.5t-4 -58.5t-2 -59.5t-0.5 -55.5q34 0 73.5 2t96.5 10q-12 -44 -12 -63q0 -8 3 -23.5t9 -37.5q-55 8 -95.5 10t-74.5 2q0 -60 1.5 -120.5t3.5 -120.5
q0 -13 0.5 -31t1 -37t1 -36.5t0.5 -30.5q-21 5 -37.5 7.5t-25.5 2.5t-25.5 -2.5t-37.5 -7.5q0 13 0.5 30.5t1 36.5t1 37t0.5 31q1 33 2 62.5t1.5 58t1 58t0.5 62.5q-35 0 -74 -2t-96 -10q6 22 9 37.5t3 23.5q0 19 -12 63z" />
    <glyph glyph-name="daggerdbl" unicode="&#x2021;" horiz-adv-x="476" 
d="M186 341q0 12 -0.5 23t-0.5 22q-1 6 -1 12.5v13.5q-35 0 -74.5 -2.5t-96.5 -10.5q6 22 9 38t3 24t-3 24.5t-9 38.5q55 -8 95.5 -10.5t74.5 -2.5q0 26 -2 66.5t-8 114.5q46 -11 65 -11t65 11q-5 -68 -7.5 -110t-2.5 -71q34 0 73.5 2.5t96.5 10.5q-6 -22 -9 -38.5t-3 -24.5
t3 -24t9 -38q-55 8 -95.5 10.5t-75.5 2.5q0 -7 -0.5 -13.5t-0.5 -12.5q-1 -11 -1 -22v-23v-24t1 -24v-8t0.5 -3.5t0.5 -3.5v-8q35 0 74.5 2t96.5 10q-12 -44 -12 -63q0 -8 3 -23.5t9 -37.5q-55 8 -95.5 10t-74.5 2q0 -26 2 -66t8 -114q-22 5 -38.5 7.5t-26.5 2.5t-26.5 -2.5
t-38.5 -7.5q5 67 7.5 109.5t2.5 70.5q-35 0 -74 -2t-96 -10q6 22 9 37.5t3 23.5q0 19 -12 63q55 -8 95.5 -10t75.5 -2v12t1 12q0 9 0.5 23.5t0.5 23.5z" />
    <glyph glyph-name="bullet" unicode="&#x2022;" horiz-adv-x="400" 
d="M18 341q0 37 14 70.5t39 58t58 39t71 14.5t71 -14.5t58 -39t39 -58t14 -70.5q0 -38 -14 -71t-39 -58t-58 -39t-71 -14t-71 14t-58 39t-39 58t-14 71z" />
    <glyph glyph-name="ellipsis" unicode="&#x2026;" horiz-adv-x="862" 
d="M44 65q0 32 22 54.5t54 22.5t54.5 -22.5t22.5 -54.5t-22.5 -54t-54.5 -22t-54 22t-22 54zM665 65q0 32 22.5 54.5t54.5 22.5t54 -22.5t22 -54.5t-22 -54t-54 -22t-54.5 22t-22.5 54zM354 65q0 32 22.5 54.5t54.5 22.5t54.5 -22.5t22.5 -54.5t-22.5 -54t-54.5 -22
t-54.5 22t-22.5 54z" />
    <glyph glyph-name="perthousand" unicode="&#x2030;" horiz-adv-x="980" 
d="M347 158q0 49 14.5 82.5t37 53t49.5 28t53 8.5q22 0 46.5 -6.5t45.5 -22t37 -41t22 -63.5q6 38 21.5 63.5t37 41t45.5 22t47 6.5q25 0 52.5 -8.5t50 -28t37 -53t14.5 -82.5q0 -50 -14.5 -83t-37 -53t-50 -28.5t-52.5 -8.5q-23 0 -47 6.5t-45.5 22.5t-37 41t-21.5 63
q-6 -38 -22 -63t-37 -41t-45.5 -22.5t-46.5 -6.5q-26 0 -53 8.5t-49.5 28.5t-37 53t-14.5 83zM39 501q0 50 14.5 83t37 53t49.5 28.5t53 8.5q25 0 52.5 -8.5t50 -28.5t37 -53t14.5 -83t-14.5 -83t-37 -52.5t-50 -28t-52.5 -8.5q-26 0 -53 8.5t-49.5 28t-37 52.5t-14.5 83z
M495 701q24 -10 34 -10q3 0 22.5 6.5t48.5 17.5l-401 -757q-12 5 -21 7.5t-11 2.5q-5 0 -24 -6.5t-48 -17.5zM759 158q0 -45 9 -74.5t35 -29.5t35 29.5t9 74.5t-9 74t-35 29t-35 -29t-9 -74zM457 158q0 -45 9 -74.5t35 -29.5t35 29.5t9 74.5t-9 74t-35 29t-35 -29t-9 -74z
M149 501q0 -45 9 -74t35 -29t35 29t9 74t-9 74.5t-35 29.5t-35 -29.5t-9 -74.5z" />
    <glyph glyph-name="guilsinglleft" unicode="&#x2039;" horiz-adv-x="197" 
d="M130 459q10 -18 29.5 -32.5t44.5 -18.5l-118 -167q12 -19 27.5 -42.5t30.5 -47t29 -46t25 -38.5q-21 -3 -41.5 -19.5t-28.5 -36.5l-145 230z" />
    <glyph glyph-name="guilsinglright" unicode="&#x203a;" horiz-adv-x="195" 
d="M-3 413q20 2 41 18.5t29 37.5l145 -230l-147 -218q-10 18 -29.5 32.5t-44.5 18.5l117 167z" />
    <glyph glyph-name="fraction" unicode="&#x2044;" horiz-adv-x="329" 
d="M259 692q14 -5 23 -8.5t12 -3.5q4 0 20 6t41 15l-285 -734q-14 5 -23 8.5t-12 3.5t-19 -6t-42 -16z" />
    <glyph glyph-name="Euro" unicode="&#x20ac;" horiz-adv-x="577" 
d="M546 595q-6 -16 -12 -38.5t-12 -49.5l-47 -1q-22 38 -54.5 59.5t-61.5 21.5q-48 0 -85.5 -39.5t-53.5 -122.5h127h25t29.5 1.5t37.5 4.5t48 8q-14 -30 -22.5 -57.5t-13.5 -44.5q2 1 4 1t4 1q-17 -35 -26 -66.5t-12 -45.5q-32 5 -59.5 7t-48.5 2h-97q14 -75 53 -117.5
t89 -42.5q32 0 70.5 21.5t79.5 66.5l26 -48q-3 -16 -5.5 -32.5t-4.5 -36.5q-14 -13 -35.5 -23.5t-46 -18.5t-50.5 -12.5t-48 -4.5q-100 0 -170.5 64t-91.5 183q-19 -2 -38.5 -4.5t-46.5 -8.5q11 29 18 55.5t11 50.5q-7 -2 -14 -3t-15 -3q12 32 20 60t11 51q8 -2 23 -4t36 -2
q13 53 39 98t61.5 78t80 52t94.5 19q21 0 44.5 -4t46.5 -11t44.5 -16.5t39.5 -19.5zM319 325q19 0 41 0.5t57 5.5q-22 3 -41 4t-35 1h-132v-11h110v0zM76 334q-6 -1 -13.5 -1.5t-14.5 -2.5q6 -1 13 -1t14 -1q0 2 1 6z" />
    <glyph glyph-name="trademark" unicode="&#x2122;" horiz-adv-x="870" 
d="M612 464q29 53 62.5 114t62.5 114h43l13 -140q3 -32 8 -73.5t11 -84.5t11.5 -82.5t9.5 -66.5q-46 16 -55 16q-14 0 -50 -12q-2 48 -5 104t-10 110q-2 12 -2 14.5v2.5l-0.5 2t-1.5 13q-3 -5 -3 -5.5t-3 -5.5q-14 -25 -30 -55t-31 -60t-27.5 -58t-21.5 -48h-38
q-17 39 -35.5 74.5t-37.5 70.5q-8 14 -15.5 28.5t-15.5 29.5q-3 5 -4 7t-2 3l-6 12q-1 -8 -1.5 -16.5t-1.5 -16.5q-5 -47 -9 -98t-5 -111q-18 8 -30 11.5t-14 3.5q-8 0 -53 -17q6 28 12.5 65t13 76.5t12.5 79t11 72.5q2 16 4.5 36.5l5 41t5.5 40.5t5 37h45q27 -60 56 -115.5
t60 -110.5l-1 1l9 -16.5t5.5 -10t6 -10.5t9.5 -16zM150 609q-32 0 -70 -2.5t-66 -4.5l15 30t6 14t-5.5 13.5t-14.5 28.5q18 -1 42.5 -2.5t49.5 -2.5t49 -1.5t42 -0.5t42 0.5t49.5 1.5t49.5 2.5t42 2.5q-9 -17 -14.5 -28.5t-5.5 -13.5t5.5 -14t14.5 -29q-30 2 -67.5 4
t-67.5 2v-108q0 -42 0.5 -82.5t1.5 -82.5q0 -8 0.5 -20.5t1.5 -25t1.5 -24.5t0.5 -18q-20 6 -34 9.5t-20 3.5q-5 0 -18.5 -3.5t-33.5 -9.5v44q2 36 3 84.5t1 117.5v115z" />
    <glyph glyph-name="minus" unicode="&#x2212;" horiz-adv-x="593" 
d="M37 307h518v-95h-518v95z" />
    <glyph glyph-name="fi" unicode="&#xfb01;" horiz-adv-x="507" 
d="M287 622q-26 16 -51 16q-29 0 -41 -21t-12 -49q0 -12 2.5 -36t6.5 -49h27h75q-2 -14 -3.5 -27t-1.5 -15t2 -14.5t4 -27.5h-12.5t-17.5 0.5t-17.5 0.5h-12.5q-8 0 -12.5 0.5t-8 1t-8 0.5h-12.5v-100.5t1 -105.5t1.5 -105.5t2.5 -100.5q-22 5 -38.5 7.5t-25.5 2.5
q-8 0 -26 -2.5t-41 -7.5q7 103 9 206t2 206q-5 0 -10.5 -1t-10.5 -1h-10t-15.5 -0.5t-15.5 -0.5h-10q2 15 4 27.5t2 14.5t-1.5 15t-3.5 27h61h11q1 28 8 59t18 60t26.5 55t33.5 45q20 20 50 34.5t62 14.5q6 0 17 -2t25 -7v-30t-1 -19q-1 -11 -1.5 -28.5t-0.5 -27.5zM350 290
q0 40 -2 92t-9 113q26 -5 43.5 -8.5t25.5 -3.5t26 3.5t43 8.5q-6 -61 -8.5 -113t-2.5 -92v-97q0 -40 2.5 -92t8.5 -112q-25 5 -43 8t-26 3t-25.5 -3t-43.5 -8q7 60 9 112t2 92v97zM337 627q0 29 21 50t50 21t50 -21t21 -50t-21 -50t-50 -21t-50 21t-21 50z" />
    <glyph glyph-name="fl" unicode="&#xfb02;" horiz-adv-x="513" 
d="M287 622q-14 8 -26.5 12t-23.5 4q-29 0 -41.5 -21t-12.5 -49q0 -12 2.5 -36t6.5 -49h27h75q-2 -14 -3.5 -27t-1.5 -15t2 -14.5t4 -27.5h-12.5t-17.5 0.5t-17.5 0.5h-12.5q-8 0 -12.5 0.5t-8 1t-7.5 0.5h-12v-100.5t0.5 -105.5t1 -105.5t2.5 -100.5q-22 5 -38.5 7.5
t-25.5 2.5q-8 0 -25.5 -2.5t-40.5 -7.5q6 103 8 206t2 206q-5 0 -10.5 -1t-10.5 -1h-10t-15.5 -0.5t-15.5 -0.5h-10q2 15 4 27.5t2 14.5t-1.5 15t-3.5 27h61h11q1 28 8 59t18 60t26.5 55t34.5 45q20 20 50 34.5t62 14.5q5 0 16.5 -2t25.5 -7q0 -18 -0.5 -30t-1.5 -19
q-1 -11 -1.5 -28.5t-0.5 -27.5zM356 456q0 32 -0.5 70.5t-2 78.5t-3 78.5t-4.5 71.5q25 -5 43 -8t25 -3t24.5 3t43.5 8q-3 -33 -4.5 -71.5t-3 -78.5t-2 -78.5t-0.5 -70.5v-169q0 -32 0.5 -70t2 -78t3 -78.5t4.5 -71.5q-26 5 -43.5 8t-24.5 3t-25 -3t-43 -8q3 33 4.5 71.5
t3 78.5t2 78t0.5 70v169z" />
    <glyph glyph-name="LDO" horiz-adv-x="720" 
d="M343 162q0 -2 -1.5 -6t-1.5 -5v-7h-4v10q4 4 7 8zM288 144q4 7 4 18h15q-7 0 -7 -8q0 -25 3 -32h4q2 5 7 14h4v-14h-11q-1 0 -2.5 1t-2.5 3t-2 3h-8q0 1 -2 6t-2 9zM374 110v15q3 0 5 1.5t3 2.5v-13q2 -1 4 -2.5t6 -3.5l1 -16q-6 7 -19 16zM89 627q24 7 64 7q25 0 37 -7
q10 -7 34 -7q19 9 22 18q29 0 33 24l9 4q2 3 7 5q5 0 5 2q5 2 7.5 6.5t10.5 4.5q1 3 7 6q7 2 7 5q32 0 32 18q8 0 13 6q4 7 12 7q1 2 9.5 5t8.5 6q7 0 10 3q12 8 16 8l9 4q7 2 7 7q11 0 22 4q11 3 19 3q0 4 7 8q7 2 8 3l89 19l42 -4l15 -8q7 -3 11 -7q10 -7 31 -18l7 -42
q-42 0 -42 5q-5 0 -14 4t-11 4q0 4 -1.5 5.5t-6.5 4.5h-68q-3 -3 -7 -10q-7 0 -21 -4t-21 -4q-13 -9 -18.5 -9t-14.5 -3q-4 0 -8 -6l-6 -6q-10 -3 -8 -3h-4q-1 -3 -8.5 -5l-7.5 -2q-3 0 -5.5 -2t-6.5 -5t-6 -5q-11 0 -15 -10q-5 0 -6 -2.5t-1 -9.5q-6 0 -13.5 -3.5t-8 -3.5
t-6.5 -4.5t-14 -4.5q-2 -1 -7 -2t-8 -6q-2 -1 -4 -4q-2 -5 -3 -6q-11 0 -11 -8q-4 0 -7 -1.5t-6 -4.5l-5 -5q-15 0 -15 -11q-5 0 -13 -7v-11q-4 -3 -6.5 -4t-4.5 -5v-15q6 -7 11 -7v-48q-6 0 -11 -9v-11q-2 -2 -4 -3q-3 -2 -7 -4v-22q-6 -3 -7 -4.5t-1 -10.5q0 -11 -3 -11
l-7 -7q-9 -4 -10.5 -6t-1.5 -10q-9 -4 -15 -8t-8 -11q-11 -11 -44 -11q-17 11 -35 11q-2 3 -7 11h-15q-3 0 -9 4q-7 4 -13 4q0 11 -11 16q0 7 -4 11q-10 0 -21 -1l-11 -1q-4 0 -11 7q-3 2 -6 2v55q2 3 5 5l6 4l4 83q1 0 2.5 1t2.5 3t2 3v15q5 2 6 6t5 4q0 1 10 4.5t10 7.5
q21 7 26 7zM385 132q-4 5 -7 7q-4 1 -15 1v18q6 -6 18 -14q0 -8 4 -12zM400 132q3 -3 3 -7q-3 3 -10 7h7zM403 125h7q5 2 12 10q6 9 10 9q-1 -4 -3.5 -6t-6.5 -6v-14l6 -4t4 -4q-4 0 -10 -7v-13l7 -7h17q1 -6 4 -10q2 -6 18 -12q3 11 3 22q-9 11 -22 11v31q3 0 11 7l-6 6
q-3 2 -5 6q2 -1 12 -5q6 -2 17 -5q6 -2 19 -2v-22q3 -2 6.5 -3.5t4.5 -3.5q0 -16 4 -20h9q3 3 3 14v6q9 0 13 1.5t9 5.5q-7 8 -11 8v14q3 0 11 8v26q-3 2 -6 3.5t-5 5.5q0 8 -1.5 10t-9.5 5q7 0 12.5 5t6.5 5v-10q0 -8 7 -8q3 -10 4 -11.5t7 -4.5q0 -15 8 -22h3q2 2 4 8t3 6
q20 7 20 24q5 0 18 8v-58h-7q-3 -3 -3 -14q-4 -1 -14 -8q10 -7 32 -7q0 -5 -2 -6.5t-5 -6.5v-36q-4 2 -5.5 3.5t-2 3.5t-3.5 7h-20q0 -2 -2 -6q-2 -6 -2 -8q-4 0 -11 -8q7 0 11 -3v-7q-2 -2 -5 -3.5t-6 -4.5v-16q-19 0 -22 -8v-7l1 -1q0 1 -4 1q0 3 -2 8t-2 7q-18 0 -23 -8
v-7q11 -11 22 -11v-7h-7q-12 -5 -21 -7q-4 -1 -10 -1v15q7 0 7 7q0 35 -3 43h-3q-8 -8 -8 -39q-7 0 -11 -4v-14h-26l-4 -8v-38q-10 0 -24 -4q9 -7 14 -7v-18q-6 2 -6 6q0 3 -7 5h-4q-5 -2 -6 -5q-2 -4 -5 -6v18q3 0 11 7q0 57 -7 64h-4q-1 -1 -3 -2l-1 -1l4 3q-4 4 -11 4
q0 31 -7 39h-4q-6 -3 -5 -21q1 -34 1 -31v-55q0 -1 4 -3t4 -4v-7q0 -1 -3.5 -4.5t-3.5 -6.5h-29v25q0 2 -1 3l-4 2q-2 1 -5 3q-2 7 -7 16h-4q-7 -7 -7 -24q3 -2 7 -3l4 -4v-7q-5 -4 -15 -11q3 0 11 11v7q0 7 -18 7q-15 0 -18 -7v-11q0 4 -7 4q0 10 -5 15q-5 4 -16 7v16l-7 4
h-15v14q-6 8 -11 8q-4 12 -22 18v31q11 3 11 15q2 0 5.5 1.5t5.5 1.5q0 19 -4 22h-7q-3 -3 -3 -14q-5 0 -19 -8v44q4 0 7 2t4 2v38h18v-14q-5 0 -7 -4q-2 -2 -3 -4q29 0 36 8v7l-4 4l4 -4h17q0 -31 3 -35h-9l-7 -7v-15q-6 -2 -7 -3.5t-4 -10.5q-4 0 -11 -8h35v-10
q-9 -4 -13 -8q0 -11 7 -24q10 4 21 17v22h7q1 -12 3 -31h8q4 3 4 16q18 0 21 8v7l-7 7l7 4v14q3 -2 8 -3.5t7 -3.5q0 -8 1 -9.5t5 -8.5q27 0 32 11v9h-1q1 -2 5 -2q6 8 6.5 11t0.5 11q3 0 11 7v20q-7 8 -11 8q0 2 -2 4t-2 3zM617 129q2 -1 3 -2l1 -2h8q0 -3 -4 -7h-3
q-5 4 -5 11zM629 125q0 4 3 7q0 -2 -1 -3q-2 -3 -2 -4zM632 132v50q4 0 11 8v10h15l4 8v22h7v-90q-1 -2 -5 -3q-3 -2 -6 -5v-14l-14 -8q0 19 -8 22h-4zM456 -67q2 -1 3 -2l1 -2v3q-1 1 -4 1zM460 -71q4 -1 9 -8l6 -6q0 7 -7 14h-8zM468 -67q3 9 3 31h15q2 -2 3 -4q0 -4 4 -6
q2 -1 4 -1q-2 -2 -5 -3.5t-6 -3.5v-9q0 -5 -3 -5q-3 1 -6 1h-9zM414 -10q-1 -5 -1 -15v-12q0 -20 -2 -26h-4v49q3 0 7 4zM307 -89l3 -4q0 3 -1 4h-2zM310 -93q4 0 8 -3q-8 0 -8 3zM264 129q-3 0 -7 3v12l-7 7h-15v15q11 0 11 9v7q-1 3 -5.5 5t-5.5 3v10q-6 8 -11 8
q3 0 7 2.5t4 4.5v7q0 3 -4 4q-5 2 -7 4v34h8v-16l3 -7h15v-33q-8 0 -8 -8v-7q0 -3 8 -3v-24q2 -1 6 -4t5 -4v-26zM296 90q4 4 4 20h13q-2 -1 -3.5 -3t-2.5 -4v-31q-1 1 -3 2.5t-4 1.5q0 7 -4 14zM307 72l4.5 -2t6.5 -2h-8q-1 1 -1 2zM318 68q1 7 7 15v-15h-7zM531 237
q2 -2 3 -4l4 -2q2 -1 4 -1l1 -15h-18q0 8 -1.5 10t-11.5 5q0 34 -4 42h-3q-4 -2 -5 -8q-2 -6 -3 -7h-4v15h15q1 6 4 14h9v-14q8 -8 11 -8zM511 305q0 7 -6 7q-8 -7 -12 -7v14h15q0 -3 1.5 -8t1.5 -6zM300 290h-12q0 -2 -1.5 -6t-1.5 -5q-27 -7 -28 -7v25h15l7 8v14
q27 0 31 20q18 5 22 22h15q0 -29 7 -34h4q6 5 6 20q7 4 10 7v15q9 -8 11 -8h8q-1 0 7 8q0 -18 7 -22h4l3.5 7l3.5 7h15q1 -5 4 -11q1 -1 9 -3q-14 0 -14 -8v-7q4 -5 36 -5v-15h-39q-2 2 -3 8q-3 6 -4 7h-4q-2 -5 -7 -15h-4q-2 3 -7 15h-15q0 -6 -3 -15h-8q0 4 -3 15h-28
q-2 -6 -7 -15q-10 0 -20 -8z" />
    </font>
</defs>
</svg>
