<?xml version="1.0" standalone="no"?>
<!DOCTYPE svg PUBLIC "-//W3C//DTD SVG 1.1//EN" "http://www.w3.org/Graphics/SVG/1.1/DTD/svg11.dtd" >
<svg xmlns="http://www.w3.org/2000/svg" xmlns:xlink="http://www.w3.org/1999/xlink" version="1.1">
<metadata>
Created by FontForge 20170731 at Mon Apr 12 07:36:09 2004
 By Aleksey,,,
Copyright (c) LDO Fonts, 2004. All rights reserved.
</metadata>
<defs>
<font id="OregonLDOSinistral" horiz-adv-x="176" >
  <font-face 
    font-family="Oregon LDO Sinistral"
    font-weight="400"
    font-style="italic"
    font-stretch="normal"
    units-per-em="1000"
    panose-1="2 11 5 3 6 4 2 2 2 4"
    ascent="800"
    descent="-200"
    x-height="473"
    cap-height="685"
    bbox="-83.1429 -304 1052 919"
    underline-thickness="50"
    underline-position="-150"
    slope="-12"
    unicode-range="U+0020-FB02"
  />
<missing-glyph horiz-adv-x="278" 
 />
    <glyph glyph-name=".notdef" horiz-adv-x="278" 
 />
    <glyph glyph-name=".null" horiz-adv-x="0" 
 />
    <glyph glyph-name="nonmarkingreturn" horiz-adv-x="278" 
 />
    <glyph glyph-name="space" unicode=" " horiz-adv-x="278" 
 />
    <glyph glyph-name="space" unicode="&#xa0;" horiz-adv-x="278" 
 />
    <glyph glyph-name="exclam" unicode="!" horiz-adv-x="174" 
d="M112 171q-14 47 -29.5 99.5t-30.5 104t-29 98.5t-25 84.5t-18 61.5t-8 30q-5 27 7.5 38t30.5 11q19 0 36.5 -11t22.5 -38q1 -5 4.5 -29.5t8.5 -62t11.5 -84.5t13 -98.5t13 -104t12.5 -99.5h-20zM92 45q-5 23 8.5 40t36.5 17t43.5 -17t25.5 -40t-8.5 -40t-36.5 -17
t-43.5 17t-25.5 40z" />
    <glyph glyph-name="quotedbl" unicode="&#x22;" horiz-adv-x="289" 
d="M12 698h52l61 -288h-52zM161 698h52l61 -288h-52z" />
    <glyph glyph-name="numbersign" unicode="#" horiz-adv-x="442" 
d="M127 432h-75q5 16 5.5 40.5t-3.5 41.5h73q0 38 -0.5 63t-0.5 41.5t-0.5 25.5t-0.5 15q12 -3 22 -3q11 0 20 3q-2 -6 -2.5 -12t-1 -20.5t-0.5 -41v-71.5h114q0 38 -0.5 63t-0.5 41.5t-0.5 25.5t-0.5 15q12 -3 22 -3q11 0 20 3q-2 -6 -2.5 -12t-1 -20.5t-0.5 -41v-71.5h74
q-4 -16 -4.5 -41t2.5 -41h-73l2 -208h75q-4 -16 -4.5 -41t2.5 -41h-73q0 -40 0.5 -65.5t0.5 -41.5t0.5 -24t0.5 -14q-5 1 -11 2t-11 1t-10 -1l-10 -2l2 12t1.5 20.5t0.5 41v71.5h-114q0 -40 0.5 -65.5t0.5 -41.5t0.5 -24t0.5 -14q-5 1 -11 2t-11 1t-10 -1l-10 -2l2 12
t1.5 20.5t0.5 41v71.5h-74q5 16 5 40.5t-3 41.5h73zM277 432h-115l2 -208h115z" />
    <glyph glyph-name="dollar" unicode="$" horiz-adv-x="442" 
d="M304 27q47 11 66 49.5t8 87.5q-3 16 -9.5 31.5t-20.5 31t-38 31t-62 32.5zM138 633q-42 -7 -62 -38.5t-10 -77.5q10 -47 40.5 -76.5t82.5 -47.5zM208 304q-48 17 -84.5 34.5t-63 39t-42.5 49t-23 63.5q-16 73 20.5 121.5t115.5 58.5q-5 20 -10.5 40.5t-14.5 37.5l14 -3.5
t13 -1.5q12 0 25 5q-1 -18 2 -37.5t7 -38.5q33 0 58 -4.5t44.5 -11.5t34 -15t26.5 -15q-5 -17 -7.5 -35t-2.5 -45h-12q-8 13 -19 28t-27.5 28t-38 22.5t-48.5 10.5l54 -256q47 -17 84 -33.5t65 -37t45.5 -46.5t25.5 -62q8 -37 3 -71.5t-22.5 -62.5t-47 -48t-70.5 -28
q6 -29 13 -56.5t18 -55.5l-14 3.5t-13 1.5q-12 0 -25 -5q-1 23 -5 51t-10 56q-9 -1 -14.5 -1h-12.5q-47 0 -90 13t-86 42q5 22 4 40t-3 45h12q24 -32 48 -52t47.5 -31.5t45.5 -15.5t42 -4z" />
    <glyph glyph-name="percent" unicode="%" horiz-adv-x="851" 
d="M-14 506q-8 36 -3 66t21 52.5t43 35t63 12.5t68.5 -12.5t58.5 -35t44 -52.5t26 -66q7 -36 2 -66t-21.5 -52.5t-43.5 -35t-63 -12.5t-68.5 12.5t-58 35t-43.5 52.5t-25 66zM59 506q6 -28 16.5 -53.5t25.5 -45t33.5 -31.5t41.5 -12q22 0 36 12t20.5 31.5t6.5 45t-6 53.5
t-17 53.5t-26 45t-34 31.5t-41 12q-23 0 -36.5 -12t-20 -31.5t-6 -45t6.5 -53.5zM543 150q-8 36 -2.5 66t22 52.5t43.5 35t63 12.5t68.5 -12.5t58.5 -35t43.5 -52.5t25.5 -66t3 -66t-21.5 -52.5t-43.5 -35t-63 -12.5t-68.5 12.5t-58.5 35t-44 52.5t-26 66zM617 150
q6 -28 16.5 -53.5t25.5 -45t34 -31.5t42 -12q22 0 36 12t20.5 31.5t6 45t-6.5 53.5t-16.5 53.5t-25.5 45t-34 31.5t-41 12q-23 0 -36.5 -12t-20 -31.5t-6.5 -45t6 -53.5zM508 695q15 -5 26 -5q9 0 21 5l-216 -734q-15 5 -25 5t-22 -5z" />
    <glyph glyph-name="ampersand" unicode="&#x26;" horiz-adv-x="641" 
d="M325 561q-8 36 -34.5 59.5t-63.5 23.5q-39 0 -56 -27t-9 -67q3 -15 11.5 -33t21 -37t28.5 -38t33 -36q45 32 61 74.5t8 80.5zM98 522q-7 31 -1.5 58.5t22 48t42 32t59.5 11.5q58 0 101.5 -28.5t55.5 -83.5q6 -29 -1.5 -54.5t-23 -48t-36 -41t-39.5 -31.5l113.5 -113.5
t109.5 -104.5q25 50 44 97.5t32 100.5q9 -13 21.5 -22.5t25.5 -17.5q-20 -48 -42.5 -93t-53.5 -93l159 -144q-16 2 -32.5 3.5t-32.5 1.5q-14 0 -28 -1.5t-28 -3.5q-11 14 -32.5 36.5t-48.5 48.5q-17 -22 -36.5 -40t-42.5 -31t-51.5 -20t-64.5 -7q-39 0 -75.5 11t-67.5 32
t-53 52.5t-31 73.5q-7 33 0 64.5t25.5 59.5t47 51.5t63.5 39.5q-38 42 -65 80t-35 76zM140 169q6 -27 22 -52.5t40 -45t53.5 -31t61.5 -11.5q51 0 83 18.5t60 53.5q-63 60 -122 119t-118 122q-24 -17 -42 -34t-28.5 -37.5t-13.5 -45.5t4 -56z" />
    <glyph glyph-name="quotesingle" unicode="'" horiz-adv-x="144" 
d="M12 698h52l61 -288h-52z" />
    <glyph glyph-name="parenleft" unicode="(" horiz-adv-x="215" 
d="M109 680q-27 -48 -40.5 -95t-16.5 -95.5t3.5 -100t18.5 -108.5t27.5 -108.5t39 -100t56.5 -95.5t81 -95l-16 -18q-98 86 -162 194t-88 223q-12 55 -13.5 111t7.5 109.5t28.5 103.5t50.5 93z" />
    <glyph glyph-name="parenright" unicode=")" horiz-adv-x="215" 
d="M104 -118q27 48 40.5 95t16.5 95.5t-3 100t-18 108.5t-28 108.5t-39 100t-56.5 95.5t-80.5 95l16 18q97 -86 161 -194t89 -223q12 -55 13 -111t-8 -109.5t-28.5 -103.5t-50.5 -93z" />
    <glyph glyph-name="asterisk" unicode="*" horiz-adv-x="366" 
d="M115 684q13 -4 30 -4t28 4l17 -155l106 92q5 -16 16 -30t25 -22l-129 -64l155 -66q-8 -8 -14 -21t-4 -29l-145 88l50 -152q-8 2 -14.5 3t-15.5 1t-15.5 -1t-12.5 -3l-19 152l-103 -89q-6 17 -17 30t-23 21l127 65l-157 65q7 8 13.5 22.5t3.5 29.5l145 -92z" />
    <glyph glyph-name="plus" unicode="+" horiz-adv-x="512" 
d="M-2 279h226l-48 227h52l48 -227h227l11 -52h-227l48 -227h-52l-48 227h-227z" />
    <glyph glyph-name="comma" unicode="," 
d="M66 75q1 13 8.5 25.5t27.5 12.5q12 0 26 -8t18 -26q3 -12 0 -22l-6 -20l-80 -212l-19 7z" />
    <glyph glyph-name="hyphen" unicode="-" horiz-adv-x="336" 
d="M36 262h249l13 -62h-249z" />
    <glyph glyph-name="period" unicode="." 
d="M30 45q-5 23 8 40t36 17t44 -17t26 -40t-8.5 -40t-36.5 -17t-43.5 17t-25.5 40z" />
    <glyph glyph-name="slash" unicode="/" horiz-adv-x="334" 
d="M201 703l14 -3.5t13 -1.5q12 0 25 5l-121 -726l-14 3.5t-13 1.5q-12 0 -25 -5z" />
    <glyph glyph-name="zero" unicode="0" horiz-adv-x="534" 
d="M115 328q14 -66 33.5 -123t46.5 -99t61 -66t77 -24t67 24t33 66t4.5 99t-18.5 123t-34 123t-47 99t-61 66t-77 24t-67.5 -22t-33.5 -63t-4 -98.5t20 -128.5zM33 328q-15 70 -16 133t16 109.5t56 74t104 27.5q72 0 123.5 -27.5t87.5 -74t59 -109.5t38 -133
q14 -68 13.5 -130.5t-19 -110t-56.5 -75.5t-99 -28q-72 0 -123.5 27.5t-87.5 74t-58.5 109t-37.5 133.5z" />
    <glyph glyph-name="one" unicode="1" horiz-adv-x="278" 
d="M92 608l-104 -66q-7 9 -17 17.5t-20 14.5l-2 7q52 23 105.5 50.5t99.5 53.5l8 -5q11 -66 22.5 -130.5t25.5 -130.5l35 -167q14 -65 30 -129t33 -128q-13 2 -24.5 3.5t-23.5 1.5t-23.5 -1.5t-22.5 -3.5q-9 65 -21 128.5t-26 128.5z" />
    <glyph glyph-name="two" unicode="2" horiz-adv-x="480" 
d="M16 573q21 51 60 75t102 24q39 0 76 -10t67.5 -32t52.5 -55.5t32 -79.5q7 -34 5.5 -63.5t-11.5 -57.5t-27.5 -56.5t-41.5 -60.5q-15 -19 -34.5 -44t-39.5 -51.5t-38 -52.5t-29 -48h95q72 0 127 2.5t97 5.5q-1 -17 2 -37q2 -9 5.5 -18.5t7.5 -18.5q-54 2 -107.5 3.5
t-107.5 1.5t-107 -1.5t-107 -3.5l-3 15q83 103 132 172t73 120t26.5 94t-8.5 94q-16 75 -57 110t-86 35q-32 0 -52.5 -11.5t-32 -28t-15.5 -35.5t-4 -34l-6 -2z" />
    <glyph glyph-name="three" unicode="3" horiz-adv-x="459" 
d="M1 612q8 10 19.5 20.5t27.5 19.5t37 14.5t49 5.5q39 0 76 -9t67 -27t51 -46t29 -67q8 -36 1 -64.5t-22.5 -49t-36.5 -33.5t-42 -19l2 -6q25 -2 56 -9.5t59.5 -25t51.5 -46.5t33 -74q9 -45 -1 -84t-37.5 -67.5t-71 -44.5t-100.5 -16q-52 0 -90.5 11t-68.5 24q2 8 2 26.5
t-3 33.5l6 4q11 -11 27 -22.5t35 -21.5t41 -16.5t46 -6.5q75 0 108 46.5t17 120.5q-9 41 -25 69.5t-38.5 46t-50 25.5t-58.5 8q-11 0 -23.5 -2t-20.5 -4q-1 5 -1 10.5t-2 10.5q-1 5 -2.5 10.5t-3.5 10.5q11 -2 22.5 -3t23.5 -1q35 0 54 14.5t26.5 37t6 49.5t-6.5 52
q-7 32 -21 55.5t-32.5 38.5t-39 22t-40.5 7q-41 0 -66 -24.5t-29 -55.5l-6 -2z" />
    <glyph glyph-name="four" unicode="4" horiz-adv-x="508" 
d="M31 197l64.5 129t64 130t56.5 117.5t42 92.5q20 -5 35 -5q16 0 31 5q7 -44 17 -96t21 -108t23 -113.5t23 -110.5q29 0 54 2.5t42 5.5v-16.5t2 -16.5q4 -17 12 -33q-17 3 -43.5 4.5t-55.5 1.5l9 -42q8 -39 19 -80.5t19 -68.5q-12 2 -23 3.5t-22 1.5q-20 0 -43 -5
q-4 29 -10 70t-14 79l-9 42q-15 0 -40 -0.5t-55 -1t-62 -1.5t-61.5 -1.5t-53.5 -1.5t-38 -1zM263 574h-2q-15 -29 -37.5 -74.5t-46 -94t-44.5 -94t-32 -73.5h233z" />
    <glyph glyph-name="five" unicode="5" horiz-adv-x="461" 
d="M121 374q18 11 39.5 18.5t66.5 7.5q44 0 82.5 -15t69.5 -41t51.5 -60t28.5 -72q10 -47 0.5 -88.5t-35.5 -72.5t-68 -49t-97 -18q-45 0 -88.5 9t-80.5 31l-2 8q3 13 3.5 29.5t-0.5 28.5h7q13 -18 32 -32t40 -23.5t43.5 -14t42.5 -4.5q30 0 55 11t41.5 34t21.5 58t-5 82
q-9 42 -27 72t-41.5 49t-50.5 27.5t-54 8.5q-41 0 -65 -13.5t-31 -19.5l-12 7q-2 39 -9.5 82.5t-16.5 86.5q-9 42 -20.5 86.5t-22.5 78.5l7 6q8 -2 22 -3t36 -3q43 -3 122 -3q47 0 84.5 0.5t55.5 1.5l6 -4q-2 -13 0 -27.5t5 -28.5q2 -11 4 -17q-23 4 -60 6.5t-77 4t-77.5 2
t-60.5 0.5z" />
    <glyph glyph-name="six" unicode="6" horiz-adv-x="491" 
d="M318 637l-4 -4q-11 3 -23.5 5t-29.5 2q-39 0 -66.5 -16.5t-45.5 -44t-27.5 -63t-12.5 -73.5t-0.5 -75t9.5 -67h2q6 17 16 34t26.5 31t40.5 23t57 9q26 0 62 -8t70.5 -29t63.5 -57.5t41 -93.5q10 -50 3.5 -91.5t-29 -71.5t-60 -46.5t-88.5 -16.5q-43 0 -86 15.5t-81 50
t-68 89t-46 133.5q-18 83 -14 156.5t30 128t75 85.5t121 30q17 0 25.5 -0.5t16.5 -2.5zM413 189q-16 76 -57 124t-106 48q-29 0 -52 -12.5t-37 -35.5t-18 -54.5t4 -69.5t25 -70t39.5 -55t49.5 -35.5t56 -12.5q63 0 88 48t8 125z" />
    <glyph glyph-name="seven" unicode="7" horiz-adv-x="464" 
d="M394 641q-57 -153 -114.5 -318.5t-105.5 -327.5q-10 2 -19 3.5t-20 1.5q-17 0 -35 -5q31 75 64 160t64 165.5t57 150.5t43 116q-45 0 -133 -1t-213 -9q-1 11 -2.5 22.5t-3.5 22.5t-5.5 22t-7.5 22q41 -3 74.5 -5t61.5 -3q15 0 39 -0.5t50.5 -1t52.5 -0.5h47q31 0 54 0.5
t49 0.5z" />
    <glyph glyph-name="eight" unicode="8" horiz-adv-x="505" 
d="M60 179q-13 61 10 112t95 77l-1 7q-20 4 -42 15.5t-41.5 29t-35 41t-21.5 52.5q-7 31 0.5 60t27 51t51.5 35t75 13q49 0 88 -12.5t66.5 -32.5t45 -47t23.5 -55q5 -23 2.5 -46t-12.5 -42.5t-28 -34.5t-43 -24l1 -7q18 -3 44.5 -12.5t53.5 -29t49.5 -50.5t32.5 -77
q10 -50 1.5 -90t-32.5 -68.5t-61.5 -44t-83.5 -15.5q-47 0 -90.5 13t-79 38t-60.5 61t-35 83zM321 512q-5 26 -16 49t-28 40.5t-40 28t-51 10.5t-46 -10.5t-27.5 -28t-10.5 -40.5t4 -49q6 -26 17 -49t28 -40.5t39.5 -28t50.5 -10.5t46.5 10.5t27.5 28t10.5 40.5t-4.5 49z
M417 184q-8 37 -24 67.5t-38.5 53t-50 35t-58.5 12.5t-53.5 -12.5t-35 -35t-15.5 -53t5 -67.5t24 -67.5t38.5 -53t50 -35t58.5 -12.5t53.5 12.5t35 35t15.5 53t-5 67.5z" />
    <glyph glyph-name="nine" unicode="9" horiz-adv-x="498" 
d="M137 57q25 -19 52.5 -30t55.5 -11q54 0 86 30t46 78.5t12.5 108.5t-14.5 120h-2q-14 -42 -48 -68t-94 -26q-90 0 -152.5 52t-82.5 147q-10 46 -2.5 85t30 67.5t59.5 45t88 16.5q45 0 88.5 -15.5t82 -50t68.5 -89t47 -133.5q18 -83 13.5 -156t-31 -127t-74.5 -85.5
t-118 -31.5q-26 0 -48 4.5t-34 9.5q-6 13 -15 29t-17 27zM343 484q-7 34 -22.5 63t-37.5 49.5t-49 32t-57 11.5q-59 0 -85.5 -49t-8.5 -133q18 -86 59 -124t98 -38q34 0 57.5 16t36.5 42t15 60t-6 70z" />
    <glyph glyph-name="colon" unicode=":" horiz-adv-x="185" 
d="M-4 411q-5 23 7.5 40t35.5 17t44 -17t26 -40t-8.5 -40t-36.5 -17t-43.5 17t-24.5 40zM72 45q-5 23 8.5 40t36.5 17t43.5 -17t25.5 -40t-8 -40t-36 -17t-44 17t-26 40z" />
    <glyph glyph-name="semicolon" unicode=";" horiz-adv-x="192" 
d="M108 75q1 13 8.5 25.5t27.5 12.5q12 0 26 -8t18 -26q2 -12 -0.5 -22t-5.5 -20l-80 -212l-20 7zM11 411q-5 23 8.5 40t36.5 17t43.5 -17t25.5 -40t-8.5 -40t-36.5 -17t-43.5 17t-25.5 40z" />
    <glyph glyph-name="less" unicode="&#x3c;" horiz-adv-x="549" 
d="M-3 280l455 236l11 -52l-414 -211l503 -211l11 -52l-556 238z" />
    <glyph glyph-name="equal" unicode="=" horiz-adv-x="559" 
d="M533 324h-506l-11 52h506zM575 130h-506l-11 52h506z" />
    <glyph glyph-name="greater" unicode="&#x3e;" horiz-adv-x="548" 
d="M84 42l415 211l-503 211l-11 52l555 -238l11 -52l-456 -236z" />
    <glyph glyph-name="question" unicode="?" horiz-adv-x="286" 
d="M-48 665q17 12 38.5 22.5t56.5 10.5q36 0 66 -10.5t52.5 -28.5t37 -42t20.5 -51q7 -35 0.5 -64.5t-21 -54.5t-33 -47.5t-33.5 -44.5t-23.5 -45t-2.5 -49q4 -20 21 -39.5t43 -19.5q12 0 20.5 3.5t12.5 5.5l6 -4q-2 -5 -4.5 -13t-1.5 -15q-12 -5 -34 -5q-12 0 -31.5 6
t-39.5 19t-36.5 34t-22.5 52q-7 33 0 60.5t21 51t32 44.5t32.5 42.5t22 45t1.5 50.5q-4 19 -15 34.5t-25 26t-30.5 16t-32.5 5.5q-27 0 -47.5 -13t-32.5 -33zM128 45q-5 23 8.5 40t36.5 17t43.5 -17t25.5 -40t-8.5 -40t-36.5 -17t-43.5 17t-25.5 40z" />
    <glyph glyph-name="at" unicode="@" horiz-adv-x="685" 
d="M410 522h52q0 -93 0.5 -147t1.5 -82.5t1.5 -39t2.5 -17.5q3 -17 14 -26t26 -9q20 0 39.5 14.5t33.5 40.5t19.5 61.5t-3.5 76.5q-11 49 -31 90.5t-54 71.5t-83.5 47t-118.5 17q-60 0 -106 -24.5t-74 -67t-36.5 -100t5.5 -123.5q13 -60 41 -105t68 -75t89 -45t103 -15
q36 0 67.5 7.5t57.5 19.5t47.5 26.5t37.5 28.5l3 -32q-10 -12 -29.5 -27t-48 -28.5t-66.5 -22.5t-85 -9q-49 0 -104 18.5t-105 57t-89 96.5t-56 138q-12 59 0 115.5t47 100.5t93 71t137 27q82 0 140.5 -20.5t98.5 -54t62.5 -76.5t31.5 -87q11 -54 2.5 -98.5t-29.5 -76
t-51.5 -49t-62.5 -17.5q-42 0 -57.5 19.5t-22.5 52.5h-2q-12 -26 -35 -49t-60 -23q-53 0 -87.5 33.5t-48.5 100.5q-11 49 -5.5 90.5t23.5 71.5t47 46.5t66 16.5q31 0 56.5 -15t35.5 -49h2zM400 425q-7 32 -23 53.5t-54 21.5q-29 0 -46.5 -19.5t-26 -48.5t-8.5 -64t6 -65
q10 -46 27.5 -69.5t53.5 -23.5q29 0 46 23.5t24.5 57.5t7 71t-6.5 63z" />
    <glyph glyph-name="A" unicode="A" horiz-adv-x="662" 
d="M271 698q37 -58 79 -125t86 -136.5t86.5 -137t80.5 -126.5t68.5 -105t49.5 -73q-14 2 -27 3.5t-27 1.5t-26.5 -1.5t-25.5 -3.5q-13 26 -31.5 58.5t-40.5 68t-44.5 72t-43.5 69.5q-32 1 -65 1.5t-66 0.5q-31 0 -61 -0.5t-61 -1.5q-15 -78 -26 -149t-14 -119q-11 2 -20 3.5
t-18 1.5q-16 0 -36 -5q43 177 84 351t80 352h19zM266 563l-55 -254q26 0 54.5 -1t54.5 -1q28 0 56 0.5t55 1.5z" />
    <glyph glyph-name="B" unicode="B" horiz-adv-x="520" 
d="M31 427q-14 65 -29.5 129.5t-32.5 128.5q26 -2 53 -3.5t53 -1.5t52.5 2.5t52.5 2.5q43 0 82.5 -6.5t72 -23t55.5 -44.5t32 -70q8 -37 2 -65.5t-24 -50.5t-45.5 -36.5t-63.5 -22.5v-2q91 -5 150.5 -43.5t77.5 -124.5q12 -56 -3 -94t-46.5 -62t-74.5 -34.5t-86 -10.5
q-24 0 -49 2.5t-49 2.5t-48.5 -1.5t-47.5 -3.5q-11 66 -22 130.5t-25 129.5zM177 378q35 0 68 7t56.5 23.5t34.5 44t2 69.5q-9 40 -29 65t-46 38.5t-56.5 18t-58.5 4.5q-26 0 -43.5 -1.5t-31.5 -3.5q8 -48 16 -95t18 -95l16 -75h54zM153 239q11 -51 24 -101t25 -101
q20 -2 46 -3.5t53 -1.5q32 0 59 11t44.5 32.5t24 52.5t-2.5 72q-9 43 -30.5 70t-53.5 43t-74 22t-92 6h-45z" />
    <glyph glyph-name="C" unicode="C" horiz-adv-x="655" 
d="M664 39q-8 -8 -25 -17.5t-42.5 -18.5t-58 -15t-69.5 -6q-79 0 -151 24t-130.5 70t-100 112.5t-59.5 151.5t-5 151.5t53 112.5t103.5 70t146.5 24q65 0 123.5 -13.5t103.5 -32.5q-5 -14 -5 -38t1 -40l-6 -2q-13 12 -34 27t-48 29t-59.5 23.5t-67.5 9.5q-59 0 -105.5 -19
t-75.5 -58.5t-37 -100t10 -143.5t52 -143.5t79.5 -100t100 -58.5t113.5 -19q36 0 64.5 9t51.5 21.5t40 27t29 25.5l5 -4z" />
    <glyph glyph-name="D" unicode="D" horiz-adv-x="706" 
d="M151 254q11 -54 24 -107t27 -105q22 -5 58.5 -7.5t74.5 -2.5q55 0 107 13t88.5 49t50.5 98.5t-7 161.5q-19 87 -52 143t-78 88.5t-100 45t-116 12.5q-45 0 -83.5 -3t-68.5 -7q15 -98 38 -207zM32 426q-14 65 -29.5 129.5t-32.5 129.5q38 -2 75.5 -3.5t75.5 -1.5t75 2.5
t75 2.5q88 0 155.5 -23t116.5 -65.5t80.5 -104t48.5 -138.5q21 -100 1 -168.5t-64.5 -111t-105 -61t-119.5 -18.5q-34 0 -67.5 2.5t-67.5 2.5t-67 -1.5t-66 -3.5q-11 65 -22 129.5t-25 129.5z" />
    <glyph glyph-name="E" unicode="E" horiz-adv-x="416" 
d="M31 427q-14 65 -29.5 129.5t-32.5 128.5q45 -2 89.5 -3.5t89.5 -1.5t89 1.5t88 3.5q0 -17 4 -30q3 -15 9 -30q-32 2 -59 4.5t-57 4.5t-65.5 3t-84.5 1q6 -32 10.5 -61t12.5 -66q8 -39 16.5 -76t12.5 -56q44 0 79 1t64 2.5t52.5 3t45.5 3.5q0 -8 1 -15.5t3 -15.5
q3 -15 9 -30q-26 3 -61 4.5t-70 2.5t-65.5 1.5t-48.5 0.5q1 -9 3.5 -19.5t5.5 -26t8 -39.5t13 -60q12 -57 20.5 -94t13.5 -56q33 0 70.5 0.5t73.5 1.5t68 3.5t55 7.5q0 -7 1 -15.5t3 -15.5t4 -14.5t5 -14.5q-45 2 -90 3.5t-91 1.5t-91 -1.5t-90 -3.5q-11 66 -22 130.5
t-25 129.5z" />
    <glyph glyph-name="F" unicode="F" horiz-adv-x="413" 
d="M31 426q-14 65 -29.5 129.5t-32.5 129.5q45 -2 89.5 -3.5t89.5 -1.5t90.5 1.5t99.5 3.5q0 -17 4 -30q3 -15 9 -30q-28 3 -66.5 5t-78 4t-76.5 3t-61 1q7 -35 13 -67t13 -64q8 -35 14.5 -64.5t13.5 -61.5q65 0 129.5 2t126.5 8v-15t2 -15t4.5 -15t5.5 -15q-26 3 -57.5 4.5
t-65.5 2t-69 1t-67 0.5l18 -85q14 -65 30 -129.5t33 -129.5q-14 2 -26 3.5t-24 1.5t-24 -1.5t-24 -3.5q-11 65 -22 129.5t-25 129.5z" />
    <glyph glyph-name="G" unicode="G" horiz-adv-x="713" 
d="M592 563q-19 18 -45 36t-57 31.5t-66 22t-73 8.5q-62 0 -111.5 -19t-80.5 -58.5t-40.5 -100t8.5 -143.5q15 -74 47.5 -132.5t79.5 -99t107 -62.5t131 -22q43 0 86.5 8t66.5 24q-6 30 -11.5 60t-12.5 61q-8 35 -17 70t-17 67q23 -5 49 -5q11 0 22 1t20 4q3 -23 12.5 -72.5
t26.5 -130.5q5 -20 9.5 -40.5t8.5 -40.5q-20 -8 -49.5 -16t-63 -15.5t-68 -12t-63.5 -4.5q-89 0 -165.5 23t-136.5 68t-101 112t-59 155q-18 85 -4.5 151.5t54.5 112.5t108 70t156 24q51 0 91.5 -5.5t73 -14t58 -19t45.5 -19.5q-5 -14 -7 -36t0 -41h-12z" />
    <glyph glyph-name="H" unicode="H" horiz-adv-x="683" 
d="M531 426q-14 65 -30 129.5t-33 129.5q14 -2 26 -3.5t24 -1.5t24 1.5t24 3.5q11 -65 22 -129.5t25 -129.5l37 -172q14 -65 30 -129.5t33 -129.5q-14 2 -26 3.5t-24 1.5t-24 -1.5t-24 -3.5q-11 65 -22 129.5t-25 129.5l-19 90q-54 1 -105.5 1.5t-104.5 0.5t-104.5 -0.5
t-103.5 -1.5l19 -90q14 -65 30 -129.5t33 -129.5q-14 2 -26 3.5t-24 1.5t-24 -1.5t-24 -3.5q-11 65 -22 129.5t-25 129.5l-37 172q-14 65 -29.5 129.5t-32.5 129.5q14 -2 25.5 -3.5t23.5 -1.5t24 1.5t24 3.5q11 -65 22 -129.5t25 -129.5l8 -35q53 -1 104.5 -2t104.5 -1
t104.5 1t104.5 2z" />
    <glyph glyph-name="I" unicode="I" horiz-adv-x="181" 
d="M29 426q-14 65 -29.5 129.5t-32.5 129.5q14 -2 25.5 -3.5t23.5 -1.5t24 1.5t24 3.5q11 -65 22 -129.5t25 -129.5l37 -172q14 -65 30 -129.5t33 -129.5q-14 2 -26 3.5t-24 1.5t-24 -1.5t-24 -3.5q-11 65 -22 129.5t-25 129.5z" />
    <glyph glyph-name="J" unicode="J" horiz-adv-x="286" 
d="M127 -248q44 0 65 19.5t26.5 54.5t-1.5 84.5t-19 108.5l-82 407q-14 65 -30 129.5t-33 129.5q14 -2 26 -3.5t24 -1.5t24 1.5t24 3.5q11 -65 22 -129.5t25 -129.5q7 -30 15.5 -71t18 -87.5t19.5 -94.5t19.5 -92.5t17 -81.5t12.5 -61q9 -45 3 -84t-27 -68t-55 -45.5
t-80 -16.5z" />
    <glyph glyph-name="K" unicode="K" horiz-adv-x="581" 
d="M115 -5q-11 65 -22 129.5t-25 129.5l-37 172q-14 65 -29.5 129.5t-32.5 129.5q14 -2 25.5 -3.5t23.5 -1.5t24 1.5t24 3.5q11 -65 22 -129.5t25 -129.5l12 -55q1 -8 8 -8q3 0 5 2l7 7q28 30 58 68t60.5 79t59.5 83.5t56 82.5q23 -5 42 -5q22 0 47 5q-28 -30 -63.5 -71
t-71 -84t-67 -84.5t-52.5 -72.5q100 -91 203 -186t209 -192q-16 2 -31 3.5t-30 1.5q-26 0 -54 -5q-45 44 -100 97t-106.5 102.5t-94 89t-61.5 55.5q-11 8 -14 8q-4 0 -4 -6l19 -87q14 -65 30 -129.5t33 -129.5q-14 2 -26 3.5t-24 1.5t-24 -1.5t-24 -3.5z" />
    <glyph glyph-name="L" unicode="L" horiz-adv-x="411" 
d="M31 426q-14 65 -29.5 129.5t-32.5 129.5q14 -2 25.5 -3.5t23.5 -1.5t24 1.5t24 3.5q11 -65 22 -129.5t25 -129.5q27 -126 47.5 -218.5t37.5 -165.5q71 0 135.5 1.5t137.5 11.5q-2 -17 1 -30q4 -15 12 -30q-47 2 -93 3.5t-92 1.5q-47 0 -92.5 -1.5t-91.5 -3.5
q-11 65 -22 129.5t-25 129.5z" />
    <glyph glyph-name="M" unicode="M" horiz-adv-x="863" 
d="M73 698q98 -141 197.5 -276t206.5 -275q6 19 17.5 55t26.5 81.5t32.5 99t35.5 108t35.5 108t32.5 99.5h13q31 -96 60 -185.5t56.5 -176t56 -171t58.5 -170.5q-13 2 -24.5 3.5t-23.5 1.5t-23.5 -1.5t-22.5 -3.5q-39 135 -77 261t-82 255h-2q-42 -126 -82 -250.5
t-71 -260.5h-9q-85 125 -178.5 252.5t-187.5 258.5h-2q6 -62 13.5 -134.5t15.5 -143t16 -133.5t17 -105q-10 2 -18.5 3.5t-17.5 1.5q-16 0 -34 -5q-5 83 -10 173.5t-11.5 181.5t-14 179.5t-16.5 168.5h17z" />
    <glyph glyph-name="N" unicode="N" horiz-adv-x="677" 
d="M686 -18q-143 135 -304 275.5t-319 277.5q5 -28 14 -75.5t26 -127.5q5 -21 11.5 -52t14.5 -65t16 -69t15.5 -65t13.5 -53t10 -33q-20 5 -36 5t-36 -5q-1 12 -4.5 39.5t-9 65t-12.5 81.5t-15 88t-16 86t-15 75q-20 95 -34.5 164.5t-24.5 103.5h16q75 -66 160.5 -141.5
t169 -149t159 -139t131.5 -111.5q-14 67 -29 136.5t-30 137t-30.5 132t-30.5 122.5q20 -5 35 -5q14 0 31 5q3 -22 9.5 -66t14.5 -94t16.5 -98t14.5 -77q5 -25 12.5 -59.5t16 -71.5t16.5 -74.5t15.5 -70t13 -57t8.5 -35.5h-14z" />
    <glyph glyph-name="O" unicode="O" horiz-adv-x="811" 
d="M682 340q-18 83 -52 143.5t-80 100t-100.5 58.5t-113.5 19t-105 -19t-75 -58.5t-37 -100t10 -143.5t52 -143.5t79.5 -100t99.5 -58.5t113 -19t105.5 19t75.5 58.5t37.5 100t-9.5 143.5zM31 340q-18 85 -5 151.5t53 112.5t103 70t146 24t157 -24t133.5 -70t101.5 -112.5
t60 -151.5t4.5 -151.5t-53 -112.5t-103.5 -70t-147 -24t-156.5 24t-133 70t-101 112.5t-59.5 151.5z" />
    <glyph glyph-name="P" unicode="P" horiz-adv-x="489" 
d="M31 426q-14 65 -29.5 129.5t-32.5 129.5q24 -2 48.5 -3.5t48.5 -1.5q12 0 29 1t34 1.5t33 1.5t27 1q15 0 37.5 -1t47.5 -6t51.5 -15t50 -29t41.5 -47.5t27 -70.5q14 -66 -5.5 -107t-56 -64t-81.5 -31t-81 -8q-23 0 -42.5 0.5t-39.5 2.5l12 -55q14 -65 30 -129.5
t33 -129.5q-14 2 -26 3.5t-24 1.5t-24 -1.5t-24 -3.5q-11 65 -22 129.5t-25 129.5zM129 351q17 -4 36.5 -6t36.5 -2q31 0 62.5 7t54.5 25.5t34 51t0 83.5q-9 43 -26.5 70t-42.5 42t-57 20.5t-71 5.5h-90z" />
    <glyph glyph-name="Q" unicode="Q" horiz-adv-x="830" 
d="M636 340q-18 83 -52 143.5t-79.5 100t-100 58.5t-113.5 19t-105 -19t-75 -58.5t-37.5 -100t9.5 -143.5t52 -143.5t79.5 -100t99.5 -58.5t113 -19t105.5 19t75.5 58.5t37.5 100t-9.5 143.5zM-14 340q-18 85 -5 151.5t53 112.5t103 70t146 24t157 -24t133.5 -70t101 -112.5
t59.5 -151.5q15 -70 8.5 -127.5t-32 -101.5t-68 -73.5t-99.5 -43.5q31 -21 77.5 -52t96 -63t97 -63t82.5 -52q-26 -2 -45 -15t-24 -26q-33 25 -80 59.5t-98 70.5t-100 70t-85 60q-8 -1 -14.5 -1h-14.5q-83 0 -156.5 24t-133 70t-100.5 112.5t-59 151.5z" />
    <glyph glyph-name="R" unicode="R" horiz-adv-x="571" 
d="M125 369q14 -3 31 -4t37 -1q31 0 63 7t56.5 24.5t36.5 47t3 74.5q-8 39 -28 64.5t-46 40.5t-55 20.5t-54 5.5q-35 0 -57.5 -1.5t-38.5 -3.5q10 -55 19.5 -109t20.5 -108zM31 426q-14 65 -29.5 129.5t-32.5 129.5q29 -2 57 -3.5t57 -1.5t56.5 2.5t56.5 2.5q42 0 81.5 -8
t72 -26.5t55.5 -48.5t33 -75q10 -48 -4 -82.5t-40.5 -57.5t-59.5 -35t-61 -16l42 -42l59.5 -59.5t68 -67.5t69 -68t62 -60.5t46.5 -43.5q-16 2 -31 3.5t-30 1.5q-14 0 -28.5 -1.5t-28.5 -3.5q-20 23 -59 65.5t-86.5 91t-96.5 95.5t-88 80h-38l16 -73q14 -65 30 -129.5
t33 -129.5q-14 2 -26 3.5t-24 1.5t-24 -1.5t-24 -3.5q-11 65 -22 129.5t-25 129.5z" />
    <glyph glyph-name="S" unicode="S" horiz-adv-x="469" 
d="M106 128q12 -18 29.5 -36.5t40 -33.5t50.5 -24.5t60 -9.5q33 0 57 11.5t38.5 31t18.5 46t-2 56.5q-10 46 -39 73t-67.5 45t-82.5 33t-84 37.5t-71 57.5t-43 94q-9 42 -1 76.5t30.5 59.5t59.5 39t87 14q48 0 85.5 -11.5t72.5 -35.5q-5 -17 -7 -36t-2 -48h-12
q-8 14 -20.5 30.5t-29.5 30.5t-39 23.5t-50 9.5q-57 0 -85.5 -34.5t-16.5 -89.5q10 -47 39 -74t68 -45.5t82.5 -33t83 -35.5t70 -54t42.5 -88q10 -46 2 -87t-33 -71.5t-66.5 -48.5t-99.5 -18q-63 0 -105 18t-73 39q5 23 4.5 41.5t-3.5 47.5h12z" />
    <glyph glyph-name="T" unicode="T" horiz-adv-x="536" 
d="M208 426q-11 52 -22.5 103.5t-24.5 103.5q-26 0 -54.5 -0.5t-56.5 -2t-53.5 -3.5t-45.5 -5v16t-2 16q-3 14 -12 31q65 -2 129 -3.5t129 -1.5t129 1.5t128 3.5v-16t2 -16q3 -17 12 -31q-22 3 -49 5t-55.5 3.5t-57.5 2t-55 0.5q10 -52 20 -103.5t21 -103.5l37 -172
q14 -65 30 -129.5t33 -129.5q-14 2 -26 3.5t-24 1.5t-24 -1.5t-24 -3.5q-11 65 -22 129.5t-25 129.5z" />
    <glyph glyph-name="U" unicode="U" horiz-adv-x="664" 
d="M558 360q-31 142 -48 219t-27 106q22 -5 42 -5q14 0 29 5q4 -35 11.5 -83.5t17 -104t20 -114t21.5 -113.5q13 -66 5 -119.5t-36.5 -91t-77 -57.5t-115.5 -20q-149 0 -232 70t-115 216q-10 47 -15 83.5t-13 74.5q-18 83 -33.5 149t-26.5 110q12 -2 26 -3.5t26 -1.5
q20 0 42 5q2 -22 7.5 -57.5t13.5 -80.5t18 -97.5t22 -107.5q10 -51 25.5 -106.5t46 -101t82 -75.5t135.5 -30q55 0 89 16t53 42t25 60t4 71t-8.5 73.5t-13.5 68.5z" />
    <glyph glyph-name="V" unicode="V" horiz-adv-x="664" 
d="M368 -5q-36 62 -86.5 145t-107.5 175.5t-117 188t-114 181.5q14 -2 27 -3.5t26 -1.5q12 0 25 1.5t25 3.5q36 -66 78 -138.5t87.5 -147.5t93 -152t95.5 -153q9 41 19.5 91t20.5 105t19.5 111t17.5 108.5t14 97.5t10 78q22 -5 38 -5q18 0 36 5q-83 -345 -141 -690
q-20 5 -34 5q-19 0 -32 -5z" />
    <glyph glyph-name="W" unicode="W" horiz-adv-x="1028" 
d="M317 -5q-14 27 -42 81.5t-63 122.5t-74 142.5t-74.5 142t-64.5 121t-44 80.5q14 -2 26 -3.5t24 -1.5q13 0 25 1.5t24 3.5q35 -76 67.5 -142.5t67 -135t74.5 -144t90 -170.5h2q3 27 9 74.5t13 105t14.5 119.5t13.5 118.5t10 102.5t5 72q20 -5 34 -5q15 0 32 5
q13 -27 38 -74t55.5 -104t63.5 -119.5t64 -119t56.5 -103t39.5 -72.5h2q3 22 8 68.5t11 105t12 123t11 123t8 104.5t3 68q10 -2 18.5 -3.5t17.5 -1.5q16 0 34 5q-5 -23 -12.5 -76t-17 -121t-19 -143.5t-18.5 -144.5t-15.5 -124t-9.5 -81q-20 5 -35 5q-16 0 -33 -5
q-74 141 -149.5 282.5t-156.5 290.5h-2q-3 -23 -8 -61.5t-11.5 -86.5t-13.5 -103t-14 -111t-14 -110t-12 -101q-10 2 -18.5 3.5t-17.5 1.5q-16 0 -34 -5z" />
    <glyph glyph-name="X" unicode="X" horiz-adv-x="600" 
d="M297 411q32 68 57.5 132.5t51.5 141.5q22 -5 38 -5q18 0 36 5q-40 -79 -78.5 -155t-73.5 -157q77 -96 155 -190t158 -188q-15 2 -29 3.5t-28 1.5t-27.5 -1.5t-27.5 -3.5q-57 76 -112.5 151.5t-122.5 151.5q-35 -76 -63.5 -151.5t-52.5 -151.5q-22 5 -38 5q-18 0 -36 -5
q42 85 81 171t77 173q-71 87 -141.5 173t-143.5 173q14 -2 27 -3.5t27 -1.5q25 0 53 5q48 -67 99.5 -132.5t113.5 -141.5z" />
    <glyph glyph-name="Y" unicode="Y" horiz-adv-x="595" 
d="M269 279q-13 17 -39 49.5t-57.5 72.5t-66.5 83.5t-67 82.5t-58 70.5t-40 47.5q14 -2 28 -3.5t28 -1.5q25 0 53 5q62 -86 127 -171t137 -175q15 36 31 79t31 88t28.5 90.5t24.5 88.5q23 -5 40 -5q18 0 38 5q-32 -73 -57 -132t-44.5 -107t-33.5 -86.5t-23 -69.5
q8 -37 17.5 -79t19 -82t18.5 -75.5t16 -58.5q-14 2 -26 3.5t-24 1.5t-24 -1.5t-24 -3.5q-5 54 -20.5 128.5t-32.5 155.5z" />
    <glyph glyph-name="Z" unicode="Z" horiz-adv-x="609" 
d="M89 12q28 54 59 115.5t61.5 124.5t59 123.5t52.5 111.5t42 90t27 59q-19 1 -37 1.5t-34 0.5q-36 0 -80 -1t-87.5 -3.5t-83.5 -5t-68 -5.5q2 15 0 31q-2 8 -5 15.5t-7 15.5q49 -4 155.5 -4.5t261.5 -0.5q27 0 54 1.5t52 3.5l4 -18q-15 -21 -41 -69t-56.5 -109t-63.5 -129
t-62 -130t-51 -111.5t-31 -73.5q25 -2 44.5 -2.5t39.5 -0.5q38 0 88 1.5t99.5 4t93 6t69.5 6.5v-17t2 -16q3 -15 12 -32q-36 1 -67 2t-59 1.5t-55 1t-55 0.5q-39 0 -88.5 -0.5t-96.5 -1t-86.5 -1.5t-57.5 -2z" />
    <glyph glyph-name="bracketleft" unicode="[" horiz-adv-x="207" 
d="M20 407q-15 70 -31 138.5t-33 137.5q22 -3 51 -3q12 0 27.5 0.5t30.5 1t29 1t24 0.5q0 -9 1 -14t5 -15q-21 1 -44.5 1.5t-46.5 0.5q9 -62 20 -124t25 -125l53 -252q14 -63 29 -125t32 -124q23 0 46.5 0.5t44.5 1.5q0 -10 1 -15q1 -4 2 -7t3 -7q-10 0 -24.5 0.5t-30 1
l-31 1t-27.5 0.5q-28 0 -50 -3q-11 69 -24.5 137.5t-28.5 138.5z" />
    <glyph glyph-name="backslash" unicode="\" horiz-adv-x="335" 
d="M-74 703l14 -3.5t13 -1.5q12 0 25 5l430 -726l-14 3.5t-13 1.5q-12 0 -25 -5z" />
    <glyph glyph-name="bracketright" unicode="]" horiz-adv-x="209" 
d="M75 407q-14 63 -29 125t-32 124q-23 0 -46 -0.5t-44 -1.5q0 10 -1 15q-1 4 -2 7t-3 7q10 0 24.5 -0.5t30 -1t30.5 -1t27 -0.5q27 0 50 3q11 -69 24.5 -137.5t28.5 -138.5l53 -252q15 -70 31.5 -138.5t33.5 -137.5q-23 3 -52 3q-12 0 -27.5 -0.5t-30.5 -1t-29 -1t-24 -0.5
q0 9 -1 14t-5 15q21 -1 44.5 -1.5t46.5 -0.5q-9 62 -20 124t-25 125z" />
    <glyph glyph-name="asciicircum" unicode="^" horiz-adv-x="555" 
d="M203 656h52l331 -453h-52l-296 406l-122 -406h-52z" />
    <glyph glyph-name="underscore" unicode="_" horiz-adv-x="587" 
d="M48 -130l-11 50h500l11 -50h-500z" />
    <glyph glyph-name="grave" unicode="`" horiz-adv-x="284" 
d="M62 653q-14 8 -28 18.5t-18 28.5q-4 16 6 24t20 8q11 0 24 -6.5t26 -17.5l179 -149h-42z" />
    <glyph glyph-name="a" unicode="a" horiz-adv-x="476" 
d="M32 425q38 34 73.5 46t75.5 12q36 0 68 -10.5t57.5 -30t43 -47t24.5 -60.5q12 -57 22 -113.5t24 -119.5q3 -12 6 -25.5t9 -24t15 -17.5t24 -7q5 0 10 0.5t10 3.5l5 -22q-10 -5 -25.5 -9.5t-35.5 -4.5q-32 0 -53 18t-29 44q-14 -18 -28.5 -31.5t-31 -23t-37 -14
t-45.5 -4.5t-51 8.5t-48 24.5t-38 38.5t-22 51.5q-13 60 18 93t94 44q52 9 81 15.5t42 13.5t14 16.5t-2 24.5q-5 25 -16 48t-27.5 40t-39.5 27.5t-53 10.5q-40 0 -70.5 -18t-41.5 -50h-11zM317 247q-16 -6 -37.5 -10t-43.5 -8.5t-43 -11.5t-36 -19t-22 -30.5t-1 -45.5
q11 -48 42.5 -71.5t64.5 -23.5q38 0 65 21t39 49z" />
    <glyph glyph-name="b" unicode="b" horiz-adv-x="507" 
d="M523 248q12 -57 5 -105.5t-30 -83.5t-60.5 -54.5t-85.5 -19.5t-91.5 22t-69.5 51q-15 -14 -28.5 -28.5t-25.5 -29.5h-18q-3 23 -8.5 57.5t-13 73t-15.5 78t-15 74.5l-39 181q-7 34 -16 74t-18 79t-18 74.5t-16 60.5q12 -2 23 -3.5t22 -1.5t22.5 1.5t25.5 3.5
q1 -20 8.5 -63.5t17.5 -97t21 -110t20 -102.5h2q23 53 58.5 78.5t89.5 25.5q52 0 94 -19.5t74.5 -51.5t53.5 -75t31 -89zM434 251q-10 46 -28.5 81.5t-42.5 59.5t-51 36.5t-53 12.5q-32 0 -57.5 -11.5t-41.5 -38t-19 -69t10 -104.5q21 -100 69 -150.5t120 -50.5
q31 0 53.5 16.5t35.5 47.5t14.5 74t-9.5 96z" />
    <glyph glyph-name="c" unicode="c" horiz-adv-x="484" 
d="M34 234q-14 65 -2 112t41.5 77.5t72 45t90.5 14.5q55 0 101 -13.5t69 -30.5q-8 -32 -8 -66h-8q-10 13 -25 26.5t-33.5 25t-40.5 19t-46 7.5q-45 0 -74 -16.5t-43 -45.5t-15.5 -68.5t8.5 -85.5q22 -103 77.5 -155.5t139.5 -52.5q40 0 77.5 20.5t57.5 50.5l6 -3
q0 -12 1 -24.5t3 -24.5q-25 -24 -66 -42.5t-88 -18.5q-44 0 -90 13.5t-87 43.5t-72.5 77.5t-45.5 114.5z" />
    <glyph glyph-name="d" unicode="d" horiz-adv-x="506" 
d="M441 93h-2q-4 -16 -13.5 -34.5t-27 -35t-43 -27.5t-62.5 -11q-38 0 -77.5 14t-74.5 44t-62.5 76.5t-40.5 111.5q-14 64 -5 111t33 78.5t59 47t74 15.5q56 0 99.5 -25.5t75.5 -74.5h2q-10 47 -21 98.5t-21.5 101t-21 93.5t-18.5 76q12 -2 23.5 -3.5t22.5 -1.5t21 1.5
t23 3.5q3 -32 13.5 -92.5t25 -133.5t30 -150t29.5 -141q14 -68 27 -124t27 -116q-12 2 -21.5 3.5t-18.5 1.5t-18 -1.5t-19 -3.5zM127 225q13 -60 33.5 -99t45.5 -62.5t51.5 -32.5t50.5 -9q39 0 63 19.5t35.5 51t12 71t-8.5 80.5q-20 95 -68 146t-120 51q-36 0 -59 -16.5
t-34.5 -46t-11.5 -69t10 -84.5z" />
    <glyph glyph-name="e" unicode="e" horiz-adv-x="496" 
d="M32 220q-12 61 -7 109.5t26.5 82.5t60.5 52.5t94 18.5q52 0 94.5 -16.5t74 -44t52 -64.5t29.5 -79q2 -10 3 -19.5t3 -19.5q-54 1 -107 2t-107 1q-33 0 -65.5 -1t-65.5 -2q1 -8 2 -14.5t3 -13.5q8 -39 26.5 -73t46 -58.5t62.5 -39t77 -14.5q40 0 77.5 20.5t57.5 50.5l6 -3
l4 -49q-25 -24 -66 -42.5t-88 -18.5q-54 0 -102.5 18t-87 49.5t-65.5 74.5t-38 93zM214 451q-37 0 -59 -17t-33 -42.5t-13 -56t2 -57.5q31 -1 65 -2t66 -1q33 0 66.5 1t65.5 2q-6 27 -17 57t-29.5 56t-46.5 43t-67 17z" />
    <glyph glyph-name="f" unicode="f" horiz-adv-x="302" 
d="M218 669q-27 15 -58 15q-22 0 -36 -8.5t-21 -22t-7.5 -32t3.5 -37.5q4 -18 15 -52t22 -65q26 0 51.5 0.5t51.5 0.5q0 -5 0.5 -10t1.5 -10t2.5 -10t3.5 -10q-26 1 -51.5 2t-51.5 1q23 -109 46.5 -217t49.5 -219q-23 5 -44 5q-11 0 -21.5 -1.5t-21.5 -3.5
q-17 111 -38.5 218.5t-44.5 217.5q-18 0 -36 -1t-35 -2q0 5 -0.5 10t-1.5 10t-2.5 10t-3.5 10q17 0 35.5 -0.5t35.5 -0.5q-6 29 -7.5 63t3 67t14.5 62.5t26 49.5q14 18 38.5 32t53.5 14q11 0 20 -3q4 -20 6.5 -40t6.5 -40z" />
    <glyph glyph-name="g" unicode="g" horiz-adv-x="507" 
d="M2 320q-9 42 0 72.5t30.5 50.5t54 30t71.5 10q19 0 37 -1t45 -3q23 -2 41.5 -3t29.5 -1q60 0 80 5q0 -5 0.5 -10.5t1.5 -10.5q2 -5 3.5 -10.5t3.5 -10.5q-29 2 -57.5 4.5t-55.5 3.5l-1 -2q34 -17 60.5 -52.5t34.5 -73.5q16 -75 -25.5 -117.5t-126.5 -42.5q-14 0 -27.5 1
t-27.5 1q-18 0 -31 -13t-8 -33q5 -26 20 -38t50 -13q28 -1 55 -1.5t55 -1.5q92 -2 139.5 -38.5t58.5 -89.5q7 -35 1.5 -71t-27.5 -65t-63 -48t-104 -19q-48 0 -89 10t-72 28.5t-51.5 45.5t-27.5 60q-6 27 -1 48.5t16.5 38t28 28t35.5 17.5v2q-33 9 -53.5 30t-26.5 50
q-4 16 -0.5 30.5t11.5 25.5t19 18t23 9l-1 2q-50 20 -83.5 56.5t-45.5 91.5zM302 325q-13 62 -50 95.5t-86 33.5q-54 0 -76.5 -36.5t-9.5 -97.5q13 -62 48.5 -99t93.5 -37q28 0 46.5 11.5t28 31t10.5 45t-5 53.5zM449 -111q-13 59 -54 85t-121 26q-37 0 -64.5 -6t-45 -20
t-23.5 -36t1 -54q7 -34 23.5 -58t39 -39t51 -22t59.5 -7q30 0 57.5 8t47 24t28 40.5t1.5 58.5z" />
    <glyph glyph-name="h" unicode="h" horiz-adv-x="460" 
d="M30 464q-7 34 -16 74t-18 79t-18 74.5t-16 60.5q12 -2 23 -3.5t22 -1.5q21 0 44 5q3 -25 9 -60t13.5 -74t15 -77.5t14.5 -71.5l16 -76h2q19 43 53 66.5t88 23.5q28 0 58 -8t57.5 -27.5t49 -53t32.5 -85.5q9 -43 16.5 -88.5t18.5 -96.5q8 -33 15 -65t15 -64q-12 2 -22 3.5
t-21 1.5t-20.5 -1.5t-19.5 -3.5q-11 55 -19.5 110t-21.5 113l-13 61q-15 74 -53 113t-88 39q-70 0 -93.5 -43t-6.5 -121q6 -29 14 -65.5t17 -74t18 -72.5t17 -60q-12 2 -23.5 3.5t-22.5 1.5q-21 0 -44 -5q-3 25 -9 60.5t-13.5 74.5t-15.5 78.5t-15 74.5z" />
    <glyph glyph-name="i" unicode="i" horiz-adv-x="157" 
d="M53 286q-9 45 -21 94.5t-26 92.5q25 -5 46 -5q11 0 22 1.5t22 3.5q5 -43 13.5 -92.5t17.5 -94.5l22 -104q10 -45 22 -94.5t26 -92.5q-12 2 -23.5 3.5t-22.5 1.5q-21 0 -44 -5q-5 43 -13.5 92.5t-18.5 94.5zM-36 647q-5 21 7 36t32 15q21 0 39 -15t23 -36q4 -21 -8 -36
t-33 -15q-20 0 -38 15t-22 36z" />
    <glyph glyph-name="j" unicode="j" horiz-adv-x="246" 
d="M119 246q-13 60 -28 122t-28 105q25 -5 46 -5q11 0 22 1.5t22 3.5q5 -43 13.5 -92.5t18.5 -94.5l22 -104q6 -29 14 -63t17 -68.5t17.5 -68.5t14.5 -63q8 -42 11.5 -77.5t-12.5 -69.5q-15 -32 -48 -53t-81 -23l-14 34q4 -1 7.5 -1.5t8.5 -0.5q29 0 43 17t18 44t0 60.5
t-11 66.5zM20 647q-5 21 7 36t33 15t39 -15t23 -36t-7 -36t-33 -15t-39 15t-23 36z" />
    <glyph glyph-name="k" unicode="k" horiz-adv-x="472" 
d="M16 464q-7 34 -15.5 74t-17.5 79t-18.5 74.5t-16.5 60.5q12 -2 23.5 -3.5t22.5 -1.5q20 0 43 5q3 -25 9 -60.5t13.5 -74.5t15.5 -79t15 -74l39 -182q3 -19 16 -19q8 0 16 7t18 16q7 7 24 27t38 46.5t42.5 56.5t39.5 57q20 -5 39 -5q11 0 21.5 1.5t27.5 3.5
q-52 -51 -98.5 -100.5t-88.5 -100.5q72 -69 147.5 -138.5t152.5 -138.5l-31.5 3.5t-26.5 1.5t-25.5 -1.5t-24.5 -3.5q-28 28 -62.5 62t-69.5 67t-66.5 61.5t-53.5 47.5q-4 4 -8.5 7t-8.5 3q-10 0 -7 -12l12 -60q10 -45 21 -88t25 -88q-12 2 -23.5 3.5t-22.5 1.5
q-21 0 -44 -5q-3 25 -9 60.5t-13.5 74.5t-15.5 78.5t-15 74.5z" />
    <glyph glyph-name="l" unicode="l" horiz-adv-x="167" 
d="M25 464q-7 34 -16 74t-18 79t-18 74.5t-16 60.5q12 -2 23 -3.5t22 -1.5q21 0 44 5q3 -25 9 -60.5t13.5 -74.5t15.5 -79t15 -74l39 -181q7 -35 16 -74.5t18 -78.5t18 -74.5t17 -60.5q-12 2 -23.5 3.5t-22.5 1.5q-21 0 -44 -5q-3 25 -9 60.5t-13.5 74.5t-15.5 78.5
t-15 74.5z" />
    <glyph glyph-name="m" unicode="m" horiz-adv-x="777" 
d="M40 286q-10 45 -22 94.5t-25 92.5q23 -5 45 -5q14 0 39 5l6 -40t8 -40h2q34 90 130 90q25 0 50.5 -7.5t48 -20.5t40 -31.5t27.5 -39.5h2q14 48 50 73.5t90 25.5q33 0 62.5 -9t54 -28t42.5 -49t27 -72q4 -17 7 -37t7.5 -46.5t11 -60t15.5 -77.5q6 -27 11.5 -52t14.5 -57
q-23 5 -44 5q-20 0 -43 -5q-3 28 -15.5 104.5t-41.5 211.5q-5 25 -15 47t-25.5 38t-37.5 25.5t-52 9.5q-36 0 -58.5 -14t-31.5 -33q-6 -11 -8.5 -22t0 -33.5t10.5 -63t23 -111.5q4 -22 8.5 -40.5t9 -37.5t9.5 -38.5t11 -42.5q-25 5 -45 5q-11 0 -21.5 -1.5t-21.5 -3.5
q-8 57 -17.5 114.5t-21.5 112.5q-10 46 -16 73t-11.5 43t-11 25.5t-14.5 21.5q-14 19 -40.5 32.5t-51.5 13.5q-65 0 -87.5 -43t-5.5 -121l18 -85q9 -45 21 -94.5t26 -92.5q-25 5 -46 5q-11 0 -22 -1.5t-22 -3.5q-5 43 -13.5 92.5t-17.5 94.5z" />
    <glyph glyph-name="n" unicode="n" horiz-adv-x="484" 
d="M357 279q-16 74 -53.5 113t-87.5 39q-70 0 -93.5 -43t-6.5 -121l18 -85q9 -45 21 -94.5t26 -92.5q-25 5 -46 5q-11 0 -22 -1.5t-22 -3.5q-5 43 -13.5 92.5t-17.5 94.5l-22 104q-10 45 -22 94.5t-25 92.5q23 -5 45 -5q14 0 39 5l6 -40t8 -40h2q19 43 53 66.5t88 23.5
q28 0 58 -8t57 -27.5t49 -53t33 -85.5q9 -43 16.5 -88.5t18.5 -96.5q7 -33 14 -65t15 -64q-11 2 -21.5 3.5t-21.5 1.5t-20 -1.5t-20 -3.5q-10 55 -19 110t-21 113l-13 61v0z" />
    <glyph glyph-name="o" unicode="o" horiz-adv-x="549" 
d="M31 234q-14 68 -2.5 115.5t40 77t68.5 43t84 13.5q43 0 89.5 -13.5t87.5 -43t72.5 -77t46.5 -115.5q14 -68 2.5 -115.5t-40 -77t-69.5 -43t-84 -13.5q-44 0 -90 13.5t-87 43t-72.5 77t-45.5 115.5zM119 234q9 -42 24.5 -81t40 -69.5t58.5 -48.5t78 -18t70 18t37.5 48.5
t11 69.5t-9.5 81t-25 81t-40.5 69.5t-58.5 48.5t-78 18t-70 -18t-37.5 -48.5t-10.5 -69.5t10 -81z" />
    <glyph glyph-name="p" unicode="p" horiz-adv-x="508" 
d="M382 238q-13 60 -33.5 99t-45.5 62.5t-51.5 32.5t-50.5 9q-41 0 -65.5 -17t-36.5 -45.5t-12 -67t9 -81.5q22 -103 70.5 -155.5t120.5 -52.5q36 0 59 16.5t34 46t11 69t-9 84.5zM33 182q-8 34 -16.5 74t-17.5 79.5t-18 75.5t-17 62q25 -5 45 -5q11 0 22 1.5t22 3.5
q3 -52 13 -98h2q4 16 13 34.5t26 35t43 27.5t64 11t77.5 -14.5t74.5 -44.5t62.5 -76.5t41.5 -110.5q13 -64 4 -111t-33 -78.5t-59.5 -47t-74.5 -15.5q-56 0 -100 25t-77 73h-2l13 -63q7 -35 16 -74.5t18.5 -78.5t18 -74.5t16.5 -60.5q-25 5 -46 5q-11 0 -22 -1.5t-22 -3.5
q-3 25 -9 60.5t-13 74.5t-15.5 78.5t-15.5 74.5z" />
    <glyph glyph-name="q" unicode="q" horiz-adv-x="507" 
d="M354 244q-8 38 -23.5 73.5t-38.5 63t-53.5 44t-69.5 16.5q-24 0 -47.5 -9.5t-39 -34t-20 -66.5t9.5 -108q9 -43 25.5 -79.5t39 -63.5t51 -42.5t61.5 -15.5q38 0 62.5 19t37 50.5t13.5 71.5t-8 81zM476 20q7 -35 16 -74.5t18.5 -78.5t18 -74.5t16.5 -60.5q-25 5 -46 5
q-11 0 -22 -1.5t-22 -3.5q-3 25 -9 60.5t-13 74.5t-15.5 78.5t-15.5 74.5l-16 75h-2q-17 -57 -54 -83.5t-86 -26.5q-37 0 -77 12.5t-76 41.5t-65 76t-43 116q-14 66 -5 113.5t32.5 78t57.5 45.5t71 15q68 0 113.5 -31t72.5 -77h2q-5 24 -12.5 48t-16.5 50q25 -5 46 -5
q11 0 22 1.5t22 3.5q3 -26 9 -62t13.5 -75.5t15.5 -79.5t16 -74z" />
    <glyph glyph-name="r" unicode="r" horiz-adv-x="291" 
d="M237 391q-7 6 -22 11t-30 5q-24 0 -40.5 -11t-26 -29.5t-11 -44t4.5 -54.5q14 -65 23.5 -109.5t16.5 -75t12 -51t10 -37.5q-22 5 -41 5q-11 0 -20.5 -1.5t-20.5 -3.5q-5 37 -17 95.5t-29 143.5l-7 32q-8 39 -19.5 90.5t-27.5 116.5q23 -5 42 -5q17 0 39 5q4 -36 7.5 -57
t7.5 -40l3 -1q17 54 45.5 81t63.5 27q9 0 15.5 -1t17.5 -5q-3 -12 1 -36.5t9 -44.5z" />
    <glyph glyph-name="s" unicode="s" horiz-adv-x="369" 
d="M93 91q7 -10 20.5 -22t30 -22.5t36.5 -17.5t41 -7q19 0 35 6t27 17t15.5 28t-0.5 39q-6 31 -27 47.5t-49.5 27t-61 18.5t-61.5 22.5t-51.5 38.5t-31.5 66q-7 33 -1.5 60.5t22 47.5t45 31.5t68.5 11.5q37 0 64 -10t53 -18q-3 -7 -5 -17t-3 -20t-1.5 -19t0.5 -15h-12
q-13 24 -40.5 43t-61.5 19q-15 0 -29 -5t-24 -15t-14.5 -26t0.5 -38q7 -32 28 -49.5t49.5 -27.5t61 -18t61.5 -21t51.5 -37t31.5 -66q6 -29 -0.5 -57t-25.5 -50.5t-49 -36.5t-72 -14q-46 0 -79 10.5t-57 22.5q4 13 5.5 35.5t-1.5 37.5h12z" />
    <glyph glyph-name="t" unicode="t" horiz-adv-x="283" 
d="M91 607h5q10 -73 24 -148q11 0 41 0.5t64 2.5q1 -5 1.5 -10.5t2.5 -10.5q1 -5 2 -10.5t3 -10.5q-26 2 -57 2h-49q0 -4 4.5 -32t11.5 -66.5t15.5 -80.5t15.5 -75q6 -28 13.5 -55t19.5 -48.5t31 -34.5t49 -13q8 0 21 2t22 5l5 -24q-16 -6 -35 -10.5t-38 -4.5q-63 0 -100 33
t-50 92q-6 27 -11.5 58.5t-12.5 69t-15.5 83t-19.5 101.5h-31.5t-35.5 -2q-1 6 -1 11.5t-2 11.5q-1 5 -2.5 10t-3.5 10q43 -3 66 -3l-12.5 50l-15.5 62z" />
    <glyph glyph-name="u" unicode="u" horiz-adv-x="485" 
d="M57 149q-11 53 -18 90.5t-15 74.5q-8 35 -16.5 76t-17.5 83q22 -5 42 -5q17 0 40 5q8 -59 20.5 -131.5t28.5 -146.5q11 -52 25.5 -79.5t30.5 -41.5q18 -16 41.5 -26.5t52.5 -10.5q42 0 66 18.5t32 45.5q4 16 5.5 28.5t-0.5 32.5t-9 54t-20 93q-8 41 -17.5 84.5
t-18.5 79.5q23 -5 43 -5q11 0 20.5 1.5t19.5 3.5q12 -78 26 -151t31 -153q10 -45 20 -88.5t21 -85.5q-22 5 -40 5q-10 0 -19 -1.5t-19 -3.5q-3 22 -7 43.5t-9 42.5h-2q-16 -47 -52 -71.5t-84 -24.5q-78 0 -131 43t-70 121z" />
    <glyph glyph-name="v" unicode="v" horiz-adv-x="491" 
d="M261 -5q-71 120 -142.5 238.5t-151.5 239.5q13 -2 25 -3.5t25 -1.5q11 0 21.5 1.5t21.5 3.5q51 -98 109 -194.5t123 -195.5q11 41 20.5 88.5t18 98.5t16 102.5t15.5 100.5q17 -5 32 -5q8 0 15 1.5t15 3.5q-28 -121 -55 -239.5t-45 -238.5q-17 5 -32 5q-8 0 -15.5 -1.5
t-15.5 -3.5z" />
    <glyph glyph-name="w" unicode="w" horiz-adv-x="794" 
d="M252 -5q-20 39 -51.5 96.5t-69 122.5t-77.5 132t-77 127q12 -2 23.5 -3.5t23.5 -1.5q20 0 45 5q45 -94 97 -188.5t112 -194.5q6 28 13 74t14 99t13.5 108t10.5 102q17 -5 31 -5q8 0 13.5 1.5t13.5 3.5q45 -95 98 -189t110 -194q6 32 13.5 78.5t16 98t16.5 105.5t15 101
q18 -5 33 -5q14 0 29 5q-31 -121 -55.5 -239.5t-42.5 -238.5q-6 2 -13 3.5t-14 1.5t-13.5 -1.5t-11.5 -3.5q-45 91 -95.5 182t-111.5 189q-6 -30 -13.5 -74.5t-14.5 -95.5t-14 -103.5t-11 -97.5q-7 2 -14.5 3.5t-14.5 1.5t-13.5 -1.5t-13.5 -3.5z" />
    <glyph glyph-name="x" unicode="x" horiz-adv-x="517" 
d="M256 286q26 47 51 93t48 94q20 -5 36 -5q8 0 16 1.5t17 3.5q-37 -55 -71.5 -108.5t-66.5 -107.5q59 -66 121 -131t127 -131q-28 5 -52 5q-13 0 -25 -1.5t-25 -3.5q-44 51 -89.5 102t-92.5 102q-53 -102 -99 -204q-18 5 -34 5q-15 0 -33 -5q36 59 69.5 117t66.5 117
q-116 122 -235 244q28 -5 53 -5q14 0 26 1.5t26 3.5q38 -48 79.5 -94t86.5 -93z" />
    <glyph glyph-name="y" unicode="y" horiz-adv-x="487" 
d="M247 -6q-18 30 -44 73t-56 90.5t-61 97t-58.5 93t-49 76.5t-31.5 49q25 -5 47 -5q19 0 44 5q51 -95 109 -189.5t121 -194.5q23 87 40 188t28 196q18 -5 34 -5q14 0 32 5q-4 -14 -12.5 -47.5t-20 -80t-25.5 -103t-27.5 -116.5t-27 -119.5t-24.5 -112t-18.5 -95t-9.5 -67.5
q-18 5 -35 5q-15 0 -33 -5q26 66 45 131t33 131z" />
    <glyph glyph-name="z" unicode="z" horiz-adv-x="486" 
d="M71 9q32 52 65 111t64 116t57.5 108t46.5 87q-7 0 -39.5 -1.5t-74 -3.5t-84 -4.5t-70.5 -5.5q0 13 -3 28q-2 11 -9 29q32 -3 95 -4t156 -1q43 0 71 1t59 4l3 -15q-29 -52 -63.5 -114.5t-67 -122t-59 -109t-39.5 -75.5q41 0 75 0.5t69.5 2t75 4t90.5 7.5v-14t2 -14
t4.5 -14t5.5 -14q-63 2 -125.5 3.5t-125.5 1.5q-45 0 -88 -1.5t-88 -3.5z" />
    <glyph glyph-name="braceleft" unicode="{" horiz-adv-x="243" 
d="M3 302q36 0 49 26t4 68l-36 170q-14 67 3.5 92t59.5 25h58l8 -37h-32q-26 0 -36 -15t1 -65l35 -164q11 -50 -7 -77.5t-56 -42.5l1 -2q45 -15 73.5 -42.5t39.5 -77.5l35 -164q10 -50 26.5 -65t42.5 -15h32l8 -37h-58q-21 0 -38.5 5.5t-32 19t-25 36t-17.5 56.5l-36 170
q-9 42 -33 68t-60 26z" />
    <glyph glyph-name="bar" unicode="|" horiz-adv-x="144" 
d="M-63 750h52l212 -1000h-52z" />
    <glyph glyph-name="braceright" unicode="}" horiz-adv-x="243" 
d="M238 260q-36 0 -49 -26t-4 -68l36 -170q7 -34 6 -56.5t-9.5 -36t-23.5 -19t-36 -5.5h-58l-8 37h32q13 0 22 3t13.5 12t4.5 24.5t-5 40.5l-35 164q-11 50 7 77.5t56 42.5l-1 2q-45 15 -73.5 42.5t-39.5 77.5l-35 164q-11 50 -27 65t-41 15h-32l-8 37h58q41 0 69.5 -25
t42.5 -92l36 -170q9 -42 33 -68t60 -26z" />
    <glyph glyph-name="asciitilde" unicode="~" horiz-adv-x="520" 
d="M36 230q16 38 37.5 60.5t67.5 22.5q30 0 53 -7.5t46 -17.5q37 -15 66.5 -29t61.5 -14q15 0 27 7t22 18.5t16.5 24.5t10.5 25l38 -42q-7 -15 -16 -30t-21 -27.5t-28.5 -20t-38.5 -7.5q-28 0 -57 10t-65 27q-29 14 -53.5 22.5t-44.5 8.5q-22 0 -37 -7t-24 -18.5t-14 -24.5
t-8 -25z" />
    <glyph glyph-name="exclamdown" unicode="&#xa1;" horiz-adv-x="175" 
d="M59 300q14 -47 29.5 -99.5t31 -104t29.5 -98.5t25 -84.5t18 -62t8 -29.5q5 -27 -7.5 -38t-31.5 -11t-36.5 11t-22.5 38q-1 5 -4.5 29.5t-8.5 62t-11.5 84.5t-13 98.5t-13 103.5l-12.5 100h20zM-34 426q-5 23 8 40t36 17t43.5 -17t25.5 -40t-8.5 -40t-36.5 -17t-43 17
t-25 40z" />
    <glyph glyph-name="cent" unicode="&#xa2;" horiz-adv-x="480" 
d="M201 447q-32 -8 -52 -26.5t-30 -46.5t-10 -63.5t9 -75.5q19 -88 62.5 -139t109.5 -64zM31 234q-12 58 -3.5 102t31.5 74t58 47.5t77 22.5l-1 8q-5 20 -11.5 46.5t-14.5 49.5l14 -3.5t13 -1.5q12 0 25 5q2 -23 6 -48.5t9 -46.5l2 -6q54 -1 99 -14t68 -30q-8 -32 -8 -66h-8
q-10 13 -24.5 26.5t-33 25t-40.5 19t-46 7.5l90 -424h3q40 0 77.5 20.5t57.5 50.5l5 -3q1 -12 2 -24.5t3 -24.5q-23 -23 -60 -40t-80 -19l2 -8q5 -23 12 -51t15 -51q-17 5 -28 5t-24 -5q-2 21 -7 50.5t-10 52.5l-2 7q-41 4 -83 19.5t-79 45.5t-65 75t-41 107z" />
    <glyph glyph-name="sterling" unicode="&#xa3;" horiz-adv-x="507" 
d="M87 59q43 0 67 12t34.5 33.5t9 52.5t-9.5 69q-5 27 -14 54l-17 51q-25 -1 -49 -1.5t-48 -0.5q1 6 0 11.5t-3 11.5q-2 10 -6 21q16 -3 40 -4t53 -1q-6 18 -11 35t-8 33q-15 69 -6 114.5t33 72.5t57.5 38t66.5 11q37 0 77 -13t64 -40q-14 -21 -27 -54l-4 3q-17 33 -44 50
t-58 17q-54 0 -78.5 -39t-12.5 -96q8 -41 17 -73t17 -59q47 0 80 1.5t72 3.5q0 -5 0.5 -10.5t1.5 -10.5q2 -6 3.5 -11.5t3.5 -11.5q-38 1 -74.5 1.5t-75.5 0.5q3 -11 6 -22.5t6 -23.5q8 -38 7 -71.5t-8.5 -62t-20.5 -51t-29 -37.5v-2q85 0 173 4t161 7q1 -11 2 -21t3 -19
q4 -18 11 -37q-59 2 -117.5 3.5t-118.5 1.5q-57 0 -113.5 -1.5t-113.5 -3.5q-1 7 -1.5 15t-2.5 17q-2 8 -4.5 16t-4.5 16h14z" />
    <glyph glyph-name="currency" unicode="&#xa4;" horiz-adv-x="574" 
d="M483 328q-9 42 -32 78.5t-55 63.5t-71 43t-81 16t-74.5 -16t-53 -43t-27.5 -63.5t2 -78.5t31.5 -78.5t54.5 -63.5t71 -43t81 -16t74.5 16t53 43t28 63.5t-1.5 78.5zM444 576l43 -36l-43 -56q34 -31 57.5 -71t33.5 -85q9 -44 3 -83.5t-26 -71.5l65 -53l-28 -38l-67 54
q-54 -56 -143 -56q-45 0 -88 15t-80 42l-44 -55l-44 38l42 55q-32 32 -54.5 70.5t-31.5 82.5q-10 45 -4 84.5t26 70.5l-67 57l28 36l68 -56q26 26 62.5 41t81.5 15t87 -14.5t79 -40.5z" />
    <glyph glyph-name="yen" unicode="&#xa5;" horiz-adv-x="549" 
d="M228 331q-43 0 -85 -1t-85 -2q0 5 -0.5 10.5t-1.5 10.5q-2 5 -3.5 10.5t-3.5 10.5q41 -1 81.5 -1.5t81.5 -0.5q-68 79 -134 158t-135 159q14 -2 27 -3.5t27 -1.5q23 0 51 5q11 -18 37 -52t59 -75.5t68 -85.5t65 -80q32 75 62 149t53 144q20 -5 35 -5q16 0 33 5
q-32 -59 -71 -143.5t-79 -173.5q42 0 81.5 0.5t80.5 1.5q1 -5 1 -10.5t2 -10.5q1 -5 2.5 -10.5t3.5 -10.5q-44 1 -87.5 2t-87.5 1l19 -87h87t87 1q0 -5 0.5 -10.5t1.5 -10.5q2 -5 3.5 -10.5t3.5 -10.5q-45 2 -88 3t-87 1q12 -57 25 -110t27 -102q-12 2 -24 3.5t-23 1.5
q-22 0 -45 -5q-8 54 -17.5 106t-20.5 106q-43 0 -85.5 -1t-84.5 -3q-1 5 -1 10.5t-2 10.5q-1 5 -2.5 10.5t-3.5 10.5q43 -1 85.5 -1h85.5z" />
    <glyph glyph-name="brokenbar" unicode="&#xa6;" horiz-adv-x="130" 
d="M58 175h52l75 -350h-52zM-47 675h51l75 -350h-52z" />
    <glyph glyph-name="section" unicode="&#xa7;" horiz-adv-x="437" 
d="M277 578q-8 16 -20 31t-28 26.5t-35 18.5t-40 7t-39.5 -7t-31.5 -20t-19 -31.5t-1 -41.5q8 -36 34 -58.5t61.5 -38.5t75.5 -29.5t76 -32t63 -46t37 -71.5q8 -42 -4.5 -77t-26.5 -53q20 -14 34.5 -35.5t21.5 -53.5q8 -37 1.5 -72t-27.5 -62t-56.5 -43.5t-86.5 -16.5
q-38 0 -80 13t-70 30q1 17 -1 42.5t-6 42.5h12q7 -12 21 -27.5t34.5 -29.5t47.5 -24t62 -10q27 0 48.5 10.5t35.5 27t20 37.5t1 43q-7 36 -34.5 57.5t-65.5 37.5t-81 30t-81.5 34t-68 50.5t-39.5 79.5q-5 24 -2.5 44t10 36t17 27t18.5 17q-8 9 -15 17.5t-12.5 18.5
t-10.5 23.5t-9 34.5q-6 31 -1 60.5t22 52.5t47.5 37t74.5 14q49 0 85 -19t61 -42q-8 -9 -13 -26.5t-4 -32.5h-12zM372 241q-4 19 -11.5 32.5t-20 25t-31.5 21.5t-46 21q-54 22 -86.5 36t-51 23t-27 14t-15.5 10q-11 -11 -19 -31t-3 -44q8 -38 38 -61.5t92 -48.5
q39 -15 67 -26.5t48 -20t33 -15t22 -11.5q7 14 12 31t-1 44z" />
    <glyph glyph-name="dieresis" unicode="&#xa8;" horiz-adv-x="376" 
d="M235 637q-5 21 7 36t33 15t39 -15t23 -36q4 -21 -8 -36t-33 -15t-39 15t-22 36zM38 637q-5 21 7 36t33 15t39 -15t23 -36q4 -21 -8 -36t-33 -15t-39 15t-22 36z" />
    <glyph glyph-name="copyright" unicode="&#xa9;" horiz-adv-x="775" 
d="M166 338q-13 59 -3.5 103.5t36.5 74.5t69 45t93 15q49 0 86 -7.5t61 -20.5q-7 -23 -2 -50l-5 -2l-20 15t-28.5 17.5t-37 14t-45.5 5.5q-35 0 -66 -9.5t-51.5 -33t-27.5 -64.5t7 -104q9 -43 28.5 -79.5t48 -63t65.5 -41.5t80 -15q21 0 40 5.5t35 13.5t28.5 17.5t20.5 18.5
l6 -2q-2 -9 -0.5 -20.5t3.5 -19.5q-17 -12 -53.5 -26.5t-84.5 -14.5q-52 0 -98.5 16t-84 46t-63.5 72t-37 94zM29 340q-16 74 -2 139.5t52.5 114t97.5 76.5t133 28t145.5 -28t130.5 -76.5t101 -114t58 -139.5t1.5 -139.5t-52.5 -114t-97.5 -76.5t-133.5 -28t-145.5 28
t-130 76.5t-100.5 114t-58 139.5zM703 340q-14 66 -51 124.5t-89 102t-115.5 69t-129.5 25.5t-118.5 -25.5t-85.5 -69t-45 -102t2 -124.5t51 -124.5t88.5 -102t115 -69t129.5 -25.5t118.5 25.5t86 69t45.5 102t-2 124.5z" />
    <glyph glyph-name="ordfeminine" unicode="&#xaa;" horiz-adv-x="341" 
d="M37 641q18 11 41 21t62 10q17 0 36.5 -3.5t37 -14t32 -29t20.5 -48.5q4 -18 7.5 -39t6.5 -41t6 -37.5t6 -28.5q5 -20 13 -27t16 -7q5 0 10 2t8 4l4 -18q-6 -4 -17.5 -8t-27.5 -4q-20 0 -33.5 13t-18.5 30q-17 -21 -39 -32t-53 -11q-16 0 -33 3.5t-32.5 12t-27 23
t-16.5 35.5q-8 35 9 53.5t73 29.5q31 6 48.5 10t26 7.5t9.5 8t0 11.5q-5 24 -14 39.5t-20 23.5t-24.5 11t-28.5 3q-31 0 -47.5 -13.5t-19.5 -26.5h-12zM218 533q-14 -8 -35 -11t-40.5 -9t-31 -19t-5.5 -41q5 -26 24 -39t42 -13q24 0 40 13.5t26 26.5z" />
    <glyph glyph-name="guillemotleft" unicode="&#xab;" horiz-adv-x="361" 
d="M103 419q8 -10 19.5 -17.5t23.5 -9.5l-77 -159l141 -166q-11 -2 -20.5 -9.5t-11.5 -16.5l-161 191zM248 419q8 -10 19.5 -17.5t23.5 -9.5l-77 -159l141 -166q-11 -2 -20.5 -9.5t-11.5 -16.5l-161 191z" />
    <glyph glyph-name="logicalnot" unicode="&#xac;" horiz-adv-x="552" 
d="M438 324h-453l-11 52h505l57 -268h-52z" />
    <glyph glyph-name="registered" unicode="&#xae;" horiz-adv-x="775" 
d="M234 434q-8 34 -17.5 70.5t-18.5 64.5q20 -2 41 -3.5t42 -1.5q20 0 40 2.5t40 2.5q53 0 94.5 -24.5t52.5 -75.5q7 -31 -2.5 -53.5t-27.5 -37.5t-40 -23.5t-41 -9.5q25 -24 56 -56.5t62.5 -64t59.5 -57.5t46 -39l1 -5q-23 5 -39 5q-18 0 -38 -5q-48 54 -100 107t-107 107
h-32l15 -70q8 -36 17 -72t20 -72q-20 5 -33 5q-15 0 -32 -5l-10 70t-13 70zM300 365q6 -2 17.5 -3t25.5 -1q25 0 47 5.5t36.5 17.5t21 31.5t0.5 46.5q-8 39 -39 61t-72 22q-19 0 -36.5 -1.5t-31.5 -3.5q3 -23 6 -47t8 -47zM29 340q-16 74 -2 139.5t52.5 114t97.5 76.5
t133 28t145.5 -28t130.5 -76.5t101 -114t58 -139.5t1.5 -139.5t-52.5 -114t-97.5 -76.5t-133.5 -28t-145.5 28t-130 76.5t-100.5 114t-58 139.5zM71 340q14 -66 51 -124.5t88.5 -102t115 -69t129.5 -25.5t118.5 25.5t86 69t45.5 102t-2 124.5t-51 124.5t-89 102t-115.5 69
t-129.5 25.5t-118.5 -25.5t-85.5 -69t-45 -102t2 -124.5z" />
    <glyph glyph-name="macron" unicode="&#xaf;" horiz-adv-x="360" 
d="M37 656h273l11 -52h-273z" />
    <glyph glyph-name="degree" unicode="&#xb0;" horiz-adv-x="350" 
d="M29 527q-7 30 -1 56.5t21.5 46t39.5 31t54 11.5t58.5 -11.5t52.5 -31t41 -46t24 -56.5q6 -30 0.5 -56.5t-21.5 -46t-40 -31t-54 -11.5t-58.5 11.5t-52.5 31t-41 46t-23 56.5zM66 527q4 -23 16.5 -42.5t30.5 -34t39 -23t44 -8.5q22 0 40 8.5t30 23t16 34t0 42.5
q-5 22 -17.5 42t-30.5 34.5t-39.5 23t-43.5 8.5q-23 0 -40.5 -8.5t-29 -23t-16 -34.5t0.5 -42z" />
    <glyph glyph-name="plusminus" unicode="&#xb1;" horiz-adv-x="522" 
d="M-7 324h226l-38 182h52l38 -182h227l11 -52h-227l39 -182h-52l-39 182h-227zM50 52h506l11 -52h-506z" />
    <glyph glyph-name="twosuperior" unicode="&#xb2;" horiz-adv-x="337" 
d="M22 613q15 31 40.5 45t66.5 14q28 0 53 -6t45 -19t34 -33t20 -48q5 -24 3 -45t-17.5 -48t-47 -65t-85.5 -96l3 -5h48.5t53 0.5t52 1.5t46.5 3v-13t2 -13q3 -12 9 -26q-35 2 -70.5 3.5t-70.5 1.5t-69 -1.5t-69 -3.5l-3 15q39 45 70 81.5t51.5 69.5t28.5 65.5t0 71.5
q-10 45 -36 65t-55 20q-21 0 -34.5 -6.5t-21 -16t-10.5 -20.5t-3 -20l-4 -2z" />
    <glyph glyph-name="threesuperior" unicode="&#xb3;" horiz-adv-x="325" 
d="M68 318h5q13 -11 37.5 -23t55.5 -12q47 0 68.5 27t13.5 69q-5 25 -16 41.5t-24.5 26.5t-29 14.5t-30.5 4.5q-12 0 -22 -2t-17 -4v8.5t-1 8.5q-3 12 -7 20q17 -7 34 -7q21 0 33 8.5t17.5 21.5t5 28.5t-3.5 30.5q-8 35 -31.5 52t-49.5 17t-43 -13t-20 -30l-5 -1l-22 32
q11 12 33 24t66 12q48 0 85.5 -21.5t47.5 -66.5q5 -22 0.5 -39.5t-14.5 -30t-24 -20.5t-28 -11v-2q17 -1 37.5 -6t39 -15.5t33 -28.5t20.5 -45q12 -57 -26 -92t-113 -35q-36 0 -62 6.5t-45 14.5z" />
    <glyph glyph-name="acute" unicode="&#xb4;" horiz-adv-x="282" 
d="M162 708q8 11 18.5 17.5t21.5 6.5q10 0 23 -8t17 -24q4 -18 -5.5 -28.5t-20.5 -18.5l-127 -94h-42z" />
    <glyph glyph-name="mu" unicode="&#xb5;" horiz-adv-x="461" 
d="M233 -15q-28 0 -52 6.5t-46 23.5q16 -75 32 -144.5t38 -138.5q-23 5 -43 5q-11 0 -20.5 -1.5t-20.5 -3.5q-9 43 -16.5 81.5l-15 77t-15.5 79t-18 88.5q-14 66 -26.5 122.5t-23.5 106.5t-21 95.5t-19 90.5q23 -5 42 -5q17 0 40 5q8 -59 20.5 -131.5t28.5 -146.5
q11 -52 25.5 -79.5t30.5 -41.5q18 -16 41.5 -26.5t52.5 -10.5q42 0 66 18.5t32 45.5q4 16 5.5 28.5t-0.5 32.5t-9 54t-19 93q-9 41 -18.5 84.5t-18.5 79.5q23 -5 43 -5q11 0 20.5 1.5t19.5 3.5q12 -78 26 -151t31 -153q10 -45 20 -88.5t21 -85.5q-22 5 -40 5q-10 0 -19 -1.5
t-19 -3.5q-3 22 -7 43.5t-9 42.5h-2q-16 -47 -52.5 -71.5t-84.5 -24.5z" />
    <glyph glyph-name="paragraph" unicode="&#xb6;" horiz-adv-x="496" 
d="M285 639l-62 -10l158 -744h-36l-86 406q-64 0 -114 15t-86 42t-59 65t-33 83q-20 92 23.5 138t135.5 46h261l5 -24l-72 -12l161 -759h-36z" />
    <glyph glyph-name="periodcentered" unicode="&#xb7;" horiz-adv-x="183" 
d="M30 306q-6 25 8 42.5t39 17.5t46 -17.5t27 -42.5q5 -25 -9 -42.5t-39 -17.5t-46 17.5t-26 42.5z" />
    <glyph glyph-name="cedilla" unicode="&#xb8;" horiz-adv-x="246" 
d="M44 -175q12 -5 31.5 -8.5t42.5 -3.5q25 0 40.5 11t11.5 31q-5 22 -22 31t-38 9q-32 0 -41 -7l-9 7l19 105h35l-10 -73q6 2 12 3.5t16 1.5q39 0 65 -19.5t33 -51.5q4 -21 -2 -37t-20 -26.5t-34.5 -16t-44.5 -5.5q-31 0 -54 6t-38 11z" />
    <glyph glyph-name="onesuperior" unicode="&#xb9;" horiz-adv-x="229" 
d="M95 616l-5 2l-64 -37q-9 12 -24 19l-2 10q35 12 71.5 28.5t63.5 33.5h11q10 -77 27 -156l21 -100q16 -77 39 -156q-18 5 -35 5q-15 0 -33 -5q-5 41 -12.5 79.5t-15.5 76.5z" />
    <glyph glyph-name="ordmasculine" unicode="&#xba;" horiz-adv-x="395" 
d="M37 522q-9 41 -1 69.5t27 46.5t46 26t57 8q28 0 58.5 -8t56.5 -26t46.5 -46.5t29.5 -69.5t0.5 -69.5t-27.5 -46t-46 -25.5t-55 -8q-30 0 -60.5 8t-56.5 25.5t-46 46t-29 69.5zM103 522q5 -23 14.5 -45.5t24.5 -40t35 -28.5t47 -11q26 0 41.5 11t23 28.5t7.5 40t-5 45.5
q-5 24 -15 46.5t-24.5 40t-34.5 28.5t-46 11q-27 0 -42.5 -11t-23 -28.5t-7.5 -40t5 -46.5z" />
    <glyph glyph-name="guillemotright" unicode="&#xbb;" horiz-adv-x="362" 
d="M150 396q11 2 20.5 9.5t11.5 16.5l161 -191l-86 -187q-8 10 -19.5 17.5t-23.5 9.5l77 159zM5 396q11 2 20.5 9.5t11.5 16.5l161 -191l-86 -187q-8 10 -19.5 17.5t-23.5 9.5l77 159z" />
    <glyph glyph-name="onequarter" unicode="&#xbc;" horiz-adv-x="762" 
d="M466 126q38 69 76.5 137.5t77.5 137.5q5 -2 12 -3t15 -1t14 1t11 3q10 -64 22.5 -128t26.5 -128q14 0 30 1.5t27 4.5v-12t1 -11q3 -12 9 -24q-11 2 -26 3t-33 1q6 -29 13 -56.5t15 -56.5q-18 5 -34 5q-14 0 -32 -5q-4 29 -8.5 56.5t-10.5 56.5q-29 0 -59 -0.5t-56.5 -1
t-49 -1t-36.5 -1.5zM623 338l-2 3q-26 -48 -52.5 -95.5t-46.5 -95.5l3 -5h139zM388 684q13 -5 24 -5q6 0 11 1.5t11 3.5l-126 -712q-13 5 -24 5q-6 0 -11 -1.5t-11 -3.5zM55 616l-4 2l-63 -37q-5 5 -11 10.5t-13 8.5l-2 10q34 12 70 28.5t63 33.5h11q5 -38 12 -77t16 -79
l21 -100q16 -77 39 -156q-20 5 -35 5q-16 0 -33 -5q-6 41 -13 79.5t-15 76.5z" />
    <glyph glyph-name="onehalf" unicode="&#xbd;" horiz-adv-x="749" 
d="M385 684q13 -5 24 -5q6 0 11 1.5t11 3.5l-126 -712q-13 5 -24 5q-6 0 -11 -1.5t-11 -3.5zM55 616l-4 2l-63 -37q-5 5 -11 10.5t-13 8.5l-2 10q34 12 70 28.5t63 33.5h11q5 -38 12 -77t16 -79l21 -100q16 -77 39 -156q-20 5 -35 5q-16 0 -33 -5q-6 41 -13 79.5t-15 76.5z
M473 348q15 31 40.5 45t66.5 14q28 0 53 -6t45 -19t34 -33t20 -48q5 -24 3 -45t-18 -48t-47.5 -65t-84.5 -96l3 -5h48.5t53 0.5t52 1.5t46.5 3v-13t2 -13q3 -12 9 -26q-35 2 -70.5 3.5t-70.5 1.5t-69 -1.5t-69 -3.5l-3 15q39 45 70 81.5t51.5 69.5t28.5 65.5t0 71.5
q-10 45 -36 65t-55 20q-21 0 -34.5 -6.5t-21 -16t-10.5 -20.5t-3 -20l-4 -2z" />
    <glyph glyph-name="threequarters" unicode="&#xbe;" horiz-adv-x="803" 
d="M506 126q38 69 76.5 137.5t77.5 137.5q5 -2 12 -3t15 -1t14 1t11 3q10 -64 22.5 -128t26.5 -128q14 0 30 1.5t27 4.5v-12t1 -11q3 -12 9 -24q-11 2 -26 3t-33 1q6 -29 13 -56.5t15 -56.5q-18 5 -34 5q-14 0 -32 -5q-4 29 -8.5 56.5t-10.5 56.5q-29 0 -59 -0.5t-56.5 -1
t-49 -1t-36.5 -1.5zM663 338l-2 3q-26 -48 -52.5 -95.5t-46.5 -95.5l3 -5h139zM440 684q13 -5 24 -5q6 0 11 1.5t11 3.5l-126 -712q-13 5 -24 5q-6 0 -11 -1.5t-11 -3.5zM29 318h5q13 -11 37.5 -23t55.5 -12q47 0 68.5 27t13.5 69q-5 25 -16 41.5t-24.5 26.5t-29 14.5
t-30.5 4.5q-12 0 -22 -2t-18 -4q1 8 0 17q-3 12 -7 20q17 -7 34 -7q21 0 33 8.5t17 21.5t5 28.5t-3 30.5q-8 35 -32 52t-50 17t-42.5 -13t-19.5 -30l-4 -1l-22 32q11 12 32 24t65 12q48 0 86 -21.5t48 -66.5q5 -22 0.5 -39.5t-14.5 -30t-24 -20.5t-28 -11v-2q17 -1 37.5 -6
t39 -15.5t33 -28.5t20.5 -45q12 -57 -26 -92t-113 -35q-36 0 -62 6.5t-45 14.5z" />
    <glyph glyph-name="questiondown" unicode="&#xbf;" horiz-adv-x="286" 
d="M71 264q2 5 4.5 13t1.5 15q12 5 34 5q12 0 31.5 -6t39.5 -19t36.5 -34t22.5 -52q7 -33 0 -60.5t-21 -51t-32 -44.5t-32.5 -42.5t-22 -45t-1.5 -50.5q4 -19 15 -34.5t25 -26t30.5 -16t32.5 -5.5q27 0 48 13t33 33l17 -50q-17 -12 -39 -22.5t-57 -10.5q-36 0 -66 10.5
t-52.5 28.5t-37 42t-20.5 51q-8 35 -1 64.5t21.5 54.5t33 47.5t33.5 44.5t23 45t3 49q-4 20 -21 39.5t-43 19.5q-12 0 -20.5 -3.5t-12.5 -5.5zM42 426q-5 23 8.5 40t36.5 17t43.5 -17t25.5 -40t-8.5 -40t-36.5 -17t-43.5 17t-25.5 40z" />
    <glyph glyph-name="Agrave" unicode="&#xc0;" horiz-adv-x="662" 
d="M298 698q37 -58 79 -125t86 -136.5t86.5 -137t80.5 -126.5t68.5 -105t49.5 -73q-14 2 -27 3.5t-27 1.5t-26.5 -1.5t-25.5 -3.5q-13 26 -31.5 58.5t-40.5 68t-44.5 72t-43.5 69.5q-32 1 -65 1.5t-66 0.5q-31 0 -61 -0.5t-61 -1.5q-15 -78 -26 -149t-14 -119q-11 2 -20 3.5
t-18 1.5q-16 0 -36 -5q43 177 84 351t80 352h19zM293 563l-55 -254q26 0 54.5 -1t54.5 -1q28 0 55.5 0.5t55.5 1.5zM135 825q-14 8 -28 18.5t-18 28.5q-4 16 6 24t20 8q11 0 24 -6.5t26 -17.5l179 -149h-42z" />
    <glyph glyph-name="Aacute" unicode="&#xc1;" horiz-adv-x="663" 
d="M289 698q37 -58 79 -125t86 -136.5t86.5 -137t80.5 -126.5t68.5 -105t49.5 -73q-14 2 -27 3.5t-27 1.5t-26.5 -1.5t-25.5 -3.5q-13 26 -31.5 58.5t-40.5 68t-44.5 72t-43.5 69.5q-32 1 -65 1.5t-66 0.5q-31 0 -61 -0.5t-61 -1.5q-15 -78 -26 -149t-14 -119q-11 2 -20 3.5
t-18 1.5q-16 0 -36 -5q43 177 84 351t80 352h19zM284 563l-55 -254q26 0 54.5 -1t54.5 -1q28 0 55.5 0.5t55.5 1.5zM313 880q8 11 18.5 17.5t21.5 6.5q10 0 23 -8t17 -24q4 -18 -6 -28.5t-20 -18.5l-127 -94h-42z" />
    <glyph glyph-name="Acircumflex" unicode="&#xc2;" horiz-adv-x="668" 
d="M295 698q37 -58 79.5 -125t86 -136.5t86.5 -137t80.5 -126.5t68 -105t49.5 -73q-14 2 -27 3.5t-27 1.5t-26 -1.5t-26 -3.5q-12 26 -31 58.5t-41 68t-44.5 72t-43.5 69.5q-32 1 -65 1.5t-66 0.5q-31 0 -61 -0.5t-61 -1.5q-15 -78 -26 -149t-14 -119q-22 5 -38 5
q-9 0 -17.5 -1.5t-18.5 -3.5q44 177 84.5 351t79.5 352h19zM291 563l-55 -254q26 0 54 -1t54 -1q28 0 56 0.5t56 1.5zM250 836l-97 -105h-37l87 167h67l159 -167h-37z" />
    <glyph glyph-name="Atilde" unicode="&#xc3;" horiz-adv-x="662" 
d="M288 698q37 -58 79.5 -125t86.5 -136.5t86.5 -137t80.5 -126.5t68.5 -105t49.5 -73q-14 2 -27 3.5t-27 1.5t-26.5 -1.5t-25.5 -3.5q-13 26 -31.5 58.5t-40.5 68t-44.5 72t-43.5 69.5q-32 1 -65.5 1.5t-66.5 0.5q-31 0 -60.5 -0.5t-60.5 -1.5q-15 -78 -26.5 -149
t-13.5 -119q-11 2 -20 3.5t-18 1.5q-16 0 -36 -5q43 177 83.5 351t79.5 352h19zM284 563l-55 -254q26 0 54 -1t54 -1q28 0 56 0.5t56 1.5zM96 756q-1 18 3 36t13.5 33t25.5 24.5t40 9.5q17 0 32 -5t46 -18q31 -14 44.5 -18.5t26.5 -4.5q23 0 33.5 15t12.5 35h29
q1 -12 -1.5 -30t-11.5 -35.5t-26 -29.5t-47 -12q-14 0 -32.5 5t-44.5 18q-29 14 -43.5 18.5t-26.5 4.5q-23 0 -31 -10t-12 -36h-30z" />
    <glyph glyph-name="Adieresis" unicode="&#xc4;" horiz-adv-x="661" 
d="M288 698q37 -58 79.5 -125t86 -136.5t86.5 -137t80.5 -126.5t68 -105t49.5 -73q-14 2 -27 3.5t-27 1.5t-26 -1.5t-26 -3.5q-12 26 -31 58.5t-41 68t-44.5 72t-43.5 69.5q-32 1 -65 1.5t-66 0.5q-31 0 -61 -0.5t-61 -1.5q-15 -78 -26 -149t-14 -119q-22 5 -38 5
q-9 0 -17.5 -1.5t-18.5 -3.5q44 177 84.5 351t79.5 352h19zM284 563l-55 -254q26 0 54 -1t54 -1q28 0 56 0.5t56 1.5zM296 809q-5 21 7 36t33 15t39 -15t23 -36t-7 -36t-33 -15t-39 15t-23 36zM99 809q-5 21 7 36t33 15t39 -15t23 -36t-7 -36t-33 -15t-39 15t-23 36z" />
    <glyph glyph-name="Aring" unicode="&#xc5;" horiz-adv-x="667" 
d="M297 698q37 -58 79.5 -125t86.5 -136.5t86.5 -137t80.5 -126.5t68.5 -105t49.5 -73q-14 2 -27 3.5t-27 1.5t-26.5 -1.5t-25.5 -3.5q-13 26 -31.5 58.5t-40.5 68t-44.5 72t-43.5 69.5q-32 1 -65.5 1.5t-66.5 0.5q-31 0 -60.5 -0.5t-60.5 -1.5q-15 -78 -26.5 -149
t-13.5 -119q-11 2 -20 3.5t-18 1.5q-16 0 -36 -5q43 177 83.5 351t79.5 352h19zM293 563l-55 -254q26 0 54 -1t54 -1q28 0 56 0.5t56 1.5zM154 817q-5 21 -0.5 39.5t15.5 32.5t28 22t38 8t41.5 -8t37 -22t28.5 -32.5t17 -39.5q4 -21 0 -39.5t-15 -32.5t-28 -22t-38 -8
t-41.5 8t-37 22t-29 32.5t-16.5 39.5zM196 817q5 -25 26.5 -42.5t46.5 -17.5q26 0 39.5 17.5t8.5 42.5t-26.5 42.5t-46.5 17.5q-26 0 -39.5 -17.5t-8.5 -42.5z" />
    <glyph glyph-name="AE" unicode="&#xc6;" horiz-adv-x="829" 
d="M255 252q-26 -65 -47 -128.5t-38 -128.5q-11 2 -21 3.5t-21 1.5q-21 0 -44 -5q32 65 69.5 149t77.5 175.5t79.5 185.5t75.5 180q43 -2 85 -3.5t85 -1.5q42 0 83.5 1.5t81.5 3.5q-1 -14 2 -31q3 -15 11 -31q-15 3 -31.5 5.5t-42 5t-66 3.5t-103.5 1q8 -44 15.5 -87.5
t16.5 -87.5l18 -82q61 0 98.5 0.5t61 1.5t37 2.5t26.5 2.5q-2 -16 1 -28q3 -14 11 -28q-14 1 -28 2.5t-38 2.5t-61.5 1.5t-98.5 0.5l21 -101q11 -49 23 -98l24 -98q109 0 165.5 3.5t79.5 7.5q-2 -16 1 -29q2 -8 4.5 -14.5t6.5 -14.5q-45 2 -87.5 3.5t-84.5 1.5
q-43 0 -85.5 -1.5t-84.5 -3.5q-8 63 -20 125.5t-26 125.5zM411 607h-11l-132 -313l211 -6z" />
    <glyph glyph-name="Ccedilla" unicode="&#xc7;" horiz-adv-x="629" 
d="M389 -18q-78 8 -151 42.5t-129 92t-89.5 137t-33.5 177.5q0 64 21.5 114t61.5 84t97 51.5t128 17.5q65 0 123.5 -13.5t103.5 -32.5q-4 -9 -4.5 -22.5t-0.5 -27.5v-28l-5 -2q-13 12 -34 27t-48 29t-59.5 23.5t-67.5 9.5q-49 0 -89.5 -13t-70 -40t-45.5 -68t-16 -98
q0 -45 12 -102q18 -83 52 -143.5t79.5 -100t100 -58.5t113.5 -19q36 0 65 9t52 21.5t40 27t29 25.5l4 -4l4 -59q-8 -8 -25.5 -17.5t-43 -18.5t-58 -15t-69.5 -6h-12l-8 -61q5 2 11.5 3.5t16.5 1.5q43 0 71.5 -24.5t28.5 -62.5q0 -35 -30 -52t-73 -17q-31 0 -54 6t-38 11
l7 32q12 -5 31.5 -8.5t42.5 -3.5q22 0 37 8.5t15 25.5q0 26 -19.5 37t-40.5 11q-33 0 -42 -7l-8 7z" />
    <glyph glyph-name="Egrave" unicode="&#xc8;" horiz-adv-x="402" 
d="M49 427q-14 65 -30 129.5t-32 128.5q45 -2 89.5 -3.5t89.5 -1.5t89 1.5t88 3.5q0 -8 1 -15t3 -15q3 -15 9 -30q-32 2 -59 4.5t-57 4.5t-65.5 3t-84.5 1q6 -32 10.5 -61t12.5 -66q8 -39 16.5 -76t12.5 -56q44 0 79 1t64 2.5t52.5 3t45.5 3.5q0 -8 1 -15.5t3 -15.5
q3 -15 9 -30q-26 3 -61 4.5t-70 2.5t-65.5 1.5t-48.5 0.5q1 -9 3.5 -19.5t5.5 -26t8 -39.5t13 -60q12 -57 20.5 -94t13.5 -56q33 0 70.5 0.5t73.5 1.5t68 3.5t55 7.5q0 -7 1 -15.5t3 -15.5t4 -14.5t5 -14.5q-45 2 -90 3.5t-91 1.5t-91 -1.5t-90 -3.5q-11 66 -22 130.5
t-25 129.5zM13 825q-14 8 -27.5 18.5t-17.5 28.5q-4 16 6 24t20 8q11 0 23.5 -6.5t25.5 -17.5l179 -149h-42z" />
    <glyph glyph-name="Eacute" unicode="&#xc9;" horiz-adv-x="401" 
d="M38 427q-14 65 -29.5 129.5t-32.5 128.5q45 -2 89.5 -3.5t89.5 -1.5t89 1.5t88 3.5q0 -8 1 -15t3 -15q3 -15 9 -30q-32 2 -59 4.5t-57 4.5t-65.5 3t-84.5 1q6 -32 10.5 -61t12.5 -66q8 -39 16.5 -76t12.5 -56q44 0 79 1t64 2.5t52.5 3t45.5 3.5q0 -8 1 -15.5t3 -15.5
q3 -15 9 -30q-26 3 -61 4.5t-70 2.5t-65.5 1.5t-48.5 0.5q1 -9 3.5 -19.5t5.5 -26t8 -39.5t13 -60q12 -57 20.5 -94t13.5 -56q33 0 70.5 0.5t73.5 1.5t68 3.5t55 7.5q0 -7 1 -15.5t3 -15.5t4 -14.5t5 -14.5q-45 2 -90 3.5t-91 1.5t-91 -1.5t-90 -3.5q-11 66 -22 130.5
t-25 129.5zM189 880q8 11 18.5 17.5t21.5 6.5q10 0 23 -8t17 -24q4 -18 -6 -28.5t-20 -18.5l-127 -94h-42z" />
    <glyph glyph-name="Ecircumflex" unicode="&#xca;" horiz-adv-x="408" 
d="M47 427q-14 65 -30 129.5t-32 128.5q45 -2 89.5 -3.5t89.5 -1.5t88.5 1.5t88.5 3.5q0 -15 3 -30t9 -30q-32 2 -59 4.5t-56.5 4.5t-65 3t-84.5 1q6 -32 10.5 -61t12.5 -66q8 -39 16 -76t13 -56q44 0 79 1t64 2.5t52.5 3t45.5 3.5q0 -16 3 -31q3 -17 10 -30
q-27 3 -61.5 4.5t-69.5 2.5t-65.5 1.5t-48.5 0.5q1 -9 3 -19.5t5.5 -26t8 -39.5t12.5 -60q13 -57 21 -94t13 -56q33 0 70.5 0.5t74 1.5t68.5 3.5t55 7.5q0 -7 0.5 -15.5t2.5 -15.5t4 -14.5t5 -14.5q-45 2 -90 3.5t-91 1.5t-90.5 -1.5t-90.5 -3.5q-11 66 -22 130.5t-25 129.5
zM128 836l-97 -105h-36l86 167h67l159 -167h-37z" />
    <glyph glyph-name="Edieresis" unicode="&#xcb;" horiz-adv-x="407" 
d="M43 427q-14 65 -30 129.5t-32 128.5q45 -2 89.5 -3.5t89.5 -1.5t88.5 1.5t88.5 3.5q0 -15 3 -30t9 -30q-32 2 -59 4.5t-56.5 4.5t-65 3t-84.5 1q6 -32 10.5 -61t12.5 -66q8 -39 16 -76t13 -56q44 0 79 1t64 2.5t52.5 3t45.5 3.5q0 -16 3 -31q3 -17 10 -30
q-27 3 -61.5 4.5t-69.5 2.5t-65.5 1.5t-48.5 0.5q1 -9 3 -19.5t5.5 -26t8 -39.5t12.5 -60q13 -57 21 -94t13 -56q33 0 70.5 0.5t74 1.5t68.5 3.5t55 7.5q-1 -7 0 -15.5t3 -15.5t4 -14.5t5 -14.5q-45 2 -90 3.5t-91 1.5t-90.5 -1.5t-90.5 -3.5q-11 66 -22 130.5t-25 129.5z
M177 809q-5 21 7 36t33 15t39 -15t23 -36t-7 -36t-33 -15t-39 15t-23 36zM-19 809q-5 21 7 36t32 15q21 0 39 -15t23 -36t-7 -36t-33 -15t-38.5 15t-22.5 36z" />
    <glyph glyph-name="Igrave" unicode="&#xcc;" horiz-adv-x="254" 
d="M126 426q-14 65 -30 129.5t-33 129.5q14 -2 26 -3.5t24 -1.5t24 1.5t24 3.5q11 -65 22 -129.5t25 -129.5l37 -172q14 -65 30 -129.5t33 -129.5q-14 2 -26 3.5t-24 1.5t-24 -1.5t-24 -3.5q-11 65 -22 129.5t-25 129.5zM-36 825q-14 8 -28 18.5t-18 28.5q-4 16 6 24t20 8
q11 0 24 -6.5t26 -17.5l178 -149h-42z" />
    <glyph glyph-name="Iacute" unicode="&#xcd;" horiz-adv-x="253" 
d="M52 426q-14 65 -29.5 129.5t-32.5 129.5q13 -2 25 -3.5t24 -1.5t24 1.5t24 3.5q11 -65 22 -129.5t25 -129.5l37 -172q14 -65 30 -129.5t33 -129.5q-14 2 -26 3.5t-24 1.5t-24 -1.5t-24 -3.5q-11 65 -22 129.5t-25 129.5zM76 880q8 11 18.5 17.5t21.5 6.5q10 0 23 -8
t17 -24q4 -18 -6 -28.5t-20 -18.5l-127 -94h-41z" />
    <glyph glyph-name="Icircumflex" unicode="&#xce;" horiz-adv-x="336" 
d="M130 426q-14 65 -30 129.5t-33 129.5q28 -5 50 -5q12 0 23.5 1.5t24.5 3.5q11 -65 22 -129.5t25 -129.5l36 -172q14 -65 30 -129.5t33 -129.5q-28 5 -50 5q-12 0 -23.5 -1.5t-24.5 -3.5q-11 65 -22 129.5t-25 129.5zM84 836l-96 -105h-37l86 167h67l159 -167h-37z" />
    <glyph glyph-name="Idieresis" unicode="&#xcf;" horiz-adv-x="319" 
d="M118 426q-14 65 -30 129.5t-33 129.5q28 -5 50 -5q12 0 23.5 1.5t24.5 3.5q11 -65 22 -129.5t25 -129.5l36 -172q14 -65 30 -129.5t33 -129.5q-28 5 -50 5q-12 0 -23.5 -1.5t-24.5 -3.5q-11 65 -22 129.5t-25 129.5zM125 809q-5 21 7 36t33 15t39 -15t23 -36t-7 -36
t-33 -15t-39 15t-23 36zM-71 809q-5 21 7 36t33 15t38.5 -15t22.5 -36t-7 -36t-32 -15q-21 0 -39 15t-23 36z" />
    <glyph glyph-name="Eth" unicode="&#xd0;" horiz-adv-x="780" 
d="M224 254q11 -54 24 -107t27 -105q22 -5 58.5 -7.5t74.5 -2.5q55 0 107 13t88.5 49t50.5 98.5t-7 161.5q-19 87 -52 143t-78 88.5t-100 45t-116 12.5q-45 0 -83.5 -3t-68.5 -7q15 -98 38 -207l5 -24q48 0 97 0.5t95 2.5q-1 -5 -0.5 -10.5t1.5 -10.5q2 -6 3.5 -11.5
t4.5 -11.5q-47 2 -96 3t-97 1zM105 426q-14 65 -30 129.5t-33 129.5q38 -2 76 -3.5t76 -1.5t75 2.5t75 2.5q88 0 155.5 -23t116.5 -65.5t80.5 -104t48.5 -138.5q21 -100 1 -168.5t-64.5 -111t-105 -61t-119.5 -18.5q-34 0 -67.5 2.5t-67.5 2.5t-67 -1.5t-66 -3.5
q-11 65 -22 129.5t-25 129.5l-24 111h-46.5t-50.5 -2q-1 5 -1 10.5t-2 10.5q-1 5 -2.5 10t-3.5 10q28 -2 51.5 -2h46.5z" />
    <glyph glyph-name="Ntilde" unicode="&#xd1;" horiz-adv-x="661" 
d="M695 -18q-143 135 -304 275.5t-319 277.5q5 -28 14.5 -75.5t26.5 -127.5q4 -21 11 -52t15 -65t16 -69t15.5 -65t13.5 -53t9 -33q-18 5 -36 5q-9 0 -17.5 -1.5t-18.5 -3.5q0 12 -4 39.5t-9.5 65t-12.5 81.5t-14.5 88t-15.5 86t-15 75q-20 95 -35.5 164.5t-23.5 103.5h15
q75 -66 160.5 -141.5t169.5 -149t159.5 -139t131.5 -111.5q-14 67 -29 136.5t-30 137t-30.5 132t-30.5 122.5q18 -5 35 -5q8 0 15.5 1.5t15.5 3.5q2 -22 8.5 -66t15 -94t17 -98t14.5 -77q8 -38 20 -94t24 -111.5t22.5 -100.5t14.5 -62h-14zM111 756q-1 18 3 36t13.5 33
t25.5 24.5t40 9.5q17 0 32 -5t46 -18q30 -14 43.5 -18.5t26.5 -4.5q23 0 34 15t13 35h29q1 -12 -1.5 -30t-11.5 -35.5t-26 -29.5t-47 -12q-14 0 -32.5 5t-44.5 18q-29 14 -43.5 18.5t-26.5 4.5q-23 0 -31.5 -10t-11.5 -36h-30z" />
    <glyph glyph-name="Ograve" unicode="&#xd2;" horiz-adv-x="793" 
d="M696 340q-18 83 -52 143.5t-79.5 100t-100 58.5t-113.5 19t-105 -19t-75 -58.5t-37.5 -100t9.5 -143.5t52 -143.5t80 -100t100 -58.5t113 -19t105.5 19t75.5 58.5t37 100t-10 143.5zM45 340q-18 85 -4.5 151.5t53.5 112.5t103 70t146 24t157 -24t133.5 -70t101 -112.5
t59.5 -151.5t5 -151.5t-53 -112.5t-104 -70t-147 -24t-156.5 24t-132.5 70t-101 112.5t-60 151.5zM196 825q-14 8 -28 18.5t-18 28.5q-3 16 7 24t20 8q11 0 24 -6.5t26 -17.5l178 -149h-42z" />
    <glyph glyph-name="Oacute" unicode="&#xd3;" horiz-adv-x="793" 
d="M692 340q-18 83 -52 143.5t-79.5 100t-100 58.5t-113.5 19t-105 -19t-75 -58.5t-37.5 -100t9.5 -143.5t52 -143.5t80 -100t100 -58.5t113 -19t105.5 19t75.5 58.5t37 100t-10 143.5zM41 340q-18 85 -4.5 151.5t53.5 112.5t103 70t146 24t157 -24t133.5 -70t101 -112.5
t59.5 -151.5t5 -151.5t-53 -112.5t-104 -70t-147 -24t-156.5 24t-132.5 70t-101 112.5t-60 151.5zM380 880q8 11 18.5 17.5t21.5 6.5q10 0 23 -8t16 -24q4 -18 -5.5 -28.5t-20.5 -18.5l-127 -94h-42z" />
    <glyph glyph-name="Ocircumflex" unicode="&#xd4;" horiz-adv-x="797" 
d="M696 340q-18 83 -52 143.5t-79.5 100t-100 58.5t-113.5 19t-105 -19t-75 -58.5t-37.5 -100t9.5 -143.5t52 -143.5t79.5 -100t99.5 -58.5t113 -19t105.5 19t75.5 58.5t37.5 100t-9.5 143.5zM45 340q-18 85 -4.5 151.5t53.5 112.5t103 70t146 24t157 -24t133.5 -70
t101 -112.5t59.5 -151.5t4.5 -151.5t-53 -112.5t-103.5 -70t-147 -24t-156.5 24t-133 70t-101 112.5t-59.5 151.5zM313 836l-96 -105h-37l87 167h67l159 -167h-37z" />
    <glyph glyph-name="Otilde" unicode="&#xd5;" horiz-adv-x="797" 
d="M692 340q-18 83 -52 143.5t-79.5 100t-100 58.5t-113.5 19t-105 -19t-75 -58.5t-37.5 -100t9.5 -143.5t52 -143.5t79.5 -100t99.5 -58.5t113 -19t105.5 19t75.5 58.5t37.5 100t-9.5 143.5zM41 340q-18 85 -4.5 151.5t53.5 112.5t103 70t146 24t157 -24t133.5 -70
t101 -112.5t59.5 -151.5t4.5 -151.5t-53 -112.5t-103.5 -70t-147 -24t-156.5 24t-133 70t-101 112.5t-59.5 151.5zM163 756q-1 18 3 36t13.5 33t25.5 24.5t40 9.5q17 0 32 -5t46 -18q30 -14 43.5 -18.5t26.5 -4.5q23 0 34 15t13 35h29q1 -12 -1.5 -30t-11.5 -35.5t-26 -29.5
t-47 -12q-14 0 -32.5 5t-44.5 18q-29 14 -43.5 18.5t-26.5 4.5q-23 0 -31.5 -10t-11.5 -36h-30z" />
    <glyph glyph-name="Odieresis" unicode="&#xd6;" horiz-adv-x="797" 
d="M692 340q-18 83 -52 143.5t-80 100t-100.5 58.5t-113.5 19t-105 -19t-74.5 -58.5t-37 -100t9.5 -143.5t52 -143.5t79.5 -100t99.5 -58.5t113 -19t105.5 19t75.5 58.5t37.5 100t-9.5 143.5zM41 340q-18 85 -4.5 151.5t53 112.5t103 70t146.5 24t157 -24t133 -70
t101 -112.5t60 -151.5t4.5 -151.5t-53 -112.5t-103.5 -70t-147 -24t-156.5 24t-133 70t-101 112.5t-59.5 151.5zM363 809q-5 21 7 36t33 15t39 -15t23 -36t-7 -36t-33 -15t-39 15t-23 36zM166 809q-5 21 7 36t33 15t39 -15t23 -36t-7 -36t-33 -15t-39 15t-23 36z" />
    <glyph glyph-name="multiply" unicode="&#xd7;" horiz-adv-x="518" 
d="M222 253l-223 185l29 36l223 -184l146 184l43 -36l-144 -185l223 -184l-29 -37l-224 184l-145 -184l-44 37z" />
    <glyph glyph-name="Oslash" unicode="&#xd8;" horiz-adv-x="809" 
d="M550 582q-45 41 -100 60t-115 19q-59 0 -105 -19t-75 -58.5t-37.5 -100t9.5 -143.5q15 -73 43 -128.5t66 -93.5zM29 340q-18 85 -4.5 151.5t53.5 112.5t103 70t146 24q145 0 255 -70q7 9 17 24t20 30.5t18 29.5t10 20q5 -6 14.5 -12.5t18.5 -11.5q-5 -4 -14.5 -16
t-20 -26.5t-21 -29.5l-17.5 -25q63 -46 107.5 -114t63.5 -157q18 -85 4.5 -151.5t-53 -112.5t-103.5 -70t-147 -24q-70 0 -133.5 17.5t-117.5 50.5q-8 -11 -18 -26t-19.5 -30t-18 -28.5t-11.5 -22.5q-7 8 -15.5 13.5t-17.5 10.5q4 4 13 15.5t19.5 26.5t21.5 31t19 28
q-64 45 -108.5 113.5t-63.5 158.5zM259 96q45 -39 99 -58t113 -19t105.5 19t75.5 58.5t37.5 100t-9.5 143.5q-15 72 -42.5 126t-64.5 94z" />
    <glyph glyph-name="Ugrave" unicode="&#xd9;" horiz-adv-x="643" 
d="M573 360q-30 142 -47.5 219t-27.5 106q23 -5 42 -5q16 0 29 5q4 -35 11.5 -83.5t17 -104t20 -114t21.5 -113.5q13 -66 5 -119.5t-36.5 -91t-77 -57.5t-115.5 -20q-149 0 -232 70t-114 216q-10 47 -15.5 83.5t-13.5 74.5q-17 83 -33 149t-27 110q28 -5 52 -5q22 0 42 5
q3 -22 8.5 -57.5t13 -80.5t17.5 -97.5t22 -107.5q7 -34 16 -70.5t22.5 -71t33.5 -66t49.5 -55t70.5 -37t97 -13.5q55 0 89 16t53 42t25 60t4 71t-8.5 73.5t-13.5 68.5zM124 825q-14 8 -28 18.5t-18 28.5q-3 16 7 24t20 8q11 0 24 -6.5t26 -17.5l178 -149h-42z" />
    <glyph glyph-name="Uacute" unicode="&#xda;" horiz-adv-x="642" 
d="M566 360q-30 142 -47.5 219t-27.5 106q23 -5 42 -5q16 0 29 5q4 -35 11.5 -83.5t17 -104t20 -114t21.5 -113.5q13 -66 5 -119.5t-36.5 -91t-77 -57.5t-115.5 -20q-149 0 -232 70t-114 216q-10 47 -15.5 83.5t-13.5 74.5q-17 83 -33 149t-27 110q28 -5 52 -5q22 0 42 5
q3 -22 8.5 -57.5t13 -80.5t17.5 -97.5t22 -107.5q7 -34 16 -70.5t22.5 -71t33.5 -66t49.5 -55t70.5 -37t97 -13.5q55 0 89 16t53 42t25 60t4 71t-8.5 73.5t-13.5 68.5zM305 880q8 11 18.5 17.5t21.5 6.5q10 0 23 -8t16 -24q4 -18 -5.5 -28.5t-20.5 -18.5l-127 -94h-42z" />
    <glyph glyph-name="Ucircumflex" unicode="&#xdb;" horiz-adv-x="647" 
d="M572 360q-31 142 -48 219t-28 106q23 -5 42 -5q16 0 29 5q4 -35 12 -83.5t17.5 -104t20 -114t21.5 -113.5q13 -66 5 -119.5t-36.5 -91t-77 -57.5t-115.5 -20q-149 0 -232.5 70t-114.5 216q-10 47 -15.5 83.5t-13.5 74.5q-17 83 -33 149t-27 110q28 -5 52 -5q22 0 42 5
q3 -22 8.5 -57.5t13 -80.5t17.5 -97.5t22 -107.5q7 -34 16 -70.5t22.5 -71t33.5 -66t50 -55t71 -37t97 -13.5q55 0 89 16t52.5 42t24.5 60t4.5 71t-8.5 73.5t-13 68.5zM240 836l-96 -105h-37l87 167h67l159 -167h-37z" />
    <glyph glyph-name="Udieresis" unicode="&#xdc;" horiz-adv-x="648" 
d="M567 360q-30 142 -47 219t-28 106q23 -5 42 -5q16 0 29 5q4 -35 12 -83.5t17.5 -104t20 -114t21.5 -113.5q13 -66 5 -119.5t-36.5 -91t-77 -57.5t-115.5 -20q-149 0 -232.5 70t-114.5 216q-10 47 -15.5 83.5t-13.5 74.5q-17 83 -33 149t-27 110q28 -5 52 -5q22 0 42 5
q3 -22 8.5 -57.5t13 -80.5t17.5 -97.5t22 -107.5q7 -34 16 -70.5t22.5 -71t33.5 -66t50 -55t71 -37t97 -13.5q55 0 89 16t52.5 42t24.5 60t4 71t-8.5 73.5t-13.5 68.5zM290 809q-5 21 7 36t33 15t39 -15t23 -36t-7 -36t-33 -15t-39 15t-23 36zM93 809q-5 21 7 36t33 15
t39 -15t23 -36t-7 -36t-33 -15t-39 15t-23 36z" />
    <glyph glyph-name="Yacute" unicode="&#xdd;" horiz-adv-x="582" 
d="M284 279q-14 17 -40 49.5t-57.5 72.5t-67 83.5t-67 82.5t-57.5 70.5t-40 47.5q14 -2 28 -3.5t27 -1.5q26 0 54 5q63 -86 128 -171t136 -175q15 36 31 79t31 88t28.5 90.5t24.5 88.5q23 -5 40 -5q18 0 38 5q-32 -73 -57 -132t-44.5 -107t-33.5 -86.5t-23 -69.5
q8 -37 17.5 -79t19 -82t18.5 -75.5t16 -58.5q-14 2 -26 3.5t-24 1.5t-24 -1.5t-24 -3.5q-5 54 -20 128.5t-32 155.5zM277 870q8 11 18.5 17.5t21.5 6.5q10 0 23 -8t17 -24q4 -18 -5.5 -28.5t-20.5 -18.5l-127 -94h-42z" />
    <glyph glyph-name="Thorn" unicode="&#xde;" horiz-adv-x="474" 
d="M154 232q13 -2 34.5 -3t44.5 -1q32 0 60.5 9t48.5 27.5t28 47t0 67.5q-5 25 -18.5 50t-36 44.5t-55.5 31.5t-77 12h-89zM31 426q-14 65 -29.5 129.5t-32.5 129.5q14 -2 25.5 -3.5t23.5 -1.5t24 1.5t24 3.5q5 -33 9 -65.5t11 -65.5h123q101 0 167 -41.5t86 -132.5
q12 -55 -2.5 -91.5t-45 -58t-72.5 -30.5t-86 -9q-27 0 -49.5 1t-44.5 3l12 -56q5 -22 10 -43.5t10 -41t10 -35t9 -24.5q-14 2 -26 3.5t-24 1.5t-24 -1.5t-24 -3.5q-11 65 -22 129.5t-25 129.5z" />
    <glyph glyph-name="germandbls" unicode="&#xdf;" horiz-adv-x="518" 
d="M35 406q-10 47 -18.5 78.5t-10.5 42.5q-13 62 -2.5 105.5t34.5 70.5t57 39.5t66 12.5q23 0 50 -8t52 -23t43.5 -36t24.5 -46q8 -39 -4 -69t-28.5 -55.5t-30.5 -47.5t-9 -45t24.5 -41t46.5 -34.5t58 -33t59 -37t49 -46.5t29 -61q7 -33 -2.5 -66t-31 -60t-53 -44t-70.5 -17
q-32 0 -59 6.5t-46 16.5q5 11 6.5 28t-0.5 31h5q14 -18 44.5 -31.5t61.5 -13.5q21 0 39 7.5t30 21t17 33.5t0 44q-7 32 -27.5 56t-48.5 43.5t-59 37t-58.5 36t-48 40t-26.5 49.5q-6 29 9.5 55.5t34.5 54t33.5 59t5.5 71.5q-8 40 -40 66.5t-79 26.5q-69 0 -83.5 -52.5
t6.5 -152.5l50 -235q7 -35 16 -74.5t18.5 -78.5t18 -74.5t16.5 -60.5q-25 5 -46 5q-11 0 -22 -1.5t-22 -3.5q-3 25 -9 60.5t-13 74.5t-15.5 78.5t-15.5 74.5z" />
    <glyph glyph-name="agrave" unicode="&#xe0;" horiz-adv-x="463" 
d="M57 425q38 34 73.5 46t75.5 12q36 0 68 -10.5t57.5 -30t43 -47t24.5 -60.5q12 -57 22 -113.5t24 -119.5q3 -12 6 -25.5t9 -24t15.5 -17.5t24.5 -7q5 0 10 0.5t10 3.5l4 -22q-9 -5 -25 -9.5t-36 -4.5q-32 0 -53 18t-29 44q-14 -18 -28.5 -31.5t-31 -23t-36.5 -14t-45 -4.5
t-51 8.5t-48 24.5t-38 38.5t-22 51.5q-13 60 17.5 93t94.5 44q52 9 81 15.5t42 13.5t14 16.5t-2 24.5q-6 25 -16.5 48t-27.5 40t-40 27.5t-53 10.5q-40 0 -70.5 -18t-41.5 -50h-11zM342 247q-24 -9 -59 -14t-65 -16t-48.5 -32.5t-9.5 -62.5q10 -47 42 -71t65 -24q38 0 65 21
t38 49zM53 653q-14 8 -28 18.5t-18 28.5q-4 16 6 24t20 8q11 0 24 -6.5t26 -17.5l179 -149h-42z" />
    <glyph glyph-name="aacute" unicode="&#xe1;" horiz-adv-x="459" 
d="M42 425q38 34 73.5 46t75.5 12q36 0 68 -10.5t57.5 -30t43 -47t24.5 -60.5q12 -57 22 -113.5t24 -119.5q3 -12 6 -25.5t9 -24t15.5 -17.5t24.5 -7q5 0 10 0.5t10 3.5l4 -22q-9 -5 -25 -9.5t-36 -4.5q-32 0 -53 18t-29 44q-14 -18 -28.5 -31.5t-31 -23t-36.5 -14t-45 -4.5
t-51 8.5t-48 24.5t-38 38.5t-22 51.5q-13 60 17.5 93t94.5 44q52 9 81 15.5t42 13.5t14 16.5t-2 24.5q-6 25 -16.5 48t-27.5 40t-40 27.5t-53 10.5q-40 0 -70.5 -18t-41.5 -50h-11zM327 247q-24 -9 -59 -14t-65 -16t-48.5 -32.5t-9.5 -62.5q10 -47 42 -71t65 -24q38 0 65 21
t38 49zM225 708q8 11 18.5 17.5t21.5 6.5q10 0 23 -8t17 -24q4 -18 -5.5 -28.5t-20.5 -18.5l-127 -94h-42z" />
    <glyph glyph-name="acircumflex" unicode="&#xe2;" horiz-adv-x="466" 
d="M52 425q38 34 73 46t75 12q36 0 68 -10.5t57.5 -30t43.5 -47t25 -60.5q12 -57 21.5 -113.5t23.5 -119.5q3 -12 6 -25.5t9 -24t15.5 -17.5t24.5 -7q5 0 10 0.5t10 3.5l5 -22q-10 -5 -25.5 -9.5t-35.5 -4.5q-32 0 -53 18t-29 44q-14 -18 -28.5 -31.5t-31 -23t-37 -14
t-45.5 -4.5t-51 8.5t-48 24.5t-38 38.5t-22 51.5q-13 60 18 93t94 44q52 9 81 15.5t42 13.5t14 16.5t-2 24.5q-5 25 -16 48t-28 40t-40 27.5t-53 10.5q-40 0 -70 -18t-41 -50h-11zM336 247q-16 -6 -37.5 -10t-43.5 -8.5t-42.5 -11.5t-35.5 -19t-22 -30.5t-1 -45.5
q10 -47 42 -71t65 -24q38 0 65 21t38 49zM165 664l-97 -105h-37l88 167h67l158 -167h-37z" />
    <glyph glyph-name="atilde" unicode="&#xe3;" horiz-adv-x="473" 
d="M52 425q38 34 73.5 46t75.5 12q36 0 68 -10.5t57.5 -30t43 -47t24.5 -60.5q12 -57 22 -113.5t24 -119.5q3 -12 6 -25.5t9 -24t15 -17.5t24 -7q5 0 10.5 0.5t10.5 3.5l4 -22q-10 -5 -25.5 -9.5t-35.5 -4.5q-32 0 -53 18t-29 44q-14 -18 -28.5 -31.5t-31 -23t-36.5 -14
t-45 -4.5t-51 8.5t-48 24.5t-38.5 38.5t-22.5 51.5q-13 60 18 93t94 44q52 9 81 15.5t42 13.5t14 16.5t-2 24.5q-5 25 -16 48t-27.5 40t-39.5 27.5t-53 10.5q-40 0 -70.5 -18t-41.5 -50h-11zM337 247q-16 -6 -37.5 -10t-43.5 -8.5t-43 -11.5t-36 -19t-22 -30.5t-1 -45.5
q5 -24 16.5 -41.5t26.5 -29.5t31.5 -18t33.5 -6q38 0 65 21t38 49zM18 584q-1 18 3 36t13.5 33t25.5 24.5t40 9.5q17 0 32 -5t46 -18q31 -14 44.5 -18.5t26.5 -4.5q23 0 33.5 15t12.5 35h29q1 -12 -1.5 -30t-11.5 -35.5t-26 -29.5t-47 -12q-14 0 -32.5 5t-44.5 18
q-29 14 -43.5 18.5t-26.5 4.5q-23 0 -31 -10t-12 -36h-30z" />
    <glyph glyph-name="adieresis" unicode="&#xe4;" horiz-adv-x="471" 
d="M51 425q38 34 73 46t75 12q36 0 68 -10.5t57.5 -30t43.5 -47t25 -60.5q12 -57 21.5 -113.5t23.5 -119.5q3 -12 6 -25.5t9 -24t15.5 -17.5t24.5 -7q5 0 10 0.5t10 3.5l5 -22q-10 -5 -25.5 -9.5t-35.5 -4.5q-32 0 -53 18t-29 44q-14 -18 -28.5 -31.5t-31 -23t-37 -14
t-45.5 -4.5t-51 8.5t-48 24.5t-38 38.5t-22 51.5q-13 60 18 93t94 44q52 9 81 15.5t42 13.5t14 16.5t-2 24.5q-5 25 -16 48t-28 40t-40 27.5t-53 10.5q-40 0 -70.5 -18t-40.5 -50h-11zM335 247q-16 -6 -37.5 -10t-43.5 -8.5t-42.5 -11.5t-35.5 -19t-22 -30.5t-1 -45.5
q10 -47 42 -71t65 -24q38 0 65 21t38 49zM218 637q-5 21 7 36t33 15t39 -15t23 -36q4 -21 -8 -36t-33 -15t-39 15t-22 36zM21 637q-5 21 7 36t33 15t39 -15t23 -36q4 -21 -8 -36t-33 -15t-39 15t-22 36z" />
    <glyph glyph-name="aring" unicode="&#xe5;" horiz-adv-x="465" 
d="M54 425q38 34 73.5 46t75.5 12q36 0 68 -10.5t57.5 -30t43 -47t24.5 -60.5q12 -57 22 -113.5t24 -119.5q3 -12 6 -25.5t9 -24t15 -17.5t24 -7q5 0 10 0.5t10 3.5l5 -22q-10 -5 -25.5 -9.5t-35.5 -4.5q-32 0 -53 18t-29 44q-14 -18 -28.5 -31.5t-31 -23t-37 -14
t-45.5 -4.5t-51 8.5t-48 24.5t-38 38.5t-22 51.5q-13 60 18 93t94 44q52 9 81 15.5t42 13.5t14 16.5t-2 24.5q-5 25 -16 48t-27.5 40t-39.5 27.5t-53 10.5q-40 0 -70.5 -18t-41.5 -50h-11zM339 247q-16 -6 -37.5 -10t-43.5 -8.5t-43 -11.5t-36 -19t-22 -30.5t-1 -45.5
q5 -24 16.5 -41.5t26.5 -29.5t31.5 -18t33.5 -6q38 0 65 21t38 49zM69 645q-5 21 -0.5 39.5t15.5 32.5t28.5 22t38.5 8t41 -8t37 -22t28.5 -32.5t16.5 -39.5q4 -21 0 -39.5t-15 -32.5t-28 -22t-38 -8t-41.5 8t-37 22t-29 32.5t-16.5 39.5zM111 645q5 -25 26.5 -42.5
t46.5 -17.5q26 0 39.5 17.5t8.5 42.5t-26.5 42.5t-46.5 17.5q-26 0 -39.5 -17.5t-8.5 -42.5z" />
    <glyph glyph-name="ae" unicode="&#xe6;" horiz-adv-x="784" 
d="M140 122q9 -43 40 -69t74 -26q20 0 38 6.5t31.5 20t19.5 33t2 46.5q-5 29 -11 57t-11 57q-16 -6 -37.5 -10t-43.5 -8.5t-43 -11.5t-36 -19t-22 -30.5t-1 -45.5zM38 425q38 34 73.5 46t75.5 12q16 0 36 -3t41.5 -11.5t44 -23t44.5 -37.5q19 35 53.5 55t82.5 20
q52 0 94.5 -16.5t74 -44t52 -64.5t29.5 -79q2 -10 3 -19.5t3 -19.5q-54 1 -107 2t-107 1q-33 0 -65.5 -1t-65.5 -2q1 -8 2 -14.5t3 -13.5q8 -39 26.5 -73t46 -58.5t62.5 -39t77 -14.5q40 0 77.5 20.5t57.5 50.5l6 -3l4 -49q-25 -24 -66 -42.5t-88 -18.5q-72 0 -132.5 30.5
t-97.5 88.5q-3 -22 -12.5 -43.5t-28 -38t-47 -27t-70.5 -10.5q-25 0 -51 8.5t-48 24.5t-38 38.5t-22 51.5q-13 60 18 93t94 44q52 9 81 15.5t42 13.5t14 16.5t-2 24.5q-5 25 -16 48t-27.5 40t-39.5 27.5t-53 10.5q-40 0 -70.5 -18t-41.5 -50h-11zM497 451q-37 0 -59 -17
t-33 -42.5t-13 -56t2 -57.5q31 -1 65 -2t66 -1q33 0 66.5 1t65.5 2q-6 27 -17 57t-29.5 56t-46.5 43t-67 17z" />
    <glyph glyph-name="ccedilla" unicode="&#xe7;" horiz-adv-x="473" 
d="M244 -175q12 -5 32 -8.5t43 -3.5q25 0 40 11t11 31q-5 22 -22 31t-38 9q-32 0 -41 -7l-9 7l16 92q-41 3 -83.5 18.5t-79.5 45.5t-66 75t-42 108q-14 65 -2 112t41.5 77.5t72 45t90.5 14.5q55 0 101.5 -13.5t69.5 -30.5q-8 -32 -8 -66h-8q-10 13 -25 26.5t-34 25t-40.5 19
t-45.5 7.5q-45 0 -74 -16.5t-43 -45.5t-15.5 -68.5t8.5 -85.5q22 -103 77.5 -155.5t139.5 -52.5q40 0 77.5 20.5t57.5 50.5l6 -3q0 -12 1 -24.5t3 -24.5q-23 -23 -61 -40.5t-81 -19.5l-9 -59q6 2 12 3.5t16 1.5q39 0 65 -19.5t33 -51.5q9 -42 -21.5 -63.5t-78.5 -21.5
q-31 0 -54.5 6t-38.5 11z" />
    <glyph glyph-name="egrave" unicode="&#xe8;" horiz-adv-x="475" 
d="M54 220q-26 122 18 192.5t155 70.5q52 0 94.5 -16.5t74 -44t52 -64.5t29.5 -79q2 -10 3.5 -19.5t3.5 -19.5q-55 1 -108 2t-107 1q-33 0 -65.5 -1t-64.5 -2q1 -8 2 -14.5t3 -13.5q8 -39 26.5 -73t46 -58.5t62.5 -39t77 -14.5q40 0 77.5 20.5t57.5 50.5l5 -3l5 -49
q-25 -24 -66 -42.5t-88 -18.5q-54 0 -102.5 18t-87.5 49.5t-66 74.5t-37 93zM236 451q-37 0 -59 -17t-33.5 -42.5t-13 -56t2.5 -57.5q31 -1 64.5 -2t65.5 -1q33 0 67 1t66 2q-6 27 -17 57t-30 56t-46.5 43t-66.5 17zM73 653q-14 8 -28 18.5t-18 28.5q-4 16 6 24t20 8
q11 0 24 -6.5t26 -17.5l179 -149h-42z" />
    <glyph glyph-name="eacute" unicode="&#xe9;" horiz-adv-x="477" 
d="M43 220q-26 122 18 192.5t155 70.5q52 0 94.5 -16.5t74 -44t52 -64.5t29.5 -79q2 -10 3.5 -19.5t3.5 -19.5q-55 1 -108 2t-107 1q-33 0 -65.5 -1t-64.5 -2q1 -8 2 -14.5t3 -13.5q8 -39 26.5 -73t46 -58.5t62.5 -39t77 -14.5q40 0 77.5 20.5t57.5 50.5l5 -3l5 -49
q-25 -24 -66 -42.5t-88 -18.5q-54 0 -102.5 18t-87.5 49.5t-66 74.5t-37 93zM225 451q-37 0 -59 -17t-33.5 -42.5t-13 -56t2.5 -57.5q31 -1 64.5 -2t65.5 -1q33 0 67 1t66 2q-6 27 -17 57t-30 56t-46.5 43t-66.5 17zM249 708q8 11 18.5 17.5t21.5 6.5q10 0 23 -8t17 -24
q4 -18 -5.5 -28.5t-20.5 -18.5l-127 -94h-42z" />
    <glyph glyph-name="ecircumflex" unicode="&#xea;" horiz-adv-x="481" 
d="M50 220q-13 61 -8 109.5t26.5 82.5t60.5 52.5t94 18.5q52 0 94.5 -16.5t74.5 -44t52.5 -64.5t29.5 -79l6 -39q-54 1 -107.5 2t-107.5 1q-33 0 -65 -1t-65 -2q1 -8 2 -14.5t3 -13.5q8 -39 26.5 -73t46 -58.5t62.5 -39t77 -14.5q40 0 77.5 20.5t57.5 50.5l6 -3l4 -49
q-25 -24 -66 -42.5t-88 -18.5q-54 0 -102.5 18t-87.5 49.5t-66 74.5t-37 93zM232 451q-37 0 -59 -17t-33 -42.5t-13 -56t2 -57.5q31 -1 65 -2t66 -1q33 0 66.5 1t65.5 2q-6 27 -17 57t-29.5 56t-46.5 43t-67 17zM187 664l-97 -105h-37l88 167h67l158 -167h-37z" />
    <glyph glyph-name="edieresis" unicode="&#xeb;" horiz-adv-x="488" 
d="M49 220q-13 61 -8 109.5t26.5 82.5t60.5 52.5t94 18.5q52 0 94.5 -16.5t74.5 -44t52.5 -64.5t29.5 -79l6 -39q-54 1 -107.5 2t-107.5 1q-33 0 -65 -1t-65 -2q1 -8 2 -14.5t3 -13.5q8 -39 26.5 -73t46 -58.5t62.5 -39t77 -14.5q40 0 77.5 20.5t57.5 50.5l6 -3l4 -49
q-25 -24 -66 -42.5t-88 -18.5q-54 0 -102.5 18t-87.5 49.5t-66 74.5t-37 93zM231 451q-37 0 -59 -17t-33 -42.5t-13 -56t2 -57.5q31 -1 64.5 -2t65.5 -1q33 0 67 1t66 2q-6 27 -17 57t-29.5 56t-46.5 43t-67 17zM240 637q-5 21 7 36t33 15t39 -15t23 -36q4 -21 -8 -36
t-33 -15t-39 15t-22 36zM43 637q-5 21 7 36t33 15t39 -15t23 -36q4 -21 -8 -36t-33 -15t-39 15t-22 36z" />
    <glyph glyph-name="igrave" unicode="&#xec;" horiz-adv-x="251" 
d="M143 286q-10 45 -22 94.5t-26 92.5q12 -2 23.5 -3.5t22.5 -1.5q21 0 44 5q5 -43 13.5 -92.5t18.5 -94.5l22 -104q10 -45 22 -94.5t26 -92.5q-12 2 -23.5 3.5t-22.5 1.5q-21 0 -44 -5q-5 43 -13.5 92.5t-18.5 94.5zM-17 653q-14 8 -28 18.5t-18 28.5q-4 16 6 24t20 8
q11 0 24 -6.5t25 -17.5l179 -149h-42z" />
    <glyph glyph-name="iacute" unicode="&#xed;" horiz-adv-x="251" 
d="M64 286q-10 45 -22 94.5t-26 92.5q12 -2 23.5 -3.5t22.5 -1.5q21 0 44 5q5 -43 13.5 -92.5t18.5 -94.5l22 -104q10 -45 22 -94.5t26 -92.5q-12 2 -23.5 3.5t-22.5 1.5q-21 0 -44 -5q-5 43 -13.5 92.5t-18.5 94.5zM90 708q8 11 18.5 17.5t21.5 6.5q10 0 23 -8t17 -24
q4 -18 -5.5 -28.5t-20.5 -18.5l-127 -94h-41z" />
    <glyph glyph-name="icircumflex" unicode="&#xee;" horiz-adv-x="333" 
d="M144 286q-10 45 -22 94.5t-26 92.5q12 -2 24 -3.5t23 -1.5q20 0 43 5q5 -43 13.5 -92.5t18.5 -94.5l22 -104q10 -45 22 -94.5t26 -92.5q-12 2 -23.5 3.5t-22.5 1.5q-21 0 -44 -5q-5 43 -13.5 92.5t-18.5 94.5zM101 664l-97 -105h-36l87 167h67l158 -167h-37z" />
    <glyph glyph-name="idieresis" unicode="&#xef;" horiz-adv-x="330" 
d="M138 286q-10 45 -22 94.5t-26 92.5q12 -2 24 -3.5t23 -1.5q20 0 43 5q5 -43 13.5 -92.5t18.5 -94.5l22 -104q10 -45 22 -94.5t26 -92.5q-12 2 -23.5 3.5t-22.5 1.5q-21 0 -44 -5q-5 43 -13.5 92.5t-18.5 94.5zM149 637q-5 21 7 36t33 15t39 -15t23 -36t-7.5 -36
t-33.5 -15t-38.5 15t-22.5 36zM-47 637q-5 21 7 36t33 15q20 0 38 -15t23 -36t-7.5 -36t-33.5 -15q-20 0 -37.5 15t-22.5 36z" />
    <glyph glyph-name="eth" unicode="&#xf0;" horiz-adv-x="537" 
d="M456 234q-9 42 -24.5 81t-40 69.5t-58.5 48.5t-78 18t-70 -18t-37.5 -48.5t-11 -69.5t9.5 -81t25 -81t40.5 -69.5t58.5 -48.5t78 -18t70 18t37.5 48.5t10.5 69.5t-10 81zM58 234q-14 68 -2.5 115.5t40 77t68.5 43t84 13.5q13 0 25.5 -1t25.5 -6l2 2q-38 34 -76 66.5
t-80 64.5q-30 -11 -59.5 -22t-61.5 -23q-6 9 -13 18l-14 18q27 8 56.5 16.5t59.5 18.5q-33 26 -68.5 51t-74.5 51l66 18q42 -26 79 -50t69 -47q66 21 117 44q10 -17 28 -35q-30 -8 -57.5 -16t-54.5 -17q76 -54 132.5 -104.5t96 -99t63.5 -97t35 -99.5q15 -68 3.5 -115.5
t-40 -77t-69.5 -43t-84 -13.5q-44 0 -90 13.5t-87 43t-72.5 77t-46.5 115.5z" />
    <glyph glyph-name="ntilde" unicode="&#xf1;" horiz-adv-x="472" 
d="M373 279q-16 74 -53.5 113t-87.5 39q-70 0 -93.5 -43t-6.5 -121l18 -85q9 -45 21 -94.5t26 -92.5q-25 5 -46 5q-11 0 -22 -1.5t-22 -3.5q-5 43 -13.5 92.5t-17.5 94.5l-22 104q-10 45 -22 94.5t-26 92.5q12 -2 23.5 -3.5t22.5 -1.5q16 0 39 5l6 -40t8 -40h2
q19 43 53 66.5t88 23.5q28 0 58 -8t57 -27.5t49 -53t33 -85.5q9 -43 16.5 -88.5t18.5 -96.5q7 -33 14 -65t15 -64q-11 2 -21.5 3.5t-21.5 1.5t-20 -1.5t-20 -3.5q-10 55 -19 110t-21 113l-13 61v0zM20 584q-1 18 3 36t13.5 33t25.5 24.5t40 9.5q17 0 32 -5t46 -18
q31 -14 44.5 -18.5t26.5 -4.5q23 0 34 15t13 35h29q0 -12 -2.5 -30t-11.5 -35.5t-26 -29.5t-47 -12q-14 0 -32.5 5t-44.5 18q-29 14 -43.5 18.5t-26.5 4.5q-23 0 -31 -10t-12 -36h-30z" />
    <glyph glyph-name="ograve" unicode="&#xf2;" horiz-adv-x="528" 
d="M52 234q-15 68 -3.5 115.5t40 77t69 43t84.5 13.5q43 0 89.5 -13.5t87.5 -43t72.5 -77t46.5 -115.5t3.5 -115.5t-40 -77t-69.5 -43t-84 -13.5q-44 0 -90 13.5t-87 43t-72.5 77t-46.5 115.5zM140 234q9 -42 25 -81t40.5 -69.5t58 -48.5t77.5 -18t70 18t37.5 48.5t11 69.5
t-9.5 81t-25 81t-40.5 69.5t-58 48.5t-77.5 18t-70 -18t-37.5 -48.5t-11 -69.5t9.5 -81zM86 653q-14 8 -28 18.5t-18 28.5q-4 16 6 24t20 8q11 0 24 -6.5t26 -17.5l179 -149h-42z" />
    <glyph glyph-name="oacute" unicode="&#xf3;" horiz-adv-x="527" 
d="M41 234q-15 68 -3.5 115.5t40 77t69 43t84.5 13.5q43 0 89.5 -13.5t87.5 -43t72.5 -77t46.5 -115.5t3.5 -115.5t-40 -77t-69.5 -43t-84 -13.5q-44 0 -90 13.5t-87 43t-72.5 77t-46.5 115.5zM129 234q9 -42 25 -81t40.5 -69.5t58 -48.5t77.5 -18t70 18t37.5 48.5t11 69.5
t-9.5 81t-25 81t-40.5 69.5t-58 48.5t-77.5 18t-70 -18t-37.5 -48.5t-11 -69.5t9.5 -81zM262 708q8 11 18.5 17.5t21.5 6.5q10 0 23 -8t17 -24q4 -18 -5.5 -28.5t-20.5 -18.5l-127 -94h-42z" />
    <glyph glyph-name="ocircumflex" unicode="&#xf4;" horiz-adv-x="532" 
d="M48 234q-14 68 -2.5 115.5t40 77t68.5 43t84 13.5q43 0 89.5 -13.5t87.5 -43t73 -77t46 -115.5q15 -68 3.5 -115.5t-40 -77t-69.5 -43t-84 -13.5q-44 0 -90 13.5t-87 43t-72.5 77t-46.5 115.5zM136 234q9 -42 25 -81t40.5 -69.5t58 -48.5t77.5 -18t70 18t37.5 48.5
t11 69.5t-9.5 81t-25 81t-40.5 69.5t-58 48.5t-77.5 18t-70 -18t-37.5 -48.5t-11 -69.5t9.5 -81zM200 664l-97 -105h-37l88 167h67l158 -167h-37z" />
    <glyph glyph-name="otilde" unicode="&#xf5;" horiz-adv-x="537" 
d="M47 234q-15 68 -3.5 115.5t40 77t69 43t84.5 13.5q43 0 89.5 -13.5t87.5 -43t72.5 -77t46.5 -115.5q14 -68 2.5 -115.5t-40 -77t-69 -43t-83.5 -13.5q-44 0 -90 13.5t-87 43t-73 77t-46 115.5zM135 234q9 -42 24.5 -81t40 -69.5t58.5 -48.5t78 -18t70 18t37.5 48.5
t11 69.5t-9.5 81t-25 81t-40.5 69.5t-58.5 48.5t-78 18t-70 -18t-37.5 -48.5t-10.5 -69.5t10 -81zM51 584q-1 18 3 36t13.5 33t25.5 24.5t40 9.5q17 0 32 -5t46 -18q31 -14 44.5 -18.5t26.5 -4.5q23 0 33.5 15t12.5 35h29q1 -12 -1.5 -30t-11.5 -35.5t-26 -29.5t-47 -12
q-14 0 -32.5 5t-44.5 18q-29 14 -43.5 18.5t-26.5 4.5q-23 0 -31 -10t-12 -36h-30z" />
    <glyph glyph-name="odieresis" unicode="&#xf6;" horiz-adv-x="537" 
d="M46 234q-15 68 -3.5 115.5t40 77t69 43t84.5 13.5q43 0 89.5 -13.5t87.5 -43t72.5 -77t46.5 -115.5t3.5 -115.5t-40 -77t-69.5 -43t-84 -13.5q-44 0 -90 13.5t-87 43t-72.5 77t-46.5 115.5zM134 234q9 -42 25 -81t40.5 -69.5t58 -48.5t77.5 -18t70 18t37.5 48.5t11 69.5
t-9.5 81t-25 81t-40.5 69.5t-58 48.5t-77.5 18t-70 -18t-37.5 -48.5t-11 -69.5t9.5 -81zM252 637q-5 21 7 36t33 15t39 -15t23 -36q4 -21 -8 -36t-33 -15t-39 15t-22 36zM55 637q-5 21 7 36t33 15t39 -15t23 -36q4 -21 -8 -36t-33 -15t-39 15t-22 36z" />
    <glyph glyph-name="divide" unicode="&#xf7;" horiz-adv-x="516" 
d="M0 279h505l11 -52h-506zM159 449q-5 23 8.5 40t36.5 17t43.5 -17t25.5 -40t-8.5 -40t-36.5 -17t-43.5 17t-25.5 40zM242 57q-5 23 8.5 40t36.5 17t43.5 -17t25.5 -40t-8.5 -40t-36.5 -17t-43.5 17t-25.5 40z" />
    <glyph glyph-name="oslash" unicode="&#xf8;" horiz-adv-x="581" 
d="M206 83q24 -30 57.5 -48t78.5 -18q44 0 70 18t37.5 48.5t11 69.5t-9.5 81q-8 37 -21 71.5t-33 62.5zM53 234q-15 68 -3.5 115.5t40 77t69 43t84.5 13.5q40 0 82.5 -11t82.5 -37q18 25 33.5 48t19.5 34q13 -15 29 -22q-8 -8 -24 -29t-34 -48q38 -32 65.5 -76t41.5 -108
q14 -68 2.5 -115.5t-40 -77t-69 -43t-83.5 -13.5q-42 0 -87 12.5t-86 40.5q-17 -26 -32.5 -48.5t-24.5 -36.5q-11 15 -29 21q6 7 24.5 31.5t35.5 52.5q-34 31 -59 73.5t-38 102.5zM379 391q-22 27 -55 43.5t-74 16.5q-44 0 -70 -18t-37.5 -48.5t-11 -69.5t9.5 -81
q7 -34 18 -65.5t28 -58.5z" />
    <glyph glyph-name="ugrave" unicode="&#xf9;" horiz-adv-x="457" 
d="M77 149q-11 53 -17.5 90.5t-14.5 74.5q-8 35 -17 76t-19 83q25 -5 43 -5t40 5q8 -59 20.5 -131.5t28.5 -146.5q11 -52 26 -79.5t31 -41.5q17 -16 41 -26.5t53 -10.5q42 0 66 18.5t31 45.5q4 16 5.5 28.5t-0.5 32.5t-9 54t-19 93q-9 41 -18.5 84.5t-18.5 79.5
q11 -2 21.5 -3.5t21.5 -1.5q20 0 40 5q12 -78 26.5 -151t31.5 -153q9 -45 19.5 -88.5t21.5 -85.5q-23 5 -40 5q-18 0 -38 -5q-4 22 -8 43.5t-9 42.5h-2q-15 -47 -51 -71.5t-84 -24.5q-78 0 -131.5 43t-70.5 121zM52 653q-14 8 -28 18.5t-18 28.5q-4 16 6 24t20 8
q11 0 24 -6.5t26 -17.5l179 -149h-42z" />
    <glyph glyph-name="uacute" unicode="&#xfa;" horiz-adv-x="457" 
d="M63 149q-11 53 -17.5 90.5t-14.5 74.5q-8 35 -17 76t-18 83q23 -5 42 -5q18 0 40 5q8 -59 20.5 -131.5t28.5 -146.5q11 -52 26 -79.5t31 -41.5q17 -16 41 -26.5t53 -10.5q42 0 66 18.5t31 45.5q4 16 5.5 28.5t-0.5 32.5t-9 54t-19 93q-9 41 -18.5 84.5t-18.5 79.5
q11 -2 21.5 -3.5t21.5 -1.5q20 0 40 5q12 -78 26.5 -151t31.5 -153q9 -45 19.5 -88.5t21.5 -85.5q-23 5 -40 5q-18 0 -38 -5q-4 22 -8 43.5t-9 42.5h-2q-15 -47 -51 -71.5t-84 -24.5q-78 0 -131.5 43t-70.5 121zM225 708q8 11 18.5 17.5t21.5 6.5q10 0 23 -8t17 -24
q4 -18 -5.5 -28.5t-20.5 -18.5l-127 -94h-42z" />
    <glyph glyph-name="ucircumflex" unicode="&#xfb;" horiz-adv-x="465" 
d="M73 149q-11 53 -17.5 90.5t-14.5 74.5q-8 35 -17 76t-19 83q25 -5 43 -5t40 5q8 -59 21 -131.5t29 -146.5q11 -52 25.5 -79.5t30.5 -41.5q18 -16 41.5 -26.5t52.5 -10.5q42 0 66 18.5t31 45.5q4 16 6 28.5t-0.5 32.5t-9 54t-19.5 93q-8 41 -17.5 84.5t-19.5 79.5
q11 -2 21.5 -3.5t21.5 -1.5q20 0 40 5q13 -78 27 -151t31 -153q10 -45 20 -88.5t21 -85.5q-23 5 -40 5q-18 0 -38 -5q-3 22 -7 43.5t-9 42.5h-2q-16 -47 -52 -71.5t-84 -24.5q-78 0 -131.5 43t-70.5 121zM166 664l-97 -105h-37l88 167h67l158 -167h-37z" />
    <glyph glyph-name="udieresis" unicode="&#xfc;" horiz-adv-x="471" 
d="M72 149q-11 53 -17.5 90.5t-14.5 74.5q-8 35 -17 76t-19 83q25 -5 43 -5t40 5q8 -59 21 -131.5t28 -146.5q11 -52 26 -79.5t31 -41.5q18 -16 41.5 -26.5t52.5 -10.5q42 0 66 18.5t31 45.5q4 16 6 28.5t-0.5 32.5t-9 54t-19.5 93q-8 41 -17.5 84.5t-19.5 79.5
q11 -2 21.5 -3.5t21.5 -1.5q20 0 40 5q12 -78 26.5 -151t31.5 -153q10 -45 20 -88.5t21 -85.5q-23 5 -40 5q-18 0 -38 -5q-3 22 -7 43.5t-9 42.5h-2q-16 -47 -52 -71.5t-84 -24.5q-78 0 -131.5 43t-70.5 121zM219 637q-5 21 7 36t33 15t39 -15t23 -36q4 -21 -8 -36t-33 -15
t-39 15t-22 36zM22 637q-5 21 7 36t33 15t39 -15t23 -36q4 -21 -8 -36t-33 -15t-39 15t-22 36z" />
    <glyph glyph-name="yacute" unicode="&#xfd;" horiz-adv-x="471" 
d="M259 -6q-18 30 -44 73t-56 90.5t-61.5 97t-59 93t-49 76.5t-31.5 49q12 -2 23.5 -3.5t22.5 -1.5q22 0 45 5q51 -95 109.5 -189.5t121.5 -194.5q23 87 40 188t27 196q20 -5 34 -5q15 0 32 5q-5 -18 -18 -70.5t-30.5 -123.5t-36.5 -152.5t-35.5 -158t-28.5 -139.5t-15 -97
q-20 5 -35 5q-16 0 -33 -5q51 129 78 262zM214 708q8 11 18.5 17.5t21.5 6.5q10 0 23.5 -8t16.5 -24q4 -18 -5.5 -28.5t-20.5 -18.5l-127 -94h-42z" />
    <glyph glyph-name="thorn" unicode="&#xfe;" horiz-adv-x="500" 
d="M2 464q-7 34 -15.5 74t-17.5 79t-18.5 74.5t-16.5 60.5q12 -2 23.5 -3.5t22.5 -1.5q20 0 43 5q3 -25 9 -60.5t13.5 -74.5t15.5 -79t15 -74l19 -89h2q4 16 13 34.5t26 35t43 27.5t64 11t78 -14.5t75 -44.5t62.5 -76.5t41.5 -110.5q13 -64 4 -111t-33 -78.5t-59.5 -47
t-74.5 -15.5q-56 0 -100 25t-78 73h-2l14 -63q7 -35 16 -74.5t18 -78.5t18 -74.5t17 -60.5q-12 2 -23.5 3.5t-22.5 1.5q-21 0 -44 -5q-3 25 -9 60.5t-13.5 74.5t-15.5 78.5t-15 74.5zM411 238q-13 60 -33.5 99t-45.5 62.5t-51.5 32.5t-50.5 9q-41 0 -65.5 -17t-36 -45.5
t-11.5 -67t9 -81.5q22 -103 70 -155.5t120 -52.5q36 0 59 16.5t34 46t11.5 69t-9.5 84.5z" />
    <glyph glyph-name="ydieresis" unicode="&#xff;" horiz-adv-x="474" 
d="M258 -6q-18 30 -44 73t-56 90.5t-61 97t-58.5 93t-49 76.5t-31.5 49q25 -5 46 -5q20 0 45 5q51 -95 109 -189.5t121 -194.5q23 87 40 188t28 196q18 -5 34 -5q14 0 32 5q-4 -14 -12.5 -47.5t-20 -80t-25.5 -103t-27.5 -116.5t-27 -119.5t-24.5 -112t-18.5 -95t-9.5 -67.5
q-20 5 -35 5q-16 0 -33 -5q26 66 45 131t33 131zM198 637q-5 21 7 36t33 15t39 -15t23 -36t-7 -36t-33 -15t-39 15t-23 36zM1 637q-4 21 7.5 36t32.5 15t39 -15t23 -36t-7 -36t-33 -15t-39 15t-23 36z" />
    <glyph glyph-name="dotlessi" unicode="&#x131;" horiz-adv-x="173" 
d="M36 286q-9 45 -21 94.5t-25 92.5q23 -5 45 -5q11 0 22 1.5t22 3.5q5 -43 13.5 -92.5t17.5 -94.5l23 -104q9 -45 21 -94.5t26 -92.5q-25 5 -46 5q-11 0 -22 -1.5t-22 -3.5q-5 43 -13.5 92.5t-17.5 94.5z" />
    <glyph glyph-name="Lslash" unicode="&#x141;" horiz-adv-x="486" 
d="M102 426q-14 65 -30 129.5t-33 129.5q14 -2 26 -3.5t24 -1.5t24 1.5t24 3.5q11 -65 22 -129.5t25 -129.5l9 -39q20 14 42.5 30.5t46.5 35.5q12 -18 27 -36q-19 -11 -47 -29t-61 -40l19 -90q15 -72 27 -122.5t22 -93.5q71 0 135.5 1.5t137.5 11.5q-2 -17 1 -30
q4 -15 12 -30q-47 2 -93 3.5t-92 1.5q-47 0 -92.5 -1.5t-91.5 -3.5q-11 65 -22 129.5t-25 129.5l-9 43q-26 -17 -44.5 -31.5t-25.5 -22.5q-10 17 -30 37q25 15 47 29l44 28z" />
    <glyph glyph-name="lslash" unicode="&#x142;" horiz-adv-x="270" 
d="M107 327q-19 -15 -36 -28t-25 -18q-5 8 -11 15t-14 14q17 12 37.5 26t40.5 29l-21 99q-7 34 -16 74t-18 79t-18.5 74.5t-16.5 60.5q12 -2 23.5 -3.5t22.5 -1.5q21 0 44 5q3 -25 9 -60.5t13.5 -74.5t15.5 -79t15 -74l11 -51q19 14 34 25.5t28 22.5q2 -8 9 -16.5t15 -14.5
q-10 -8 -29.5 -20.5t-48.5 -33.5l20 -93q7 -35 16 -74.5t18 -78.5t18 -74.5t17 -60.5q-12 2 -23.5 3.5t-22.5 1.5q-21 0 -44 -5q-3 25 -9 60.5t-13.5 74.5t-15.5 78.5t-15 74.5z" />
    <glyph glyph-name="OE" unicode="&#x152;" horiz-adv-x="1006" 
d="M748 238q11 -49 23 -98l24 -98q109 0 165.5 3.5t79.5 7.5q-2 -16 1 -29q2 -8 4.5 -14.5t6.5 -14.5q-43 2 -85 3.5t-84 1.5q-43 0 -85 -1.5t-85 -3.5q-3 25 -7 49t-9 49l-2 2q-13 -18 -31.5 -38t-47 -36.5t-68 -27.5t-94.5 -11q-71 0 -139 24t-124 68.5t-97 108.5t-58 145
q-19 90 -6.5 159t51 116t99 71t138.5 24q63 0 110 -13t80.5 -31t54.5 -36.5t32 -30.5l2 2q-5 24 -11.5 48t-13.5 48q43 -2 83.5 -3.5t81.5 -1.5t81 1.5t80 3.5q-1 -14 2 -31q3 -15 11 -31q-15 3 -31.5 5.5t-42 5t-66 3.5t-103.5 1q8 -44 15.5 -87.5t16.5 -87.5l18 -82
q61 0 98.5 0.5t61 1.5t37 2.5t26.5 2.5q-2 -16 1 -28q3 -14 11 -28q-14 1 -28 2.5t-38 2.5t-61.5 1.5t-98.5 0.5zM132 340q18 -83 51.5 -143.5t77.5 -100t95.5 -58.5t104.5 -19q60 0 103 23t68 65.5t30.5 101.5t-9.5 131q-19 88 -51 149t-73.5 99t-91 55.5t-102.5 17.5
q-57 0 -102.5 -19t-74 -58.5t-36.5 -100t10 -143.5z" />
    <glyph glyph-name="oe" unicode="&#x153;" horiz-adv-x="897" 
d="M435 234q-9 42 -25 81t-41 69.5t-58.5 48.5t-78.5 18q-44 0 -70 -18t-37.5 -48.5t-10.5 -69.5t10 -81t24.5 -81t40 -69.5t58.5 -48.5t78 -18q45 0 71 18t37.5 48.5t11 69.5t-9.5 81zM601 483q52 0 94.5 -16.5t74 -44t52 -64.5t29.5 -79q2 -10 3 -19.5t3 -19.5
q-54 1 -107 2t-107 1q-33 0 -65.5 -1t-65.5 -2q1 -8 2 -14.5t3 -13.5q8 -39 26.5 -73t46 -58.5t62.5 -39t77 -14.5q40 0 77.5 20.5t57.5 50.5l6 -3l4 -49q-25 -24 -66 -42.5t-88 -18.5q-63 0 -117 23.5t-95 65.5q-25 -48 -73 -68.5t-104 -20.5q-44 0 -90 13.5t-87 43
t-72.5 77t-45.5 115.5t-2.5 115.5t40 77t68.5 43t84 13.5q55 0 111 -20.5t100 -66.5q20 42 61 64.5t103 22.5zM609 451q-37 0 -59 -17t-33 -42.5t-13 -56t2 -57.5q31 -1 65 -2t66 -1q33 0 66.5 1t65.5 2q-6 27 -17 57t-29.5 56t-46.5 43t-67 17z" />
    <glyph glyph-name="Scaron" unicode="&#x160;" horiz-adv-x="460" 
d="M122 128q12 -18 29.5 -36.5t40 -33.5t50.5 -24.5t60 -9.5q33 0 57 11.5t38.5 31t18.5 46t-2 56.5q-10 46 -39 73t-67.5 45t-82.5 33t-84 37.5t-71 57.5t-43 94q-9 42 -1 76.5t31 59.5t60 39t87 14q48 0 85.5 -11.5t72.5 -35.5q-5 -17 -7.5 -36t-1.5 -48h-12
q-8 14 -20.5 30.5t-29.5 30.5t-39 23.5t-50 9.5q-57 0 -86 -34.5t-17 -89.5q10 -47 39 -74t68 -45.5t83 -33t83.5 -35.5t69.5 -54t42 -88q10 -46 2 -87t-33 -71.5t-66.5 -48.5t-99.5 -18q-62 0 -104 18t-73 39q4 23 3.5 41.5t-3.5 47.5h12zM262 898h37l-87 -167h-67
l-158 167h36l142 -105z" />
    <glyph glyph-name="scaron" unicode="&#x161;" horiz-adv-x="370" 
d="M118 91q7 -10 20 -22t29.5 -22.5t36.5 -17.5t41 -7q19 0 35 6t27.5 17t16 28t-0.5 39q-7 31 -27.5 47.5t-49 27t-61 18.5t-62 22.5t-52 38.5t-31.5 66q-7 33 -1.5 60.5t22 47.5t45 31.5t68.5 11.5q37 0 64.5 -10t52.5 -18q-5 -14 -7.5 -37t-1.5 -34h-12q-12 24 -39.5 43
t-61.5 19q-15 0 -29 -5t-24 -15t-14.5 -26t0.5 -38q7 -32 28 -49.5t49.5 -27.5t61 -18t61.5 -21t51.5 -37t31.5 -66q6 -29 -0.5 -57t-25.5 -50.5t-49 -36.5t-72 -14q-46 0 -79 10.5t-57 22.5q4 13 5.5 35.5t-1.5 37.5h12zM226 726h37l-88 -167h-67l-157 167h37l141 -105z
" />
    <glyph glyph-name="Ydieresis" unicode="&#x178;" horiz-adv-x="583" 
d="M282 279q-14 17 -40 49.5t-57.5 72.5t-66.5 83.5t-67 82.5t-58 70.5t-39 47.5q14 -2 28 -3.5t27 -1.5q14 0 27 1.5t27 3.5q62 -86 127 -171t136 -175q16 36 31.5 79t30.5 88t29 90.5t25 88.5q22 -5 40 -5q10 0 19 1.5t19 3.5q-32 -73 -57.5 -132t-44.5 -107t-33 -86.5
t-23 -69.5q7 -37 16.5 -79t19 -82t18.5 -75.5t16 -58.5q-28 5 -50 5q-12 0 -23.5 -1.5t-24.5 -3.5q-5 54 -20 128.5t-32 155.5zM267 809q-5 21 7 36t33 15t39 -15t23 -36t-7 -36t-33 -15t-39 15t-23 36zM70 809q-5 21 7 36t33 15t39 -15t23 -36t-7 -36t-33 -15t-39 15
t-23 36z" />
    <glyph glyph-name="Zcaron" unicode="&#x17d;" horiz-adv-x="597" 
d="M112 12q28 54 59 115.5t61 124.5t59 123.5t53 111.5t41.5 90t26.5 59q-18 1 -36 1.5t-34 0.5q-36 0 -80 -1t-88 -3.5t-83.5 -5t-67.5 -5.5q1 14 -2 31q-3 15 -11 31q25 -2 64 -3t93 -1q53 -1 118 -1h143q27 0 53.5 1.5t52.5 3.5l4 -18q-15 -21 -41 -69t-57 -109
t-63.5 -129t-61.5 -130t-51 -111.5t-31 -73.5q24 -2 43.5 -2.5t39.5 -0.5q38 0 88 1.5t100 4t93.5 6t69.5 6.5q-1 -9 -0.5 -17t2.5 -16t4.5 -16t6.5 -16q-72 2 -125.5 3.5t-110.5 1.5q-39 0 -88.5 -0.5t-96.5 -1t-86 -1.5t-58 -2zM325 898h37l-87 -167h-67l-159 167h37
l143 -105z" />
    <glyph glyph-name="zcaron" unicode="&#x17e;" horiz-adv-x="470" 
d="M97 9q32 52 65 111t64 116t57.5 108t45.5 87q-7 0 -39.5 -1.5t-73.5 -3.5t-83.5 -4.5t-70.5 -5.5q0 13 -3 28q-3 14 -10 29q32 -3 95.5 -4t156.5 -1q43 0 70.5 1t58.5 4l4 -15q-29 -52 -63.5 -114.5t-67 -122t-59 -109t-39.5 -75.5q41 0 75 0.5t69.5 2t75 4t90.5 7.5v-14
t2 -14t4.5 -14t5.5 -14q-63 2 -125.5 3.5t-125.5 1.5q-45 0 -88 -1.5t-88 -3.5zM281 726h37l-88 -167h-67l-158 167h37l142 -105z" />
    <glyph glyph-name="florin" unicode="&#x192;" horiz-adv-x="497" 
d="M120 -116q9 -5 22 -10.5t26 -5.5q20 0 31 8.5t16.5 24t6 37.5t-0.5 50l-15 371h-58t-49 -2q1 9 1.5 21t-1.5 23q17 -2 47 -3.5t59 -1.5l1 51q1 36 8 76t23.5 73t43.5 54.5t66 21.5q6 0 16.5 -1.5t17.5 -3.5q-2 -15 0 -37.5t7 -44.5l-12 -4q-11 11 -26 20t-32 9
q-21 0 -34.5 -13.5t-11.5 -57.5l7 -143q32 0 60 2t50 3q-2 -9 -2.5 -21t1.5 -23q-21 2 -49.5 2h-58.5l7 -219q4 -112 -9.5 -179t-38 -102t-57 -46t-66.5 -11q4 44 -3 79z" />
    <glyph glyph-name="circumflex" unicode="&#x2c6;" horiz-adv-x="354" 
d="M171 664l-97 -105h-37l88 167h67l158 -167h-37z" />
    <glyph glyph-name="caron" unicode="&#x2c7;" horiz-adv-x="350" 
d="M276 726h37l-88 -167h-67l-158 167h37l142 -105z" />
    <glyph glyph-name="breve" unicode="&#x2d8;" horiz-adv-x="342" 
d="M45 717q18 -46 48 -71t80 -25q26 0 42.5 6.5t26.5 18.5t14 30t6 41h32q7 -32 4 -60.5t-16 -50.5t-36.5 -34.5t-58.5 -12.5t-64 12.5t-51.5 34.5t-37 50.5t-21.5 60.5h32z" />
    <glyph glyph-name="dotaccent" unicode="&#x2d9;" horiz-adv-x="164" 
d="M30 634q-5 21 7 36t33 15t39 -15t23 -36q4 -21 -8 -36t-33 -15t-39 15t-22 36z" />
    <glyph glyph-name="ring" unicode="&#x2da;" horiz-adv-x="266" 
d="M30 645q-5 21 -0.5 39.5t15.5 32.5t28 22t38 8t41.5 -8t37 -22t28.5 -32.5t17 -39.5q8 -42 -15.5 -72t-66.5 -30q-21 0 -41.5 8t-37 22t-28.5 32.5t-16 39.5zM72 645q5 -25 26 -42.5t46 -17.5q26 0 40 17.5t9 42.5q-6 25 -27 42.5t-46 17.5q-26 0 -40 -17.5t-8 -42.5z
" />
    <glyph glyph-name="ogonek" unicode="&#x2db;" horiz-adv-x="220" 
d="M148 0q-23 -26 -36.5 -45.5t-20 -34t-7.5 -26t1 -22.5q7 -33 31 -46t49 -13q8 0 16 2t14 4l18 -33q-19 -10 -56 -10q-22 0 -44 5.5t-40 16t-31 26.5t-17 37q-12 56 83 139h40z" />
    <glyph glyph-name="tilde" unicode="&#x2dc;" horiz-adv-x="393" 
d="M42 584q-1 18 3 36t13.5 33t25.5 24.5t40 9.5q17 0 32 -5t46 -18q31 -14 44.5 -18.5t26.5 -4.5q23 0 33.5 15t12.5 35h29q1 -12 -1.5 -30t-11.5 -35.5t-26 -29.5t-47 -12q-14 0 -32.5 5t-44.5 18q-29 14 -43.5 18.5t-26.5 4.5q-23 0 -31.5 -10t-11.5 -36h-30z" />
    <glyph glyph-name="hungarumlaut" unicode="&#x2dd;" horiz-adv-x="468" 
d="M152 708q8 11 18.5 17.5t21.5 6.5q10 0 23 -8t17 -24q4 -18 -5.5 -28.5t-20.5 -18.5l-127 -94h-42zM352 708q8 11 18.5 17.5t21.5 6.5q10 0 23 -8t17 -24q4 -18 -5.5 -28.5t-20.5 -18.5l-127 -94h-42z" />
    <glyph glyph-name="endash" unicode="&#x2013;" horiz-adv-x="587" 
d="M37 254h500l10 -47h-500z" />
    <glyph glyph-name="emdash" unicode="&#x2014;" horiz-adv-x="1086" 
d="M37 254h1000l10 -47h-1000z" />
    <glyph glyph-name="quoteleft" unicode="&#x2018;" 
d="M109 448q-1 -13 -8.5 -25.5t-27.5 -12.5q-12 0 -26 8t-18 26q-3 12 0 22l6 20l80 212l19 -7z" />
    <glyph glyph-name="quoteright" unicode="&#x2019;" 
d="M66 660q1 13 8.5 25.5t27.5 12.5q12 0 26 -8t18 -26q3 -12 0 -22l-6 -20l-80 -212l-19 7z" />
    <glyph glyph-name="quotesinglbase" unicode="&#x201a;" 
d="M66 75q1 13 8.5 25.5t27.5 12.5q12 0 26 -8t18 -26q3 -12 0 -22l-6 -20l-80 -212l-19 7z" />
    <glyph glyph-name="quotedblleft" unicode="&#x201c;" horiz-adv-x="376" 
d="M296 448q-1 -13 -8.5 -25.5t-27.5 -12.5q-12 0 -26 8t-18 26q-3 12 0 22l6 20l80 212l19 -7zM124 448q-1 -13 -8.5 -25.5t-27.5 -12.5q-12 0 -26 8t-18 26q-3 12 0 22l6 20l80 212l19 -7z" />
    <glyph glyph-name="quotedblright" unicode="&#x201d;" horiz-adv-x="377" 
d="M252 660q1 13 8.5 25.5t27.5 12.5q12 0 26 -8t18 -26q3 -12 0 -22l-6 -20l-80 -212l-19 7zM80 660q1 13 8.5 25.5t27.5 12.5q12 0 26 -8t18 -26q3 -12 0 -22l-6 -20l-80 -212l-19 7z" />
    <glyph glyph-name="quotedblbase" unicode="&#x201e;" horiz-adv-x="377" 
d="M252 75q1 13 8.5 25.5t27.5 12.5q12 0 26 -8t18 -26q3 -12 0 -22l-6 -20l-80 -212l-19 7zM80 75q1 13 8.5 25.5t27.5 12.5q12 0 26 -8t18 -26q3 -12 0 -22l-6 -20l-80 -212l-19 7z" />
    <glyph glyph-name="dagger" unicode="&#x2020;" horiz-adv-x="473" 
d="M178 449q-6 30 -13.5 64.5t-15 67.5t-15.5 60.5t-14 43.5q11 -2 21.5 -3.5t21.5 -1.5q19 0 41 5q0 -16 4.5 -43.5t11 -60.5t13.5 -67.5t13 -64.5q44 0 87 1t86 7q-1 -16 2 -37q2 -9 5.5 -18t7.5 -18q-45 6 -88.5 7t-87.5 1q22 -100 46 -198.5t47 -198.5q-11 2 -21.5 3.5
t-21.5 1.5q-19 0 -41 -5q-19 100 -37 198.5t-40 198.5q-44 0 -87 -1t-85 -7q1 18 -3 36q-2 10 -5 19t-7 18q45 -6 88 -7t87 -1z" />
    <glyph glyph-name="daggerdbl" unicode="&#x2021;" horiz-adv-x="476" 
d="M207 340q-6 26 -12.5 50.5t-11.5 50.5q-45 0 -88 -1t-85 -7q0 9 -0.5 18t-2.5 18q-4 18 -12 37q45 -6 88 -7t87 -1q-7 30 -16.5 72.5t-31.5 114.5q11 -2 21.5 -3.5t21.5 -1.5q19 0 41 5q10 -72 17.5 -114.5t14.5 -72.5q44 0 87 1t85 7q0 -9 0.5 -18t2.5 -19q5 -20 13 -36
q-45 6 -88.5 7t-88.5 1q5 -26 9.5 -50.5t10.5 -50.5q5 -26 11.5 -50.5t11.5 -50.5q45 0 88 1t85 7q0 -9 0.5 -18t2.5 -19q5 -20 13 -36q-45 6 -88.5 7t-87.5 1q7 -30 16.5 -72.5t31.5 -114.5q-11 2 -21.5 3.5t-21.5 1.5q-19 0 -41 -5q-10 72 -17.5 114.5t-14.5 72.5
q-44 0 -87 -1t-85 -7q0 9 -0.5 18t-2.5 18q-5 20 -13 37q45 -6 88.5 -7t88.5 -1q-5 26 -9.5 50.5t-9.5 50.5z" />
    <glyph glyph-name="bullet" unicode="&#x2022;" horiz-adv-x="400" 
d="M30 340q-8 35 -1 66t25 54t46 36.5t63 13.5t69 -13.5t62 -36.5t48 -54t28 -66q7 -35 0 -66t-25 -54t-46 -36.5t-63 -13.5t-69 13.5t-62 36.5t-48 54t-27 66z" />
    <glyph glyph-name="ellipsis" unicode="&#x2026;" horiz-adv-x="862" 
d="M41 45q-5 23 8 40t36 17t44 -17t26 -40t-8.5 -40t-36.5 -17t-43.5 17t-25.5 40zM374 45q-5 23 8 40t36 17t44 -17t26 -40t-8.5 -40t-36.5 -17t-43.5 17t-25.5 40zM707 45q-5 23 8 40t36 17t44 -17t26 -40t-8.5 -40t-36.5 -17t-43.5 17t-25.5 40z" />
    <glyph glyph-name="perthousand" unicode="&#x2030;" horiz-adv-x="980" 
d="M400 144q-10 46 -3.5 77t23 49.5t40 26t46.5 7.5t49.5 -7.5t50.5 -26t44 -49.5t30 -77t3 -77t-23.5 -49.5t-39.5 -26t-46 -7.5t-49.5 7.5t-51 26t-44 49.5t-29.5 77zM468 144q12 -60 35.5 -98t65.5 -38q21 0 32.5 10t16 28t2.5 43t-8 55q-13 60 -36 98t-65 38
q-21 0 -32.5 -10t-16 -28t-2.5 -43t8 -55zM724 144q-10 46 -3.5 77t23 49.5t40 26t46.5 7.5t49.5 -7.5t50.5 -26t44 -49.5t30 -77t3 -77t-23.5 -49.5t-39.5 -26t-46 -7.5t-49.5 7.5t-51 26t-44 49.5t-29.5 77zM792 144q12 -60 35.5 -98t65.5 -38q21 0 32.5 10t16 28t2.5 43
t-8 55q-13 60 -36 98t-65 38q-21 0 -32.5 -10t-16 -28t-2.5 -43t8 -55zM-8 512q-10 46 -3.5 77t23 49.5t39.5 26t46 7.5t49.5 -7.5t51 -26t44 -49.5t29.5 -77t3.5 -77t-23 -49.5t-40 -26t-46.5 -7.5t-49.5 7.5t-50.5 26t-43.5 49.5t-29.5 77zM59 512q13 -60 36 -98t65 -38
q21 0 32.5 10t16 28t2.5 43t-8 55q-12 60 -35.5 98t-65.5 38q-21 0 -32.5 -10t-16 -28t-2.5 -43t8 -55zM428 695q15 -5 26 -5q9 0 21 5l-231 -734q-15 5 -25 5t-22 -5z" />
    <glyph glyph-name="guilsinglleft" unicode="&#x2039;" horiz-adv-x="197" 
d="M90 419q8 -10 19.5 -17.5t23.5 -9.5l-77 -159l141 -166q-11 -2 -20.5 -9.5t-11.5 -16.5l-161 191z" />
    <glyph glyph-name="guilsinglright" unicode="&#x203a;" horiz-adv-x="195" 
d="M-2 397q11 2 20 9.5t11 16.5l161 -191l-86 -187q-8 10 -19.5 17.5t-23.5 9.5l77 159z" />
    <glyph glyph-name="fraction" unicode="&#x2044;" horiz-adv-x="329" 
d="M204 684q13 -5 24 -5q6 0 11 1.5t11 3.5l-126 -712q-13 5 -24 5q-6 0 -11 -1.5t-11 -3.5z" />
    <glyph glyph-name="Euro" unicode="&#x20ac;" horiz-adv-x="577" 
d="M480 622q-6 -39 -6 -79l-15 -1q-32 42 -76.5 64.5t-81.5 22.5q-65 0 -102.5 -55t-29.5 -169h166q28 0 55.5 0.5t50.5 5.5q-2 -10 -3 -28t-1 -29q-22 4 -48 5t-50 1h-164q2 -13 4 -26.5t5 -27.5l2 -8h142q28 0 55.5 0.5t50.5 5.5q-2 -10 -3 -28t-1 -29q-22 4 -48 5t-50 1
h-133q17 -53 42 -94t55 -69.5t63.5 -43.5t67.5 -15q40 0 75.5 19.5t62.5 57.5l11 -12q0 -28 3 -58q-9 -11 -26.5 -20.5t-39.5 -16t-46 -10.5t-46 -4q-51 0 -98 18t-88 52t-74 83.5t-54 112.5q-52 -2 -73 -6q5 27 3 57q15 -3 56 -5l-4 20q-2 11 -3.5 21t-3.5 20
q-48 -1 -71 -6q5 27 3 57q17 -3 64 -5q-1 57 14 105.5t43 84t68.5 56t91.5 20.5q22 0 46 -4t48.5 -10.5t47.5 -16t43 -19.5z" />
    <glyph glyph-name="trademark" unicode="&#x2122;" horiz-adv-x="870" 
d="M651 460q20 57 40 115t38 116h8l39 -127q10 -34 23 -72t26 -76.5t26 -74.5t24 -66q-17 5 -29 5q-13 0 -28 -5q-11 41 -24.5 90t-33.5 109l-37 108h-2l-25 -76q-10 -28 -20 -59.5t-19 -61.5t-16 -57t-11 -46h-8q-32 50 -71 101t-77 103l-67 91h-2l10 -111q5 -48 11 -95.5
t16 -95.5q-15 5 -24 5q-11 0 -23 -5q-1 61 -5 130.5t-9 141.5l-12 144h10q38 -57 79.5 -113.5t87.5 -115.5l72 -92h2zM119 653q-32 0 -63.5 -1.5t-63.5 -3.5q3 10 1 19q-1 8 -8 18q38 -2 77 -3.5t78 -1.5t77 1.5t77 3.5q-3 -10 -2 -18q3 -10 9 -19q-32 2 -65 3.5t-65 1.5
l30 -141q13 -60 27.5 -118.5t28.5 -118.5q-18 5 -32 5q-15 0 -30 -5q-8 40 -17.5 94t-26.5 135z" />
    <glyph glyph-name="minus" unicode="&#x2212;" horiz-adv-x="593" 
d="M37 279h506l11 -52h-506z" />
    <glyph glyph-name="fi" unicode="&#xfb01;" horiz-adv-x="507" 
d="M401 286q-9 45 -21 94.5t-26 92.5q25 -5 46 -5q11 0 22 1.5t22 3.5q5 -43 13.5 -92.5t17.5 -94.5l23 -104q9 -45 21 -94.5t26 -92.5q-25 5 -46 5q-11 0 -22 -1.5t-22 -3.5q-5 43 -13.5 92.5t-17.5 94.5zM311 647q-5 21 7 36t33 15t39 -15t23 -36t-7 -36t-33 -15t-39 15
t-23 36zM228 669q-27 15 -58 15q-22 0 -36 -8.5t-21 -22t-7.5 -32t3.5 -37.5q4 -18 15 -52t22 -65q26 0 51.5 0.5t51.5 0.5q0 -5 0.5 -10t1.5 -10t2.5 -10t3.5 -10q-26 1 -51.5 2t-51.5 1q23 -109 46.5 -217t49.5 -219q-23 5 -44 5q-11 0 -21.5 -1.5t-21.5 -3.5
q-17 111 -38.5 218.5t-44.5 217.5q-18 0 -36 -1l-36 -2q0 5 -0.5 10t-1.5 10t-2.5 10t-3.5 10q18 0 36.5 -0.5t35.5 -0.5q-6 29 -7.5 63t3 67t14.5 62.5t26 49.5q14 18 38.5 32t53.5 14q11 0 20 -3q4 -20 6.5 -40t6.5 -40z" />
    <glyph glyph-name="fl" unicode="&#xfb02;" horiz-adv-x="513" 
d="M370 464q-8 34 -16.5 74t-18 79t-18.5 74.5t-17 60.5q12 -2 23.5 -3.5t22.5 -1.5q21 0 44 5q3 -25 9 -60.5t13.5 -74.5t15.5 -79t16 -74l38 -181q7 -35 16 -74.5t18.5 -78.5t18 -74.5t16.5 -60.5q-25 5 -46 5q-11 0 -22 -1.5t-22 -3.5q-3 25 -9 60.5t-13 74.5t-15.5 78.5
t-15.5 74.5zM228 669q-27 15 -58 15q-22 0 -36 -8.5t-21 -22t-7.5 -32t3.5 -37.5q4 -18 15 -52t22 -65q26 0 51.5 0.5t51.5 0.5q0 -5 0.5 -10t1.5 -10t2.5 -10t3.5 -10q-26 1 -51.5 2t-51.5 1q23 -109 46.5 -217t49.5 -219q-23 5 -44 5q-11 0 -21.5 -1.5t-21.5 -3.5
q-17 111 -38.5 218.5t-44.5 217.5q-18 0 -36 -1l-36 -2q0 5 -0.5 10t-1.5 10t-2.5 10t-3.5 10q18 0 36.5 -0.5t35.5 -0.5q-6 29 -7.5 63t3 67t14.5 62.5t26 49.5q14 18 38.5 32t53.5 14q11 0 20 -3q4 -20 6.5 -40t6.5 -40z" />
    <glyph glyph-name="LDO" horiz-adv-x="720" 
d="M343 162q0 -2 -1.5 -6t-1.5 -5v-7h-4v10q4 4 7 8zM288 144q4 7 4 18h15q-7 0 -7 -8q0 -25 3 -32h4q2 5 7 14h4v-14h-11q-1 0 -2.5 1t-2.5 3t-2 3h-8q0 1 -2 6t-2 9zM374 110v15q3 0 5 1.5t3 2.5v-13q2 -1 4 -2.5t6 -3.5l1 -16q-6 7 -19 16zM89 627q24 7 64 7q25 0 37 -7
q10 -7 34 -7q19 9 22 18q29 0 33 24l9 4q2 3 7 5q5 0 5 2q5 2 7.5 6.5t10.5 4.5q1 3 7 6q7 2 7 5q32 0 32 18q8 0 13 6q4 7 12 7q1 2 9.5 5t8.5 6q7 0 10 3q12 8 16 8l9 4q7 2 7 7q11 0 22 4q11 3 19 3q0 4 7 8q7 2 8 3l89 19l42 -4l15 -8q7 -3 11 -7q10 -7 31 -18l7 -42
q-42 0 -42 5q-5 0 -14 4t-11 4q0 4 -1.5 5.5t-6.5 4.5h-68q-3 -3 -7 -10q-7 0 -21 -4t-21 -4q-13 -9 -18.5 -9t-14.5 -3q-4 0 -8 -6l-6 -6q-10 -3 -8 -3h-4q-1 -3 -8.5 -5l-7.5 -2q-3 0 -5.5 -2t-6.5 -5t-6 -5q-11 0 -15 -10q-5 0 -6 -2.5t-1 -9.5q-6 0 -13.5 -3.5t-8 -3.5
t-6.5 -4.5t-14 -4.5q-2 -1 -7 -2t-8 -6q-2 -1 -4 -4q-2 -5 -3 -6q-11 0 -11 -8q-4 0 -7 -1.5t-6 -4.5l-5 -5q-15 0 -15 -11q-5 0 -13 -7v-11q-4 -3 -6.5 -4t-4.5 -5v-15q6 -7 11 -7v-48q-6 0 -11 -9v-11q-2 -2 -4 -3q-3 -2 -7 -4v-22q-6 -3 -7 -4.5t-1 -10.5q0 -11 -3 -11
l-7 -7q-9 -4 -10.5 -6t-1.5 -10q-9 -4 -15 -8t-8 -11q-11 -11 -44 -11q-17 11 -35 11q-2 3 -7 11h-15q-3 0 -9 4q-7 4 -13 4q0 11 -11 16q0 7 -4 11q-10 0 -21 -1l-11 -1q-4 0 -11 7q-3 2 -6 2v55q2 3 5 5l6 4l4 83q1 0 2.5 1t2.5 3t2 3v15q5 2 6 6t5 4q0 1 10 4.5t10 7.5
q21 7 26 7zM385 132q-4 5 -7 7q-4 1 -15 1v18q6 -6 18 -14q0 -8 4 -12zM400 132q3 -3 3 -7q-3 3 -10 7h7zM403 125h7q5 2 12 10q6 9 10 9q-1 -4 -3.5 -6t-6.5 -6v-14l6 -4t4 -4q-4 0 -10 -7v-13l7 -7h17q1 -6 4 -10q2 -6 18 -12q3 11 3 22q-9 11 -22 11v31q3 0 11 7l-6 6
q-3 2 -5 6q2 -1 12 -5q6 -2 17 -5q6 -2 19 -2v-22q3 -2 6.5 -3.5t4.5 -3.5q0 -16 4 -20h9q3 3 3 14v6q9 0 13 1.5t9 5.5q-7 8 -11 8v14q3 0 11 8v26q-3 2 -6 3.5t-5 5.5q0 8 -1.5 10t-9.5 5q7 0 12.5 5t6.5 5v-10q0 -8 7 -8q3 -10 4 -11.5t7 -4.5q0 -15 8 -22h3q2 2 4 8t3 6
q20 7 20 24q5 0 18 8v-58h-7q-3 -3 -3 -14q-4 -1 -14 -8q10 -7 32 -7q0 -5 -2 -6.5t-5 -6.5v-36q-4 2 -5.5 3.5t-2 3.5t-3.5 7h-20q0 -2 -2 -6q-2 -6 -2 -8q-4 0 -11 -8q7 0 11 -3v-7q-2 -2 -5 -3.5t-6 -4.5v-16q-19 0 -22 -8v-7l1 -1q0 1 -4 1q0 3 -2 8t-2 7q-18 0 -23 -8
v-7q11 -11 22 -11v-7h-7q-12 -5 -21 -7q-4 -1 -10 -1v15q7 0 7 7q0 35 -3 43h-3q-8 -8 -8 -39q-7 0 -11 -4v-14h-26l-4 -8v-38q-10 0 -24 -4q9 -7 14 -7v-18q-6 2 -6 6q0 3 -7 5h-4q-5 -2 -6 -5q-2 -4 -5 -6v18q3 0 11 7q0 57 -7 64h-4q-1 -1 -3 -2l-1 -1l4 3q-4 4 -11 4
q0 31 -7 39h-4q-6 -3 -5 -21q1 -34 1 -31v-55q0 -1 4 -3t4 -4v-7q0 -1 -3.5 -4.5t-3.5 -6.5h-29v25q0 2 -1 3l-4 2q-2 1 -5 3q-2 7 -7 16h-4q-7 -7 -7 -24q3 -2 7 -3l4 -4v-7q-5 -4 -15 -11q3 0 11 11v7q0 7 -18 7q-15 0 -18 -7v-11q0 4 -7 4q0 10 -5 15q-5 4 -16 7v16l-7 4
h-15v14q-6 8 -11 8q-4 12 -22 18v31q11 3 11 15q2 0 5.5 1.5t5.5 1.5q0 19 -4 22h-7q-3 -3 -3 -14q-5 0 -19 -8v44q4 0 7 2t4 2v38h18v-14q-5 0 -7 -4q-2 -2 -3 -4q29 0 36 8v7l-4 4l4 -4h17q0 -31 3 -35h-9l-7 -7v-15q-6 -2 -7 -3.5t-4 -10.5q-4 0 -11 -8h35v-10
q-9 -4 -13 -8q0 -11 7 -24q10 4 21 17v22h7q1 -12 3 -31h8q4 3 4 16q18 0 21 8v7l-7 7l7 4v14q3 -2 8 -3.5t7 -3.5q0 -8 1 -9.5t5 -8.5q27 0 32 11v9h-1q1 -2 5 -2q6 8 6.5 11t0.5 11q3 0 11 7v20q-7 8 -11 8q0 2 -2 4t-2 3zM617 129q2 -1 3 -2l1 -2h8q0 -3 -4 -7h-3
q-5 4 -5 11zM629 125q0 4 3 7q0 -2 -1 -3q-2 -3 -2 -4zM632 132v50q4 0 11 8v10h15l4 8v22h7v-90q-1 -2 -5 -3q-3 -2 -6 -5v-14l-14 -8q0 19 -8 22h-4zM456 -67q2 -1 3 -2l1 -2v3q-1 1 -4 1zM460 -71q4 -1 9 -8l6 -6q0 7 -7 14h-8zM468 -67q3 9 3 31h15q2 -2 3 -4q0 -4 4 -6
q2 -1 4 -1q-2 -2 -5 -3.5t-6 -3.5v-9q0 -5 -3 -5q-3 1 -6 1h-9zM414 -10q-1 -5 -1 -15v-12q0 -20 -2 -26h-4v49q3 0 7 4zM307 -89l3 -4q0 3 -1 4h-2zM310 -93q4 0 8 -3q-8 0 -8 3zM264 129q-3 0 -7 3v12l-7 7h-15v15q11 0 11 9v7q-1 3 -5.5 5t-5.5 3v10q-6 8 -11 8
q3 0 7 2.5t4 4.5v7q0 3 -4 4q-5 2 -7 4v34h8v-16l3 -7h15v-33q-8 0 -8 -8v-7q0 -3 8 -3v-24q2 -1 6 -4t5 -4v-26zM296 90q4 4 4 20h13q-2 -1 -3.5 -3t-2.5 -4v-31q-1 1 -3 2.5t-4 1.5q0 7 -4 14zM307 72l4.5 -2t6.5 -2h-8q-1 1 -1 2zM318 68q1 7 7 15v-15h-7zM531 237
q2 -2 3 -4l4 -2q2 -1 4 -1l1 -15h-18q0 8 -1.5 10t-11.5 5q0 34 -4 42h-3q-4 -2 -5 -8q-2 -6 -3 -7h-4v15h15q1 6 4 14h9v-14q8 -8 11 -8zM511 305q0 7 -6 7q-8 -7 -12 -7v14h15q0 -3 1.5 -8t1.5 -6zM300 290h-12q0 -2 -1.5 -6t-1.5 -5q-27 -7 -28 -7v25h15l7 8v14
q27 0 31 20q18 5 22 22h15q0 -29 7 -34h4q6 5 6 20q7 4 10 7v15q9 -8 11 -8h8q-1 0 7 8q0 -18 7 -22h4l3.5 7l3.5 7h15q1 -5 4 -11q1 -1 9 -3q-14 0 -14 -8v-7q4 -5 36 -5v-15h-39q-2 2 -3 8q-3 6 -4 7h-4q-2 -5 -7 -15h-4q-2 3 -7 15h-15q0 -6 -3 -15h-8q0 4 -3 15h-28
q-2 -6 -7 -15q-10 0 -20 -8z" />
    </font>
</defs>
</svg>
