<?xml version="1.0" standalone="no"?>
<!DOCTYPE svg PUBLIC "-//W3C//DTD SVG 1.1//EN" "http://www.w3.org/Graphics/SVG/1.1/DTD/svg11.dtd" >
<svg xmlns="http://www.w3.org/2000/svg" xmlns:xlink="http://www.w3.org/1999/xlink" version="1.1">
<metadata>
Created by FontForge 20170731 at Mon Apr 12 07:35:23 2004
 By Aleksey,,,
Copyright (c) LDO Fonts, 2004. All rights reserved.
</metadata>
<defs>
<font id="OregonLDODemiBold" horiz-adv-x="176" >
  <font-face 
    font-family="Oregon LDO DemiBold"
    font-weight="600"
    font-stretch="normal"
    units-per-em="1000"
    panose-1="2 11 7 3 6 4 2 2 2 4"
    ascent="800"
    descent="-200"
    x-height="480"
    cap-height="687"
    bbox="-9 -296 1039 913"
    underline-thickness="50"
    underline-position="-150"
    unicode-range="U+0020-FB02"
  />
<missing-glyph horiz-adv-x="278" 
 />
    <glyph glyph-name=".notdef" horiz-adv-x="278" 
 />
    <glyph glyph-name=".null" horiz-adv-x="0" 
 />
    <glyph glyph-name="nonmarkingreturn" horiz-adv-x="278" 
 />
    <glyph glyph-name="space" unicode=" " horiz-adv-x="278" 
 />
    <glyph glyph-name="space" unicode="&#xa0;" horiz-adv-x="278" 
 />
    <glyph glyph-name="exclam" unicode="!" horiz-adv-x="174" 
d="M68 166q-2 19 -5.5 58.5t-8 88t-9 101.5t-8 99.5t-6 81t-2.5 46.5q0 31 17.5 44t39.5 13t39.5 -13t17.5 -44q0 -6 -2 -31l-5 -62.5t-7 -85t-8.5 -98t-8.5 -102t-8 -96.5h-36zM21 53q0 26 19.5 46t45.5 20t45.5 -20t19.5 -46t-19.5 -45.5t-45.5 -19.5t-45.5 19.5
t-19.5 45.5z" />
    <glyph glyph-name="quotedbl" unicode="&#x22;" horiz-adv-x="289" 
d="M36 698h70v-299h-70v299zM181 698h70v-299h-70v299z" />
    <glyph glyph-name="numbersign" unicode="#" horiz-adv-x="442" 
d="M140 420h-77q10 20 17.5 50t7.5 49h73q9 45 14 71t7.5 40t3.5 21t1 13q22 -7 30 -7q6 0 38 9q-5 -11 -9 -19.5t-7.5 -23.5t-9 -39t-13.5 -65h91q11 60 17 87.5t8 40.5v-1q0 1 0.5 9t0.5 9q22 -7 30 -7q5 0 38 9q-5 -11 -9 -19.5t-7.5 -23.5t-9 -39t-13.5 -65h74
q-4 -10 -8.5 -23t-8 -27t-5.5 -27t-2 -22h-72q-11 -49 -19.5 -91t-18.5 -92h75q-4 -10 -8 -23t-7.5 -27t-5.5 -27t-2 -22h-72q-7 -36 -12 -60t-8 -40.5t-5 -25.5t-3 -15q-11 0 -18.5 1.5t-10.5 1.5q-4 0 -13.5 -1.5t-20.5 -1.5q3 8 5.5 15.5t6 22t9 38.5t14.5 65h-90
q-7 -36 -12 -60t-8 -40.5t-5 -25.5t-3 -15q-10 0 -18 1.5t-11 1.5q-4 0 -13.5 -1.5t-20.5 -1.5q3 8 6 15.5t6.5 22t8.5 38.5t14 65h-75q10 20 17 50t7 49h73zM286 420h-92q-11 -49 -19.5 -91t-18.5 -92h91z" />
    <glyph glyph-name="dollar" unicode="$" horiz-adv-x="442" 
d="M198 298q-43 17 -75 35t-53.5 39.5t-32 49t-10.5 64.5q0 72 46.5 121.5t124.5 62.5q0 16 -3 35t-11 47q28 -10 41 -10q7 0 16.5 2.5t23.5 7.5q-8 -27 -10 -45.5t-2 -33.5q31 -1 54.5 -6t41.5 -12.5t31.5 -16.5t24.5 -17q-11 -19 -18 -39.5t-13 -50.5h-27
q-4 12 -11.5 25.5t-19 26t-27 21.5t-36.5 12v-231q42 -17 75 -33.5t55.5 -37.5t34 -47.5t11.5 -62.5q0 -38 -11.5 -72t-34 -62.5t-55 -48.5t-75.5 -29q0 -25 1.5 -51t8.5 -64q-12 4 -21 6.5t-17 2.5t-17.5 -2.5t-20.5 -6.5q5 27 8 55.5t3 51.5h-17q-47 0 -89.5 14.5
t-82.5 46.5q11 25 14.5 45t6.5 50h27q16 -29 33.5 -48t35.5 -30.5t36 -16t36 -5.5v258zM253 49q39 13 60 46t21 74q0 14 -2.5 27t-11 26t-24.5 26.5t-43 27.5v-227zM198 613q-33 -9 -54 -36t-21 -65q0 -75 75 -107v208z" />
    <glyph glyph-name="percent" unicode="%" horiz-adv-x="851" 
d="M24 502q0 37 12 68t34 54t52.5 36t68.5 13q37 0 68 -13t52.5 -36t33.5 -54t12 -68t-12 -68.5t-33.5 -54t-52.5 -35.5t-68 -13q-38 0 -68.5 13t-52.5 35.5t-34 54t-12 68.5zM494 156q0 37 12 68t33.5 54t52 36t68.5 13q37 0 68 -13t53 -36t34 -54t12 -68t-12 -68.5
t-34 -54.5t-53 -36t-68 -13q-38 0 -68.5 13t-52 36t-33.5 54.5t-12 68.5zM578 697q19 -7 28 -7t43 13l-379 -743q-19 7 -27 7q-10 0 -44 -13zM116 502q0 -25 4.5 -48.5t13.5 -41.5t23 -28.5t34 -10.5q19 0 33 10.5t23.5 28.5t14 41.5t4.5 48.5t-4.5 48t-14 41t-23.5 28.5
t-33 10.5q-20 0 -34 -10.5t-23 -28.5t-13.5 -41t-4.5 -48zM585 156q0 -26 4.5 -49t14 -41t23.5 -28.5t33 -10.5t33.5 10.5t23.5 28.5t13.5 41t4.5 49q0 25 -4.5 48t-13.5 41t-23.5 28.5t-33.5 10.5t-33 -10.5t-23.5 -28.5t-14 -41t-4.5 -48z" />
    <glyph glyph-name="ampersand" unicode="&#x26;" horiz-adv-x="641" 
d="M135 517q0 33 12 61.5t33 49.5t50.5 33t64.5 12q61 0 100 -30t39 -89q0 -28 -12 -53.5t-30.5 -47.5t-41.5 -40.5t-44 -31.5q3 -5 6.5 -9.5t7.5 -9.5q36 -48 71 -91t70 -83q34 47 62 94t55 105q11 -23 23.5 -36.5t25.5 -21.5q-32 -51 -63.5 -96.5t-67.5 -87.5
q31 -35 68 -75.5t66 -74.5q-22 0 -28.5 0.5t-10.5 1.5h1q-23 3 -46 3q-10 0 -21.5 -1t-22.5 -3q-3 0 -9 -0.5t-9 -0.5q-8 14 -23 35.5t-33 42.5q-22 -21 -44 -38t-47 -28.5t-54 -18t-64 -6.5q-39 0 -74.5 11t-62.5 33t-42.5 55t-15.5 76q0 32 13 63t36 59t54.5 51t68.5 39
q-27 40 -44 76t-17 72zM123 174q0 -24 10 -47t27.5 -40.5t42 -28t53.5 -10.5q44 0 77 16t64 45q-46 56 -88.5 108.5t-84.5 111.5q-46 -29 -73.5 -65t-27.5 -90zM364 555q0 31 -18 51t-50 20q-34 0 -53.5 -23.5t-19.5 -58.5q0 -26 15 -61t38 -66q45 29 66.5 66t21.5 72z" />
    <glyph glyph-name="quotesingle" unicode="'" horiz-adv-x="144" 
d="M34 698h70v-299h-70v299z" />
    <glyph glyph-name="parenleft" unicode="(" horiz-adv-x="215" 
d="M204 672q-37 -48 -60.5 -94t-36.5 -93t-17.5 -97t-4.5 -105q0 -56 4.5 -105.5t17.5 -97t36.5 -93t60.5 -93.5l-32 -30q-83 89 -125 197t-42 222q0 54 10.5 110t31.5 110t52 104.5t72 94.5z" />
    <glyph glyph-name="parenright" unicode=")" horiz-adv-x="215" 
d="M10 -106q37 48 60.5 93.5t36.5 93t17.5 97t4.5 105.5q0 55 -4.5 105t-17.5 97t-36.5 93t-60.5 94l32 30q83 -89 125 -197t42 -222q0 -54 -10.5 -110t-31.5 -110t-52 -104.5t-72 -94.5z" />
    <glyph glyph-name="asterisk" unicode="*" horiz-adv-x="366" 
d="M144 688q14 -5 22.5 -6t16.5 -1t16.5 1t22.5 6l-15 -144q29 22 60.5 45t57.5 42q3 -21 13.5 -40t27.5 -30l-135 -61q30 -15 67.5 -31.5t65.5 -30.5q-14 -10 -25 -27.5t-14 -39.5l-118 82q3 -34 6.5 -71.5t6.5 -68.5q-11 2 -20 4.5t-17 2.5q-5 0 -15.5 -2.5t-23.5 -4.5
l13 141q-28 -20 -58.5 -43t-56.5 -42q-3 23 -14 40.5t-26 28.5l131 62q-32 14 -67.5 30t-66.5 30q13 11 25 30t12 42l121 -88z" />
    <glyph glyph-name="plus" unicode="+" horiz-adv-x="512" 
d="M0 291h221v220h70v-220h221v-70h-221v-221h-70v221h-221v70z" />
    <glyph glyph-name="comma" unicode="," 
d="M79 86q5 14 17 28.5t36 14.5q14 0 29.5 -9.5t15.5 -32.5q0 -12 -4.5 -22.5t-9.5 -20.5q-1 -1 -3 -5l2 2q-30 -51 -63 -106.5t-63 -106.5l-35 13z" />
    <glyph glyph-name="hyphen" unicode="-" horiz-adv-x="336" 
d="M37 274h261v-80h-261v80z" />
    <glyph glyph-name="period" unicode="." 
d="M22 53q0 26 19.5 46t45.5 20t45.5 -20t19.5 -46t-19.5 -45.5t-45.5 -19.5t-45.5 19.5t-19.5 45.5z" />
    <glyph glyph-name="slash" unicode="/" horiz-adv-x="334" 
d="M270 705q10 -3 17 -5t14 -2q8 0 17.5 2.5t23.5 7.5l-278 -732q-20 6 -31 6q-16 0 -41 -9z" />
    <glyph glyph-name="zero" unicode="0" horiz-adv-x="534" 
d="M30 329q0 70 12.5 132.5t40 109.5t73 74.5t111.5 27.5q73 0 119 -27.5t72 -74.5t36 -109.5t10 -132.5q0 -68 -14 -130.5t-43 -110t-74 -76t-106 -28.5q-73 0 -119 27.5t-72.5 74.5t-36 109.5t-9.5 133.5zM129 329q0 -63 7 -116.5t23 -93t42.5 -62t65.5 -22.5t65 22.5
t42.5 62t23.5 93t7 116.5q0 62 -7 115.5t-23.5 93t-42.5 62t-65 22.5t-65.5 -21t-42.5 -59t-23 -92t-7 -121z" />
    <glyph glyph-name="one" unicode="1" horiz-adv-x="278" 
d="M138 583q-26 -14 -55 -30t-54 -30q-7 13 -16.5 23t-18.5 17v18q58 23 118 51t112 54l17 -9q-3 -64 -5 -130t-2 -130v-162q0 -63 2.5 -131t5.5 -131q-16 3 -29.5 5t-26.5 2q-12 0 -26 -2t-30 -5q4 63 6 131t2 131v328z" />
    <glyph glyph-name="two" unicode="2" horiz-adv-x="480" 
d="M61 567q34 55 80 80.5t110 25.5q40 0 75.5 -10.5t62 -33t41.5 -56.5t15 -82q0 -34 -8 -63.5t-23.5 -57.5t-39 -56.5t-54.5 -60.5q-7 -7 -14 -14.5t-15 -15.5q-15 -16 -34 -34.5t-37.5 -38t-35.5 -38t-29 -33.5h73q70 0 130.5 3t101.5 5q-8 -29 -8 -46t8 -47
q-52 2 -110.5 4t-110.5 2q-53 0 -109.5 -1.5t-109.5 -3.5v28q68 67 118 118.5t85 92t57 73t34.5 61.5t17 57t4.5 61q0 68 -29 99.5t-70 31.5q-29 0 -49.5 -11t-34 -27.5t-21 -34.5t-10.5 -33l-20 -2z" />
    <glyph glyph-name="three" unicode="3" horiz-adv-x="459" 
d="M55 608q11 11 26 22.5t33.5 21t42 15.5t51.5 6q40 0 75.5 -9t62.5 -28t42.5 -48.5t15.5 -69.5q0 -32 -9.5 -57.5t-25 -45.5t-35.5 -34.5t-40 -23.5q24 -5 49.5 -15t45.5 -28.5t33 -46.5t13 -67q0 -46 -18.5 -85.5t-52.5 -68.5t-81.5 -45.5t-105.5 -16.5q-52 0 -90.5 12.5
t-68.5 26.5q5 11 9.5 31.5t5.5 37.5l18 11q9 -11 22 -22.5t29.5 -22t36 -17t40.5 -6.5q69 0 108 42.5t39 110.5q0 37 -9.5 63t-26 42t-40 23t-51.5 7q-9 0 -25 -3t-31 -7q2 11 3 20t1 14q0 4 -1 13t-3 19q16 -2 30.5 -4t25.5 -2q31 0 50.5 13.5t30.5 33.5t15 44.5t4 47.5
q0 29 -8 49.5t-21.5 34t-30.5 20t-34 6.5q-37 0 -64.5 -24t-37.5 -54l-20 -2z" />
    <glyph glyph-name="four" unicode="4" horiz-adv-x="508" 
d="M0 204q43 60 90.5 126.5t91.5 129.5t81.5 118t60.5 91q11 -3 21 -5t16 -2q7 0 17.5 2.5t24.5 6.5q-2 -42 -3.5 -93.5t-2.5 -107t-1.5 -111.5t-0.5 -108q26 0 51 3t48 8q-4 -15 -6.5 -26t-2.5 -19t2.5 -19t6.5 -26q-23 5 -48 7t-51 2v-31q0 -33 1.5 -68.5t3.5 -61.5
q0 -4 0.5 -13.5t0.5 -13.5q-16 3 -29 5t-24 2q-16 0 -53 -8q1 14 2.5 33.5t2.5 41t2 43.5t1 40v31q-27 0 -70.5 -1t-88.5 -2t-85 -2t-59 -2v30zM301 538q-22 -30 -49.5 -69.5l-55 -79t-52 -76.5t-40.5 -62h199z" />
    <glyph glyph-name="five" unicode="5" horiz-adv-x="461" 
d="M144 390q17 8 39 13t60 5q45 0 81 -15.5t61.5 -42t39.5 -61t14 -73.5q0 -48 -18.5 -90.5t-51.5 -74t-79.5 -49.5t-102.5 -18q-44 0 -86.5 10t-78.5 34v15q5 12 9 30.5t6 33.5h22q9 -18 24 -31.5t33 -22.5t37.5 -13.5t37.5 -4.5q27 0 52 10t44.5 31t31 53t11.5 76
q0 39 -10.5 66t-28 44t-40.5 25t-47 8q-19 0 -35.5 -4t-29 -10t-22 -11.5t-13.5 -8.5l-22 14q8 42 9.5 84.5t1.5 84.5q0 38 -2 82.5t-7 82.5l18 12q11 -2 25.5 -3.5t31.5 -3.5q20 -2 50 -2.5t68 -0.5q45 0 83.5 0.5t56.5 1.5l12 -12q-5 -16 -6.5 -30.5t-1.5 -25.5
q0 -5 0.5 -10t2.5 -19q-25 4 -61 7t-74.5 4.5t-73.5 2.5t-59 1z" />
    <glyph glyph-name="six" unicode="6" horiz-adv-x="491" 
d="M392 627l-15 -14q-13 4 -26 6.5t-26 2.5q-49 0 -84.5 -28t-59.5 -71t-37 -93t-16 -94q23 27 58 48.5t88 21.5q27 0 62 -8t66 -29.5t52.5 -59t21.5 -95.5q0 -51 -16 -93.5t-45.5 -72.5t-71.5 -47t-93 -17q-44 0 -84.5 15.5t-71.5 50t-49.5 90t-18.5 134.5v3q0 81 19 153
t56.5 126t92 85.5t125.5 31.5h6q17 0 27 -1t20 -3zM371 193q0 70 -28 114t-86 44q-26 0 -49 -11.5t-40 -32.5t-27 -50t-10 -64t9 -64t25.5 -50t38 -32.5t47.5 -11.5q57 0 88.5 44t31.5 114z" />
    <glyph glyph-name="seven" unicode="7" horiz-adv-x="464" 
d="M465 630q-44 -74 -89.5 -153.5t-90.5 -160.5t-88.5 -163t-83.5 -160q-13 3 -23.5 5t-19.5 2q-15 0 -56 -11q46 73 96.5 156.5t98 163t87.5 148.5t66 114q-48 0 -133.5 -2t-200.5 -9q2 15 4 30.5t2 23.5t-2 23t-4 31q40 -3 78 -5.5t65 -3.5q16 0 40 -0.5t50 -1t51 -0.5h43
q15 0 28.5 0.5t25.5 0.5h56v-28z" />
    <glyph glyph-name="eight" unicode="8" horiz-adv-x="505" 
d="M25 184q0 59 30 108t102 77q-18 7 -35.5 19.5t-31.5 30t-22.5 40t-8.5 49.5q0 33 13.5 62.5t39 52.5t61 36.5t79.5 13.5q51 0 87.5 -13t60.5 -34t35.5 -48.5t11.5 -57.5q0 -44 -24 -84t-71 -61q19 -6 41.5 -17.5t41.5 -31.5t31.5 -49.5t12.5 -70.5q0 -50 -18 -91
t-48.5 -70t-72 -45t-88.5 -16q-48 0 -89.5 13.5t-72 39t-48 62.5t-17.5 85zM374 189q0 67 -32.5 110t-89.5 43t-89.5 -43t-32.5 -110q0 -68 32.5 -111t89.5 -43t89.5 43t32.5 111zM348 507q0 24 -5.5 44.5t-17 36.5t-29.5 25t-43 9t-42.5 -9t-29 -25t-17 -36.5t-5.5 -44.5
q0 -23 5.5 -44t17 -36.5t29 -24.5t42.5 -9t43 9t29.5 24.5t17 36.5t5.5 44z" />
    <glyph glyph-name="nine" unicode="9" horiz-adv-x="498" 
d="M85 79q22 -20 46.5 -32t49.5 -12q46 0 80.5 24.5t57 64t34 90.5t13.5 105q-25 -32 -61 -49.5t-87 -17.5q-92 0 -145.5 53t-53.5 150q0 46 16 86t45.5 69.5t71.5 46t93 16.5q45 0 86.5 -15.5t73 -50t50 -90t18.5 -134.5q0 -83 -20 -156t-58.5 -127t-93.5 -85t-125 -31
q-26 0 -49 6t-37 11q-2 14 -9 32.5t-15 32.5zM364 480q0 63 -33 102.5t-87 39.5q-53 0 -86.5 -45t-33.5 -122q0 -78 29.5 -113t80.5 -35q31 0 55.5 14.5t41 39t25 55.5t8.5 64z" />
    <glyph glyph-name="colon" unicode=":" horiz-adv-x="185" 
d="M26 409q0 26 19.5 45.5t45.5 19.5t45.5 -19.5t19.5 -45.5t-19.5 -45.5t-45.5 -19.5t-45.5 19.5t-19.5 45.5zM26 53q0 26 19.5 46t45.5 20t45.5 -20t19.5 -46t-19.5 -45.5t-45.5 -19.5t-45.5 19.5t-19.5 45.5z" />
    <glyph glyph-name="semicolon" unicode=";" horiz-adv-x="192" 
d="M83 86q5 14 17 28.5t36 14.5q14 0 30 -9.5t16 -32.5q0 -12 -5 -22.5t-10 -20.5q-1 -1 -3 -5l2 2q-30 -51 -63 -106.5t-62 -106.5l-35 13zM59 409q0 26 19.5 45.5t45.5 19.5t45.5 -19.5t19.5 -45.5t-19.5 -45.5t-45.5 -19.5t-45.5 19.5t-19.5 45.5z" />
    <glyph glyph-name="less" unicode="&#x3c;" horiz-adv-x="549" 
d="M-1 288l512 239v-72l-433 -199q108 -49 216.5 -99.5t216.5 -100.5v-72l-512 242v62z" />
    <glyph glyph-name="equal" unicode="=" horiz-adv-x="559" 
d="M552 315h-512v70h512v-70zM552 126h-512v70h512v-70z" />
    <glyph glyph-name="greater" unicode="&#x3e;" horiz-adv-x="548" 
d="M37 56l433 200q-108 49 -216.5 99.5t-216.5 99.5v72l512 -241v-62l-512 -240v72z" />
    <glyph glyph-name="question" unicode="?" horiz-adv-x="286" 
d="M13 661q22 14 48.5 25.5t62.5 11.5q37 0 65.5 -11t48 -30t29.5 -44t10 -53q0 -30 -8.5 -54.5t-23 -46.5t-32 -41t-35.5 -37q-29 -29 -51.5 -57.5t-22.5 -60.5q0 -16 10.5 -31.5t30.5 -15.5q10 0 18.5 4t13.5 6l22 -12q-6 -8 -11.5 -18.5t-6.5 -18.5q-10 -4 -20 -6t-23 -2
t-32.5 6t-37.5 20t-31 36.5t-13 55.5q0 27 8 49.5t21.5 42.5t30 37.5t33.5 34.5q29 29 52 58t23 64q0 32 -23.5 51t-50.5 19q-23 0 -48.5 -17t-47.5 -43zM57 53q0 26 20 46t46 20t45.5 -20t19.5 -46t-19.5 -45.5t-45.5 -19.5t-46 19.5t-20 45.5z" />
    <glyph glyph-name="at" unicode="@" horiz-adv-x="685" 
d="M437 527h72q-20 -96 -31 -151t-16.5 -83.5t-7 -38.5t-1.5 -15q0 -24 22 -24q18 0 38.5 13.5t38 37.5t29 56.5t11.5 70.5q0 46 -11 84.5t-36.5 66.5t-68.5 43.5t-107 15.5q-56 0 -104 -23t-82.5 -63t-54 -94.5t-19.5 -116.5q0 -56 17.5 -97.5t48.5 -69.5t74 -42t93 -14
q34 0 66.5 8t62.5 21t56 29.5t47 32.5l-4 -57q-13 -12 -36.5 -27.5t-55.5 -29.5t-72 -23.5t-87 -9.5q-50 0 -101.5 18.5t-93.5 57t-68.5 97t-26.5 138.5q0 60 24 116.5t69 100.5t108.5 71t142.5 27q82 0 137 -21t87.5 -54.5t46 -77t13.5 -88.5q0 -55 -18.5 -100t-47 -77
t-63 -49.5t-67.5 -17.5q-38 0 -53 14t-20 40q-19 -23 -43.5 -38.5t-55.5 -15.5q-56 0 -85.5 35t-29.5 105q0 50 14.5 92t39.5 72.5t58.5 47.5t71.5 17q23 0 43.5 -9t31.5 -26zM407 423q0 27 -9.5 45t-39.5 18q-26 0 -45 -18t-32.5 -45t-20 -59t-6.5 -60q0 -39 10 -59.5
t39 -20.5q26 0 45.5 22t32.5 53t19.5 65.5t6.5 58.5z" />
    <glyph glyph-name="A" unicode="A" horiz-adv-x="662" 
d="M352 698q17 -40 36.5 -87.5t39.5 -95.5q31 -75 65.5 -155t65.5 -152t56.5 -129.5t39.5 -86.5q-21 4 -38.5 6t-29.5 2q-11 0 -26 -2t-34 -5q-14 51 -34.5 105t-41.5 105q-6 16 -11.5 27.5t-11.5 25.5q-29 1 -60 1.5t-60 0.5q-30 0 -56 -0.5t-56 -1.5q-29 -72 -54 -140.5
t-40 -122.5q-13 3 -24 5t-19 2q-9 0 -22.5 -2.5t-30.5 -6.5q78 172 159 353t156 354h31zM313 533q-24 -56 -45.5 -106t-46.5 -107q10 0 19.5 -0.5t19.5 -0.5q13 -1 26 -1h26h47.5t47.5 1z" />
    <glyph glyph-name="B" unicode="B" horiz-adv-x="520" 
d="M46 425q0 63 -3 131t-6 130q31 -3 60 -4t54 -1q13 0 25 0.5t26 0.5l26 2t26 1q43 0 82.5 -7t68.5 -24t46.5 -45.5t17.5 -72.5q0 -63 -33 -104t-90 -64q69 -12 107.5 -52t38.5 -116q0 -56 -23.5 -95t-60 -63.5t-82 -35.5t-89.5 -11q-12 0 -24.5 0.5t-24.5 1.5
q-11 1 -22.5 2t-23.5 1q-48 0 -105 -6q3 64 6 132.5t3 131.5v167zM145 242q0 -33 1 -65.5t3 -65.5v-27.5t1 -29.5q19 -2 41.5 -2.5t45.5 -0.5q30 0 56.5 10t46.5 29.5t32 48t12 65.5q0 39 -14.5 63.5t-41.5 39t-65 20t-84 5.5h-34v-90zM188 387q33 0 64.5 6t56 21t40 40
t15.5 63q0 36 -13.5 58t-35 34.5t-48 16.5t-52.5 4q-40 0 -65 -3q-1 -13 -0.5 -27t-0.5 -26q-2 -31 -3 -62t-1 -62v-63h43z" />
    <glyph glyph-name="C" unicode="C" horiz-adv-x="655" 
d="M602 43q-10 -8 -30.5 -18.5t-48 -20t-61.5 -16t-71 -6.5q-79 0 -146 24t-115.5 70t-75.5 112.5t-27 151.5t27.5 151.5t77 112.5t118 70t151.5 24q63 0 121 -15t103 -36q-8 -17 -14 -38.5t-9 -36.5q0 -3 -0.5 -8t-0.5 -6l-19 -2q-11 11 -28 26t-40 28.5t-51.5 23
t-61.5 9.5q-55 0 -102.5 -18t-82.5 -55t-55 -94.5t-20 -135.5t20 -135t55 -94t82.5 -55t102.5 -18q33 0 63 9t55 22t45.5 27.5t34.5 25.5l14 -14z" />
    <glyph glyph-name="D" unicode="D" horiz-adv-x="706" 
d="M50 424q0 63 -2.5 131t-5.5 131q37 -2 78.5 -3.5t78.5 -1.5q18 0 36 0.5t36 0.5q19 1 37.5 2t36.5 1q88 0 151 -23t103 -65.5t58.5 -104t18.5 -138.5q0 -100 -34.5 -168.5t-88 -111t-118 -61t-123.5 -18.5q-17 0 -32.5 0.5t-32.5 1.5q-16 1 -32.5 2t-32.5 1
q-33 0 -70.5 -2t-70.5 -4q3 63 6 131.5t3 131.5v167zM149 257q0 -52 1 -100t4 -99q21 -4 53 -5.5t65 -1.5q52 0 103.5 12.5t92.5 46t67 92.5t26 152q0 82 -20 134.5t-55.5 83t-84.5 42t-106 11.5q-41 0 -76.5 -2.5t-64.5 -6.5q-3 -45 -4 -93t-1 -99v-167z" />
    <glyph glyph-name="E" unicode="E" horiz-adv-x="416" 
d="M45 425q0 63 -2.5 131t-5.5 130q45 -2 92.5 -3.5t91.5 -1.5t93 1.5t93 3.5q-6 -29 -6 -39q0 -12 6 -40q-14 1 -33.5 2.5t-30.5 2.5q-21 1 -41 2.5t-42.5 3t-50 2t-61.5 0.5q0 -11 -0.5 -19t-1.5 -19v1q-1 -17 -1.5 -35.5t-0.5 -40.5q0 -23 0.5 -45t0.5 -41v-33q42 0 76 1
t62.5 2.5t53 3.5t47.5 4q-2 -15 -3.5 -25.5t-1.5 -15.5t1.5 -15.5l3.5 -24.5q-27 3 -61 5t-67.5 3t-63 1.5t-48.5 0.5q0 -5 -0.5 -11.5t-0.5 -14.5q0 -16 0.5 -40t0.5 -66v-86.5t1 -49.5q32 0 67 0.5t70 2t68.5 4.5t61.5 9q-3 -13 -4.5 -24.5t-1.5 -18.5q0 -11 6 -39
q-44 2 -93.5 4t-94.5 2t-93.5 -2t-93.5 -4q3 64 5.5 132.5t2.5 131.5v167z" />
    <glyph glyph-name="F" unicode="F" horiz-adv-x="413" 
d="M45 424q0 63 -2.5 131t-5.5 131q45 -2 92.5 -3.5t91.5 -1.5q45 0 95.5 1.5t103.5 3.5q-6 -29 -6 -39q0 -12 6 -40q-27 3 -63.5 5t-75 3.5t-74.5 3t-62 1.5v-4q-1 -30 -1.5 -57.5t-0.5 -55.5q0 -18 0.5 -33.5t0.5 -31.5v-48q63 0 126.5 2t127.5 9q-3 -14 -5 -24.5
t-2 -15.5t2 -16.5t5 -23.5q-55 6 -122.5 7.5t-131.5 1.5v-73q0 -63 3 -132t6 -132q-17 3 -32 5t-26 2t-26 -2t-33 -5q3 63 6 132t3 132v167z" />
    <glyph glyph-name="G" unicode="G" horiz-adv-x="713" 
d="M627 547q-15 18 -36.5 35t-48 30.5t-58 22t-66.5 8.5q-58 0 -108.5 -18t-87.5 -55t-58 -94.5t-21 -135.5q0 -69 19 -124t55 -93.5t88 -59t118 -20.5q40 0 80.5 6.5t65.5 20.5q1 27 1.5 55.5t0.5 56.5t-1 55t-3 53q0 5 -0.5 18.5t-0.5 19.5q15 -4 30.5 -6t25.5 -2
q11 0 23 2t30 7q-2 -23 -3.5 -77.5t-1.5 -133.5v-39q0 -11 0.5 -23.5t0.5 -23.5q-22 -8 -54 -16.5t-68 -16t-71.5 -12.5t-64.5 -5q-89 0 -160 23t-121 68t-77 112t-27 155q0 85 27.5 151.5t78.5 112.5t123 70t161 24q50 0 90 -6t72 -15t56.5 -20t43.5 -21q-9 -17 -17.5 -42
t-10.5 -47h-25z" />
    <glyph glyph-name="H" unicode="H" horiz-adv-x="683" 
d="M534 424q0 63 -2.5 131.5t-5.5 131.5q34 -6 58 -6q23 0 58 6q-3 -63 -5.5 -131.5t-2.5 -131.5v-167q0 -63 2.5 -132t5.5 -132q-17 3 -32 5t-26 2t-26 -2t-32 -5q3 63 5.5 132t2.5 132v77q-48 1 -96.5 1.5t-96.5 0.5q-51 0 -96.5 -0.5t-96.5 -1.5v-77q0 -63 2.5 -132
t5.5 -132q-17 3 -32 5t-26 2t-26 -2t-32 -5q2 63 5 132t3 132v167q0 63 -3 131.5t-5 131.5q34 -6 58 -6q23 0 58 6q-3 -63 -5.5 -131.5t-2.5 -131.5v-24q14 0 29 -0.5t29 -0.5q34 -1 67 -1.5t68 -0.5t68 0.5t67 1.5q17 0 29 0.5t29 0.5v24z" />
    <glyph glyph-name="I" unicode="I" horiz-adv-x="181" 
d="M39 424q0 63 -2.5 131.5t-5.5 131.5q34 -6 58 -6q23 0 58 6q-3 -63 -5.5 -131.5t-2.5 -131.5v-167q0 -63 2.5 -132t5.5 -132q-17 3 -32 5t-26 2t-26 -2t-32 -5q3 63 5.5 132t2.5 132v167z" />
    <glyph glyph-name="J" unicode="J" horiz-adv-x="286" 
d="M21 -222q44 0 69.5 18t38.5 51t16.5 79t3.5 102l5 396q0 63 -3 131.5t-6 131.5q17 -3 32 -4.5t26 -1.5q23 0 59 6q-3 -63 -6 -131.5t-3 -131.5v-117t-1 -145v-54.5t-0.5 -62.5t-0.5 -57.5v-38.5q0 -45 -15.5 -85t-44 -69t-68.5 -46t-89 -17z" />
    <glyph glyph-name="K" unicode="K" horiz-adv-x="581" 
d="M40 5q2 63 4.5 126t2.5 126v167q0 63 -3 131.5t-5 131.5q34 -6 58 -6q23 0 58 6q-3 -63 -5.5 -131.5t-2.5 -131.5v-48l2 3q34 30 72 67t76 77t75.5 82t72.5 81q11 -3 22 -4t22 -1q23 0 81 11q-38 -33 -84 -75.5t-92.5 -87t-87.5 -86t-68 -71.5q38 -44 77 -87.5t78 -90.5
q20 -22 43 -48t46 -53t46 -53.5t43 -48.5q-26 4 -47.5 6.5t-35.5 2.5q-25 0 -58 -6q-35 43 -78.5 96t-84 102t-73 87t-47.5 53v-75q0 -63 2.5 -132t5.5 -132q-17 3 -32 5t-26 2t-22 -1.5t-24 -3.5z" />
    <glyph glyph-name="L" unicode="L" horiz-adv-x="411" 
d="M45 424q0 63 -3 131.5t-6 131.5q36 -6 59 -6t58 6q-3 -63 -6 -131.5t-3 -131.5q0 -96 0.5 -170t1.5 -135q0 -19 0.5 -30.5t0.5 -28.5h65.5t64 1.5t67.5 4.5t76 9q-4 -14 -6.5 -25t-2.5 -16q0 -6 2.5 -16t6.5 -24q-45 2 -96.5 4t-96.5 2t-94.5 -2t-95.5 -4q3 63 5.5 131.5
t2.5 131.5v167z" />
    <glyph glyph-name="M" unicode="M" horiz-adv-x="863" 
d="M162 698q33 -69 66 -133.5t66.5 -128.5t68.5 -129t72 -133q17 32 45.5 85t66.5 122q21 39 43.5 80.5t44.5 82.5t43.5 80.5t39.5 73.5h27q8 -66 15 -132.5t14 -127.5q13 -109 26 -224.5t28 -221.5q-40 8 -58 8q-11 0 -24.5 -2t-29.5 -5q-5 65 -10 125t-10 118.5
t-11.5 117.5t-15.5 121l-14 -26q-60 -109 -120 -222.5t-109 -226.5h-20q-38 81 -80.5 165t-86.5 167l-18.5 37t-17 33.5t-17.5 34t-20 37.5q-7 -59 -14.5 -125.5t-13.5 -131.5t-10.5 -123.5t-4.5 -101.5q-30 8 -44 8q-7 0 -18 -2.5t-28 -6.5q13 81 26.5 172.5t27 184.5
t25 183t19.5 167h31z" />
    <glyph glyph-name="N" unicode="N" horiz-adv-x="677" 
d="M598 -18q-103 121 -220 247.5t-233 249.5l-25 27q-1 -28 -1.5 -69.5t-0.5 -104.5q0 -20 0.5 -50t1 -64t1.5 -69t2.5 -66.5t2.5 -55.5t3 -36q-15 4 -26.5 6.5t-19.5 2.5q-16 0 -48 -8q2 13 4.5 42t5 66.5t5 81.5t4.5 88t3 85t1 73v87.5t-0.5 76.5t-1.5 62t-2 44h30
q11 -11 22.5 -24t22.5 -25q57 -62 117 -127t117 -126t108 -115t92 -95q0 63 -0.5 129.5t-1 131.5t-2.5 126.5t-5 115.5q30 -8 44 -8q12 0 42 8q-2 -24 -5 -70t-5.5 -96.5t-4.5 -98t-2 -74.5v-58.5t0.5 -71t0.5 -75t0.5 -70.5t1 -57.5t0.5 -35.5h-28z" />
    <glyph glyph-name="O" unicode="O" horiz-adv-x="811" 
d="M32 340q0 85 27.5 151.5t76.5 112.5t117.5 70t151.5 24t151.5 -24t118 -70t77 -112.5t27.5 -151.5t-27.5 -151.5t-77 -112.5t-118 -70t-151.5 -24t-151.5 24t-117.5 70t-76.5 112.5t-27.5 151.5zM665 340q0 78 -20 135.5t-55 94.5t-82.5 55t-102.5 18t-102 -18t-82 -55
t-55 -94.5t-20 -135.5t20 -135t55 -94t82 -55t102 -18t102.5 18t82.5 55t55 94t20 135z" />
    <glyph glyph-name="P" unicode="P" horiz-adv-x="489" 
d="M46 424q0 63 -3 131t-6 131q29 -3 55.5 -4t49.5 -1q13 0 30 0.5t35 1.5q17 1 31 1.5t25 0.5q15 0 37.5 -1t47.5 -6t49.5 -15.5t44 -30t32 -49t12.5 -72.5q0 -67 -28.5 -109t-70.5 -65t-89 -31.5t-84 -8.5h-35.5t-33.5 2v-42q0 -63 3 -132t6 -132q-17 3 -32 5t-26 2
t-26 -2t-33 -5q3 63 6 132t3 132v167zM145 359q30 -6 60 -6q28 0 58.5 6.5t55.5 23.5t41.5 46.5t16.5 76.5q0 39 -11 63t-31 37.5t-48.5 18.5t-63.5 5h-78v-271z" />
    <glyph glyph-name="Q" unicode="Q" horiz-adv-x="830" 
d="M14 340q0 85 27.5 151.5t77 112.5t118 70t151.5 24t151.5 -24t118 -70t77 -112.5t27.5 -151.5q0 -135 -66 -222t-179 -119q28 -22 68.5 -53t83.5 -63t83 -61.5t67 -49.5q-18 -1 -34.5 -5.5t-30 -11t-23.5 -14.5t-14 -15q-27 24 -66.5 58t-82 69.5t-84 69.5t-71.5 59h-25
q-83 0 -151.5 24t-118 70t-77 112.5t-27.5 151.5zM647 340q0 78 -20 135.5t-54.5 94.5t-82 55t-102.5 18t-102 -18t-82 -55t-55 -94.5t-20 -135.5t20 -135t55 -94t82 -55t102 -18t102.5 18t82 55t54.5 94t20 135z" />
    <glyph glyph-name="R" unicode="R" horiz-adv-x="571" 
d="M47 424q0 63 -3 131t-5 131q27 -2 60 -3.5t61 -1.5q14 0 27 0.5t27 0.5q14 1 28.5 2t28.5 1q43 0 81.5 -8t67.5 -27t46 -50.5t17 -77.5q0 -48 -19 -82t-47.5 -57t-62 -36t-62.5 -17q10 -12 21.5 -27.5t27.5 -35.5q25 -32 58 -72.5t64.5 -80t59 -72.5l42.5 -51
q-26 4 -47.5 6.5t-35.5 2.5q-27 0 -60 -6q-15 22 -44 63.5t-65 88.5t-74 93t-69 79h-24v-61q0 -63 3 -132t6 -132q-17 3 -32 5t-26 2t-26 -2t-32 -5q2 63 5 132t3 132v167zM146 376q12 -2 26 -2.5t30 -0.5q28 0 59.5 6.5t57 22.5t42.5 42.5t17 67.5q0 36 -13.5 58.5t-34 36
t-45.5 18.5t-48 5q-27 0 -49 -1t-37 -3q-2 -51 -3.5 -101.5t-1.5 -100.5v-48z" />
    <glyph glyph-name="S" unicode="S" horiz-adv-x="469" 
d="M72 144q8 -17 21 -35t31 -32.5t42 -24t53 -9.5q30 0 54.5 10.5t41 28t25.5 41.5t9 51q0 29 -11 49t-29.5 35t-42.5 26t-50 22q-32 13 -63 27.5t-55.5 36.5t-40 54.5t-15.5 80.5q0 42 15.5 77.5t44.5 61t69.5 40t91.5 14.5q48 0 85 -13t72 -40q-11 -22 -18.5 -43
t-12.5 -51h-27q-5 13 -13 29.5t-21 30t-31.5 23t-43.5 9.5q-51 0 -83 -31t-32 -80q0 -30 11.5 -51t31 -36t44.5 -26.5t51 -21.5q31 -12 61 -26t54 -35t38.5 -51t14.5 -74q0 -47 -17 -88.5t-48.5 -72.5t-78 -49.5t-104.5 -18.5q-63 0 -103.5 20t-68.5 43q5 13 8.5 24.5
t5.5 22.5t3.5 23.5t3.5 28.5h27z" />
    <glyph glyph-name="T" unicode="T" horiz-adv-x="536" 
d="M218 424q0 51 -0.5 95.5t-2.5 95.5q-24 0 -52 -1t-55.5 -2.5t-54.5 -3.5t-49 -5q3 13 5.5 24t2.5 19q0 4 -2.5 14.5t-5.5 24.5q63 -2 132 -3t132 -1t132 1t132 3q-3 -14 -5.5 -24.5t-2.5 -15.5q0 -7 2.5 -18t5.5 -24q-48 6 -105.5 9t-106.5 3q-1 -49 -1.5 -95.5
t-0.5 -95.5v-167q0 -63 2.5 -132t5.5 -132q-17 3 -32 5t-26 2t-26 -2t-32 -5q3 63 5.5 132t2.5 132v167z" />
    <glyph glyph-name="U" unicode="U" horiz-adv-x="664" 
d="M548 360v122t-1 92.5t-2.5 67t-4.5 46.5q16 -4 29 -5.5t23 -1.5q6 0 17 2t22 6q-3 -34 -5.5 -83.5t-5 -105.5t-4.5 -115.5t-3 -112.5q-1 -67 -20.5 -120.5t-56 -91t-89.5 -58t-121 -20.5q-150 0 -219 70.5t-69 217.5q0 24 1 45t2 41q1 17 1.5 34t0.5 34q0 69 -1.5 126
t-3.5 99q0 8 -0.5 20.5t-0.5 17.5q17 -3 33 -4.5t28 -1.5q9 0 23 1.5t29 5.5q-3 -23 -5 -59.5t-3.5 -82t-2.5 -97.5t-1 -107q0 -32 1 -66t6.5 -67t18 -62t35.5 -51t58.5 -35t87.5 -13q76 0 117.5 32t60.5 79.5t22 101.5t3 99z" />
    <glyph glyph-name="V" unicode="V" horiz-adv-x="664" 
d="M287 2q-22 60 -54.5 143.5t-70.5 176t-77.5 187.5t-75.5 179q20 -4 37.5 -5.5t28.5 -1.5q13 0 27 1t30 4q43 -130 98.5 -271.5t117.5 -290.5q26 60 57 137t60.5 156t55 150.5t40.5 119.5q13 -3 24 -4.5t19 -1.5q18 0 54 9q-38 -84 -76 -171.5t-75.5 -176.5t-73 -177
t-67.5 -172q-12 3 -21 5t-17 2t-16 -1t-13 -3z" />
    <glyph glyph-name="W" unicode="W" horiz-adv-x="1028" 
d="M242 2q-8 26 -24.5 80t-37 122t-43.5 142.5t-44.5 141.5t-39 120.5t-26.5 79.5q20 -4 36 -5.5t27 -1.5q21 0 57 6q18 -74 34.5 -135t35 -123.5t40.5 -133t52 -162.5q6 18 13 37t15 44q19 57 42 125.5t44 134.5t38.5 123t26.5 91q13 -4 23 -5.5t16 -1.5q5 0 15 1.5t24 5.5
q7 -26 21 -71t31 -98.5t35.5 -112t36 -112t32.5 -97.5t24 -69q10 31 25 79t32 103t34.5 112.5t32.5 109.5t26.5 93t16.5 62q24 -6 41 -6q16 0 51 9q-9 -23 -28.5 -76t-43.5 -122t-51 -146t-50.5 -147t-42.5 -125t-27 -81q-12 3 -21.5 5t-17.5 2q-11 0 -40 -8
q-21 68 -41.5 134t-41.5 132.5t-43.5 135t-47.5 140.5q-14 -41 -36.5 -107t-48 -141t-52 -152.5t-47.5 -140.5q-12 3 -22 5t-17 2q-13 0 -33 -5z" />
    <glyph glyph-name="X" unicode="X" horiz-adv-x="600" 
d="M167 686q30 -60 65.5 -122.5t80.5 -136.5q21 31 40.5 61t38.5 61.5t38.5 65.5t39.5 72q25 -6 41 -6q9 0 24.5 2.5t34.5 7.5q-6 -9 -14.5 -21t-18 -24.5t-18.5 -24.5t-15 -21q-41 -58 -80.5 -112.5t-76.5 -114.5q54 -92 114.5 -191t118.5 -190q-46 8 -74 8q-27 0 -60 -6
l-27 50q-32 62 -63 120.5t-70 117.5q-46 -70 -88 -143t-83 -146q-12 3 -22.5 5t-18.5 2t-24 -3t-35 -8q58 83 119.5 174t116.5 176q-50 84 -105.5 175.5t-108.5 174.5q24 -4 42.5 -6t29.5 -2q13 0 27 1t31 4z" />
    <glyph glyph-name="Y" unicode="Y" horiz-adv-x="595" 
d="M239 -7q7 65 8 137.5t1 147.5q-10 17 -29.5 50.5t-43.5 74t-50.5 84.5t-50.5 84t-43.5 71.5t-29.5 46.5q24 -4 43.5 -6t30.5 -2q14 0 28.5 1t31.5 4q42 -83 85 -162t94 -166q22 34 45.5 74.5t46.5 83t44.5 86t41.5 85.5q27 -6 43 -6q21 0 59 9q-48 -74 -86.5 -133.5
t-68.5 -108.5t-52.5 -88t-38.5 -71q0 -36 0.5 -77t1.5 -81.5t2.5 -76.5t3.5 -61q-17 3 -32 5t-26 2q-12 0 -27 -2t-32 -5z" />
    <glyph glyph-name="Z" unicode="Z" horiz-adv-x="609" 
d="M18 24q38 52 80.5 111.5t84.5 119t81.5 117t72.5 106t58 85.5t37 56q-14 1 -27 1h-24q-35 0 -78.5 -1.5t-88 -3.5t-87 -5t-73.5 -6q4 13 6.5 24t2.5 18q0 6 -2.5 16.5t-6.5 23.5q48 -3 158 -4t261 -1q41 0 82 3q6 0 16.5 0.5t15.5 0.5v-31q-18 -20 -51.5 -64t-74 -100
t-84.5 -119t-84.5 -122t-73 -108.5t-50.5 -78.5q17 -1 33 -1.5t31 -0.5q37 0 86.5 1.5t100 4.5t96 6.5t74.5 7.5q-8 -30 -8 -44q0 -5 2.5 -15.5t6.5 -25.5q-71 2 -128.5 3.5t-113.5 1.5q-38 0 -87.5 -0.5t-97.5 -1.5t-88 -2t-58 -2v30z" />
    <glyph glyph-name="bracketleft" unicode="[" horiz-adv-x="207" 
d="M39 405q0 69 -2 141.5t-4 138.5q18 -2 33 -3t27 -1h25t28.5 0.5t28 1t23.5 0.5l16 -1q-2 -8 -3 -14t-1 -8q0 -9 3 -24q-20 1 -44 1.5t-47 0.5q-4 -57 -5.5 -116t-1.5 -117v-245q0 -60 1.5 -116t5.5 -116q23 0 47 0.5t44 1.5q-3 -15 -3 -24l3 -24h-15q-10 0 -23.5 0.5
t-28 1t-28.5 1t-25 0.5q-12 0 -27 -1.5t-33 -3.5q2 67 4 139.5t2 140.5v245z" />
    <glyph glyph-name="backslash" unicode="\" horiz-adv-x="335" 
d="M-8 708q28 -10 41 -10q7 0 14 2t17 5l278 -732q-27 9 -41 9q-12 0 -31 -6z" />
    <glyph glyph-name="bracketright" unicode="]" horiz-adv-x="209" 
d="M92 405q0 61 -1.5 117t-5.5 116q-23 0 -47 -0.5t-44 -1.5q1 8 2 14t1 10l-3 23h15q10 0 23.5 -0.5t28 -1t28.5 -0.5h25q12 0 27 1t33 3q-3 -66 -4.5 -138.5t-1.5 -141.5v-245q0 -68 1.5 -140.5t4.5 -139.5q-18 2 -33 3.5t-27 1.5q-11 0 -25 -0.5t-28.5 -1t-28 -1
t-23.5 -0.5l-16 2q2 8 3 14t1 8q0 4 -1 10t-2 14q20 -1 44 -1.5t47 -0.5q4 57 5.5 116t1.5 116v245z" />
    <glyph glyph-name="asciicircum" unicode="^" horiz-adv-x="555" 
d="M247 657h62l238 -460h-73l-197 382q-48 -94 -98.5 -190.5t-98.5 -191.5h-73z" />
    <glyph glyph-name="underscore" unicode="_" horiz-adv-x="587" 
d="M40 -126v68h506v-68h-506z" />
    <glyph glyph-name="grave" unicode="`" horiz-adv-x="284" 
d="M61 637q-13 8 -26 20.5t-13 32.5t14.5 30.5t26.5 10.5q14 0 26.5 -7.5t24.5 -18.5l159 -162h-66z" />
    <glyph glyph-name="a" unicode="a" horiz-adv-x="476" 
d="M68 428q48 35 87 48t79 13q37 0 68 -11t53 -31t34 -48.5t12 -63.5q0 -54 -2 -109t-2 -117q0 -11 0.5 -22t3 -20t8.5 -14.5t17 -5.5q3 0 8.5 1.5t21.5 9.5v-44q-14 -6 -33 -12t-39 -6q-30 0 -48 14t-25 37q-33 -32 -66 -47t-81 -15q-26 0 -51 9t-44.5 26t-31.5 41t-12 54
q0 63 39 97.5t106 45.5q50 8 77.5 14t41 12t16.5 13.5t3 18.5q0 22 -5 42.5t-16.5 36.5t-30 25t-45.5 9q-36 0 -68 -17.5t-49 -48.5h-26v65zM308 236q-10 -2 -21 -4.5t-23 -4.5q-24 -4 -48.5 -9.5t-45 -16t-33.5 -28t-13 -45.5q0 -41 23 -61.5t52 -20.5q34 0 61.5 18.5
t43.5 41.5z" />
    <glyph glyph-name="b" unicode="b" horiz-adv-x="507" 
d="M501 251q0 -58 -17.5 -107t-48.5 -84t-73 -55t-91 -20q-45 0 -83 20.5t-60 46.5q-14 -11 -29.5 -24.5t-29.5 -27.5h-32q2 25 3.5 60t2.5 74t1.5 78t0.5 73v176q0 33 -0.5 72.5t-1.5 79.5t-2.5 76.5t-3.5 63.5q17 -3 31 -5t23 -2q11 0 25.5 2t33.5 4q-2 -22 -4 -62
t-3.5 -88t-2.5 -99t-1 -95q31 38 70.5 59.5t84.5 21.5q53 0 92 -19.5t64.5 -52.5t38 -76t12.5 -90zM396 254q0 42 -10 75t-27 55t-39 33.5t-45 11.5q-29 0 -55 -11t-45 -35.5t-30 -64t-11 -96.5q0 -92 34 -139t98 -47q28 0 51.5 15.5t41 44t27.5 68.5t10 90z" />
    <glyph glyph-name="c" unicode="c" horiz-adv-x="484" 
d="M30 237q0 66 22 113.5t58 78t82.5 45.5t95.5 15q55 0 100.5 -15.5t67.5 -35.5q-8 -17 -14.5 -36t-10.5 -39h-22q-7 12 -18.5 25.5t-26.5 24.5t-33.5 18t-39.5 7q-42 0 -71.5 -15t-48 -42t-27.5 -63.5t-9 -79.5q0 -95 40.5 -143.5t118.5 -48.5q18 0 37.5 5.5t38.5 15.5
t36.5 23.5t31.5 29.5l17 -15l-4 -28t-3 -27q-32 -26 -78.5 -45.5t-93.5 -19.5q-44 0 -88 14t-79 44t-57 78t-22 116z" />
    <glyph glyph-name="d" unicode="d" horiz-adv-x="506" 
d="M367 64q-11 -14 -26 -28t-34.5 -25t-43 -18.5t-50.5 -7.5q-39 0 -76 14.5t-66 45t-47 77.5t-18 112q0 64 19 112t50 80t70 47.5t79 15.5q95 0 142 -71v91.5t-1 92t-2 84t-2 67.5q4 -1 13.5 -2t12.5 -2q7 -2 15 -2.5t14 -0.5q11 0 26 3q4 1 14 2t14 1q-3 -33 -5.5 -94
t-4 -133.5t-2 -148t-0.5 -138.5q0 -45 0.5 -82.5t1.5 -74.5q0 -19 0.5 -43.5t0.5 -44.5q-4 1 -13.5 2t-12.5 2h1q-3 0 -7 0.5t-9 1.5t-10 1q-10 0 -20 -3q-3 -1 -12 -2.5t-12 -2.5zM111 228q0 -55 11 -91t29 -57.5t40 -30t44 -8.5q35 0 60.5 18t42 47t24.5 66t8 75
q0 88 -33.5 135t-98.5 47q-33 0 -56.5 -15.5t-39.5 -43t-23.5 -64t-7.5 -78.5z" />
    <glyph glyph-name="e" unicode="e" horiz-adv-x="496" 
d="M26 224q0 61 15.5 110t45 83.5t73 53t99.5 18.5q54 0 93.5 -16.5t65.5 -45t39 -66.5t13 -80q0 -10 -1 -24t-2 -24q-18 0 -40.5 0.5t-39.5 0.5q-35 1 -68.5 1.5t-68.5 0.5q-21 0 -42 -0.5t-43 -1.5q-11 0 -17 -0.5t-17 -0.5v-17q0 -36 10.5 -67t30.5 -54t50 -36t68 -13
q18 0 37.5 5.5t39 15.5t37 23.5t31.5 29.5l16 -15l-8 -55q-32 -26 -78 -45.5t-93 -19.5q-55 0 -100 18t-77.5 50.5t-50.5 76t-18 94.5zM261 438q-32 0 -54.5 -14t-37.5 -35.5t-23 -48t-11 -50.5q8 0 14 -0.5t13 -0.5q23 -1 45.5 -1.5t43.5 -0.5q22 0 44.5 0.5t45.5 1.5
q11 0 15.5 0.5t13.5 0.5q0 24 -4.5 50t-16.5 48t-33.5 36t-54.5 14z" />
    <glyph glyph-name="f" unicode="f" horiz-adv-x="302" 
d="M277 649q-12 8 -25.5 12t-27.5 4q-38 0 -54 -26.5t-16 -61.5q0 -16 3 -45.5t8 -58.5h40q13 0 31.5 0.5t31.5 0.5q-2 -10 -3 -18.5t-1 -10.5q0 -4 1 -12t3 -17q-8 0 -22.5 0.5t-22.5 0.5q-17 1 -28.5 1.5t-28.5 0.5q0 -104 0.5 -213t2.5 -214q-35 8 -51 8t-54 -8
q7 108 8.5 214t1.5 213q-10 0 -18 -0.5t-19 -1.5q-6 0 -17.5 -0.5t-17.5 -0.5q2 9 3 17t1 12q0 2 -1 10.5t-3 18.5q9 0 24 -0.5t24 -0.5h24q1 29 7.5 61.5t18 64t27 59.5t35.5 48q19 19 47.5 33t58.5 14q5 0 12.5 -1t16.5 -4q0 -13 -0.5 -23t-1.5 -17q-1 -11 -1.5 -25.5
t-0.5 -25.5z" />
    <glyph glyph-name="g" unicode="g" horiz-adv-x="507" 
d="M44 321q0 43 15.5 74.5t42 52.5t62 31t75.5 10q13 0 25 -0.5t26 -1.5q7 -1 14 -1t15 -1q4 0 8.5 -0.5t7.5 -0.5q17 -2 30 -2.5t21 -0.5q57 0 91 8q-2 -11 -3 -19.5t-1 -13.5q0 -3 1 -12t3 -19q-8 1 -21.5 2t-21.5 2q-14 2 -20 2.5t-17 0.5h-12q20 -22 33.5 -53t13.5 -60
q0 -78 -51.5 -121.5t-139.5 -43.5q-6 0 -13 0.5t-14 0.5q-7 1 -13 1h-13q-14 0 -26 -10.5t-12 -24.5q0 -21 10.5 -30t37.5 -10q13 -1 26.5 -1.5t26.5 -0.5q14 -1 27 -1h27q47 -1 80.5 -11.5t54.5 -28.5t31 -42t10 -52q0 -36 -13.5 -72.5t-43 -66.5t-75 -49t-109.5 -19
q-49 0 -88.5 10.5t-67 29.5t-42.5 46.5t-15 62.5q0 48 26.5 80.5t61.5 49.5q-23 11 -34 31.5t-11 46.5q0 29 16.5 50.5t38.5 33.5q-39 22 -60 57t-21 86zM389 -98q0 52 -32.5 75t-104.5 23q-67 0 -105 -23t-38 -80q0 -31 10 -52.5t28 -35t42.5 -19.5t52.5 -6t54.5 7t47 21.5
t33 37t12.5 52.5zM337 326q0 56 -26.5 85.5t-70.5 29.5q-48 0 -74.5 -32.5t-26.5 -87.5q0 -56 24.5 -89.5t75.5 -33.5q25 0 43.5 10.5t30.5 28.5t18 41t6 48z" />
    <glyph glyph-name="h" unicode="h" horiz-adv-x="460" 
d="M46 461q0 33 -0.5 72.5t-1.5 79.5t-2.5 76.5t-4.5 63.5q17 -3 31.5 -5t22.5 -2q9 0 23 2t32 5q-3 -27 -4.5 -63.5t-2.5 -75.5t-1.5 -78t-0.5 -70l2 -46q27 32 63 50.5t83 18.5q29 0 58.5 -8t53 -28.5t38.5 -55t15 -87.5q0 -41 -2 -86t-2 -94q0 -32 0.5 -69t2.5 -69
q-37 8 -51 8q-15 0 -50 -8l3 92q2 34 3 68t1 70v59q0 67 -26 102.5t-70 35.5q-63 0 -92.5 -39t-29.5 -111q0 -28 0.5 -64t1.5 -74.5t2.5 -74.5t4.5 -64q-38 8 -55 8t-54 -8q3 28 4.5 64.5t2.5 76t1.5 79t0.5 73.5v176z" />
    <glyph glyph-name="i" unicode="i" horiz-adv-x="157" 
d="M32 288q0 45 -1.5 95.5t-6.5 98.5q37 -8 54 -8t54 8q-5 -48 -6.5 -98.5t-1.5 -95.5v-101q0 -46 1.5 -97t6.5 -98q-37 8 -54 8t-54 -8q5 47 6.5 98t1.5 97v101zM19 639q0 24 17.5 41.5t41.5 17.5t41.5 -17.5t17.5 -41.5t-17.5 -42t-41.5 -18t-41.5 18t-17.5 42z" />
    <glyph glyph-name="j" unicode="j" horiz-adv-x="246" 
d="M120 249q0 60 -2 123t-7 110q38 -8 55 -8t54 8q-5 -48 -7 -98.5t-2 -95.5v-101q0 -29 0.5 -62t2.5 -67t3 -66.5t1 -60.5q0 -42 -4.5 -78t-28.5 -71q-23 -32 -63 -54t-94 -24l-7 56q17 -5 24 -5q25 0 40 16t23.5 40.5t11.5 55.5t3 61zM106 639q0 24 18 41.5t42 17.5
t41.5 -17.5t17.5 -41.5t-17.5 -42t-41.5 -18t-42 18t-18 42z" />
    <glyph glyph-name="k" unicode="k" horiz-adv-x="472" 
d="M32 461q0 33 -0.5 72.5t-1.5 79.5t-2.5 76.5t-4.5 63.5q18 -3 32 -5t23 -2q8 0 22.5 2t31.5 5q-3 -27 -4.5 -63.5t-2.5 -76.5t-1.5 -79.5t-0.5 -72.5v-177q0 -9 2 -9q4 0 11 4.5t16 11.5q2 1 2.5 2t2.5 3q8 6 28.5 25.5t46.5 45.5t54 56.5t52 57.5q12 -3 22.5 -5t18.5 -2
t16.5 1t22.5 3h6.5t12 0.5t12 0.5h6.5q-68 -55 -128 -106.5t-110 -99.5q27 -33 58 -68.5t63 -72t64 -72t61 -68.5q-27 4 -46.5 6t-33.5 2q-23 0 -53 -6q-21 27 -48.5 60.5t-55 66t-53 61t-43.5 47.5q-2 2 -4 4.5t-3 2.5v-60q0 -45 2 -90.5t7 -93.5q-37 8 -54 8t-55 -8
q3 28 4.5 64.5t2.5 76t1.5 79t0.5 73.5v176z" />
    <glyph glyph-name="l" unicode="l" horiz-adv-x="167" 
d="M36 461q0 33 -0.5 72.5t-1.5 79.5t-2.5 76.5t-3.5 63.5q17 -3 31 -5t23 -2t23 2t31 5q-2 -27 -3.5 -63.5t-2.5 -76.5t-1.5 -79.5t-0.5 -72.5v-176q0 -34 0.5 -73.5t1.5 -79t2.5 -76t3.5 -64.5q-37 8 -54 8t-54 -8q2 28 3.5 64.5t2.5 76t1.5 79t0.5 73.5v176z" />
    <glyph glyph-name="m" unicode="m" horiz-adv-x="777" 
d="M50 288q0 45 -2 95.5t-7 98.5q37 -8 54 -8q13 0 50 8q-2 -13 -2.5 -31t-0.5 -28q52 66 136 66q48 0 88 -23t57 -61q26 42 65 63t90 21q34 0 63 -9t50 -29t33 -51t12 -74q0 -18 -1 -37.5t-2 -44.5t-2 -57.5t-1 -75.5q0 -26 1 -57t3 -62q-35 8 -52 8q-11 0 -24.5 -2
t-30.5 -6q4 32 8 112t4 208q0 22 -5 41.5t-16 34t-28.5 23t-43.5 8.5q-31 0 -54 -12.5t-35 -29.5q-6 -9 -10.5 -19.5t-6.5 -32.5t-3 -61t-1 -105q0 -42 1.5 -82t3.5 -85q-37 8 -53 8t-53 -8q4 55 6.5 117.5t2.5 116.5q0 44 -0.5 69.5t-2 40.5t-4.5 23.5t-9 19.5
q-9 17 -29.5 28.5t-42.5 11.5q-58 0 -86.5 -39t-28.5 -111v-82q0 -46 2 -97t7 -98q-38 8 -55 8t-54 -8q5 47 7 98t2 97v101z" />
    <glyph glyph-name="n" unicode="n" horiz-adv-x="484" 
d="M353 281q0 67 -26 102.5t-70 35.5q-63 0 -92.5 -39t-29.5 -111v-82q0 -46 2 -97t7 -98q-38 8 -55 8t-54 -8q5 47 7 98t2 97v101q0 45 -2 95.5t-7 98.5q37 -8 54 -8q13 0 50 8q-2 -15 -3 -25t-1 -22v-7.5t1 -8.5q27 34 63 52t84 18q29 0 58.5 -8t53 -28.5t38.5 -55
t15 -87.5q0 -41 -2 -86t-2 -94q0 -32 0.5 -69t2.5 -69q-37 8 -51 8q-15 0 -50 -8l3 92q2 34 3 68t1 70v59v0z" />
    <glyph glyph-name="o" unicode="o" horiz-adv-x="549" 
d="M28 237q0 69 22 117t57 78t79 43.5t88 13.5t88 -13.5t79 -43.5t57 -78t22 -117t-22 -117t-57 -78t-79 -43.5t-88 -13.5t-88 13.5t-79 43.5t-57 78t-22 117zM133 237q0 -39 7 -75.5t23.5 -64t43.5 -44.5t67 -17t67 17t43.5 44.5t23.5 64t7 75.5t-7 75.5t-23.5 64
t-43.5 44.5t-67 17t-67 -17t-43.5 -44.5t-23.5 -64t-7 -75.5z" />
    <glyph glyph-name="p" unicode="p" horiz-adv-x="508" 
d="M45 187q0 33 -0.5 72.5t-1.5 79.5t-2.5 77t-3.5 66q37 -8 54 -8q18 0 55 8q-2 -20 -4.5 -39.5t-3.5 -33.5q10 15 24 29t33 25.5t43.5 18.5t54.5 7q39 0 76.5 -14.5t66.5 -45t47 -77.5t18 -112t-19 -112.5t-50 -79.5t-70.5 -47.5t-79.5 -15.5q-48 0 -83.5 18t-61.5 52v-26
q0 -33 0.5 -72.5t1.5 -79.5t2.5 -76.5t4.5 -63.5q-18 3 -32 5t-23 2t-23 -2t-31 -5q2 27 3.5 63.5t2.5 76.5t1.5 79.5t0.5 72.5v158zM396 241q0 55 -11 91.5t-29 58t-40 30t-44 8.5q-37 0 -62.5 -15.5t-41.5 -42.5t-23.5 -62.5t-7.5 -75.5q0 -95 33.5 -143.5t98.5 -48.5
q33 0 56.5 15.5t39.5 42.5t23.5 63.5t7.5 78.5z" />
    <glyph glyph-name="q" unicode="q" horiz-adv-x="507" 
d="M462 29q0 -33 0.5 -72.5t1.5 -79.5t2.5 -76.5t3.5 -63.5q-17 3 -31 5t-23 2t-23 -2t-32 -5q3 27 4.5 63.5t2.5 76.5t1.5 79.5t0.5 72.5l-1 38q-29 -45 -66.5 -63.5t-82.5 -18.5q-38 0 -76.5 13t-69 42.5t-49.5 77t-19 116.5q0 66 19 114.5t50 79.5t69 46t76 15
q53 0 89 -20.5t59 -52.5q-2 15 -4 31.5t-4 34.5q38 -8 56 -8q17 0 54 8q-2 -29 -3.5 -66t-2.5 -77t-1.5 -79.5t-0.5 -72.5v-158zM370 247q0 35 -7 68t-23 58.5t-40.5 40.5t-59.5 15q-22 0 -45 -9t-41.5 -31.5t-30.5 -61.5t-12 -100q0 -39 7.5 -73t22.5 -59t37.5 -39.5
t52.5 -14.5q34 0 60.5 18t43.5 47t26 66t9 75z" />
    <glyph glyph-name="r" unicode="r" horiz-adv-x="291" 
d="M264 377q-7 7 -19.5 13t-25.5 6q-21 0 -37.5 -10t-28 -27t-17.5 -40t-6 -49v-107.5t0.5 -74.5t1.5 -53t3 -43q-34 8 -50 8q-14 0 -51 -8q4 45 4.5 103.5t0.5 141.5v31q0 38 -1 94.5t-4 119.5q37 -8 51 -8q17 0 51 8q-4 -31 -5 -47t-1 -27q26 40 57.5 60.5t62.5 20.5
q8 0 17 -2t26 -9q-7 -17 -8 -42.5t-1 -45.5z" />
    <glyph glyph-name="s" unicode="s" horiz-adv-x="369" 
d="M72 108q5 -10 15 -21.5t23.5 -21.5t30 -17t35.5 -7q33 0 59 20t26 58q0 18 -8 30t-21 20.5t-30 14.5t-35 11q-24 7 -48.5 16t-44 24t-31.5 38t-12 59q0 34 11.5 63t33.5 50t53.5 32.5t72.5 11.5q28 0 50 -6.5t40 -13.5q1 -1 1.5 -1t2.5 -1t8.5 -2.5t21.5 -5.5
q-5 -9 -10 -21t-9.5 -24t-7 -23t-3.5 -18h-28q-8 23 -28.5 42t-49.5 19q-12 0 -25 -4t-23.5 -13t-17.5 -22.5t-7 -32.5t8 -32t21.5 -21.5t31 -14.5t35.5 -12q24 -7 47.5 -15.5t42.5 -23t31 -37t12 -57.5q0 -30 -13 -59t-37 -52.5t-58 -38t-76 -14.5q-48 0 -81 12t-57 26
q3 7 6.5 18t7 23t5.5 23.5t2 20.5h27z" />
    <glyph glyph-name="t" unicode="t" horiz-adv-x="283" 
d="M156 610h17q-6 -74 -9 -144q14 0 44 1t61 3q-2 -16 -2.5 -22t-0.5 -10t0.5 -9.5t2.5 -21.5q-26 2 -57 2.5t-49 0.5q-1 -16 -2 -45t-1.5 -63t-1 -68.5t-0.5 -60.5t1 -50.5t8 -43.5t20.5 -31t39.5 -12q6 0 22.5 3t30.5 8v-44q-20 -8 -42.5 -13t-42.5 -5q-66 0 -97.5 35
t-31.5 97q0 23 1 49.5t2 57.5q2 39 2.5 82.5t1.5 103.5h-68q2 11 3 19.5t1 10.5q0 8 -1 15t-2 16q22 -2 38 -3t27 -1q0 5 -0.5 10.5t-0.5 11.5q-1 17 -1.5 40.5t-1.5 42.5z" />
    <glyph glyph-name="u" unicode="u" horiz-adv-x="485" 
d="M36 155q0 28 0.5 51t1.5 43q1 17 1 33.5v32.5q0 35 -0.5 80.5t-1.5 86.5q35 -8 50 -8q16 0 51 8q-2 -29 -4 -63t-3.5 -71t-2.5 -75t-1 -74q0 -49 8 -73.5t19 -37.5q14 -14 32.5 -23.5t44.5 -9.5q38 0 63 17t36 40q7 14 11 26t6 32t2.5 52.5t0.5 87.5q0 40 -0.5 88.5
t-2.5 83.5q35 -8 52 -8q18 0 50 8q-5 -76 -6.5 -153t-1.5 -155q0 -43 1.5 -91.5t3.5 -90.5q-32 8 -48 8q-17 0 -49 -8q1 16 2.5 26t1.5 22q0 4 -0.5 8t-0.5 9q-26 -34 -64 -53t-80 -19q-81 0 -126.5 44.5t-45.5 125.5z" />
    <glyph glyph-name="v" unicode="v" horiz-adv-x="491" 
d="M203 2q-3 9 -6.5 17t-5.5 17v-1q-42 108 -88 223t-96 224q20 -4 36 -6t29 -2q10 0 22 2t28 5q30 -97 65 -188t74 -180q32 69 62.5 150.5t58.5 159.5q5 12 10.5 29.5t10.5 29.5q24 -8 35 -8q7 0 19.5 3t28.5 8q-7 -15 -18 -40.5t-18 -41.5q-45 -102 -90 -206t-81 -205
q-26 8 -36 8q-7 0 -13.5 -1.5t-14.5 -3.5z" />
    <glyph glyph-name="w" unicode="w" horiz-adv-x="794" 
d="M198 2q-12 39 -31.5 96.5t-43 123t-50 133t-51.5 127.5q38 -8 61 -8q11 0 24 2t29 5q26 -95 54 -183t62 -176q12 30 27.5 73t32 91.5t32.5 99.5t30 96q24 -8 36 -8q8 0 34 8q25 -95 53.5 -179t59.5 -171l3 -9q13 34 30 78.5t35 92.5t35.5 96.5t32.5 90.5q11 -3 20.5 -5
t16.5 -2q16 0 46 11q-60 -128 -111.5 -250t-93.5 -240q-2 0 -7 0.5t-7 0.5q-5 2 -9.5 3t-7.5 1q-4 0 -13.5 -3t-18.5 -5q-26 91 -54.5 175.5t-63.5 172.5q-12 -30 -27 -71.5t-31.5 -87.5t-32.5 -94.5t-29 -91.5q-2 0 -8.5 0.5t-8.5 0.5q-5 2 -10 3t-8 1t-8.5 -1t-10.5 -3
q-2 0 -4.5 -0.5t-4.5 -0.5z" />
    <glyph glyph-name="x" unicode="x" horiz-adv-x="517" 
d="M149 480q27 -46 57 -89.5t62 -87.5q32 44 65.5 89t64.5 89q12 -3 21.5 -5t16.5 -2t23 3.5t39 9.5q-47 -54 -100 -114.5t-96 -113.5q21 -32 46 -66t51 -69t52 -69t50 -65q-26 5 -44.5 7.5t-28.5 2.5q-23 0 -53 -6q-32 50 -64.5 96.5t-67.5 96.5q-33 -48 -68 -97.5
t-66 -96.5q-11 3 -20.5 5t-15.5 2q-7 0 -23 -3.5t-37 -9.5q23 28 48.5 59.5t50.5 63.5t49.5 63t46.5 59q-21 28 -45 60.5t-49 65.5t-49.5 65t-46.5 60q23 -4 42 -6.5t33 -2.5q24 0 56 6z" />
    <glyph glyph-name="y" unicode="y" horiz-adv-x="487" 
d="M74 -267q45 75 79.5 142t61.5 130q-12 29 -29 72t-37.5 91t-41 97.5t-39 92.5t-33 76.5t-20.5 48.5q20 -4 35.5 -6.5t25.5 -2.5t23 2t29 5q27 -84 61 -170t70 -174q2 -5 2.5 -6.5t1.5 -2.5t1.5 -2.5t2.5 -5.5q37 80 72 174t65 188q27 -8 39 -8q14 0 50 11
q-9 -18 -33.5 -71t-57 -124.5t-69.5 -153.5t-70 -159.5t-58.5 -141t-36.5 -98.5q-13 3 -23.5 5t-15.5 2q-6 0 -20.5 -3t-34.5 -8z" />
    <glyph glyph-name="z" unicode="z" horiz-adv-x="486" 
d="M20 22q36 43 73.5 91t73.5 96t69.5 93t61.5 83q10 13 14 18t12 16q-20 -1 -53.5 -2.5t-70.5 -4t-72.5 -5t-60.5 -4.5q6 28 6 38q0 11 -5 39q37 -4 100.5 -5t154.5 -1h37t33 1l32 2t35 3v-28q-39 -51 -84 -109.5t-87 -114t-77 -102t-53 -71.5q37 0 69 0.5t65.5 2t73 4.5
t91.5 8q-3 -12 -5 -22.5t-2 -15.5q0 -4 2 -14.5t5 -22.5q-15 0 -36.5 0.5t-36.5 1.5q-44 2 -91.5 2.5t-91.5 0.5q-65 0 -129 -3h1q-11 -1 -27 -1.5t-27 -0.5v27z" />
    <glyph glyph-name="braceleft" unicode="{" horiz-adv-x="243" 
d="M1 313q35 0 53 22.5t18 59.5v165q0 71 25 97t71 26h66v-55h-41q-20 0 -30.5 -12.5t-10.5 -55.5v-159q0 -45 -20.5 -73.5t-52.5 -45.5q37 -17 55 -43.5t18 -73.5v-159q0 -22 2.5 -35t8 -20.5t13 -10t17.5 -2.5h41v-56h-66q-46 0 -71 26.5t-25 97.5v165q0 37 -18 59.5
t-53 22.5v60z" />
    <glyph glyph-name="bar" unicode="|" horiz-adv-x="144" 
d="M34 749h70v-992h-70v992z" />
    <glyph glyph-name="braceright" unicode="}" horiz-adv-x="243" 
d="M241 253q-35 0 -53 -22.5t-18 -59.5v-165q0 -71 -25 -97.5t-71 -26.5h-66v56h41q10 0 17.5 2.5t13 10t8 20.5t2.5 35v159q0 45 20 73.5t52 45.5q-37 16 -54.5 42.5t-17.5 74.5v159q0 43 -10.5 55.5t-30.5 12.5h-41v55h66q46 0 71 -26t25 -97v-165q0 -37 18 -59.5
t53 -22.5v-60z" />
    <glyph glyph-name="asciitilde" unicode="~" horiz-adv-x="520" 
d="M27 234q25 42 53.5 66t76.5 24q29 0 52 -8.5t43 -17.5q8 -3 16.5 -7t14.5 -7q22 -11 41 -18.5t40 -7.5q12 0 25 7.5t24.5 19.5t21.5 26.5t17 27.5l41 -60q-11 -16 -24 -32.5t-29 -29.5t-35 -21t-42 -8q-29 0 -56.5 10t-59.5 27q-25 12 -46 20.5t-38 8.5q-20 0 -35 -8
t-26 -20.5t-19.5 -27.5t-14.5 -28z" />
    <glyph glyph-name="exclamdown" unicode="&#xa1;" horiz-adv-x="175" 
d="M104 311q2 -27 5.5 -60t5.5 -62t5.5 -65t6.5 -74.5t6 -75t5 -66t3.5 -49t1.5 -22.5q0 -32 -17.5 -45t-39.5 -13t-39.5 13t-17.5 45q0 7 2.5 40t6.5 82.5t9 109.5l10 120q2 29 5.5 62.5t5.5 59.5h36zM21 424q0 26 19.5 45.5t45.5 19.5t45.5 -19.5t19.5 -45.5t-19.5 -45.5
t-45.5 -19.5t-45.5 19.5t-19.5 45.5z" />
    <glyph glyph-name="cent" unicode="&#xa2;" horiz-adv-x="480" 
d="M28 237q0 57 17 100.5t45.5 74.5t67 49t80.5 24q0 20 -1 47t-6 59q12 -4 21 -6.5t16 -2.5t16.5 2.5t20.5 6.5q-5 -30 -6 -56t-1 -46q51 -2 93 -16.5t63 -34.5q-8 -17 -14.5 -36t-10.5 -39h-22q-6 12 -16.5 24.5t-24.5 23t-31.5 18t-36.5 9.5q1 -101 1.5 -196t1.5 -196
q35 3 72 24t63 50l17 -15l-4 -28t-3 -27q-28 -23 -67 -41t-81 -21q0 -23 1.5 -54t4.5 -57q-11 3 -20.5 5.5t-15.5 2.5q-7 0 -16 -2.5t-21 -5.5q3 27 5 59t2 52q-40 5 -78 21.5t-67 46.5t-47 75t-18 106zM238 432q-52 -20 -78.5 -72t-26.5 -122q0 -76 27 -122.5t78 -62.5v379
z" />
    <glyph glyph-name="sterling" unicode="&#xa3;" horiz-adv-x="507" 
d="M35 77q39 0 63 11t37.5 30.5t18.5 47.5t5 63q0 23 -2.5 47t-5.5 45q-23 -1 -50 -1h-48q3 14 3.5 20.5t0.5 11.5q0 4 -0.5 10.5t-5.5 23.5q23 -5 46 -7t46 -2q-3 30 -3 57q0 70 19.5 116t49.5 73.5t66.5 38.5t70.5 11q38 0 77.5 -15t60.5 -47q-11 -14 -23.5 -31t-23.5 -37
l-16 15q-8 29 -28.5 44t-46.5 15q-48 0 -77.5 -35t-29.5 -86q0 -30 1 -54t3 -46q1 -5 1 -10v-9q30 0 52.5 0.5t45.5 2.5q11 1 27 1.5t27 1.5q-2 -11 -3 -19.5t-1 -11.5q0 -14 3 -32h-21q-34 1 -61.5 1.5t-63.5 0.5q1 -9 1 -18v-17q0 -69 -23 -121.5t-57 -86.5
q62 0 119.5 2.5t116.5 5.5q17 0 39.5 1t37.5 2q-2 -17 -3.5 -29t-1.5 -20q0 -9 1.5 -20.5t3.5 -25.5q-14 0 -34.5 0.5t-34.5 1.5h1q-86 3 -172 3q-84 0 -166 -3h1q-14 -1 -33.5 -1.5t-33.5 -0.5q1 10 2 20.5t1 20.5q0 7 -1 17.5t-2 23.5h24z" />
    <glyph glyph-name="currency" unicode="&#xa4;" horiz-adv-x="574" 
d="M491 583l49 -48l-54 -55q25 -30 38.5 -68.5t13.5 -82.5q0 -86 -51 -151q13 -13 27 -26.5t26 -25.5l-49 -50l-54 52q-32 -24 -70 -37t-80 -13q-44 0 -83 13t-69 38q-13 -12 -28 -27l-26 -26l-49 50l53 54q-49 63 -49 149q0 43 13.5 81t37.5 69q-13 14 -28 28.5t-27 27.5
l49 48l54 -55q65 51 152 51q42 0 80.5 -13.5t69.5 -36.5zM468 329q0 38 -14 72t-38.5 59t-57.5 39.5t-71 14.5t-71 -14.5t-57.5 -39.5t-38.5 -59t-14 -72t14 -72t38.5 -59.5t57.5 -40t71 -14.5t71 14.5t57.5 40t38.5 59.5t14 72z" />
    <glyph glyph-name="yen" unicode="&#xa5;" horiz-adv-x="549" 
d="M219 322q-25 0 -50.5 -0.5t-50.5 -1.5q-14 0 -34 -0.5t-34 -0.5q2 10 3 19t1 11t-1 11t-3 19q40 -1 76.5 -1.5t75.5 -0.5q-14 23 -29.5 47t-29.5 47q-32 50 -69 108.5t-70 109.5q23 -4 41.5 -6t29.5 -2q13 0 27 1t30 4q7 -18 24.5 -50t40 -70.5t47 -80t46.5 -77.5
q43 68 84.5 136.5t81.5 142.5q22 -6 38 -6q6 0 21.5 3t36.5 9q-19 -25 -43.5 -59.5t-51.5 -73t-55 -79.5t-53 -79q-3 -5 -5 -7.5t-4 -4.5t-4 -5t-5 -8q39 0 77.5 0.5t76.5 1.5q-2 -10 -3 -19t-1 -11t1 -11t3 -19q-14 0 -34 0.5t-34 0.5q-29 1 -51.5 1.5t-51.5 0.5v-65h86
t85 1q-2 -11 -3 -20t-1 -11t1 -10.5t3 -19.5q-42 2 -85.5 3t-85.5 1q0 -54 2 -109t6 -100q-38 8 -56 8t-55 -8q4 52 6 104.5t2 104.5q-41 0 -85.5 -1t-83.5 -3q2 11 3 19.5t1 10.5t-1 11t-3 20q42 -1 84.5 -1h84.5v65z" />
    <glyph glyph-name="brokenbar" unicode="&#xa6;" horiz-adv-x="130" 
d="M34 190h70v-360h-70v360zM34 676h70v-360h-70v360z" />
    <glyph glyph-name="section" unicode="&#xa7;" horiz-adv-x="437" 
d="M329 562q-8 32 -33 56.5t-62 24.5q-18 0 -36 -6t-32.5 -17.5t-23 -27.5t-8.5 -37q0 -23 10.5 -39.5t28 -29t40 -22.5t46.5 -20q28 -11 56 -23.5t50 -30t35.5 -42.5t13.5 -61q0 -42 -17.5 -74.5t-34.5 -52.5q15 -15 23.5 -34.5t8.5 -51.5q0 -38 -14 -73.5t-41 -63
t-67 -44.5t-92 -17q-19 0 -39.5 4t-40.5 10.5t-38 15t-31 17.5q5 20 9 48.5t4 47.5h28q4 -11 14 -26.5t26.5 -29t40 -23t54.5 -9.5q24 0 45.5 9t37 24t25 33.5t9.5 38.5q0 21 -10.5 37t-28 28t-40.5 22t-48 19q-32 12 -62.5 25.5t-55.5 33.5t-40 47.5t-15 68.5q0 22 6 41.5
t15.5 35.5t21 27.5t21.5 18.5q-11 17 -17.5 35t-6.5 54q0 32 11.5 62.5t34.5 54t57.5 38t79.5 14.5q51 0 86 -21.5t57 -47.5q-11 -11 -20.5 -30.5t-12.5 -36.5h-28zM349 244q0 32 -16.5 50t-62.5 38q-43 19 -70.5 32t-44.5 21.5t-26 13.5t-14 9q-11 -11 -18.5 -26.5
t-7.5 -32.5q0 -32 23.5 -54t74.5 -44q58 -25 92 -41t51 -25q8 11 13.5 25t5.5 34z" />
    <glyph glyph-name="dieresis" unicode="&#xa8;" horiz-adv-x="376" 
d="M224 629q0 24 17.5 41.5t41.5 17.5t42 -17.5t18 -41.5t-18 -41.5t-42 -17.5t-41.5 17.5t-17.5 41.5zM32 629q0 24 18 41.5t42 17.5t41.5 -17.5t17.5 -41.5t-17.5 -41.5t-41.5 -17.5t-42 17.5t-18 41.5z" />
    <glyph glyph-name="copyright" unicode="&#xa9;" horiz-adv-x="775" 
d="M29 340q0 75 28 140t76.5 113.5t114 76.5t139.5 28t139.5 -28t114 -76.5t76.5 -113.5t28 -140q0 -74 -28 -139.5t-76.5 -114t-114 -76.5t-139.5 -28t-139.5 28t-114 76.5t-76.5 114t-28 139.5zM684 340q0 63 -23 118t-63 96t-94.5 65t-116.5 24t-116.5 -24t-95 -65
t-63.5 -96t-23 -118q0 -62 23 -117t63.5 -96t95 -65t116.5 -24t116.5 24t94.5 65t63 96t23 117zM162 338q0 60 19.5 105.5t53 75.5t79 45t97.5 15q97 0 150 -33q-7 -13 -11.5 -29t-5.5 -33l-17 -2q-7 6 -17 15t-23.5 17t-31.5 13.5t-41 5.5q-32 0 -62 -8.5t-53.5 -31
t-38 -60.5t-14.5 -96q0 -39 11 -72.5t32 -58t51.5 -38.5t70.5 -14q19 0 38 5t35.5 13t30.5 17.5t24 17.5l24 -2q-7 -16 -9 -30.5t-2 -23.5q-10 -6 -26 -14t-35.5 -14.5t-42.5 -11t-47 -4.5q-53 0 -96.5 16.5t-75.5 46.5t-49.5 72.5t-17.5 95.5z" />
    <glyph glyph-name="ordfeminine" unicode="&#xaa;" horiz-adv-x="341" 
d="M56 639q22 11 49 22.5t67 11.5q18 0 38 -4t36.5 -15.5t27.5 -31.5t11 -51q0 -20 -1 -43.5t-2 -44.5q-1 -17 -1.5 -31t-0.5 -23q0 -14 4 -19t8 -5q3 0 12.5 4.5t15.5 7.5v-39q-9 -5 -23.5 -10t-32.5 -5q-17 0 -29.5 10t-17.5 23q-40 -33 -93 -33q-17 0 -34.5 4t-32 13
t-24 24.5t-9.5 39.5q0 40 21.5 60t82.5 31q29 5 45.5 8t24.5 5.5t10 5.5t2 7q0 41 -17 53t-42 12q-27 0 -44.5 -13t-22.5 -26h-28v52zM210 513q-14 -4 -33 -6q-13 -2 -26 -5.5t-23.5 -9.5t-17 -16t-6.5 -26q0 -20 12.5 -30.5t31.5 -10.5q20 0 35.5 11t26.5 22v71z" />
    <glyph glyph-name="guillemotleft" unicode="&#xab;" horiz-adv-x="361" 
d="M146 437q8 -14 21.5 -25t30.5 -13l-113 -164q25 -39 53 -84t54 -84q-16 -2 -30.5 -13t-20.5 -25l-130 207zM287 437q8 -14 21.5 -25t30.5 -13l-113 -164q25 -39 53 -84t53 -84q-15 -2 -29.5 -13t-20.5 -25l-130 207z" />
    <glyph glyph-name="logicalnot" unicode="&#xac;" horiz-adv-x="552" 
d="M441 315h-442v70h512v-280h-70v210z" />
    <glyph glyph-name="registered" unicode="&#xae;" horiz-adv-x="775" 
d="M29 340q0 75 28 140t76.5 113.5t114 76.5t139.5 28t139.5 -28t114 -76.5t76.5 -113.5t28 -140q0 -74 -28 -139.5t-76.5 -114t-114 -76.5t-139.5 -28t-139.5 28t-114 76.5t-76.5 114t-28 139.5zM89 340q0 -62 23 -117t63.5 -96t95 -65t116.5 -24t116.5 24t94.5 65t63 96
t23 117q0 63 -23 118t-63 96t-94.5 65t-116.5 24t-116.5 -24t-95 -65t-63.5 -96t-23 -118zM248 432q0 33 -2 72t-6 70q46 -6 91 -6q9 0 18 0.5t20 1.5q9 1 19.5 2t20.5 1q28 0 52 -6.5t42 -19.5t28.5 -33.5t10.5 -47.5q0 -29 -12 -51t-31 -37.5t-41 -26t-41 -14.5
q10 -11 19 -23.5t20 -26.5q16 -21 33.5 -43.5t33.5 -42.5t30.5 -36t26.5 -26v-22q-15 4 -26.5 5.5t-19.5 1.5q-17 0 -42 -5q-71 103 -158 209h-16v-59q0 -35 1.5 -73.5t5.5 -79.5q-32 8 -42 8q-12 0 -44 -8q1 7 2 21t2 21q2 26 3.5 53.5t1.5 53.5v167zM318 372q6 -2 13 -2
h18q23 0 43.5 5t36 15.5t24.5 27.5t9 41q0 34 -23 52.5t-58 18.5q-16 0 -30 -1t-28 -3q-2 -20 -3.5 -41.5t-1.5 -41.5v-71z" />
    <glyph glyph-name="macron" unicode="&#xaf;" horiz-adv-x="360" 
d="M37 657h285v-70h-285v70z" />
    <glyph glyph-name="degree" unicode="&#xb0;" horiz-adv-x="350" 
d="M23 522q0 31 12 59t32 48t47.5 32t59.5 12q31 0 59 -12t48 -32t32 -48t12 -59q0 -32 -12 -59.5t-32 -47.5t-48 -32t-59 -12q-32 0 -59.5 12t-47.5 32t-32 47.5t-12 59.5zM79 522q0 -20 7.5 -37t20 -30t30 -20.5t37.5 -7.5q19 0 36.5 7.5t30.5 20.5t20.5 30t7.5 37
t-7.5 37.5t-20.5 30t-30.5 20t-36.5 7.5q-40 0 -67.5 -27.5t-27.5 -67.5z" />
    <glyph glyph-name="plusminus" unicode="&#xb1;" horiz-adv-x="522" 
d="M5 334h221v177h70v-177h221v-70h-221v-177h-70v177h-221v70zM5 70h512v-70h-512v70z" />
    <glyph glyph-name="twosuperior" unicode="&#xb2;" horiz-adv-x="337" 
d="M45 606q25 35 55.5 51t72.5 16q29 0 54 -6.5t43 -20.5t28.5 -35t10.5 -51q0 -24 -6 -45t-25.5 -47t-55.5 -61t-97 -89h47t50 0.5t48.5 1.5t42.5 2q-6 -24 -6 -34q0 -5 1.5 -13t6.5 -23q-35 2 -75 4t-75 2q-34 0 -72.5 -2t-72.5 -4v29q10 10 21 19.5t20 18.5
q38 35 68.5 65t51.5 57.5t32.5 55.5t11.5 60q0 38 -18 55.5t-43 17.5q-18 0 -30.5 -6.5t-21 -15.5t-13.5 -19.5t-6 -19.5l-18 -2z" />
    <glyph glyph-name="threesuperior" unicode="&#xb3;" horiz-adv-x="325" 
d="M33 329h16q11 -11 31.5 -22.5t48.5 -11.5q41 0 65 24t24 59q0 21 -6 35.5t-16 23.5t-22 12.5t-25 3.5q-10 0 -25.5 -3.5t-28.5 -7.5q8 26 8 31q0 11 -9 37q32 -14 48 -14q17 0 28.5 7t18 18.5t9.5 25t3 26.5q0 29 -16.5 43t-39.5 14q-22 0 -39 -12.5t-24 -29.5l-17 -1
l-21 43q17 14 43.5 28.5t71.5 14.5q51 0 86.5 -23t35.5 -73q0 -35 -17.5 -58.5t-41.5 -37.5q15 -4 29.5 -11t25.5 -18.5t18 -28t7 -38.5q0 -30 -12 -54.5t-34.5 -42t-54 -27t-70.5 -9.5q-37 0 -64.5 7t-47.5 18z" />
    <glyph glyph-name="acute" unicode="&#xb4;" horiz-adv-x="282" 
d="M168 705q12 11 24.5 18.5t26.5 7.5q12 0 26.5 -10.5t14.5 -30.5t-13 -32.5t-26 -20.5q-36 -23 -73.5 -47t-72.5 -47h-66z" />
    <glyph glyph-name="mu" unicode="&#xb5;" horiz-adv-x="461" 
d="M210 -15q-23 0 -43 4t-37 15q0 -66 2 -129t10 -138q-17 3 -30 5t-23 2q-8 0 -20.5 -2t-29.5 -5q0 34 0.5 71.5t1.5 67.5q1 40 1.5 89.5t0.5 100.5q0 71 -0.5 129.5t-1.5 111.5q0 20 -0.5 43.5t-0.5 47v45.5v39q35 -8 50 -8q16 0 51 8q-2 -29 -4 -63t-3.5 -71t-2.5 -75
t-1 -74q0 -49 8 -73.5t19 -37.5q14 -14 32.5 -23.5t44.5 -9.5q38 0 63 17t36 40q7 14 11 26t6 32t2.5 52.5t0.5 87.5q0 40 -0.5 88.5t-2.5 83.5q35 -8 52 -8q18 0 50 8q-5 -76 -6.5 -153t-1.5 -155q0 -43 1.5 -91.5t3.5 -90.5q-32 8 -48 8q-17 0 -49 -8q1 16 2.5 26t1.5 22
q0 4 -0.5 8t-0.5 9q-26 -34 -64.5 -53t-80.5 -19z" />
    <glyph glyph-name="paragraph" unicode="&#xb6;" horiz-adv-x="496" 
d="M348 620q-11 -2 -20.5 -4t-22.5 -4v-724h-54v395q-63 1 -108.5 16.5t-75 43t-44 65.5t-14.5 84q0 95 54 142t149 47h263v-42l-73 -12v-739h-54v732z" />
    <glyph glyph-name="periodcentered" unicode="&#xb7;" horiz-adv-x="183" 
d="M22 307q0 28 19.5 48t48.5 20q28 0 48 -20t20 -48q0 -29 -20 -48.5t-48 -19.5q-29 0 -48.5 19.5t-19.5 48.5z" />
    <glyph glyph-name="cedilla" unicode="&#xb8;" horiz-adv-x="246" 
d="M29 -148q13 -6 32.5 -10t41.5 -4q21 0 35 7.5t14 23.5t-11.5 22.5t-28.5 6.5q-28 0 -43 -10l-16 17l45 114h52l-22 -67q5 1 13 1q43 0 67 -21.5t24 -56.5q0 -23 -10.5 -40.5t-27.5 -29t-40 -17.5t-48 -6q-29 0 -55 7.5t-44 14.5z" />
    <glyph glyph-name="onesuperior" unicode="&#xb9;" horiz-adv-x="229" 
d="M117 596q-17 -8 -35 -17t-33 -17q-4 8 -11 14.5t-15 10.5v24q41 12 81.5 28.5t69.5 33.5h24q-2 -38 -4 -80.5t-2 -81.5v-97q0 -37 2 -82t4 -83q-14 4 -25.5 6.5t-17.5 2.5t-18 -2.5t-26 -6.5q3 39 4.5 83.5t1.5 81.5v182z" />
    <glyph glyph-name="ordmasculine" unicode="&#xba;" horiz-adv-x="395" 
d="M32 517q0 43 14.5 72.5t38 48t53 27t60.5 8.5q30 0 59 -8.5t52.5 -27t38 -48t14.5 -72.5q0 -42 -14.5 -71.5t-38 -48t-52.5 -26.5t-59 -8q-31 0 -60.5 8t-53 26.5t-38 48t-14.5 71.5zM115 517q0 -21 4 -41t14 -35.5t26 -25.5t39 -10q22 0 37.5 10t25.5 25.5t14 35.5t4 41
t-4 41.5t-14 36.5t-25.5 25.5t-37.5 9.5q-23 0 -39 -9.5t-26 -25.5t-14 -36.5t-4 -41.5z" />
    <glyph glyph-name="guillemotright" unicode="&#xbb;" horiz-adv-x="362" 
d="M169 402q16 2 30.5 13t20.5 25l130 -207l-135 -200q-8 14 -21.5 25t-30.5 13l113 163zM28 402q16 2 30.5 13t20.5 25l130 -207l-135 -200q-8 14 -21.5 25t-30.5 13l113 163z" />
    <glyph glyph-name="onequarter" unicode="&#xbc;" horiz-adv-x="762" 
d="M413 135q51 68 105.5 138.5t107.5 137.5q8 -2 15.5 -4t12.5 -2t15.5 2.5t20.5 5.5q-4 -62 -5 -126t-1 -127q13 1 28 3.5t33 7.5q-3 -11 -5.5 -21.5t-2.5 -15.5q0 -3 2.5 -13l5.5 -22q-18 3 -32.5 4t-28.5 2q0 -27 1.5 -57.5t3.5 -56.5q-14 4 -25.5 6.5t-17.5 2.5
q-5 0 -16.5 -2.5t-25.5 -6.5q6 60 6 114q-28 0 -57 -0.5t-55.5 -1.5t-49 -1.5t-35.5 -1.5v35zM456 687q18 -7 28 -7q9 0 39 11l-280 -721q-21 8 -28 8q-5 0 -15 -3.5t-24 -8.5zM115 596q-17 -8 -35 -17t-33 -17q-4 8 -11 14.5t-15 10.5v24q41 12 81.5 28.5t69.5 33.5h24
q-3 -38 -4.5 -80.5t-1.5 -81.5v-97q0 -37 1.5 -82t4.5 -83q-14 4 -26 6.5t-17 2.5q-6 0 -18 -2.5t-26 -6.5q3 39 4.5 83.5t1.5 81.5v182zM610 314q-5 -7 -11 -13t-11 -13q-25 -31 -47.5 -63.5t-43.5 -64.5h113v154z" />
    <glyph glyph-name="onehalf" unicode="&#xbd;" horiz-adv-x="749" 
d="M464 348q24 35 54.5 51t72.5 16q29 0 54 -6.5t43 -20.5t28.5 -35t10.5 -51q0 -24 -6 -45t-25.5 -47t-55.5 -61t-97 -89h47t50 0.5t48.5 1.5t42.5 2q-6 -23 -6 -34q0 -5 1.5 -12.5t6.5 -23.5q-35 2 -75 4t-75 2q-34 0 -72.5 -2t-72.5 -4v29q10 10 21 20t20 18
q38 36 68.5 65.5t51.5 57t32.5 55.5t11.5 60q0 38 -18 55.5t-43 17.5q-18 0 -30.5 -6.5t-21 -15.5t-13.5 -19.5t-6 -19.5l-18 -2zM453 687q17 -7 28 -7q8 0 39 11l-280 -721q-21 8 -28 8q-5 0 -15 -3.5t-24 -8.5zM114 596q-17 -8 -34.5 -17t-33.5 -17q-3 8 -10 14.5
t-15 10.5v24q41 12 81.5 28.5t69.5 33.5h24q-3 -38 -5 -80.5t-2 -81.5v-97q0 -37 2 -82t5 -83q-14 4 -26 6.5t-18 2.5q-5 0 -17 -2.5t-26 -6.5q3 39 4 83.5t1 81.5v182z" />
    <glyph glyph-name="threequarters" unicode="&#xbe;" horiz-adv-x="803" 
d="M452 135q52 68 106 138.5t107 137.5l16 -4t13 -2t15 2.5t21 5.5q-4 -62 -5 -126t-1 -127q23 1 60 11q-3 -11 -5.5 -21.5t-2.5 -15.5q0 -3 2.5 -13l5.5 -22q-17 3 -31.5 4t-28.5 2q0 -27 1.5 -57.5t3.5 -56.5q-15 4 -26 6.5t-17 2.5t-17.5 -2.5t-25.5 -6.5q6 60 6 114
q-28 0 -57 -0.5t-55.5 -1.5t-49 -1.5t-35.5 -1.5v35zM30 329h16q11 -11 31.5 -22.5t48.5 -11.5q41 0 65 24t24 59q0 21 -6 35.5t-16 23.5t-22 12.5t-25 3.5q-10 0 -25.5 -3.5t-28.5 -7.5q8 26 8 31q0 11 -9 37q17 -8 29 -11t18 -3q18 0 29.5 7t18 18.5t9.5 25t3 26.5
q0 29 -16.5 43t-39.5 14q-22 0 -39 -12.5t-24 -29.5l-17 -1l-21 43q17 14 43.5 28.5t71.5 14.5q51 0 86 -23t35 -73q0 -35 -17 -58.5t-41 -37.5q15 -4 29.5 -11t25.5 -18.5t18 -28t7 -38.5q0 -30 -12 -54.5t-34.5 -42t-54 -27t-70.5 -9.5q-37 0 -64.5 7t-47.5 18zM507 687
q18 -7 28 -7q9 0 39 11l-280 -721q-21 8 -28 8q-5 0 -15 -3.5t-24 -8.5zM649 314q-5 -7 -11 -13t-11 -13q-25 -31 -47.5 -63.5t-43.5 -64.5h113v154z" />
    <glyph glyph-name="questiondown" unicode="&#xbf;" horiz-adv-x="286" 
d="M86 263q5 8 11 19t7 18q10 4 20 6t23 2t32.5 -6t37.5 -20t31 -36.5t13 -54.5q0 -27 -8 -50t-21.5 -43t-30 -37.5t-33.5 -34.5q-29 -29 -52 -57.5t-23 -63.5q0 -33 23.5 -51.5t50.5 -18.5q24 0 49 16t46 42l10 -77q-22 -13 -48.5 -25t-62.5 -12q-37 0 -65.5 11t-48 30
t-29.5 44t-10 53q0 30 8.5 55t23 46.5t32 40.5t35.5 37q29 29 51.5 57.5t22.5 60.5q0 16 -10.5 32t-30.5 16q-10 0 -19 -4t-14 -7zM97 424q0 26 19.5 45.5t45.5 19.5t45.5 -19.5t19.5 -45.5t-19.5 -45.5t-45.5 -19.5t-45.5 19.5t-19.5 45.5z" />
    <glyph glyph-name="Agrave" unicode="&#xc0;" horiz-adv-x="662" 
d="M357 698q17 -40 36.5 -87.5t39.5 -95.5q31 -75 65.5 -155t65.5 -152t56.5 -129.5t39.5 -86.5q-21 4 -38.5 6t-29.5 2q-11 0 -26 -2t-34 -5q-14 51 -34.5 105t-41.5 105q-6 16 -11.5 27.5t-11.5 25.5q-29 1 -60 1.5t-60 0.5q-30 0 -56 -0.5t-56 -1.5q-29 -72 -54 -140.5
t-40 -122.5q-13 3 -24 5t-19 2q-9 0 -22.5 -2.5t-30.5 -6.5q78 172 159 353t156 354h31zM318 533q-24 -56 -45.5 -106t-46.5 -107q10 0 19.5 -0.5t19.5 -0.5q13 -1 26 -1h26h47.5t47.5 1zM213 804q-13 9 -26 21t-13 32q0 21 14.5 31t26.5 10q25 0 51 -26l159 -161h-66z" />
    <glyph glyph-name="Aacute" unicode="&#xc1;" horiz-adv-x="663" 
d="M348 698q17 -40 36.5 -87.5t39.5 -95.5q31 -75 65.5 -155t65.5 -152t56.5 -129.5t39.5 -86.5q-21 4 -38.5 6t-29.5 2q-11 0 -26 -2t-34 -5q-14 51 -34.5 105t-41.5 105q-6 16 -11.5 27.5t-11.5 25.5q-29 1 -60 1.5t-60 0.5q-30 0 -56 -0.5t-56 -1.5q-29 -72 -54 -140.5
t-40 -122.5q-13 3 -24 5t-19 2q-9 0 -22.5 -2.5t-30.5 -6.5q78 172 159 353t156 354h31zM309 533q-24 -56 -45.5 -106t-46.5 -107q10 0 19.5 -0.5t19.5 -0.5q13 -1 26 -1h26h47.5t47.5 1zM396 872q26 26 51 26q12 0 26.5 -10t14.5 -31q0 -20 -13 -32t-27 -21
q-35 -23 -72.5 -46.5t-72.5 -46.5h-66z" />
    <glyph glyph-name="Acircumflex" unicode="&#xc2;" horiz-adv-x="668" 
d="M355 698q17 -40 36.5 -87.5t39.5 -95.5q31 -75 65.5 -155t65.5 -152t56.5 -129.5t39.5 -86.5q-21 4 -38.5 6t-29.5 2q-11 0 -26 -2t-34 -5q-14 51 -34.5 105t-41.5 105q-6 16 -11.5 27.5t-11.5 25.5q-29 1 -60 1.5t-60 0.5q-30 0 -56 -0.5t-56 -1.5q-29 -72 -54 -140.5
t-40 -122.5q-13 3 -24 5t-19 2q-9 0 -22.5 -2.5t-30.5 -6.5q78 172 159 353t156 354h31zM333 809q-28 -25 -56.5 -49.5t-55.5 -48.5h-59l134 181h75l134 -181h-60zM316 533q-24 -56 -45.5 -106t-46.5 -107q10 0 19.5 -0.5t19.5 -0.5q13 -1 26 -1h26h47.5t47.5 1z" />
    <glyph glyph-name="Atilde" unicode="&#xc3;" horiz-adv-x="662" 
d="M352 698q17 -40 36.5 -87.5t39.5 -95.5q31 -75 65.5 -155t65.5 -152t56.5 -129.5t39.5 -86.5q-21 4 -38.5 6t-29.5 2q-11 0 -26 -2t-34 -5q-14 51 -34.5 105t-41.5 105q-6 16 -11.5 27.5t-11.5 25.5q-29 1 -60 1.5t-60 0.5q-30 0 -56 -0.5t-56 -1.5q-29 -72 -54 -140.5
t-40 -122.5q-13 3 -24 5t-19 2q-9 0 -22.5 -2.5t-30.5 -6.5q78 172 159 353t156 354h31zM159 735q4 20 12.5 41.5t22 39t33 28.5t45.5 11q9 0 16.5 -1t15.5 -4t18.5 -7.5t24.5 -11.5q26 -12 37.5 -16.5t22.5 -4.5q18 0 30 14.5t17 33.5h48q-2 -14 -9 -34.5t-20.5 -40.5
t-35 -34t-53.5 -14q-31 0 -74 23q-25 13 -37 17.5t-22 4.5q-18 0 -27 -9.5t-17 -35.5h-48zM313 533q-24 -56 -45.5 -106t-46.5 -107q10 0 19.5 -0.5t19.5 -0.5q13 -1 26 -1h26h47.5t47.5 1z" />
    <glyph glyph-name="Adieresis" unicode="&#xc4;" horiz-adv-x="661" 
d="M352 698q17 -40 36.5 -87.5t39.5 -95.5q31 -75 65.5 -155t65.5 -152t56.5 -129.5t39.5 -86.5q-21 4 -38.5 6t-29.5 2q-11 0 -26 -2t-34 -5q-14 51 -34.5 105t-41.5 105q-6 16 -11.5 27.5t-11.5 25.5q-29 1 -60 1.5t-60 0.5q-30 0 -56 -0.5t-56 -1.5q-29 -72 -54 -140.5
t-40 -122.5q-13 3 -24 5t-19 2q-9 0 -22.5 -2.5t-30.5 -6.5q78 172 159 353t156 354h31zM313 533q-24 -56 -45.5 -106t-46.5 -107q10 0 19.5 -0.5t19.5 -0.5q13 -1 26 -1h26h47.5t47.5 1zM367 796q0 24 17.5 42t41.5 18t42 -18t18 -42t-18 -41.5t-42 -17.5t-41.5 17.5
t-17.5 41.5zM175 796q0 24 18 42t42 18t41.5 -18t17.5 -42t-17.5 -41.5t-41.5 -17.5t-42 17.5t-18 41.5z" />
    <glyph glyph-name="Aring" unicode="&#xc5;" horiz-adv-x="667" 
d="M224 804q0 22 8.5 42t23.5 35t35 23.5t43 8.5q22 0 42 -8.5t35 -23.5t23.5 -35t8.5 -42q0 -39 -25 -69t-63 -38q17 -40 36.5 -87t39.5 -95q31 -75 65.5 -155t65.5 -152t56.5 -129.5t39.5 -86.5q-21 4 -38.5 6t-29.5 2q-11 0 -26 -2t-34 -5q-14 51 -34.5 105t-41.5 105
q-6 16 -11.5 27.5t-11.5 25.5q-29 1 -60 1.5t-60 0.5q-30 0 -56 -0.5t-56 -1.5q-29 -72 -54 -140.5t-40 -122.5q-13 3 -24 5t-19 2q-9 0 -22.5 -2.5t-30.5 -6.5q78 171 158.5 351.5t155.5 352.5q-21 2 -39 11.5t-31.5 24t-21 33.5t-7.5 40zM316 533q-24 -56 -45.5 -106
t-46.5 -107q10 0 19.5 -0.5t19.5 -0.5q13 -1 26 -1h26h47.5t47.5 1zM284 804q0 -20 14.5 -34.5t34.5 -14.5t35 14.5t15 34.5t-14.5 34.5t-34.5 14.5t-35 -14.5t-15 -34.5z" />
    <glyph glyph-name="AE" unicode="&#xc6;" horiz-adv-x="829" 
d="M247 245q-39 -65 -73 -127t-64 -125q-14 3 -25.5 5t-18.5 2q-11 0 -27.5 -2.5t-39.5 -7.5q45 63 102 148.5t118 179t121.5 189t113.5 178.5q41 -2 84 -3t85 -1q41 0 88 1.5t87 3.5q-4 -13 -6.5 -23.5t-2.5 -16.5t2.5 -17.5t7.5 -25.5q-17 3 -35 6.5t-44.5 5.5t-64.5 3.5
t-95 1.5q0 -7 -0.5 -16t-0.5 -17v1q-3 -65 -3 -128v-70q49 0 82 0.5t54.5 1.5t35.5 2t25 2q3 0 12 0.5t12 0.5q-8 -22 -8 -37q0 -16 8 -37q-3 0 -12.5 0.5t-12.5 0.5q-11 1 -25 2t-35.5 2t-54 1.5t-81.5 0.5v-89q0 -72 3 -144q0 -9 0.5 -17.5t0.5 -19.5q101 0 158.5 4.5
t86.5 9.5q-4 -14 -6.5 -25t-2.5 -16q0 -6 2.5 -15.5t5.5 -23.5q-42 2 -90 4t-89 2q-42 0 -88.5 -2t-88.5 -4q6 67 7 126t1 119zM456 583q-46 -72 -87.5 -138.5t-88.5 -139.5q45 -2 87.5 -3t88.5 -3v284z" />
    <glyph glyph-name="Ccedilla" unicode="&#xc7;" horiz-adv-x="629" 
d="M323 -16q-67 10 -123 38t-96.5 73t-63.5 106.5t-23 138.5q0 85 27.5 151.5t77 112.5t118 70t151.5 24q63 0 121 -15t103 -36q-8 -17 -14 -38.5t-9 -36.5q0 -3 -0.5 -8t-0.5 -6l-19 -2q-11 11 -28 26t-40 28.5t-51.5 23t-61.5 9.5q-55 0 -102.5 -18t-82.5 -55t-55 -94.5
t-20 -135.5t20 -135t55 -94t82.5 -55t102.5 -18q33 0 63 9t55 22t45.5 27.5t34.5 25.5l14 -14l-11 -65q-10 -8 -30.5 -18.5t-48 -20t-61.5 -16t-71 -6.5h-6q-4 -11 -5.5 -16.5t-5.5 -18.5h13q43 0 67 -21.5t24 -56.5q0 -23 -10.5 -40.5t-27.5 -29t-40 -17.5t-48 -6
q-29 0 -55 7.5t-44 14.5l21 48q14 -5 33.5 -9.5t41.5 -4.5q21 0 35 7.5t14 23.5t-11.5 22.5t-28.5 6.5q-28 0 -43 -10l-17 18z" />
    <glyph glyph-name="Egrave" unicode="&#xc8;" horiz-adv-x="402" 
d="M40 425q0 63 -2.5 131t-5.5 130q45 -2 92.5 -3.5t91.5 -1.5t93 1.5t93 3.5q-6 -29 -6 -39q0 -12 6 -40q-14 1 -33.5 2.5t-30.5 2.5q-21 1 -41 2.5t-42.5 3t-50 2t-61.5 0.5q0 -11 -0.5 -19t-1.5 -18q-1 -17 -1.5 -35.5t-0.5 -40.5q0 -23 0.5 -45t0.5 -41v-33q42 0 76 1
t62.5 2.5t53 3.5t47.5 4q-2 -15 -3.5 -25.5t-1.5 -15.5t1.5 -15.5l3.5 -24.5q-27 3 -61 5t-67.5 3t-63 1.5t-48.5 0.5q0 -5 -0.5 -11.5t-0.5 -14.5q0 -16 0.5 -40t0.5 -66v-86.5t1 -49.5q32 0 67 0.5t70 2t68.5 4.5t61.5 9q-3 -13 -4.5 -24.5t-1.5 -18.5q0 -11 6 -39
q-44 2 -93.5 4t-94.5 2t-93.5 -2t-93.5 -4q3 64 5.5 132.5t2.5 131.5v167zM92 804q-14 9 -27 21t-13 32q0 21 14.5 31t27.5 10q26 0 50 -26l160 -161h-67z" />
    <glyph glyph-name="Eacute" unicode="&#xc9;" horiz-adv-x="401" 
d="M29 425q0 63 -2.5 131t-5.5 130q45 -2 92.5 -3.5t91.5 -1.5t93 1.5t93 3.5q-6 -29 -6 -39q0 -12 6 -40q-14 1 -33.5 2.5t-30.5 2.5q-21 1 -41 2.5t-42.5 3t-50 2t-61.5 0.5q0 -11 -0.5 -19t-1.5 -18q-1 -17 -1.5 -35.5t-0.5 -40.5q0 -23 0.5 -45t0.5 -41v-33q42 0 76 1
t62.5 2.5t53 3.5t47.5 4q-2 -15 -3.5 -25.5t-1.5 -15.5t1.5 -15.5l3.5 -24.5q-27 3 -61 5t-67.5 3t-63 1.5t-48.5 0.5q0 -5 -0.5 -11.5t-0.5 -14.5q0 -16 0.5 -40t0.5 -66v-86.5t1 -49.5q32 0 67 0.5t70 2t68.5 4.5t61.5 9q-3 -13 -4.5 -24.5t-1.5 -18.5q0 -11 6 -39
q-44 2 -93.5 4t-94.5 2t-93.5 -2t-93.5 -4q3 64 5.5 132.5t2.5 131.5v167zM272 872q26 26 51 26q12 0 27 -10t15 -31q0 -20 -13.5 -32t-26.5 -21q-36 -23 -73.5 -46.5t-72.5 -46.5h-66z" />
    <glyph glyph-name="Ecircumflex" unicode="&#xca;" horiz-adv-x="408" 
d="M38 425q0 63 -2.5 131t-5.5 130q45 -2 92.5 -3.5t91.5 -1.5t93 1.5t93 3.5q-6 -29 -6 -39q0 -12 6 -40q-14 1 -33.5 2.5t-30.5 2.5q-21 1 -41 2.5t-42.5 3t-50 2t-61.5 0.5q0 -11 -0.5 -19t-1.5 -19v1q-1 -17 -1.5 -35.5t-0.5 -40.5q0 -23 0.5 -45t0.5 -41v-33q42 0 76 1
t62.5 2.5t53 3.5t47.5 4q-2 -15 -3.5 -25.5t-1.5 -15.5t1.5 -15.5l3.5 -24.5q-27 3 -61 5t-67.5 3t-63 1.5t-48.5 0.5q0 -5 -0.5 -11.5t-0.5 -14.5q0 -16 0.5 -40t0.5 -66v-86.5t1 -49.5q32 0 67 0.5t70 2t68.5 4.5t61.5 9q-3 -13 -4.5 -24.5t-1.5 -18.5q0 -11 6 -39
q-44 2 -93.5 4t-94.5 2t-93.5 -2t-93.5 -4q3 64 5.5 132.5t2.5 131.5v167zM211 809q-28 -25 -56.5 -49.5t-55.5 -48.5h-59l134 181h75l134 -181h-60z" />
    <glyph glyph-name="Edieresis" unicode="&#xcb;" horiz-adv-x="407" 
d="M38 425q0 63 -2.5 131t-5.5 130q45 -2 92.5 -3.5t91.5 -1.5t93 1.5t93 3.5q-6 -29 -6 -39q0 -12 6 -40q-14 1 -33.5 2.5t-30.5 2.5q-21 1 -41 2.5t-42.5 3t-50 2t-61.5 0.5q0 -11 -0.5 -19t-1.5 -19v1q-1 -17 -1.5 -35.5t-0.5 -40.5q0 -23 0.5 -45t0.5 -41v-33q42 0 76 1
t62.5 2.5t53 3.5t47.5 4q-2 -15 -3.5 -25.5t-1.5 -15.5t1.5 -15.5l3.5 -24.5q-27 3 -61 5t-67.5 3t-63 1.5t-48.5 0.5q0 -5 -0.5 -11.5t-0.5 -14.5q0 -16 0.5 -40t0.5 -66v-86.5t1 -49.5q32 0 67 0.5t70 2t68.5 4.5t61.5 9q-3 -13 -4.5 -24.5t-1.5 -18.5q0 -11 6 -39
q-44 2 -93.5 4t-94.5 2t-93.5 -2t-93.5 -4q3 64 5.5 132.5t2.5 131.5v167zM57 796q0 24 17.5 42t41.5 18t41.5 -18t17.5 -42t-17.5 -41.5t-41.5 -17.5t-41.5 17.5t-17.5 41.5zM248 796q0 24 17.5 42t41.5 18t42 -18t18 -42t-18 -41.5t-42 -17.5t-41.5 17.5t-17.5 41.5z" />
    <glyph glyph-name="Igrave" unicode="&#xcc;" horiz-adv-x="254" 
d="M112 424q0 63 -2.5 131.5t-5.5 131.5q34 -6 58 -6q23 0 58 6q-3 -63 -5.5 -131.5t-2.5 -131.5v-167q0 -63 2.5 -132t5.5 -132q-17 3 -32 5t-26 2t-26 -2t-32 -5q3 63 5.5 132t2.5 132v167zM40 804q-13 9 -26 21t-13 32q0 21 14.5 31t26.5 10q25 0 51 -26l159 -161h-66z
" />
    <glyph glyph-name="Iacute" unicode="&#xcd;" horiz-adv-x="253" 
d="M40 424q0 63 -2.5 131.5t-5.5 131.5q34 -6 58 -6q23 0 58 6q-3 -63 -5.5 -131.5t-2.5 -131.5v-167q0 -63 2.5 -132t5.5 -132q-17 3 -32 5t-26 2t-26 -2t-32 -5q3 63 5.5 132t2.5 132v167zM160 872q26 26 51 26q12 0 26.5 -10t14.5 -31q0 -20 -13 -32t-26 -21
q-36 -23 -73.5 -46.5t-72.5 -46.5h-66z" />
    <glyph glyph-name="Icircumflex" unicode="&#xce;" horiz-adv-x="336" 
d="M117 424q0 63 -2.5 131.5t-5.5 131.5q34 -6 58 -6q23 0 58 6q-3 -63 -5.5 -131.5t-2.5 -131.5v-167q0 -63 2.5 -132t5.5 -132q-17 3 -32 5t-26 2t-26 -2t-32 -5q3 63 5.5 132t2.5 132v167zM167 809q-28 -25 -56.5 -49.5t-55.5 -48.5h-59l134 181h75l134 -181h-60z" />
    <glyph glyph-name="Idieresis" unicode="&#xcf;" horiz-adv-x="319" 
d="M109 424q0 63 -2.5 131.5t-5.5 131.5q34 -6 58 -6q23 0 58 6q-3 -63 -5.5 -131.5t-2.5 -131.5v-167q0 -63 2.5 -132t5.5 -132q-17 3 -32 5t-26 2t-26 -2t-32 -5q3 63 5.5 132t2.5 132v167zM4 796q0 24 18 42t42 18t41.5 -18t17.5 -42t-17.5 -41.5t-41.5 -17.5t-42 17.5
t-18 41.5zM196 796q0 24 17.5 42t41.5 18t42 -18t18 -42t-18 -41.5t-42 -17.5t-41.5 17.5t-17.5 41.5z" />
    <glyph glyph-name="Eth" unicode="&#xd0;" horiz-adv-x="780" 
d="M122 424q0 63 -2.5 131t-5.5 131q36 -2 78 -3.5t78 -1.5q19 0 37 0.5t36 0.5q19 1 37.5 2t36.5 1q88 0 150.5 -23t102.5 -65.5t59 -104t19 -138.5q0 -100 -34.5 -168.5t-88 -111t-118 -61t-123.5 -18.5q-17 0 -33 0.5t-32 1.5t-32.5 2t-32.5 1q-33 0 -70.5 -2t-70.5 -4
q3 63 6 131.5t3 131.5v98q-47 0 -98 -3q2 11 3 19.5t1 11.5q0 2 -1 11t-3 19q54 -3 98 -3v14zM221 257q0 -52 1 -100t4 -99q21 -4 52.5 -5.5t65.5 -1.5q52 0 103.5 12.5t92.5 46t67 92.5t26 152q0 82 -20 134.5t-55.5 83t-84.5 42t-106 11.5q-41 0 -76.5 -2.5t-64.5 -6.5
q-3 -45 -4 -93t-1 -99v-14q46 0 96.5 0.5t93.5 2.5q-7 -22 -7 -30q0 -9 6 -33q-45 2 -93.5 3.5t-95.5 1.5v-98z" />
    <glyph glyph-name="Ntilde" unicode="&#xd1;" horiz-adv-x="661" 
d="M590 -18q-103 121 -220 247.5t-233 249.5l-25 27q-1 -28 -1.5 -69.5t-0.5 -104.5q0 -20 0.5 -50t1 -64t1.5 -69t2.5 -66.5t2.5 -55.5t3 -36q-15 4 -26.5 6.5t-19.5 2.5q-16 0 -48 -8q2 13 4.5 42t5 66.5t5 81.5t4.5 88t3 85t1 73v87.5t-0.5 76.5t-1.5 62t-2 44h30
q11 -11 22.5 -24t22.5 -25q57 -62 117 -127t117 -126t108 -115t92 -95q0 63 -0.5 129.5t-1 131.5t-2.5 126.5t-5 115.5q30 -8 44 -8q12 0 42 8q-2 -24 -5 -70t-5.5 -96.5t-4.5 -98t-2 -74.5v-58.5t0.5 -71t0.5 -75t0.5 -70.5t1 -57.5t0.5 -35.5h-28zM174 735q4 20 12.5 41.5
t22 39t33 28.5t45.5 11q9 0 16.5 -1t15.5 -4t18.5 -7.5t24.5 -11.5q26 -12 37.5 -16.5t22.5 -4.5q19 0 30.5 14.5t17.5 33.5h48q-2 -14 -9 -34.5t-20.5 -40.5t-35 -34t-53.5 -14q-14 0 -33 5.5t-42 17.5q-24 13 -36.5 17.5t-21.5 4.5q-19 0 -27.5 -9.5t-17.5 -35.5h-48z" />
    <glyph glyph-name="Ograve" unicode="&#xd2;" horiz-adv-x="793" 
d="M25 340q0 85 27.5 151.5t76.5 112.5t117.5 70t151.5 24t151.5 -24t118 -70t77 -112.5t27.5 -151.5t-27.5 -151.5t-77 -112.5t-118 -70t-151.5 -24t-151.5 24t-117.5 70t-76.5 112.5t-27.5 151.5zM658 340q0 78 -20 135.5t-55 94.5t-82.5 55t-102.5 18t-102 -18t-82 -55
t-55 -94.5t-20 -135.5t20 -135t55 -94t82 -55t102 -18t102.5 18t82.5 55t55 94t20 135zM276 804q-13 9 -26 21t-13 32q0 21 14.5 31t26.5 10q25 0 51 -26l159 -161h-66z" />
    <glyph glyph-name="Oacute" unicode="&#xd3;" horiz-adv-x="793" 
d="M21 340q0 85 27.5 151.5t76.5 112.5t117.5 70t151.5 24t151.5 -24t118 -70t77 -112.5t27.5 -151.5t-27.5 -151.5t-77 -112.5t-118 -70t-151.5 -24t-151.5 24t-117.5 70t-76.5 112.5t-27.5 151.5zM654 340q0 78 -20 135.5t-55 94.5t-82.5 55t-102.5 18t-102 -18t-82 -55
t-55 -94.5t-20 -135.5t20 -135t55 -94t82 -55t102 -18t102.5 18t82.5 55t55 94t20 135zM464 872q26 26 51 26q12 0 26.5 -10t14.5 -31q0 -20 -13 -32t-27 -21q-35 -23 -72.5 -46.5t-72.5 -46.5h-66z" />
    <glyph glyph-name="Ocircumflex" unicode="&#xd4;" horiz-adv-x="797" 
d="M25 340q0 85 27.5 151.5t76.5 112.5t117.5 70t151.5 24t151.5 -24t118 -70t77 -112.5t27.5 -151.5t-27.5 -151.5t-77 -112.5t-118 -70t-151.5 -24t-151.5 24t-117.5 70t-76.5 112.5t-27.5 151.5zM658 340q0 78 -20 135.5t-55 94.5t-82.5 55t-102.5 18t-102 -18t-82 -55
t-55 -94.5t-20 -135.5t20 -135t55 -94t82 -55t102 -18t102.5 18t82.5 55t55 94t20 135zM398 809q-28 -25 -56.5 -49.5t-55.5 -48.5h-59l134 181h75l134 -181h-60z" />
    <glyph glyph-name="Otilde" unicode="&#xd5;" horiz-adv-x="797" 
d="M25 340q0 85 27.5 151.5t76.5 112.5t117.5 70t151.5 24t151.5 -24t118 -70t77 -112.5t27.5 -151.5t-27.5 -151.5t-77 -112.5t-118 -70t-151.5 -24t-151.5 24t-117.5 70t-76.5 112.5t-27.5 151.5zM658 340q0 78 -20 135.5t-55 94.5t-82.5 55t-102.5 18t-102 -18t-82 -55
t-55 -94.5t-20 -135.5t20 -135t55 -94t82 -55t102 -18t102.5 18t82.5 55t55 94t20 135zM227 735q4 20 12.5 41.5t22 39t33 28.5t45.5 11q9 0 16.5 -1t15.5 -4t18.5 -7.5t24.5 -11.5q26 -12 37.5 -16.5t22.5 -4.5q18 0 30 14.5t17 33.5h48q-2 -14 -9 -34.5t-20.5 -40.5
t-35 -34t-53.5 -14q-31 0 -74 23q-25 13 -37 17.5t-22 4.5q-18 0 -27 -9.5t-17 -35.5h-48z" />
    <glyph glyph-name="Odieresis" unicode="&#xd6;" horiz-adv-x="797" 
d="M25 340q0 85 27.5 151.5t76.5 112.5t117.5 70t151.5 24t151.5 -24t118 -70t77 -112.5t27.5 -151.5t-27.5 -151.5t-77 -112.5t-118 -70t-151.5 -24t-151.5 24t-117.5 70t-76.5 112.5t-27.5 151.5zM658 340q0 78 -20 135.5t-55 94.5t-82.5 55t-102.5 18t-102 -18t-82 -55
t-55 -94.5t-20 -135.5t20 -135t55 -94t82 -55t102 -18t102.5 18t82.5 55t55 94t20 135zM435 796q0 24 17.5 42t41.5 18t42 -18t18 -42t-18 -41.5t-42 -17.5t-41.5 17.5t-17.5 41.5zM243 796q0 24 18 42t42 18t41.5 -18t17.5 -42t-17.5 -41.5t-41.5 -17.5t-42 17.5t-18 41.5z
" />
    <glyph glyph-name="multiply" unicode="&#xd7;" horiz-adv-x="518" 
d="M209 256q-43 43 -89 89.5t-89 90.5l49 48l179 -179q43 44 89.5 90t90.5 89l48 -48l-178 -180l178 -179l-48 -50l-180 179l-179 -179l-49 50z" />
    <glyph glyph-name="Oslash" unicode="&#xd8;" horiz-adv-x="809" 
d="M31 340q0 85 27.5 151.5t76.5 112.5t117.5 70t151.5 24q69 0 127.5 -16.5t104.5 -48.5q9 10 21.5 24.5t24.5 30t22.5 29.5t15.5 23q8 -11 21 -22t26 -19q-8 -6 -20 -17.5t-25.5 -25t-26.5 -27t-23 -24.5q51 -47 78.5 -113t27.5 -152q0 -85 -27.5 -151.5t-77 -112.5
t-118 -70t-151.5 -24q-67 0 -125 16.5t-104 47.5q-20 -21 -45 -51.5t-42 -58.5q-20 26 -47 41q9 6 21 17.5t25 25.5t26 28.5t24 26.5q-51 45 -78.5 112t-27.5 153zM585 576q-35 35 -80.5 51t-100.5 16t-102 -18t-82 -55t-55 -94.5t-20 -135.5q0 -65 13.5 -114.5t38.5 -85.5z
M226 104q34 -32 80 -49t98 -17q55 0 102.5 18t82.5 55t55 94t20 135q0 63 -13.5 112.5t-36.5 86.5z" />
    <glyph glyph-name="Ugrave" unicode="&#xd9;" horiz-adv-x="643" 
d="M540 360v122t-1 92.5t-2.5 67t-4.5 46.5q16 -4 29 -5.5t23 -1.5q6 0 17 2t22 6q-3 -34 -5.5 -83.5t-5 -105.5t-4.5 -115.5t-3 -112.5q-1 -67 -20.5 -120.5t-56 -91t-89.5 -58t-121 -20.5q-150 0 -219 70.5t-69 217.5q0 24 1 45t2 41q1 17 1.5 34t0.5 34q0 69 -1.5 126
t-3.5 99q0 8 -0.5 20.5t-0.5 17.5q17 -3 33 -4.5t28 -1.5q9 0 23 1.5t29 5.5q-3 -23 -5 -59.5t-3.5 -82t-2.5 -97.5t-1 -107q0 -32 1 -66t6.5 -67t18 -62t35.5 -51t58.5 -35t87.5 -13q76 0 117.5 32t60.5 79.5t22 101.5t3 99zM204 804q-13 9 -26 21t-13 32q0 21 14.5 31
t26.5 10q25 0 51 -26l159 -161h-66z" />
    <glyph glyph-name="Uacute" unicode="&#xda;" horiz-adv-x="642" 
d="M533 360v122t-1 92.5t-2.5 67t-4.5 46.5q16 -4 29 -5.5t23 -1.5q6 0 17 2t22 6q-3 -34 -5.5 -83.5t-5 -105.5t-4.5 -115.5t-3 -112.5q-1 -67 -20.5 -120.5t-56 -91t-89.5 -58t-121 -20.5q-150 0 -219 70.5t-69 217.5q0 24 1 45t2 41q1 17 1.5 34t0.5 34q0 69 -1.5 126
t-3.5 99q0 8 -0.5 20.5t-0.5 17.5q17 -3 33 -4.5t28 -1.5q9 0 23 1.5t29 5.5q-3 -23 -5 -59.5t-3.5 -82t-2.5 -97.5t-1 -107q0 -32 1 -66t6.5 -67t18 -62t35.5 -51t58.5 -35t87.5 -13q76 0 117.5 32t60.5 79.5t22 101.5t3 99zM389 872q26 26 51 26q12 0 26.5 -10t14.5 -31
q0 -20 -13 -32t-27 -21q-35 -23 -72.5 -46.5t-72.5 -46.5h-66z" />
    <glyph glyph-name="Ucircumflex" unicode="&#xdb;" horiz-adv-x="647" 
d="M539 360v122t-1 92.5t-2.5 67t-4.5 46.5q16 -4 29 -5.5t23 -1.5q6 0 17 2t22 6q-3 -34 -5.5 -83.5t-5 -105.5t-4.5 -115.5t-3 -112.5q-1 -67 -20.5 -120.5t-56 -91t-89.5 -58t-121 -20.5q-150 0 -219 70.5t-69 217.5q0 24 1 45t2 41q1 17 1.5 34t0.5 34q0 69 -1.5 126
t-3.5 99q0 8 -0.5 20.5t-0.5 17.5q17 -3 33 -4.5t28 -1.5q9 0 23 1.5t29 5.5q-3 -23 -5 -59.5t-3.5 -82t-2.5 -97.5t-1 -107q0 -32 1 -66t6.5 -67t18 -62t35.5 -51t58.5 -35t87.5 -13q76 0 117.5 32t60.5 79.5t22 101.5t3 99zM325 809q-28 -25 -56.5 -49.5t-55.5 -48.5h-59
l134 181h75l134 -181h-60z" />
    <glyph glyph-name="Udieresis" unicode="&#xdc;" horiz-adv-x="648" 
d="M539 360v122t-1 92.5t-2.5 67t-4.5 46.5q16 -4 29 -5.5t23 -1.5q6 0 17 2t22 6q-3 -34 -5.5 -83.5t-5 -105.5t-4.5 -115.5t-3 -112.5q-1 -67 -20.5 -120.5t-56 -91t-89.5 -58t-121 -20.5q-150 0 -219 70.5t-69 217.5q0 24 1 45t2 41q1 17 1.5 34t0.5 34q0 69 -1.5 126
t-3.5 99q0 8 -0.5 20.5t-0.5 17.5q17 -3 33 -4.5t28 -1.5q9 0 23 1.5t29 5.5q-3 -23 -5 -59.5t-3.5 -82t-2.5 -97.5t-1 -107q0 -32 1 -66t6.5 -67t18 -62t35.5 -51t58.5 -35t87.5 -13q76 0 117.5 32t60.5 79.5t22 101.5t3 99zM170 796q0 24 18 42t42 18t41.5 -18t17.5 -42
t-17.5 -41.5t-41.5 -17.5t-42 17.5t-18 41.5zM362 796q0 24 17.5 42t41.5 18t42 -18t18 -42t-18 -41.5t-42 -17.5t-41.5 17.5t-17.5 41.5z" />
    <glyph glyph-name="Yacute" unicode="&#xdd;" horiz-adv-x="582" 
d="M231 -7q7 65 8 137.5t1 147.5q-10 17 -29.5 50.5t-43.5 74t-50.5 84.5t-50.5 84t-43.5 71.5t-29.5 46.5q24 -4 43.5 -6t30.5 -2q14 0 28.5 1t31.5 4q42 -83 85 -162t94 -166q22 34 45.5 74.5t46.5 83t44.5 86t41.5 85.5q27 -6 43 -6q21 0 59 9q-48 -74 -86.5 -133.5
t-68.5 -108.5t-52.5 -88t-38.5 -71q0 -36 0.5 -77t1.5 -81.5t2.5 -76.5t3.5 -61q-17 3 -32 5t-26 2q-12 0 -27 -2t-32 -5zM359 862q12 12 24.5 19.5t26.5 7.5q12 0 26.5 -10.5t14.5 -30.5t-13 -32.5t-27 -21.5q-35 -23 -72.5 -46.5t-72.5 -46.5h-66z" />
    <glyph glyph-name="Thorn" unicode="&#xde;" horiz-adv-x="474" 
d="M46 424q0 63 -3 131.5t-6 131.5q36 -6 59 -6t58 6q-3 -32 -6 -64.5t-3 -64.5h110q102 0 161 -42.5t59 -136.5q0 -57 -22 -94t-57.5 -59t-80 -31t-89.5 -9q-26 0 -43.5 0.5t-37.5 2.5v-44q0 -41 2.5 -84t9.5 -69q-20 4 -35.5 6t-25.5 2q-11 0 -26 -2t-33 -5q3 63 6 132
t3 132v167zM145 243q13 -2 30.5 -2h35.5q30 0 57.5 8t49.5 25t35 43t13 61q0 22 -7.5 44.5t-24 40.5t-44.5 29t-68 11h-77v-260z" />
    <glyph glyph-name="germandbls" unicode="&#xdf;" horiz-adv-x="518" 
d="M39 404q0 31 -0.5 54.5t-1.5 40.5q0 8 -0.5 13.5t-0.5 9.5q0 63 20 106.5t50.5 71.5t67 40.5t69.5 12.5q24 0 50.5 -8.5t49 -24t37.5 -37.5t15 -49q0 -22 -6.5 -41.5t-16.5 -36.5t-22.5 -32.5t-25.5 -29.5q-17 -19 -30.5 -36.5t-13.5 -34.5q0 -13 7 -24.5t18.5 -22
t26 -20.5t30.5 -20q21 -14 43 -29.5t40 -34.5t29.5 -42t11.5 -53q0 -34 -16.5 -68t-44 -61.5t-64 -45t-75.5 -17.5q-34 0 -62 8.5t-49 20.5q9 14 15 34t8 37h19q11 -18 36 -31t53 -13q18 0 35 6.5t30.5 18.5t21.5 29.5t8 38.5q0 22 -9 39.5t-24 33t-33.5 29t-37.5 26.5
q-20 13 -38 26t-32.5 28.5t-23 33t-8.5 39.5q0 29 18.5 54t41.5 51q26 28 48 59t22 69q0 35 -22.5 58t-63.5 23q-62 0 -85 -48t-23 -142v-228q0 -34 0.5 -73.5t1.5 -79t2.5 -76t3.5 -64.5q-37 8 -54 8t-55 -8q3 28 4.5 64.5t2.5 76t1.5 79t0.5 73.5v119z" />
    <glyph glyph-name="agrave" unicode="&#xe0;" horiz-adv-x="463" 
d="M67 428q48 35 87 48t79 13q37 0 68 -11t53 -31t34 -48.5t12 -63.5q0 -54 -2 -109t-2 -117q0 -11 0.5 -22t3 -20t8.5 -14.5t17 -5.5q3 0 8.5 1.5t21.5 9.5v-44q-14 -6 -33 -12t-39 -6q-30 0 -48 14t-25 37q-33 -32 -66 -47t-81 -15q-26 0 -51 9t-44.5 26t-31.5 41t-12 54
q0 63 39 97.5t106 45.5q50 8 77.5 14t41 12t16.5 13.5t3 18.5q0 22 -5 42.5t-16.5 36.5t-30 25t-45.5 9q-36 0 -68 -17.5t-49 -48.5h-26v65zM307 236q-10 -2 -21 -4.5t-23 -4.5q-24 -4 -48.5 -9.5t-45 -16t-33.5 -28t-13 -45.5q0 -41 23 -61.5t52 -20.5q34 0 61.5 18.5
t43.5 41.5zM115 637q-14 8 -27 20.5t-13 32.5t14.5 30.5t26.5 10.5q14 0 26.5 -7.5t24.5 -18.5l159 -162h-66z" />
    <glyph glyph-name="aacute" unicode="&#xe1;" horiz-adv-x="459" 
d="M52 428q48 35 87 48t79 13q37 0 68 -11t53 -31t34 -48.5t12 -63.5q0 -54 -2 -109t-2 -117q0 -11 0.5 -22t3 -20t8.5 -14.5t17 -5.5q3 0 8.5 1.5t21.5 9.5v-44q-14 -6 -33 -12t-39 -6q-30 0 -48 14t-25 37q-33 -32 -66 -47t-81 -15q-26 0 -51 9t-44.5 26t-31.5 41t-12 54
q0 63 39 97.5t106 45.5q50 8 77.5 14t41 12t16.5 13.5t3 18.5q0 22 -5 42.5t-16.5 36.5t-30 25t-45.5 9q-36 0 -68 -17.5t-49 -48.5h-26v65zM292 236q-10 -2 -21 -4.5t-23 -4.5q-24 -4 -48.5 -9.5t-45 -16t-33.5 -28t-13 -45.5q0 -41 23 -61.5t52 -20.5q34 0 61.5 18.5
t43.5 41.5zM291 705q12 11 24.5 18.5t26.5 7.5q12 0 26.5 -10.5t14.5 -30.5t-13 -32.5t-26 -20.5q-36 -23 -73.5 -47t-72.5 -47h-66z" />
    <glyph glyph-name="acircumflex" unicode="&#xe2;" horiz-adv-x="466" 
d="M62 428q48 35 87 48t79 13q37 0 68 -11t53 -31t34 -48.5t12 -63.5q0 -54 -2 -109t-2 -117q0 -11 0.5 -22t3 -20t8.5 -14.5t17 -5.5q3 0 8.5 1.5t21.5 9.5v-44q-14 -6 -33 -12t-39 -6q-30 0 -48 14t-25 37q-33 -32 -66 -47t-81 -15q-26 0 -51 9t-44.5 26t-31.5 41t-12 54
q0 63 39 97.5t106 45.5q50 8 77.5 14t41 12t16.5 13.5t3 18.5q0 22 -5 42.5t-16.5 36.5t-30 25t-45.5 9q-36 0 -68 -17.5t-49 -48.5h-26v65zM231 642q-28 -25 -56.5 -49.5t-55.5 -49.5h-59l134 182h75l134 -182h-60zM302 236q-10 -2 -21 -4.5t-23 -4.5q-24 -4 -48.5 -9.5
t-45 -16t-33.5 -28t-13 -45.5q0 -41 23 -61.5t52 -20.5q34 0 61.5 18.5t43.5 41.5z" />
    <glyph glyph-name="atilde" unicode="&#xe3;" horiz-adv-x="473" 
d="M66 428q48 35 87 48t79 13q37 0 68 -11t53 -31t34 -48.5t12 -63.5q0 -54 -2 -109t-2 -117q0 -11 0.5 -22t3 -20t8.5 -14.5t17 -5.5q3 0 8.5 1.5t21.5 9.5v-44q-14 -6 -33 -12t-39 -6q-30 0 -48 14t-25 37q-33 -32 -66 -47t-81 -15q-26 0 -51 9t-44.5 26t-31.5 41t-12 54
q0 63 39 97.5t106 45.5q50 8 77.5 14t41 12t16.5 13.5t3 18.5q0 22 -5 42.5t-16.5 36.5t-30 25t-45.5 9q-36 0 -68 -17.5t-49 -48.5h-26v65zM306 236q-10 -2 -21 -4.5t-23 -4.5q-24 -4 -48.5 -9.5t-45 -16t-33.5 -28t-13 -45.5q0 -41 23 -61.5t52 -20.5q34 0 61.5 18.5
t43.5 41.5zM64 568q4 20 12.5 41t22 38.5t33 28.5t45.5 11q9 0 16.5 -1t15.5 -3.5t18.5 -7t24.5 -11.5q26 -13 37.5 -17t22.5 -4q18 0 30 14.5t18 33.5h47q-2 -14 -9 -35t-20.5 -40.5t-35 -33.5t-52.5 -14q-32 0 -75 23q-24 13 -36.5 17t-22.5 4q-18 0 -27 -9t-17 -35h-48z
" />
    <glyph glyph-name="adieresis" unicode="&#xe4;" horiz-adv-x="471" 
d="M65 428q48 35 87 48t79 13q37 0 68 -11t53 -31t34 -48.5t12 -63.5q0 -54 -2 -109t-2 -117q0 -11 0.5 -22t3 -20t8.5 -14.5t17 -5.5q3 0 8.5 1.5t21.5 9.5v-44q-14 -6 -33 -12t-39 -6q-30 0 -48 14t-25 37q-33 -32 -66 -47t-81 -15q-26 0 -51 9t-44.5 26t-31.5 41t-12 54
q0 63 39 97.5t106 45.5q50 8 77.5 14t41 12t16.5 13.5t3 18.5q0 22 -5 42.5t-16.5 36.5t-30 25t-45.5 9q-36 0 -68 -17.5t-49 -48.5h-26v65zM305 236q-10 -2 -21 -4.5t-23 -4.5q-24 -4 -48.5 -9.5t-45 -16t-33.5 -28t-13 -45.5q0 -41 23 -61.5t52 -20.5q34 0 61.5 18.5
t43.5 41.5zM271 629q0 24 17.5 41.5t41.5 17.5t42 -17.5t18 -41.5t-18 -41.5t-42 -17.5t-41.5 17.5t-17.5 41.5zM79 629q0 24 18 41.5t42 17.5t41.5 -17.5t17.5 -41.5t-17.5 -41.5t-41.5 -17.5t-42 17.5t-18 41.5z" />
    <glyph glyph-name="aring" unicode="&#xe5;" horiz-adv-x="465" 
d="M62 428q48 35 87 48t79 13q37 0 68 -11t53 -31t34 -48.5t12 -63.5q0 -54 -2 -109t-2 -117q0 -11 0.5 -22t3 -20t8.5 -14.5t17 -5.5q3 0 8.5 1.5t21.5 9.5v-44q-14 -6 -33 -12t-39 -6q-30 0 -48 14t-25 37q-33 -32 -66 -47t-81 -15q-26 0 -51 9t-44.5 26t-31.5 41t-12 54
q0 63 39 97.5t106 45.5q50 8 77.5 14t41 12t16.5 13.5t3 18.5q0 22 -5 42.5t-16.5 36.5t-30 25t-45.5 9q-36 0 -68 -17.5t-49 -48.5h-26v65zM122 637q0 22 8.5 42t23.5 35t35 23.5t43 8.5q22 0 42 -8.5t35 -23.5t23.5 -35t8.5 -42q0 -23 -8.5 -42.5t-23.5 -34.5t-35 -23.5
t-43 -8.5q-22 0 -42 8.5t-35 23.5t-23.5 34.5t-8.5 42.5zM302 236q-10 -2 -21 -4.5t-23 -4.5q-24 -4 -48.5 -9.5t-45 -16t-33.5 -28t-13 -45.5q0 -41 23 -61.5t52 -20.5q34 0 61.5 18.5t43.5 41.5zM182 637q0 -20 14.5 -34.5t34.5 -14.5t35 14.5t15 34.5t-14.5 34t-34.5 14
t-35 -14t-15 -34z" />
    <glyph glyph-name="ae" unicode="&#xe6;" horiz-adv-x="784" 
d="M78 428q48 35 87 48t79 13q16 0 34.5 -3t38 -10.5t38 -20.5t35.5 -33q27 32 64 49.5t84 17.5q54 0 93.5 -16.5t65.5 -45t39 -66.5t13 -80q0 -10 -1 -24t-2 -24q-17 0 -40 0.5t-40 0.5q-35 1 -68.5 1.5t-68.5 0.5q-21 0 -42 -0.5t-43 -1.5q-11 0 -17 -0.5t-17 -0.5v-17
q0 -36 10.5 -67t30.5 -54t50 -36t68 -13q36 0 76.5 21t68.5 53l16 -15l-7 -55q-32 -26 -78.5 -45.5t-93.5 -19.5q-65 0 -117 27.5t-81 75.5q-10 -20 -25 -38.5t-36.5 -33t-50.5 -23t-67 -8.5q-26 0 -51 9t-44.5 26t-31.5 41t-12 54q0 63 39 97.5t106 45.5q50 8 77.5 14
t41 12t16.5 13.5t3 18.5q0 22 -5 42.5t-16.5 36.5t-30 25t-45.5 9q-36 0 -68 -17.5t-49 -48.5h-26v65zM540 438q-32 0 -54.5 -14t-37.5 -35.5t-23 -48t-11 -50.5q8 0 14 -0.5t14 -0.5q22 -1 44.5 -1.5t43.5 -0.5q22 0 44.5 0.5t45.5 1.5q11 0 15.5 0.5t14.5 0.5q0 24 -5 50
t-17 48t-33.5 36t-54.5 14zM134 128q0 -37 22 -59.5t60 -22.5q18 0 35 6t31 17.5t23 29t11 40.5q1 14 1 32.5v33.5q0 11 0.5 15.5t0.5 15.5q-10 -2 -21 -4.5t-23 -4.5q-24 -4 -48.5 -9.5t-45 -16t-33.5 -28t-13 -45.5z" />
    <glyph glyph-name="ccedilla" unicode="&#xe7;" horiz-adv-x="473" 
d="M177 -148q13 -6 32.5 -10t42.5 -4q20 0 34 7.5t14 23.5t-11.5 22.5t-28.5 6.5q-29 0 -42 -10l-17 17l32 83q-40 4 -77.5 20.5t-67 47t-47 75t-17.5 106.5q0 66 22 113.5t58 78t82.5 45.5t95.5 15q55 0 100.5 -15.5t67.5 -35.5q-8 -17 -14.5 -36t-10.5 -39h-22
q-7 12 -18.5 25.5t-26.5 24.5t-33.5 18t-39.5 7q-42 0 -71.5 -15t-48 -42t-27.5 -63.5t-9 -79.5q0 -95 40.5 -143.5t118.5 -48.5q18 0 37.5 5.5t38.5 15.5t36.5 23.5t31.5 29.5l17 -15l-4 -28t-3 -27q-28 -23 -70.5 -41.5t-83.5 -22.5q-4 -11 -5 -15.5t-6 -17.5h12
q43 0 67 -21.5t24 -56.5q0 -23 -10 -40.5t-27.5 -29t-40.5 -17.5t-48 -6q-29 0 -54.5 7.5t-44.5 14.5z" />
    <glyph glyph-name="egrave" unicode="&#xe8;" horiz-adv-x="475" 
d="M21 224q0 61 15.5 110t45 83.5t73 53t99.5 18.5q54 0 93.5 -16.5t65.5 -45t39 -66.5t13 -80q0 -10 -1 -24t-2 -24q-18 0 -40.5 0.5t-39.5 0.5q-35 1 -68.5 1.5t-68.5 0.5q-21 0 -42 -0.5t-43 -1.5q-11 0 -17 -0.5t-17 -0.5v-17q0 -36 10.5 -67t30.5 -54t50 -36t68 -13
q18 0 37.5 5.5t39 15.5t37 23.5t31.5 29.5l16 -15l-8 -55q-32 -26 -78 -45.5t-93 -19.5q-55 0 -100 18t-77.5 50.5t-50.5 76t-18 94.5zM256 438q-32 0 -54.5 -14t-37.5 -35.5t-23 -48t-11 -50.5q8 0 14 -0.5t13 -0.5q23 -1 45.5 -1.5t43.5 -0.5q22 0 44.5 0.5t45.5 1.5
q11 0 15.5 0.5t13.5 0.5q0 24 -4.5 50t-16.5 48t-33.5 36t-54.5 14zM134 637q-13 8 -26.5 20.5t-13.5 32.5t15 30.5t27 10.5q14 0 26.5 -7.5t24.5 -18.5l159 -162h-66z" />
    <glyph glyph-name="eacute" unicode="&#xe9;" horiz-adv-x="477" 
d="M10 224q0 61 15.5 110t45 83.5t73 53t99.5 18.5q54 0 93.5 -16.5t65.5 -45t39 -66.5t13 -80q0 -10 -1 -24t-2 -24q-18 0 -40.5 0.5t-39.5 0.5q-35 1 -68.5 1.5t-68.5 0.5q-21 0 -42 -0.5t-43 -1.5q-11 0 -17 -0.5t-17 -0.5v-17q0 -36 10.5 -67t30.5 -54t50 -36t68 -13
q18 0 37.5 5.5t39 15.5t37 23.5t31.5 29.5l16 -15l-8 -55q-32 -26 -78 -45.5t-93 -19.5q-55 0 -100 18t-77.5 50.5t-50.5 76t-18 94.5zM245 438q-32 0 -54.5 -14t-37.5 -35.5t-23 -48t-11 -50.5q8 0 14 -0.5t13 -0.5q23 -1 45.5 -1.5t43.5 -0.5q22 0 44.5 0.5t45.5 1.5
q11 0 15.5 0.5t13.5 0.5q0 24 -4.5 50t-16.5 48t-33.5 36t-54.5 14zM315 705q11 11 24 18.5t26 7.5t27.5 -10.5t14.5 -30.5t-13 -32.5t-27 -20.5q-36 -23 -73 -47t-73 -47h-66z" />
    <glyph glyph-name="ecircumflex" unicode="&#xea;" horiz-adv-x="481" 
d="M18 224q0 61 15.5 110t45 83.5t73 53t99.5 18.5q54 0 93.5 -16.5t65.5 -45t39 -66.5t13 -80q0 -10 -1 -24t-2 -24q-18 0 -40.5 0.5t-39.5 0.5q-35 1 -68.5 1.5t-68.5 0.5q-21 0 -42 -0.5t-43 -1.5q-11 0 -17 -0.5t-17 -0.5v-17q0 -36 10.5 -67t30.5 -54t50 -36t68 -13
q18 0 37.5 5.5t39 15.5t37 23.5t31.5 29.5l16 -15l-8 -55q-32 -26 -78 -45.5t-93 -19.5q-55 0 -100 18t-77.5 50.5t-50.5 76t-18 94.5zM253 438q-32 0 -54.5 -14t-37.5 -35.5t-23 -48t-11 -50.5q8 0 14 -0.5t13 -0.5q23 -1 45.5 -1.5t43.5 -0.5q22 0 44.5 0.5t45.5 1.5
q11 0 15.5 0.5t13.5 0.5q0 24 -4.5 50t-16.5 48t-33.5 36t-54.5 14zM253 642q-28 -25 -56.5 -49.5t-55.5 -49.5h-59l134 182h75l134 -182h-61z" />
    <glyph glyph-name="edieresis" unicode="&#xeb;" horiz-adv-x="488" 
d="M21 224q0 61 15.5 110t45 83.5t73 53t99.5 18.5q54 0 93.5 -16.5t65.5 -45t39 -66.5t13 -80q0 -10 -1 -24t-2 -24q-18 0 -40.5 0.5t-39.5 0.5q-35 1 -68.5 1.5t-68.5 0.5q-21 0 -42 -0.5t-43 -1.5q-11 0 -17 -0.5t-17 -0.5v-17q0 -36 10.5 -67t30.5 -54t50 -36t68 -13
q18 0 37.5 5.5t39 15.5t37 23.5t31.5 29.5l16 -15l-8 -55q-32 -26 -78 -45.5t-93 -19.5q-55 0 -100 18t-77.5 50.5t-50.5 76t-18 94.5zM256 438q-32 0 -54.5 -14t-37.5 -35.5t-23 -48t-11 -50.5q8 0 14 -0.5t13 -0.5q23 -1 45.5 -1.5t43.5 -0.5q22 0 44.5 0.5t45.5 1.5
q11 0 15.5 0.5t13.5 0.5q0 24 -4.5 50t-16.5 48t-33.5 36t-54.5 14zM293 629q0 24 17.5 41.5t41.5 17.5t41.5 -17.5t17.5 -41.5t-17.5 -41.5t-41.5 -17.5t-41.5 17.5t-17.5 41.5zM101 629q0 24 17.5 41.5t41.5 17.5t42 -17.5t18 -41.5t-18 -41.5t-42 -17.5t-41.5 17.5
t-17.5 41.5z" />
    <glyph glyph-name="igrave" unicode="&#xec;" horiz-adv-x="251" 
d="M117 288q0 45 -1.5 95.5t-6.5 98.5q37 -8 54 -8t54 8q-5 -48 -6.5 -98.5t-1.5 -95.5v-101q0 -46 1.5 -97t6.5 -98q-37 8 -54 8t-54 -8q5 47 6.5 98t1.5 97v101zM41 637q-13 8 -26 20.5t-13 32.5t14.5 30.5t26.5 10.5q14 0 26.5 -7.5t24.5 -18.5l159 -162h-66z" />
    <glyph glyph-name="iacute" unicode="&#xed;" horiz-adv-x="251" 
d="M40 288q0 45 -1.5 95.5t-6.5 98.5q37 -8 54 -8t54 8q-5 -48 -6.5 -98.5t-1.5 -95.5v-101q0 -46 1.5 -97t6.5 -98q-37 8 -54 8t-54 -8q5 47 6.5 98t1.5 97v101zM156 705q12 11 24.5 18.5t26.5 7.5q12 0 26.5 -10.5t14.5 -30.5t-13 -32.5t-26 -20.5q-36 -23 -73.5 -47
t-72.5 -47h-66z" />
    <glyph glyph-name="icircumflex" unicode="&#xee;" horiz-adv-x="333" 
d="M120 288q0 45 -1.5 95.5t-6.5 98.5q37 -8 54 -8t54 8q-5 -48 -6.5 -98.5t-1.5 -95.5v-101q0 -46 1.5 -97t6.5 -98q-37 8 -54 8t-54 -8q5 47 6.5 98t1.5 97v101zM166 642q-28 -25 -56.5 -49.5t-55.5 -49.5h-59l134 182h75l134 -182h-60z" />
    <glyph glyph-name="idieresis" unicode="&#xef;" horiz-adv-x="330" 
d="M118 288q0 45 -1.5 95.5t-6.5 98.5q37 -8 54 -8t54 8q-5 -48 -6.5 -98.5t-1.5 -95.5v-101q0 -46 1.5 -97t6.5 -98q-37 8 -54 8t-54 -8q5 47 6.5 98t1.5 97v101zM9 629q0 24 18 41.5t42 17.5t41.5 -17.5t17.5 -41.5t-17.5 -41.5t-41.5 -17.5t-42 17.5t-18 41.5zM201 629
q0 24 17.5 41.5t41.5 17.5t42 -17.5t18 -41.5t-18 -41.5t-42 -17.5t-41.5 17.5t-17.5 41.5z" />
    <glyph glyph-name="eth" unicode="&#xf0;" horiz-adv-x="537" 
d="M27 237q0 69 22 117t57 78t79 43.5t88 13.5h12.5t11.5 -1q-23 26 -49 52.5t-52 50.5q-31 -11 -64 -22.5t-65 -22.5q-6 12 -14 25t-17 28q29 8 58 15.5t60 17.5q-26 23 -55 46.5t-67 52.5l91 23q35 -25 67 -48.5t59 -45.5q32 11 64 22.5t61 22.5q9 -22 33 -53
q-32 -6 -61 -14t-53 -16q115 -100 170.5 -194t55.5 -191q0 -69 -22 -117t-57 -78t-79 -43.5t-88 -13.5t-88 13.5t-79 43.5t-57 78t-22 117zM414 237q0 39 -7 75.5t-23.5 64t-43.5 44.5t-67 17t-67 -17t-43.5 -44.5t-23.5 -64t-7 -75.5t7 -75.5t23.5 -64t43.5 -44.5t67 -17
t67 17t43.5 44.5t23.5 64t7 75.5z" />
    <glyph glyph-name="ntilde" unicode="&#xf1;" horiz-adv-x="472" 
d="M347 281q0 67 -26 102.5t-70 35.5q-63 0 -92.5 -39t-29.5 -111v-82q0 -46 2 -97t7 -98q-38 8 -55 8t-54 -8q5 47 7 98t2 97v101q0 45 -2 95.5t-7 98.5q37 -8 54 -8q13 0 50 8q-2 -15 -3 -25t-1 -22v-7.5t1 -8.5q27 34 63 52t84 18q29 0 58.5 -8t53 -28.5t38.5 -55
t15 -87.5q0 -41 -2 -86t-2 -94q0 -32 0.5 -69t2.5 -69q-37 8 -51 8q-15 0 -50 -8l3 92q2 34 3 68t1 70v59v0zM65 568q4 20 12.5 41t22 38.5t33 28.5t45.5 11q18 0 32 -5t42 -18q26 -13 38 -17t23 -4q18 0 30 14.5t17 33.5h48q-2 -14 -9 -35t-20.5 -40.5t-35 -33.5t-53.5 -14
q-31 0 -74 23q-25 13 -37 17t-22 4q-18 0 -27 -9t-18 -35h-47z" />
    <glyph glyph-name="ograve" unicode="&#xf2;" horiz-adv-x="528" 
d="M23 237q0 69 22 117t57 78t79 43.5t88 13.5t88 -13.5t79 -43.5t57 -78t22 -117t-22 -117t-57 -78t-79 -43.5t-88 -13.5t-88 13.5t-79 43.5t-57 78t-22 117zM128 237q0 -39 7 -75.5t23.5 -64t43.5 -44.5t67 -17t67 17t43.5 44.5t23.5 64t7 75.5t-7 75.5t-23.5 64
t-43.5 44.5t-67 17t-67 -17t-43.5 -44.5t-23.5 -64t-7 -75.5zM147 637q-13 8 -26 20.5t-13 32.5t14.5 30.5t26.5 10.5q14 0 26.5 -7.5t24.5 -18.5l159 -162h-66z" />
    <glyph glyph-name="oacute" unicode="&#xf3;" horiz-adv-x="527" 
d="M12 237q0 69 22 117t57 78t79 43.5t88 13.5t88 -13.5t79 -43.5t57 -78t22 -117t-22 -117t-57 -78t-79 -43.5t-88 -13.5t-88 13.5t-79 43.5t-57 78t-22 117zM117 237q0 -39 7 -75.5t23.5 -64t43.5 -44.5t67 -17t67 17t43.5 44.5t23.5 64t7 75.5t-7 75.5t-23.5 64
t-43.5 44.5t-67 17t-67 -17t-43.5 -44.5t-23.5 -64t-7 -75.5zM328 705q12 11 24.5 18.5t26.5 7.5q12 0 26.5 -10.5t14.5 -30.5t-13 -32.5t-27 -20.5q-35 -23 -72.5 -47t-72.5 -47h-66z" />
    <glyph glyph-name="ocircumflex" unicode="&#xf4;" horiz-adv-x="532" 
d="M20 237q0 69 22 117t57 78t79 43.5t88 13.5t88 -13.5t79 -43.5t57 -78t22 -117t-22 -117t-57 -78t-79 -43.5t-88 -13.5t-88 13.5t-79 43.5t-57 78t-22 117zM125 237q0 -39 7 -75.5t23.5 -64t43.5 -44.5t67 -17t67 17t43.5 44.5t23.5 64t7 75.5t-7 75.5t-23.5 64
t-43.5 44.5t-67 17t-67 -17t-43.5 -44.5t-23.5 -64t-7 -75.5zM266 642q-28 -25 -56.5 -49.5t-55.5 -49.5h-59l134 182h75l134 -182h-60z" />
    <glyph glyph-name="otilde" unicode="&#xf5;" horiz-adv-x="537" 
d="M22 237q0 69 22 117t57 78t79 43.5t88 13.5t88 -13.5t79 -43.5t57 -78t22 -117t-22 -117t-57 -78t-79 -43.5t-88 -13.5t-88 13.5t-79 43.5t-57 78t-22 117zM127 237q0 -39 7 -75.5t23.5 -64t43.5 -44.5t67 -17t67 17t43.5 44.5t23.5 64t7 75.5t-7 75.5t-23.5 64
t-43.5 44.5t-67 17t-67 -17t-43.5 -44.5t-23.5 -64t-7 -75.5zM97 568q4 20 12.5 41t22 38.5t33 28.5t45.5 11q9 0 16.5 -1t15.5 -3.5t18.5 -7t24.5 -11.5q26 -13 37.5 -17t22.5 -4q18 0 30 14.5t17 33.5h48q-2 -14 -9 -35t-20.5 -40.5t-35 -33.5t-53.5 -14q-31 0 -74 23
q-25 13 -37 17t-22 4q-18 0 -27 -9t-17 -35h-48z" />
    <glyph glyph-name="odieresis" unicode="&#xf6;" horiz-adv-x="537" 
d="M22 237q0 69 22 117t57 78t79 43.5t88 13.5t88 -13.5t79 -43.5t57 -78t22 -117t-22 -117t-57 -78t-79 -43.5t-88 -13.5t-88 13.5t-79 43.5t-57 78t-22 117zM127 237q0 -39 7 -75.5t23.5 -64t43.5 -44.5t67 -17t67 17t43.5 44.5t23.5 64t7 75.5t-7 75.5t-23.5 64
t-43.5 44.5t-67 17t-67 -17t-43.5 -44.5t-23.5 -64t-7 -75.5zM305 629q0 24 17.5 41.5t41.5 17.5t42 -17.5t18 -41.5t-18 -41.5t-42 -17.5t-41.5 17.5t-17.5 41.5zM113 629q0 24 18 41.5t42 17.5t41.5 -17.5t17.5 -41.5t-17.5 -41.5t-41.5 -17.5t-42 17.5t-18 41.5z" />
    <glyph glyph-name="divide" unicode="&#xf7;" horiz-adv-x="516" 
d="M2 291h512v-70h-512v70zM193 65q0 26 19.5 45.5t45.5 19.5t45.5 -19.5t19.5 -45.5t-19.5 -45.5t-45.5 -19.5t-45.5 19.5t-19.5 45.5zM193 446q0 26 19.5 45.5t45.5 19.5t45.5 -19.5t19.5 -45.5t-19.5 -45.5t-45.5 -19.5t-45.5 19.5t-19.5 45.5z" />
    <glyph glyph-name="oslash" unicode="&#xf8;" horiz-adv-x="581" 
d="M50 237q0 69 22 117t57 78t79 43.5t88 13.5q38 0 76.5 -10.5t73.5 -33.5q21 23 39.5 46t28.5 40q8 -14 18.5 -22.5t23.5 -15.5q-14 -12 -35 -32.5t-42 -43.5q29 -32 46 -75.5t17 -104.5q0 -69 -22 -117t-57 -78t-79 -43.5t-88 -13.5q-42 0 -81.5 11t-74.5 37
q-22 -24 -43 -48.5t-32 -37.5q-14 24 -40 35q5 4 14 13l20 20t23 24t23 26q-25 31 -40 72.5t-15 99.5zM189 89q16 -23 42.5 -38t64.5 -15q40 0 67 17t43.5 44.5t23.5 64t7 75.5q0 30 -4.5 59.5t-13.5 53.5zM397 391q-15 20 -41 33.5t-60 13.5q-40 0 -67 -17t-43.5 -44.5
t-23.5 -64t-7 -75.5q0 -26 3.5 -53t9.5 -50z" />
    <glyph glyph-name="ugrave" unicode="&#xf9;" horiz-adv-x="457" 
d="M29 155q0 28 0.5 51t1.5 43q1 17 1 33.5v32.5q0 35 -0.5 80.5t-1.5 86.5q35 -8 50 -8q16 0 51 8q-2 -29 -4 -63t-3.5 -71t-2.5 -75t-1 -74q0 -49 8 -73.5t19 -37.5q14 -14 32.5 -23.5t44.5 -9.5q38 0 63 17t36 40q7 14 11 26t6 32t2.5 52.5t0.5 87.5q0 40 -0.5 88.5
t-2.5 83.5q35 -8 52 -8q18 0 50 8q-5 -76 -6.5 -153t-1.5 -155q0 -43 1.5 -91.5t3.5 -90.5q-32 8 -48 8q-17 0 -49 -8q1 16 2.5 26t1.5 22q0 4 -0.5 8t-0.5 9q-26 -34 -64 -53t-80 -19q-81 0 -126.5 44.5t-45.5 125.5zM113 637q-13 8 -26 20.5t-13 32.5t14.5 30.5t26.5 10.5
q14 0 26.5 -7.5t24.5 -18.5l159 -162h-66z" />
    <glyph glyph-name="uacute" unicode="&#xfa;" horiz-adv-x="457" 
d="M15 155q0 28 0.5 51t1.5 43q1 17 1 33.5v32.5q0 35 -0.5 80.5t-1.5 86.5q35 -8 50 -8q16 0 51 8q-2 -29 -4 -63t-3.5 -71t-2.5 -75t-1 -74q0 -49 8 -73.5t19 -37.5q14 -14 32.5 -23.5t44.5 -9.5q38 0 63 17t36 40q7 14 11 26t6 32t2.5 52.5t0.5 87.5q0 40 -0.5 88.5
t-2.5 83.5q35 -8 52 -8q18 0 50 8q-5 -76 -6.5 -153t-1.5 -155q0 -43 1.5 -91.5t3.5 -90.5q-32 8 -48 8q-17 0 -49 -8q1 16 2.5 26t1.5 22q0 4 -0.5 8t-0.5 9q-26 -34 -64 -53t-80 -19q-81 0 -126.5 44.5t-45.5 125.5zM291 705q12 11 24.5 18.5t26.5 7.5q12 0 26.5 -10.5
t14.5 -30.5t-13 -32.5t-27 -20.5q-35 -23 -72.5 -47t-72.5 -47h-66z" />
    <glyph glyph-name="ucircumflex" unicode="&#xfb;" horiz-adv-x="465" 
d="M26 155q0 28 0.5 51t1.5 43q1 17 1 33.5v32.5q0 35 -0.5 80.5t-1.5 86.5q35 -8 50 -8q16 0 51 8q-2 -29 -4 -63t-3.5 -71t-2.5 -75t-1 -74q0 -49 8 -73.5t19 -37.5q14 -14 32.5 -23.5t44.5 -9.5q38 0 63 17t36 40q7 14 11 26t6 32t2.5 52.5t0.5 87.5q0 40 -0.5 88.5
t-2.5 83.5q35 -8 52 -8q18 0 50 8q-5 -76 -6.5 -153t-1.5 -155q0 -43 1.5 -91.5t3.5 -90.5q-32 8 -48 8q-17 0 -49 -8q1 16 2.5 26t1.5 22q0 4 -0.5 8t-0.5 9q-26 -34 -64 -53t-80 -19q-81 0 -126.5 44.5t-45.5 125.5zM232 642q-28 -25 -56.5 -49.5t-55.5 -49.5h-59l134 182
h75l134 -182h-60z" />
    <glyph glyph-name="udieresis" unicode="&#xfc;" horiz-adv-x="471" 
d="M29 155q0 28 0.5 51t1.5 43q1 17 1 33.5v32.5q0 35 -0.5 80.5t-1.5 86.5q35 -8 50 -8q16 0 51 8q-2 -29 -4 -63t-3.5 -71t-2.5 -75t-1 -74q0 -49 8 -73.5t19 -37.5q14 -14 32.5 -23.5t44.5 -9.5q38 0 63 17t36 40q7 14 11 26t6 32t2.5 52.5t0.5 87.5q0 40 -0.5 88.5
t-2.5 83.5q35 -8 52 -8q18 0 50 8q-5 -76 -6.5 -153t-1.5 -155q0 -43 1.5 -91.5t3.5 -90.5q-32 8 -48 8q-17 0 -49 -8q1 16 2.5 26t1.5 22q0 4 -0.5 8t-0.5 9q-26 -34 -64 -53t-80 -19q-81 0 -126.5 44.5t-45.5 125.5zM80 629q0 24 18 41.5t42 17.5t41.5 -17.5t17.5 -41.5
t-17.5 -41.5t-41.5 -17.5t-42 17.5t-18 41.5zM272 629q0 24 17.5 41.5t41.5 17.5t42 -17.5t18 -41.5t-18 -41.5t-42 -17.5t-41.5 17.5t-17.5 41.5z" />
    <glyph glyph-name="yacute" unicode="&#xfd;" horiz-adv-x="471" 
d="M58 -267q45 75 79.5 142t61.5 130q-11 29 -28.5 72t-38 91t-41 97.5t-39 92.5t-33 76.5t-20.5 48.5q20 -4 35.5 -6.5t25.5 -2.5t23 2t29 5q27 -84 61 -170t70 -174q2 -5 2.5 -6.5t1.5 -2.5t1.5 -2.5t2.5 -5.5q37 80 72 174t65 188q27 -8 39 -8q14 0 50 11
q-9 -18 -33.5 -71t-57 -124.5t-69.5 -153.5t-70 -159.5t-58.5 -141t-36.5 -98.5q-13 3 -23.5 5t-15.5 2q-6 0 -20.5 -3t-34.5 -8zM307 705q12 11 24.5 18.5t26.5 7.5q12 0 26.5 -10.5t14.5 -30.5t-13 -32.5t-26 -20.5q-36 -23 -73.5 -47t-72.5 -47h-66z" />
    <glyph glyph-name="thorn" unicode="&#xfe;" horiz-adv-x="500" 
d="M46 461q0 33 -0.5 72.5t-1.5 79.5t-2.5 76.5t-3.5 63.5q17 -3 31 -5t23 -2t23 2t32 5q-3 -27 -4.5 -63.5t-2.5 -76.5t-1.5 -79.5t-0.5 -72.5l2 -51q10 15 24 29t33 25t43 18t54 7q39 0 76.5 -14.5t66.5 -45t47 -77.5t18 -112t-19 -112.5t-50 -79.5t-70.5 -47.5
t-79.5 -15.5q-48 0 -83.5 18t-61.5 52v-26q0 -33 0.5 -72.5t1.5 -79.5t2.5 -76.5t4.5 -63.5q-18 3 -32 5t-23 2t-23 -2t-31 -5q2 27 3.5 63.5t2.5 76.5t1.5 79.5t0.5 72.5v432zM397 241q0 55 -11 91.5t-29 58t-40 30t-44 8.5q-37 0 -62.5 -15.5t-41.5 -42.5t-23.5 -62.5
t-7.5 -75.5q0 -95 33.5 -143.5t98.5 -48.5q33 0 56.5 15.5t39.5 42.5t23.5 63.5t7.5 78.5z" />
    <glyph glyph-name="ydieresis" unicode="&#xff;" horiz-adv-x="474" 
d="M62 -267q45 75 79.5 142t61.5 130q-12 29 -29 72t-37.5 91t-41 97.5t-39 92.5t-33 76.5t-20.5 48.5q20 -4 35.5 -6.5t25.5 -2.5t23 2t29 5q27 -84 61 -170t70 -174q2 -5 2.5 -6.5t1.5 -2.5t1.5 -2.5t2.5 -5.5q37 80 72 174t65 188q27 -8 39 -8q14 0 50 11
q-9 -18 -33.5 -71t-57 -124.5t-69.5 -153.5t-70 -159.5t-58.5 -141t-36.5 -98.5q-13 3 -23.5 5t-15.5 2q-6 0 -20.5 -3t-34.5 -8zM86 629q0 24 18 41.5t42 17.5t41.5 -17.5t17.5 -41.5t-17.5 -41.5t-41.5 -17.5t-42 17.5t-18 41.5zM278 629q0 24 17.5 41.5t41.5 17.5
t42 -17.5t18 -41.5t-18 -41.5t-42 -17.5t-41.5 17.5t-17.5 41.5z" />
    <glyph glyph-name="dotlessi" unicode="&#x131;" horiz-adv-x="173" 
d="M39 288q0 45 -1.5 95.5t-6.5 98.5q37 -8 54 -8t54 8q-5 -48 -6.5 -98.5t-1.5 -95.5v-101q0 -46 1.5 -97t6.5 -98q-37 8 -54 8t-54 -8q5 47 6.5 98t1.5 97v101z" />
    <glyph glyph-name="Lslash" unicode="&#x141;" horiz-adv-x="486" 
d="M115 424q0 63 -3 131.5t-6 131.5q17 -3 32 -4.5t26 -1.5q23 0 59 6q-3 -63 -6 -131.5t-3 -131.5v-22q22 14 47 29.5t49 32.5q10 -25 28 -53q-20 -10 -53.5 -29t-70.5 -40v-81q0 -54 0.5 -94t1.5 -75q0 -11 0.5 -16t0.5 -16h64.5t64 1.5t68 4.5t76.5 9q-5 -14 -7.5 -25
t-2.5 -16q0 -6 2.5 -16t6.5 -24q-45 2 -96 4t-96 2q-46 0 -95.5 -2t-94.5 -4q3 63 5.5 131.5t2.5 131.5v24q-26 -15 -44.5 -28.5t-28.5 -23.5q-7 17 -15 30.5t-17 26.5q27 14 54 28.5t51 28.5v81z" />
    <glyph glyph-name="lslash" unicode="&#x142;" horiz-adv-x="270" 
d="M89 309q-15 -10 -29.5 -19t-21.5 -14q-3 -2 -6.5 -5.5l-4.5 -4.5q-6 12 -12.5 23.5t-18.5 23.5l45 27t48 29v92q0 33 -0.5 72.5t-1.5 79.5t-2.5 76.5t-3.5 63.5q17 -3 31 -5t23 -2t23 2t31 5q-2 -27 -3.5 -63.5t-2.5 -76.5t-1.5 -79.5t-0.5 -72.5v-33q19 12 38 26t32 22
q0 -14 7 -27.5t16 -21.5q-5 -3 -15 -10t-17 -11q-12 -7 -26.5 -14.5t-34.5 -20.5v-86q0 -34 0.5 -73.5t1.5 -79t2.5 -76t3.5 -64.5q-37 8 -54 8t-54 -8q2 28 3.5 64.5t2.5 76t1.5 79t0.5 73.5v24z" />
    <glyph glyph-name="OE" unicode="&#x152;" horiz-adv-x="1006" 
d="M731 241q0 -72 3 -144q1 -9 1.5 -17.5t0.5 -19.5q100 0 158 4.5t87 9.5q-5 -14 -7.5 -25t-2.5 -16q0 -6 2.5 -15.5t6.5 -23.5q-42 2 -89 4t-88 2q-42 0 -88.5 -2t-88.5 -4q2 22 3.5 44t1.5 41q-17 -17 -40 -34.5t-53 -31.5t-68.5 -22.5t-87.5 -8.5q-72 0 -134.5 24
t-109.5 69t-74 109t-27 145q0 89 27.5 158t75.5 116t114 71t144 24q51 0 89.5 -9t67.5 -22t48.5 -28.5t32.5 -28.5q-1 20 -2.5 39.5t-2.5 36.5q42 -2 86.5 -3.5t84.5 -1.5q39 0 85 1.5t86 3.5q-4 -13 -6.5 -23.5t-2.5 -16.5t2.5 -17.5t7.5 -25.5q-17 3 -35 6.5t-44 5.5
t-64 3.5t-95 1.5q0 -7 -0.5 -16t-1.5 -17v1q-3 -65 -3 -128v-70q49 0 82 0.5t54.5 1.5t35.5 2t25 2q3 0 12 0.5t12 0.5q-4 -11 -5.5 -20.5t-1.5 -16.5q0 -8 1.5 -17.5t5.5 -19.5q-3 0 -12.5 0.5t-12.5 0.5q-11 1 -25 2t-35.5 2t-54 1.5t-81.5 0.5v-89zM152 340
q0 -78 19.5 -135t53 -94t77.5 -55t94 -18q56 0 101 21.5t76.5 61.5t48.5 95.5t17 123.5q0 83 -17.5 140.5t-49 93.5t-74 52.5t-91.5 16.5q-53 0 -99.5 -18t-81 -55t-54.5 -94.5t-20 -135.5z" />
    <glyph glyph-name="oe" unicode="&#x153;" horiz-adv-x="897" 
d="M648 489q54 0 93.5 -16.5t65.5 -45t39 -66.5t13 -80q0 -10 -1 -24t-2 -24q-17 0 -39.5 0.5t-39.5 0.5q-35 1 -69 1.5t-68 0.5q-22 0 -43 -0.5t-42 -1.5q-11 0 -17 -0.5t-17 -0.5v-17q0 -36 10.5 -67t30.5 -54t49.5 -36t67.5 -13q36 0 76.5 21t68.5 53l17 -15l-8 -55
q-32 -26 -78.5 -45.5t-92.5 -19.5q-58 0 -106.5 22.5t-81.5 58.5q-35 -41 -86.5 -61t-103.5 -20q-44 0 -88 13.5t-79 43.5t-57 78t-22 117t22 117t57 78t79 43.5t88 13.5q53 0 102 -18t84 -60q29 39 74 58.5t104 19.5zM426 237q0 39 -7 75.5t-23.5 64t-44 44.5t-67.5 17
t-67 -17t-43.5 -44.5t-23.5 -64t-7 -75.5t7 -75.5t23.5 -64t43.5 -44.5t67 -17t67.5 17t44 44.5t23.5 64t7 75.5zM650 438q-31 0 -53.5 -14t-37.5 -35.5t-23 -48t-11 -50.5q8 0 13.5 -0.5t13.5 -0.5q22 -1 44.5 -1.5t43.5 -0.5q23 0 45.5 0.5t45.5 1.5q11 0 15 0.5t14 0.5
q0 24 -5 50t-17 48t-33 36t-55 14z" />
    <glyph glyph-name="Scaron" unicode="&#x160;" horiz-adv-x="460" 
d="M67 144q8 -17 21 -35t31 -32.5t42 -24t53 -9.5q30 0 54.5 10.5t41 28t25.5 41.5t9 51q0 29 -11 49t-29.5 35t-42.5 26t-50 22q-32 13 -63 27.5t-55.5 36.5t-40 54.5t-15.5 80.5q0 42 15.5 77.5t44.5 61t69.5 40t91.5 14.5q48 0 85 -13t72 -40q-11 -22 -18.5 -43
t-12.5 -51h-27q-5 13 -13 29.5t-21 30t-31.5 23t-43.5 9.5q-51 0 -83 -31t-32 -80q0 -30 11.5 -51t31 -36t44.5 -26.5t51 -21.5q31 -12 61 -26t54 -35t38.5 -51t14.5 -74q0 -47 -17 -88.5t-48.5 -72.5t-78 -49.5t-104.5 -18.5q-63 0 -103.5 20t-68.5 43q5 13 8.5 24.5
t5.5 22.5t3.5 23.5t3.5 28.5h27zM352 892h60l-134 -181h-75l-134 181h60l112 -98z" />
    <glyph glyph-name="scaron" unicode="&#x161;" horiz-adv-x="370" 
d="M71 108q5 -10 15 -21.5t23.5 -21.5t30 -17t35.5 -7q33 0 59 20t26 58q0 18 -8 30t-21 20.5t-30 14.5t-35 11q-24 7 -48.5 16t-44 24t-31.5 38t-12 59q0 34 11.5 63t33.5 50t54 32.5t73 11.5q27 0 49 -6.5t40 -13.5q1 -1 1.5 -1t2.5 -1t8.5 -2.5t21.5 -5.5q-5 -9 -10 -21
t-9.5 -24t-7 -23t-3.5 -18h-28q-8 23 -28.5 42t-49.5 19q-12 0 -25 -4t-23.5 -13t-17.5 -22.5t-7 -32.5t8 -32t21.5 -21.5t31 -14.5t35.5 -12q24 -7 47.5 -15.5t42.5 -23t31 -37t12 -57.5q0 -30 -13 -59t-37 -52.5t-58 -38t-76 -14.5q-48 0 -81 12t-57 26q3 7 6.5 18t7 23
t5.5 23.5t2 20.5h27zM298 725h59l-134 -182h-75l-134 182h60l112 -98z" />
    <glyph glyph-name="Ydieresis" unicode="&#x178;" horiz-adv-x="583" 
d="M233 -7q7 65 8 137.5t1 147.5q-10 17 -29.5 50.5t-43.5 74t-50.5 84.5t-50.5 84t-43.5 71.5t-29.5 46.5q24 -4 43.5 -6t30.5 -2q14 0 28.5 1t31.5 4q42 -83 85 -162t94 -166q22 34 45.5 74.5t46.5 83t44.5 86t41.5 85.5q27 -6 43 -6q21 0 59 9q-48 -74 -86.5 -133.5
t-68.5 -108.5t-52.5 -88t-38.5 -71q0 -36 0.5 -77t1.5 -81.5t2.5 -76.5t3.5 -61q-17 3 -32 5t-26 2q-12 0 -27 -2t-32 -5zM146 796q0 24 17.5 42t41.5 18q25 0 42.5 -18t17.5 -42t-17.5 -41.5t-42.5 -17.5q-24 0 -41.5 17.5t-17.5 41.5zM338 796q0 24 17.5 42t41.5 18
t41.5 -18t17.5 -42t-17.5 -41.5t-41.5 -17.5t-41.5 17.5t-17.5 41.5z" />
    <glyph glyph-name="Zcaron" unicode="&#x17d;" horiz-adv-x="597" 
d="M18 24q38 52 80.5 111.5t84.5 119t81.5 117t72.5 106t58 85.5t37 56q-14 1 -27 1h-24q-35 0 -78.5 -1.5t-88 -3.5t-87 -5t-73.5 -6q4 13 6.5 24t2.5 18q0 6 -2.5 16.5t-6.5 23.5q24 -2 68.5 -3t96.5 -1q51 -1 115 -1h139q41 0 82 3q6 0 16.5 0.5t15.5 0.5v-31
q-18 -20 -51.5 -64t-74 -100t-84.5 -119t-84.5 -122t-73 -108.5t-50.5 -78.5q17 -1 33 -1.5t31 -0.5q37 0 86.5 1.5t100 4.5t96 6.5t74.5 7.5q-8 -30 -8 -44q0 -5 2.5 -15.5t6.5 -25.5q-71 2 -128.5 3.5t-113.5 1.5q-38 0 -87.5 -0.5t-97.5 -1.5t-88 -2t-58 -2v30zM415 892
h59l-134 -181h-75l-134 181h60l112 -98z" />
    <glyph glyph-name="zcaron" unicode="&#x17e;" horiz-adv-x="470" 
d="M19 22q36 43 73.5 91t73.5 96t69.5 93t61.5 83q10 13 14 18t12 16q-20 -1 -53.5 -2.5t-70.5 -4t-72.5 -5t-60.5 -4.5q6 28 6 38q0 11 -5 39q37 -4 100.5 -5t154.5 -1h37t33 1l32 2t35 3v-28q-39 -51 -84 -109.5t-87 -114t-77 -102t-53 -71.5q37 0 69 0.5t65.5 2t73 4.5
t91.5 8q-3 -12 -5 -22.5t-2 -15.5q0 -4 2 -14.5t5 -22.5q-15 0 -36.5 0.5t-36.5 1.5q-44 2 -91.5 2.5t-91.5 0.5q-65 0 -129 -3h1q-11 -1 -27 -1.5t-27 -0.5v27zM352 725h59l-134 -182h-75l-134 182h60l112 -98z" />
    <glyph glyph-name="florin" unicode="&#x192;" horiz-adv-x="497" 
d="M55 -94q8 -5 19 -10t20 -5q15 0 26 8.5t19 23.5t13 34.5t9 42.5q2 10 6.5 37t10.5 62.5t12.5 74.5t13 74.5t11 62.5t6.5 38q-28 0 -57.5 -0.5t-48.5 -2.5q5 13 8.5 30.5t3.5 33.5q19 -2 48.5 -4t55.5 -2q2 11 5 21.5t5 20.5q9 36 25 76t40 73.5t56 55.5t73 22
q6 0 19.5 -2t24.5 -7q-5 -18 -9 -44t-4 -49l-26 -7q-8 11 -20.5 20t-25.5 9q-17 0 -30 -13t-20 -48q-6 -34 -10.5 -64t-10.5 -64q18 0 32 1t29 2q11 1 27 1.5t23 0.5q-6 -13 -10.5 -30.5t-4.5 -32.5q-20 2 -49 2.5t-58 0.5q-9 -51 -18 -102.5t-18 -102.5q-20 -108 -49 -174
t-63.5 -102.5t-72 -48.5t-74.5 -12q8 28 12.5 51t4.5 42z" />
    <glyph glyph-name="circumflex" unicode="&#x2c6;" horiz-adv-x="354" 
d="M176 642q-28 -25 -56.5 -49.5t-55.5 -49.5h-59l134 182h75l134 -182h-60z" />
    <glyph glyph-name="caron" unicode="&#x2c7;" horiz-adv-x="350" 
d="M287 725h59l-134 -182h-75l-134 182h60l113 -99z" />
    <glyph glyph-name="breve" unicode="&#x2d8;" horiz-adv-x="342" 
d="M74 717q8 -45 30.5 -69.5t65.5 -24.5q46 0 66 24.5t32 69.5h49q0 -35 -9 -66.5t-27.5 -55.5t-46 -38t-63.5 -14q-37 0 -64.5 14t-46 38t-27.5 55.5t-9 66.5h50z" />
    <glyph glyph-name="dotaccent" unicode="&#x2d9;" horiz-adv-x="164" 
d="M22 626q0 24 17.5 41.5t41.5 17.5t41.5 -17.5t17.5 -41.5t-17.5 -41.5t-41.5 -17.5t-41.5 17.5t-17.5 41.5z" />
    <glyph glyph-name="ring" unicode="&#x2da;" horiz-adv-x="266" 
d="M23 637q0 22 8.5 42t23.5 35t35 23.5t43 8.5q22 0 42 -8.5t35 -23.5t23.5 -35t8.5 -42q0 -23 -8.5 -42.5t-23.5 -34.5t-35 -23.5t-43 -8.5q-22 0 -42 8.5t-35 23.5t-23.5 34.5t-8.5 42.5zM83 637q0 -20 14.5 -34.5t34.5 -14.5t35 14.5t15 34.5t-14.5 34t-34.5 14t-35 -14
t-15 -34z" />
    <glyph glyph-name="ogonek" unicode="&#x2db;" horiz-adv-x="220" 
d="M194 19q-32 -30 -52 -51t-31 -36t-15 -26t-4 -21q0 -27 18.5 -37t38.5 -10q8 0 18 2.5t19 4.5l15 -48q-17 -8 -32.5 -11.5t-35.5 -3.5q-23 0 -45 6t-38.5 17.5t-26.5 29t-10 40.5q0 59 115 144h66z" />
    <glyph glyph-name="tilde" unicode="&#x2dc;" horiz-adv-x="393" 
d="M24 568q4 20 12.5 41t22 38.5t33 28.5t45.5 11q9 0 16.5 -1t15.5 -3.5t18.5 -7t24.5 -11.5q26 -13 37.5 -17t22.5 -4q18 0 30 14.5t17 33.5h48q-2 -14 -9 -35t-20.5 -40.5t-35 -33.5t-53.5 -14q-31 0 -74 23q-25 13 -37 17t-22 4q-18 0 -27 -9t-17 -35h-48z" />
    <glyph glyph-name="hungarumlaut" unicode="&#x2dd;" horiz-adv-x="468" 
d="M161 705q11 11 24 18.5t26 7.5t27.5 -10.5t14.5 -30.5t-13 -32.5t-27 -20.5q-35 -23 -72.5 -47t-73.5 -47h-66zM355 705q12 11 24.5 18.5t26.5 7.5q12 0 27 -10.5t15 -30.5t-13.5 -32.5t-26.5 -20.5q-36 -23 -73 -47t-73 -47h-66z" />
    <glyph glyph-name="endash" unicode="&#x2013;" horiz-adv-x="587" 
d="M40 266h506v-65h-506v65z" />
    <glyph glyph-name="emdash" unicode="&#x2014;" horiz-adv-x="1086" 
d="M47 266h992v-65h-992v65z" />
    <glyph glyph-name="quoteleft" unicode="&#x2018;" 
d="M97 442q-5 -14 -17 -28.5t-36 -14.5q-14 0 -30 9.5t-16 32.5q0 12 5 22.5t10 20.5q1 1 1 2t1 2l-1 -1q30 51 63 106.5t62 106.5l35 -13z" />
    <glyph glyph-name="quoteright" unicode="&#x2019;" 
d="M79 654q5 15 17 29.5t36 14.5q14 0 29.5 -10t15.5 -33q0 -11 -4.5 -21.5t-9.5 -21.5q-1 0 -3 -4l2 2q-30 -51 -63 -106.5t-63 -106.5l-35 12z" />
    <glyph glyph-name="quotesinglbase" unicode="&#x201a;" 
d="M79 86q5 14 17 28.5t36 14.5q14 0 29.5 -9.5t15.5 -32.5q0 -12 -4.5 -22.5t-9.5 -20.5q-1 -1 -3 -5l2 2q-30 -51 -63 -106.5t-63 -106.5l-35 13z" />
    <glyph glyph-name="quotedblleft" unicode="&#x201c;" horiz-adv-x="376" 
d="M281 442q-5 -14 -16.5 -28.5t-35.5 -14.5q-15 0 -30.5 9.5t-15.5 32.5q0 12 5 22.5t10 20.5q1 1 1 2t1 2l-1 -1q30 51 62.5 106.5t62.5 106.5l35 -13zM114 442q-5 -14 -16.5 -28.5t-35.5 -14.5q-15 0 -30.5 9.5t-15.5 32.5q0 12 4.5 22.5t9.5 20.5q1 1 1 2t1 2l-1 -1
q30 51 63 106.5t63 106.5l35 -13z" />
    <glyph glyph-name="quotedblright" unicode="&#x201d;" horiz-adv-x="377" 
d="M263 654q5 15 16.5 29.5t35.5 14.5q15 0 30.5 -10t15.5 -33q0 -11 -5 -21.5t-10 -21.5l-2 -4l2 2q-30 -51 -63 -106.5t-63 -106.5l-35 12zM96 654q4 15 16 29.5t36 14.5q15 0 30.5 -10t15.5 -33q0 -11 -5 -21.5t-10 -21.5q-1 0 -3 -4l2 2q-30 -51 -62.5 -106.5
t-62.5 -106.5l-35 12z" />
    <glyph glyph-name="quotedblbase" unicode="&#x201e;" horiz-adv-x="377" 
d="M263 86q5 14 16.5 28.5t35.5 14.5q15 0 30.5 -9.5t15.5 -32.5q0 -12 -5 -22.5t-10 -20.5q0 -1 -2 -5l2 2q-30 -51 -63 -106.5t-63 -106.5l-35 13zM96 86q4 14 16 28.5t36 14.5q15 0 30.5 -9.5t15.5 -32.5q0 -12 -5 -22.5t-10 -20.5q-1 -1 -3 -5l2 2q-30 -51 -62.5 -106.5
t-62.5 -106.5l-35 13z" />
    <glyph glyph-name="dagger" unicode="&#x2020;" horiz-adv-x="473" 
d="M20 466q50 -8 91.5 -9t81.5 -1q0 28 -0.5 60t-1.5 63.5t-3 60t-5 48.5q31 -7 53 -7t53 7q-4 -20 -6 -48t-3 -59.5t-1 -64v-60.5q40 0 81.5 1.5t91.5 8.5q-4 -17 -6.5 -28.5t-2.5 -19.5q0 -17 8 -47q-49 7 -91.5 8.5t-80.5 1.5q0 -68 1.5 -133t3.5 -133q1 -28 1.5 -62
t1.5 -61q-37 8 -51 8t-51 -8q1 27 1.5 61t1.5 62q2 69 3.5 133t1.5 133q-40 0 -81.5 -1.5t-91.5 -8.5q4 17 6.5 28.5t2.5 18.5q0 8 -2.5 19.5t-6.5 28.5z" />
    <glyph glyph-name="daggerdbl" unicode="&#x2021;" horiz-adv-x="476" 
d="M198 340q0 13 -0.5 24t-0.5 24q-1 9 -1 21v20q-41 0 -82.5 -1t-91.5 -9q4 16 6.5 28t2.5 19q0 18 -8 47q49 -6 91.5 -7.5t80.5 -1.5q0 28 -1.5 70t-7.5 114q32 -7 52 -7t52 7q-6 -70 -7.5 -112.5t-1.5 -71.5q40 0 81.5 1.5t91.5 7.5q-4 -16 -6.5 -28t-2.5 -19
q0 -18 8 -47q-49 7 -92 8.5t-81 1.5q0 -11 -0.5 -21t-0.5 -20q-1 -13 -1 -24v-24v-24.5t1 -24.5q0 -13 0.5 -20t0.5 -19q41 0 82.5 1t91.5 9q-4 -17 -6.5 -28.5t-2.5 -19.5q0 -17 8 -47q-49 7 -91.5 8.5t-80.5 1.5q0 -29 1.5 -71t7.5 -114q-17 4 -30 6t-22 2t-22 -2t-30 -6
q6 71 7.5 113.5t1.5 71.5q-40 0 -81.5 -1.5t-91.5 -8.5q4 17 6.5 28.5t2.5 18.5q0 18 -8 48q49 -7 92 -8.5t81 -1.5v20t1 20q0 9 0.5 24t0.5 24z" />
    <glyph glyph-name="bullet" unicode="&#x2022;" horiz-adv-x="400" 
d="M25 340q0 36 13.5 68t37.5 56t56 37.5t68 13.5t68 -13.5t56 -37.5t37.5 -56t13.5 -68t-13.5 -68t-37.5 -56t-56 -37.5t-68 -13.5t-68 13.5t-56 37.5t-37.5 56t-13.5 68z" />
    <glyph glyph-name="ellipsis" unicode="&#x2026;" horiz-adv-x="862" 
d="M42 53q0 26 19.5 46t45.5 20t45.5 -20t19.5 -46t-19.5 -45.5t-45.5 -19.5t-45.5 19.5t-19.5 45.5zM690 53q0 26 19.5 46t45.5 20t45.5 -20t19.5 -46t-19.5 -45.5t-45.5 -19.5t-45.5 19.5t-19.5 45.5zM366 53q0 26 19.5 46t45.5 20t45.5 -20t19.5 -46t-19.5 -45.5
t-45.5 -19.5t-45.5 19.5t-19.5 45.5z" />
    <glyph glyph-name="perthousand" unicode="&#x2030;" horiz-adv-x="980" 
d="M355 150q0 48 14 79.5t35 50.5t47 27t50 8t50 -8t47 -27t35 -50.5t14 -79.5t-14 -80t-35 -51t-47 -27t-50 -8t-50 8t-47 27t-35 51t-14 80zM34 507q0 48 14 80t35 51t47 27t50 8t50 -8t47 -27t35 -51t14 -80t-14 -79.5t-35 -50.5t-47 -27t-50 -8t-50 8t-47 27t-35 50.5
t-14 79.5zM670 150q0 48 14 79.5t35 50.5t47 27t50 8t50 -8t47 -27t35 -50.5t14 -79.5t-14 -80t-35 -51t-47 -27t-50 -8t-50 8t-47 27t-35 51t-14 80zM502 697q9 -3 16 -5t12 -2q7 0 43 14l-393 -744q-9 3 -15.5 5t-11.5 2q-10 0 -44 -14zM756 150q0 -54 12.5 -88.5
t47.5 -34.5t47.5 34.5t12.5 88.5t-12.5 88t-47.5 34t-47.5 -34t-12.5 -88zM120 507q0 -53 12.5 -87.5t47.5 -34.5t47.5 34.5t12.5 87.5q0 54 -12.5 88.5t-47.5 34.5t-47.5 -34.5t-12.5 -88.5zM441 150q0 -54 12.5 -88.5t47.5 -34.5t47.5 34.5t12.5 88.5t-12.5 88t-47.5 34
t-47.5 -34t-12.5 -88z" />
    <glyph glyph-name="guilsinglleft" unicode="&#x2039;" horiz-adv-x="197" 
d="M131 437q8 -14 21.5 -25t30.5 -13l-113 -164q25 -39 53 -84t53 -84q-15 -2 -29.5 -13t-20.5 -25l-130 207z" />
    <glyph glyph-name="guilsinglright" unicode="&#x203a;" horiz-adv-x="195" 
d="M18 403q16 2 30.5 13t20.5 25l130 -207l-135 -200q-8 14 -21.5 25t-30.5 13l113 163z" />
    <glyph glyph-name="fraction" unicode="&#x2044;" horiz-adv-x="329" 
d="M271 687q18 -7 28 -7q9 0 39 11l-280 -721q-21 8 -28 8q-5 0 -15 -3.5t-24 -8.5z" />
    <glyph glyph-name="Euro" unicode="&#x20ac;" horiz-adv-x="577" 
d="M544 611q-6 -18 -12 -39t-11 -44l-28 -1q-23 40 -60 62.5t-70 22.5q-57 0 -101.5 -50t-61.5 -149h150q26 0 54 1t66 9q-8 -18 -14.5 -42.5t-9.5 -38.5q-27 5 -53.5 6.5t-48.5 1.5h-151q-1 -8 -1 -20v-21h129q26 0 54 1t66 9q-8 -18 -14.5 -42.5t-9.5 -38.5
q-27 5 -53.5 6.5t-48.5 1.5h-119q7 -45 23 -81.5t37.5 -62t48.5 -39t57 -13.5q36 0 75.5 20t76.5 61l17 -27q-4 -16 -6 -31.5t-4 -30.5q-13 -12 -33 -22t-44 -17.5t-49.5 -11.5t-47.5 -4q-50 0 -93.5 17.5t-77.5 50.5t-57 81t-32 110q-41 -2 -78 -10q8 21 13.5 42t8.5 40
q11 -3 25.5 -5t26.5 -3v10v30q-19 -1 -37.5 -3.5t-36.5 -6.5q8 22 13.5 42.5t8.5 38.5q11 -2 27 -4t33 -3q12 55 37 102.5t61 82.5t80.5 54.5t95.5 19.5q45 0 93 -14.5t82 -35.5z" />
    <glyph glyph-name="trademark" unicode="&#x2122;" horiz-adv-x="870" 
d="M632 462q31 54 64.5 114.5t61.5 114.5h23l12 -132q3 -33 8 -72.5t10 -79.5t10.5 -78t9.5 -66q-11 4 -21.5 6.5t-16.5 2.5q-5 0 -14.5 -2.5t-22.5 -6.5q-2 42 -5 93.5t-11 113.5q-2 13 -3.5 21.5t-2.5 16t-2.5 16t-3.5 21.5q-6 -11 -12.5 -24t-13.5 -24q-16 -28 -33 -59.5
t-32 -61.5t-27.5 -57t-20.5 -45h-19q-14 32 -33.5 68.5t-39.5 74.5l-16 30l-16 30q-6 11 -10 17.5t-7 12.5t-6.5 12.5t-9.5 17.5q-2 -20 -5 -38t-5 -37q-6 -46 -9.5 -95t-4.5 -104q-21 9 -32 9q-5 0 -14 -2.5t-23 -7.5q6 29 12.5 63.5t12.5 71t11.5 73.5t10.5 72t10 75
t10 74h24q23 -52 54.5 -111t63.5 -116q12 -21 21 -37.5t22 -37.5zM154 635q-31 0 -67 -2t-65 -4q5 11 8 18t3 11q0 3 -3 10.5t-8 17.5q38 -2 83.5 -3.5t83.5 -1.5t83.5 1.5t83.5 3.5q-5 -10 -8.5 -17.5t-3.5 -10.5q0 -4 3.5 -11t8.5 -18q-32 2 -66 4t-66 2v-128
q0 -86 3 -173q1 -14 1.5 -35.5t1.5 -35.5q-14 4 -24 6.5t-17 2.5q-6 0 -16.5 -2.5t-23.5 -6.5v27q2 37 3.5 87.5t1.5 122.5v135z" />
    <glyph glyph-name="minus" unicode="&#x2212;" horiz-adv-x="593" 
d="M40 291h512v-70h-512v70z" />
    <glyph glyph-name="fi" unicode="&#xfb01;" horiz-adv-x="507" 
d="M290 649q-25 16 -54 16q-19 0 -32 -7.5t-21.5 -19.5t-12.5 -28t-4 -33q0 -16 3 -45.5t8 -58.5h41q12 0 30.5 0.5t31.5 0.5q-2 -10 -3 -18.5t-1 -10.5q0 -4 1 -12t3 -17q-8 0 -22.5 0.5t-22.5 0.5q-17 1 -28.5 1.5t-28.5 0.5q0 -104 0.5 -213t3.5 -214q-37 8 -52 8
q-16 0 -53 -8q7 108 8 214t1 213q-10 0 -18 -0.5t-18 -1.5q-6 0 -18 -0.5t-17 -0.5q1 9 2 17t1 12q0 2 -1 10.5t-2 18.5q8 0 23.5 -0.5t23.5 -0.5h24q1 29 7.5 61.5t18 64t27 59.5t35.5 48q19 19 47.5 33t58.5 14q5 0 12.5 -1t16.5 -4q0 -13 -0.5 -23t-1.5 -17
q-1 -11 -1.5 -25.5t-0.5 -25.5zM369 288q0 45 -1.5 95.5t-6.5 98.5q37 -8 54 -8t55 8q-5 -48 -7 -98.5t-2 -95.5v-101q0 -46 2 -97t7 -98q-38 8 -55 8t-54 -8q5 47 6.5 98t1.5 97v101zM356 639q0 24 17.5 41.5t41.5 17.5t41.5 -17.5t17.5 -41.5t-17.5 -42t-41.5 -18
t-41.5 18t-17.5 42z" />
    <glyph glyph-name="fl" unicode="&#xfb02;" horiz-adv-x="513" 
d="M290 649q-25 16 -54 16q-19 0 -32 -7.5t-21.5 -19.5t-12.5 -28t-4 -33q0 -16 3 -45.5t8 -58.5h41q12 0 30.5 0.5t31.5 0.5q-2 -10 -3 -18.5t-1 -10.5q0 -4 1 -12t3 -17q-8 0 -22.5 0.5t-22.5 0.5q-17 1 -28.5 1.5t-28.5 0.5q0 -104 0.5 -213t3.5 -214q-37 8 -52 8
q-16 0 -53 -8q7 108 8.5 214t1.5 213q-11 0 -19 -0.5t-18 -1.5q-6 0 -18 -0.5t-17 -0.5q2 9 2.5 17t0.5 12q0 2 -0.5 10.5t-2.5 18.5q8 0 23.5 -0.5t23.5 -0.5h25q1 29 7 61.5t17.5 64t27 59.5t35.5 48q19 19 47.5 33t58.5 14q5 0 12.5 -1t16.5 -4q0 -13 -0.5 -23t-1.5 -17
q-1 -11 -1.5 -25.5t-0.5 -25.5zM375 461q0 33 -0.5 72.5t-1.5 79.5t-2.5 76.5t-3.5 63.5q17 -3 31 -5t23 -2t23 2t31 5q-2 -27 -3.5 -63.5t-2.5 -76.5t-1.5 -79.5t-0.5 -72.5v-176q0 -34 0.5 -73.5t1.5 -79t2.5 -76t3.5 -64.5q-37 8 -54 8t-54 -8q2 28 3.5 64.5t2.5 76
t1.5 79t0.5 73.5v176z" />
    <glyph glyph-name="LDO" horiz-adv-x="720" 
d="M343 162q0 -2 -1.5 -6t-1.5 -5v-7h-4v10q4 4 7 8zM288 144q4 7 4 18h15q-7 0 -7 -8q0 -25 3 -32h4q2 5 7 14h4v-14h-11q-1 0 -2.5 1t-2.5 3t-2 3h-8q0 1 -2 6t-2 9zM374 110v15q3 0 5 1.5t3 2.5v-13q2 -1 4 -2.5t6 -3.5l1 -16q-6 7 -19 16zM89 627q24 7 64 7q25 0 37 -7
q10 -7 34 -7q19 9 22 18q29 0 33 24l9 4q2 3 7 5q5 0 5 2q5 2 7.5 6.5t10.5 4.5q1 3 7 6q7 2 7 5q32 0 32 18q8 0 13 6q4 7 12 7q1 2 9.5 5t8.5 6q7 0 10 3q12 8 16 8l9 4q7 2 7 7q11 0 22 4q11 3 19 3q0 4 7 8q7 2 8 3l89 19l42 -4l15 -8q7 -3 11 -7q10 -7 31 -18l7 -42
q-42 0 -42 5q-5 0 -14 4t-11 4q0 4 -1.5 5.5t-6.5 4.5h-68q-3 -3 -7 -10q-7 0 -21 -4t-21 -4q-13 -9 -18.5 -9t-14.5 -3q-4 0 -8 -6l-6 -6q-10 -3 -8 -3h-4q-1 -3 -8.5 -5l-7.5 -2q-3 0 -5.5 -2t-6.5 -5t-6 -5q-11 0 -15 -10q-5 0 -6 -2.5t-1 -9.5q-6 0 -13.5 -3.5t-8 -3.5
t-6.5 -4.5t-14 -4.5q-2 -1 -7 -2t-8 -6q-2 -1 -4 -4q-2 -5 -3 -6q-11 0 -11 -8q-4 0 -7 -1.5t-6 -4.5l-5 -5q-15 0 -15 -11q-5 0 -13 -7v-11q-4 -3 -6.5 -4t-4.5 -5v-15q6 -7 11 -7v-48q-6 0 -11 -9v-11q-2 -2 -4 -3q-3 -2 -7 -4v-22q-6 -3 -7 -4.5t-1 -10.5q0 -11 -3 -11
l-7 -7q-9 -4 -10.5 -6t-1.5 -10q-9 -4 -15 -8t-8 -11q-11 -11 -44 -11q-17 11 -35 11q-2 3 -7 11h-15q-3 0 -9 4q-7 4 -13 4q0 11 -11 16q0 7 -4 11q-10 0 -21 -1l-11 -1q-4 0 -11 7q-3 2 -6 2v55q2 3 5 5l6 4l4 83q1 0 2.5 1t2.5 3t2 3v15q5 2 6 6t5 4q0 1 10 4.5t10 7.5
q21 7 26 7zM385 132q-4 5 -7 7q-4 1 -15 1v18q6 -6 18 -14q0 -8 4 -12zM400 132q3 -3 3 -7q-3 3 -10 7h7zM403 125h7q5 2 12 10q6 9 10 9q-1 -4 -3.5 -6t-6.5 -6v-14l6 -4t4 -4q-4 0 -10 -7v-13l7 -7h17q1 -6 4 -10q2 -6 18 -12q3 11 3 22q-9 11 -22 11v31q3 0 11 7l-6 6
q-3 2 -5 6q2 -1 12 -5q6 -2 17 -5q6 -2 19 -2v-22q3 -2 6.5 -3.5t4.5 -3.5q0 -16 4 -20h9q3 3 3 14v6q9 0 13 1.5t9 5.5q-7 8 -11 8v14q3 0 11 8v26q-3 2 -6 3.5t-5 5.5q0 8 -1.5 10t-9.5 5q7 0 12.5 5t6.5 5v-10q0 -8 7 -8q3 -10 4 -11.5t7 -4.5q0 -15 8 -22h3q2 2 4 8t3 6
q20 7 20 24q5 0 18 8v-58h-7q-3 -3 -3 -14q-4 -1 -14 -8q10 -7 32 -7q0 -5 -2 -6.5t-5 -6.5v-36q-4 2 -5.5 3.5t-2 3.5t-3.5 7h-20q0 -2 -2 -6q-2 -6 -2 -8q-4 0 -11 -8q7 0 11 -3v-7q-2 -2 -5 -3.5t-6 -4.5v-16q-19 0 -22 -8v-7l1 -1q0 1 -4 1q0 3 -2 8t-2 7q-18 0 -23 -8
v-7q11 -11 22 -11v-7h-7q-12 -5 -21 -7q-4 -1 -10 -1v15q7 0 7 7q0 35 -3 43h-3q-8 -8 -8 -39q-7 0 -11 -4v-14h-26l-4 -8v-38q-10 0 -24 -4q9 -7 14 -7v-18q-6 2 -6 6q0 3 -7 5h-4q-5 -2 -6 -5q-2 -4 -5 -6v18q3 0 11 7q0 57 -7 64h-4q-1 -1 -3 -2l-1 -1l4 3q-4 4 -11 4
q0 31 -7 39h-4q-6 -3 -5 -21q1 -34 1 -31v-55q0 -1 4 -3t4 -4v-7q0 -1 -3.5 -4.5t-3.5 -6.5h-29v25q0 2 -1 3l-4 2q-2 1 -5 3q-2 7 -7 16h-4q-7 -7 -7 -24q3 -2 7 -3l4 -4v-7q-5 -4 -15 -11q3 0 11 11v7q0 7 -18 7q-15 0 -18 -7v-11q0 4 -7 4q0 10 -5 15q-5 4 -16 7v16l-7 4
h-15v14q-6 8 -11 8q-4 12 -22 18v31q11 3 11 15q2 0 5.5 1.5t5.5 1.5q0 19 -4 22h-7q-3 -3 -3 -14q-5 0 -19 -8v44q4 0 7 2t4 2v38h18v-14q-5 0 -7 -4q-2 -2 -3 -4q29 0 36 8v7l-4 4l4 -4h17q0 -31 3 -35h-9l-7 -7v-15q-6 -2 -7 -3.5t-4 -10.5q-4 0 -11 -8h35v-10
q-9 -4 -13 -8q0 -11 7 -24q10 4 21 17v22h7q1 -12 3 -31h8q4 3 4 16q18 0 21 8v7l-7 7l7 4v14q3 -2 8 -3.5t7 -3.5q0 -8 1 -9.5t5 -8.5q27 0 32 11v9h-1q1 -2 5 -2q6 8 6.5 11t0.5 11q3 0 11 7v20q-7 8 -11 8q0 2 -2 4t-2 3zM617 129q2 -1 3 -2l1 -2h8q0 -3 -4 -7h-3
q-5 4 -5 11zM629 125q0 4 3 7q0 -2 -1 -3q-2 -3 -2 -4zM632 132v50q4 0 11 8v10h15l4 8v22h7v-90q-1 -2 -5 -3q-3 -2 -6 -5v-14l-14 -8q0 19 -8 22h-4zM456 -67q2 -1 3 -2l1 -2v3q-1 1 -4 1zM460 -71q4 -1 9 -8l6 -6q0 7 -7 14h-8zM468 -67q3 9 3 31h15q2 -2 3 -4q0 -4 4 -6
q2 -1 4 -1q-2 -2 -5 -3.5t-6 -3.5v-9q0 -5 -3 -5q-3 1 -6 1h-9zM414 -10q-1 -5 -1 -15v-12q0 -20 -2 -26h-4v49q3 0 7 4zM307 -89l3 -4q0 3 -1 4h-2zM310 -93q4 0 8 -3q-8 0 -8 3zM264 129q-3 0 -7 3v12l-7 7h-15v15q11 0 11 9v7q-1 3 -5.5 5t-5.5 3v10q-6 8 -11 8
q3 0 7 2.5t4 4.5v7q0 3 -4 4q-5 2 -7 4v34h8v-16l3 -7h15v-33q-8 0 -8 -8v-7q0 -3 8 -3v-24q2 -1 6 -4t5 -4v-26zM296 90q4 4 4 20h13q-2 -1 -3.5 -3t-2.5 -4v-31q-1 1 -3 2.5t-4 1.5q0 7 -4 14zM307 72l4.5 -2t6.5 -2h-8q-1 1 -1 2zM318 68q1 7 7 15v-15h-7zM531 237
q2 -2 3 -4l4 -2q2 -1 4 -1l1 -15h-18q0 8 -1.5 10t-11.5 5q0 34 -4 42h-3q-4 -2 -5 -8q-2 -6 -3 -7h-4v15h15q1 6 4 14h9v-14q8 -8 11 -8zM511 305q0 7 -6 7q-8 -7 -12 -7v14h15q0 -3 1.5 -8t1.5 -6zM300 290h-12q0 -2 -1.5 -6t-1.5 -5q-27 -7 -28 -7v25h15l7 8v14
q27 0 31 20q18 5 22 22h15q0 -29 7 -34h4q6 5 6 20q7 4 10 7v15q9 -8 11 -8h8q-1 0 7 8q0 -18 7 -22h4l3.5 7l3.5 7h15q1 -5 4 -11q1 -1 9 -3q-14 0 -14 -8v-7q4 -5 36 -5v-15h-39q-2 2 -3 8q-3 6 -4 7h-4q-2 -5 -7 -15h-4q-2 3 -7 15h-15q0 -6 -3 -15h-8q0 4 -3 15h-28
q-2 -6 -7 -15q-10 0 -20 -8z" />
    </font>
</defs>
</svg>
