<?xml version="1.0" standalone="no"?>
<!DOCTYPE svg PUBLIC "-//W3C//DTD SVG 1.1//EN" "http://www.w3.org/Graphics/SVG/1.1/DTD/svg11.dtd" >
<svg xmlns="http://www.w3.org/2000/svg" xmlns:xlink="http://www.w3.org/1999/xlink" version="1.1">
<metadata>
Created by FontForge 20170731 at Fri Mar 26 00:56:00 2004
 By Aleksey,,,
Copyright (c) Luke Owens, 2004. All rights reserved.
</metadata>
<defs>
<font id="OregonLDOCondensedBlack" horiz-adv-x="357" >
  <font-face 
    font-family="Oregon LDO Condensed Black"
    font-weight="900"
    font-stretch="normal"
    units-per-em="1000"
    panose-1="2 1 6 3 0 0 0 2 0 4"
    ascent="800"
    descent="-200"
    x-height="502"
    cap-height="696"
    bbox="-61 -252 791 896"
    underline-thickness="50"
    underline-position="-150"
    unicode-range="U+0020-FB02"
  />
<missing-glyph horiz-adv-x="278" 
 />
    <glyph glyph-name=".notdef" horiz-adv-x="278" 
 />
    <glyph glyph-name=".null" horiz-adv-x="0" 
 />
    <glyph glyph-name="nonmarkingreturn" horiz-adv-x="278" 
 />
    <glyph glyph-name="space" unicode=" " horiz-adv-x="278" 
 />
    <glyph glyph-name="space" unicode="&#xa0;" horiz-adv-x="278" 
 />
    <glyph glyph-name="exclam" unicode="!" horiz-adv-x="147" 
d="M-4 77q0 24 11 44.5t28 31.5h-7q0 10 -0.5 32t-1.5 36q-1 5 -1 13v12q-4 58 -8 121t-7.5 116.5t-5.5 91t-2 43.5q0 44 22 62t48 18t48 -18t22 -62q0 -7 -2 -45t-6 -92q-1 -26 -3 -54.5t-4 -57.5q-1 -17 -2 -34.5t-3 -36.5v1q-1 -17 -2 -37t-2 -39.5t-2 -38t-2 -31.5h-5
q17 -11 28 -31.5t11 -44.5q0 -36 -22.5 -61.5t-53.5 -25.5t-53.5 25.5t-22.5 61.5z" />
    <glyph glyph-name="quotedbl" unicode="&#x22;" horiz-adv-x="239" 
d="M14 698h209v-331h-209v331z" />
    <glyph glyph-name="numbersign" unicode="#" horiz-adv-x="340" 
d="M79 387h-62q7 16 12.5 36t9.5 40.5t6.5 39t2.5 31.5h54q6 42 9.5 68.5t5.5 40.5q0 2 0.5 2t1 3t0.5 10v22q11 -5 20 -9t15 -6q7 -4 13 -5q-1 0 54 19v1v-1q10 4 24 9q-3 -9 -6 -15q31 -13 28 -13q1 0 8.5 3t15.5 7q2 1 10.5 4.5t17.5 7t17 6.5t10 3q-9 -22 -15.5 -39.5
t-12 -35t-10 -37t-8.5 -45.5h55q-3 -13 -7 -32t-7.5 -39.5t-6 -40.5t-2.5 -35h-53q-2 -15 -5 -28t-5 -27q-2 -9 -3 -15l-2 -12t-2 -13t-2 -18h56q-4 -14 -8.5 -33.5t-8 -39.5t-5.5 -39.5t-2 -34.5h-54q0 -1 -0.5 -2t-0.5 -2q-2 -8 -3 -16t-2 -14q-4 -31 -7.5 -59.5
t-4.5 -36.5q-11 0 -27.5 0.5t-22.5 2.5q-2 0 -6 -2q-1 0 -6 -0.5t-10 -0.5h-58q-3 0 -7.5 0.5t-5.5 0.5l-6 2l-3 -2q-1 0 -7.5 -0.5t-11.5 -0.5h-43q4 13 8.5 25t8 26.5t7.5 33t8 45.5h-60q6 16 11.5 36t9.5 40t6.5 39t2.5 32h52zM180 387h-2q-2 -15 -4.5 -28t-4.5 -27
q-2 -9 -3 -15l-2 -12t-2.5 -13t-2.5 -18h1zM209 574q0 3 0.5 5.5t0.5 5.5q-2 -12 -4.5 -24.5t-5.5 -26.5h3q2 11 3.5 21.5t2.5 18.5zM137 127q-2 -14 -4 -26t-4 -22q4 19 9 48h-1v0z" />
    <glyph glyph-name="dollar" unicode="$" horiz-adv-x="340" 
d="M123 285q-30 17 -52 35t-36.5 40t-21.5 50t-7 65q0 69 31 119.5t85 70.5q-1 16 -6 40.5t-14 63.5q32 -15 50.5 -22.5t20.5 -7.5q1 0 17.5 8t47.5 22q-9 -45 -12 -65.5t-4 -31.5q35 -7 57 -22.5t38 -30.5l14 -13q-10 -25 -17 -51t-14 -67h-68q-3 13 -5 22.5t-5 16.5v-129
q28 -16 50.5 -33t38.5 -38t24 -48t8 -63q0 -33 -9 -65.5t-24.5 -60.5t-38 -51t-49.5 -37q2 -24 4.5 -62t5.5 -72q-27 13 -42.5 20t-16.5 7q-2 0 -20 -7t-47 -20q7 41 11.5 72.5t5.5 46.5q-35 3 -67.5 20.5t-67.5 53.5q11 32 14 58.5t6 64.5h67q16 -35 26.5 -53.5t21.5 -25.5
v180z" />
    <glyph glyph-name="percent" unicode="%" horiz-adv-x="650" 
d="M18 490q0 39 10.5 73t29 59t45.5 39t60 14t59.5 -14t45.5 -39t29.5 -59t10.5 -73q0 -40 -10.5 -74t-29.5 -58.5t-45.5 -38.5t-59.5 -14t-60 14t-45.5 38.5t-29 58.5t-10.5 74zM343 171q0 39 10.5 73t29.5 59t45.5 39.5t58.5 14.5q33 0 60 -14.5t45.5 -39.5t29 -59
t10.5 -73t-10.5 -73t-29 -59t-45.5 -39t-60 -14q-32 0 -58.5 14t-45.5 39t-29.5 59t-10.5 73zM413 711q18 -11 27 -15q5 -3 9 -5l85 43l-298 -781q-21 8 -25.5 10t-6.5 3h1q-6 2 -7 3q-4 -2 -26 -14t-57 -30zM466 171q0 -18 1.5 -34t4 -29t6.5 -20.5t9 -7.5q6 0 10 7.5
t6.5 20.5t4 29t1.5 34q0 36 -5.5 63t-16.5 27t-16 -27t-5 -63zM141 490q0 -18 1.5 -34t4 -29t6.5 -20.5t10 -7.5q5 0 9 7.5t6.5 20.5t4 29t1.5 34q0 35 -5 62.5t-16 27.5t-16.5 -27.5t-5.5 -62.5z" />
    <glyph glyph-name="ampersand" unicode="&#x26;" horiz-adv-x="519" 
d="M101 504q0 36 10.5 67t29 54.5t44 36.5t56.5 13q56 0 91 -35t35 -102q0 -54 -25 -95t-56 -70q6 -11 12 -22.5t11 -19.5q7 -13 11.5 -20.5t8 -14.5t9 -15t14.5 -21q17 37 38 89t47 127q23 -67 39.5 -97.5t30.5 -41.5q-26 -53 -47.5 -95.5t-44.5 -80.5q11 -17 26 -39.5
t31 -46t30 -44.5l24 -36h-55.5t-30.5 2q-14 3 -25 3q-2 0 -9 -1t-12 -2q-7 -2 -19 -2h-24q-5 11 -10.5 25t-10.5 24q-27 -27 -61.5 -43.5t-79.5 -16.5q-34 0 -64 12t-52.5 35.5t-35.5 58.5t-13 82q0 60 31 114.5t79 90.5q-15 32 -24 63.5t-9 63.5zM152 188q0 -17 5 -33
t13 -28.5t19.5 -20t24.5 -7.5q17 0 32.5 8.5t27.5 21.5q-13 21 -24 38.5t-21.5 35t-21.5 36.5t-24 43q-15 -19 -23 -41.5t-8 -52.5zM258 539q0 16 -4 26.5t-12 10.5q-10 0 -15.5 -13.5t-5.5 -33.5q0 -28 14 -65q12 19 17.5 38.5t5.5 36.5z" />
    <glyph glyph-name="quotesingle" unicode="'" horiz-adv-x="133" 
d="M8 698h109v-331h-109v331z" />
    <glyph glyph-name="parenleft" unicode="(" horiz-adv-x="170" 
d="M185 649q-27 -47 -44.5 -90.5t-27 -87t-13 -88.5t-3.5 -94q0 -50 3.5 -95.5t13 -89t27 -87.5t44.5 -90l-59 -72q-70 103 -106.5 214t-36.5 220q0 51 9.5 105.5t27.5 110t44.5 110.5t61.5 105z" />
    <glyph glyph-name="parenright" unicode=")" horiz-adv-x="170" 
d="M-17 -73q27 46 44.5 90t27 87.5t13 89t3.5 95.5q0 49 -3.5 94t-13 88.5t-27 87t-44.5 90.5l59 72q70 -102 106.5 -214t36.5 -218q0 -51 -9.5 -106.5t-27.5 -111t-44.5 -110t-61.5 -105.5z" />
    <glyph glyph-name="asterisk" unicode="*" horiz-adv-x="282" 
d="M81 705q32 -14 44.5 -18.5t15.5 -4.5q2 0 15 6t47 23l-10 -107q10 9 20.5 19.5l20.5 20.5t18 17.5t12 12.5q4 -44 17.5 -80t33.5 -54l-88 -51q23 -14 47.5 -29.5t38.5 -23.5q-17 -16 -31 -50t-18 -81l-71 67q2 -28 4.5 -55t4.5 -43q-24 9 -41.5 14.5t-19.5 5.5l-25 -8
q-2 -1 -7.5 -3.5t-11.5 -5.5t-11.5 -5.5l-5.5 -2.5l7 101q-21 -22 -40 -39.5t-29 -26.5q-3 45 -17 79.5t-32 51.5l83 53q-9 6 -16 9.5t-16 9.5t-26 16t-23 14q14 15 26.5 51.5t12.5 90.5l76 -75z" />
    <glyph glyph-name="plus" unicode="+" horiz-adv-x="387" 
d="M-14 324h152v202h109v-202h153v-121h-153v-203h-109v203h-152v121z" />
    <glyph glyph-name="comma" unicode="," horiz-adv-x="137" 
d="M35 114l-1 -1q3 10 7.5 21t12 20t19 15t26.5 6q21 0 42 -16t21 -51q0 -14 -4.5 -28t-9.5 -25q-1 -1 -0.5 0t-0.5 -1q-11 -23 -23 -49.5t-23 -52.5q-6 -14 -13 -30t-14.5 -32.5t-14 -31.5t-11.5 -27l-72 36z" />
    <glyph glyph-name="hyphen" unicode="-" horiz-adv-x="275" 
d="M16 308h241v-129h-241v129z" />
    <glyph glyph-name="period" unicode="." horiz-adv-x="148" 
d="M-3 77q0 36 22.5 62t53.5 26t53.5 -26t22.5 -62t-22.5 -61.5t-53.5 -25.5t-53.5 25.5t-22.5 61.5z" />
    <glyph glyph-name="slash" unicode="/" horiz-adv-x="252" 
d="M177 715q18 -7 30 -12t11 -5q3 0 21 9q2 1 9.5 3.5t16 6t16.5 6t10 3.5l-216 -759q-18 7 -30.5 12t-11.5 5l-6 -3q-6 -3 -15 -6q-12 -4 -25 -9.5t-27 -11.5z" />
    <glyph glyph-name="zero" unicode="0" horiz-adv-x="417" 
d="M15 330q0 70 10 133t32.5 110t60 74.5t91.5 27.5q59 0 96.5 -27.5t59 -74.5t29.5 -110t8 -133q0 -68 -11.5 -130.5t-35 -110t-60 -75.5t-86.5 -28q-59 0 -97 27.5t-59.5 74t-29.5 109t-8 133.5zM144 330q0 -52 3.5 -96t11 -76.5t20 -51t30.5 -18.5t30.5 18.5t20 51
t11 76.5t3.5 96t-3.5 96t-11 76.5t-20 51t-30.5 18.5t-30.5 -17t-20 -48.5t-11 -76.5t-3.5 -100z" />
    <glyph glyph-name="one" unicode="1" horiz-adv-x="219" 
d="M73 508q-15 -12 -27 -20q-2 -2 -6.5 -5.5t-9.5 -7t-9.5 -7t-5.5 -4.5q-21 50 -42 70v47q51 28 101 57.5t92 58.5l37 -37q-2 -59 -3.5 -124t-1.5 -125v-149q0 -29 1 -65t2 -73.5t2 -73t2 -63.5q-26 5 -44 9t-26 4q-7 0 -25.5 -4t-44.5 -10q1 28 2.5 64t3 73.5t2 73.5
t0.5 65v246z" />
    <glyph glyph-name="two" unicode="2" horiz-adv-x="373" 
d="M30 549q31 66 70.5 96t94.5 30q34 0 63.5 -11t51.5 -35t35 -61t13 -88q0 -33 -6 -62.5t-17.5 -58t-28.5 -56.5t-39 -58q-7 -10 -15 -20q-5 -8 -12 -16t-13 -16l1 1q-14 -17 -26 -33.5t-23 -31.5q43 0 94 3t101 9q-5 -29 -8 -50t-3 -26t3 -26t7 -47q-18 1 -42.5 2.5
t-51 2.5t-51 2t-42.5 1t-42 -0.5t-48.5 -1.5t-48.5 -2.5t-42 -2.5v66q70 93 113 154t66.5 105t31 79.5t7.5 77.5q0 48 -11.5 71t-27.5 23q-12 0 -20.5 -10.5t-15 -25.5t-10.5 -32t-6 -30l-59 -2z" />
    <glyph glyph-name="three" unicode="3" 
d="M25 592q10 14 23.5 28.5t30.5 26.5t38 20t47 8q34 0 63.5 -10t52 -31t35.5 -53t13 -76q0 -48 -14 -83t-36 -58q29 -18 50.5 -53.5t21.5 -98.5q0 -48 -15 -89.5t-42 -72t-65.5 -47.5t-85.5 -17q-42 0 -78.5 16.5t-65.5 34.5q4 14 8.5 39.5t5.5 45.5l47 49
q8 -14 18.5 -28.5t21.5 -26.5t22.5 -20t21.5 -8q33 0 52 31.5t19 81.5q0 53 -16 74.5t-42 21.5q-1 0 -7.5 -1.5t-16 -4.5t-20.5 -6.5t-22 -6.5v63q0 2 0.5 3t0.5 3v4q0 2 -0.5 3t-0.5 3v55q23 -5 42 -9t24 -4q12 0 20 9.5t12.5 24.5t6 32.5t1.5 33.5q0 39 -11 56t-24 17
q-14 0 -27.5 -21.5t-20.5 -49.5l-58 -2z" />
    <glyph glyph-name="four" unicode="4" horiz-adv-x="387" 
d="M-14 222q30 55 64.5 121t68 129.5t61.5 118t44 88.5q17 -6 28 -10t13 -4t19 6t41 17q-2 -39 -3 -88t-1.5 -102t-1 -106.5t-0.5 -101.5q15 3 34.5 7t40.5 9q-6 -32 -9.5 -53t-3.5 -26q0 -3 3 -20.5t8 -49.5h-5t-11 0.5t-11 0.5h-6q-10 2 -20.5 3.5t-19.5 3.5
q0 -18 0.5 -36t1.5 -35v-27q0 -8 0.5 -21t0.5 -25.5v-23v-12.5q-26 7 -43.5 11t-22.5 4t-24 -4t-46 -11q1 16 3 40t3 49.5t2 50t1 41.5q-25 0 -57 -1t-62.5 -2.5t-55 -2.5t-34.5 -2v64zM194 406q-17 -32 -34 -63.5t-28 -55.5h63z" />
    <glyph glyph-name="five" unicode="5" horiz-adv-x="360" 
d="M153 429q7 2 16 2h20q37 0 68 -16.5t52.5 -44.5t33.5 -65t12 -79q0 -50 -15 -93.5t-42 -76t-64.5 -51.5t-82.5 -19q-37 0 -74 12.5t-71 43.5v29q4 11 7 34.5t5 48.5h66q13 -32 32.5 -49t37.5 -17q26 0 45.5 31.5t19.5 97.5q0 56 -17.5 80t-39.5 24q-15 0 -30.5 -10.5
t-24.5 -18.5q-4 -3 -9.5 -8.5l-6.5 -6.5l-44 44q5 45 6.5 86t1.5 78q0 36 -2 81t-4 80l30 29q1 0 6 -0.5t7 -0.5q7 0 17.5 -1t24.5 -3t34.5 -2.5t43.5 -0.5h32.5t31.5 0.5t26.5 1t17.5 0.5l30 -30q-4 -18 -6.5 -34t-2.5 -27v-2.5t1.5 -7.5t3.5 -18t7 -34q-23 5 -49.5 9
t-52 7t-49.5 4.5t-43 1.5z" />
    <glyph glyph-name="six" unicode="6" horiz-adv-x="379" 
d="M324 596l-35 -36q-16 7 -26.5 9.5t-16.5 2.5q-20 0 -35 -13t-27 -34.5t-20.5 -50t-13.5 -58.5q25 13 61 13q22 0 51.5 -8.5t55 -31t43.5 -62.5t18 -102q0 -54 -13 -98t-37 -75.5t-58.5 -48.5t-76.5 -17q-36 0 -69.5 15.5t-59 50.5t-40.5 91t-15 137q0 82 15.5 154.5
t45.5 126.5t74.5 84.5t101.5 29.5q11 0 23 -2t33 -8zM247 206q0 51 -12 84t-36 33t-40.5 -33t-16.5 -84q0 -52 15 -85t38 -33q24 0 38 33t14 85z" />
    <glyph glyph-name="seven" unicode="7" 
d="M372 604q-30 -68 -63.5 -145.5t-67.5 -158t-66 -160.5t-59 -152q-17 5 -29.5 8.5t-17.5 3.5q-5 -2 -11 -4q-5 -2 -11.5 -3.5t-14.5 -3.5h1q-2 -1 -10.5 -3.5t-18.5 -6t-19 -6t-11 -3.5q21 45 45 96t48 103l48 104t45 99t38.5 86t29.5 67q-41 -2 -99 -4.5t-118 -6.5v35
q0 5 0.5 11.5t0.5 8.5q1 7 1.5 13.5t0.5 10.5q0 2 -0.5 8.5t-1.5 15.5q0 2 -0.5 8.5t-0.5 12.5v36q13 -2 31.5 -3.5t37 -3.5t35 -3.5t26.5 -1.5q12 0 28.5 -0.5t34 -1t34 -0.5h28.5q5 0 10 0.5t10 0.5h86v-57z" />
    <glyph glyph-name="eight" unicode="8" horiz-adv-x="393" 
d="M10 197q0 51 17 96t54 77q-21 20 -34.5 50.5t-13.5 75.5q0 36 11.5 68t33 57t51.5 39.5t67 14.5q43 0 74 -14t51 -37.5t30 -54t10 -62.5q0 -35 -12 -69.5t-35 -60.5q27 -20 47.5 -56.5t20.5 -102.5q0 -53 -14.5 -95.5t-40 -73t-59.5 -47t-72 -16.5q-39 0 -73 14t-59 41
t-39.5 66t-14.5 90zM250 201q0 50 -14.5 82t-39.5 32t-39.5 -32t-14.5 -82q0 -49 14.5 -81t39.5 -32t39.5 32t14.5 81zM233 495q0 31 -8.5 54t-27.5 23q-20 0 -28 -23t-8 -54q0 -32 8 -55t28 -23q19 0 27.5 23t8.5 55z" />
    <glyph glyph-name="nine" unicode="9" horiz-adv-x="387" 
d="M80 141q20 -25 37 -39t29 -14q18 0 32.5 13t26 34.5t19 50t12.5 60.5q-27 -14 -66 -14q-76 0 -121 55.5t-45 158.5q0 49 13 90.5t37 72.5t58.5 48.5t76.5 17.5q37 0 71 -15.5t60 -51t41 -91.5t15 -137q0 -82 -16 -153.5t-46 -125t-73.5 -84.5t-98.5 -31q-24 0 -48 8
t-38 16q-4 18 -10 41.5t-14 43.5zM241 470q0 45 -14.5 73.5t-38.5 28.5q-23 0 -37.5 -33.5t-14.5 -92.5q0 -57 12 -82t33 -25q14 0 25.5 11t19 29t11.5 41.5t4 49.5z" />
    <glyph glyph-name="colon" unicode=":" horiz-adv-x="158" 
d="M1 405q0 18 6 34t16.5 28t24.5 19t29 7t29 -7t24.5 -19t16.5 -28t6 -34q0 -36 -22.5 -62t-53.5 -26t-53.5 26t-22.5 62zM1 77q0 36 22.5 62t53.5 26t53.5 -26t22.5 -62t-22.5 -61.5t-53.5 -25.5t-53.5 25.5t-22.5 61.5z" />
    <glyph glyph-name="semicolon" unicode=";" horiz-adv-x="151" 
d="M38 114l-1 -1q3 10 7.5 21t12 20t19 15t26.5 6q21 0 42 -16t21 -51q0 -14 -4.5 -28t-9.5 -25q-1 -1 -0.5 0t-0.5 -1q-11 -23 -23 -49.5t-23 -52.5q-6 -14 -13 -30t-14 -32.5t-14 -31.5t-12 -27l-72 36zM20 405q0 18 6 34t16 28t24 19t29 7t29 -7t24 -19t16 -28t6 -34
q0 -36 -22 -62t-53 -26t-53 26t-22 62z" />
    <glyph glyph-name="less" unicode="&#x3c;" horiz-adv-x="423" 
d="M-15 307l414 258v-134l-276 -168q29 -18 59.5 -36.5t60.5 -37.5q37 -23 78.5 -47.5t77.5 -46.5v-134l-414 259v87z" />
    <glyph glyph-name="equal" unicode="=" horiz-adv-x="433" 
d="M440 289h-414v122h414v-122zM440 116h-414v120h414v-120z" />
    <glyph glyph-name="greater" unicode="&#x3e;" horiz-adv-x="422" 
d="M23 95l276 168q-68 42 -139 85t-137 83v134l414 -259v-87l-414 -258v134z" />
    <glyph glyph-name="question" unicode="?" horiz-adv-x="224" 
d="M23 77q0 30 16.5 53.5t41.5 31.5q-14 5 -28 15t-26 26t-19.5 38t-7.5 51q0 54 21.5 93.5t47.5 73.5q18 23 32.5 46.5t14.5 49.5q0 17 -7 26.5t-14 9.5q-8 0 -31 -32.5t-55 -85.5l-18 175q23 18 49 34t59 16t58.5 -12.5t42.5 -33.5t26 -49.5t9 -59.5q0 -29 -7 -54
t-17.5 -47.5t-23.5 -42t-26 -36.5q-17 -23 -31 -46t-14 -46q0 -5 -0.5 -10t-1.5 -7l23 23l52 -51q-9 -13 -14.5 -28.5t-7.5 -24.5q-10 -5 -20.5 -9t-19.5 -6q20 -10 33.5 -32t13.5 -49q0 -36 -22.5 -61.5t-52.5 -25.5q-32 0 -54 25.5t-22 61.5z" />
    <glyph glyph-name="at" unicode="@" horiz-adv-x="530" 
d="M512 408q0 -60 -17 -108t-43 -81l-1 -93q-11 -14 -30.5 -31t-45.5 -33t-58 -26.5t-69 -10.5q-39 0 -79.5 19t-74 57.5t-55 98t-21.5 140.5q0 60 19 117t53.5 101.5t84 71.5t111.5 27q65 0 108.5 -21.5t69.5 -56.5t37 -80t11 -91zM279 417q0 13 -1 21.5t-4 8.5
q-10 0 -17.5 -13.5t-13 -34t-8 -45t-2.5 -46.5q0 -47 5 -47q10 0 18 17t13 41.5t7.5 51.5t2.5 46zM227 155q-28 0 -47 10q36 -34 84 -34q14 0 31.5 6.5t35.5 17.5q-31 3 -45 21q-12 -10 -26.5 -15.5t-32.5 -5.5zM406 390q0 33 -6 63q-7 -47 -12 -79.5t-8 -55t-5 -35.5
t-3 -20q14 14 24 48t10 79zM274 550q22 0 40 -9h30q-25 13 -61 13q-26 0 -48 -12q19 8 39 8z" />
    <glyph glyph-name="A" unicode="A" horiz-adv-x="504" 
d="M290 698q5 -18 13.5 -46.5t15.5 -50.5q3 -9 6 -17.5t5 -16.5v1q24 -75 52.5 -164.5t56 -173.5t50 -151t34.5 -97q-39 8 -65 13t-30 5q-9 0 -34 -6l1 1q-3 -1 -16 -3.5t-16 -3.5q-14 69 -29 122t-29 98q-3 13 -6 20q-2 5 -1 3.5t-1 5.5q-15 1 -30 0.5t-31 -0.5h-17h-11
h-11h-16q-18 -58 -35.5 -124.5t-28.5 -127.5q-22 7 -36 11t-17 4t-25.5 -6t-56.5 -17q27 78 58 171t63.5 189t63.5 189t57 172h66zM240 419q-2 -4 -3 -8.5t-3 -8.5q-5 -14 -9.5 -26.5t-9.5 -26.5h6q5 0 9.5 -0.5t8.5 -0.5h10.5h2h2h10.5z" />
    <glyph glyph-name="B" unicode="B" horiz-adv-x="409" 
d="M29 419q0 29 -0.5 64.5t-1.5 72.5t-2.5 72t-2.5 64q39 -5 67 -7.5t42 -2.5h13t13 1q2 0 4 0.5t4 0.5t3.5 0.5t4.5 0.5q7 1 14.5 1.5t14.5 0.5q36 0 68.5 -7.5t57 -26.5t39 -51t14.5 -81q0 -50 -15 -86t-42 -61q36 -21 54.5 -60t18.5 -102q0 -60 -19 -101.5t-49 -67
t-66.5 -37t-72.5 -11.5q-11 0 -19.5 0.5t-17.5 1.5q-3 0 -8 0.5t-10 1.5q-6 1 -12 1q-14 0 -40 -2.5t-60 -7.5q0 4 0.5 19t0.5 19q2 57 3.5 120t1.5 117v154zM262 216q0 27 -7.5 44t-21.5 27t-33 14.5t-43 4.5v-55q0 -35 0.5 -67.5t2.5 -67.5q1 -6 1.5 -6.5t0.5 -7.5
q8 -1 14 -0.5t14 0.5q29 0 50.5 29.5t21.5 84.5zM157 411q16 0 32.5 4.5t30 15t21.5 28.5t8 45q0 24 -6.5 39t-17 23.5t-23.5 11t-26 2.5h-14q0 -4 -1 -7t-1 -5v1q-2 -31 -2.5 -63.5t-0.5 -63.5v-31v0z" />
    <glyph glyph-name="C" unicode="C" horiz-adv-x="507" 
d="M472 56q-9 -9 -27 -21.5t-41 -24t-50.5 -19t-56.5 -7.5q-62 0 -113.5 24t-89 69.5t-58.5 112t-21 151.5t21 151.5t59 112.5t91 69.5t117 23.5q50 0 100 -18t92 -45q-9 -22 -14.5 -44.5t-7.5 -36.5q0 -3 -0.5 -7.5t-0.5 -8.5v-24l-60 -2q-7 10 -18 23.5t-25.5 26t-31 21
t-34.5 8.5q-32 0 -59 -14.5t-47 -45.5t-31.5 -78t-11.5 -112t11.5 -112t31.5 -78t47 -45.5t59 -14.5q18 0 37.5 9.5t37.5 23.5t34 29.5t28 27.5l40 -45z" />
    <glyph glyph-name="D" unicode="D" horiz-adv-x="547" 
d="M36 418q0 54 -2 116t-4 119q0 4 -0.5 19t-0.5 19q45 -4 81.5 -6.5t57.5 -2.5q8 0 15.5 0.5t15.5 1.5q5 0 9.5 0.5t8.5 0.5q12 1 26.5 1.5t25.5 0.5q69 0 118 -23t80.5 -66t46 -105t14.5 -139q0 -100 -27 -168.5t-68 -111t-90.5 -61t-95.5 -18.5q-11 0 -23.5 0.5
t-24.5 1.5q-3 0 -8 0.5t-8 0.5q-7 1 -14 1.5t-13 0.5q-20 0 -53 -2.5t-74 -6.5q0 4 0.5 18.5t0.5 18.5q2 57 4 119.5t2 116.5v154zM164 264v-43v-37t0.5 -37t1.5 -42q24 -3 53 -3q30 0 60.5 10.5t54.5 38t39 76.5t15 127q0 67 -11.5 109.5t-32.5 67.5t-49 34.5t-61 9.5
q-17 0 -34.5 -1t-33.5 -3q-2 -37 -2 -75v-78v-154z" />
    <glyph glyph-name="E" unicode="E" horiz-adv-x="326" 
d="M25 419q0 42 -1 87t-3 91q0 9 -0.5 22t-1 26.5t-1 25t-0.5 19.5q15 -1 36 -2.5t43.5 -2.5t43 -2t35.5 -1t37.5 1t46.5 2.5t46 3t37 2.5q-5 -20 -7 -32.5t-3.5 -19.5t-1.5 -10.5v-5.5v-5t1.5 -10t4 -19.5t7.5 -34.5q-3 0 -11.5 1t-18.5 2.5t-19.5 2.5t-14.5 1
q-7 1 -13 1.5t-7 0.5q-2 0 -5 0.5t-5 0.5q-22 2 -42.5 4t-51.5 3v-2q0 -18 -0.5 -35.5t-0.5 -39.5v-82q46 2 88 6t85 10q-6 -30 -9.5 -48.5t-3.5 -21.5t15 -72q-60 8 -103.5 11.5t-71.5 4.5v-157v-13.5v-7.5v-5v-7q40 1 88.5 5t99.5 16v-6t-0.5 -10.5t-0.5 -10.5v-6
q-2 -14 -4.5 -29t-3.5 -17q2 -7 5 -22.5t8 -40.5l-37.5 2.5t-46.5 3t-46.5 2.5t-37.5 1t-36.5 -1t-44 -2t-44 -2.5t-36.5 -2.5q0 9 0.5 21.5t1 26t1 26t0.5 22.5q2 44 3 91.5t1 85.5v154z" />
    <glyph glyph-name="F" unicode="F" horiz-adv-x="322" 
d="M26 418q0 29 -0.5 64t-1.5 71.5t-2.5 72t-2.5 64.5q15 -1 36 -2.5t43.5 -2.5t43 -2t35.5 -1t37.5 0.5t46.5 1.5t48 2.5t42 2.5q0 -3 -1 -9.5l-2 -13t-2 -12.5t-1 -8q-2 -6 -2 -14t-1 -11q1 -4 2.5 -14.5l3.5 -24.5q0 -2 0.5 -15t0.5 -15q-23 3 -49.5 6t-52.5 5.5t-50 4.5
t-42 3v-80q0 -8 0.5 -16t0.5 -16v-45q34 2 77.5 5t94.5 10v-5t-0.5 -11.5t-0.5 -12.5v-9v-16q0 -3 -0.5 -6t-0.5 -5v-9q0 -2 0.5 -5t0.5 -6v-16v-9t0.5 -12.5t0.5 -11.5v-5q-45 7 -91 10t-81 4v-40q0 -42 1 -89t2 -95q0 -9 0.5 -22t1 -26.5t1 -25.5t0.5 -19q-26 5 -45 9
t-26 4t-26.5 -4t-45.5 -9q1 28 2.5 64.5t2.5 74t1.5 73.5t0.5 65v154z" />
    <glyph glyph-name="G" unicode="G" horiz-adv-x="551" 
d="M444 504q-10 16 -23.5 32t-30 28t-35 19.5t-38.5 7.5q-34 0 -63.5 -14.5t-51 -45.5t-33.5 -78t-12 -112q0 -116 43 -180.5t120 -64.5q17 0 37 3t34 9v59q0 7 0.5 13.5t0.5 14.5q0 16 -0.5 39.5t-1.5 48t-1.5 47t-1.5 36.5q26 -6 45 -11t26 -5q3 0 19 5.5t51 18.5
q-1 -10 -2 -35t-2 -58t-2 -71t-1 -74v-96q-18 -9 -44.5 -19t-55.5 -18t-57.5 -13.5t-49.5 -5.5q-68 0 -123 23t-93.5 68t-59 112t-20.5 154q0 85 21.5 151.5t60.5 112.5t94 69.5t123 23.5q39 0 71 -7t58.5 -18t48 -24.5t38.5 -26.5q-8 -21 -16 -54.5t-10 -63.5h-63z" />
    <glyph glyph-name="H" unicode="H" horiz-adv-x="505" 
d="M343 423q9 0 13 1q0 28 -1 64t-2 72.5t-2.5 72t-2.5 64.5q26 -7 44.5 -11t26.5 -4q9 0 27.5 4t44.5 10q-1 -29 -2.5 -65t-2.5 -74t-1.5 -74t-0.5 -65v-154q0 -29 0.5 -65t1.5 -73.5t2.5 -74t2.5 -64.5q-26 5 -46 9t-26 4q-7 0 -26 -4t-45 -9q1 28 2.5 64.5t2.5 74t2 73.5
t1 65v45q-26 1 -52 0.5t-52 -0.5h-29.5h-22h-22.5h-30v-45q0 -29 1 -65t2 -73.5t2.5 -74t2.5 -64.5q-26 5 -46 9t-26 4q-8 0 -26.5 -4t-44.5 -9q1 28 2.5 64.5t2.5 74t1.5 73.5t0.5 65v154q0 29 -0.5 65.5t-1.5 74t-2.5 74t-2.5 65.5q26 -7 44.5 -11t26.5 -4q9 0 27.5 4
t44.5 10q-1 -29 -2.5 -64.5t-2.5 -72t-2 -72.5t-1 -64h11q23 -1 46.5 -1.5t46.5 -0.5q21 0 42 0.5t43 1.5h6v0z" />
    <glyph glyph-name="I" unicode="I" horiz-adv-x="160" 
d="M16 418q0 29 -1 65t-2 74t-2.5 74t-2.5 65q26 -6 45 -10t27 -4t27 4t45 10q-1 -29 -2.5 -65t-2.5 -74t-2 -74t-1 -65v-154q0 -29 1 -65t2 -73.5t2.5 -74t2.5 -64.5q-26 5 -46 9t-26 4t-26 -4t-46 -9q1 28 2.5 64.5t2.5 74t2 73.5t1 65v154z" />
    <glyph glyph-name="J" unicode="J" horiz-adv-x="202" 
d="M-35 -30q33 0 52 15t28 41.5t11.5 63.5t2.5 82v246q0 42 -1 88.5t-3 94.5q0 10 -0.5 23.5t-0.5 27t-0.5 25.5t-0.5 20q26 -7 44.5 -11t26.5 -4t26.5 4t44.5 11q-1 -29 -2 -65.5t-2 -74t-1.5 -74t-0.5 -65.5v-87.5t1 -88.5q0 -20 0.5 -40.5t0.5 -39.5v-63q0 -47 -15 -88.5
t-42.5 -72.5t-65.5 -49t-84 -18z" />
    <glyph glyph-name="K" unicode="K" horiz-adv-x="454" 
d="M28 24q2 57 4 119.5t2 120.5v154q0 29 -1 65.5t-2 74t-2 74t-2 65.5q26 -7 44.5 -11t26.5 -4t26.5 4t44.5 10q-1 -24 -2 -53.5t-2 -61l-2 -63t-1 -59.5q38 51 81 114t82 120q31 -11 44 -11q5 0 19 3t33 7l16 4t25.5 6t25 5.5t14.5 3.5q-33 -39 -72.5 -86t-77 -93.5
t-70 -89t-52.5 -71.5q14 -21 29.5 -44.5t29.5 -44.5q7 -10 14 -21.5t14 -22.5q15 -23 38 -57.5t47.5 -71.5t48 -72t38.5 -59q-51 10 -84.5 16t-36.5 6q-11 0 -24.5 -2.5t-29.5 -6.5q-16 26 -37.5 60.5t-39.5 63.5q-20 30 -39 61t-36 58q0 -29 1 -61.5t2 -65.5t2 -64t2 -56
q-26 5 -46 9t-25 4t-14 -2t-19 -4z" />
    <glyph glyph-name="L" unicode="L" horiz-adv-x="320" 
d="M26 418q0 29 -0.5 65.5t-1.5 74t-2 74t-2 65.5q26 -7 45 -11t27 -4q7 0 25.5 4t44.5 11q-1 -29 -2 -65.5t-2 -74t-2 -74t-1 -65.5q0 -88 0.5 -156t1.5 -125q0 -9 0.5 -14.5t0.5 -9.5v-1q33 1 80.5 4.5t117.5 16.5q-9 -35 -13 -51.5t-4 -21.5q0 -6 3.5 -22t11.5 -47
q-15 1 -38 2.5t-47.5 3t-48 2.5t-38.5 1t-37 -1t-44.5 -2t-44 -2.5t-36.5 -2.5q1 29 2 64.5t2 72t1.5 71.5t0.5 64v154z" />
    <glyph glyph-name="M" unicode="M" horiz-adv-x="665" 
d="M167 698q23 -63 42.5 -115t38.5 -101.5t39.5 -101t46.5 -114.5q2 5 3.5 8.5t3.5 9.5q9 20 17.5 43.5t18.5 48.5q15 37 32.5 79.5t35 85.5t34 83.5t29.5 73.5h67q5 -49 10 -109t10 -109q2 -15 2.5 -31t2.5 -30q4 -47 9 -104t10 -115.5t10.5 -114t10.5 -100.5
q-29 7 -48.5 11t-25.5 4q-5 0 -23.5 -4t-42.5 -9q0 5 -0.5 14t-1.5 19t-1.5 19t-0.5 15q-3 45 -5 79t-3.5 65.5t-4 64.5t-6.5 78q-33 -83 -66.5 -170t-60.5 -171h-57q-13 36 -27.5 75.5t-30 80l-31 81t-29.5 76.5q-4 9 -4 8.5t1 -2.5t0.5 -1t-5.5 13q-4 -47 -7 -96t-5.5 -95
t-4.5 -86.5t-2 -71.5q-25 8 -41 13t-18 5t-8.5 -2.5t-15.5 -4.5h1q-5 -2 -22 -6t-22 -6q9 74 19 169t20.5 193t19 191t14.5 164h72z" />
    <glyph glyph-name="N" unicode="N" horiz-adv-x="502" 
d="M414 -16q-63 98 -137 206t-146 211l-2 2v-69q0 -19 0.5 -48t1 -63t1.5 -69.5t2.5 -68.5t3 -60.5t3.5 -43.5q-3 1 -9.5 2.5t-14 4t-13.5 4t-8 2.5h1q-5 1 -9 2t-7 2q-4 1 -6 2q-6 0 -31 -9q-2 0 -13.5 -4.5t-25.5 -10.5q3 26 7 82.5t7.5 123t5.5 131.5t2 109
q0 42 -0.5 84.5t-1 80t-1 67t-1.5 44.5h68q24 -35 51.5 -75t52.5 -75q30 -44 53.5 -78.5t44.5 -65t41 -58.5t42 -57q0 52 -1 108.5t-1.5 111.5t-2 105t-2.5 91q15 -7 28 -11q7 -3 15 -6q15 -6 18 -6q-1 0 5 2.5t13 4.5q3 1 14 4t30 9q-1 -13 -2.5 -39.5t-3 -60t-3.5 -70.5
t-3 -71.5t-2 -64t-1 -46.5v-48v-56.5t0.5 -60t0.5 -58.5q0 -23 0.5 -47.5t0.5 -44.5v-51h-65zM108 433q2 -4 3 -4q-1 0 -3 4z" />
    <glyph glyph-name="O" unicode="O" horiz-adv-x="625" 
d="M23 341q0 85 21.5 151.5t59.5 112.5t91.5 69.5t116.5 23.5q64 0 117 -23.5t91 -69.5t59.5 -112.5t21.5 -151.5t-21.5 -151.5t-59.5 -112t-91 -69.5t-117 -24q-63 0 -116.5 24t-91.5 69.5t-59.5 112t-21.5 151.5zM461 341q0 65 -11.5 112t-31.5 78t-47 45.5t-59 14.5
t-59 -14.5t-47 -45.5t-31.5 -78t-11.5 -112t11.5 -112t31.5 -78t47 -45.5t59 -14.5t59 14.5t47 45.5t31.5 78t11.5 112z" />
    <glyph glyph-name="P" unicode="P" horiz-adv-x="379" 
d="M28 418q0 54 -2 117.5t-4 120.5v36q35 -5 62 -7.5t41 -2.5q2 0 8 0.5t12 1.5q4 1 11 1h10q11 1 23.5 1.5t18.5 0.5q18 0 49 -3t61 -21t51.5 -56t21.5 -108q0 -71 -23 -115.5t-56.5 -69t-71 -33t-66.5 -8.5q-4 0 -6 -0.5t-3 -0.5h-2h-1q-3 0 -6 1v-9q0 -29 1 -65t2 -73.5
t2 -74t2 -64.5q-26 5 -44.5 9t-26.5 4q-5 0 -25 -4t-46 -9q1 28 2 64.5t2 74t2 73.5t1 65v154zM156 380h11q15 0 30.5 4.5t28.5 17.5t21.5 34.5t8.5 56.5q0 27 -5.5 44t-15 26.5t-23.5 13t-32 3.5h-24v-200z" />
    <glyph glyph-name="Q" unicode="Q" horiz-adv-x="609" 
d="M9 341q0 85 21 151.5t59.5 112.5t91.5 69.5t117 23.5t117 -23.5t91 -69.5t59 -112.5t21 -151.5q0 -118 -41 -199t-110 -122q19 -20 43 -43.5t48.5 -47.5t47 -45.5t39.5 -37.5q-26 -2 -47.5 -9.5t-39 -18t-29.5 -22.5t-18 -22q-4 4 -10.5 12.5t-14 17.5t-14.5 17t-11 13h1
q-32 38 -63 76t-65 74h-4q-64 0 -117 24t-91.5 69.5t-59.5 112t-21 151.5zM447 341q0 65 -11.5 112t-31.5 78t-47 45.5t-59 14.5t-59 -14.5t-47 -45.5t-31.5 -78t-11.5 -112t11.5 -112t31.5 -78t47 -45.5t59 -14.5t59 14.5t47 45.5t31.5 78t11.5 112z" />
    <glyph glyph-name="R" unicode="R" horiz-adv-x="445" 
d="M33 418q0 54 -2 116t-4 119q0 4 -0.5 19t-0.5 19q33 -4 62.5 -6.5t51.5 -2.5q10 0 18.5 0.5t17.5 1.5q3 0 5.5 0.5t5.5 0.5q6 1 14 1.5t16 0.5q36 0 68 -9t56 -30t38 -55.5t14 -84.5q0 -40 -10.5 -71.5t-27.5 -55t-38.5 -39.5t-42.5 -26q0 -1 1 -2t1 -2q4 -7 9 -15
l10 -16q18 -30 45.5 -76t56 -91.5t53 -83t34.5 -52.5q-51 10 -84.5 16t-36.5 6q-8 0 -23 -2.5t-37 -7.5q-9 18 -25 48t-35.5 65t-41 72.5t-41.5 69.5q0 -29 1 -63t2 -68.5t2.5 -67t2.5 -59.5q-26 5 -45 9t-26 4q-6 0 -26 -4t-46 -9q1 28 2.5 64.5t2.5 74t2 73.5t1 65v154z
M160 399h9q15 0 31 5t29.5 16.5t22.5 30.5t9 48q0 24 -6.5 40t-16.5 25t-22 12.5t-23 3.5h-14.5t-14.5 -1v-10.5t-1 -9.5v1q-2 -34 -2.5 -70.5t-0.5 -71.5v-19z" />
    <glyph glyph-name="S" unicode="S" horiz-adv-x="367" 
d="M92 188q6 -16 14 -32t18.5 -29.5t22.5 -22t26 -8.5q28 0 43.5 27t15.5 65q0 20 -6.5 34.5t-17.5 26t-24.5 20t-28.5 16.5q-24 13 -48 28t-43 38t-31 57t-12 84q0 46 13 84t36.5 65t57.5 42t76 15t76 -17.5t67 -52.5q-11 -29 -18 -56t-14 -65h-67q-3 12 -7.5 27t-11 27.5
t-15 21t-18.5 8.5q-21 0 -35.5 -20.5t-14.5 -53.5q0 -21 6.5 -36t18 -26.5t25.5 -20t29 -16.5q24 -13 48 -28t43 -36.5t31 -53t12 -78.5q0 -48 -14 -91.5t-40 -76t-63.5 -51.5t-84.5 -19q-27 0 -49.5 6.5t-41 17.5t-34 25t-28.5 28q4 14 7 27.5t5.5 28.5t4 32t3.5 39h68z
" />
    <glyph glyph-name="T" unicode="T" horiz-adv-x="408" 
d="M140 418v40.5v34t-0.5 34t-0.5 40.5q-32 -2 -73.5 -7t-85.5 -12q9 33 13 50t4 24q0 5 -3.5 21.5t-10.5 45.5q22 -1 51 -2.5t59.5 -2.5t59.5 -1.5t51 -0.5q21 0 50 0.5t59.5 1.5t59 2.5t49.5 2.5q-6 -33 -8.5 -49.5t-2.5 -18.5q0 -4 2.5 -21t10.5 -52q-46 7 -88 12t-68 7
q-1 -35 -0.5 -74.5t0.5 -74.5v-154q0 -29 1 -65t2 -73.5t2.5 -74t2.5 -64.5q-26 5 -46.5 9t-25.5 4q-6 0 -26 -4t-46 -9q1 28 2.5 64.5t2.5 74t2 73.5t1 65v154z" />
    <glyph glyph-name="U" unicode="U" horiz-adv-x="516" 
d="M377 359v113t-1 89.5t-3 74t-5 65.5q29 -8 48 -13.5t22 -5.5q-2 0 4 2.5t14 5.5l9 3t12.5 4t12.5 4t8 3q-2 -31 -4.5 -83t-4.5 -112t-4 -121t-2 -110q-1 -68 -16.5 -122t-44.5 -92.5t-71.5 -59t-96.5 -20.5q-119 0 -173.5 71.5t-54.5 220.5v43t1 39v3q1 14 1.5 28t0.5 29
q0 42 -0.5 79t-1.5 69q0 10 -0.5 19t-0.5 18v38v56q26 -7 45.5 -11t25.5 -4q5 0 24.5 5t46.5 13q-3 -33 -5.5 -75.5t-4 -89.5t-2.5 -96.5t-1 -96.5q0 -39 2 -82t12.5 -79t33.5 -59t65 -23q41 0 63 27t32.5 66.5t12 84.5t1.5 82z" />
    <glyph glyph-name="V" unicode="V" horiz-adv-x="506" 
d="M196 14q-10 37 -25 88l-32.5 110.5t-37.5 123.5l-40 128t-39 124.5t-36 111.5q1 0 7.5 -1.5t14 -3.5t14 -3.5t8.5 -1.5l-1 1q17 -4 30 -6.5t17 -2.5q9 0 24 3t37 8q15 -60 29 -112.5t28.5 -105.5t31.5 -109.5t38 -124.5q18 57 36.5 121.5t35.5 126t31 115.5t23 92
q21 -6 34.5 -10t16.5 -4t38 11q4 2 18 6.5t29 9.5q-26 -77 -56.5 -170t-61 -189t-59 -189t-50.5 -170q-1 0 -9.5 0.5t-9.5 0.5q-11 3 -19.5 5.5t-10.5 2.5q-3 0 -15 -5z" />
    <glyph glyph-name="W" unicode="W" horiz-adv-x="785" 
d="M177 14q-1 7 -4 20t-5 24l1 -1q-1 3 -1 5.5t-1 5.5q-8 36 -21 91t-28 118.5t-31 129.5t-30 124t-25 102.5t-17 65.5q1 0 7.5 -1.5t13.5 -3t13 -3t7 -1.5l-1 1q16 -4 28 -6.5t17 -2.5q4 0 21.5 4t41.5 9q12 -60 21 -109.5t19 -97.5t21 -99.5t27 -117.5q13 54 28.5 118.5
t29.5 124.5t25 109t16 73q1 0 5.5 -1t10 -2.5t10 -2.5t5.5 -1q7 -3 15 -5t6 -2q2 0 15.5 4t35.5 11q5 -24 12.5 -58.5t16.5 -74.5t19 -82.5t19 -82t17.5 -73.5t14.5 -57q13 55 27.5 120.5t27.5 126t23 109.5t14 72q21 -7 35.5 -11t17.5 -4q2 0 23.5 7t55.5 18
q-5 -16 -15 -51.5t-23 -84t-28 -106t-30.5 -117t-31 -117t-28 -107t-22.5 -86.5t-14 -55q-11 5 -20.5 8.5t-10.5 3.5q-15 5 -17 5q-1 0 -6 -2t-14 -5l-27 -9q-3 13 -7 29t-8 32.5t-7.5 32t-6.5 27.5q-11 45 -18 77.5t-14.5 64t-16.5 68t-23 88.5q-15 -61 -33.5 -134
t-36.5 -143q-4 -17 -8.5 -36t-9 -37.5t-9 -36.5t-8.5 -31q-20 7 -33 11t-15 4q-3 0 -8.5 -2t-12.5 -4z" />
    <glyph glyph-name="X" unicode="X" horiz-adv-x="466" 
d="M166 677q10 -26 18 -47.5t16 -42.5t18 -44.5t23 -52.5q23 46 44.5 97t45.5 110q20 -7 32 -11t14 -4q3 0 31 8.5t70 22.5q-4 -8 -14 -27t-21.5 -40.5t-22 -42t-15.5 -30.5q-2 -2 -2 -3l-1 -1q-29 -53 -54 -99t-51 -101q19 -42 42.5 -93t48 -103t48 -101.5t43.5 -89.5
q-42 8 -69.5 13t-34.5 5q-8 0 -22.5 -2.5t-35.5 -7.5q-2 5 -6.5 14t-9 19t-8.5 19t-6 14q-5 11 -8.5 20.5t-7.5 19.5q-8 21 -12 33.5t-8.5 24.5t-11 26.5t-18.5 38.5q-24 -53 -49 -113t-48 -115q-1 0 -8.5 0.5t-8.5 0.5q-11 3 -19.5 5.5t-10.5 2.5t-30.5 -8.5t-70.5 -22.5
q20 38 45 86t51 98.5t50.5 99.5t43.5 88l-3 7q-2 3 -3 6.5t-3 5.5q-15 34 -36 79t-42.5 92t-43 92t-37.5 79q44 -9 71 -14.5t32 -5.5q8 0 19 2t24 5z" />
    <glyph glyph-name="Y" unicode="Y" horiz-adv-x="453" 
d="M155 12q6 63 7 130t1 138q-8 18 -23.5 52.5t-34.5 77t-40.5 88.5t-40.5 87t-33.5 72t-21.5 45q40 -8 68 -14t36 -6q17 0 59 11q2 -3 6.5 -15t6.5 -16q14 -35 24 -61.5t19.5 -52t20.5 -53.5t28 -66q26 59 52.5 127.5t51.5 139.5q19 -6 32.5 -10t17.5 -4q3 0 15.5 3.5
t28.5 7.5q2 1 10 3.5t17 5.5l16.5 5.5t8.5 2.5q-32 -65 -62 -128.5t-56.5 -119t-46.5 -100.5t-32 -73q0 -33 1 -77t2 -87.5t2.5 -81t2.5 -57.5q-27 6 -45.5 10t-25.5 4q-6 0 -19 -2.5t-30 -6.5z" />
    <glyph glyph-name="Z" unicode="Z" horiz-adv-x="468" 
d="M6 59q36 66 76 140.5t77 145t68 130.5t49 96q-24 0 -56.5 -2t-67 -5t-68.5 -6.5t-62 -6.5q6 26 10.5 48t4.5 23q0 2 -1 8.5t-3 16.5q0 3 -1.5 9.5t-2.5 13.5t-2.5 13.5t-1.5 8.5q36 -4 72.5 -6t75.5 -3t82.5 -1h94.5q12 0 26 1t28 3h17h9t12 0.5t11 0.5h6v-66
q-12 -18 -32 -53t-45 -80t-53 -97t-54.5 -102.5t-50 -96.5t-39.5 -80q24 0 60.5 2t75 5t75.5 7t63 8v-5t-0.5 -11.5t-0.5 -12.5v-9v-17q-3 -14 -3 -18v-2q0 -3 1 -5q0 -3 1.5 -11t3 -17t2.5 -18t2 -15q-24 1 -51 2.5t-54 2.5t-52 1.5t-44 0.5q-26 0 -63 -1t-75 -2t-71 -3
t-49 -3v68z" />
    <glyph glyph-name="bracketleft" unicode="[" horiz-adv-x="167" 
d="M16 401q0 31 -0.5 69t-1.5 77.5t-2.5 77.5t-2.5 68q32 -5 50 -8t23 -3q9 0 25 0.5t33.5 1.5t32.5 2t22 1q0 -2 -0.5 -16t-0.5 -19v-24q0 -2 0.5 -5.5t0.5 -8.5v-29q-5 0 -19 0.5t-18 0.5q-11 0 -13.5 0.5t-13.5 0.5q-3 -92 -3 -186v-225v-50.5t0.5 -43.5t1 -42.5
t1.5 -48.5h4q13 0 33 1t27 2v-5.5t-0.5 -10.5t-0.5 -11.5v-8.5v-23q0 -1 0.5 -5.5t0.5 -9.5v-30q-7 0 -22 1t-32.5 1.5t-33.5 1t-25 0.5q-5 0 -23 -2.5t-50 -7.5q1 30 2.5 68t2.5 77.5t1.5 77.5t0.5 69v225z" />
    <glyph glyph-name="backslash" unicode="\" horiz-adv-x="253" 
d="M-40 728q14 -6 27 -11.5t25 -9.5q5 -2 8.5 -3t6.5 -3l6 -3q-1 0 12 5t30 12l216 -759q-2 1 -10 3.5t-16.5 5.5t-16 6t-9.5 3q-5 2 -9.5 3.5t-6.5 3.5q-4 2 -5 3q2 0 -11 -5t-30 -12z" />
    <glyph glyph-name="bracketright" unicode="]" horiz-adv-x="168" 
d="M38 401v50t-0.5 43t-1 43t-1.5 49h-2h-13t-15 -1q-7 -22 -18 -1q-7 0 -12.5 -0.5t-8.5 -0.5q0 4 1 11.5t2.5 16t2.5 15.5t1 9q-1 4 -1.5 8t-1.5 9l1 -2q0 1 -1.5 6.5t-2.5 11.5t-2 11.5t-1 7.5q6 0 22.5 -1t35.5 -2t36.5 -1.5t26.5 -0.5q4 0 23 3.5t48 8.5q0 -30 -1 -68
t-1.5 -77.5t-1 -78t-0.5 -69.5v-225q0 -31 0.5 -69.5t1 -78t1.5 -77.5t1 -68q-32 6 -49 8.5t-22 2.5h-28h-23t-27.5 0.5t-25 1t-16.5 0.5l3.5 21t3.5 20q2 4 2 5v2t-2 6q-1 5 -3 20t-3 23h25t19 -1q9 -1 12 -1.5t13 -0.5q3 91 3 186v225z" />
    <glyph glyph-name="asciicircum" unicode="^" horiz-adv-x="425" 
d="M169 660h86l186 -478h-115l-114 298q-29 -75 -59 -152t-56 -146h-116z" />
    <glyph glyph-name="underscore" unicode="_" horiz-adv-x="462" 
d="M26 -116v118h409v-118h-409z" />
    <glyph glyph-name="grave" unicode="`" horiz-adv-x="187" 
d="M21 593q-12 11 -24.5 26.5t-12.5 43.5q0 16 6 28t15 20.5t19.5 12.5t19.5 4q17 0 32.5 -10t26.5 -26q13 -18 33.5 -45.5t41.5 -55.5t39.5 -53t28.5 -38h-115z" />
    <glyph glyph-name="a" unicode="a" horiz-adv-x="370" 
d="M38 432q43 43 77.5 58.5t66.5 15.5q33 0 60 -12t46.5 -34.5t30 -53.5t10.5 -69v-49.5t-1 -51.5q-1 -24 -1.5 -53t-0.5 -55v-9.5t-1 -7.5q6 5 15.5 12.5t25.5 20.5v-121q-15 -8 -36.5 -17.5t-43.5 -9.5q-16 0 -31 7t-26 18q-20 -17 -42.5 -25.5t-52.5 -8.5
q-24 0 -46.5 10.5t-40 29.5t-28 46t-10.5 60q0 71 33 109t90 51q26 5 40.5 8t21.5 6t8.5 5.5t1.5 6.5q0 30 -8.5 52.5t-29.5 22.5q-15 0 -30.5 -15.5t-27.5 -44.5h-70v98zM202 209q-12 -3 -23.5 -7t-20.5 -11t-15 -18t-6 -27q0 -24 6.5 -36.5t15.5 -12.5q12 0 23.5 9.5
t18.5 23.5z" />
    <glyph glyph-name="b" unicode="b" horiz-adv-x="393" 
d="M403 259q0 -60 -14.5 -110t-40 -86t-60.5 -56t-75 -20q-30 0 -55 12t-45 32q-7 -8 -13 -15.5t-11 -15.5h-69q1 21 2.5 57.5t2.5 78t1.5 82.5t0.5 72v162q0 31 -1 74t-2 87.5t-3 83.5t-3 62q56 -17 71 -17q5 0 24 4t51 12q-2 -20 -4 -51.5t-4 -69t-3 -78t-2 -78.5
q17 14 36.5 19.5t41.5 5.5q45 0 77.5 -20t54 -54t32 -79t10.5 -94zM270 261q0 66 -17 99.5t-37 33.5q-27 0 -47 -36t-20 -126q0 -143 61 -143q26 0 43 47t17 125z" />
    <glyph glyph-name="c" unicode="c" horiz-adv-x="375" 
d="M9 246q0 68 17.5 117t47 81t66.5 47t76 15q46 0 86.5 -21.5t63.5 -47.5q-7 -21 -13.5 -46t-11.5 -57h-60q-5 11 -12 23.5t-15.5 23t-17.5 17t-18 6.5q-21 0 -35.5 -12t-23.5 -33t-13 -49.5t-4 -62.5q0 -74 20.5 -112t58.5 -38q17 0 43.5 24.5t49.5 62.5l49 -50
q-1 -5 -2 -17.5t-2 -20.5q-1 -9 -2 -21.5t-1 -13.5q-14 -15 -31 -28t-36 -23.5t-39.5 -16.5t-40.5 -6q-36 0 -72 14.5t-64.5 45.5t-46 80.5t-17.5 118.5z" />
    <glyph glyph-name="d" unicode="d" horiz-adv-x="392" 
d="M238 9q-16 -10 -34.5 -16t-40.5 -6q-32 0 -63 14.5t-55.5 46t-39.5 79.5t-15 116q0 66 16 115.5t41.5 82.5t58.5 49t66 16q36 0 67 -17q2 60 6.5 115t6.5 100q-44 1 -68 2.5t-32 4t-2.5 5.5t20.5 6.5t36.5 7t45.5 6.5v5q1 -1 12.5 3t18.5 2l9 -3q3 -1 5 -1q5 1 11.5 1.5
t11.5 0.5q9 2 25 7t31 10q-4 -44 -6.5 -108.5t-4 -135.5t-2 -142t-0.5 -128q0 -55 0.5 -101t1.5 -93v-62q-4 0 -13 1t-18.5 2.5t-17 3t-8.5 1.5l4 -1q-1 1 -2 1q-4 1 -8 1h-4l-2 -1q-5 -1 -13.5 -2t-17.5 -2.5t-16.5 -2.5t-10.5 -1v18zM123 238q0 -42 5 -70t13 -44.5
t17.5 -23t19.5 -6.5q17 0 29 14t20 37t11.5 51.5t3.5 58.5q0 67 -15.5 103t-45.5 36q-15 0 -25.5 -12t-18 -33t-11 -49.5t-3.5 -61.5z" />
    <glyph glyph-name="e" unicode="e" horiz-adv-x="387" 
d="M10 234q0 63 12.5 113t37 85.5t60.5 54.5t82 19q45 0 77.5 -17.5t54.5 -47.5t32.5 -69.5t10.5 -84.5q0 -4 -0.5 -12.5t-1 -19t-1 -21.5t-1.5 -19h-50q-10 0 -19 0.5t-15 0.5h-5q-23 1 -44.5 1.5t-44.5 0.5q-14 0 -26.5 -0.5t-25.5 -1.5q2 -51 22.5 -85t56.5 -34
q18 0 45.5 24.5t50.5 60.5l47 -48l-7 -73q-14 -15 -31 -28t-36.5 -23.5t-40 -16.5t-39.5 -6q-45 0 -82 19t-63.5 52.5t-41 78.5t-14.5 97zM202 404q-12 0 -21 -7t-15.5 -19t-10.5 -27t-6 -30q11 -1 23.5 -1h23.5q14 0 26 0.5t26 1.5q-1 15 -4 30t-8 26.5t-13.5 18.5t-20.5 7
z" />
    <glyph glyph-name="f" unicode="f" horiz-adv-x="232" 
d="M204 586q-30 26 -38 26q-11 0 -15 -16.5t-4 -36.5q0 -10 1.5 -28.5t3.5 -38.5h29q8 0 26.5 0.5t23.5 0.5q-4 -22 -6 -37.5t-2 -17.5q0 -1 2.5 -18t6.5 -37h-45q-8 0 -14 0.5t-9 0.5h-9v-98t0.5 -103t1 -102.5t1.5 -96.5q-24 6 -42 11t-24 5q-5 0 -23.5 -4t-44.5 -11
q5 94 6.5 198.5t1.5 200.5h-12h-9.5t-13.5 -0.5t-13 -0.5h-7q3 18 4.5 28t2.5 15.5t1 7.5v4q0 4 -1 12.5l-5 42.5h7t13 -0.5t14 -0.5h10h10q3 25 9 53.5t14.5 55.5t19 51t22.5 41q17 21 43.5 38.5t54.5 17.5q5 0 18.5 -3.5t31.5 -9.5q0 -4 -0.5 -16t-0.5 -17v-19
q-1 -12 -1.5 -32.5t-0.5 -31.5z" />
    <glyph glyph-name="g" unicode="g" horiz-adv-x="396" 
d="M23 324q0 46 13.5 80.5t36 57t53 33.5t64.5 11q8 0 19 -0.5t20 -1.5q3 -1 6 -1q2 0 4.5 -0.5t5.5 -0.5q1 0 2 -0.5t3 -0.5h7q11 0 21 -2h12q18 0 44.5 5t55.5 13q-4 -25 -7 -46.5t-3 -23.5q0 1 3 -19t6 -43l-48 7q6 -17 8.5 -35t2.5 -35q0 -86 -44 -133.5t-117 -47.5h-11
q-3 0 -7 0.5t-6 0.5q-5 1 -7.5 1h-4.5q2 -2 2 -4q0 -9 4 -9q11 -1 19 -1h17q10 -1 19 -1h18q80 -3 115.5 -46t35.5 -106q0 -37 -11 -76t-34.5 -70.5t-60.5 -51.5t-89 -20q-82 0 -129.5 44t-47.5 121q0 42 13.5 72.5t34.5 50.5q-19 28 -19 68q0 23 8 42.5t19 34.5
q-21 23 -33.5 56.5t-12.5 76.5zM262 -62q0 32 -15 47t-50 15q-32 0 -50 -15.5t-18 -51.5q0 -42 18 -59t44 -17q27 0 49 19.5t22 61.5zM226 327q0 38 -10 58.5t-26 20.5q-19 0 -29.5 -22t-10.5 -60q0 -40 10 -63t30 -23q18 0 27 27t9 62z" />
    <glyph glyph-name="h" unicode="h" horiz-adv-x="359" 
d="M26 452q0 31 -0.5 74t-2 87.5t-3 83.5t-3.5 62q29 -9 47.5 -13t23.5 -4q6 0 25 4.5t46 13.5q-2 -20 -3 -53.5t-2.5 -72t-2.5 -77.5t-1 -70q32 19 71 19q25 0 51 -8.5t47 -30.5t34 -59.5t13 -94.5v-37.5t-1 -39.5q-1 -19 -1.5 -44t-0.5 -44q0 -15 0.5 -37t1 -45t1 -45
t1.5 -36q-26 7 -44 11t-23 4q-1 -1 -11 -3t-18 -4q-5 -2 -19 -4.5t-16 -3.5v28v38t0.5 38t0.5 28q0 7 0.5 17t0.5 16q1 20 1.5 41t0.5 41v55q0 48 -10 73.5t-27 25.5q-28 0 -40.5 -29t-12.5 -82q0 -25 1 -65t2 -83t2.5 -81.5t3.5 -60.5q-25 7 -44 11t-27 4q-5 0 -23.5 -4
t-47.5 -11q2 22 3.5 61t3 83t2 87t0.5 74v162z" />
    <glyph glyph-name="i" unicode="i" horiz-adv-x="133" 
d="M2 292q0 37 -1.5 89t-9.5 129q29 -9 47.5 -13t25.5 -4q14 0 72 16q-8 -71 -9.5 -123.5t-1.5 -93.5v-92q0 -41 1.5 -93t9.5 -122q-23 5 -40.5 9t-25.5 6q-2 -2 -15.5 -4t-23.5 -4l-40 -7q8 77 9.5 127.5t1.5 87.5v92zM-7 616q0 34 21 58t50 24t50 -24t21 -58
q0 -35 -21 -58.5t-50 -23.5t-50 23.5t-21 58.5z" />
    <glyph glyph-name="j" unicode="j" horiz-adv-x="174" 
d="M44 257q0 27 -1 62.5t-2.5 71.5t-3.5 68t-3 51q29 -9 47 -13t23 -4q7 0 24.5 4t46.5 13q-2 -19 -3 -48t-2.5 -60t-2 -60.5t-0.5 -49.5v-194q1 -23 1 -52v-52q0 -42 -3 -77.5t-21 -70.5q-20 -36 -62 -61.5t-103 -28.5l-10 123q21 -9 36 -14l15 -5q7 1 12 13t7.5 30.5
t3.5 41.5t1 46v266zM33 616q0 34 21 58t50 24q15 0 28 -6.5t22.5 -17.5t15.5 -26t6 -32q0 -35 -21.5 -58.5t-50.5 -23.5t-50 23.5t-21 58.5z" />
    <glyph glyph-name="k" unicode="k" 
d="M29 452q0 31 -1 74t-2.5 87.5t-3.5 83.5t-3 62q56 -17 71 -17q14 0 70 17q-1 -23 -2.5 -62t-2.5 -83.5t-2 -87.5t-1 -74v-97q21 29 51 70t56 81q37 -13 39 -13h7t12 2q2 0 9.5 2.5t15.5 5.5l34 -51q-45 -48 -84 -91.5t-70 -82.5q20 -31 46 -70.5t53 -80.5t53 -79.5
t45 -66.5q-2 0 -11 2t-19.5 3.5t-19 3t-10.5 1.5h1q-48 9 -60 9q-11 0 -23.5 -2.5t-28.5 -6.5q-19 33 -45 75.5t-51 81.5q1 -20 2 -42.5t2 -44.5t2 -41.5t2 -34.5q-26 7 -44 11t-26 4q-7 0 -26 -4t-45 -11q1 22 3 61t3.5 83t2.5 87t1 74v162z" />
    <glyph glyph-name="l" unicode="l" horiz-adv-x="150" 
d="M12 452q0 31 -1 74.5t-2.5 87.5t-3 83.5t-3.5 62.5q57 -18 71 -18q5 0 23.5 4t47.5 13q-2 -23 -3.5 -62t-3 -83.5t-2.5 -87.5t-1 -74v-162q0 -31 1 -74t2.5 -87t3 -83t3.5 -61q-29 7 -47.5 11t-23.5 4q-7 0 -26 -4t-45 -11q2 22 3.5 61t3 83t2.5 87t1 74v162z" />
    <glyph glyph-name="m" unicode="m" horiz-adv-x="603" 
d="M37 292q0 20 -1 49.5t-2.5 60.5t-3 60t-2.5 48q29 -9 46.5 -13t23.5 -4q10 0 64 16v-19q30 16 62 16q29 0 55 -13t46 -36q42 49 105 49q30 0 55.5 -10t44.5 -32t29.5 -55.5t10.5 -81.5v-56q0 -3 -0.5 -8.5t-0.5 -8.5q-1 -24 -1.5 -55t-0.5 -69q0 -12 0.5 -31t1 -40
t1 -40.5t0.5 -33.5q-26 7 -44 11t-23 4t-24.5 -5t-45.5 -13q1 16 3 47.5t3.5 74.5t2.5 96.5t1 114.5q0 30 -7 50.5t-27 20.5q-11 0 -20 -6.5t-14 -14.5q-4 -8 -6.5 -15.5t-4 -26t-2 -53t-0.5 -95.5q0 -20 0.5 -36.5t1.5 -33.5q0 -9 0.5 -18t0.5 -19v-27v-13.5t0.5 -17
t0.5 -16v-9.5q-26 7 -43.5 11t-22.5 4q-6 0 -25 -4t-45 -11q2 25 3.5 58t3 67.5t2 67.5t0.5 58v59t-1 34.5t-3 20.5t-6 17q-4 8 -9.5 13.5t-10.5 5.5q-25 0 -37 -29t-12 -82v-75q0 -20 1 -49t2 -59.5t2.5 -59l2.5 -47.5q-26 7 -44 11t-26 4q-7 0 -25.5 -4t-44.5 -11
l2.5 47.5t3 59t2.5 59.5t1 49v92z" />
    <glyph glyph-name="n" unicode="n" horiz-adv-x="384" 
d="M238 287q0 48 -10 73.5t-27 25.5q-28 0 -40.5 -29t-12.5 -82v-75q0 -42 1.5 -96t8.5 -128q-1 0 -6 2.5l-11 5.5l-11 5.5t-6 2.5q-14 3 -25 5.5t-13 2.5q-5 0 -24 -4t-48 -11q7 70 8.5 122t1.5 93v92q0 41 -1.5 93.5t-8.5 123.5q30 -8 48.5 -12t23.5 -4q10 0 64 16v-21
q15 8 32 13t37 5q25 0 51 -8.5t47 -30.5t34 -59.5t13 -94.5v-37.5t-1 -39.5q-1 -19 -1.5 -44t-0.5 -44q0 -15 0.5 -37t1 -45t1 -45t1.5 -36q-26 7 -44 11t-23 4q-1 -1 -11 -3t-19 -4q-5 -2 -18.5 -4.5t-16.5 -3.5v28t0.5 38t1 38t0.5 28q0 7 0.5 17t0.5 16q1 20 1.5 41
t0.5 41v55v0z" />
    <glyph glyph-name="o" unicode="o" horiz-adv-x="427" 
d="M13 246q0 72 17.5 121.5t46 80t64.5 44.5t72 14t71.5 -14t64 -44.5t46.5 -80t18 -121.5q0 -71 -18 -120.5t-46.5 -80.5t-64 -44.5t-71.5 -13.5t-72 13.5t-64.5 44.5t-46 80.5t-17.5 120.5zM146 246q0 -30 3 -58.5t11 -50.5t20.5 -35t32.5 -13q19 0 32 13t20.5 35t11 50.5
t3.5 58.5q0 31 -3.5 59.5t-11 50.5t-20.5 35t-32 13q-20 0 -32.5 -13t-20.5 -35t-11 -50.5t-3 -59.5z" />
    <glyph glyph-name="p" unicode="p" horiz-adv-x="394" 
d="M27 200q0 31 -1 74t-2 87.5t-3 84t-3 63.5q54 -16 71 -16q14 0 66 16v-24q15 10 33 15.5t41 5.5q32 0 63.5 -15t56 -46t39.5 -80t15 -116q0 -66 -16 -115t-42 -82t-59 -49t-66 -16q-20 0 -37.5 4t-32.5 13q0 -32 1 -68.5t2 -72t2.5 -65.5t2.5 -49q-25 8 -43.5 11.5
t-25.5 3.5q-8 0 -26.5 -3.5t-44.5 -11.5q1 22 3 61.5t3 83.5t2 87t1 74v145zM270 250q0 42 -5 70t-13 44.5t-18 23t-20 6.5q-18 0 -30 -12t-19.5 -33t-11 -48.5t-3.5 -58.5q0 -148 62 -148q15 0 25.5 12t18 33t11 49.5t3.5 61.5z" />
    <glyph glyph-name="q" unicode="q" horiz-adv-x="395" 
d="M367 55q0 -31 0.5 -74t2 -87t3 -83.5t3.5 -61.5q-29 8 -47.5 11.5t-23.5 3.5q-8 0 -27 -3.5t-44 -11.5q1 22 3 54.5t3 68t2 72t1 66.5q-17 -13 -35.5 -18t-38.5 -5q-31 0 -63 13t-57.5 43t-41.5 79t-16 121q0 69 16.5 118.5t42 81.5t57 47.5t62.5 15.5q19 0 35.5 -4
t30.5 -11v18q28 -8 46 -12t24 -4q13 0 71 16q-2 -24 -3.5 -63.5t-3 -84t-2 -87.5t-0.5 -74v-145zM243 255q0 27 -3 52.5t-10.5 44.5t-19 30.5t-27.5 11.5q-10 0 -20.5 -7t-19 -24.5t-14 -48t-5.5 -78.5q0 -62 13 -102t39 -40q17 0 29.5 14t21 36.5t12.5 51.5t4 59z" />
    <glyph glyph-name="r" unicode="r" horiz-adv-x="230" 
d="M198 329q-9 13 -17 24t-9 11q-15 0 -23 -25t-8 -63q0 -117 1 -189t3 -103q-24 6 -42.5 11t-23.5 5q-6 0 -24.5 -4t-44.5 -11q1 16 2.5 45t2.5 64.5t1.5 74.5t0.5 77v29q0 18 -0.5 45.5t-1 60t-1.5 66t-2 62.5q54 -16 67 -16q10 0 66 17q-1 -5 -1 -9.5t-1 -9.5
q25 15 49 15q11 0 24.5 -5t41.5 -20q-9 -28 -10.5 -56t-1.5 -49z" />
    <glyph glyph-name="s" unicode="s" horiz-adv-x="292" 
d="M91 155q3 -9 8.5 -19.5t12 -20t14 -15.5t14.5 -6q11 0 20 10.5t9 32.5q0 20 -14 29t-32 16q-20 8 -40 18t-36 26.5t-26 42t-10 65.5q0 37 10 69t28.5 54.5t46 35.5t63.5 13q23 0 40 -6t31 -14q2 -1 2.5 -1.5t2.5 -1.5q1 -1 9 -4t38 -14q-5 -12 -9.5 -29l-9 -34t-7.5 -33
t-3 -26h-71q-6 23 -14.5 39.5t-16.5 16.5t-14.5 -9t-6.5 -30q0 -20 14.5 -29.5t33.5 -17.5h-1q20 -8 40 -17t36 -25.5t26 -41.5t10 -64q0 -32 -11 -64t-32 -57.5t-50 -41t-65 -15.5q-38 0 -72 17t-60 36q4 9 7.5 23t6.5 30t5 32.5t2 29.5h71z" />
    <glyph glyph-name="t" unicode="t" horiz-adv-x="218" 
d="M111 617h53q-2 -34 -5 -66t-4 -65q8 1 13 0.5t13 0.5h-1q7 1 21 1h25v-116q-30 3 -46 4t-27 1q0 -17 -0.5 -41t-1 -50t-0.5 -52v-47q0 -18 0.5 -36t2 -31.5t5 -22t9.5 -8.5q2 0 22 7t46 18v-101q-23 -11 -47.5 -18.5t-41.5 -7.5q-60 0 -89.5 39.5t-29.5 108.5v40t1 44v8
q0 10 0.5 20t0.5 20q0 13 0.5 24t1 23t0.5 27v36h-54q1 5 3.5 20t3.5 19q1 5 1.5 10t1.5 7q-1 2 -1 5t-1 7q-1 5 -2.5 23t-2.5 26q15 -2 30 -4.5t18 -2.5v26q0 11 -0.5 28t-0.5 28z" />
    <glyph glyph-name="u" unicode="u" horiz-adv-x="385" 
d="M19 170q0 26 0.5 48t1.5 41q1 16 1 30v29t-0.5 40t-1 52t-1 53.5t-0.5 45.5q54 -16 66 -16q11 0 67 17q-2 -26 -3.5 -64t-2.5 -79l-2 -82t-1 -74q0 -38 4 -58.5t11 -29.5q5 -7 11.5 -11.5t14.5 -4.5q14 0 24.5 10t15.5 23v-1q4 11 6 21.5t3.5 28.5t2 47t0.5 77v45
t-0.5 55t-1 54t-1.5 42q54 -16 67 -16q5 0 21.5 4.5t44.5 15.5q-2 -35 -3 -77t-2 -85t-1.5 -85t-0.5 -78q0 -20 0.5 -47t1 -55.5t1.5 -55t2 -45.5q-2 0 -7.5 1.5t-11.5 3t-11.5 3t-6.5 1.5q-10 2 -16.5 4t-10.5 2t-21 -5t-43 -13v25q-15 -11 -32.5 -15.5t-35.5 -4.5
q-69 0 -109 47.5t-40 135.5z" />
    <glyph glyph-name="v" unicode="v" horiz-adv-x="377" 
d="M131 15q-2 15 -4 22.5t-4 12.5q-2 6 -4 11q-14 48 -31.5 106.5t-36.5 118.5t-37.5 118t-35.5 107q35 -9 59 -13.5t32 -4.5q5 0 19.5 3t37.5 8q10 -44 17.5 -76.5t15 -63t17 -63t23.5 -76.5q13 38 21 70t17 67q5 17 9 34.5t9 34.5q2 6 5 17.5t6.5 23.5t6 22.5t4.5 14.5
q39 -16 44 -16q2 0 23 7.5t59 23.5q-18 -54 -41.5 -125.5t-47.5 -146t-46 -145.5t-36 -124l-9 3t-12 4.5t-11 4t-7 2.5t-5 2t-2 1q-2 -2 -7 -4t-7 -3z" />
    <glyph glyph-name="w" unicode="w" horiz-adv-x="607" 
d="M137 19q-9 39 -23.5 97.5t-33 125.5t-39 137.5t-39.5 133.5q36 -11 58 -15.5t27 -4.5t20 3.5t39 9.5q2 -6 5.5 -23t5.5 -23q7 -37 11 -58.5t7.5 -41t9.5 -43t18 -64.5q8 30 16 63t16 67t15.5 66t13.5 61q46 -17 49 -17q5 1 12 4q6 2 14.5 5t19.5 8q8 -42 14 -71.5
t12 -56.5t13.5 -57t19.5 -75q9 31 18 66t18 69.5t17.5 66.5t15.5 58q11 -5 19.5 -8t14.5 -5q7 -3 12 -4q1 0 24 9.5t58 23.5q-19 -54 -42 -123.5t-46 -142t-44 -142t-36 -123.5h-17q-7 0 -17 1l-6 1q-3 0 -5 2q-1 0 -1 -0.5t-1 -0.5v1q-6 -3 -14 -6.5t-29 -8.5
q-3 13 -7.5 34.5t-7.5 33.5q-7 31 -10 49.5t-6.5 36t-9 39t-17.5 58.5q-15 -60 -32 -124.5t-28 -115.5q-21 0 -31.5 1t-15.5 3q-4 -2 -9.5 -3t-16.5 -1z" />
    <glyph glyph-name="x" unicode="x" horiz-adv-x="406" 
d="M150 488q9 -21 16 -35.5t13.5 -28t13.5 -27t16 -31.5q17 30 32.5 59.5t29.5 56.5q2 5 5 13t3 10q19 -5 30.5 -8.5t14.5 -3.5q2 0 32.5 9.5t79.5 25.5q-16 -24 -39 -59.5t-47 -72.5t-46.5 -72t-37.5 -59q16 -30 37.5 -68t43.5 -77.5t43.5 -76.5t37.5 -64q-2 0 -11 2
t-18.5 4t-18 4t-10.5 2l-51 9q-7 0 -21 -2.5t-34 -7.5q-11 23 -19 40t-15.5 33t-16.5 32.5t-22 39.5q-20 -37 -40.5 -78t-36.5 -72q-2 1 -11.5 4.5t-11.5 4.5q-4 1 -6.5 2t-4.5 2q-3 1 -5 2q-2 0 -31.5 -11t-78.5 -30q16 26 38.5 63.5t46.5 77t46.5 77t37.5 63.5
q-15 28 -35.5 64.5t-42 75t-42 74t-35.5 61.5q43 -11 72 -16.5t37 -5.5q16 0 40 6z" />
    <glyph glyph-name="y" unicode="y" horiz-adv-x="372" 
d="M36 -225q34 72 58.5 136t42.5 120q-9 29 -22 72t-28.5 92.5t-31.5 100t-30 95t-25 77.5t-15 47q36 -12 58.5 -17t28.5 -5q14 0 58 11q10 -42 17.5 -72.5t15.5 -59.5t18 -60.5t24 -76.5q19 63 38 134.5t34 139.5q45 -16 49 -16q2 0 24.5 7.5t60.5 21.5q-7 -19 -26.5 -74
t-45 -129t-54 -159.5t-54.5 -165t-46 -145.5t-28 -101q-5 2 -10 3.5t-10 3.5l-12 4q-4 2 -7 2.5t-5 1.5q-3 1 -4 1q-3 0 -16 -3.5t-33 -11.5z" />
    <glyph glyph-name="z" unicode="z" horiz-adv-x="378" 
d="M4 56q19 31 39.5 65.5t40.5 70t39.5 70t36.5 66.5q8 14 15.5 27.5t15.5 25.5q-20 -2 -43 -3.5t-45.5 -3.5t-42.5 -4t-33 -3q5 21 7.5 33t4 19t1.5 10v5v4.5t-1 9.5t-3.5 19.5t-6.5 34.5q49 -6 100 -7.5t115 -1.5q12 0 23.5 0.5t25.5 1t32 2.5t43 5v-65q-27 -47 -55 -95.5
t-53.5 -93t-46.5 -81.5t-34 -60q16 0 34 1.5t39.5 3.5t49 5.5t62.5 7.5v-6t-0.5 -11t-0.5 -12v-9v-18q-1 -5 -1 -7v-4v-4.5t1 -6.5v-19q0 -5 0.5 -18.5t0.5 -14.5h-16t-23.5 0.5t-24 1t-16.5 0.5q-29 2 -62 2.5t-62 0.5q-44 0 -87 -3h1q-4 0 -8 -0.5t-11.5 -1t-19.5 -0.5
h-31v61z" />
    <glyph glyph-name="braceleft" unicode="{" horiz-adv-x="187" 
d="M-20 344q24 0 36.5 13t12.5 35v151q0 41 6.5 68t18.5 43.5t30 23.5t41 7h75v-107h-58q1 -1 1.5 -7.5t0.5 -27.5v-147q0 -74 -34 -109q17 -20 25.5 -45t8.5 -62v-147q0 -20 -0.5 -26.5t-1.5 -8.5h58v-106h-75q-46 0 -71 30t-25 111v152q0 22 -12.5 35t-36.5 13v111z" />
    <glyph glyph-name="bar" unicode="|" horiz-adv-x="133" 
d="M8 744h109v-967h-109v967z" />
    <glyph glyph-name="braceright" unicode="}" horiz-adv-x="188" 
d="M207 233q-24 0 -36.5 -13t-12.5 -35v-152q0 -81 -24.5 -111t-70.5 -30h-76v106h57q-1 1 -1 7.5v27.5v147q0 38 8.5 63t26.5 45q-35 38 -35 108v147v26.5t1 8.5h-57v107h76q23 0 40.5 -7t29.5 -23.5t18.5 -43.5t6.5 -68v-151q0 -22 12.5 -35t36.5 -13v-111z" />
    <glyph glyph-name="asciitilde" unicode="~" horiz-adv-x="406" 
d="M9 241q24 52 51 82.5t71 30.5q27 0 47 -8.5t36 -20.5q4 -2 9.5 -5.5t8.5 -5.5l-1 1q2 -1 3.5 -2t3.5 -2q11 -7 20 -12.5t17 -5.5q3 0 9 11.5t14.5 29.5t17.5 39t17 40l65 -127q-11 -20 -23 -40t-27 -36t-33.5 -26.5t-40.5 -10.5q-26 0 -48.5 11t-48.5 28q-14 9 -25 15.5
t-16 6.5q-6 0 -13 -12.5t-15 -31t-16 -41t-15 -42.5z" />
    <glyph glyph-name="exclamdown" unicode="&#xa1;" horiz-adv-x="147" 
d="M-4 418q0 36 22.5 62t53.5 26t53.5 -26t22.5 -62q0 -24 -10.5 -44t-27.5 -32h4q1 -14 2 -33t2 -40t2.5 -42t2.5 -39q1 -17 2 -32t2 -29q2 -26 3.5 -52t2.5 -49q4 -59 6.5 -100t2.5 -48q0 -46 -22 -63.5t-48 -17.5t-48 17.5t-22 63.5q0 6 2 42t5.5 89t7.5 116t8 124
q0 5 0.5 13.5t1.5 13.5v-1q0 7 0.5 16.5t0.5 19.5v18.5v12.5h5q-17 12 -27 32t-10 44z" />
    <glyph glyph-name="cent" unicode="&#xa2;" horiz-adv-x="339" 
d="M-5 246q0 53 11.5 94.5t31.5 72.5t46 51t56 31q-1 12 -2 27t-2.5 31.5l-3 33t-2.5 30.5q26 -11 42.5 -18t18.5 -7q1 0 17.5 7.5t43.5 18.5q-4 -32 -7.5 -64.5t-3.5 -51.5q35 -8 64.5 -26t46.5 -38q-7 -20 -13 -45t-12 -59h-60q-6 14 -12.5 26t-13.5 20q0 -29 0.5 -56
t0.5 -55v-40.5v-35t0.5 -36t0.5 -43.5q12 12 28 31t29 39l49 -50q-1 -5 -2 -17t-2 -20t-1.5 -16.5t-0.5 -18.5q-22 -23 -47.5 -41.5t-54.5 -26.5q0 -14 1 -32.5t2.5 -36t2.5 -33t2 -23.5q-27 12 -42 18q-9 4 -16 7q-5 0 -60 -25q1 9 2 25.5t2.5 35t3 36t1.5 29.5
q-29 9 -55 28.5t-46 50t-32 73.5t-12 99zM140 349q-7 -20 -9.5 -46t-2.5 -56q0 -29 2.5 -52t9.5 -41v195z" />
    <glyph glyph-name="sterling" unicode="&#xa3;" horiz-adv-x="391" 
d="M43 127q34 0 44 30.5t10 81.5v28t-1 27h-79l6.5 26t3.5 16t1 9.5v6.5q0 1 -0.5 3.5t-2 9t-5 19t-10.5 35.5q17 -4 39 -9.5t36 -5.5v23q0 73 16 120.5t41.5 76t55.5 40t59 11.5q35 0 71 -21t59 -66q-13 -19 -27.5 -46t-31.5 -64l-47 52q-8 39 -24 39q-20 0 -31.5 -24.5
t-11.5 -60.5q0 -30 -0.5 -45.5t1.5 -35.5q9 0 18.5 1t17.5 2h7t10 1q8 1 18.5 2t33.5 4v-6t-0.5 -11.5t-0.5 -12.5v-9v-47q0 -5 0.5 -18t0.5 -15h-45q-7 0 -13.5 0.5t-11.5 0.5q-8 1 -14.5 1h-15.5v-4q0 -49 -9 -90t-25 -73q28 1 57.5 2.5t52.5 3.5h-1q8 1 20.5 1.5
t25.5 1.5q6 1 14 1.5t32 0.5q-3 -23 -4.5 -36.5t-2.5 -21t-1 -11v-6.5v-6.5t1 -11t3 -20.5t6 -34h-10.5t-16.5 0.5t-17.5 1t-12.5 0.5q-9 1 -18 1t-14 1h2q-28 2 -57.5 2.5t-58.5 0.5q-54 0 -112 -3q-7 0 -18 -0.5t-23 -1t-22 -0.5h-14v49q0 2 0.5 4.5t0.5 4.5v35v9
t-0.5 12.5t-0.5 11.5v6h46z" />
    <glyph glyph-name="currency" unicode="&#xa4;" horiz-adv-x="450" 
d="M365 615l71 -95l-39 -52q15 -29 23 -65t8 -73q0 -35 -7.5 -70t-21.5 -64q9 -12 20 -28t17 -24l-71 -95l-42 55q-44 -32 -98 -32q-27 0 -52.5 9t-47.5 25q-11 -15 -23.5 -33.5t-17.5 -25.5l-72 97l39 52q-13 29 -21 64t-8 70q0 36 8.5 72t21.5 65q-5 8 -11 15t-11 14
q-4 4 -10 12.5t-8 11.5l71 93l43 -57q45 33 99 33q29 0 52.5 -7t45.5 -24zM320 330q0 30 -7.5 56t-20 45.5t-30 30.5t-37.5 11t-37.5 -11t-30.5 -30.5t-20 -45.5t-7 -56q0 -29 7 -55t20 -45.5t30.5 -31t37.5 -11.5t37.5 11.5t30 31t20 45.5t7.5 55z" />
    <glyph glyph-name="yen" unicode="&#xa5;" horiz-adv-x="420" 
d="M29 241q0 1 -0.5 2t-0.5 3v96q0 2 0.5 3.5t0.5 3.5v4q0 2 -0.5 3t-0.5 3v47q10 0 29 -0.5t28 -0.5q8 -1 15 -1.5t15 -0.5q-2 5 -4 8t-4 8q-2 6 -4.5 11l-5.5 11q-11 24 -28 59t-34.5 72t-34.5 71.5t-28 58.5q38 -8 65.5 -14t35.5 -6q10 0 25 3t37 8q6 -21 16 -47
t21.5 -55.5t24 -59.5t24.5 -58q26 57 52.5 117.5t44.5 106.5q20 -7 31.5 -11t13.5 -4q1 0 29 10.5t74 27.5q-13 -24 -34 -62.5t-44 -83t-46.5 -89.5t-42.5 -81h6q9 0 22 0.5t25.5 1t23 1t16.5 0.5q-4 -23 -6 -38t-2 -20t1.5 -19.5t5.5 -34.5h1q0 -1 -1 -1q0 -1 1 -1h-1
q-4 -21 -5.5 -36.5t-1.5 -19.5t2 -20t6 -36q-20 0 -33.5 0.5t-20.5 1.5q-20 1 -33.5 1.5t-36.5 0.5q1 -24 2 -51.5t2.5 -54t2.5 -51t3 -42.5q-27 6 -46 10t-26 4t-25 -4t-43 -11v14.5v19.5t0.5 19.5t0.5 15.5q1 35 2 65.5t1 65.5q-28 -1 -61 -2t-53 -3v52q0 2 0.5 3t0.5 2v4
v0zM268 292h33t35 1q-8 0 -15.5 0.5t-12.5 0.5q-7 0 -12 0.5t-10 0.5q-5 1 -9 1h-9v-4v0zM142 296q-8 0 -16 -0.5t-18 -1.5h-6q-4 0 -9.5 -0.5t-10.5 -0.5q16 -1 31 -1h29v4z" />
    <glyph glyph-name="brokenbar" unicode="&#xa6;" horiz-adv-x="119" 
d="M8 230h109v-387h-109v387zM8 677h109v-387h-109v387z" />
    <glyph glyph-name="section" unicode="&#xa7;" horiz-adv-x="341" 
d="M222 517q-6 29 -17 51.5t-25 22.5t-25.5 -14t-11.5 -38q0 -30 21.5 -46.5t47.5 -30.5q21 -12 43 -26t40 -33.5t29.5 -46.5t11.5 -64q0 -34 -10 -64.5t-22 -51.5q17 -31 17 -80q0 -40 -11.5 -77.5t-34 -67t-55 -47.5t-75.5 -18q-33 0 -71 19t-65 45q2 12 4 27.5t3.5 33
t2.5 34t1 29.5h72q3 -11 9 -25t15 -26.5t20.5 -21.5t25.5 -9q21 0 36 21.5t15 47.5q0 14 -6 24t-15.5 18.5t-22.5 15.5t-27 14q-24 13 -48.5 27t-44 35t-31.5 51t-12 74q0 43 11 71.5t27 46.5q-4 14 -7 32t-3 45q0 34 10 67t29.5 59t49 41.5t68.5 15.5q22 0 41.5 -8t36 -21
t30 -29.5t24.5 -33.5q-9 -14 -17.5 -39.5t-10.5 -49.5h-73zM231 253q0 19 -11 32t-31 25h1l-32.5 19.5t-21 12.5t-14 8.5t-11.5 8.5v-10q0 -21 12.5 -35.5t40.5 -31.5q4 -2 9 -5t7 -5q14 -8 26.5 -15.5t23.5 -13.5q1 3 1 10z" />
    <glyph glyph-name="dieresis" unicode="&#xa8;" horiz-adv-x="302" 
d="M13 606q0 17 5.5 32.5t15.5 27t22.5 18t27.5 6.5q22 0 40 -15t26 -38q8 23 25.5 38t40.5 15q15 0 27.5 -6.5t22.5 -18t15.5 -27t5.5 -32.5q0 -33 -21 -57.5t-50 -24.5q-23 0 -40.5 14.5t-25.5 37.5q-8 -23 -26 -37.5t-40 -14.5q-29 0 -50 24.5t-21 57.5z" />
    <glyph glyph-name="copyright" unicode="&#xa9;" horiz-adv-x="596" 
d="M21 341q0 74 22 139t59.5 113.5t88 76.5t107.5 28t107 -28t87.5 -76.5t59.5 -113.5t22 -139t-22 -139t-59.5 -113.5t-87.5 -76.5t-107 -28t-107.5 28t-88 76.5t-59.5 113.5t-22 139zM473 341q0 41 -8.5 78t-23.5 68q-3 -20 -3 -41l-59 -2q-5 6 -11.5 13.5t-14.5 15
t-17.5 12.5t-18.5 5q-17 0 -32.5 -6.5t-27.5 -24t-19 -46.5t-7 -74q0 -62 21.5 -102t62.5 -40q19 0 39.5 17t34.5 32l67 -1q-3 -9 -4.5 -17t-3.5 -16q11 29 18 61.5t7 67.5zM298 91q39 0 69 20q-31 -13 -61 -13q-57 0 -104 33q43 -40 96 -40zM298 591q-43 0 -80 -26
q43 24 97 24h5q-6 1 -11 1.5t-11 0.5z" />
    <glyph glyph-name="ordfeminine" unicode="&#xaa;" horiz-adv-x="269" 
d="M25 629q23 17 50 31.5t61 14.5q18 0 37 -4.5t34.5 -18t26 -37t10.5 -62.5q0 -18 -0.5 -40t-1.5 -42q-1 -6 -1 -11.5v-10.5q7 5 14 9.5t12 8.5v-102q-11 -11 -30 -21t-38 -10q-22 0 -39 15q-12 -6 -27.5 -10.5t-29.5 -4.5q-17 0 -34.5 5t-32 17t-23.5 32t-9 49
q0 42 15.5 65.5t57.5 37.5h-52v89zM121 576q-6 0 -12 -9.5t-11 -20.5q21 5 27.5 4.5t6.5 -6.5q0 20 -3 26t-8 6zM132 462q-13 -7 -13 -20v-10q4 0 13 11v19z" />
    <glyph glyph-name="guillemotleft" unicode="&#xab;" horiz-adv-x="285" 
d="M118 502q11 -25 26 -46t33 -32l39 78q14 -32 34 -57t42 -30l-89 -170l26 -51q7 -14 15 -31t16.5 -35t16 -34t13.5 -27q-9 -2 -19.5 -10t-21 -20.5t-19.5 -28.5t-14 -34l-41 86q-17 -11 -33.5 -34.5t-25.5 -49.5l-125 268z" />
    <glyph glyph-name="logicalnot" unicode="&#xac;" horiz-adv-x="426" 
d="M290 289h-305v122h414v-315h-109v193z" />
    <glyph glyph-name="registered" unicode="&#xae;" horiz-adv-x="596" 
d="M21 341q0 74 22 139t59.5 113.5t88 76.5t107.5 28t107 -28t87.5 -76.5t59.5 -113.5t22 -139t-22 -139t-59.5 -113.5t-87.5 -76.5t-107 -28t-107.5 28t-88 76.5t-59.5 113.5t-22 139zM370 307q2 -2 3 -5t3 -6q16 -27 31.5 -53t31.5 -49q18 32 26 67t8 80q0 51 -13 95
t-35 79q5 -12 7.5 -26.5t2.5 -31.5q0 -51 -23 -83.5t-52 -48.5q1 -1 0 -0.5t0 -0.5q3 -5 5.5 -9t5.5 -9zM123 341q0 -51 11.5 -93t33.5 -76q0 2 0.5 4.5t0.5 4.5q1 23 1.5 45.5t0.5 45.5v153v24v17.5t-0.5 18.5t-1.5 27q-21 -34 -33.5 -77.5t-12.5 -93.5zM223 114
q33 -23 75 -23q27 0 56 13q-16 29 -35 64.5t-39 70.5q1 -18 2 -37.5l2 -39t2 -37t2 -29.5q-26 8 -43 13t-19 5h-3zM280 396q16 2 28 15t12 39q0 18 -8 28t-19 10q-6 0 -5.5 1t-6.5 -1q-1 -13 -1 -26.5v-25.5v-40zM313 583q24 0 46 -8q-26 16 -61 16q-29 0 -57 -13h14
q6 0 11 1t9 1t8 1q6 1 13.5 1.5t16.5 0.5z" />
    <glyph glyph-name="macron" unicode="&#xaf;" horiz-adv-x="293" 
d="M17 660h257v-120h-257v120z" />
    <glyph glyph-name="degree" unicode="&#xb0;" horiz-adv-x="279" 
d="M5 508q0 35 10.5 65.5t28.5 53t42.5 35.5t52.5 13t52.5 -13t42.5 -35.5t28.5 -53t10.5 -65.5t-10.5 -65t-28.5 -53t-42.5 -36t-52.5 -13t-52.5 13t-42.5 36t-28.5 53t-10.5 65zM103 508q0 -25 10.5 -42.5t25.5 -17.5t25.5 17.5t10.5 42.5q0 26 -10.5 43.5t-25.5 17.5
t-25.5 -17.5t-10.5 -43.5z" />
    <glyph glyph-name="plusminus" unicode="&#xb1;" horiz-adv-x="396" 
d="M-9 120h152v123h-152v120h152v163h109v-163h153v-120h-153v-123h153v-120h-414v120z" />
    <glyph glyph-name="twosuperior" unicode="&#xb2;" horiz-adv-x="267" 
d="M14 586q23 47 52.5 68t69.5 21q26 0 48.5 -7.5t39.5 -23.5t26.5 -41t9.5 -60q0 -22 -3.5 -41t-14 -41t-29.5 -48.5t-49 -63.5q23 2 50 4t58 6q-8 -32 -10.5 -47.5t-2.5 -19.5q0 -2 2.5 -16t10.5 -47q-42 4 -79 6t-63 2q-21 0 -54.5 -2t-74.5 -6v67q7 9 18 23t18 22h-1
q25 31 44.5 56.5t33 49t21 46t7.5 47.5q0 40 -13 40q-4 0 -7.5 -6t-6 -14.5t-4.5 -18.5t-2 -18l-58 -2z" />
    <glyph glyph-name="threesuperior" unicode="&#xb3;" horiz-adv-x="257" 
d="M12 359h55q8 -11 18 -21.5t19 -10.5q15 0 23.5 14t8.5 35q0 24 -5.5 32.5t-12.5 8.5q-1 0 -9 -2.5t-20.5 -7t-27 -10t-29.5 -11.5q9 27 14 42.5t7 23t2.5 9.5t0.5 3t-0.5 3.5t-3.5 13t-10 31t-19 57.5q2 0 2.5 -1t2.5 -2l-15 49q8 10 18.5 20.5t24.5 19.5t31 14.5t38 5.5
q24 0 44.5 -7t36 -21t24.5 -36t9 -52q0 -26 -7 -46.5t-18 -36.5q17 -15 28.5 -38t11.5 -56q0 -68 -40.5 -109t-107.5 -41q-31 0 -59 11.5t-53 27.5zM67 540q24 -15 35 -21.5t12 -6.5q6 0 8 14.5t2 28.5q0 25 -8 25q-4 0 -10 -12t-10 -27z" />
    <glyph glyph-name="acute" unicode="&#xb4;" horiz-adv-x="186" 
d="M82 692q13 17 28 26.5t32 9.5q9 0 19.5 -4t19 -12.5t14.5 -20.5t6 -28q0 -29 -12 -44t-24 -26l-26 -22t-27 -22t-30 -24.5t-28 -24.5h-115z" />
    <glyph glyph-name="mu" unicode="&#xb5;" horiz-adv-x="360" 
d="M170 -13q-5 0 -12 0.5t-12 1.5q1 -27 2 -60l2 -66t2.5 -63t3.5 -52q-26 7 -44.5 11.5t-24.5 4.5q-5 0 -22 -3.5t-43 -11.5v19t0.5 25t0.5 26v22v59q1 45 1.5 89t0.5 100v119.5t-1 101.5q0 21 -0.5 44.5t-0.5 46.5v108q54 -16 65 -16t67 17q-2 -26 -3.5 -64t-2.5 -79
l-2 -82t-1 -74q0 -38 4 -58.5t11 -29.5q5 -7 11.5 -11.5t14.5 -4.5q14 0 24.5 10t15.5 23v-1q4 11 6 21.5t3.5 28.5t2 47t0.5 77v45t-0.5 55t-1 54t-1.5 42q54 -16 67 -16q5 0 21.5 4.5t44.5 15.5q-2 -35 -3 -77t-2 -85t-1.5 -85t-0.5 -78q0 -20 0.5 -47t1 -55.5t1.5 -55
t2 -45.5q-2 0 -7.5 1.5t-11.5 3t-11.5 3t-6.5 1.5q-10 2 -16.5 4t-10.5 2t-21 -5t-43 -13v25q-29 -20 -69 -20z" />
    <glyph glyph-name="paragraph" unicode="&#xb6;" horiz-adv-x="382" 
d="M160 263q-46 4 -77.5 21.5t-51.5 46t-29 66.5t-9 84q0 101 46 151t125 50h212v-89l-50 -10v-686h-166v366z" />
    <glyph glyph-name="periodcentered" unicode="&#xb7;" horiz-adv-x="154" 
d="M-1 310q0 19 6 35.5t16.5 29t24.5 19.5t30 7t30 -7t24.5 -19.5t16.5 -29t6 -35.5q0 -18 -6 -34.5t-16.5 -29t-24.5 -19.5t-30 -7t-30 7t-24.5 19.5t-16.5 29t-6 34.5z" />
    <glyph glyph-name="cedilla" unicode="&#xb8;" horiz-adv-x="196" 
d="M13 -65l4 -2l4 -2l-4 7l38 136h98l-17 -65q32 -8 49.5 -33t17.5 -64q0 -56 -35 -84.5t-83 -28.5q-27 0 -55 12t-49 23z" />
    <glyph glyph-name="onesuperior" unicode="&#xb9;" horiz-adv-x="163" 
d="M40 526q-11 -8 -20.5 -14.5t-14.5 -10.5q-8 17 -17 32t-18 20v53q32 14 65 32t59 37h59q-1 -17 -2.5 -40t-2.5 -47.5t-1.5 -47.5t-0.5 -41v-90q0 -17 1 -43t2.5 -54t3 -54t2.5 -44q-29 11 -46.5 17t-18.5 6q-2 0 -18 -6t-44 -17q1 18 2.5 44.5t2.5 54t1.5 53.5t0.5 43z
" />
    <glyph glyph-name="ordmasculine" unicode="&#xba;" horiz-adv-x="305" 
d="M8 504q0 47 12.5 79.5t33 53t46.5 29.5t53 9q26 0 51.5 -9t46 -29.5t33 -53t12.5 -79.5t-12.5 -79.5t-33 -52.5t-46 -29t-51.5 -9q-27 0 -53 9t-46.5 29t-33 52.5t-12.5 79.5zM126 504q0 -28 5.5 -51.5t21.5 -23.5q14 0 19.5 23.5t5.5 51.5q0 29 -5.5 52.5t-19.5 23.5
q-16 0 -21.5 -23.5t-5.5 -52.5z" />
    <glyph glyph-name="guillemotright" unicode="&#xbb;" horiz-adv-x="285" 
d="M-7 422q20 2 42.5 29.5t33.5 62.5l40 -85q16 11 30.5 36.5t23.5 54.5l130 -278l-126 -256q-11 25 -26 46t-33 32l-39 -78q-14 32 -35.5 57t-43.5 30l90 170z" />
    <glyph glyph-name="onequarter" unicode="&#xbc;" horiz-adv-x="582" 
d="M84 527q-3 -3 -9 -7t-12 -8.5t-11 -8t-6 -4.5q-8 19 -17 34.5t-16 20.5v52q32 14 65 32.5t58 36.5h59q-1 -17 -2 -40t-1.5 -47.5t-1 -47.5t-0.5 -41v-90q0 -13 0.5 -31.5t1 -39t1 -42t1.5 -40.5l131 444q6 -3 19.5 -9t18.5 -9q4 2 23.5 11.5t50.5 25.5l-222 -761l-33 17
q-7 4 -6 4q-4 0 -75 -40l83 280q-23 8 -36 13t-14 5t-18 -6t-46 -17q1 18 2.5 44.5t2.5 54t2 53.5t1 43zM284 159l37 65q14 23 28.5 49t29.5 52q7 13 16.5 28.5t18.5 31.5t18 30.5t16 26.5q26 -13 33 -13q2 0 19.5 7l37.5 15q-2 -57 -4.5 -120t-2.5 -120q10 4 23 8.5
t32 11.5q-10 -36 -14 -55.5t-4 -24.5q0 -10 13 -62h-5t-10.5 0.5t-10.5 0.5h-6q-8 1 -8 2.5t-10 1.5q0 -5 1 -14t1 -14v-30v-13.5t0.5 -17.5t0.5 -16.5v-9.5q-26 9 -42 15t-17 6q-2 -1 -5 -2q-2 -1 -6 -2t-8 -3q-2 0 -8 -2t-13 -3.5t-13.5 -3.5t-7.5 -2v8t0.5 12.5t0.5 12.5
v9q2 23 3 37t1 35q-19 0 -39.5 -0.5t-39.5 -1.5t-34 -2t-22 -2v69zM419 207q-1 -1 -1 -2t-1 -2h2v4z" />
    <glyph glyph-name="onehalf" unicode="&#xbd;" horiz-adv-x="573" 
d="M84 527q-12 -8 -22.5 -15.5t-14.5 -10.5q-8 17 -17.5 32t-17.5 20v53q32 14 65 32.5t59 36.5h59q-1 -17 -2 -40t-2 -47.5t-1.5 -47.5t-0.5 -41v-90q0 -25 1.5 -66t3.5 -79l127 436q3 -1 8 -3.5t10.5 -4.5t10.5 -4t7 -3q4 -2 5 -3q2 1 3.5 2.5t5.5 3.5q3 1 11.5 5.5
t19 9.5t20 10t13.5 7l-99 -335q41 53 99 53q26 0 49 -7.5t40 -24t26.5 -41.5t9.5 -59q0 -23 -3 -41.5t-13.5 -39.5t-29.5 -48t-50 -65q19 1 42 2.5t55 6.5v-6t-0.5 -11t-0.5 -12v-9v-15q0 -2 -0.5 -3.5t-0.5 -2.5q-1 -3 -1 -6q0 1 2 -9v-20v-8.5t0.5 -11.5t0.5 -11v-5
q-43 4 -77 6.5t-54 2.5q-19 0 -53 -2.5t-77 -6.5v69q5 4 7.5 7t4.5 6q5 6 10.5 13.5t10.5 14.5q25 31 45.5 57t34 50t21 47t7.5 49q0 20 -3.5 29t-7.5 9q-5 0 -8.5 -6t-6 -14t-4.5 -18t-3 -17l-58 -2l-29 49l-110 -376q-17 9 -27.5 14t-10.5 7q-2 -2 -20.5 -11.5
t-52.5 -27.5l82 282q-41 15 -49 15q-1 0 -18 -6t-45 -17q1 18 2.5 44.5t2.5 54t1.5 53.5t0.5 43z" />
    <glyph glyph-name="threequarters" unicode="&#xbe;" horiz-adv-x="612" 
d="M241 296q-19 -31 -51 -47.5t-74 -16.5q-30 0 -58.5 11.5t-52.5 27.5l18 88h55q7 -11 17 -21.5t20 -10.5q14 0 23 14t9 35q0 24 -6 32.5t-12 8.5q-1 0 -9.5 -2.5t-20.5 -7t-27 -10t-29 -11.5q9 27 13.5 42.5t6.5 23t2.5 9.5t0.5 3t-0.5 3.5t-3.5 13t-10 31t-19 57.5
q4 -2 7 -4l-15 50q8 10 18 20.5t23.5 19.5t30.5 14.5t38 5.5q48 0 81.5 -28t33.5 -88q0 -26 -7.5 -46.5t-18.5 -36.5q17 -15 28.5 -38t11.5 -56v-9l96 327q6 -3 19 -9t19 -9q1 1 4.5 2.5t10.5 5.5l58 26l-222 -758q-39 21 -38 21q-8 -4 -19 -10q-18 -11 -55 -29zM310 159
q18 31 39.5 67.5t43.5 74t43.5 74.5t39.5 68q12 -6 20.5 -10t10.5 -4q-1 0 17 5.5t39 13.5q-2 -57 -3.5 -118.5t-1.5 -118.5q2 1 4 1.5t4 1.5l-3 -1q1 0 6 2.5t10.5 5t10.5 5t6 2.5v-7.5t-0.5 -15t-0.5 -16v-10.5v-19q-1 -3 -1 -5.5v-3.5q0 -5 1 -9q0 -2 0.5 -7.5t0.5 -12.5
v-32q-26 0 -35 3h-2v-23.5t1 -23.5q0 -6 0.5 -15.5l1 -19t0.5 -17.5v-12q-2 0 -8 2t-13 3.5t-13.5 3.5t-7.5 2q-5 2 -8.5 3t-5.5 2q-3 1 -5 2q-2 -1 -6 -2q-3 -1 -6.5 -2t-7.5 -2h1q-4 -1 -15 -4t-29 -9q3 41 5.5 67.5t2.5 47.5q-19 0 -39.5 -0.5t-39.5 -1.5t-34.5 -2
t-22.5 -2v69zM78 540q24 -15 34.5 -21.5t11.5 -6.5q7 0 8.5 14.5t1.5 28.5q0 25 -7 25q-5 0 -10.5 -12t-10.5 -27zM446 207q-2 -2 -2 -4h2v4z" />
    <glyph glyph-name="questiondown" unicode="&#xbf;" horiz-adv-x="224" 
d="M48 418q0 36 22.5 62t53.5 26t53.5 -26t22.5 -62q0 -31 -16.5 -54.5t-40.5 -30.5q13 -5 27 -15.5t25.5 -26t19 -37.5t7.5 -51q0 -27 -6 -50t-16 -43.5t-22 -38.5t-25 -35q-18 -23 -32.5 -46.5t-14.5 -49.5q0 -17 7 -26.5t15 -9.5q7 0 31.5 33.5t57.5 87.5l14 -177
q-22 -19 -48.5 -35t-59.5 -16t-58.5 12.5t-42.5 33.5t-26 49t-9 60q0 30 7 55.5t17.5 47.5t24 41t26.5 36q17 24 31 47t14 46q0 5 0.5 10t1.5 5q-1 0 -10.5 -7t-16.5 -12l-45 46q6 8 11.5 25t6.5 30q10 5 20 9t20 6q-21 11 -34 32.5t-13 48.5z" />
    <glyph glyph-name="Agrave" unicode="&#xc0;" horiz-adv-x="504" 
d="M-13 -23q26 77 56.5 167.5t62 184.5t62 185.5t56.5 170.5l-72 62l1 -1q-14 11 -26.5 26.5t-12.5 44.5q0 16 6 28.5t15 20.5t19.5 12.5t19.5 4.5q17 0 32 -10.5t26 -25.5q15 -20 35 -47.5t40 -53.5q7 -9 17 -22.5l20 -27t18.5 -25t13.5 -17.5h-68q7 -21 14 -44t13 -42
q16 -50 34 -107.5t37 -116t37.5 -115t35 -105t29 -85.5t20.5 -57q-39 8 -65 13t-30 5q-9 0 -34 -6l1 1q-3 -1 -16 -3.5t-16 -3.5q-14 69 -29 122t-29 98q-3 13 -6 20q-2 5 -1 3.5t-1 5.5q-15 1 -30 0.5t-31 -0.5h-17h-11h-11h-16q-18 -58 -35.5 -124.5t-28.5 -127.5
q-22 7 -36 11t-17 4t-25.5 -6t-56.5 -17zM245 419q-2 -4 -3 -8.5t-3 -8.5q-5 -14 -9.5 -26.5t-9.5 -26.5h6q5 0 9.5 -0.5t8.5 -0.5h10.5h2h2h10.5z" />
    <glyph glyph-name="Aacute" unicode="&#xc1;" horiz-adv-x="505" 
d="M271 847q13 16 28 26t31 10q9 0 19.5 -4.5t19.5 -12.5t15 -20.5t6 -28.5q0 -29 -12.5 -44.5t-26.5 -26.5l-10 -8l-10 -8q-11 -9 -22 -18.5t-22 -19.5q5 -18 13 -44.5t15 -46.5q3 -9 6 -17.5t5 -16.5v1q24 -75 52.5 -164.5t56 -173.5t50 -151t34.5 -97q-39 8 -65 13t-30 5
q-9 0 -34 -6l1 1q-3 -1 -16 -3.5t-16 -3.5q-14 69 -29 122t-29 98q-3 13 -6 20q-2 5 -1 3.5t-1 5.5q-15 1 -30 0.5t-31 -0.5h-17h-11h-11h-16q-18 -58 -35.5 -124.5t-28.5 -127.5q-22 7 -36 11t-17 4t-25.5 -6t-56.5 -17q26 78 55 164t58.5 173.5t58 174t54.5 165.5h-76z
M236 419q-2 -4 -3 -8.5t-3 -8.5q-5 -14 -9.5 -26.5t-9.5 -26.5h6q5 0 9.5 -0.5t8.5 -0.5h10.5h2h2h10.5z" />
    <glyph glyph-name="Acircumflex" unicode="&#xc2;" horiz-adv-x="511" 
d="M300 676q5 -17 11.5 -38t11.5 -37q3 -9 6 -17.5t5 -16.5v1q24 -75 52.5 -164.5t56 -173.5t50 -151t34.5 -97q-39 8 -65 13t-30 5q-9 0 -34 -6l1 1q-3 -1 -16 -3.5t-16 -3.5q-14 69 -29 122t-29 98q-3 13 -6 20q-2 5 -1 3.5t-1 5.5q-15 1 -30 0.5t-31 -0.5h-17h-11h-11
h-16q-18 -58 -35.5 -124.5t-28.5 -127.5q-22 7 -36 11t-17 4t-25.5 -6t-56.5 -17q26 78 57 169.5t63 187t63 188t57 171.5q-9 -10 -18 -20.5t-15 -18.5h-105l122 223h88l125 -223h-104zM244 419q-2 -4 -3 -8.5t-3 -8.5q-5 -14 -9.5 -26.5t-9.5 -26.5h6q5 0 9.5 -0.5
t8.5 -0.5h10.5h2h2h10.5zM245 715q-4 -5 -7.5 -8.5t-7.5 -8.5h52l-26 30q-5 -5 -11 -13z" />
    <glyph glyph-name="Atilde" unicode="&#xc3;" horiz-adv-x="504" 
d="M99 676q4 28 12.5 57.5t22.5 53.5t33 39.5t43 15.5q20 0 34 -6t36 -20q10 -6 17 -11q4 -3 7 -4q-1 0 2 14t7 31h91q-2 -19 -8.5 -47t-19.5 -54.5t-32.5 -46t-47.5 -22.5q5 -17 11.5 -38t11.5 -37q3 -9 6 -17.5t5 -16.5v1q24 -75 52.5 -164.5t56 -173.5t50 -151t34.5 -97
q-39 8 -65 13t-30 5q-9 0 -34 -6l1 1q-3 -1 -16 -3.5t-16 -3.5q-14 69 -29 122t-29 98q-3 13 -6 20q-2 5 -1 3.5t-1 5.5q-15 1 -30 0.5t-31 -0.5h-17h-11h-11h-16q-18 -58 -35.5 -124.5t-28.5 -127.5q-22 7 -36 11t-17 4t-25.5 -6t-56.5 -17q27 78 58 171t63.5 189t63.5 189
t57 172h2q-4 4 -7 6q-7 4 -14 8.5t-9 5.5q2 -1 0 -10t-7 -32h-90zM240 419q-2 -4 -3 -8.5t-3 -8.5q-5 -14 -9.5 -26.5t-9.5 -26.5h6q5 0 9.5 -0.5t8.5 -0.5h10.5h2h2h10.5z" />
    <glyph glyph-name="Adieresis" unicode="&#xc4;" horiz-adv-x="503" 
d="M114 761q0 34 21 58t50 24q22 0 40 -14.5t26 -37.5q8 23 26 37.5t40 14.5q29 0 50 -24t21 -58q0 -35 -21 -59t-50 -24q-11 0 -23 5q5 -19 12.5 -42t12.5 -40q3 -9 6 -17.5t5 -16.5v1q24 -75 52.5 -164.5t56 -173.5t50 -151t34.5 -97q-39 8 -65 13t-30 5q-9 0 -34 -6l1 1
q-3 -1 -16 -3.5t-16 -3.5q-14 69 -29 122t-29 98q-3 13 -6 20q-2 5 -1 3.5t-1 5.5q-15 1 -30 0.5t-31 -0.5h-17h-11h-11h-16q-18 -58 -35.5 -124.5t-28.5 -127.5q-22 7 -36 11t-17 4t-25.5 -6t-56.5 -17q26 78 57 169t63 185.5t62.5 187t56.5 171.5q-18 -12 -36 -12
q-29 0 -50 24t-21 59zM240 419q-2 -4 -3 -8.5t-3 -8.5q-5 -14 -9.5 -26.5t-9.5 -26.5h6q5 0 9.5 -0.5t8.5 -0.5h10.5h2h2h10.5zM251 729q-6 -17 -20 -31h40q-12 12 -20 31z" />
    <glyph glyph-name="Aring" unicode="&#xc5;" horiz-adv-x="510" 
d="M148 768q0 26 8.5 49.5t23 41t34 27.5t41.5 10t41 -10t33 -27.5t22.5 -41t8.5 -49.5q0 -36 -15 -66.5t-41 -45.5q3 -9 6.5 -18.5t5.5 -18.5l17 -51q16 -50 34 -107.5t37 -116t37.5 -115t35 -105t29 -85.5t20.5 -57q-39 8 -65 13t-30 5q-9 0 -34 -6l1 1q-3 -1 -16 -3.5
t-16 -3.5q-14 69 -29 122t-29 98q-3 13 -6 20q-2 5 -1 3.5t-1 5.5q-15 1 -30 0.5t-31 -0.5h-17h-11h-11h-16q-18 -58 -35.5 -124.5t-28.5 -127.5q-22 7 -36 11t-17 4t-25.5 -6t-56.5 -17q26 76 55 162t58 174t58 174t55 164q-28 15 -45.5 46t-17.5 71zM243 419
q-2 -4 -3 -8.5t-3 -8.5q-5 -14 -9.5 -26.5t-9.5 -26.5h6q5 0 9.5 -0.5t8.5 -0.5h10.5h2h2h10.5zM250 768q0 -7 1 -12t3 -5t3.5 5t1.5 12q0 17 -4 17q-5 0 -5 -17z" />
    <glyph glyph-name="AE" unicode="&#xc6;" horiz-adv-x="631" 
d="M216 224q-22 -50 -46.5 -113t-46.5 -123q-19 5 -33.5 8.5t-18.5 3.5q-6 0 -33 -6.5t-68 -18.5q20 39 47 93l58 116t64 129.5t65 134t62 128.5t54 113q14 -1 31.5 -2.5t36 -2.5t36 -1.5t32.5 -0.5q14 0 35.5 1t45 2.5t44.5 3l35 2.5q-8 -31 -11.5 -47.5t-3.5 -21.5
t4 -22.5t15 -55.5q-38 9 -78 17t-100 10q-1 -29 -1.5 -59.5t-0.5 -60.5v-37q46 1 67 2.5t35 3.5h20h9.5t13.5 0.5t12.5 0.5h6.5q-9 -31 -13 -45t-4 -17t4 -17t13 -45h-43q-7 0 -13 0.5t-7 0.5q-14 2 -35 3.5t-66 2.5v-54v-38v-31t0.5 -31.5t1.5 -37.5q60 2 104.5 6.5
t72.5 8.5q-14 -65 -14 -68q0 -7 3.5 -23t10.5 -45q-15 1 -36.5 2.5t-44.5 3t-44.5 2.5t-35.5 1q-15 0 -35.5 -1t-42.5 -2.5t-42.5 -3t-34.5 -2.5q3 57 5 115t2 115zM310 432q-11 -23 -22 -45t-25 -53q10 -1 20 -1t27 -1v100z" />
    <glyph glyph-name="Ccedilla" unicode="&#xc7;" horiz-adv-x="481" 
d="M210 -6q-44 15 -81.5 45t-65 74t-43 101.5t-15.5 126.5q0 85 21 151.5t59 112.5t91 69.5t117 23.5q50 0 100 -18t92 -45q-9 -22 -14.5 -44.5t-7.5 -36.5q0 -3 -0.5 -7.5t-0.5 -8.5v-24l-60 -2q-7 10 -18 23.5t-25.5 26t-31 21t-34.5 8.5q-32 0 -59 -14.5t-47 -45.5
t-31.5 -78t-11.5 -112t11.5 -112t31.5 -78t47 -45.5t59 -14.5q18 0 37.5 9.5t37.5 23.5t34 29.5t28 27.5l40 -45l-8 -80q-15 -15 -47.5 -34.5t-73.5 -30.5q35 -27 35 -84q0 -56 -34 -84.5t-82 -28.5q-28 0 -56 11.5t-48 21.5l31 100q5 -4 11 -5l-6 12z" />
    <glyph glyph-name="Egrave" unicode="&#xc8;" horiz-adv-x="311" 
d="M19 419q0 42 -1 87t-3 91q0 9 -0.5 22t-1 26.5t-1 25t-0.5 19.5q24 -2 60 -4t68 -4l-75 64q-13 11 -25.5 27t-12.5 44q0 16 6 28.5t14.5 20.5t19 12.5t19.5 4.5q17 0 31.5 -10t28.5 -26l119 -161q20 1 39 2t33 3q-5 -20 -7 -32.5t-3.5 -19.5t-1.5 -10.5v-5.5v-5t1.5 -10
t4 -19.5t7.5 -34.5q-3 0 -11.5 1t-18.5 2.5t-19.5 2.5t-14.5 1q-7 1 -13 1.5t-7 0.5q-2 0 -5 0.5t-5 0.5q-22 2 -42.5 4t-51.5 3v-2q0 -18 -0.5 -35.5t-0.5 -39.5v-82q46 2 88 6t85 10q-6 -30 -9.5 -48.5t-3.5 -21.5t15 -72q-60 8 -103.5 11.5t-71.5 4.5v-157v-13.5v-7.5v-5
v-7q40 1 88.5 5t99.5 16v-6t-0.5 -10.5t-0.5 -10.5v-6q-2 -14 -4.5 -29t-3.5 -17q2 -7 5 -22.5t8 -40.5l-37.5 2.5t-46.5 3t-46.5 2.5t-37.5 1t-36.5 -1t-44 -2t-44 -2.5t-36.5 -2.5q0 9 0.5 21.5t1 26t1 26t0.5 22.5q2 44 3 91.5t1 85.5v154z" />
    <glyph glyph-name="Eacute" unicode="&#xc9;" horiz-adv-x="310" 
d="M8 419q0 42 -1 87t-3 91q0 9 -0.5 22t-1 26.5t-1 25t-0.5 19.5q11 -1 27 -2t34 -2l119 161q13 16 28 26t32 10q9 0 19 -4.5t19 -12.5t15 -20.5t6 -28.5q0 -28 -12.5 -44t-25.5 -27q-12 -11 -25 -21.5t-26 -21.5q-5 -5 -11.5 -10t-12.5 -11q16 1 35.5 2t38.5 2t36 2.5
t29 2.5q-5 -20 -7 -32.5t-3.5 -19.5t-1.5 -10.5v-5.5v-5t1.5 -10t4 -19.5t7.5 -34.5q-3 0 -11.5 1t-18.5 2.5t-19.5 2.5t-14.5 1q-7 1 -13 1.5t-7 0.5q-2 0 -5 0.5t-5 0.5q-22 2 -42.5 4t-51.5 3v-2q0 -18 -0.5 -35.5t-0.5 -39.5v-82q46 2 88 6t85 10q-6 -30 -9.5 -48.5
t-3.5 -21.5t15 -72q-60 8 -103.5 11.5t-71.5 4.5v-157v-13.5v-7.5v-5v-7q40 1 88.5 5t99.5 16v-6t-0.5 -10.5t-0.5 -10.5v-6q-2 -14 -4.5 -29t-3.5 -17q2 -7 5 -22.5t8 -40.5l-37.5 2.5t-46.5 3t-46.5 2.5t-37.5 1t-36.5 -1t-44 -2t-44 -2.5t-36.5 -2.5q0 9 0.5 21.5t1 26
t1 26t0.5 22.5q2 44 3 91.5t1 85.5v154z" />
    <glyph glyph-name="Ecircumflex" unicode="&#xca;" horiz-adv-x="317" 
d="M17 419q0 42 -1 87t-3 91q-1 11 -1 26.5t-1 30.5h-11l11 20q0 5 -0.5 9t-0.5 7q2 0 4.5 -0.5t4.5 -0.5l102 188h92l102 -188q5 1 10 1t10 1q-2 -9 -3.5 -15t-2.5 -12l6 -10h-8q-3 -16 -3.5 -22t-0.5 -9v-5t1.5 -10t3.5 -19.5t7 -34.5q-3 0 -11 1t-18 2.5t-19.5 2.5
t-14.5 1q-7 1 -13 1.5t-8 0.5t-4.5 0.5t-4.5 0.5q-22 2 -42.5 4t-51.5 3v-2q-1 -18 -1.5 -35.5t-0.5 -39.5v-82q47 2 89 6t84 10q-5 -30 -8.5 -48.5t-3.5 -21.5q0 -2 3.5 -19.5l10.5 -52.5q-59 8 -102.5 11.5t-72.5 4.5v-157v-13.5v-7.5v-5v-7q41 1 89 5t100 16v-6
t-0.5 -10.5t-0.5 -10.5v-6q-2 -14 -4.5 -29t-3.5 -17q3 -14 12 -63q-15 1 -37 2.5t-46 3t-46.5 2.5t-37.5 1t-36.5 -1t-44 -2t-44 -2.5t-36.5 -2.5q0 9 0.5 21.5t1 26t1 26t0.5 22.5q2 44 3 91.5t1 85.5v154zM168 682h17.5t20.5 1l-38 44q-4 -4 -8 -8.5t-8 -9.5v1
q-6 -6 -12 -13t-13 -14q12 -1 22.5 -1h18.5z" />
    <glyph glyph-name="Edieresis" unicode="&#xcb;" horiz-adv-x="317" 
d="M31 761q0 34 21 58t50 24q23 0 40.5 -14.5t25.5 -37.5q8 23 25.5 37.5t40.5 14.5q15 0 28 -6.5t22.5 -17.5t15.5 -26t6 -32q0 -26 -11.5 -45.5t-30.5 -29.5q20 1 39 2t33 3q-5 -20 -7 -32.5t-3.5 -19.5t-1.5 -10.5v-5.5v-5t1.5 -10t4 -19.5t7.5 -34.5q-3 0 -11.5 1
t-18.5 2.5t-19.5 2.5t-14.5 1q-7 1 -13 1.5t-7 0.5q-2 0 -5 0.5t-5 0.5q-22 2 -42.5 4t-51.5 3v-2q0 -18 -0.5 -35.5t-0.5 -39.5v-82q46 2 88 6t85 10q-6 -30 -9.5 -48.5t-3.5 -21.5t15 -72q-60 8 -103.5 11.5t-71.5 4.5v-157v-13.5v-7.5v-5v-7q40 1 88.5 5t99.5 16v-6
t-0.5 -10.5t-0.5 -10.5v-6q-2 -14 -4.5 -29t-3.5 -17q2 -7 5 -22.5t8 -40.5l-37.5 2.5t-46.5 3t-46.5 2.5t-37.5 1t-36.5 -1t-44 -2t-44 -2.5t-36.5 -2.5q0 9 0.5 21.5t1 26t1 26t0.5 22.5q2 44 3 91.5t1 85.5v154q0 42 -1 87t-3 91q0 9 -0.5 22t-1 26.5t-1 25t-0.5 19.5
q12 -1 28 -2t34 -3q-19 10 -30.5 30t-11.5 46zM169 682h19t22 1q-29 12 -42 47q-11 -34 -42 -47q12 -1 23 -1h20z" />
    <glyph glyph-name="Igrave" unicode="&#xcc;" horiz-adv-x="198" 
d="M58 418q0 29 -1 65t-2 74t-2.5 74t-2.5 65q11 -3 20 -4.5t17 -3.5l-69 58q-13 11 -25.5 27t-12.5 44q0 16 6 28.5t15 20.5t19.5 12.5t19.5 4.5q17 0 32.5 -10.5t26.5 -25.5q15 -20 34.5 -47.5t39.5 -53.5q7 -9 17 -22.5l20 -27t18.5 -25t13.5 -17.5h-50q-1 -29 -2 -60.5
t-1.5 -62.5t-1 -60t-0.5 -53v-154q0 -29 0.5 -65t1.5 -73.5t2.5 -74t2.5 -64.5q-26 5 -46 9t-26 4t-26 -4t-46 -9q1 28 2.5 64.5t2.5 74t2 73.5t1 65v154z" />
    <glyph glyph-name="Iacute" unicode="&#xcd;" horiz-adv-x="199" 
d="M98 847q13 16 28 26t32 10q9 0 19.5 -4.5t19 -12.5t14.5 -20.5t6 -28.5q0 -29 -12 -44.5t-25 -26.5l1 1q-17 -14 -35.5 -29t-36.5 -31q8 2 17.5 4t20.5 5q-1 -29 -2.5 -65t-2.5 -74t-2 -74t-1 -65v-154q0 -29 1 -65t2 -73.5t2.5 -74t2.5 -64.5q-26 5 -46 9t-26 4t-26 -4
t-46 -9q1 28 2.5 64.5t2.5 74t1.5 73.5t0.5 65v154q0 24 -0.5 53t-1.5 60t-1.5 62.5t-1.5 60.5h-50z" />
    <glyph glyph-name="Icircumflex" unicode="&#xce;" horiz-adv-x="258" 
d="M64 418q0 24 -0.5 53t-1.5 60t-2.5 62.5t-2.5 60.5h-96l122 223h88l125 -223h-98q-1 -29 -2 -60.5t-2 -62.5t-1.5 -60t-0.5 -53v-154q0 -29 1 -65t2 -73.5t2.5 -74t2.5 -64.5q-26 5 -46 9t-26 4t-26 -4t-46 -9q1 28 2.5 64.5t2.5 74t2 73.5t1 65v154zM128 682q11 0 35 6
l-34 40q-5 -5 -11 -13q-6 -6 -12 -13t-13 -14q24 -6 35 -6z" />
    <glyph glyph-name="Idieresis" unicode="&#xcf;" horiz-adv-x="278" 
d="M1 761q0 34 21 58t50 24q22 0 40 -14.5t26 -37.5q8 23 26 37.5t40 14.5q29 0 50 -24t21 -58q0 -33 -19 -57t-47 -26q-1 -29 -2.5 -63t-2.5 -69t-1.5 -68t-0.5 -60v-154q0 -29 1 -65t2 -73.5t2.5 -74t2.5 -64.5q-26 5 -46 9t-26 4t-26 -4t-46 -9q1 28 2.5 64.5t2.5 74
t2 73.5t1 65v154q0 27 -1 60t-2 68t-2.5 69t-2.5 63q-27 2 -46 26t-19 57zM138 682q8 0 33 5q-22 13 -33 42q-11 -28 -34 -42q25 -5 34 -5z" />
    <glyph glyph-name="Eth" unicode="&#xd0;" horiz-adv-x="601" 
d="M12 438q14 -2 34.5 -3t38.5 -2q-1 52 -2.5 109.5t-3.5 110.5q0 4 -0.5 19t-0.5 19q45 -4 81 -6.5t58 -2.5q12 0 23.5 0.5t25.5 1.5q4 0 7.5 0.5t8.5 0.5q8 1 17.5 1.5t19.5 0.5q68 0 117 -23t80.5 -66t46 -105t14.5 -139q0 -100 -27 -168.5t-68 -111t-90.5 -61
t-95.5 -18.5q-11 0 -23.5 0.5t-23.5 1.5q-4 0 -9 0.5t-7 0.5q-8 1 -14.5 1.5t-13.5 0.5q-20 0 -53 -2.5t-74 -6.5q0 4 0.5 18.5t0.5 18.5q2 57 4 119.5t2 116.5v61h-12t-12 -1h1q-7 0 -17 -0.5t-33 -0.5q3 21 6 38.5t3 18.5q0 2 -0.5 5.5t-1.5 8.5q-1 7 -3.5 23t-3.5 21z
M213 264v-43v-37t0.5 -37t1.5 -42q25 -3 53 -3q30 0 60.5 10.5t54.5 38t39 76.5t15 127q0 67 -11.5 109.5t-32 67.5t-48.5 34.5t-61 9.5q-18 0 -35.5 -1t-33.5 -3q-1 -33 -1.5 -67.5t-0.5 -70.5q16 0 35 0.5t37 1t34.5 1.5t28.5 2q-4 -22 -6.5 -37.5t-2.5 -20.5q0 -3 1 -10
t2 -15.5t2.5 -17.5l2.5 -15q-6 0 -23 0.5t-23 0.5q-26 1 -44 2t-44 1v-62z" />
    <glyph glyph-name="Ntilde" unicode="&#xd1;" horiz-adv-x="497" 
d="M411 -16q-63 98 -137 206t-146 211l-2 2v-69q0 -19 0.5 -48t1 -63t1.5 -69.5t2.5 -68.5t3 -60.5t3.5 -43.5q-3 1 -9.5 2.5t-14 4t-13.5 4t-8 2.5h1q-5 1 -9 2t-7 2q-4 1 -6 2q-6 0 -31 -9q-2 0 -13.5 -4.5t-25.5 -10.5q3 26 7 82.5t7.5 123t5.5 131.5t2 109
q0 42 -0.5 84.5t-1 80t-1 67t-1.5 44.5h68q24 -35 51.5 -75t52.5 -75q30 -44 53.5 -78.5t44.5 -65t41 -58.5t42 -57q0 52 -1 108.5t-1.5 111.5t-2 105t-2.5 91q15 -7 28 -11q7 -3 15 -6q15 -6 18 -6q-1 0 5 2.5t13 4.5q3 1 14 4t30 9q-1 -13 -2.5 -39.5t-3 -60t-3.5 -70.5
t-3 -71.5t-2 -64t-1 -46.5v-48v-56.5t0.5 -60t0.5 -58.5q0 -23 0.5 -47.5t0.5 -44.5v-51h-65zM106 676q4 28 12.5 57.5t22.5 53.5t33.5 39.5t44.5 15.5q19 0 32.5 -6t36.5 -20q5 -3 9 -6t7 -5q4 -3 7 -4l4 14q2 6 4 14t4 17h88q-2 -19 -9 -48t-20.5 -56t-34.5 -46.5
t-51 -19.5q-29 0 -69 28q-6 4 -13.5 8.5t-9.5 5.5q2 -1 -0.5 -10t-7.5 -32h-90zM105 433q2 -4 3 -4q-1 0 -3 4z" />
    <glyph glyph-name="Ograve" unicode="&#xd2;" horiz-adv-x="606" 
d="M16 341q0 78 18 140t50 107t77.5 72t99.5 35l-60 52l1 -1q-14 11 -26.5 26.5t-12.5 44.5q0 16 6 28.5t15 20.5t19.5 12.5t19.5 4.5q17 0 32 -10.5t26 -25.5q15 -20 35 -47.5t40 -53.5q9 -12 22.5 -30.5t25.5 -35.5q88 -32 139 -118.5t51 -220.5q0 -85 -21.5 -151.5
t-59.5 -112t-91 -69.5t-117 -24q-63 0 -116.5 24t-91.5 69.5t-59.5 112t-21.5 151.5zM454 341q0 65 -11.5 112t-31.5 78t-47 45.5t-59 14.5t-59 -14.5t-47 -45.5t-31.5 -78t-11.5 -112t11.5 -112t31.5 -78t47 -45.5t59 -14.5t59 14.5t47 45.5t31.5 78t11.5 112z" />
    <glyph glyph-name="Oacute" unicode="&#xd3;" horiz-adv-x="607" 
d="M12 341q0 134 51 221t139 119l123 166q13 16 27.5 26t31.5 10q9 0 19.5 -4.5t19.5 -12.5t15 -20.5t6 -28.5q0 -29 -12.5 -44.5t-26.5 -26.5l-10 -8l-10 -8q-11 -8 -20.5 -17t-20.5 -18q55 -8 100.5 -35t77.5 -72t50 -107t18 -140q0 -85 -21.5 -151.5t-59.5 -112
t-91 -69.5t-117 -24q-63 0 -116.5 24t-91.5 69.5t-59.5 112t-21.5 151.5zM450 341q0 65 -11.5 112t-31.5 78t-47 45.5t-59 14.5t-59 -14.5t-47 -45.5t-31.5 -78t-11.5 -112t11.5 -112t31.5 -78t47 -45.5t59 -14.5t59 14.5t47 45.5t31.5 78t11.5 112z" />
    <glyph glyph-name="Ocircumflex" unicode="&#xd4;" horiz-adv-x="609" 
d="M15 341q0 112 36 191.5t99 121.5h-13l122 223h88l125 -223h-14q63 -42 99 -121.5t36 -191.5q0 -85 -21.5 -151.5t-59.5 -112t-91 -69.5t-117 -24q-63 0 -116.5 24t-91.5 69.5t-59.5 112t-21.5 151.5zM453 341q0 65 -11.5 112t-31.5 78t-47 45.5t-59 14.5t-59 -14.5
t-47 -45.5t-31.5 -78t-11.5 -112t11.5 -112t31.5 -78t47 -45.5t59 -14.5t59 14.5t47 45.5t31.5 78t11.5 112zM304 698q7 0 14 -0.5t13 -1.5l-26 32q-5 -5 -11 -13q-4 -5 -8 -9t-8 -9q6 0 12.5 0.5t13.5 0.5z" />
    <glyph glyph-name="Otilde" unicode="&#xd5;" horiz-adv-x="611" 
d="M16 341q0 131 48 215.5t129 119.5h-39q3 28 11.5 57.5t22 53.5t33 39.5t43.5 15.5q20 0 34 -6t36 -20q10 -6 17 -11q4 -3 7 -4q-1 0 2 14t6 31h92q-2 -15 -6.5 -37.5t-13.5 -45.5t-22 -43t-32 -32q47 -13 86 -42t66.5 -73t42.5 -102t15 -130q0 -85 -21.5 -151.5
t-59.5 -112t-91 -69.5t-117 -24q-63 0 -116.5 24t-91.5 69.5t-59.5 112t-21.5 151.5zM454 341q0 65 -11.5 112t-31.5 78t-47 45.5t-59 14.5t-59 -14.5t-47 -45.5t-31.5 -78t-11.5 -112t11.5 -112t31.5 -78t47 -45.5t59 -14.5t59 14.5t47 45.5t31.5 78t11.5 112zM246 692
q9 2 18 3l18 2q-6 4 -9 7q-7 4 -14 8.5t-9 5.5q2 -2 -4 -26z" />
    <glyph glyph-name="Odieresis" unicode="&#xd6;" horiz-adv-x="610" 
d="M168 761q0 34 21 58t50 24q22 0 40 -14.5t26 -37.5q8 23 26 37.5t40 14.5q29 0 50 -24t21 -58q0 -26 -12.5 -47.5t-32.5 -29.5q90 -30 143.5 -117.5t53.5 -225.5q0 -85 -21.5 -151.5t-59.5 -112t-91 -69.5t-117 -24q-63 0 -116.5 24t-91.5 69.5t-59.5 112t-21.5 151.5
q0 138 53.5 225.5t142.5 117.5q-19 9 -31.5 30t-12.5 47zM454 341q0 65 -11.5 112t-31.5 78t-47 45.5t-59 14.5t-59 -14.5t-47 -45.5t-31.5 -78t-11.5 -112t11.5 -112t31.5 -78t47 -45.5t59 -14.5t59 14.5t47 45.5t31.5 78t11.5 112zM305 698q5 0 10 -0.5t11 -0.5
q-8 7 -12.5 15t-8.5 17q-4 -9 -8.5 -17t-12.5 -15q5 0 10.5 0.5t10.5 0.5z" />
    <glyph glyph-name="multiply" unicode="&#xd7;" horiz-adv-x="409" 
d="M133 262q-10 13 -18.5 25t-19.5 26q-20 27 -43.5 59t-42.5 57l71 94l125 -166q15 19 31.5 41.5t33 44.5t31.5 42.5t27 37.5l71 -94l-125 -166q29 -39 63 -83.5t62 -81.5l-71 -94l-124 164q-4 -5 -7.5 -9.5t-7.5 -9.5q-12 -16 -26.5 -35.5t-29.5 -39t-29 -37.5t-24 -32
l-71 93z" />
    <glyph glyph-name="Oslash" unicode="&#xd8;" horiz-adv-x="622" 
d="M22 341q0 85 21.5 151.5t59.5 112.5t91.5 69.5t116.5 23.5q42 0 81 -11.5t71 -33.5q14 23 30.5 54t30.5 67q20 -33 43 -62t39 -41q-20 -17 -40.5 -41t-34.5 -44q34 -46 51.5 -106.5t17.5 -138.5q0 -85 -21.5 -151.5t-59.5 -112t-91 -69.5t-117 -24q-42 0 -80.5 11.5
t-70.5 31.5q-13 -20 -29 -49t-39 -78q-19 39 -38 64t-38 38q7 7 17 19t20.5 25t20.5 26.5t17 23.5q-69 89 -69 245zM399 556q-18 20 -40 27.5t-48 7.5q-32 0 -59 -14.5t-47 -45.5t-31.5 -78t-11.5 -112q0 -35 3.5 -66t9.5 -55zM227 126q17 -17 39 -26t45 -9q32 0 59 14.5
t47 45.5t31.5 78t11.5 112q0 36 -2 65t-9 53z" />
    <glyph glyph-name="Ugrave" unicode="&#xd9;" horiz-adv-x="495" 
d="M148 747l1 -1q-14 11 -26.5 26.5t-12.5 44.5q0 16 6 28.5t15 20.5t19.5 12.5t19.5 4.5q17 0 32 -10.5t26 -25.5q15 -20 35 -47.5t40 -53.5q6 -8 13.5 -18.5t16 -21.5l17 -22t14.5 -19q-1 8 -2 17.5t-2 18.5q29 -8 48 -13.5t22 -5.5q-2 0 4 2.5t14 5.5l9 3t12.5 4t12.5 4
t8 3q-2 -31 -4.5 -83t-4.5 -112t-4 -121t-2 -110q-1 -68 -16.5 -122t-44.5 -92.5t-71.5 -59t-96.5 -20.5q-119 0 -173.5 71.5t-54.5 220.5v43t1 39v3q1 14 1.5 28t0.5 29q0 42 -0.5 79t-1.5 69q0 10 -0.5 19t-0.5 18v38v56q26 -7 45.5 -11t25.5 -4q5 0 24.5 5t46.5 13
q-3 -33 -5.5 -75.5t-4 -89.5t-2.5 -96.5t-1 -96.5q0 -39 2 -82t12.5 -79t33.5 -59t65 -23q41 0 63 27t32.5 66.5t12 84.5t1.5 82v94.5t-0.5 78t-1.5 65.5t-3 57h-107z" />
    <glyph glyph-name="Uacute" unicode="&#xda;" horiz-adv-x="494" 
d="M362 359v113t-1 89.5t-3 74t-5 65.5q28 -8 46.5 -13.5t22.5 -5.5q0 1 5.5 3t13.5 5l9 3t12.5 4t12.5 4t8 3q-2 -31 -4.5 -83t-4.5 -112t-4 -121t-2 -110q-1 -68 -16.5 -122t-44.5 -92.5t-71.5 -59t-96.5 -20.5q-119 0 -173.5 71.5t-54.5 220.5v43t1 39v3q1 14 1.5 28
t0.5 29q0 42 -0.5 79t-1.5 69q0 10 -0.5 19t-0.5 18v38v56q26 -7 45.5 -11t25.5 -4q5 0 24.5 5t46.5 13q-1 -4 -1 -11l117 158q13 16 28 26t31 10q9 0 19.5 -4.5t19.5 -12.5t15 -20.5t6 -28.5q0 -28 -13 -44t-26 -27q-17 -15 -36 -30t-38 -32q-8 -7 -17.5 -15.5t-17.5 -14.5
h-90q-3 -33 -4.5 -71t-3 -78.5t-2 -81.5t-0.5 -81q0 -39 2 -82t12.5 -79t33.5 -59t65 -23q41 0 63 27t32.5 66.5t12 84.5t1.5 82z" />
    <glyph glyph-name="Ucircumflex" unicode="&#xdb;" horiz-adv-x="499" 
d="M88 682h5t7 2l106 193h88l106 -188q10 -3 17 -5t12 -2q-2 0 4 2.5t14 5.5l9 3t12.5 4t12.5 4t8 3q-2 -31 -4.5 -83t-4.5 -112t-4 -121t-2 -110q-1 -68 -16.5 -122t-44.5 -92.5t-71.5 -59t-96.5 -20.5q-119 0 -173.5 71.5t-54.5 220.5v43t1 39v3q1 14 1.5 28t0.5 29
q0 42 -0.5 79t-1.5 69q0 10 -0.5 19t-0.5 18v38v56q26 -7 45.5 -11t25.5 -4zM252 728q-5 -5 -11 -13q-12 -14 -26.5 -30.5t-25.5 -30.5h-34q-2 -28 -4 -64t-3 -77t-1.5 -85t-0.5 -86q0 -39 2 -82t12.5 -79t33.5 -59t65 -23q41 0 63 27t32.5 66.5t12 84.5t1.5 82v108v79
t-1 59.5t-3 48.5h-49z" />
    <glyph glyph-name="Udieresis" unicode="&#xdc;" horiz-adv-x="500" 
d="M114 761q0 34 21 58t50 24q22 0 40 -14.5t26 -37.5q8 23 26 37.5t40 14.5q29 0 50 -24t21 -58q0 -19 -6 -35t-17 -27q26 -8 43.5 -12.5t20.5 -4.5q-2 0 4 2.5t14 5.5l9 3t12.5 4t12.5 4t8 3q-2 -31 -4.5 -83t-4.5 -112t-4 -121t-2 -110q-1 -68 -16.5 -122t-44.5 -92.5
t-71.5 -59t-96.5 -20.5q-119 0 -173.5 71.5t-54.5 220.5v43t1 39v3q1 14 1.5 28t0.5 29q0 42 -0.5 79t-1.5 69q0 10 -0.5 19t-0.5 18v38v56q26 -7 45.5 -11t25.5 -4q4 0 18.5 3.5t35.5 9.5q-13 11 -20.5 28t-7.5 38zM368 359v110t-1 87.5t-3 72.5t-5 65q-18 -16 -42 -16
q-22 0 -40 14t-26 37q-8 -23 -26 -37t-40 -14q-15 0 -28 6q-3 -33 -5 -74t-3.5 -85.5t-2 -91t-0.5 -91.5q0 -39 2 -82t12.5 -79t33.5 -59t65 -23q41 0 63 27t32.5 66.5t12 84.5t1.5 82z" />
    <glyph glyph-name="Yacute" unicode="&#xdd;" horiz-adv-x="440" 
d="M147 12q6 63 7 130t1 138q-8 18 -23.5 52.5t-34.5 77t-40.5 88.5t-40.5 87t-33.5 72t-21.5 45q40 -8 68 -14t36 -6q17 0 59 11q0 -2 1 -3.5t3 -5.5l114 153q12 17 27 27t32 10q9 0 19.5 -4.5t19.5 -13t15 -20.5t6 -28q0 -28 -13 -44t-26 -26q-5 -6 -13.5 -13t-14.5 -12
q-19 -17 -41 -35t-40 -33h-70q12 -31 21 -55.5t18.5 -48.5t20.5 -50.5t26 -61.5q26 59 52.5 127.5t51.5 139.5q19 -6 32.5 -10t17.5 -4q3 0 15.5 3.5t28.5 7.5q2 1 10 3.5t17 5.5l16.5 5.5t8.5 2.5q-32 -65 -62 -128.5t-56.5 -119t-46.5 -100.5t-32 -73q0 -33 1 -77t2 -87.5
t2.5 -81t2.5 -57.5q-27 6 -45.5 10t-25.5 4q-6 0 -19 -2.5t-30 -6.5z" />
    <glyph glyph-name="Thorn" unicode="&#xde;" horiz-adv-x="367" 
d="M27 418q0 29 -0.5 65.5t-1.5 74t-2.5 74t-2.5 65.5q26 -7 45 -11t27 -4t27.5 4t45.5 11q0 -5 -1 -14.5t-1.5 -20t-1.5 -20t-1 -15.5q-1 -9 -1.5 -16t-1 -13t-0.5 -12.5v-16.5h45q85 0 133.5 -46t48.5 -147q0 -60 -18 -99.5t-46.5 -63t-64.5 -33t-73 -9.5q-9 0 -11.5 -0.5
t-3 -0.5h-2t-8.5 1v-10q0 -36 2.5 -81t13.5 -95q-30 7 -51.5 11t-29.5 4q-7 0 -26.5 -4t-45.5 -9q1 28 2.5 64.5t2.5 74t1.5 73.5t0.5 65v154zM157 278h15q29 0 52.5 23.5t23.5 74.5q0 15 -3.5 30.5t-12 28t-21.5 20.5t-32 8h-22v-185z" />
    <glyph glyph-name="germandbls" unicode="&#xdf;" horiz-adv-x="396" 
d="M24 400v49.5t-1 35.5q0 5 -0.5 9.5t-0.5 6.5v7q0 65 16.5 111t42 75t56 42t58.5 13q21 0 44.5 -10t44 -28t33.5 -43.5t13 -56.5q0 -44 -15.5 -76t-31.5 -58l-7 -9q-10 -14 -18 -27t-8 -24q0 -14 12.5 -27t28.5 -27l3 -3q17 -14 34.5 -30t32 -36.5t23.5 -45.5t9 -57
q0 -36 -14 -72t-37.5 -65.5t-53.5 -48t-63 -18.5t-71 19q1 -6 1 -11t1 -10q-25 7 -43.5 11t-26.5 4t-26.5 -4t-44.5 -11q1 22 3 61t3 83t2 87t1 74v110zM147 290q0 -30 0.5 -72t1.5 -85h46q8 -15 20 -27t23 -12q14 0 25 15t11 42q0 31 -19 54t-42 43q-19 16 -37 33t-29 40
v-31v0zM147 450q6 12 14 23.5t17 24.5v-1q15 23 29 48.5t14 55.5q0 20 -7.5 33t-21.5 13q-26 0 -35.5 -37.5t-9.5 -109.5v-50z" />
    <glyph glyph-name="agrave" unicode="&#xe0;" 
d="M37 432q43 43 77.5 58.5t66.5 15.5h1l-101 86q-14 11 -26 27t-12 44q0 16 6 28t14.5 20.5t18.5 12.5t19 4q18 0 33 -10t26 -26q5 -6 11 -13.5t11 -15.5q13 -17 30.5 -40.5t34.5 -47t32 -44t23 -31.5h-79q48 -14 76.5 -57t28.5 -106v-49.5t-1 -51.5q-1 -24 -1.5 -53
t-0.5 -55v-9.5t-1 -7.5q6 5 15.5 12.5t25.5 20.5v-121q-15 -8 -36.5 -17.5t-43.5 -9.5q-16 0 -31 7t-26 18q-20 -17 -42.5 -25.5t-52.5 -8.5q-24 0 -46.5 10.5t-40 29.5t-28 46t-10.5 60q0 71 33 109t90 51q26 5 40.5 8t21.5 6t8.5 5.5t1.5 6.5q0 30 -8.5 52.5t-29.5 22.5
q-15 0 -30.5 -15.5t-27.5 -44.5h-70v98zM201 209q-12 -3 -23.5 -7t-20.5 -11t-15 -18t-6 -27q0 -24 6.5 -36.5t15.5 -12.5q12 0 23.5 9.5t18.5 23.5z" />
    <glyph glyph-name="aacute" unicode="&#xe1;" horiz-adv-x="353" 
d="M193 692q11 16 26.5 26t32.5 10q8 0 18 -4t19 -12.5t15.5 -20.5t6.5 -28q0 -29 -12.5 -44t-24.5 -26q-14 -12 -29.5 -24.5t-30.5 -26.5q-11 -8 -22.5 -18t-21.5 -18q32 -1 58.5 -13.5t45 -35t29 -53t10.5 -67.5v-49.5t-1 -51.5q-1 -24 -1.5 -53t-0.5 -55v-9.5t-1 -7.5
q6 5 15.5 12.5t25.5 20.5v-121q-15 -8 -36.5 -17.5t-43.5 -9.5q-16 0 -31 7t-26 18q-20 -17 -42.5 -25.5t-52.5 -8.5q-24 0 -46.5 10.5t-40 29.5t-28 46t-10.5 60q0 71 33 109t90 51q26 5 40.5 8t21.5 6t8.5 5.5t1.5 6.5q0 30 -8.5 52.5t-29.5 22.5q-15 0 -30.5 -15.5
t-27.5 -44.5h-70v98q29 29 54 45t49 23h-75zM186 209q-12 -3 -23.5 -7t-20.5 -11t-15 -18t-6 -27q0 -24 6.5 -36.5t15.5 -12.5q12 0 23.5 9.5t18.5 23.5z" />
    <glyph glyph-name="acircumflex" unicode="&#xe2;" horiz-adv-x="360" 
d="M32 432q43 43 77.5 58.5t66.5 15.5q33 0 60 -12t46.5 -34.5t30 -53.5t10.5 -69v-49.5t-1 -51.5q-1 -24 -1.5 -53t-0.5 -55v-9.5t-1 -7.5q6 5 15.5 12.5t25.5 20.5v-121q-15 -8 -36.5 -17.5t-43.5 -9.5q-16 0 -31 7t-26 18q-20 -17 -42.5 -25.5t-52.5 -8.5
q-24 0 -46.5 10.5t-40 29.5t-28 46t-10.5 60q0 71 33 109t90 51q26 5 40.5 8t21.5 6t8.5 5.5t1.5 6.5q0 30 -8.5 52.5t-29.5 22.5q-15 0 -30.5 -15.5t-27.5 -44.5h-70v98zM179 575q-16 -19 -33 -39t-31 -36h-103l122 224h91l122 -224h-104zM196 209q-12 -3 -23.5 -7
t-20.5 -11t-15 -18t-6 -27q0 -24 6.5 -36.5t15.5 -12.5q12 0 23.5 9.5t18.5 23.5z" />
    <glyph glyph-name="atilde" unicode="&#xe3;" horiz-adv-x="367" 
d="M36 432q43 43 77.5 58.5t66.5 15.5q33 0 60 -12t46.5 -34.5t30 -53.5t10.5 -69v-49.5t-1 -51.5q-1 -24 -1.5 -53t-0.5 -55v-9.5t-1 -7.5q6 5 15.5 12.5t25.5 20.5v-121q-15 -8 -36.5 -17.5t-43.5 -9.5q-16 0 -31 7t-26 18q-20 -17 -42.5 -25.5t-52.5 -8.5
q-24 0 -46.5 10.5t-40 29.5t-28 46t-10.5 60q0 71 33 109t90 51q26 5 40.5 8t21.5 6t8.5 5.5t1.5 6.5q0 30 -8.5 52.5t-29.5 22.5q-15 0 -30.5 -15.5t-27.5 -44.5h-70v98zM31 522q3 28 11.5 58t22.5 54t33.5 39.5t44.5 15.5q17 0 31.5 -6.5t36.5 -20.5l25 -15q-1 0 2 13.5
t7 30.5h89q-2 -19 -8.5 -47.5t-19.5 -55.5t-34 -46.5t-51 -19.5q-32 0 -70 28q-7 3 -14 8t-9 6q2 -1 0 -10t-7 -32h-90zM200 209q-12 -3 -23.5 -7t-20.5 -11t-15 -18t-6 -27q0 -24 6.5 -36.5t15.5 -12.5q12 0 23.5 9.5t18.5 23.5z" />
    <glyph glyph-name="adieresis" unicode="&#xe4;" horiz-adv-x="365" 
d="M35 432q43 43 77.5 58.5t66.5 15.5q33 0 60 -12t46.5 -34.5t30 -53.5t10.5 -69v-49.5t-1 -51.5q-1 -24 -1.5 -53t-0.5 -55v-9.5t-1 -7.5q6 5 15.5 12.5t25.5 20.5v-121q-15 -8 -36.5 -17.5t-43.5 -9.5q-16 0 -31 7t-26 18q-20 -17 -42.5 -25.5t-52.5 -8.5
q-24 0 -46.5 10.5t-40 29.5t-28 46t-10.5 60q0 71 33 109t90 51q26 5 40.5 8t21.5 6t8.5 5.5t1.5 6.5q0 30 -8.5 52.5t-29.5 22.5q-15 0 -30.5 -15.5t-27.5 -44.5h-70v98zM45 606q0 17 5.5 32.5t15.5 27t22.5 18t27.5 6.5q23 0 40.5 -15.5t25.5 -38.5q8 23 25.5 38.5
t40.5 15.5q15 0 27.5 -6.5t22.5 -18t15.5 -27t5.5 -32.5q0 -33 -21 -57.5t-50 -24.5q-23 0 -40.5 15t-25.5 38q-8 -23 -25.5 -38t-40.5 -15q-29 0 -50 24.5t-21 57.5zM199 209q-12 -3 -23.5 -7t-20.5 -11t-15 -18t-6 -27q0 -24 6.5 -36.5t15.5 -12.5q12 0 23.5 9.5
t18.5 23.5z" />
    <glyph glyph-name="aring" unicode="&#xe5;" horiz-adv-x="359" 
d="M73 614q0 26 8.5 49.5t23 41t33.5 27.5t41 10t41 -10t33.5 -27.5t23 -41t8.5 -49.5q0 -38 -17 -69t-44 -46q45 -16 72 -58.5t27 -103.5v-49.5t-1 -51.5q-1 -24 -1.5 -53t-0.5 -55v-9.5t-1 -7.5q6 5 15.5 12.5t25.5 20.5v-121q-15 -8 -36.5 -17.5t-43.5 -9.5q-16 0 -31 7
t-26 18q-20 -17 -42.5 -25.5t-52.5 -8.5q-24 0 -46.5 10.5t-40 29.5t-28 46t-10.5 60q0 71 33 109t90 51q26 5 40.5 8t21.5 6t8.5 5.5t1.5 6.5q0 30 -8.5 52.5t-29.5 22.5q-15 0 -30.5 -15.5t-27.5 -44.5h-70v98q29 29 53 44.5t47 22.5q-26 16 -42.5 46.5t-16.5 68.5z
M196 209q-12 -3 -23.5 -7t-20.5 -11t-15 -18t-6 -27q0 -24 6.5 -36.5t15.5 -12.5q12 0 23.5 9.5t18.5 23.5zM175 614q0 -17 4 -17t4 17q0 7 -1 12t-3 5t-3 -5t-1 -12z" />
    <glyph glyph-name="ae" unicode="&#xe6;" horiz-adv-x="606" 
d="M56 432q43 43 77 58.5t68 15.5q23 0 49 -8t52 -35q41 43 101 43q45 0 78 -17.5t54.5 -47.5t32.5 -69.5t11 -84.5q0 -4 -0.5 -12.5t-1 -19t-1 -21.5t-1.5 -19h-51q-10 0 -19 0.5t-15 0.5q-23 1 -46 1.5t-46 0.5q-14 0 -26 -0.5t-25 -1.5q1 -51 21 -85t57 -34
q17 0 43.5 24.5t50.5 62.5l49 -50l-8 -73q-29 -29 -68.5 -51.5t-78.5 -22.5q-83 0 -135 61q-20 -28 -50 -44.5t-75 -16.5q-24 0 -46.5 10.5t-40.5 29.5t-28.5 46t-10.5 60q0 70 33 108t91 52q25 5 39.5 8t21.5 6t8.5 5.5t1.5 6.5q0 30 -8.5 52.5t-28.5 22.5
q-16 0 -32.5 -15.5t-28.5 -44.5h-68v98zM405 404q-11 0 -20 -7t-15.5 -19t-11 -27t-7.5 -30q11 -1 23 -1h24h26t26 1q-1 15 -4 30t-8 27t-13 19t-20 7zM155 146q0 -22 7 -35.5t19 -13.5q14 0 26 16t14 45q0 11 0.5 24t0.5 27q-24 -6 -45.5 -20t-21.5 -43z" />
    <glyph glyph-name="ccedilla" unicode="&#xe7;" horiz-adv-x="356" 
d="M114 -65l5 -3l-3 5l17 61q-27 10 -52 29.5t-43.5 50t-29.5 72.5t-11 96q0 68 17.5 117t47 81t66.5 47t76 15q46 0 86.5 -21.5t63.5 -47.5q-7 -21 -13.5 -46t-11.5 -57h-60q-5 11 -12 23.5t-15.5 23t-17.5 17t-18 6.5q-21 0 -35.5 -12t-23.5 -33t-13 -49.5t-4 -62.5
q0 -74 20.5 -112t58.5 -38q17 0 43.5 24.5t49.5 62.5l49 -50q-1 -5 -2 -17t-2 -20t-1.5 -16.5t-0.5 -18.5q-38 -39 -86 -61q43 -25 43 -89q0 -56 -34.5 -84.5t-82.5 -28.5q-27 0 -55 11.5t-51 22.5z" />
    <glyph glyph-name="egrave" unicode="&#xe8;" horiz-adv-x="366" 
d="M5 234q0 63 12.5 113t37 85.5t60.5 54.5t82 19l-104 87q-12 11 -24 26.5t-12 43.5q0 16 6 28t14.5 20.5t18.5 12.5t18 4q18 0 34 -10t27 -26q12 -17 31.5 -43.5t40.5 -54.5t39.5 -53.5t29.5 -40.5h-74q33 -8 57.5 -28t40.5 -48.5t24 -63.5t8 -73q0 -4 -0.5 -12.5t-1 -19
t-1 -21.5t-1.5 -19h-50q-10 0 -19 0.5t-15 0.5h-5q-23 1 -44.5 1.5t-44.5 0.5q-14 0 -26.5 -0.5t-25.5 -1.5q2 -51 22.5 -85t56.5 -34q18 0 45.5 24.5t50.5 60.5l47 -48l-7 -73q-14 -15 -31 -28t-36.5 -23.5t-40 -16.5t-39.5 -6q-45 0 -82 19t-63.5 52.5t-41 78.5t-14.5 97z
M197 404q-12 0 -21 -7t-15.5 -19t-10.5 -27t-6 -30q11 -1 23.5 -1h23.5q14 0 26 0.5t26 1.5q-1 15 -4 30t-8 26.5t-13.5 18.5t-20.5 7z" />
    <glyph glyph-name="eacute" unicode="&#xe9;" horiz-adv-x="368" 
d="M210 692q11 16 26.5 26t33.5 10q8 0 18 -4t19 -12.5t15 -20.5t6 -28q0 -28 -12 -43.5t-25 -26.5q-14 -14 -32.5 -29t-35.5 -29q-8 -6 -17 -14t-18 -15q44 -1 76.5 -18.5t54 -47.5t32 -69.5t10.5 -83.5q0 -4 -0.5 -12.5t-1 -19t-1 -21.5t-1.5 -19h-50q-10 0 -19 0.5
t-15 0.5h-5q-23 1 -44.5 1.5t-44.5 0.5q-14 0 -26.5 -0.5t-25.5 -1.5q2 -51 22.5 -85t56.5 -34q18 0 45.5 24.5t50.5 60.5l47 -48l-7 -73q-14 -15 -31 -28t-36.5 -23.5t-40 -16.5t-39.5 -6q-45 0 -82 19t-63.5 52.5t-41 78.5t-14.5 97q0 109 37.5 178.5t106.5 87.5h-71z
M186 404q-24 0 -36.5 -26t-16.5 -57q11 -1 23.5 -1h23.5q14 0 26 0.5t26 1.5q-1 15 -4 30t-8 26.5t-13.5 18.5t-20.5 7z" />
    <glyph glyph-name="ecircumflex" unicode="&#xea;" horiz-adv-x="373" 
d="M2 234q0 63 12.5 113t37 85.5t60.5 54.5t82 19q45 0 77.5 -17.5t54.5 -47.5t32.5 -69.5t10.5 -84.5q0 -4 -0.5 -12.5t-1 -19t-1 -21.5t-1.5 -19h-50q-10 0 -19 0.5t-15 0.5h-5q-23 1 -44.5 1.5t-44.5 0.5q-14 0 -26.5 -0.5t-25.5 -1.5q2 -51 22.5 -85t56.5 -34
q18 0 45.5 24.5t50.5 60.5l47 -48l-7 -73q-14 -15 -31 -28t-36.5 -23.5t-40 -16.5t-39.5 -6q-45 0 -82 19t-63.5 52.5t-41 78.5t-14.5 97zM194 575q-10 -11 -19.5 -23.5t-19.5 -23.5q-5 -6 -12 -14.5t-12 -13.5h-103l121 224h91l122 -224h-103zM194 404q-24 0 -36.5 -26
t-16.5 -57q11 -1 23.5 -1h23.5q14 0 26 0.5t26 1.5q-1 15 -4 30t-8 26.5t-13.5 18.5t-20.5 7z" />
    <glyph glyph-name="edieresis" unicode="&#xeb;" horiz-adv-x="379" 
d="M5 234q0 63 12.5 113t37 85.5t60.5 54.5t82 19q45 0 77.5 -17.5t54.5 -47.5t32.5 -69.5t10.5 -84.5q0 -4 -0.5 -12.5t-1 -19t-1 -21.5t-1.5 -19h-50q-10 0 -19 0.5t-15 0.5h-5q-23 1 -44.5 1.5t-44.5 0.5q-14 0 -26.5 -0.5t-25.5 -1.5q2 -51 22.5 -85t56.5 -34
q18 0 45.5 24.5t50.5 60.5l47 -48l-7 -73q-14 -15 -31 -28t-36.5 -23.5t-40 -16.5t-39.5 -6q-45 0 -82 19t-63.5 52.5t-41 78.5t-14.5 97zM61 606q0 35 20.5 59.5t49.5 24.5q23 0 41 -15.5t25 -38.5q8 23 26 38.5t41 15.5q15 0 27.5 -6.5t22.5 -18t15.5 -27t5.5 -32.5
q0 -33 -21 -57.5t-50 -24.5q-23 0 -41 15t-26 38q-7 -23 -25 -38t-41 -15q-29 0 -49.5 24.5t-20.5 57.5zM197 404q-12 0 -21 -7t-15.5 -19t-10.5 -27t-6 -30q11 -1 23.5 -1h23.5q14 0 26 0.5t26 1.5q-1 15 -4 30t-8 26.5t-13.5 18.5t-20.5 7z" />
    <glyph glyph-name="igrave" unicode="&#xec;" horiz-adv-x="196" 
d="M19 593q-12 11 -24.5 26.5t-12.5 43.5q0 16 6 28t15 20.5t19.5 12.5t19.5 4q17 0 32.5 -10t26.5 -26q13 -18 33.5 -45.5t41.5 -55.5t39.5 -53t28.5 -38h-49q-6 -67 -7.5 -118t-1.5 -90v-92q0 -41 1.5 -93t8.5 -122q-29 7 -48 11t-24 4l-41 -9q-2 0 -15.5 -0.5t-15.5 -0.5
q7 72 8.5 122t1.5 88v92q0 35 -1.5 87t-8.5 131q29 -9 47 -13t25 -4q4 0 14 1.5t26 5.5h-35z" />
    <glyph glyph-name="iacute" unicode="&#xed;" horiz-adv-x="195" 
d="M93 692q13 17 28 26.5t32 9.5q9 0 19.5 -4t19 -12.5t14.5 -20.5t6 -28q0 -29 -12 -44t-24 -26l-26 -22t-27 -22t-30 -24.5t-28 -24.5h-37q16 -4 26.5 -5.5t15.5 -1.5t23.5 4t47.5 12q-6 -66 -7.5 -120t-1.5 -97v-92q0 -44 1.5 -97t7.5 -118q-27 7 -46.5 11t-24.5 4
t-14 -2t-21 -5l-38 -9q8 77 9.5 128t1.5 88v92q0 35 -1.5 85t-8.5 123h-48z" />
    <glyph glyph-name="icircumflex" unicode="&#xee;" horiz-adv-x="256" 
d="M66 292q0 35 -1.5 85t-9.5 123h-95l122 224h88l125 -224h-97q-7 -67 -8.5 -118t-1.5 -90v-92q0 -41 1.5 -93t9.5 -122q-23 5 -40.5 9t-25.5 6q-2 -2 -15.5 -4t-23.5 -4l-40 -7q8 77 10 127.5t2 87.5v92zM127 493q10 0 60 12l-59 69q-5 -6 -11 -13t-11 -12v1
q-9 -11 -19 -23t-19 -22q23 -7 38 -9.5t21 -2.5z" />
    <glyph glyph-name="idieresis" unicode="&#xef;" horiz-adv-x="269" 
d="M73 292q0 37 -2 89t-10 129q29 -9 47.5 -13t25.5 -4q14 0 72 16q-8 -71 -9.5 -123.5t-1.5 -93.5v-92q0 -41 1.5 -93t9.5 -122q-23 5 -40.5 9t-25.5 6q-2 -2 -15.5 -4t-23.5 -4l-40 -7q8 77 10 127.5t2 87.5v92zM-3 606q0 17 5.5 32.5t15.5 27t22.5 18t27.5 6.5
q22 0 40 -15t26 -38q8 23 25.5 38t40.5 15q15 0 27.5 -6.5t22.5 -18t15.5 -27t5.5 -32.5q0 -33 -21 -57.5t-50 -24.5q-23 0 -40.5 14.5t-25.5 37.5q-8 -23 -26 -37.5t-40 -14.5q-29 0 -50 24.5t-21 57.5z" />
    <glyph glyph-name="eth" unicode="&#xf0;" horiz-adv-x="415" 
d="M12 246q0 62 13.5 108t36.5 77t52 48.5t61 23.5q-6 9 -12 16t-15 18q-17 -8 -33 -16l-32 -16q-4 -2 -11 -5t-15 -7q-9 15 -13 23l-6 12t-3 7t-3 8q-3 5 -3.5 5.5t-2 3t-5 12t-11.5 32.5q20 6 35 11t38 14q-17 17 -39.5 40t-51.5 52l126 42q24 -23 45 -44l41 -41
q16 8 40 20.5t53 27.5q8 -20 20 -46.5t33 -59.5l-37 -9q-8 -2 -12.5 -3t-7.5 -2l-7.5 -2.5t-12.5 -5.5q73 -90 105.5 -172.5t32.5 -171.5q0 -71 -17.5 -120.5t-46 -80.5t-64.5 -44.5t-72 -13.5t-71.5 13.5t-64 44.5t-46 80.5t-17.5 120.5zM279 246q0 31 -3.5 59.5
t-11.5 50.5t-21 35t-32 13q-20 0 -32.5 -13t-20.5 -35t-11 -50.5t-3 -59.5q0 -30 3 -58.5t11 -50.5t20.5 -35t32.5 -13q19 0 32 13t21 35t11.5 50.5t3.5 58.5z" />
    <glyph glyph-name="ntilde" unicode="&#xf1;" horiz-adv-x="372" 
d="M232 287q0 48 -10 73.5t-27 25.5q-28 0 -40.5 -29t-12.5 -82v-75q0 -42 1.5 -96t8.5 -128q-1 0 -6 2.5l-11 5.5l-11 5.5t-6 2.5q-14 3 -25 5.5t-13 2.5q-5 0 -24 -4t-48 -11q7 70 8.5 122t1.5 93v92q0 41 -1.5 93.5t-8.5 123.5q30 -8 48.5 -12t23.5 -4q10 0 64 16v-21
q15 8 32 13t37 5q25 0 51 -8.5t47 -30.5t34 -59.5t13 -94.5v-37.5t-1 -39.5q-1 -19 -1.5 -44t-0.5 -44q0 -15 0.5 -37t1 -45t1 -45t1.5 -36q-26 7 -44 11t-23 4q-1 -1 -11 -3t-19 -4q-5 -2 -18.5 -4.5t-16.5 -3.5v28t0.5 38t1 38t0.5 28q0 7 0.5 17t0.5 16q1 20 1.5 41
t0.5 41v55v0zM34 522q3 28 12 58t22.5 54t33 39.5t43.5 15.5q19 0 32.5 -6t37.5 -21q13 -9 17.5 -12t6.5 -3q-1 0 2 13.5t6 30.5h92q-2 -19 -9 -47.5t-20.5 -55.5t-34.5 -46.5t-51 -19.5t-70 28q-7 3 -14 8t-9 6q2 -1 -0.5 -10t-7.5 -32h-89z" />
    <glyph glyph-name="ograve" unicode="&#xf2;" horiz-adv-x="406" 
d="M8 246q0 71 17.5 120.5t45.5 80t63.5 45t71.5 14.5l-101 86q-14 11 -26.5 27.5t-12.5 43.5q0 16 6 28t15 20.5t19.5 12.5t19.5 4q17 0 32 -10t26 -26q13 -18 33.5 -45.5t41.5 -55.5t40 -53t29 -38h-74q30 -7 58 -25t49.5 -49t34 -75.5t12.5 -104.5q0 -71 -18 -120.5
t-46.5 -80.5t-64 -44.5t-71.5 -13.5t-72 13.5t-64.5 44.5t-46 80.5t-17.5 120.5zM141 246q0 -30 3 -58.5t11 -50.5t20.5 -35t32.5 -13q19 0 32 13t20.5 35t11 50.5t3.5 58.5q0 31 -3.5 59.5t-11 50.5t-20.5 35t-32 13q-20 0 -32.5 -13t-20.5 -35t-11 -50.5t-3 -59.5z" />
    <glyph glyph-name="oacute" unicode="&#xf3;" horiz-adv-x="406" 
d="M222 692q13 17 27.5 26.5t31.5 9.5q9 0 19.5 -4t19.5 -12.5t15 -20.5t6 -28q0 -29 -12.5 -44.5t-26.5 -26.5l1 1q-13 -11 -25.5 -22t-26.5 -22q-12 -11 -25.5 -22.5t-25.5 -20.5q36 0 71.5 -14.5t63.5 -45t45.5 -80t17.5 -120.5t-18 -120.5t-46.5 -80.5t-64 -44.5
t-71.5 -13.5t-72 13.5t-64.5 44.5t-46 80.5t-17.5 120.5q0 60 12.5 104.5t33.5 75.5t49 49t58 25h-72zM131 246q0 -30 3 -58.5t11 -50.5t20.5 -35t32.5 -13q19 0 32 13t20.5 35t11 50.5t3.5 58.5q0 31 -3.5 59.5t-11 50.5t-20.5 35t-32 13q-20 0 -32.5 -13t-20.5 -35
t-11 -50.5t-3 -59.5z" />
    <glyph glyph-name="ocircumflex" unicode="&#xf4;" horiz-adv-x="411" 
d="M5 246q0 72 17.5 121.5t46 80t64.5 44.5t72 14t71.5 -14t64 -44.5t46.5 -80t18 -121.5q0 -71 -18 -120.5t-46.5 -80.5t-64 -44.5t-71.5 -13.5t-72 13.5t-64.5 44.5t-46 80.5t-17.5 120.5zM206 574q-5 -6 -11 -13t-11 -12v1q-10 -12 -21.5 -25.5t-19.5 -24.5h-105l122 224
h88l125 -224h-104zM138 246q0 -30 3 -58.5t11 -50.5t20.5 -35t32.5 -13q19 0 32 13t20.5 35t11 50.5t3.5 58.5q0 31 -3.5 59.5t-11 50.5t-20.5 35t-32 13q-20 0 -32.5 -13t-20.5 -35t-11 -50.5t-3 -59.5z" />
    <glyph glyph-name="otilde" unicode="&#xf5;" horiz-adv-x="416" 
d="M8 246q0 72 17.5 121.5t46 80t64.5 44.5t72 14t71.5 -14t64 -44.5t46.5 -80t18 -121.5q0 -71 -18 -120.5t-46.5 -80.5t-64 -44.5t-71.5 -13.5t-72 13.5t-64.5 44.5t-46 80.5t-17.5 120.5zM57 522q3 28 11.5 58t22 54t33 39.5t43.5 15.5q20 0 33.5 -6.5t36.5 -20.5
q10 -6 17 -11q4 -3 7 -4q-1 0 2 13.5t6 30.5h92q-2 -19 -9 -47.5t-20.5 -55.5t-34.5 -46.5t-51 -19.5t-70 28q-7 3 -14 8t-9 6q2 -1 0 -10t-7 -32h-89zM141 246q0 -30 3 -58.5t11 -50.5t20.5 -35t32.5 -13q19 0 32 13t20.5 35t11 50.5t3.5 58.5q0 31 -3.5 59.5t-11 50.5
t-20.5 35t-32 13q-20 0 -32.5 -13t-20.5 -35t-11 -50.5t-3 -59.5z" />
    <glyph glyph-name="odieresis" unicode="&#xf6;" horiz-adv-x="415" 
d="M7 246q0 72 17.5 121.5t46 80t64.5 44.5t72 14t71.5 -14t64 -44.5t46.5 -80t18 -121.5q0 -71 -18 -120.5t-46.5 -80.5t-64 -44.5t-71.5 -13.5t-72 13.5t-64.5 44.5t-46 80.5t-17.5 120.5zM70 606q0 17 5.5 32.5t15.5 27t22.5 18t27.5 6.5q22 0 40 -15t26 -38
q8 23 25.5 38t40.5 15q15 0 27.5 -6.5t22.5 -18t15.5 -27t5.5 -32.5q0 -33 -21 -57.5t-50 -24.5q-23 0 -40.5 14.5t-25.5 37.5q-8 -23 -26 -37.5t-40 -14.5q-29 0 -50 24.5t-21 57.5zM140 246q0 -30 3 -58.5t11 -50.5t20.5 -35t32.5 -13q19 0 32 13t20.5 35t11 50.5
t3.5 58.5q0 31 -3.5 59.5t-11 50.5t-20.5 35t-32 13q-20 0 -32.5 -13t-20.5 -35t-11 -50.5t-3 -59.5z" />
    <glyph glyph-name="divide" unicode="&#xf7;" horiz-adv-x="391" 
d="M-12 324h414v-121h-414v121zM119 88q0 36 22.5 62t53.5 26t53.5 -26t22.5 -62t-22.5 -62t-53.5 -26t-53.5 26t-22.5 62zM119 439q0 18 6 33.5t16.5 27.5t24.5 19t29 7t29 -7t24.5 -19t16.5 -27.5t6 -33.5q0 -36 -22.5 -62t-53.5 -26t-53.5 26t-22.5 62z" />
    <glyph glyph-name="oslash" unicode="&#xf8;" horiz-adv-x="454" 
d="M31 246q0 72 17.5 121.5t46 80t64.5 44.5t72 14q24 0 48.5 -6t47.5 -21q12 20 26 47.5t27 59.5q38 -76 78 -99q-23 -23 -38.5 -42t-26.5 -35q17 -31 27.5 -70.5t10.5 -93.5q0 -71 -18 -120.5t-46.5 -80.5t-64 -44.5t-71.5 -13.5q-28 0 -53 6t-48 23q-5 -6 -9 -13.5
t-7 -12.5t-17 -29.5t-25 -51.5q-16 35 -35 60t-37 36q4 5 12.5 15t18.5 22t19 24.5t15 22.5q-15 29 -24.5 67.5t-9.5 89.5zM193 110q16 -21 38 -21q19 0 32.5 13t21 35t11 50.5t3.5 58.5q0 9 0.5 11t1.5 1l-2 10zM265 388q-8 6 -17 11t-17 5q-19 0 -32 -13t-20.5 -35
t-11 -50.5t-3.5 -59.5q0 -8 -1 -8q0 -2 1 -3z" />
    <glyph glyph-name="ugrave" unicode="&#xf9;" 
d="M82 592q-14 11 -26.5 27.5t-12.5 43.5q0 16 6 28t15 20.5t19.5 12.5t19.5 4q17 0 32 -10t26 -26q13 -18 33.5 -45.5t41.5 -55.5t40 -53t29 -38h-51q28 -7 39 -7q5 0 21.5 4.5t44.5 15.5q-2 -35 -3 -77t-2 -85t-1.5 -85t-0.5 -78q0 -20 0.5 -47t1 -55.5t1.5 -55t2 -45.5
q-2 0 -7.5 1.5t-11.5 3t-11.5 3t-6.5 1.5q-10 2 -16.5 4t-10.5 2t-21 -5t-43 -13v25q-15 -11 -32.5 -15.5t-35.5 -4.5q-69 0 -109 47.5t-40 135.5q0 26 0.5 48t1.5 41q1 16 1 30v29t-0.5 40t-1 52t-1 53.5t-0.5 45.5q54 -16 66 -16q11 0 67 17q-2 -26 -3.5 -64t-2.5 -79
l-2 -82t-1 -74q0 -38 4 -58.5t11 -29.5q5 -7 11.5 -11.5t14.5 -4.5q14 0 24.5 10t15.5 23v-1q4 11 6 21.5t3.5 28.5t2 47t0.5 77v42t-0.5 51t-1 51t-1.5 43h-36z" />
    <glyph glyph-name="uacute" unicode="&#xfa;" 
d="M195 692q13 17 27.5 26.5t31.5 9.5q9 0 19.5 -4t19.5 -12.5t15 -20.5t6 -28q0 -29 -12.5 -44.5t-26.5 -26.5l1 1q-13 -11 -25.5 -22t-26.5 -22t-30 -24.5t-28 -24.5h-36q-1 -27 -2.5 -63.5t-2.5 -76.5t-2 -79t-1 -70q0 -38 4 -58.5t11 -29.5q5 -7 11.5 -11.5t14.5 -4.5
q14 0 24.5 10t15.5 23v-1q4 11 6 21.5t3.5 28.5t2 47t0.5 77v45t-0.5 55t-1 54t-1.5 42q54 -16 67 -16q5 0 21.5 4.5t44.5 15.5q-2 -35 -3 -77t-2 -85t-1.5 -85t-0.5 -78q0 -20 0.5 -47t1 -55.5t1.5 -55t2 -45.5q-2 0 -7.5 1.5t-11.5 3t-11.5 3t-6.5 1.5q-10 2 -16.5 4
t-10.5 2t-21 -5t-43 -13v25q-15 -11 -32.5 -15.5t-35.5 -4.5q-69 0 -109 47.5t-40 135.5q0 26 0.5 48t1.5 41q1 16 1 30v29t-0.5 40t-1 52t-1 53.5t-0.5 45.5q54 -16 66 -16q3 0 11.5 2t22.5 5h-46z" />
    <glyph glyph-name="ucircumflex" unicode="&#xfb;" horiz-adv-x="363" 
d="M8 170q0 26 0.5 48t1.5 41q1 16 1 30v29t-0.5 40t-1 52t-1 53.5t-0.5 45.5l8 -3l120 218h88l121 -215q2 1 4.5 1.5t5.5 2.5q-2 -35 -3 -77t-2 -85t-1.5 -85t-0.5 -78q0 -20 0.5 -47t1 -55.5t1.5 -55t2 -45.5q-2 0 -7.5 1.5t-11.5 3t-11.5 3t-6.5 1.5q-10 2 -16.5 4
t-10.5 2t-21 -5t-43 -13v25q-15 -11 -32.5 -15.5t-35.5 -4.5q-69 0 -109 47.5t-40 135.5zM222 509q5 -2 10.5 -3.5t10.5 -3.5l-61 72q-5 -6 -11 -13t-11 -12v1q-9 -11 -19.5 -23.5t-19.5 -22.5q5 2 10 3t10 3q-2 -26 -3.5 -64t-2.5 -79l-2 -82t-1 -74q0 -38 4 -58.5
t11 -29.5q5 -7 11.5 -11.5t14.5 -4.5q14 0 24.5 10t15.5 23v-1q4 11 6 21.5t3.5 28.5t2 47t0.5 77v45t-0.5 55t-1 54t-1.5 42zM74 493q3 0 11.5 2t22.5 5h-72q28 -7 38 -7zM289 493q8 0 30 7h-69q28 -7 39 -7z" />
    <glyph glyph-name="udieresis" unicode="&#xfc;" horiz-adv-x="371" 
d="M12 170q0 26 0.5 48t1.5 41q1 16 1 30v29t-0.5 40t-1 52t-1 53.5t-0.5 45.5q54 -16 66 -16q11 0 67 17q-2 -26 -3.5 -64t-2.5 -79l-2 -82t-1 -74q0 -38 4 -58.5t11 -29.5q5 -7 11.5 -11.5t14.5 -4.5q14 0 24.5 10t15.5 23v-1q4 11 6 21.5t3.5 28.5t2 47t0.5 77v45
t-0.5 55t-1 54t-1.5 42q54 -16 67 -16q5 0 21.5 4.5t44.5 15.5q-2 -35 -3 -77t-2 -85t-1.5 -85t-0.5 -78q0 -20 0.5 -47t1 -55.5t1.5 -55t2 -45.5q-2 0 -7.5 1.5t-11.5 3t-11.5 3t-6.5 1.5q-10 2 -16.5 4t-10.5 2t-21 -5t-43 -13v25q-15 -11 -32.5 -15.5t-35.5 -4.5
q-69 0 -109 47.5t-40 135.5zM48 606q0 17 5.5 32.5t15.5 27t22.5 18t27.5 6.5q22 0 40 -15t26 -38q8 23 25.5 38t40.5 15q15 0 27.5 -6.5t22.5 -18t15.5 -27t5.5 -32.5q0 -33 -21 -57.5t-50 -24.5q-23 0 -40.5 14.5t-25.5 37.5q-8 -23 -26 -37.5t-40 -14.5q-29 0 -50 24.5
t-21 57.5z" />
    <glyph glyph-name="yacute" unicode="&#xfd;" 
d="M204 692q13 17 28 26.5t31 9.5q9 0 19.5 -4t19.5 -12.5t15 -20.5t6 -28q0 -29 -12.5 -44.5t-26.5 -26.5l1 1q-13 -11 -25.5 -22t-26.5 -22t-29.5 -24.5t-28.5 -24.5h-59q10 -41 17.5 -71t15 -58.5t17.5 -60t24 -75.5q19 63 38 134.5t34 139.5q45 -16 49 -16q2 0 24.5 7.5
t60.5 21.5q-7 -19 -26.5 -74t-45 -129t-54 -159.5t-54.5 -165t-46 -145.5t-28 -101q-5 2 -10 3.5t-10 3.5l-12 4q-4 2 -7 2.5t-5 1.5q-3 1 -4 1q-3 0 -16 -3.5t-33 -11.5l-24 26q34 72 58.5 136t42.5 120q-8 29 -21.5 72t-29 92.5t-31.5 100.5t-30 95.5t-24.5 77.5t-15.5 47
q38 -13 60 -18t27 -5q6 0 17 1.5t27 5.5h-40z" />
    <glyph glyph-name="thorn" unicode="&#xfe;" horiz-adv-x="386" 
d="M28 452q0 31 -1 74t-2 87.5t-3 83.5t-3 62q56 -17 71 -17q5 0 23.5 4.5t45.5 13.5q-1 -20 -2.5 -54t-2.5 -73t-2 -78.5t-1 -72.5q16 11 35.5 17.5t43.5 6.5q32 0 63.5 -15t56 -46t39.5 -80t15 -116q0 -66 -16 -115t-42 -82t-59 -49t-66 -16q-20 0 -37.5 4t-32.5 13
q0 -32 1 -68.5t2 -72t2.5 -65.5t2.5 -49q-25 8 -43.5 11.5t-25.5 3.5q-8 0 -26.5 -3.5t-44.5 -11.5q1 22 3 61.5t3 83.5t2 87t1 74v397zM271 250q0 42 -5 70t-13 44.5t-18 23t-20 6.5q-18 0 -30 -12t-19.5 -33t-11 -48.5t-3.5 -58.5q0 -148 62 -148q15 0 25.5 12t18 33
t11 49.5t3.5 61.5z" />
    <glyph glyph-name="ydieresis" unicode="&#xff;" horiz-adv-x="360" 
d="M25 -225q34 72 58.5 136t42.5 120q-8 29 -21.5 72t-29 92.5t-31.5 100t-30 95t-25 77.5t-15 47q36 -12 58.5 -17t28.5 -5q14 0 58 11q10 -42 17.5 -72.5t15.5 -59.5t18 -60.5t24 -76.5q19 63 38 134.5t34 139.5q45 -16 49 -16q2 0 24.5 7.5t60.5 21.5q-7 -19 -26.5 -74
t-45 -129t-54 -159.5t-54.5 -165t-46 -145.5t-28 -101q-5 2 -10 3.5t-10 3.5l-12 4q-4 2 -7 2.5t-5 1.5q-3 1 -4 1q-3 0 -16 -3.5t-33 -11.5zM47 606q0 17 5.5 32.5t15.5 27t22.5 18t27.5 6.5q22 0 40 -15t26 -38q8 23 25.5 38t40.5 15q15 0 27.5 -6.5t22.5 -18t15.5 -27
t5.5 -32.5q0 -33 -21 -57.5t-50 -24.5q-23 0 -40.5 14.5t-25.5 37.5q-8 -23 -26 -37.5t-40 -14.5q-29 0 -50 24.5t-21 57.5z" />
    <glyph glyph-name="dotlessi" unicode="&#x131;" horiz-adv-x="150" 
d="M11 292q0 37 -1.5 89t-9.5 129q29 -9 47.5 -13t25.5 -4q5 0 23.5 4t48.5 12q-8 -71 -9.5 -123.5t-1.5 -93.5v-92q0 -41 1.5 -93t9.5 -122q-23 5 -40.5 9t-25.5 6q-2 -2 -15.5 -4t-23.5 -4l-40 -7q8 77 9.5 127.5t1.5 87.5v92z" />
    <glyph glyph-name="Lslash" unicode="&#x141;" horiz-adv-x="371" 
d="M69 418q0 29 -0.5 65.5t-1.5 74t-2.5 74t-2.5 65.5q26 -7 45 -11t27 -4t26.5 4t44.5 11q0 -8 -0.5 -20.5t-1 -26t-1 -26.5t-0.5 -22q-1 -34 -2 -71t-1 -70q2 2 6 5.5t7 6.5q6 5 14.5 11.5t26.5 19.5q19 -68 39 -107q-14 -9 -41 -27.5t-52 -38.5v-63v-53.5v-38v-31v-33.5
q18 0 37.5 0.5t43 2.5t52 6t64.5 11q-5 -28 -9.5 -49.5t-4.5 -22.5q0 -3 3.5 -23.5t8.5 -45.5l-37.5 2.5t-46.5 3t-46.5 2.5t-38.5 1t-37.5 -0.5t-44 -1.5t-44 -2.5t-37.5 -2.5q2 59 4.5 113.5t2.5 112.5q-9 -11 -18 -20.5t-18 -20.5q-11 46 -22 73.5t-22 47.5q6 5 20 14
t20 13q12 9 20.5 14.5t19.5 14.5v63z" />
    <glyph glyph-name="lslash" unicode="&#x142;" horiz-adv-x="206" 
d="M32 -15q1 19 3 50t3.5 67t2.5 74t1 71q-5 -5 -14.5 -14t-10.5 -10q-1 3 -4 9.5t-6 13.5t-6 13.5t-4 9.5q-4 10 -9 20t-16 30l19 19q2 2 6 5.5t5 4.5q6 5 10.5 8.5t8.5 6.5t9 7t12 10v72q0 31 -1 74.5t-2.5 87.5t-3 83.5t-3.5 62.5q29 -9 47.5 -13.5t23.5 -4.5t23.5 4
t47.5 13q-2 -20 -3.5 -52.5t-2 -70t-1.5 -76.5t-1 -72q14 13 29 26.5t19 17.5q0 -40 8.5 -72.5t19.5 -45.5l-30 -21t-14 -11q-8 -6 -10 -7q-4 -3 -9 -7t-13 -11v-67q0 -31 0.5 -74t1.5 -87t2.5 -83t3.5 -61q-29 7 -47.5 11t-23.5 4q-6 0 -25.5 -4t-45.5 -11z" />
    <glyph glyph-name="OE" unicode="&#x152;" horiz-adv-x="770" 
d="M574 250q0 -29 0.5 -58.5t1.5 -59.5q0 -8 0.5 -12.5t0.5 -7.5q53 2 102 9t81 13q-12 -38 -16.5 -54.5t-4.5 -20.5q0 -6 4 -21t13 -47q-14 1 -35.5 2.5t-45 3t-45.5 2.5t-36 1q-15 0 -35.5 -1t-42.5 -2.5t-42.5 -3t-35.5 -2.5q1 14 1.5 22t1.5 13q-26 -17 -61 -29.5
t-78 -12.5q-55 0 -103.5 24t-85 68.5t-57.5 108.5t-21 145q0 90 21 158.5t58.5 115t88.5 70.5t112 24q45 0 77 -11t55 -27q-1 10 -1 18.5v11.5q14 -1 33.5 -2.5t40 -2.5t40 -2t33.5 -1q13 0 34 1t43 2.5t42.5 3t34.5 2.5q-6 -30 -9 -48.5t-3 -20.5t3.5 -22t11.5 -55
q-36 8 -74.5 16t-99.5 10v-17q-1 -26 -1.5 -51.5t-0.5 -51.5v-37q23 0 39 0.5t27.5 1.5t19.5 2t15 2h19h9.5t13 0.5t11.5 0.5h6q-6 -26 -9.5 -41.5t-3.5 -20.5t3.5 -20.5t9.5 -41.5h-40q-6 0 -11.5 0.5t-6.5 0.5q-14 2 -35 3.5t-67 2.5v-54zM174 341q0 -65 11 -112t30 -78
t44.5 -45.5t53.5 -14.5q32 0 57.5 18t43 51t27 79t9.5 102q0 68 -10 115.5t-27.5 77.5t-41.5 43.5t-52 13.5q-30 0 -56.5 -14.5t-46 -45.5t-31 -78t-11.5 -112z" />
    <glyph glyph-name="oe" unicode="&#x153;" horiz-adv-x="691" 
d="M483 506q44 0 77 -17.5t55 -47.5t33 -69.5t11 -84.5q0 -4 -0.5 -13t-1.5 -19.5t-1.5 -21.5t-1.5 -18h-51q-10 0 -19 0.5t-15 0.5q-23 1 -45.5 1.5t-46.5 0.5q-14 0 -26.5 -0.5t-25.5 -1.5q2 -51 22.5 -85t56.5 -34q18 0 44.5 24.5t49.5 62.5l50 -50l-9 -73
q-14 -15 -31 -28t-36 -23.5t-39.5 -16.5t-39.5 -6q-39 0 -71 14.5t-58 40.5q-28 -30 -62 -42.5t-71 -12.5q-36 0 -71.5 13.5t-64 44.5t-46 80.5t-17.5 120.5q0 72 17.5 121.5t46 80t64 44.5t71.5 14q35 0 68 -11.5t60 -40.5q47 52 124 52zM300 246q0 31 -3.5 59.5
t-11.5 50.5t-21 35t-33 13q-19 0 -32 -13t-20.5 -35t-11 -50.5t-3.5 -59.5q0 -30 3.5 -58.5t11 -50.5t20.5 -35t32 -13q20 0 33 13t21 35t11.5 50.5t3.5 58.5zM485 404q-23 0 -36 -26t-18 -57q11 -1 23 -1h23h25.5t26.5 1q-2 31 -11.5 57t-32.5 26z" />
    <glyph glyph-name="Scaron" unicode="&#x160;" horiz-adv-x="358" 
d="M249 877h104l-102 -186q24 -8 46 -23.5t45 -39.5q-11 -29 -18 -56t-14 -65h-67q-3 12 -7.5 27t-11 27.5t-15 21t-18.5 8.5q-21 0 -35.5 -20.5t-14.5 -53.5q0 -21 6.5 -36t18 -26.5t25.5 -20t29 -16.5q24 -13 48 -28t43 -36.5t31 -53t12 -78.5q0 -48 -14 -91.5t-40 -76
t-63.5 -51.5t-84.5 -19q-27 0 -49.5 6.5t-41 17.5t-34 25t-28.5 28q4 14 7 27.5t5.5 28.5t4 32t3.5 39h68q6 -16 14 -32t18.5 -29.5t22.5 -22t26 -8.5q28 0 43.5 27t15.5 65q0 20 -6.5 34.5t-17.5 26t-24.5 20t-28.5 16.5q-24 13 -48 28t-43 38t-31 57t-12 84q0 71 28 121
t82 70q-12 22 -26.5 47.5t-28.5 51t-28 50t-25 45.5h104l63 -75z" />
    <glyph glyph-name="scaron" unicode="&#x161;" horiz-adv-x="291" 
d="M209 724h104l-124 -223q11 -2 20 -6t17 -8l6 -4q1 -1 9.5 -4t37.5 -14q-5 -12 -9.5 -29l-9 -34t-7.5 -33t-3 -26h-72q-5 23 -13.5 39.5t-16.5 16.5t-14.5 -9t-6.5 -30q0 -19 15.5 -29t32.5 -18q19 -8 39 -17.5t36 -26t26 -41.5t10 -63q0 -32 -11 -64t-32 -57.5t-50 -41
t-65 -15.5q-38 0 -71.5 17t-58.5 36q6 17 13 51.5t7 63.5h70q4 -9 9.5 -19.5t12 -20t13.5 -15.5t14 -6q12 0 21 10.5t9 32.5q0 20 -14.5 29t-32.5 16q-20 8 -40 18t-36 26.5t-26 42t-10 65.5q0 63 26.5 107.5t77.5 58.5h-12l-122 224h104l63 -74z" />
    <glyph glyph-name="Ydieresis" unicode="&#x178;" horiz-adv-x="441" 
d="M91 761q0 34 20.5 58t49.5 24q23 0 40.5 -15t25.5 -38q8 23 26 38t41 15q29 0 49.5 -24t20.5 -58q0 -20 -7.5 -37.5t-20.5 -28.5q19 -6 32 -9.5t17 -3.5q3 0 15.5 3.5t28.5 7.5q2 1 10 3.5t17 5.5l16.5 5.5t8.5 2.5q-32 -65 -62 -128.5t-56.5 -119t-46.5 -100.5t-32 -73
q0 -33 1 -77t2 -87.5t2.5 -81t2.5 -57.5q-27 6 -45.5 10t-25.5 4q-6 0 -19 -2.5t-30 -6.5l-23 21q6 63 7 130t1 138q-8 18 -23.5 52.5t-34.5 77t-40.5 88.5t-40.5 87t-33.5 72t-21.5 45q40 -8 68 -14t36 -6q16 0 55 9q-14 12 -22.5 30t-8.5 40zM231 429q26 58 52 125.5
t50 137.5q-19 -14 -39 -14q-23 0 -41 14.5t-26 37.5q-8 -23 -25.5 -37.5t-40.5 -14.5q-17 0 -33 9q3 -7 6 -14.5t5 -10.5q14 -35 24 -61.5t19.5 -52t20.5 -53.5t28 -66z" />
    <glyph glyph-name="Zcaron" unicode="&#x17d;" horiz-adv-x="456" 
d="M296 877h105l-110 -195h59q12 0 26 1t28 3h17h9t12 0.5t11 0.5h6v-66q-12 -18 -32 -53t-45 -80t-53 -97t-54.5 -102.5t-50 -96.5t-39.5 -80q24 0 60.5 2t75 5t75.5 7t63 8v-5t-0.5 -11.5t-0.5 -12.5v-9v-17q-3 -14 -3 -18v-2q0 -3 1 -5q0 -3 1.5 -11t3 -17t2.5 -18t2 -15
q-24 1 -51 2.5t-54 2.5t-52 1.5t-44 0.5q-26 0 -63 -1t-75 -2t-71 -3t-49 -3v68q36 66 76 140.5t77 145t68 130.5t49 96q-24 0 -56.5 -2t-67 -5t-68.5 -6.5t-62 -6.5q6 26 10.5 48t4.5 23q0 7 -5 32q-1 5 -3 18t-3 19q11 -1 28 -2.5t37 -2.5t41 -2t39 -1l-106 194h104
l63 -74z" />
    <glyph glyph-name="zcaron" unicode="&#x17e;" horiz-adv-x="362" 
d="M3 56q19 31 39.5 65.5t40.5 70t39.5 70t36.5 66.5q8 14 15.5 27.5t15.5 25.5q-20 -2 -43 -3.5t-45.5 -3.5t-42.5 -4t-33 -3q5 21 7.5 33t4 19t1.5 10v5v4.5t-1 9.5t-3.5 19.5t-6.5 34.5q49 -6 100 -7.5t115 -1.5q12 0 23.5 0.5t25.5 1t32 2.5t43 5v-65q-27 -47 -55 -95.5
t-53.5 -93t-46.5 -81.5t-34 -60q16 0 34 1.5t39.5 3.5t49 5.5t62.5 7.5v-6t-0.5 -11t-0.5 -12v-9v-18q-1 -5 -1 -7v-4v-4.5t1 -6.5v-19q0 -5 0.5 -18.5t0.5 -14.5h-16t-23.5 0.5t-24 1t-16.5 0.5q-29 2 -62 2.5t-62 0.5q-44 0 -87 -3h1q-4 0 -8 -0.5t-11.5 -1t-19.5 -0.5
h-31v61zM249 724h104l-125 -224h-88l-122 224h104l63 -74z" />
    <glyph glyph-name="florin" unicode="&#x192;" horiz-adv-x="347" 
d="M41 -23q8 -7 17 -14t8 -7q5 0 8.5 19.5t8.5 54.5v-1q5 42 10 80.5t10 76.5q3 19 5 34.5l4 31t4 32.5t5 38q-14 -1 -32.5 -3t-46.5 -5q7 24 12 58.5t5 66.5q24 -4 45 -7t31 -3q1 6 3 15q7 37 20 78t33.5 75t48 56t62.5 22q7 0 26.5 -6t39.5 -15q-7 -24 -11 -57t-4 -63
l-64 -21q-6 13 -11.5 23t-4.5 10q0 -2 -1 -6t-1.5 -9.5t-1.5 -15.5q-2 -27 -5 -43t-6 -43q2 0 4 0.5t4 0.5h2q2 0 5.5 0.5t11 1t21 0.5h35.5q-7 -24 -13.5 -56.5t-6.5 -61.5q-30 4 -49 6t-27 2q-2 -8 -3 -15t-2 -15q-5 -34 -9 -67.5t-9 -67.5q-15 -111 -41.5 -177
t-59.5 -101t-70.5 -45.5t-74.5 -10.5q9 40 14 71.5t5 60.5z" />
    <glyph glyph-name="circumflex" unicode="&#x2c6;" horiz-adv-x="276" 
d="M138 574q-5 -6 -11 -13t-11 -12v1q-10 -12 -21.5 -25.5t-19.5 -24.5h-105l122 224h88l125 -224h-104z" />
    <glyph glyph-name="caron" unicode="&#x2c7;" horiz-adv-x="273" 
d="M200 724h104l-125 -224h-88l-122 224h104l63 -74z" />
    <glyph glyph-name="breve" unicode="&#x2d8;" horiz-adv-x="272" 
d="M95 715q6 -42 15 -64t25 -22q15 0 24 22t18 64h89q0 -44 -8 -83t-24.5 -68t-41 -46.5t-56.5 -17.5q-33 0 -58 17.5t-41.5 46.5t-24.5 68t-8 83h91z" />
    <glyph glyph-name="dotaccent" unicode="&#x2d9;" horiz-adv-x="140" 
d="M-3 604q0 35 21 59t50 24t50 -24t21 -59q0 -17 -5.5 -32t-15.5 -26.5t-22.5 -18t-27.5 -6.5t-27.5 6.5t-22.5 18t-15.5 26.5t-5.5 32z" />
    <glyph glyph-name="ring" unicode="&#x2da;" horiz-adv-x="216" 
d="M1 614q0 26 8.5 49.5t23 41t34 27.5t41.5 10t41 -10t33 -27.5t22.5 -41t8.5 -49.5t-8.5 -49.5t-22.5 -41t-33.5 -27.5t-41.5 -10t-41 10t-33.5 27.5t-23 41t-8.5 49.5zM103 614q0 -17 4 -17q5 0 5 17q0 7 -1 12t-3 5t-3.5 -5t-1.5 -12z" />
    <glyph glyph-name="ogonek" unicode="&#x2db;" horiz-adv-x="203" 
d="M226 74q-33 -41 -53 -67t-31 -43t-14.5 -26.5t-3.5 -15.5q0 -14 7 -16q-1 1 4.5 2.5t10.5 3.5q2 1 7.5 3.5l11 5t10.5 4.5t6 3l20 -101q-43 -28 -79 -28q-22 0 -42.5 7t-36.5 21.5t-25.5 35.5t-9.5 49q0 34 24.5 73.5t73.5 88.5h120z" />
    <glyph glyph-name="tilde" unicode="&#x2dc;" horiz-adv-x="311" 
d="M3 522q3 28 11.5 58t22 54t33 39.5t43.5 15.5q20 0 33.5 -6.5t36.5 -20.5q10 -6 17 -11q4 -3 7 -4q-1 0 2 13.5t7 30.5h91q-2 -19 -9 -47.5t-20.5 -55.5t-34.5 -46.5t-51 -19.5t-70 28q-7 3 -14 8t-9 6q2 -1 0 -10t-7 -32h-89z" />
    <glyph glyph-name="hungarumlaut" unicode="&#x2dd;" horiz-adv-x="362" 
d="M127 544q-13 -11 -27 -23t-25 -21h-115l143 192q13 17 28 26.5t32 9.5q8 0 17.5 -3.5t18 -10.5t15 -17.5t7.5 -24.5l16 20q13 17 28 26.5t32 9.5q9 0 19.5 -4t19.5 -12.5t15 -20.5t6 -28q0 -29 -12.5 -44t-24.5 -26l-26 -22t-27 -22t-30 -24.5t-28 -24.5h-114z" />
    <glyph glyph-name="endash" unicode="&#x2013;" horiz-adv-x="462" 
d="M26 301h409v-116h-409v116z" />
    <glyph glyph-name="emdash" unicode="&#x2014;" horiz-adv-x="836" 
d="M45 301h746v-116h-746v116z" />
    <glyph glyph-name="quoteleft" unicode="&#x2018;" horiz-adv-x="136" 
d="M102 430l1 2q-2 -11 -6.5 -22.5t-12 -21t-19.5 -15.5t-28 -6q-21 0 -41.5 16t-20.5 51q0 14 3.5 25.5t8.5 21.5q1 1 1 2t1 2q10 23 22 50l24 54q6 13 13.5 29.5l15 33t14.5 32t12 27.5l71 -36z" />
    <glyph glyph-name="quoteright" unicode="&#x2019;" horiz-adv-x="136" 
d="M34 637l-1 -1q2 10 6.5 21t12.5 20t19 15t27 6q21 0 42 -16t21 -51q0 -14 -4.5 -27.5t-9.5 -24.5q-1 -1 -0.5 0t-0.5 -1q-11 -23 -23 -50t-23 -53q-6 -14 -13 -30t-14.5 -32.5t-14 -31.5t-11.5 -27l-72 36z" />
    <glyph glyph-name="quotesinglbase" unicode="&#x201a;" horiz-adv-x="137" 
d="M35 114l-1 -1q3 10 7.5 21t12 20t19 15t26.5 6q21 0 42 -16t21 -51q0 -14 -4.5 -28t-9.5 -25q-1 -1 -0.5 0t-0.5 -1q-11 -23 -23 -49.5t-23 -52.5q-6 -14 -13 -30t-14.5 -32.5t-14 -31.5t-11.5 -27l-72 36z" />
    <glyph glyph-name="quotedblleft" unicode="&#x201c;" horiz-adv-x="295" 
d="M150 540q19 44 40.5 90t36.5 81l71 -36l-59 -246l1 1q-5 -22 -20 -42.5t-46 -20.5q-16 0 -32.5 9.5t-24.5 30.5q-8 -17 -21.5 -28.5t-36.5 -11.5q-10 0 -21 4t-20 12t-14.5 20.5t-5.5 30.5q0 14 3 25t8 22l-1 -1q1 1 2 3q10 24 23.5 53.5t27.5 60.5t27 61t24 53l71 -36z
" />
    <glyph glyph-name="quotedblright" unicode="&#x201d;" horiz-adv-x="294" 
d="M54 637l-1 -1q4 21 19 41.5t48 20.5q15 0 32 -9.5t24 -31.5q8 17 21.5 29t37.5 12q10 0 21 -4t20 -12t14.5 -20.5t5.5 -30.5q0 -14 -4.5 -27.5t-9.5 -24.5q-10 -24 -23.5 -53.5t-27 -60.5t-26.5 -60t-23 -51l-71 36l33 138q-20 -44 -41.5 -92t-35.5 -82l-71 36z" />
    <glyph glyph-name="quotedblbase" unicode="&#x201e;" horiz-adv-x="295" 
d="M55 114l-1 -1q3 10 7.5 21t12.5 20t19.5 15t27.5 6q15 0 31.5 -9.5t24.5 -30.5q7 16 21 28t38 12q10 0 21 -4t20 -12t14.5 -20.5t5.5 -30.5q0 -14 -4.5 -28t-9.5 -25q-8 -17 -16.5 -36t-16.5 -39q-8 -17 -17 -37l-18 -40t-17.5 -39t-14.5 -33l-71 36l33 139
q-5 -12 -10 -26q-8 -17 -17 -37l-18 -40t-17.5 -39t-14.5 -33l-71 36z" />
    <glyph glyph-name="dagger" unicode="&#x2020;" horiz-adv-x="322" 
d="M3 487q31 -5 55 -7.5t42 -3.5q0 48 -1.5 106t-10.5 115q2 0 8.5 -1.5t14 -3t13.5 -3t8 -1.5q10 -2 16.5 -4t12.5 -2q5 0 24 5.5t48 13.5q-8 -56 -10 -116.5t-2 -108.5q20 1 48.5 4t77.5 12q-6 -32 -9.5 -54t-3.5 -26q0 -2 3.5 -24t9.5 -53q-48 8 -77 11.5t-49 4.5
q0 -52 0.5 -100.5t1.5 -100.5q0 -14 0.5 -31.5t0.5 -37.5q0 -10 0.5 -24l1 -28t1 -26t0.5 -19l-36 9q-11 3 -18.5 5t-11.5 2q-6 0 -23.5 -4t-43.5 -11q2 88 4 182.5t2 183.5q-20 -1 -48 -4.5t-76 -11.5q4 29 8 52.5t4 24.5q0 4 -2 16.5t-5 29.5q0 2 -0.5 5t-0.5 5z" />
    <glyph glyph-name="daggerdbl" unicode="&#x2021;" horiz-adv-x="328" 
d="M106 341q0 6 -0.5 11.5t-0.5 10.5v26q0 3 -0.5 2.5t-0.5 -1.5v-1v5q-11 0 -22 -0.5t-25 -2.5t-33 -5t-45 -8q4 29 8 53t4 26q0 1 -1 8t-3 18t-4 25l-4 28q45 -8 75 -12t49 -5q0 32 -2 79.5t-6 98.5q26 -7 44 -11t25 -4q5 0 13.5 2t19.5 5q1 1 7 3.5t12 5.5l11 5.5t6 2.5
q-5 -64 -7 -112t-2 -75q20 1 48.5 4t77.5 12q-6 -31 -9.5 -52.5t-3.5 -25.5t3.5 -25.5t9.5 -53.5q-47 8 -77 12t-50 4v-10q-1 -11 -1 -21v-22v-23.5t1 -22.5v-7q20 0 48 3t79 13q-6 -32 -9.5 -53.5t-3.5 -25.5t3.5 -25.5t9.5 -52.5q-48 8 -77 11.5t-49 4.5q1 -33 2.5 -84.5
t5.5 -102.5q-1 0 -6 2.5t-11.5 5.5t-11.5 5.5t-6 2.5q-12 3 -20 5.5t-13 2.5q-7 0 -25 -4t-44 -11q5 64 6.5 107.5t1.5 70.5q-20 -1 -48 -4.5t-76 -11.5q4 28 8 52t4 26t-4 26.5t-8 53.5q47 -9 76.5 -12.5t49.5 -4.5v31q0 6 0.5 11.5t0.5 10.5z" />
    <glyph glyph-name="bullet" unicode="&#x2022;" horiz-adv-x="340" 
d="M19 341q0 39 12 73.5t32 60t47.5 40.5t59.5 15q31 0 58.5 -15t47.5 -40.5t32 -60t12 -73.5t-12 -73.5t-32 -60t-47.5 -40.5t-58.5 -15q-32 0 -59.5 15t-47.5 40.5t-32 60t-12 73.5z" />
    <glyph glyph-name="ellipsis" unicode="&#x2026;" horiz-adv-x="667" 
d="M258 77q0 36 22.5 62t53.5 26t53.5 -26t22.5 -62t-22.5 -61.5t-53.5 -25.5t-53.5 25.5t-22.5 61.5zM35 77q0 36 22 62t53 26t53 -26t22 -62t-22 -61.5t-53 -25.5t-53 25.5t-22 61.5zM482 77q0 36 22 62t53 26q32 0 53.5 -26t21.5 -62t-21.5 -61.5t-53.5 -25.5
q-31 0 -53 25.5t-22 61.5z" />
    <glyph glyph-name="perthousand" unicode="&#x2030;" horiz-adv-x="746" 
d="M31 495q0 52 12 86.5t31 55.5t42.5 29.5t45.5 8.5q20 0 41.5 -7.5t40 -26t31.5 -48.5t16 -75l76 192l25.5 -13.5t10.5 -5.5q-2 0 3.5 3t13.5 7q4 2 13.5 7t21 10.5t21 10.5t13.5 7l-160 -404q26 13 54 13q29 0 58.5 -15t49.5 -55q20 42 50 56t59 14q22 0 45.5 -8.5
t42.5 -29t31 -55t12 -86.5t-12 -86.5t-31 -55.5t-42.5 -29.5t-45.5 -8.5q-29 0 -59 16t-50 54q-20 -38 -49.5 -54t-58.5 -16q-20 0 -41.5 7.5t-40 25.5t-32 47.5t-16.5 73.5l-74 -188q-14 6 -24 10.5t-12 6.5q-1 -1 -3.5 -2.5t-5.5 -3.5q-4 -3 -15 -8.5l-23 -11.5t-23.5 -11
t-15.5 -8l158 404q-26 -13 -53 -13q-22 0 -45.5 9t-42.5 30t-31 55.5t-12 85.5zM589 166q0 -38 2.5 -62t8.5 -24q7 0 9.5 24t2.5 62q0 37 -2.5 61t-9.5 24q-6 0 -8.5 -24t-2.5 -61zM372 166q0 -38 2 -62t9 -24q6 0 8.5 24t2.5 62q0 37 -2.5 61t-8.5 24q-7 0 -9 -24t-2 -61z
M150 495q0 -37 2.5 -60.5t9.5 -23.5q6 0 8.5 23.5t2.5 60.5t-2.5 61t-8.5 24q-7 0 -9.5 -24t-2.5 -61z" />
    <glyph glyph-name="guilsinglleft" unicode="&#x2039;" horiz-adv-x="158" 
d="M100 502q14 -32 33.5 -57t42.5 -30l-89 -170l26 -51q7 -14 15 -31t16.5 -35t16 -34t12.5 -27q-9 -2 -19.5 -9.5t-21 -20t-19.5 -28.5t-15 -33l-126 268z" />
    <glyph glyph-name="guilsinglright" unicode="&#x203a;" horiz-adv-x="156" 
d="M-18 423q9 1 19.5 10t20 22.5t18 30.5t13.5 35l130 -278l-127 -256q-14 32 -34 57t-43 30l89 170z" />
    <glyph glyph-name="fraction" unicode="&#x2044;" horiz-adv-x="248" 
d="M179 700q6 -3 19 -9t20 -9l14 8l58 26l-221 -758q-19 11 -29.5 16t-8.5 5q-8 -4 -19 -10q-10 -5 -23.5 -12.5t-31.5 -16.5z" />
    <glyph glyph-name="Euro" unicode="&#x20ac;" horiz-adv-x="445" 
d="M426 590q-5 -20 -10 -44.5t-10 -59.5l-66 -1q-15 37 -35 57.5t-35 20.5q-26 0 -47 -29.5t-32 -97.5h71q9 0 18.5 0.5t24 2t34.5 5.5t49 12q-5 -14 -9.5 -30l-9 -32t-7.5 -30.5t-5 -24.5l7 -4q-6 -16 -11 -33.5t-8.5 -34t-6.5 -30.5t-4 -23q-35 7 -58 9.5t-39 2.5h-48
q11 -59 32.5 -92t47.5 -33q39 0 110 104l39 -77q-2 -13 -5.5 -35.5t-5.5 -36.5q-12 -15 -29.5 -27t-37.5 -21t-41 -14t-39 -5q-39 0 -72.5 15.5t-60.5 45.5t-45.5 73.5t-27.5 98.5q-13 -2 -30 -6t-37 -10q5 23 10.5 48.5t10.5 52.5q-8 -1 -21 -5q8 34 15.5 71.5t12.5 75.5
q14 -2 24 -4.5t18 -3.5q11 52 31.5 95.5t48 74t62 47.5t73.5 17q35 0 75.5 -16.5t69.5 -41.5zM337 352v-1q1 0 1.5 0.5t1.5 0.5h-3z" />
    <glyph glyph-name="trademark" unicode="&#x2122;" horiz-adv-x="669" 
d="M108 584q-24 -2 -56 -5.5t-57 -5.5q2 5 6 12.5t7 14.5l8 16q9 19 9 18q-1 0 -2 3q-2 2 -3.5 5t-3.5 8v-1q-2 5 -7 17t-11 26q18 -1 42 -3t47.5 -3.5t44 -2.5t31.5 -1q9 0 22.5 0.5t30 1.5t34 2t34.5 3l1 2h65q18 -51 41.5 -112.5t45.5 -113.5q0 -1 2 -3q11 25 23 54.5
t24.5 60t24.5 59.5t23 55h66l10 -148q1 -27 4 -60.5t7 -69t7.5 -70.5t6.5 -63q0 -3 1 -12t2.5 -18.5t2.5 -18.5t1 -12q-26 13 -43.5 21t-19.5 10q-3 -1 -7 -3q-3 -2 -7 -3t-9 -3l-33 -11v61q-2 26 -3 55t-3 62q-17 -42 -32 -84t-24 -71h-59q-6 20 -17 50t-21 54l1 -1
q-4 10 -8 19.5t-9 18.5q-2 -35 -3 -76t-1 -93q-15 7 -28 12t-18 8h1q-7 3 -8 4q-2 -2 -20 -10t-45 -22q5 27 11 67.5t12 84.5t11 86.5t8 74.5l5 49q-19 2 -29 4t-27 2v-90q0 -26 0.5 -61t1 -72t1.5 -72t2 -61q-26 10 -42 16t-17 6q1 0 -3.5 -2t-10.5 -4q-2 -1 -8.5 -3
t-14 -5t-14.5 -5.5t-10 -3.5q1 18 2 47t2 64.5t1.5 74t0.5 74.5v96z" />
    <glyph glyph-name="minus" unicode="&#x2212;" horiz-adv-x="467" 
d="M26 324h414v-121h-414v121z" />
    <glyph glyph-name="fi" unicode="&#xfb01;" horiz-adv-x="393" 
d="M243 292v42.5t-1 48.5h-40q-7 0 -13.5 0.5t-9.5 0.5h-7q0 -47 0.5 -98t1 -102.5t1 -102t1.5 -96.5q-26 7 -44 11t-24 4q-4 0 -22.5 -4t-45.5 -11q4 94 6 198.5t2 199.5h-13h-43q4 18 6.5 34t2.5 20q0 1 -0.5 4.5t-0.5 7.5q0 3 -1 9t-2 12.5l-2 13t-1 9.5h7t13 -0.5
t14 -0.5h10h11q3 26 8.5 54.5t13.5 55.5t19 50.5t23 40.5q17 22 43 39t55 17q7 0 20 -3.5t32 -8.5q0 -4 -0.5 -16.5t-0.5 -17.5v-19q0 -1 -0.5 -2t-0.5 -2q20 18 44 18q29 0 50 -24t21 -58q0 -35 -21 -58.5t-50 -23.5q-26 0 -45.5 18.5t-24.5 47.5l-16 -14q-29 26 -38 26
q-10 0 -14 -16.5t-4 -36.5q0 -11 1.5 -29t3.5 -38h27h18t22 1q-1 5 -1 16q29 -8 47.5 -12t23.5 -4q6 0 24.5 4t47.5 12q-7 -71 -8.5 -123.5t-1.5 -93.5v-92q0 -41 1.5 -93t8.5 -123q-2 0 -7.5 1.5t-12 3t-12.5 3t-7 1.5q-13 3 -21 5t-12 2q-5 0 -24.5 -4t-46.5 -11
q6 65 7.5 118t1.5 97v92z" />
    <glyph glyph-name="fl" unicode="&#xfb02;" horiz-adv-x="400" 
d="M247 383h-45q-7 0 -13.5 0.5t-9.5 0.5h-7q0 -47 0.5 -98t1 -102.5t1.5 -102t2 -96.5q-26 7 -44.5 11t-24.5 4q-4 0 -22.5 -4t-45.5 -11q4 94 6 198.5t2 199.5h-13h-43q4 18 7 34t3 20q0 2 -2 12q0 3 -1 9t-2 12.5l-2 13t-1 9.5h7t13 -0.5t14 -0.5h10h11q3 26 8.5 54.5
t14 55.5t19.5 50.5t23 40.5q16 22 42.5 39t55.5 17q6 0 29 -5q-1 4 -1 8v8q54 -18 70 -18q14 0 70 17q-2 -23 -3.5 -62t-3 -83.5t-2.5 -87.5t-1 -74v-162q0 -31 1 -74t2.5 -87t3 -83t3.5 -61q-26 7 -45 11t-25 4q-8 0 -26.5 -4t-43.5 -11q1 22 2.5 61t2.5 83t1.5 87t0.5 74
v93zM195 492h12t16 0.5t15 0.5h9q0 26 -0.5 55t-1.5 58l-26 -20q-29 26 -38 26t-13 -16.5t-4 -36.5q0 -11 1 -28.5t3 -38.5h27v0zM239 438q0 -1 2.5 -16.5t5.5 -33.5v64v41q-3 -22 -5.5 -37.5t-2.5 -17.5z" />
    <glyph glyph-name="glyph232" horiz-adv-x="720" 
d="M343 162q0 -2 -1.5 -6t-1.5 -5v-7h-4v10q4 4 7 8zM288 144q4 7 4 18h15q-7 0 -7 -8q0 -25 3 -32h4q2 5 7 14h4v-14h-11q-1 0 -2.5 1t-2.5 3t-2 3h-8q0 1 -2 6t-2 9zM374 110v15q3 0 5 1.5t3 2.5v-13q2 -1 4 -2.5t6 -3.5l1 -16q-6 7 -19 16zM89 627q24 7 64 7q25 0 37 -7
q10 -7 34 -7q19 9 22 18q29 0 33 24l9 4q2 3 7 5q5 0 5 2q5 2 7.5 6.5t10.5 4.5q1 3 7 6q7 2 7 5q32 0 32 18q8 0 13 6q4 7 12 7q1 2 9.5 5t8.5 6q7 0 10 3q12 8 16 8l9 4q7 2 7 7q11 0 22 4q11 3 19 3q0 4 7 8q7 2 8 3l89 19l42 -4l15 -8q7 -3 11 -7q10 -7 31 -18l7 -42
q-42 0 -42 5q-5 0 -14 4t-11 4q0 4 -1.5 5.5t-6.5 4.5h-68q-3 -3 -7 -10q-7 0 -21 -4t-21 -4q-13 -9 -18.5 -9t-14.5 -3q-4 0 -8 -6l-6 -6q-10 -3 -8 -3h-4q-1 -3 -8.5 -5l-7.5 -2q-3 0 -5.5 -2t-6.5 -5t-6 -5q-11 0 -15 -10q-5 0 -6 -2.5t-1 -9.5q-6 0 -13.5 -3.5t-8 -3.5
t-6.5 -4.5t-14 -4.5q-2 -1 -7 -2t-8 -6q-2 -1 -4 -4q-2 -5 -3 -6q-11 0 -11 -8q-4 0 -7 -1.5t-6 -4.5l-5 -5q-15 0 -15 -11q-5 0 -13 -7v-11q-4 -3 -6.5 -4t-4.5 -5v-15q6 -7 11 -7v-48q-6 0 -11 -9v-11q-2 -2 -4 -3q-3 -2 -7 -4v-22q-6 -3 -7 -4.5t-1 -10.5q0 -11 -3 -11
l-7 -7q-9 -4 -10.5 -6t-1.5 -10q-9 -4 -15 -8t-8 -11q-11 -11 -44 -11q-17 11 -35 11q-2 3 -7 11h-15q-3 0 -9 4q-7 4 -13 4q0 11 -11 16q0 7 -4 11q-10 0 -21 -1l-11 -1q-4 0 -11 7q-3 2 -6 2v55q2 3 5 5l6 4l4 83q1 0 2.5 1t2.5 3t2 3v15q5 2 6 6t5 4q0 1 10 4.5t10 7.5
q21 7 26 7zM385 132q-4 5 -7 7q-4 1 -15 1v18q6 -6 18 -14q0 -8 4 -12zM400 132q3 -3 3 -7q-3 3 -10 7h7zM403 125h7q5 2 12 10q6 9 10 9q-1 -4 -3.5 -6t-6.5 -6v-14l6 -4t4 -4q-4 0 -10 -7v-13l7 -7h17q1 -6 4 -10q2 -6 18 -12q3 11 3 22q-9 11 -22 11v31q3 0 11 7l-6 6
q-3 2 -5 6q2 -1 12 -5q6 -2 17 -5q6 -2 19 -2v-22q3 -2 6.5 -3.5t4.5 -3.5q0 -16 4 -20h9q3 3 3 14v6q9 0 13 1.5t9 5.5q-7 8 -11 8v14q3 0 11 8v26q-3 2 -6 3.5t-5 5.5q0 8 -1.5 10t-9.5 5q7 0 12.5 5t6.5 5v-10q0 -8 7 -8q3 -10 4 -11.5t7 -4.5q0 -15 8 -22h3q2 2 4 8t3 6
q20 7 20 24q5 0 18 8v-58h-7q-3 -3 -3 -14q-4 -1 -14 -8q10 -7 32 -7q0 -5 -2 -6.5t-5 -6.5v-36q-4 2 -5.5 3.5t-2 3.5t-3.5 7h-20q0 -2 -2 -6q-2 -6 -2 -8q-4 0 -11 -8q7 0 11 -3v-7q-2 -2 -5 -3.5t-6 -4.5v-16q-19 0 -22 -8v-7l1 -1q0 1 -4 1q0 3 -2 8t-2 7q-18 0 -23 -8
v-7q11 -11 22 -11v-7h-7q-12 -5 -21 -7q-4 -1 -10 -1v15q7 0 7 7q0 35 -3 43h-3q-8 -8 -8 -39q-7 0 -11 -4v-14h-26l-4 -8v-38q-10 0 -24 -4q9 -7 14 -7v-18q-6 2 -6 6q0 3 -7 5h-4q-5 -2 -6 -5q-2 -4 -5 -6v18q3 0 11 7q0 57 -7 64h-4q-1 -1 -3 -2l-1 -1l4 3q-4 4 -11 4
q0 31 -7 39h-4q-6 -3 -5 -21q1 -34 1 -31v-55q0 -1 4 -3t4 -4v-7q0 -1 -3.5 -4.5t-3.5 -6.5h-29v25q0 2 -1 3l-4 2q-2 1 -5 3q-2 7 -7 16h-4q-7 -7 -7 -24q3 -2 7 -3l4 -4v-7q-5 -4 -15 -11q3 0 11 11v7q0 7 -18 7q-15 0 -18 -7v-11q0 4 -7 4q0 10 -5 15q-5 4 -16 7v16l-7 4
h-15v14q-6 8 -11 8q-4 12 -22 18v31q11 3 11 15q2 0 5.5 1.5t5.5 1.5q0 19 -4 22h-7q-3 -3 -3 -14q-5 0 -19 -8v44q4 0 7 2t4 2v38h18v-14q-5 0 -7 -4q-2 -2 -3 -4q29 0 36 8v7l-4 4l4 -4h17q0 -31 3 -35h-9l-7 -7v-15q-6 -2 -7 -3.5t-4 -10.5q-4 0 -11 -8h35v-10
q-9 -4 -13 -8q0 -11 7 -24q10 4 21 17v22h7q1 -12 3 -31h8q4 3 4 16q18 0 21 8v7l-7 7l7 4v14q3 -2 8 -3.5t7 -3.5q0 -8 1 -9.5t5 -8.5q27 0 32 11v9h-1q1 -2 5 -2q6 8 6.5 11t0.5 11q3 0 11 7v20q-7 8 -11 8q0 2 -2 4t-2 3zM617 129q2 -1 3 -2l1 -2h8q0 -3 -4 -7h-3
q-5 4 -5 11zM629 125q0 4 3 7q0 -2 -1 -3q-2 -3 -2 -4zM632 132v50q4 0 11 8v10h15l4 8v22h7v-90q-1 -2 -5 -3q-3 -2 -6 -5v-14l-14 -8q0 19 -8 22h-4zM456 -67q2 -1 3 -2l1 -2v3q-1 1 -4 1zM460 -71q4 -1 9 -8l6 -6q0 7 -7 14h-8zM468 -67q3 9 3 31h15q2 -2 3 -4q0 -4 4 -6
q2 -1 4 -1q-2 -2 -5 -3.5t-6 -3.5v-9q0 -5 -3 -5q-3 1 -6 1h-9zM414 -10q-1 -5 -1 -15v-12q0 -20 -2 -26h-4v49q3 0 7 4zM307 -89l3 -4q0 3 -1 4h-2zM310 -93q4 0 8 -3q-8 0 -8 3zM264 129q-3 0 -7 3v12l-7 7h-15v15q11 0 11 9v7q-1 3 -5.5 5t-5.5 3v10q-6 8 -11 8
q3 0 7 2.5t4 4.5v7q0 3 -4 4q-5 2 -7 4v34h8v-16l3 -7h15v-33q-8 0 -8 -8v-7q0 -3 8 -3v-24q2 -1 6 -4t5 -4v-26zM296 90q4 4 4 20h13q-2 -1 -3.5 -3t-2.5 -4v-31q-1 1 -3 2.5t-4 1.5q0 7 -4 14zM307 72l4.5 -2t6.5 -2h-8q-1 1 -1 2zM318 68q1 7 7 15v-15h-7zM531 237
q2 -2 3 -4l4 -2q2 -1 4 -1l1 -15h-18q0 8 -1.5 10t-11.5 5q0 34 -4 42h-3q-4 -2 -5 -8q-2 -6 -3 -7h-4v15h15q1 6 4 14h9v-14q8 -8 11 -8zM511 305q0 7 -6 7q-8 -7 -12 -7v14h15q0 -3 1.5 -8t1.5 -6zM300 290h-12q0 -2 -1.5 -6t-1.5 -5q-27 -7 -28 -7v25h15l7 8v14
q27 0 31 20q18 5 22 22h15q0 -29 7 -34h4q6 5 6 20q7 4 10 7v15q9 -8 11 -8h8q-1 0 7 8q0 -18 7 -22h4l3.5 7l3.5 7h15q1 -5 4 -11q1 -1 9 -3q-14 0 -14 -8v-7q4 -5 36 -5v-15h-39q-2 2 -3 8q-3 6 -4 7h-4q-2 -5 -7 -15h-4q-2 3 -7 15h-15q0 -6 -3 -15h-8q0 4 -3 15h-28
q-2 -6 -7 -15q-10 0 -20 -8z" />
    </font>
</defs>
</svg>
