<?xml version="1.0" standalone="no"?>
<!DOCTYPE svg PUBLIC "-//W3C//DTD SVG 1.1//EN" "http://www.w3.org/Graphics/SVG/1.1/DTD/svg11.dtd" >
<svg xmlns="http://www.w3.org/2000/svg" xmlns:xlink="http://www.w3.org/1999/xlink" version="1.1">
<metadata>
Created by FontForge 20170731 at Mon Apr 12 07:34:31 2004
 By Aleksey,,,
Copyright (c) LDO Fonts, 2004. All rights reserved.
</metadata>
<defs>
<font id="OregonLDOUltraBlack-Oblique" horiz-adv-x="176" >
  <font-face 
    font-family="Oregon LDO UltraBlack"
    font-weight="900"
    font-style="oblique"
    font-stretch="normal"
    units-per-em="1000"
    panose-1="2 11 11 3 6 4 2 2 2 4"
    ascent="800"
    descent="-200"
    x-height="501"
    cap-height="694"
    bbox="-122 -274 1088 897"
    underline-thickness="50"
    underline-position="-150"
    slope="-12"
    unicode-range="U+0020-FB02"
  />
<missing-glyph horiz-adv-x="278" 
 />
    <glyph glyph-name=".notdef" horiz-adv-x="278" 
 />
    <glyph glyph-name=".null" horiz-adv-x="0" 
 />
    <glyph glyph-name="nonmarkingreturn" horiz-adv-x="278" 
 />
    <glyph glyph-name="space" unicode=" " horiz-adv-x="278" 
 />
    <glyph glyph-name="space" unicode="&#xa0;" horiz-adv-x="278" 
 />
    <glyph glyph-name="exclam" unicode="!" horiz-adv-x="174" 
d="M-57 76q5 25 22 45.5t40 31.5h-2q1 13 3.5 31t5 37.5t5 38t4.5 32.5q3 26 7.5 59.5t9 69t9 69t8 61t6 45.5t3.5 22q9 44 38 62t59 18q15 0 28.5 -4t22.5 -13.5t12.5 -25t-0.5 -37.5q-2 -7 -10.5 -38t-22 -76.5t-30 -101t-32.5 -110.5q-4 -14 -9.5 -33t-11.5 -38.5
t-11.5 -37.5t-9.5 -30h-3q19 -11 28 -31.5t4 -45.5q-4 -18 -14 -33.5t-24.5 -27.5t-32 -19t-35.5 -7t-32 7t-23 19t-12.5 27.5t0.5 33.5z" />
    <glyph glyph-name="quotedbl" unicode="&#x22;" horiz-adv-x="289" 
d="M52 698h119l-71 -330h-118zM186 698h119l-71 -330h-119z" />
    <glyph glyph-name="numbersign" unicode="#" horiz-adv-x="442" 
d="M124 388h-81q10 15 21 35t21 40t17 38.5t10 31.5h72q15 37 24.5 58.5t13.5 31.5q1 5 3 14t4 17t3.5 14.5l1.5 6.5q25 -8 37 -11t14 -3q3 0 25 5.5t67 17.5q-2 -4 -8 -10q24 -8 36.5 -10.5t14.5 -2.5q3 0 24.5 5.5t67.5 17.5q-18 -26 -30.5 -44t-22 -33.5t-17.5 -32.5
t-18 -41h78q-10 -15 -21 -34.5t-20 -40t-16 -39t-10 -31.5h-72q-6 -15 -12 -27.5t-11.5 -26t-12 -28.5t-14.5 -33h79q-9 -15 -19.5 -35t-20 -40t-17 -39t-10.5 -32h-73q-2 -5 -4 -9t-4 -9q-17 -43 -28.5 -73.5t-14.5 -38.5h-7t-13 0.5t-13 0.5h-7q-8 2 -10 2q-1 -1 -3 -1
t-3 -0.5t-3 -0.5h-10t-20.5 -0.5t-20.5 -0.5h-10q16 27 31 54.5t35 75.5h-30q-3 -9 -7 -18q-18 -43 -29.5 -73.5t-14.5 -38.5h-7t-12.5 0.5t-12.5 0.5h-7l-10 2q-2 0 -10 -2h-10t-19.5 -0.5t-19.5 -0.5h-10q7 13 14.5 26t15 28t16 33.5t18.5 42.5h-78q11 16 22 35.5t20.5 40
t16.5 39t9 31.5h73zM259 388h-31q-6 -15 -12 -27.5t-11.5 -26t-12 -28.5t-14.5 -33h31zM356 623q2 8 5.5 24t4.5 22q-15 -21 -25.5 -37t-18.5 -30.5t-15.5 -30.5t-16.5 -38h28q15 37 24.5 58.5t13.5 31.5z" />
    <glyph glyph-name="dollar" unicode="$" horiz-adv-x="442" 
d="M164 284q-37 17 -62.5 35t-40 40t-18 50.5t4.5 66.5q15 71 68 121.5t128 69.5q3 32 -4 97q32 -12 51.5 -18.5t21.5 -6.5q3 0 24 6t56 17q-20 -42 -29 -63.5t-11 -26.5q50 -7 80.5 -26t52.5 -38q-22 -28 -36.5 -55t-30.5 -63h-64q-3 18 -8.5 39t-18.5 30l-34 -159
q36 -16 62.5 -33t42.5 -38.5t21 -49t-3 -64.5q-8 -36 -26 -70t-45 -62.5t-61.5 -50t-75.5 -33.5q-4 -22 -7 -51t-5 -75q-26 10 -43.5 16t-19.5 6t-22.5 -6t-52.5 -16q28 69 40 113q-44 2 -83 19.5t-77 54.5q10 16 17 29.5t13 28t11.5 30t11.5 35.5h63q14 -41 32 -61.5
t37 -26.5zM235 122q11 11 20.5 28t13.5 33q2 12 1 23.5t-12 24.5zM220 546q-19 -17 -25 -46t5 -47z" />
    <glyph glyph-name="percent" unicode="%" horiz-adv-x="851" 
d="M62 490q8 40 28 73.5t49 58.5t65.5 39t77.5 14q40 0 70.5 -14t49 -39t24 -58.5t-2.5 -73.5q-9 -40 -29 -74t-49 -58.5t-65.5 -38.5t-76.5 -14q-41 0 -71.5 14t-48.5 38.5t-24 58.5t3 74zM428 171q8 39 28 73t49 58.5t65 38.5t77 14t71.5 -14t49 -38.5t24 -58.5t-2.5 -73
q-9 -40 -29 -74t-49 -58.5t-65.5 -38.5t-77.5 -14t-71 14t-48 38.5t-24 58.5t3 74zM631 704q34 -13 37 -13q2 0 29 9t72 25l-553 -769q-34 13 -36 13t-29.5 -9t-72.5 -25zM201 490q-8 -36 -4 -64t26 -28q21 0 37.5 28t24.5 64t3 64t-26 28q-22 0 -37.5 -28t-23.5 -64z
M566 171q-4 -18 -5 -34.5t1.5 -29.5t8.5 -20.5t17 -7.5q22 0 38 28t24 64q4 18 5 34t-1.5 29t-9 20.5t-17.5 7.5t-20.5 -7.5t-17 -20.5t-13.5 -29t-10 -34z" />
    <glyph glyph-name="ampersand" unicode="&#x26;" horiz-adv-x="641" 
d="M162 504q7 36 27 67t48 54t62.5 36.5t72.5 13.5q68 0 104 -35t22 -102q-6 -26 -20 -49.5t-33.5 -44.5t-42 -39t-45.5 -32q11 -20 19.5 -36t16.5 -30.5t17.5 -29.5t21.5 -33q32 38 69.5 88.5t82.5 116.5q13 -49 29 -74t32 -38q-44 -52 -84 -95.5t-77 -80.5
q12 -19 27.5 -42t31.5 -46t30 -43.5t23 -33.5h-65.5t-33.5 1q-21 3 -36 3q-7 0 -17.5 -1t-20.5 -3h-35q-7 19 -13.5 33t-14.5 27q-45 -33 -94 -52.5t-111 -19.5q-42 0 -77 12t-58 35.5t-32 58.5t1 81q13 63 65 117.5t124 90.5q-13 32 -18 62.5t2 62.5zM137 188
q-4 -17 -0.5 -33.5t13.5 -29t26 -20t37 -7.5q29 0 53 8t47 24q-26 43 -47.5 79.5t-46.5 84.5q-32 -20 -53 -45.5t-29 -60.5zM380 539q4 17 -3.5 28t-24.5 11q-19 0 -32 -14.5t-18 -34.5q-3 -14 0.5 -36t10.5 -42q30 21 46 44t21 44z" />
    <glyph glyph-name="quotesingle" unicode="'" horiz-adv-x="144" 
d="M45 698h118l-71 -330h-117z" />
    <glyph glyph-name="parenleft" unicode="(" horiz-adv-x="215" 
d="M309 649q-48 -48 -80.5 -92t-55 -87.5t-36.5 -88t-24 -93.5q-11 -49 -15.5 -93.5t-1 -88t18 -87.5t41.5 -92l-81 -64q-68 95 -90 205.5t1 219.5q22 105 91.5 217t178.5 208z" />
    <glyph glyph-name="parenright" unicode=")" horiz-adv-x="215" 
d="M-95 -73q47 48 79.5 92t54.5 87.5t36 88t25 93.5q10 49 15 93.5t1 88t-18 87.5t-41 92l80 64q69 -95 91.5 -205.5t-0.5 -219.5q-11 -52 -34.5 -107t-58 -110t-79 -107.5t-98.5 -99.5z" />
    <glyph glyph-name="asterisk" unicode="*" horiz-adv-x="366" 
d="M161 701q29 -11 43 -15t19 -4t20.5 4.5t51.5 15.5l-35 -115q31 20 61 39.5t49 31.5q-3 -34 9.5 -66t38.5 -52l-126 -52q27 -14 53.5 -28t43.5 -23q-26 -17 -52 -47.5t-38 -67.5l-83 67q-4 -30 -7 -60t-5 -49q-23 5 -41 10t-22 5q-3 0 -23.5 -3.5t-45.5 -8.5l33 106
q-32 -20 -61 -38.5t-48 -30.5q3 36 -9 67t-35 49l120 51l-55 27.5l-45 22.5q11 8 24 20.5t25 29t21.5 36t14.5 40.5l89 -75z" />
    <glyph glyph-name="plus" unicode="+" horiz-adv-x="512" 
d="M5 322h204l43 204h118l-43 -204h204l-25 -118h-204l-43 -204h-118l43 204h-203z" />
    <glyph glyph-name="comma" unicode="," 
d="M78 114v-1q5 10 12.5 20.5t18 19.5t24 14.5t30.5 5.5q11 0 22.5 -4t20 -12t12.5 -20.5t0 -29.5q-4 -18 -12 -30l-16 -24q-1 -1 -2 -2.5t-3 -2.5l3 3q-18 -24 -40.5 -51.5t-45.5 -56t-45 -56t-41 -51.5l-71 26z" />
    <glyph glyph-name="hyphen" unicode="-" horiz-adv-x="336" 
d="M33 307h295l-27 -128h-295z" />
    <glyph glyph-name="period" unicode="." 
d="M0 76q4 18 14 34t24 27.5t31.5 18.5t35.5 7q36 0 56 -25.5t13 -61.5q-4 -18 -14 -33.5t-24.5 -27.5t-32 -19t-35.5 -7t-32 7t-23 19t-12.5 27.5t-0.5 33.5z" />
    <glyph glyph-name="slash" unicode="/" horiz-adv-x="334" 
d="M325 712q17 -6 28 -10t13 -4t26.5 7.5t62.5 19.5l-447 -755q-17 6 -27.5 10t-12.5 4t-26.5 -7.5t-62.5 -19.5z" />
    <glyph glyph-name="zero" unicode="0" horiz-adv-x="534" 
d="M21 330q15 71 41 133.5t65 109.5t91.5 74.5t121.5 27.5q76 0 118 -27.5t59 -74.5t14 -109.5t-18 -133.5q-15 -68 -42.5 -130.5t-68 -110t-93 -75.5t-116.5 -28q-75 0 -117 27.5t-59 74t-14 109t18 133.5zM166 330q-11 -52 -15.5 -96.5t0.5 -77.5t20.5 -51.5t43.5 -18.5
t51.5 18.5t42 51.5t33.5 77.5t26 96.5t15 96.5t-1 77.5t-20.5 51.5t-43.5 18.5q-56 0 -92.5 -66.5t-59.5 -177.5z" />
    <glyph glyph-name="one" unicode="1" horiz-adv-x="278" 
d="M148 520q-26 -13 -52.5 -26t-43.5 -22q-6 22 -15.5 37t-19.5 23l10 50q67 25 135.5 53.5t128.5 55.5l39 -23q-16 -59 -33 -128t-30 -128l-32 -150q-6 -29 -12.5 -64.5t-13 -72.5t-12.5 -72.5t-10 -64.5q-26 6 -47 9t-32 3q-26 0 -84 -12q8 29 17.5 65t19 72.5t18 72
t14.5 64.5z" />
    <glyph glyph-name="two" unicode="2" horiz-adv-x="480" 
d="M88 549q54 65 111 95.5t123 30.5q43 0 78 -11t58.5 -35t32 -61t-2.5 -88q-8 -35 -22 -64.5t-35.5 -58t-50.5 -56.5t-67 -60q-8 -6 -16 -13t-17 -14h1q-21 -17 -34 -27t-23.5 -18t-20.5 -17t-25 -25h8q32 0 68 1t70.5 2.5t64 3.5t48.5 3q-14 -29 -22.5 -48.5t-9.5 -23.5
q-2 -13 0 -71q-23 1 -54 2t-63.5 2t-63.5 1.5t-55 0.5t-54 -0.5t-61 -1.5t-61 -2t-54 -2l14 65q76 62 131.5 109.5t96 84.5t67 66t43 54.5t26 50t15.5 52.5q10 48 -4 71t-40 23q-20 0 -37 -10.5t-30.5 -25.5t-23.5 -32t-15 -30l-55 -2z" />
    <glyph glyph-name="three" unicode="3" horiz-adv-x="459" 
d="M92 595q16 13 37 27.5t45 26t51 19t57 7.5q43 0 78.5 -10t59.5 -31t33.5 -53t0.5 -76q-11 -48 -37 -82.5t-58 -58.5q34 -17 53.5 -53.5t6.5 -98.5q-10 -48 -37.5 -89.5t-69 -72t-93.5 -47.5t-112 -17q-51 0 -93 16t-77 34q5 8 11 20t12 25t11 26t8 23l53 25q7 -11 17 -23
t23 -22t27.5 -17t31.5 -7q50 0 85.5 31.5t46.5 82.5q11 54 -9.5 76t-60.5 22q-7 0 -33 -5.5t-55 -12.5q4 13 8.5 25t8 22t5.5 15.5t2 4.5t1 19t3 43q28 -4 52 -7.5t29 -3.5q21 0 35.5 9.5t25 24.5t17 33t10.5 35q8 39 -7.5 56.5t-37.5 17.5q-24 0 -49 -22t-41 -49l-56 -2z
" />
    <glyph glyph-name="four" unicode="4" horiz-adv-x="508" 
d="M-30 224q34 37 72.5 78.5t77.5 84.5t77 85t72 80t62 69.5t47 54.5q36 -11 45 -11q6 0 25 4.5t45 12.5q-10 -39 -22 -87.5t-24 -101t-24 -105.5t-22 -101q23 2 52 6t53 9q-15 -32 -24.5 -52t-10.5 -23q-2 -5 -0.5 -24t2.5 -50q-30 5 -57.5 9t-40.5 5v-2q-7 -30 -12 -62
t-10 -56q0 -2 -2 -11t-3.5 -19.5t-3.5 -19t-2 -10.5q-27 6 -45.5 9.5t-26.5 3.5q-10 0 -31.5 -3.5t-50.5 -9.5q4 13 10.5 36t14 49t14 51t10.5 42v2q-30 0 -72 -1t-83 -2t-75 -2t-50 -2zM293 442q-38 -42 -75.5 -83.5t-63.5 -73.5h108z" />
    <glyph glyph-name="five" unicode="5" horiz-adv-x="461" 
d="M199 425q25 6 64 6q47 0 82 -16.5t56 -44.5t28 -65.5t-2 -78.5q-11 -50 -39 -93.5t-69 -76t-93 -51.5t-109 -19q-45 0 -88 12t-80 41l7 33q8 11 17.5 35t17.5 46h60q10 -33 36 -50t54 -17q19 0 39.5 8t38 24t31.5 40.5t21 57.5q6 28 2.5 48t-13.5 33t-25 18.5t-32 5.5
q-15 0 -30.5 -4.5t-29 -10.5t-24 -12.5t-16.5 -9.5l-41 33q17 45 28 87t19 82q8 35 15 79t11 86l43 25q6 -2 23.5 -3.5t35.5 -3.5q19 -1 45.5 -1.5t61.5 -0.5q21 0 42.5 0.5t40 0.5t33.5 0.5t23 0.5l26 -30q-11 -20 -16.5 -35t-7.5 -25q0 -2 -0.5 -4.5t-1 -8.5t-0.5 -17v-29
q-30 6 -64 9.5t-68 5.5t-65 3t-55 1z" />
    <glyph glyph-name="six" unicode="6" horiz-adv-x="491" 
d="M471 601l-45 -37q-14 5 -28 7.5t-28 2.5q-30 0 -57 -15t-50 -39t-41.5 -54.5t-32.5 -61.5q22 11 48 18t55 7q28 0 63.5 -8.5t63.5 -31.5t42 -62.5t1 -102.5q-11 -53 -37 -96.5t-63.5 -75t-84.5 -49t-101 -17.5q-46 0 -84.5 16t-63.5 51t-32.5 91t9.5 136
q17 82 52.5 154.5t85.5 126.5t113 84.5t136 29.5q14 0 28 -2t32 -5zM307 206q11 53 -1 85.5t-52 32.5q-38 0 -70.5 -32.5t-43.5 -85.5t5.5 -86.5t52.5 -33.5q40 0 69 33.5t40 86.5z" />
    <glyph glyph-name="seven" unicode="7" horiz-adv-x="464" 
d="M530 601q-54 -68 -114.5 -145t-121.5 -156.5t-120.5 -159t-111.5 -151.5q-38 11 -50 11q-5 0 -35.5 -7t-78.5 -18q37 45 79 95.5t85 103t84.5 103.5t79.5 97.5t69 85.5t53 67q-55 -1 -134 -4t-163 -8q9 26 17 49.5t10 29.5q2 7 3.5 30t3.5 49q18 -2 41 -3.5t45.5 -3
t42.5 -3t32 -1.5q15 0 37 -0.5t46 -0.5h46.5h39.5h50h78z" />
    <glyph glyph-name="eight" unicode="8" horiz-adv-x="505" 
d="M-12 197q11 51 41.5 96.5t86.5 77.5q-22 20 -32.5 51.5t-1.5 73.5q7 36 28.5 68t54 57t73 39.5t87.5 14.5q54 0 90 -14t56.5 -37.5t26 -53.5t-1.5 -63q-8 -36 -30 -70t-57 -59q15 -10 27.5 -24.5t21 -34t10.5 -45t-5 -57.5q-11 -53 -38.5 -95.5t-66 -72.5t-85 -46.5
t-95.5 -16.5q-50 0 -90 14t-65.5 41t-35.5 66.5t1 89.5zM309 201q11 51 -5 83t-55 32t-69 -32t-41 -83t5.5 -83t55.5 -32t68.5 32t40.5 83zM349 495q7 32 -3 55.5t-42 23.5t-50.5 -23.5t-25.5 -55.5t2 -55.5t41 -23.5t51.5 23.5t26.5 55.5z" />
    <glyph glyph-name="nine" unicode="9" horiz-adv-x="498" 
d="M54 136q21 -23 42 -36.5t38 -13.5q29 0 54.5 14t47 37.5t39 54.5t31.5 66q-47 -26 -107 -26q-97 0 -142 56t-23 159q10 49 36 90.5t63 72t84 48t101 17.5q47 0 86.5 -16t65 -51t32.5 -91t-10 -136q-17 -82 -52.5 -154t-86 -125.5t-113 -84.5t-133.5 -31q-26 0 -52.5 7
t-43.5 15q0 16 -4.5 41t-11.5 48zM357 470q10 46 -7 75t-55 29q-37 0 -67 -34t-43 -93q-12 -58 2 -84t49 -26q22 0 42 11t35.5 30t27 42.5t16.5 49.5z" />
    <glyph glyph-name="colon" unicode=":" horiz-adv-x="185" 
d="M39 405q4 18 14 33.5t24 27.5t31.5 19t35.5 7q36 0 56 -26t13 -61q-4 -18 -14.5 -34t-24.5 -27.5t-31.5 -18.5t-35.5 -7q-36 0 -56 25.5t-12 61.5zM-30 76q4 18 14 34t24 27.5t31 18.5t35 7q36 0 56 -25.5t13 -61.5q-4 -18 -14 -33.5t-24.5 -27.5t-32 -19t-35.5 -7t-32 7
t-23 19t-12.5 27.5t0.5 33.5z" />
    <glyph glyph-name="semicolon" unicode=";" horiz-adv-x="192" 
d="M48 114v-1q5 10 12.5 20.5t18 19.5t24.5 14.5t31 5.5q11 0 22.5 -4t20 -12t12.5 -20.5t0 -29.5q-4 -18 -12 -30l-16 -24l-2.5 -2.5t-3.5 -2.5l4 3q-19 -24 -41 -51.5t-45 -56t-45.5 -56t-40.5 -51.5l-72 26zM86 405q4 18 14 33.5t24 27.5t31.5 19t35.5 7t32 -7t23.5 -19
t13.5 -27.5t0 -33.5t-14.5 -34t-25 -27.5t-31.5 -18.5t-35 -7t-32.5 7t-23.5 18.5t-12.5 27.5t0.5 34z" />
    <glyph glyph-name="less" unicode="&#x3c;" horiz-adv-x="549" 
d="M2 310l578 245l-27 -125l-397 -167q81 -42 164.5 -85t161.5 -82l-27 -126l-472 248z" />
    <glyph glyph-name="equal" unicode="=" horiz-adv-x="559" 
d="M564 291h-526l26 118h526zM527 117h-526l26 118h526z" />
    <glyph glyph-name="greater" unicode="&#x3e;" horiz-adv-x="548" 
d="M-5 97l397 166q-82 42 -165.5 85t-161.5 82l27 126l473 -248l-19 -92l-578 -245z" />
    <glyph glyph-name="question" unicode="?" horiz-adv-x="286" 
d="M-19 76q7 32 31 55.5t55 30.5q-15 4 -30.5 14t-26.5 26t-15 38t2 52q6 29 18.5 52.5t30 44t38 38.5t41.5 35q29 24 52.5 46.5t28.5 47.5q4 17 -7 27t-26 10q-16 0 -50.5 -25.5t-77.5 -67.5l14 151q32 17 67.5 32t73.5 15q41 0 70 -12.5t46 -33.5t22 -49t-2 -59
q-7 -32 -21 -57.5t-33 -48t-41 -41.5t-44 -37q-29 -24 -51.5 -46t-27.5 -44q-2 -5 0 -11t7 -6t15.5 5t17.5 9l56 -34q-15 -14 -29.5 -32.5t-18.5 -29.5q-14 -5 -27 -8.5t-24 -5.5q23 -10 34 -31.5t5 -49.5q-4 -18 -14 -33.5t-24.5 -27.5t-32 -19t-35.5 -7t-32 7t-23 19
t-12.5 27.5t0.5 33.5z" />
    <glyph glyph-name="at" unicode="@" horiz-adv-x="685" 
d="M674 407q-13 -58 -43.5 -105t-69.5 -80l-31 -101q-17 -13 -44.5 -29.5t-64 -31.5t-79.5 -25t-89 -10q-50 0 -98 19t-82.5 58t-49.5 98t2 139q13 60 49 117t90.5 102t124 72t149.5 27q84 0 135 -21.5t76.5 -57t30 -80.5t-5.5 -91zM391 417q2 14 0.5 23t-13.5 9
q-17 0 -32.5 -14t-28.5 -35t-23 -45.5t-15 -46.5q-5 -24 -3.5 -36t12.5 -12q17 0 34 17.5t31 42t24 51.5t14 46zM556 389q7 32 6.5 58.5t-11.5 47.5q-30 -72 -49 -117t-29.5 -71t-15 -37.5t-5.5 -17.5q13 3 28.5 14.5t30.5 29.5t27 42t18 51zM400 549q14 0 26.5 -2t23.5 -7
h54q-17 8 -39.5 12t-52.5 4q-47 0 -90 -19t-78 -52t-60.5 -78t-36.5 -97q-10 -45 -3 -79t27.5 -56.5t52.5 -33.5t73 -11q23 0 49.5 7t55.5 18q-26 2 -40.5 9t-21.5 20q-21 -14 -41.5 -21.5t-45.5 -7.5q-65 0 -91 39t-9 117q11 52 36 96t58.5 75.5t73 49t79.5 17.5z" />
    <glyph glyph-name="A" unicode="A" horiz-adv-x="662" 
d="M445 698q3 -18 8 -41.5t10 -48t10 -49.5t9 -47q10 -46 21 -98t23 -104.5t23 -103t21 -94t18 -76.5t13 -51q-39 7 -67.5 11t-39.5 4q-12 0 -31 -2.5t-45 -6.5q-4 62 -12.5 114t-18.5 100l-1.5 10.5t-1.5 6t-1.5 6t-1.5 9.5q-24 1 -46.5 1h-47.5h-23.5h-18.5t-19 -0.5
t-24 -0.5q-38 -63 -74.5 -127.5t-63.5 -121.5q-21 6 -36.5 9t-20.5 3q-6 0 -32.5 -5.5t-66.5 -14.5q52 79 113.5 171t123.5 187t122.5 187.5t111.5 172.5h66zM339 451q-17 -26 -33.5 -52t-33.5 -52h43h16h6.5h6.5h17z" />
    <glyph glyph-name="B" unicode="B" horiz-adv-x="520" 
d="M52 419q6 29 12.5 64t13.5 71.5t12.5 71.5t10.5 64q42 -3 76 -5.5t55 -2.5q11 0 22.5 0.5t23.5 1.5q13 1 25.5 2t24.5 1q46 0 85 -7.5t66 -26.5t38 -51t1 -81q-11 -49 -37.5 -85.5t-65.5 -61.5q42 -21 57.5 -60t1.5 -102q-13 -60 -46 -101t-76.5 -66.5t-92.5 -37
t-94 -11.5h-23t-23 1q-10 1 -19.5 2t-20.5 1q-21 0 -54 -2.5t-72 -5.5q8 29 17 64.5t18 72.5t17 72t14 64zM161 250q-6 -30 -11 -59.5t-10 -59.5q-1 -8 -1.5 -10.5t-1 -4t-1 -4.5t-1.5 -10q12 -1 25 -1h27q22 0 43 7.5t39 22t31.5 36t19.5 48.5q6 28 -2 45.5t-26.5 27.5
t-47.5 14t-66 4h-5zM208 411q25 0 50 4.5t47 15.5t37.5 28.5t21.5 44.5q5 25 -1.5 40.5t-21 23.5t-33.5 11t-38 3h-17t-16 -1q-2 -7 -3.5 -13t-3.5 -13q-8 -29 -15 -56.5t-13 -56.5l-7 -31h13z" />
    <glyph glyph-name="C" unicode="C" horiz-adv-x="655" 
d="M545 52q-13 -9 -37.5 -21t-56 -22.5t-67.5 -17.5t-73 -7q-79 0 -140.5 24t-100.5 69.5t-52 112t5 151.5t59.5 151t100 112t132 70t156.5 24q61 0 121.5 -17.5t108.5 -42.5q-14 -20 -22 -34t-13 -23.5t-8 -16t-6 -12.5q0 -2 -1.5 -8l-3 -12t-3 -11.5l-1.5 -5.5l-57 -2
q-7 10 -19.5 24t-30 26.5t-39.5 21t-48 8.5q-45 0 -87.5 -15t-77.5 -46t-61.5 -78.5t-39.5 -112.5q-14 -65 -8 -112.5t28 -78.5t58 -46t81 -15q27 0 55.5 9t55.5 22.5t50.5 28.5t40.5 26l32 -39z" />
    <glyph glyph-name="D" unicode="D" horiz-adv-x="706" 
d="M63 418q6 29 12.5 64t12.5 71.5t12 71.5t11 64q16 -1 39 -2t47 -2t46.5 -2t39.5 -1t32.5 0.5t32.5 1.5l36 2t35 1q88 0 146 -23t89 -66t36.5 -104.5t-10.5 -139.5q-21 -100 -70 -168.5t-111 -110.5t-130 -60.5t-127 -18.5h-31.5t-30.5 1q-14 1 -28.5 2t-28.5 1
q-15 0 -36.5 -0.5t-43.5 -1.5t-42.5 -2.5t-35.5 -2.5q7 29 16 64t18 71.5t17 71.5t14 64zM175 264q-5 -24 -9 -43.5t-7.5 -37.5t-7 -37t-6.5 -42q17 -2 38 -2.5t44 -0.5q43 0 88 10.5t85.5 38t72 77t48.5 127.5q14 67 7 110.5t-31 68.5t-62 34.5t-85 9.5q-29 0 -55 -1.5
t-50 -3.5q-21 -74 -37 -154z" />
    <glyph glyph-name="E" unicode="E" horiz-adv-x="416" 
d="M48 419q6 29 12.5 64t13 71t12 70.5t10.5 63.5q20 -1 46 -2t53 -2t53 -1.5t46 -0.5t47 1t55.5 2t55 2t46.5 2q-11 -27 -16.5 -43t-6.5 -22q-2 -6 -3 -22.5t-1 -43.5q-6 0 -19.5 1t-27.5 2t-27 2t-18 1q-19 2 -32 3.5t-28 3t-35.5 2t-54.5 0.5l-1 -5l-1 -4
q-4 -15 -8.5 -33t-8.5 -37q-5 -20 -8.5 -40.5t-7.5 -37.5v-4q66 1 122 4.5t106 7.5q-22 -55 -25 -67q-1 -9 -3 -68q-69 8 -128 10.5t-97 2.5l-20 -94q-5 -26 -8.5 -41t-5.5 -25t-3.5 -17t-2.5 -16q57 1 123.5 5t135.5 16q-14 -29 -21 -48.5t-9 -24.5q-1 -5 -1.5 -20.5
t0.5 -43.5q-20 1 -47 2.5t-55.5 2.5t-55.5 1.5t-48 0.5q-20 0 -46.5 -0.5t-54 -1.5t-54 -2t-46.5 -2q7 29 16 64.5t18 71.5t17 71t14 64z" />
    <glyph glyph-name="F" unicode="F" horiz-adv-x="413" 
d="M50 418q6 29 12.5 64t12.5 71t12 71t11 64q20 -1 45.5 -2t52.5 -2t53 -1.5t46 -0.5t47.5 0.5t56.5 1.5t58.5 2t53.5 2q-11 -27 -16.5 -43t-7.5 -21q-1 -5 -2 -22t-1 -46q-27 3 -60.5 5.5t-68.5 4.5t-68.5 3.5t-59.5 2.5q-5 -21 -9 -41t-9 -40q-4 -17 -6 -31t-6 -28
l-3 -18q50 1 111 3.5t132 9.5q-10 -23 -18 -43.5t-9 -23.5q-1 -5 -1.5 -25t0.5 -43q-65 7 -127 9.5t-112 2.5l-8 -40q-6 -29 -13 -64.5t-13.5 -73t-12.5 -73.5t-11 -65q-29 6 -49.5 9t-29.5 3q-8 0 -29.5 -3t-53.5 -9q7 29 16.5 65t18.5 73.5t17.5 73t14.5 64.5z" />
    <glyph glyph-name="G" unicode="G" horiz-adv-x="713" 
d="M628 505q-10 16 -25.5 32t-36 28.5t-45.5 20t-54 7.5q-48 0 -93 -15t-82 -46t-64.5 -78.5t-40.5 -112.5q-25 -115 21.5 -181.5t156.5 -66.5q29 0 59 4t53 12q5 21 9.5 42.5t9.5 43.5q6 26 10 50.5t8 48.5q0 3 2 13t4 21.5t4 21.5t3 13q24 -7 45.5 -10.5t30.5 -3.5
q8 0 26 3.5t56 14.5q-3 -10 -9.5 -34t-14 -55.5t-16.5 -68.5t-16 -73l-8 -36q-1 -5 -2.5 -13.5t-3.5 -18t-3.5 -18.5t-2.5 -13q-26 -9 -61.5 -18t-73.5 -17t-75.5 -13t-65.5 -5q-89 0 -154.5 23t-105.5 68t-52 112t6 154q18 85 59.5 151t101.5 112t136.5 70t164.5 24
q48 0 88 -7t72 -18t57.5 -23.5t45.5 -24.5q-9 -12 -18.5 -27t-18 -31t-15.5 -32t-12 -30h-60z" />
    <glyph glyph-name="H" unicode="H" horiz-adv-x="683" 
d="M510 422q6 29 12.5 64t13 72t12.5 72t11 64q29 -5 49.5 -8.5t28.5 -3.5q9 0 31 3.5t54 8.5q-8 -29 -17.5 -65t-18.5 -73t-17.5 -73t-14.5 -65l-33 -154q-6 -29 -12.5 -64.5t-13.5 -73t-13 -73.5t-11 -65q-29 6 -49.5 9t-29.5 3q-8 0 -30 -3t-54 -9q7 29 16.5 65t19 73.5
t18 73t14.5 64.5l10 46q-38 1 -76 1h-76h-41.5h-34.5t-34.5 -0.5t-41.5 -0.5l-10 -46q-6 -29 -12.5 -64.5t-13 -73t-13 -73.5t-11.5 -65q-29 6 -49.5 9t-28.5 3q-9 0 -31 -3t-53 -9q8 29 17 65t18 73.5t17.5 73t14.5 64.5l33 154q6 29 12.5 65t13.5 73t13 73t11 65
q29 -5 49.5 -8.5t29.5 -3.5q8 0 30 3.5t54 8.5q-8 -29 -17 -64t-18 -72t-17.5 -72t-14.5 -64h27q32 -1 62 -1.5t62 -0.5t63 0.5t62 1.5h28z" />
    <glyph glyph-name="I" unicode="I" horiz-adv-x="181" 
d="M32 418q6 29 12.5 65t13.5 73t13 73t11 65q29 -5 49.5 -8.5t29.5 -3.5t31 3.5t54 8.5q-8 -29 -17.5 -65t-18.5 -73t-17.5 -73t-14.5 -65l-33 -154q-6 -29 -12.5 -64.5t-13.5 -73t-13 -73.5t-11 -65q-59 12 -79 12t-84 -12q8 29 17.5 65t18.5 73.5t17.5 73t14.5 64.5z" />
    <glyph glyph-name="J" unicode="J" horiz-adv-x="286" 
d="M-82 -151q42 0 69.5 15t46 42t30 64.5t20.5 82.5l82 365q6 29 12.5 65t13.5 73t13 73t11 65q29 -5 49.5 -8.5t29.5 -3.5t31 3.5t54 8.5q-8 -29 -17.5 -65t-18.5 -73t-17.5 -73t-14.5 -65q-5 -21 -10.5 -48.5t-12.5 -59t-14.5 -65.5t-14.5 -68q-5 -22 -11.5 -51
t-12.5 -57.5t-11.5 -52.5t-7.5 -36q-10 -47 -37 -88.5t-66 -72.5t-88 -49t-104 -18z" />
    <glyph glyph-name="K" unicode="K" horiz-adv-x="581" 
d="M-30 33q16 58 30 115.5t26 115.5l33 154q6 29 12.5 65t13 73t13 73t11.5 65q29 -5 49.5 -8.5t28.5 -3.5q9 0 31 3.5t54 8.5q-8 -27 -16.5 -60.5t-17 -68l-17 -69t-14.5 -63.5q69 54 146 122.5t149 134.5q14 -3 26.5 -5.5t20.5 -2.5q9 0 54.5 8t114.5 20
q-52 -39 -113.5 -85.5t-121.5 -93t-112 -89t-85 -71.5q25 -36 49 -73t49 -75q13 -21 35 -53.5t45.5 -67.5t45.5 -68l36 -54q-59 9 -96.5 14.5t-46.5 5.5q-11 0 -28 -2t-37 -5q-19 31 -41 67t-44.5 73t-43.5 71t-38 60q-6 -29 -12.5 -64.5t-13.5 -73t-13 -73.5t-10 -65
q-29 6 -50 9t-30 3t-18.5 -1t-19.5 -3z" />
    <glyph glyph-name="L" unicode="L" horiz-adv-x="411" 
d="M48 418q6 29 13 65t13.5 73t12.5 73t11 65q29 -5 50 -8.5t30 -3.5q8 0 30 3.5t53 8.5q-7 -29 -16 -65t-18.5 -73t-18.5 -73t-15 -65q-18 -88 -32 -156.5t-25 -125.5l-6 -27q26 0 52.5 0.5t58 3t70 6t86.5 9.5q-14 -27 -23.5 -46t-10.5 -24q-2 -5 -0.5 -22.5t3.5 -42.5
q-20 1 -48 2.5t-57.5 2.5t-57.5 1.5t-48 0.5q-21 0 -48 -0.5t-54.5 -1.5t-54.5 -2t-48 -2q7 29 16 64t18 71t17.5 71t14.5 64z" />
    <glyph glyph-name="M" unicode="M" horiz-adv-x="863" 
d="M275 698q17 -63 33 -118.5t32.5 -109.5t34 -109t38.5 -118q22 30 50.5 67.5t60.5 80.5q27 36 58 76.5t61.5 81t59.5 79t52 70.5h66q-3 -30 -6.5 -64.5t-7 -69.5t-7 -68.5t-6.5 -61.5q-5 -51 -10.5 -108.5t-11 -116.5t-10.5 -116t-9 -106q-28 6 -49.5 9.5t-32.5 3.5
q-22 0 -77 -11q12 94 24.5 194t23.5 197q-64 -85 -131 -177t-139 -203h-54q-20 75 -44.5 160t-47.5 162q-5 16 -6 19.5t-1 4.5t-1.5 5.5t-7.5 23.5q-15 -48 -31.5 -99t-31.5 -101t-28 -98.5t-22 -90.5q-50 14 -64 14q-4 0 -24.5 -4.5t-52.5 -12.5q27 74 61 168.5t68 192
t65.5 190.5t54.5 164h70z" />
    <glyph glyph-name="N" unicode="N" horiz-adv-x="677" 
d="M489 -16q-34 52 -71.5 107.5t-77.5 112t-80.5 113.5t-79.5 111l-20 -94q-6 -29 -15.5 -78.5t-19 -102.5t-17 -100t-9.5 -71q-28 8 -46.5 13t-22.5 5q-7 0 -27.5 -4t-52.5 -11q6 15 15 45t20 68.5t23 83t23.5 88t21 83t16.5 69.5q9 42 17.5 85t16 80.5t12.5 66.5t7 44h68
q8 -10 19.5 -26.5t19.5 -27.5q81 -115 147.5 -209.5t124.5 -169.5q12 55 23.5 113.5t22.5 115.5t20.5 109.5t16.5 95.5q27 -8 44.5 -12.5t20.5 -4.5t22.5 5t51.5 13q-6 -18 -14 -46.5t-17 -61.5t-19 -68.5t-18.5 -68.5t-15 -60.5t-10.5 -44.5q-7 -35 -18.5 -90.5t-23 -112
t-20.5 -102.5t-12 -61h-66z" />
    <glyph glyph-name="O" unicode="O" horiz-adv-x="811" 
d="M33 341q18 85 59.5 151t100 112t132 70t155.5 24t145.5 -24t103.5 -70t53 -112t-5 -151t-59.5 -151.5t-100.5 -112t-132.5 -69.5t-155.5 -24t-145.5 24t-103 69.5t-52.5 112t5 151.5zM618 341q13 65 7 112.5t-28.5 78.5t-58 46t-80.5 15t-86.5 -15t-77 -46t-62 -78.5
t-39.5 -112.5q-14 -65 -7.5 -112.5t28 -78.5t57 -46t80.5 -15t87 15t77.5 46t62 78.5t40.5 112.5z" />
    <glyph glyph-name="P" unicode="P" horiz-adv-x="489" 
d="M52 418q6 29 13 64t13 72t12 72t11 64q38 -3 70 -5.5t53 -2.5q11 0 26 1t32 2q14 1 29.5 1.5t24.5 0.5q16 0 39 -1t48 -6.5t48 -17t39.5 -32t22.5 -53t-4 -78.5q-15 -71 -53.5 -114.5t-86.5 -68t-98 -33t-87 -8.5q-10 0 -14 -0.5t-6.5 -0.5h-5.5t-11 1l-2 -11
q-6 -29 -13 -64.5t-13.5 -73t-12.5 -73.5t-11 -65q-29 6 -50 9t-30 3q-19 0 -82 -12q7 29 16 65t18 73.5t18 73t15 64.5zM189 381q8 0 14.5 -0.5t13.5 -0.5q21 0 45.5 4.5t46.5 17.5t39.5 35t24.5 57q6 27 1.5 44t-17.5 27t-33.5 13.5t-46.5 3.5h-45z" />
    <glyph glyph-name="Q" unicode="Q" horiz-adv-x="830" 
d="M48 341q18 85 59.5 151t100 112t132 70t155.5 24t145.5 -24t103 -70t52.5 -112t-5 -151q-26 -121 -96 -203t-171 -121q29 -26 66 -58.5t73 -64t67.5 -58.5t49.5 -42q-33 -2 -62.5 -8t-53 -15t-40.5 -19t-24 -19q-20 22 -51.5 55.5t-66.5 69.5t-68.5 69.5l-56.5 56.5h-14
q-82 0 -145 24t-102.5 69.5t-52.5 112t5 151.5zM632 341q14 65 7.5 112.5t-28.5 78.5t-57.5 46t-80.5 15t-87 -15t-77 -46t-61.5 -78.5t-40.5 -112.5t-7.5 -112.5t28.5 -78.5t57.5 -46t80.5 -15t87 15t77 46t61.5 78.5t40.5 112.5z" />
    <glyph glyph-name="R" unicode="R" horiz-adv-x="571" 
d="M59 418q6 29 13 64t13.5 72t12 72t10.5 64q12 -1 30.5 -2.5t38 -2.5t38 -2t31.5 -1t25 0.5t26 1.5l26 2t27 1q45 0 83.5 -9t64.5 -30t36.5 -55t-0.5 -84q-9 -42 -29.5 -74.5t-47.5 -55.5t-58.5 -38.5t-61.5 -24.5q4 -5 7.5 -12l6.5 -13q12 -20 28 -48t35 -58.5t38 -62.5
t36.5 -59.5t31 -49t20.5 -32.5q-56 9 -93.5 14t-48.5 5q-10 0 -28.5 -2.5t-41.5 -5.5q-9 20 -26 55.5t-38 76t-44.5 81t-44.5 71.5l-3 -12q-6 -29 -12.5 -64.5t-13.5 -73t-13 -73.5t-10 -65q-60 12 -80 12q-9 0 -30.5 -3t-52.5 -9q7 29 16 65t18 73.5t17.5 73t14.5 64.5z
M201 398h24q22 0 46.5 5t47 16.5t40 31t23.5 49.5q5 24 -1.5 40t-19.5 25.5t-30.5 13t-34.5 3.5h-22.5h-12t-8 -0.5l-10.5 -1.5q-11 -42 -20 -81t-18 -81z" />
    <glyph glyph-name="S" unicode="S" horiz-adv-x="469" 
d="M68 187q4 -16 11.5 -33t19.5 -30.5t29 -22t39 -8.5q44 0 74.5 28t38.5 67q4 20 -1.5 34.5t-18 25.5t-30 19.5t-36.5 16.5q-29 13 -57.5 28t-48.5 38.5t-28.5 57.5t2.5 85q9 45 33 82.5t60 65t82 42.5t99 15q49 0 88 -16.5t75 -51.5q-20 -27 -34.5 -54.5t-31.5 -66.5h-64
q-2 12 -6 27t-11 27.5t-18.5 21t-28.5 8.5q-35 0 -62 -21t-34 -54q-5 -21 1.5 -36.5t19.5 -26.5t31 -19.5t37 -17.5q29 -13 57 -27t47.5 -36t27.5 -53.5t-2 -79.5q-10 -49 -36.5 -92t-66 -75.5t-91 -51.5t-111.5 -19q-32 0 -57.5 6.5t-46.5 17t-38 24t-32 27.5
q19 32 30 59.5t23 68.5h66z" />
    <glyph glyph-name="T" unicode="T" horiz-adv-x="536" 
d="M212 418q5 23 8.5 40.5t7 34t6.5 34.5t8 41q-44 -2 -100 -6t-111 -11q14 28 23.5 47.5t10.5 24.5q1 3 0.5 20.5t-2.5 44.5q28 -1 64.5 -2t74 -2t74 -1.5t65.5 -0.5t65.5 0.5t74.5 1.5t74.5 2t65.5 2q-28 -56 -30 -66q-1 -4 0.5 -23.5t3.5 -47.5q-55 8 -110 12t-95 5
q-8 -37 -16 -74.5t-16 -75.5l-33 -154q-6 -29 -13 -64.5t-13.5 -73t-12.5 -73.5t-11 -65q-59 12 -79 12q-9 0 -31 -3t-54 -9q8 29 17 65t18.5 73.5t18 73t14.5 64.5z" />
    <glyph glyph-name="U" unicode="U" horiz-adv-x="664" 
d="M508 359q13 62 23 110.5t17 88t11.5 73t6.5 66.5q29 -7 49.5 -11t28.5 -4q4 0 23 5.5t48 14.5q-9 -32 -23.5 -83.5t-30.5 -111t-31 -120.5t-26 -110l1 1q-15 -68 -46.5 -122.5t-77 -92.5t-104 -58.5t-127.5 -20.5q-153 0 -207.5 71.5t-23.5 220.5q5 23 10 42.5t10 37.5
q5 17 8.5 31.5t6.5 30.5q14 64 23 116t17 92q0 3 2.5 13t4.5 21.5t4.5 21t2.5 12.5q26 -5 48 -8.5t32 -3.5q7 0 29.5 4t53.5 11q-9 -30 -21 -71t-24 -88t-24 -97t-22 -98q-9 -40 -15.5 -83.5t1 -79.5t35.5 -59t90 -23q60 0 98.5 26.5t62.5 66.5t36 85t20 83z" />
    <glyph glyph-name="V" unicode="V" horiz-adv-x="664" 
d="M195 19q-6 37 -15 87.5t-20 108.5t-23.5 121.5t-25.5 126.5t-25 122.5t-23 111.5q38 -7 65 -11t38 -4t30 2.5t43 6.5q7 -60 15 -116.5t17.5 -114.5t21 -119t25.5 -129q36 57 76 124t78.5 132.5t72 124.5t55.5 101q20 -5 34.5 -8.5t19.5 -3.5q6 0 33 6t69 16
q-52 -78 -112 -170.5t-120.5 -187.5t-117.5 -187.5t-103 -170.5q-18 6 -30.5 9t-17.5 3q-12 0 -19 -3z" />
    <glyph glyph-name="W" unicode="W" horiz-adv-x="1028" 
d="M169 21q-2 24 -7.5 77t-12.5 120t-14.5 141t-14.5 141t-13 119.5t-10 76.5q35 -7 60.5 -10.5t36.5 -3.5q10 0 29 2.5t45 7.5q2 -57 5 -111.5t7 -110t9 -113.5t12 -123q29 53 64 117t69 127.5t63 121t47 96.5q45 -14 53 -14q7 0 58 14q1 -24 4.5 -61.5t8 -81t9.5 -90
t10 -90t9.5 -80.5t7.5 -60q19 37 41.5 81t46 89t46 90l42 84t34.5 69.5t23 48.5q21 -6 35.5 -9.5t19.5 -3.5t31 5.5t65 15.5q-13 -21 -44.5 -76t-72 -126.5t-85.5 -151.5t-85.5 -152.5t-72 -129t-44.5 -80.5q-20 7 -33 10t-18 3q-4 0 -19 -3t-38 -10q-6 63 -11 116
t-10 104.5t-11.5 106t-15.5 120.5q-26 -47 -58 -105t-65.5 -118t-65.5 -118t-57 -105q-41 12 -53 12q-5 0 -10 -1t-13 -3z" />
    <glyph glyph-name="X" unicode="X" horiz-adv-x="600" 
d="M266 690q17 -62 35 -114t38 -105q43 51 85.5 103.5t92.5 118.5q19 -5 32 -8t17 -3q6 0 40 7.5t85 19.5q-8 -8 -27 -28.5t-40 -43.5t-40.5 -43.5t-26.5 -28.5q-25 -27 -47 -50.5t-43.5 -47t-43 -47.5t-44.5 -51q16 -43 36.5 -93.5t41.5 -102.5t41.5 -101t36.5 -89
q-45 8 -77.5 12.5t-40.5 4.5q-11 0 -29.5 -2.5t-42.5 -5.5l-20 63q-9 29 -15 50.5t-12 41.5t-13.5 41.5t-20.5 50.5q-51 -58 -99 -121t-98 -129q-39 11 -49 11q-5 0 -38.5 -7.5t-84.5 -19.5q35 38 78 86t87.5 98t87 98t75.5 87q-15 39 -34 86t-38.5 95.5t-38.5 94t-34 81.5
q44 -8 75 -12.5t42 -4.5q12 0 30.5 2.5t40.5 5.5z" />
    <glyph glyph-name="Y" unicode="Y" horiz-adv-x="595" 
d="M136 -12q26 81 42.5 150.5t31.5 137.5q-7 19 -20.5 54t-30 77.5t-34.5 88t-34 86.5t-29 72t-19 45q44 -8 76 -12.5t45 -4.5q11 0 30 2.5t42 5.5q11 -38 21 -71.5t20.5 -66t22 -67t26.5 -74.5q25 31 52 66t54.5 72t53.5 73.5t49 69.5q18 -5 32 -7.5t21 -2.5q8 0 39.5 6.5
t79.5 16.5q-71 -82 -127.5 -147.5t-99 -116.5t-73 -89t-49.5 -65q-7 -33 -15 -72t-15 -79.5t-13 -79t-10 -68.5q-59 12 -81 12q-11 0 -33.5 -3t-54.5 -9z" />
    <glyph glyph-name="Z" unicode="Z" horiz-adv-x="609" 
d="M-46 58q57 61 122.5 132.5t129.5 142t120.5 133.5t94.5 107q-32 0 -75.5 -1.5t-90 -4t-92 -6t-81.5 -7.5q14 26 22.5 45t9.5 24q2 4 0.5 22.5t-3.5 44.5q21 -2 64 -3t99 -2.5t123 -2t136 -0.5q19 0 37 1t38 3h11t18 0.5t18 0.5h11l-14 -67q-21 -18 -55.5 -53.5
t-77.5 -80.5t-90.5 -96.5t-93.5 -102.5t-87 -97.5t-71 -80.5h12q33 0 82 2t101.5 5.5t102 7.5t84.5 9q-14 -29 -22 -48.5t-9 -24.5q-1 -4 -0.5 -21.5t2.5 -44.5q-32 1 -67 2t-68.5 2t-65 1.5t-56.5 0.5q-35 0 -85 -0.5t-99.5 -1.5t-90 -2.5t-57.5 -2.5z" />
    <glyph glyph-name="bracketleft" unicode="[" horiz-adv-x="207" 
d="M43 401q6 31 13.5 69t15 76.5t14 75.5t11.5 68q30 -4 50 -6t32 -2q10 0 23 0.5l26 1t25.5 1t22.5 0.5l49 -2q-4 -9 -8 -17t-7 -15q-4 -8 -7 -15v-18t-1 -34q-18 1 -44 3t-46 2q-25 -91 -45 -188l-49 -226q-6 -28 -10.5 -50.5t-8 -43.5t-7 -43.5t-7.5 -50.5q24 1 50.5 2
t40.5 2q-8 -19 -14 -34t-6 -17q0 -7 -1 -15q-1 -7 -1.5 -16t-0.5 -18h-46q-20 1 -47.5 2t-47.5 1q-11 0 -32.5 -2t-52.5 -6q8 31 17 68t18.5 76t18 76.5t14.5 68.5z" />
    <glyph glyph-name="backslash" unicode="\" horiz-adv-x="335" 
d="M41 725q34 -12 54.5 -19.5t22.5 -7.5t15 4t32 10l127 -755q-34 12 -54.5 19.5t-22.5 7.5t-15 -4t-32 -10z" />
    <glyph glyph-name="bracketright" unicode="]" horiz-adv-x="209" 
d="M88 401q6 28 10.5 50.5t8 44t7 43.5t7.5 50q-24 -1 -50.5 -2t-40.5 -2q7 18 13.5 33.5t6.5 17.5q0 7 1 15q0 7 0.5 16t1.5 18h45q20 -1 48 -2t48 -1q12 0 33.5 2t52.5 6q-8 -31 -17 -68t-18.5 -75.5t-18 -76.5t-14.5 -69l-49 -226q-6 -31 -13.5 -68.5t-15 -76.5t-14 -76
t-11.5 -68q-29 4 -49.5 6t-32.5 2q-20 0 -49 -1t-48 -2l-48 2q4 9 8 17t7 15q4 8 7 15q0 2 -0.5 17.5t1.5 34.5q18 -1 44 -3t46 -2q12 47 23 93.5t21 94.5z" />
    <glyph glyph-name="asciicircum" unicode="^" horiz-adv-x="555" 
d="M283 661h92l144 -479h-128l-97 321q-57 -79 -118 -162t-115 -159h-127z" />
    <glyph glyph-name="underscore" unicode="_" horiz-adv-x="587" 
d="M20 -117l25 117h520l-25 -117h-520z" />
    <glyph glyph-name="grave" unicode="`" horiz-adv-x="284" 
d="M50 591q-15 11 -28 27t-6 46q3 16 12.5 28t21 20t24 12.5t22.5 4.5q17 0 32 -9.5t26 -23.5l151 -194h-135z" />
    <glyph glyph-name="a" unicode="a" horiz-adv-x="476" 
d="M94 435q63 41 109 55.5t87 14.5q40 0 70.5 -12t50 -34t26 -53t-1.5 -69q-5 -25 -11 -50l-12 -50q-6 -24 -13 -54t-13 -56l-4 -20t-3 -10l1.5 0.5t7.5 3.5l18 9l34 17l-22 -106q-20 -8 -48 -16.5t-51 -8.5q-26 0 -42.5 8.5t-26.5 23.5q-31 -20 -63.5 -30.5t-72.5 -10.5
q-29 0 -54.5 10t-43 29t-25 46t-0.5 61q14 70 64.5 108.5t125.5 49.5q39 6 60.5 9.5t32.5 6.5t13.5 5.5t3.5 6.5q7 31 -3 54t-44 23q-26 0 -54.5 -16t-49.5 -45h-68zM267 212q-2 -1 -4 -0.5t-4 -0.5q-19 -3 -39 -7.5t-37 -11.5t-29 -18t-16 -29q-5 -24 5.5 -36.5t26.5 -12.5
q22 0 42 10.5t36 27.5z" />
    <glyph glyph-name="b" unicode="b" horiz-adv-x="507" 
d="M485 258q-12 -59 -41 -108.5t-68.5 -85.5t-87.5 -56.5t-99 -20.5q-40 0 -72 14.5t-52 37.5q-12 -9 -24.5 -19t-24.5 -20h-69q9 31 19 68.5t19 76.5t17.5 76.5t14.5 68.5l35 162l13.5 67.5t15 78t14 81t10.5 77.5q29 -6 49.5 -10t28.5 -4t31 3.5t58 8.5q-8 -25 -18 -59.5
t-20.5 -72.5t-20.5 -77.5t-18 -75.5q59 36 125 36q55 0 92 -20t56.5 -54t23 -79t-6.5 -94zM335 261q14 66 -4.5 100.5t-51.5 34.5q-21 0 -41.5 -8.5t-38.5 -28t-33 -51t-25 -76.5q-30 -145 64 -145q20 0 39.5 12.5t37 35t31.5 55t22 71.5z" />
    <glyph glyph-name="c" unicode="c" horiz-adv-x="484" 
d="M20 246q14 67 47 116t77 81t95 47t101 15q28 0 54 -5.5t48.5 -14.5t40.5 -21t30 -25q-15 -23 -29.5 -49t-27.5 -55h-57q-4 11 -11 23.5t-17 23t-23 17t-28 6.5q-31 0 -55.5 -12t-43 -33t-31 -50t-19.5 -63q-17 -75 6.5 -113t80.5 -38q29 0 70.5 23t79.5 57l35 -43
q-8 -18 -13.5 -37t-10.5 -37q-21 -14 -46 -27t-51.5 -23t-53 -16t-50.5 -6q-45 0 -87.5 14t-71.5 45t-41.5 80.5t2.5 119.5z" />
    <glyph glyph-name="d" unicode="d" horiz-adv-x="506" 
d="M254 21q-25 -15 -55.5 -24.5t-65.5 -9.5q-41 0 -77 15t-59.5 46t-32 79.5t6.5 115.5q13 66 43.5 115.5t70 82t83.5 48.5t86 16q32 0 55.5 -6t42.5 -22q8 39 16 79t15 77t13 68.5t9 53.5q2 0 10.5 -2t18.5 -3.5t18 -3.5t10 -2h-3q5 -1 10.5 -1.5t11.5 -0.5q5 0 9.5 0.5
t9.5 1.5q2 0 11.5 1.5t21 3.5t21 3.5t11.5 1.5q-14 -42 -30.5 -105.5t-33 -134t-32.5 -140.5t-28 -127q-8 -42 -15 -76.5t-14 -69.5q-2 -8 -5 -24t-6.5 -33t-6.5 -33t-5 -25q-2 0 -10.5 2t-18 4t-18 4t-9.5 2q-5 1 -11 1t-8 1q-2 -1 -4.5 -1t-5.5 -1h1q-1 0 -10 -2
t-19.5 -4.5t-19.5 -4.5t-10 -2zM119 238q-9 -43 -7 -71.5t11 -45t23 -23t30 -6.5q25 0 46.5 14t38.5 37.5t29 52.5t18 59q14 68 -2 104.5t-63 36.5q-23 0 -42.5 -12t-35.5 -33.5t-27.5 -50.5t-18.5 -62z" />
    <glyph glyph-name="e" unicode="e" horiz-adv-x="496" 
d="M13 233q13 63 40 113.5t65 85.5t87.5 54t107.5 19q56 0 94 -17.5t59.5 -47t26.5 -69.5t-5 -85l-3.5 -14t-6 -21t-6.5 -21.5t-4 -14.5h-21.5t-28 0.5t-28.5 0.5h-22q-32 1 -62 1.5t-62 0.5q-20 0 -39.5 -0.5t-39.5 -1.5h-5q-8 -52 16 -86t79 -34q28 0 70 23t79 57l35 -42
l-25 -76q-21 -14 -45.5 -27t-51 -22.5t-53 -15.5t-50.5 -6q-56 0 -98.5 18.5t-69 51.5t-35.5 78t2 98zM293 405q-37 0 -62.5 -26.5t-40.5 -59.5h76h40t40 1q1 16 0 31.5t-7 27.5t-17 19t-29 7z" />
    <glyph glyph-name="f" unicode="f" horiz-adv-x="302" 
d="M313 595q-25 19 -43 19q-20 0 -32.5 -16.5t-17.5 -37.5q-2 -10 -4 -28t-4 -41h15h18t26 0.5t26.5 0.5h18.5q-8 -22 -14 -39t-6 -15q-1 -4 -2 -20t-1 -34h-14.5t-22.5 0.5t-22.5 0.5h-14.5q-8 0 -9.5 0.5t-2.5 1t-2.5 0.5h-9.5q-21 -97 -42.5 -201t-38.5 -199
q-28 6 -47 9.5t-26 3.5q-9 0 -29.5 -3.5t-49.5 -9.5q27 100 50 200t44 199q-2 0 -3.5 -0.5t-3.5 -0.5h-12t-19.5 -0.5t-19.5 -0.5h-12q6 18 11.5 34t6.5 20q0 -2 1 15t3 39h14t21.5 -0.5t22 -0.5h15.5q9 27 22.5 56.5t30.5 57t36.5 51.5t40.5 41q25 20 59.5 36t67.5 16
q7 0 21 -3t31 -9q-7 -30 -10 -41t-5 -18l1 1q-3 -11 -8 -31.5t-7 -30.5z" />
    <glyph glyph-name="g" unicode="g" horiz-adv-x="507" 
d="M72 323q10 46 34 80.5t57 57t73.5 33.5t82.5 11q11 0 23 -0.5t26 -1.5h12.5t14.5 -1q4 0 7 -0.5t5 -0.5q16 -2 28 -2.5t18 -0.5q24 0 55.5 4t63.5 11q-9 -23 -15.5 -43t-7.5 -22t-2 -20.5t-3 -38.5q-3 0 -10 0.5t-16 1t-18.5 1.5t-16.5 2q9 -34 1 -73q-9 -42 -30.5 -75
t-53 -56.5t-71.5 -35.5t-86 -12q-6 0 -13.5 0.5t-13.5 0.5q-6 1 -11.5 1h-10.5q-7 0 -9 -6q-1 -5 2 -7.5t14 -2.5q12 -1 24.5 -1h24.5q12 -1 24 -1h25q50 -2 83.5 -14t51.5 -32t23 -47t-2 -58q-8 -37 -30.5 -76t-59 -70.5t-87.5 -51.5t-117 -20q-103 0 -153.5 44t-34.5 121
q9 42 32.5 73t55.5 51q-17 29 -8 68q5 23 18 42.5t30 33.5q-23 24 -30.5 56.5t1.5 76.5zM309 -64q8 34 -12.5 49t-73.5 15q-49 0 -80.5 -15t-39.5 -53q-9 -42 15 -59.5t65 -17.5q21 0 41.5 5t37.5 14.5t29.5 25t17.5 36.5zM344 328q8 38 -5 58.5t-40 20.5q-32 0 -54.5 -23
t-30.5 -61q-8 -39 3 -62.5t45 -23.5q32 0 53 27.5t29 63.5z" />
    <glyph glyph-name="h" unicode="h" horiz-adv-x="460" 
d="M51 452l13.5 67.5t14.5 78t13.5 81t10.5 77.5q29 -6 49.5 -10t28.5 -4t30 4t54 10q-11 -34 -21 -71.5t-19 -74.5t-17 -72t-14 -63q26 14 54.5 22t60.5 8q31 0 61.5 -8.5t51.5 -30t29.5 -59t-3.5 -94.5q-4 -18 -8.5 -37t-9.5 -39t-10.5 -44t-10.5 -46q-3 -15 -7 -36
t-8.5 -44t-8.5 -44t-6 -36q-27 6 -46 9.5t-27 3.5q-6 0 -26 -3.5t-51 -9.5l29 118q8 32 16 63t15 64l11 54q11 49 0 75t-40 26q-44 0 -71 -29t-38 -82q-5 -25 -12 -59.5t-13.5 -73.5t-13 -79.5t-10.5 -76.5q-29 6 -49.5 9.5t-28.5 3.5t-29.5 -3.5t-53.5 -9.5q11 36 22 77
t20.5 81t18 77.5t14.5 67.5z" />
    <glyph glyph-name="i" unicode="i" horiz-adv-x="157" 
d="M-1 293q8 38 15.5 91.5t15.5 120.5q29 -6 50 -9.5t29 -3.5t30.5 3.5t54.5 9.5q-22 -67 -36 -120.5t-22 -91.5l-20 -94q-8 -38 -16.5 -91.5t-15.5 -120.5q-29 6 -50 9.5t-29 3.5t-30 -3.5t-54 -9.5q21 67 35.5 120.5t22.5 91.5zM54 617q7 33 36 57t63 24t53 -24t12 -57
q-8 -34 -36.5 -58t-62.5 -24q-17 0 -30.5 6.5t-22.5 17.5t-12.5 26t0.5 32z" />
    <glyph glyph-name="j" unicode="j" horiz-adv-x="246" 
d="M102 257q11 51 22 116t19 132q29 -6 49.5 -9.5t28.5 -3.5t30.5 3.5t54.5 9.5q-22 -67 -36 -120.5t-22 -91.5l-20 -94q-6 -26 -11.5 -55.5t-10.5 -60.5q-5 -32 -10.5 -63t-10.5 -57q-9 -42 -21.5 -78.5t-46.5 -73.5q-32 -35 -86 -59t-124 -26l13 115q19 -5 35 -9t15 -4
q14 0 25.5 12t20 31t15 43t11.5 47zM167 617q7 33 35.5 57t62.5 24t53 -24t12 -57q-4 -17 -13.5 -32t-23 -26t-30 -17.5t-33.5 -6.5q-34 0 -52.5 24t-10.5 58z" />
    <glyph glyph-name="k" unicode="k" horiz-adv-x="472" 
d="M40 452l13.5 67.5t15 78t14 81t11.5 77.5q29 -6 49.5 -10t28.5 -4q7 0 29 4t54 10q-11 -37 -22 -77.5t-21 -81t-18.5 -78t-14.5 -67.5l-26 -121q15 11 38 30.5t50.5 42.5t56.5 48.5t55 49.5q15 -5 27 -7.5t17 -2.5q2 0 11.5 1t21.5 2h18.5t37.5 0.5t37.5 0.5h18.5
q-32 -23 -73 -51.5t-82.5 -58.5t-80.5 -58.5t-67 -51.5q20 -32 45.5 -71.5t52.5 -79t52.5 -77t44.5 -65.5q-57 8 -94 12.5t-45 4.5q-11 0 -27 -2t-35 -5q-12 21 -26.5 45t-29.5 48.5t-29.5 47.5t-26.5 43q-8 -38 -15.5 -84t-14.5 -106q-29 6 -49.5 9.5t-27.5 3.5
q-8 0 -29.5 -3.5t-53.5 -9.5q11 36 22 77t20.5 81t18 77.5t14.5 67.5zM89 222q0 -1 0.5 -1t0.5 -1q0 1 -0.5 1t-0.5 1z" />
    <glyph glyph-name="l" unicode="l" horiz-adv-x="167" 
d="M30 452l13.5 67.5t14.5 78t13.5 81t10.5 77.5l50 -10t28 -4t30 4t54 10q-11 -37 -22 -77.5t-20.5 -81t-18.5 -78t-15 -67.5l-35 -162l-13.5 -67.5t-14.5 -77.5t-13.5 -81t-10.5 -77q-29 6 -49.5 9.5t-28.5 3.5q-7 0 -29 -3.5t-54 -9.5q11 36 22 77t20.5 81t18.5 77.5
t15 67.5z" />
    <glyph glyph-name="m" unicode="m" horiz-adv-x="777" 
d="M59 293q8 38 16 91.5t16 120.5q29 -6 50 -9.5t29 -3.5q6 0 27 3.5l51 8.5l-4 -12l-4 -12q46 25 101 25q40 0 72.5 -16t50.5 -42q68 58 154 58q37 0 66.5 -10t48 -31t24.5 -54.5t-4 -81.5q-2 -13 -5.5 -26.5t-8.5 -30.5q-7 -26 -14.5 -59t-18.5 -83q-3 -12 -6 -30.5
t-6.5 -38.5t-6.5 -39.5t-5 -33.5q-29 6 -48.5 9.5t-27.5 3.5q-17 0 -84 -14q13 40 36 125t48 204q7 30 -1 51t-41 21q-23 0 -39.5 -8t-27.5 -19h1q-7 -7 -11.5 -14.5t-10 -26t-13 -52t-20.5 -93.5q-4 -20 -8.5 -43.5t-9 -48.5t-8.5 -49.5t-7 -45.5q-28 6 -47.5 9.5
t-27.5 3.5q-9 0 -30.5 -3.5t-50.5 -9.5q7 25 16 58t18 67t16.5 66.5t12.5 56.5q8 38 13 60t6.5 35t1 19.5t-3.5 14.5v-1q-4 10 -14.5 17t-23.5 7q-40 0 -66 -29t-37 -82l-16 -77q-8 -38 -17 -91.5t-16 -120.5q-29 6 -50 9.5t-29 3.5t-30.5 -3.5t-52.5 -9.5q20 67 34.5 120.5
t22.5 91.5z" />
    <glyph glyph-name="n" unicode="n" horiz-adv-x="484" 
d="M325 286q11 49 -0.5 75t-40.5 26q-44 0 -70.5 -29t-37.5 -82l-16 -77q-8 -38 -17 -91.5t-17 -120.5q-29 6 -49.5 9.5t-28.5 3.5t-30 -3.5t-54 -9.5q21 67 35.5 120.5t22.5 91.5l19 94q8 38 16.5 91.5t16.5 120.5q29 -6 50 -9.5t29 -3.5q6 0 27 3.5t50 8.5
q-2 -7 -3.5 -13.5t-3.5 -12.5q24 13 52 20t59 7t61 -8.5t51.5 -30t30 -59t-3.5 -94.5q-4 -18 -8.5 -37t-9.5 -39l-11 -44t-11 -46q-3 -15 -7 -36t-8.5 -44t-8 -44t-6.5 -36q-27 6 -46 9.5t-27 3.5q-6 0 -26 -3.5t-51 -9.5l30 118q8 32 15.5 63t15.5 64l11 54v0z" />
    <glyph glyph-name="o" unicode="o" horiz-adv-x="549" 
d="M20 246q15 71 48 120.5t76 80t91.5 44.5t93.5 14t87.5 -14t72.5 -44.5t42 -80t-3 -120.5t-48.5 -120.5t-76.5 -80t-91.5 -44.5t-93.5 -14t-87.5 14t-72 44.5t-41.5 80t3 120.5zM171 246q-7 -31 -8 -59.5t6 -50.5t24 -35.5t47 -13.5t52.5 13.5t39 35.5t27.5 50.5t18 59.5
q6 31 7 59.5t-6 50.5t-24 35.5t-47 13.5t-52.5 -13.5t-39 -35.5t-27.5 -50.5t-17 -59.5z" />
    <glyph glyph-name="p" unicode="p" horiz-adv-x="508" 
d="M50 199q6 31 13.5 69.5t15 79t14 81t11.5 75.5q27 -5 47.5 -8.5t30.5 -3.5q8 0 31 3.5t55 9.5q-7 -15 -11 -29q23 14 51.5 21.5t62.5 7.5q41 0 77 -15t60 -46t32.5 -79.5t-5.5 -115.5q-14 -66 -44.5 -115.5t-70 -82t-84 -48.5t-86.5 -16q-65 0 -100 29
q-12 -59 -25 -130.5t-21 -134.5q-29 6 -49.5 9.5t-27.5 3.5q-8 0 -29.5 -3.5t-53.5 -9.5q11 36 22 77t20.5 81t18 77.5t14.5 67.5zM384 249q9 43 7.5 71.5t-10.5 45t-23.5 23.5t-30.5 7q-26 0 -47 -12.5t-37 -33.5t-27 -49t-18 -59q-32 -150 63 -150q23 0 42.5 12t35.5 33.5
t27 50t18 61.5z" />
    <glyph glyph-name="q" unicode="q" horiz-adv-x="507" 
d="M456 54l-13.5 -67.5t-15 -77.5t-14.5 -81t-11 -77q-29 6 -49.5 9.5t-28.5 3.5q-7 0 -29 -3.5t-54 -9.5q20 65 37.5 138.5t31.5 133.5q-57 -36 -119 -36q-40 0 -77 13t-62.5 43t-35.5 79t5 121q15 68 45.5 117.5t69.5 81.5t82.5 47.5t82.5 15.5q59 0 97 -24v11.5t1 12.5
q29 -6 50 -9.5t30 -3.5q10 0 31.5 3.5t50.5 8.5q-11 -35 -21 -75.5l-20 -81t-18.5 -79t-14.5 -69.5zM359 255q6 27 6 52.5t-7 45t-22 31.5t-40 12q-16 0 -33.5 -7t-34.5 -25t-32.5 -49t-25.5 -79q-6 -31 -6.5 -57t6 -45.5t20 -30.5t34.5 -11q25 0 47 14t39.5 37t30 52.5
t18.5 59.5z" />
    <glyph glyph-name="r" unicode="r" horiz-adv-x="291" 
d="M271 342q-6 9 -15 16t-16 7q-26 0 -46 -25.5t-28 -63.5q-12 -57 -20.5 -96.5t-14.5 -71t-10.5 -60t-8.5 -62.5q-26 6 -45.5 10t-27.5 4q-9 0 -29.5 -3.5t-50.5 -9.5q10 33 18 63.5t15.5 61t14.5 63.5t15 71l6 29q3 17 8.5 44t11.5 58.5t11.5 64.5t10.5 62q28 -5 47 -8.5
t27 -3.5q6 0 27 4t53 11q-3 -8 -5.5 -15t-4.5 -14q43 27 84 27q12 0 26.5 -3.5t45.5 -17.5q-20 -32 -28.5 -61t-13.5 -51z" />
    <glyph glyph-name="s" unicode="s" horiz-adv-x="369" 
d="M77 153q3 -9 9 -19.5t14.5 -20t19 -15.5t23.5 -6q20 0 38 11t23 33q4 19 -15 28.5t-44 17.5q-24 8 -47.5 17.5t-40.5 25.5t-24.5 42t1.5 67q8 37 27 68.5t47.5 54t65.5 35.5t82 13q29 0 49 -6.5t37 -13.5q1 -1 -1 -0.5t1 -0.5t16 -4.5t45 -11.5q-12 -14 -23.5 -32
t-21.5 -35.5t-17 -32.5t-10 -23h-68q-3 21 -14 38t-28 17q-14 0 -28.5 -9t-19.5 -30q-2 -11 2.5 -18.5t13 -13t20 -9.5t23.5 -8q23 -7 46.5 -16.5t40 -25.5t24 -41.5t-0.5 -64.5q-7 -32 -27.5 -63.5t-51 -57t-70.5 -41t-86 -15.5q-48 0 -85 16t-65 34q6 9 13.5 23.5t15 30.5
t13.5 32.5t9 29.5h69z" />
    <glyph glyph-name="t" unicode="t" horiz-adv-x="283" 
d="M215 617h50q-9 -34 -18.5 -66.5t-18.5 -65.5q25 1 53.5 1.5t48.5 1.5q-7 -19 -10.5 -29.5l-5.5 -16.5l-2.5 -7.5t-0.5 -2.5q0 -2 -0.5 -4t-1 -7.5t-1.5 -16t-2 -29.5q-12 1 -26.5 1.5l-29 1t-27 1t-20.5 0.5q-5 -18 -10.5 -42t-12 -50.5t-12.5 -52.5t-10 -47
q-4 -19 -7 -37t-2.5 -32t6 -22.5t19.5 -8.5q5 0 29 5.5t51 13.5l-21 -96q-29 -10 -58.5 -16.5t-50.5 -6.5q-75 0 -102 39t-13 109q5 21 11 46t13 53q4 18 7.5 32.5t7 30t8.5 35t11 47.5h-67q7 21 13.5 38t5.5 16q0 -1 1.5 17t3.5 40q11 -1 28.5 -2t34.5 -2q3 20 8 45.5
t7 41.5z" />
    <glyph glyph-name="u" unicode="u" horiz-adv-x="485" 
d="M8 170q6 26 11 47t10 41q5 16 8 30.5t6 29.5q3 16 8 40t10 50t10 51.5t8 44.5q26 -6 45 -9t27 -3t28.5 3.5t51.5 9.5q-8 -26 -18 -63t-20.5 -77.5t-20.5 -80.5t-17 -73q-8 -38 -6 -57t7 -27q7 -10 18 -16t28 -6q26 0 45 10.5t30 26.5q7 11 12.5 21t10.5 27.5t12 46
t17 76.5q4 18 9 44.5t10 54t10 52.5t8 41q28 -6 46.5 -9.5t26.5 -3.5t28.5 4t49.5 10q-9 -35 -19.5 -75.5t-21 -82.5t-20 -83t-16.5 -77q-4 -20 -9 -47t-10 -55t-10 -54.5t-8 -45.5q-26 6 -44.5 10t-25.5 4q-8 0 -28.5 -4t-49.5 -10q2 8 4.5 15.5t4.5 15.5q-53 -30 -109 -30
q-88 0 -126 47.5t-21 135.5z" />
    <glyph glyph-name="v" unicode="v" horiz-adv-x="491" 
d="M131 20q-1 8 -2 15.5t-3 15.5l1 -1q-8 49 -19 108t-23.5 120t-25.5 120t-25 109q38 -7 64.5 -11t37.5 -4q9 0 26 2.5t40 7.5q8 -84 20 -158t26 -145q33 53 68 112.5t67 115.5q4 7 10 18t12.5 22t12.5 21.5t9 15.5q18 -5 30.5 -8.5t17.5 -3.5q6 0 32 6.5t64 17.5
q-5 -7 -16.5 -25.5t-24.5 -38.5t-25 -38t-16 -25q-31 -47 -64.5 -98t-66 -103t-63.5 -103.5t-58 -97.5q-37 13 -48 13q-3 0 -7.5 -1t-11.5 -3z" />
    <glyph glyph-name="w" unicode="w" horiz-adv-x="794" 
d="M139 22q-3 34 -10.5 89.5t-18 121.5t-23.5 137.5t-27 137.5q37 -8 63 -12t35 -4t27.5 2.5t41.5 7.5q5 -79 11.5 -148.5t17.5 -135.5q18 31 38 67t40 73.5t40 74.5t37 71q17 -5 30 -8.5t18 -3.5t19 3.5t35 9.5q5 -85 12 -153t16 -132q19 33 41.5 70t44 74.5t42 73.5
t37.5 66q39 -12 49 -12q3 0 30.5 7.5t70.5 21.5q-98 -144 -181.5 -275.5t-151.5 -249.5h-33q-5 2 -8.5 3t-5.5 1q-4 0 -21 -4t-31 -9q-5 79 -12.5 146.5t-18.5 132.5q-18 -30 -37 -64t-38.5 -69t-38.5 -70t-35 -67h-35q-5 2 -9 3t-6 1q-3 0 -7.5 -1t-9.5 -3h-9z" />
    <glyph glyph-name="x" unicode="x" horiz-adv-x="517" 
d="M225 500q15 -42 31.5 -77.5t33.5 -69.5q35 36 72 75.5t67 73.5q17 -5 29 -7.5t16 -2.5t42 8.5t98 22.5q-27 -24 -64.5 -58.5t-76.5 -71t-75.5 -70.5t-61.5 -58q15 -31 35 -69t41.5 -77t42 -75.5t35.5 -63.5q-49 9 -83 14.5t-45 5.5t-27 -2.5t-38 -5.5q-10 23 -18.5 42.5
t-17 38t-17.5 38t-21 42.5q-37 -41 -75.5 -84t-70.5 -80q-35 11 -43 11q-4 0 -40 -9l-96 -24q27 26 64.5 62.5t76.5 75t75.5 75l62.5 62.5q-15 29 -35 65t-40.5 73t-40 71t-33.5 60q50 -9 84 -14t45 -5t28 2t40 6z" />
    <glyph glyph-name="y" unicode="y" horiz-adv-x="487" 
d="M-52 -264q75 93 129.5 166t92.5 130q-6 30 -15 73t-19 91.5t-20.5 98.5t-20 93t-16.5 75t-10 46q37 -8 63 -12.5t35 -4.5t27 2.5t41 7.5q8 -67 20.5 -145.5t27.5 -150.5q44 68 87.5 145t84.5 153q20 -6 33 -9t17 -3q3 0 31 7t73 18q-13 -19 -50 -73t-86 -127.5
t-104.5 -158t-106 -163.5t-91 -144t-58.5 -100q-20 6 -33 9.5t-18 3.5q-4 0 -34.5 -7.5t-79.5 -20.5z" />
    <glyph glyph-name="z" unicode="z" horiz-adv-x="486" 
d="M-29 57q38 37 80.5 80t84.5 86t81.5 84t72.5 76q-25 -1 -54 -3l-58 -4t-57 -4t-50 -3q14 29 20 44.5t7 20.5q2 7 2.5 24t1.5 43q57 -5 121 -7t145 -2q18 0 35 0.5t35 1.5t38.5 2.5t46.5 3.5l-14 -66q-46 -47 -93.5 -95t-90.5 -92.5t-78.5 -81t-57.5 -60.5q24 0 49.5 1
t56 3t68 5t85.5 8q-11 -23 -18.5 -43t-8.5 -22q-1 -4 -1 -22.5t1 -38.5h-21h-30t-30.5 0.5t-21.5 0.5h1q-83 3 -167 3q-58 0 -118 -3h1q-5 0 -16 -0.5t-23 -0.5h-22.5h-15.5z" />
    <glyph glyph-name="braceleft" unicode="{" horiz-adv-x="243" 
d="M-5 343q32 0 51 13.5t24 34.5l33 153q17 81 53.5 111t91.5 30h88l-22 -105h-65q-5 0 -9.5 -7t-9.5 -29l-31 -147q-8 -38 -25 -64t-41 -45q17 -18 22 -44t-3 -65l-31 -147q-5 -23 -3.5 -29.5t6.5 -6.5h65l-22 -105h-88q-55 0 -78 30t-6 111l32 153q5 22 -9 35t-46 13z" />
    <glyph glyph-name="bar" unicode="|" horiz-adv-x="144" 
d="M113 745h118l-206 -969h-117z" />
    <glyph glyph-name="braceright" unicode="}" horiz-adv-x="243" 
d="M247 233q-32 0 -51.5 -13t-24.5 -35l-33 -153q-17 -81 -53.5 -111t-90.5 -30h-88l22 105h65q5 0 9 6.5t9 29.5l31 147q8 38 25 64t42 45q-17 18 -22.5 44.5t2.5 64.5l31 147q5 22 3.5 29t-6.5 7h-65l22 105h88q55 0 78.5 -30t6.5 -111l-33 -153q-5 -21 9.5 -34.5
t46.5 -13.5z" />
    <glyph glyph-name="asciitilde" unicode="~" horiz-adv-x="520" 
d="M8 241q42 52 82 82t94 30q33 0 53.5 -8t40.5 -18q6 -4 13.5 -7t13.5 -7q15 -8 29 -14.5t28 -6.5q7 0 19 9.5t26.5 24.5t29.5 33t27 35l49 -109q-18 -20 -38 -40t-42.5 -36t-46.5 -26t-50 -10q-31 0 -56 10t-54 27q-19 11 -34.5 17.5t-27.5 6.5t-26 -10t-28 -26t-27 -34.5
t-24 -35.5z" />
    <glyph glyph-name="exclamdown" unicode="&#xa1;" horiz-adv-x="175" 
d="M55 418q4 18 14.5 34t24.5 27.5t31.5 18.5t35.5 7q36 0 56 -25.5t12 -61.5q-5 -25 -23 -45.5t-41 -31.5h3q-2 -12 -4 -30t-4.5 -37.5t-5 -38.5t-3.5 -32q-3 -26 -7.5 -59.5t-9.5 -69t-9.5 -69.5t-8 -61.5t-6 -45.5t-3.5 -22q-5 -22 -15 -37t-23 -24.5t-28.5 -14
t-30.5 -4.5t-28 4.5t-22 14t-13 24.5t1 37l11 38.5t22.5 77t29.5 100.5t32 111q4 14 9.5 32.5t11.5 38t11 37.5t9 30h2q-19 11 -27.5 31.5t-3.5 45.5z" />
    <glyph glyph-name="cent" unicode="&#xa2;" horiz-adv-x="480" 
d="M18 246q12 55 36 97.5t57 73.5t72.5 50.5t80.5 28.5q4 19 7 47.5t7 68.5q26 -10 43 -15.5t19 -5.5q3 0 22 5.5t49 15.5q-12 -37 -20.5 -64t-13.5 -45q44 -7 79.5 -24.5t54.5 -39.5q-14 -23 -28.5 -49t-27.5 -55h-57q-7 17 -18 35.5t-26 26.5q-8 -39 -15 -74t-14.5 -70
t-15 -71t-16.5 -78q26 11 56.5 29.5t56.5 42.5l36 -43q-8 -18 -13.5 -37t-10.5 -37q-33 -22 -72 -40t-78 -26q-4 -23 -7.5 -54t-8.5 -66q-26 10 -42 15.5t-18 5.5t-21 -5.5t-49 -15.5q11 34 20 66t16 55q-37 7 -68 26t-51 49.5t-26.5 74.5t5.5 102zM241 380
q-28 -21 -45 -55.5t-26 -77.5q-20 -90 16 -127z" />
    <glyph glyph-name="sterling" unicode="&#xa3;" horiz-adv-x="507" 
d="M7 125q27 0 45.5 8t31.5 23t20.5 36t13.5 47q3 14 4.5 28t3.5 29q-26 -1 -56 -1h-45q8 18 12.5 28t6.5 16t3 8.5t1 4.5q0 1 0.5 4t0.5 9.5t-1 19t-2 33.5q42 -9 60 -12t30 -4l5 25q15 72 46 120t68.5 76.5t78.5 40t77 11.5q41 0 81 -21t60 -65q-20 -19 -43 -44.5
t-49 -58.5l-35 43q-2 20 -12.5 30.5t-24.5 10.5q-32 0 -57 -25t-33 -60q-5 -26 -8.5 -45.5t-5.5 -37.5q32 0 64 3h-1q5 0 16.5 0.5t25 1.5t25.5 1.5t17 0.5q-8 -21 -14 -38.5t-6 -18.5q-1 -8 -2 -18q-1 -8 -2 -18t-2 -21h-50q-16 0 -25.5 0.5t-17.5 1t-18 0.5h-26l-1 -5
q-11 -52 -30.5 -91.5t-50.5 -73.5q42 1 83 3t81 4q7 0 22 0.5t30.5 1.5t30 1.5t22.5 0.5q-12 -32 -17.5 -50t-7.5 -23q-2 -8 -3.5 -25t-1.5 -44h-19.5h-28.5t-28.5 0.5t-19.5 0.5h1q-80 3 -158 3q-77 0 -153 -3h1q-7 0 -20 -0.5t-27 -0.5h-27h-19q6 20 12.5 39.5t7.5 24.5
t3 23.5t6 41.5h51z" />
    <glyph glyph-name="currency" unicode="&#xa4;" horiz-adv-x="574" 
d="M532 603l66 -82l-65 -54q13 -29 16 -64t-5 -73q-8 -36 -25 -71t-41 -64l40 -51l-101 -85l-41 51q-68 -38 -145 -38q-38 0 -70 10.5t-58 29.5q-17 -15 -34.5 -28.5t-29.5 -24.5l-64 85l62 53q-12 29 -15 63t5 70q8 38 25.5 72t42.5 64q-11 14 -23 30t-18 25l100 82l42 -54
q34 19 71 29.5t74 10.5q38 0 70 -10t58 -28zM426 330q6 30 1 56.5t-19.5 46t-37.5 31t-53 11.5t-58 -11.5t-51 -31t-39.5 -46t-22.5 -56.5t-1 -56.5t20 -46t38 -30.5t53 -11t57.5 11t50.5 30.5t39.5 46t22.5 56.5z" />
    <glyph glyph-name="yen" unicode="&#xa5;" horiz-adv-x="549" 
d="M185 297q-17 0 -33.5 -0.5t-32.5 -1.5h-20t-27.5 -0.5t-27.5 -0.5h-19q7 21 13.5 38.5t5.5 16.5q0 8 1 18q1 16 3 39q18 0 33 -1t28.5 -1.5t28 -1t32.5 -0.5q-10 21 -19 44q-10 23 -24.5 56.5t-30 69.5t-30 70t-24.5 57q45 -8 76 -12.5t43 -4.5q13 0 31 2.5t41 5.5
q4 -20 12 -48t19 -59.5t23 -64.5t24 -63q49 57 96.5 117t93.5 121q18 -5 30 -8t17 -3q4 0 39 8.5t91 22.5q-21 -22 -57 -59.5t-76.5 -81.5t-81.5 -89t-73 -81q33 1 66 1.5t56 1.5q-8 -22 -14 -39.5t-6 -16.5q1 1 -0.5 -16.5t-2.5 -38.5h-19.5t-28 0.5t-28 0.5h-19.5
q-13 0 -20.5 0.5t-13.5 1t-13 0.5h-20l-1 -6h41t44 0.5t42 1t35 0.5q-8 -22 -14 -39.5t-6 -16.5q1 1 0 -17t-3 -39q-39 2 -80.5 3.5t-80.5 1.5q-5 -25 -9.5 -52t-9 -53.5t-8 -51t-6.5 -42.5q-27 6 -48 9.5t-30 3.5q-10 0 -32 -3.5t-52 -9.5q14 48 28 99.5t25 99.5
q-19 0 -41 -1t-44.5 -2t-42.5 -2t-34 -1q4 11 7.5 21t6.5 18q4 10 6 18q0 -1 1 16.5t3 39.5q38 -1 80 -1.5t80 -0.5z" />
    <glyph glyph-name="brokenbar" unicode="&#xa6;" horiz-adv-x="130" 
d="M3 229h118l-82 -386h-117zM98 678h118l-82 -386h-118z" />
    <glyph glyph-name="section" unicode="&#xa7;" horiz-adv-x="437" 
d="M348 519q-2 29 -14.5 51.5t-37.5 22.5q-23 0 -47 -14t-29 -40q-3 -14 3 -25t18 -20t28 -17t33 -15q27 -12 52.5 -25t44.5 -32t27 -46t0 -67q-8 -35 -26.5 -64.5t-38.5 -51.5q7 -16 8 -35.5t-4 -45.5q-9 -40 -31.5 -77.5t-57 -67t-80.5 -47.5t-100 -18q-20 0 -41 5
t-41.5 13t-39 19t-32.5 23q6 12 12 28.5t12 33.5t11 34t8 31h69q2 -11 7.5 -25t16 -26.5t26.5 -21.5t40 -9q16 0 32 6t29 16t22 22.5t12 25.5t-3 23.5t-18 19t-28.5 15.5t-34.5 15q-30 12 -58.5 26t-49 35t-30 51t-0.5 74q9 40 31 70t46 50q-4 13 -4 30t6 46q7 35 26.5 68
t49.5 58.5t70 41t89 15.5q27 0 49.5 -8t41 -21t33 -30t25.5 -34q-18 -14 -36 -39.5t-26 -46.5h-70zM303 252q5 19 -5 30.5t-40 26.5q-44 21 -68.5 35t-42.5 25q-6 -9 -9 -20q-4 -19 11 -33.5t49 -31.5q26 -13 42.5 -20.5l27.5 -12.5t18 -8.5t13 -7.5q2 7 4 17z" />
    <glyph glyph-name="dieresis" unicode="&#xa8;" horiz-adv-x="376" 
d="M194 608q7 33 36 57t63 24t53 -24t12 -57q-4 -17 -13.5 -32t-23 -26t-30 -17.5t-33.5 -6.5q-34 0 -53 24t-11 58zM17 608q7 33 36 57t63 24t53 -24t12 -57q-4 -17 -13.5 -32t-23 -26t-30 -17.5t-33.5 -6.5q-34 0 -53 24t-11 58z" />
    <glyph glyph-name="copyright" unicode="&#xa9;" horiz-adv-x="775" 
d="M30 341q15 74 57 139t100.5 113.5t129.5 76.5t145 28t133 -28t97 -76.5t52.5 -113.5t-0.5 -139q-16 -74 -58 -139t-100.5 -113.5t-129.5 -76.5t-145 -28t-133 28t-97 76.5t-52 113.5t1 139zM635 341q11 50 2.5 93t-31.5 77q-8 -15 -15 -31.5t-11 -32.5l-52 -2
q-5 6 -12 14t-17 15.5t-23.5 12.5t-31.5 5q-24 0 -48.5 -7t-46.5 -24.5t-39 -47t-27 -75.5q-13 -61 11.5 -101.5t83.5 -40.5q15 0 31.5 4.5t32 12t29.5 16t24 16.5l74 -2q-17 -26 -26 -44.5t-13 -31.5q38 35 66 79t39 95zM152 339q13 62 43 109t71.5 78.5t91.5 47t103 15.5
q9 0 17.5 -0.5t17.5 -1.5q-26 6 -56 6q-52 0 -101.5 -20t-90 -54t-69.5 -80t-40 -98t-2 -98t35.5 -80t67.5 -54t93 -20q73 0 140 38q-28 -11 -60.5 -19.5t-64.5 -8.5q-54 0 -96 17t-68 48.5t-35 75.5t3 99z" />
    <glyph glyph-name="ordfeminine" unicode="&#xaa;" horiz-adv-x="341" 
d="M65 634q30 14 65 27.5t78 13.5q21 0 43 -5t38.5 -18t24 -37t-0.5 -61q-4 -19 -10 -41t-11 -42q-2 -10 -4 -18t-4 -15q10 5 21 9.5t19 8.5l-20 -95q-16 -8 -40 -17t-44 -9q-17 0 -28.5 5.5t-19.5 13.5q-38 -19 -81 -19q-20 0 -40 5t-34.5 16.5t-21 31t-0.5 49.5
q8 43 34 67t84 38h-68zM167 578q-15 0 -29.5 -12.5t-23.5 -23.5q6 2 11 2.5t10 2.5q34 6 43.5 6t9.5 -6q4 20 -3 25.5t-18 5.5zM172 468q-17 -2 -32 -7.5t-18 -18.5q-1 -10 12 -10q8 0 16.5 4.5t16.5 9.5z" />
    <glyph glyph-name="guillemotleft" unicode="&#xab;" horiz-adv-x="361" 
d="M203 481q7 -23 26 -41t48 -23l56 64q8 -23 28.5 -41.5t50.5 -23.5l-156 -173q8 -20 18 -43.5t20.5 -47.5t20 -46.5t16.5 -38.5q-13 -2 -28 -8t-29 -16t-26.5 -22t-20.5 -25l-30 70q-26 -5 -55.5 -24.5t-44.5 -45.5l-103 248z" />
    <glyph glyph-name="logicalnot" unicode="&#xac;" horiz-adv-x="552" 
d="M407 291h-407l25 118h526l-67 -312h-119z" />
    <glyph glyph-name="registered" unicode="&#xae;" horiz-adv-x="775" 
d="M30 341q15 74 57 139t100.5 113.5t129.5 76.5t145 28t133 -28t97 -76.5t52.5 -113.5t-0.5 -139q-16 -74 -58 -139t-100.5 -113.5t-129.5 -76.5t-145 -28t-133 28t-97 76.5t-52 113.5t1 139zM464 308q19 -34 39 -69t40 -59q33 32 57.5 73.5t34.5 87.5q11 52 1.5 98t-36 80
t-67.5 54t-93 20q-23 0 -44 -3.5t-42 -10.5q9 -1 16.5 -1h14.5q9 0 16.5 0.5t16.5 1.5q10 1 20.5 1.5t20.5 0.5q31 0 56.5 -7.5t42 -23t23.5 -39t0 -55.5q-6 -27 -18.5 -48t-29.5 -37t-37 -28t-40 -19q2 -5 4 -9zM139 341q-13 -58 0 -107.5t45 -84.5q2 10 4 17t3 10v-1
q8 25 14.5 49.5t11.5 47.5l32 153q5 20 9.5 49t7.5 59q-47 -35 -81 -84.5t-46 -107.5zM242 115q-2 0 -4 -0.5t-7 -1.5q23 -11 48 -17.5t54 -6.5q52 0 103 20q-4 0 -7.5 -1t-7.5 -2q-39 82 -86 166q-7 -30 -13 -73.5t-14 -100.5q-28 8 -45.5 12.5t-20.5 4.5zM361 396h2
q31 0 56.5 12.5t32.5 42.5q4 18 -7.5 28t-31.5 10h-15t-14 -1q-5 -14 -8.5 -27t-5.5 -25z" />
    <glyph glyph-name="macron" unicode="&#xaf;" horiz-adv-x="360" 
d="M33 661h317l-25 -119h-317z" />
    <glyph glyph-name="degree" unicode="&#xb0;" horiz-adv-x="350" 
d="M8 509q7 34 26.5 64.5t46.5 53t60 35.5t68 13q34 0 61.5 -13t45.5 -35.5t24.5 -53t-0.5 -64.5q-8 -35 -27.5 -65t-46.5 -52.5t-60.5 -35.5t-67.5 -13q-35 0 -62 13t-44.5 35.5t-24 52.5t0.5 65zM113 509q-6 -26 8 -43.5t40 -17.5t47 17.5t27 43.5q5 26 -9 43.5t-40 17.5
t-47 -17.5t-26 -43.5z" />
    <glyph glyph-name="plusminus" unicode="&#xb1;" horiz-adv-x="522" 
d="M-32 118h203l26 126h-203l25 119h204l34 163h118l-34 -163h204l-26 -119h-204l-26 -126h204l-25 -118h-525z" />
    <glyph glyph-name="twosuperior" unicode="&#xb2;" horiz-adv-x="337" 
d="M50 586q42 47 83 68t87 21q33 0 59 -7.5t43 -23.5t23 -41t-1 -59q-5 -23 -13.5 -42t-26.5 -41t-49 -49t-80 -64q40 1 78.5 2t61.5 3q-12 -27 -18 -42t-7 -18q-2 -5 -1.5 -18.5t3.5 -44.5q-15 1 -38 2t-47.5 2.5t-47.5 2.5t-39 1t-37 -1t-43.5 -2t-44 -2t-36.5 -2l14 66
q11 9 27 22t27 21q40 31 72 57t55 49.5t38 46t20 48.5q5 21 -1.5 31t-18.5 10q-10 0 -18.5 -6t-15.5 -14.5t-12.5 -18.5t-8.5 -18l-53 -2z" />
    <glyph glyph-name="threesuperior" unicode="&#xb3;" horiz-adv-x="325" 
d="M0 357h48q8 -10 22.5 -20.5t33.5 -10.5q26 0 43.5 14t22.5 36q5 24 -4.5 33t-23.5 9q-4 0 -14 -2t-23.5 -5t-29 -7.5t-31.5 -8.5q20 34 28.5 50.5t9.5 18.5q0 2 -2 21t-7 57l-20 74q27 20 65 39.5t88 19.5q29 0 52.5 -7t39.5 -21.5t22 -36t0 -50.5q-5 -26 -17.5 -46
t-29.5 -36q20 -14 28.5 -36t0.5 -60q-7 -33 -26 -61t-47.5 -47.5t-64.5 -30.5t-78 -11q-37 0 -69 10.5t-58 24.5zM84 542q34 -17 50 -23.5t21 -6.5q16 0 25 15t12 29q3 13 -3 19.5t-16 6.5q-12 0 -25.5 -12t-22.5 -27z" />
    <glyph glyph-name="acute" unicode="&#xb4;" horiz-adv-x="282" 
d="M162 696q17 14 36 23.5t36 9.5q10 0 20.5 -4.5t18.5 -12.5t12 -20t1 -28q-7 -30 -26.5 -46t-39.5 -27q-37 -20 -79 -44.5t-80 -44.5h-133z" />
    <glyph glyph-name="mu" unicode="&#xb5;" horiz-adv-x="461" 
d="M183 -13q-11 0 -23.5 1t-23.5 3q-6 -27 -10.5 -53t-9 -54.5t-9 -61t-8.5 -72.5q-61 14 -75 14q-9 0 -28 -3.5t-48 -9.5q4 16 9 38t10 45t10 44t8 35q8 37 18 82.5t20 92.5q14 66 24.5 119.5t20.5 102.5q4 20 9.5 46.5t11 54t11 52.5t8.5 41q26 -6 44.5 -9t26.5 -3
t28.5 3.5t51.5 9.5q-8 -26 -18 -63t-20.5 -77.5t-20.5 -80.5t-17 -73q-8 -38 -6 -57t7 -27q8 -10 18.5 -16t27.5 -6q26 0 45 10.5t30 26.5q7 11 12.5 21t10.5 27.5t12 46t17 76.5q4 18 9 44.5t10 54t10 52.5t8 41q28 -6 46.5 -9.5t26.5 -3.5t28.5 4t49.5 10
q-9 -35 -19.5 -75.5t-21 -82.5t-20 -83t-16.5 -77q-4 -20 -9 -47t-10 -55t-10 -54.5t-8 -45.5q-26 6 -44.5 10t-25.5 4q-8 0 -28.5 -4t-49.5 -10q6 17 9 31q-53 -30 -109 -30z" />
    <glyph glyph-name="paragraph" unicode="&#xb6;" horiz-adv-x="496" 
d="M139 -103l78 366q-56 4 -94 22t-59.5 46.5t-27 66.5t3.5 83q22 102 89.5 151.5t167.5 49.5h270l-19 -88l-69 -11l-146 -686h-194z" />
    <glyph glyph-name="periodcentered" unicode="&#xb7;" horiz-adv-x="183" 
d="M0 311q4 18 14.5 34.5t25.5 28.5t33 19t36 7q37 0 57.5 -26t13.5 -63q-4 -19 -14.5 -35.5t-25.5 -28.5t-33 -19t-36 -7q-37 0 -58 26t-13 64z" />
    <glyph glyph-name="cedilla" unicode="&#xb8;" horiz-adv-x="246" 
d="M18 -74q8 -5 19 -9l-12 16l84 139h106l-36 -63q40 -6 57 -32t8 -66q-6 -27 -21.5 -48t-38 -35.5t-50 -21.5t-56.5 -7q-33 0 -65.5 10.5t-56.5 19.5zM105 -94h-6.5t-6.5 -2h5q8 0 13 0.5t5 1.5h-10v0z" />
    <glyph glyph-name="onesuperior" unicode="&#xb9;" horiz-adv-x="229" 
d="M108 533l-52 -23q-5 13 -13.5 25t-17.5 17l12 57q46 14 92 31.5t81 34.5h59q-5 -17 -11.5 -40t-12.5 -47t-12 -47.5t-10 -41.5l-19 -90q-4 -17 -8.5 -42t-9 -51.5t-8 -51.5t-6.5 -43q-26 8 -44 12.5t-22 4.5q-9 0 -74 -17q5 18 12 43t14 51.5t13 51.5t10 42z" />
    <glyph glyph-name="ordmasculine" unicode="&#xba;" horiz-adv-x="395" 
d="M17 504q10 47 32.5 79.5t52.5 53t64.5 29.5t67.5 9q32 0 61.5 -9t50.5 -29.5t30 -53t-1 -79.5q-10 -46 -32.5 -78t-52.5 -52.5t-63.5 -29.5t-65.5 -9q-33 0 -63.5 9t-51.5 29.5t-29.5 52.5t0.5 78zM148 504q-3 -14 -3.5 -27.5t3 -24.5t11.5 -17.5t22 -6.5q26 0 41.5 24
t21.5 52q3 15 4 29t-2.5 25t-11 17.5t-20.5 6.5q-14 0 -24.5 -6.5t-19 -17.5t-14 -25t-8.5 -29z" />
    <glyph glyph-name="guillemotright" unicode="&#xbb;" horiz-adv-x="362" 
d="M29 420q13 1 28 8t29 16.5t26.5 22t20.5 25.5l30 -72q26 5 55 25.5t45 46.5l104 -249l-210 -237q-7 23 -26 41t-48 23l-56 -64q-8 23 -27.5 42t-50.5 23l155 172z" />
    <glyph glyph-name="onequarter" unicode="&#xbc;" horiz-adv-x="762" 
d="M349 161q30 31 64 66t69.5 71.5t70.5 72t65 66.5q11 -3 21.5 -6t14.5 -3q5 0 24.5 4.5t41.5 10.5q-17 -57 -31 -118t-27 -119q14 3 32 7t38 9q-6 -14 -12.5 -26.5t-11 -22.5t-7.5 -16l-3 -6q0 -2 0.5 -22t1.5 -45q-9 2 -26.5 6.5t-33.5 4.5q-6 -29 -11 -61t-8 -51
q-28 8 -45.5 12.5t-19.5 4.5q-11 0 -73 -17q8 26 18 57t15 57q-26 0 -53.5 -1t-52.5 -1.5t-45.5 -1.5t-30.5 -1zM513 696q16 -7 26 -11t12 -4t26 8t63 22l-448 -746q-34 14 -39 14q-2 0 -25.5 -7.5t-62.5 -21.5zM152 533l-52 -23q-5 13 -13.5 25t-16.5 17l12 57
q45 14 91.5 31.5t81.5 34.5h58q-5 -17 -11.5 -40t-12.5 -47t-12 -47.5t-10 -41.5l-19 -90q-3 -17 -7.5 -42t-9 -51.5t-8.5 -51.5t-6 -43q-27 8 -45 12.5t-21 4.5q-9 0 -74 -17q6 18 12.5 43t13.5 51.5t13 51.5t9 42zM546 239q-9 -10 -18 -19t-17 -18h27z" />
    <glyph glyph-name="onehalf" unicode="&#xbd;" horiz-adv-x="749" 
d="M427 348q42 47 83 68t87 21q33 0 59 -7.5t43.5 -23.5t23.5 -41t-1 -59q-5 -23 -13.5 -42t-27 -41t-49 -49t-79.5 -64q39 1 77.5 2t62.5 3q-13 -27 -19 -42t-7 -18q-1 -5 -1 -18.5t4 -44.5q-16 1 -39 2.5t-47.5 2.5t-47.5 2t-39 1t-37.5 -0.5t-44 -1.5t-43.5 -2.5
t-37 -2.5l14 66q11 9 28 22t27 21q40 31 72 57t55.5 49.5t38 46t20.5 48.5q5 21 -2 31t-19 10q-10 0 -18.5 -6t-15.5 -14.5t-12.5 -18.5t-8.5 -18l-53 -2zM509 696q17 -7 27 -11t12 -4t26 8t62 22l-448 -746q-33 14 -38 14q-2 0 -25.5 -7.5t-63.5 -21.5zM151 533l-51 -23
q-5 13 -13.5 25t-17.5 17l12 57q46 14 92 31.5t81 34.5h58q-5 -17 -11 -40t-12.5 -47t-12.5 -47.5t-10 -41.5l-19 -90q-3 -17 -7.5 -42t-9 -51.5t-8 -51.5t-6.5 -43q-26 8 -44 12.5t-22 4.5q-9 0 -74 -17q6 18 12.5 43t13.5 51.5t13 51.5t9 42z" />
    <glyph glyph-name="threequarters" unicode="&#xbe;" horiz-adv-x="803" 
d="M42 357h48q8 -10 22.5 -20.5t33.5 -10.5q26 0 43.5 14t22.5 36q5 24 -4.5 33t-23.5 9q-4 0 -14 -2t-23.5 -5t-29 -7.5t-30.5 -8.5q37 67 37 69q1 3 -8 78l-21 74q27 20 65.5 39.5t87.5 19.5q29 0 52.5 -7t39.5 -21.5t22 -36t0 -50.5q-5 -26 -17.5 -46t-28.5 -36
q20 -14 28.5 -36t0.5 -60q-7 -33 -26.5 -61t-48 -47.5t-64.5 -30.5t-78 -11q-37 0 -69.5 10.5t-58.5 24.5zM386 161q30 31 64.5 66t70 71.5t70 72t65.5 66.5q11 -3 21 -6t14 -3q6 0 25 4.5t41 10.5q-16 -57 -30.5 -118t-27.5 -119q14 3 32 7t38 9q-6 -14 -12 -26.5
t-10.5 -22.5t-7.5 -16l-3 -6q0 -2 0.5 -22t1.5 -45q-10 2 -27 6.5t-34 4.5q-5 -29 -10.5 -61t-8.5 -51q-27 8 -44.5 12.5t-20.5 4.5q-10 0 -73 -17q8 26 18 57t15 57q-26 0 -53.5 -1t-52.5 -1.5t-45 -1.5t-31 -1zM561 696q16 -7 26 -11t12 -4t26 8t63 22l-448 -746
q-34 14 -39 14q-2 0 -25.5 -7.5t-62.5 -21.5zM127 542q33 -17 49.5 -23.5t20.5 -6.5q16 0 25 15t13 29q2 13 -4 19.5t-16 6.5q-12 0 -25.5 -12t-22.5 -27zM583 239q-9 -10 -18 -19t-17 -18h27z" />
    <glyph glyph-name="questiondown" unicode="&#xbf;" horiz-adv-x="286" 
d="M130 418q4 18 14.5 34t24.5 27.5t31.5 18.5t35.5 7t32 -7t23.5 -18.5t13 -27.5t-0.5 -34q-6 -32 -31.5 -55.5t-56.5 -29.5q15 -5 31 -15t27.5 -25.5t16 -37.5t-1.5 -52q-6 -29 -19.5 -53t-31 -44.5t-38 -38.5t-41.5 -35q-28 -23 -51.5 -46t-28.5 -47q-4 -17 7 -27.5
t26 -10.5q16 0 50 26t77 68l-14 -151q-31 -17 -67 -32.5t-74 -15.5q-41 0 -69.5 12.5t-45.5 33.5t-22 49t2 60q7 31 21 57t32.5 48t40.5 41.5t44 37.5q29 23 51.5 45.5t27.5 43.5q2 6 0 11.5t-7 5.5t-16 -5t-18 -9l-55 34q15 14 30 33t18 29q15 5 27 8.5t23 5.5
q-22 9 -32.5 31t-5.5 50z" />
    <glyph glyph-name="Agrave" unicode="&#xc0;" horiz-adv-x="662" 
d="M-106 -20q51 77 110.5 167.5t120.5 183.5t120.5 184t110.5 170l-82 61q-14 10 -27 26t-6 46q3 16 12.5 28t21 20.5t24 12.5t22.5 4q17 0 32 -9t26 -23l151 -195h-92q7 -35 15 -73t15 -71q9 -46 20.5 -98t23 -104.5t23 -103t21.5 -94t18 -76.5t13 -51q-39 7 -67.5 11
t-39.5 4q-12 0 -31.5 -2.5t-45.5 -6.5q-4 62 -12.5 114t-18.5 100l-1.5 10.5t-1 6t-1.5 6t-2 9.5q-24 1 -46.5 1h-47.5h-23.5h-18.5t-19 -0.5t-24 -0.5q-38 -63 -74.5 -127.5t-63.5 -121.5q-21 6 -35.5 9t-19.5 3q-7 0 -34 -5.5t-66 -14.5zM325 451q-17 -26 -33.5 -52
t-33.5 -52h43h16h6h6.5h17.5z" />
    <glyph glyph-name="Aacute" unicode="&#xc1;" horiz-adv-x="663" 
d="M461 851q17 14 36 23t36 9q10 0 20.5 -4t18.5 -12.5t12 -20.5t1 -28q-7 -30 -26.5 -46t-39.5 -26q-22 -13 -46.5 -27.5t-50.5 -28.5q8 -37 18 -86.5t19 -91.5q9 -46 20.5 -98t23 -104.5t23 -103t21.5 -94t18 -76.5t13 -51q-39 7 -67.5 11t-39.5 4q-12 0 -31.5 -2.5
t-45.5 -6.5q-4 62 -12.5 114t-18.5 100l-1.5 10.5t-1 6t-1.5 6t-2 9.5q-24 1 -46.5 1h-47.5h-23.5h-18.5t-19 -0.5t-24 -0.5q-38 -63 -74.5 -127.5t-63.5 -121.5q-42 12 -55 12q-7 0 -34 -5.5t-66 -14.5q49 74 105 159.5t114.5 174.5t115.5 176.5t108 165.5h-101zM316 451
q-17 -26 -33.5 -52t-33.5 -52h43h16h6h6.5h17.5z" />
    <glyph glyph-name="Acircumflex" unicode="&#xc2;" horiz-adv-x="668" 
d="M429 698q3 -18 8 -41.5t10 -48t10 -49.5t9 -47q10 -46 21 -98t22.5 -104.5t23 -103t21.5 -94t18 -76.5t13 -51q-39 7 -67.5 11t-39.5 4q-12 0 -31.5 -2.5t-45.5 -6.5q-3 62 -12 114t-18 100l-1.5 10.5t-1.5 6t-1.5 6t-1.5 9.5q-24 1 -46.5 1h-47.5h-23.5h-18.5t-19 -0.5
t-24 -0.5q-38 -63 -74.5 -127.5t-63.5 -121.5q-44 12 -56 12q-7 0 -33.5 -5.5t-66.5 -14.5q52 79 113.5 171t123.5 187t122.5 187.5t111.5 172.5h66zM399 738q-28 -20 -57 -41.5t-53 -40.5h-120l211 222h96l118 -222h-119zM323 451q-17 -26 -33.5 -52t-33.5 -52h43h16h6.5
h6.5h17z" />
    <glyph glyph-name="Atilde" unicode="&#xc3;" horiz-adv-x="662" 
d="M197 678q10 28 27 57.5t38.5 53.5t48 39t56.5 15q20 0 34.5 -5.5t41.5 -19.5q19 -10 26.5 -13.5t13.5 -3.5q7 0 16.5 14t18.5 31h94q-7 -19 -21.5 -47.5t-36.5 -55.5t-51.5 -46t-66.5 -19h-3q6 -37 16 -82t18 -84q10 -46 21 -98t22.5 -104.5t23 -103t21.5 -94t18 -76.5
t13 -51q-40 7 -68 11t-39 4q-12 0 -31.5 -2.5t-45.5 -6.5q-4 62 -12.5 114t-18.5 100l-1.5 10.5t-1.5 6t-1.5 6t-1.5 9.5q-24 1 -46.5 1h-47.5h-23.5h-18.5t-19 -0.5t-24 -0.5q-38 -63 -74.5 -127.5t-63.5 -121.5q-42 12 -55 12q-7 0 -34 -5.5t-67 -14.5q52 79 113.5 171
t123.5 187t122.5 187.5t111.5 172.5h5q-2 2 -8 6q-17 10 -24.5 13t-13.5 3q-5 0 -10.5 -9t-19.5 -33h-95zM324 451l-34 -52l-34 -52h43h16h6.5h6.5h17z" />
    <glyph glyph-name="Adieresis" unicode="&#xc4;" horiz-adv-x="661" 
d="M411 762q7 34 36 58t63 24t53 -24t12 -58q-4 -17 -13.5 -32t-23 -26t-30 -17.5t-33.5 -6.5q-14 0 -25.5 4.5t-20.5 12.5q4 -18 8.5 -41t9.5 -47.5t10 -49.5t10 -47q10 -46 21 -98t22.5 -104.5t23 -103t21.5 -94t18 -76.5t13 -51q-39 7 -67.5 11t-39.5 4q-12 0 -31.5 -2.5
t-45.5 -6.5q-4 62 -12.5 114t-17.5 100q-2 7 -2.5 10.5t-1 6t-1.5 6t-2 9.5q-23 1 -45.5 1h-47.5h-23.5h-18.5t-19.5 -0.5t-24.5 -0.5q-38 -63 -74 -127.5t-64 -121.5q-42 12 -55 12q-7 0 -34 -5.5t-66 -14.5q52 79 113 171t123 187t122.5 187.5t111.5 172.5h65
q-26 24 -17 64zM234 762q7 34 36 58t63 24t53 -24t12 -58q-4 -17 -13.5 -32t-23 -26t-30 -17.5t-33.5 -6.5q-34 0 -53 24t-11 58zM324 451q-17 -26 -33.5 -52t-33.5 -52h43h16h6h6.5h17.5z" />
    <glyph glyph-name="Aring" unicode="&#xc5;" horiz-adv-x="667" 
d="M276 769q6 26 20.5 49.5t35.5 41t46.5 27.5t52.5 10q26 0 47 -10t34.5 -27.5t19 -41t-0.5 -49.5q-8 -38 -34 -68t-62 -47q7 -34 15 -71.5t14 -70.5q10 -46 21 -98t23 -104.5t23 -103t21 -94t18 -76.5t13 -51q-39 7 -67.5 11t-39.5 4q-12 0 -31.5 -2.5t-45.5 -6.5
q-3 62 -11.5 114t-18.5 100l-1.5 10.5t-1.5 6t-1.5 6t-1.5 9.5q-24 1 -46.5 1h-47.5h-23.5h-18.5t-19 -0.5t-24 -0.5q-38 -63 -74.5 -127.5t-63.5 -121.5q-21 6 -36 9t-20 3q-7 0 -33.5 -5.5t-66.5 -14.5q48 73 104.5 158t114 173t114.5 175t107 165q-32 14 -47.5 45.5
t-6.5 72.5zM321 451q-17 -26 -33.5 -52t-33.5 -52h43h16h6.5h6.5h17zM385 769q-2 -8 2 -13t12 -5t14.5 5t8.5 13t-2 13t-12 5t-14.5 -5t-8.5 -13z" />
    <glyph glyph-name="AE" unicode="&#xc6;" horiz-adv-x="829" 
d="M249 225q-45 -54 -89 -113t-86 -122q-20 5 -34.5 7.5t-20.5 2.5q-8 0 -41.5 -6t-84.5 -16q35 39 82.5 92.5t101.5 115.5t112 128.5t115 132.5t109.5 127.5t95.5 112.5q18 -1 39.5 -2t44 -1.5t44.5 -1t41 -0.5t45.5 1t54.5 2t54.5 2t44.5 2q-13 -25 -21 -43t-10 -23
q-1 -5 0 -25t4 -48q-20 4 -41.5 8t-48 7t-59.5 5.5t-77 2.5l-3 -6v1q-8 -29 -14.5 -58t-12.5 -59l-8 -37q36 0 61 0.5t42 1t29 1.5t22 2h11t21 0.5t20.5 0.5h11.5q-14 -26 -22.5 -42.5t-9.5 -18.5t0.5 -18.5t5.5 -42.5h-11.5t-21 0.5t-21.5 0.5h-11q-9 1 -20.5 2t-28.5 1.5
t-41.5 1t-60.5 0.5l-11 -55q-7 -32 -13.5 -65t-11.5 -66q-1 -5 -0.5 -5t0.5 1v1l-1 -6q79 2 141 7.5t100 11.5q-14 -27 -23.5 -46.5t-10.5 -24.5q-2 -5 -0.5 -22t3.5 -42q-19 1 -45.5 2.5t-54.5 2.5t-54.5 1.5t-45.5 0.5t-45 -0.5t-53 -1.5t-53 -2t-45 -2q25 78 38 130.5
t23 97.5zM453 472q-27 -32 -53 -63.5t-63 -74.5q20 -1 40 -1t46 -1z" />
    <glyph glyph-name="Ccedilla" unicode="&#xc7;" horiz-adv-x="629" 
d="M230 -9q-58 13 -101.5 42t-70 73.5t-33.5 103.5t8 131q18 85 59.5 151t100.5 112t132.5 70t156.5 24q61 0 121 -17.5t108 -42.5q-14 -20 -22 -34t-13 -23.5t-7.5 -16t-5.5 -12.5q-1 -2 -2.5 -8l-3 -12t-2.5 -11.5l-1 -5.5l-58 -2q-7 10 -19.5 24t-30 26.5t-39.5 21
t-48 8.5q-45 0 -87 -15t-77.5 -46t-61.5 -78.5t-40 -112.5t-8 -112.5t28 -78.5t58 -46t81 -15q27 0 55.5 9t55.5 22.5t50.5 28.5t40.5 26l32 -39l-31 -84q-10 -7 -27.5 -16t-40 -18t-49 -16.5t-55.5 -12.5q39 -27 27 -83q-6 -28 -21.5 -49t-38 -35t-50 -21t-56.5 -7
q-34 0 -66 10t-55 19l61 97q5 -2 9.5 -4t10.5 -4l-13 16zM272 -100h-6.5t-6.5 -1h5h13t5 1h-10v0z" />
    <glyph glyph-name="Egrave" unicode="&#xc8;" horiz-adv-x="402" 
d="M22 419q6 29 13 64t13 71t12 70.5t11 63.5q33 -2 79.5 -3.5t86.5 -2.5l-85 64q-7 5 -14.5 11t-12.5 14.5t-7.5 20t0.5 26.5q3 16 12.5 28t21 20.5t24 12.5t22.5 4q17 0 32 -9t26 -23l129 -166q25 2 47.5 2t40.5 2q-11 -27 -16.5 -43t-7.5 -22q-2 -10 -4 -66q-6 0 -19.5 1
t-27.5 2t-27 2t-18 1q-19 2 -32 3.5t-28 3t-35.5 2t-54.5 0.5l-1 -5l-1 -4q-4 -15 -8 -33t-9 -37q-4 -20 -7.5 -40.5t-7.5 -37.5l-1 -4q66 1 122 4.5t107 7.5q-11 -26 -17.5 -43.5t-8.5 -23.5q-1 -5 -1.5 -22t-0.5 -46q-70 8 -128.5 10.5t-96.5 2.5l-20 -94q-6 -26 -9 -41
t-5.5 -25t-3.5 -17t-2 -16q57 1 123 5t135 16q-13 -29 -20.5 -48.5t-8.5 -24.5q-2 -5 -2 -20.5v-43.5q-20 1 -46.5 2.5t-55 2.5t-56 1.5t-48.5 0.5q-20 0 -46 -0.5t-53.5 -1.5t-54 -2t-47.5 -2q8 29 17 64.5t18 71.5t17.5 71t14.5 64z" />
    <glyph glyph-name="Eacute" unicode="&#xc9;" horiz-adv-x="401" 
d="M11 419q6 29 13 64t13 71t12 70.5t11 63.5q16 -1 35.5 -1.5t41.5 -1.5l199 166q17 14 36 23t36 9q10 0 20.5 -4t18.5 -12.5t12 -20.5t1 -28q-6 -30 -25.5 -46t-39.5 -26q-26 -15 -55 -31t-58 -33q21 0 45.5 1t48.5 2t46.5 2t39.5 2q-11 -27 -16.5 -43t-7.5 -22
q-2 -10 -4 -66q-6 0 -19.5 1t-27.5 2t-27 2t-18 1q-19 2 -32 3.5t-28 3t-35.5 2t-54.5 0.5l-1 -5l-1 -4q-4 -15 -8 -33t-9 -37q-4 -20 -7.5 -40.5t-7.5 -37.5l-1 -4q66 1 122 4.5t107 7.5q-11 -26 -17.5 -43.5t-8.5 -23.5q-1 -5 -1.5 -22t-0.5 -46q-70 8 -128.5 10.5
t-96.5 2.5l-20 -94q-6 -26 -9 -41t-5.5 -25t-3.5 -17t-2 -16q57 1 123 5t135 16q-13 -29 -20.5 -48.5t-8.5 -24.5q-2 -5 -2 -20.5v-43.5q-20 1 -46.5 2.5t-55 2.5t-56 1.5t-48.5 0.5q-20 0 -46 -0.5t-53.5 -1.5t-54 -2t-47.5 -2q8 29 17 64.5t18 71.5t17.5 71t14.5 64z" />
    <glyph glyph-name="Ecircumflex" unicode="&#xca;" horiz-adv-x="408" 
d="M20 419l11 55t11.5 61l11 62t9.5 59h-18l22 22q1 3 1 10q2 0 4 -0.5t4 -0.5l182 191h96l99 -190h9t9 1l-4 -10t-5 -10l8 -13h-13q-8 -24 -10 -32q-2 -6 -3 -22.5t0 -43.5q-7 0 -20 1t-27.5 2t-27 2t-18.5 1q-19 2 -32 3.5t-28 3t-35 2t-54 0.5q-1 -5 -1.5 -5t-1.5 -4
q-4 -15 -8.5 -33t-8.5 -37q-5 -20 -8.5 -40.5t-7.5 -37.5v-4q66 1 122 4.5t106 7.5q-22 -55 -25 -67q-1 -9 -3 -68q-69 8 -128 10.5t-97 2.5l-20 -94q-5 -26 -8.5 -41t-5.5 -25t-3.5 -17t-2.5 -16q57 1 123.5 5t135.5 16q-14 -29 -21 -48.5t-9 -24.5q-1 -5 -1.5 -20.5
t0.5 -43.5q-20 1 -47 2.5t-55.5 2.5t-55.5 1.5t-48 0.5q-20 0 -46.5 -0.5t-54 -1.5t-53.5 -2t-47 -2q7 29 16 64.5t18 71.5t17.5 71t14.5 64zM266 682h27.5t32.5 1l-50 55q-19 -14 -37.5 -27.5t-37.5 -27.5q18 -1 34.5 -1h30.5z" />
    <glyph glyph-name="Edieresis" unicode="&#xcb;" horiz-adv-x="407" 
d="M292 762q7 34 36 58t63 24t53 -24t12 -58q-6 -27 -26 -48t-46 -29q26 2 49.5 2t41.5 2q-11 -27 -16.5 -43t-7.5 -22q-1 -6 -2 -22.5t-2 -43.5q-6 0 -19 1t-27.5 2t-27 2t-17.5 1q-19 2 -32.5 3.5t-28.5 3t-35.5 2t-54.5 0.5q-1 -5 -0.5 -5t-0.5 -4q-9 -30 -17 -70
q-5 -20 -8.5 -40.5t-7.5 -37.5l-1 -4q66 1 122.5 4.5t106.5 7.5q-23 -55 -25 -67q-3 -9 -3 -68q-70 8 -128.5 10.5t-96.5 2.5l-20 -94q-6 -26 -9 -41l-5 -25t-3.5 -17t-2.5 -16q57 1 123 5t135 16q-13 -29 -20.5 -48.5t-8.5 -24.5q-2 -5 -2 -20.5v-43.5q-20 1 -46.5 2.5
t-55 2.5t-55.5 1.5t-48 0.5q-20 0 -46.5 -0.5t-54 -1.5t-54 -2t-47.5 -2q8 29 17 64.5t18 71.5t17.5 71t14.5 64l32 154q6 29 12.5 64t13 71t12 70.5t10.5 63.5q17 -1 37.5 -1.5t42.5 -1.5q-21 8 -32.5 29t-5.5 48q7 34 36 58t63 24t53 -24t12 -58q-6 -29 -27.5 -50.5
t-49.5 -28.5q20 -1 37 -1h32h29.5t33.5 1q-24 7 -36 28.5t-6 50.5z" />
    <glyph glyph-name="Igrave" unicode="&#xcc;" horiz-adv-x="254" 
d="M85 418q6 29 12.5 65t13 73t13 73t11.5 65q14 -3 25 -5t21 -3l-80 60q-16 10 -29 26t-6 46q3 16 12.5 28t21 20.5t24 12.5t22.5 4q17 0 32 -9t26 -23l151 -195h-68q-7 -28 -14.5 -59.5t-15.5 -63t-15 -61t-12 -54.5l-33 -154q-6 -29 -12.5 -64.5t-13.5 -73t-13 -73.5
t-11 -65q-29 6 -49.5 9t-29.5 3q-8 0 -30 -3t-53 -9q7 29 16 65t18.5 73.5t18 73t14.5 64.5z" />
    <glyph glyph-name="Iacute" unicode="&#xcd;" horiz-adv-x="253" 
d="M225 851q17 14 36 23t36 9q10 0 20.5 -4t18.5 -12.5t12 -20.5t1 -28q-7 -30 -26.5 -46t-38.5 -26q-25 -14 -52.5 -30t-54.5 -30q19 1 50 8q-8 -29 -17 -65t-18.5 -73t-18 -73t-14.5 -65l-33 -154q-6 -29 -12.5 -64.5t-13 -73t-13 -73.5t-11.5 -65q-29 6 -49 9t-28 3
q-9 0 -31 -3t-54 -9q8 29 17.5 65t18.5 73.5t17.5 73t14.5 64.5l32 154q5 25 11 54.5t11.5 61t10.5 63t10 59.5h-66z" />
    <glyph glyph-name="Icircumflex" unicode="&#xce;" horiz-adv-x="336" 
d="M296 668q-8 -29 -16 -62l-16 -66t-15 -64.5t-13 -57.5l-32 -154q-6 -29 -13 -64.5t-14 -73t-13 -73.5t-10 -65q-29 6 -50 9t-30 3q-20 0 -83 -12q7 29 16 65t18 73.5t18 73t15 64.5l32 154q6 25 12 56.5t12 65t11 66t10 61.5q-3 -3 -6.5 -5.5t-6.5 -5.5h-120l211 222h96
l118 -222h-119zM219 682q7 0 22 2t37 5l-46 49q-16 -12 -33 -25t-34 -25q39 -6 54 -6z" />
    <glyph glyph-name="Idieresis" unicode="&#xcf;" horiz-adv-x="319" 
d="M239 762q8 34 36.5 58t62.5 24t53 -24t12 -58q-8 -34 -36.5 -58t-62.5 -24h-8q-8 -29 -17 -63t-17.5 -69.5t-16 -69t-13.5 -60.5l-33 -154q-6 -29 -12.5 -64.5t-13.5 -73t-13 -73.5t-10 -65q-60 12 -80 12q-9 0 -30.5 -3t-52.5 -9q7 29 16 65t18 73.5t17.5 73t14.5 64.5
l33 154q6 27 12 60.5t12.5 69t12.5 69.5t11 63h-7q-17 0 -30.5 6.5t-22.5 17.5t-12.5 26t0.5 32q8 34 36.5 58t62.5 24t53 -24t12 -58q-5 -24 -22 -43.5t-40 -30.5q36 -6 51 -6q6 0 20 2t34 4q-18 11 -26.5 30.5t-3.5 43.5z" />
    <glyph glyph-name="Eth" unicode="&#xd0;" horiz-adv-x="780" 
d="M40 437q17 -2 43 -3t51 -1q6 29 12 62.5t12 67.5t11 66.5t10 59.5q17 -1 39.5 -2t46.5 -2t46.5 -2t39.5 -1t32.5 0.5t32.5 1.5l36 2t35 1q88 0 146.5 -23t89 -66t36 -104.5t-10.5 -139.5q-21 -100 -70 -168.5t-111 -110.5t-130 -60.5t-127 -18.5h-31.5t-30.5 1
q-14 1 -28.5 2t-28.5 1q-15 0 -36.5 -0.5t-43.5 -1.5t-43 -2.5t-36 -2.5q7 29 16 64t18 71.5t17.5 71.5t14.5 64l14 64q-24 -1 -51 -2.5l-45 -2.5q8 21 14.5 39t6.5 19q0 8 1 17q0 8 0.5 18t1.5 21zM243 264q-5 -24 -9 -43.5t-7.5 -37.5t-7 -37t-6.5 -42q17 -2 38 -2.5
t44 -0.5q43 0 88 10.5t85.5 38t72 77t48.5 127.5q14 67 7 110.5t-31 68.5t-62 34.5t-85 9.5q-29 0 -55 -1.5t-50 -3.5q-10 -34 -18 -68.5t-16 -70.5q22 0 47.5 0.5t50 1t47.5 1t40 1.5q-14 -26 -19.5 -40t-6.5 -16q-1 -6 0 -59q-41 2 -89.5 4t-91.5 2z" />
    <glyph glyph-name="Ntilde" unicode="&#xd1;" horiz-adv-x="661" 
d="M465 -16q-67 105 -148 220t-161 224l-20 -94q-6 -29 -15.5 -78.5t-18.5 -102.5t-16.5 -100t-9.5 -71q-29 8 -47 13t-22 5q-6 0 -27.5 -4t-53.5 -11q6 15 15 45t20.5 68.5t23.5 83t23 88t21 83t16 69.5q9 42 17.5 85t16 80.5t13 66.5t7.5 44h68q8 -10 19 -26.5t19 -27.5
q81 -115 147.5 -209.5t125.5 -169.5q11 55 23 113.5t23 115.5t20.5 109.5t15.5 95.5q57 -17 65 -17q3 0 22.5 5t51.5 13q-6 -18 -14 -46.5t-17 -61.5t-18.5 -68.5t-18 -68.5t-15.5 -60.5t-10 -44.5q-5 -23 -12 -56.5t-14.5 -70.5t-15.5 -75.5t-14.5 -71.5t-11.5 -57.5
t-7 -34.5h-66zM211 678q10 28 27 57.5t38.5 53.5t48 39t56.5 15q20 0 34.5 -5.5t40.5 -19.5q20 -10 27.5 -13.5t13.5 -3.5q7 0 16 14t18 31h94q-7 -19 -21.5 -47.5t-36 -55.5t-51 -46t-66.5 -19q-17 0 -35 6t-41 20q-16 10 -23.5 13t-14.5 3q-5 0 -11 -9t-19 -33h-95z" />
    <glyph glyph-name="Ograve" unicode="&#xd2;" horiz-adv-x="793" 
d="M6 341q16 78 53 140.5t89.5 108t117.5 72.5t138 34l-67 50q-7 5 -14.5 11t-12.5 14.5t-7.5 20t0.5 26.5q3 16 12.5 28t21 20.5t24 12.5t22.5 4q17 0 32 -9t26 -23l130 -168q109 -30 158 -118t21 -224q-18 -85 -59.5 -151.5t-100 -112t-132.5 -69.5t-156 -24t-145 24
t-102.5 69.5t-53 112t4.5 151.5zM591 341q14 65 7.5 112.5t-28.5 78.5t-57.5 46t-80.5 15t-87 -15t-77 -46t-61.5 -78.5t-40.5 -112.5t-7.5 -112.5t28 -78.5t57 -46t80.5 -15t87 15t77.5 46t62 78.5t40.5 112.5z" />
    <glyph glyph-name="Oacute" unicode="&#xd3;" horiz-adv-x="793" 
d="M2 341q15 68 45 124.5t72 100t95.5 73.5t114.5 45l199 167q17 14 36 23t36 9q10 0 20.5 -4t18.5 -12.5t12 -20.5t1 -28q-6 -30 -25.5 -46t-39.5 -26q-20 -11 -43 -24l-46 -26q71 -7 125 -34t87 -72.5t42.5 -108t-6.5 -140.5q-18 -85 -59.5 -151.5t-100 -112t-132.5 -69.5
t-156 -24t-145 24t-102.5 69.5t-53 112t4.5 151.5zM587 341q14 65 7.5 112.5t-28.5 78.5t-57.5 46t-80.5 15t-87 -15t-77 -46t-61.5 -78.5t-40.5 -112.5t-7.5 -112.5t28 -78.5t57 -46t80.5 -15t87 15t77.5 46t62 78.5t40.5 112.5z" />
    <glyph glyph-name="Ocircumflex" unicode="&#xd4;" horiz-adv-x="797" 
d="M6 341q24 114 89 193.5t157 121.5h-19l212 222h96l117 -222h-19q74 -42 104.5 -121.5t6.5 -193.5q-18 -85 -59.5 -151.5t-100 -112t-132.5 -69.5t-156 -24t-145 24t-102.5 69.5t-53 112t4.5 151.5zM591 341q14 65 7.5 112.5t-28.5 78.5t-57.5 46t-80.5 15t-87 -15
t-77 -46t-61.5 -78.5t-40.5 -112.5t-7.5 -112.5t28.5 -78.5t57.5 -46t80.5 -15t87 15t77 46t61.5 78.5t40.5 112.5zM454 698q12 0 24 -0.5t24 -1.5l-38 42q-14 -11 -28.5 -21t-29.5 -21q12 1 24 1.5t24 0.5z" />
    <glyph glyph-name="Otilde" unicode="&#xd5;" horiz-adv-x="797" 
d="M10 341q14 65 42 119.5t67.5 97.5t89 73t106.5 47h-51q10 28 27 57.5t38.5 53.5t48 39t56.5 15q20 0 34.5 -5.5t41.5 -19.5q19 -10 27 -13.5t14 -3.5q7 0 16 14t18 31h94q-6 -15 -16.5 -37.5t-26.5 -45.5t-36.5 -43t-46.5 -32q60 -12 104.5 -41t71 -73t33.5 -102.5
t-8 -130.5q-18 -85 -59.5 -151.5t-100 -112t-132.5 -69.5t-156 -24t-145 24t-102.5 69.5t-53 112t4.5 151.5zM595 341q14 65 7.5 112.5t-28.5 78.5t-58 46t-81 15t-86.5 -15t-76.5 -46t-61.5 -78.5t-40.5 -112.5t-7.5 -112.5t28 -78.5t57 -46t80.5 -15t87 15t77.5 46
t62 78.5t40.5 112.5zM365 690q18 3 35.5 4.5t35.5 2.5q-2 2 -4 3.5t-4 3.5q-17 10 -25 13t-14 3q-4 0 -9 -6.5t-15 -23.5z" />
    <glyph glyph-name="Odieresis" unicode="&#xd6;" horiz-adv-x="797" 
d="M478 762q4 17 13.5 32t23 26t30 17.5t33.5 6.5q34 0 53 -24t11 -58q-5 -27 -25.5 -48t-45.5 -29q111 -30 161.5 -118t21.5 -226q-18 -85 -59.5 -151.5t-100 -112t-132.5 -69.5t-156 -24t-145 24t-102.5 69.5t-53 112t4.5 151.5q15 69 45 126t73 100.5t96.5 73t114.5 44.5
q-22 8 -32.5 29t-5.5 48q4 17 13.5 32t23 26t30 17.5t33.5 6.5q34 0 53 -24t11 -58q-4 -20 -17 -37t-30 -29q10 1 20 1.5t20 0.5t20 -0.5t18 -1.5q-11 12 -16.5 29t-1.5 37zM595 341q14 65 7.5 112.5t-28.5 78.5t-57.5 46t-80.5 15t-87 -15t-77 -46t-61.5 -78.5
t-40.5 -112.5t-7.5 -112.5t28 -78.5t57 -46t80.5 -15t87 15t77.5 46t62 78.5t40.5 112.5z" />
    <glyph glyph-name="multiply" unicode="&#xd7;" horiz-adv-x="518" 
d="M176 263q-32 39 -68 85t-63 81l101 83l130 -166q24 19 50.5 41l53 44t51.5 43t46 38l66 -83l-201 -166l130 -165l-100 -84l-131 165l-200 -165l-66 84z" />
    <glyph glyph-name="Oslash" unicode="&#xd8;" horiz-adv-x="809" 
d="M32 341q18 85 59.5 151t100.5 112t132.5 70t155.5 24q59 0 109.5 -13t88.5 -38q12 12 26 26.5t28.5 29.5t27 29.5t21.5 26.5q12 -23 34 -46t43 -38q-32 -20 -64.5 -46t-53.5 -43q32 -45 42 -107t-6 -138q-18 -85 -59.5 -151.5t-100 -112t-132.5 -69.5t-156 -24
q-60 0 -108 12.5t-87 37.5q-23 -21 -52.5 -51.5t-57.5 -63.5q-25 52 -72 82q38 26 66.5 50t49.5 43q-27 45 -38.5 110t3.5 137zM578 556q-23 20 -53 28.5t-68 8.5q-45 0 -86.5 -15t-76.5 -46t-61.5 -78.5t-40.5 -112.5q-18 -82 -4 -138zM232 125q22 -18 52 -27t66 -9
q45 0 87 15t77.5 46t62 78.5t40.5 112.5q18 80 4 136z" />
    <glyph glyph-name="Ugrave" unicode="&#xd9;" horiz-adv-x="643" 
d="M481 359q13 62 23 110.5t17 88t11.5 73t6.5 66.5q29 -7 49 -11t28 -4q4 0 23.5 5.5t48.5 14.5q-9 -32 -23.5 -83.5t-30.5 -111t-31 -120t-25 -109.5q-15 -68 -46.5 -122.5t-77 -92.5t-104 -58.5t-127.5 -20.5q-152 0 -207 71.5t-23 220.5q5 23 9.5 42.5t9.5 37.5
q5 17 8.5 31.5t6.5 30.5q14 64 23 116t17 92q0 3 2 13t4.5 21.5t4.5 21t3 12.5q26 -5 47.5 -8.5t31.5 -3.5q7 0 30 4t54 11q-9 -30 -21 -71t-24 -88t-24.5 -97t-22.5 -98q-8 -40 -14.5 -83.5t1 -79.5t35.5 -59t90 -23q60 0 98.5 26.5t62.5 66.5t36 85t20 83zM266 746
q-15 10 -28 26t-7 46q3 16 12.5 28t21 20.5t24 12.5t22.5 4q17 0 32 -9t26 -23l152 -195h-135z" />
    <glyph glyph-name="Uacute" unicode="&#xda;" horiz-adv-x="642" 
d="M474 359q13 62 23 110.5t17 88t11.5 73t6.5 66.5q29 -7 49 -11t28 -4q4 0 23.5 5.5t48.5 14.5q-9 -32 -23.5 -83.5t-30.5 -111t-31 -120.5t-26 -110l1 1q-15 -68 -46.5 -122.5t-77 -92.5t-104 -58.5t-127.5 -20.5q-152 0 -207 71.5t-23 220.5q5 23 10 42.5t9 37.5
q5 17 8.5 31.5t6.5 30.5q14 64 23 116t17 92q0 3 2 13t4.5 21.5t4.5 21t3 12.5q26 -5 47.5 -8.5t31.5 -3.5q7 0 30 4t54 11q-6 -17 -12 -36l228 190q17 14 36 23t36 9q10 0 20.5 -4t19 -12.5t12 -20.5t0.5 -28q-6 -30 -25.5 -46t-38.5 -26q-38 -21 -79.5 -45t-79.5 -45h-130
q-9 -31 -19.5 -68.5t-21 -78.5t-20 -83.5t-18.5 -82.5q-8 -40 -14.5 -83.5t1 -79.5t35.5 -59t90 -23q60 0 98.5 26.5t62.5 66.5t36 85t20 83z" />
    <glyph glyph-name="Ucircumflex" unicode="&#xdb;" horiz-adv-x="647" 
d="M160 682q4 0 11 1t19 3l183 192h96l98 -188q37 -8 49 -8q4 0 23 5.5t48 14.5q-9 -32 -23.5 -83.5t-30 -111t-30.5 -120t-26 -109.5q-15 -68 -46.5 -122.5t-77 -92.5t-104 -58.5t-127.5 -20.5q-153 0 -207 71.5t-22 220.5q5 23 9.5 42.5t9.5 37.5q4 17 7.5 31.5t7.5 30.5
q14 64 23 116t16 92q1 3 3 13t4.5 21.5t4.5 21t2 12.5q26 -5 48 -8.5t32 -3.5zM391 738q-27 -20 -56 -41.5t-55 -40.5h-50q-9 -31 -19 -68.5t-20.5 -78.5t-20 -83.5t-18.5 -82.5t-15.5 -83.5t1.5 -79.5t36 -59t90 -23q60 0 98.5 26.5t62 66.5t35.5 85t20 83q11 52 20 94.5
t15.5 78t11.5 66t8 58.5h-69z" />
    <glyph glyph-name="Udieresis" unicode="&#xdc;" horiz-adv-x="648" 
d="M484 359q13 62 23 110.5t17 88t11.5 73t6.5 66.5q29 -7 49 -11t28 -4q4 0 23.5 5.5t48.5 14.5q-9 -32 -23.5 -83.5t-30.5 -111t-31 -120t-25 -109.5q-15 -68 -46.5 -122.5t-77 -92.5t-104 -58.5t-127.5 -20.5q-152 0 -207 71.5t-23 220.5q5 23 9.5 42.5t9.5 37.5
q5 17 8.5 31.5t6.5 30.5q14 64 23 116t17 92q0 3 2.5 13t4.5 21.5t4.5 21t2.5 12.5q26 -5 47.5 -8.5t31.5 -3.5q7 0 30 4t54 11q-9 -30 -21 -71t-24 -88t-24.5 -97t-22.5 -98q-8 -40 -14.5 -83.5t1 -79.5t35.5 -59t90 -23q60 0 98.5 26.5t62.5 66.5t36 85t20 83zM229 762
q8 34 36.5 58t62.5 24t53 -24t11 -58q-7 -34 -36 -58t-63 -24t-52.5 24t-11.5 58zM405 762q4 17 13.5 32t23 26t30 17.5t33.5 6.5q34 0 53 -24t11 -58q-7 -34 -36 -58t-63 -24t-53 24t-12 58z" />
    <glyph glyph-name="Yacute" unicode="&#xdd;" horiz-adv-x="582" 
d="M110 -12q26 81 42.5 150.5t31.5 137.5q-7 19 -20.5 54t-30 77.5t-34.5 88t-34 86.5t-29.5 72t-19.5 45q45 -8 77 -12.5t45 -4.5q11 0 30 2.5t42 5.5q1 -5 2 -10.5t2 -10.5l208 173q17 14 36 23t36 9q10 0 20.5 -4t19 -12.5t12 -20.5t0.5 -28q-7 -30 -26.5 -46t-37.5 -26
q-38 -21 -80 -45t-80 -45h-101q9 -30 18 -58t18.5 -56t20 -58t22.5 -64q25 31 52 66t54.5 72t53.5 73.5t49 69.5q18 -5 32 -7.5t21 -2.5q8 0 39.5 6.5t79.5 16.5q-71 -82 -127.5 -147.5t-99 -116.5t-73 -89t-49.5 -65q-7 -33 -15 -72t-15 -79.5t-13 -79t-10 -68.5
q-59 12 -81 12q-11 0 -33.5 -3t-54.5 -9z" />
    <glyph glyph-name="Thorn" unicode="&#xde;" horiz-adv-x="474" 
d="M51 418q6 29 12.5 65t13.5 73t13 73t11 65q29 -5 49.5 -8.5t29.5 -3.5q10 0 32.5 3.5t54.5 8.5q-9 -30 -20.5 -63t-17.5 -62h74q54 0 94 -11t65 -34.5t33 -60t-3 -86.5q-13 -60 -44 -99.5t-72.5 -63.5t-89.5 -33.5t-94 -9.5h-17.5h-9t-7.5 0.5t-13 0.5l-3 -11
q-8 -38 -14 -83.5t-4 -90.5q-33 6 -56.5 9.5t-32.5 3.5q-20 0 -83 -12q7 29 16 65t18 73.5t17.5 73t14.5 64.5zM167 276h34q22 0 44 6t41 18.5t32.5 31t18.5 44.5q3 16 1 32t-11.5 28.5t-28 20t-48.5 7.5h-43z" />
    <glyph glyph-name="germandbls" unicode="&#xdf;" horiz-adv-x="518" 
d="M35 400q6 29 10.5 50.5t6.5 35.5q2 8 2 13.5t1 9.5q14 65 44.5 111t68.5 74.5t79.5 41.5t76.5 13q26 0 53.5 -9.5t48.5 -27.5t32 -43.5t4 -56.5q-5 -24 -15.5 -45t-24.5 -39t-30.5 -33.5t-32.5 -29.5q-16 -15 -29 -28t-15 -20q-2 -12 14.5 -26.5t37.5 -29.5
q19 -14 38 -30.5t33 -36.5t20.5 -45.5t-0.5 -58.5q-8 -36 -33 -72t-60.5 -65t-77.5 -47.5t-84 -18.5q-26 0 -52.5 7.5t-50.5 20.5q-1 -8 -1.5 -14.5t-0.5 -13.5q-30 6 -50.5 9.5t-28.5 3.5t-29 -3.5t-53 -9.5q11 36 22 77t20.5 81t18 77.5t14.5 67.5zM150 290
q-8 -38 -18 -88t-18 -103q4 9 7 17l6 16h57q7 -17 23.5 -28.5t35.5 -11.5q23 0 45.5 16t27.5 43q3 15 -1 27.5t-13.5 24.5t-22.5 22.5t-26 20.5q-18 13 -34 27t-27.5 30.5t-16 36.5t0.5 46q8 35 32 61.5t54 53.5q26 23 50 47.5t30 52.5q5 20 -6.5 34t-36.5 14
q-42 0 -65.5 -38t-38.5 -110l-45 -211v0z" />
    <glyph glyph-name="agrave" unicode="&#xe0;" horiz-adv-x="463" 
d="M69 435q64 41 109.5 55.5t86.5 14.5h9l-115 86q-15 11 -28 27t-6 46q3 16 12 28t20.5 20t24 12.5t22.5 4.5q17 0 32 -9.5t26 -23.5l152 -194h-109q61 -12 90 -55.5t15 -109.5q-5 -25 -11 -50l-12 -50q-6 -24 -13 -54t-13 -56l-4 -20t-3 -10l1.5 0.5t7.5 3.5l18 9l34 17
l-22 -106q-20 -8 -47.5 -16.5t-50.5 -8.5q-26 0 -43 8.5t-27 23.5q-30 -20 -62.5 -30.5t-72.5 -10.5q-29 0 -55 10t-43.5 29t-25 46t0.5 61q14 70 64 108.5t125 49.5q39 6 60.5 9.5t32.5 6.5t13.5 5.5t3.5 6.5q7 31 -2.5 54t-43.5 23q-26 0 -54.5 -16t-49.5 -45h-68z
M242 212q-2 -1 -4 -0.5t-4 -0.5q-19 -3 -39 -7.5t-37 -11.5t-29 -18t-16 -29q-5 -24 5.5 -36.5t26.5 -12.5q22 0 42 10.5t36 27.5z" />
    <glyph glyph-name="aacute" unicode="&#xe1;" horiz-adv-x="459" 
d="M338 696q17 14 36 23.5t37 9.5q10 0 20.5 -4.5t18.5 -12.5t12 -20t1 -28q-7 -30 -26.5 -46t-38.5 -27q-36 -20 -76.5 -43t-76.5 -43h5q40 0 71 -12t50 -34t25.5 -53t-1.5 -69q-5 -25 -11 -50l-12 -50q-6 -24 -13 -54t-13 -56l-4 -20t-3 -10l1.5 0.5t7.5 3.5l18 9l34 17
l-22 -106q-20 -8 -47.5 -16.5t-50.5 -8.5q-26 0 -43 8.5t-27 23.5q-30 -20 -62.5 -30.5t-72.5 -10.5q-29 0 -54.5 10t-43.5 29t-25.5 46t0.5 61q14 70 64 108.5t125 49.5q39 6 60.5 9.5t32.5 6.5t13.5 5.5t3.5 6.5q7 31 -2.5 54t-43.5 23q-26 0 -54.5 -16t-49.5 -45h-68
l21 100q47 31 83 46t69 21h-101zM227 212q-2 -1 -4 -0.5t-4 -0.5q-19 -3 -39 -7.5t-37 -11.5t-29 -18t-16 -29q-5 -24 5.5 -36.5t26.5 -12.5q22 0 42 10.5t36 27.5z" />
    <glyph glyph-name="acircumflex" unicode="&#xe2;" horiz-adv-x="466" 
d="M65 435q63 41 108.5 55.5t86.5 14.5q40 0 71 -12t50 -34t26 -53t-1 -69q-5 -25 -11.5 -50t-12.5 -50q-5 -24 -12.5 -54t-12.5 -56l-4 -20t-3 -10l1.5 0.5t7.5 3.5l18 9l34 17l-22 -106q-20 -8 -48 -16.5t-51 -8.5q-26 0 -42.5 8.5t-26.5 23.5q-31 -20 -63.5 -30.5
t-72.5 -10.5q-29 0 -54.5 10t-43 29t-25 46t-0.5 61q15 70 65 108.5t125 49.5q39 6 60.5 9.5t32.5 6.5t13.5 5.5t3.5 6.5q7 31 -3 54t-44 23q-26 0 -54.5 -16t-49.5 -45h-68zM280 583q-27 -20 -56 -41t-54 -40h-119l211 221h96l117 -221h-118zM238 212q-2 -1 -4 -0.5
t-4 -0.5q-19 -3 -39 -7.5t-37 -11.5t-29 -18t-16 -29q-5 -24 5 -36.5t26 -12.5q22 0 42.5 10.5t36.5 27.5z" />
    <glyph glyph-name="atilde" unicode="&#xe3;" horiz-adv-x="473" 
d="M72 435q64 41 109.5 55.5t86.5 14.5q40 0 71 -12t50 -34t25.5 -53t-1.5 -69q-5 -25 -11 -50l-12 -50q-6 -24 -13 -54t-13 -56l-4 -20t-3 -10l1.5 0.5t7.5 3.5l18 9l34 17l-22 -106q-20 -8 -47.5 -16.5t-50.5 -8.5q-26 0 -43 8.5t-27 23.5q-30 -20 -62.5 -30.5
t-72.5 -10.5q-29 0 -55 10t-43.5 29t-25 46t0.5 61q14 70 64 108.5t125 49.5q39 6 60.5 9.5t32.5 6.5t13.5 5.5t3.5 6.5q7 31 -2.5 54t-43.5 23q-26 0 -54.5 -16t-49.5 -45h-68zM85 524q11 28 27.5 57t38.5 53t48 39t56 15q20 0 35 -5t41 -19q19 -10 26.5 -13.5t13.5 -3.5
q7 0 16.5 14t18.5 31h95q-8 -19 -22.5 -47.5t-36.5 -55.5t-51.5 -46t-65.5 -19q-17 0 -35.5 5.5t-41.5 19.5q-16 11 -23.5 13.5t-13.5 2.5q-5 0 -11 -8.5t-20 -32.5h-95zM246 212q-3 -1 -4.5 -0.5t-4.5 -0.5q-19 -3 -39 -7.5t-37 -11.5t-29 -18t-16 -29q-5 -24 5.5 -36.5
t26.5 -12.5q22 0 42 10.5t36 27.5z" />
    <glyph glyph-name="adieresis" unicode="&#xe4;" horiz-adv-x="471" 
d="M71 435q64 41 109.5 55.5t86.5 14.5q40 0 71 -12t50 -34t25.5 -53t-1.5 -69q-5 -25 -11 -50l-12 -50q-6 -24 -13 -54t-12 -56q-2 -10 -4.5 -20t-3.5 -10l1.5 0.5t7.5 3.5t18.5 9t34.5 17l-23 -106q-20 -8 -47.5 -16.5t-50.5 -8.5q-50 0 -69 32q-31 -20 -63.5 -30.5
t-72.5 -10.5q-29 0 -54.5 10t-43 29t-25 46t-0.5 61q15 70 64.5 108.5t125.5 49.5q39 6 60.5 9.5t32 6.5t13 5.5t3.5 6.5q7 31 -2.5 54t-43.5 23q-26 0 -54.5 -16t-49.5 -45h-68zM122 608q7 33 35.5 57t62.5 24t53 -24t12 -57q-4 -17 -13.5 -32t-23 -26t-30 -17.5
t-33.5 -6.5q-34 0 -52.5 24t-10.5 58zM298 608q7 33 36 57t63 24t53 -24t12 -57q-4 -17 -13.5 -32t-23 -26t-30 -17.5t-33.5 -6.5q-34 0 -53 24t-11 58zM245 212q-2 -1 -4 -0.5t-4 -0.5q-19 -3 -39 -7.5t-37.5 -11.5t-29.5 -18t-16 -29q-5 -24 5.5 -36.5t26.5 -12.5
q22 0 42 10.5t36 27.5z" />
    <glyph glyph-name="aring" unicode="&#xe5;" horiz-adv-x="465" 
d="M157 615q6 26 20.5 49t35.5 40.5t46.5 27.5t52.5 10q26 0 47.5 -10t35 -27.5t19 -40.5t-0.5 -49q-8 -38 -36 -69.5t-65 -47.5q55 -14 80 -56.5t12 -104.5q-5 -25 -11 -50l-12 -50q-6 -24 -13 -54t-13 -56l-4 -20t-3 -10l1.5 0.5t7.5 3.5l18 9l34 17l-22 -106
q-20 -8 -48 -16.5t-51 -8.5q-26 0 -42.5 8.5t-26.5 23.5q-31 -20 -63.5 -30.5t-72.5 -10.5q-29 0 -54.5 10t-43 29t-25 46t-0.5 61q15 70 65 108.5t125 49.5q39 6 60.5 9.5t32.5 6.5t13.5 5.5t3.5 6.5q7 31 -3 54t-44 23q-26 0 -54.5 -16t-49.5 -45h-68l22 100q44 29 78 44
t64 21q-29 16 -42.5 46.5t-5.5 68.5zM236 212q-2 -1 -4 -0.5t-4 -0.5q-19 -3 -39 -7.5t-37 -11.5t-29 -18t-16 -29q-5 -24 5.5 -36.5t26.5 -12.5q22 0 42 10.5t36 27.5zM266 615q-2 -8 2 -13t12 -5t14.5 5t8.5 13t-2 13t-12 5t-14.5 -5t-8.5 -13z" />
    <glyph glyph-name="ae" unicode="&#xe6;" horiz-adv-x="784" 
d="M115 435q63 41 109 55.5t87 14.5q29 0 63.5 -9t60.5 -40q32 23 69.5 36t77.5 13q56 0 94 -17.5t59 -47t26 -69.5t-5 -85l-3.5 -14t-5.5 -21t-6 -21.5t-4 -14.5h-21.5t-28.5 0.5t-28.5 0.5h-21.5q-32 1 -62 1.5t-62 0.5q-20 0 -40 -0.5t-40 -1.5h-4q-8 -52 16 -86t78 -34
q29 0 71 23t79 57l35 -42l-25 -76q-21 -14 -45.5 -27t-51 -22.5t-53 -15.5t-50.5 -6q-57 0 -99.5 18t-66.5 54q-30 -30 -74.5 -51t-107.5 -21q-29 0 -54.5 10t-43.5 29t-25.5 46t-0.5 61q15 70 65.5 108.5t125.5 49.5q39 6 60.5 9.5t32.5 6.5t13.5 5.5t3.5 6.5q7 31 -3 54
t-44 23q-26 0 -54.5 -16t-49.5 -45h-68zM561 405q-36 0 -61.5 -26.5t-40.5 -59.5h75h40.5t40.5 1q1 16 0 31.5t-7 27.5t-17.5 19t-29.5 7zM159 145q-5 -22 5.5 -35.5t33.5 -13.5t45.5 15.5t32.5 45.5q3 12 6 26.5t6 28.5q-2 0 -4 -0.5t-4 -0.5q-19 -3 -39 -7.5t-37 -11.5
t-29 -18t-16 -29z" />
    <glyph glyph-name="ccedilla" unicode="&#xe7;" horiz-adv-x="473" 
d="M117 -74q5 -2 10 -4.5t11 -4.5l-13 17l37 62q-34 9 -62.5 28t-47.5 50t-25 73.5t6 98.5q15 67 48 116t77 81t95 47t101 15q28 0 54 -5.5t48.5 -14.5t40.5 -21t30 -25q-15 -23 -29.5 -49t-27.5 -55h-57q-4 11 -11 23.5t-17 23t-23 17t-28 6.5q-31 0 -55.5 -12t-43 -33
t-31 -50t-19.5 -63q-17 -75 6.5 -113t80.5 -38q29 0 70.5 23t79.5 57l35 -43q-8 -18 -13.5 -37t-10.5 -37q-27 -18 -59 -33.5t-64 -26.5q48 -25 34 -88q-6 -27 -21.5 -48t-38 -35.5t-50.5 -21.5t-57 -7q-33 0 -65.5 10.5t-55.5 19.5zM206 -94q-9 0 -14 -2h6q8 0 13 0.5
t5 1.5h-10v0z" />
    <glyph glyph-name="egrave" unicode="&#xe8;" horiz-adv-x="475" 
d="M-15 233q13 63 39.5 113.5t65 85.5t87.5 54t107 19h9l-116 86q-14 10 -27 26.5t-6 46.5q3 16 12 28t20.5 20t23.5 12.5t22 4.5q18 0 33 -9.5t26 -23.5l152 -194h-103q43 -7 71.5 -27t44.5 -48.5t19 -64.5t-6 -76l-3.5 -14t-5.5 -21t-6.5 -21.5t-4.5 -14.5h-21.5t-28 0.5
t-28.5 0.5h-22q-31 1 -61.5 1.5t-62.5 0.5q-20 0 -39.5 -0.5t-39.5 -1.5h-5q-8 -52 16 -86t79 -34q28 0 70 23t79 57l35 -42l-25 -76q-21 -14 -45.5 -27t-50.5 -22.5t-52.5 -15.5t-50.5 -6q-56 0 -99 18.5t-69 51.5t-35 78t2 98zM264 405q-37 0 -62 -26.5t-41 -59.5h76h40
t40 1q2 16 0.5 31.5t-7.5 27.5t-17 19t-29 7z" />
    <glyph glyph-name="eacute" unicode="&#xe9;" horiz-adv-x="477" 
d="M360 696q17 14 36.5 23.5t36.5 9.5q10 0 20.5 -4.5t18.5 -12.5t12 -20t1 -28q-7 -30 -26 -46t-39 -27q-36 -20 -76 -43t-77 -43h6q56 0 94 -17.5t59.5 -47t26.5 -69.5t-5 -85l-3.5 -14t-5.5 -21t-6.5 -21.5t-4.5 -14.5h-21.5t-28 0.5t-28.5 0.5h-22q-31 1 -61.5 1.5
t-62.5 0.5q-20 0 -39.5 -0.5t-39.5 -1.5h-5q-8 -52 16 -86t79 -34q28 0 70 23t79 57l35 -42l-25 -76q-21 -14 -45.5 -27t-50.5 -22.5t-52.5 -15.5t-50.5 -6q-56 0 -99 18.5t-69 51.5t-35 78t2 98q23 113 88 183.5t162 85.5h-97zM253 405q-37 0 -62 -26.5t-41 -59.5h76h40
t40 1q2 16 0.5 31.5t-7.5 27.5t-17 19t-29 7z" />
    <glyph glyph-name="ecircumflex" unicode="&#xea;" horiz-adv-x="481" 
d="M-17 233q13 63 39 113.5t64.5 85.5t87.5 54t107 19q56 0 94 -17.5t59.5 -47t26.5 -69.5t-4 -85q-1 -4 -4 -14t-6 -21t-6 -21.5t-4 -14.5h-21.5t-28 0.5t-28.5 0.5h-22q-32 1 -62.5 1.5t-62.5 0.5q-20 0 -39 -0.5t-39 -1.5h-5q-8 -52 15.5 -86t78.5 -34q14 0 32 6t38 17
t40.5 25.5t38.5 31.5l36 -42l-26 -76q-20 -14 -44.5 -27t-51 -22.5t-53 -15.5t-50.5 -6q-56 0 -98.5 18.5t-69 51.5t-35 78t2.5 98zM301 583q-28 -20 -57 -41t-54 -40h-119l211 221h96l117 -221h-118zM262 405q-37 0 -62.5 -26.5t-40.5 -59.5h76h40t40 1q1 16 0 31.5
t-7 27.5t-17 19t-29 7z" />
    <glyph glyph-name="edieresis" unicode="&#xeb;" horiz-adv-x="488" 
d="M-11 233q13 63 39.5 113.5t65 85.5t87.5 54t107 19q56 0 94 -17.5t59.5 -47t26.5 -69.5t-5 -85l-3.5 -14t-5.5 -21t-6.5 -21.5t-4.5 -14.5h-21.5t-28 0.5t-28 0.5h-21.5q-32 1 -62.5 1.5t-62.5 0.5q-20 0 -39 -0.5t-39 -1.5h-5q-8 -52 15.5 -86t78.5 -34q14 0 32 6t38 17
t40.5 25.5t38.5 31.5l35 -42l-25 -76q-21 -14 -45.5 -27t-50.5 -22.5t-52.5 -15.5t-50.5 -6q-56 0 -99 18.5t-69 51.5t-35 78t2 98zM142 608q7 33 36 57t63 24t52.5 -24t11.5 -57q-8 -34 -36.5 -58t-62.5 -24t-53 24t-11 58zM319 608q7 33 36 57t63 24q33 0 52 -24t12 -57
q-4 -17 -13.5 -32t-23 -26t-30 -17.5t-32.5 -6.5q-34 0 -53 24t-11 58zM269 405q-37 0 -62.5 -26.5t-41.5 -59.5h76h40.5t40.5 1q1 16 0 31.5t-7 27.5t-17 19t-29 7z" />
    <glyph glyph-name="igrave" unicode="&#xec;" horiz-adv-x="251" 
d="M85 591q-15 11 -28 27t-6 46q3 16 12 28t20.5 20t24 12.5t22.5 4.5q17 0 32 -9.5t26 -23.5l152 -194h-67q-21 -66 -34.5 -119t-21.5 -90l-20 -94q-8 -38 -16.5 -91.5t-15.5 -120.5q-29 6 -50.5 9.5t-29.5 3.5t-30 -3.5t-53 -9.5q21 67 35 120.5t22 91.5l20 94
q8 38 16.5 91.5t16.5 120.5q29 -6 49.5 -9.5t28.5 -3.5q7 0 24.5 2.5t41.5 7.5h-51z" />
    <glyph glyph-name="iacute" unicode="&#xed;" horiz-adv-x="251" 
d="M204 696q17 14 36 23.5t36 9.5q10 0 20.5 -4.5t18.5 -12.5t12.5 -20t1.5 -28q-7 -30 -26.5 -46t-39.5 -27q-38 -20 -79.5 -44.5t-79.5 -44.5h-52q23 -5 39.5 -7.5t23.5 -2.5q8 0 30 3.5t54 9.5q-21 -67 -35 -120.5t-22 -91.5l-20 -94q-8 -38 -16.5 -91.5t-16.5 -120.5
q-29 6 -50 9.5t-29 3.5t-30 -3.5t-53 -9.5q21 67 35.5 120.5t22.5 91.5l19 94q8 37 16 90t16 119h-65z" />
    <glyph glyph-name="icircumflex" unicode="&#xee;" horiz-adv-x="333" 
d="M83 293q17 76 32 212q30 -6 51 -9.5t29 -3.5t30 3.5t54 9.5q-22 -67 -36 -120.5t-22 -91.5l-20 -94q-8 -38 -16.5 -91.5t-15.5 -120.5q-29 6 -50 9.5t-29 3.5t-30.5 -3.5t-54.5 -9.5q43 136 58 212zM215 583q-28 -20 -57 -41t-53 -40h-119l210 221h96l118 -221h-119z" />
    <glyph glyph-name="idieresis" unicode="&#xef;" horiz-adv-x="330" 
d="M85 293q17 76 32 212q29 -6 50 -9.5t29 -3.5t30.5 3.5t54.5 9.5q-22 -67 -36 -120.5t-22 -91.5l-20 -94q-8 -38 -16.5 -91.5t-15.5 -120.5q-29 6 -50 9.5t-29 3.5t-30.5 -3.5t-54.5 -9.5q21 67 35.5 120.5t22.5 91.5zM51 608q7 33 36 57t63 24t53 -24t12 -57
q-4 -17 -13.5 -32t-23 -26t-30 -17.5t-33.5 -6.5q-34 0 -53 24t-11 58zM228 608q7 33 36 57t63 24t53 -24t12 -57q-4 -17 -13.5 -32t-23 -26t-30 -17.5t-33.5 -6.5q-34 0 -53 24t-11 58z" />
    <glyph glyph-name="eth" unicode="&#xf0;" horiz-adv-x="537" 
d="M-9 246q13 64 41 110t65 77t80 48t85 22q-8 9 -15.5 18.5t-17.5 20.5q-31 -10 -69 -22.5t-66 -22.5q-13 47 -38 102q29 7 51.5 10.5t52.5 12.5q-18 18 -42.5 41t-56.5 50l159 40q28 -23 52 -44.5t45 -41.5q58 18 135 46q5 -23 15 -47.5t27 -52.5q-30 -7 -53 -11.5
t-50 -12.5q76 -90 101 -172t6 -171q-15 -71 -48 -120.5t-76 -80t-91 -44.5t-94 -14q-45 0 -87.5 14t-72 44.5t-41.5 80t3 120.5zM348 246q7 31 8 59.5t-6.5 50.5t-24.5 35.5t-47 13.5t-52.5 -13.5t-39 -35.5t-27.5 -50.5t-18 -59.5q-6 -31 -7.5 -59.5t6 -50.5t24 -35.5
t46.5 -13.5t52.5 13.5t39.5 35.5t28.5 50.5t17.5 59.5z" />
    <glyph glyph-name="ntilde" unicode="&#xf1;" horiz-adv-x="472" 
d="M299 286q11 49 0 75t-40 26q-44 0 -71 -29t-38 -82l-16 -77q-8 -38 -16.5 -91.5t-16.5 -120.5q-29 6 -50 9.5t-29 3.5t-29.5 -3.5t-53.5 -9.5q21 67 35.5 120.5t22.5 91.5l19 94q8 38 16 91.5t16 120.5q29 -6 50 -9.5t29 -3.5q6 0 27 3.5l51 8.5q-2 -7 -4 -13.5t-4 -12.5
q25 13 52.5 20t58.5 7t61 -8.5t51.5 -30t30 -59t-3.5 -94.5q-4 -18 -8.5 -37t-9.5 -39t-10.5 -44t-10.5 -46q-3 -15 -7.5 -36t-8.5 -44t-8 -44t-6 -36q-28 6 -47 9.5t-27 3.5q-6 0 -26 -3.5t-50 -9.5l29 118q16 62 31 127l11 54v0zM85 524q11 28 28 57t38.5 53t48 39
t56.5 15q20 0 34.5 -5t41.5 -19q18 -10 26 -13.5t14 -3.5q7 0 16.5 14t18.5 31h94q-7 -19 -21.5 -47.5t-36.5 -55.5t-51.5 -46t-66.5 -19q-17 0 -35.5 5.5t-41.5 19.5q-16 11 -23.5 13.5t-13.5 2.5q-5 0 -11 -8.5t-20 -32.5h-95z" />
    <glyph glyph-name="ograve" unicode="&#xf2;" horiz-adv-x="528" 
d="M-8 246q15 71 47.5 120.5t75.5 80t91.5 44.5t93.5 14h7l-116 86q-14 10 -27 26.5t-6 46.5q3 16 12 28t20.5 20t24 12.5t22.5 4.5q17 0 32 -9.5t26 -23.5l152 -194h-102q39 -6 73 -23.5t56.5 -48.5t30 -76.5t-5.5 -107.5q-15 -71 -48 -120.5t-76 -80t-91.5 -44.5
t-93.5 -14t-87.5 14t-72 44.5t-41.5 80t3 120.5zM142 246q-7 -31 -8 -59.5t6 -50.5t24 -35.5t47 -13.5t52.5 13.5t39 35.5t27.5 50.5t18 59.5q6 31 7 59.5t-6 50.5t-24 35.5t-47 13.5t-52.5 -13.5t-39 -35.5t-27.5 -50.5t-17 -59.5z" />
    <glyph glyph-name="oacute" unicode="&#xf3;" horiz-adv-x="527" 
d="M375 696q17 14 36 23.5t36 9.5q10 0 20.5 -4.5t18.5 -12.5t12.5 -20t1.5 -28q-7 -30 -26.5 -46t-39.5 -27q-36 -20 -76 -43t-76 -43h7q45 0 87.5 -14t72.5 -44.5t42 -80t-3 -120.5t-48 -120.5t-76 -80t-91.5 -44.5t-93.5 -14t-87.5 14t-72 44.5t-41.5 80t3 120.5
q13 62 40 107.5t62 76.5t76.5 48.5t82.5 23.5h-100zM131 246q-7 -31 -8 -59.5t6 -50.5t24 -35.5t47 -13.5t52.5 13.5t39 35.5t27.5 50.5t18 59.5q6 31 7 59.5t-6 50.5t-24 35.5t-47 13.5t-52.5 -13.5t-39 -35.5t-27.5 -50.5t-17 -59.5z" />
    <glyph glyph-name="ocircumflex" unicode="&#xf4;" horiz-adv-x="532" 
d="M-11 246q15 71 48 120.5t75.5 80t91 44.5t93.5 14t87.5 -14t72.5 -44.5t42 -80t-3 -120.5t-48 -120.5t-76 -80t-91.5 -44.5t-93.5 -14t-87.5 14t-72 44.5t-41.5 80t3 120.5zM139 246q-6 -31 -7 -59.5t6 -50.5t24 -35.5t47 -13.5t52.5 13.5t39 35.5t27.5 50.5t17 59.5
q7 31 8 59.5t-6 50.5t-24 35.5t-47 13.5t-52.5 -13.5t-39 -35.5t-27.5 -50.5t-18 -59.5zM315 583q-28 -20 -57 -41t-53 -40h-120l211 221h96l118 -221h-119z" />
    <glyph glyph-name="otilde" unicode="&#xf5;" horiz-adv-x="537" 
d="M-5 246q15 71 47.5 120.5t75.5 80t91.5 44.5t93.5 14t87.5 -14t72.5 -44.5t42 -80t-3 -120.5t-48 -120.5t-76 -80t-91.5 -44.5t-93.5 -14t-87.5 14t-72 44.5t-41.5 80t3 120.5zM145 246q-7 -31 -8 -59.5t6 -50.5t24 -35.5t47 -13.5t52.5 13.5t39 35.5t27.5 50.5t18 59.5
q6 31 7.5 59.5t-6 50.5t-24 35.5t-46.5 13.5t-52.5 -13.5t-39 -35.5t-28 -50.5t-17.5 -59.5zM118 524q10 28 27 57t38.5 53t48 39t56.5 15q20 0 34.5 -5t41.5 -19q19 -10 26.5 -13.5t13.5 -3.5q7 0 16.5 14t18.5 31h94q-7 -19 -21.5 -47.5t-36.5 -55.5t-51.5 -46t-66.5 -19
q-17 0 -35 5.5t-41 19.5q-17 11 -24.5 13.5t-13.5 2.5q-5 0 -10.5 -8.5t-19.5 -32.5h-95z" />
    <glyph glyph-name="odieresis" unicode="&#xf6;" horiz-adv-x="537" 
d="M-5 246q15 71 47.5 120.5t75.5 80t91.5 44.5t93.5 14t87.5 -14t72.5 -44.5t42 -80t-3 -120.5t-48 -120.5t-76 -80t-91.5 -44.5t-93.5 -14t-87.5 14t-72 44.5t-41.5 80t3 120.5zM145 246q-6 -31 -7.5 -59.5t6 -50.5t24 -35.5t46.5 -13.5t52.5 13.5t39 35.5t28 50.5
t17.5 59.5t7.5 59.5t-6 50.5t-24 35.5t-46.5 13.5t-52.5 -13.5t-39 -35.5t-28 -50.5t-17.5 -59.5zM332 608q7 33 36 57t63 24t53 -24t12 -57q-4 -17 -13.5 -32t-23 -26t-30 -17.5t-33.5 -6.5q-34 0 -53 24t-11 58zM155 608q7 33 36 57t63 24t53 -24t12 -57q-4 -17 -13.5 -32
t-23 -26t-30 -17.5t-33.5 -6.5q-34 0 -53 24t-11 58z" />
    <glyph glyph-name="divide" unicode="&#xf7;" horiz-adv-x="516" 
d="M7 322h526l-25 -118h-525zM133 87q4 18 14 34t24.5 27.5t32 18.5t35.5 7q36 0 55.5 -25.5t12.5 -61.5q-4 -18 -14 -34t-24.5 -27.5t-31.5 -18.5t-35 -7t-32.5 7t-24 18.5t-13 27.5t0.5 34zM208 439q4 18 14 33.5t24 27.5t31.5 19t35.5 7q36 0 56 -26t13 -61
q-4 -18 -14 -34t-24.5 -27.5t-32 -18.5t-35.5 -7t-32.5 7t-23.5 18.5t-12.5 27.5t0.5 34z" />
    <glyph glyph-name="oslash" unicode="&#xf8;" horiz-adv-x="581" 
d="M40 246q15 71 48 120.5t76 80t91.5 44.5t93.5 14q33 0 66 -7.5t60 -24.5q20 20 42.5 43.5t44.5 50.5q25 -52 76 -81q-32 -20 -59.5 -40.5t-44.5 -35.5q17 -30 21 -70t-7 -94q-15 -71 -48 -120.5t-76 -80t-91 -44.5t-94 -14q-35 0 -69 8.5t-62 26.5q-14 -12 -28.5 -26
t-27.5 -26t-23.5 -22t-15.5 -14q-9 20 -27 38.5t-45 29.5q12 9 27 20.5t29.5 23.5t28 23.5t23.5 20.5q-12 29 -16 68.5t7 87.5zM203 109q19 -22 57 -22q30 0 52.5 13.5t39.5 35.5t28 50.5t18 59.5q2 11 4 23.5t3 23.5zM381 388q-9 8 -22.5 12.5t-31.5 4.5q-30 0 -52.5 -13.5
t-39 -35.5t-27.5 -50.5t-17 -59.5q-2 -9 -4 -18.5t-3 -17.5z" />
    <glyph glyph-name="ugrave" unicode="&#xf9;" horiz-adv-x="457" 
d="M158 591q-15 11 -28 27t-6 46q3 16 12.5 28t21 20t24 12.5t22.5 4.5q17 0 32 -9.5t26 -23.5l151 -194h-63q22 -5 36.5 -7.5t21.5 -2.5q8 0 28.5 4t49.5 10q-9 -35 -19.5 -75.5t-20.5 -82.5t-19.5 -83t-16.5 -77q-5 -20 -10 -47t-10 -55t-9.5 -54.5t-7.5 -45.5l-45 10
t-25 4q-8 0 -28.5 -4t-49.5 -10q2 8 4 15.5t4 15.5q-53 -30 -108 -30q-88 0 -126.5 47.5t-19.5 135.5q5 26 10 47t10 41q4 16 7 30.5t6 29.5q3 16 8 40t10 50t10 51.5t9 44.5q26 -6 44.5 -9t26.5 -3t28.5 3.5t51.5 9.5q-8 -26 -18 -63t-20.5 -77.5t-20.5 -80.5t-17 -73
q-8 -38 -6 -57t8 -27q7 -10 17.5 -16t27.5 -6q26 0 45.5 10.5t30.5 26.5q7 11 12 21t10 27.5t12 46t17 76.5q4 18 9 43t10 52t9.5 52t7.5 42h-56z" />
    <glyph glyph-name="uacute" unicode="&#xfa;" horiz-adv-x="457" 
d="M339 696q17 14 36 23.5t36 9.5q10 0 20.5 -4.5t18.5 -12.5t12 -20t1 -28q-7 -30 -26.5 -46t-38.5 -27q-38 -20 -79.5 -44.5t-79.5 -44.5h-55q-8 -27 -18 -63.5t-20 -76.5t-19.5 -79.5t-16.5 -71.5q-8 -38 -6 -57t8 -27q7 -10 17.5 -16t27.5 -6q26 0 45.5 10.5t30.5 26.5
q7 11 12 21t10 27.5t12 46t17 76.5q4 18 9.5 44.5t10.5 54t9.5 52.5t7.5 41q28 -6 46.5 -9.5t26.5 -3.5t28.5 4t49.5 10q-9 -35 -19.5 -75.5t-20.5 -82.5t-19.5 -83t-16.5 -77q-5 -20 -10 -47t-10 -55t-9.5 -54.5t-7.5 -45.5l-45 10t-25 4q-8 0 -28.5 -4t-49.5 -10
q2 8 4 15.5t4 15.5q-53 -30 -108 -30q-87 0 -126 47.5t-20 135.5q5 26 10 47t10 41q5 16 8 30.5t6 29.5l7.5 40t9.5 50t10 51.5t9 44.5q26 -6 44.5 -9t26.5 -3q6 0 22.5 2.5t39.5 7.5h-63z" />
    <glyph glyph-name="ucircumflex" unicode="&#xfb;" horiz-adv-x="465" 
d="M-24 170q6 26 11 47t10 41q4 16 7 30.5t6 29.5q3 16 8 40t10 50t10 51.5t8 44.5q3 -1 6 -1l211 220h96l115 -220q6 2 10 3q-9 -35 -19.5 -75.5t-21 -82.5t-20 -83t-16.5 -77q-4 -20 -9 -47t-10 -55t-10 -54.5t-8 -45.5q-26 6 -44.5 10t-25.5 4q-8 0 -28.5 -4t-49.5 -10
q2 8 4.5 15.5t4.5 15.5q-53 -30 -109 -30q-88 0 -126 47.5t-20 135.5zM281 583q-28 -20 -57 -41t-53 -40h-113q21 -5 37 -7.5t23 -2.5q8 0 28.5 3.5t51.5 9.5q-8 -26 -18 -63t-20.5 -77.5t-20.5 -80.5t-17 -73q-8 -38 -6 -57t7 -27q7 -10 18 -16t28 -6q26 0 45 10.5t30 26.5
q7 11 12.5 21t10.5 27.5t12 46t17 76.5q4 18 9 44.5t10 54t10 52.5t8 41q28 -6 46.5 -9.5t26.5 -3.5q6 0 20.5 2.5t36.5 7.5h-106z" />
    <glyph glyph-name="udieresis" unicode="&#xfc;" horiz-adv-x="471" 
d="M-17 170q5 26 10 47t10 41q4 16 7 30.5t6 29.5q3 16 8 40t10 50t10 51.5t9 44.5q26 -6 44.5 -9t26.5 -3t29 3.5t51 9.5q-8 -26 -18 -63t-20.5 -77.5t-20 -80.5t-16.5 -73q-8 -38 -6.5 -57t7.5 -27q7 -10 17.5 -16t27.5 -6q26 0 45.5 10.5t30.5 26.5q7 11 12 21t10 27.5
t12 46t17 76.5q4 18 9.5 44.5t10.5 54t9.5 52.5t7.5 41q29 -6 47 -9.5t26 -3.5t28.5 4t49.5 10q-9 -35 -19 -75.5t-20.5 -82.5t-20 -83t-16.5 -77q-4 -20 -9 -47t-10 -55t-10 -54.5t-8 -45.5q-26 6 -44.5 10t-25.5 4q-8 0 -28.5 -4t-49.5 -10q2 8 4 15.5t4 15.5
q-53 -30 -108 -30q-88 0 -126.5 47.5t-19.5 135.5zM122 608q7 33 36 57t63 24t53 -24t12 -57q-7 -34 -36 -58t-63 -24t-53 24t-12 58zM299 608q7 33 36 57t63 24t53 -24t12 -57q-7 -34 -36 -58t-63 -24t-53 24t-12 58z" />
    <glyph glyph-name="yacute" unicode="&#xfd;" horiz-adv-x="471" 
d="M381 696q17 14 36 23.5t37 9.5q10 0 20.5 -4.5t18.5 -12.5t11.5 -20t0.5 -28q-6 -30 -25.5 -46t-38.5 -27q-38 -20 -79.5 -44.5t-79.5 -44.5h-85q7 -67 19.5 -145.5t27.5 -150.5q44 68 88 145t84 153q20 -6 33.5 -9t17.5 -3q3 0 30.5 7t72.5 18q-13 -19 -50 -73
t-86 -127.5t-104.5 -158t-106 -163.5t-91 -144t-58.5 -100q-20 6 -33 9.5t-18 3.5q-4 0 -33.5 -7.5t-80.5 -20.5q75 93 129.5 166t92.5 130q-6 30 -14.5 73t-19 91.5t-21 98.5t-19.5 93t-16.5 75t-10.5 46q37 -8 63.5 -12.5t35.5 -4.5t26.5 2.5t41.5 7.5h-49z" />
    <glyph glyph-name="thorn" unicode="&#xfe;" horiz-adv-x="500" 
d="M78 452l13.5 67.5t15 78t14 81t10.5 77.5q29 -6 49.5 -10t28.5 -4q7 0 29.5 4t53.5 10q-11 -35 -21 -72.5t-19 -75.5t-17.5 -73.5t-14.5 -65.5q25 16 56 26t69 10q41 0 77.5 -15t60.5 -46t32.5 -79.5t-5.5 -115.5q-14 -66 -45 -115.5t-70.5 -82t-84 -48.5t-86.5 -16
q-64 0 -100 29q-6 -29 -12.5 -62.5t-12.5 -68t-11.5 -69t-8.5 -65.5q-29 6 -49.5 9.5t-27.5 3.5t-29.5 -3.5t-53.5 -9.5q11 36 21.5 77t20.5 81t18.5 77.5t14.5 67.5zM359 249q9 43 7 71.5t-11 45t-23 23.5t-30 7q-26 0 -47 -12.5t-37.5 -33.5t-27.5 -49t-18 -59
q-32 -150 63 -150q23 0 42.5 12t35.5 33.5t27.5 50t18.5 61.5z" />
    <glyph glyph-name="ydieresis" unicode="&#xff;" horiz-adv-x="474" 
d="M-83 -264q75 93 129.5 166t92.5 130q-5 30 -14 73t-19 91.5t-20.5 98.5t-20 93t-16.5 75t-10 46q37 -8 63 -12.5t35 -4.5t27 2.5t41 7.5q7 -67 20 -145.5t27 -150.5q44 68 88 145t85 153q20 -6 33 -9t17 -3q3 0 30.5 7t72.5 18q-13 -19 -50 -73t-86 -127.5t-104.5 -158
t-106 -163.5t-90.5 -144t-58 -100q-20 6 -33.5 9.5t-18.5 3.5q-4 0 -33.5 -7.5t-80.5 -20.5zM156 608q3 16 12.5 31t23 26t29.5 17.5t33 6.5q34 0 53 -24t12 -57q-4 -17 -13.5 -32t-23 -26t-30 -17.5t-33.5 -6.5q-33 0 -52 24t-11 58zM333 608q7 33 35.5 57t62.5 24t53 -24
t12 -57q-4 -17 -13.5 -32t-23 -26t-30 -17.5t-33.5 -6.5q-34 0 -52.5 24t-10.5 58z" />
    <glyph glyph-name="dotlessi" unicode="&#x131;" horiz-adv-x="173" 
d="M25 293q8 38 16.5 91.5t16.5 120.5q29 -6 50 -9.5t29 -3.5t30.5 3.5t54.5 9.5q-22 -67 -36.5 -120.5t-22.5 -91.5l-19 -94q-8 -38 -17 -91.5t-16 -120.5q-29 6 -50 9.5t-29 3.5t-30 -3.5t-54 -9.5q43 136 58 212z" />
    <glyph glyph-name="Lslash" unicode="&#x141;" horiz-adv-x="486" 
d="M113 418q6 29 13 65t14 73t12.5 73t10.5 65q30 -5 50.5 -8.5t29.5 -3.5q8 0 30 3.5t53 8.5q-6 -26 -14 -56.5t-16.5 -63.5t-16 -65.5t-13.5 -60.5l44 26t39 22q5 -26 13 -51t19 -49q-11 -5 -27 -12.5t-35 -16.5t-39.5 -19t-39.5 -20l-13 -61q-10 -49 -18 -86t-14 -69v-3
q26 0 53 0.5t58.5 3t69.5 6t86 9.5q-14 -27 -23.5 -46t-10.5 -24q-2 -5 -0.5 -22.5t3.5 -42.5q-20 1 -47.5 2.5t-57 2.5t-57.5 1.5t-49 0.5t-48 -0.5t-55 -1.5t-55 -2t-48 -2q7 25 15 55.5t16 62.5t16 63.5t14 59.5q-16 -11 -31.5 -21.5t-27.5 -20.5q-6 29 -14.5 55
t-22.5 50q27 14 62 31t60 30z" />
    <glyph glyph-name="lslash" unicode="&#x142;" horiz-adv-x="270" 
d="M-27 -13q10 33 19.5 69t18.5 72t17 70.5t15 64.5q-5 -2 -6 -3q-4 -3 -10.5 -8t-12.5 -10.5t-11 -9.5l-5 -4q-6 22 -15 44t-29 49q10 6 24.5 13.5t30.5 16t31.5 17t27.5 15.5l15 69l13.5 67.5t14.5 78t13.5 81t10.5 77.5l50 -10t28 -4t30 4t54 10q-10 -34 -20 -71
t-19.5 -74t-18 -72t-14.5 -65q23 14 44.5 27t30.5 18q-7 -33 -1 -60.5t17 -40.5q-35 -21 -49 -29t-20 -10l1 1q-6 -3 -10 -5.5t-9 -5t-11.5 -6t-17.5 -9.5l-14 -64l-13.5 -67.5t-14.5 -77.5t-13.5 -81t-10.5 -77q-29 6 -49.5 9.5t-28.5 3.5t-29.5 -3.5t-53.5 -9.5z" />
    <glyph glyph-name="OE" unicode="&#x152;" horiz-adv-x="1006" 
d="M721 249q-7 -32 -13.5 -65t-11.5 -66q-1 -5 -0.5 -5t0.5 1v1l-1 -6q80 2 141.5 7.5t99.5 11.5q-14 -27 -23 -46.5t-11 -24.5q-1 -5 0.5 -22t3.5 -42q-19 1 -45 2.5t-54 2.5t-54 1.5t-45 0.5q-20 0 -44.5 -0.5t-51 -1.5t-51.5 -2t-44 -2q3 11 4.5 15t2.5 7t1 7t2 16
q-39 -23 -90.5 -39t-120.5 -16q-71 0 -129 24t-95.5 68.5t-51 108.5t3.5 145q19 89 61 158t100 115.5t129 70.5t148 24q68 0 111 -14t69 -34q2 13 3 21.5t2 16.5q19 -1 43 -2t49.5 -2t50 -1.5t42.5 -0.5t44 1t53 2t53 2t44 2q-12 -25 -20.5 -43t-10.5 -23q-1 -5 0.5 -25
t3.5 -48q-20 4 -41 8t-47 7t-59.5 5.5t-77.5 2.5q-2 -4 -2 -5q-16 -56 -28 -117l-8 -37q36 0 61 0.5t42 1t29 1.5t22 2h10.5t21 0.5t21 0.5h10.5q-14 -26 -22.5 -42.5t-9.5 -18.5q0 -2 2 -18.5t4 -42.5h-10.5t-21 0.5t-21 0.5h-10.5q-9 1 -21 2t-29 1.5t-41.5 1t-59.5 0.5z
M207 341q-14 -65 -8 -112.5t26.5 -78.5t53 -46t72.5 -15q46 0 86.5 18t73 51t56.5 79.5t36 103.5q15 69 10.5 117t-23.5 78t-50.5 43.5t-71.5 13.5q-44 0 -85 -15t-75.5 -46t-61 -78.5t-39.5 -112.5z" />
    <glyph glyph-name="oe" unicode="&#x153;" horiz-adv-x="897" 
d="M688 505q56 0 94 -17.5t59.5 -47t26.5 -69.5t-5 -85l-3.5 -14t-6 -21t-6.5 -21.5t-4 -14.5h-21.5t-28 0.5t-28.5 0.5h-22q-32 1 -62 1.5t-62 0.5q-20 0 -39.5 -0.5t-39.5 -1.5h-5q-8 -52 16 -86t79 -34q28 0 70 23t79 57l35 -42l-25 -76q-21 -14 -45.5 -27t-51 -22.5
t-53 -15.5t-50.5 -6q-106 0 -160 62q-42 -31 -92.5 -46.5t-96.5 -15.5q-45 0 -87.5 14t-72 44.5t-41.5 80t3 120.5t48 120.5t76 80t91.5 44.5t93.5 14q48 0 89.5 -14t70.5 -46q74 60 177 60zM400 246q6 31 7 59.5t-6.5 50.5t-24.5 35.5t-47 13.5t-52.5 -13.5t-39 -35.5
t-27.5 -50.5t-17 -59.5q-7 -31 -8 -59.5t6 -50.5t24 -35.5t47 -13.5t52.5 13.5t39.5 35.5t28 50.5t18 59.5zM668 405q-37 0 -62.5 -26.5t-40.5 -59.5h76h40t40 1q1 16 0 31.5t-7 27.5t-17 19t-29 7z" />
    <glyph glyph-name="Scaron" unicode="&#x160;" horiz-adv-x="460" 
d="M427 878h119l-178 -186q59 -15 107 -62q-20 -27 -34.5 -54.5t-31.5 -66.5h-64q-2 12 -5.5 27t-11 27.5t-19 21t-28.5 8.5q-35 0 -62 -21t-34 -54q-5 -21 1.5 -36.5t19.5 -26.5t31 -19.5t37 -17.5q29 -13 57 -27t48 -36t28 -53.5t-2 -79.5q-11 -49 -37.5 -92t-66.5 -75.5
t-91.5 -51.5t-111.5 -19q-32 0 -57.5 6.5t-46.5 17t-37.5 24t-31.5 27.5q10 16 17.5 30.5t13.5 29t11.5 31t11.5 37.5h65q4 -16 11.5 -33t19.5 -30.5t29 -22t39 -8.5q44 0 74.5 28t38.5 67q4 20 -1.5 34.5t-18 25.5t-30 19.5t-36.5 16.5q-29 13 -57.5 28t-48.5 38.5
t-28.5 57.5t2.5 85q14 70 63.5 121t121.5 72l-101 192h118l77 -83z" />
    <glyph glyph-name="scaron" unicode="&#x161;" horiz-adv-x="370" 
d="M356 723h120l-212 -221q17 -3 30 -7.5t25 -9.5q1 -1 -1 -0.5t1 -0.5t16 -4.5t45 -11.5q-12 -14 -24 -32t-22 -35.5t-17 -32.5t-10 -23h-68q-2 21 -13 38t-28 17q-14 0 -29 -9t-20 -30q-2 -11 2 -18.5t12.5 -13t20 -9.5t23.5 -8q24 -7 47.5 -16.5t40.5 -25.5t24.5 -41.5
t-0.5 -64.5q-7 -32 -27.5 -63.5t-51 -57t-70.5 -41t-86 -15.5q-48 0 -85.5 16t-65.5 34q6 9 14 23.5t15.5 30.5t14 32.5t9.5 29.5h68q3 -9 8.5 -19.5t14 -20t19.5 -15.5t24 -6q20 0 37.5 11t22.5 33q4 19 -15 28.5t-43 17.5t-47.5 17.5t-40.5 25.5t-24.5 42t0.5 67
q14 64 60 110t117 58h-19l-117 221h119l76 -82z" />
    <glyph glyph-name="Ydieresis" unicode="&#x178;" horiz-adv-x="583" 
d="M116 -12q26 81 42.5 150.5t30.5 137.5q-7 19 -20.5 54t-30 77.5t-34.5 88t-34 86.5t-29 72t-19 45q45 -8 76.5 -12.5t44.5 -4.5q11 0 30 2.5t42 5.5q11 -38 21 -71.5t20.5 -66t22 -67t26.5 -74.5q25 31 52 66t54.5 72t53.5 73.5t49 69.5q18 -5 32 -7.5t21 -2.5
q8 0 39.5 6.5t79.5 16.5q-71 -82 -127 -147.5t-99 -116.5t-73 -89t-50 -65q-7 -33 -14.5 -72t-15 -79.5t-13.5 -79t-9 -68.5q-60 12 -82 12q-11 0 -33.5 -3t-53.5 -9zM204 762q8 34 36 58t62 24t53 -24t12 -58q-8 -34 -36.5 -58t-62.5 -24t-53 24t-11 58zM380 762
q8 34 36.5 58t62.5 24t53 -24t12 -58q-8 -34 -36.5 -58t-62.5 -24q-17 0 -30.5 6.5t-22.5 17.5t-12.5 26t0.5 32z" />
    <glyph glyph-name="Zcaron" unicode="&#x17d;" horiz-adv-x="597" 
d="M490 878h119l-187 -196h91q19 0 37 1t38 3h11t18 0.5t18 0.5h11l-14 -67q-20 -18 -55 -53.5t-77.5 -80.5t-90 -96.5t-94 -102.5t-87.5 -97.5t-71 -80.5h12q33 0 82 2t101.5 5.5t102 7.5t84.5 9q-14 -29 -22 -48.5t-9 -24.5q-1 -4 -0.5 -21.5t2.5 -44.5q-32 1 -67 2
t-68.5 2t-65 1.5t-56.5 0.5q-35 0 -85 -0.5t-99.5 -1.5t-90 -2.5t-57.5 -2.5l13 65q57 61 122.5 132.5t129.5 142t120.5 133.5t94.5 107q-32 0 -75.5 -1.5t-90 -4t-92 -6t-81.5 -7.5q14 26 22.5 45t9.5 24q2 5 0.5 23t-3.5 43q11 -1 33 -2t48 -2t54 -1.5t52 -0.5h9l-102 195
h118l77 -83z" />
    <glyph glyph-name="zcaron" unicode="&#x17e;" horiz-adv-x="470" 
d="M-54 57q39 37 81.5 80t84.5 86t81.5 84t72.5 76q-25 -1 -54.5 -3t-58.5 -4t-56.5 -4t-49.5 -3q25 56 26 65q2 7 2.5 24t2.5 43q56 -5 120.5 -7t145.5 -2q18 0 34.5 0.5t34.5 1.5t38.5 2.5t46.5 3.5l-14 -66q-46 -47 -93.5 -95t-90 -92.5t-78 -81t-57.5 -60.5q24 0 49.5 1
t55.5 3t67.5 5t85.5 8q-10 -23 -18 -43t-9 -22q-1 -4 -1 -22.5t1 -38.5h-21h-30t-30 0.5t-21 0.5h1q-84 3 -168 3q-59 0 -117 -3h1q-5 0 -16 -0.5t-23 -0.5h-23h-16zM410 723h119l-211 -221h-96l-117 221h118l76 -82z" />
    <glyph glyph-name="florin" unicode="&#x192;" horiz-adv-x="497" 
d="M16 -33q6 -5 14.5 -9.5t12.5 -4.5q15 0 27 21.5t25 56.5q16 40 29.5 75.5t26 69.5t26 69t29.5 76q-15 0 -31 -0.5t-30.5 -1.5t-26.5 -1.5t-18 -0.5q14 23 28.5 55.5t20.5 61.5q15 -1 44.5 -4t55.5 -3q2 5 4 9.5t3 8.5q17 37 42.5 77.5t58 74.5t71 56t82.5 22q7 0 28 -5
t42 -14q-13 -24 -25 -58.5t-19 -65.5l-65 -16q-7 12 -14 21.5t-12 9.5q-6 0 -12.5 -7t-13.5 -27q-6 -15 -9.5 -24t-6.5 -17.5t-6.5 -18t-9.5 -24.5q5 0 11.5 0.5t11.5 0.5q7 0 20.5 0.5t27.5 1t26 0.5h15q-16 -25 -31 -56t-20 -57q-19 1 -48 2t-56 1q-15 -42 -31.5 -83.5
t-32.5 -83.5q-43 -103 -89.5 -168t-94.5 -101.5t-95.5 -50t-91.5 -13.5q20 38 33 70.5t19 60.5z" />
    <glyph glyph-name="circumflex" unicode="&#x2c6;" horiz-adv-x="354" 
d="M170 583q-27 -20 -56.5 -41t-53.5 -40h-119l210 221h96l118 -221h-119z" />
    <glyph glyph-name="caron" unicode="&#x2c7;" horiz-adv-x="350" 
d="M290 723h120l-212 -221h-96l-116 221h118l77 -82z" />
    <glyph glyph-name="breve" unicode="&#x2d8;" horiz-adv-x="342" 
d="M125 715q-1 -41 9.5 -63.5t39.5 -22.5t48.5 22.5t39.5 63.5h92q-9 -43 -27 -81.5t-44.5 -68t-60.5 -46.5t-74 -17q-41 0 -68 17t-41 46.5t-16 68t7 81.5h95z" />
    <glyph glyph-name="dotaccent" unicode="&#x2d9;" horiz-adv-x="164" 
d="M-1 605q7 34 36 58t63 24t53 -24t12 -58q-4 -17 -13.5 -32t-23 -26t-30 -17.5t-33.5 -6.5q-34 0 -52.5 24t-11.5 58z" />
    <glyph glyph-name="ring" unicode="&#x2da;" horiz-adv-x="266" 
d="M5 615q6 26 20.5 49t35.5 40.5t46.5 27.5t52.5 10q26 0 47 -10t34.5 -27.5t19 -40.5t-0.5 -49t-21 -49.5t-36 -41t-46 -27.5t-52 -10q-26 0 -47 10t-34.5 27.5t-18.5 41t0 49.5zM114 615q-2 -8 2 -13t12 -5t14.5 5t8.5 13t-2 13t-12 5t-14.5 -5t-8.5 -13z" />
    <glyph glyph-name="ogonek" unicode="&#x2db;" horiz-adv-x="220" 
d="M288 72q-52 -40 -84 -66t-50.5 -43t-25.5 -26.5t-8 -15.5q-2 -10 4.5 -13.5t16.5 -3.5q2 0 19 5t37 11l7 -96q-32 -14 -55 -19.5t-45 -5.5q-27 0 -50.5 7t-39.5 21.5t-23 35.5t-1 48q15 69 159 161h139z" />
    <glyph glyph-name="tilde" unicode="&#x2dc;" horiz-adv-x="393" 
d="M-11 524q10 28 26.5 57t38 53t48 39t56.5 15q20 0 34 -5t41 -19q20 -10 27.5 -13.5t13.5 -3.5q7 0 16 14t18 31h94q-7 -19 -21.5 -47.5t-36 -55.5t-51 -46t-66.5 -19q-17 0 -35 5.5t-41 19.5q-17 11 -25 13.5t-14 2.5q-5 0 -10.5 -8.5t-18.5 -32.5h-94z" />
    <glyph glyph-name="hungarumlaut" unicode="&#x2dd;" horiz-adv-x="468" 
d="M203 582q-34 -20 -71 -41t-71 -39h-132l233 194q17 14 36 23.5t36 9.5q10 0 20.5 -4.5t18.5 -12.5t12 -20t1 -28q-3 -12 -7 -19l62 51q17 14 36 23.5t37 9.5q10 0 20.5 -4.5t18.5 -12.5t11.5 -20t0.5 -28q-7 -30 -26.5 -46t-38.5 -27q-37 -20 -79 -44.5t-80 -44.5h-134z
" />
    <glyph glyph-name="endash" unicode="&#x2013;" horiz-adv-x="587" 
d="M45 300h520l-25 -114h-520z" />
    <glyph glyph-name="emdash" unicode="&#x2014;" horiz-adv-x="1086" 
d="M70 300h970l-25 -114h-970z" />
    <glyph glyph-name="quoteleft" unicode="&#x2018;" 
d="M97 427l1 1q-5 -10 -13 -20.5t-18.5 -19.5t-24 -14.5t-30.5 -5.5q-11 0 -22 4t-19.5 12t-12.5 20.5t0 29.5q4 18 12 30l16 24q2 1 3.5 3t3.5 4l-5 -5q18 24 40 51.5t45 56t45 56.5t41 51l72 -26z" />
    <glyph glyph-name="quoteright" unicode="&#x2019;" 
d="M78 639v-1q5 10 12.5 20.5t18 19.5t24 14.5t30.5 5.5q11 0 22.5 -4t20 -12t12.5 -20.5t0 -29.5q-4 -18 -12 -30l-16 -24q-1 -1 -2 -2.5t-3 -2.5l3 3q-18 -24 -40.5 -51.5t-45.5 -56t-45 -56t-41 -51.5l-71 26z" />
    <glyph glyph-name="quotesinglbase" unicode="&#x201a;" 
d="M78 114v-1q5 10 12.5 20.5t18 19.5t24 14.5t30.5 5.5q11 0 22.5 -4t20 -12t12.5 -20.5t0 -29.5q-4 -18 -12 -30l-16 -24q-1 -1 -2 -2.5t-3 -2.5l3 3q-18 -24 -40.5 -51.5t-45.5 -56t-45 -56t-41 -51.5l-71 26z" />
    <glyph glyph-name="quotedblleft" unicode="&#x201c;" horiz-adv-x="376" 
d="M276 427l1 1q-5 -10 -13 -20.5t-18.5 -19.5t-24.5 -14.5t-31 -5.5q-11 0 -22.5 4t-20 12t-12.5 20.5t0 29.5q4 18 12 30l16 24q2 1 3.5 3t3.5 4l-5 -5q19 24 41 51.5t45 56t45 56.5t41 51l72 -26zM121 427l1 1q-5 -10 -13 -20.5t-18.5 -19.5t-24 -14.5t-30.5 -5.5
q-11 0 -22.5 4t-19.5 12t-12 20.5t0 29.5q4 18 11.5 30t15.5 24l3 3l4 4l-6 -5q19 24 41 51.5t45.5 56t45.5 56.5t41 51l72 -26z" />
    <glyph glyph-name="quotedblright" unicode="&#x201d;" horiz-adv-x="377" 
d="M255 639v-1q5 10 12.5 20.5t18 19.5t24 14.5t30.5 5.5q11 0 22.5 -4t20 -12t12.5 -20.5t0 -29.5q-4 -18 -12 -30l-16 -24q0 -3 -5 -5l4 3q-19 -24 -41 -51.5t-45.5 -56t-45.5 -56t-41 -51.5l-72 26zM100 639v-1q5 10 12.5 20.5t18 19.5t24.5 14.5t31 5.5q11 0 22.5 -4
t20 -12t12.5 -20.5t0 -29.5q-4 -18 -12 -30l-16 -24l-5 -5l3 3q-19 -24 -41 -51.5t-45 -56t-45 -56t-41 -51.5l-71 26z" />
    <glyph glyph-name="quotedblbase" unicode="&#x201e;" horiz-adv-x="377" 
d="M255 114v-1q5 10 12.5 20.5t18 19.5t24 14.5t30.5 5.5q11 0 22.5 -4t20 -12t12.5 -20.5t0 -29.5q-4 -18 -12 -30l-16 -24q0 -3 -5 -5l4 3q-19 -24 -41 -51.5t-45.5 -56t-45.5 -56t-41 -51.5l-72 26zM100 114v-1q5 10 12.5 20.5t18 19.5t24.5 14.5t31 5.5q11 0 22.5 -4
t20 -12t12.5 -20.5t0 -29.5q-4 -18 -12 -30l-16 -24l-5 -5l3 3q-19 -24 -41 -51.5t-45 -56t-45 -56t-41 -51.5l-71 26z" />
    <glyph glyph-name="dagger" unicode="&#x2020;" horiz-adv-x="473" 
d="M32 489q58 -9 96 -11.5t70 -2.5q10 50 19.5 108.5t10.5 112.5q62 -14 80 -14t86 14q-22 -54 -37.5 -113t-26.5 -108q32 1 71 3.5t101 10.5q-14 -31 -23 -51t-10 -25t-0.5 -24.5t1.5 -51.5q-57 8 -97 11.5t-69 3.5q-11 -51 -21.5 -109t-19.5 -109q-3 -13 -6.5 -33t-8 -41
t-8 -41t-6.5 -32q-27 6 -45.5 9.5t-25.5 3.5t-27 -3.5t-50 -9.5q3 12 7.5 32t9.5 41t10 41t8 33l14.5 58t12.5 51t11.5 51t12.5 58q-32 -1 -71 -4t-101 -11q14 32 23 51.5t10 24.5t0.5 25t-1.5 51z" />
    <glyph glyph-name="daggerdbl" unicode="&#x2021;" horiz-adv-x="476" 
d="M174 341l4 22l4 22q1 6 0.5 6t-0.5 -0.5v-0.5l1 6q-30 -1 -71 -4t-101 -11q14 32 23 51.5t10 24.5t1 25t-2 51q57 -8 97 -11t69 -3q5 26 11.5 67.5t15.5 109.5q56 -14 74 -14t80 14q-20 -66 -31.5 -108t-17.5 -69q32 1 71 3.5t101 10.5q-14 -31 -23 -51t-10 -25
q-2 -6 -2 -26.5t2 -49.5q-61 8 -100 11.5t-66 3.5l-2 -11q-3 -11 -5.5 -22t-4.5 -22q-6 -23 -9 -45l-2 -10q32 0 70 3t103 12q-14 -32 -23 -52t-10 -25q-1 -4 -1 -24t2 -51q-57 8 -97 11t-69 3q-5 -26 -11.5 -67.5t-15.5 -108.5q-27 6 -46.5 9.5t-27.5 3.5t-29 -3.5
t-51 -9.5q20 65 31.5 107t17.5 69q-32 -1 -71 -3.5t-100 -10.5q14 31 23 51t10 24q1 5 0.5 25t-1.5 52q57 -8 96.5 -11.5t68.5 -3.5q1 4 1 5v1l0.5 1t1.5 4q2 11 5 22z" />
    <glyph glyph-name="bullet" unicode="&#x2022;" horiz-adv-x="400" 
d="M12 341q8 39 30 73t52.5 59.5t68 40.5t76.5 15t70 -15t51.5 -40.5t28 -59.5t-0.5 -73q-9 -39 -31 -73.5t-52.5 -60t-68 -40t-76.5 -14.5t-70 14.5t-51 40t-27.5 60t0.5 73.5z" />
    <glyph glyph-name="ellipsis" unicode="&#x2026;" horiz-adv-x="862" 
d="M45 76q4 18 14 34t24.5 27.5t31.5 18.5t35 7q36 0 56 -25.5t13 -61.5q-4 -18 -14 -33.5t-24.5 -27.5t-32 -19t-35.5 -7t-32 7t-23.5 19t-13 27.5t0.5 33.5zM643 76q4 18 14 34t24 27.5t31.5 18.5t35.5 7t32 -7t23.5 -18.5t13.5 -27.5t0 -34t-14.5 -33.5t-25 -27.5
t-31.5 -19t-35 -7t-32.5 7t-23.5 19t-12.5 27.5t0.5 33.5zM344 76q4 18 14 34t24 27.5t31.5 18.5t35.5 7q36 0 56 -25.5t13 -61.5q-4 -18 -14 -33.5t-24.5 -27.5t-32 -19t-35.5 -7t-32.5 7t-23.5 19t-12.5 27.5t0.5 33.5z" />
    <glyph glyph-name="perthousand" unicode="&#x2030;" horiz-adv-x="980" 
d="M78 495q11 52 33.5 86.5t50.5 55.5t58.5 29.5t57.5 8.5t53.5 -8.5t45.5 -29.5t27 -55.5t-3 -86.5q-2 -7 -3.5 -13.5t-3.5 -12.5l174 235q31 -13 36 -13q1 0 28.5 9t75.5 26l-303 -407q25 14 50.5 20t48.5 6q20 0 40 -4.5t37 -15.5t29.5 -28.5t18.5 -42.5q16 25 36.5 42.5
t42.5 28.5t44 15.5t42 4.5q27 0 54 -8.5t46 -29.5t26.5 -55.5t-3.5 -86.5t-33.5 -86.5t-50.5 -55t-58.5 -29t-57.5 -8.5q-20 0 -40 4.5t-37 15t-30 27.5t-18 43q-34 -51 -79.5 -70.5t-85.5 -19.5q-27 0 -54 8.5t-46 29t-27 55t3 86.5q2 6 3.5 12t3.5 12l-173 -232
q-29 12 -35 12q-2 0 -29.5 -9t-74.5 -26l302 409q-25 -15 -50 -21t-48 -6q-27 0 -54 8.5t-46.5 29t-27 55t3.5 86.5zM436 165q-8 -38 -7 -62t18 -24t27.5 24t18.5 62t8 62t-17 24t-28.5 -24t-19.5 -62zM727 165q-8 -38 -7.5 -62t17.5 -24t28 24t19 62t7.5 62t-17.5 24
t-28 -24t-19 -62zM211 495q-8 -38 -7.5 -62t17.5 -24t28 24t19 62t7.5 62.5t-17.5 24.5t-28 -24.5t-19 -62.5z" />
    <glyph glyph-name="guilsinglleft" unicode="&#x2039;" horiz-adv-x="197" 
d="M182 481q8 -23 28.5 -41.5t51.5 -23.5l-157 -173q8 -20 18.5 -43.5t20.5 -47.5t19.5 -46.5t16.5 -38.5q-13 -2 -27.5 -8t-28.5 -16t-26.5 -22t-20.5 -25l-104 248z" />
    <glyph glyph-name="guilsinglright" unicode="&#x203a;" horiz-adv-x="195" 
d="M14 421q13 1 28 8t29 16.5t26 22t20 25.5l105 -249l-210 -237q-8 23 -28 41.5t-51 23.5l155 172z" />
    <glyph glyph-name="fraction" unicode="&#x2044;" horiz-adv-x="329" 
d="M324 696q17 -7 27 -11t12 -4t26 8t62 22l-448 -746q-15 7 -25 10.5t-12 3.5t-25.5 -7.5t-62.5 -21.5z" />
    <glyph glyph-name="Euro" unicode="&#x20ac;" horiz-adv-x="577" 
d="M601 582q-8 -15 -19.5 -39t-25.5 -56l-65 -1q-13 38 -38 58t-49 20q-40 0 -77.5 -30.5t-67.5 -98.5h106q12 0 25.5 0.5t31.5 2t43 5t61 10.5q-19 -28 -33 -53.5t-25 -45.5l11 3q-32 -48 -51.5 -86t-26.5 -55q-36 7 -64 9t-49 2h-77q2 -62 27 -94.5t66 -32.5q59 0 169 96
l21 -69q-15 -38 -28 -75q-17 -14 -41.5 -25.5t-51.5 -20t-54.5 -13.5t-50.5 -5q-50 0 -89.5 16t-67 46t-42 74t-13.5 101q-20 -2 -43 -6t-52 -9q17 28 30 53.5t23 48.5q-8 -1 -15.5 -2.5l-17.5 -3.5q23 39 40.5 75t28.5 65q15 -3 30.5 -5t26.5 -4q25 51 60.5 95t77.5 75.5
t89.5 49.5t96.5 18q44 0 89 -15t76 -35z" />
    <glyph glyph-name="trademark" unicode="&#x2122;" horiz-adv-x="870" 
d="M173 585q-17 -1 -37 -2t-39.5 -2t-36.5 -2t-28 -2l41 57q-1 -1 -5.5 14.5t-11.5 41.5q17 -1 43.5 -2.5t55 -2.5t55 -2t43.5 -1q15 0 37 0.5t46.5 1.5t48.5 2t44 2q0 1 1 2t1 2h64q29 -114 67 -224v1q4 -10 4.5 -12l0.5 -2l1 -2t5 -12l20 26q19 25 41.5 54t45 58.5
t44.5 58.5t41 54h61l-16 -146q-3 -31 -7 -74.5t-7.5 -88.5t-6.5 -86t-4 -67q-28 9 -46 15t-20 6q-5 0 -21.5 -4t-41.5 -12q8 48 16 104t14 108q-18 -25 -37.5 -52t-38 -52.5t-34 -49t-26.5 -40.5h-55q-11 53 -21 85t-19 61q-4 10 -7.5 19t-5.5 19q-14 -42 -28 -92t-28 -113
q-22 8 -36 13.5t-15 5.5q-3 0 -23 -6.5t-52 -17.5q12 27 27.5 66t31.5 81.5t31.5 83.5t26.5 73q3 11 7 23t9 26q-26 2 -53.5 4t-47.5 2l-19 -91q-8 -40 -15.5 -79.5t-15.5 -78.5q-1 -7 -3.5 -21.5t-5 -30t-5 -30t-3.5 -21.5q-23 8 -40.5 12.5t-23.5 4.5q-5 0 -23 -4t-43 -12
l13 60q8 35 19.5 81t25.5 112z" />
    <glyph glyph-name="minus" unicode="&#x2212;" horiz-adv-x="593" 
d="M45 322h526l-25 -118h-526z" />
    <glyph glyph-name="fi" unicode="&#xfb01;" horiz-adv-x="507" 
d="M437 535q-33 0 -52 23t-13 55l-40 -18q-13 10 -24 14.5t-19 4.5q-20 0 -32.5 -16.5t-17.5 -37.5q-2 -10 -4 -28t-4 -41h15h18t26 0.5t26 0.5h18q-8 -22 -14 -39t-6 -15q-1 -4 -1.5 -20t-1.5 -34h-13.5t-22.5 0.5t-22.5 0.5h-14.5q-8 0 -10 0.5t-2.5 1t-2.5 0.5h-9
q-21 -97 -42.5 -201t-38.5 -199q-28 6 -47 9.5t-26 3.5q-9 0 -30 -3.5t-49 -9.5q26 100 49 200t44 199q-2 0 -3 -0.5t-3 -0.5h-12t-20 -0.5t-20 -0.5h-12q6 18 12 34t7 20q0 -2 1 15t3 39h14t21.5 -0.5t21.5 -0.5h15q9 27 23 56.5t31 57t36.5 51.5t39.5 41q25 20 60 36
t68 16q7 0 21 -3t31 -9q-7 -30 -10 -41t-5 -18l1 1q-2 -5 -4 -12.5t-4 -15.5q14 20 37 33.5t48 13.5q34 0 52 -24t11 -57q-7 -34 -35.5 -58t-62.5 -24zM317 293q8 38 16 91.5t16 120.5q29 -6 50 -9.5t29 -3.5t30 3.5t54 9.5q-21 -67 -35 -120.5t-22 -91.5l-20 -94
q-8 -38 -17 -91.5t-16 -120.5q-29 6 -50 9.5t-29 3.5t-30.5 -3.5t-53.5 -9.5q41 136 58 212z" />
    <glyph glyph-name="fl" unicode="&#xfb02;" horiz-adv-x="513" 
d="M331 595q-25 19 -43 19q-20 0 -32 -16.5t-17 -37.5q-2 -10 -4.5 -28t-4.5 -41h15h18t26 0.5t26.5 0.5h18.5q-8 -22 -14 -39t-5 -15q-1 -4 -2.5 -20t-1.5 -34h-14.5t-22.5 0.5t-22.5 0.5h-14.5q-8 0 -9.5 0.5t-2 1t-2.5 0.5h-10q-21 -97 -42 -201t-39 -199q-27 6 -46 9.5
t-26 3.5q-9 0 -30 -3.5t-50 -9.5q26 100 50 200t45 199q-2 0 -4 -0.5t-4 -0.5h-12t-20 -0.5t-20 -0.5h-12q6 18 12.5 34t7.5 20q-1 -2 0 15t3 39h14t21.5 -0.5t21.5 -0.5h15q9 27 23 56.5t31.5 57t37 51.5t40.5 41q24 20 59 36t68 16q13 0 49 -11q0 5 0.5 9t1.5 9
q29 -6 49 -10t28 -4t30.5 4t53.5 10q-11 -37 -22 -77.5t-20.5 -81t-18.5 -78t-15 -67.5l-35 -162l-13.5 -67.5t-14.5 -77.5t-13.5 -81t-10.5 -77q-29 6 -49.5 9.5t-28.5 3.5t-29.5 -3.5t-53.5 -9.5q11 36 21.5 77t20.5 81t18.5 77.5t14.5 67.5l35 162q11 49 23 115.5
t21 131.5q-2 -8 -3 -12.5t-2 -8.5v1q-3 -11 -8 -31.5t-7 -30.5z" />
    <glyph glyph-name="LDO" horiz-adv-x="720" 
d="M343 162q0 -2 -1.5 -6t-1.5 -5v-7h-4v10q4 4 7 8zM288 144q4 7 4 18h15q-7 0 -7 -8q0 -25 3 -32h4q2 5 7 14h4v-14h-11q-1 0 -2.5 1t-2.5 3t-2 3h-8q0 1 -2 6t-2 9zM374 110v15q3 0 5 1.5t3 2.5v-13q2 -1 4 -2.5t6 -3.5l1 -16q-6 7 -19 16zM89 627q24 7 64 7q25 0 37 -7
q10 -7 34 -7q19 9 22 18q29 0 33 24l9 4q2 3 7 5q5 0 5 2q5 2 7.5 6.5t10.5 4.5q1 3 7 6q7 2 7 5q32 0 32 18q8 0 13 6q4 7 12 7q1 2 9.5 5t8.5 6q7 0 10 3q12 8 16 8l9 4q7 2 7 7q11 0 22 4q11 3 19 3q0 4 7 8q7 2 8 3l89 19l42 -4l15 -8q7 -3 11 -7q10 -7 31 -18l7 -42
q-42 0 -42 5q-5 0 -14 4t-11 4q0 4 -1.5 5.5t-6.5 4.5h-68q-3 -3 -7 -10q-7 0 -21 -4t-21 -4q-13 -9 -18.5 -9t-14.5 -3q-4 0 -8 -6l-6 -6q-10 -3 -8 -3h-4q-1 -3 -8.5 -5l-7.5 -2q-3 0 -5.5 -2t-6.5 -5t-6 -5q-11 0 -15 -10q-5 0 -6 -2.5t-1 -9.5q-6 0 -13.5 -3.5t-8 -3.5
t-6.5 -4.5t-14 -4.5q-2 -1 -7 -2t-8 -6q-2 -1 -4 -4q-2 -5 -3 -6q-11 0 -11 -8q-4 0 -7 -1.5t-6 -4.5l-5 -5q-15 0 -15 -11q-5 0 -13 -7v-11q-4 -3 -6.5 -4t-4.5 -5v-15q6 -7 11 -7v-48q-6 0 -11 -9v-11q-2 -2 -4 -3q-3 -2 -7 -4v-22q-6 -3 -7 -4.5t-1 -10.5q0 -11 -3 -11
l-7 -7q-9 -4 -10.5 -6t-1.5 -10q-9 -4 -15 -8t-8 -11q-11 -11 -44 -11q-17 11 -35 11q-2 3 -7 11h-15q-3 0 -9 4q-7 4 -13 4q0 11 -11 16q0 7 -4 11q-10 0 -21 -1l-11 -1q-4 0 -11 7q-3 2 -6 2v55q2 3 5 5l6 4l4 83q1 0 2.5 1t2.5 3t2 3v15q5 2 6 6t5 4q0 1 10 4.5t10 7.5
q21 7 26 7zM385 132q-4 5 -7 7q-4 1 -15 1v18q6 -6 18 -14q0 -8 4 -12zM400 132q3 -3 3 -7q-3 3 -10 7h7zM403 125h7q5 2 12 10q6 9 10 9q-1 -4 -3.5 -6t-6.5 -6v-14l6 -4t4 -4q-4 0 -10 -7v-13l7 -7h17q1 -6 4 -10q2 -6 18 -12q3 11 3 22q-9 11 -22 11v31q3 0 11 7l-6 6
q-3 2 -5 6q2 -1 12 -5q6 -2 17 -5q6 -2 19 -2v-22q3 -2 6.5 -3.5t4.5 -3.5q0 -16 4 -20h9q3 3 3 14v6q9 0 13 1.5t9 5.5q-7 8 -11 8v14q3 0 11 8v26q-3 2 -6 3.5t-5 5.5q0 8 -1.5 10t-9.5 5q7 0 12.5 5t6.5 5v-10q0 -8 7 -8q3 -10 4 -11.5t7 -4.5q0 -15 8 -22h3q2 2 4 8t3 6
q20 7 20 24q5 0 18 8v-58h-7q-3 -3 -3 -14q-4 -1 -14 -8q10 -7 32 -7q0 -5 -2 -6.5t-5 -6.5v-36q-4 2 -5.5 3.5t-2 3.5t-3.5 7h-20q0 -2 -2 -6q-2 -6 -2 -8q-4 0 -11 -8q7 0 11 -3v-7q-2 -2 -5 -3.5t-6 -4.5v-16q-19 0 -22 -8v-7l1 -1q0 1 -4 1q0 3 -2 8t-2 7q-18 0 -23 -8
v-7q11 -11 22 -11v-7h-7q-12 -5 -21 -7q-4 -1 -10 -1v15q7 0 7 7q0 35 -3 43h-3q-8 -8 -8 -39q-7 0 -11 -4v-14h-26l-4 -8v-38q-10 0 -24 -4q9 -7 14 -7v-18q-6 2 -6 6q0 3 -7 5h-4q-5 -2 -6 -5q-2 -4 -5 -6v18q3 0 11 7q0 57 -7 64h-4q-1 -1 -3 -2l-1 -1l4 3q-4 4 -11 4
q0 31 -7 39h-4q-6 -3 -5 -21q1 -34 1 -31v-55q0 -1 4 -3t4 -4v-7q0 -1 -3.5 -4.5t-3.5 -6.5h-29v25q0 2 -1 3l-4 2q-2 1 -5 3q-2 7 -7 16h-4q-7 -7 -7 -24q3 -2 7 -3l4 -4v-7q-5 -4 -15 -11q3 0 11 11v7q0 7 -18 7q-15 0 -18 -7v-11q0 4 -7 4q0 10 -5 15q-5 4 -16 7v16l-7 4
h-15v14q-6 8 -11 8q-4 12 -22 18v31q11 3 11 15q2 0 5.5 1.5t5.5 1.5q0 19 -4 22h-7q-3 -3 -3 -14q-5 0 -19 -8v44q4 0 7 2t4 2v38h18v-14q-5 0 -7 -4q-2 -2 -3 -4q29 0 36 8v7l-4 4l4 -4h17q0 -31 3 -35h-9l-7 -7v-15q-6 -2 -7 -3.5t-4 -10.5q-4 0 -11 -8h35v-10
q-9 -4 -13 -8q0 -11 7 -24q10 4 21 17v22h7q1 -12 3 -31h8q4 3 4 16q18 0 21 8v7l-7 7l7 4v14q3 -2 8 -3.5t7 -3.5q0 -8 1 -9.5t5 -8.5q27 0 32 11v9h-1q1 -2 5 -2q6 8 6.5 11t0.5 11q3 0 11 7v20q-7 8 -11 8q0 2 -2 4t-2 3zM617 129q2 -1 3 -2l1 -2h8q0 -3 -4 -7h-3
q-5 4 -5 11zM629 125q0 4 3 7q0 -2 -1 -3q-2 -3 -2 -4zM632 132v50q4 0 11 8v10h15l4 8v22h7v-90q-1 -2 -5 -3q-3 -2 -6 -5v-14l-14 -8q0 19 -8 22h-4zM456 -67q2 -1 3 -2l1 -2v3q-1 1 -4 1zM460 -71q4 -1 9 -8l6 -6q0 7 -7 14h-8zM468 -67q3 9 3 31h15q2 -2 3 -4q0 -4 4 -6
q2 -1 4 -1q-2 -2 -5 -3.5t-6 -3.5v-9q0 -5 -3 -5q-3 1 -6 1h-9zM414 -10q-1 -5 -1 -15v-12q0 -20 -2 -26h-4v49q3 0 7 4zM307 -89l3 -4q0 3 -1 4h-2zM310 -93q4 0 8 -3q-8 0 -8 3zM264 129q-3 0 -7 3v12l-7 7h-15v15q11 0 11 9v7q-1 3 -5.5 5t-5.5 3v10q-6 8 -11 8
q3 0 7 2.5t4 4.5v7q0 3 -4 4q-5 2 -7 4v34h8v-16l3 -7h15v-33q-8 0 -8 -8v-7q0 -3 8 -3v-24q2 -1 6 -4t5 -4v-26zM296 90q4 4 4 20h13q-2 -1 -3.5 -3t-2.5 -4v-31q-1 1 -3 2.5t-4 1.5q0 7 -4 14zM307 72l4.5 -2t6.5 -2h-8q-1 1 -1 2zM318 68q1 7 7 15v-15h-7zM531 237
q2 -2 3 -4l4 -2q2 -1 4 -1l1 -15h-18q0 8 -1.5 10t-11.5 5q0 34 -4 42h-3q-4 -2 -5 -8q-2 -6 -3 -7h-4v15h15q1 6 4 14h9v-14q8 -8 11 -8zM511 305q0 7 -6 7q-8 -7 -12 -7v14h15q0 -3 1.5 -8t1.5 -6zM300 290h-12q0 -2 -1.5 -6t-1.5 -5q-27 -7 -28 -7v25h15l7 8v14
q27 0 31 20q18 5 22 22h15q0 -29 7 -34h4q6 5 6 20q7 4 10 7v15q9 -8 11 -8h8q-1 0 7 8q0 -18 7 -22h4l3.5 7l3.5 7h15q1 -5 4 -11q1 -1 9 -3q-14 0 -14 -8v-7q4 -5 36 -5v-15h-39q-2 2 -3 8q-3 6 -4 7h-4q-2 -5 -7 -15h-4q-2 3 -7 15h-15q0 -6 -3 -15h-8q0 4 -3 15h-28
q-2 -6 -7 -15q-10 0 -20 -8z" />
    </font>
</defs>
</svg>
