<?xml version="1.0" standalone="no"?>
<!DOCTYPE svg PUBLIC "-//W3C//DTD SVG 1.1//EN" "http://www.w3.org/Graphics/SVG/1.1/DTD/svg11.dtd" >
<svg xmlns="http://www.w3.org/2000/svg" xmlns:xlink="http://www.w3.org/1999/xlink" version="1.1">
<metadata>
Created by FontForge 20170731 at Fri Mar 26 00:58:17 2004
 By Aleksey,,,
Copyright (c) Luke Owens, 2004. All rights reserved.
</metadata>
<defs>
<font id="OregonLDOExtended-Oblique" horiz-adv-x="215" >
  <font-face 
    font-family="Oregon LDO Extended"
    font-weight="400"
    font-style="oblique"
    font-stretch="normal"
    units-per-em="1000"
    panose-1="2 1 6 3 0 0 0 2 0 4"
    ascent="800"
    descent="-200"
    x-height="473"
    cap-height="685"
    bbox="-111 -271 1332 919"
    underline-thickness="50"
    underline-position="-150"
    slope="-12"
    unicode-range="U+0020-FB02"
  />
<missing-glyph horiz-adv-x="278" 
 />
    <glyph glyph-name=".notdef" horiz-adv-x="278" 
 />
    <glyph glyph-name=".null" horiz-adv-x="0" 
 />
    <glyph glyph-name="nonmarkingreturn" horiz-adv-x="278" 
 />
    <glyph glyph-name="space" unicode=" " horiz-adv-x="278" 
 />
    <glyph glyph-name="space" unicode="&#xa0;" horiz-adv-x="278" 
 />
    <glyph glyph-name="exclam" unicode="!" horiz-adv-x="202" 
d="M44 171q7 47 14.5 99.5t14.5 104t14 98.5t13 84.5t9.5 61.5t5.5 30q7 27 28.5 38t44.5 11t39.5 -11t9.5 -38q-2 -5 -10 -29.5t-21 -62t-30 -84.5t-35 -98.5t-36.5 -104t-35.5 -99.5h-25zM-45 45q6 23 30.5 40t53.5 17t46 -17t11 -40t-31 -40t-54 -17t-45.5 17t-10.5 40z
" />
    <glyph glyph-name="quotedbl" unicode="&#x22;" horiz-adv-x="338" 
d="M78 698h65l-71 -288h-65zM264 698h65l-71 -288h-65z" />
    <glyph glyph-name="numbersign" unicode="#" horiz-adv-x="545" 
d="M209 432h-94q14 16 27 40.5t18 41.5h91q19 38 32 63t21 41.5t12.5 25.5l7.5 15q12 -3 25 -3t27 3q-5 -6 -9.5 -12t-12.5 -20.5t-21.5 -41t-36.5 -71.5h143l31.5 63t20.5 41.5t12.5 25.5l7.5 15q13 -3 25 -3q14 0 28 3q-5 -6 -9.5 -12t-12.5 -20.5t-21.5 -41t-36.5 -71.5
h92q-12 -16 -25.5 -41t-18.5 -41h-92l-104 -208h93q-13 -16 -26.5 -41t-17.5 -41h-92q-20 -40 -33 -65.5t-20.5 -41.5t-11.5 -24l-7 -14q-7 1 -12.5 2t-12.5 1t-14 -1t-13 -2l8 12t12 20.5t22 41t37 71.5h-142q-21 -40 -34 -65.5t-20.5 -41.5t-11.5 -24t-6 -14q-7 1 -13 2
t-13 1q-6 0 -12.5 -1t-13.5 -2q4 6 8.5 12t12.5 20.5t21.5 41t36.5 71.5h-92q14 16 26.5 40.5t17.5 41.5h91zM397 432h-144l-105 -208h144z" />
    <glyph glyph-name="dollar" unicode="$" horiz-adv-x="579" 
d="M247 27q32 6 59 19t48 31t35.5 40.5t20.5 46.5q4 16 4 31.5t-9.5 31t-31 31t-60.5 32.5zM352 633q-56 -7 -97.5 -38.5t-53.5 -77.5q-11 -47 12 -76.5t79 -47.5zM270 304q-51 17 -88 34.5t-59 39t-28 49t3 63.5t32 67t57.5 54.5t78.5 38.5t96 20q5 20 8 40.5t1 37.5
q17 -5 31 -5q8 0 16 1.5t18 3.5q-11 -18 -17 -37.5t-11 -38.5q41 0 70 -4.5t49.5 -11.5t35 -15t25.5 -15q-16 -17 -28 -35t-26 -45h-15q-3 13 -9.5 28t-20 28t-35.5 22.5t-55 10.5l-64 -256q50 -17 88 -33.5t61.5 -37t32 -46.5t-0.5 -62q-9 -37 -32.5 -71.5t-59.5 -62.5
t-83 -48t-103 -28q-8 -29 -13 -56.5t-6 -55.5q-18 5 -32 5q-8 0 -16 -1.5t-17 -3.5q11 23 20 51t17 56q-12 -1 -19.5 -1h-15.5q-59 0 -106 13t-85 42q17 22 25 40t18 45h15q14 -32 34 -52t43 -31.5t48.5 -15.5t51.5 -4z" />
    <glyph glyph-name="percent" unicode="%" horiz-adv-x="1052" 
d="M67 506q9 36 31 66t54 52.5t72 35t86 12.5q45 0 79 -12.5t55 -35t28 -52.5t-2 -66t-31 -66t-54 -52.5t-72.5 -35t-85.5 -12.5q-46 0 -80 12.5t-55 35t-27.5 52.5t2.5 66zM160 506q-7 -28 -7 -53.5t8.5 -45t26 -31.5t45.5 -12t51.5 12t41.5 31.5t31 45t20 53.5t7 53.5
t-8.5 45t-26 31.5t-45.5 12t-51.5 -12t-42 -31.5t-31 -45t-19.5 -53.5zM582 150q9 36 31 66t54 52.5t72.5 35t85.5 12.5q46 0 80 -12.5t55 -35t27.5 -52.5t-2.5 -66t-31 -66t-54 -52.5t-72 -35t-86 -12.5q-45 0 -79 12.5t-55 35t-28 52.5t2 66zM675 150q-7 -28 -7 -53.5
t8.5 -45t26 -31.5t45.5 -12t51.5 12t42 31.5t31 45t19.5 53.5t7 53.5t-8.5 45t-26 31.5t-45.5 12t-51.5 -12t-41.5 -31.5t-31 -45t-20 -53.5zM819 695q15 -5 29 -5q12 0 30 5l-649 -734q-15 5 -28 5t-31 -5z" />
    <glyph glyph-name="ampersand" unicode="&#x26;" horiz-adv-x="791" 
d="M521 561q9 36 -12 59.5t-67 23.5q-49 0 -85 -27t-46 -67q-4 -15 -2.5 -33t7.5 -37t15.5 -38t22.5 -36q72 32 114.5 74.5t52.5 80.5zM217 522q8 31 29 58.5t52 48t69 32t80 11.5q73 0 112.5 -28.5t26.5 -83.5q-7 -29 -30 -54.5t-54 -48t-66 -41t-66 -31.5
q42 -58 83 -113.5t83 -104.5q57 50 106 97.5t92 100.5q5 -13 15 -22.5t23 -17.5q-51 -48 -101.5 -93t-113.5 -93l124 -144q-20 2 -39.5 3.5t-39.5 1.5q-17 0 -36 -1.5t-36 -3.5q-8 14 -23 36.5t-35 48.5q-33 -22 -66.5 -40t-69.5 -31t-75 -20t-84 -7q-48 0 -88.5 11
t-67.5 32t-38.5 52.5t-0.5 73.5q8 33 33 64.5t62.5 59.5t85 51.5t99.5 39.5q-26 42 -40 80t-5 76zM88 169q-7 -27 0.5 -52.5t27 -45t50 -31t70.5 -11.5q63 0 113.5 18.5t102.5 53.5q-48 60 -90.5 119t-84.5 122q-77 -33 -125 -72t-64 -101z" />
    <glyph glyph-name="quotesingle" unicode="'" horiz-adv-x="156" 
d="M78 698h65l-71 -288h-65z" />
    <glyph glyph-name="parenleft" unicode="(" horiz-adv-x="261" 
d="M339 680q-59 -48 -100 -95t-69.5 -95.5t-47 -100t-32.5 -108.5q-15 -57 -22 -108.5t-2.5 -100t22 -95.5t52.5 -95l-29 -18q-79 86 -103.5 194t4.5 223q13 55 40 111t66 109.5t89.5 103.5t110.5 93z" />
    <glyph glyph-name="parenright" unicode=")" horiz-adv-x="261" 
d="M-79 -118q58 48 99 95t69.5 95.5t47 100t33.5 108.5q14 57 21 108.5t2.5 100t-22 95.5t-52.5 95l29 18q79 -86 104 -194t-4 -223q-14 -55 -41 -111t-66 -109.5t-89 -103.5t-110 -93z" />
    <glyph glyph-name="asterisk" unicode="*" horiz-adv-x="449" 
d="M233 684q15 -4 35 -4q22 0 37 4l-58 -155l180 92q-5 -34 24 -52l-193 -64l159 -66q-14 -8 -28 -21t-20 -29l-136 88l-17 -152q-8 2 -16 3t-19 1t-20 -1t-17 -3l55 152l-174 -89q1 17 -6 30t-18 21l192 65l-164 65q14 8 29.5 22.5t19.5 29.5l134 -92z" />
    <glyph glyph-name="plus" unicode="+" horiz-adv-x="638" 
d="M9 279h283l57 227h65l-57 -227h284l-13 -52h-284l-57 -227h-65l57 227h-282z" />
    <glyph glyph-name="comma" unicode="," 
d="M134 75q8 13 23.5 25.5t40.5 12.5q15 0 29 -8t10 -26q-3 -12 -11.5 -22t-18.5 -20l-207 -212l-22 7z" />
    <glyph glyph-name="hyphen" unicode="-" horiz-adv-x="398" 
d="M50 262h311l-15 -62h-311z" />
    <glyph glyph-name="period" unicode="." horiz-adv-x="204" 
d="M30 45q5 23 30.5 40t54.5 17t45.5 -17t11.5 -40q-6 -23 -31.5 -40t-54.5 -17t-45.5 17t-10.5 40z" />
    <glyph glyph-name="slash" unicode="/" horiz-adv-x="416" 
d="M438 703q17 -5 31 -5q9 0 17 1.5t17 3.5l-525 -726q-8 2 -15.5 3.5t-16.5 1.5q-8 0 -16 -1.5t-17 -3.5z" />
    <glyph glyph-name="zero" unicode="0" horiz-adv-x="651" 
d="M136 328q-17 -66 -21.5 -123t7 -99t42 -66t84.5 -24q53 0 95.5 24t75 66t56.5 99t41 123q16 66 20.5 123t-7.5 99t-42.5 66t-83.5 24q-54 0 -95.5 -22t-74 -63t-56 -98.5t-41.5 -128.5zM33 328q17 70 47.5 133t77 109.5t109 74t144.5 27.5q90 0 140 -27.5t70.5 -74
t17 -109.5t-20.5 -133q-17 -68 -50 -130.5t-80.5 -110t-109.5 -75.5t-138 -28q-90 0 -140 27.5t-70.5 74t-17 109t20.5 133.5z" />
    <glyph glyph-name="one" unicode="1" horiz-adv-x="336" 
d="M252 608l-165 -66q-3 9 -11 17.5t-18 14.5l2 7q77 23 158 50.5t153 53.5l6 -5q-20 -66 -39 -130.5t-36 -130.5l-41 -167q-17 -65 -30 -129t-25 -128q-14 2 -27.5 3.5t-28.5 1.5t-30 -1.5t-31 -3.5q22 65 40 128.5t35 128.5z" />
    <glyph glyph-name="two" unicode="2" horiz-adv-x="588" 
d="M138 573q53 51 114.5 75t139.5 24q49 0 90 -10t68 -32t37.5 -55.5t-1.5 -79.5q-9 -34 -26 -63.5t-44 -57.5t-63.5 -56.5t-83.5 -60.5q-28 -19 -65.5 -44t-76 -51.5t-74 -52.5t-60.5 -48h118q90 0 160.5 2.5t123.5 5.5q-5 -9 -10 -18.5t-7 -18.5t-2.5 -18.5t0.5 -18.5
q-66 2 -133 3.5t-134 1.5q-68 0 -134.5 -1.5t-134.5 -3.5l4 15q104 69 181.5 122t133 95t92 75.5t60.5 63.5t37 60t22 64q9 37 4.5 64.5t-19.5 45.5t-38 26.5t-51 8.5q-40 0 -71.5 -11.5t-54.5 -28t-38 -35.5t-22 -34l-10 -2z" />
    <glyph glyph-name="three" unicode="3" horiz-adv-x="561" 
d="M141 612q16 10 35.5 20.5t44 19.5t54 14.5t64.5 5.5q49 0 90.5 -9t69.5 -27t40 -46t2 -67q-9 -36 -32 -64.5t-53 -49t-63 -33.5t-62 -19l-2 -6q31 -2 65.5 -9.5t61.5 -25t41 -46.5t3 -74q-12 -45 -44.5 -84t-81.5 -67.5t-111.5 -44.5t-134.5 -16q-65 0 -107 11t-73 24
q7 8 16 26.5t14 33.5l9 4q8 -11 21.5 -22.5t32 -21.5t43 -16.5t54.5 -6.5q46 0 86.5 12.5t72.5 34.5t53.5 52.5t30.5 67.5q10 41 4.5 69.5t-25 46t-50 25.5t-69.5 8q-14 0 -29.5 -2t-27.5 -4q2 5 4 10.5t4 10.5t2 10.5v10.5q14 -2 27 -3t28 -1q44 0 75.5 14.5t53 37t34 49.5
t18.5 52q8 32 2 55.5t-21.5 38.5t-37.5 22t-47 7q-26 0 -50 -6.5t-45 -18t-38 -26t-27 -29.5l-9 -2z" />
    <glyph glyph-name="four" unicode="4" horiz-adv-x="629" 
d="M-30 197q70 62 146.5 129t147.5 130t131.5 117.5t99.5 92.5q23 -5 42 -5t41 5q-14 -44 -28.5 -96t-29.5 -108t-29.5 -113.5t-27.5 -110.5q35 0 68.5 2.5t55.5 5.5q-5 -8 -9 -16.5t-6 -16.5t-2 -16.5v-16.5q-20 3 -52.5 4.5t-67.5 1.5l-11 -42q-10 -39 -17.5 -80.5
t-12.5 -68.5q-28 5 -54 5q-14 0 -27.5 -1.5t-28.5 -3.5q10 29 24 70t23 79l11 42q-19 0 -50.5 -0.5t-69 -1t-78 -1.5t-78 -1.5t-68 -1.5t-47.5 -1zM453 574h-2q-22 -19 -53 -46.5t-66 -58.5t-71.5 -64t-70.5 -63.5t-63 -57.5t-48 -46h291z" />
    <glyph glyph-name="five" unicode="5" horiz-adv-x="564" 
d="M169 374l28 10t31 8.5t38 5.5t49 2q55 0 95.5 -15t65.5 -41t33.5 -60t-0.5 -72q-12 -47 -45 -88.5t-82 -72.5t-110.5 -49t-130.5 -18q-56 0 -105 9t-84 31l2 8q10 13 19 29.5t14 28.5h8q7 -18 23 -32t38 -23.5t47 -14t51 -4.5q37 0 74 11t69.5 34t57 58t36.5 82
q10 42 3 72t-26.5 49t-49 27.5t-63.5 8.5q-52 0 -88 -13.5t-49 -19.5l-12 7q18 39 31 82.5t24 86.5q10 42 19.5 86.5t11.5 78.5l12 6q10 -2 26.5 -3t42.5 -3q27 -2 64 -2.5t88 -0.5q58 0 105.5 0.5t70.5 1.5l5 -4q-17 -26 -23 -56q-3 -11 -3 -17q-27 4 -72 6.5t-94 4t-95 2
t-75 0.5z" />
    <glyph glyph-name="six" unicode="6" horiz-adv-x="600" 
d="M547 637l-7 -4q-12 3 -27 5t-36 2q-48 0 -91 -16.5t-80 -44t-67 -63t-53.5 -73.5t-39 -75t-23.5 -67h3q16 17 38 34t49.5 31t62 23t75.5 9q33 0 73.5 -8t73.5 -29t50 -57.5t3 -93.5q-13 -50 -43 -91.5t-73.5 -71.5t-99 -46.5t-118.5 -16.5q-54 0 -99.5 15.5t-75 50
t-38.5 89t10 133.5q20 83 62.5 156.5t103.5 128t138 85.5t167 30q21 0 31.5 -0.5t20.5 -2.5zM435 189q19 76 -8 124t-107 48q-37 0 -71.5 -12.5t-64 -35.5t-50.5 -54.5t-31 -69.5q-9 -38 -4.5 -70t21 -55t43.5 -35.5t63 -12.5q39 0 73 12.5t61 35.5t46.5 55t28.5 70z" />
    <glyph glyph-name="seven" unicode="7" horiz-adv-x="572" 
d="M646 641q-151 -153 -308 -318.5t-301 -327.5q-11 2 -21 3.5t-24 1.5q-11 0 -22.5 -1.5t-23.5 -3.5q77 75 162 160t165 165.5t149 150.5t113 116q-57 0 -167.5 -1t-271.5 -9q11 22 16 45q6 21 6 44q51 -3 92 -5t75 -3q19 0 48.5 -0.5t62.5 -1t66 -0.5h59q38 0 67.5 0.5
t61.5 0.5z" />
    <glyph glyph-name="eight" unicode="8" horiz-adv-x="617" 
d="M-8 179q15 61 69.5 112t157.5 77l2 7q-22 4 -43.5 15.5t-37 29t-22.5 41t1 52.5q8 31 31.5 60t59.5 51t82.5 35t100.5 13q62 0 104 -12.5t66.5 -32.5t32 -47t0.5 -55q-6 -23 -21 -46t-37.5 -42.5t-52.5 -34.5t-66 -24l-2 -7q21 -3 49.5 -12.5t52 -29t36 -50.5t0.5 -77
q-12 -50 -44 -90t-77 -68.5t-99.5 -44t-112.5 -15.5q-59 0 -107 13t-79 38t-43.5 61t-0.5 83zM489 512q7 26 5 49t-14 40.5t-35 28t-59 10.5q-35 0 -63 -10.5t-48.5 -28t-34 -40.5t-20.5 -49q-6 -26 -4.5 -49t13.5 -40.5t35 -28t58 -10.5q36 0 64 10.5t49 28t34.5 40.5
t19.5 49zM441 184q9 37 4.5 67.5t-21 53t-44.5 35t-67 12.5t-73.5 -12.5t-61.5 -35t-46.5 -53t-28.5 -67.5t-5 -67.5t20.5 -53t44.5 -35t67 -12.5t73.5 12.5t62 35t47 53t28.5 67.5z" />
    <glyph glyph-name="nine" unicode="9" horiz-adv-x="610" 
d="M26 57q22 -19 50.5 -30t63.5 -11q67 0 122.5 30t98.5 78.5t72 108.5t44 120h-3q-40 -42 -95.5 -68t-130.5 -26q-112 0 -164.5 52t-28.5 147q11 46 40.5 85t73 67.5t99 45t118.5 16.5q55 0 102 -15.5t77 -50t39.5 -89t-10.5 -133.5q-21 -83 -64 -156t-103.5 -127
t-137 -85.5t-163.5 -31.5q-32 0 -57 4.5t-39 9.5q-1 13 -3.5 29t-7.5 27zM504 484q17 69 -18 112.5t-110 43.5q-36 0 -70 -13t-61.5 -36.5t-48.5 -57t-31 -75.5q-11 -43 -8 -73.5t18.5 -50t41.5 -29t62 -9.5q43 0 80 16t66.5 42t49.5 60t29 70z" />
    <glyph glyph-name="colon" unicode=":" horiz-adv-x="213" 
d="M80 411q6 23 31 40t54 17t46 -17t11 -40t-31 -40t-54 -17t-46 17t-11 40zM-10 45q6 23 30.5 40t53.5 17t46 -17t11 -40t-31 -40t-54 -17t-45.5 17t-10.5 40z" />
    <glyph glyph-name="semicolon" unicode=";" horiz-adv-x="234" 
d="M93 75q8 13 23.5 25.5t40.5 12.5q15 0 29 -8t10 -26q-3 -12 -11.5 -22t-18.5 -20l-208 -212l-21 7zM146 411q3 12 11 22t20 18t26 12.5t28 4.5q29 0 46 -17t12 -40q-6 -23 -32 -40t-55 -17t-45.5 17t-10.5 40z" />
    <glyph glyph-name="less" unicode="&#x3c;" horiz-adv-x="674" 
d="M8 280l691 236l-13 -52l-626 -211l521 -211l-13 -52l-572 238z" />
    <glyph glyph-name="equal" unicode="=" horiz-adv-x="685" 
d="M692 324h-632l13 52h632zM644 130h-632l13 52h632z" />
    <glyph glyph-name="greater" unicode="&#x3e;" horiz-adv-x="674" 
d="M-12 42l625 211l-521 211l13 52l573 -238l-13 -52l-690 -236z" />
    <glyph glyph-name="question" unicode="?" horiz-adv-x="348" 
d="M100 665q27 12 60 22.5t76 10.5q45 0 77 -10.5t51 -28.5t25 -42t-1 -51q-9 -35 -32.5 -64.5t-54.5 -54.5t-65.5 -47.5t-64.5 -44.5t-52.5 -45t-28.5 -49q-5 -20 6.5 -39.5t43.5 -19.5q15 0 27.5 3.5t17.5 5.5l7 -4q-6 -5 -13 -13t-9 -15q-18 -5 -46 -5q-15 0 -36.5 6
t-39 19t-27.5 34t-3 52q8 33 31 60.5t52.5 51t62.5 44.5t62.5 42.5t51 45t28.5 50.5q5 19 -0.5 34.5t-18 26t-30.5 16t-37 5.5q-34 0 -67 -13t-59 -33zM1 45q6 23 31 40t54 17t46 -17t11 -40t-31 -40t-54 -17t-45.5 17t-11.5 40z" />
    <glyph glyph-name="at" unicode="@" horiz-adv-x="841" 
d="M598 522h65q-48 -93 -75 -147t-40.5 -82.5t-18 -39t-5.5 -17.5q-5 -17 4 -26t28 -9q25 0 57 14.5t62.5 40.5t55.5 61.5t35 76.5q12 49 8.5 90.5t-30.5 71.5t-80.5 47t-139.5 17q-76 0 -145.5 -24.5t-126.5 -67t-97.5 -100t-56.5 -123.5q-15 -60 -2.5 -105t46.5 -75
t87.5 -45t121.5 -15q45 0 88 7.5t81.5 19.5t72.5 26.5t61 28.5l-11 -32q-19 -12 -51 -27t-74.5 -28.5t-94.5 -22.5t-111 -9q-61 0 -120 18.5t-102 57t-62 96.5t1 138q15 59 59 115.5t110.5 100.5t153 71t185.5 27q102 0 164.5 -20.5t95 -54t38.5 -76.5t-5 -87
q-14 -54 -47 -98.5t-76 -76t-90 -49t-87 -17.5q-26 0 -41 5t-21 14.5t-5.5 22.5t4.5 30h-3q-14 -13 -31.5 -26t-37 -23t-41.5 -16.5t-45 -6.5q-66 0 -92.5 33.5t-9.5 100.5q12 49 40 90.5t66 71.5t83 46.5t91 16.5q38 0 62.5 -15t19.5 -49h3zM537 425q4 16 4 30t-6 24
t-19.5 15.5t-36.5 5.5q-36 0 -68 -19.5t-58 -48.5t-44.5 -64t-25.5 -65q-11 -46 -1 -69.5t55 -23.5q36 0 69.5 23.5t60 57.5t45 71t25.5 63z" />
    <glyph glyph-name="A" unicode="A" horiz-adv-x="820" 
d="M516 698q16 -58 34.5 -125t37.5 -136.5t38 -137t36 -126.5t31 -105t24 -73q-16 2 -32 3.5t-33 1.5t-33.5 -1.5t-33.5 -3.5q-3 26 -9.5 58.5t-15.5 68t-18.5 72t-18.5 69.5q-41 1 -81.5 1.5t-82.5 0.5q-38 0 -76 -0.5t-76 -1.5q-60 -78 -110 -149t-79 -119q-11 2 -22 3.5
t-22 1.5t-22.5 -1.5t-24.5 -3.5q144 177 284.5 351t280.5 352h24zM442 563l-201 -254q33 0 68 -1t67 -1q35 0 70 0.5t70 1.5z" />
    <glyph glyph-name="B" unicode="B" horiz-adv-x="632" 
d="M73 427q17 65 29.5 129.5t25.5 128.5q32 -2 65 -3.5t66 -1.5q32 0 66.5 2.5t67.5 2.5q54 0 100 -6.5t78 -23t46 -44.5t4 -70q-19 -74 -87.5 -116t-166.5 -59l-1 -2q55 -2 97 -12.5t68.5 -31t35 -51t-1.5 -73.5q-14 -56 -52.5 -94t-90.5 -62t-111 -34.5t-113 -10.5
q-30 0 -60 2.5t-60 2.5t-60.5 -1.5t-61.5 -3.5q20 66 39 130.5t35 129.5zM231 378q44 0 88.5 7t82.5 23.5t65.5 44t38.5 69.5q10 40 -2.5 65t-38.5 38.5t-61 18t-71 4.5q-32 0 -54.5 -1.5t-41.5 -3.5q-14 -48 -28.5 -95t-25.5 -95l-19 -75h67zM129 239q-12 -51 -22 -101
t-21 -101q23 -2 55.5 -3.5t66.5 -1.5q40 0 79 11t72 32.5t57.5 52.5t34.5 72q10 43 -2.5 70t-44.5 43t-81.5 22t-111.5 6h-56z" />
    <glyph glyph-name="C" unicode="C" horiz-adv-x="803" 
d="M668 39q-14 -8 -40.5 -17.5t-63 -18.5t-80 -15t-90.5 -6q-99 0 -176.5 24t-126.5 70t-66.5 112.5t3.5 151.5t72 151.5t124.5 112.5t165.5 70t196 24q81 0 147 -13.5t112 -32.5q-13 -14 -25 -38l-20 -40l-9 -2q-10 12 -28.5 27t-45 29t-61.5 23.5t-79 9.5q-74 0 -142 -19
t-124.5 -58.5t-98 -100t-62.5 -143.5t-10 -143.5t48 -100t95.5 -58.5t132.5 -19q44 0 85 9t76 21.5t64 27t49 25.5l4 -4z" />
    <glyph glyph-name="D" unicode="D" horiz-adv-x="863" 
d="M132 254q-14 -54 -25 -107t-20 -105q26 -5 70 -7.5t92 -2.5q69 0 140.5 13t135 49t113 98.5t74.5 161.5q22 87 9 143t-52 88.5t-101 45t-139 12.5q-55 0 -105 -3t-89 -7q-16 -48 -31 -100.5t-29 -106.5zM73 426q16 65 29 129.5t26 129.5q46 -2 92.5 -3.5t94.5 -1.5
q47 0 95 2.5t95 2.5q110 0 182.5 -23t111.5 -65.5t47 -104t-11 -138.5q-25 -100 -85.5 -168.5t-138 -111t-162.5 -61t-159 -18.5q-42 0 -82.5 2.5t-83.5 2.5q-42 0 -84 -1.5t-84 -3.5q20 65 39 129.5t35 129.5z" />
    <glyph glyph-name="E" unicode="E" horiz-adv-x="506" 
d="M73 427q17 65 29.5 129.5t25.5 128.5q56 -2 110 -3.5t111 -1.5t112.5 1.5t112.5 3.5q-5 -8 -7.5 -15t-4.5 -15t-3 -15t0 -15q-39 2 -72 4.5t-69 4.5t-80 3t-105 1q-9 -32 -18.5 -61t-18.5 -66q-10 -39 -18.5 -76t-13.5 -56q55 0 99.5 1t81 2.5t67 3t59.5 3.5
q-4 -8 -7 -15.5t-5 -15.5t-2.5 -15t-0.5 -15q-32 3 -74.5 4.5t-85.5 2.5t-81.5 1.5t-60.5 0.5q-3 -9 -5.5 -19.5t-6.5 -26t-10 -39.5l-15 -60q-14 -57 -23 -94t-12 -56q42 0 88.5 0.5t92.5 1.5t87 3.5t72 7.5q-3 -7 -6 -15.5t-5 -15.5t-2.5 -14.5t-1.5 -14.5
q-55 2 -110.5 3.5t-112.5 1.5t-114 -1.5t-114 -3.5q20 66 39 130.5t35 129.5z" />
    <glyph glyph-name="F" unicode="F" horiz-adv-x="505" 
d="M73 426q16 65 29 129.5t26 129.5q56 -2 110 -3.5t111 -1.5t114.5 1.5t126.5 3.5q-8 -15 -12 -30q-3 -15 -3 -30q-33 3 -80 5t-95.5 4t-94 3t-76.5 1q-10 -35 -18.5 -67t-16.5 -64q-8 -35 -15 -64.5t-15 -61.5q81 0 163 2t162 8q-4 -8 -7 -15t-5 -15t-2.5 -15t-0.5 -15
q-31 3 -69.5 4.5t-81 2t-86.5 1t-84 0.5l-21 -85q-16 -65 -29 -129.5t-26 -129.5q-15 2 -29.5 3.5t-29.5 1.5q-14 0 -29.5 -1.5t-32.5 -3.5q20 65 39 129.5t35 129.5z" />
    <glyph glyph-name="G" unicode="G" horiz-adv-x="875" 
d="M848 563q-15 18 -38 36t-54.5 31.5t-71 22t-86.5 8.5q-78 0 -149.5 -19t-130.5 -58.5t-102 -100t-64 -143.5q-18 -74 -8 -132.5t47.5 -99t101.5 -62.5t152 -22q27 0 56 2t56.5 6t52.5 10t43 14q8 30 16.5 60t16.5 61q9 35 15.5 70t11.5 67q12 -2 28 -3.5t31 -1.5
q14 0 28 1t27 4q-7 -23 -21.5 -72.5t-34.5 -130.5q-5 -20 -9.5 -40.5t-9.5 -40.5q-29 -8 -70 -16t-87 -15.5t-91.5 -12t-81.5 -4.5q-112 0 -195.5 23t-134.5 68t-68 112t5 155q21 85 72.5 151.5t126.5 112.5t171.5 70t207.5 24q63 0 111.5 -5.5t84.5 -14t62 -19t46 -19.5
q-13 -14 -26.5 -36t-21.5 -41h-15z" />
    <glyph glyph-name="H" unicode="H" horiz-adv-x="833" 
d="M698 426q16 65 29 129.5t26 129.5q15 -2 29.5 -3.5t29.5 -1.5t31 1.5t33 3.5q-20 -65 -39.5 -129.5t-35.5 -129.5l-43 -172q-16 -65 -29 -129.5t-26 -129.5q-16 2 -30.5 3.5t-29.5 1.5t-30.5 -1.5t-32.5 -3.5q20 65 39.5 129.5t35.5 129.5l22 90q-65 1 -129.5 1.5
t-130.5 0.5t-131 -0.5t-131 -1.5l-22 -90q-16 -65 -29 -129.5t-26 -129.5q-16 2 -30.5 3.5t-29.5 1.5q-14 0 -29.5 -1.5t-32.5 -3.5q20 65 39 129.5t35 129.5l43 172q16 65 29 129.5t26 129.5q15 -2 29.5 -3.5t29.5 -1.5t31 1.5t33 3.5q-20 -65 -39.5 -129.5t-35.5 -129.5
l-9 -35q66 -1 130 -2t130 -1t131 1t131 2z" />
    <glyph glyph-name="I" unicode="I" horiz-adv-x="204" 
d="M72 426q16 65 29 129.5t26 129.5q15 -2 29.5 -3.5t29.5 -1.5t30.5 1.5t32.5 3.5q-20 -65 -39.5 -129.5t-35.5 -129.5l-43 -172q-16 -65 -29 -129.5t-26 -129.5q-15 2 -29.5 3.5t-29.5 1.5q-14 0 -29.5 -1.5t-32.5 -3.5q20 65 39 129.5t35 129.5z" />
    <glyph glyph-name="J" unicode="J" horiz-adv-x="309" 
d="M-94 -116q54 0 90.5 19.5t61.5 54.5t42 84.5t32 108.5l68 275q17 65 30 129.5t25 129.5q15 -2 30 -3.5t30 -1.5t30 1.5t32 3.5q-20 -65 -39 -129.5t-36 -129.5q-11 -45 -22.5 -93t-22 -94.5t-20.5 -89.5t-19 -79q-11 -45 -39.5 -84t-69.5 -68t-92 -45.5t-108 -16.5z" />
    <glyph glyph-name="K" unicode="K" horiz-adv-x="710" 
d="M-43 -5q20 65 39 129.5t35 129.5l43 172q16 65 29 129.5t26 129.5q15 -2 29.5 -3.5t29.5 -1.5t31 1.5t33 3.5q-20 -65 -39.5 -129.5t-35.5 -129.5l-14 -55q-1 -8 5 -8q4 0 8 2t12 7q51 30 108.5 68t116 79t117.5 83.5t113 82.5q25 -5 49 -5q15 0 30.5 1.5t31.5 3.5
q-51 -30 -116.5 -71t-132 -84t-127.5 -84.5t-102 -72.5q78 -91 157.5 -186t161.5 -192q-18 2 -36 3.5t-37 1.5q-17 0 -35 -1.5t-36 -3.5q-33 44 -74 97t-80 102.5t-72 89t-49 55.5q-8 8 -13 8q-7 0 -7 -6l-22 -87q-16 -65 -29 -129.5t-26 -129.5q-16 2 -30.5 3.5t-29.5 1.5
q-14 0 -29.5 -1.5t-32.5 -3.5z" />
    <glyph glyph-name="L" unicode="L" horiz-adv-x="503" 
d="M73 426q16 65 29 129.5t26 129.5q15 -2 29.5 -3.5t29.5 -1.5t30.5 1.5t32.5 3.5q-20 -65 -39.5 -129.5t-35.5 -129.5q-32 -126 -53 -218.5t-39 -165.5h86t84 1.5t86 4t92 7.5q-5 -8 -8 -15t-5 -15q-4 -13 -2 -30q-57 2 -114 3.5t-114 1.5q-58 0 -116 -1.5t-116 -3.5
q20 65 39 129.5t35 129.5z" />
    <glyph glyph-name="M" unicode="M" horiz-adv-x="1055" 
d="M261 698q51 -142 106.5 -276t115.5 -275q17 19 50 55t75 81.5t91.5 99t100.5 108t100 108t91 99.5h17q-10 -96 -20.5 -185.5t-20 -176t-18 -171t-14.5 -170.5q-14 2 -28.5 3.5t-29.5 1.5t-29 -1.5t-30 -3.5q20 135 37.5 261t29.5 255h-2q-118 -126 -232.5 -250.5
t-223.5 -260.5h-11q-42 125 -92.5 252.5t-100.5 258.5h-3q-24 -62 -52.5 -134.5t-55 -143t-48.5 -133.5t-33 -105q-11 2 -20.5 3.5t-20.5 1.5t-22 -1.5t-23 -3.5q37 83 76.5 173.5t78 181.5t74.5 179.5t66 168.5h21z" />
    <glyph glyph-name="N" unicode="N" horiz-adv-x="827" 
d="M663 -18q-54 67 -114.5 136.5t-123.5 139t-127.5 139.5t-127.5 138q-8 -28 -21 -75.5t-33 -127.5q-5 -21 -12.5 -52t-15.5 -65t-16 -69t-14 -65t-10.5 -53t-5.5 -33q-22 5 -42 5q-19 0 -47 -5q5 12 15 39.5t22 65t25.5 81.5l27 88t25 86t19.5 75q23 95 40.5 164.5
t23.5 103.5h20q60 -66 128 -141.5t135 -149t128 -139t106 -111.5q17 67 34 136.5t33 137t30 132t25 122.5q22 -5 41 -5q17 0 42 5q-9 -22 -23.5 -66t-30 -94t-29.5 -98t-21 -77q-6 -25 -14.5 -59.5t-17.5 -71.5t-18 -74.5t-17 -70t-14 -57t-8 -35.5h-17z" />
    <glyph glyph-name="O" unicode="O" horiz-adv-x="999" 
d="M845 340q21 83 9.5 143.5t-48.5 100t-95.5 58.5t-131.5 19t-141 -19t-124 -58.5t-97.5 -100t-62.5 -143.5t-10 -143.5t47.5 -100t95 -58.5t131.5 -19t141.5 19t124.5 58.5t98 100t63 143.5zM31 340q21 85 72 151.5t124.5 112.5t165.5 70t195 24t183.5 -24t131 -70
t68.5 -112.5t-3 -151.5t-72.5 -151.5t-125 -112.5t-166 -70t-195.5 -24t-183 24t-130 70t-68 112.5t3 151.5z" />
    <glyph glyph-name="P" unicode="P" horiz-adv-x="599" 
d="M73 426q16 65 29 129.5t26 129.5q29 -2 59 -3.5t60 -1.5q15 0 36.5 1t44 1.5t43 1.5t33.5 1q19 0 46 -1t56.5 -6t57 -15t47 -29t27 -47.5t-2.5 -70.5q-11 -44 -35.5 -76.5t-57.5 -56t-72 -38.5t-78.5 -23.5t-77 -12t-67.5 -3.5q-29 0 -53 0.5t-48 2.5l-14 -55
q-16 -65 -29 -129.5t-26 -129.5q-15 2 -29.5 3.5t-29.5 1.5q-14 0 -29.5 -1.5t-32.5 -3.5q20 65 39 129.5t35 129.5zM156 351q20 -4 43.5 -6t43.5 -2q39 0 82 7t82 25.5t69 51t43 83.5q10 43 2 70t-31.5 42t-61 20.5t-85.5 5.5h-113z" />
    <glyph glyph-name="Q" unicode="Q" horiz-adv-x="984" 
d="M855 340q21 83 9.5 143.5t-48.5 100t-95.5 58.5t-131.5 19t-141 -19t-124 -58.5t-97.5 -100t-62.5 -143.5t-9.5 -143.5t48 -100t95 -58.5t131.5 -19t141 19t124.5 58.5t98 100t62.5 143.5zM41 340q21 85 72 151.5t124.5 112.5t165.5 70t195 24t183.5 -24t131 -70
t68.5 -112.5t-3 -151.5q-18 -70 -55.5 -127.5t-91.5 -101.5t-122.5 -73.5t-147.5 -43.5q56 -43 115 -86t125 -86q-34 -2 -64 -15t-44 -26q-57 51 -114 101t-123 101q-10 -1 -19 -1h-18q-103 0 -183 24t-130 70t-68 112.5t3 151.5z" />
    <glyph glyph-name="R" unicode="R" horiz-adv-x="697" 
d="M161 369q17 -3 37.5 -4t44.5 -1q39 0 83 7t83.5 24.5t70 47t41.5 74.5q10 39 -2.5 64.5t-37 40.5t-57.5 20.5t-65 5.5q-43 0 -72.5 -1.5t-49.5 -3.5q-17 -55 -32.5 -109t-29.5 -108zM73 426q16 65 29 129.5t26 129.5q35 -2 70 -3.5t70 -1.5q36 0 72.5 2.5t72.5 2.5
q53 0 98 -8t76 -26.5t44 -48.5t2 -75q-12 -48 -47 -82.5t-80 -57.5t-92.5 -35t-83.5 -16q11 -15 30.5 -42t43.5 -59.5t50 -67.5t51 -68t46 -60.5t35 -43.5q-18 2 -36 3.5t-37 1.5q-18 0 -37 -1.5t-37 -3.5q-13 23 -40 65.5t-61 91t-71 95.5t-69 80h-48l-18 -73
q-16 -65 -29 -129.5t-26 -129.5q-15 2 -29.5 3.5t-29.5 1.5q-14 0 -29.5 -1.5t-32.5 -3.5q20 65 39 129.5t35 129.5z" />
    <glyph glyph-name="S" unicode="S" horiz-adv-x="578" 
d="M18 128q6 -18 18.5 -36.5t33 -33.5t50 -24.5t70.5 -9.5q42 0 78 11.5t64 31t46.5 46t26.5 56.5q9 34 -2.5 57.5t-35 40t-55.5 29t-66 24.5t-66 26.5t-54 36t-31.5 52t1.5 74.5q10 42 37.5 76.5t69 59.5t95.5 39t116 14q60 0 100.5 -11.5t72.5 -35.5q-16 -17 -28 -36
t-27 -48h-15q-3 14 -9.5 30.5t-20.5 30.5t-36.5 23.5t-57.5 9.5t-67 -9t-58 -25.5t-43.5 -39.5t-24.5 -50q-9 -35 2 -59t34.5 -40.5t56 -28.5t66 -24t65.5 -25.5t55 -34t32.5 -49t-0.5 -69.5q-11 -46 -42 -87t-78 -71.5t-108.5 -48.5t-133.5 -18q-39 0 -68.5 5t-52.5 13
t-40 18t-30 21q9 12 15 22t11 20t9.5 21.5t9.5 25.5h15z" />
    <glyph glyph-name="T" unicode="T" horiz-adv-x="665" 
d="M303 426q13 52 24.5 103.5t23.5 103.5q-32 0 -68.5 -0.5t-72.5 -2t-69.5 -3.5t-60.5 -5q5 8 9 16t6 16q3 13 1 31q81 -2 160.5 -3.5t160.5 -1.5t162 1.5t162 3.5q-5 -8 -8.5 -16t-5.5 -16t-2.5 -15.5t0.5 -15.5q-26 3 -58 5t-67 3.5t-71 2t-68 0.5q-16 -52 -29.5 -103.5
t-26.5 -103.5l-43 -172q-16 -65 -29 -129.5t-26 -129.5q-15 2 -29.5 3.5t-29.5 1.5t-30.5 -1.5t-32.5 -3.5q20 65 39.5 129.5t35.5 129.5z" />
    <glyph glyph-name="U" unicode="U" horiz-adv-x="812" 
d="M701 360q36 142 54 219t20 106q12 -2 24.5 -3.5t25.5 -1.5q19 0 39 5q-12 -35 -28 -83.5t-33 -104t-33.5 -114t-31.5 -113.5q-17 -66 -54.5 -119.5t-92.5 -91t-126 -57.5t-155 -20q-186 0 -254 70t-33 216q12 47 24.5 83.5t22.5 74.5q20 83 34 149t22 110q15 -2 32 -3.5
t32 -1.5q14 0 28.5 1.5t26.5 3.5q-8 -22 -19.5 -57.5t-25 -80.5t-27.5 -97.5t-28 -107.5q-8 -34 -16 -70.5t-9 -71t8 -66t34.5 -55t69.5 -37t114 -13.5q68 0 119 16t87.5 42t61.5 60t42 71t27 73.5t18 68.5z" />
    <glyph glyph-name="V" unicode="V" horiz-adv-x="822" 
d="M278 -5q-12 62 -32.5 145t-44.5 175.5t-49.5 188t-49.5 181.5q15 -2 31 -3.5t32 -1.5t33 1.5t34 3.5q11 -66 26 -138.5t33 -147.5t38 -152t40 -153q33 41 72 91t79.5 105t81.5 111t78 108.5t68 97.5t53 78q23 -5 44 -5q11 0 23.5 1.5t24.5 3.5q-142 -174 -274 -345
t-259 -345q-10 2 -19 3.5t-20 1.5q-23 0 -43 -5z" />
    <glyph glyph-name="W" unicode="W" horiz-adv-x="1272" 
d="M211 -5q-3 27 -10 81.5t-16 122.5t-19 142.5t-20 142t-18.5 121t-13.5 80.5q15 -2 29.5 -3.5t31.5 -1.5q16 0 31.5 1.5t32.5 3.5q5 -76 11 -142.5t14 -135t18.5 -144t24.5 -170.5h3q18 27 49.5 74.5t70 105t79.5 119.5t78 118.5t66 102.5t44 72q20 -5 39 -5
q11 0 21.5 1.5t21.5 3.5q3 -27 9.5 -74t15 -104t18.5 -119.5t19 -119t16.5 -103t12.5 -72.5h2q15 22 45 68.5t67.5 105t78.5 123t77.5 123t64 104.5t39.5 68q11 -2 21 -3.5t21 -1.5t22.5 1.5t23.5 3.5q-14 -18 -38.5 -52.5t-56 -80t-68 -99t-74 -109t-74 -109.5t-68 -100.5
t-56 -83t-37.5 -56.5q-22 5 -41 5t-44 -5q-20 141 -41 282.5t-46 290.5h-3q-16 -23 -42 -61.5t-58.5 -86.5t-69.5 -103t-74.5 -111t-74 -110t-67.5 -101q-11 2 -21 3.5t-21 1.5t-22.5 -1.5t-23.5 -3.5z" />
    <glyph glyph-name="X" unicode="X" horiz-adv-x="734" 
d="M400 411q38 34 72.5 66.5t68.5 66t67.5 68t69.5 73.5q23 -5 44 -5q11 0 24 1.5t25 3.5q-91 -79 -179 -155t-172 -157q47 -96 95.5 -190t99.5 -188q-17 2 -33.5 3.5t-34.5 1.5t-35.5 -1.5t-36.5 -3.5q-30 76 -61 151.5t-75 151.5q-83 -76 -157.5 -151.5t-145.5 -151.5
q-23 5 -43 5q-11 0 -23.5 -1.5t-24.5 -3.5q96 85 189 171t185 173q-44 87 -87.5 173t-90.5 173q16 -2 32 -3.5t33 -1.5t34.5 1.5t35.5 3.5q24 -67 55 -132.5t69 -141.5z" />
    <glyph glyph-name="Y" unicode="Y" horiz-adv-x="737" 
d="M302 279q-8 17 -23.5 49.5t-35 72.5t-41 83.5t-41 82.5t-36 70.5t-25.5 47.5q17 -2 33.5 -3.5t33.5 -1.5t35 1.5t36 3.5q32 -86 70 -171t80 -175q38 36 80 79t84 88t82.5 90.5t76.5 88.5q12 -2 23.5 -3.5t23.5 -1.5q23 0 51 5q-78 -73 -140 -132t-111 -107t-86 -86.5
t-65 -69.5q-9 -37 -18.5 -79t-18.5 -82t-16 -75.5t-11 -58.5q-15 2 -29.5 3.5t-29.5 1.5t-30.5 -1.5t-32.5 -3.5q21 54 41 128.5t40 155.5z" />
    <glyph glyph-name="Z" unicode="Z" horiz-adv-x="750" 
d="M-61 12q63 54 133 115.5t140.5 124.5t137.5 123.5t123.5 111.5t98.5 90t63 59q-22 1 -44.5 1.5t-42.5 0.5q-45 0 -100.5 -1t-111 -3.5t-107 -5t-87.5 -5.5q9 16 14 31q2 8 2 15.5v15.5q60 -4 192 -4.5t327 -0.5q34 0 68.5 1.5t67.5 3.5l-5 -18q-22 -16 -60 -47.5
t-86 -72.5t-103 -89t-110.5 -98t-109.5 -98.5t-99.5 -90.5t-80.5 -75t-53 -51q29 -2 54 -2.5t49 -0.5q48 0 111 1.5t126.5 4t120 6t90.5 6.5q-5 -9 -9.5 -17t-6.5 -16q-3 -14 -1 -32q-45 1 -82.5 2t-72.5 1.5t-68 1t-69 0.5q-49 0 -110.5 -0.5t-121 -1t-109 -1.5t-73.5 -2z
" />
    <glyph glyph-name="bracketleft" unicode="[" horiz-adv-x="248" 
d="M80 407q17 70 32.5 138.5t29.5 137.5q25 -3 62 -3q16 0 35 0.5t38.5 1t37 1t30.5 0.5q-5 -8 -6 -14q-1 -4 -1 -7.5t-1 -7.5q-26 1 -54.5 1.5t-57.5 0.5q-20 -62 -38 -124t-34 -125l-63 -252q-16 -63 -29 -125t-23 -124q29 0 58 0.5t56 1.5q-5 -8 -6 -15q-1 -4 -1 -7
t-1 -7q-12 0 -29.5 0.5t-36.5 1l-38 1t-35 0.5q-35 0 -63 -3q42 136 75 276z" />
    <glyph glyph-name="backslash" unicode="\" horiz-adv-x="416" 
d="M93 703q17 -5 31 -5q9 0 17 1.5t17 3.5l164 -726q-8 2 -15.5 3.5t-16.5 1.5q-8 0 -16 -1.5t-17 -3.5z" />
    <glyph glyph-name="bracketright" unicode="]" horiz-adv-x="249" 
d="M157 407q16 63 29 125t23 124q-29 0 -58 -0.5t-56 -1.5q4 7 6 15q1 4 1 7t1 7q12 0 29.5 -0.5t36.5 -1l38 -1t35 -0.5q35 0 64 3q-21 -69 -40 -137.5t-36 -138.5l-63 -252q-17 -70 -32.5 -138.5t-29.5 -137.5q-26 3 -62 3q-32 0 -73 -1t-67 -2q5 8 6 14q1 4 1 7.5t1 7.5
q26 -1 54.5 -1.5t56.5 -0.5q20 62 38 124t34 125z" />
    <glyph glyph-name="asciicircum" unicode="^" horiz-adv-x="685" 
d="M367 656h65l179 -453h-65l-160 406l-362 -406h-64z" />
    <glyph glyph-name="underscore" unicode="_" horiz-adv-x="712" 
d="M36 -130l13 50h625l-13 -50h-625z" />
    <glyph glyph-name="grave" unicode="`" horiz-adv-x="298" 
d="M57 653q-6 4 -13 8.5t-12 10t-7.5 12.5t-0.5 16q4 16 20.5 24t28.5 8q14 0 27 -6.5t23 -17.5l147 -149h-52z" />
    <glyph glyph-name="a" unicode="a" horiz-adv-x="582" 
d="M131 425q65 34 115.5 46t100.5 12q45 0 79.5 -10.5t56.5 -30t30 -47t0 -60.5q-14 -57 -30.5 -113.5t-32.5 -119.5q-3 -12 -6 -25.5t-1 -24t10.5 -17.5t26.5 -7q5 0 12 0.5t15 3.5l-5 -22q-15 -5 -37.5 -9.5t-46.5 -4.5q-41 0 -57 18t-13 44q-54 -36 -103 -54.5
t-113 -18.5q-31 0 -58.5 8.5t-46.5 24.5t-27.5 38.5t-1.5 51.5q14 60 69.5 93t139.5 44q70 9 110 15.5t60 13.5t26 16.5t10 24.5q6 25 4 48t-14 40t-36 27.5t-61 10.5q-50 0 -97 -18t-77 -50h-14zM396 247q-35 -9 -81 -14t-89.5 -16t-77.5 -32.5t-44 -62.5
q-6 -24 -1.5 -41.5t16.5 -29.5t30 -18t39 -6q48 0 92 21t73 49z" />
    <glyph glyph-name="b" unicode="b" horiz-adv-x="621" 
d="M582 248q-15 -57 -48.5 -105.5t-80.5 -83.5t-103.5 -54.5t-117.5 -19.5q-59 0 -102 22t-61 51q-26 -14 -50 -28.5t-47 -29.5h-22q8 23 18.5 57.5t21 73t20.5 78t19 74.5l45 181q9 34 18.5 74t18 79t15.5 74.5t10 60.5q14 -2 27.5 -3.5t27.5 -1.5t29 1.5t33 3.5
q-8 -20 -21 -63.5t-28 -97t-30.5 -110t-28.5 -102.5h3q56 53 114 78.5t124 25.5q65 0 108 -19.5t66 -51.5t28 -75t-6 -89zM472 251q12 46 6.5 81.5t-23 59.5t-44.5 36.5t-60 12.5q-40 0 -78 -11.5t-71 -38t-59 -69t-41 -104.5q-25 -100 8.5 -150.5t123.5 -50.5q39 0 76 16.5
t68.5 47.5t56 74t37.5 96z" />
    <glyph glyph-name="c" unicode="c" horiz-adv-x="583" 
d="M29 234q16 65 55 112t91.5 77.5t113.5 45t121 14.5q69 0 119.5 -13.5t70.5 -30.5q-12 -15 -23.5 -31.5t-21.5 -34.5h-10q-5 13 -16.5 26.5t-29 25t-41 19t-53.5 7.5q-57 0 -101 -16.5t-77 -45.5t-55 -68.5t-33 -85.5q-26 -103 16.5 -155.5t147.5 -52.5q25 0 52.5 5.5
t55 15t53 22.5t45.5 28l5 -3q-6 -12 -10.5 -24.5t-9.5 -24.5q-22 -12 -49 -23t-56 -19.5t-59.5 -13.5t-59.5 -5q-54 0 -105 13.5t-86.5 43.5t-51 77.5t1.5 114.5z" />
    <glyph glyph-name="d" unicode="d" horiz-adv-x="620" 
d="M407 93h-2q-14 -16 -35.5 -34.5t-51.5 -35t-67.5 -27.5t-83.5 -11q-48 0 -90 14t-70 44t-38 76.5t6 111.5q16 64 51.5 111t81 78.5t97.5 47t101 15.5q138 0 167 -100h3q12 47 25 98.5t24.5 101t21.5 93.5t16 76q15 -2 28 -3.5t27 -1.5q13 0 27 1.5t30 3.5
q-12 -32 -30 -92.5t-38 -133.5t-40 -150t-36 -141q-17 -68 -29.5 -124t-25.5 -116q-14 2 -25.5 3.5t-22.5 1.5t-23 -1.5t-25 -3.5zM83 225q-15 -60 -9.5 -99t24.5 -62.5t47.5 -32.5t58.5 -9q49 0 89 19.5t70.5 51t51.5 71t32 80.5q23 95 -10.5 146t-123.5 51
q-45 0 -82.5 -16.5t-66.5 -46t-49.5 -69t-31.5 -84.5z" />
    <glyph glyph-name="e" unicode="e" horiz-adv-x="619" 
d="M33 220q15 61 46 109.5t76.5 82.5t103.5 52.5t127 18.5q66 0 110 -16.5t69 -44t31.5 -64.5t-3.5 -79l-12 -39q-68 1 -134 2t-133 1q-42 0 -82 -1t-82 -2q-6 -16 -9 -28q-10 -39 -4 -73t27.5 -58.5t58.5 -39t89 -14.5q25 0 52.5 5.5t54.5 15t52.5 22.5t45.5 28l5 -3
l-19 -49q-44 -24 -105 -42.5t-120 -18.5q-68 0 -119 18t-83.5 49.5t-43.5 74.5t1 93zM380 451q-46 0 -82.5 -17t-64 -42.5t-45.5 -56t-27 -57.5q38 -1 80.5 -2t82.5 -1q42 0 84 1t82 2q7 27 9 57t-8.5 56t-36 43t-74.5 17z" />
    <glyph glyph-name="f" unicode="f" horiz-adv-x="372" 
d="M422 669q-27 15 -65 15q-28 0 -49.5 -8.5t-37.5 -22t-26 -32t-15 -37.5q-5 -18 -8.5 -52t-6.5 -65q32 0 65 0.5t65 0.5l-4 -10t-3 -10q-3 -11 -3 -20q-32 1 -64.5 2t-64.5 1q-27 -109 -53.5 -217t-49.5 -219q-12 2 -25.5 3.5t-26.5 1.5q-14 0 -27.5 -1.5t-27.5 -3.5
q35 111 63 218.5t55 217.5q-23 0 -45 -1t-45 -2q2 5 3.5 10t3.5 10q1 5 1.5 10t1.5 10q23 0 45 -0.5t44 -0.5q7 29 23.5 63t39 67t50 62.5t57.5 49.5q27 18 65 32t73 14q6 0 12.5 -0.5t11.5 -2.5q-5 -20 -12 -40t-12 -40z" />
    <glyph glyph-name="g" unicode="g" horiz-adv-x="619" 
d="M105 320q10 42 37 72.5t64.5 50.5t83 30t94.5 10q23 0 45 -1t55 -3q29 -2 51.5 -3t36.5 -1q74 0 102 5q-2 -5 -4 -10.5t-3 -10.5q-2 -5 -2.5 -10.5t-1.5 -10.5q-35 2 -69 4.5t-68 3.5l-2 -2q34 -17 49 -52.5t5 -73.5q-9 -38 -33 -67.5t-59.5 -50t-81 -31.5t-98.5 -11
q-17 0 -33.5 1t-34.5 1q-23 0 -45.5 -13t-27.5 -33q-6 -26 6.5 -38t54.5 -13q35 -1 68.5 -1.5t68.5 -1.5q57 -1 95 -11t59.5 -27.5t28 -40t-0.5 -49.5q-9 -35 -34.5 -71t-69 -65t-104 -48t-139.5 -19q-60 0 -106 10t-75 28.5t-40.5 45.5t-3.5 60q7 27 24 48.5t39.5 38
t49.5 28t53 17.5l1 2q-36 9 -51.5 30t-7.5 50q4 16 15.5 30.5t27 25.5t33 18t33.5 9l1 2q-52 20 -76 56.5t-10 91.5zM483 325q16 62 -13.5 95.5t-91.5 33.5q-68 0 -114 -36.5t-61 -97.5q-16 -62 9.5 -99t97.5 -37q36 0 65 11.5t50.5 31t36 45t21.5 53.5zM441 -111
q15 59 -23 85t-138 26q-92 0 -150.5 -26t-74.5 -90q-9 -34 -0.5 -58t29.5 -39t53 -22t71 -7q38 0 76 8t70 24t55.5 40.5t31.5 58.5z" />
    <glyph glyph-name="h" unicode="h" horiz-adv-x="560" 
d="M74 464q9 34 18.5 74t18 79t15.5 74.5t10 60.5q14 -2 28 -3.5t28 -1.5t28 1.5t29 3.5q-9 -25 -20 -60t-21.5 -74t-21 -77.5t-18.5 -71.5l-19 -76h2q47 43 101 66.5t122 23.5q35 0 68.5 -8t57.5 -27.5t34 -53t-3 -85.5q-11 -43 -25 -88.5t-27 -96.5q-8 -33 -15.5 -65
t-13.5 -64q-14 2 -25.5 3.5t-25.5 1.5q-13 0 -26 -1.5t-27 -3.5q16 55 33.5 110t31.5 113l15 61q18 74 -9 113t-89 39q-88 0 -139 -43t-71 -121q-7 -29 -16 -65.5t-17 -74t-15 -72.5t-10 -60q-14 2 -27 3.5t-27 1.5t-28.5 -1.5t-29.5 -3.5q9 25 20 60.5t21.5 74.5t20.5 78.5
t19 74.5z" />
    <glyph glyph-name="i" unicode="i" horiz-adv-x="196" 
d="M36 286q11 45 21 94.5t15 92.5q28 -5 55 -5q14 0 28 1.5t29 3.5q-16 -43 -30.5 -92.5t-25.5 -94.5l-26 -104q-11 -45 -21.5 -94.5t-15.5 -92.5q-14 2 -27.5 3.5t-27.5 1.5t-28 -1.5t-28 -3.5q16 43 30.5 92.5t25.5 94.5zM108 647q5 21 27.5 36t48.5 15t41.5 -15t10.5 -36
t-28 -36t-49 -15t-41 15t-10 36z" />
    <glyph glyph-name="j" unicode="j" horiz-adv-x="270" 
d="M141 246q7 30 14.5 61t13.5 61t11 57t7 48q14 -2 27.5 -3.5t27.5 -1.5t29 1.5t29 3.5q-17 -43 -31 -92.5t-25 -94.5l-26 -104q-14 -58 -26 -115t-27 -115q-5 -21 -11 -40.5t-14 -37.5t-20.5 -35t-30.5 -34q-36 -32 -88 -53t-112 -23v34q5 -1 9 -1.5t11 -0.5q36 0 62 17
t44.5 44t31 60.5t20.5 66.5zM224 647q5 21 27 36t48 15t41.5 -15t10.5 -36t-28 -36t-49 -15t-40.5 15t-9.5 36z" />
    <glyph glyph-name="k" unicode="k" horiz-adv-x="565" 
d="M74 464q9 34 18 74t17.5 79t15.5 74.5t11 60.5q14 -2 27.5 -3.5t27.5 -1.5t28.5 1.5t28.5 3.5q-9 -25 -19.5 -60.5t-21.5 -74.5t-21.5 -79t-19.5 -74l-45 -182q-5 -19 10 -19q10 0 24 7t31 16q13 7 44.5 27t71 46.5t82.5 56.5t78 57q11 -2 22 -3.5t25 -1.5q13 0 27 1.5
t36 3.5q-91 -51 -175 -100.5t-162 -100.5q54 -69 113 -138.5t119 -138.5q-21 2 -37 3.5t-32 1.5q-17 0 -33 -1.5t-33 -3.5q-20 28 -46 62t-52.5 67t-51 61.5t-41.5 47.5q-3 4 -7.5 7t-9.5 3q-13 0 -16 -12l-15 -60q-11 -45 -19.5 -88t-14.5 -88q-28 5 -54 5q-14 0 -28 -1.5
t-29 -3.5q9 25 19.5 60.5t21.5 74.5t21 78.5t19 74.5z" />
    <glyph glyph-name="l" unicode="l" horiz-adv-x="191" 
d="M70 464q9 34 18 74t17.5 79t15.5 74.5t11 60.5q28 -5 55 -5q14 0 28 1.5t29 3.5q-9 -25 -19.5 -60.5t-21.5 -74.5t-21.5 -79t-19.5 -74l-45 -181q-9 -35 -18 -74.5t-17.5 -78.5t-15.5 -74.5t-11 -60.5q-14 2 -27 3.5t-27 1.5t-28.5 -1.5t-28.5 -3.5q9 25 19.5 60.5
t21.5 74.5t21 78.5t19 74.5z" />
    <glyph glyph-name="m" unicode="m" horiz-adv-x="951" 
d="M63 286q11 45 21.5 94.5t15.5 92.5q14 -2 27.5 -3.5t27.5 -1.5q10 0 23.5 1.5t27.5 3.5q-7 -20 -12.5 -40t-10.5 -40h2q89 90 208 90q32 0 60 -7.5t49.5 -20.5t34 -31.5t14.5 -39.5h2q42 48 100.5 73.5t124.5 25.5q41 0 74 -9t54 -28t28 -49t-3 -72q-5 -17 -11 -37
t-14 -46.5t-17.5 -60t-20.5 -77.5q-7 -27 -12.5 -52t-10.5 -57q-14 2 -26.5 3.5t-26.5 1.5t-28 -1.5t-28 -3.5q11 28 34.5 104.5t56.5 211.5q6 25 5 47t-12.5 38t-34.5 25.5t-60 9.5q-45 0 -79.5 -14t-56.5 -33q-13 -11 -21.5 -22t-17.5 -33.5t-20 -63t-29 -111.5
q-5 -22 -9 -40.5t-8 -37.5t-7.5 -38.5t-7.5 -42.5q-14 2 -27.5 3.5t-26.5 1.5q-14 0 -28 -1.5t-28 -3.5q19 57 36 114.5t31 112.5q12 46 18 73t8 43t-0.5 25.5t-7.5 21.5q-8 19 -34.5 32.5t-57.5 13.5q-81 0 -131 -43t-70 -121l-21 -85q-11 -45 -21 -94.5t-15 -92.5
q-14 2 -28 3.5t-28 1.5t-28 -1.5t-28 -3.5q16 43 30 92.5t25 94.5z" />
    <glyph glyph-name="n" unicode="n" horiz-adv-x="585" 
d="M457 279q19 74 -8.5 113t-89.5 39q-88 0 -139 -43t-71 -121l-21 -85q-11 -45 -21 -94.5t-15 -92.5q-14 2 -27.5 3.5t-27.5 1.5t-28.5 -1.5t-28.5 -3.5q16 43 30 92.5t25 94.5l26 104q11 45 21.5 94.5t15.5 92.5q14 -2 28 -3.5t28 -1.5q9 0 22.5 1.5t28.5 3.5
q-8 -20 -13.5 -40t-10.5 -40h2q46 43 100 66.5t122 23.5q35 0 68.5 -8t57.5 -27.5t34 -53t-3 -85.5q-11 -43 -24.5 -88.5t-26.5 -96.5q-8 -33 -16 -65t-13 -64q-14 2 -26 3.5t-26 1.5q-13 0 -25.5 -1.5t-26.5 -3.5q16 55 33 110t31 113l15 61v0z" />
    <glyph glyph-name="o" unicode="o" horiz-adv-x="679" 
d="M35 234q17 68 56 115.5t89.5 77t108.5 43t112 13.5t105 -13.5t87 -43t51.5 -77t-1.5 -115.5t-56 -115.5t-90 -77t-109 -43t-112 -13.5t-105 13.5t-87 43t-51 77t2 115.5zM145 234q-11 -42 -11 -81t14.5 -69.5t47 -48.5t88.5 -18q55 0 97 18t72 48.5t49.5 69.5t30.5 81
q10 42 10 81t-15 69.5t-47.5 48.5t-87.5 18q-56 0 -97.5 -18t-71.5 -48.5t-49.5 -69.5t-29.5 -81z" />
    <glyph glyph-name="p" unicode="p" horiz-adv-x="622" 
d="M534 238q15 60 9.5 99t-24.5 62.5t-47.5 32.5t-58.5 9q-51 0 -90.5 -17t-69 -45.5t-49.5 -67t-31 -81.5q-26 -103 7.5 -155.5t123.5 -52.5q45 0 82.5 16.5t66.5 46t49.5 69t31.5 84.5zM69 182q9 34 18 74t18 79.5t16 75.5t11 62q14 -2 27.5 -3.5t27.5 -1.5t28.5 1.5
t28.5 3.5q-11 -26 -20 -50t-15 -48h3q13 16 34.5 34.5t51 35t67.5 27.5t85 11q48 0 90.5 -14.5t71 -44.5t38.5 -76.5t-6 -110.5t-51.5 -111t-81.5 -78.5t-98.5 -47t-101.5 -15.5q-69 0 -111.5 25t-59.5 73h-3l-16 -63q-9 -35 -18 -74.5t-17.5 -78.5t-15.5 -74.5t-11 -60.5
q-28 5 -55 5q-14 0 -27.5 -1.5t-28.5 -3.5q9 25 19.5 60.5t21.5 74.5t21 78.5t19 74.5z" />
    <glyph glyph-name="q" unicode="q" horiz-adv-x="621" 
d="M512 244q9 38 8 73.5t-16 63t-45 44t-78 16.5q-31 0 -65 -9.5t-66 -34t-59.5 -66.5t-43.5 -108q-11 -43 -9.5 -79.5t16 -63.5t41.5 -42.5t69 -15.5q48 0 88.5 19t72.5 50.5t54 71.5t33 81zM548 20q-9 -35 -18 -74.5t-17.5 -78.5t-15.5 -74.5t-11 -60.5q-14 2 -27.5 3.5
t-27.5 1.5t-28.5 -1.5t-28.5 -3.5q9 25 19.5 60.5t21.5 74.5t21.5 78.5t19.5 74.5l19 75h-3q-50 -57 -110 -83.5t-122 -26.5q-46 0 -89.5 12.5t-73.5 41.5t-42.5 76t4.5 116q16 66 52 113.5t81.5 78t95.5 45.5t96 15q85 0 126 -31t51 -77h3q6 24 9.5 48t5.5 50q28 -5 55 -5
q14 0 28 1.5t29 3.5q-9 -26 -20 -62t-22 -75.5t-21.5 -79.5t-19.5 -74z" />
    <glyph glyph-name="r" unicode="r" horiz-adv-x="351" 
d="M364 391q-5 6 -21.5 11t-35.5 5q-30 0 -56.5 -11t-47.5 -29.5t-36 -44t-22 -54.5q-17 -65 -28 -109.5t-18 -75t-11 -51t-6 -37.5q-12 2 -24.5 3.5t-24.5 1.5q-13 0 -25.5 -1.5t-26.5 -3.5q13 37 27.5 95.5t35.5 143.5l8 32q10 39 22 90.5t25 116.5q28 -5 51 -5t51 5
q-14 -36 -19.5 -57t-10.5 -40l1 -1q50 54 99.5 81t92.5 27q11 0 19.5 -1t19.5 -5q-9 -12 -16 -36.5t-12 -44.5z" />
    <glyph glyph-name="s" unicode="s" horiz-adv-x="445" 
d="M34 91q4 -10 14 -22t26 -22.5t37 -17.5t47 -7q24 0 47 6t43 17t34 28t20 39q8 31 -10 47.5t-48 27t-66 18.5t-65.5 22.5t-45.5 38.5t-5 66q8 33 29 60.5t52.5 47.5t72.5 31.5t91 11.5q23 0 41 -3t34 -7.5t29.5 -9t27.5 -8.5q-7 -7 -14.5 -17t-14.5 -20t-12 -19t-7 -15
h-15q-4 24 -28.5 43t-66.5 19q-18 0 -38 -5t-38 -15t-31.5 -26t-19.5 -38q-8 -32 9.5 -49.5t48 -27.5t67 -18t66 -21t45 -37t5.5 -66q-7 -29 -30 -57t-58 -50.5t-80 -36.5t-97 -14q-58 0 -93.5 10.5t-58.5 22.5q11 13 24 35.5t17 37.5h15z" />
    <glyph glyph-name="t" unicode="t" horiz-adv-x="350" 
d="M273 607h6q-13 -38 -24.5 -74.5t-22.5 -73.5q13 0 51 0.5t82 2.5q-5 -11 -6 -21q-2 -5 -3 -10.5t-2 -10.5q-32 2 -70 2h-61q-2 -4 -10.5 -32t-19.5 -66.5t-22.5 -80.5t-19.5 -75q-7 -28 -12 -55t-0.5 -48.5t21.5 -34.5t54 -13q11 0 28 2t31 5l-6 -24q-23 -6 -50 -10.5
t-51 -4.5q-78 0 -107 33t-15 92q7 27 16 58.5t19.5 69t23.5 83t27 101.5h-39.5t-46.5 -2q6 13 9 23q2 5 2 10v10q57 -3 82 -3q5 20 11 50t12 62z" />
    <glyph glyph-name="u" unicode="u" horiz-adv-x="585" 
d="M19 149q13 53 24 90.5t21 74.5q8 35 17.5 76t19.5 83q28 -5 51 -5q24 0 52 5q-20 -59 -41.5 -131.5t-39.5 -146.5q-13 -52 -8.5 -79.5t17.5 -41.5q14 -16 37.5 -26.5t60.5 -10.5q53 0 92.5 18.5t62.5 45.5q13 16 21 28.5t15.5 32.5t16.5 54t24 93q11 41 21 84.5t18 79.5
q13 -2 25 -3.5t26 -1.5t27 1.5t25 3.5q-25 -78 -44 -151t-39 -153q-11 -45 -21 -88.5t-18 -85.5q-12 2 -24 3.5t-24 1.5q-22 0 -50 -5q8 22 14 43.5t11 42.5h-3q-44 -47 -101.5 -71.5t-117.5 -24.5q-98 0 -142.5 43t-25.5 121z" />
    <glyph glyph-name="v" unicode="v" horiz-adv-x="604" 
d="M198 -5q-27 120 -56 238.5t-67 239.5q15 -2 30 -3.5t31 -1.5q14 0 27.5 1.5t28.5 3.5q14 -98 37 -194.5t52 -195.5q36 41 72.5 88.5t73.5 98.5t73 102.5t70 100.5q18 -5 37 -5q11 0 20.5 1.5t19.5 3.5q-97 -121 -191.5 -239.5t-178.5 -238.5q-20 5 -38 5
q-11 0 -20.5 -1.5t-20.5 -3.5z" />
    <glyph glyph-name="w" unicode="w" horiz-adv-x="999" 
d="M194 -5q-5 39 -15 96.5t-23.5 122.5t-29.5 132t-32 127q14 -2 28.5 -3.5t29.5 -1.5q14 0 29 1.5t29 3.5q9 -94 25 -188.5t40 -194.5q22 28 54.5 74t68.5 99t72 108t65 102q20 -5 37 -5q9 0 17 1.5t19 3.5q8 -95 26 -189t38 -194q24 32 57 78.5t70 98t75 105.5t70 101
q10 -2 19 -3.5t20 -1.5q17 0 39 5q-101 -121 -192.5 -239.5t-175.5 -238.5q-8 2 -15.5 3.5t-16.5 1.5q-8 0 -17 -1.5t-16 -3.5q-10 91 -26 182t-42 189q-23 -30 -55.5 -74.5t-67.5 -95.5t-70.5 -103.5t-63.5 -97.5q-8 2 -17 3.5t-17 1.5t-18 -1.5t-18 -3.5z" />
    <glyph glyph-name="x" unicode="x" horiz-adv-x="629" 
d="M338 286q115 94 220 187q11 -2 21 -3.5t21 -1.5t21.5 1.5t22.5 3.5q-74 -55 -144.5 -108.5t-139.5 -107.5q82 -133 176 -262q-15 2 -30.5 3.5t-32.5 1.5q-16 0 -31.5 -1.5t-32.5 -3.5q-29 51 -60 102t-63 102q-59 -51 -116 -102t-113 -102q-20 5 -40 5q-19 0 -42 -5
q147 117 288 234q-41 61 -82.5 121.5t-86.5 122.5q16 -2 32 -3.5t33 -1.5t33.5 1.5t33.5 3.5q24 -48 52.5 -94t59.5 -93z" />
    <glyph glyph-name="y" unicode="y" horiz-adv-x="601" 
d="M248 -6q-7 30 -18.5 73t-24.5 90.5t-26.5 97t-25.5 93t-21.5 76.5t-14.5 49q14 -2 28 -3.5t28 -1.5t29 1.5t30 3.5q15 -95 39 -189.5t51 -194.5q37 43 74 90.5t73 97t70.5 99.5t64.5 97q22 -5 41 -5q17 0 42 5q-12 -14 -40 -47.5t-66.5 -80t-84.5 -103t-94 -116.5
t-95.5 -119.5t-88 -112t-72 -95t-47.5 -67.5q-20 5 -41 5q-19 0 -44 -5q67 66 125 131t109 131z" />
    <glyph glyph-name="z" unicode="z" horiz-adv-x="594" 
d="M-32 9q67 52 138.5 111t139 116t127 108t102.5 87q-6 0 -26.5 -0.5t-50.5 -1.5t-66 -2.5t-72 -3.5t-69.5 -3.5t-57.5 -3.5q5 11 10 28q2 7 2.5 14t1.5 15q38 -3 116.5 -4t194.5 -1h48.5t40.5 1t37.5 1.5t38.5 2.5l-4 -15q-42 -35 -90 -74.5t-97 -80.5t-97 -81t-90 -75.5
t-75.5 -64t-53.5 -45.5q51 0 94.5 0.5t88 2t95.5 4t118 7.5q-4 -7 -7 -14t-5 -14q-3 -15 -2 -28q-78 2 -156 3.5t-156 1.5q-56 0 -111 -1.5t-110 -3.5z" />
    <glyph glyph-name="braceleft" unicode="{" horiz-adv-x="296" 
d="M13 302q45 0 74 26t40 68l43 170q16 67 51 92t88 25h72l-9 -37h-40q-32 0 -52.5 -15t-32.5 -65l-41 -164q-13 -50 -48.5 -77.5t-91.5 -42.5l-1 -2q48 -15 70.5 -42.5t9.5 -77.5l-41 -164q-6 -25 -6 -40.5t6 -24.5t17.5 -12t27.5 -3h40l-9 -37h-72q-26 0 -45 5.5t-30 19
t-12.5 36t6.5 56.5l43 170q11 42 -6 68t-62 26z" />
    <glyph glyph-name="bar" unicode="|" horiz-adv-x="156" 
d="M167 750h65l-248 -1000h-65z" />
    <glyph glyph-name="braceright" unicode="}" horiz-adv-x="297" 
d="M282 260q-45 0 -74 -26t-40 -68l-43 -170q-8 -34 -21 -56.5t-30.5 -36t-39 -19t-47.5 -5.5h-72l9 37h40q31 0 51.5 15t32.5 65l41 164q13 50 48.5 77.5t91.5 42.5l1 2q-48 15 -70.5 42.5t-9.5 77.5l41 164q6 25 6 40.5t-6 24.5t-17.5 12t-27.5 3h-40l9 37h72
q26 0 45 -5.5t30 -19t12.5 -36t-6.5 -56.5l-43 -170q-11 -42 6 -68t62 -26z" />
    <glyph glyph-name="asciitilde" unicode="~" horiz-adv-x="634" 
d="M26 230q38 38 76.5 60.5t95.5 22.5q38 0 63 -7.5t49 -17.5q19 -8 35.5 -15.5t33 -13.5t33.5 -10t37 -4q18 0 37 7t36.5 18.5t33 24.5t26.5 25l26 -42q-17 -15 -35.5 -30t-40.5 -27.5t-46.5 -20t-51.5 -7.5q-35 0 -66 10t-67 27q-30 14 -57 22.5t-51 8.5q-28 0 -50 -7
t-39 -18.5t-30 -24.5t-23 -25z" />
    <glyph glyph-name="exclamdown" unicode="&#xa1;" horiz-adv-x="201" 
d="M154 300q-7 -47 -14.5 -99.5t-14.5 -104t-14 -98.5t-12.5 -84.5t-9.5 -62t-5 -29.5q-7 -27 -28.5 -38t-44.5 -11t-39 11t-9 38q1 5 9.5 29.5t21.5 62t29.5 84.5t34 98.5t36 103.5t35.5 100h25zM103 426q6 23 31 40t54 17t46 -17t11 -40t-31 -40t-54 -17t-46 17t-11 40z
" />
    <glyph glyph-name="cent" unicode="&#xa2;" horiz-adv-x="546" 
d="M338 447q-44 -8 -79 -26.5t-61.5 -46.5t-44.5 -63.5t-28 -75.5q-22 -88 6 -139t103 -64zM14 234q15 58 48 102t77.5 74t98 47.5t108.5 22.5l2 8q5 20 10.5 46.5t7.5 49.5q17 -5 31 -5q8 0 16 1.5t18 3.5q-10 -23 -18 -48.5t-13 -46.5l-1 -6q67 -1 117 -14t70 -30
q-12 -15 -23.5 -31.5t-21.5 -34.5h-10q-5 13 -16.5 26.5t-29 25t-41 19t-53.5 7.5l-106 -424h4q25 0 52.5 5.5t55 15t53 22.5t45.5 28l5 -3q-6 -12 -10.5 -24.5t-9.5 -24.5q-41 -23 -96 -40t-109 -19l-2 -8q-6 -23 -11 -51t-8 -51q-8 2 -15.5 3.5t-15.5 1.5q-14 0 -34 -5
q8 21 17.5 50.5t14.5 52.5l2 7q-50 4 -94.5 19.5t-75 45.5t-42.5 75t3 107z" />
    <glyph glyph-name="sterling" unicode="&#xa3;" horiz-adv-x="623" 
d="M-35 59q53 0 89 12t60.5 33.5t39 52.5t23.5 69q7 27 10 54t5 51q-32 -1 -62 -1.5t-60 -0.5q3 6 4.5 11.5t3.5 11.5q2 5 3 10.5t-1 10.5q18 -3 48 -4t66 -1q2 18 4.5 35t6.5 33q17 69 52.5 114.5t79 72.5t91 38t89.5 11q23 0 46 -3t43 -10t35.5 -17t23.5 -23
q-14 -11 -29.5 -24t-32.5 -30l-4 3q-3 33 -28 50t-63 17q-34 0 -64 -10.5t-54.5 -28.5t-41.5 -43t-24 -53q-10 -41 -15.5 -73t-10.5 -59q30 0 54.5 0.5t47 1t44.5 1.5t46 2q-2 -5 -3.5 -10.5t-3.5 -10.5q-3 -12 -3 -23q-48 1 -93 1.5t-94 0.5q-3 -23 -9 -46
q-10 -38 -28.5 -71.5t-42.5 -62t-51.5 -51t-55.5 -37.5v-2q106 0 217 4t205 7q-10 -22 -14 -40q-5 -22 -5 -37q-73 2 -145.5 3.5t-147.5 1.5q-72 0 -142.5 -1.5t-142.5 -3.5q2 7 5.5 15t5.5 17q2 8 2.5 16t2.5 16h18z" />
    <glyph glyph-name="currency" unicode="&#xa4;" horiz-adv-x="698" 
d="M594 328q10 42 0.5 78.5t-35.5 63.5t-67 43t-93 16t-101 -16t-88.5 -43t-67.5 -63.5t-38 -78.5q-11 -42 -1.5 -78.5t35.5 -63.5t67 -43t93 -16t101 16t88.5 43t67.5 63.5t39 78.5zM672 576l36 -36l-82 -56q26 -31 35 -71t-2 -85q-11 -44 -38.5 -83.5t-69.5 -71.5l53 -53
l-55 -38l-54 54q-48 -27 -100 -41.5t-108 -14.5q-57 0 -103 15t-78 42l-84 -55l-34 38l79 55q-23 32 -31 70.5t3 82.5q11 45 39 84.5t68 70.5l-55 57l54 36l56 -56q48 26 100.5 41t108.5 15t101.5 -14.5t79.5 -40.5z" />
    <glyph glyph-name="yen" unicode="&#xa5;" horiz-adv-x="680" 
d="M278 331q-54 0 -107 -1t-107 -2q2 5 4 10.5t4 10.5q1 5 1 10.5t1 10.5q51 -1 101 -1.5t101 -0.5q-43 79 -85.5 158t-87.5 159q17 -2 32 -3.5t32 -1.5t34 1.5t35 3.5q4 -18 19 -52t34.5 -75.5t41 -85.5t39.5 -80q79 75 154.5 149t141.5 144q20 -5 40 -5t45 5
q-35 -29 -76.5 -65.5t-87 -78t-93.5 -85.5l-96 -88q52 0 103 0.5t102 1.5q-2 -5 -4.5 -10.5t-3.5 -10.5q-2 -5 -2 -10.5v-10.5q-55 1 -109 2t-109 1l-21 -87h109t109 1q-2 -5 -4.5 -10.5t-3.5 -10.5q-2 -5 -2 -10.5t-1 -10.5q-54 2 -108 3t-109 1q-14 -57 -25 -110t-19 -102
q-14 2 -27.5 3.5t-27.5 1.5t-29.5 -1.5t-30.5 -3.5q18 54 33.5 106t28.5 106q-54 0 -107.5 -1t-107.5 -3q2 5 4.5 10.5t4.5 10.5q1 5 1 10.5t1 10.5q54 -1 107 -1h107z" />
    <glyph glyph-name="brokenbar" unicode="&#xa6;" horiz-adv-x="150" 
d="M21 175h65l-86 -350h-65zM145 675h65l-87 -350h-65z" />
    <glyph glyph-name="section" unicode="&#xa7;" horiz-adv-x="533" 
d="M491 578q-3 32 -31 57.5t-81 25.5q-26 0 -52.5 -7t-49.5 -20t-40 -31.5t-23 -41.5q-9 -36 12 -58.5t57 -38.5t79.5 -29.5t79 -32t55.5 -46t9 -71.5q-5 -21 -17.5 -40.5t-27.5 -36.5t-31.5 -30.5t-29.5 -22.5q18 -14 25 -35.5t-1 -53.5q-9 -37 -35 -72t-65.5 -62
t-92.5 -43.5t-117 -16.5q-24 0 -47.5 3.5t-45.5 9.5t-40.5 13.5t-31.5 16.5q10 17 20 42.5t14 42.5h15q3 -12 12 -27.5t27.5 -29.5t48 -24t72.5 -10q33 0 65 10.5t58.5 27t44.5 37.5t23 43q7 27 -5 45.5t-35.5 32.5t-55.5 25t-65 22t-64.5 24.5t-54 32t-33 44.5t-1.5 63
q6 24 20 44t31 36t34.5 27t31.5 17q-5 9 -9 17.5t-6 18.5t-0.5 23.5t6.5 34.5q7 31 28.5 60.5t55 52.5t78.5 37t100 14q61 0 97 -19t54 -42q-14 -9 -28.5 -26.5t-21.5 -32.5h-15zM436 241q4 19 2 32.5t-12 25t-28.5 21.5t-47.5 21q-56 22 -89 36t-52 23t-27 14t-14 10
q-19 -11 -39.5 -31t-26.5 -44q-9 -38 16.5 -61.5t90.5 -48.5q40 -15 69.5 -26.5t50 -20t33.5 -15t21 -11.5q16 14 31 31t22 44z" />
    <glyph glyph-name="dieresis" unicode="&#xa8;" horiz-adv-x="450" 
d="M284 637q5 21 27.5 36t48.5 15t41 -15t10 -36t-27.5 -36t-48.5 -15t-41 15t-10 36zM38 637q5 21 27 36t48 15t41.5 -15t10.5 -36t-28 -36t-49 -15t-40.5 15t-9.5 36z" />
    <glyph glyph-name="copyright" unicode="&#xa9;" horiz-adv-x="962" 
d="M204 338q15 59 50 103.5t83.5 74.5t108.5 45t124 15q61 0 103.5 -7.5t65.5 -20.5q-8 -11 -16 -23.5t-12 -26.5l-7 -2l-17.5 15t-26.5 17.5t-39 14t-54 5.5q-44 0 -87 -9.5t-81 -33t-67.5 -64.5t-45.5 -104q-11 -43 -5 -79.5t28 -63t60 -41.5t92 -15q26 0 52.5 5.5
t50.5 13.5t44.5 17.5t35.5 18.5l6 -2q-7 -9 -11 -20.5t-6 -19.5q-14 -6 -34.5 -13t-46 -13.5t-54 -10.5t-58.5 -4q-65 0 -114.5 16t-81 46t-42.5 72t2 94zM33 340q18 74 69.5 139.5t124.5 114t161.5 76.5t181.5 28t167 -28t123 -76.5t67.5 -114t0.5 -139.5
q-19 -74 -70.5 -139.5t-124 -114t-161 -76.5t-181.5 -28t-167.5 28t-123 76.5t-67 114t-0.5 139.5zM876 340q16 66 0 124.5t-58.5 102t-108 69t-148.5 25.5t-161.5 -25.5t-142.5 -69t-109.5 -102t-61.5 -124.5q-17 -66 -1 -124.5t58.5 -102t108 -69t148.5 -25.5t161.5 25.5
t142.5 69t109.5 102t62.5 124.5z" />
    <glyph glyph-name="ordfeminine" unicode="&#xaa;" horiz-adv-x="412" 
d="M101 641q28 11 61.5 21t82.5 10q21 0 43.5 -3.5t39 -14t24.5 -29t1 -48.5q-5 -18 -11 -39t-12 -41t-11 -37.5t-8 -28.5q-5 -20 2 -27t17 -7q6 0 13 2t12 4l-5 -18q-9 -4 -25 -8t-36 -4q-26 0 -36 13t-7 30q-32 -21 -65.5 -32t-71.5 -11q-20 0 -39.5 3.5t-34 12t-22 23
t-2.5 35.5q4 18 13 31t25.5 23t42 17t63.5 12q42 6 66.5 10t36.5 7.5t16 8t6 11.5q6 24 2.5 39.5t-13.5 23.5t-25.5 11t-33.5 3q-38 0 -65 -13.5t-38 -26.5h-15zM271 533q-21 -8 -49 -11t-55 -9t-48.5 -19t-28.5 -41q-6 -26 10.5 -39t45.5 -13q30 0 57 13.5t45 26.5z" />
    <glyph glyph-name="guillemotleft" unicode="&#xab;" horiz-adv-x="438" 
d="M223 419q4 -10 14 -17.5t25 -9.5l-179 -159l92 -166q-16 -2 -31.5 -9.5t-23.5 -16.5l-102 191zM404 419q4 -10 14 -17.5t25 -9.5l-178 -159l91 -166q-16 -2 -31.5 -9.5t-22.5 -16.5l-102 191z" />
    <glyph glyph-name="logicalnot" unicode="&#xac;" horiz-adv-x="678" 
d="M589 324h-567l13 52h632l-67 -268h-65z" />
    <glyph glyph-name="registered" unicode="&#xae;" horiz-adv-x="962" 
d="M338 434q8 34 14.5 70.5t10.5 64.5q25 -2 49.5 -3.5t50.5 -1.5t52 2.5t52 2.5q33 0 60 -6t45 -18.5t25.5 -31.5t1.5 -44q-8 -31 -31.5 -53.5t-53.5 -37.5t-61.5 -23.5t-55.5 -9.5q18 -24 40.5 -56.5t45 -64t44 -57.5t37.5 -39l-2 -5q-25 5 -45 5q-23 0 -51 -5
q-32 54 -69 107t-78 107h-40l-18 -70q-9 -36 -16.5 -72t-12.5 -72q-10 2 -19 3.5t-19 1.5q-11 0 -21.5 -1.5t-21.5 -3.5l24 70t20 70zM386 365q5 -2 19 -3t32 -1q32 0 62 5.5t54.5 17.5t42 31.5t24.5 46.5q10 39 -17.5 61t-78.5 22q-23 0 -45.5 -1.5t-42.5 -3.5
q-8 -23 -16 -47t-14 -47zM33 340q18 74 69.5 139.5t124.5 114t161.5 76.5t181.5 28t167 -28t123 -76.5t67.5 -114t0.5 -139.5q-19 -74 -70.5 -139.5t-124 -114t-161 -76.5t-181.5 -28t-167.5 28t-123 76.5t-67 114t-0.5 139.5zM86 340q-17 -66 -1 -124.5t58.5 -102t108 -69
t148.5 -25.5t161.5 25.5t142.5 69t109.5 102t62.5 124.5q16 66 0 124.5t-58.5 102t-108 69t-148.5 25.5t-161.5 -25.5t-142.5 -69t-109.5 -102t-61.5 -124.5z" />
    <glyph glyph-name="macron" unicode="&#xaf;" horiz-adv-x="428" 
d="M49 656h341l-13 -52h-341z" />
    <glyph glyph-name="degree" unicode="&#xb0;" horiz-adv-x="422" 
d="M30 527q7 30 28 56.5t50.5 46t65 31t73.5 11.5q37 0 67.5 -11.5t50 -31t27 -46t0.5 -56.5q-8 -30 -28.5 -56.5t-50.5 -46t-66 -31t-73 -11.5q-38 0 -68 11.5t-49.5 31t-27 46t0.5 56.5zM76 527q-6 -23 0 -42.5t20.5 -34t37 -23t50.5 -8.5t55 8.5t48.5 23t37 34t21.5 42.5
q5 22 -0.5 42t-20.5 34.5t-37.5 23t-50.5 8.5t-55 -8.5t-48.5 -23t-37 -34.5t-20.5 -42z" />
    <glyph glyph-name="plusminus" unicode="&#xb1;" horiz-adv-x="648" 
d="M25 324h283l46 182h65l-46 -182h284l-13 -52h-284l-45 -182h-65l45 182h-283zM-42 52h631l-13 -52h-631z" />
    <glyph glyph-name="twosuperior" unicode="&#xb2;" horiz-adv-x="407" 
d="M97 613q34 31 73.5 45t90.5 14q34 0 62.5 -6t47 -19t25.5 -33t0 -48q-6 -24 -19.5 -45t-46.5 -48t-92 -65t-156 -96l2 -5h60.5t66 0.5t65.5 1.5t60 3q-4 -7 -6.5 -13t-4.5 -13q-4 -11 -2 -26q-44 2 -86.5 3.5t-87.5 1.5q-44 0 -87 -1.5t-87 -3.5l4 15q71 45 128.5 81.5
t100.5 69.5t69.5 65.5t36.5 71.5q10 44 -12 64.5t-58 20.5q-26 0 -46 -6.5t-35 -16t-24.5 -20.5t-13.5 -20l-6 -2z" />
    <glyph glyph-name="threesuperior" unicode="&#xb3;" horiz-adv-x="393" 
d="M3 318h6q11 -11 35.5 -23t63.5 -12q58 0 99 27t52 69q6 25 1.5 41.5t-16 26.5t-28.5 14.5t-36 4.5q-15 0 -29 -2t-24 -4q6 8 7 17q3 13 2 20q9 -4 19.5 -5.5t20.5 -1.5q26 0 45.5 8.5t32.5 21.5t21 28.5t12 30.5q9 35 -12.5 52t-54.5 17t-60.5 -13t-40.5 -30l-6 -1
l-11 32q20 12 53 24t88 12q30 0 55 -5.5t41.5 -16t24 -27.5t1.5 -39t-20.5 -39.5t-33.5 -30t-40.5 -20.5t-40.5 -11l-1 -2q21 -1 44 -6t41 -15.5t27.5 -28.5t2.5 -45q-7 -29 -28 -52t-52.5 -40t-72 -26t-87.5 -9q-45 0 -74 6.5t-49 14.5z" />
    <glyph glyph-name="acute" unicode="&#xb4;" horiz-adv-x="298" 
d="M205 708q16 11 32 17.5t30 6.5q12 0 24.5 -8t8.5 -24q-5 -18 -22.5 -28.5t-34.5 -18.5l-207 -94h-51z" />
    <glyph glyph-name="mu" unicode="&#xb5;" horiz-adv-x="562" 
d="M221 -15q-35 0 -62 6.5t-45 23.5q-19 -75 -35 -144.5t-24 -138.5q-12 2 -25 3.5t-26 1.5t-26 -1.5t-27 -3.5q12 43 22 81.5t20.5 77t21 79t22.5 88.5q16 66 29.5 122.5t25.5 106.5t23 95.5t22 90.5q12 -2 25.5 -3.5t25.5 -1.5t25 1.5t27 3.5q-20 -59 -41.5 -131.5
t-39.5 -146.5q-7 -26 -9 -45.5t0 -34t6.5 -24.5t11.5 -17q13 -16 36.5 -26.5t60.5 -10.5q53 0 92.5 18.5t62.5 45.5q13 16 21.5 28.5t16 32.5t16.5 54t24 93q11 41 21 84.5t18 79.5q12 -2 24.5 -3.5t26.5 -1.5t26.5 1.5t25.5 3.5q-25 -78 -44.5 -151t-39.5 -153
q-11 -45 -20.5 -88.5t-17.5 -85.5q-12 2 -24 3.5t-24 1.5q-22 0 -50 -5q8 22 13.5 43.5t10.5 42.5h-3q-43 -47 -101.5 -71.5t-118.5 -24.5z" />
    <glyph glyph-name="paragraph" unicode="&#xb6;" horiz-adv-x="612" 
d="M538 639l-83 -10l-185 -744h-45l101 406q-80 0 -135 15t-86.5 42t-41 65t1.5 83q12 46 37.5 80.5t63.5 57.5t87 34.5t107 11.5h326l-6 -24l-96 -12l-189 -759h-45z" />
    <glyph glyph-name="periodcentered" unicode="&#xb7;" horiz-adv-x="212" 
d="M30 306q6 25 32 42.5t57 17.5t49 -17.5t12 -42.5q-7 -25 -33 -42.5t-57 -17.5t-49 17.5t-11 42.5z" />
    <glyph glyph-name="cedilla" unicode="&#xb8;" horiz-adv-x="298" 
d="M18 -175q13 -5 35.5 -8.5t51.5 -3.5q32 0 56 11t29 31q6 22 -10.5 31t-42.5 9q-43 0 -55 -7l-8 7l77 105h44l-49 -73q8 2 16.5 3.5t20.5 1.5q49 0 72 -19.5t15 -51.5q-5 -21 -21 -37t-39 -26.5t-51.5 -16t-58.5 -5.5q-38 0 -64 6t-42 11z" />
    <glyph glyph-name="onesuperior" unicode="&#xb9;" horiz-adv-x="243" 
d="M158 616l-5 2l-99 -37q-5 12 -20 19l2 10q51 12 104.5 28.5t96.5 33.5h14q-14 -38 -25.5 -77t-21.5 -79l-25 -100q-10 -38 -17.5 -77t-13.5 -79q-22 5 -42 5q-18 0 -43 -5q14 41 24.5 79.5t20.5 76.5z" />
    <glyph glyph-name="ordmasculine" unicode="&#xba;" horiz-adv-x="464" 
d="M32 522q10 41 34.5 69.5t57.5 46.5t71 26t75 8q36 0 69.5 -8t57.5 -26t34.5 -46.5t0.5 -69.5q-11 -41 -35.5 -69.5t-57.5 -46t-70.5 -25.5t-73.5 -8q-37 0 -71 8t-58 25.5t-34.5 46t0.5 69.5zM114 522q-6 -23 -5.5 -45.5t10 -40t29.5 -28.5t53 -11q32 0 57 11t43 28.5
t30 40t18 45.5q6 24 5.5 46.5t-10 40t-29 28.5t-51.5 11q-33 0 -58.5 -11t-44 -28.5t-30 -40t-17.5 -46.5z" />
    <glyph glyph-name="guillemotright" unicode="&#xbb;" horiz-adv-x="437" 
d="M262 396q16 2 31.5 9.5t22.5 16.5l102 -191l-204 -187q-4 10 -14 17.5t-25 9.5l178 159zM81 396q16 2 31.5 9.5t22.5 16.5l102 -191l-204 -187q-4 10 -14.5 17.5t-24.5 9.5l178 159z" />
    <glyph glyph-name="onequarter" unicode="&#xbc;" horiz-adv-x="941" 
d="M474 126q83 69 166 137.5t168 137.5q5 -2 12.5 -3t18.5 -1q10 0 18 1t16 3q-21 -64 -38 -128t-33 -128q18 0 38.5 1.5t35.5 4.5q-9 -14 -10 -23q-3 -11 -1 -24q-14 2 -31.5 3t-40.5 1q-8 -29 -13 -56.5t-11 -56.5q-20 5 -39 5q-11 0 -21.5 -1.5t-21.5 -3.5q11 29 19 56.5
t16 56.5q-36 0 -73.5 -0.5t-71.5 -1t-62 -1t-46 -1.5zM779 338l-1 3q-57 -48 -115 -95.5t-107 -95.5l1 -5h174zM663 684q8 -2 13.5 -3.5t13.5 -1.5q13 0 30 5l-523 -712l-14 3.5t-14 1.5q-13 0 -30 -5zM212 616l-4 2l-99 -37q-7 13 -21 19l3 10q50 12 104 28.5t96 33.5h14
q-13 -38 -24.5 -77t-22.5 -79l-25 -100q-18 -77 -30 -156q-23 5 -42 5q-21 0 -43 -5q14 41 24.5 79.5t19.5 76.5z" />
    <glyph glyph-name="onehalf" unicode="&#xbd;" horiz-adv-x="926" 
d="M659 684l14 -3.5t14 -1.5q13 0 30 5l-523 -712l-14 3.5t-14 1.5q-13 0 -30 -5zM212 616l-4 2l-99 -37q-7 13 -21 19l3 10q51 12 104.5 28.5t95.5 33.5h14q-13 -38 -24 -77t-22 -79l-25 -100q-9 -38 -17 -77t-14 -79q-23 5 -41 5q-21 0 -44 -5q14 41 24.5 79.5t19.5 76.5z
M597 348q35 31 73.5 45t89.5 14q35 0 63 -6t47 -19t26.5 -33t0.5 -48q-6 -24 -20 -45t-47.5 -48t-92.5 -65t-155 -96l1 -5h60.5t66 0.5t66 1.5t59.5 3q-3 -7 -6 -13t-5 -13t-1.5 -13t-0.5 -13q-43 2 -85.5 3.5t-87.5 1.5q-43 0 -87 -1.5t-88 -3.5l4 15q72 45 129.5 81.5
t100 69.5t69 65.5t36.5 71.5q11 45 -11 65t-59 20q-26 0 -46 -6.5t-34.5 -16t-23.5 -20.5t-13 -20l-8 -2z" />
    <glyph glyph-name="threequarters" unicode="&#xbe;" horiz-adv-x="994" 
d="M525 126q84 69 166.5 137.5t167.5 137.5q6 -2 13.5 -3t18.5 -1q9 0 17 1t16 3q-20 -64 -37 -128t-33 -128q18 0 38.5 1.5t34.5 4.5l-6 -12t-4 -11q-2 -6 -1.5 -12t0.5 -12q-14 2 -31 3t-40 1q-8 -29 -13.5 -56.5t-10.5 -56.5q-22 5 -39 5q-19 0 -44 -5q11 29 19.5 56.5
t16.5 56.5q-37 0 -74.5 -0.5t-71.5 -1t-62 -1t-46 -1.5zM831 338l-2 3q-57 -48 -115 -95.5t-107 -95.5l2 -5h174zM729 684l14 -3.5t14 -1.5q13 0 30 5l-524 -712q-8 2 -13.5 3.5t-13.5 1.5q-13 0 -30 -5zM27 318h6q11 -11 35.5 -23t63.5 -12q58 0 99.5 27t51.5 69
q6 25 1.5 41.5t-16 26.5t-28.5 14.5t-36 4.5q-15 0 -29 -2t-24 -4q5 7 8 17q2 6 2 10.5v9.5q8 -4 18.5 -5.5t20.5 -1.5q26 0 45.5 8.5t32.5 21.5t21 28.5t12 30.5q9 35 -12.5 52t-54.5 17t-60.5 -13t-39.5 -30l-7 -1l-11 32q20 12 53 24t88 12q30 0 55 -5.5t41.5 -16
t24 -27.5t1.5 -39q-5 -22 -19.5 -39.5t-33.5 -30t-41 -20.5t-41 -11v-2q21 -1 43.5 -6t40.5 -15.5t27.5 -28.5t2.5 -45q-7 -29 -28 -52t-52.5 -40t-72 -26t-87.5 -9q-45 0 -74 6.5t-49 14.5z" />
    <glyph glyph-name="questiondown" unicode="&#xbf;" horiz-adv-x="348" 
d="M154 264q6 5 13 13t9 15q18 5 46 5q15 0 36.5 -6t39.5 -19t27.5 -34t2.5 -52q-8 -33 -31 -60.5t-52.5 -51t-62.5 -44.5t-62.5 -42.5t-51 -45t-28.5 -50.5q-5 -19 0.5 -34.5t18 -26t30 -16t37.5 -5.5q34 0 67 13t59 33l-6 -50q-27 -12 -60 -22.5t-76 -10.5
q-45 0 -76.5 10.5t-50.5 28.5t-25 42t1 51q9 35 32.5 64.5t54.5 54.5t65 47.5t64 44.5t52 45t29 49q5 20 -6.5 39.5t-43.5 19.5q-15 0 -27.5 -3.5t-17.5 -5.5zM203 426q6 23 31 40t54 17t46 -17t11 -40t-31 -40t-54 -17t-46 17t-11 40z" />
    <glyph glyph-name="Agrave" unicode="&#xc0;" horiz-adv-x="820" 
d="M496 698q16 -58 34.5 -125t37.5 -136.5t37.5 -137t35.5 -126.5t31 -105t24 -73q-16 2 -31.5 3.5t-32.5 1.5t-34 -1.5t-34 -3.5q-2 26 -9 58.5t-16 68t-18.5 72t-18.5 69.5q-41 1 -81 1.5t-82 0.5q-38 0 -76.5 -0.5t-76.5 -1.5q-60 -78 -110 -149t-78 -119q-11 2 -22 3.5
t-22 1.5q-20 0 -48 -5q145 177 285.5 351t280.5 352h24zM421 563l-200 -254q33 0 67.5 -1t66.5 -1q35 0 70.5 0.5t70.5 1.5zM357 825q-6 4 -13 8.5t-12 10t-7.5 12.5t-0.5 16q4 16 20.5 24t28.5 8q14 0 26.5 -6.5t23.5 -17.5l147 -149h-52z" />
    <glyph glyph-name="Aacute" unicode="&#xc1;" horiz-adv-x="821" 
d="M487 698q16 -58 34.5 -125t37.5 -136.5t37.5 -137t35.5 -126.5t31 -105t24 -73q-16 2 -31.5 3.5t-32.5 1.5t-34 -1.5t-34 -3.5q-2 26 -9 58.5t-16 68t-18.5 72t-18.5 69.5q-41 1 -81 1.5t-82 0.5q-38 0 -76.5 -0.5t-76.5 -1.5q-60 -78 -110 -149t-78 -119q-11 2 -22 3.5
t-22 1.5q-20 0 -48 -5q145 177 285.5 351t280.5 352h24zM412 563l-200 -254q33 0 67.5 -1t66.5 -1q35 0 70.5 0.5t70.5 1.5zM611 880q15 11 31.5 17.5t30.5 6.5q12 0 24.5 -8t8.5 -24q-5 -18 -22.5 -28.5t-34.5 -18.5l-207 -94h-52z" />
    <glyph glyph-name="Acircumflex" unicode="&#xc2;" horiz-adv-x="826" 
d="M494 698q16 -58 34.5 -125t37.5 -136.5t38 -137t36 -126.5t31 -105t24 -73q-16 2 -32 3.5t-33 1.5t-33.5 -1.5t-33.5 -3.5q-3 26 -9.5 58.5t-15.5 68t-18.5 72t-18.5 69.5q-41 1 -81.5 1.5t-82.5 0.5q-38 0 -76 -0.5t-76 -1.5q-60 -78 -110 -149t-78 -119q-25 5 -45 5
q-11 0 -22.5 -1.5t-24.5 -3.5q144 177 284.5 351t280.5 352h24zM420 563l-201 -254q33 0 68 -1t67 -1q35 0 70 0.5t70 1.5zM509 836l-175 -105h-46l195 167h83l113 -167h-46z" />
    <glyph glyph-name="Atilde" unicode="&#xc3;" horiz-adv-x="820" 
d="M496 698q16 -58 34.5 -125t37.5 -136.5t37.5 -137t35.5 -126.5t31 -105t24 -73q-16 2 -31.5 3.5t-32.5 1.5t-34 -1.5t-34 -3.5q-3 26 -9.5 58.5t-15.5 68t-18.5 72t-18.5 69.5q-41 1 -81 1.5t-82 0.5q-38 0 -76.5 -0.5t-76.5 -1.5q-60 -78 -110 -149t-78 -119
q-11 2 -22 3.5t-22 1.5q-20 0 -48 -5q145 177 285.5 351t280.5 352h24zM421 563l-200 -254q33 0 67.5 -1t66.5 -1q35 0 70.5 0.5t70.5 1.5zM285 756q8 18 22.5 36t34 33t44.5 24.5t55 9.5q11 0 19.5 -1t18 -3.5t20.5 -7t27 -11.5q31 -14 45.5 -18.5t31.5 -4.5q29 0 50 15
t34 35h36q-5 -12 -17.5 -30t-32.5 -35.5t-48 -29.5t-65 -12q-18 0 -38 5t-46 18q-29 14 -45 18.5t-31 4.5q-29 0 -44.5 -10t-33.5 -36h-37z" />
    <glyph glyph-name="Adieresis" unicode="&#xc4;" horiz-adv-x="819" 
d="M496 698q16 -58 34.5 -125t37.5 -136.5t37.5 -137t35.5 -126.5t31.5 -105t24.5 -73q-16 2 -32 3.5t-33 1.5t-33.5 -1.5t-33.5 -3.5q-3 26 -9.5 58.5t-15.5 68t-19 72t-18 69.5q-41 1 -81.5 1.5t-82.5 0.5q-38 0 -76 -0.5t-76 -1.5q-60 -78 -110.5 -149t-77.5 -119
q-25 5 -45 5q-11 0 -22.5 -1.5t-24.5 -3.5q144 177 284.5 351t280.5 352h24zM421 563l-200 -254q33 0 68 -1t67 -1q35 0 70 0.5t70 1.5zM564 809q5 21 27.5 36t48.5 15t41 -15t10 -36t-27.5 -36t-48.5 -15t-41 15t-10 36zM318 809q5 21 27 36t48 15t41.5 -15t10.5 -36
t-28 -36t-49 -15t-40.5 15t-9.5 36z" />
    <glyph glyph-name="Aring" unicode="&#xc5;" horiz-adv-x="826" 
d="M492 698q16 -58 34.5 -125t37.5 -136.5t37.5 -137t35.5 -126.5t31 -105t24 -73q-16 2 -31.5 3.5t-32.5 1.5t-34 -1.5t-34 -3.5q-2 26 -9 58.5t-16 68t-18.5 72t-18.5 69.5q-41 1 -81 1.5t-82 0.5q-38 0 -76.5 -0.5t-76.5 -1.5q-60 -78 -110 -149t-78 -119q-11 2 -22 3.5
t-22 1.5q-20 0 -48 -5q145 177 285.5 351t280.5 352h24zM417 563l-200 -254q33 0 67.5 -1t66.5 -1q35 0 70.5 0.5t70.5 1.5zM373 817q5 21 20 39.5t36 32.5t46.5 22t52.5 8q26 0 47.5 -8t35 -22t19 -32.5t0.5 -39.5t-20 -39.5t-36 -32.5t-46 -22t-52 -8q-26 0 -47.5 8
t-35.5 22t-19.5 32.5t-0.5 39.5zM426 817q-6 -25 11.5 -42.5t48.5 -17.5q32 0 58.5 17.5t32.5 42.5t-11.5 42.5t-48.5 17.5q-32 0 -58.5 -17.5t-32.5 -42.5z" />
    <glyph glyph-name="AE" unicode="&#xc6;" horiz-adv-x="1027" 
d="M272 252q-67 -65 -126 -128.5t-114 -128.5q-13 2 -24.5 3.5t-24.5 1.5q-14 0 -28.5 -1.5t-29.5 -3.5q73 65 163.5 149t187.5 175.5t195 185.5t187 180q52 -2 104 -3.5t106 -1.5q53 0 105.5 1.5t103.5 3.5q-11 -16 -14 -31q-2 -8 -2.5 -15.5t0.5 -15.5q-18 3 -37 5.5
t-50 5t-80.5 3.5t-128.5 1q-13 -44 -26 -87.5t-24 -87.5l-20 -82q76 0 123.5 0.5t77 1.5t47 2.5t34.5 2.5q-5 -7 -8 -14t-5 -14q-3 -14 0 -28q-17 1 -34.5 2.5t-47 2.5t-76 1.5t-122.5 0.5l-25 -101q-12 -49 -22 -98t-21 -98q69 0 120.5 1t89 2.5t62.5 3.5t40 4
q-10 -14 -13 -29q-2 -8 -2.5 -14.5t0.5 -14.5q-54 2 -106.5 3.5t-105.5 1.5q-54 0 -107.5 -1.5t-108.5 -3.5q23 63 40 125.5t33 125.5zM648 607h-13l-326 -313l260 -6z" />
    <glyph glyph-name="Ccedilla" unicode="&#xc7;" horiz-adv-x="777" 
d="M352 -18q-85 7 -151 34.5t-107.5 73t-55 108.5t5.5 142q21 85 72 151.5t124.5 112.5t165.5 70t196 24q81 0 147 -13.5t113 -32.5q-14 -14 -26 -38l-20 -40l-8 -2q-10 12 -28.5 27t-45.5 29t-62 23.5t-79 9.5q-74 0 -142 -19t-124.5 -58.5t-98 -100t-62.5 -143.5
t-9.5 -143.5t48.5 -100t95.5 -58.5t132.5 -19q44 0 84.5 9t76 21.5t64 27t49.5 25.5l4 -4l-26 -59q-14 -8 -40.5 -17.5t-63 -18.5t-80 -15t-90.5 -6h-15l-42 -61q8 2 17 3.5t21 1.5q49 0 71.5 -19.5t14.5 -51.5q-5 -21 -21 -37t-39 -26.5t-51.5 -16t-58.5 -5.5q-38 0 -64 6
t-43 11l25 32q14 -5 36 -8.5t51 -3.5q32 0 56.5 11t29.5 31q5 22 -11.5 31t-42.5 9q-41 0 -55 -7l-8 7z" />
    <glyph glyph-name="Egrave" unicode="&#xc8;" horiz-adv-x="491" 
d="M40 427q16 65 29 129.5t25 128.5q57 -2 111 -3.5t111 -1.5t112.5 1.5t111.5 3.5q-8 -17 -11 -30q-4 -13 -4 -30q-39 2 -71.5 4.5t-68.5 4.5t-80 3t-105 1q-9 -32 -18.5 -61t-18.5 -66q-10 -39 -18.5 -76t-13.5 -56q55 0 99.5 1t81 2.5t67 3t59.5 3.5q-4 -8 -7 -15.5
t-5 -15.5t-2.5 -15t-1.5 -15q-32 3 -74.5 4.5t-85 2.5t-81 1.5t-60.5 0.5q-3 -9 -5.5 -19.5t-7 -26t-10.5 -39.5l-15 -60q-14 -57 -22.5 -94t-11.5 -56q42 0 88.5 0.5t92.5 1.5t87 3.5t72 7.5q-3 -7 -6 -15.5t-5 -15.5t-2.5 -14.5t-1.5 -14.5q-55 2 -110.5 3.5t-112.5 1.5
t-113.5 -1.5t-114.5 -3.5q20 66 39.5 130.5t35.5 129.5zM199 825q-6 4 -13 8.5t-12 10t-7.5 12.5t-0.5 16q4 16 20.5 24t28.5 8q14 0 26.5 -6.5t23.5 -17.5l147 -149h-53z" />
    <glyph glyph-name="Eacute" unicode="&#xc9;" horiz-adv-x="491" 
d="M30 427q16 65 29 129.5t25 128.5q57 -2 111 -3.5t111 -1.5t112.5 1.5t111.5 3.5q-8 -17 -11 -30q-4 -13 -4 -30q-39 2 -71.5 4.5t-68.5 4.5t-80 3t-105 1q-9 -32 -18.5 -61t-18.5 -66q-10 -39 -18.5 -76t-13.5 -56q55 0 99.5 1t81 2.5t67 3t59.5 3.5q-4 -8 -7 -15.5
t-5 -15.5t-2.5 -15t-1.5 -15q-32 3 -74.5 4.5t-85 2.5t-81 1.5t-60.5 0.5q-3 -9 -5.5 -19.5t-7 -26t-10.5 -39.5l-15 -60q-14 -57 -22.5 -94t-11.5 -56q42 0 88.5 0.5t92.5 1.5t87 3.5t72 7.5q-3 -7 -6 -15.5t-5 -15.5t-2.5 -14.5t-1.5 -14.5q-55 2 -110.5 3.5t-112.5 1.5
t-113.5 -1.5t-114.5 -3.5q20 66 39.5 130.5t35.5 129.5zM451 880q16 11 32.5 17.5t30.5 6.5q12 0 24.5 -8t8.5 -24q-5 -18 -22.5 -28.5t-34.5 -18.5l-207 -94h-52z" />
    <glyph glyph-name="Ecircumflex" unicode="&#xca;" horiz-adv-x="498" 
d="M40 427q16 65 29 129.5t25 128.5q56 -2 110.5 -3.5t111.5 -1.5t112 1.5t112 3.5q-8 -17 -11 -30q-4 -13 -4 -30q-39 2 -71.5 4.5t-69 4.5t-80.5 3t-105 1q-8 -32 -17.5 -61t-18.5 -66q-10 -39 -18.5 -76t-13.5 -56q55 0 99.5 1t81 2.5t67 3t58.5 3.5q-3 -8 -6 -15.5
t-5 -15.5t-2.5 -15t-1.5 -15q-32 3 -74.5 4.5t-85.5 2.5t-81.5 1.5t-60.5 0.5q-3 -9 -5.5 -19.5t-6.5 -26t-10 -39.5l-15 -60q-14 -57 -22.5 -94t-11.5 -56q42 0 88.5 0.5t92.5 1.5t87 3.5t72 7.5q-7 -15 -12 -31q-3 -14 -3 -29q-55 2 -111 3.5t-113 1.5t-113 -1.5
t-114 -3.5q20 66 39 130.5t36 129.5zM352 836l-175 -105h-46l194 167h84l113 -167h-46z" />
    <glyph glyph-name="Edieresis" unicode="&#xcb;" horiz-adv-x="497" 
d="M45 427q16 65 29 129.5t25 128.5q56 -2 110.5 -3.5t111.5 -1.5t112 1.5t112 3.5q-5 -8 -7.5 -15t-4.5 -15t-3 -15t0 -15q-39 2 -72 4.5t-69 4.5t-80 3t-105 1q-9 -32 -18 -61t-19 -66q-10 -39 -18 -76t-13 -56q55 0 99.5 1t81 2.5t67 3t58.5 3.5q-3 -8 -6.5 -15.5
t-5.5 -15.5q-3 -15 -3 -30q-32 3 -74.5 4.5t-85.5 2.5t-81.5 1.5t-60.5 0.5q-3 -9 -5.5 -19.5t-6.5 -26t-10 -39.5l-15 -60q-14 -57 -22.5 -94t-11.5 -56q42 0 88.5 0.5t92.5 1.5t87 3.5t72 7.5q-3 -7 -6.5 -15.5t-5.5 -15.5q-3 -14 -3 -29q-55 2 -111 3.5t-113 1.5
t-113.5 -1.5t-113.5 -3.5q20 66 39 130.5t35 129.5zM410 809q5 21 27 36t48 15t41.5 -15t10.5 -36t-28 -36t-49 -15t-40.5 15t-9.5 36zM163 809q5 21 27.5 36t48.5 15t41.5 -15t10.5 -36t-28 -36t-49 -15t-41 15t-10 36z" />
    <glyph glyph-name="Igrave" unicode="&#xcc;" horiz-adv-x="310" 
d="M145 426q16 65 29 129.5t25 129.5q16 -2 30.5 -3.5t29.5 -1.5t30.5 1.5t31.5 3.5q-20 -65 -39 -129.5t-35 -129.5l-43 -172q-17 -65 -29.5 -129.5t-25.5 -129.5q-15 2 -29.5 3.5t-29.5 1.5t-30.5 -1.5t-32.5 -3.5q20 65 39 129.5t36 129.5zM145 825q-6 4 -13 8.5t-12 10
t-7.5 12.5t-0.5 16q4 16 20.5 24t28.5 8q14 0 26.5 -6.5t23.5 -17.5l147 -149h-52z" />
    <glyph glyph-name="Iacute" unicode="&#xcd;" horiz-adv-x="310" 
d="M50 426q16 65 29 129.5t25 129.5q16 -2 30.5 -3.5t29.5 -1.5t30.5 1.5t31.5 3.5q-20 -65 -39 -129.5t-35 -129.5l-43 -172q-17 -65 -29.5 -129.5t-25.5 -129.5q-15 2 -29.5 3.5t-28.5 1.5q-15 0 -30.5 -1.5t-32.5 -3.5q20 65 39 129.5t35 129.5zM313 880q15 11 31.5 17.5
t30.5 6.5q12 0 24.5 -8t8.5 -24q-5 -18 -22.5 -28.5t-34.5 -18.5l-207 -94h-52z" />
    <glyph glyph-name="Icircumflex" unicode="&#xce;" horiz-adv-x="413" 
d="M150 426q16 65 29 129.5t25 129.5q15 -2 30 -3.5t30 -1.5t30 1.5t32 3.5q-20 -65 -39 -129.5t-35 -129.5l-43 -172q-17 -65 -30 -129.5t-25 -129.5q-15 2 -30 3.5t-30 1.5t-30 -1.5t-32 -3.5q20 65 39 129.5t36 129.5zM303 836l-175 -105h-46l195 167h83l113 -167h-46z
" />
    <glyph glyph-name="Idieresis" unicode="&#xcf;" horiz-adv-x="392" 
d="M143 426q17 65 29.5 129.5t25.5 129.5q15 -2 30 -3.5t30 -1.5t30 1.5t32 3.5q-20 -65 -39 -129.5t-36 -129.5l-43 -172q-16 -65 -29 -129.5t-25 -129.5q-15 2 -30 3.5t-30 1.5t-30 -1.5t-32 -3.5q20 65 39 129.5t35 129.5zM350 809q5 21 27.5 36t48.5 15t41 -15t10 -36
t-27.5 -36t-48.5 -15t-41 15t-10 36zM104 809q5 21 27 36t48 15t41.5 -15t10.5 -36t-28 -36t-49 -15t-40.5 15t-9.5 36z" />
    <glyph glyph-name="Eth" unicode="&#xd0;" horiz-adv-x="960" 
d="M229 254q-14 -54 -25.5 -107t-20.5 -105q26 -5 70 -7.5t92 -2.5q69 0 141 13t135.5 49t113 98.5t74.5 161.5q22 87 9 143t-52 88.5t-101 45t-139 12.5q-56 0 -106 -3t-89 -7q-16 -48 -30.5 -100.5t-28.5 -106.5l-6 -24q60 0 121 0.5t120 2.5q-7 -9 -10 -21q-3 -10 -1 -23
q-58 2 -118.5 3t-120.5 1zM169 426q16 65 29 129.5t26 129.5q47 -2 93 -3.5t94 -1.5q47 0 95 2.5t96 2.5q109 0 181.5 -23t111.5 -65.5t47 -104t-11 -138.5q-17 -67 -50 -119.5t-77 -92.5t-96.5 -68t-107.5 -45.5t-110 -25.5t-104 -8q-42 0 -82.5 2.5t-82.5 2.5
q-43 0 -85 -1.5t-85 -3.5q20 65 39.5 129.5t35.5 129.5l28 111h-58.5t-64.5 -2q2 5 4 10.5t3 10.5q3 9 3 20q35 -2 64 -2h58z" />
    <glyph glyph-name="Ntilde" unicode="&#xd1;" horiz-adv-x="810" 
d="M634 -18q-110 135 -238.5 275.5t-254.5 277.5q-9 -28 -22 -75.5t-33 -127.5q-5 -21 -12.5 -52t-15 -65t-15.5 -69t-14 -65t-10.5 -53t-5.5 -33q-22 5 -42 5q-11 0 -22.5 -1.5t-24.5 -3.5q5 12 15 39.5t22 65t25.5 81.5t26.5 88t24.5 86t19.5 75q24 95 41 164.5t23 103.5
h20q60 -66 128 -141.5t135 -149t128 -139t106 -111.5q17 67 34 136.5t33 137t30 132t25 122.5q22 -5 42 -5q10 0 20 1.5t21 3.5q-9 -22 -23.5 -66t-29.5 -94t-29 -98t-21 -77q-10 -38 -23.5 -94t-27 -111.5t-24 -100.5t-14.5 -62h-17zM302 756q8 18 22 36t33.5 33t44.5 24.5
t55 9.5q11 0 20 -1t18.5 -3.5t20.5 -7t27 -11.5q31 -14 45.5 -18.5t31.5 -4.5q29 0 50 15t33 35h36q-5 -12 -17 -30t-32 -35.5t-48 -29.5t-65 -12q-18 0 -38 5t-46 18q-30 14 -45.5 18.5t-30.5 4.5q-29 0 -44.5 -10t-33.5 -36h-37z" />
    <glyph glyph-name="Ograve" unicode="&#xd2;" horiz-adv-x="981" 
d="M812 340q21 83 9.5 143.5t-48.5 100t-95.5 58.5t-131.5 19t-141 -19t-124 -58.5t-97.5 -100t-62.5 -143.5t-9.5 -143.5t48 -100t95 -58.5t131.5 -19t141 19t124.5 58.5t98 100t62.5 143.5zM-1 340q21 85 71.5 151.5t124 112.5t165.5 70t195 24t183.5 -24t131 -70
t68.5 -112.5t-3 -151.5t-72 -151.5t-124.5 -112.5t-166 -70t-195.5 -24t-183 24t-130.5 70t-68 112.5t3.5 151.5zM437 825q-7 4 -14 8.5t-12 10t-7.5 12.5t-0.5 16q5 16 21 24t28 8q14 0 27 -6.5t23 -17.5l147 -149h-52z" />
    <glyph glyph-name="Oacute" unicode="&#xd3;" horiz-adv-x="981" 
d="M808 340q21 83 9.5 143.5t-48.5 100t-95.5 58.5t-131.5 19t-141 -19t-124 -58.5t-97.5 -100t-62.5 -143.5t-9.5 -143.5t48 -100t95 -58.5t131.5 -19t141 19t124.5 58.5t98 100t62.5 143.5zM-5 340q21 85 71.5 151.5t124 112.5t165.5 70t195 24t183.5 -24t131 -70
t68.5 -112.5t-3 -151.5t-72 -151.5t-124.5 -112.5t-166 -70t-195.5 -24t-183 24t-130.5 70t-68 112.5t3.5 151.5zM695 880q16 11 32 17.5t30 6.5q12 0 24.5 -8t8.5 -24q-5 -18 -22 -28.5t-34 -18.5l-208 -94h-52z" />
    <glyph glyph-name="Ocircumflex" unicode="&#xd4;" horiz-adv-x="985" 
d="M813 340q21 83 9.5 143.5t-48.5 100t-95.5 58.5t-131.5 19t-141 -19t-124 -58.5t-97.5 -100t-62.5 -143.5t-9.5 -143.5t48 -100t95 -58.5t131.5 -19t141 19t124.5 58.5t98 100t62.5 143.5zM0 340q21 85 71.5 151.5t124 112.5t165.5 70t195 24t183.5 -24t131 -70
t68.5 -112.5t-3 -151.5t-72.5 -151.5t-125 -112.5t-166 -70t-195.5 -24t-183 24t-130 70t-67.5 112.5t3.5 151.5zM590 836l-175 -105h-46l196 167h83l112 -167h-46z" />
    <glyph glyph-name="Otilde" unicode="&#xd5;" horiz-adv-x="985" 
d="M817 340q21 83 9.5 143.5t-48.5 100t-95.5 58.5t-131.5 19t-141 -19t-124 -58.5t-97.5 -100t-62.5 -143.5t-9.5 -143.5t48 -100t95 -58.5t131.5 -19t141.5 19t124.5 58.5t97.5 100t62.5 143.5zM3 340q21 85 72 151.5t124.5 112.5t165.5 70t195 24t183.5 -24t131.5 -70
t68.5 -112.5t-3.5 -151.5t-72 -151.5t-124.5 -112.5t-166 -70t-195.5 -24t-183 24t-130.5 70t-68.5 112.5t3 151.5zM370 756q8 18 22 36t33.5 33t44.5 24.5t55 9.5q11 0 20 -1t18.5 -3.5t20.5 -7t27 -11.5q31 -14 45.5 -18.5t31.5 -4.5q29 0 50 15t33 35h36q-5 -12 -17 -30
t-32 -35.5t-48 -29.5t-65 -12q-18 0 -38 5t-46 18q-30 14 -45.5 18.5t-30.5 4.5q-29 0 -44.5 -10t-33.5 -36h-37z" />
    <glyph glyph-name="Odieresis" unicode="&#xd6;" horiz-adv-x="985" 
d="M817 340q21 83 9.5 143.5t-48 100t-95.5 58.5t-132 19t-140.5 -19t-124 -58.5t-98 -100t-62.5 -143.5t-9.5 -143.5t48 -100t95 -58.5t131.5 -19t141.5 19t124.5 58.5t97.5 100t62.5 143.5zM3 340q21 85 72.5 151.5t125 112.5t165.5 70t195 24t183.5 -24t131 -70
t68 -112.5t-3.5 -151.5t-72 -151.5t-124.5 -112.5t-166 -70t-195.5 -24t-183 24t-130.5 70t-68.5 112.5t3 151.5zM648 809q5 21 28 36t49 15t40.5 -15t9.5 -36t-27 -36t-48 -15t-41.5 15t-10.5 36zM402 809q5 21 27.5 36t48.5 15t41 -15t10 -36t-27.5 -36t-48.5 -15t-41 15
t-10 36z" />
    <glyph glyph-name="multiply" unicode="&#xd7;" horiz-adv-x="628" 
d="M268 253l-184 185l55 36l184 -184l277 184l36 -36l-276 -185l184 -184l-55 -37l-185 184l-276 -184l-35 37z" />
    <glyph glyph-name="Oslash" unicode="&#xd8;" horiz-adv-x="997" 
d="M808 582q-37 41 -96 60t-134 19q-73 0 -140.5 -19t-124 -58.5t-98 -100t-62.5 -143.5q-18 -73 -11 -128.5t33 -93.5zM30 340q21 85 72.5 151.5t125 112.5t165.5 70t195 24q90 0 161 -17.5t121 -52.5q13 9 33.5 24t41 30.5t37.5 29.5t23 20q9 -14 29 -24q-9 -4 -26.5 -16
t-38 -26.5t-41 -29.5t-35.5 -25q56 -46 76.5 -114t-2.5 -157q-21 -85 -72 -151.5t-124.5 -112.5t-166 -70t-195.5 -24q-88 0 -158.5 17.5t-120.5 50.5q-15 -11 -35 -26l-40 -30t-37 -28.5t-26 -22.5q-7 14 -29 24q8 4 25 15.5t37.5 26.5t41.5 31t38 28q-57 45 -77 113.5
t2 158.5zM192 96q36 -39 94 -58t132 -19q73 0 141.5 19t124.5 58.5t97.5 100t62.5 143.5q18 72 12 126t-32 94z" />
    <glyph glyph-name="Ugrave" unicode="&#xd9;" horiz-adv-x="791" 
d="M666 360q35 142 53.5 219t20.5 106q25 -5 50 -5q17 0 39 5q-12 -35 -28 -83.5t-33 -104t-34 -114t-32 -113.5q-17 -66 -54.5 -119.5t-92 -91t-125.5 -57.5t-155 -20q-186 0 -254.5 70t-31.5 216q11 47 23.5 83.5t21.5 74.5q21 83 34.5 149l22.5 110q14 -2 31.5 -3.5
t32.5 -1.5q27 0 55 5q-9 -22 -20.5 -57.5t-25 -80.5t-27.5 -97.5t-28 -107.5q-9 -34 -16.5 -70.5t-8.5 -71t8 -66t34.5 -55t69.5 -37t114 -13.5q68 0 119 16t87.5 42t61.5 60t42 71t27.5 73.5t18.5 68.5zM345 825q-7 4 -14 8.5t-12 10t-7.5 12.5t-0.5 16q5 16 21 24t28 8
q14 0 27 -6.5t23 -17.5l147 -149h-52z" />
    <glyph glyph-name="Uacute" unicode="&#xda;" horiz-adv-x="790" 
d="M659 360q35 142 53.5 219t20.5 106q25 -5 50 -5q17 0 39 5q-12 -35 -28 -83.5t-33 -104t-34 -114t-32 -113.5q-17 -66 -54.5 -119.5t-92 -91t-125.5 -57.5t-155 -20q-186 0 -254.5 70t-31.5 216q11 47 23.5 83.5t21.5 74.5q21 83 34.5 149l22.5 110q14 -2 31.5 -3.5
t32.5 -1.5q27 0 55 5q-9 -22 -20.5 -57.5t-25 -80.5t-27.5 -97.5t-28 -107.5q-8 -34 -16 -70.5t-9 -71t8 -66t34.5 -55t69.5 -37t114 -13.5q68 0 119 16t87.5 42t61.5 60t42 71t27.5 73.5t18.5 68.5zM600 880q16 11 32 17.5t30 6.5q12 0 24.5 -8t8.5 -24q-5 -18 -22 -28.5
t-34 -18.5l-208 -94h-52z" />
    <glyph glyph-name="Ucircumflex" unicode="&#xdb;" horiz-adv-x="795" 
d="M666 360q35 142 53.5 219t20.5 106q25 -5 49 -5q18 0 40 5q-13 -35 -28.5 -83.5t-32.5 -104t-34 -114t-32 -113.5q-17 -66 -54.5 -119.5t-92.5 -91t-126 -57.5t-155 -20q-186 0 -254 70t-31 216q11 47 23.5 83.5t21.5 74.5q20 83 34 149t23 110q14 -2 31 -3.5t32 -1.5
q28 0 56 5q-9 -22 -20.5 -57.5t-25 -80.5t-27.5 -97.5t-28 -107.5q-9 -34 -16.5 -70.5t-8.5 -71t8 -66t34.5 -55t69.5 -37t114 -13.5q68 0 119 16t87.5 42t61.5 60t42 71t27.5 73.5t18.5 68.5zM497 836l-175 -105h-46l196 167h83l112 -167h-46z" />
    <glyph glyph-name="Udieresis" unicode="&#xdc;" horiz-adv-x="796" 
d="M670 360q36 142 54 219t20 106q12 -2 24.5 -3.5t25.5 -1.5q19 0 39 5q-12 -35 -28 -83.5t-33 -104t-33.5 -114t-31.5 -113.5q-17 -66 -54.5 -119.5t-92.5 -91t-126 -57.5t-155 -20q-186 0 -254 70t-32 216q11 47 23.5 83.5t22.5 74.5q20 83 34 149t22 110q15 -2 32 -3.5
t32 -1.5q14 0 28.5 1.5t26.5 3.5q-8 -22 -19.5 -57.5t-25 -80.5t-27.5 -97.5t-28 -107.5q-8 -34 -16 -70.5t-9 -71t8 -66t34.5 -55t69.5 -37t114 -13.5q68 0 119 16t87.5 42t61.5 60t42 71t27 73.5t18 68.5zM555 809q5 21 28 36t49 15t40.5 -15t9.5 -36t-27 -36t-48 -15
t-41.5 15t-10.5 36zM309 809q5 21 27.5 36t48.5 15t41 -15t10 -36t-27.5 -36t-48.5 -15t-41 15t-10 36z" />
    <glyph glyph-name="Yacute" unicode="&#xdd;" horiz-adv-x="724" 
d="M268 279q-8 17 -23.5 49.5t-35 72.5t-41 83.5t-41 82.5t-36 70.5t-25.5 47.5q17 -2 33.5 -3.5t33.5 -1.5t35 1.5t36 3.5q32 -86 70 -171t80 -175q39 36 80.5 79t83.5 88t82.5 90.5t76.5 88.5q12 -2 23.5 -3.5t23.5 -1.5q23 0 51 5q-78 -73 -140 -132t-111 -107t-86 -86.5
t-65 -69.5q-9 -37 -18.5 -79t-18.5 -82t-16 -75.5t-10 -58.5q-16 2 -30.5 3.5t-29.5 1.5t-30.5 -1.5t-31.5 -3.5q20 54 40 128.5t40 155.5zM565 870q15 11 31.5 17.5t30.5 6.5q12 0 24.5 -8t8.5 -24q-5 -18 -22.5 -28.5t-34.5 -18.5l-207 -94h-52z" />
    <glyph glyph-name="Thorn" unicode="&#xde;" horiz-adv-x="582" 
d="M128 232q14 -2 40.5 -3t55.5 -1q40 0 80.5 9t74.5 27.5t59 47t35 67.5q6 25 2.5 50t-22 44.5t-53.5 31.5t-90 12h-111zM73 426q16 65 29 129.5t26 129.5q16 -2 30.5 -3.5t29.5 -1.5t30.5 1.5t32.5 3.5q-12 -33 -23.5 -65.5t-19.5 -65.5h154q63 0 110.5 -10t77 -31.5
t40 -54.5t-1.5 -78q-14 -55 -50 -91.5t-85.5 -58t-107 -30.5t-112.5 -9q-34 0 -61.5 1t-53.5 3l-14 -56q-5 -22 -10 -43.5t-9 -41t-6 -35t-1 -24.5q-15 2 -29.5 3.5t-29.5 1.5q-14 0 -30 -1.5t-33 -3.5q20 65 39 129.5t35 129.5z" />
    <glyph glyph-name="germandbls" unicode="&#xdf;" horiz-adv-x="620" 
d="M56 406q12 47 18 78.5t9 42.5q15 62 50 105.5t79 70.5t92 39.5t89 12.5q28 0 58.5 -8t53.5 -23t35.5 -36t6.5 -46q-6 -26 -22.5 -47.5t-37.5 -41t-44.5 -36t-43.5 -32t-34.5 -30.5t-18.5 -30q-6 -23 9.5 -41t40.5 -34.5t55.5 -33t54.5 -37t37.5 -46.5t4.5 -61
q-8 -33 -36.5 -66t-69 -60t-89 -44t-96.5 -17q-41 0 -71.5 6.5t-48.5 16.5q11 11 21.5 28t15.5 31h7q8 -18 40 -31.5t70 -13.5q26 0 52 7.5t48.5 21t38.5 33.5t22 44q8 32 -5.5 56t-38 43.5t-55 37t-55 36t-39 40t-7.5 49.5q5 19 22 37.5t40 36t49 36t50 38.5t41.5 42.5
t24.5 49.5q11 40 -15 66.5t-84 26.5q-86 0 -132.5 -52.5t-71.5 -152.5l-58 -235q-9 -35 -18 -74.5t-17.5 -78.5t-15.5 -74.5t-11 -60.5q-28 5 -55 5q-14 0 -27.5 -1.5t-28.5 -3.5q9 25 19.5 60.5t21.5 74.5t21 78.5t19 74.5z" />
    <glyph glyph-name="agrave" unicode="&#xe0;" horiz-adv-x="569" 
d="M99 425q65 34 115.5 46t100.5 12q45 0 79.5 -10.5t56.5 -30t30 -47t0 -60.5q-14 -57 -30.5 -113.5t-32.5 -119.5q-3 -12 -6 -25.5t-1 -24t10.5 -17.5t26.5 -7q5 0 12 0.5t15 3.5l-5 -22q-15 -5 -37.5 -9.5t-46.5 -4.5q-41 0 -57 18t-13 44q-27 -18 -52 -31.5t-50.5 -23
t-53 -14t-59.5 -4.5q-31 0 -58.5 8.5t-47 24.5t-28 38.5t-1.5 51.5q15 60 70 93t139 44q70 9 110 15.5t60 13.5t26 16.5t10 24.5q6 25 4 48t-14 40t-36 27.5t-61 10.5q-50 0 -97 -18t-77 -50h-14zM364 247q-35 -9 -81 -14t-89.5 -16t-77.5 -32.5t-44 -62.5
q-6 -24 -1.5 -41.5t16.5 -29.5t30 -18t39 -6q48 0 92 21t73 49zM211 653q-6 4 -13 8.5t-12 10t-7.5 12.5t-0.5 16q4 16 20.5 24t28.5 8q14 0 27 -6.5t24 -17.5l146 -149h-52z" />
    <glyph glyph-name="aacute" unicode="&#xe1;" horiz-adv-x="565" 
d="M84 425q65 34 115.5 46t100.5 12q45 0 79.5 -10.5t56.5 -30t30 -47t0 -60.5q-14 -57 -30.5 -113.5t-32.5 -119.5q-3 -12 -6 -25.5t-1 -24t10.5 -17.5t26.5 -7q5 0 12 0.5t15 3.5l-5 -22q-15 -5 -37.5 -9.5t-46.5 -4.5q-41 0 -57 18t-13 44q-27 -18 -52 -31.5t-50.5 -23
t-53 -14t-59.5 -4.5q-31 0 -58.5 8.5t-47 24.5t-28 38.5t-1.5 51.5q15 60 70 93t139 44q70 9 110 15.5t60 13.5t26 16.5t10 24.5q6 25 4 48t-14 40t-36 27.5t-61 10.5q-50 0 -97 -18t-77 -50h-14zM349 247q-35 -9 -81 -14t-89.5 -16t-77.5 -32.5t-44 -62.5
q-6 -24 -1.5 -41.5t16.5 -29.5t30 -18t39 -6q48 0 92 21t73 49zM459 708q15 11 31.5 17.5t30.5 6.5q12 0 24.5 -8t8.5 -24q-5 -18 -22.5 -28.5t-34.5 -18.5l-206 -94h-53z" />
    <glyph glyph-name="acircumflex" unicode="&#xe2;" horiz-adv-x="571" 
d="M95 425q65 34 115 46t100 12q45 0 80 -10.5t57 -30t30 -47t0 -60.5q-14 -57 -31 -113.5t-33 -119.5q-3 -12 -5.5 -25.5t-0.5 -24t10.5 -17.5t26.5 -7q5 0 12 0.5t15 3.5l-6 -22q-14 -5 -36.5 -9.5t-46.5 -4.5q-41 0 -57 18t-14 44q-27 -18 -52 -31.5t-50.5 -23t-53 -14
t-59.5 -4.5q-31 0 -58.5 8.5t-46.5 24.5t-27.5 38.5t-1.5 51.5q15 60 70 93t139 44q70 9 110 15.5t60 13.5t26 16.5t10 24.5q6 25 4 48t-14 40t-36 27.5t-61 10.5q-50 0 -97 -18t-77 -50h-14zM360 247q-23 -6 -51.5 -10t-59 -8.5t-60 -11.5t-54.5 -19t-43 -30.5t-25 -45.5
q-6 -24 -1 -41.5t17 -29.5t30 -18t39 -6q48 0 92 21t73 49zM360 664l-176 -105h-46l196 167h84l111 -167h-46z" />
    <glyph glyph-name="atilde" unicode="&#xe3;" horiz-adv-x="578" 
d="M102 425q65 34 115.5 46t100.5 12q45 0 79.5 -10.5t56.5 -30t30 -47t0 -60.5q-14 -57 -30.5 -113.5t-32.5 -119.5q-3 -12 -6 -25.5t-1 -24t10.5 -17.5t26.5 -7q5 0 12 0.5t15 3.5l-5 -22q-15 -5 -37.5 -9.5t-46.5 -4.5q-41 0 -57 18t-13 44q-54 -36 -103 -54.5
t-113 -18.5q-31 0 -58.5 8.5t-46.5 24.5t-27.5 38.5t-1.5 51.5q15 60 70 93t139 44q70 9 110 15.5t60 13.5t26 16.5t10 24.5q6 25 4 48t-14 40t-36 27.5t-61 10.5q-50 0 -97 -18t-77 -50h-14zM367 247q-35 -9 -81 -14t-89.5 -16t-77.5 -32.5t-44 -62.5q-6 -24 -1.5 -41.5
t16.5 -29.5t30 -18t39 -6q48 0 92 21t73 49zM142 584q8 18 22.5 36t34 33t44.5 24.5t55 9.5q11 0 19.5 -1t18 -3.5t20.5 -7t27 -11.5q31 -14 46 -18.5t31 -4.5q29 0 50 15t34 35h36q-5 -12 -17.5 -30t-32.5 -35.5t-48 -29.5t-65 -12q-18 0 -38 5t-46 18q-30 14 -45.5 18.5
t-30.5 4.5q-29 0 -44 -10t-33 -36h-38z" />
    <glyph glyph-name="adieresis" unicode="&#xe4;" horiz-adv-x="577" 
d="M103 425q65 34 115 46t100 12q45 0 79.5 -10.5t56.5 -30t30 -47t0 -60.5q-14 -57 -30.5 -113.5t-32.5 -119.5q-3 -12 -5.5 -25.5t-0.5 -24t10.5 -17.5t26.5 -7q5 0 12 0.5t15 3.5l-6 -22q-14 -5 -36.5 -9.5t-46.5 -4.5q-41 0 -57 18t-14 44q-27 -18 -52 -31.5t-50.5 -23
t-53 -14t-59.5 -4.5q-31 0 -58.5 8.5t-46.5 24.5t-27.5 38.5t-1.5 51.5q15 60 69.5 93t139.5 44q70 9 110 15.5t60 13.5t26 16.5t9 24.5q6 25 4.5 48t-13.5 40t-36 27.5t-61 10.5q-50 0 -97.5 -18t-76.5 -50h-14zM367 247q-34 -9 -80 -14t-90 -16t-78 -32.5t-44 -62.5
q-6 -24 -1.5 -41.5t16.5 -29.5t30 -18t39 -6q48 0 92.5 21t73.5 49zM421 637q5 21 27.5 36t48.5 15t41.5 -15t10.5 -36t-28 -36t-49 -15t-41 15t-10 36zM175 637q5 21 27.5 36t48.5 15t41 -15t10 -36t-27.5 -36t-48.5 -15t-41 15t-10 36z" />
    <glyph glyph-name="aring" unicode="&#xe5;" horiz-adv-x="571" 
d="M92 425q65 34 115.5 46t100.5 12q45 0 79.5 -10.5t56.5 -30t30 -47t0 -60.5q-14 -57 -30.5 -113.5t-32.5 -119.5q-3 -12 -6 -25.5t-1 -24t10.5 -17.5t26.5 -7q5 0 12 0.5t15 3.5l-5 -22q-15 -5 -37.5 -9.5t-46.5 -4.5q-41 0 -57 18t-13 44q-27 -18 -52 -31.5t-50.5 -23
t-53 -14t-59.5 -4.5q-31 0 -58.5 8.5t-47 24.5t-28 38.5t-1.5 51.5q15 60 70 93t139 44q70 9 110 15.5t60 13.5t26 16.5t10 24.5q6 25 4 48t-14 40t-36 27.5t-61 10.5q-50 0 -97 -18t-77 -50h-14zM357 247q-35 -9 -81 -14t-89.5 -16t-77.5 -32.5t-44 -62.5
q-6 -24 -1.5 -41.5t16.5 -29.5t30 -18t39 -6q48 0 92 21t73 49zM225 645q5 21 19.5 39.5t35.5 32.5t46 22t52 8q26 0 47.5 -8t35.5 -22t19.5 -32.5t0.5 -39.5t-20 -39.5t-36 -32.5t-46 -22t-52 -8q-26 0 -47.5 8t-35 22t-19 32.5t-0.5 39.5zM277 645q-6 -25 11.5 -42.5
t48.5 -17.5q32 0 58.5 17.5t32.5 42.5t-11 42.5t-49 17.5t-58.5 -17.5t-32.5 -42.5z" />
    <glyph glyph-name="ae" unicode="&#xe6;" horiz-adv-x="962" 
d="M109 122q-11 -43 14.5 -69t79.5 -26q25 0 51 6.5t49 20t41 33t26 46.5q9 29 16 57t15 57q-35 -9 -81 -14t-89.5 -16t-77.5 -32.5t-44 -62.5zM137 425q65 34 115.5 46t100.5 12q21 0 44 -3t45.5 -11.5t43 -23t35.5 -37.5q42 35 95.5 55t113.5 20q66 0 110.5 -16.5
t69.5 -44t31.5 -64.5t-3.5 -79l-12 -39q-68 1 -134 2t-133 1q-42 0 -82.5 -1t-82.5 -2q-2 -8 -4 -14.5t-4 -13.5q-10 -39 -4 -73t27.5 -58.5t58 -39t88.5 -14.5q25 0 53 5.5t55 15t52.5 22.5t45.5 28l5 -3l-19 -49q-22 -12 -49 -23t-56.5 -19.5t-60 -13.5t-59.5 -5
q-90 0 -149.5 30.5t-76.5 88.5q-16 -22 -39 -43.5t-54.5 -38t-72.5 -27t-93 -10.5q-32 0 -59.5 8.5t-46.5 24.5t-27.5 38.5t-1.5 51.5q15 60 70 93t140 44q70 9 109.5 15.5t59.5 13.5t26 16.5t10 24.5q6 25 4 48t-14 40t-35.5 27.5t-60.5 10.5q-50 0 -97.5 -18t-77.5 -50
h-13zM725 451q-46 0 -82.5 -17t-64 -42.5t-45.5 -56t-27 -57.5q38 -1 80.5 -2t81.5 -1q42 0 84.5 1t82.5 2q7 27 9 57t-8.5 56t-36 43t-74.5 17z" />
    <glyph glyph-name="ccedilla" unicode="&#xe7;" horiz-adv-x="564" 
d="M131 -175q13 -5 35.5 -8.5t51.5 -3.5q31 0 55.5 11t29.5 31q5 22 -11.5 31t-42.5 9q-40 0 -56 -7l-6 7l66 92q-50 3 -95 18.5t-75.5 45.5t-43 75t3.5 108q16 65 55 112t91.5 77.5t113.5 45t121 14.5q69 0 120 -13.5t70 -30.5q-12 -15 -23.5 -31.5t-21.5 -34.5h-10
q-5 13 -16.5 26.5t-29 25t-41 19t-53.5 7.5q-57 0 -101 -16.5t-77 -45.5t-54.5 -68.5t-33.5 -85.5q-26 -103 16.5 -155.5t147.5 -52.5q25 0 52.5 5.5t55 15t53 22.5t45.5 28l5 -3q-6 -12 -10.5 -24.5t-9.5 -24.5q-20 -11 -45 -21.5t-52 -18.5t-55.5 -13.5t-55.5 -6.5
l-42 -59q8 2 16.5 3.5t21.5 1.5q49 0 71.5 -19.5t14.5 -51.5q-5 -21 -21 -37t-39 -26.5t-51.5 -16t-58.5 -5.5q-39 0 -64.5 6t-42.5 11z" />
    <glyph glyph-name="egrave" unicode="&#xe8;" horiz-adv-x="607" 
d="M-3 220q15 61 46 109.5t76 82.5t103 52.5t127 18.5q66 0 110 -16.5t69 -44t31.5 -64.5t-3.5 -79q-2 -10 -5.5 -19.5t-6.5 -19.5q-68 1 -134 2t-133 1q-42 0 -82 -1t-82 -2q-6 -16 -9 -28q-10 -39 -4 -73t27.5 -58.5t58.5 -39t89 -14.5q25 0 52.5 5.5t54.5 15t52.5 22.5
t45.5 28l5 -3l-19 -49q-44 -24 -104.5 -42.5t-119.5 -18.5q-68 0 -119 18t-83.5 49.5t-43.5 74.5t1 93zM343 451q-46 0 -82.5 -17t-63.5 -42.5t-45 -56t-27 -57.5q38 -1 80 -2t82 -1q42 0 84 1t83 2q6 27 8 57t-8.5 56t-36 43t-74.5 17zM243 653q-6 4 -13 8.5t-12 10
t-7.5 12.5t-0.5 16q4 16 20.5 24t28.5 8q14 0 27 -6.5t24 -17.5l146 -149h-52z" />
    <glyph glyph-name="eacute" unicode="&#xe9;" horiz-adv-x="607" 
d="M-3 220q15 61 46 109.5t76 82.5t103 52.5t127 18.5q66 0 110 -16.5t69 -44t31.5 -64.5t-3.5 -79q-2 -10 -5.5 -19.5t-6.5 -19.5q-68 1 -134 2t-133 1q-42 0 -82 -1t-82 -2q-6 -16 -9 -28q-10 -39 -4 -73t27.5 -58.5t58.5 -39t89 -14.5q25 0 52.5 5.5t54.5 15t52.5 22.5
t45.5 28l5 -3l-19 -49q-44 -24 -104.5 -42.5t-119.5 -18.5q-68 0 -119 18t-83.5 49.5t-43.5 74.5t1 93zM343 451q-46 0 -82.5 -17t-63.5 -42.5t-45 -56t-27 -57.5q38 -1 80 -2t82 -1q42 0 84 1t83 2q6 27 8 57t-8.5 56t-36 43t-74.5 17zM506 708q15 11 31.5 17.5t30.5 6.5
q12 0 24.5 -8t8.5 -24q-5 -18 -22.5 -28.5t-34.5 -18.5l-206 -94h-53z" />
    <glyph glyph-name="ecircumflex" unicode="&#xea;" horiz-adv-x="613" 
d="M0 220q15 61 46 109.5t76 82.5t103 52.5t127 18.5q66 0 110.5 -16.5t69.5 -44t31.5 -64.5t-3.5 -79l-12 -39q-68 1 -134 2t-133 1q-42 0 -82 -1t-82 -2q-4 -8 -5.5 -14.5t-3.5 -13.5q-10 -39 -4 -73t27.5 -58.5t58.5 -39t89 -14.5q25 0 52 5.5t54 15t52.5 22.5t45.5 28
l6 -3l-20 -49q-44 -24 -104.5 -42.5t-119.5 -18.5q-68 0 -119 18t-83 49.5t-43.5 74.5t0.5 93zM346 451q-46 0 -82.5 -17t-63.5 -42.5t-45 -56t-27 -57.5q38 -1 80.5 -2t82.5 -1q42 0 84 1t82 2q7 27 8.5 57t-8.5 56t-36 43t-75 17zM400 664l-176 -105h-46l196 167h84
l111 -167h-46z" />
    <glyph glyph-name="edieresis" unicode="&#xeb;" horiz-adv-x="605" 
d="M1 220q15 61 46 109.5t76 82.5t103 52.5t127 18.5q66 0 110.5 -16.5t69.5 -44t31 -64.5t-4 -79q-2 -10 -5 -19.5t-6 -19.5q-68 1 -134.5 2t-133.5 1q-42 0 -81.5 -1t-81.5 -2q-4 -8 -5.5 -14.5t-3.5 -13.5q-10 -39 -4 -73t27 -58.5t58 -39t89 -14.5q25 0 52.5 5.5
t54.5 15t52.5 22.5t45.5 28l5 -3l-19 -49q-44 -24 -104.5 -42.5t-119.5 -18.5q-68 0 -119 18t-83.5 49.5t-43.5 74.5t1 93zM347 451q-46 0 -82.5 -17t-63.5 -42.5t-45 -56t-27 -57.5q38 -1 80 -2t82 -1q42 0 84.5 1t82.5 2q7 27 8.5 57t-8.5 56t-36 43t-75 17zM454 637
q5 21 27.5 36t48.5 15t41.5 -15t10.5 -36t-28 -36t-49 -15t-41 15t-10 36zM208 637q5 21 27.5 36t48.5 15t41 -15t10 -36t-27.5 -36t-48.5 -15t-41 15t-10 36z" />
    <glyph glyph-name="igrave" unicode="&#xec;" horiz-adv-x="306" 
d="M137 286q11 45 21.5 94.5t15.5 92.5q28 -5 55 -5q14 0 28 1.5t29 3.5q-16 -43 -31 -92.5t-26 -94.5l-26 -104q-11 -45 -21 -94.5t-15 -92.5q-14 2 -27.5 3.5t-27.5 1.5t-28.5 -1.5t-28.5 -3.5q16 43 30.5 92.5t25.5 94.5zM125 653q-7 4 -13.5 8.5t-12 10t-7.5 12.5t0 16
q4 16 20.5 24t28.5 8q14 0 26.5 -6.5t23.5 -17.5l146 -149h-52z" />
    <glyph glyph-name="iacute" unicode="&#xed;" horiz-adv-x="306" 
d="M36 286q11 45 21.5 94.5t15.5 92.5q28 -5 55 -5q14 0 28 1.5t29 3.5q-16 -43 -31 -92.5t-26 -94.5l-26 -104q-11 -45 -21 -94.5t-15 -92.5q-14 2 -27.5 3.5t-27.5 1.5t-28 -1.5t-28 -3.5q16 43 30 92.5t25 94.5zM287 708q15 11 31.5 17.5t30.5 6.5q12 0 24.5 -8t8.5 -24
q-5 -18 -22.5 -28.5t-34.5 -18.5l-208 -94h-52z" />
    <glyph glyph-name="icircumflex" unicode="&#xee;" horiz-adv-x="411" 
d="M140 286q11 45 21 94.5t16 92.5q28 -5 54 -5q14 0 28.5 1.5t29.5 3.5q-17 -43 -31.5 -92.5t-25.5 -94.5l-26 -104q-11 -45 -21 -94.5t-16 -92.5q-14 2 -27 3.5t-27 1.5t-29 -1.5t-29 -3.5q17 43 31.5 92.5t25.5 94.5zM280 664l-175 -105h-46l196 167h83l112 -167h-46z
" />
    <glyph glyph-name="idieresis" unicode="&#xef;" horiz-adv-x="403" 
d="M141 286q11 45 21 94.5t15 92.5q14 -2 27.5 -3.5t27.5 -1.5t28.5 1.5t28.5 3.5q-16 -43 -30.5 -92.5t-25.5 -94.5l-26 -104q-11 -45 -21.5 -94.5t-15.5 -92.5q-14 2 -27.5 3.5t-27.5 1.5t-28.5 -1.5t-28.5 -3.5q16 43 31 92.5t26 94.5zM334 637q5 21 28 36t49 15
t40.5 -15t9.5 -36t-27 -36t-48 -15t-41.5 15t-10.5 36zM88 637q5 21 27.5 36t48.5 15t41 -15t10 -36t-27.5 -36t-48.5 -15t-41 15t-10 36z" />
    <glyph glyph-name="eth" unicode="&#xf0;" horiz-adv-x="678" 
d="M499 234q10 42 10.5 81t-14.5 69.5t-48 48.5t-88 18q-56 0 -97.5 -18t-71.5 -48.5t-49.5 -69.5t-29.5 -81q-11 -42 -11 -81t14.5 -69.5t47 -48.5t88.5 -18q55 0 97 18t72 48.5t49.5 69.5t30.5 81zM1 234q17 68 56 115.5t89.5 77t108.5 43t112 13.5q16 0 30.5 -1t28.5 -6
l3 2q-30 34 -61 66.5t-66 64.5l-86 -22t-88 -23q-5 16 -17 36q39 8 80 16.5t85 18.5q-29 26 -60 51t-67 51l91 18q39 -26 73 -50t63 -47q47 11 89 22t80 22q5 -19 18 -35q-42 -8 -81 -16t-77 -17q133 -108 181 -203.5t23 -196.5q-17 -68 -56 -115.5t-90 -77t-108.5 -43
t-111.5 -13.5t-105 13.5t-87 43t-51.5 77t1.5 115.5z" />
    <glyph glyph-name="ntilde" unicode="&#xf1;" horiz-adv-x="573" 
d="M426 279q18 74 -9.5 113t-89.5 39q-88 0 -139 -43t-70 -121l-22 -85q-11 -45 -21 -94.5t-15 -92.5q-14 2 -27.5 3.5t-27.5 1.5t-28.5 -1.5t-28.5 -3.5q17 43 30.5 92.5t24.5 94.5l26 104q11 45 21.5 94.5t15.5 92.5q14 -2 28 -3.5t28 -1.5q9 0 22.5 1.5t28.5 3.5
q-8 -20 -13.5 -40t-10.5 -40h2q46 43 100 66.5t122 23.5q35 0 68.5 -8t57.5 -27.5t34 -53t-3 -85.5q-11 -43 -24.5 -88.5t-26.5 -96.5q-8 -33 -16 -65t-13 -64q-14 2 -26 3.5t-26 1.5q-13 0 -25.5 -1.5t-26.5 -3.5q16 55 33 110t31 113l16 61v0zM142 584q8 18 22 36t33.5 33
t44.5 24.5t55 9.5q11 0 20 -1t18.5 -3.5t20.5 -7t27 -11.5q31 -14 45.5 -18.5t31.5 -4.5q29 0 50 15t33 35h36q-5 -12 -17 -30t-32 -35.5t-48 -29.5t-65 -12q-18 0 -38.5 5t-46.5 18q-29 14 -44.5 18.5t-30.5 4.5q-29 0 -45 -10t-33 -36h-37z" />
    <glyph glyph-name="ograve" unicode="&#xf2;" horiz-adv-x="669" 
d="M0 234q16 68 55 115.5t89.5 77t108.5 43t112 13.5t105 -13.5t87 -43t51.5 -77t-1.5 -115.5t-56 -115.5t-90 -77t-108.5 -43t-111.5 -13.5t-105 13.5t-87 43t-51 77t2 115.5zM109 234q-11 -42 -11 -81t14.5 -69.5t47 -48.5t88.5 -18q55 0 97 18t72 48.5t49.5 69.5t30.5 81
q10 42 10.5 81t-14.5 69.5t-48 48.5t-88 18q-56 0 -97.5 -18t-71.5 -48.5t-49.5 -69.5t-29.5 -81zM257 653q-6 4 -13 8.5t-12 10t-7.5 12.5t-0.5 16q4 16 20.5 24t28.5 8q14 0 26.5 -6.5t23.5 -17.5l147 -149h-52z" />
    <glyph glyph-name="oacute" unicode="&#xf3;" horiz-adv-x="670" 
d="M0 234q17 68 56 115.5t89.5 77t108.5 43t112 13.5t105 -13.5t87 -43t51.5 -77t-1.5 -115.5t-56 -115.5t-90 -77t-108.5 -43t-111.5 -13.5t-105 13.5t-87 43t-51.5 77t1.5 115.5zM110 234q-11 -42 -11 -81t14.5 -69.5t47 -48.5t88.5 -18q55 0 97 18t72 48.5t49.5 69.5
t30.5 81q10 42 10.5 81t-14.5 69.5t-48 48.5t-88 18q-56 0 -97.5 -18t-71.5 -48.5t-49.5 -69.5t-29.5 -81zM521 708q15 11 31.5 17.5t30.5 6.5q12 0 24.5 -8t8.5 -24q-5 -18 -22.5 -28.5t-34.5 -18.5l-207 -94h-52z" />
    <glyph glyph-name="ocircumflex" unicode="&#xf4;" horiz-adv-x="677" 
d="M3 234q17 68 56 115.5t90 77t108.5 43t111.5 13.5t105.5 -13.5t87.5 -43t51 -77t-2 -115.5t-56 -115.5t-89.5 -77t-108.5 -43t-112 -13.5t-105 13.5t-87 43t-51.5 77t1.5 115.5zM113 234q-11 -42 -11 -81t15 -69.5t47.5 -48.5t88.5 -18q55 0 97 18t72 48.5t49 69.5t30 81
q10 42 10.5 81t-14.5 69.5t-48 48.5t-88 18q-56 0 -97.5 -18t-71.5 -48.5t-49.5 -69.5t-29.5 -81zM415 664l-176 -105h-46l196 167h83l112 -167h-46z" />
    <glyph glyph-name="otilde" unicode="&#xf5;" horiz-adv-x="670" 
d="M5 234q17 68 56 115.5t89.5 77t108.5 43t112 13.5t105 -13.5t87 -43t51.5 -77t-1.5 -115.5t-56 -115.5t-90 -77t-109 -43t-112 -13.5t-105 13.5t-87 43t-51 77t2 115.5zM115 234q-11 -42 -11 -81t14.5 -69.5t47 -48.5t88.5 -18q55 0 97 18t72 48.5t49.5 69.5t30.5 81
q10 42 10 81t-15 69.5t-47.5 48.5t-87.5 18q-56 0 -97.5 -18t-71.5 -48.5t-49.5 -69.5t-29.5 -81zM191 584q8 18 22.5 36t34 33t44.5 24.5t55 9.5q11 0 19.5 -1t18 -3.5t20.5 -7t27 -11.5q31 -14 45.5 -18.5t31.5 -4.5q29 0 50 15t34 35h36q-5 -12 -17.5 -30t-32.5 -35.5
t-48 -29.5t-65 -12q-18 0 -38 5t-46 18q-30 14 -45.5 18.5t-30.5 4.5q-29 0 -44.5 -10t-33.5 -36h-37z" />
    <glyph glyph-name="odieresis" unicode="&#xf6;" horiz-adv-x="668" 
d="M3 234q17 68 56 115.5t89.5 77t108.5 43t112 13.5t105 -13.5t87 -43t51.5 -77t-1.5 -115.5t-56 -115.5t-89.5 -77t-108.5 -43t-112 -13.5t-105 13.5t-87 43t-51.5 77t1.5 115.5zM113 234q-11 -42 -11 -81t15 -69.5t47.5 -48.5t88.5 -18q55 0 97 18t72 48.5t49 69.5t30 81
q10 42 10.5 81t-14.5 69.5t-48 48.5t-88 18q-56 0 -97.5 -18t-71.5 -48.5t-49.5 -69.5t-29.5 -81zM468 637q5 21 27.5 36t48.5 15t41 -15t10 -36t-27.5 -36t-48.5 -15t-41 15t-10 36zM222 637q5 21 27 36t48 15t41.5 -15t10.5 -36t-28 -36t-49 -15t-40.5 15t-9.5 36z" />
    <glyph glyph-name="divide" unicode="&#xf7;" horiz-adv-x="643" 
d="M11 279h632l-13 -52h-631zM298 449q6 23 31.5 40t54.5 17t45.5 -17t10.5 -40q-5 -23 -30.5 -40t-54.5 -17t-45.5 17t-11.5 40zM201 57q5 23 30.5 40t54.5 17t45.5 -17t11.5 -40q-6 -23 -31.5 -40t-54.5 -17t-45.5 17t-10.5 40z" />
    <glyph glyph-name="oslash" unicode="&#xf8;" horiz-adv-x="707" 
d="M171 83q15 -30 47.5 -48t87.5 -18t97 18t72 48.5t49 69.5t30 81q9 37 10.5 71.5t-7.5 62.5zM57 234q17 68 56 115.5t89.5 77t108 43t111.5 13.5q51 0 98.5 -11t83.5 -37q36 25 67 48t42 34q7 -14 25 -22q-15 -8 -45.5 -29t-67.5 -48q32 -32 43.5 -76t-4.5 -108
q-17 -68 -56 -115.5t-89.5 -77t-108.5 -43t-112 -13.5q-53 0 -102 12.5t-86 40.5q-35 -26 -66 -48.5t-48 -36.5q-8 15 -26 21q6 3 18.5 11.5t28.5 20t34.5 25t36.5 27.5q-26 31 -36 73.5t5 102.5zM546 391q-14 27 -47.5 43.5t-84.5 16.5q-55 0 -96.5 -18t-71.5 -48.5
t-49.5 -69.5t-29.5 -81q-8 -34 -10.5 -65.5t4.5 -58.5z" />
    <glyph glyph-name="ugrave" unicode="&#xf9;" horiz-adv-x="559" 
d="M-19 149q14 53 24.5 90.5t20.5 74.5q8 35 17.5 76t19.5 83q12 -2 25.5 -3.5t25.5 -1.5t25 1.5t27 3.5q-20 -59 -41.5 -131.5t-39.5 -146.5q-13 -52 -9 -79.5t18 -41.5q13 -16 36.5 -26.5t60.5 -10.5q53 0 92.5 18.5t62.5 45.5q13 16 21.5 28.5t16 32.5t16.5 54t24 93
q11 41 21 84.5t18 79.5q12 -2 24.5 -3.5t26.5 -1.5t26.5 1.5t25.5 3.5q-25 -78 -44.5 -151t-39.5 -153q-11 -45 -20.5 -88.5t-17.5 -85.5q-12 2 -24 3.5t-24 1.5q-22 0 -50 -5q8 22 13.5 43.5t10.5 42.5h-3q-43 -47 -100.5 -71.5t-117.5 -24.5q-98 0 -143 43t-25 121z
M209 653q-6 4 -13 8.5t-12 10t-7.5 12.5t-0.5 16q4 16 20.5 24t28.5 8q14 0 26.5 -6.5t23.5 -17.5l147 -149h-52z" />
    <glyph glyph-name="uacute" unicode="&#xfa;" horiz-adv-x="559" 
d="M-33 149q14 53 25 90.5t20 74.5q8 35 17.5 76t19.5 83q12 -2 25.5 -3.5t25.5 -1.5t25 1.5t27 3.5q-20 -59 -41.5 -131.5t-39.5 -146.5q-13 -52 -9 -79.5t18 -41.5q13 -16 36.5 -26.5t60.5 -10.5q53 0 92.5 18.5t62.5 45.5q13 16 21.5 28.5t16 32.5t16.5 54t24 93
q11 41 21 84.5t18 79.5q12 -2 24.5 -3.5t26.5 -1.5t26.5 1.5t25.5 3.5q-25 -78 -44.5 -151t-39.5 -153q-11 -45 -20.5 -88.5t-17.5 -85.5q-12 2 -24 3.5t-24 1.5q-22 0 -50 -5q8 22 13.5 43.5t10.5 42.5h-3q-43 -47 -100.5 -71.5t-117.5 -24.5q-98 0 -143 43t-25 121z
M458 708q15 11 31.5 17.5t30.5 6.5q12 0 24.5 -8t8.5 -24q-5 -18 -22.5 -28.5t-34.5 -18.5l-207 -94h-52z" />
    <glyph glyph-name="ucircumflex" unicode="&#xfb;" horiz-adv-x="565" 
d="M-22 149q14 53 24.5 90.5t19.5 74.5q9 35 18.5 76t19.5 83q12 -2 25.5 -3.5t25.5 -1.5t25 1.5t27 3.5q-20 -59 -41.5 -131.5t-39.5 -146.5q-14 -52 -9.5 -79.5t17.5 -41.5q14 -16 37.5 -26.5t60.5 -10.5q53 0 92.5 18.5t62.5 45.5q13 16 21.5 28.5t16 32.5t16.5 54t24 93
q10 41 20.5 84.5t18.5 79.5q12 -2 24.5 -3.5t26.5 -1.5t26.5 1.5t25.5 3.5q-25 -78 -44.5 -151t-39.5 -153q-11 -45 -20.5 -88.5t-17.5 -85.5q-13 2 -24.5 3.5t-23.5 1.5t-25 -1.5t-25 -3.5q8 22 13.5 43.5t10.5 42.5h-3q-43 -47 -101 -71.5t-118 -24.5q-98 0 -142.5 43
t-24.5 121zM359 664l-176 -105h-46l196 167h83l112 -167h-46z" />
    <glyph glyph-name="udieresis" unicode="&#xfc;" horiz-adv-x="572" 
d="M-13 149q12 53 23.5 90.5t20.5 74.5q9 35 18.5 76t19.5 83q12 -2 25 -3.5t25 -1.5t25.5 1.5t27.5 3.5q-20 -59 -41.5 -131.5t-40.5 -146.5q-13 -52 -8.5 -79.5t17.5 -41.5q14 -16 37.5 -26.5t60.5 -10.5q53 0 92.5 18.5t62.5 45.5q13 16 21.5 28.5t16 32.5t16.5 54t24 93
q10 41 20.5 84.5t18.5 79.5q12 -2 24 -3.5t26 -1.5t27 1.5t26 3.5q-25 -78 -44.5 -151t-39.5 -153q-11 -45 -21 -88.5t-18 -85.5q-12 2 -23.5 3.5t-23.5 1.5q-23 0 -51 -5q8 22 14 43.5t11 42.5h-3q-44 -47 -101.5 -71.5t-117.5 -24.5q-98 0 -142.5 43t-24.5 121zM421 637
q5 21 27.5 36t48.5 15t41 -15t10 -36t-27.5 -36t-48.5 -15t-41 15t-10 36zM175 637q5 21 27 36t48 15t41.5 -15t10.5 -36t-28 -36t-49 -15t-40.5 15t-9.5 36z" />
    <glyph glyph-name="yacute" unicode="&#xfd;" horiz-adv-x="585" 
d="M199 -6q-7 30 -18 73t-24 90.5t-26.5 97t-25.5 93t-21.5 76.5t-14.5 49q14 -2 27.5 -3.5t27.5 -1.5t29.5 1.5t30.5 3.5q14 -95 38.5 -189.5t51.5 -194.5q74 87 147 188t135 196q10 -2 19.5 -3.5t20.5 -1.5q18 0 43 5q-12 -14 -40 -47.5t-66.5 -80t-84.5 -103t-94 -116.5
t-95.5 -119.5t-88 -112t-72 -95t-47.5 -67.5q-20 5 -41 5q-18 0 -43 -5q66 66 123.5 131t108.5 131zM511 708q16 11 32 17.5t30 6.5q12 0 24.5 -8t8.5 -24q-5 -18 -22.5 -28.5t-34.5 -18.5l-207 -94h-52z" />
    <glyph glyph-name="thorn" unicode="&#xfe;" horiz-adv-x="614" 
d="M107 464q9 34 18 74t17.5 79t15.5 74.5t11 60.5q14 -2 27 -3.5t27 -1.5t29 1.5t29 3.5q-9 -25 -19.5 -60.5t-21.5 -74.5t-21.5 -79t-19.5 -74l-22 -89h3q13 16 34 34.5t50.5 35t68 27.5t85.5 11q48 0 90 -14.5t70.5 -44.5t38.5 -76.5t-6 -110.5t-51.5 -111t-81.5 -78.5
t-98.5 -47t-101.5 -15.5q-69 0 -111.5 25t-59.5 73h-3l-16 -63q-9 -35 -18 -74.5t-17.5 -78.5t-15.5 -74.5t-11 -60.5q-13 2 -26 3.5t-27 1.5t-28.5 -1.5t-29.5 -3.5q9 25 19.5 60.5t21.5 74.5t21.5 78.5t19.5 74.5zM502 238q15 60 9 99t-25 62.5t-47.5 32.5t-58.5 9
q-51 0 -90.5 -17t-69 -45.5t-49.5 -67t-30 -81.5q-26 -103 7.5 -155.5t123.5 -52.5q45 0 82 16.5t66 46t49.5 69t32.5 84.5z" />
    <glyph glyph-name="ydieresis" unicode="&#xff;" horiz-adv-x="588" 
d="M209 -6q-7 30 -18 73t-24 90.5t-27 97t-26 93t-21.5 76.5t-14.5 49q14 -2 28 -3.5t28 -1.5t29 1.5t30 3.5q15 -95 39 -189.5t51 -194.5q37 43 74 90.5t73 97t70.5 99.5t64.5 97q22 -5 41 -5q17 0 42 5q-12 -14 -40 -47.5t-66.5 -80t-84.5 -103t-94 -116.5t-95.5 -119.5
t-88 -112t-72 -95t-47.5 -67.5q-20 5 -40 5q-19 0 -44 -5q66 66 124 131t109 131zM464 637q5 21 28 36t49 15t40.5 -15t9.5 -36t-27.5 -36t-48.5 -15t-41 15t-10 36zM218 637q5 21 27.5 36t48.5 15t41 -15t10 -36t-28 -36t-49 -15t-40.5 15t-9.5 36z" />
    <glyph glyph-name="dotlessi" unicode="&#x131;" horiz-adv-x="192" 
d="M60 286q11 45 21.5 94.5t15.5 92.5q28 -5 55 -5q14 0 28 1.5t29 3.5q-16 -43 -31 -92.5t-26 -94.5l-25 -104q-11 -45 -21.5 -94.5t-15.5 -92.5q-14 2 -27.5 3.5t-27.5 1.5t-28 -1.5t-28 -3.5q16 43 30.5 92.5t25.5 94.5z" />
    <glyph glyph-name="Lslash" unicode="&#x141;" horiz-adv-x="602" 
d="M168 426q16 65 29 129.5t26 129.5q15 -2 29.5 -3.5t29.5 -1.5t30.5 1.5t32.5 3.5q-20 -65 -39.5 -129.5t-35.5 -129.5l-10 -39q34 14 70 30.5t77 35.5q4 -18 15 -36q-29 -11 -73.5 -29t-98.5 -40l-22 -90q-18 -72 -29 -122.5t-21 -93.5h86t84 1.5t86 4t92 7.5
q-5 -8 -8 -15t-5 -15q-4 -13 -2 -30q-57 2 -114 3.5t-114 1.5q-59 0 -116.5 -1.5t-116.5 -3.5q20 65 39.5 129.5t35.5 129.5l11 43q-42 -17 -72.5 -31.5t-43.5 -22.5q-4 16 -17 37q38 15 73 29l70 28z" />
    <glyph glyph-name="lslash" unicode="&#x142;" horiz-adv-x="334" 
d="M109 327q-32 -15 -60.5 -28t-39.5 -18q-3 8 -6.5 15t-9.5 14q28 12 60.5 26t65.5 29l24 99q9 34 18 74t17.5 79t15.5 74.5t11 60.5q28 -5 55 -5q14 0 28 1.5t29 3.5q-9 -25 -19.5 -60.5t-21.5 -74.5t-21.5 -79t-19.5 -74l-13 -51q31 14 56 25.5t46 22.5q-2 -8 3 -16.5
t13 -14.5q-17 -8 -48.5 -20.5t-78.5 -33.5l-23 -93q-9 -35 -18 -74.5t-17.5 -78.5t-15.5 -74.5t-11 -60.5q-14 2 -27 3.5t-27 1.5t-29 -1.5t-29 -3.5q9 25 19.5 60.5t21.5 74.5t21.5 78.5t19.5 74.5z" />
    <glyph glyph-name="OE" unicode="&#x152;" horiz-adv-x="1242" 
d="M874 238q-12 -49 -22 -98t-21 -98q69 0 120.5 1t89 2.5t62.5 3.5t40 4q-10 -14 -13 -29q-2 -8 -2.5 -14.5t0.5 -14.5q-52 2 -103.5 3.5t-104.5 1.5q-54 0 -107 -1.5t-109 -3.5q10 25 18 49t14 49l-3 2q-25 -18 -58.5 -38t-77.5 -36.5t-99.5 -27.5t-123.5 -11
q-89 0 -161.5 24t-119.5 68.5t-64.5 108.5t2.5 145q22 90 73 159t123 116t161 71t186 24q79 0 131 -13t84.5 -31t48.5 -36.5t24 -30.5l4 2q6 24 10 48t9 48q52 -2 102 -3.5t101 -1.5t102 1.5t102 3.5q-5 -8 -8.5 -15.5t-5.5 -15.5t-2 -15.5v-15.5q-18 3 -36.5 5.5t-50 5
t-81 3.5t-128.5 1q-13 -44 -26 -87.5t-24 -87.5l-20 -82q76 0 123.5 0.5t77 1.5t47 2.5t34.5 2.5q-4 -7 -7.5 -14t-5.5 -14t-1.5 -14t1.5 -14q-17 1 -34.5 2.5t-46.5 2.5t-76 1.5t-123 0.5zM156 340q-21 -83 -10 -143.5t45.5 -100t89.5 -58.5t121 -19q75 0 141 23t119 65.5
t90.5 101.5t55.5 131q22 88 13.5 149t-41 99t-85 55.5t-119.5 17.5q-71 0 -138 -19t-122.5 -58.5t-97 -100t-62.5 -143.5z" />
    <glyph glyph-name="oe" unicode="&#x153;" horiz-adv-x="1103" 
d="M535 234q10 42 10 81t-15 69.5t-48 48.5t-88 18q-56 0 -97.5 -18t-71.5 -48.5t-49.5 -69.5t-29.5 -81q-11 -42 -11 -81t14.5 -69.5t47 -48.5t88.5 -18q55 0 97.5 18t72.5 48.5t49.5 69.5t30.5 81zM870 483q66 0 110.5 -16.5t69.5 -44t31.5 -64.5t-3.5 -79l-12 -39
q-68 1 -134 2t-133 1q-42 0 -82.5 -1t-82.5 -2q-2 -8 -4 -14.5t-4 -13.5q-10 -39 -4 -73t27.5 -58.5t58 -39t88.5 -14.5q25 0 53 5.5t55 15t52.5 22.5t45.5 28l5 -3l-19 -49q-22 -12 -49 -23t-56.5 -19.5t-60 -13.5t-59.5 -5q-78 0 -134 23.5t-86 65.5q-55 -48 -126 -68.5
t-140 -20.5q-54 0 -105 13.5t-87 43t-51 77t2 115.5t56 115.5t89.5 77t108.5 43t112 13.5q69 0 128.5 -20.5t90.5 -66.5q46 42 109 64.5t140 22.5zM865 451q-46 0 -82.5 -17t-64 -42.5t-45.5 -56t-27 -57.5q38 -1 80.5 -2t81.5 -1q42 0 84.5 1t82.5 2q7 27 9 57t-8.5 56
t-36 43t-74.5 17z" />
    <glyph glyph-name="Scaron" unicode="&#x160;" horiz-adv-x="574" 
d="M-8 128q6 -18 18 -36.5t32.5 -33.5t50 -24.5t70.5 -9.5q42 0 78 11.5t64 31t46.5 46t26.5 56.5q9 34 -2.5 57.5t-35 40t-55.5 29t-66 24.5t-66 26.5t-54 36t-31.5 52t1.5 74.5q10 42 37.5 76.5t69 59.5t95.5 39t116 14q60 0 100.5 -11.5t72.5 -35.5q-16 -17 -28 -36
t-27 -48h-15q-3 14 -9.5 30.5t-20.5 30.5t-36.5 23.5t-57.5 9.5t-67 -9t-58 -25.5t-43.5 -39.5t-24.5 -50q-9 -35 2 -59t34.5 -40.5t56 -28.5t66.5 -24t66 -25.5t54.5 -34t32 -49t-0.5 -69.5q-11 -46 -42 -87t-78 -71.5t-108.5 -48.5t-133.5 -18q-39 0 -68.5 5t-52 13
t-39.5 18t-30 21q17 23 25.5 41.5t19.5 47.5h15zM563 898h47l-196 -167h-84l-112 167h47l124 -105z" />
    <glyph glyph-name="scaron" unicode="&#x161;" horiz-adv-x="447" 
d="M3 91q4 -10 14 -22t25.5 -22.5t36.5 -17.5t47 -7q24 0 47.5 6t43 17t34 28t20.5 39q6 23 -3 38t-27 25t-43 16.5t-51 13.5t-50 16t-41.5 23t-25 35t0.5 53q8 33 28.5 60.5t52 47.5t72.5 31.5t91 11.5q46 0 75.5 -10t56.5 -18q-7 -7 -14.5 -17t-14 -20t-11.5 -19t-7 -15
h-15q-4 24 -28.5 43t-66.5 19q-18 0 -38 -5t-38 -15t-31.5 -26t-19.5 -38q-8 -32 9.5 -49.5t48 -27.5t67 -18t66 -21t45 -37t5.5 -66q-7 -29 -30 -57t-58 -50.5t-80 -36.5t-97 -14q-58 0 -94 10.5t-59 22.5q11 13 25 35.5t18 37.5h14zM465 726h46l-196 -167h-83l-112 167h46
l124 -105z" />
    <glyph glyph-name="Ydieresis" unicode="&#x178;" horiz-adv-x="725" 
d="M275 279q-8 17 -24 49.5t-35.5 72.5t-40.5 83.5t-41 82.5t-36.5 70.5t-25.5 47.5q17 -2 34 -3.5t34 -1.5t34.5 1.5t35.5 3.5q32 -86 70 -171t81 -175q38 36 79.5 79t83.5 88t82.5 90.5t76.5 88.5q12 -2 24 -3.5t24 -1.5q22 0 50 5q-78 -73 -140 -132t-111 -107t-86 -86.5
t-65 -69.5q-9 -37 -18.5 -79t-18.5 -82t-16 -75.5t-10 -58.5q-15 2 -30 3.5t-30 1.5t-30 -1.5t-32 -3.5q20 54 40.5 128.5t40.5 155.5zM529 809q5 21 27.5 36t48.5 15t41.5 -15t10.5 -36t-28 -36t-49 -15t-41 15t-10 36zM283 809q5 21 27.5 36t48.5 15t41.5 -15t10.5 -36
t-28 -36t-49 -15t-41 15t-10 36z" />
    <glyph glyph-name="Zcaron" unicode="&#x17d;" horiz-adv-x="739" 
d="M-88 12q63 54 133 115.5t140.5 124.5t137.5 123.5t123.5 111.5t99 90t63.5 59q-23 1 -45.5 1.5t-42.5 0.5q-45 0 -100.5 -1t-111 -3.5t-106.5 -5t-87 -5.5q4 8 7.5 15.5t5.5 15.5t2.5 15.5t-0.5 15.5q31 -2 79 -3t115 -1q66 -1 147.5 -1h178.5q34 0 68.5 1.5t66.5 3.5
l-4 -18q-23 -16 -61 -47.5t-86 -72.5t-102.5 -89t-110.5 -98t-109.5 -98.5t-99 -90.5t-80.5 -75t-53 -51q29 -2 54 -2.5t49 -0.5q48 0 111 1.5t126.5 4t119.5 6t90 6.5q-11 -19 -15 -33q-2 -8 -2 -16t1 -16q-45 1 -83 2t-72.5 1.5t-68 1t-69.5 0.5q-49 0 -110.5 -0.5
t-121 -1t-108.5 -1.5t-73 -2zM635 898h46l-195 -167h-83l-113 167h46l124 -105z" />
    <glyph glyph-name="zcaron" unicode="&#x17e;" horiz-adv-x="578" 
d="M-64 9q67 52 138 111t138.5 116t127 108t102.5 87q-6 0 -26.5 -0.5t-50.5 -1.5t-66 -2.5t-72 -3.5t-69.5 -3.5t-57.5 -3.5q7 12 10 28q2 7 3 14t2 15q38 -3 116 -4t194 -1h48.5t41 1t38 1.5t38.5 2.5l-4 -15q-42 -35 -90.5 -74.5t-97.5 -80.5t-97 -81t-89.5 -75.5
t-75 -64t-53.5 -45.5q51 0 94.5 0.5t88 2t95 4t117.5 7.5q-7 -12 -12 -28q-2 -7 -2 -14v-14q-78 2 -155.5 3.5t-155.5 1.5q-56 0 -111 -1.5t-111 -3.5zM534 726h46l-196 -167h-83l-112 167h46l124 -105z" />
    <glyph glyph-name="florin" unicode="&#x192;" horiz-adv-x="570" 
d="M-57 -116q10 -5 23 -10.5t29 -5.5q25 0 43 8.5t33 24t27 37.5t25 50l172 371h-73t-62 -2q6 9 13 21t9 23q22 -2 58.5 -3.5t72.5 -1.5l28 51q19 36 49 76t67.5 73t82 54.5t93.5 21.5q8 0 20 -1.5t20 -3.5q-9 -15 -19.5 -37.5t-15.5 -44.5l-16 -4q-7 11 -22 20t-36 9
q-26 0 -49 -13.5t-44 -57.5l-66 -143q41 0 77 2t63 3q-7 -9 -14 -21t-10 -23q-26 2 -61 2h-73l-103 -219q-53 -112 -104 -179t-100 -102t-95 -46t-88 -11q28 45 37 79z" />
    <glyph glyph-name="circumflex" unicode="&#x2c6;" horiz-adv-x="431" 
d="M220 664l-175 -105h-45l194 167h83l113 -167h-46z" />
    <glyph glyph-name="caron" unicode="&#x2c7;" horiz-adv-x="428" 
d="M383 726h46l-195 -167h-83l-113 167h46l124 -105z" />
    <glyph glyph-name="breve" unicode="&#x2d8;" horiz-adv-x="417" 
d="M92 717q-1 -46 24 -71t87 -25q33 0 57 6.5t42.5 18.5t32.5 30t28 41h40q-8 -32 -26 -60.5t-45.5 -50.5t-63.5 -34.5t-79 -12.5q-44 0 -74 12.5t-46.5 34.5t-20.5 50.5t4 60.5h40z" />
    <glyph glyph-name="dotaccent" unicode="&#x2d9;" horiz-adv-x="213" 
d="M41 634q5 21 27.5 36t48.5 15t41.5 -15t10.5 -36t-28 -36t-49 -15t-41 15t-10 36z" />
    <glyph glyph-name="ring" unicode="&#x2da;" horiz-adv-x="336" 
d="M39 645q5 21 19.5 39.5t35.5 32.5t46.5 22t52.5 8q26 0 47.5 -8t35.5 -22t19.5 -32.5t0.5 -39.5t-20 -39.5t-36 -32.5t-46.5 -22t-52.5 -8q-26 0 -47.5 8t-35 22t-19 32.5t-0.5 39.5zM92 645q-7 -25 11 -42.5t49 -17.5q32 0 58 17.5t33 42.5q6 25 -12 42.5t-49 17.5
q-32 0 -58 -17.5t-32 -42.5z" />
    <glyph glyph-name="ogonek" unicode="&#x2db;" horiz-adv-x="263" 
d="M237 0q-42 -26 -68.5 -45.5t-42.5 -34t-22.5 -26t-9.5 -22.5q-4 -17 0.5 -28t15 -18t25 -10t29.5 -3q11 0 21 2t19 4l5 -33q-15 -5 -32.5 -7.5t-41.5 -2.5q-28 0 -52 5.5t-41.5 16t-25.5 26.5t-3 37q7 29 51 63t123 76h50z" />
    <glyph glyph-name="tilde" unicode="&#x2dc;" horiz-adv-x="475" 
d="M17 584q8 18 22.5 36t34 33t44.5 24.5t55 9.5q11 0 20 -1t18 -3.5t20.5 -7t26.5 -11.5q16 -7 27 -11.5t19 -7t15.5 -3.5t15.5 -1q29 0 50 15t34 35h36q-5 -12 -17.5 -30t-32.5 -35.5t-48 -29.5t-65 -12q-18 0 -38 5t-46 18q-29 14 -44.5 18.5t-30.5 4.5q-29 0 -45 -10
t-34 -36h-37z" />
    <glyph glyph-name="hungarumlaut" unicode="&#x2dd;" horiz-adv-x="574" 
d="M218 708q16 11 32 17.5t30 6.5q12 0 24.5 -8t8.5 -24q-5 -18 -22.5 -28.5t-34.5 -18.5l-207 -94h-51zM468 708q16 11 32 17.5t30 6.5q12 0 24.5 -8t8.5 -24q-5 -18 -22.5 -28.5t-34.5 -18.5l-207 -94h-52z" />
    <glyph glyph-name="endash" unicode="&#x2013;" horiz-adv-x="712" 
d="M48 254h625l-11 -47h-625z" />
    <glyph glyph-name="emdash" unicode="&#x2014;" horiz-adv-x="1336" 
d="M48 254h1250l-11 -47h-1250z" />
    <glyph glyph-name="quoteleft" unicode="&#x2018;" 
d="M80 448q-8 -13 -23 -25.5t-41 -12.5q-14 0 -28 8t-9 26q3 12 11.5 22t17.5 20l208 212l22 -7z" />
    <glyph glyph-name="quoteright" unicode="&#x2019;" 
d="M134 660q8 13 23.5 25.5t40.5 12.5q15 0 29 -8t10 -26q-3 -12 -11.5 -22t-18.5 -20l-207 -212l-22 7z" />
    <glyph glyph-name="quotesinglbase" unicode="&#x201a;" 
d="M134 75q8 13 23.5 25.5t40.5 12.5q15 0 29 -8t10 -26q-3 -12 -11.5 -22t-18.5 -20l-207 -212l-22 7z" />
    <glyph glyph-name="quotedblleft" unicode="&#x201c;" horiz-adv-x="459" 
d="M310 448q-8 -13 -23 -25.5t-41 -12.5q-8 0 -15.5 2t-13.5 6t-8.5 10.5t-0.5 15.5q3 12 11.5 22t17.5 20l209 212l21 -7zM95 448q-8 -13 -23 -25.5t-41 -12.5q-15 0 -28.5 8t-8.5 26q3 12 11 22t17 20l209 212l21 -7z" />
    <glyph glyph-name="quotedblright" unicode="&#x201d;" horiz-adv-x="459" 
d="M363 660q8 13 23 25.5t41 12.5q15 0 28.5 -8t9.5 -26q-3 -12 -11.5 -22t-18.5 -20l-208 -212l-21 7zM148 660q8 13 23 25.5t41 12.5q15 0 28.5 -8t9.5 -26q-3 -12 -11.5 -22t-18.5 -20l-208 -212l-20 7z" />
    <glyph glyph-name="quotedblbase" unicode="&#x201e;" horiz-adv-x="459" 
d="M363 75q8 13 23 25.5t41 12.5q15 0 28.5 -8t9.5 -26q-3 -12 -11.5 -22t-18.5 -20l-208 -212l-21 7zM148 75q8 13 23 25.5t41 12.5q15 0 28.5 -8t9.5 -26q-3 -12 -11.5 -22t-18.5 -20l-208 -212l-20 7z" />
    <glyph glyph-name="dagger" unicode="&#x2020;" horiz-adv-x="530" 
d="M249 449q7 30 15.5 64.5t16 67.5t12.5 60.5t5 43.5q13 -2 25 -3.5t26 -1.5q13 0 26.5 1.5t27.5 3.5q-8 -16 -17 -43.5t-18 -60.5t-18 -67.5t-16 -64.5q55 0 109 1t111 7q-10 -17 -16 -37q-5 -18 -3 -36q-54 6 -107.5 7t-108.5 1q-24 -100 -45 -198.5t-44 -198.5
q-12 2 -24.5 3.5t-25.5 1.5q-14 0 -27.5 -1.5t-27.5 -3.5q28 100 56.5 198.5t52.5 198.5q-54 0 -108.5 -1t-110.5 -7q10 18 15 36q6 18 4 37q53 -6 107 -7t108 -1z" />
    <glyph glyph-name="daggerdbl" unicode="&#x2021;" horiz-adv-x="536" 
d="M229 340q6 26 11 50.5t12 50.5q-56 0 -110.5 -1t-110.5 -7q10 18 15 36q4 19 3 37q53 -6 107 -7t108 -1q8 30 17 72.5t20 114.5q13 -2 25 -3.5t26 -1.5q13 0 26.5 1.5t27.5 3.5q-26 -72 -37.5 -114.5t-19.5 -72.5q55 0 109 1t111 7q-11 -18 -15 -37q-5 -18 -3 -36
q-54 6 -107.5 7t-109.5 1q-7 -26 -14 -50.5t-13 -50.5q-7 -26 -12 -50.5t-12 -50.5q56 0 110 1t111 7q-11 -18 -15 -37q-5 -18 -3 -36q-54 6 -107.5 7t-108.5 1q-8 -30 -17 -72.5t-20 -114.5q-12 2 -24.5 3.5t-25.5 1.5q-14 0 -27.5 -1.5t-27.5 -3.5q26 72 37.5 114.5
t19.5 72.5q-54 0 -108.5 -1t-109.5 -7q10 18 15 36q4 19 3 37q52 -6 106 -7t110 -1q7 26 14 50.5t14 50.5z" />
    <glyph glyph-name="bullet" unicode="&#x2022;" horiz-adv-x="485" 
d="M30 340q9 35 33 66t58.5 54t77 36.5t86.5 13.5t79 -13.5t58.5 -36.5t32.5 -54t0 -66t-33.5 -66t-59 -54t-76.5 -36.5t-86 -13.5t-79.5 13.5t-58.5 36.5t-32 54t0 66z" />
    <glyph glyph-name="ellipsis" unicode="&#x2026;" horiz-adv-x="1057" 
d="M41 45q3 12 11 22t20 18t26 12.5t29 4.5q29 0 45.5 -17t11.5 -40q-3 -12 -11.5 -22t-20.5 -18t-26 -12.5t-28 -4.5q-29 0 -46 17t-11 40zM458 45q5 23 30.5 40t54.5 17t45.5 -17t11.5 -40q-6 -23 -31.5 -40t-54.5 -17t-45.5 17t-10.5 40zM874 45q5 23 30.5 40t54.5 17
t45.5 -17t11.5 -40q-6 -23 -31.5 -40t-54.5 -17t-45.5 17t-10.5 40z" />
    <glyph glyph-name="perthousand" unicode="&#x2030;" horiz-adv-x="1214" 
d="M398 144q11 46 35 77t54.5 49.5t63.5 26t62 7.5t58 -7.5t50 -26t29.5 -49.5t-2.5 -77q-12 -46 -36 -77t-54 -49.5t-63 -26t-62 -7.5t-58 7.5t-50 26t-30 49.5t3 77zM483 144q-8 -30 -10 -55t4 -43t21 -28t41 -10t46 10t35 28t25 43t18 55q7 30 9 55t-3.5 43t-20.5 28
t-41 10t-46 -10t-35 -28t-25.5 -43t-17.5 -55zM803 144q11 46 35 77t54.5 49.5t63.5 26t62 7.5t58 -7.5t50 -26t29.5 -49.5t-2.5 -77q-12 -46 -36 -77t-54 -49.5t-63 -26t-62 -7.5t-58 7.5t-50 26t-30 49.5t3 77zM888 144q-8 -30 -10 -55t4 -43t21 -28t41 -10t46 10t35 28
t25 43t18 55q7 30 9 55t-3.5 43t-20.5 28t-41 10t-46 -10t-35 -28t-25.5 -43t-17.5 -55zM76 512q12 46 36 77t54 49.5t63 26t62 7.5t58 -7.5t50 -26t30 -49.5t-3 -77q-11 -46 -35 -77t-54.5 -49.5t-63.5 -26t-62 -7.5t-58 7.5t-50 26t-29.5 49.5t2.5 77zM161 512
q-7 -30 -9 -55t3.5 -43t20.5 -28t41 -10q52 0 81 38.5t43 97.5q7 30 9.5 55t-3.5 43t-21 28t-41 10t-46 -10t-35 -28t-25.5 -43t-17.5 -55zM717 695q15 -5 29 -5q12 0 30 5l-668 -734q-15 5 -28 5t-31 -5z" />
    <glyph glyph-name="guilsinglleft" unicode="&#x2039;" horiz-adv-x="237" 
d="M209 419q4 -10 14 -17.5t25 -9.5l-178 -159l91 -166q-16 -2 -31.5 -9.5t-22.5 -16.5l-102 191z" />
    <glyph glyph-name="guilsinglright" unicode="&#x203a;" horiz-adv-x="235" 
d="M73 397q16 2 31.5 9.5t22.5 16.5l102 -191l-204 -187q-4 10 -14 17.5t-24 9.5l177 159z" />
    <glyph glyph-name="fraction" unicode="&#x2044;" horiz-adv-x="409" 
d="M437 684l14 -3.5t14 -1.5t14.5 1.5t14.5 3.5l-522 -712l-14 3.5t-14 1.5t-14.5 -1.5t-14.5 -3.5z" />
    <glyph glyph-name="Euro" unicode="&#x20ac;" horiz-adv-x="709" 
d="M748 622q-15 -20 -26.5 -39.5t-22.5 -39.5l-19 -1q-10 21 -26.5 37t-37.5 27t-44 17t-46 6q-40 0 -79.5 -13.5t-76 -41.5t-68.5 -70t-56 -99h208q35 0 70 0.5t66 5.5q-8 -10 -18.5 -28t-15.5 -29q-26 4 -58.5 5t-62.5 1h-205q-8 -26 -15 -54l-2 -8h177q35 0 70 0.5
t65 5.5q-8 -10 -18 -28t-16 -29q-26 4 -57.5 5t-61.5 1h-166q-7 -53 3 -94t33 -69.5t57.5 -43.5t76.5 -15q50 0 104.5 19.5t108.5 57.5l7 -12q-7 -14 -13.5 -28.5t-12.5 -29.5q-18 -11 -44.5 -20.5t-57 -16t-62.5 -10.5t-60 -4q-63 0 -113.5 18t-84 52t-48.5 83.5t-9 112.5
q-65 -1 -94 -6q19 27 32 57q19 -4 68 -5l5 20q2 11 5.5 21t6.5 20q-63 -2 -91 -6q10 14 18 28.5t15 28.5q19 -3 78 -5q28 57 71 105.5t96.5 84t114.5 56t125 20.5q27 0 55.5 -4t56 -10.5t52 -16t43.5 -19.5z" />
    <glyph glyph-name="trademark" unicode="&#x2122;" horiz-adv-x="1071" 
d="M796 460q55 57 109 115t107 116h10l-16 -127q-5 -34 -8.5 -72t-7 -76.5t-6 -74.5t-4.5 -66q-18 5 -34 5q-9 0 -18 -1.5t-19 -3.5q8 41 16.5 90t13.5 109l10 108h-3l-71 -76q-27 -28 -55.5 -59.5t-55 -61.5t-49 -57t-37.5 -46h-10q-15 50 -37.5 101t-43.5 103l-37 91h-2
l-44 -111q-20 -48 -36 -95.5t-29 -95.5q-17 5 -28 5q-14 0 -31 -5q32 61 62.5 130.5t59.5 141.5l60 144h13q18 -57 41 -113.5t49 -115.5l42 -92h3zM231 653q-41 0 -81.5 -1.5t-81.5 -3.5q4 5 7 9.5t4 9.5q2 5 1 9t-3 9q48 -2 96 -3.5t97 -1.5t97 1.5t98 3.5q-8 -8 -11 -18
q-2 -12 2 -19q-41 2 -80.5 3.5t-79.5 1.5l-35 -141q-15 -60 -28 -118.5t-25 -118.5q-10 2 -19 3.5t-19 1.5q-18 0 -40 -5q12 40 28 94t36 135z" />
    <glyph glyph-name="minus" unicode="&#x2212;" horiz-adv-x="719" 
d="M49 279h632l-13 -52h-632z" />
    <glyph glyph-name="fi" unicode="&#xfb01;" horiz-adv-x="618" 
d="M450 286q11 45 21.5 94.5t15.5 92.5q14 -2 28 -3.5t28 -1.5t28 1.5t29 3.5q-17 -43 -31.5 -92.5t-25.5 -94.5l-26 -104q-11 -45 -21 -94.5t-15 -92.5q-14 2 -27.5 3.5t-27.5 1.5t-28.5 -1.5t-29.5 -3.5q17 43 31 92.5t25 94.5zM523 647q5 21 28 36t49 15t40.5 -15
t9.5 -36t-27 -36t-48 -15t-41.5 15t-10.5 36zM431 669q-27 15 -64 15q-28 0 -49.5 -8.5t-37.5 -22t-26 -32t-15 -37.5q-5 -18 -8.5 -52t-6.5 -65q32 0 65 0.5t65 0.5q-2 -5 -4.5 -10t-3.5 -10q-2 -5 -2 -10v-10q-32 1 -64.5 2t-64.5 1q-27 -109 -53.5 -217t-49.5 -219
q-12 2 -25.5 3.5t-27.5 1.5q-13 0 -27 -1.5t-29 -3.5q36 111 64.5 218.5t55.5 217.5q-23 0 -45 -1t-45 -2q2 5 3.5 10t3.5 10q1 5 1.5 10t1.5 10q23 0 45 -0.5t44 -0.5q7 29 23.5 63t39 67t49.5 62.5t57 49.5q27 18 65 32t74 14q13 0 24 -3q-5 -20 -12 -40t-12 -40z" />
    <glyph glyph-name="fl" unicode="&#xfb02;" horiz-adv-x="625" 
d="M503 464q9 34 18 74t17.5 79t15.5 74.5t10 60.5q14 -2 27.5 -3.5t27.5 -1.5t28.5 1.5t28.5 3.5q-9 -25 -19.5 -60.5t-21 -74.5t-21 -79t-19.5 -74l-45 -181q-9 -35 -18.5 -74.5t-18 -78.5t-15.5 -74.5t-10 -60.5q-28 5 -55 5q-14 0 -28 -1.5t-29 -3.5q9 25 19.5 60.5
t21.5 74.5t21.5 78.5t19.5 74.5zM431 669q-27 15 -64 15q-28 0 -49.5 -8.5t-37.5 -22t-26 -32t-15 -37.5q-5 -18 -8.5 -52t-6.5 -65q32 0 65 0.5t65 0.5q-2 -5 -4.5 -10t-3.5 -10q-2 -5 -2 -10v-10q-32 1 -64.5 2t-64.5 1q-27 -109 -53.5 -217t-49.5 -219q-12 2 -25.5 3.5
t-27.5 1.5q-13 0 -27 -1.5t-29 -3.5q36 111 64.5 218.5t55.5 217.5q-23 0 -45 -1t-45 -2q2 5 3.5 10t3.5 10q1 5 1.5 10t1.5 10q23 0 45 -0.5t44 -0.5q7 29 23.5 63t39 67t49.5 62.5t57 49.5q27 18 65 32t74 14q13 0 24 -3q-5 -20 -12 -40t-12 -40z" />
    <glyph glyph-name="glyph229" horiz-adv-x="720" 
d="M343 162q0 -2 -1.5 -6t-1.5 -5v-7h-4v10q4 4 7 8zM288 144q4 7 4 18h15q-7 0 -7 -8q0 -25 3 -32h4q2 5 7 14h4v-14h-11q-1 0 -2.5 1t-2.5 3t-2 3h-8q0 1 -2 6t-2 9zM374 110v15q3 0 5 1.5t3 2.5v-13q2 -1 4 -2.5t6 -3.5l1 -16q-6 7 -19 16zM89 627q24 7 64 7q25 0 37 -7
q10 -7 34 -7q19 9 22 18q29 0 33 24l9 4q2 3 7 5q5 0 5 2q5 2 7.5 6.5t10.5 4.5q1 3 7 6q7 2 7 5q32 0 32 18q8 0 13 6q4 7 12 7q1 2 9.5 5t8.5 6q7 0 10 3q12 8 16 8l9 4q7 2 7 7q11 0 22 4q11 3 19 3q0 4 7 8q7 2 8 3l89 19l42 -4l15 -8q7 -3 11 -7q10 -7 31 -18l7 -42
q-42 0 -42 5q-5 0 -14 4t-11 4q0 4 -1.5 5.5t-6.5 4.5h-68q-3 -3 -7 -10q-7 0 -21 -4t-21 -4q-13 -9 -18.5 -9t-14.5 -3q-4 0 -8 -6l-6 -6q-10 -3 -8 -3h-4q-1 -3 -8.5 -5l-7.5 -2q-3 0 -5.5 -2t-6.5 -5t-6 -5q-11 0 -15 -10q-5 0 -6 -2.5t-1 -9.5q-6 0 -13.5 -3.5t-8 -3.5
t-6.5 -4.5t-14 -4.5q-2 -1 -7 -2t-8 -6q-2 -1 -4 -4q-2 -5 -3 -6q-11 0 -11 -8q-4 0 -7 -1.5t-6 -4.5l-5 -5q-15 0 -15 -11q-5 0 -13 -7v-11q-4 -3 -6.5 -4t-4.5 -5v-15q6 -7 11 -7v-48q-6 0 -11 -9v-11q-2 -2 -4 -3q-3 -2 -7 -4v-22q-6 -3 -7 -4.5t-1 -10.5q0 -11 -3 -11
l-7 -7q-9 -4 -10.5 -6t-1.5 -10q-9 -4 -15 -8t-8 -11q-11 -11 -44 -11q-17 11 -35 11q-2 3 -7 11h-15q-3 0 -9 4q-7 4 -13 4q0 11 -11 16q0 7 -4 11q-10 0 -21 -1l-11 -1q-4 0 -11 7q-3 2 -6 2v55q2 3 5 5l6 4l4 83q1 0 2.5 1t2.5 3t2 3v15q5 2 6 6t5 4q0 1 10 4.5t10 7.5
q21 7 26 7zM385 132q-4 5 -7 7q-4 1 -15 1v18q6 -6 18 -14q0 -8 4 -12zM400 132q3 -3 3 -7q-3 3 -10 7h7zM403 125h7q5 2 12 10q6 9 10 9q-1 -4 -3.5 -6t-6.5 -6v-14l6 -4t4 -4q-4 0 -10 -7v-13l7 -7h17q1 -6 4 -10q2 -6 18 -12q3 11 3 22q-9 11 -22 11v31q3 0 11 7l-6 6
q-3 2 -5 6q2 -1 12 -5q6 -2 17 -5q6 -2 19 -2v-22q3 -2 6.5 -3.5t4.5 -3.5q0 -16 4 -20h9q3 3 3 14v6q9 0 13 1.5t9 5.5q-7 8 -11 8v14q3 0 11 8v26q-3 2 -6 3.5t-5 5.5q0 8 -1.5 10t-9.5 5q7 0 12.5 5t6.5 5v-10q0 -8 7 -8q3 -10 4 -11.5t7 -4.5q0 -15 8 -22h3q2 2 4 8t3 6
q20 7 20 24q5 0 18 8v-58h-7q-3 -3 -3 -14q-4 -1 -14 -8q10 -7 32 -7q0 -5 -2 -6.5t-5 -6.5v-36q-4 2 -5.5 3.5t-2 3.5t-3.5 7h-20q0 -2 -2 -6q-2 -6 -2 -8q-4 0 -11 -8q7 0 11 -3v-7q-2 -2 -5 -3.5t-6 -4.5v-16q-19 0 -22 -8v-7l1 -1q0 1 -4 1q0 3 -2 8t-2 7q-18 0 -23 -8
v-7q11 -11 22 -11v-7h-7q-12 -5 -21 -7q-4 -1 -10 -1v15q7 0 7 7q0 35 -3 43h-3q-8 -8 -8 -39q-7 0 -11 -4v-14h-26l-4 -8v-38q-10 0 -24 -4q9 -7 14 -7v-18q-6 2 -6 6q0 3 -7 5h-4q-5 -2 -6 -5q-2 -4 -5 -6v18q3 0 11 7q0 57 -7 64h-4q-1 -1 -3 -2l-1 -1l4 3q-4 4 -11 4
q0 31 -7 39h-4q-6 -3 -5 -21q1 -34 1 -31v-55q0 -1 4 -3t4 -4v-7q0 -1 -3.5 -4.5t-3.5 -6.5h-29v25q0 2 -1 3l-4 2q-2 1 -5 3q-2 7 -7 16h-4q-7 -7 -7 -24q3 -2 7 -3l4 -4v-7q-5 -4 -15 -11q3 0 11 11v7q0 7 -18 7q-15 0 -18 -7v-11q0 4 -7 4q0 10 -5 15q-5 4 -16 7v16l-7 4
h-15v14q-6 8 -11 8q-4 12 -22 18v31q11 3 11 15q2 0 5.5 1.5t5.5 1.5q0 19 -4 22h-7q-3 -3 -3 -14q-5 0 -19 -8v44q4 0 7 2t4 2v38h18v-14q-5 0 -7 -4q-2 -2 -3 -4q29 0 36 8v7l-4 4l4 -4h17q0 -31 3 -35h-9l-7 -7v-15q-6 -2 -7 -3.5t-4 -10.5q-4 0 -11 -8h35v-10
q-9 -4 -13 -8q0 -11 7 -24q10 4 21 17v22h7q1 -12 3 -31h8q4 3 4 16q18 0 21 8v7l-7 7l7 4v14q3 -2 8 -3.5t7 -3.5q0 -8 1 -9.5t5 -8.5q27 0 32 11v9h-1q1 -2 5 -2q6 8 6.5 11t0.5 11q3 0 11 7v20q-7 8 -11 8q0 2 -2 4t-2 3zM617 129q2 -1 3 -2l1 -2h8q0 -3 -4 -7h-3
q-5 4 -5 11zM629 125q0 4 3 7q0 -2 -1 -3q-2 -3 -2 -4zM632 132v50q4 0 11 8v10h15l4 8v22h7v-90q-1 -2 -5 -3q-3 -2 -6 -5v-14l-14 -8q0 19 -8 22h-4zM456 -67q2 -1 3 -2l1 -2v3q-1 1 -4 1zM460 -71q4 -1 9 -8l6 -6q0 7 -7 14h-8zM468 -67q3 9 3 31h15q2 -2 3 -4q0 -4 4 -6
q2 -1 4 -1q-2 -2 -5 -3.5t-6 -3.5v-9q0 -5 -3 -5q-3 1 -6 1h-9zM414 -10q-1 -5 -1 -15v-12q0 -20 -2 -26h-4v49q3 0 7 4zM307 -89l3 -4q0 3 -1 4h-2zM310 -93q4 0 8 -3q-8 0 -8 3zM264 129q-3 0 -7 3v12l-7 7h-15v15q11 0 11 9v7q-1 3 -5.5 5t-5.5 3v10q-6 8 -11 8
q3 0 7 2.5t4 4.5v7q0 3 -4 4q-5 2 -7 4v34h8v-16l3 -7h15v-33q-8 0 -8 -8v-7q0 -3 8 -3v-24q2 -1 6 -4t5 -4v-26zM296 90q4 4 4 20h13q-2 -1 -3.5 -3t-2.5 -4v-31q-1 1 -3 2.5t-4 1.5q0 7 -4 14zM307 72l4.5 -2t6.5 -2h-8q-1 1 -1 2zM318 68q1 7 7 15v-15h-7zM531 237
q2 -2 3 -4l4 -2q2 -1 4 -1l1 -15h-18q0 8 -1.5 10t-11.5 5q0 34 -4 42h-3q-4 -2 -5 -8q-2 -6 -3 -7h-4v15h15q1 6 4 14h9v-14q8 -8 11 -8zM511 305q0 7 -6 7q-8 -7 -12 -7v14h15q0 -3 1.5 -8t1.5 -6zM300 290h-12q0 -2 -1.5 -6t-1.5 -5q-27 -7 -28 -7v25h15l7 8v14
q27 0 31 20q18 5 22 22h15q0 -29 7 -34h4q6 5 6 20q7 4 10 7v15q9 -8 11 -8h8q-1 0 7 8q0 -18 7 -22h4l3.5 7l3.5 7h15q1 -5 4 -11q1 -1 9 -3q-14 0 -14 -8v-7q4 -5 36 -5v-15h-39q-2 2 -3 8q-3 6 -4 7h-4q-2 -5 -7 -15h-4q-2 3 -7 15h-15q0 -6 -3 -15h-8q0 4 -3 15h-28
q-2 -6 -7 -15q-10 0 -20 -8z" />
    </font>
</defs>
</svg>
