<?xml version="1.0" standalone="no"?>
<!DOCTYPE svg PUBLIC "-//W3C//DTD SVG 1.1//EN" "http://www.w3.org/Graphics/SVG/1.1/DTD/svg11.dtd" >
<svg xmlns="http://www.w3.org/2000/svg" xmlns:xlink="http://www.w3.org/1999/xlink" version="1.1">
<metadata>
Created by FontForge 20170731 at Fri Mar 26 00:55:17 2004
 By Aleksey,,,
Copyright (c) Luke Owens, 2004. All rights reserved.
</metadata>
<defs>
<font id="OregonLDOCondensed-Bold" horiz-adv-x="357" >
  <font-face 
    font-family="Oregon LDO Condensed"
    font-weight="700"
    font-stretch="normal"
    units-per-em="1000"
    panose-1="2 1 6 3 0 0 0 2 0 4"
    ascent="800"
    descent="-200"
    x-height="488"
    cap-height="691"
    bbox="-28 -266 792 907"
    underline-thickness="50"
    underline-position="-150"
    unicode-range="U+0020-FB02"
  />
<missing-glyph horiz-adv-x="278" 
 />
    <glyph glyph-name=".notdef" horiz-adv-x="278" 
 />
    <glyph glyph-name=".null" horiz-adv-x="0" 
 />
    <glyph glyph-name="nonmarkingreturn" horiz-adv-x="278" 
 />
    <glyph glyph-name="space" unicode=" " horiz-adv-x="278" 
 />
    <glyph glyph-name="space" unicode="&#xa0;" horiz-adv-x="278" 
 />
    <glyph glyph-name="exclam" unicode="!" horiz-adv-x="147" 
d="M46 162q0 15 -1.5 39l-2.5 40q-4 62 -8.5 128.5t-8 122.5t-5.5 95t-2 46q0 36 17 50.5t37 14.5t37 -14.5t17 -50.5q0 -5 -1.5 -28.5t-3.5 -59.5t-5 -81t-6 -93q-2 -24 -3.5 -51.5t-3.5 -55.5t-3.5 -54t-2.5 -48h-51zM12 61q0 30 18 51.5t42 21.5t42 -21.5t18 -51.5
q0 -29 -18 -50.5t-42 -21.5t-42 21.5t-18 50.5z" />
    <glyph glyph-name="quotedbl" unicode="&#x22;" horiz-adv-x="239" 
d="M28 698h75v-310h-75v310zM134 698h75v-310h-75v310z" />
    <glyph glyph-name="numbersign" unicode="#" horiz-adv-x="340" 
d="M97 409h-59q5 12 9 27.5t7 31.5t5 30.5t2 25.5h54q10 64 14.5 99t6.5 46q27 -11 31 -11q5 0 47 15q-6 -15 -10 -27.5t-7.5 -27.5t-8 -37t-10.5 -57h44q5 34 8 57t5 36q1 5 2 13t2.5 15.5t3 14t1.5 9.5q27 -11 29 -11q3 0 15 4.5t32 12.5q-5 -14 -9 -26t-8 -28t-8 -38.5
t-10 -58.5h55q-3 -11 -6.5 -25.5t-6 -30.5t-4.5 -31.5t-2 -27.5h-54q-6 -43 -12.5 -79t-12.5 -80h56q-3 -11 -6.5 -26t-6.5 -31t-4.5 -31.5t-1.5 -27.5h-55q-2 -15 -4 -28.5t-4 -24.5q-5 -32 -7.5 -54t-3.5 -30q-7 0 -17.5 0.5t-14.5 2.5q-2 0 -10 -2q-2 0 -16 -0.5
t-16 -0.5q4 10 7 19t6 23t6.5 36.5t9.5 58.5h-42q-5 -34 -8.5 -57.5t-6 -39.5t-3.5 -25.5t-2 -14.5q-2 0 -11.5 0.5t-11.5 0.5q-6 2 -9 2q-1 0 -7 -2h-6t-10.5 -0.5t-10.5 -0.5h-6q3 8 5.5 17t5.5 24t7 37.5t10 58.5h-58q4 12 8.5 27.5t7.5 31.5t5 31t2 26h53zM204 409h-43
q-6 -43 -12.5 -79t-12.5 -80h42z" />
    <glyph glyph-name="dollar" unicode="$" horiz-adv-x="340" 
d="M141 294q-32 17 -55 35t-38.5 40t-23 49.5t-7.5 63.5q0 72 33.5 121.5t90.5 65.5q-1 17 -3.5 38t-10.5 51q37 -17 46 -17q6 0 42 17q-7 -37 -8 -54t-2 -31q22 -2 39 -8t30 -14t23.5 -17.5t19.5 -17.5q-8 -22 -14.5 -44.5t-11.5 -55.5h-39q-3 10 -7 22t-10 23.5
t-13.5 20.5t-16.5 14v-207q30 -16 54 -33t40.5 -38t25 -47.5t8.5 -62.5q0 -35 -9 -68.5t-25.5 -61.5t-40 -49.5t-53.5 -33.5q1 -23 2.5 -51.5t5.5 -70.5q-34 16 -40 16q-9 0 -44 -16q12 72 12 112q-39 0 -73 15t-67 50q9 27 12 49.5t5 55.5h39q22 -51 43 -71t41 -24v234z
M205 76q17 15 26 40.5t9 57.5q0 21 -6 40.5t-29 40.5v-179zM141 588q-32 -24 -32 -80q0 -29 7.5 -48t24.5 -33v161z" />
    <glyph glyph-name="percent" unicode="%" horiz-adv-x="650" 
d="M20 498q0 37 9.5 69.5t27 56t42.5 37t55 13.5t54.5 -13.5t42 -37t27 -56t9.5 -69.5q0 -38 -9.5 -70t-27 -55.5t-42 -37t-54.5 -13.5t-55 13.5t-42.5 37t-27 55.5t-9.5 70zM364 161q0 37 9.5 69.5t27 56t41.5 37t54 13.5t55 -13.5t42.5 -37t27 -56t9.5 -69.5
q0 -38 -9.5 -70t-27 -55.5t-42.5 -37t-55 -13.5t-54 13.5t-41.5 37t-27 55.5t-9.5 70zM429 703q11 -6 18.5 -9t8.5 -3q2 0 16 6.5t37 17.5l-290 -759q-11 5 -18 8.5t-8 3.5q-2 0 -16 -7l-36 -18zM454 161q0 -23 2.5 -44t7.5 -37t13 -25.5t19 -9.5t19.5 9.5t14 25.5t8 37
t2.5 44q0 22 -2.5 43t-8 37t-14 25.5t-19.5 9.5t-19 -9.5t-13 -25.5t-7.5 -37t-2.5 -43zM111 498q0 -23 2.5 -44t7.5 -37t13.5 -25.5t19.5 -9.5t19 9.5t13 25.5t7.5 37t2.5 44q0 22 -2.5 43t-7.5 37t-13 25.5t-19 9.5t-19.5 -9.5t-13.5 -25.5t-7.5 -37t-2.5 -43z" />
    <glyph glyph-name="ampersand" unicode="&#x26;" horiz-adv-x="519" 
d="M111 513q0 34 9.5 63t26.5 51t40.5 34.5t51.5 12.5q50 0 81.5 -32t31.5 -93q0 -28 -8 -53t-21 -46.5t-29.5 -39.5t-33.5 -32q0 -1 0.5 -0.5t0.5 -0.5q15 -25 27 -45.5t23 -39.5t22.5 -37.5t25.5 -39.5q22 42 43 91.5t44 115.5q14 -42 26 -62t23 -29q-25 -52 -48 -97
t-48 -84q12 -17 25.5 -37t27.5 -41t27 -41t24 -36h-31.5t-18.5 2q-15 3 -31 3q-5 0 -12 -1t-15 -3l2 1q-5 -2 -12.5 -2h-15.5q-5 14 -14 31.5t-20 34.5q-32 -39 -66 -58.5t-85 -19.5q-32 0 -60 11.5t-49 34t-33 56t-12 77.5q0 31 9 61t25.5 57.5t39 50.5t48.5 41
q-18 36 -29.5 71t-11.5 70zM125 179q0 -22 6.5 -42.5t17.5 -36.5t27 -25.5t34 -9.5q29 0 49 12t40 38q-32 51 -59.5 96.5t-56.5 100.5q-26 -25 -42 -56.5t-16 -76.5zM277 550q0 26 -10 42.5t-27 16.5q-20 0 -31 -20t-11 -50q0 -23 8 -50.5t23 -55.5q25 26 36.5 57t11.5 60z
" />
    <glyph glyph-name="quotesingle" unicode="'" horiz-adv-x="133" 
d="M25 698h75v-310h-75v310z" />
    <glyph glyph-name="parenleft" unicode="(" horiz-adv-x="170" 
d="M167 664q-28 -47 -45.5 -92t-27 -91t-13 -94t-3.5 -102t3.5 -102t13 -94t27 -91.5t45.5 -92.5l-38 -45q-65 94 -98.5 203.5t-33.5 221.5q0 53 8.5 108.5t25 110t41.5 106.5t57 99z" />
    <glyph glyph-name="parenright" unicode=")" horiz-adv-x="170" 
d="M1 -95q28 47 45 92.5t27 91.5t13.5 94t3.5 102t-3.5 102t-13.5 94t-27 91t-45 92l38 45q65 -94 98.5 -203.5t33.5 -220.5q0 -53 -8.5 -108.5t-25 -110t-41.5 -107t-57 -99.5z" />
    <glyph glyph-name="asterisk" unicode="*" horiz-adv-x="282" 
d="M99 695q20 -8 28.5 -11t13.5 -3t13.5 3.5t28.5 13.5l-10 -130q22 20 44.5 42.5l36.5 36.5q2 -29 12.5 -54t25.5 -39l-98 -57q23 -14 50 -31t46 -28q-13 -12 -23.5 -36t-12.5 -56l-82 77q2 -32 5 -65t5 -58q-13 5 -24.5 8t-16.5 3q-4 0 -13 -3t-29 -10l9 125
q-21 -21 -43.5 -42.5t-36.5 -35.5q-2 31 -12 55.5t-24 36.5l93 59q-23 14 -49 29.5t-45 26.5q11 12 21 37.5t10 60.5l85 -82z" />
    <glyph glyph-name="plus" unicode="+" horiz-adv-x="387" 
d="M-6 302h161v214h75v-214h162v-87h-162v-215h-75v215h-161v87z" />
    <glyph glyph-name="comma" unicode="," horiz-adv-x="137" 
d="M52 95q4 17 15 33.5t34 16.5q15 0 30.5 -12t15.5 -39q0 -13 -3 -24t-8 -20q-1 -2 -1 -2.5t-1 -2.5v1q-22 -50 -48.5 -109t-48.5 -109l-43 22z" />
    <glyph glyph-name="hyphen" unicode="-" horiz-adv-x="275" 
d="M29 286h215v-97h-215v97z" />
    <glyph glyph-name="period" unicode="." horiz-adv-x="148" 
d="M13 61q0 30 18 51.5t42 21.5t42 -21.5t18 -51.5q0 -29 -18 -50.5t-42 -21.5t-42 21.5t-18 50.5z" />
    <glyph glyph-name="slash" unicode="/" horiz-adv-x="252" 
d="M193 709q11 -5 19.5 -8t10.5 -3q4 0 16.5 5t31.5 13l-212 -744q-11 5 -20 8t-11 3q-3 0 -15.5 -5t-31.5 -13z" />
    <glyph glyph-name="zero" unicode="0" horiz-adv-x="417" 
d="M24 329q0 70 9.5 133t31 110t57 74.5t87.5 27.5q57 0 92.5 -27.5t56 -74.5t28 -110t7.5 -133q0 -68 -11 -130.5t-33.5 -110t-57 -75.5t-82.5 -28q-57 0 -93 27.5t-56.5 74t-28 109t-7.5 133.5zM120 329q0 -59 4.5 -109.5t15 -87.5t27.5 -58t42 -21t42 21t27.5 58t15 87.5
t4.5 109.5t-4.5 109.5t-15 87.5t-27.5 58t-42 21t-42 -19.5t-27.5 -55.5t-15 -87t-4.5 -114z" />
    <glyph glyph-name="one" unicode="1" horiz-adv-x="219" 
d="M92 556q-20 -14 -39 -28.5t-34 -25.5q-15 35 -33 51v28q47 26 94 54.5t88 55.5l22 -21q-2 -63 -4 -127.5t-2 -127.5v-158q0 -30 0.5 -64.5t1.5 -69t2.5 -68.5t2.5 -64q-17 4 -30.5 6.5t-22.5 2.5q-7 0 -20.5 -2.5t-32.5 -7.5q3 61 5 133.5t2 133.5v299z" />
    <glyph glyph-name="two" unicode="2" horiz-adv-x="373" 
d="M43 561q27 59 63.5 86t88.5 27q31 0 59 -11t49 -33.5t33 -58t12 -84.5q0 -33 -6 -62.5t-18 -58t-29.5 -56.5t-39.5 -59q-3 -5 -7 -10.5t-8 -10.5q-26 -34 -52 -67.5t-45 -66.5h35q47 0 94 2.5t88 7.5q-3 -17 -5 -33t-2 -24q0 -6 2 -22t5 -33q-38 2 -87 4t-87 2t-86 -2
t-86 -4v41q50 65 86.5 115t62 89.5t41.5 71t25 59t12.5 54.5t3.5 58q0 61 -18.5 90t-42.5 29q-18 0 -30.5 -11t-21.5 -26.5t-14 -33.5t-7 -32l-33 -2z" />
    <glyph glyph-name="three" unicode="3" 
d="M38 602q9 12 21 24.5t27.5 23t34.5 17.5t42 7q32 0 60 -9.5t49 -29t33 -50t12 -71.5q0 -57 -21 -94.5t-48 -59.5q17 -6 33.5 -18t29.5 -30.5t21 -45t8 -62.5q0 -47 -14.5 -87t-40.5 -69.5t-63 -46t-82 -16.5q-41 0 -72.5 14t-56.5 29q1 6 3 15t4 19t3.5 20.5t1.5 18.5
l26 27q7 -12 17.5 -25t22.5 -24.5t25 -18.5t27 -7q45 0 70 39t25 100q0 68 -22.5 95t-58.5 27q-5 0 -20 -4t-30 -9v36q0 2 0.5 4.5t0.5 5.5q0 2 -0.5 4.5t-0.5 5.5v34q16 -4 30.5 -6.5t19.5 -2.5q19 0 31 12t19 30.5t9.5 41t2.5 42.5q0 51 -18 74t-39 23q-22 0 -40 -23
t-25 -52l-33 -2z" />
    <glyph glyph-name="four" unicode="4" horiz-adv-x="387" 
d="M-6 210q31 58 66.5 124.5t69 130t61.5 118t45 90.5q12 -5 21 -7.5t12 -2.5q5 0 16.5 4t26.5 10q-2 -41 -3 -91.5t-1.5 -105.5t-1 -110.5t-0.5 -105.5q17 2 37 5t37 7q-4 -20 -6 -34t-2 -22t8 -54q-18 3 -37.5 6t-36.5 4v-21q0 -26 1 -53.5t2 -51.5q0 -6 0.5 -15t0.5 -18
v-16.5v-10.5q-17 5 -30 7.5t-20 2.5t-20.5 -2.5t-31.5 -7.5q1 13 2.5 34t2.5 44.5t1.5 46t0.5 40.5v21q-22 0 -54 -1t-65 -2.5t-61 -2.5t-41 -2v42zM214 488q-15 -28 -31.5 -59t-32 -61t-29 -57.5t-22.5 -47.5h116z" />
    <glyph glyph-name="five" unicode="5" horiz-adv-x="360" 
d="M130 406q11 5 24.5 7.5t34.5 2.5q35 0 64 -16t49.5 -43t31.5 -62.5t11 -75.5q0 -48 -14.5 -91t-40.5 -74.5t-62 -50t-79 -18.5q-35 0 -69.5 11t-63.5 37v19q4 12 7 32t5 39h36q14 -35 38.5 -52.5t49.5 -17.5q17 0 33 9.5t28.5 29t20 48.5t7.5 69q0 35 -6.5 60t-17.5 40.5
t-25.5 22.5t-30.5 7q-12 0 -24 -4.5t-22 -11t-17.5 -13t-11.5 -9.5l-26 25q5 42 6.5 84.5t1.5 82.5q0 38 -1.5 81.5t-4.5 81.5l19 18q5 -1 18 -2.5t30 -3.5q30 -3 85 -3q33 0 63.5 0.5t43.5 1.5l17 -17q-8 -34 -8 -59q0 -4 1 -9.5t6 -30.5q-21 5 -48 8.5t-54 5.5t-52.5 3
t-44.5 1z" />
    <glyph glyph-name="six" unicode="6" horiz-adv-x="379" 
d="M309 616l-19 -20q-23 9 -41 9q-29 0 -51.5 -21t-38 -54.5t-25.5 -74.5t-14 -80q17 17 39 28t53 11q21 0 48.5 -8.5t51.5 -30t41 -59.5t17 -98q0 -52 -12.5 -95t-35.5 -73.5t-55.5 -47.5t-72.5 -17q-34 0 -65.5 15.5t-56 50t-39 90t-14.5 135.5q0 83 15 156t44.5 127
t72.5 85t99 30q11 0 20 -1.5t23 -5.5zM270 198q0 63 -17.5 103t-53.5 40q-34 0 -57 -40t-23 -103q0 -64 21.5 -104.5t54.5 -40.5q35 0 55 40.5t20 104.5z" />
    <glyph glyph-name="seven" unicode="7" 
d="M363 622q-32 -72 -66 -151t-68 -160.5t-66.5 -162.5t-61.5 -157q-13 4 -23 6.5t-15 2.5t-21.5 -5t-40.5 -13q33 71 71 153t73.5 161t66 147t49.5 112q-39 -1 -101.5 -3.5t-137.5 -7.5q0 3 0.5 17t0.5 18q1 8 1.5 15.5t0.5 12.5q0 6 -0.5 12.5t-1.5 14.5v7t-0.5 11
t-0.5 11v7q14 -2 30 -3.5l32 -3t30 -2.5t24 -1q12 0 29 -0.5t36 -1t36.5 -0.5h31.5q11 0 20 0.5t19 0.5h53v-37z" />
    <glyph glyph-name="eight" unicode="8" horiz-adv-x="393" 
d="M19 188q0 56 20.5 104t66.5 78q-24 17 -43 50.5t-19 83.5q0 34 10.5 64.5t30.5 54t48 37.5t63 14q40 0 69 -13.5t48 -35.5t28 -50.5t9 -58.5q0 -41 -16 -79t-46 -61q15 -8 30 -21t27 -33t20 -47.5t8 -64.5q0 -51 -14 -92.5t-38 -71t-56.5 -45.5t-68.5 -16q-38 0 -70 13.5
t-56 39.5t-37.5 64t-13.5 86zM273 193q0 61 -21 100.5t-56 39.5t-56 -39.5t-21 -100.5t21 -100.5t56 -39.5t56 39.5t21 100.5zM255 503q0 21 -3.5 39.5t-10.5 32.5t-18 22t-26 8t-26 -8t-18 -22t-10.5 -32.5t-3.5 -39.5t3.5 -39.5t10.5 -32.5t18 -22t26 -8t26 8t18 22
t10.5 32.5t3.5 39.5z" />
    <glyph glyph-name="nine" unicode="9" horiz-adv-x="387" 
d="M73 100q18 -22 36 -34.5t34 -12.5q28 0 49 19.5t36 51.5t24 74.5t12 87.5q-18 -20 -41 -30.5t-54 -10.5q-72 0 -114 54t-42 153q0 47 12.5 87.5t35.5 70.5t55.5 47t72.5 17q36 0 68 -15.5t56.5 -50.5t39 -90.5t14.5 -135.5q0 -83 -15.5 -155t-44.5 -126t-71.5 -85
t-96.5 -31q-23 0 -42.5 6.5t-30.5 12.5q-3 17 -8 37t-11 34zM264 477q0 57 -20.5 92.5t-55.5 35.5q-32 0 -53.5 -41t-21.5 -112t18 -102.5t50 -31.5q20 0 35.5 13.5t26 35.5t16 50.5t5.5 59.5z" />
    <glyph glyph-name="colon" unicode=":" horiz-adv-x="158" 
d="M17 408q0 29 18 51t42 22t42 -22t18 -51q0 -30 -18 -51.5t-42 -21.5t-42 21.5t-18 51.5zM17 61q0 30 18 51.5t42 21.5t42 -21.5t18 -51.5q0 -29 -18 -50.5t-42 -21.5t-42 21.5t-18 50.5z" />
    <glyph glyph-name="semicolon" unicode=";" horiz-adv-x="151" 
d="M55 95q4 17 15 33.5t34 16.5q15 0 30.5 -12t15.5 -39q0 -13 -3 -24t-8 -20q-1 -2 -1 -2.5t-1 -2.5v1q-22 -50 -48.5 -109t-48.5 -109l-43 22zM37 408q0 29 17.5 51t41.5 22q25 0 42 -22t17 -51q0 -30 -17 -51.5t-42 -21.5q-24 0 -41.5 21.5t-17.5 51.5z" />
    <glyph glyph-name="less" unicode="&#x3c;" horiz-adv-x="423" 
d="M-7 294l398 247v-94l-310 -189q77 -47 155 -94.5t155 -94.5v-94l-398 249v70z" />
    <glyph glyph-name="equal" unicode="=" horiz-adv-x="433" 
d="M432 306h-398v88h398v-88zM432 123h-398v87h398v-87z" />
    <glyph glyph-name="greater" unicode="&#x3e;" horiz-adv-x="422" 
d="M31 69l310 189q-77 48 -155.5 95.5t-154.5 93.5v94l398 -249v-70l-398 -247v94z" />
    <glyph glyph-name="question" unicode="?" horiz-adv-x="224" 
d="M5 656q20 15 42 28.5t51 13.5q30 0 53 -11.5t39 -31t24 -46t8 -55.5t-6.5 -53.5t-17 -46.5t-24 -41.5t-26.5 -36.5q-19 -26 -35.5 -53.5t-16.5 -56.5q0 -12 4.5 -24.5t13.5 -12.5q5 0 12 5.5t12 10.5l29 -28q-5 -8 -9 -20.5t-6 -20.5q-20 -11 -43 -11q-11 0 -27 6.5
t-31 21t-26 38t-11 58.5q0 53 21.5 91.5t47.5 72.5q20 27 36.5 54.5t16.5 59.5q0 28 -13.5 43t-28.5 15q-14 0 -34.5 -23t-42.5 -60zM38 61q0 30 17.5 51.5t42.5 21.5q24 0 41.5 -21.5t17.5 -51.5q0 -29 -17.5 -50.5t-41.5 -21.5q-25 0 -42.5 21.5t-17.5 50.5z" />
    <glyph glyph-name="at" unicode="@" horiz-adv-x="530" 
d="M275 541q27 0 47 -15l1 6h76q-15 -97 -23.5 -152.5t-12.5 -84.5t-5 -38.5t-1 -14.5q0 -14 4 -14q12 0 24.5 12.5t23.5 34.5t18 52t7 65q0 42 -7 78t-24.5 61.5t-46.5 40t-72 14.5q-39 0 -71.5 -21.5t-56 -59t-37 -88.5t-13.5 -110q0 -52 12 -91t33 -65t50 -39t63 -13
q23 0 47.5 9.5t48 24.5t45 33.5t39.5 36.5l-2 -83q-11 -12 -29 -28.5t-42.5 -31t-56 -24.5t-67.5 -10q-38 0 -77.5 19t-71.5 57.5t-53 97.5t-21 139q0 60 18.5 116.5t52.5 101t83 71.5t109 27q63 0 105.5 -21t67.5 -55.5t35.5 -78.5t10.5 -89q0 -56 -14.5 -101.5t-37 -77.5
t-50 -50t-53.5 -18t-39.5 9t-20.5 26q-13 -15 -29.5 -25t-36.5 -10q-95 0 -95 145q0 51 11.5 94t31.5 73.5t46 47.5t56 17zM300 421q0 23 -5 37.5t-20 14.5t-27 -16.5t-20.5 -41t-12.5 -54t-4 -55.5q0 -35 5.5 -52.5t19.5 -17.5q16 0 28 20.5t20 49.5t12 60.5t4 54.5z" />
    <glyph glyph-name="A" unicode="A" horiz-adv-x="504" 
d="M277 698q8 -26 18.5 -60.5t19.5 -63.5q17 -53 35.5 -111l37 -116t36.5 -113.5t33.5 -103t28 -84.5t20.5 -58q-26 5 -44 8.5t-24 3.5q-8 0 -21 -2.5t-32 -6.5q-12 59 -27 111.5t-31 103.5q-5 14 -6.5 22t-6.5 22q-19 1 -39 1h-40h-36.5t-36.5 -1q-21 -70 -39.5 -138
t-29.5 -122q-14 5 -24.5 7.5t-15.5 2.5t-20 -4t-35 -10q28 83 58.5 173t61 182t61 182.5t57.5 174.5h41zM239 489q-13 -41 -25.5 -77.5t-26.5 -81.5q4 0 7 -0.5t7 -0.5q7 0 18 -0.5t19 -0.5h16h11t11 0.5t16 0.5z" />
    <glyph glyph-name="B" unicode="B" horiz-adv-x="409" 
d="M39 423q0 61 -2.5 133t-4.5 133q30 -4 54.5 -6t40.5 -2q9 0 17 0.5t18 1.5q9 1 19.5 2t20.5 1q34 0 64.5 -7t54 -24.5t37 -47.5t13.5 -76q0 -58 -21 -97t-58 -63q48 -16 72 -55.5t24 -111.5q0 -58 -18.5 -98t-47 -64.5t-64 -35.5t-69.5 -11q-10 0 -19 0.5t-18 1.5
q-5 0 -10 0.5t-10 1.5q-6 1 -12 1q-16 0 -38.5 -2t-49.5 -6q2 63 4.5 135t2.5 133v163zM134 245q0 -71 3 -143q1 -7 1.5 -16t0.5 -16q11 -2 24 -2h26q19 0 36.5 9t30.5 27t21 44t8 60q0 35 -9.5 57.5t-27.5 35t-43.5 17.5t-56.5 5h-14v-78zM154 395q21 0 42 5.5t37.5 19
t27 36.5t10.5 57q0 32 -9 52t-23 30.5t-31 14t-34 3.5q-9 0 -18 -0.5t-17 -1.5q0 -7 -0.5 -14.5t-1.5 -14.5q-2 -32 -2.5 -67t-0.5 -68v-52h20z" />
    <glyph glyph-name="C" unicode="C" horiz-adv-x="507" 
d="M465 48q-8 -8 -24.5 -19.5t-38.5 -21.5t-48.5 -17t-54.5 -7q-60 0 -111 24t-88 70t-58 112.5t-21 151.5t21 151.5t58.5 112t90 69.5t115.5 24q49 0 95 -16t83 -39q-8 -17 -12.5 -39t-6.5 -37q0 -5 -0.5 -13.5t-0.5 -10.5l-33 -2q-8 11 -20 25.5t-28 27.5t-35.5 22
t-41.5 9q-38 0 -70.5 -17t-56.5 -51.5t-37.5 -88.5t-13.5 -127q0 -74 13.5 -127.5t37.5 -88.5t56.5 -52t70.5 -17q22 0 43.5 9t40 22.5t34 28.5t26.5 26l22 -24z" />
    <glyph glyph-name="D" unicode="D" horiz-adv-x="547" 
d="M42 422q0 61 -2.5 132.5t-4.5 133.5q36 -3 69 -5t58 -2q14 0 26.5 1t26.5 2t27.5 1.5t26.5 0.5q67 0 115 -23t78.5 -66t45 -104.5t14.5 -138.5q0 -100 -26.5 -168.5t-67 -111t-89.5 -61t-94 -18.5q-12 0 -24.5 0.5t-24.5 1.5t-23.5 2t-23.5 1q-23 0 -52 -2t-62 -5
q2 62 4.5 133.5t2.5 132.5v163zM137 259q0 -51 1 -93.5t3 -91.5q14 -3 33.5 -4.5t41.5 -1.5q35 0 70.5 11.5t64 43t46 87.5t17.5 144q0 76 -13.5 125.5t-38 78t-58 39.5t-72.5 11q-26 0 -48.5 -2t-42.5 -4q-2 -43 -3 -88t-1 -92v-163z" />
    <glyph glyph-name="E" unicode="E" horiz-adv-x="326" 
d="M36 423q0 61 -2 132t-4 132q32 -2 73 -4t73 -2q16 0 36 0.5t40 1.5t39.5 2.5t35.5 2.5q-5 -25 -6 -34.5t-1 -14.5q0 -7 1 -16t6 -34q-5 0 -14 1t-18.5 2t-18 2t-12.5 1q-15 2 -28 3.5t-27 3t-31.5 2t-41.5 0.5q0 -8 -0.5 -11t-0.5 -11q-1 -19 -1.5 -38t-0.5 -42v-106
q51 1 95.5 4.5t82.5 8.5q-4 -20 -6 -32.5t-2 -18.5q0 -9 9 -52q-54 8 -102 10t-77 3v-118q0 -54 -0.5 -80t0.5 -43q45 0 98 3.5t101 14.5q-4 -20 -6.5 -34.5t-2.5 -19.5t2 -17t6 -32q-16 1 -35.5 2.5t-40 2.5t-40.5 1.5t-36 0.5q-32 0 -74.5 -2t-74.5 -4q2 63 4 134t2 132
v163z" />
    <glyph glyph-name="F" unicode="F" horiz-adv-x="322" 
d="M37 422q0 61 -2 132t-4 133q32 -2 73 -4t73 -2t77 2t83 4q-3 -20 -5 -31.5t-2 -16.5t2 -17.5t6 -34.5q-23 3 -50.5 6t-56 5t-54 4t-43.5 2q0 -13 -0.5 -24.5t-0.5 -22.5v-58q0 -17 0.5 -32.5t0.5 -30.5v-38q39 1 86.5 3.5t95.5 9.5v-6.5t-0.5 -11.5t-0.5 -11v-6
q0 -5 -0.5 -9.5t-0.5 -6.5t0.5 -6.5t0.5 -9.5v-6t0.5 -11t0.5 -11v-6q-42 6 -91 8.5t-91 2.5v-62q0 -30 0.5 -64.5t1.5 -69.5t2 -69.5t2 -64.5q-17 4 -31.5 6.5t-22.5 2.5q-9 0 -23.5 -2.5t-31.5 -6.5q1 30 2 64.5t2 69.5t1.5 69.5t0.5 64.5v163z" />
    <glyph glyph-name="G" unicode="G" horiz-adv-x="551" 
d="M465 533q-11 17 -26 33.5t-33.5 29.5t-40.5 21t-46 8q-40 0 -74.5 -17t-60 -51.5t-40 -88.5t-14.5 -127q0 -132 51 -206t142 -74q25 0 51.5 5t43.5 16v47q0 14 0.5 28t0.5 29q0 17 -0.5 38t-1.5 42t-1.5 40.5t-1.5 34.5q17 -5 31.5 -8t22.5 -3q6 0 18 3.5t34 11.5
q-1 -11 -2 -32.5t-1.5 -50.5t-1 -64.5t-0.5 -73.5v-89q-17 -8 -42 -17.5t-52.5 -17t-55 -12.5t-49.5 -5q-68 0 -122 23t-92 68t-58.5 112t-20.5 155q0 85 21 151.5t60 112t93.5 69.5t121.5 24q38 0 69 -6.5t56 -16t44.5 -21.5t34.5 -23q-7 -17 -13 -44.5t-8 -53.5h-37z" />
    <glyph glyph-name="H" unicode="H" horiz-adv-x="505" 
d="M382 422q0 30 -0.5 64.5t-1.5 69.5t-2.5 69.5t-2.5 65.5q17 -5 31 -7.5t23 -2.5q8 0 22.5 2.5t32.5 7.5q-1 -31 -2.5 -65.5t-2.5 -69.5t-1.5 -69.5t-0.5 -64.5v-163q0 -30 0.5 -64.5t1.5 -69.5t2.5 -69.5t2.5 -64.5q-18 4 -32.5 6.5t-22.5 2.5q-9 0 -23 -2.5t-31 -6.5
q1 30 2.5 64.5t2.5 69.5t1.5 69.5t0.5 64.5v67q-34 1 -65.5 1h-64.5h-34.5h-30.5t-30.5 -0.5t-34.5 -0.5v-67q0 -30 0.5 -64.5t1.5 -69.5t2.5 -69.5t2.5 -64.5q-18 4 -32 6.5t-23 2.5t-23 -2.5t-31 -6.5q1 30 2.5 64.5t2.5 69.5t1.5 69.5t0.5 64.5v163q0 30 -0.5 64.5
t-1.5 69.5t-2.5 69.5t-2.5 65.5q17 -5 31 -7.5t23 -2.5t23 2.5t32 7.5q-1 -31 -2.5 -65.5t-2.5 -69.5t-1.5 -69.5t-0.5 -64.5v-14q8 0 16 -0.5t16 -0.5q24 -1 48.5 -1.5t49.5 -0.5q24 0 47.5 0.5t48.5 1.5h10.5t6.5 0.5t7 0.5h10v14z" />
    <glyph glyph-name="I" unicode="I" horiz-adv-x="160" 
d="M32 422q0 30 -0.5 64.5t-1.5 69.5t-2.5 69.5t-2.5 65.5q18 -5 32.5 -7.5t22.5 -2.5t22.5 2.5t32.5 7.5q-1 -31 -2.5 -65.5t-2.5 -69.5t-1.5 -69.5t-0.5 -64.5v-163q0 -30 0.5 -64.5t1.5 -69.5t2.5 -69.5t2.5 -64.5q-18 4 -32.5 6.5t-22.5 2.5t-22.5 -2.5t-32.5 -6.5
q1 30 2.5 64.5t2.5 69.5t1.5 69.5t0.5 64.5v163z" />
    <glyph glyph-name="J" unicode="J" horiz-adv-x="202" 
d="M-17 -72q33 0 52 17t28.5 48t12 74t2.5 95v260q0 30 -0.5 64.5t-1.5 69.5t-2 69.5t-2 65.5q17 -5 31.5 -7.5t22.5 -2.5q9 0 23.5 2.5t31.5 7.5q-1 -31 -2 -65.5t-2 -69.5t-1.5 -69.5t-0.5 -64.5v-92.5t1 -93.5q0 -42 0.5 -80.5t0.5 -70.5q0 -46 -13 -86.5t-37 -70.5
t-57.5 -47t-73.5 -17z" />
    <glyph glyph-name="K" unicode="K" horiz-adv-x="454" 
d="M35 15l4 122t2 122v163q0 30 -0.5 64.5t-1.5 69.5t-2.5 69.5t-2.5 65.5q17 -5 31 -7.5t23 -2.5q8 0 22.5 2.5t32.5 7.5q-1 -31 -2.5 -65.5t-2.5 -69.5t-1.5 -69.5t-0.5 -64.5v-16q23 28 48.5 62.5t51.5 72t52 75.5t49 73q24 -8 38 -8q8 0 30.5 5t55.5 13q-30 -35 -66 -79
t-72 -89t-67.5 -87t-51.5 -72q25 -37 49 -74.5t50 -76.5q16 -24 36 -54.5t41 -62.5t41 -62.5t37 -55.5q-32 6 -54.5 10t-29.5 4q-11 0 -23 -2t-25 -5q-23 36 -49 78t-51.5 84t-49 79t-40.5 62v-37q0 -30 0.5 -64.5t1.5 -69.5t2.5 -69.5t2.5 -64.5q-18 4 -32.5 6.5t-22.5 2.5
t-15 -1t-14 -3z" />
    <glyph glyph-name="L" unicode="L" horiz-adv-x="320" 
d="M37 422q0 30 -0.5 64.5t-1.5 69.5t-2 69.5t-2 65.5q17 -5 31.5 -7.5t23.5 -2.5t23 2.5t31 7.5q-1 -31 -2.5 -65.5t-2.5 -69.5t-1.5 -69.5t-0.5 -64.5q0 -93 0.5 -165t1.5 -132q0 -18 0.5 -25t0.5 -22q43 0 90 2.5t113 14.5q-6 -23 -8.5 -34.5t-2.5 -17.5q0 -11 10 -50
q-16 1 -36.5 2.5t-41.5 2.5t-41.5 1.5t-36.5 0.5q-17 0 -36.5 -0.5t-39.5 -1.5t-39.5 -2t-35.5 -2q2 62 4 133t2 132v163z" />
    <glyph glyph-name="M" unicode="M" horiz-adv-x="665" 
d="M144 698q24 -67 46.5 -126.5t45.5 -118t47 -118.5t51 -126q12 31 29 72t36 89q16 39 33.5 82l35 86t34 84t30.5 76h39q7 -69 13 -141.5t11 -135.5q4 -50 9 -105.5t10 -112t10.5 -111.5t10.5 -102q-19 5 -33.5 7.5t-22.5 2.5t-21 -2.5t-30 -6.5q-7 107 -14 217.5
t-17 216.5q-41 -101 -83 -209t-77 -216h-32q-27 75 -58.5 157.5t-61.5 160.5q-10 25 -19.5 51t-19.5 52q-5 -56 -10 -118t-9 -121t-6.5 -109.5t-2.5 -84.5q-17 5 -28 8.5t-15 3.5q-5 0 -17.5 -4t-30.5 -9q9 78 19.5 171t20.5 188t19 186t15 166h43z" />
    <glyph glyph-name="N" unicode="N" horiz-adv-x="502" 
d="M434 -17q-72 112 -154.5 231.5t-163.5 234.5v1q-6 8 -6.5 9t0 0.5t-0.5 0.5t-7 9v-136q0 -30 0.5 -80.5t2 -102.5t3.5 -97.5t4 -65.5q-18 5 -30.5 9t-16.5 4q-5 0 -18 -4t-31 -9q2 14 4 43.5t4 68t4 83t3 88.5t2 84.5t1 71.5v87t-0.5 78t-1 63.5t-1.5 43.5h41
q43 -63 88 -128.5t88 -127.5t82.5 -118t72.5 -100q0 59 -0.5 122t-1 124.5t-2 119t-2.5 105.5q17 -6 28.5 -10t14.5 -4t14.5 4t29.5 10q-1 -14 -2.5 -40t-3 -58t-3 -67.5t-2.5 -69.5t-2 -63t-1 -47v-50.5v-60t0.5 -63.5t0.5 -62v-40.5t0.5 -38.5t0.5 -32v-20h-38z" />
    <glyph glyph-name="O" unicode="O" horiz-adv-x="625" 
d="M27 341q0 85 21 151.5t59 112t90 69.5t115 24t115.5 -24t90 -69.5t58.5 -112t21 -151.5t-21 -151.5t-58.5 -112.5t-90 -70t-115.5 -24t-115 24t-90 70t-59 112.5t-21 151.5zM490 341q0 73 -13.5 127t-37.5 88.5t-56.5 51.5t-70.5 17t-70 -17t-56 -51.5t-37.5 -88.5
t-13.5 -127q0 -74 13.5 -127.5t37.5 -88.5t56 -52t70 -17t70.5 17t56.5 52t37.5 88.5t13.5 127.5z" />
    <glyph glyph-name="P" unicode="P" horiz-adv-x="379" 
d="M38 422q0 61 -2.5 133t-4.5 134q27 -4 50 -6t39 -2q8 0 20 1t25 2q11 1 23.5 1.5t19.5 0.5q18 0 47 -3t57.5 -20t49 -53.5t20.5 -102.5q0 -69 -22.5 -111.5t-54.5 -66t-68.5 -32t-64.5 -8.5h-12.5h-8t-7.5 0.5t-11 0.5v-31q0 -30 0.5 -64.5t1.5 -69.5t2.5 -69.5
t2.5 -64.5q-17 4 -31 6.5t-23 2.5q-8 0 -22.5 -2.5t-32.5 -6.5q1 30 2.5 64.5t2.5 69.5t1.5 69.5t0.5 64.5v163zM133 365q16 -3 32 -3q19 0 39 6t36.5 21.5t27.5 42.5t11 69q0 34 -7 56t-20 34.5t-31.5 17t-41.5 4.5h-46v-248z" />
    <glyph glyph-name="Q" unicode="Q" horiz-adv-x="609" 
d="M12 341q0 85 21 151.5t59 112t90 69.5t115 24t115.5 -24t90 -69.5t58.5 -112t21 -151.5q0 -127 -48.5 -212.5t-124.5 -122.5q19 -20 41 -42.5t44.5 -45t45 -44t42.5 -40.5q-36 -2 -62 -21t-35 -36q-39 48 -84 103t-90 103h-14q-63 0 -115 24t-90 70t-59 112.5t-21 151.5z
M475 341q0 73 -13.5 127t-37.5 88.5t-56.5 51.5t-70.5 17t-70 -17t-56 -51.5t-37.5 -88.5t-13.5 -127q0 -74 13.5 -127.5t37.5 -88.5t56 -52t70 -17t70.5 17t56.5 52t37.5 88.5t13.5 127.5z" />
    <glyph glyph-name="R" unicode="R" horiz-adv-x="445" 
d="M40 422q0 61 -2.5 132.5t-4.5 133.5q28 -3 53.5 -5t46.5 -2q11 0 20.5 0.5t19.5 1.5t20.5 2t21.5 1q34 0 64 -8.5t52.5 -28.5t36 -52t13.5 -80q0 -43 -13 -75.5t-33 -56t-43.5 -38.5t-45.5 -23q7 -12 15.5 -26t18.5 -31q19 -32 44.5 -74.5t50.5 -83t46 -74.5t32 -49
q-32 6 -54.5 10t-29.5 4q-17 0 -52 -8q-11 22 -32.5 62t-47 85.5t-53 90.5t-49.5 77v-48q0 -30 0.5 -64.5t1.5 -69.5t2.5 -69.5t2.5 -64.5q-17 4 -31 6.5t-23 2.5q-8 0 -22.5 -2.5t-32.5 -6.5q1 30 2.5 64.5t2.5 69.5t1.5 69.5t0.5 64.5v163zM135 383q8 -1 14 -1h15
q19 0 39.5 6t37.5 20.5t28.5 39t11.5 60.5q0 31 -8.5 51.5t-22 32.5t-29.5 16.5t-31 4.5q-32 0 -51 -3v-18t-1 -19q-2 -36 -2.5 -75.5t-0.5 -75.5v-39z" />
    <glyph glyph-name="S" unicode="S" horiz-adv-x="367" 
d="M73 159q6 -17 15 -34.5t21.5 -31.5t28.5 -23t35 -9t34.5 9.5t26 25.5t16 37.5t5.5 45.5q0 26 -8 44.5t-20.5 32t-29 23.5t-34.5 20q-24 13 -47 27.5t-42 37t-30.5 55t-11.5 81.5q0 44 12 80.5t34.5 62.5t54.5 40.5t72 14.5q38 0 68.5 -14.5t58.5 -44.5q-9 -23 -15 -46
t-11 -57h-39q-3 13 -9 28.5t-14 29t-20 22.5t-27 9q-31 0 -52 -27t-21 -71q0 -27 8 -46.5t21.5 -33t30.5 -24t35 -19.5q24 -13 47 -27t41.5 -35t30 -51.5t11.5 -75.5q0 -47 -13.5 -89.5t-38 -74t-60.5 -50t-81 -18.5q-50 0 -83 21t-56 46q8 25 11 48t6 61h39z" />
    <glyph glyph-name="T" unicode="T" horiz-adv-x="408" 
d="M156 422v88.5t-1 88.5q-36 -1 -79.5 -5t-81.5 -10q6 22 8.5 34t2.5 20q0 10 -9 49q23 -1 49.5 -2t54 -2t54.5 -1.5t50 -0.5q22 0 49 0.5t54 1.5t53.5 2t49.5 2q-4 -20 -5.5 -32.5t-1.5 -17.5t1.5 -18.5t6.5 -34.5q-40 6 -83 10t-75 5q-1 -45 -1 -88.5v-88.5v-163
q0 -30 0.5 -64.5t1.5 -69.5t2.5 -69.5t2.5 -64.5q-18 4 -32.5 6.5t-22.5 2.5t-22.5 -2.5t-32.5 -6.5q1 30 2.5 64.5t2.5 69.5t1.5 69.5t0.5 64.5v163z" />
    <glyph glyph-name="U" unicode="U" horiz-adv-x="516" 
d="M404 359v118.5t-1 91.5t-2 70t-4 54q18 -5 31.5 -8.5t19.5 -3.5q4 0 15 4.5t27 10.5q-2 -33 -4.5 -83.5t-4.5 -108.5t-3.5 -118t-1.5 -112q-1 -67 -16 -120.5t-43.5 -91.5t-69.5 -58.5t-93 -20.5q-116 0 -169 70.5t-53 218.5q0 24 0.5 44.5t1.5 40.5q1 17 1.5 32.5
t0.5 32.5q0 58 -1 107t-2 88v17.5t-0.5 21t-0.5 20v15.5q17 -5 32.5 -7.5t23.5 -2.5q5 0 19.5 3.5t32.5 8.5q-3 -28 -5 -67t-3.5 -85t-2 -97t-0.5 -102q0 -45 2 -94t15 -89.5t41.5 -67t80.5 -26.5q34 0 57.5 14t38.5 37.5t23 54t12 63t4.5 65t0.5 60.5z" />
    <glyph glyph-name="V" unicode="V" horiz-adv-x="506" 
d="M209 9q-16 59 -40.5 142.5t-53 176.5t-58.5 188t-56 176q23 -5 39.5 -8t25.5 -3q18 0 50 8q31 -126 67.5 -251.5t80.5 -268.5q19 61 41 133.5t42 144t37 136t28 108.5q14 -5 24.5 -7.5t15.5 -2.5q4 0 19 4.5t38 11.5q-28 -81 -57.5 -171t-58.5 -182t-56 -182t-51 -171
q-13 4 -22 6.5t-14 2.5q-10 0 -16 -3z" />
    <glyph glyph-name="W" unicode="W" horiz-adv-x="785" 
d="M183 9q-2 9 -4.5 21t-5.5 27q-9 38 -22 94t-27.5 119t-30 128.5t-29.5 123.5t-25.5 103t-17.5 67q21 -5 36.5 -8t25.5 -3q8 0 21 2.5t30 6.5q13 -72 23.5 -126.5t22 -109t26.5 -117.5t37 -153q2 7 3.5 15t3.5 16q14 56 31.5 127t34 139.5t29.5 125.5t18 85q14 -5 24 -8
t15 -3q4 0 14 2.5t24 7.5q5 -26 14.5 -66.5t21 -89t23.5 -100.5t24 -100t22 -88.5t16 -64.5q9 36 19.5 82.5t22 96.5t23 100.5t21 95t17 80t10.5 54.5q14 -5 24.5 -7.5t15.5 -2.5t18.5 4t34.5 11q-7 -22 -21.5 -76t-33 -124.5t-39 -149t-38.5 -149.5t-32.5 -127t-20.5 -81
q-14 5 -23.5 8t-14.5 3q-3 0 -12.5 -3t-23.5 -8q-16 66 -29.5 125t-27.5 117.5t-29.5 119.5t-33.5 131q-12 -46 -28 -108t-33 -129t-33.5 -133.5t-30.5 -121.5q-14 5 -23.5 7.5t-13.5 2.5q-5 0 -9.5 -1t-9.5 -3z" />
    <glyph glyph-name="X" unicode="X" horiz-adv-x="466" 
d="M144 689q20 -55 45 -115.5t53 -122.5q26 53 52 110.5t55 129.5q28 -10 37 -10q5 0 22 5.5t43 13.5q-5 -9 -12.5 -24.5t-16.5 -32t-17 -31.5t-12 -24q-31 -56 -58.5 -107.5t-55.5 -109.5q20 -45 42.5 -94t45.5 -98.5t46 -98.5t44 -92q-28 5 -47 8.5t-27 3.5q-9 0 -21 -2
t-29 -6q-5 11 -12 28t-12 27q-12 31 -21.5 56t-19 49t-21 49t-26.5 56q-29 -61 -58 -129t-58 -137q-13 4 -22.5 6.5t-14.5 2.5q-4 0 -21.5 -5.5t-43.5 -13.5q21 40 44.5 86t47.5 93t47 93t43 87q-4 7 -7 14.5t-7 15.5q-16 36 -35 77.5t-39 84.5t-39.5 84.5t-36.5 77.5
q29 -6 47.5 -9.5t25.5 -3.5q18 0 50 8z" />
    <glyph glyph-name="Y" unicode="Y" horiz-adv-x="453" 
d="M171 -9q6 66 7 139t1 149q-8 18 -23 51.5t-33.5 75t-38.5 86t-38.5 84.5t-33 71t-21.5 46q24 -5 43 -8.5t30 -3.5q21 0 51 8q16 -41 30 -77.5t28.5 -72.5t30.5 -74t34 -80q29 65 61.5 146t59.5 160q14 -5 25 -7.5t16 -2.5t22 4.5t41 11.5q-67 -139 -116 -243.5
t-73 -164.5q0 -35 0.5 -78t1.5 -85t2.5 -78.5t2.5 -57.5q-19 5 -33 7.5t-21 2.5q-9 0 -23.5 -2.5t-32.5 -6.5z" />
    <glyph glyph-name="Z" unicode="Z" horiz-adv-x="468" 
d="M13 36q28 51 58.5 107.5t60.5 113.5t58 111.5t52 100.5t41.5 81t26.5 54h-20q-25 0 -58.5 -1.5t-68.5 -4t-68.5 -6t-58.5 -6.5q4 17 7 32.5t3 19.5q0 5 -3 19.5t-6 31.5q56 -6 133.5 -7t186.5 -1q14 0 29 1t30 3h6.5t11.5 0.5t11 0.5h7v-42q-13 -19 -36.5 -60t-52 -93
t-59.5 -111.5t-60 -115.5t-53.5 -105t-39.5 -80q9 -1 16 -1h15q27 0 63.5 1.5t75 4.5t73.5 6.5t58 7.5q0 -2 -0.5 -15.5t-0.5 -15.5q-3 -14 -3 -23q0 -1 2.5 -16t4.5 -34q-51 2 -99.5 4t-89.5 2q-28 0 -66 -0.5t-75 -1.5t-68 -2.5t-44 -2.5v43z" />
    <glyph glyph-name="bracketleft" unicode="[" horiz-adv-x="167" 
d="M31 404q0 33 -0.5 69.5t-1.5 73.5t-2 73.5t-2 68.5q22 -4 35.5 -6t20.5 -2q9 0 23 0.5t28.5 1t27.5 1.5t20 1v-5t-0.5 -8.5t-0.5 -8.5v-5v-14v-5t0.5 -8.5t0.5 -8v-4.5q-15 1 -32 2t-34 1q-2 -54 -3 -108.5t-1 -108.5v-238q0 -59 1 -109t3 -108q17 1 36 1.5t30 1.5v-5.5
t-0.5 -9t-0.5 -8.5v-5v-13q0 -2 0.5 -13.5t0.5 -12.5q-7 0 -20 0.5t-27.5 1t-28.5 1t-23 0.5q-15 0 -56 -7q1 32 2 68.5t2 73.5t1.5 73.5t0.5 69.5v238z" />
    <glyph glyph-name="backslash" unicode="\" horiz-adv-x="253" 
d="M-19 716q19 -8 31.5 -13t15.5 -5q2 0 11 3t20 8l212 -744q-19 8 -31.5 13t-16.5 5q-2 0 -10.5 -3t-19.5 -8z" />
    <glyph glyph-name="bracketright" unicode="]" horiz-adv-x="168" 
d="M57 404q0 59 -1 108.5t-3 108.5q-18 -1 -38 -1.5t-32 -1.5q2 12 4 22.5t2 11.5q0 -2 -2 9t-4 24q7 0 20.5 -1t29 -1.5t30 -1t23.5 -0.5q7 0 21 2t34 6q-1 -32 -1.5 -68.5t-1 -73.5t-1 -73.5t-0.5 -69.5v-238q0 -33 0.5 -69.5t1 -73.5t1 -73.5t1.5 -68.5q-20 4 -34 5.5
t-21 1.5h-23.5h-30h-29h-20.5q2 11 4 19.5t2 10.5t-2 12t-4 23q14 -1 33.5 -2.5t36.5 -1.5q2 54 3 108.5t1 108.5v238z" />
    <glyph glyph-name="asciicircum" unicode="^" horiz-adv-x="425" 
d="M181 658h63l181 -466h-78l-135 350q-34 -87 -68.5 -176t-66.5 -174h-79z" />
    <glyph glyph-name="underscore" unicode="_" horiz-adv-x="462" 
d="M34 -123v85h393v-85h-393z" />
    <glyph glyph-name="grave" unicode="`" horiz-adv-x="187" 
d="M29 622q-11 9 -21.5 22.5t-10.5 36.5q0 24 15 36.5t28 12.5t25 -8.5t21 -21.5q13 -18 30.5 -41t35 -47t34 -46t28.5 -37h-75z" />
    <glyph glyph-name="a" unicode="a" horiz-adv-x="370" 
d="M50 429q38 38 69.5 52t62.5 14q30 0 55 -11.5t42.5 -32.5t27.5 -50t10 -65v-52.5t-1 -52.5t-1.5 -57t-0.5 -59q0 -17 1 -34t7 -17q1 0 6 3t28 22v-73q-11 -6 -28 -13t-36 -7q-20 0 -34.5 10t-23.5 27q-22 -24 -45.5 -35.5t-57.5 -11.5q-21 0 -41.5 9.5t-36 27t-25 42.5
t-9.5 56q0 66 30 101.5t84 47.5q33 7 51.5 11.5t27.5 9.5t11 11t2 15q0 40 -13.5 70t-46.5 30q-22 0 -42.5 -16.5t-32.5 -47.5h-40v76zM224 226q-5 -2 -8.5 -2.5t-7.5 -1.5q-16 -4 -33 -9t-30.5 -14t-22 -24.5t-8.5 -40.5q0 -35 13 -53t30 -18q20 0 37.5 14.5t27.5 36.5z
" />
    <glyph glyph-name="b" unicode="b" horiz-adv-x="393" 
d="M394 254q0 -59 -14 -108t-38.5 -84.5t-57.5 -55.5t-71 -20q-32 0 -59.5 16.5t-46.5 40.5q-8 -10 -16.5 -20t-18.5 -23h-42q1 22 2.5 57.5t2.5 75.5t1.5 80.5t0.5 73.5v171q0 33 -0.5 74.5t-2 83t-3 78.5t-2.5 61q36 -11 53 -11q10 0 56 11q-2 -16 -3 -51t-2.5 -79.5
t-2.5 -92t-2 -89.5v-1q42 53 102 53q42 0 73 -20t51 -53t30 -76.5t10 -91.5zM293 256q0 79 -24 120t-53 41q-18 0 -34.5 -10t-29 -32.5t-20 -59.5t-7.5 -90q0 -85 21.5 -128t63.5 -43q18 0 33 14.5t26 41t17.5 63.5t6.5 83z" />
    <glyph glyph-name="c" unicode="c" horiz-adv-x="375" 
d="M19 240q0 66 17 114.5t45 79.5t63.5 46t73.5 15q44 0 81 -17.5t55 -39.5q-6 -20 -11.5 -41t-9.5 -44h-34q-5 12 -13 25t-18 24t-22.5 18t-25.5 7q-27 0 -46 -14t-31.5 -39t-18 -59t-5.5 -74q0 -88 26.5 -133t77.5 -45q23 0 52 22.5t50 56.5l27 -27q-1 -11 -3 -30.5
t-3 -30.5q-25 -27 -61.5 -47.5t-74.5 -20.5q-35 0 -69 14t-61 44.5t-44 79t-17 116.5z" />
    <glyph glyph-name="d" unicode="d" horiz-adv-x="392" 
d="M262 33q-17 -18 -42.5 -32.5t-57.5 -14.5q-30 0 -59.5 14.5t-52.5 45t-37 78t-14 113.5q0 65 15 113.5t39.5 80.5t55 48t62.5 16q56 0 91 -41q0 88 -0.5 167.5t-2.5 135.5q1 0 6 -2t11 -3.5t11.5 -3.5t6.5 -2h-1q6 -2 14 -2q-1 0 8 1t15 2q7 2 19.5 4.5t14.5 3.5
q-3 -37 -5.5 -99t-3.5 -134t-1.5 -146t-0.5 -135q0 -58 0.5 -106.5t1.5 -98.5v-45q-2 0 -7 1t-10.5 2t-10.5 2.5t-6 1.5q-10 2 -12 2q-5 0 -13 -2q-1 0 -6 -1.5t-11 -2.5t-11.5 -2t-6.5 -1zM100 232q0 -51 7 -84.5t18 -53t25 -27.5t28 -8q23 0 39.5 16.5t27 43.5t15.5 61.5
t5 69.5q0 81 -21 124t-63 43q-21 0 -36 -14.5t-25 -39t-15 -58.5t-5 -73z" />
    <glyph glyph-name="e" unicode="e" horiz-adv-x="387" 
d="M20 227q0 124 47 196t135 72q42 0 73 -17t51.5 -46t30.5 -67.5t10 -81.5q0 -9 -0.5 -28t-1.5 -28q-13 0 -35 0.5t-35 0.5q-26 1 -50 1.5t-50 0.5q-16 0 -31 -0.5t-31 -1.5h-13v-9q0 -33 7 -61.5t20.5 -49.5t32.5 -33t44 -12q24 0 53 22.5t51 55.5l26 -26l-6 -61
q-25 -27 -62 -47.5t-74 -20.5q-43 0 -78 18.5t-60.5 51t-39.5 76.5t-14 95zM203 427q-20 0 -34 -11.5t-23.5 -30t-14.5 -41t-7 -44.5h7q16 -1 32.5 -1.5t32.5 -0.5q17 0 32 0.5t32 1.5h12q0 22 -3.5 44.5t-11 41t-20.5 30t-34 11.5z" />
    <glyph glyph-name="f" unicode="f" horiz-adv-x="232" 
d="M209 626q-26 21 -40 21q-22 0 -31 -23t-9 -53q0 -14 2 -39.5t5 -51.5h20q9 0 29 0.5t29 0.5q-2 -13 -3.5 -24t-1.5 -14t2 -14t4 -24h-10t-14.5 0.5t-14 0.5h-9.5q-12 1 -14.5 1.5t-14.5 0.5q0 -103 0.5 -209.5t2.5 -209.5q-17 5 -29.5 8t-20.5 3q-6 0 -20 -2.5t-31 -7.5
q5 105 6.5 209t1.5 208q-3 0 -7 -0.5t-7 -0.5h-7.5t-12.5 -0.5t-13 -0.5h-8q4 21 4.5 27.5t0.5 10.5t-0.5 11t-3.5 27h9.5t14 -0.5t14.5 -0.5h10h6q1 28 6.5 59.5t13.5 61.5t19.5 56t25.5 44q15 20 38.5 35.5t49.5 15.5q9 0 33 -8q0 -7 -0.5 -20.5t-0.5 -19.5
q-1 -13 -1.5 -30.5t-0.5 -29.5z" />
    <glyph glyph-name="g" unicode="g" horiz-adv-x="396" 
d="M33 322q0 44 12.5 76.5t33.5 54t49.5 32t60.5 10.5q8 0 18.5 -0.5t20.5 -1.5q5 -1 9.5 -1t9.5 -1q3 0 6.5 -0.5t6.5 -0.5q11 -1 20 -2t15 -1q20 0 41.5 3.5t39.5 8.5q-2 -14 -4 -27.5t-2 -18.5q0 -2 2 -14.5t4 -27.5l-47 6q-8 1 -8 1.5t1 0.5t0.5 0h-7.5q14 -21 20 -46.5
t6 -52.5q0 -81 -41 -126t-110 -45q-5 0 -11 0.5t-11 0.5q-5 1 -9.5 1h-7.5q-6 0 -11 -6.5t-5 -17.5q0 -15 4.5 -22t18.5 -8q11 -1 19.5 -1h18.5q10 -1 20 -1h20q74 -3 107 -42.5t33 -97.5q0 -36 -10.5 -73.5t-33.5 -68t-58.5 -50t-84.5 -19.5q-78 0 -122.5 41.5t-44.5 113.5
q0 48 16.5 78t42.5 49q-13 14 -20.5 33t-7.5 42q0 24 11 46t24 36q-26 23 -40.5 57t-14.5 82zM286 -86q0 45 -20.5 65.5t-68.5 20.5q-44 0 -68 -20.5t-24 -70.5q0 -55 24.5 -77.5t60.5 -22.5q18 0 35.5 6.5t31 19t21.5 32.5t8 47zM247 326q0 50 -16 76.5t-42 26.5
q-29 0 -45.5 -29t-16.5 -78q0 -51 15 -80.5t47 -29.5q15 0 26 9.5t18 25t10.5 36t3.5 43.5z" />
    <glyph glyph-name="h" unicode="h" horiz-adv-x="359" 
d="M37 458q0 33 -0.5 74.5t-1.5 83t-2.5 78.5t-3.5 61q39 -11 53 -11q18 0 53 11q-2 -24 -3 -61t-2 -78t-1.5 -81.5t-0.5 -71.5v-11q37 43 95 43q23 0 47 -8t43 -29t31 -56.5t12 -90.5v-39.5t-1 -40.5q-1 -21 -1.5 -46.5t-0.5 -48.5v-34.5t0.5 -39t1 -38.5t1.5 -34
q-17 5 -30 7.5t-20 2.5q-6 0 -18.5 -3t-29.5 -8v26t0.5 31t1 31t0.5 26q1 29 2 60.5t1 61.5v58q0 60 -16 92.5t-43 32.5q-40 0 -58 -35.5t-18 -101.5q0 -27 0.5 -65t1.5 -78.5t2 -77t3 -60.5q-17 5 -31 7.5t-22 2.5q-6 0 -20 -2.5t-33 -7.5q2 24 3.5 61t2.5 78.5t1.5 83
t0.5 74.5v171z" />
    <glyph glyph-name="i" unicode="i" horiz-adv-x="133" 
d="M19 289q0 39 -1.5 90t-7.5 112q17 -5 31.5 -7.5t22.5 -2.5q7 0 20.5 2.5t32.5 7.5q-5 -54 -6.5 -105.5t-1.5 -96.5v-98q0 -45 1.5 -96t6.5 -105q-19 5 -32.5 7.5t-20.5 2.5t-20.5 -3t-33.5 -8q6 61 7.5 111.5t1.5 90.5v98zM9 631q0 28 16 47.5t39 19.5t39 -19.5t16 -47.5
t-16 -47.5t-39 -19.5t-39 19.5t-16 47.5z" />
    <glyph glyph-name="j" unicode="j" horiz-adv-x="174" 
d="M62 252q0 28 -0.5 61.5t-2 66t-3 62t-2.5 49.5q17 -5 30.5 -7.5t21.5 -2.5t22 2.5t31 7.5q-2 -20 -3 -46t-2 -53.5t-1.5 -54.5t-0.5 -48v-98v-108q1 -27 1.5 -55t0.5 -54q0 -42 -3.5 -77.5t-20.5 -70.5q-18 -34 -53.5 -57.5t-83.5 -25.5l-8 79q5 -2 10.5 -3.5t10.5 -3.5
t10 -3q15 0 24 14.5t14 37.5t6.5 51t1.5 56v281zM51 631q0 28 16 47.5t39 19.5t39.5 -19.5t16.5 -47.5t-16.5 -47.5t-39.5 -19.5t-39 19.5t-16 47.5z" />
    <glyph glyph-name="k" unicode="k" 
d="M38 458q0 33 -0.5 74.5t-2 83t-3 78.5t-2.5 61q36 -11 53 -11q16 0 52 11q-2 -24 -3 -61t-2 -78.5t-1.5 -83t-0.5 -74.5v-160l4 5q6 6 21 25.5t34.5 46t41 57t40.5 58.5q24 -9 34 -9h10.5t13.5 2q4 0 14 4l18 -27q-47 -51 -88 -97t-73 -88q20 -32 44.5 -69.5t49.5 -75.5
t49.5 -74.5t45.5 -67.5q-32 5 -53 8.5t-29 3.5q-11 0 -21.5 -2t-23.5 -5q-14 24 -31.5 52.5l-35 57t-34.5 54.5t-31 47v-23q0 -21 0.5 -45.5t1.5 -50t2 -50t3 -45.5q-17 5 -30.5 7.5t-21.5 2.5t-22 -2.5t-31 -7.5q1 24 2.5 61t3 78.5t2 83t0.5 74.5v171z" />
    <glyph glyph-name="l" unicode="l" horiz-adv-x="150" 
d="M28 458q0 33 -0.5 74.5t-1.5 83t-2.5 78.5t-3.5 61q36 -11 53 -11q14 0 53 11q-2 -24 -3.5 -61t-2.5 -78.5t-1.5 -83t-0.5 -74.5v-171q0 -33 0.5 -74.5t1.5 -83t2.5 -78.5t3.5 -61q-19 5 -32.5 7.5t-20.5 2.5q-8 0 -22 -2.5t-31 -7.5q2 24 3.5 61t2.5 78.5t1.5 83
t0.5 74.5v171z" />
    <glyph glyph-name="m" unicode="m" horiz-adv-x="603" 
d="M42 289q0 21 -0.5 48t-2 54.5t-3 53.5t-2.5 46q17 -5 30.5 -7.5t21.5 -2.5q5 0 18 2.5t30 7.5q0 -10 -0.5 -13t-1 -5t-0.5 -5t1 -12q34 39 87 39q32 0 60.5 -18.5t45.5 -47.5q43 66 112 66q55 0 91.5 -39.5t36.5 -129.5v-27t-1 -31q-1 -26 -2 -64t-1 -87v-29t0.5 -33
t1 -33.5t1.5 -31.5q-17 5 -30 7.5t-20 2.5t-21 -3.5t-31 -8.5q2 34 5 115t3 210q0 40 -12 67.5t-44 27.5q-19 0 -32.5 -10.5t-21.5 -24.5v1q-5 -10 -7.5 -19t-4.5 -29.5t-2.5 -57.5t-0.5 -103q0 -32 1 -58t2 -55v-12.5t0.5 -18t0.5 -18v-13.5q-17 5 -30 7.5t-20 2.5
t-21 -2.5t-31 -7.5q2 27 3.5 58t2.5 62.5t1.5 62t0.5 56.5v66.5t-1.5 38.5t-4 22.5t-6.5 19.5q-5 14 -17 23t-23 9q-37 0 -54.5 -35.5t-17.5 -101.5v-80q0 -21 0.5 -47.5t1.5 -54t2 -53.5t3 -46q-17 5 -30.5 7.5t-22.5 2.5q-8 0 -21.5 -2.5t-30.5 -7.5q1 20 2.5 46t3 53.5
t2 54t0.5 47.5v98z" />
    <glyph glyph-name="n" unicode="n" horiz-adv-x="384" 
d="M261 283q0 60 -16 92.5t-43 32.5q-40 0 -58 -35.5t-18 -101.5v-80q0 -45 1 -96.5t6 -105.5q-19 5 -33 8t-20 3t-20 -2.5t-33 -7.5q5 54 6.5 105t1.5 96v98q0 45 -1.5 96.5t-6.5 105.5q19 -5 33 -7.5t20 -2.5q5 0 18 2.5t30 7.5q0 -10 -0.5 -13.5t-0.5 -5.5v-5.5v-13.5
q19 21 41.5 31.5t52.5 10.5q23 0 47 -8t43 -29t31 -56.5t12 -90.5v-39.5t-1 -40.5q-1 -21 -1.5 -46.5t-0.5 -48.5v-34.5t0.5 -39t1 -38.5t1.5 -34q-17 5 -30 7.5t-20 2.5q-6 0 -18.5 -3t-29.5 -8v26t0.5 31t1 31t0.5 26q1 29 2 60.5t1 61.5v58v0z" />
    <glyph glyph-name="o" unicode="o" horiz-adv-x="427" 
d="M22 240q0 70 17 118.5t44 79t61 44t69 13.5q34 0 68.5 -13.5t61.5 -44t44 -79t17 -118.5t-17 -118.5t-44 -78.5t-61.5 -43.5t-68.5 -13.5q-35 0 -69 13.5t-61 43.5t-44 78.5t-17 118.5zM122 240q0 -36 4.5 -69.5t15 -59.5t28 -41.5t43.5 -15.5t43.5 15.5t28 41.5t15 59.5
t4.5 69.5t-4.5 70t-15 60t-28 41.5t-43.5 15.5t-43.5 -15.5t-28 -41.5t-15 -60t-4.5 -70z" />
    <glyph glyph-name="p" unicode="p" horiz-adv-x="394" 
d="M37 191q0 33 -0.5 74.5t-2 83.5t-3 79.5l-2.5 62.5q17 -5 31 -7.5t22 -2.5t20.5 2.5t29.5 7.5v-35q-1 -3 -1 -7q17 20 41 33t58 13q30 0 59.5 -14.5t53 -45.5t37.5 -78.5t14 -113.5q0 -65 -15 -113t-40 -80t-56 -48t-62 -16q-56 0 -94 41q0 -33 0.5 -73t1.5 -80t2.5 -75
t2.5 -58q-17 5 -30.5 7.5t-21.5 2.5t-22 -2.5t-31 -7.5q1 24 2.5 61t3 78.5t2 83t0.5 74.5v153zM293 244q0 51 -7 84.5t-18.5 53t-25.5 27.5t-28 8q-24 0 -40.5 -14.5t-27 -39t-15 -57.5t-4.5 -70q0 -177 85 -177q21 0 36 14.5t25 39t15 58.5t5 73z" />
    <glyph glyph-name="q" unicode="q" horiz-adv-x="395" 
d="M357 38q0 -33 0.5 -74.5t1.5 -83t2.5 -78.5t3.5 -61q-19 5 -33 7.5t-20 2.5q-8 0 -22 -2.5t-31 -7.5q1 24 2.5 61t2.5 78.5t1.5 83t0.5 73.5q-42 -51 -98 -51q-30 0 -60 13t-54 42.5t-39 77.5t-15 118q0 67 15.5 116t39.5 80.5t54 46.5t59 15q30 0 53 -10.5t40 -28.5
q0 8 -1 17.5t-2 18.5q39 -11 54 -11q6 0 20 2.5t33 7.5q-2 -25 -3.5 -62.5t-2.5 -79.5t-1.5 -83.5t-0.5 -74.5v-153zM266 250q0 33 -4.5 63t-14.5 53t-26 37t-38 14q-14 0 -28.5 -8t-26.5 -29t-19.5 -57.5t-7.5 -92.5q0 -37 4.5 -68t14 -54t23.5 -36t33 -13q22 0 39 16.5
t28.5 43.5t17 61t5.5 70z" />
    <glyph glyph-name="r" unicode="r" horiz-adv-x="230" 
d="M205 359q-7 10 -16.5 18t-14.5 8q-25 0 -39 -32.5t-14 -80.5q0 -62 0.5 -107.5t1 -79.5t1 -57t1.5 -39q-17 5 -30 8t-19 3q-8 0 -21 -2.5t-30 -7.5q2 35 3.5 102.5t1.5 147.5v31v43.5t-0.5 54.5t-1.5 60.5t-2 61.5q17 -5 30 -7.5t20 -2.5q12 0 48 11q-2 -17 -2.5 -22.5
t-0.5 -7t0.5 -3t0.5 -10.5q33 46 73 46q9 0 18.5 -3t27.5 -13q-7 -21 -8 -47t-1 -46z" />
    <glyph glyph-name="s" unicode="s" horiz-adv-x="292" 
d="M74 124q4 -10 10.5 -21.5t15 -21t19 -16t21.5 -6.5q20 0 35 16.5t15 49.5q0 31 -18.5 44t-42.5 22q-19 7 -38 16.5t-34 25t-24.5 39.5t-9.5 61q0 35 9 65t26.5 51.5t43 33.5t58.5 12q23 0 40 -7t31 -14q5 -3 11.5 -6t20.5 -8q-4 -9 -8 -22.5t-7 -27t-5.5 -26.5t-2.5 -21
h-41q-6 23 -18.5 41t-29.5 18q-14 0 -28 -14.5t-14 -46.5q0 -16 5.5 -27t14 -18.5t20 -13t23.5 -10.5q19 -7 37.5 -16t33.5 -24t24.5 -38.5t9.5 -59.5q0 -30 -10.5 -60t-29.5 -54t-46 -39t-61 -15q-37 0 -65.5 14t-49.5 29q3 8 6 20t6 25t4.5 26t1.5 24h41z" />
    <glyph glyph-name="t" unicode="t" horiz-adv-x="218" 
d="M116 612h29l-4 -70t-3 -70q15 1 38 2t37 2v-81q-32 3 -47 3.5t-29 0.5q-1 -14 -1.5 -40.5t-1 -58t-0.5 -64v-58.5q0 -23 0.5 -45.5t4.5 -40t11 -28t21 -10.5q5 0 20 4.5t32 11.5v-63q-18 -9 -38 -15t-36 -6q-54 0 -80 36.5t-26 100.5q0 21 0.5 45.5t1.5 51.5q1 38 2 77.5
t1 101.5h-52q2 12 3.5 23t1.5 16q0 3 -1.5 15t-3.5 26q16 -2 31 -3.5t19 -1.5q-1 20 -1 46.5t-1 49.5z" />
    <glyph glyph-name="u" unicode="u" horiz-adv-x="385" 
d="M29 160q0 27 0.5 50t1.5 43q1 17 1 32v31v38t-0.5 46t-1 47.5t-0.5 43.5q17 -5 30 -7.5t19 -2.5q13 0 49 11q-2 -28 -3 -63.5t-2.5 -74t-2 -77.5t-0.5 -74q0 -45 5.5 -69t13.5 -35t19 -18.5t26 -7.5q23 0 38.5 14.5t22.5 33.5q4 12 7 24t4.5 32t2 51.5t0.5 82.5v43
t-0.5 49t-1 48t-1.5 40q33 -10 50 -10q16 0 49 12q-3 -75 -4.5 -157t-1.5 -157q0 -21 0.5 -46t1 -50.5t1 -49.5t1.5 -44q-17 5 -29.5 8t-17.5 3t-17.5 -3.5t-29.5 -8.5q0 10 0.5 14.5t0.5 7.5v7v14q-20 -23 -43.5 -34t-49.5 -11q-64 0 -101 45t-37 129z" />
    <glyph glyph-name="v" unicode="v" horiz-adv-x="377" 
d="M146 9q-2 11 -5.5 21.5t-6.5 21.5v-1q-15 51 -31.5 107t-34 113t-35.5 113.5t-36 107.5q46 -11 65 -11q11 0 45 8q10 -46 20.5 -86.5t21 -80t23 -80.5t27.5 -87q24 67 41.5 135t37.5 140q1 6 3.5 14t5 17t4.5 17t4 13q24 -10 34 -10q3 0 17 4.5t36 13.5
q-19 -57 -41 -122.5t-43.5 -133t-41.5 -133t-35 -121.5q-14 5 -23 8t-11 3q-4 0 -7.5 -1t-8.5 -3z" />
    <glyph glyph-name="w" unicode="w" horiz-adv-x="607" 
d="M146 10q-9 39 -23.5 97t-32.5 123.5t-37.5 133.5t-38.5 129q22 -6 37.5 -9t22.5 -3q15 0 48 9q9 -44 16.5 -81.5t16 -74.5t18.5 -76t24 -86q9 32 19.5 71.5t21 81.5t20.5 85t19 82q30 -11 36 -11q4 0 34 11q9 -45 17 -83t17 -75t19 -76.5t23 -86.5q10 34 21.5 75.5
t23.5 84t23 84t20 77.5q30 -11 35 -11q4 0 18.5 5.5t34.5 13.5q-20 -57 -41.5 -121.5t-42.5 -131t-40.5 -131t-34.5 -121.5h-10q-4 0 -10 1q-10 4 -13 4q-1 0 -12 -4.5t-20 -7.5q-9 43 -17 79.5t-16.5 73t-19 75t-24.5 84.5q-9 -33 -19.5 -72t-21 -79.5t-20 -80t-17.5 -73.5
q-23 0 -25 1t-3 3q-2 0 -4 0.5t-3 0.5q-4 0 -8 -2q-2 -1 -3.5 -2t-8.5 -1z" />
    <glyph glyph-name="x" unicode="x" horiz-adv-x="406" 
d="M129 488q20 -44 40 -84t40 -78q23 40 45.5 82.5t42.5 80.5q26 -8 34 -8q5 0 23.5 5.5t46.5 14.5q-17 -26 -37 -57t-41 -63.5t-40.5 -63.5t-35.5 -56q16 -30 35.5 -65.5t40 -72t40.5 -71.5t38 -65q-26 5 -45.5 9t-29.5 4q-15 0 -47 -8q-12 24 -22 45.5t-20.5 42
t-21.5 41.5t-24 45q-23 -43 -47 -88.5t-44 -86.5q-12 4 -20.5 6.5t-11.5 2.5q-5 0 -23.5 -6t-45.5 -17q17 28 37 61t40.5 67.5t40.5 68t36 61.5q-16 28 -34.5 61.5t-38 68t-39 68t-35.5 61.5q26 -6 45.5 -9.5t30.5 -3.5q8 0 20 1.5t27 5.5z" />
    <glyph glyph-name="y" unicode="y" horiz-adv-x="372" 
d="M45 -266q37 81 63.5 150t46.5 129q-9 29 -22 72.5t-28.5 92t-31 98.5t-29.5 93.5t-24.5 76.5t-15.5 48q22 -7 38 -10t23 -3q17 0 47 8q11 -45 21 -83.5t21 -77t23.5 -78.5t27.5 -87q12 37 24.5 78t24 83.5t22.5 85t20 81.5q27 -10 37 -10q3 0 18 5t38 13
q-7 -18 -25.5 -72t-43.5 -126.5t-53 -156t-53 -161.5t-45 -143t-28 -100q-14 5 -23.5 8t-13.5 3q-5 0 -20.5 -4.5t-38.5 -12.5z" />
    <glyph glyph-name="z" unicode="z" horiz-adv-x="378" 
d="M14 33q25 41 52 87.5t53 92.5t50.5 89.5t44.5 79.5q4 7 5.5 10l2 4t2 2.5t4.5 7.5q-19 -1 -43.5 -3t-50 -4t-49 -4t-41.5 -4q6 26 7 34t1 14q0 5 -1 13.5t-6 35.5q36 -5 85.5 -6t116.5 -1q27 0 51 1t60 6v-41q-29 -49 -60.5 -104.5t-61 -107t-54 -94.5t-37.5 -68
q22 0 43 0.5t45 2.5t53 5t68 8v-6t-0.5 -10.5t-0.5 -10.5v-6q-1 -5 -1 -9v-6v-6.5t1 -8.5v-5.5t0.5 -10t0.5 -10v-5.5q-11 0 -31.5 0.5t-31.5 1.5q-32 2 -66 2.5t-66 0.5q-48 0 -94 -3h1q-8 -1 -18.5 -1.5t-33.5 -0.5v38z" />
    <glyph glyph-name="braceleft" unicode="{" horiz-adv-x="187" 
d="M-6 324q26 0 39 19t13 51v160q0 75 21 102.5t60 27.5h59v-73h-41q-9 0 -13.5 -10.5t-4.5 -46.5v-155q0 -44 -11 -71t-35 -44q23 -18 34.5 -45t11.5 -69v-155q0 -35 4.5 -46t13.5 -11h41v-72h-59q-39 0 -60 27.5t-21 101.5v161q0 32 -13 51t-39 19v78z" />
    <glyph glyph-name="bar" unicode="|" horiz-adv-x="133" 
d="M25 747h75v-983h-75v983z" />
    <glyph glyph-name="braceright" unicode="}" horiz-adv-x="188" 
d="M193 246q-26 0 -38.5 -19t-12.5 -51v-161q0 -74 -21 -101.5t-60 -27.5h-60v72h41q9 0 13.5 11t4.5 46v155q0 42 12 69t34 46q-23 17 -34.5 44t-11.5 70v155q0 36 -4.5 46.5t-13.5 10.5h-41v73h60q39 0 60 -27.5t21 -102.5v-160q0 -32 12.5 -51t38.5 -19v-78z" />
    <glyph glyph-name="asciitilde" unicode="~" horiz-adv-x="406" 
d="M20 236q21 45 44.5 71.5t62.5 26.5q26 0 43.5 -8t34.5 -19h-1q6 -3 12.5 -7t12.5 -8q14 -9 26 -15.5t24 -6.5q7 0 15 9.5t16.5 24t17 31.5t14.5 33l44 -86q-9 -17 -19.5 -35t-24 -32t-29.5 -23t-35 -9q-23 0 -44 10.5t-47 27.5q-17 11 -30.5 18.5t-24.5 7.5t-20.5 -10
t-18 -25t-15.5 -33t-12 -34z" />
    <glyph glyph-name="exclamdown" unicode="&#xa1;" horiz-adv-x="147" 
d="M97 322q1 -23 2.5 -49t3.5 -54t3.5 -55t3.5 -51q3 -48 6 -93t5 -81t3.5 -59.5t1.5 -28.5q0 -37 -17 -51.5t-37 -14.5t-37 14.5t-17 51.5q0 7 2 45t5.5 93.5t8 122t8.5 130.5q0 8 1 19t1.5 22t1 21.5t0.5 17.5h51zM12 422q0 30 18 51.5t42 21.5t42 -21.5t18 -51.5
t-18 -51.5t-42 -21.5t-42 21.5t-18 51.5z" />
    <glyph glyph-name="cent" unicode="&#xa2;" horiz-adv-x="339" 
d="M5 240q0 56 12 98.5t33 73.5t49 49.5t59 26.5q-1 20 -2.5 49t-4.5 64q16 -7 26.5 -11t14.5 -4q3 0 13.5 4t26.5 11q-4 -34 -5.5 -60.5t-1.5 -46.5q37 -5 68 -20.5t47 -35.5q-6 -20 -11.5 -41t-9.5 -44h-34q-9 20 -24.5 41t-35.5 29q1 -92 1.5 -177t1.5 -179q21 8 43 27.5
t40 47.5l27 -27q-1 -11 -2.5 -30t-2.5 -30q-21 -23 -49.5 -41.5t-58.5 -23.5q0 -12 0.5 -28t1.5 -32.5t2 -31.5t2 -25q-16 7 -26.5 11t-12.5 4q-3 0 -13.5 -4t-26.5 -11q1 9 2 24t1.5 32t1.5 33.5t1 28.5q-30 7 -57.5 24.5t-49 48t-34 74t-12.5 102.5zM158 411
q-29 -20 -41 -65t-12 -105q0 -62 14 -103t39 -59v332z" />
    <glyph glyph-name="sterling" unicode="&#xa3;" horiz-adv-x="391" 
d="M34 94q24 0 39.5 10t24 28t11.5 43.5t3 57.5q0 19 -1 39.5t-3 39.5q-19 -1 -40.5 -1h-35.5q5 20 6 27.5t1 13.5q0 5 -1 12t-9 32q18 -4 37 -7t34 -3q-1 9 -1 23v22q0 71 15 118t39 74.5t52.5 39t55.5 11.5q32 0 64 -17.5t50 -52.5q-10 -14 -20.5 -34.5t-23.5 -48.5
l-26 27q-5 26 -17 39.5t-27 13.5q-30 0 -48 -31.5t-18 -77.5q0 -63 3 -106q32 0 58 3q9 1 26.5 2t24.5 2v-6.5t-0.5 -10t-0.5 -10v-5.5v-20q0 -3 0.5 -15t0.5 -15h-27q-12 0 -21 0.5t-17.5 1t-17.5 0.5h-22v-24q0 -60 -14 -109.5t-36 -83.5q34 0 76.5 2.5t74.5 4.5q6 0 16 1
t20.5 1.5t20 1.5t15.5 1q-4 -30 -4.5 -41t-0.5 -18q0 -8 0.5 -18.5t5.5 -37.5q-11 1 -33.5 2t-33.5 2q-29 2 -61 2.5t-62 0.5q-59 0 -120 -3q-6 0 -14 -0.5t-17 -1t-17 -0.5h-12v32q0 5 0.5 9t0.5 8v15q0 3 -0.5 16.5t-0.5 18.5h28z" />
    <glyph glyph-name="currency" unicode="&#xa4;" horiz-adv-x="450" 
d="M373 596l50 -66l-40 -54q37 -63 37 -147q0 -38 -9.5 -76t-25.5 -69q9 -12 19.5 -26.5t18.5 -25.5l-50 -67l-40 54q-23 -20 -51 -31.5t-57 -11.5q-30 0 -58.5 12t-51.5 32q-11 -14 -22 -29.5t-18 -25.5l-50 67l40 53q-16 31 -25.5 68t-9.5 76q0 40 9.5 78t25.5 68
q-9 14 -20.5 29t-19.5 26l50 65l41 -56q23 20 51.5 32t57.5 12q62 0 107 -42zM345 329q0 36 -9 67t-25.5 54t-38.5 36.5t-47 13.5q-26 0 -47.5 -13.5t-38 -36.5t-25.5 -54t-9 -67q0 -35 9 -66.5t25.5 -54.5t38 -36.5t47.5 -13.5q25 0 47 13.5t38.5 36.5t25.5 54.5t9 66.5z
" />
    <glyph glyph-name="yen" unicode="&#xa5;" horiz-adv-x="420" 
d="M158 313q-17 0 -31.5 -0.5t-31.5 -1.5q-10 0 -29 -0.5t-29 -0.5v29q0 2 0.5 4.5t0.5 5.5q0 2 -0.5 4.5t-0.5 5.5v30q29 -1 52 -2t52 -1q-8 17 -16.5 34.5t-16.5 34.5q-12 25 -27 56.5t-30 63.5t-30 62.5t-27 55.5q23 -5 41.5 -8.5t29.5 -3.5q19 0 51 8q6 -19 17.5 -49
t26 -65t30.5 -72t31 -70q30 64 61 132.5t54 125.5q28 -10 35 -10q4 0 21.5 6t43.5 16q-14 -25 -34 -63t-42.5 -81.5t-45.5 -88.5t-42 -83l-1 -1q26 1 55.5 1.5t51.5 1.5q-5 -28 -5 -40q0 -5 1.5 -16t3.5 -23h-14t-18.5 0.5t-18 0.5h-14.5q-20 1 -31 1.5t-31 0.5v-44
q30 0 65 0.5t62 1.5q-2 -13 -3.5 -24t-1.5 -16t1.5 -16.5t3.5 -23.5q-32 2 -63.5 3.5t-63.5 1.5q1 -52 3 -108t5 -98q-19 5 -33 7.5t-21 2.5q-8 0 -21.5 -2.5t-30.5 -7.5q2 51 3.5 103t1.5 103q-29 -1 -62 -2t-59 -3v29q0 2 0.5 5t0.5 6q0 2 -0.5 4t-0.5 5v31
q30 -1 60.5 -1.5t60.5 -0.5v44z" />
    <glyph glyph-name="brokenbar" unicode="&#xa6;" horiz-adv-x="119" 
d="M25 203h75v-369h-75v369zM25 676h75v-369h-75v369z" />
    <glyph glyph-name="section" unicode="&#xa7;" horiz-adv-x="341" 
d="M241 547q-7 30 -22 54t-38 24q-22 0 -41 -20t-19 -55q0 -21 7 -36t19 -26t27 -20t31 -18q22 -12 43.5 -24.5t38.5 -30.5t27.5 -43.5t10.5 -62.5q0 -38 -11.5 -70t-24.5 -53q11 -15 16 -35.5t5 -49.5q0 -38 -11 -74.5t-32 -65t-52.5 -45.5t-71.5 -17q-31 0 -64.5 16
t-56.5 38q2 10 3.5 23.5t3 28t2 28.5t0.5 25h42q3 -11 10 -25.5t18 -28t26 -23t35 -9.5q15 0 28.5 8t23 21t15.5 29.5t6 33.5q0 19 -7 33.5t-19 25t-27.5 19t-32.5 17.5q-24 12 -47.5 26t-42 34t-30.5 48.5t-12 70.5q0 45 14 75t29 46q-6 14 -10 33t-4 52t9 64.5t27.5 55.5
t46 39t63.5 15q20 0 37.5 -7t32 -18t26 -24.5t20.5 -27.5q-8 -12 -15.5 -33.5t-9.5 -40.5h-42zM254 247q0 27 -13.5 44.5t-39.5 33.5q-42 26 -66.5 41t-35.5 24q-5 -10 -8 -19t-3 -22q0 -29 15.5 -48t50.5 -40q34 -20 56.5 -33t36.5 -23q2 9 4.5 19t2.5 23z" />
    <glyph glyph-name="dieresis" unicode="&#xa8;" horiz-adv-x="302" 
d="M25 621q0 28 16 48t39 20t39.5 -20t16.5 -48q0 -27 -16.5 -47t-39.5 -20t-39 20t-16 47zM165 621q0 28 16 48t39 20t39 -20t16 -48q0 -27 -16 -47t-39 -20t-39 20t-16 47z" />
    <glyph glyph-name="copyright" unicode="&#xa9;" horiz-adv-x="596" 
d="M25 341q0 74 21.5 139t58.5 113.5t86.5 76.5t106.5 28q56 0 105.5 -28t86.5 -76.5t58.5 -113.5t21.5 -139t-21.5 -139.5t-58.5 -114t-86.5 -76.5t-105.5 -28q-57 0 -106.5 28t-86.5 76.5t-58.5 114t-21.5 139.5zM503 341q0 59 -16 110.5t-43.5 90t-65 61t-80.5 22.5
t-80.5 -22.5t-65 -61t-43.5 -90t-16 -110.5t16 -111t43.5 -90.5t65 -61t80.5 -22.5t80.5 22.5t65 61t43.5 90.5t16 111zM122 339q0 60 15 106t41.5 76.5t61.5 46t76 15.5q38 0 69 -10.5t53 -28.5q-5 -14 -8.5 -33t-3.5 -40l-32 -2q-5 6 -12 14.5t-16.5 16t-21.5 13t-26 5.5
q-21 0 -41 -8t-35.5 -28.5t-25 -55t-9.5 -88.5q0 -37 7 -68t21 -53.5t34.5 -35.5t46.5 -13q25 0 49 18t38 34l36 -1q-5 -20 -7 -38t-2 -29q-9 -7 -22 -15.5t-29 -15.5t-34.5 -12t-37.5 -5q-41 0 -74.5 16.5t-58.5 47.5t-38.5 74t-13.5 97z" />
    <glyph glyph-name="ordfeminine" unicode="&#xaa;" horiz-adv-x="269" 
d="M39 635q20 14 42.5 26.5t54.5 12.5q15 0 32 -4t30.5 -16t22.5 -33.5t9 -55.5q0 -20 -0.5 -43t-1.5 -43q-1 -17 -1 -30v-22q0 -10 -1 -12q4 4 13 10t16 11v-61q-8 -8 -22.5 -15t-29.5 -7q-24 0 -39 23q-28 -23 -63 -23q-14 0 -29 4.5t-27.5 14.5t-20.5 27t-8 43
q0 41 18 62.5t67 33.5q32 8 41.5 11t9.5 6q0 35 -9 44.5t-23 9.5t-24.5 -13t-15.5 -25h-41v64zM152 496q-2 -1 -4.5 -1t-4.5 -1q-17 -4 -31 -12.5t-14 -34.5q0 -14 6 -22t14 -8q9 0 18 7.5t16 17.5v54z" />
    <glyph glyph-name="guillemotleft" unicode="&#xab;" horiz-adv-x="285" 
d="M116 463q9 -22 23.5 -39t30.5 -20l-88 -165q9 -20 20 -42t22 -45t21.5 -45t19.5 -40q-14 -2 -29.5 -19.5t-23.5 -39.5l-108 230zM219 463q9 -22 23 -39t29 -20l-86 -165q9 -20 20 -42t22 -45t21.5 -45t19.5 -40q-14 -2 -29.5 -19.5t-22.5 -39.5l-109 230z" />
    <glyph glyph-name="logicalnot" unicode="&#xac;" horiz-adv-x="426" 
d="M316 306h-323v88h398v-292h-75v204z" />
    <glyph glyph-name="registered" unicode="&#xae;" horiz-adv-x="596" 
d="M25 341q0 74 21.5 139t58.5 113.5t86.5 76.5t106.5 28q56 0 105.5 -28t86.5 -76.5t58.5 -113.5t21.5 -139t-21.5 -139.5t-58.5 -114t-86.5 -76.5t-105.5 -28q-57 0 -106.5 28t-86.5 76.5t-58.5 114t-21.5 139.5zM358 293q23 -41 47.5 -81.5t44.5 -62.5q25 38 39 87
t14 105q0 59 -16 110.5t-43.5 90t-65 61t-80.5 22.5q-32 0 -60.5 -12t-53.5 -34q23 -4 40.5 -6t28.5 -2q1 0 12.5 1t18.5 2t14.5 1.5t15.5 0.5q46 0 77.5 -27.5t31.5 -85.5q0 -27 -8 -49t-20.5 -38t-28 -26.5t-30.5 -16.5q5 -9 10.5 -19t11.5 -21zM93 341q0 -72 23 -132.5
t61 -99.5q1 11 2.5 32.5t2.5 29.5v-1q1 25 1.5 49t0.5 49v161q0 31 -1.5 69.5t-4.5 73.5q-39 -38 -62 -98.5t-23 -132.5zM222 121q-4 0 -15 -4t-28 -9q25 -25 55 -38.5t64 -13.5q36 0 69 16t59 44q-17 5 -21 5q-6 0 -15 -2.5t-22 -5.5q-24 45 -52 96t-57 99v-37
q0 -17 0.5 -38t1.5 -43t2.5 -43t2.5 -38q-17 5 -28.5 8.5t-15.5 3.5zM259 379q3 -1 5 -0.5t7 0.5q28 0 49 17.5t21 59.5q0 28 -13.5 44t-34.5 16h-15t-16 -2q-3 -38 -3 -73v-62z" />
    <glyph glyph-name="macron" unicode="&#xaf;" horiz-adv-x="293" 
d="M30 658h231v-87h-231v87z" />
    <glyph glyph-name="degree" unicode="&#xb0;" horiz-adv-x="279" 
d="M17 517q0 33 9.5 61.5t26 49.5t39 33.5t47.5 12.5t47.5 -12.5t39 -33.5t26 -49.5t9.5 -61.5q0 -32 -9.5 -60.5t-26 -49.5t-39 -33.5t-47.5 -12.5t-47.5 12.5t-39 33.5t-26 49.5t-9.5 60.5zM81 517q0 -35 17 -59t41 -24t41 24t17 59t-17 59.5t-41 24.5t-41 -24.5
t-17 -59.5z" />
    <glyph glyph-name="plusminus" unicode="&#xb1;" horiz-adv-x="396" 
d="M-1 87h161v170h-161v87h161v172h75v-172h162v-87h-162v-170h162v-87h-398v87z" />
    <glyph glyph-name="twosuperior" unicode="&#xb2;" horiz-adv-x="267" 
d="M30 599q20 39 45.5 57t60.5 18q47 0 79 -28.5t32 -91.5q0 -23 -4.5 -43.5t-17.5 -45t-37.5 -57t-64.5 -80.5q27 0 60 1.5t71 6.5q-5 -19 -6.5 -30.5t-1.5 -16.5q0 -3 1.5 -14t6.5 -31q-35 3 -66.5 5t-57.5 2q-24 0 -54 -2t-63 -5v42q8 10 17 22t17 20h-1q27 33 48.5 61
t36.5 54.5t23 52.5t8 55q0 32 -10 47t-23 15q-9 0 -16.5 -6t-12.5 -15t-7.5 -19.5t-3.5 -19.5l-32 -2z" />
    <glyph glyph-name="threesuperior" unicode="&#xb3;" horiz-adv-x="257" 
d="M23 339h30q8 -11 20.5 -22t29.5 -11q25 0 39.5 20t14.5 51q0 37 -12.5 50.5t-26.5 13.5q-5 0 -23 -6t-36 -13q5 15 7.5 23.5t4 13.5t1.5 7v4t-0.5 5t-2 9t-5 18t-10.5 32q28 -18 41.5 -25.5t17.5 -7.5q9 0 15 6t9.5 16t5 21.5t1.5 22.5q0 23 -8.5 34.5t-19.5 11.5
q-12 0 -22 -12.5t-15 -28.5l-33 -1l-17 54q13 17 35.5 33t60.5 16q42 0 71.5 -25t29.5 -78q0 -32 -9.5 -54t-26.5 -36q20 -12 35.5 -35.5t15.5 -61.5q0 -63 -37 -101t-99 -38q-29 0 -52.5 9t-42.5 21z" />
    <glyph glyph-name="acute" unicode="&#xb4;" horiz-adv-x="186" 
d="M99 700q11 14 22.5 22t24.5 8t28 -12.5t15 -36.5t-10.5 -37t-21.5 -22q-26 -22 -55.5 -46.5t-55.5 -46.5h-74z" />
    <glyph glyph-name="mu" unicode="&#xb5;" horiz-adv-x="360" 
d="M169 -14q-12 0 -23.5 1.5t-22.5 6.5q1 -64 2.5 -130.5t6.5 -123.5q-17 5 -30.5 8t-20.5 3q-6 0 -19 -2.5t-30 -7.5v32.5t0.5 35.5t0.5 35v30q1 48 1.5 94.5t0.5 105.5v126t-1 108v45t-0.5 48.5t-0.5 47.5v42q17 -5 30 -7.5t19 -2.5q13 0 49 11q-2 -28 -3 -63.5t-2.5 -74
t-2 -77.5t-0.5 -74q0 -45 5.5 -69t13.5 -35t19 -18.5t26 -7.5q23 0 38.5 14.5t22.5 33.5q4 12 7 24t4.5 32t2 51.5t0.5 82.5v43t-0.5 49t-1 48t-1.5 40q33 -10 50 -10q16 0 49 12q-3 -75 -4.5 -157t-1.5 -157q0 -21 0.5 -46t1 -50.5t1 -49.5t1.5 -44q-17 5 -29.5 8t-17.5 3
t-17.5 -3.5t-29.5 -8.5q0 10 0.5 14.5t0.5 7.5v7v14q-39 -45 -94 -45z" />
    <glyph glyph-name="paragraph" unicode="&#xb6;" horiz-adv-x="382" 
d="M250 599q-2 -1 -3.5 -0.5t-3.5 -0.5v-707h-64v385q-46 3 -79.5 19t-55 44t-32 66t-10.5 83q0 97 43 145t118 48h204v-57l-53 -11v-722h-64v708z" />
    <glyph glyph-name="periodcentered" unicode="&#xb7;" horiz-adv-x="154" 
d="M15 308q0 32 17.5 54t43.5 22t43.5 -22t17.5 -54q0 -31 -17.5 -53t-43.5 -22t-43.5 22t-17.5 53z" />
    <glyph glyph-name="cedilla" unicode="&#xb8;" horiz-adv-x="196" 
d="M20 -119q15 -8 32.5 -14t30.5 -6q10 0 16.5 5.5t6.5 15.5q0 19 -17 19q-8 0 -17.5 -6t-18.5 -14l-19 36l34 121h64l-17 -64q35 -2 54.5 -25t19.5 -62q0 -49 -31 -74t-73 -25q-25 0 -47.5 9t-38.5 17z" />
    <glyph glyph-name="onesuperior" unicode="&#xb9;" horiz-adv-x="163" 
d="M62 576q-14 -9 -29 -19.5t-23 -16.5q-5 11 -11.5 21t-13.5 15v32q30 13 61.5 30.5t56.5 35.5h34q-2 -37 -4 -83t-2 -84v-95q0 -18 0.5 -40.5t1.5 -46.5t2.5 -47t2.5 -42q-18 7 -29.5 11t-16.5 4q-4 0 -15.5 -4t-28.5 -11q1 19 2 42.5t1.5 47t1 46t0.5 40.5z" />
    <glyph glyph-name="ordmasculine" unicode="&#xba;" horiz-adv-x="305" 
d="M20 513q0 44 11.5 75t30 50t42.5 27.5t49 8.5q24 0 47 -8.5t42 -27.5t30.5 -50t11.5 -75t-11.5 -74.5t-30.5 -49.5t-42 -27.5t-47 -8.5q-25 0 -49 8.5t-42.5 27.5t-30 49.5t-11.5 74.5zM104 513q0 -18 2.5 -36t8 -32.5t15 -23t23.5 -8.5q13 0 21.5 8.5t14 23t8 32.5
t2.5 36q0 19 -2.5 37t-8 32t-14 22.5t-21.5 8.5q-14 0 -23.5 -8.5t-15 -22.5t-8 -32t-2.5 -37z" />
    <glyph glyph-name="guillemotright" unicode="&#xbb;" horiz-adv-x="285" 
d="M120 409q14 2 28 21.5t21 43.5l111 -237l-111 -224q-9 22 -23 39t-30 20l85 164zM16 409q14 2 30 19.5t23 39.5l109 -231l-112 -224q-9 22 -24 39t-30 20l88 164z" />
    <glyph glyph-name="onequarter" unicode="&#xbc;" horiz-adv-x="582" 
d="M303 143l36 64q29 51 62.5 107.5t62.5 107.5q8 -4 15.5 -6.5t11.5 -2.5t15 4.5t24 9.5q-3 -61 -4.5 -125.5t-1.5 -124.5q22 5 49 15q-10 -39 -10 -52q0 -9 9 -46q-8 2 -21.5 4.5t-26.5 2.5q0 -12 0.5 -25.5t1.5 -25.5v-13.5t0.5 -18t0.5 -18.5v-13q-17 6 -27.5 9.5
t-14.5 3.5t-15.5 -4t-28.5 -10q2 27 3.5 58t1.5 58q-20 0 -41.5 -0.5t-41 -1.5t-35.5 -1.5t-25 -1.5v46zM339 693q12 -5 19 -9t8 -4q2 0 14.5 6t32.5 16l-215 -737l-28 13q-6 0 -47 -22zM94 576q-14 -9 -29 -19.5t-24 -16.5q-5 11 -11.5 21t-12.5 15v32q30 13 61.5 30.5
t55.5 35.5h34q-2 -37 -3 -83t-1 -84v-95q0 -18 0.5 -40.5t1 -46.5t1.5 -47t2 -42q-17 7 -29 11t-15 4q-5 0 -16.5 -4t-29.5 -11q1 19 2 42.5l2 47t1.5 46t0.5 40.5zM446 274q-15 -26 -28 -49.5t-27 -49.5h55v99z" />
    <glyph glyph-name="onehalf" unicode="&#xbd;" horiz-adv-x="573" 
d="M338 348q20 39 45.5 57t60.5 18q47 0 79.5 -28.5t32.5 -90.5q0 -24 -4.5 -44.5t-17.5 -44.5t-38 -56.5t-65 -80.5q26 0 57.5 1t68.5 6v-6t-0.5 -10.5t-0.5 -10.5v-6q-1 -5 -1.5 -8t-0.5 -5q0 -3 2 -13v-6t0.5 -10.5t0.5 -10.5v-6q-35 3 -65 5t-54 2q-22 0 -52 -2t-65 -5
v42q7 8 16 19t15 19h-1q28 34 50 63t37.5 55.5t23.5 53t8 56.5q0 32 -9.5 46.5t-22.5 14.5q-10 0 -17 -6t-12 -15t-8 -19.5t-4 -18.5l-32 -2zM336 693q12 -5 19.5 -9t9.5 -4t14 6l32 16l-216 -737q-26 13 -27 13q-5 0 -47 -22zM93 576q-14 -9 -29 -19.5t-23 -16.5
q-5 11 -11.5 21t-13.5 15v32q31 13 62.5 30.5t55.5 35.5h35q-2 -37 -4 -83t-2 -84v-95q0 -18 0.5 -40.5t1.5 -45.5t2.5 -46t2.5 -42q-17 6 -29 9.5t-17 3.5q-3 0 -15 -4t-29 -11q1 19 2 42.5t1.5 47t1 46t0.5 40.5z" />
    <glyph glyph-name="threequarters" unicode="&#xbe;" horiz-adv-x="612" 
d="M331 143q38 66 81 139.5t81 139.5q8 -4 15.5 -6.5t10.5 -2.5t14 3.5t24 8.5q-2 -61 -3 -124.5t-1 -123.5q8 2 18.5 5t21.5 7v-7t-0.5 -12.5t-0.5 -12.5v-7q-1 -3 -1 -6v-4v-5t1 -6v-6t0.5 -11t0.5 -11v-6q-8 1 -17.5 3.5t-22.5 2.5q1 -28 2 -60t2 -55q-17 6 -28.5 10
t-15.5 4t-16 -4t-29 -9q3 43 4.5 67.5t1.5 47.5q-20 0 -41.5 -0.5t-41 -1.5t-35.5 -1.5t-25 -1.5v46zM24 339h30q8 -11 21 -22t29 -11q25 0 39.5 20t14.5 51q0 37 -12.5 50.5t-26.5 13.5q-5 0 -23 -6t-36 -13q5 15 7.5 23.5t4 13.5t1.5 7v4t-0.5 5t-2 9t-5 18t-10.5 32
q28 -18 41.5 -25.5t17.5 -7.5q9 0 15 6t9.5 16t5 21.5t1.5 22.5q0 23 -8.5 34.5t-19.5 11.5q-12 0 -22 -12.5t-15 -28.5l-32 -1l-17 54q13 17 35 33t60 16q42 0 71.5 -25t29.5 -78q0 -32 -9.5 -54t-26.5 -36q20 -12 35.5 -35.5t15.5 -61.5q0 -63 -37 -101t-99 -38
q-29 0 -52.5 9t-42.5 21zM376 693q12 -5 19 -9t8 -4q2 0 14.5 6t32.5 16l-216 -737q-26 13 -28 13q-4 0 -46 -22zM474 273q-14 -24 -28 -49t-26 -49h54v98z" />
    <glyph glyph-name="questiondown" unicode="&#xbf;" horiz-adv-x="224" 
d="M58 265q4 6 8 18.5t5 23.5q10 5 21 8.5t22 3.5t27 -6.5t31 -21t25.5 -38.5t10.5 -58q0 -54 -21.5 -92t-47.5 -73q-20 -27 -36.5 -54t-16.5 -59q0 -28 13.5 -43.5t29.5 -15.5q14 0 35 23.5t44 61.5l9 -116q-18 -15 -40.5 -28.5t-52.5 -13.5t-53 11.5t-39 31t-24 46
t-8 55.5q0 30 6.5 55t17.5 47t24 40.5t27 36.5q20 27 36 54t16 56q0 12 -5 24t-13 12q-5 0 -13.5 -5t-13.5 -9zM65 422q0 30 18 51.5t42 21.5t42 -21.5t18 -51.5t-18 -51.5t-42 -21.5t-42 21.5t-18 51.5z" />
    <glyph glyph-name="Agrave" unicode="&#xc0;" horiz-adv-x="504" 
d="M261 698l-102 87q-11 8 -22 22t-11 37q0 24 15 36.5t28 12.5t25 -8.5t21 -21.5q13 -18 30.5 -41t35 -47t34 -46l28.5 -38h-60q8 -26 18.5 -58t18.5 -59q17 -53 35.5 -111l37 -116t36.5 -113.5t33.5 -103t28 -84.5t20.5 -58q-26 5 -44 8.5t-24 3.5q-8 0 -21 -2.5t-32 -6.5
q-12 59 -27 111.5t-31 103.5q-5 14 -6.5 22t-6.5 22q-19 1 -39 1h-40h-36.5t-36.5 -1q-21 -70 -39.5 -138t-29.5 -122q-14 5 -24.5 7.5t-15.5 2.5t-20 -4t-35 -10q28 83 58.5 173t61 182t61 182.5t57.5 174.5h20zM244 489q-13 -41 -25.5 -77.5t-26.5 -81.5q4 0 7 -0.5
t7 -0.5q7 0 18 -0.5t19 -0.5h16h11t11 0.5t16 0.5z" />
    <glyph glyph-name="Aacute" unicode="&#xc1;" horiz-adv-x="505" 
d="M288 863q11 14 22.5 22t24.5 8t28 -12.5t15 -36.5t-11 -37.5t-22 -21.5q-24 -20 -51 -43t-52 -44h31q8 -26 18.5 -60.5t19.5 -63.5q17 -53 35.5 -111l37 -116t36.5 -113.5t33.5 -103t28 -84.5t20.5 -58q-26 5 -44 8.5t-24 3.5q-8 0 -21 -2.5t-32 -6.5q-12 59 -27 111.5
t-31 103.5q-5 14 -6.5 22t-6.5 22q-19 1 -39 1h-40h-36.5t-36.5 -1q-21 -70 -39.5 -138t-29.5 -122q-14 5 -24.5 7.5t-15.5 2.5t-20 -4t-35 -10q28 82 58 171t60.5 180t60 181t56.5 173h-68zM235 489q-13 -41 -25.5 -77.5t-26.5 -81.5q4 0 7 -0.5t7 -0.5q7 0 18 -0.5
t19 -0.5h16h11t11 0.5t16 0.5z" />
    <glyph glyph-name="Acircumflex" unicode="&#xc2;" horiz-adv-x="511" 
d="M281 698q8 -26 18.5 -60.5t19.5 -63.5q17 -53 35.5 -111l37 -116t36.5 -113.5t33.5 -103t28 -84.5t20.5 -58q-26 5 -44 8.5t-24 3.5q-8 0 -21 -2.5t-32 -6.5q-12 59 -27 111.5t-31 103.5q-5 14 -6.5 22t-6.5 22q-19 1 -39 1h-40h-36.5t-36.5 -1q-21 -70 -39.5 -138
t-29.5 -122q-14 5 -24.5 7.5t-15.5 2.5t-20 -4t-35 -10q28 83 58.5 173t61 182t61 182.5t57.5 174.5h41zM256 780q-19 -22 -39.5 -44.5t-37.5 -44.5h-67l107 196h70l110 -196h-67zM243 489q-13 -41 -25.5 -77.5t-26.5 -81.5q4 0 7 -0.5t7 -0.5q7 0 18 -0.5t19 -0.5h16h11
t11 0.5t16 0.5z" />
    <glyph glyph-name="Atilde" unicode="&#xc3;" horiz-adv-x="504" 
d="M277 698q8 -26 18.5 -60.5t19.5 -63.5q17 -53 35.5 -111l37 -116t36.5 -113.5t33.5 -103t28 -84.5t20.5 -58q-26 5 -44 8.5t-24 3.5q-8 0 -21 -2.5t-32 -6.5q-12 59 -27 111.5t-31 103.5q-5 14 -6.5 22t-6.5 22q-19 1 -39 1h-40h-36.5t-36.5 -1q-21 -70 -39.5 -138
t-29.5 -122q-14 5 -24.5 7.5t-15.5 2.5t-20 -4t-35 -10q28 83 58.5 173t61 182t61 182.5t57.5 174.5h41zM113 715q3 23 10 47t19 43.5t28.5 32t37.5 12.5q17 0 29 -5t34 -19q17 -11 24 -15t12 -4q8 0 15 14.5t11 32.5h57q-2 -15 -8 -39t-17.5 -46t-29.5 -38t-44 -16
q-27 0 -63 26q-27 18 -35 18t-12.5 -9.5t-10.5 -34.5h-57zM239 489q-13 -41 -25.5 -77.5t-26.5 -81.5q4 0 7 -0.5t7 -0.5q7 0 18 -0.5t19 -0.5h16h11t11 0.5t16 0.5z" />
    <glyph glyph-name="Adieresis" unicode="&#xc4;" horiz-adv-x="503" 
d="M277 698q8 -26 18.5 -60.5t19.5 -63.5q17 -53 35.5 -111l37 -116t36.5 -113.5t33.5 -103t28 -84.5t20.5 -58q-26 5 -44 8.5t-24 3.5q-8 0 -21 -2.5t-32 -6.5q-12 59 -27 111.5t-31 103.5q-5 14 -6.5 22t-6.5 22q-19 1 -39 1h-40h-36.5t-36.5 -1q-21 -70 -39.5 -138
t-29.5 -122q-14 5 -24.5 7.5t-15.5 2.5t-20 -4t-35 -10q28 83 58.5 173t61 182t61 182.5t57.5 174.5h41zM126 784q0 28 16 47.5t39 19.5t39.5 -19.5t16.5 -47.5t-16.5 -47.5t-39.5 -19.5t-39 19.5t-16 47.5zM266 784q0 28 16 47.5t39 19.5t39 -19.5t16 -47.5t-16 -47.5
t-39 -19.5t-39 19.5t-16 47.5zM239 489q-13 -41 -25.5 -77.5t-26.5 -81.5q4 0 7 -0.5t7 -0.5q7 0 18 -0.5t19 -0.5h16h11t11 0.5t16 0.5z" />
    <glyph glyph-name="Aring" unicode="&#xc5;" horiz-adv-x="510" 
d="M162 792q0 24 7.5 44.5t20 36.5t29.5 25t36 9t35.5 -9t29 -25t19.5 -36.5t7 -44.5q0 -38 -17.5 -68t-44.5 -41q8 -25 17 -54.5t17 -54.5q17 -53 35.5 -111l37 -116t36.5 -113.5t33.5 -103t28 -84.5t20.5 -58q-26 5 -44 8.5t-24 3.5q-8 0 -21 -2.5t-32 -6.5
q-12 59 -27 111.5t-31 103.5q-5 14 -6.5 22t-6.5 22q-19 1 -39 1h-40h-36.5t-36.5 -1q-21 -70 -39.5 -138t-29.5 -122q-14 5 -24.5 7.5t-15.5 2.5t-20 -4t-35 -10q27 81 56.5 168.5t59.5 176.5t59 177.5t56 170.5q-29 9 -49.5 40.5t-20.5 72.5zM242 489q-13 -41 -25.5 -77.5
t-26.5 -81.5q4 0 7 -0.5t7 -0.5q7 0 18 -0.5t19 -0.5h16h11t11 0.5t16 0.5zM230 792q0 -16 7 -27t17 -11t17.5 11t7.5 27t-7.5 27t-16.5 11q-11 0 -18 -11t-7 -27z" />
    <glyph glyph-name="AE" unicode="&#xc6;" horiz-adv-x="631" 
d="M198 237q-24 -54 -48.5 -115.5t-49.5 -130.5q-14 4 -25 6.5t-17 2.5q-8 0 -25 -4t-43 -11q22 41 48.5 94t56 113t61 124.5t62.5 129t60 126t55 115.5q30 -2 65.5 -4t66.5 -2q15 0 33.5 0.5t38 1.5t38.5 2.5t33 2.5q-10 -39 -10 -50q0 -7 2.5 -20t9.5 -36q-16 4 -31.5 8
t-35.5 7t-47 5t-65 2q-3 -75 -3 -147v-59q32 0 53.5 0.5t36 1.5t24 2t17.5 2h6.5t11.5 0.5t11.5 0.5h6.5q-6 -20 -8.5 -30.5t-2.5 -15.5t2.5 -15t8.5 -30h-6.5t-12 0.5t-12 0.5h-6.5q-8 1 -17.5 2t-23.5 2t-35.5 1.5t-53.5 0.5v-77q0 -46 0.5 -83t2.5 -83q70 1 113.5 5
t66.5 7q-8 -40 -8 -48q0 -7 2 -18t7 -31q-15 1 -34.5 2.5t-39 2.5t-38 1.5t-33.5 0.5q-31 0 -71.5 -2.5t-70.5 -4.5q4 60 5 120t1 120zM331 524q-26 -53 -49.5 -102.5t-50.5 -107.5q23 -1 47.5 -1.5t52.5 -1.5v213z" />
    <glyph glyph-name="Ccedilla" unicode="&#xc7;" horiz-adv-x="481" 
d="M232 -13q-48 12 -88.5 41t-70 74t-46 105t-16.5 134q0 85 21 151.5t58.5 112t90 69.5t115.5 24q49 0 95 -16t83 -39q-8 -17 -12.5 -39t-6.5 -37q0 -5 -0.5 -13.5t-0.5 -10.5l-33 -2q-8 11 -20 25.5t-28 27.5t-35.5 22t-41.5 9q-38 0 -70.5 -17t-56.5 -51.5t-37.5 -88.5
t-13.5 -127q0 -74 13.5 -127.5t37.5 -88.5t56.5 -52t70.5 -17q22 0 43.5 9t40 22.5t34 28.5t26.5 26l22 -24l-7 -70q-8 -8 -24 -19t-37 -20.5t-46 -17t-53 -8.5q-1 -4 -2 -7t-2 -8q35 -2 54 -25t19 -61q0 -50 -30.5 -75t-72.5 -25q-26 0 -48.5 8.5t-37.5 16.5l21 68
q15 -8 32 -14t30 -6q10 0 17 5.5t7 15.5t-5 14.5t-12 4.5q-8 0 -18 -6t-18 -14l-19 37z" />
    <glyph glyph-name="Egrave" unicode="&#xc8;" horiz-adv-x="311" 
d="M30 423q0 61 -2 132t-4 132q32 -2 73 -4t73 -2q16 0 36 0.5t40 1.5t39.5 2.5t35.5 2.5q-5 -25 -6 -34.5t-1 -14.5q0 -7 1 -16t6 -34q-5 0 -14 1t-18.5 2t-18 2t-12.5 1q-15 2 -28 3.5t-27 3t-31.5 2t-41.5 0.5q0 -8 -0.5 -11t-0.5 -11q-1 -19 -1.5 -38t-0.5 -42v-106
q51 1 95.5 4.5t82.5 8.5q-4 -20 -6 -32.5t-2 -18.5q0 -9 9 -52q-54 8 -102 10t-77 3v-118q0 -54 -0.5 -80t0.5 -43q45 0 98 3.5t101 14.5q-4 -20 -6.5 -34.5t-2.5 -19.5t2 -17t6 -32q-16 1 -35.5 2.5t-40 2.5t-40.5 1.5t-36 0.5q-32 0 -74.5 -2t-74.5 -4q2 63 4 134t2 132
v163zM71 785q-11 8 -21.5 22t-10.5 37q0 24 14.5 36.5t27.5 12.5t25 -8t23 -22l126 -172h-74z" />
    <glyph glyph-name="Eacute" unicode="&#xc9;" horiz-adv-x="310" 
d="M19 423q0 61 -2 132t-4 132q32 -2 73 -4t73 -2q16 0 36 0.5t40 1.5t39.5 2.5t35.5 2.5q-5 -25 -6 -34.5t-1 -14.5q0 -7 1 -16t6 -34q-5 0 -14 1t-18.5 2t-18 2t-12.5 1q-15 2 -28 3.5t-27 3t-31.5 2t-41.5 0.5q0 -8 -0.5 -11t-0.5 -11q-1 -19 -1.5 -38t-0.5 -42v-106
q51 1 95.5 4.5t82.5 8.5q-4 -20 -6 -32.5t-2 -18.5q0 -9 9 -52q-54 8 -102 10t-77 3v-118q0 -54 -0.5 -80t0.5 -43q45 0 98 3.5t101 14.5q-4 -20 -6.5 -34.5t-2.5 -19.5t2 -17t6 -32q-16 1 -35.5 2.5t-40 2.5t-40.5 1.5t-36 0.5q-32 0 -74.5 -2t-74.5 -4q2 63 4 134t2 132
v163zM198 863q11 14 22.5 22t24.5 8t28 -12.5t15 -36.5q0 -23 -10.5 -37t-21.5 -22q-25 -22 -55 -47t-55 -47h-75z" />
    <glyph glyph-name="Ecircumflex" unicode="&#xca;" horiz-adv-x="317" 
d="M28 423q0 61 -2 132t-4 132q32 -2 73 -4t73 -2q16 0 36 0.5t40 1.5t39.5 2.5t35.5 2.5q-5 -25 -6 -34.5t-1 -14.5q0 -7 1 -16t6 -34q-5 0 -14 1t-18.5 2t-18 2t-12.5 1q-15 2 -28 3.5t-27 3t-31.5 2t-41.5 0.5q0 -8 -0.5 -11t-0.5 -11q-1 -19 -1.5 -38t-0.5 -42v-106
q51 1 95.5 4.5t82.5 8.5q-4 -20 -6 -32.5t-2 -18.5q0 -9 9 -52q-54 8 -102 10t-77 3v-118q0 -54 -0.5 -80t0.5 -43q45 0 98 3.5t101 14.5q-4 -20 -6.5 -34.5t-2.5 -19.5t2 -17t6 -32q-16 1 -35.5 2.5t-40 2.5t-40.5 1.5t-36 0.5q-32 0 -74.5 -2t-74.5 -4q2 63 4 134t2 132
v163zM167 780q-18 -22 -38.5 -44.5t-37.5 -44.5h-67l106 196h73l107 -196h-67z" />
    <glyph glyph-name="Edieresis" unicode="&#xcb;" horiz-adv-x="317" 
d="M29 423q0 61 -2 132t-4 132q32 -2 73 -4t73 -2q16 0 36 0.5t40 1.5t39.5 2.5t35.5 2.5q-5 -25 -6 -34.5t-1 -14.5q0 -7 1 -16t6 -34q-5 0 -14 1t-18.5 2t-18 2t-12.5 1q-15 2 -28 3.5t-27 3t-31.5 2t-41.5 0.5q0 -8 -0.5 -11t-0.5 -11q-1 -19 -1.5 -38t-0.5 -42v-106
q51 1 95.5 4.5t82.5 8.5q-4 -20 -6 -32.5t-2 -18.5q0 -9 9 -52q-54 8 -102 10t-77 3v-118q0 -54 -0.5 -80t0.5 -43q45 0 98 3.5t101 14.5q-4 -20 -6.5 -34.5t-2.5 -19.5t2 -17t6 -32q-16 1 -35.5 2.5t-40 2.5t-40.5 1.5t-36 0.5q-32 0 -74.5 -2t-74.5 -4q2 63 4 134t2 132
v163zM43 784q0 28 16 47.5t39 19.5t39 -19.5t16 -47.5t-16 -47.5t-39 -19.5t-39 19.5t-16 47.5zM183 784q0 28 15.5 47.5t38.5 19.5t39.5 -19.5t16.5 -47.5t-16.5 -47.5t-39.5 -19.5t-38.5 19.5t-15.5 47.5z" />
    <glyph glyph-name="Igrave" unicode="&#xcc;" horiz-adv-x="198" 
d="M75 422q0 30 -0.5 64.5t-1.5 69.5t-2.5 69.5t-2.5 65.5q18 -5 32 -7.5t23 -2.5q8 0 22.5 2.5t32.5 7.5q-1 -31 -2.5 -65.5t-2.5 -69.5t-1.5 -69.5t-0.5 -64.5v-163q0 -30 0.5 -64.5t1.5 -69.5t2.5 -69.5t2.5 -64.5q-18 4 -32.5 6.5t-22.5 2.5q-9 0 -23 -2.5t-32 -6.5
q1 30 2.5 64.5t2.5 69.5t1.5 69.5t0.5 64.5v163zM25 785q-11 8 -21.5 22t-10.5 37q0 24 15 36.5t28 12.5t25 -8.5t21 -21.5q13 -18 30.5 -41t35 -47t34 -46l28.5 -38h-75z" />
    <glyph glyph-name="Iacute" unicode="&#xcd;" horiz-adv-x="199" 
d="M26 422q0 30 -0.5 64.5t-1.5 69.5t-2.5 69.5t-2.5 65.5q18 -5 32.5 -7.5t22.5 -2.5q9 0 23 2.5t32 7.5q-1 -31 -2.5 -65.5t-2.5 -69.5t-1.5 -69.5t-0.5 -64.5v-163q0 -30 0.5 -64.5t1.5 -69.5t2.5 -69.5t2.5 -64.5q-18 4 -32 6.5t-23 2.5q-8 0 -22.5 -2.5t-32.5 -6.5
q1 30 2.5 64.5t2.5 69.5t1.5 69.5t0.5 64.5v163zM115 863q11 14 22.5 22t24.5 8t28 -12.5t15 -36.5t-10.5 -37.5t-21.5 -21.5q-26 -22 -55.5 -46.5t-55.5 -47.5h-74z" />
    <glyph glyph-name="Icircumflex" unicode="&#xce;" horiz-adv-x="258" 
d="M80 422q0 30 -0.5 64.5t-1.5 69.5t-2.5 69.5t-2.5 65.5q18 -5 32.5 -7.5t22.5 -2.5t22.5 2.5t32.5 7.5q-1 -31 -2.5 -65.5t-2.5 -69.5t-1.5 -69.5t-0.5 -64.5v-163q0 -30 0.5 -64.5t1.5 -69.5t2.5 -69.5t2.5 -64.5q-18 4 -32.5 6.5t-22.5 2.5t-22.5 -2.5t-32.5 -6.5
q1 30 2.5 64.5t2.5 69.5t1.5 69.5t0.5 64.5v163zM129 780q-19 -22 -39.5 -44.5t-37.5 -44.5h-67l107 196h70l110 -196h-67z" />
    <glyph glyph-name="Idieresis" unicode="&#xcf;" horiz-adv-x="278" 
d="M90 422q0 30 -0.5 64.5t-1.5 69.5t-2.5 69.5t-2.5 65.5q18 -5 32.5 -7.5t22.5 -2.5t22.5 2.5t32.5 7.5q-1 -31 -2.5 -65.5t-2.5 -69.5t-1.5 -69.5t-0.5 -64.5v-163q0 -30 0.5 -64.5t1.5 -69.5t2.5 -69.5t2.5 -64.5q-18 4 -32.5 6.5t-22.5 2.5t-22.5 -2.5t-32.5 -6.5
q1 30 2.5 64.5t2.5 69.5t1.5 69.5t0.5 64.5v163zM13 784q0 28 16 47.5t39 19.5t39.5 -19.5t16.5 -47.5t-16.5 -47.5t-39.5 -19.5t-39 19.5t-16 47.5zM153 784q0 28 16 47.5t39 19.5t39 -19.5t16 -47.5t-16 -47.5t-39 -19.5t-39 19.5t-16 47.5z" />
    <glyph glyph-name="Eth" unicode="&#xd0;" horiz-adv-x="601" 
d="M93 422q0 61 -2.5 132.5t-4.5 133.5q36 -3 68.5 -5t58.5 -2q13 0 25.5 0.5t26.5 1.5t27.5 2t27.5 1q67 0 115 -23t78.5 -66t45 -104.5t14.5 -138.5q0 -100 -26.5 -168.5t-67 -111t-89.5 -61t-94 -18.5q-12 0 -24.5 0.5t-24.5 1.5t-23 2t-24 1q-23 0 -52 -2t-62 -5
q2 62 4.5 133.5t2.5 132.5v86q-17 -1 -38 -2t-36 -2q2 15 4 27.5t2 13.5q0 5 -1.5 15.5t-3.5 23.5q39 -3 73 -3v4zM188 259q0 -51 1 -93.5t3 -91.5q14 -3 33.5 -4.5t41.5 -1.5q35 0 70.5 11.5t64 43t46 87.5t17.5 144q0 76 -13.5 125.5t-38 78t-58 39.5t-72.5 11
q-26 0 -48.5 -2t-42.5 -4q-2 -43 -3 -88t-1 -92v-4q34 0 72 1t67 3q-5 -28 -5 -40q0 -7 1 -14q1 -6 1.5 -13t2.5 -15q-32 2 -68 3.5t-71 1.5v-86z" />
    <glyph glyph-name="Ntilde" unicode="&#xd1;" horiz-adv-x="497" 
d="M431 -17q-72 112 -154.5 231.5t-163.5 234.5v1q-6 8 -6.5 9t0 0.5t-0.5 0.5t-7 9v-136q0 -30 0.5 -80.5t2 -102.5t3.5 -97.5t4 -65.5q-18 5 -30.5 9t-16.5 4q-5 0 -18 -4t-31 -9q2 14 4 43.5t4 68t4 83t3 88.5t2 84.5t1 71.5v87t-0.5 78t-1 63.5t-1.5 43.5h41
q43 -63 88 -128.5t88 -127.5t82.5 -118t72.5 -100q0 59 -0.5 122t-1 124.5t-2 119t-2.5 105.5q17 -6 28.5 -10t14.5 -4t14.5 4t29.5 10q-1 -14 -2.5 -40t-3 -58t-3 -67.5t-2.5 -69.5t-2 -63t-1 -47v-50.5v-60t0.5 -63.5t0.5 -62v-40.5t0.5 -38.5t0.5 -32v-20h-38zM121 715
q3 23 10 47t19 43.5t28.5 32t38.5 12.5q16 0 28 -5t34 -19q17 -11 24 -15t12 -4q8 0 15 14.5t12 32.5h56q-2 -15 -7.5 -39t-17 -46t-30 -38t-44.5 -16q-27 0 -62 26q-27 18 -35 18t-13 -9.5t-11 -34.5h-57z" />
    <glyph glyph-name="Ograve" unicode="&#xd2;" horiz-adv-x="606" 
d="M20 341q0 85 21 151.5t59 112t90 69.5t115 24h5l-102 87q-11 8 -22 22t-11 37q0 24 15 36.5t28 12.5t25 -8.5t21 -21.5q13 -18 30.5 -41t35 -47t34 -46l28.5 -38h-25q51 -11 92 -39.5t70 -72.5t45 -104t16 -134q0 -85 -21 -151.5t-58.5 -112.5t-90 -70t-115.5 -24
t-115 24t-90 70t-59 112.5t-21 151.5zM483 341q0 73 -13.5 127t-37.5 88.5t-56.5 51.5t-70.5 17t-70 -17t-56 -51.5t-37.5 -88.5t-13.5 -127q0 -74 13.5 -127.5t37.5 -88.5t56 -52t70 -17t70.5 17t56.5 52t37.5 88.5t13.5 127.5z" />
    <glyph glyph-name="Oacute" unicode="&#xd3;" horiz-adv-x="607" 
d="M342 863q11 14 22.5 22t24.5 8t28 -12.5t15 -36.5t-11 -37.5t-22 -21.5q-24 -20 -51 -43t-52 -44h5q63 0 115.5 -24t90 -69.5t58.5 -112t21 -151.5t-21 -151.5t-58.5 -112.5t-90 -70t-115.5 -24t-115 24t-90 70t-59 112.5t-21 151.5q0 74 16 134t45 104t70 72.5t91 39.5
h-23zM479 341q0 73 -13.5 127t-37.5 88.5t-56.5 51.5t-70.5 17t-70 -17t-56 -51.5t-37.5 -88.5t-13.5 -127q0 -74 13.5 -127.5t37.5 -88.5t56 -52t70 -17t70.5 17t56.5 52t37.5 88.5t13.5 127.5z" />
    <glyph glyph-name="Ocircumflex" unicode="&#xd4;" horiz-adv-x="609" 
d="M19 341q0 85 21 151.5t59 112t90 69.5t115 24t115.5 -24t90 -69.5t58.5 -112t21 -151.5t-21 -151.5t-58.5 -112.5t-90 -70t-115.5 -24t-115 24t-90 70t-59 112.5t-21 151.5zM482 341q0 73 -13.5 127t-37.5 88.5t-56.5 51.5t-70.5 17t-70 -17t-56 -51.5t-37.5 -88.5
t-13.5 -127q0 -74 13.5 -127.5t37.5 -88.5t56 -52t70 -17t70.5 17t56.5 52t37.5 88.5t13.5 127.5zM305 780q-19 -22 -39.5 -44.5t-37.5 -44.5h-67l107 196h70l110 -196h-67z" />
    <glyph glyph-name="Otilde" unicode="&#xd5;" horiz-adv-x="611" 
d="M20 341q0 85 21 151.5t59 112t90 69.5t115 24t115.5 -24t90 -69.5t58.5 -112t21 -151.5t-21 -151.5t-58.5 -112.5t-90 -70t-115.5 -24t-115 24t-90 70t-59 112.5t-21 151.5zM483 341q0 73 -13.5 127t-37.5 88.5t-56.5 51.5t-70.5 17t-70 -17t-56 -51.5t-37.5 -88.5
t-13.5 -127q0 -74 13.5 -127.5t37.5 -88.5t56 -52t70 -17t70.5 17t56.5 52t37.5 88.5t13.5 127.5zM167 715q3 23 10 47t19 43.5t28.5 32t37.5 12.5q17 0 29 -5t34 -19q17 -11 24 -15t12 -4q8 0 15 14.5t11 32.5h57q-2 -15 -8 -39t-17.5 -46t-29.5 -38t-44 -16q-27 0 -63 26
q-27 18 -35 18t-12.5 -9.5t-10.5 -34.5h-57z" />
    <glyph glyph-name="Odieresis" unicode="&#xd6;" horiz-adv-x="610" 
d="M20 341q0 85 21 151.5t59 112t90 69.5t115 24t115.5 -24t90 -69.5t58.5 -112t21 -151.5t-21 -151.5t-58.5 -112.5t-90 -70t-115.5 -24t-115 24t-90 70t-59 112.5t-21 151.5zM483 341q0 73 -13.5 127t-37.5 88.5t-56.5 51.5t-70.5 17t-70 -17t-56 -51.5t-37.5 -88.5
t-13.5 -127q0 -74 13.5 -127.5t37.5 -88.5t56 -52t70 -17t70.5 17t56.5 52t37.5 88.5t13.5 127.5zM180 784q0 28 16 47.5t39 19.5t39.5 -19.5t16.5 -47.5t-16.5 -47.5t-39.5 -19.5t-39 19.5t-16 47.5zM320 784q0 28 16 47.5t39 19.5t39 -19.5t16 -47.5t-16 -47.5t-39 -19.5
t-39 19.5t-16 47.5z" />
    <glyph glyph-name="multiply" unicode="&#xd7;" horiz-adv-x="409" 
d="M154 258q-32 42 -66 88t-65 87l50 66l131 -175q32 42 67 88.5t64 86.5l50 -66l-131 -175q32 -42 66 -87.5t65 -86.5l-50 -66l-131 174q-32 -42 -66.5 -88.5t-64.5 -85.5l-50 66z" />
    <glyph glyph-name="Oslash" unicode="&#xd8;" horiz-adv-x="622" 
d="M26 341q0 85 21 151.5t59 112t90 69.5t115 24q97 0 166 -57q7 12 16.5 27t18.5 30.5t16.5 29.5t11.5 25q13 -20 27 -38t24 -26q-8 -6 -17 -17.5t-19 -24t-19 -26t-16 -23.5q36 -47 56 -111.5t20 -145.5q0 -85 -21 -151.5t-58.5 -112.5t-90 -70t-115.5 -24q-48 0 -89.5 14
t-75.5 40q-14 -21 -31 -48.5t-35 -67.5q-22 45 -50 64q6 6 15.5 18t20 26.5l21 29t16.5 23.5q-38 45 -57.5 109t-19.5 150zM429 569q-23 29 -53 42.5t-65 13.5q-38 0 -70 -17t-56 -51.5t-37.5 -88.5t-13.5 -127q0 -57 6.5 -98.5t20.5 -74.5zM196 111q45 -55 115 -55
q38 0 70.5 17t56.5 52t37.5 88.5t13.5 127.5q0 54 -6.5 94.5t-20.5 74.5z" />
    <glyph glyph-name="Ugrave" unicode="&#xd9;" horiz-adv-x="495" 
d="M396 359v118.5t-1 91.5t-2 70t-4 54q18 -5 31.5 -8.5t19.5 -3.5q4 0 15 4.5t27 10.5q-2 -33 -4.5 -83.5t-4.5 -108.5t-3.5 -118t-1.5 -112q-1 -67 -16 -120.5t-43.5 -91.5t-69.5 -58.5t-93 -20.5q-116 0 -169 70.5t-53 218.5q0 24 0.5 44.5t1.5 40.5q1 17 1.5 32.5
t0.5 32.5q0 58 -1 107t-2 88v17.5t-0.5 21t-0.5 20v15.5q17 -5 32.5 -7.5t23.5 -2.5q5 0 19.5 3.5t32.5 8.5q-3 -28 -5 -67t-3.5 -85t-2 -97t-0.5 -102q0 -45 2 -94t15 -89.5t41.5 -67t80.5 -26.5q34 0 57.5 14t38.5 37.5t23 54t12 63t4.5 65t0.5 60.5zM155 785
q-11 8 -22 22t-11 37q0 24 15 36.5t28 12.5t25 -8.5t21 -21.5q13 -18 30.5 -41t35 -47t34 -46l28.5 -38h-75z" />
    <glyph glyph-name="Uacute" unicode="&#xda;" horiz-adv-x="494" 
d="M389 359v118.5t-1 91.5t-2 70t-4 54q18 -5 31.5 -8.5t19.5 -3.5q4 0 15 4.5t27 10.5q-2 -33 -4.5 -83.5t-4.5 -108.5t-3.5 -118t-1.5 -112q-1 -67 -16 -120.5t-43.5 -91.5t-69.5 -58.5t-93 -20.5q-116 0 -169 70.5t-53 218.5q0 24 0.5 44.5t1.5 40.5q1 17 1.5 32.5
t0.5 32.5q0 58 -1 107t-2 88v17.5t-0.5 21t-0.5 20v15.5q17 -5 32.5 -7.5t23.5 -2.5q5 0 19.5 3.5t32.5 8.5q-3 -28 -5 -67t-3.5 -85t-2 -97t-0.5 -102q0 -45 2 -94t15 -89.5t41.5 -67t80.5 -26.5q34 0 57.5 14t38.5 37.5t23 54t12 63t4.5 65t0.5 60.5zM286 863
q11 14 22.5 22t24.5 8t28 -12.5t15 -36.5t-11 -37.5t-22 -21.5q-26 -22 -55 -46.5t-55 -47.5h-74z" />
    <glyph glyph-name="Ucircumflex" unicode="&#xdb;" horiz-adv-x="499" 
d="M79 681q5 0 17 2.5t28 7.5h-16l107 196h70l110 -196h-1q16 -5 27.5 -7.5t17.5 -2.5q4 0 15 4.5t27 10.5q-2 -33 -4.5 -83.5t-4.5 -108.5t-3.5 -118t-1.5 -112q-1 -67 -16 -120.5t-43.5 -91.5t-69.5 -58.5t-93 -20.5q-116 0 -169 70.5t-53 218.5q0 24 0.5 44.5t1.5 40.5
q1 17 1.5 32.5t0.5 32.5q0 58 -1 107t-2 88v17.5t-0.5 21t-0.5 20v15.5q17 -5 32.5 -7.5t23.5 -2.5zM252 780q-19 -22 -39.5 -44.5t-37.5 -44.5h-44q-3 -28 -5 -67t-3.5 -85t-2 -96t-0.5 -101q0 -45 2 -94t15 -89.5t41.5 -67t80.5 -26.5q34 0 57.5 14t38.5 37.5t23 54t12 63
t4.5 65t0.5 60.5v117.5t-1 91t-2 69.5t-4 54h-60z" />
    <glyph glyph-name="Udieresis" unicode="&#xdc;" horiz-adv-x="500" 
d="M395 359v118.5t-1 91.5t-2 70t-4 54q18 -5 31.5 -8.5t19.5 -3.5q4 0 15 4.5t27 10.5q-2 -33 -4.5 -83.5t-4.5 -108.5t-3.5 -118t-1.5 -112q-1 -67 -16 -120.5t-43.5 -91.5t-69.5 -58.5t-93 -20.5q-116 0 -169 70.5t-53 218.5q0 24 0.5 44.5t1.5 40.5q1 17 1.5 32.5
t0.5 32.5q0 58 -1 107t-2 88v17.5t-0.5 21t-0.5 20v15.5q17 -5 32.5 -7.5t23.5 -2.5q5 0 19.5 3.5t32.5 8.5q-3 -28 -5 -67t-3.5 -85t-2 -97t-0.5 -102q0 -45 2 -94t15 -89.5t41.5 -67t80.5 -26.5q34 0 57.5 14t38.5 37.5t23 54t12 63t4.5 65t0.5 60.5zM126 784
q0 28 16 47.5t39 19.5t39.5 -19.5t16.5 -47.5t-16.5 -47.5t-39.5 -19.5t-39 19.5t-16 47.5zM266 784q0 28 16 47.5t39 19.5t39 -19.5t16 -47.5t-16 -47.5t-39 -19.5t-39 19.5t-16 47.5z" />
    <glyph glyph-name="Yacute" unicode="&#xdd;" horiz-adv-x="440" 
d="M163 -9q6 66 7 139t1 149q-8 18 -23 51.5t-33.5 75t-38.5 86t-38.5 84.5t-33 71t-21.5 46q24 -5 43 -8.5t30 -3.5q21 0 51 8q16 -41 30 -77.5t28.5 -72.5t30.5 -74t34 -80q29 65 61.5 146t59.5 160q14 -5 25 -7.5t16 -2.5t22 4.5t41 11.5q-67 -139 -116 -243.5
t-73 -164.5q0 -35 0.5 -78t1.5 -85t2.5 -78.5t2.5 -57.5q-19 5 -33 7.5t-21 2.5q-9 0 -23.5 -2.5t-32.5 -6.5zM259 853q11 14 22.5 22.5t24.5 8.5t28 -13t15 -37t-11 -37t-22 -21q-26 -23 -55 -47.5t-55 -46.5h-74z" />
    <glyph glyph-name="Thorn" unicode="&#xde;" horiz-adv-x="367" 
d="M37 422q0 30 -0.5 64.5t-1.5 69.5t-2 69.5t-2 65.5q17 -5 31.5 -7.5t23.5 -2.5t23.5 2.5t31.5 7.5q-2 -32 -4.5 -64.5t-2.5 -64.5h68q80 0 126 -44t46 -140q0 -58 -17 -96t-44.5 -60.5t-62 -31.5t-69.5 -9h-15h-10.5t-9.5 0.5t-12 1.5v-33q0 -40 2 -83t9 -77
q-20 5 -35.5 7.5t-23.5 2.5q-9 0 -23.5 -2.5t-31.5 -6.5q1 30 2 64.5t2 69.5t1.5 69.5t0.5 64.5v163zM134 254h36q19 0 37.5 7.5t32.5 22.5t22.5 38t8.5 55q0 20 -5 40t-16 36t-28.5 26t-43.5 10h-44v-235z" />
    <glyph glyph-name="germandbls" unicode="&#xdf;" horiz-adv-x="396" 
d="M34 403v52.5t-1 38.5q0 8 -0.5 14t-0.5 9q0 64 15.5 108.5t39.5 72.5t52.5 41t55.5 13q19 0 40.5 -9t39.5 -25.5t30 -40t12 -51.5q0 -23 -5 -42.5t-13 -36.5t-17 -32t-18 -29q-12 -17 -21.5 -33.5t-9.5 -31.5q0 -23 17.5 -40.5t39.5 -37.5q16 -14 33 -29.5t30.5 -34.5
t22 -42.5t8.5 -54.5q0 -34 -13 -69t-35 -63t-50.5 -46t-59.5 -18q-26 0 -51 10t-44 25q8 16 12 39t6 41h33q8 -17 24.5 -29.5t33.5 -12.5q22 0 40 21.5t18 59.5q0 39 -22.5 66.5t-49.5 50.5q-15 13 -29 26.5t-25 29.5t-18 34.5t-7 40.5q0 31 13.5 55.5t31.5 50.5t34 56
t16 65q0 30 -13.5 49.5t-37.5 19.5q-38 0 -52.5 -45t-14.5 -130v-222q0 -33 0.5 -74.5t1.5 -83t2 -78.5t3 -61q-17 5 -30.5 7.5t-21.5 2.5t-22 -2.5t-31 -7.5q1 24 2.5 61t3 78.5t2 83t0.5 74.5v116z" />
    <glyph glyph-name="agrave" unicode="&#xe0;" 
d="M49 429q38 38 69.5 52t62.5 14q30 0 55 -11.5t42.5 -32.5t27.5 -50t10 -65v-52.5t-1 -52.5t-1.5 -57t-0.5 -59q0 -17 1 -34t7 -17q1 0 6 3t28 22v-73q-11 -6 -28 -13t-36 -7q-20 0 -34.5 10t-23.5 27q-22 -24 -45.5 -35.5t-57.5 -11.5q-21 0 -41.5 9.5t-36 27t-25 42.5
t-9.5 56q0 66 30 101.5t84 47.5q33 7 51.5 11.5t27.5 9.5t11 11t2 15q0 40 -13.5 70t-46.5 30q-22 0 -42.5 -16.5t-32.5 -47.5h-40v76zM87 622q-11 9 -21.5 22.5t-10.5 36.5q0 24 14.5 36.5t26.5 12.5q14 0 26 -8.5t21 -21.5q13 -18 30.5 -41t35 -47t34 -46t27.5 -37h-74z
M223 226q-5 -2 -8.5 -2.5t-7.5 -1.5q-16 -4 -33 -9t-30.5 -14t-22 -24.5t-8.5 -40.5q0 -35 13 -53t30 -18q20 0 37.5 14.5t27.5 36.5z" />
    <glyph glyph-name="aacute" unicode="&#xe1;" horiz-adv-x="353" 
d="M34 429q38 38 69.5 52t62.5 14q30 0 55 -11.5t42.5 -32.5t27.5 -50t10 -65v-52.5t-1 -52.5t-1.5 -57t-0.5 -59q0 -17 1 -34t7 -17q1 0 6 3t28 22v-73q-11 -6 -28 -13t-36 -7q-20 0 -34.5 10t-23.5 27q-22 -24 -45.5 -35.5t-57.5 -11.5q-21 0 -41.5 9.5t-36 27t-25 42.5
t-9.5 56q0 66 30 101.5t84 47.5q33 7 51.5 11.5t27.5 9.5t11 11t2 15q0 40 -13.5 70t-46.5 30q-22 0 -42.5 -16.5t-32.5 -47.5h-40v76zM210 700q9 13 21 21.5t26 8.5q11 0 26.5 -12.5t15.5 -36.5q0 -23 -10.5 -36.5t-21.5 -22.5q-26 -22 -55.5 -47t-54.5 -46h-74zM208 226
q-5 -2 -8.5 -2.5t-7.5 -1.5q-16 -4 -33 -9t-30.5 -14t-22 -24.5t-8.5 -40.5q0 -35 13 -53t30 -18q20 0 37.5 14.5t27.5 36.5z" />
    <glyph glyph-name="acircumflex" unicode="&#xe2;" horiz-adv-x="360" 
d="M44 429q38 38 69.5 52t62.5 14q30 0 55 -11.5t42.5 -32.5t27.5 -50t10 -65v-52.5t-1 -52.5t-1.5 -57t-0.5 -59q0 -17 1 -34t7 -17q1 0 6 3t28 22v-73q-11 -6 -28 -13t-36 -7q-20 0 -34.5 10t-23.5 27q-22 -24 -45.5 -35.5t-57.5 -11.5q-21 0 -41.5 9.5t-36 27t-25 42.5
t-9.5 56q0 66 30 101.5t84 47.5q33 7 51.5 11.5t27.5 9.5t11 11t2 15q0 40 -13.5 70t-46.5 30q-22 0 -42.5 -16.5t-32.5 -47.5h-40v76zM179 619q-18 -23 -38.5 -46.5t-38.5 -43.5h-66l107 196h72l107 -196h-66zM218 226q-5 -2 -8.5 -2.5t-7.5 -1.5q-16 -4 -33 -9t-30.5 -14
t-22 -24.5t-8.5 -40.5q0 -35 13 -53t30 -18q20 0 37.5 14.5t27.5 36.5z" />
    <glyph glyph-name="atilde" unicode="&#xe3;" horiz-adv-x="367" 
d="M48 429q38 38 69.5 52t62.5 14q30 0 55 -11.5t42.5 -32.5t27.5 -50t10 -65v-52.5t-1 -52.5t-1.5 -57t-0.5 -59q0 -17 1 -34t7 -17q1 0 6 3t28 22v-73q-11 -6 -28 -13t-36 -7q-20 0 -34.5 10t-23.5 27q-22 -24 -45.5 -35.5t-57.5 -11.5q-21 0 -41.5 9.5t-36 27t-25 42.5
t-9.5 56q0 66 30 101.5t84 47.5q33 7 51.5 11.5t27.5 9.5t11 11t2 15q0 40 -13.5 70t-46.5 30q-22 0 -42.5 -16.5t-32.5 -47.5h-40v76zM45 552q3 23 10 47.5t19 44t28.5 32t38.5 12.5q14 0 27.5 -5.5t33.5 -19.5q29 -19 37 -19t15 14.5t11 32.5h55q-2 -15 -7.5 -39
t-16.5 -46t-29 -38t-44 -16q-27 0 -63 26q-27 18 -35 18t-12.5 -9t-10.5 -35h-57zM222 226q-5 -2 -8.5 -2.5t-7.5 -1.5q-16 -4 -33 -9t-30.5 -14t-22 -24.5t-8.5 -40.5q0 -35 13 -53t30 -18q20 0 37.5 14.5t27.5 36.5z" />
    <glyph glyph-name="adieresis" unicode="&#xe4;" horiz-adv-x="365" 
d="M47 429q38 38 69.5 52t62.5 14q30 0 55 -11.5t42.5 -32.5t27.5 -50t10 -65v-52.5t-1 -52.5t-1.5 -57t-0.5 -59q0 -17 1 -34t7 -17q1 0 6 3t28 22v-73q-11 -6 -28 -13t-36 -7q-20 0 -34.5 10t-23.5 27q-22 -24 -45.5 -35.5t-57.5 -11.5q-21 0 -41.5 9.5t-36 27t-25 42.5
t-9.5 56q0 66 30 101.5t84 47.5q33 7 51.5 11.5t27.5 9.5t11 11t2 15q0 40 -13.5 70t-46.5 30q-22 0 -42.5 -16.5t-32.5 -47.5h-40v76zM221 226q-5 -2 -8.5 -2.5t-7.5 -1.5q-16 -4 -33 -9t-30.5 -14t-22 -24.5t-8.5 -40.5q0 -35 13 -53t30 -18q20 0 37.5 14.5t27.5 36.5z
M197 621q0 28 16 48t39 20t39 -20t16 -48q0 -27 -16 -47t-39 -20t-39 20t-16 47zM57 621q0 28 16 48t39 20t39 -20t16 -48q0 -27 -16 -47t-39 -20t-39 20t-16 47z" />
    <glyph glyph-name="aring" unicode="&#xe5;" horiz-adv-x="359" 
d="M44 429q38 38 69.5 52t62.5 14q30 0 55 -11.5t42.5 -32.5t27.5 -50t10 -65v-52.5t-1 -52.5t-1.5 -57t-0.5 -59q0 -17 1 -34t7 -17q1 0 6 3t28 22v-73q-11 -6 -28 -13t-36 -7q-20 0 -34.5 10t-23.5 27q-22 -24 -45.5 -35.5t-57.5 -11.5q-21 0 -41.5 9.5t-36 27t-25 42.5
t-9.5 56q0 66 30 101.5t84 47.5q33 7 51.5 11.5t27.5 9.5t11 11t2 15q0 40 -13.5 70t-46.5 30q-22 0 -42.5 -16.5t-32.5 -47.5h-40v76zM87 629q0 24 7.5 44.5t20 36.5t29 25t35.5 9t35.5 -9t29 -25t20 -36.5t7.5 -44.5t-7.5 -44.5t-20 -36.5t-29 -25t-35.5 -9t-35.5 9
t-29 25t-20 36.5t-7.5 44.5zM218 226q-5 -2 -8.5 -2.5t-7.5 -1.5q-16 -4 -33 -9t-30.5 -14t-22 -24.5t-8.5 -40.5q0 -35 13 -53t30 -18q20 0 37.5 14.5t27.5 36.5zM155 629q0 -16 7 -27t17 -11t17 11t7 27t-7 27t-17 11t-17 -11t-7 -27z" />
    <glyph glyph-name="ae" unicode="&#xe6;" horiz-adv-x="606" 
d="M62 429q38 38 69.5 52t63.5 14q23 0 52 -10.5t55 -45.5q20 26 47 41t60 15q42 0 73 -17t52 -46t31 -67.5t10 -81.5q0 -9 -0.5 -28t-1.5 -28q-13 0 -35.5 0.5t-35.5 0.5q-25 1 -49.5 1.5t-49.5 0.5q-16 0 -31 -0.5t-31 -1.5h-12v-9q0 -33 6.5 -61.5t19.5 -49.5t32.5 -33
t44.5 -12q23 0 52 22.5t51 56.5l27 -27l-6 -61q-26 -27 -62.5 -47.5t-74.5 -20.5q-46 0 -83 20t-60 62q-17 -34 -48.5 -58t-83.5 -24q-21 0 -41.5 9.5t-36.5 27t-25.5 42.5t-9.5 56q0 66 30.5 101.5t84.5 47.5q33 7 51.5 11.5t27 9.5t10.5 11t2 15q0 40 -13.5 70t-45.5 30
q-23 0 -43.5 -16.5t-33.5 -47.5h-39v76zM411 427q-19 0 -33 -11.5t-23.5 -30t-15 -41t-8.5 -44.5h9q16 -1 32 -1.5t31 -0.5q17 0 33.5 0.5t32.5 1.5h10q0 22 -3 44.5t-10.5 41t-20.5 30t-34 11.5zM127 134q0 -32 12.5 -51.5t34.5 -19.5t40.5 21t21.5 62q1 20 1 38.5v42.5
q-4 -1 -9 -2.5t-8 -2.5q-16 -4 -32.5 -9.5t-30 -15t-22 -24.5t-8.5 -39z" />
    <glyph glyph-name="ccedilla" unicode="&#xe7;" horiz-adv-x="356" 
d="M122 -118q14 -8 31 -14.5t31 -6.5q11 0 17.5 5.5t6.5 15.5t-5 14.5t-12 4.5q-9 0 -19 -5t-19 -12l-18 33l21 74q-29 7 -56 24.5t-47.5 48t-33 74t-12.5 102.5q0 66 17 114.5t45 79.5t63.5 46t73.5 15q44 0 81 -17.5t55 -39.5q-6 -20 -11.5 -41t-9.5 -44h-34q-5 12 -13 25
t-18 24t-22.5 18t-25.5 7q-27 0 -46 -14t-31.5 -39t-18 -59t-5.5 -74q0 -88 26.5 -133t77.5 -45q23 0 52 22.5t50 56.5l27 -27q-1 -11 -2.5 -30t-2.5 -30q-22 -23 -52 -42t-62 -24q-2 -5 -4 -15q35 -2 53.5 -25.5t18.5 -61.5q0 -49 -30.5 -74t-72.5 -25q-24 0 -47 9t-40 17z
" />
    <glyph glyph-name="egrave" unicode="&#xe8;" horiz-adv-x="366" 
d="M15 227q0 124 47 196t135 72q42 0 73 -17t51.5 -46t30.5 -67.5t10 -81.5q0 -9 -0.5 -28t-1.5 -28q-13 0 -35 0.5t-35 0.5q-26 1 -50 1.5t-50 0.5q-16 0 -31 -0.5t-31 -1.5h-13v-9q0 -33 7 -61.5t20.5 -49.5t32.5 -33t44 -12q24 0 53 22.5t51 55.5l26 -26l-6 -61
q-25 -27 -62 -47.5t-74 -20.5q-43 0 -78 18.5t-60.5 51t-39.5 76.5t-14 95zM101 622q-11 9 -21.5 22.5t-10.5 36.5q0 24 14.5 36.5t26.5 12.5q14 0 26 -8.5t22 -21.5q13 -18 30 -41t34.5 -47t34 -46t27.5 -37h-73zM198 427q-20 0 -34 -11.5t-23.5 -30t-14.5 -41t-7 -44.5h7
q16 -1 32.5 -1.5t32.5 -0.5q17 0 32 0.5t32 1.5h12q0 22 -3.5 44.5t-11 41t-20.5 30t-34 11.5z" />
    <glyph glyph-name="eacute" unicode="&#xe9;" horiz-adv-x="368" 
d="M4 227q0 124 47 196t135 72q42 0 73 -17t51.5 -46t30.5 -67.5t10 -81.5q0 -9 -0.5 -28t-1.5 -28q-13 0 -35 0.5t-35 0.5q-26 1 -50 1.5t-50 0.5q-16 0 -31 -0.5t-31 -1.5h-13v-9q0 -33 7 -61.5t20.5 -49.5t32.5 -33t44 -12q24 0 53 22.5t51 55.5l26 -26l-6 -61
q-25 -27 -62 -47.5t-74 -20.5q-43 0 -78 18.5t-60.5 51t-39.5 76.5t-14 95zM228 700q9 13 21 21.5t26 8.5q12 0 27 -12.5t15 -36.5q0 -23 -10.5 -36.5t-21.5 -22.5q-25 -22 -55 -47t-55 -46h-74zM187 427q-20 0 -34 -11.5t-23.5 -30t-14.5 -41t-7 -44.5h7q16 -1 32.5 -1.5
t32.5 -0.5q17 0 32 0.5t32 1.5h12q0 22 -3.5 44.5t-11 41t-20.5 30t-34 11.5z" />
    <glyph glyph-name="ecircumflex" unicode="&#xea;" horiz-adv-x="373" 
d="M12 227q0 124 47 196t135 72q42 0 73 -17t51.5 -46t30.5 -67.5t10 -81.5q0 -9 -0.5 -28t-1.5 -28q-13 0 -35 0.5t-35 0.5q-26 1 -50 1.5t-50 0.5q-16 0 -31 -0.5t-31 -1.5h-13v-9q0 -33 7 -61.5t20.5 -49.5t32.5 -33t44 -12q24 0 53 22.5t51 55.5l26 -26l-6 -61
q-25 -27 -62 -47.5t-74 -20.5q-43 0 -78 18.5t-60.5 51t-39.5 76.5t-14 95zM195 619q-18 -23 -38.5 -46.5t-37.5 -43.5h-66l106 196h72l107 -196h-66zM195 427q-20 0 -34 -11.5t-23.5 -30t-14.5 -41t-7 -44.5h7q16 -1 32.5 -1.5t32.5 -0.5q17 0 32 0.5t32 1.5h12
q0 22 -3.5 44.5t-11 41t-20.5 30t-34 11.5z" />
    <glyph glyph-name="edieresis" unicode="&#xeb;" horiz-adv-x="379" 
d="M15 227q0 124 47 196t135 72q42 0 73 -17t51.5 -46t30.5 -67.5t10 -81.5q0 -9 -0.5 -28t-1.5 -28q-13 0 -35 0.5t-35 0.5q-26 1 -50 1.5t-50 0.5q-16 0 -31 -0.5t-31 -1.5h-13v-9q0 -33 7 -61.5t20.5 -49.5t32.5 -33t44 -12q24 0 53 22.5t51 55.5l26 -26l-6 -61
q-25 -27 -62 -47.5t-74 -20.5q-43 0 -78 18.5t-60.5 51t-39.5 76.5t-14 95zM198 427q-20 0 -34 -11.5t-23.5 -30t-14.5 -41t-7 -44.5h7q16 -1 32.5 -1.5t32.5 -0.5q17 0 32 0.5t32 1.5h12q0 22 -3.5 44.5t-11 41t-20.5 30t-34 11.5zM214 621q0 28 15.5 48t38.5 20t39 -20
t16 -48q0 -27 -16 -47t-39 -20t-38.5 20t-15.5 47zM74 621q0 28 15.5 48t38.5 20t39 -20t16 -48q0 -27 -16 -47t-39 -20t-38.5 20t-15.5 47z" />
    <glyph glyph-name="igrave" unicode="&#xec;" horiz-adv-x="196" 
d="M79 289q0 39 -1.5 90t-6.5 112q17 -5 31 -7.5t23 -2.5q6 0 20 2.5t33 7.5q-5 -54 -6.5 -105.5t-1.5 -96.5v-98q0 -45 1.5 -96t6.5 -105q-19 5 -33 7.5t-20 2.5q-7 0 -21 -3t-33 -8q5 61 6.5 111.5t1.5 90.5v98zM27 622q-11 9 -21.5 22.5t-10.5 36.5q0 24 15 36.5t28 12.5
t25 -8.5t21 -21.5q13 -18 30.5 -41t35 -47t34 -46t28.5 -37h-75z" />
    <glyph glyph-name="iacute" unicode="&#xed;" horiz-adv-x="195" 
d="M24 289q0 39 -1.5 90t-7.5 112q17 -5 31.5 -7.5t22.5 -2.5q7 0 21 2.5t32 7.5q-5 -54 -6 -105.5t-1 -96.5v-98q0 -45 1 -96t6 -105q-18 5 -32 7.5t-21 2.5q-6 0 -20 -3t-34 -8q6 61 7.5 111.5t1.5 90.5v98zM110 700q11 14 22.5 22t24.5 8t28 -12.5t15 -36.5t-10.5 -37
t-21.5 -22q-26 -22 -55.5 -46.5t-55.5 -46.5h-74z" />
    <glyph glyph-name="icircumflex" unicode="&#xee;" horiz-adv-x="256" 
d="M82 289q0 39 -1.5 90t-7.5 112q17 -5 31.5 -7.5t22.5 -2.5q7 0 20.5 2.5t32.5 7.5q-5 -54 -6.5 -105.5t-1.5 -96.5v-98q0 -45 1.5 -96t6.5 -105q-19 5 -32.5 7.5t-20.5 2.5t-20.5 -3t-33.5 -8q6 61 7.5 111.5t1.5 90.5v98zM128 618q-19 -23 -39.5 -45.5t-37.5 -43.5h-67
l107 196h70l110 -196h-67z" />
    <glyph glyph-name="idieresis" unicode="&#xef;" horiz-adv-x="269" 
d="M89 289q0 39 -1.5 90t-7.5 112q17 -5 31.5 -7.5t22.5 -2.5q7 0 20.5 2.5t32.5 7.5q-5 -54 -6.5 -105.5t-1.5 -96.5v-98q0 -45 1.5 -96t6.5 -105q-19 5 -32.5 7.5t-20.5 2.5t-20.5 -3t-33.5 -8q6 61 7.5 111.5t1.5 90.5v98zM9 621q0 28 16 48t39 20t39.5 -20t16.5 -48
q0 -27 -16.5 -47t-39.5 -20t-39 20t-16 47zM149 621q0 28 16 48t39 20t39 -20t16 -48q0 -27 -16 -47t-39 -20t-39 20t-16 47z" />
    <glyph glyph-name="eth" unicode="&#xf0;" horiz-adv-x="415" 
d="M21 240q0 69 16.5 117.5t43.5 79t60.5 44.5t67.5 14q-14 20 -27 38t-31 39q-22 -10 -48.5 -22.5t-46.5 -22.5q-2 4 -6.5 14t-9.5 21t-9.5 21t-6.5 14q21 7 41.5 14t43.5 16q-18 22 -40 45t-52 53l90 30q26 -24 49 -47t43 -44q20 8 43 20t50 26q5 -15 13 -33t21 -38
q-23 -7 -42.5 -13t-39.5 -14q84 -98 121.5 -187.5t37.5 -184.5q0 -70 -17 -118.5t-44 -78.5t-61.5 -43.5t-68.5 -13.5q-35 0 -69 13.5t-61 43.5t-44 78.5t-17 118.5zM303 240q0 36 -4.5 70t-15 60t-28 41.5t-43.5 15.5t-43.5 -15.5t-28 -41.5t-15 -60t-4.5 -70t4.5 -69.5
t15 -59.5t28 -41.5t43.5 -15.5t43.5 15.5t28 41.5t15 59.5t4.5 69.5z" />
    <glyph glyph-name="ntilde" unicode="&#xf1;" horiz-adv-x="372" 
d="M255 283q0 60 -16 92.5t-43 32.5q-40 0 -58 -35.5t-18 -101.5v-80q0 -45 1 -96.5t6 -105.5q-19 5 -33 8t-20 3t-20 -2.5t-33 -7.5q5 54 6.5 105t1.5 96v98q0 45 -1.5 96.5t-6.5 105.5q19 -5 33 -7.5t20 -2.5q5 0 18 2.5t30 7.5q0 -10 -0.5 -13.5t-0.5 -5.5v-5.5v-13.5
q19 21 41.5 31.5t52.5 10.5q23 0 47 -8t43 -29t31 -56.5t12 -90.5v-39.5t-1 -40.5q-1 -21 -1.5 -46.5t-0.5 -48.5v-34.5t0.5 -39t1 -38.5t1.5 -34q-17 5 -30 7.5t-20 2.5q-6 0 -18.5 -3t-29.5 -8v26t0.5 31t1 31t0.5 26q1 29 2 60.5t1 61.5v58v0zM48 552q3 23 10 47.5t19 44
t28.5 32t37.5 12.5q17 0 28.5 -5.5t34.5 -19.5q17 -11 24 -15t12 -4q8 0 15 14.5t11 32.5h57q-2 -15 -8 -39t-17.5 -46t-29.5 -38t-44 -16q-27 0 -63 26q-27 18 -35 18t-12.5 -9t-10.5 -35h-57z" />
    <glyph glyph-name="ograve" unicode="&#xf2;" horiz-adv-x="406" 
d="M17 240q0 70 17 118.5t44 79t61 44t69 13.5q34 0 68.5 -13.5t61.5 -44t44 -79t17 -118.5t-17 -118.5t-44 -78.5t-61.5 -43.5t-68.5 -13.5q-35 0 -69 13.5t-61 43.5t-44 78.5t-17 118.5zM117 240q0 -36 4.5 -69.5t15 -59.5t28 -41.5t43.5 -15.5t43.5 15.5t28 41.5t15 59.5
t4.5 69.5t-4.5 70t-15 60t-28 41.5t-43.5 15.5t-43.5 -15.5t-28 -41.5t-15 -60t-4.5 -70zM111 622q-11 9 -22 22.5t-11 36.5q0 24 15 36.5t28 12.5t25 -8.5t21 -21.5q13 -18 30.5 -41t35 -47t34 -46t28.5 -37h-75z" />
    <glyph glyph-name="oacute" unicode="&#xf3;" horiz-adv-x="406" 
d="M7 240q0 70 17 118.5t44 79t61 44t69 13.5q34 0 68.5 -13.5t61.5 -44t44 -79t17 -118.5t-17 -118.5t-44 -78.5t-61.5 -43.5t-68.5 -13.5q-35 0 -69 13.5t-61 43.5t-44 78.5t-17 118.5zM107 240q0 -36 4.5 -69.5t15 -59.5t28 -41.5t43.5 -15.5t43.5 15.5t28 41.5t15 59.5
t4.5 69.5t-4.5 70t-15 60t-28 41.5t-43.5 15.5t-43.5 -15.5t-28 -41.5t-15 -60t-4.5 -70zM239 700q11 14 22.5 22t24.5 8t28 -12.5t15 -36.5t-11 -37t-22 -22q-26 -22 -55 -46.5t-55 -46.5h-74z" />
    <glyph glyph-name="ocircumflex" unicode="&#xf4;" horiz-adv-x="411" 
d="M14 240q0 70 17 118.5t44 79t61 44t69 13.5q34 0 68.5 -13.5t61.5 -44t44 -79t17 -118.5t-17 -118.5t-44 -78.5t-61.5 -43.5t-68.5 -13.5q-35 0 -69 13.5t-61 43.5t-44 78.5t-17 118.5zM114 240q0 -36 4.5 -69.5t15 -59.5t28 -41.5t43.5 -15.5t43.5 15.5t28 41.5t15 59.5
t4.5 69.5t-4.5 70t-15 60t-28 41.5t-43.5 15.5t-43.5 -15.5t-28 -41.5t-15 -60t-4.5 -70zM206 618q-19 -23 -39.5 -45.5t-37.5 -43.5h-67l107 196h70l110 -196h-67z" />
    <glyph glyph-name="otilde" unicode="&#xf5;" horiz-adv-x="416" 
d="M17 240q0 70 17 118.5t44 79t61 44t69 13.5q34 0 68.5 -13.5t61.5 -44t44 -79t17 -118.5t-17 -118.5t-44 -78.5t-61.5 -43.5t-68.5 -13.5q-35 0 -69 13.5t-61 43.5t-44 78.5t-17 118.5zM117 240q0 -36 4.5 -69.5t15 -59.5t28 -41.5t43.5 -15.5t43.5 15.5t28 41.5t15 59.5
t4.5 69.5t-4.5 70t-15 60t-28 41.5t-43.5 15.5t-43.5 -15.5t-28 -41.5t-15 -60t-4.5 -70zM70 552q3 23 10 47.5t19 44t28.5 32t37.5 12.5q17 0 29 -5.5t34 -19.5q17 -11 24 -15t12 -4q8 0 15 14.5t11 32.5h57q-2 -15 -8 -39t-17.5 -46t-29.5 -38t-44 -16q-27 0 -63 26
q-27 18 -35 18t-12.5 -9t-10.5 -35h-57z" />
    <glyph glyph-name="odieresis" unicode="&#xf6;" horiz-adv-x="415" 
d="M16 240q0 70 17 118.5t44 79t61 44t69 13.5q34 0 68.5 -13.5t61.5 -44t44 -79t17 -118.5t-17 -118.5t-44 -78.5t-61.5 -43.5t-68.5 -13.5q-35 0 -69 13.5t-61 43.5t-44 78.5t-17 118.5zM116 240q0 -36 4.5 -69.5t15 -59.5t28 -41.5t43.5 -15.5t43.5 15.5t28 41.5t15 59.5
t4.5 69.5t-4.5 70t-15 60t-28 41.5t-43.5 15.5t-43.5 -15.5t-28 -41.5t-15 -60t-4.5 -70zM82 621q0 28 16 48t39 20t39.5 -20t16.5 -48q0 -27 -16.5 -47t-39.5 -20t-39 20t-16 47zM222 621q0 28 16 48t39 20t39 -20t16 -48q0 -27 -16 -47t-39 -20t-39 20t-16 47z" />
    <glyph glyph-name="divide" unicode="&#xf7;" horiz-adv-x="391" 
d="M-4 302h398v-87h-398v87zM135 73q0 30 18 51.5t42 21.5t42 -21.5t18 -51.5t-18 -51.5t-42 -21.5t-42 21.5t-18 51.5zM135 444q0 29 18 50.5t42 21.5t42 -21.5t18 -50.5q0 -30 -18 -51.5t-42 -21.5t-42 21.5t-18 51.5z" />
    <glyph glyph-name="oslash" unicode="&#xf8;" horiz-adv-x="454" 
d="M40 240q0 70 17 118.5t44 79t61 44t69 13.5q27 0 54.5 -8.5t53.5 -28.5q30 44 51 94q22 -45 49 -61q-17 -17 -32.5 -37.5t-28.5 -39.5q20 -31 32.5 -73t12.5 -101q0 -70 -17 -118.5t-44.5 -78.5t-62 -43.5t-68.5 -13.5q-30 0 -58 8.5t-53 31.5q-9 -13 -16.5 -24.5
t-13.5 -21.5q-2 -2 -6 -9t-9 -14.5t-9 -14t-5 -8.5q-9 20 -21 34.5t-23 21.5q4 4 11.5 13.5t16.5 21.5t18 24.5t16 24.5q-17 30 -28 71t-11 95zM167 96q11 -19 26.5 -30.5t37.5 -11.5q26 0 44 15.5t28.5 41.5t15 59.5t4.5 69.5q0 21 -1.5 41.5t-5.5 39.5zM292 391
q-10 15 -26 25.5t-35 10.5q-26 0 -43.5 -15.5t-28 -41.5t-15 -60t-4.5 -70q0 -18 1.5 -35.5t3.5 -34.5z" />
    <glyph glyph-name="ugrave" unicode="&#xf9;" 
d="M22 160q0 27 0.5 50t1.5 43q1 17 1 32v31v38t-0.5 46t-1 47.5t-0.5 43.5q17 -5 30 -7.5t19 -2.5q13 0 49 11q-2 -28 -3 -63.5t-2.5 -74t-2 -77.5t-0.5 -74q0 -45 5.5 -69t13.5 -35t19 -18.5t26 -7.5q23 0 38.5 14.5t22.5 33.5q4 12 7 24t4.5 32t2 51.5t0.5 82.5v43
t-0.5 49t-1 48t-1.5 40q33 -10 50 -10q16 0 49 12q-3 -75 -4.5 -157t-1.5 -157q0 -21 0.5 -46t1 -50.5t1 -49.5t1.5 -44q-17 5 -29.5 8t-17.5 3t-17.5 -3.5t-29.5 -8.5q0 10 0.5 14.5t0.5 7.5v7v14q-20 -23 -43.5 -34t-49.5 -11q-64 0 -101 45t-37 129zM88 622
q-11 9 -22 22.5t-11 36.5q0 24 15 36.5t28 12.5t25 -8.5t21 -21.5q13 -18 30.5 -41t35 -47t34 -46t28.5 -37h-75z" />
    <glyph glyph-name="uacute" unicode="&#xfa;" 
d="M8 160q0 27 0.5 50t1.5 43q1 17 1 32v31v38t-0.5 46t-1 47.5t-0.5 43.5q17 -5 30 -7.5t19 -2.5q13 0 49 11q-2 -28 -3 -63.5t-2.5 -74t-2 -77.5t-0.5 -74q0 -45 5.5 -69t13.5 -35t19 -18.5t26 -7.5q23 0 38.5 14.5t22.5 33.5q4 12 7 24t4.5 32t2 51.5t0.5 82.5v43
t-0.5 49t-1 48t-1.5 40q33 -10 50 -10q16 0 49 12q-3 -75 -4.5 -157t-1.5 -157q0 -21 0.5 -46t1 -50.5t1 -49.5t1.5 -44q-17 5 -29.5 8t-17.5 3t-17.5 -3.5t-29.5 -8.5q0 10 0.5 14.5t0.5 7.5v7v14q-20 -23 -43.5 -34t-49.5 -11q-64 0 -101 45t-37 129zM212 700
q11 14 22.5 22t24.5 8t28 -12.5t15 -36.5t-11 -37t-22 -22q-26 -22 -55 -46.5t-55 -46.5h-74z" />
    <glyph glyph-name="ucircumflex" unicode="&#xfb;" horiz-adv-x="363" 
d="M18 160q0 27 0.5 50t1.5 43q1 17 1 32v31v38t-0.5 46t-1 47.5t-0.5 43.5q17 -5 30 -7.5t19 -2.5q13 0 49 11q-2 -28 -3 -63.5t-2.5 -74t-2 -77.5t-0.5 -74q0 -45 5.5 -69t13.5 -35t19 -18.5t26 -7.5q23 0 38.5 14.5t22.5 33.5q4 12 7 24t4.5 32t2 51.5t0.5 82.5v43
t-0.5 49t-1 48t-1.5 40q33 -10 50 -10q16 0 49 12q-3 -75 -4.5 -157t-1.5 -157q0 -21 0.5 -46t1 -50.5t1 -49.5t1.5 -44q-17 5 -29.5 8t-17.5 3t-17.5 -3.5t-29.5 -8.5q0 10 0.5 14.5t0.5 7.5v7v14q-20 -23 -43.5 -34t-49.5 -11q-64 0 -101 45t-37 129zM182 618
q-19 -23 -39.5 -45.5t-37.5 -43.5h-67l107 196h70l110 -196h-67z" />
    <glyph glyph-name="udieresis" unicode="&#xfc;" horiz-adv-x="371" 
d="M22 160q0 27 0.5 50t1.5 43q1 17 1 32v31v38t-0.5 46t-1 47.5t-0.5 43.5q17 -5 30 -7.5t19 -2.5q13 0 49 11q-2 -28 -3 -63.5t-2.5 -74t-2 -77.5t-0.5 -74q0 -45 5.5 -69t13.5 -35t19 -18.5t26 -7.5q23 0 38.5 14.5t22.5 33.5q4 12 7 24t4.5 32t2 51.5t0.5 82.5v43
t-0.5 49t-1 48t-1.5 40q33 -10 50 -10q16 0 49 12q-3 -75 -4.5 -157t-1.5 -157q0 -21 0.5 -46t1 -50.5t1 -49.5t1.5 -44q-17 5 -29.5 8t-17.5 3t-17.5 -3.5t-29.5 -8.5q0 10 0.5 14.5t0.5 7.5v7v14q-20 -23 -43.5 -34t-49.5 -11q-64 0 -101 45t-37 129zM60 621q0 28 16 48
t39 20t39.5 -20t16.5 -48q0 -27 -16.5 -47t-39.5 -20t-39 20t-16 47zM200 621q0 28 16 48t39 20t39 -20t16 -48q0 -27 -16 -47t-39 -20t-39 20t-16 47z" />
    <glyph glyph-name="yacute" unicode="&#xfd;" 
d="M30 -266q37 81 63.5 150t46.5 129q-9 29 -22 72.5t-28 92t-31 98.5t-30 93.5t-24.5 76.5t-15.5 48q22 -7 38 -10t23 -3q17 0 47 8q11 -45 21 -83.5t21 -77t23.5 -78.5t27.5 -87q12 37 24.5 78t24 83.5t22.5 85t20 81.5q27 -10 37 -10q3 0 18 5t38 13q-7 -18 -25.5 -72
t-43.5 -126.5t-53 -156t-53 -161.5t-45 -143t-28 -100q-14 5 -23.5 8t-13.5 3q-5 0 -20.5 -4.5t-38.5 -12.5zM221 700q11 14 22.5 22t24.5 8t28 -12.5t15 -36.5t-11 -37t-22 -22q-26 -22 -55 -46.5t-55 -46.5h-74z" />
    <glyph glyph-name="thorn" unicode="&#xfe;" horiz-adv-x="386" 
d="M38 458q0 33 -0.5 74.5t-2 83t-3 78.5t-2.5 61q36 -11 53 -11t52 11q-1 -24 -2.5 -61t-2.5 -78.5t-1.5 -83t-0.5 -74.5v-13q17 20 42.5 35t60.5 15q30 0 59.5 -14.5t53 -45.5t37.5 -78.5t14 -113.5q0 -65 -15 -113t-40 -80t-56 -48t-62 -16q-56 0 -94 41q0 -33 0.5 -73
t1.5 -80t2.5 -75t2.5 -58q-17 5 -30.5 7.5t-21.5 2.5t-22 -2.5t-31 -7.5q1 24 2.5 61t3 78.5t2 83t0.5 74.5v420zM294 244q0 51 -7 84.5t-18.5 53t-25.5 27.5t-28 8q-24 0 -40.5 -14.5t-27 -39t-15 -57.5t-4.5 -70q0 -177 85 -177q21 0 36 14.5t25 39t15 58.5t5 73z" />
    <glyph glyph-name="ydieresis" unicode="&#xff;" horiz-adv-x="360" 
d="M34 -266q37 81 63.5 150t46.5 129q-9 29 -22 72.5t-28.5 92t-31 98.5t-29.5 93.5t-24.5 76.5t-15.5 48q22 -7 38 -10t23 -3q17 0 47 8q11 -45 21 -83.5t21 -77t23.5 -78.5t27.5 -87q12 37 24.5 78t24 83.5t22.5 85t20 81.5q27 -10 37 -10q3 0 18 5t38 13
q-7 -18 -25.5 -72t-43.5 -126.5t-53 -156t-53 -161.5t-45 -143t-28 -100q-14 5 -23.5 8t-13.5 3q-5 0 -20.5 -4.5t-38.5 -12.5zM59 621q0 28 16 48t39 20t39.5 -20t16.5 -48q0 -27 -16.5 -47t-39.5 -20t-39 20t-16 47zM199 621q0 28 16 48t39 20t39 -20t16 -48
q0 -27 -16 -47t-39 -20t-39 20t-16 47z" />
    <glyph glyph-name="dotlessi" unicode="&#x131;" horiz-adv-x="150" 
d="M28 289q0 39 -1.5 90t-7.5 112q17 -5 31.5 -7.5t22.5 -2.5q6 0 20 2.5t33 7.5q-5 -54 -6.5 -105.5t-1.5 -96.5v-98q0 -45 1.5 -96t6.5 -105q-19 5 -33 7.5t-20 2.5q-7 0 -20.5 -3t-33.5 -8q6 61 7.5 111.5t1.5 90.5v98z" />
    <glyph glyph-name="Lslash" unicode="&#x141;" horiz-adv-x="371" 
d="M82 422q0 30 -0.5 64.5t-1.5 69.5t-2 69.5t-2 65.5q17 -5 31.5 -7.5t23.5 -2.5q8 0 22.5 2.5t31.5 7.5q-1 -30 -2 -64.5l-2 -69t-1.5 -68.5t-0.5 -64q6 5 13 11t15 13q2 1 7.5 6t11.5 10t11.5 9.5t7.5 6.5q6 -24 12.5 -42t14.5 -32q-15 -10 -41 -28.5t-52 -38.5v-77v-60
v-47t0.5 -39.5t0.5 -38.5q22 0 43.5 0.5t45.5 2t51.5 5t61.5 9.5q-4 -18 -6.5 -33.5t-2.5 -18.5q0 -5 2.5 -19.5t5.5 -30.5q-16 1 -36 2.5t-40.5 2.5t-41 1.5t-36.5 0.5q-33 0 -75.5 -2t-75.5 -4q2 62 4 133t2 132q-14 -13 -26.5 -25.5t-21.5 -23.5q-7 29 -14.5 47t-15.5 32
q20 14 40.5 28.5t37.5 28.5v76z" />
    <glyph glyph-name="lslash" unicode="&#x142;" horiz-adv-x="206" 
d="M58 287q-3 -2 -5.5 -4t-4.5 -4q-6 -6 -16.5 -16t-12.5 -12q-8 16 -14.5 32.5t-15.5 30.5q2 2 9.5 9t9.5 9q14 11 24.5 19.5t25.5 21.5v85q0 33 -0.5 74.5t-1.5 83t-2.5 78.5t-3.5 61q36 -11 53 -11q14 0 53 11q-2 -24 -3.5 -61t-2 -78.5l-1 -83t-0.5 -74.5v-7
q15 14 29 28t22 20q0 -25 6.5 -46t14.5 -31q-18 -13 -23 -17t-9 -7q-7 -5 -17 -13t-23 -19v-79q0 -33 0.5 -74.5l1 -83t2 -78.5t3.5 -61q-19 5 -32.5 7.5t-20.5 2.5q-8 0 -22 -2.5t-31 -7.5q2 24 3.5 61t2.5 78.5t1.5 83t0.5 74.5z" />
    <glyph glyph-name="OE" unicode="&#x152;" horiz-adv-x="770" 
d="M564 244q0 -31 0.5 -61.5t1.5 -62.5q0 -16 0.5 -21.5t0.5 -20.5q65 1 112 6.5t73 10.5q-8 -24 -10.5 -36t-2.5 -17q0 -7 2.5 -18t8.5 -31q-15 1 -34 2.5t-38.5 2.5t-38.5 1.5t-34 0.5q-31 0 -71 -2.5l-72 -4.5q1 12 2 18.5t2 11.5t1 12v19q-27 -27 -69 -49t-101 -22
q-54 0 -102 24t-84 68.5t-56.5 108.5t-20.5 145q0 90 21 158.5t57.5 115.5t87 71t110.5 24q61 0 99 -20t61 -43v1v11t-0.5 14.5t-0.5 14.5v11q29 -2 67.5 -4t67.5 -2t69 2.5t69 4.5q-4 -20 -6 -32.5t-2 -17.5q0 -13 9 -55q-15 4 -30.5 7.5t-35 6.5t-46.5 5t-64 2
q0 -10 -0.5 -19t-0.5 -18q-1 -28 -1.5 -55t-0.5 -55v-59q32 0 53.5 0.5t36 1.5t23.5 2t17 2h6t11 0.5t11 0.5h6q-8 -35 -8 -46q0 -10 8 -45h-6t-10.5 0.5t-10.5 0.5h-6q-8 1 -17.5 2t-24 2t-36 1.5t-53.5 0.5v-77zM141 341q0 -74 13.5 -127.5t36.5 -88.5t53 -52t64 -17
q38 0 68.5 20.5t52 58t33 90t11.5 116.5q0 78 -12 132t-33 87.5t-50 49t-63 15.5q-36 0 -68 -17t-55.5 -51.5t-37 -88.5t-13.5 -127z" />
    <glyph glyph-name="oe" unicode="&#x153;" horiz-adv-x="691" 
d="M491 495q42 0 73 -17t51.5 -46t31 -67.5t10.5 -81.5q0 -9 -1 -28t-2 -28q-13 0 -35.5 0.5t-35.5 0.5q-25 1 -49 1.5t-49 0.5q-16 0 -31.5 -0.5t-30.5 -1.5h-13v-9q0 -33 7 -61.5t20 -49.5t32 -33t44 -12q24 0 53 22.5t50 56.5l28 -27l-7 -61q-25 -27 -62 -47.5t-74 -20.5
q-42 0 -76.5 18t-60.5 51q-27 -37 -63.5 -53t-75.5 -16q-35 0 -69 13.5t-61 43.5t-44 78.5t-17 118.5t17 118.5t44 79t61 44t69 13.5q38 0 73.5 -15.5t62.5 -50.5q23 32 55.5 49t74.5 17zM317 240q0 36 -4.5 70t-15 60t-28.5 41.5t-44 15.5t-43.5 -15.5t-28 -41.5t-15 -60
t-4.5 -70t4.5 -69.5t15 -59.5t28 -41.5t43.5 -15.5t44 15.5t28.5 41.5t15 59.5t4.5 69.5zM493 427q-20 0 -33.5 -11.5t-23 -30t-15 -41t-8.5 -44.5h9q15 -1 31.5 -1.5t31.5 -0.5q17 0 33 0.5t33 1.5h10q0 22 -3.5 44.5t-11 41t-20.5 30t-33 11.5z" />
    <glyph glyph-name="Scaron" unicode="&#x160;" horiz-adv-x="358" 
d="M262 887h67l-104 -191q29 -4 54 -18t48 -39q-9 -23 -15 -46t-11 -57h-39q-3 13 -9 28.5t-14 29t-20 22.5t-27 9q-31 0 -52 -27t-21 -71q0 -27 8 -46.5t21.5 -33t30.5 -24t35 -19.5q24 -13 47 -27t41.5 -35t30 -51.5t11.5 -75.5q0 -47 -13.5 -89.5t-38 -74t-60.5 -50
t-81 -18.5q-50 0 -83 21t-56 46q8 25 11 48t6 61h39q6 -17 15 -34.5t21.5 -31.5t28.5 -23t35 -9t34.5 9.5t26 25.5t16 37.5t5.5 45.5q0 26 -8 44.5t-20.5 32t-29 23.5t-34.5 20q-24 13 -47 27.5t-42 37t-30.5 55t-11.5 81.5q0 74 33 125t92 66l-109 196h67l76 -89z" />
    <glyph glyph-name="scaron" unicode="&#x161;" horiz-adv-x="291" 
d="M71 124q4 -10 10.5 -21.5t15 -21t19 -16t21.5 -6.5q20 0 35.5 16.5t15.5 49.5q0 31 -19 44t-43 22q-19 7 -38 16.5t-34 25t-24.5 39.5t-9.5 61q0 35 9 65t26.5 51.5t43 33.5t58.5 12q23 0 40 -7t31 -14q5 -3 11.5 -6t20.5 -8q-4 -9 -8 -22.5t-7 -27t-5.5 -26.5t-2.5 -21
h-41q-5 23 -18 41t-30 18q-14 0 -28 -14.5t-14 -46.5t19.5 -45.5t44.5 -23.5q18 -7 36.5 -16t33.5 -24t24.5 -38.5t9.5 -59.5q0 -30 -10.5 -60t-29.5 -54t-46 -39t-61 -15q-37 0 -65.5 14t-48.5 29q3 8 6 20t5.5 25t4.5 26t2 24h40zM222 725h67l-110 -196h-70l-107 196h67
l76 -89z" />
    <glyph glyph-name="Ydieresis" unicode="&#x178;" horiz-adv-x="441" 
d="M165 -9q6 66 7 139t1 149q-8 18 -23 51.5t-33.5 75t-38.5 86t-38.5 84.5t-33 71t-21.5 46q24 -5 43 -8.5t30 -3.5q21 0 51 8q16 -41 30 -77.5t28.5 -72.5t30.5 -74t34 -80q29 65 61.5 146t59.5 160q14 -5 25 -7.5t16 -2.5t22 4.5t41 11.5q-67 -139 -116 -243.5
t-73 -164.5q0 -35 0.5 -78t1.5 -85t2.5 -78.5t2.5 -57.5q-19 5 -33 7.5t-21 2.5q-9 0 -23.5 -2.5t-32.5 -6.5zM242 784q0 28 16.5 47.5t39.5 19.5t38.5 -19.5t15.5 -47.5t-15.5 -47.5t-38.5 -19.5t-39.5 19.5t-16.5 47.5zM103 784q0 28 16 47.5t39 19.5t38.5 -19.5
t15.5 -47.5t-15.5 -47.5t-38.5 -19.5t-39 19.5t-16 47.5z" />
    <glyph glyph-name="Zcaron" unicode="&#x17d;" horiz-adv-x="456" 
d="M13 36q28 51 58.5 107.5t60.5 113.5t58 111.5t52 100.5t41.5 81t26.5 54h-20q-25 0 -58.5 -1.5t-68.5 -4t-68.5 -6t-58.5 -6.5q4 17 7 32.5t3 19.5q0 5 -3 19t-6 31q9 -1 24 -2t33.5 -2t38.5 -1.5t39 -0.5q38 -1 84 -1h101q14 0 29 1t30 3h6.5t11.5 0.5t11 0.5h7v-42
q-13 -19 -36.5 -60t-52 -93t-59.5 -111.5t-60 -115.5t-53.5 -105t-39.5 -80q9 -1 16 -1h15q27 0 63.5 1.5t75 4.5t73.5 6.5t58 7.5q0 -2 -0.5 -15.5t-0.5 -15.5q-3 -14 -3 -23q0 -1 2.5 -16t4.5 -34q-51 2 -99.5 4t-89.5 2q-28 0 -66 -0.5t-75 -1.5t-68 -2.5t-44 -2.5v43z
M309 887h67l-110 -196h-70l-107 196h67l76 -89z" />
    <glyph glyph-name="zcaron" unicode="&#x17e;" horiz-adv-x="362" 
d="M13 33q25 41 52 87.5t53 92.5t50.5 89.5t44.5 79.5q4 7 5.5 10l2 4t2 2.5t4.5 7.5q-19 -1 -43.5 -3t-50 -4t-49 -4t-41.5 -4q6 26 7 34t1 14q0 5 -1 13.5t-6 35.5q36 -5 85.5 -6t116.5 -1q27 0 51 1t60 6v-41q-29 -49 -60.5 -104.5t-61 -107t-54 -94.5t-37.5 -68
q22 0 43 0.5t45 2.5t53 5t68 8v-6t-0.5 -10.5t-0.5 -10.5v-6q-1 -5 -1 -9v-6v-6.5t1 -8.5v-5.5t0.5 -10t0.5 -10v-5.5q-11 0 -31.5 0.5t-31.5 1.5q-32 2 -66 2.5t-66 0.5q-48 0 -94 -3h1q-8 -1 -18.5 -1.5t-33.5 -0.5v38zM262 725h67l-110 -196h-70l-107 196h67l76 -89z" />
    <glyph glyph-name="florin" unicode="&#x192;" horiz-adv-x="347" 
d="M31 -68q8 -6 17.5 -12.5t11.5 -6.5q17 0 24.5 26t13.5 71v-1q11 88 21.5 165.5t21.5 165.5q-16 0 -35 -1t-45 -4q5 17 8.5 41t3.5 44q19 -3 39.5 -5t37.5 -3l6 33q7 37 19.5 77t31.5 74t44.5 56t57.5 22q6 0 19.5 -4t26.5 -10q-5 -19 -8.5 -47t-3.5 -54l-37 -13
q-6 12 -14 21.5t-13 9.5q-8 0 -14 -9.5t-10 -41.5l-14 -114q8 1 16 1.5t15 1.5q3 0 5.5 0.5t7.5 1t14 0.5h25q-5 -17 -10 -40t-5 -42q-29 4 -46 4.5t-32 0.5q-7 -49 -13.5 -96t-12.5 -95q-15 -112 -38.5 -178.5t-52 -101.5t-60.5 -45.5t-64 -10.5q8 32 11.5 57.5t3.5 48.5z
" />
    <glyph glyph-name="circumflex" unicode="&#x2c6;" horiz-adv-x="276" 
d="M138 618q-19 -23 -39.5 -45.5t-37.5 -43.5h-67l107 196h70l110 -196h-67z" />
    <glyph glyph-name="caron" unicode="&#x2c7;" horiz-adv-x="273" 
d="M213 725h67l-110 -196h-70l-107 196h67l76 -89z" />
    <glyph glyph-name="breve" unicode="&#x2d8;" horiz-adv-x="272" 
d="M75 716q6 -44 20 -67.5t40 -23.5q27 0 39.5 23.5t21.5 67.5h58q0 -38 -7.5 -72t-22.5 -59.5t-37 -40.5t-51 -15q-30 0 -52.5 15t-37 40.5t-22 59.5t-7.5 72h58z" />
    <glyph glyph-name="dotaccent" unicode="&#x2d9;" horiz-adv-x="140" 
d="M13 619q0 28 16 47.5t39 19.5t39 -19.5t16 -47.5t-16 -48t-39 -20t-39 20t-16 48z" />
    <glyph glyph-name="ring" unicode="&#x2da;" horiz-adv-x="216" 
d="M15 629q0 24 7.5 44.5t20 36.5t29.5 25t36 9t35.5 -9t29 -25t19.5 -36.5t7 -44.5t-7 -44.5t-19.5 -36.5t-29.5 -25t-36 -9t-35.5 9t-29 25t-20 36.5t-7.5 44.5zM83 629q0 -16 7 -27t17 -11t17.5 11t7.5 27t-7.5 27t-16.5 11q-11 0 -18 -11t-7 -27z" />
    <glyph glyph-name="ogonek" unicode="&#x2db;" horiz-adv-x="203" 
d="M189 38q-27 -34 -44 -57t-26 -38.5t-12 -26t-3 -18.5q0 -21 9 -29t20 -8q4 0 14.5 4t22.5 9l14 -67q-29 -19 -62 -19q-19 0 -37 6.5t-32 19t-22.5 31t-8.5 42.5q0 32 23 69t68 82h76z" />
    <glyph glyph-name="tilde" unicode="&#x2dc;" horiz-adv-x="311" 
d="M16 552q3 23 10 47.5t19 44t28.5 32t37.5 12.5q17 0 29 -5.5t34 -19.5q17 -11 24 -15t12 -4q8 0 15 14.5t11 32.5h57q-2 -15 -8 -39t-17.5 -46t-29.5 -38t-44 -16q-27 0 -63 26q-27 18 -35 18t-12.5 -9t-10.5 -35h-57z" />
    <glyph glyph-name="hungarumlaut" unicode="&#x2dd;" horiz-adv-x="362" 
d="M116 700q11 14 22.5 22t24.5 8t28 -12.5t15 -36.5t-10.5 -37t-21.5 -22q-26 -22 -55.5 -46.5t-55.5 -46.5h-74zM258 700q11 14 22.5 22t24.5 8t28 -12.5t15 -36.5t-10.5 -37t-21.5 -22q-26 -22 -55.5 -46.5t-55.5 -46.5h-74z" />
    <glyph glyph-name="endash" unicode="&#x2013;" horiz-adv-x="462" 
d="M34 278h393v-82h-393v82z" />
    <glyph glyph-name="emdash" unicode="&#x2014;" horiz-adv-x="836" 
d="M44 278h748v-82h-748v82z" />
    <glyph glyph-name="quoteleft" unicode="&#x2018;" horiz-adv-x="136" 
d="M84 438l1 2q-3 -18 -14 -35t-36 -17q-15 0 -30 12t-15 39q0 12 3 22.5t8 19.5q1 2 1 3t1 3v-1q22 50 48.5 109.5t48.5 109.5l43 -22z" />
    <glyph glyph-name="quoteright" unicode="&#x2019;" horiz-adv-x="136" 
d="M51 648q4 17 15 33.5t34 16.5q15 0 30.5 -12t15.5 -39q0 -13 -3 -23.5t-8 -19.5q-1 -2 -1 -2.5t-1 -2.5v1q-22 -50 -48.5 -109.5t-48.5 -109.5l-43 22z" />
    <glyph glyph-name="quotesinglbase" unicode="&#x201a;" horiz-adv-x="137" 
d="M52 95q4 17 15 33.5t34 16.5q15 0 30.5 -12t15.5 -39q0 -13 -3 -24t-8 -20q-1 -2 -1 -2.5t-1 -2.5v1q-22 -50 -48.5 -109t-48.5 -109l-43 22z" />
    <glyph glyph-name="quotedblleft" unicode="&#x201c;" horiz-adv-x="295" 
d="M225 438q-3 -17 -14.5 -33.5t-34.5 -16.5q-15 0 -30 12t-15 39q0 12 3 22.5t7 19.5q1 2 1 3t1 3v-1q22 50 48.5 109.5t49.5 109.5l43 -22zM103 438q-3 -17 -14.5 -33.5t-34.5 -16.5q-15 0 -30 12t-15 39q0 12 3 22.5t7 19.5q1 2 1 3t1 3v-1q22 50 48.5 109.5t49.5 109.5
l43 -22z" />
    <glyph glyph-name="quotedblright" unicode="&#x201d;" horiz-adv-x="294" 
d="M191 648q3 17 14 33.5t35 16.5q15 0 30 -12t15 -39q0 -13 -4 -25t-9 -22q-11 -25 -23.5 -53t-25 -57t-25 -57t-23.5 -52l-43 22zM68 648q4 17 15 33.5t35 16.5q15 0 30 -12t15 -39q0 -13 -4 -25t-9 -22q-11 -25 -23.5 -53t-25 -57t-25 -57t-23.5 -52l-43 22z" />
    <glyph glyph-name="quotedblbase" unicode="&#x201e;" horiz-adv-x="295" 
d="M192 95q3 17 14 33.5t35 16.5q15 0 30 -12t15 -39q0 -13 -4 -25t-9 -23q-11 -24 -23.5 -52.5l-25 -57t-25 -56.5t-23.5 -52l-43 22zM69 95q4 17 15 33.5t35 16.5q15 0 30 -12t15 -39q0 -13 -4 -25t-9 -23q-11 -24 -23.5 -52.5l-25 -57t-25 -56.5t-23.5 -52l-43 22z" />
    <glyph glyph-name="dagger" unicode="&#x2020;" horiz-adv-x="322" 
d="M-10 475q42 -8 71.5 -10t55.5 -2v57.5t-1 61t-3 59t-5 51.5q20 -5 33 -8t20 -3t20.5 3.5t31.5 8.5q-3 -22 -5 -51t-2.5 -59.5t-1 -61.5t-0.5 -58q13 0 26 0.5t28 1.5t33 3.5t41 6.5q-4 -20 -6 -36.5t-2 -22.5q0 -5 2 -21.5t6 -35.5q-43 8 -72.5 10t-55.5 2
q0 -61 0.5 -116.5t2.5 -115.5q0 -16 0.5 -35.5t1 -40t1 -40t0.5 -34.5q-17 5 -29.5 8t-19.5 3t-20 -2.5t-30 -7.5q2 94 4 190.5t2 190.5q-27 0 -54.5 -2t-72.5 -10q3 19 5.5 35.5t2.5 21.5q0 6 -2.5 22.5t-5.5 36.5z" />
    <glyph glyph-name="daggerdbl" unicode="&#x2021;" horiz-adv-x="328" 
d="M123 341q0 12 -0.5 23.5t-0.5 23.5q-1 11 -1 14v15q-28 0 -55.5 -2t-72.5 -10q3 19 5.5 36t2.5 22q0 6 -2.5 23t-5.5 36q43 -8 73.5 -10.5t53.5 -2.5q0 30 -1 74.5t-6 107.5q17 -5 30 -7.5t21 -2.5q7 0 20 3t30 8q-5 -68 -6 -111t-1 -72q13 0 26 0.5t28 1.5t33 3.5
t41 6.5q-4 -19 -6 -36t-2 -22t2 -22t6 -36q-43 8 -72.5 10t-55.5 2q0 -7 -0.5 -15t-0.5 -15q-1 -12 -1 -23v-23v-25t1 -24q0 -12 0.5 -14t0.5 -14q13 0 26 0.5t28 1.5t33 3.5t41 6.5q-4 -19 -6 -36t-2 -22t2 -22t6 -36q-43 8 -72.5 10t-55.5 2q0 -30 1 -75t6 -108
q-17 5 -30 8t-20 3q-8 0 -21 -2.5t-30 -7.5q5 68 6 110.5t1 71.5q-27 0 -54.5 -2t-72.5 -10q3 19 5.5 36t2.5 22q0 6 -2.5 23t-5.5 36q45 -8 74 -10.5t54 -2.5q0 5 0.5 14.5t0.5 14.5q0 10 0.5 24t0.5 24z" />
    <glyph glyph-name="bullet" unicode="&#x2022;" horiz-adv-x="340" 
d="M30 341q0 37 11 69.5t30 57t44.5 38.5t54.5 14t54.5 -14t44 -38.5t29.5 -57t11 -69.5q0 -38 -11 -70.5t-29.5 -57t-44 -38.5t-54.5 -14t-54.5 14t-44.5 38.5t-30 57t-11 70.5z" />
    <glyph glyph-name="ellipsis" unicode="&#x2026;" horiz-adv-x="667" 
d="M38 61q0 30 17.5 51.5t41.5 21.5q25 0 42.5 -21.5t17.5 -51.5q0 -29 -17.5 -50.5t-42.5 -21.5q-24 0 -41.5 21.5t-17.5 50.5zM274 61q0 30 18 51.5t42 21.5t42 -21.5t18 -51.5q0 -29 -18 -50.5t-42 -21.5t-42 21.5t-18 50.5zM511 61q0 30 17 51.5t42 21.5t42 -21.5
t17 -51.5q0 -29 -17 -50.5t-42 -21.5t-42 21.5t-17 50.5z" />
    <glyph glyph-name="perthousand" unicode="&#x2030;" horiz-adv-x="746" 
d="M265 155q0 49 11 82t28.5 52.5t38 27.5t40.5 8q17 0 35 -6t34 -20.5t28 -38t17 -58.5q6 35 18 58.5t28 38t34.5 20.5t35.5 6q20 0 41 -8t38 -27.5t28 -52.5t11 -82t-11 -81.5t-28 -52t-38 -28t-41 -8.5q-17 0 -35.5 6t-34.5 20.5t-28 37.5t-18 58q-5 -35 -17 -58
t-28 -37.5t-34 -20.5t-35 -6q-20 0 -40.5 8.5t-38 28t-28.5 52t-11 81.5zM31 503q0 49 11 82t28 52.5t38 28t41 8.5q19 0 40 -8.5t38.5 -28t28.5 -52.5t11 -82t-11 -81.5t-28.5 -52t-38.5 -28t-40 -8.5q-20 0 -41 8.5t-38 28t-28 52t-11 81.5zM377 703q11 -6 18.5 -9t9.5 -3
q1 0 15 7t37 18l-301 -760q-11 5 -18.5 8.5t-8.5 3.5q-2 0 -16 -7.5t-37 -18.5zM581 155q0 -48 6.5 -79t25.5 -31q18 0 25 31t7 79t-7 79t-25 31q-19 0 -25.5 -31t-6.5 -79zM351 155q0 -48 6.5 -79t25.5 -31q18 0 25 31t7 79t-7 79t-25 31q-19 0 -25.5 -31t-6.5 -79z
M117 503q0 -48 7 -78.5t25 -30.5q19 0 25.5 30.5t6.5 78.5t-6.5 79t-25.5 31q-18 0 -25 -31t-7 -79z" />
    <glyph glyph-name="guilsinglleft" unicode="&#x2039;" horiz-adv-x="158" 
d="M100 463q9 -22 22.5 -39t29.5 -20l-86 -165q9 -20 20 -42t22 -45t21.5 -45t19.5 -40q-14 -2 -29.5 -19.5t-23.5 -39.5l-108 230z" />
    <glyph glyph-name="guilsinglright" unicode="&#x203a;" horiz-adv-x="156" 
d="M6 410q14 2 28.5 21.5t21.5 43.5l111 -237l-111 -224q-9 22 -23 39t-30 20l86 164z" />
    <glyph glyph-name="fraction" unicode="&#x2044;" horiz-adv-x="248" 
d="M195 693q12 -5 19 -9t8 -4q2 0 14.5 6t32.5 16l-215 -737q-26 13 -28 13q-5 0 -47 -22z" />
    <glyph glyph-name="Euro" unicode="&#x20ac;" horiz-adv-x="445" 
d="M418 603q-5 -18 -9 -39.5t-9 -49.5l-39 -1q-17 39 -41.5 60.5t-45.5 21.5q-36 0 -65.5 -42.5t-41.5 -131.5h98q19 0 42 1.5t61 11.5q-3 -10 -7 -24t-7 -29t-5.5 -28t-3.5 -22q2 1 3 1t3 1q-11 -30 -18 -59.5t-9 -43.5q-25 5 -46.5 7t-38.5 2h-74q10 -83 40 -127.5
t68 -44.5q50 0 113 91l23 -45q-2 -14 -4.5 -33t-4.5 -33q-11 -13 -27 -23.5t-34.5 -18.5t-38 -12.5t-37.5 -4.5q-78 0 -132 65.5t-69 184.5q-14 -2 -29.5 -4.5t-31.5 -7.5q6 24 11.5 51t8.5 53q8 -3 17 -4.5t20 -2.5q0 7 -0.5 7.5t0.5 9.5q-14 -2 -27.5 -5t-29.5 -8
q6 24 11.5 51t8.5 53q14 -3 25.5 -5t19.5 -3q9 55 28.5 101.5t46.5 79.5t61.5 51.5t73.5 18.5q34 0 72 -15t64 -38zM243 320q20 0 42 1.5t59 9.5q-25 6 -46 8t-38 2h-97v-6q0 -5 -0.5 -8.5t-0.5 -6.5h81v0z" />
    <glyph glyph-name="trademark" unicode="&#x2122;" horiz-adv-x="669" 
d="M465 461q23 54 48 115t47 115h37l10 -138q2 -32 5.5 -73t8 -83.5t8.5 -82.5t7 -68q-17 8 -28.5 13.5t-13.5 5.5q-4 0 -14 -4l-25 -10v38q-2 38 -4.5 81t-7.5 95l-1 16v3q0 2 -0.5 4.5t-0.5 6.5q0 -1 -1 -2.5t-1 -2.5q-11 -25 -23 -55t-23 -60.5t-21 -58.5t-17 -49h-33
q-11 32 -26.5 71.5t-28.5 73.5v-1q-6 15 -12.5 30.5t-11.5 30.5q-4 8 -4 7q-1 1 0 2l-2 6q-1 -8 -1 -14.5t-1 -14.5q-4 -46 -6.5 -96.5t-2.5 -113.5q-16 8 -25.5 12.5t-10.5 4.5q-2 0 -13 -5.5l-29 -14.5q5 29 10 65.5t10 76t9.5 78.5t7.5 73l16 153h37q19 -54 42 -113
t46 -114q4 -10 6 -14.5t4 -8.5t4 -9.5t7 -15.5zM116 618q-22 -1 -48 -3t-57 -5q9 20 13 28.5t4 11.5q0 2 -17 39q14 -1 33 -2.5t38.5 -2.5t38.5 -2t33 -1t31.5 0.5t36.5 1.5t36.5 2.5t31.5 2.5q-5 -13 -8 -24t-3 -14q0 -2 3.5 -14t8.5 -26q-23 2 -50 5t-50 3v-115
q0 -28 0.5 -60t1 -65.5t1 -65.5t1.5 -60q-34 13 -41 13q-3 0 -14 -4t-29 -10q2 38 3.5 103t1.5 142v122z" />
    <glyph glyph-name="minus" unicode="&#x2212;" horiz-adv-x="467" 
d="M34 302h398v-87h-398v87z" />
    <glyph glyph-name="fi" unicode="&#xfb01;" horiz-adv-x="393" 
d="M221 626q-24 21 -40 21q-21 0 -30 -23t-9 -53q0 -14 2 -39.5t5 -51.5h19q9 0 29 0.5t30 0.5q-2 -13 -3.5 -24t-1.5 -14t2 -14t4 -24q-7 0 -24.5 0.5t-24.5 0.5q-12 1 -14 1.5t-14 0.5q0 -103 1 -209t3 -209q-17 5 -30.5 7.5t-20.5 2.5q-6 0 -19.5 -2.5t-31.5 -7.5
q5 105 6 209t1 208q-3 0 -6.5 -0.5t-6.5 -0.5q-5 0 -21 -0.5t-21 -0.5q2 13 4 24t2 14t-1.5 14t-3.5 24q7 0 24.5 -0.5t24.5 -0.5h5q2 27 7.5 58.5t14 61.5t19.5 56.5t24 44.5q15 20 38.5 35.5t49.5 15.5q8 0 34 -8q0 -7 -0.5 -20.5t-0.5 -19.5q-1 -13 -1.5 -30.5
t-0.5 -29.5zM266 289q0 45 -1 96.5t-6 105.5q18 -5 32 -7.5t21 -2.5q12 0 53 11q-5 -54 -6.5 -106t-1.5 -97v-98q0 -45 1.5 -96.5t6.5 -105.5q-20 5 -34 8t-19 3q-7 0 -21 -2.5t-32 -7.5q5 54 6 105t1 96v98zM257 631q0 28 16 47.5t39 19.5t39 -19.5t16 -47.5t-16 -47.5
t-39 -19.5t-39 19.5t-16 47.5z" />
    <glyph glyph-name="fl" unicode="&#xfb02;" horiz-adv-x="400" 
d="M221 626q-24 21 -40 21q-21 0 -29.5 -23t-8.5 -53q0 -14 1.5 -39.5t4.5 -51.5h19q9 0 29 0.5t30 0.5q-2 -13 -3.5 -24t-1.5 -14t2 -14t4 -24q-7 0 -24.5 0.5t-24.5 0.5q-12 1 -14 1.5t-14 0.5q0 -103 1 -209t3 -209q-17 5 -30.5 7.5t-20.5 2.5q-6 0 -19.5 -2.5
t-31.5 -7.5q5 105 6 209t1 208q-3 0 -6.5 -0.5t-6.5 -0.5q-5 0 -21 -0.5t-21 -0.5q2 13 4 24t2 14t-1.5 14t-3.5 24q7 0 24.5 -0.5t24.5 -0.5h5q2 27 7.5 58.5t14 61.5t19.5 56.5t25 44.5q14 20 37.5 35.5t49.5 15.5q8 0 34 -8q0 -7 -0.5 -20.5t-0.5 -19.5
q-1 -13 -1.5 -30.5t-0.5 -29.5zM271 458q0 33 -0.5 74.5t-1.5 83t-2.5 78.5t-2.5 61q35 -11 53 -11q16 0 52 11q-2 -24 -3 -61t-2.5 -78.5t-2 -83t-0.5 -74.5v-171q0 -33 0.5 -74.5t2 -83t2.5 -78.5t3 -61q-17 5 -30.5 7.5t-21.5 2.5q-9 0 -22.5 -2.5t-30.5 -7.5
q1 24 2.5 61t2.5 78.5t1.5 83t0.5 74.5v171z" />
    <glyph glyph-name="glyph232" horiz-adv-x="720" 
d="M343 162q0 -2 -1.5 -6t-1.5 -5v-7h-4v10q4 4 7 8zM288 144q4 7 4 18h15q-7 0 -7 -8q0 -25 3 -32h4q2 5 7 14h4v-14h-11q-1 0 -2.5 1t-2.5 3t-2 3h-8q0 1 -2 6t-2 9zM374 110v15q3 0 5 1.5t3 2.5v-13q2 -1 4 -2.5t6 -3.5l1 -16q-6 7 -19 16zM89 627q24 7 64 7q25 0 37 -7
q10 -7 34 -7q19 9 22 18q29 0 33 24l9 4q2 3 7 5q5 0 5 2q5 2 7.5 6.5t10.5 4.5q1 3 7 6q7 2 7 5q32 0 32 18q8 0 13 6q4 7 12 7q1 2 9.5 5t8.5 6q7 0 10 3q12 8 16 8l9 4q7 2 7 7q11 0 22 4q11 3 19 3q0 4 7 8q7 2 8 3l89 19l42 -4l15 -8q7 -3 11 -7q10 -7 31 -18l7 -42
q-42 0 -42 5q-5 0 -14 4t-11 4q0 4 -1.5 5.5t-6.5 4.5h-68q-3 -3 -7 -10q-7 0 -21 -4t-21 -4q-13 -9 -18.5 -9t-14.5 -3q-4 0 -8 -6l-6 -6q-10 -3 -8 -3h-4q-1 -3 -8.5 -5l-7.5 -2q-3 0 -5.5 -2t-6.5 -5t-6 -5q-11 0 -15 -10q-5 0 -6 -2.5t-1 -9.5q-6 0 -13.5 -3.5t-8 -3.5
t-6.5 -4.5t-14 -4.5q-2 -1 -7 -2t-8 -6q-2 -1 -4 -4q-2 -5 -3 -6q-11 0 -11 -8q-4 0 -7 -1.5t-6 -4.5l-5 -5q-15 0 -15 -11q-5 0 -13 -7v-11q-4 -3 -6.5 -4t-4.5 -5v-15q6 -7 11 -7v-48q-6 0 -11 -9v-11q-2 -2 -4 -3q-3 -2 -7 -4v-22q-6 -3 -7 -4.5t-1 -10.5q0 -11 -3 -11
l-7 -7q-9 -4 -10.5 -6t-1.5 -10q-9 -4 -15 -8t-8 -11q-11 -11 -44 -11q-17 11 -35 11q-2 3 -7 11h-15q-3 0 -9 4q-7 4 -13 4q0 11 -11 16q0 7 -4 11q-10 0 -21 -1l-11 -1q-4 0 -11 7q-3 2 -6 2v55q2 3 5 5l6 4l4 83q1 0 2.5 1t2.5 3t2 3v15q5 2 6 6t5 4q0 1 10 4.5t10 7.5
q21 7 26 7zM385 132q-4 5 -7 7q-4 1 -15 1v18q6 -6 18 -14q0 -8 4 -12zM400 132q3 -3 3 -7q-3 3 -10 7h7zM403 125h7q5 2 12 10q6 9 10 9q-1 -4 -3.5 -6t-6.5 -6v-14l6 -4t4 -4q-4 0 -10 -7v-13l7 -7h17q1 -6 4 -10q2 -6 18 -12q3 11 3 22q-9 11 -22 11v31q3 0 11 7l-6 6
q-3 2 -5 6q2 -1 12 -5q6 -2 17 -5q6 -2 19 -2v-22q3 -2 6.5 -3.5t4.5 -3.5q0 -16 4 -20h9q3 3 3 14v6q9 0 13 1.5t9 5.5q-7 8 -11 8v14q3 0 11 8v26q-3 2 -6 3.5t-5 5.5q0 8 -1.5 10t-9.5 5q7 0 12.5 5t6.5 5v-10q0 -8 7 -8q3 -10 4 -11.5t7 -4.5q0 -15 8 -22h3q2 2 4 8t3 6
q20 7 20 24q5 0 18 8v-58h-7q-3 -3 -3 -14q-4 -1 -14 -8q10 -7 32 -7q0 -5 -2 -6.5t-5 -6.5v-36q-4 2 -5.5 3.5t-2 3.5t-3.5 7h-20q0 -2 -2 -6q-2 -6 -2 -8q-4 0 -11 -8q7 0 11 -3v-7q-2 -2 -5 -3.5t-6 -4.5v-16q-19 0 -22 -8v-7l1 -1q0 1 -4 1q0 3 -2 8t-2 7q-18 0 -23 -8
v-7q11 -11 22 -11v-7h-7q-12 -5 -21 -7q-4 -1 -10 -1v15q7 0 7 7q0 35 -3 43h-3q-8 -8 -8 -39q-7 0 -11 -4v-14h-26l-4 -8v-38q-10 0 -24 -4q9 -7 14 -7v-18q-6 2 -6 6q0 3 -7 5h-4q-5 -2 -6 -5q-2 -4 -5 -6v18q3 0 11 7q0 57 -7 64h-4q-1 -1 -3 -2l-1 -1l4 3q-4 4 -11 4
q0 31 -7 39h-4q-6 -3 -5 -21q1 -34 1 -31v-55q0 -1 4 -3t4 -4v-7q0 -1 -3.5 -4.5t-3.5 -6.5h-29v25q0 2 -1 3l-4 2q-2 1 -5 3q-2 7 -7 16h-4q-7 -7 -7 -24q3 -2 7 -3l4 -4v-7q-5 -4 -15 -11q3 0 11 11v7q0 7 -18 7q-15 0 -18 -7v-11q0 4 -7 4q0 10 -5 15q-5 4 -16 7v16l-7 4
h-15v14q-6 8 -11 8q-4 12 -22 18v31q11 3 11 15q2 0 5.5 1.5t5.5 1.5q0 19 -4 22h-7q-3 -3 -3 -14q-5 0 -19 -8v44q4 0 7 2t4 2v38h18v-14q-5 0 -7 -4q-2 -2 -3 -4q29 0 36 8v7l-4 4l4 -4h17q0 -31 3 -35h-9l-7 -7v-15q-6 -2 -7 -3.5t-4 -10.5q-4 0 -11 -8h35v-10
q-9 -4 -13 -8q0 -11 7 -24q10 4 21 17v22h7q1 -12 3 -31h8q4 3 4 16q18 0 21 8v7l-7 7l7 4v14q3 -2 8 -3.5t7 -3.5q0 -8 1 -9.5t5 -8.5q27 0 32 11v9h-1q1 -2 5 -2q6 8 6.5 11t0.5 11q3 0 11 7v20q-7 8 -11 8q0 2 -2 4t-2 3zM617 129q2 -1 3 -2l1 -2h8q0 -3 -4 -7h-3
q-5 4 -5 11zM629 125q0 4 3 7q0 -2 -1 -3q-2 -3 -2 -4zM632 132v50q4 0 11 8v10h15l4 8v22h7v-90q-1 -2 -5 -3q-3 -2 -6 -5v-14l-14 -8q0 19 -8 22h-4zM456 -67q2 -1 3 -2l1 -2v3q-1 1 -4 1zM460 -71q4 -1 9 -8l6 -6q0 7 -7 14h-8zM468 -67q3 9 3 31h15q2 -2 3 -4q0 -4 4 -6
q2 -1 4 -1q-2 -2 -5 -3.5t-6 -3.5v-9q0 -5 -3 -5q-3 1 -6 1h-9zM414 -10q-1 -5 -1 -15v-12q0 -20 -2 -26h-4v49q3 0 7 4zM307 -89l3 -4q0 3 -1 4h-2zM310 -93q4 0 8 -3q-8 0 -8 3zM264 129q-3 0 -7 3v12l-7 7h-15v15q11 0 11 9v7q-1 3 -5.5 5t-5.5 3v10q-6 8 -11 8
q3 0 7 2.5t4 4.5v7q0 3 -4 4q-5 2 -7 4v34h8v-16l3 -7h15v-33q-8 0 -8 -8v-7q0 -3 8 -3v-24q2 -1 6 -4t5 -4v-26zM296 90q4 4 4 20h13q-2 -1 -3.5 -3t-2.5 -4v-31q-1 1 -3 2.5t-4 1.5q0 7 -4 14zM307 72l4.5 -2t6.5 -2h-8q-1 1 -1 2zM318 68q1 7 7 15v-15h-7zM531 237
q2 -2 3 -4l4 -2q2 -1 4 -1l1 -15h-18q0 8 -1.5 10t-11.5 5q0 34 -4 42h-3q-4 -2 -5 -8q-2 -6 -3 -7h-4v15h15q1 6 4 14h9v-14q8 -8 11 -8zM511 305q0 7 -6 7q-8 -7 -12 -7v14h15q0 -3 1.5 -8t1.5 -6zM300 290h-12q0 -2 -1.5 -6t-1.5 -5q-27 -7 -28 -7v25h15l7 8v14
q27 0 31 20q18 5 22 22h15q0 -29 7 -34h4q6 5 6 20q7 4 10 7v15q9 -8 11 -8h8q-1 0 7 8q0 -18 7 -22h4l3.5 7l3.5 7h15q1 -5 4 -11q1 -1 9 -3q-14 0 -14 -8v-7q4 -5 36 -5v-15h-39q-2 2 -3 8q-3 6 -4 7h-4q-2 -5 -7 -15h-4q-2 3 -7 15h-15q0 -6 -3 -15h-8q0 4 -3 15h-28
q-2 -6 -7 -15q-10 0 -20 -8z" />
    </font>
</defs>
</svg>
